# Exported using automatic converter by Erwin Coumans
mtllib model6.mtl
#object group1641533269_1

v 0.456107 -0.993719 0.375277
v 0.360434 -0.992683 0.379054
v 0.356342 -1.061872 0.369249
v 0.452014 -1.062908 0.365472
v 0.443362 -1.055346 0.286879
v 0.447454 -0.986157 0.296684
v 0.543127 -0.987192 0.292907
v 0.539035 -1.056381 0.283101
v 0.356342 -1.061872 0.369249
v 0.443362 -1.055346 0.286879
v 0.539035 -1.056381 0.283101
v 0.452014 -1.062908 0.365472
v 0.543127 -0.987192 0.292907
v 0.447454 -0.986157 0.296684
v 0.360434 -0.992683 0.379054
v 0.456107 -0.993719 0.375277
v 0.539035 -1.056381 0.283101
v 0.543127 -0.987192 0.292907
v 0.456107 -0.993719 0.375277
v 0.452014 -1.062908 0.365472
v 0.360434 -0.992683 0.379054
v 0.447454 -0.986157 0.296684
v 0.443362 -1.055346 0.286879
v 0.356342 -1.061872 0.369249
v 0.089055 -0.990610 0.377134
v -0.006477 -0.988731 0.383352
v -0.011162 -1.058361 0.377902
v 0.084370 -1.060241 0.371684
v 0.073667 -1.057426 0.293031
v 0.078352 -0.987796 0.298481
v 0.173884 -0.989675 0.292263
v 0.169199 -1.059305 0.286813
v -0.011162 -1.058361 0.377902
v 0.073667 -1.057426 0.293031
v 0.169199 -1.059305 0.286813
v 0.084370 -1.060241 0.371684
v 0.173884 -0.989675 0.292263
v 0.078352 -0.987796 0.298481
v -0.006477 -0.988731 0.383352
v 0.089055 -0.990610 0.377134
v 0.169199 -1.059305 0.286813
v 0.173884 -0.989675 0.292263
v 0.089055 -0.990610 0.377134
v 0.084370 -1.060241 0.371684
v -0.006477 -0.988731 0.383352
v 0.078352 -0.987796 0.298481
v 0.073667 -1.057426 0.293031
v -0.011162 -1.058361 0.377902
v -0.097073 -0.987353 0.377423
v -0.192244 -0.984083 0.387438
v -0.197881 -1.053808 0.384881
v -0.102710 -1.057079 0.374866
v -0.116603 -1.057144 0.296661
v -0.110966 -0.987418 0.299218
v -0.015795 -0.990689 0.289203
v -0.021431 -1.060414 0.286646
v -0.197881 -1.053808 0.384881
v -0.116603 -1.057144 0.296661
v -0.021431 -1.060414 0.286646
v -0.102710 -1.057079 0.374866
v -0.015795 -0.990689 0.289203
v -0.110966 -0.987418 0.299218
v -0.192244 -0.984083 0.387438
v -0.097073 -0.987353 0.377423
v -0.021431 -1.060414 0.286646
v -0.015795 -0.990689 0.289203
v -0.097073 -0.987353 0.377423
v -0.102710 -1.057079 0.374866
v -0.192244 -0.984083 0.387438
v -0.110966 -0.987418 0.299218
v -0.116603 -1.057144 0.296661
v -0.197881 -1.053808 0.384881
v 0.271652 -0.995835 0.375556
v 0.176264 -0.992656 0.383283
v 0.170452 -1.062103 0.376700
v 0.265839 -1.065282 0.368973
v 0.253984 -1.060929 0.290555
v 0.259796 -0.991482 0.297138
v 0.355184 -0.994661 0.289410
v 0.349371 -1.064108 0.282828
v 0.170452 -1.062103 0.376700
v 0.253984 -1.060929 0.290555
v 0.349371 -1.064108 0.282828
v 0.265839 -1.065282 0.368973
v 0.355184 -0.994661 0.289410
v 0.259796 -0.991482 0.297138
v 0.176264 -0.992656 0.383283
v 0.271652 -0.995835 0.375556
v 0.349371 -1.064108 0.282828
v 0.355184 -0.994661 0.289410
v 0.271652 -0.995835 0.375556
v 0.265839 -1.065282 0.368973
v 0.176264 -0.992656 0.383283
v 0.259796 -0.991482 0.297138
v 0.253984 -1.060929 0.290555
v 0.170452 -1.062103 0.376700
usemtl mat23

vn 0.037512 -0.142391 0.989099
vn 0.037512 -0.142391 0.989099
vn 0.037512 -0.142391 0.989099
vn 0.037512 -0.142391 0.989099
vn -0.037511 0.142391 -0.989100
vn -0.037511 0.142391 -0.989100
vn -0.037511 0.142391 -0.989100
vn -0.037511 0.142391 -0.989100
vn -0.014492 -0.995449 -0.094185
vn -0.014492 -0.995449 -0.094185
vn -0.014492 -0.995449 -0.094185
vn -0.014492 -0.995449 -0.094185
vn 0.014492 0.995449 0.094185
vn 0.014492 0.995449 0.094185
vn 0.014492 0.995449 0.094185
vn 0.014492 0.995449 0.094185
vn 0.686085 -0.141705 0.713587
vn 0.686085 -0.141705 0.713587
vn 0.686085 -0.141705 0.713587
vn 0.686085 -0.141705 0.713587
vn -0.686085 0.141705 -0.713587
vn -0.686085 0.141705 -0.713587
vn -0.686085 0.141705 -0.713587
vn -0.686085 0.141705 -0.713587
vn 0.063118 -0.082098 0.994624
vn 0.063118 -0.082098 0.994624
vn 0.063118 -0.082098 0.994624
vn 0.063118 -0.082098 0.994624
vn -0.063117 0.082098 -0.994624
vn -0.063117 0.082098 -0.994624
vn -0.063117 0.082098 -0.994624
vn -0.063117 0.082098 -0.994624
vn -0.021794 -0.999224 -0.032794
vn -0.021794 -0.999224 -0.032794
vn -0.021794 -0.999224 -0.032794
vn -0.021794 -0.999224 -0.032794
vn 0.021794 0.999224 0.032794
vn 0.021794 0.999224 0.032794
vn 0.021794 0.999224 0.032794
vn 0.021794 0.999224 0.032794
vn 0.704130 -0.102376 0.702652
vn 0.704130 -0.102376 0.702652
vn 0.704130 -0.102376 0.702652
vn 0.704130 -0.102376 0.702652
vn -0.704130 0.102376 -0.702652
vn -0.704130 0.102376 -0.702652
vn -0.704130 0.102376 -0.702652
vn -0.704130 0.102376 -0.702652
vn 0.103028 -0.044769 0.993670
vn 0.103028 -0.044769 0.993670
vn 0.103028 -0.044769 0.993670
vn 0.103028 -0.044769 0.993670
vn -0.103028 0.044769 -0.993671
vn -0.103028 0.044769 -0.993671
vn -0.103028 0.044769 -0.993671
vn -0.103028 0.044769 -0.993671
vn -0.033626 -0.999411 0.006806
vn -0.033626 -0.999411 0.006806
vn -0.033626 -0.999411 0.006806
vn -0.033626 -0.999411 0.006806
vn 0.033627 0.999411 -0.006806
vn 0.033627 0.999411 -0.006806
vn 0.033627 0.999411 -0.006806
vn 0.033627 0.999411 -0.006806
vn 0.731266 -0.083941 0.676908
vn 0.731266 -0.083941 0.676908
vn 0.731266 -0.083941 0.676908
vn 0.731266 -0.083941 0.676908
vn -0.731266 0.083941 -0.676908
vn -0.731266 0.083941 -0.676908
vn -0.731266 0.083941 -0.676908
vn -0.731266 0.083941 -0.676908
vn 0.077012 -0.100472 0.991955
vn 0.077012 -0.100472 0.991955
vn 0.077012 -0.100472 0.991955
vn 0.077012 -0.100472 0.991955
vn -0.077011 0.100472 -0.991955
vn -0.077011 0.100472 -0.991955
vn -0.077011 0.100472 -0.991955
vn -0.077011 0.100472 -0.991955
vn -0.037293 -0.998065 -0.049765
vn -0.037293 -0.998065 -0.049765
vn -0.037293 -0.998065 -0.049765
vn -0.037293 -0.998065 -0.049765
vn 0.037293 0.998065 0.049765
vn 0.037293 0.998065 0.049765
vn 0.037293 0.998065 0.049765
vn 0.037293 0.998065 0.049765
vn 0.713128 -0.125072 0.689786
vn 0.713128 -0.125072 0.689786
vn 0.713128 -0.125072 0.689786
vn 0.713128 -0.125072 0.689786
vn -0.713128 0.125072 -0.689786
vn -0.713128 0.125072 -0.689786
vn -0.713128 0.125072 -0.689786
vn -0.713128 0.125072 -0.689786

vt -0.033587 -0.003986
vt -0.029607 -0.012696
vt -0.035846 -0.015871
vt -0.039825 -0.007162
vt 0.039938 -0.007832
vt 0.033699 -0.004656
vt 0.037679 0.004053
vt 0.043917 0.000878
vt 0.123289 -0.044081
vt 0.118902 -0.032911
vt 0.122158 -0.023906
vt 0.126545 -0.035076
vt -0.122574 -0.023743
vt -0.119319 -0.032748
vt -0.123706 -0.043917
vt -0.126961 -0.034912
vt -0.004489 -0.077184
vt 0.001762 -0.074034
vt 0.007162 -0.084750
vt 0.000911 -0.087900
vt -0.010038 -0.091354
vt -0.004638 -0.080638
vt 0.001614 -0.083788
vt -0.003786 -0.094504
vt -0.023829 -0.044043
vt -0.019624 -0.052646
vt -0.025777 -0.055983
vt -0.029982 -0.047380
vt 0.030077 -0.048053
vt 0.023924 -0.044716
vt 0.028129 -0.036113
vt 0.034283 -0.039450
vt 0.109465 -0.074211
vt 0.104523 -0.063276
vt 0.107322 -0.054119
vt 0.112264 -0.065053
vt -0.107729 -0.053934
vt -0.104930 -0.063091
vt -0.109873 -0.074026
vt -0.112672 -0.064869
vt 0.002738 -0.105516
vt 0.008854 -0.102110
vt 0.014692 -0.112594
vt 0.008577 -0.116000
vt -0.017838 -0.119074
vt -0.012000 -0.108590
vt -0.005884 -0.111996
vt -0.011722 -0.122480
vt -0.017633 -0.067411
vt -0.013243 -0.075921
vt -0.019323 -0.079390
vt -0.023713 -0.070880
vt 0.023793 -0.071554
vt 0.017713 -0.068086
vt 0.022103 -0.059576
vt 0.028183 -0.063045
vt 0.103122 -0.088821
vt 0.097574 -0.078181
vt 0.099855 -0.068881
vt 0.105403 -0.079522
vt -0.100252 -0.068674
vt -0.097971 -0.077974
vt -0.103519 -0.088615
vt -0.105800 -0.079315
vt 0.008342 -0.120565
vt 0.014316 -0.116917
vt 0.020570 -0.127158
vt 0.014596 -0.130807
vt -0.023974 -0.133506
vt -0.017719 -0.123265
vt -0.011745 -0.126914
vt -0.018000 -0.137155
vt -0.029149 -0.028144
vt -0.024873 -0.036711
vt -0.030998 -0.040099
vt -0.035275 -0.031532
vt 0.035364 -0.032206
vt 0.029239 -0.028818
vt 0.033515 -0.020251
vt 0.039641 -0.023639
vt 0.116311 -0.057945
vt 0.111316 -0.047034
vt 0.114071 -0.037864
vt 0.119066 -0.048775
vt -0.114478 -0.037678
vt -0.111723 -0.046848
vt -0.116718 -0.057759
vt -0.119473 -0.048589
vt 0.000470 -0.094005
vt 0.006552 -0.090539
vt 0.012493 -0.100965
vt 0.006411 -0.104431
vt -0.015702 -0.107414
vt -0.009762 -0.096988
vt -0.003680 -0.100453
vt -0.009620 -0.110879
s off
f 1/1/1 2/2/2 3/3/3
f 1/1/1 3/3/3 4/4/4
f 5/5/5 6/6/6 7/7/7
f 5/5/5 7/7/7 8/8/8
f 9/9/9 10/10/10 11/11/11
f 9/9/9 11/11/11 12/12/12
f 13/13/13 14/14/14 15/15/15
f 13/13/13 15/15/15 16/16/16
f 17/17/17 18/18/18 19/19/19
f 17/17/17 19/19/19 20/20/20
f 21/21/21 22/22/22 23/23/23
f 21/21/21 23/23/23 24/24/24
f 25/25/25 26/26/26 27/27/27
f 25/25/25 27/27/27 28/28/28
f 29/29/29 30/30/30 31/31/31
f 29/29/29 31/31/31 32/32/32
f 33/33/33 34/34/34 35/35/35
f 33/33/33 35/35/35 36/36/36
f 37/37/37 38/38/38 39/39/39
f 37/37/37 39/39/39 40/40/40
f 41/41/41 42/42/42 43/43/43
f 41/41/41 43/43/43 44/44/44
f 45/45/45 46/46/46 47/47/47
f 45/45/45 47/47/47 48/48/48
f 49/49/49 50/50/50 51/51/51
f 49/49/49 51/51/51 52/52/52
f 53/53/53 54/54/54 55/55/55
f 53/53/53 55/55/55 56/56/56
f 57/57/57 58/58/58 59/59/59
f 57/57/57 59/59/59 60/60/60
f 61/61/61 62/62/62 63/63/63
f 61/61/61 63/63/63 64/64/64
f 65/65/65 66/66/66 67/67/67
f 65/65/65 67/67/67 68/68/68
f 69/69/69 70/70/70 71/71/71
f 69/69/69 71/71/71 72/72/72
f 73/73/73 74/74/74 75/75/75
f 73/73/73 75/75/75 76/76/76
f 77/77/77 78/78/78 79/79/79
f 77/77/77 79/79/79 80/80/80
f 81/81/81 82/82/82 83/83/83
f 81/81/81 83/83/83 84/84/84
f 85/85/85 86/86/86 87/87/87
f 85/85/85 87/87/87 88/88/88
f 89/89/89 90/90/90 91/91/91
f 89/89/89 91/91/91 92/92/92
f 93/93/93 94/94/94 95/95/95
f 93/93/93 95/95/95 96/96/96
