# Exported using automatic converter by Erwin Coumans
mtllib model6.mtl
#object group1314334321_1

v -2.434843 0.189141 1.205962
v -2.474649 0.170275 1.219611
v -2.457040 0.167627 1.267304
v -2.417234 0.186493 1.253655
v -2.443834 0.165641 1.303074
v -2.404028 0.184507 1.289425
v -2.417234 0.186493 1.253655
v -2.457040 0.167627 1.267304
v -2.417420 0.161669 1.374614
v -2.377614 0.180536 1.360965
v -2.404028 0.184507 1.289425
v -2.443834 0.165641 1.303074
v -2.386605 0.157035 1.458078
v -2.346799 0.175902 1.444428
v -2.377614 0.180536 1.360965
v -2.417420 0.161669 1.374614
v -2.257495 0.056454 1.404824
v -2.283485 0.019109 1.412346
v -2.314300 0.023743 1.328883
v -2.288310 0.061088 1.321360
v -2.377800 0.155711 1.481924
v -2.337995 0.174578 1.468275
v -2.346799 0.175902 1.444428
v -2.386605 0.157035 1.458078
usemtl mat21

vn -0.367865 0.911005 0.186401
vn -0.367865 0.911005 0.186401
vn -0.367865 0.911005 0.186401
vn -0.367865 0.911005 0.186401
vn -0.367869 0.911005 0.186392
vn -0.367869 0.911005 0.186392
vn -0.367869 0.911005 0.186392
vn -0.367869 0.911005 0.186392
vn -0.367867 0.911005 0.186397
vn -0.367867 0.911005 0.186397
vn -0.367867 0.911005 0.186397
vn -0.367867 0.911005 0.186397
vn -0.367865 0.911005 0.186401
vn -0.367865 0.911005 0.186401
vn -0.367865 0.911005 0.186401
vn -0.367865 0.911005 0.186401
vn 0.750164 -0.584397 -0.309411
vn 0.750164 -0.584397 -0.309411
vn 0.750164 -0.584397 -0.309411
vn 0.750164 -0.584397 -0.309411
vn -0.367869 0.911005 0.186391
vn -0.367869 0.911005 0.186391
vn -0.367869 0.911005 0.186391
vn -0.367869 0.911005 0.186391

vt -0.094580 -0.272456
vt -0.094523 -0.277068
vt -0.099613 -0.277131
vt -0.099671 -0.272520
vt -0.103433 -0.277179
vt -0.103491 -0.272568
vt -0.099673 -0.272520
vt -0.099615 -0.277131
vt -0.111068 -0.277275
vt -0.111125 -0.272664
vt -0.103490 -0.272568
vt -0.103432 -0.277179
vt -0.119975 -0.277386
vt -0.120033 -0.272775
vt -0.111125 -0.272664
vt -0.111067 -0.277275
vt 0.121450 -0.139979
vt 0.121384 -0.144591
vt 0.112476 -0.144463
vt 0.112542 -0.139852
vt -0.122523 -0.277418
vt -0.122580 -0.272807
vt -0.120035 -0.272775
vt -0.119977 -0.277386
s off
f 1/1/1 2/2/2 3/3/3
f 1/1/1 3/3/3 4/4/4
f 5/5/5 6/6/6 7/7/7
f 5/5/5 7/7/7 8/8/8
f 9/9/9 10/10/10 11/11/11
f 9/9/9 11/11/11 12/12/12
f 13/13/13 14/14/14 15/15/15
f 13/13/13 15/15/15 16/16/16
f 17/17/17 18/18/18 19/19/19
f 17/17/17 19/19/19 20/20/20
f 21/21/21 22/22/22 23/23/23
f 21/21/21 23/23/23 24/24/24
