# Exported using automatic converter by Erwin Coumans
mtllib model6.mtl
#object group1761773202_6

v 0.508540 -0.534357 -2.395754
v 0.507854 -0.492773 -2.396335
v 0.503477 -0.493423 -2.437693
v 0.504163 -0.535007 -2.437112
v 0.531048 -0.493009 -2.440618
v 0.535426 -0.492359 -2.399260
v 0.536112 -0.533943 -2.398679
v 0.531734 -0.534593 -2.440037
v 0.503477 -0.493423 -2.437693
v 0.531048 -0.493009 -2.440618
v 0.531734 -0.534593 -2.440037
v 0.504163 -0.535007 -2.437112
v 0.536112 -0.533943 -2.398679
v 0.535426 -0.492359 -2.399260
v 0.507854 -0.492773 -2.396335
v 0.508540 -0.534357 -2.395754
v 0.531734 -0.534593 -2.440037
v 0.536112 -0.533943 -2.398679
v 0.508540 -0.534357 -2.395754
v 0.504163 -0.535007 -2.437112
v 0.507854 -0.492773 -2.396335
v 0.535426 -0.492359 -2.399260
v 0.531048 -0.493009 -2.440618
v 0.503477 -0.493423 -2.437693
v 0.563913 -0.547391 -2.401410
v 0.562998 -0.491945 -2.402185
v 0.560079 -0.492378 -2.429757
v 0.560994 -0.547824 -2.428982
v 0.587651 -0.491964 -2.432682
v 0.590569 -0.491531 -2.405110
v 0.591484 -0.546977 -2.404335
v 0.588566 -0.547410 -2.431907
v 0.560079 -0.492378 -2.429757
v 0.587651 -0.491964 -2.432682
v 0.588566 -0.547410 -2.431907
v 0.560994 -0.547824 -2.428982
v 0.591484 -0.546977 -2.404335
v 0.590569 -0.491531 -2.405110
v 0.562998 -0.491945 -2.402185
v 0.563913 -0.547391 -2.401410
v 0.588566 -0.547410 -2.431907
v 0.591484 -0.546977 -2.404335
v 0.563913 -0.547391 -2.401410
v 0.560994 -0.547824 -2.428982
v 0.562998 -0.491945 -2.402185
v 0.590569 -0.491531 -2.405110
v 0.587651 -0.491964 -2.432682
v 0.560079 -0.492378 -2.429757
v 0.455085 -0.548830 -2.375924
v 0.454171 -0.493384 -2.376699
v 0.448334 -0.494251 -2.431843
v 0.449248 -0.549697 -2.431068
v 0.475905 -0.493837 -2.434768
v 0.481742 -0.492970 -2.379624
v 0.482657 -0.548416 -2.378849
v 0.476820 -0.549283 -2.433993
v 0.448334 -0.494251 -2.431843
v 0.475905 -0.493837 -2.434768
v 0.476820 -0.549283 -2.433993
v 0.449248 -0.549697 -2.431068
v 0.482657 -0.548416 -2.378849
v 0.481742 -0.492970 -2.379624
v 0.454171 -0.493384 -2.376699
v 0.455085 -0.548830 -2.375924
v 0.476820 -0.549283 -2.433993
v 0.482657 -0.548416 -2.378849
v 0.455085 -0.548830 -2.375924
v 0.449248 -0.549697 -2.431068
v 0.454171 -0.493384 -2.376699
v 0.481742 -0.492970 -2.379624
v 0.475905 -0.493837 -2.434768
v 0.448334 -0.494251 -2.431843
usemtl mat3

vn -0.994309 -0.014931 0.105482
vn -0.994309 -0.014931 0.105482
vn -0.994309 -0.014931 0.105482
vn -0.994309 -0.014931 0.105482
vn 0.994309 0.014931 -0.105482
vn 0.994309 0.014931 -0.105482
vn 0.994309 0.014931 -0.105482
vn 0.994309 0.014931 -0.105482
vn -0.105249 -0.015631 -0.994323
vn -0.105249 -0.015631 -0.994323
vn -0.105249 -0.015631 -0.994323
vn -0.105249 -0.015631 -0.994323
vn 0.105249 0.015631 0.994323
vn 0.105249 0.015631 0.994323
vn 0.105249 0.015631 0.994323
vn 0.105249 0.015631 0.994323
vn 0.016495 -0.999766 0.013971
vn 0.016495 -0.999766 0.013971
vn 0.016495 -0.999766 0.013971
vn 0.016495 -0.999766 0.013971
vn -0.016495 0.999766 -0.013971
vn -0.016495 0.999766 -0.013971
vn -0.016495 0.999766 -0.013971
vn -0.016495 0.999766 -0.013971
vn -0.994309 -0.014931 0.105482
vn -0.994309 -0.014931 0.105482
vn -0.994309 -0.014931 0.105482
vn -0.994309 -0.014931 0.105482
vn 0.994309 0.014931 -0.105482
vn 0.994309 0.014931 -0.105482
vn 0.994309 0.014931 -0.105482
vn 0.994309 0.014931 -0.105482
vn -0.105249 -0.015631 -0.994323
vn -0.105249 -0.015631 -0.994323
vn -0.105249 -0.015631 -0.994323
vn -0.105249 -0.015631 -0.994323
vn 0.105249 0.015631 0.994323
vn 0.105249 0.015631 0.994323
vn 0.105249 0.015631 0.994323
vn 0.105249 0.015631 0.994323
vn 0.016495 -0.999766 0.013971
vn 0.016495 -0.999766 0.013971
vn 0.016495 -0.999766 0.013971
vn 0.016495 -0.999766 0.013971
vn -0.016495 0.999766 -0.013971
vn -0.016495 0.999766 -0.013971
vn -0.016495 0.999766 -0.013971
vn -0.016495 0.999766 -0.013971
vn -0.994309 -0.014931 0.105482
vn -0.994309 -0.014931 0.105482
vn -0.994309 -0.014931 0.105482
vn -0.994309 -0.014931 0.105482
vn 0.994309 0.014931 -0.105482
vn 0.994309 0.014931 -0.105482
vn 0.994309 0.014931 -0.105482
vn 0.994309 0.014931 -0.105482
vn -0.105249 -0.015631 -0.994323
vn -0.105249 -0.015631 -0.994323
vn -0.105249 -0.015631 -0.994323
vn -0.105249 -0.015631 -0.994323
vn 0.105249 0.015631 0.994323
vn 0.105249 0.015631 0.994323
vn 0.105249 0.015631 0.994323
vn 0.105249 0.015631 0.994323
vn 0.016495 -0.999766 0.013971
vn 0.016495 -0.999766 0.013971
vn 0.016495 -0.999766 0.013971
vn 0.016495 -0.999766 0.013971
vn -0.016495 0.999766 -0.013971
vn -0.016495 0.999766 -0.013971
vn -0.016495 0.999766 -0.013971
vn -0.016495 0.999766 -0.013971

vt 0.133742 0.062702
vt 0.131894 0.066429
vt 0.135621 0.068276
vt 0.137468 0.064549
vt -0.135621 0.068276
vt -0.131894 0.066429
vt -0.133742 0.062702
vt -0.137468 0.064549
vt 0.014332 0.032736
vt 0.015511 0.035246
vt 0.019276 0.033477
vt 0.018097 0.030967
vt -0.019276 0.033477
vt -0.015511 0.035246
vt -0.014332 0.032736
vt -0.018097 0.030967
vt -0.139148 0.071929
vt -0.135097 0.070986
vt -0.135726 0.068285
vt -0.139777 0.069228
vt 0.135725 0.068285
vt 0.135097 0.070986
vt 0.139148 0.071929
vt 0.139777 0.069228
vt 0.134357 0.061460
vt 0.131894 0.066429
vt 0.134379 0.067660
vt 0.136842 0.062691
vt -0.134379 0.067660
vt -0.131894 0.066429
vt -0.134357 0.061460
vt -0.136842 0.062691
vt 0.016691 0.037755
vt 0.017870 0.040265
vt 0.022889 0.037907
vt 0.021710 0.035397
vt -0.022889 0.037907
vt -0.017870 0.040265
vt -0.016691 0.037755
vt -0.021710 0.035397
vt -0.136540 0.077016
vt -0.133839 0.076387
vt -0.134468 0.073686
vt -0.137168 0.074315
vt 0.134468 0.073686
vt 0.133839 0.076387
vt 0.136540 0.077016
vt 0.137168 0.074315
vt 0.133115 0.060844
vt 0.130652 0.065813
vt 0.135621 0.068276
vt 0.138084 0.063307
vt -0.135621 0.068276
vt -0.130652 0.065813
vt -0.133115 0.060844
vt -0.138084 0.063307
vt 0.011974 0.027716
vt 0.013153 0.030226
vt 0.018173 0.027868
vt 0.016993 0.025358
vt -0.018173 0.027868
vt -0.013153 0.030226
vt -0.011974 0.027716
vt -0.016993 0.025358
vt -0.140405 0.066528
vt -0.135004 0.065270
vt -0.135633 0.062569
vt -0.141034 0.063827
vt 0.135633 0.062569
vt 0.135004 0.065270
vt 0.140405 0.066528
vt 0.141034 0.063827
s off
f 1/1/1 2/2/2 3/3/3
f 1/1/1 3/3/3 4/4/4
f 5/5/5 6/6/6 7/7/7
f 5/5/5 7/7/7 8/8/8
f 9/9/9 10/10/10 11/11/11
f 9/9/9 11/11/11 12/12/12
f 13/13/13 14/14/14 15/15/15
f 13/13/13 15/15/15 16/16/16
f 17/17/17 18/18/18 19/19/19
f 17/17/17 19/19/19 20/20/20
f 21/21/21 22/22/22 23/23/23
f 21/21/21 23/23/23 24/24/24
f 25/25/25 26/26/26 27/27/27
f 25/25/25 27/27/27 28/28/28
f 29/29/29 30/30/30 31/31/31
f 29/29/29 31/31/31 32/32/32
f 33/33/33 34/34/34 35/35/35
f 33/33/33 35/35/35 36/36/36
f 37/37/37 38/38/38 39/39/39
f 37/37/37 39/39/39 40/40/40
f 41/41/41 42/42/42 43/43/43
f 41/41/41 43/43/43 44/44/44
f 45/45/45 46/46/46 47/47/47
f 45/45/45 47/47/47 48/48/48
f 49/49/49 50/50/50 51/51/51
f 49/49/49 51/51/51 52/52/52
f 53/53/53 54/54/54 55/55/55
f 53/53/53 55/55/55 56/56/56
f 57/57/57 58/58/58 59/59/59
f 57/57/57 59/59/59 60/60/60
f 61/61/61 62/62/62 63/63/63
f 61/61/61 63/63/63 64/64/64
f 65/65/65 66/66/66 67/67/67
f 65/65/65 67/67/67 68/68/68
f 69/69/69 70/70/70 71/71/71
f 69/69/69 71/71/71 72/72/72
