# Exported using automatic converter by Erwin Coumans
mtllib model6.mtl
#object group1625720476_1

v -0.888714 -1.059901 1.678872
v -0.827593 -1.061304 1.605178
v -0.831609 -0.991936 1.596689
v -0.892730 -0.990534 1.670383
v -0.950010 -0.996467 1.615678
v -0.945994 -1.065834 1.624166
v -1.007115 -1.064432 1.697861
v -1.011131 -0.995065 1.689372
v -0.831609 -0.991936 1.596689
v -0.950010 -0.996467 1.615678
v -1.011131 -0.995065 1.689372
v -0.892730 -0.990534 1.670383
v -1.007115 -1.064432 1.697861
v -0.945994 -1.065834 1.624166
v -0.827593 -1.061304 1.605178
v -0.888714 -1.059901 1.678872
v -1.011131 -0.995065 1.689372
v -1.007115 -1.064432 1.697861
v -0.888714 -1.059901 1.678872
v -0.892730 -0.990534 1.670383
v -0.827593 -1.061304 1.605178
v -0.945994 -1.065834 1.624166
v -0.950010 -0.996467 1.615678
v -0.831609 -0.991936 1.596689
v -1.113891 -1.058580 1.968645
v -1.054669 -1.059360 1.893408
v -1.062499 -0.990617 1.882774
v -1.121721 -0.989837 1.958012
v -1.179985 -1.000544 1.905100
v -1.172155 -1.069287 1.915734
v -1.231377 -1.068508 1.990972
v -1.239207 -0.999765 1.980338
v -1.062499 -0.990617 1.882774
v -1.179985 -1.000544 1.905100
v -1.239207 -0.999765 1.980338
v -1.121721 -0.989837 1.958012
v -1.231377 -1.068508 1.990972
v -1.172155 -1.069287 1.915734
v -1.054669 -1.059360 1.893408
v -1.113891 -1.058580 1.968645
v -1.239207 -0.999765 1.980338
v -1.231377 -1.068508 1.990972
v -1.113891 -1.058580 1.968645
v -1.121721 -0.989837 1.958012
v -1.054669 -1.059360 1.893408
v -1.172155 -1.069287 1.915734
v -1.179985 -1.000544 1.905100
v -1.062499 -0.990617 1.882774
v -0.776964 -1.061411 1.529963
v -0.712963 -1.064050 1.458791
v -0.714065 -0.994466 1.451247
v -0.778066 -0.991828 1.522419
v -0.833232 -0.994823 1.465352
v -0.832131 -1.064407 1.472896
v -0.896132 -1.061768 1.544068
v -0.897233 -0.992185 1.536524
v -0.714065 -0.994466 1.451247
v -0.833232 -0.994823 1.465352
v -0.897233 -0.992185 1.536524
v -0.778066 -0.991828 1.522419
v -0.896132 -1.061768 1.544068
v -0.832131 -1.064407 1.472896
v -0.712963 -1.064050 1.458791
v -0.776964 -1.061411 1.529963
v -0.897233 -0.992185 1.536524
v -0.896132 -1.061768 1.544068
v -0.776964 -1.061411 1.529963
v -0.778066 -0.991828 1.522419
v -0.712963 -1.064050 1.458791
v -0.832131 -1.064407 1.472896
v -0.833232 -0.994823 1.465352
v -0.714065 -0.994466 1.451247
v -1.003374 -1.054045 1.821029
v -0.941105 -1.056795 1.748340
v -0.945298 -0.987654 1.738242
v -1.007566 -0.984904 1.810930
v -1.063960 -0.992331 1.755491
v -1.059767 -1.061471 1.765589
v -1.122035 -1.058721 1.838278
v -1.126228 -0.989581 1.828179
v -0.945298 -0.987654 1.738242
v -1.063960 -0.992331 1.755491
v -1.126228 -0.989581 1.828179
v -1.007566 -0.984904 1.810930
v -1.122035 -1.058721 1.838278
v -1.059767 -1.061471 1.765589
v -0.941105 -1.056795 1.748340
v -1.003374 -1.054045 1.821029
v -1.126228 -0.989581 1.828179
v -1.122035 -1.058721 1.838278
v -1.003374 -1.054045 1.821029
v -1.007566 -0.984904 1.810930
v -0.941105 -1.056795 1.748340
v -1.059767 -1.061471 1.765589
v -1.063960 -0.992331 1.755491
v -0.945298 -0.987654 1.738242
usemtl mat12

vn 0.765131 0.121663 0.632275
vn 0.765131 0.121663 0.632275
vn 0.765131 0.121663 0.632275
vn 0.765131 0.121663 0.632275
vn -0.765132 -0.121663 -0.632275
vn -0.765132 -0.121663 -0.632275
vn -0.765132 -0.121663 -0.632275
vn -0.765132 -0.121663 -0.632275
vn -0.047520 0.997162 -0.058388
vn -0.047520 0.997162 -0.058388
vn -0.047520 0.997162 -0.058388
vn -0.047520 0.997162 -0.058388
vn 0.047520 -0.997162 0.058388
vn 0.047520 -0.997162 0.058388
vn 0.047520 -0.997162 0.058388
vn 0.047520 -0.997162 0.058388
vn 0.152233 0.128724 0.979926
vn 0.152233 0.128724 0.979926
vn 0.152233 0.128724 0.979926
vn 0.152233 0.128724 0.979926
vn -0.152233 -0.128724 -0.979926
vn -0.152233 -0.128724 -0.979926
vn -0.152233 -0.128724 -0.979926
vn -0.152233 -0.128724 -0.979926
vn 0.773566 0.182005 0.607017
vn 0.773566 0.182005 0.607017
vn 0.773566 0.182005 0.607017
vn 0.773566 0.182005 0.607017
vn -0.773566 -0.182005 -0.607017
vn -0.773566 -0.182005 -0.607017
vn -0.773566 -0.182005 -0.607017
vn -0.773566 -0.182005 -0.607017
vn -0.100748 0.990872 -0.089566
vn -0.100748 0.990872 -0.089566
vn -0.100748 0.990872 -0.089566
vn -0.100748 0.990872 -0.089566
vn 0.100748 -0.990872 0.089566
vn 0.100748 -0.990872 0.089566
vn 0.100748 -0.990872 0.089566
vn 0.100748 -0.990872 0.089566
vn 0.170145 0.169541 0.970725
vn 0.170145 0.169541 0.970725
vn 0.170145 0.169541 0.970725
vn 0.170145 0.169541 0.970725
vn -0.170145 -0.169541 -0.970725
vn -0.170145 -0.169541 -0.970725
vn -0.170145 -0.169541 -0.970725
vn -0.170145 -0.169541 -0.970725
vn 0.742500 0.083798 0.664584
vn 0.742500 0.083798 0.664584
vn 0.742500 0.083798 0.664584
vn 0.742500 0.083798 0.664584
vn -0.742501 -0.083798 -0.664583
vn -0.742501 -0.083798 -0.664583
vn -0.742501 -0.083798 -0.664583
vn -0.742501 -0.083798 -0.664583
vn -0.008252 0.998977 -0.044455
vn -0.008252 0.998977 -0.044455
vn -0.008252 0.998977 -0.044455
vn -0.008252 0.998977 -0.044455
vn 0.008252 -0.998977 0.044455
vn 0.008252 -0.998977 0.044455
vn 0.008252 -0.998977 0.044455
vn 0.008252 -0.998977 0.044455
vn 0.116526 0.108868 0.987203
vn 0.116526 0.108868 0.987203
vn 0.116526 0.108868 0.987203
vn 0.116526 0.108868 0.987203
vn -0.116526 -0.108868 -0.987203
vn -0.116526 -0.108868 -0.987203
vn -0.116526 -0.108868 -0.987203
vn -0.116526 -0.108868 -0.987203
vn 0.754627 0.139409 0.641173
vn 0.754627 0.139409 0.641173
vn 0.754627 0.139409 0.641173
vn 0.754627 0.139409 0.641173
vn -0.754628 -0.139409 -0.641173
vn -0.754628 -0.139409 -0.641173
vn -0.754628 -0.139409 -0.641173
vn -0.754628 -0.139409 -0.641173
vn -0.051060 0.995373 -0.081400
vn -0.051060 0.995373 -0.081400
vn -0.051060 0.995373 -0.081400
vn -0.051060 0.995373 -0.081400
vn 0.051060 -0.995373 0.081400
vn 0.051060 -0.995373 0.081400
vn 0.051060 -0.995373 0.081400
vn 0.051060 -0.995373 0.081400
vn 0.136356 0.151265 0.979043
vn 0.136356 0.151265 0.979043
vn 0.136356 0.151265 0.979043
vn 0.136356 0.151265 0.979043
vn -0.136356 -0.151265 -0.979043
vn -0.136356 -0.151265 -0.979043
vn -0.136356 -0.151265 -0.979043
vn -0.136356 -0.151265 -0.979043

vt 0.057467 -0.276147
vt 0.053256 -0.267547
vt 0.059407 -0.264206
vt 0.063618 -0.272806
vt -0.063712 -0.272133
vt -0.057561 -0.275474
vt -0.061772 -0.284074
vt -0.067924 -0.280733
vt -0.198017 -0.186107
vt -0.196188 -0.197966
vt -0.201339 -0.206038
vt -0.203169 -0.194178
vt 0.201781 -0.206106
vt 0.196630 -0.198034
vt 0.198460 -0.186175
vt 0.203611 -0.194246
vt 0.003716 -0.188177
vt -0.002660 -0.191067
vt -0.007614 -0.180138
vt -0.001238 -0.177248
vt 0.010215 -0.173421
vt 0.005261 -0.184350
vt -0.001115 -0.181460
vt 0.003839 -0.170531
vt 0.061550 -0.314073
vt 0.057676 -0.305316
vt 0.063952 -0.302217
vt 0.067826 -0.310973
vt -0.067947 -0.310305
vt -0.061671 -0.313404
vt -0.065545 -0.322161
vt -0.071821 -0.319061
vt -0.219507 -0.215212
vt -0.218197 -0.227140
vt -0.223697 -0.234978
vt -0.225006 -0.223050
vt 0.224142 -0.235027
vt 0.218642 -0.227189
vt 0.219951 -0.215261
vt 0.225451 -0.223099
vt 0.006053 -0.222777
vt -0.000449 -0.225370
vt -0.004894 -0.214223
vt 0.001608 -0.211630
vt 0.007183 -0.207394
vt 0.002738 -0.218540
vt -0.003764 -0.215947
vt 0.000681 -0.204801
vt 0.053194 -0.255256
vt 0.048755 -0.246772
vt 0.054815 -0.243268
vt 0.059254 -0.251752
vt -0.059330 -0.251077
vt -0.053270 -0.254581
vt -0.057709 -0.263065
vt -0.063769 -0.259561
vt -0.187294 -0.170683
vt -0.184863 -0.182434
vt -0.189597 -0.190757
vt -0.192028 -0.179006
vt 0.190035 -0.190848
vt 0.185301 -0.182524
vt 0.187732 -0.170773
vt 0.192466 -0.179096
vt -0.000277 -0.166137
vt -0.006534 -0.169275
vt -0.011914 -0.158548
vt -0.005656 -0.155410
vt 0.014776 -0.151938
vt 0.009397 -0.162665
vt 0.003140 -0.159527
vt 0.008519 -0.148801
vt 0.060517 -0.292936
vt 0.056280 -0.284350
vt 0.062421 -0.280990
vt 0.066658 -0.289577
vt -0.066750 -0.288904
vt -0.060609 -0.292263
vt -0.064847 -0.300850
vt -0.070988 -0.297490
vt -0.208636 -0.198911
vt -0.206752 -0.210762
vt -0.211867 -0.218857
vt -0.213751 -0.207006
vt 0.212309 -0.218927
vt 0.207194 -0.210832
vt 0.209078 -0.198981
vt 0.214192 -0.207076
vt 0.002982 -0.199804
vt -0.003382 -0.202719
vt -0.008380 -0.191810
vt -0.002016 -0.188894
vt 0.011008 -0.185103
vt 0.006010 -0.196013
vt -0.000354 -0.193097
vt 0.004644 -0.182188
s off
f 1/1/1 2/2/2 3/3/3
f 1/1/1 3/3/3 4/4/4
f 5/5/5 6/6/6 7/7/7
f 5/5/5 7/7/7 8/8/8
f 9/9/9 10/10/10 11/11/11
f 9/9/9 11/11/11 12/12/12
f 13/13/13 14/14/14 15/15/15
f 13/13/13 15/15/15 16/16/16
f 17/17/17 18/18/18 19/19/19
f 17/17/17 19/19/19 20/20/20
f 21/21/21 22/22/22 23/23/23
f 21/21/21 23/23/23 24/24/24
f 25/25/25 26/26/26 27/27/27
f 25/25/25 27/27/27 28/28/28
f 29/29/29 30/30/30 31/31/31
f 29/29/29 31/31/31 32/32/32
f 33/33/33 34/34/34 35/35/35
f 33/33/33 35/35/35 36/36/36
f 37/37/37 38/38/38 39/39/39
f 37/37/37 39/39/39 40/40/40
f 41/41/41 42/42/42 43/43/43
f 41/41/41 43/43/43 44/44/44
f 45/45/45 46/46/46 47/47/47
f 45/45/45 47/47/47 48/48/48
f 49/49/49 50/50/50 51/51/51
f 49/49/49 51/51/51 52/52/52
f 53/53/53 54/54/54 55/55/55
f 53/53/53 55/55/55 56/56/56
f 57/57/57 58/58/58 59/59/59
f 57/57/57 59/59/59 60/60/60
f 61/61/61 62/62/62 63/63/63
f 61/61/61 63/63/63 64/64/64
f 65/65/65 66/66/66 67/67/67
f 65/65/65 67/67/67 68/68/68
f 69/69/69 70/70/70 71/71/71
f 69/69/69 71/71/71 72/72/72
f 73/73/73 74/74/74 75/75/75
f 73/73/73 75/75/75 76/76/76
f 77/77/77 78/78/78 79/79/79
f 77/77/77 79/79/79 80/80/80
f 81/81/81 82/82/82 83/83/83
f 81/81/81 83/83/83 84/84/84
f 85/85/85 86/86/86 87/87/87
f 85/85/85 87/87/87 88/88/88
f 89/89/89 90/90/90 91/91/91
f 89/89/89 91/91/91 92/92/92
f 93/93/93 94/94/94 95/95/95
f 93/93/93 95/95/95 96/96/96
