# Exported using automatic converter by Erwin Coumans
mtllib model6.mtl
#object group2136252452_6

v 0.285647 -0.587842 1.971326
v 0.274305 -0.587722 1.965664
v 0.261653 -0.587960 1.966423
v 0.251081 -0.588493 1.973398
v 0.245422 -0.589178 1.984721
v 0.246192 -0.589831 1.997357
v 0.253184 -0.590277 2.007922
v 0.264527 -0.590397 2.013584
v 0.277178 -0.590158 2.012825
v 0.287751 -0.589625 2.005850
v 0.293410 -0.588941 1.994527
v 0.292640 -0.588288 1.981890
usemtl mat20

vn -0.015666 0.998496 0.052542
vn -0.015666 0.998496 0.052542
vn -0.015666 0.998496 0.052542
vn -0.015666 0.998496 0.052542
vn -0.015666 0.998496 0.052542
vn -0.015666 0.998496 0.052542
vn -0.015666 0.998496 0.052542
vn -0.015666 0.998496 0.052542
vn -0.015666 0.998496 0.052542
vn -0.015666 0.998496 0.052542
vn -0.015666 0.998496 0.052542
vn -0.015666 0.998496 0.052542

vt -0.266838 -0.103765
vt -0.265906 -0.104624
vt -0.265528 -0.105834
vt -0.265806 -0.107071
vt -0.266665 -0.108003
vt -0.267876 -0.108381
vt -0.269112 -0.108103
vt -0.270045 -0.107243
vt -0.270422 -0.106033
vt -0.270144 -0.104796
vt -0.269285 -0.103864
vt -0.268075 -0.103487
s off
f 1/1/1 2/2/2 3/3/3
f 1/1/1 3/3/3 4/4/4
f 1/1/1 4/4/4 5/5/5
f 1/1/1 5/5/5 6/6/6
f 1/1/1 6/6/6 7/7/7
f 1/1/1 7/7/7 8/8/8
f 1/1/1 8/8/8 9/9/9
f 1/1/1 9/9/9 10/10/10
f 1/1/1 10/10/10 11/11/11
f 1/1/1 11/11/11 12/12/12
