# Exported using automatic converter by Erwin Coumans
mtllib model6.mtl
#object mesh1602359503

v -2.217013 -0.437440 -0.047188
v -2.214910 -0.397676 -0.043390
v -2.346932 -0.396179 -0.053970
v -2.349035 -0.435943 -0.057768
v -2.340749 -0.392746 -0.093340
v -2.208727 -0.394244 -0.082760
v -2.210830 -0.434007 -0.086558
v -2.342852 -0.432510 -0.097137
v -2.346932 -0.396179 -0.053970
v -2.340749 -0.392746 -0.093340
v -2.342852 -0.432510 -0.097137
v -2.349035 -0.435943 -0.057768
v -2.210830 -0.434007 -0.086558
v -2.208727 -0.394244 -0.082760
v -2.214910 -0.397676 -0.043390
v -2.217013 -0.437440 -0.047188
v -2.342852 -0.432510 -0.097137
v -2.210830 -0.434007 -0.086558
v -2.217013 -0.437440 -0.047188
v -2.349035 -0.435943 -0.057768
v -2.214910 -0.397676 -0.043390
v -2.208727 -0.394244 -0.082760
v -2.340749 -0.392746 -0.093340
v -2.346932 -0.396179 -0.053970
usemtl mat20

vn -0.080571 -0.090539 0.992628
vn -0.080571 -0.090539 0.992628
vn -0.080571 -0.090539 0.992628
vn -0.080571 -0.090539 0.992628
vn 0.080572 0.090539 -0.992628
vn 0.080572 0.090539 -0.992628
vn 0.080572 0.090539 -0.992628
vn 0.080572 0.090539 -0.992628
vn -0.986581 0.066419 -0.149153
vn -0.986581 0.066419 -0.149153
vn -0.986581 0.066419 -0.149153
vn -0.986581 0.066419 -0.149153
vn 0.986581 -0.066419 0.149153
vn 0.986581 -0.066419 0.149153
vn 0.986581 -0.066419 0.149153
vn 0.986581 -0.066419 0.149153
vn -0.004287 -0.996152 -0.087536
vn -0.004287 -0.996152 -0.087536
vn -0.004287 -0.996152 -0.087536
vn -0.004287 -0.996152 -0.087536
vn 0.004287 0.996152 0.087536
vn 0.004287 0.996152 0.087536
vn 0.004287 0.996152 0.087536
vn 0.004287 0.996152 0.087536

vt 0.117602 -0.215255
vt 0.121108 -0.213329
vt 0.126913 -0.225234
vt 0.123407 -0.227161
vt -0.126769 -0.224973
vt -0.120964 -0.213067
vt -0.117458 -0.214994
vt -0.123264 -0.226899
vt -0.085942 -0.087458
vt -0.083203 -0.084542
vt -0.080288 -0.087281
vt -0.083026 -0.090196
vt 0.080083 -0.086120
vt 0.082998 -0.083381
vt 0.085737 -0.086296
vt 0.082821 -0.089035
vt -0.025635 -0.275355
vt -0.019738 -0.263495
vt -0.016299 -0.265538
vt -0.022196 -0.277398
vt 0.016199 -0.265370
vt 0.019638 -0.263327
vt 0.025536 -0.275187
vt 0.022097 -0.277230
s off
f 1/1/1 2/2/2 3/3/3
f 1/1/1 3/3/3 4/4/4
f 5/5/5 6/6/6 7/7/7
f 5/5/5 7/7/7 8/8/8
f 9/9/9 10/10/10 11/11/11
f 9/9/9 11/11/11 12/12/12
f 13/13/13 14/14/14 15/15/15
f 13/13/13 15/15/15 16/16/16
f 17/17/17 18/18/18 19/19/19
f 17/17/17 19/19/19 20/20/20
f 21/21/21 22/22/22 23/23/23
f 21/21/21 23/23/23 24/24/24
