# Exported using automatic converter by Erwin Coumans
mtllib botlab.mtl
#object mesh865375659

v -2.381762 -0.464511 -3.520148
v -2.361762 -0.464511 -3.520148
v -2.361762 -1.044511 -3.520148
v -2.381762 -1.044511 -3.520148
v -2.361762 -1.044511 -3.490148
v -2.361762 -0.464511 -3.490148
v -2.381762 -0.464511 -3.490148
v -2.381762 -1.044511 -3.490148
v -2.361762 -1.044511 -3.520148
v -2.361762 -1.044511 -3.490148
v -2.381762 -1.044511 -3.490148
v -2.381762 -1.044511 -3.520148
v -2.381762 -0.464511 -3.490148
v -2.361762 -0.464511 -3.490148
v -2.361762 -0.464511 -3.520148
v -2.381762 -0.464511 -3.520148
v -2.381762 -1.044511 -3.490148
v -2.381762 -0.464511 -3.490148
v -2.381762 -0.464511 -3.520148
v -2.381762 -1.044511 -3.520148
v -2.361762 -0.464511 -3.520148
v -2.361762 -0.464511 -3.490148
v -2.361762 -1.044511 -3.490148
v -2.361762 -1.044511 -3.520148
usemtl mat23

vn -0.000000 0.000000 -1.000000
vn -0.000000 0.000000 -1.000000
vn -0.000000 0.000000 -1.000000
vn -0.000000 0.000000 -1.000000
vn 0.000000 0.000000 1.000000
vn 0.000000 0.000000 1.000000
vn 0.000000 0.000000 1.000000
vn 0.000000 0.000000 1.000000
vn -0.000000 -1.000000 0.000000
vn -0.000000 -1.000000 0.000000
vn -0.000000 -1.000000 0.000000
vn -0.000000 -1.000000 0.000000
vn 0.000000 1.000000 0.000000
vn 0.000000 1.000000 0.000000
vn 0.000000 1.000000 0.000000
vn 0.000000 1.000000 0.000000
vn -1.000000 0.000000 0.000000
vn -1.000000 0.000000 0.000000
vn -1.000000 0.000000 0.000000
vn -1.000000 0.000000 0.000000
vn 1.000000 -0.000000 -0.000000
vn 1.000000 -0.000000 -0.000000
vn 1.000000 -0.000000 -0.000000
vn 1.000000 -0.000000 -0.000000

vt -0.122089 -0.239707
vt -0.121195 -0.237918
vt -0.069318 -0.263856
vt -0.070213 -0.265645
vt 0.069318 -0.263856
vt 0.121195 -0.237918
vt 0.122089 -0.239707
vt 0.070213 -0.265645
vt -0.337480 -0.162989
vt -0.334655 -0.163998
vt -0.335327 -0.165881
vt -0.338153 -0.164872
vt 0.335327 -0.165881
vt 0.334655 -0.163998
vt 0.337480 -0.162989
vt 0.338153 -0.164872
vt 0.244120 0.105553
vt 0.210408 0.152749
vt 0.212849 0.154493
vt 0.246561 0.107296
vt -0.212849 0.154493
vt -0.210408 0.152749
vt -0.244120 0.105553
vt -0.246561 0.107296
s off
f 1/1/1 2/2/2 3/3/3
f 1/1/1 3/3/3 4/4/4
f 5/5/5 6/6/6 7/7/7
f 5/5/5 7/7/7 8/8/8
f 9/9/9 10/10/10 11/11/11
f 9/9/9 11/11/11 12/12/12
f 13/13/13 14/14/14 15/15/15
f 13/13/13 15/15/15 16/16/16
f 17/17/17 18/18/18 19/19/19
f 17/17/17 19/19/19 20/20/20
f 21/21/21 22/22/22 23/23/23
f 21/21/21 23/23/23 24/24/24
