# Exported using automatic converter by Erwin Coumans
mtllib model6.mtl
#object mesh471144309

v -0.322854 -0.974511 0.070201
v -0.322854 -0.972501 0.077701
v -0.352854 -0.972501 0.077701
v -0.352854 -0.974511 0.070201
v -0.322854 -0.972501 0.077701
v -0.322854 -0.967011 0.083191
v -0.352854 -0.967011 0.083191
v -0.352854 -0.972501 0.077701
v -0.322854 -0.967011 0.083191
v -0.322854 -0.959511 0.085201
v -0.352854 -0.959511 0.085201
v -0.352854 -0.967011 0.083191
v -0.322854 -0.959511 0.085201
v -0.322854 -0.952011 0.083191
v -0.352854 -0.952011 0.083191
v -0.352854 -0.959511 0.085201
v -0.322854 -0.952011 0.083191
v -0.322854 -0.946521 0.077701
v -0.352854 -0.946521 0.077701
v -0.352854 -0.952011 0.083191
v -0.322854 -0.946521 0.077701
v -0.322854 -0.944511 0.070201
v -0.352854 -0.944511 0.070201
v -0.352854 -0.946521 0.077701
v -0.322854 -0.944511 0.070201
v -0.322854 -0.946521 0.062701
v -0.352854 -0.946521 0.062701
v -0.352854 -0.944511 0.070201
v -0.322854 -0.946521 0.062701
v -0.322854 -0.952011 0.057210
v -0.352854 -0.952011 0.057210
v -0.352854 -0.946521 0.062701
v -0.322854 -0.952011 0.057210
v -0.322854 -0.959511 0.055201
v -0.352854 -0.959511 0.055201
v -0.352854 -0.952011 0.057210
v -0.322854 -0.959511 0.055201
v -0.322854 -0.967011 0.057210
v -0.352854 -0.967011 0.057210
v -0.352854 -0.959511 0.055201
v -0.322854 -0.967011 0.057210
v -0.322854 -0.972501 0.062701
v -0.352854 -0.972501 0.062701
v -0.352854 -0.967011 0.057210
v -0.322854 -0.972501 0.062701
v -0.322854 -0.974511 0.070201
v -0.352854 -0.974511 0.070201
v -0.352854 -0.972501 0.062701
v -0.352854 -0.974511 0.070201
v -0.352854 -0.972501 0.077701
v -0.352854 -0.967011 0.083191
v -0.352854 -0.959511 0.085201
v -0.352854 -0.952011 0.083191
v -0.352854 -0.946521 0.077701
v -0.352854 -0.944511 0.070201
v -0.352854 -0.946521 0.062701
v -0.352854 -0.952011 0.057210
v -0.352854 -0.959511 0.055201
v -0.352854 -0.967011 0.057210
v -0.352854 -0.972501 0.062701
v -0.322854 -0.972501 0.062701
v -0.322854 -0.967011 0.057210
v -0.322854 -0.959511 0.055201
v -0.322854 -0.952011 0.057210
v -0.322854 -0.946521 0.062701
v -0.322854 -0.944511 0.070201
v -0.322854 -0.946521 0.077701
v -0.322854 -0.952011 0.083191
v -0.322854 -0.959511 0.085201
v -0.322854 -0.967011 0.083191
v -0.322854 -0.972501 0.077701
v -0.322854 -0.974511 0.070201
usemtl mat12

vn 0.000000 -1.000000 -0.000000
vn 0.000000 -1.000000 -0.000000
vn 0.000000 -1.000000 -0.000000
vn 0.000000 -1.000000 -0.000000
vn 0.000000 -0.866025 0.500000
vn 0.000000 -0.866025 0.500000
vn 0.000000 -0.866025 0.500000
vn 0.000000 -0.866025 0.500000
vn 0.000000 -0.500000 0.866025
vn 0.000000 -0.500000 0.866025
vn 0.000000 -0.500000 0.866025
vn 0.000000 -0.500000 0.866025
vn -0.000000 -0.000000 1.000000
vn -0.000000 -0.000000 1.000000
vn -0.000000 -0.000000 1.000000
vn -0.000000 -0.000000 1.000000
vn -0.000000 0.500000 0.866025
vn -0.000000 0.500000 0.866025
vn -0.000000 0.500000 0.866025
vn -0.000000 0.500000 0.866025
vn -0.000000 0.866025 0.500000
vn -0.000000 0.866025 0.500000
vn -0.000000 0.866025 0.500000
vn -0.000000 0.866025 0.500000
vn -0.000000 1.000000 0.000000
vn -0.000000 1.000000 0.000000
vn -0.000000 1.000000 0.000000
vn -0.000000 1.000000 0.000000
vn -0.000000 0.866025 -0.500000
vn -0.000000 0.866025 -0.500000
vn -0.000000 0.866025 -0.500000
vn -0.000000 0.866025 -0.500000
vn -0.000000 0.500000 -0.866025
vn -0.000000 0.500000 -0.866025
vn -0.000000 0.500000 -0.866025
vn -0.000000 0.500000 -0.866025
vn 0.000000 0.000000 -1.000000
vn 0.000000 0.000000 -1.000000
vn 0.000000 0.000000 -1.000000
vn 0.000000 0.000000 -1.000000
vn 0.000000 -0.500000 -0.866026
vn 0.000000 -0.500000 -0.866026
vn 0.000000 -0.500000 -0.866026
vn 0.000000 -0.500000 -0.866026
vn 0.000000 -0.866026 -0.500000
vn 0.000000 -0.866026 -0.500000
vn 0.000000 -0.866026 -0.500000
vn 0.000000 -0.866026 -0.500000
vn -1.000000 -0.000000 -0.000000
vn -1.000000 -0.000000 -0.000000
vn -1.000000 -0.000000 -0.000000
vn -1.000000 -0.000000 -0.000000
vn -1.000000 -0.000000 -0.000000
vn -1.000000 -0.000000 -0.000000
vn -1.000000 -0.000000 -0.000000
vn -1.000000 -0.000000 -0.000000
vn -1.000000 -0.000000 -0.000000
vn -1.000000 -0.000000 -0.000000
vn -1.000000 -0.000000 -0.000000
vn -1.000000 -0.000000 -0.000000
vn 1.000000 0.000000 0.000000
vn 1.000000 0.000000 0.000000
vn 1.000000 0.000000 0.000000
vn 1.000000 0.000000 0.000000
vn 1.000000 0.000000 0.000000
vn 1.000000 0.000000 0.000000
vn 1.000000 0.000000 0.000000
vn 1.000000 0.000000 0.000000
vn 1.000000 0.000000 0.000000
vn 1.000000 0.000000 0.000000
vn 1.000000 0.000000 0.000000
vn 1.000000 0.000000 0.000000

vt 0.069214 -0.091733
vt 0.069920 -0.091985
vt 0.068911 -0.094810
vt 0.068205 -0.094558
vt 0.055579 -0.066516
vt 0.056328 -0.066560
vt 0.056150 -0.069555
vt 0.055401 -0.069510
vt 0.022231 -0.059464
vt 0.022957 -0.059279
vt 0.023697 -0.062186
vt 0.022970 -0.062371
vt -0.014262 -0.077689
vt -0.013591 -0.077354
vt -0.012250 -0.080037
vt -0.012920 -0.080372
vt -0.043130 -0.100354
vt -0.042491 -0.099963
vt -0.040925 -0.102522
vt -0.041565 -0.102913
vt -0.062509 -0.107270
vt -0.061855 -0.106904
vt -0.060390 -0.109523
vt -0.061045 -0.109889
vt -0.069214 -0.091733
vt -0.068508 -0.091480
vt -0.067499 -0.094306
vt -0.068205 -0.094558
vt -0.055579 -0.066516
vt -0.054830 -0.066471
vt -0.054653 -0.069466
vt -0.055401 -0.069510
vt -0.022231 -0.059464
vt -0.021504 -0.059649
vt -0.022243 -0.062556
vt -0.022970 -0.062371
vt 0.014262 -0.077689
vt 0.014933 -0.078025
vt 0.013591 -0.080708
vt 0.012920 -0.080372
vt 0.043130 -0.100354
vt 0.043770 -0.100745
vt 0.042205 -0.103304
vt 0.041565 -0.102913
vt 0.062509 -0.107270
vt 0.063164 -0.107636
vt 0.061700 -0.110255
vt 0.061045 -0.109889
vt -0.049666 -0.095692
vt -0.050393 -0.095964
vt -0.051159 -0.095837
vt -0.051759 -0.095343
vt -0.052031 -0.094616
vt -0.051903 -0.093850
vt -0.051410 -0.093251
vt -0.050683 -0.092978
vt -0.049917 -0.093106
vt -0.049317 -0.093600
vt -0.049045 -0.094327
vt -0.049173 -0.095093
vt 0.049173 -0.095093
vt 0.049045 -0.094327
vt 0.049317 -0.093600
vt 0.049917 -0.093106
vt 0.050683 -0.092978
vt 0.051410 -0.093251
vt 0.051903 -0.093850
vt 0.052031 -0.094616
vt 0.051759 -0.095343
vt 0.051159 -0.095837
vt 0.050393 -0.095964
vt 0.049666 -0.095692
s off
f 1/1/1 2/2/2 3/3/3
f 1/1/1 3/3/3 4/4/4
f 5/5/5 6/6/6 7/7/7
f 5/5/5 7/7/7 8/8/8
f 9/9/9 10/10/10 11/11/11
f 9/9/9 11/11/11 12/12/12
f 13/13/13 14/14/14 15/15/15
f 13/13/13 15/15/15 16/16/16
f 17/17/17 18/18/18 19/19/19
f 17/17/17 19/19/19 20/20/20
f 21/21/21 22/22/22 23/23/23
f 21/21/21 23/23/23 24/24/24
f 25/25/25 26/26/26 27/27/27
f 25/25/25 27/27/27 28/28/28
f 29/29/29 30/30/30 31/31/31
f 29/29/29 31/31/31 32/32/32
f 33/33/33 34/34/34 35/35/35
f 33/33/33 35/35/35 36/36/36
f 37/37/37 38/38/38 39/39/39
f 37/37/37 39/39/39 40/40/40
f 41/41/41 42/42/42 43/43/43
f 41/41/41 43/43/43 44/44/44
f 45/45/45 46/46/46 47/47/47
f 45/45/45 47/47/47 48/48/48
f 49/49/49 50/50/50 51/51/51
f 49/49/49 51/51/51 52/52/52
f 49/49/49 52/52/52 53/53/53
f 49/49/49 53/53/53 54/54/54
f 49/49/49 54/54/54 55/55/55
f 49/49/49 55/55/55 56/56/56
f 49/49/49 56/56/56 57/57/57
f 49/49/49 57/57/57 58/58/58
f 49/49/49 58/58/58 59/59/59
f 49/49/49 59/59/59 60/60/60
f 61/61/61 62/62/62 63/63/63
f 61/61/61 63/63/63 64/64/64
f 61/61/61 64/64/64 65/65/65
f 61/61/61 65/65/65 66/66/66
f 61/61/61 66/66/66 67/67/67
f 61/61/61 67/67/67 68/68/68
f 61/61/61 68/68/68 69/69/69
f 61/61/61 69/69/69 70/70/70
f 61/61/61 70/70/70 71/71/71
f 61/61/61 71/71/71 72/72/72
