# Exported using automatic converter by Erwin Coumans
mtllib model6.mtl
#object group884513229_1

v -0.601045 -0.701964 -0.440713
v -0.589657 -0.701964 -0.398213
v -0.589657 -0.633964 -0.398213
v -0.601045 -0.633964 -0.440713
v -0.589657 -0.701964 -0.398213
v -0.558545 -0.701964 -0.367101
v -0.558545 -0.633964 -0.367101
v -0.589657 -0.633964 -0.398213
v -0.558545 -0.701964 -0.367101
v -0.516045 -0.701964 -0.355713
v -0.516045 -0.633964 -0.355713
v -0.558545 -0.633964 -0.367101
v -0.516045 -0.701964 -0.355713
v -0.473545 -0.701964 -0.367101
v -0.473545 -0.633964 -0.367101
v -0.516045 -0.633964 -0.355713
v -0.473545 -0.701964 -0.367101
v -0.442433 -0.701964 -0.398213
v -0.442433 -0.633964 -0.398213
v -0.473545 -0.633964 -0.367101
v -0.442433 -0.701964 -0.398213
v -0.431045 -0.701964 -0.440713
v -0.431045 -0.633964 -0.440713
v -0.442433 -0.633964 -0.398213
v -0.431045 -0.701964 -0.440713
v -0.442433 -0.701964 -0.483213
v -0.442433 -0.633964 -0.483213
v -0.431045 -0.633964 -0.440713
v -0.442433 -0.701964 -0.483213
v -0.473545 -0.701964 -0.514325
v -0.473545 -0.633964 -0.514325
v -0.442433 -0.633964 -0.483213
v -0.473545 -0.701964 -0.514325
v -0.516045 -0.701964 -0.525713
v -0.516045 -0.633964 -0.525713
v -0.473545 -0.633964 -0.514325
v -0.516045 -0.701964 -0.525713
v -0.558545 -0.701964 -0.514325
v -0.558545 -0.633964 -0.514325
v -0.516045 -0.633964 -0.525713
v -0.558545 -0.701964 -0.514325
v -0.589657 -0.701964 -0.483213
v -0.589657 -0.633964 -0.483213
v -0.558545 -0.633964 -0.514325
v -0.589657 -0.701964 -0.483213
v -0.601045 -0.701964 -0.440713
v -0.601045 -0.633964 -0.440713
v -0.589657 -0.633964 -0.483213
v -0.601045 -0.633964 -0.440713
v -0.589657 -0.633964 -0.398213
v -0.558545 -0.633964 -0.367101
v -0.516045 -0.633964 -0.355713
v -0.473545 -0.633964 -0.367101
v -0.442433 -0.633964 -0.398213
v -0.431045 -0.633964 -0.440713
v -0.442433 -0.633964 -0.483213
v -0.473545 -0.633964 -0.514325
v -0.516045 -0.633964 -0.525713
v -0.558545 -0.633964 -0.514325
v -0.589657 -0.633964 -0.483213
v -0.589657 -0.701964 -0.483213
v -0.558545 -0.701964 -0.514325
v -0.516045 -0.701964 -0.525713
v -0.473545 -0.701964 -0.514325
v -0.442433 -0.701964 -0.483213
v -0.431045 -0.701964 -0.440713
v -0.442433 -0.701964 -0.398213
v -0.473545 -0.701964 -0.367101
v -0.516045 -0.701964 -0.355713
v -0.558545 -0.701964 -0.367101
v -0.589657 -0.701964 -0.398213
v -0.601045 -0.701964 -0.440713
usemtl mat22

vn -1.000000 0.000000 -0.000000
vn -1.000000 0.000000 -0.000000
vn -1.000000 0.000000 -0.000000
vn -1.000000 0.000000 -0.000000
vn -0.866026 0.000000 0.500000
vn -0.866026 0.000000 0.500000
vn -0.866026 0.000000 0.500000
vn -0.866026 0.000000 0.500000
vn -0.500000 0.000000 0.866025
vn -0.500000 0.000000 0.866025
vn -0.500000 0.000000 0.866025
vn -0.500000 0.000000 0.866025
vn -0.000000 0.000000 1.000000
vn -0.000000 0.000000 1.000000
vn -0.000000 0.000000 1.000000
vn -0.000000 0.000000 1.000000
vn 0.500000 0.000000 0.866026
vn 0.500000 0.000000 0.866026
vn 0.500000 0.000000 0.866026
vn 0.500000 0.000000 0.866026
vn 0.866025 -0.000000 0.500000
vn 0.866025 -0.000000 0.500000
vn 0.866025 -0.000000 0.500000
vn 0.866025 -0.000000 0.500000
vn 1.000000 -0.000000 0.000000
vn 1.000000 -0.000000 0.000000
vn 1.000000 -0.000000 0.000000
vn 1.000000 -0.000000 0.000000
vn 0.866026 -0.000000 -0.500000
vn 0.866026 -0.000000 -0.500000
vn 0.866026 -0.000000 -0.500000
vn 0.866026 -0.000000 -0.500000
vn 0.500000 -0.000000 -0.866025
vn 0.500000 -0.000000 -0.866025
vn 0.500000 -0.000000 -0.866025
vn 0.500000 -0.000000 -0.866025
vn 0.000000 -0.000000 -1.000000
vn 0.000000 -0.000000 -1.000000
vn 0.000000 -0.000000 -1.000000
vn 0.000000 -0.000000 -1.000000
vn -0.500000 -0.000000 -0.866026
vn -0.500000 -0.000000 -0.866026
vn -0.500000 -0.000000 -0.866026
vn -0.500000 -0.000000 -0.866026
vn -0.866025 0.000000 -0.500000
vn -0.866025 0.000000 -0.500000
vn -0.866025 0.000000 -0.500000
vn -0.866025 0.000000 -0.500000
vn 0.000000 1.000000 -0.000000
vn 0.000000 1.000000 -0.000000
vn 0.000000 1.000000 -0.000000
vn 0.000000 1.000000 -0.000000
vn 0.000000 1.000000 -0.000000
vn 0.000000 1.000000 -0.000000
vn 0.000000 1.000000 -0.000000
vn 0.000000 1.000000 -0.000000
vn 0.000000 1.000000 -0.000000
vn 0.000000 1.000000 -0.000000
vn 0.000000 1.000000 -0.000000
vn 0.000000 1.000000 -0.000000
vn -0.000000 -1.000000 0.000000
vn -0.000000 -1.000000 0.000000
vn -0.000000 -1.000000 0.000000
vn -0.000000 -1.000000 0.000000
vn -0.000000 -1.000000 0.000000
vn -0.000000 -1.000000 0.000000
vn -0.000000 -1.000000 0.000000
vn -0.000000 -1.000000 0.000000
vn -0.000000 -1.000000 0.000000
vn -0.000000 -1.000000 0.000000
vn -0.000000 -1.000000 0.000000
vn -0.000000 -1.000000 0.000000

vt -0.023933 -0.043818
vt -0.027391 -0.046288
vt -0.031344 -0.040755
vt -0.027885 -0.038284
vt -0.005608 -0.021134
vt -0.009579 -0.019620
vt -0.007156 -0.013266
vt -0.003185 -0.014781
vt 0.011185 -0.052347
vt 0.008685 -0.048910
vt 0.014184 -0.044911
vt 0.016684 -0.048348
vt 0.017413 -0.083451
vt 0.015513 -0.079650
vt 0.021595 -0.076608
vt 0.023496 -0.080410
vt 0.020908 -0.094047
vt 0.019073 -0.090213
vt 0.025207 -0.087278
vt 0.027041 -0.091111
vt 0.023620 -0.079604
vt 0.021387 -0.075988
vt 0.027171 -0.072414
vt 0.029405 -0.076030
vt 0.023933 -0.043818
vt 0.020474 -0.041348
vt 0.024427 -0.035814
vt 0.027885 -0.038284
vt 0.005608 -0.021134
vt 0.001637 -0.022649
vt -0.000786 -0.016295
vt 0.003185 -0.014781
vt -0.011185 -0.052347
vt -0.013685 -0.055785
vt -0.019184 -0.051785
vt -0.016684 -0.048348
vt -0.017413 -0.083451
vt -0.019314 -0.087252
vt -0.025396 -0.084211
vt -0.023496 -0.080410
vt -0.020908 -0.094047
vt -0.022743 -0.097880
vt -0.028876 -0.094944
vt -0.027041 -0.091111
vt -0.023620 -0.079604
vt -0.025854 -0.083220
vt -0.031639 -0.079645
vt -0.029405 -0.076030
vt -0.011743 -0.100747
vt -0.016128 -0.101104
vt -0.020105 -0.099221
vt -0.022606 -0.095601
vt -0.022963 -0.091216
vt -0.021080 -0.087239
vt -0.017460 -0.084737
vt -0.013075 -0.084381
vt -0.009099 -0.086264
vt -0.006597 -0.089883
vt -0.006240 -0.094269
vt -0.008123 -0.098245
vt 0.008123 -0.098245
vt 0.006240 -0.094269
vt 0.006597 -0.089883
vt 0.009099 -0.086264
vt 0.013075 -0.084381
vt 0.017460 -0.084737
vt 0.021080 -0.087239
vt 0.022963 -0.091216
vt 0.022606 -0.095601
vt 0.020105 -0.099221
vt 0.016128 -0.101104
vt 0.011743 -0.100747
s off
f 1/1/1 2/2/2 3/3/3
f 1/1/1 3/3/3 4/4/4
f 5/5/5 6/6/6 7/7/7
f 5/5/5 7/7/7 8/8/8
f 9/9/9 10/10/10 11/11/11
f 9/9/9 11/11/11 12/12/12
f 13/13/13 14/14/14 15/15/15
f 13/13/13 15/15/15 16/16/16
f 17/17/17 18/18/18 19/19/19
f 17/17/17 19/19/19 20/20/20
f 21/21/21 22/22/22 23/23/23
f 21/21/21 23/23/23 24/24/24
f 25/25/25 26/26/26 27/27/27
f 25/25/25 27/27/27 28/28/28
f 29/29/29 30/30/30 31/31/31
f 29/29/29 31/31/31 32/32/32
f 33/33/33 34/34/34 35/35/35
f 33/33/33 35/35/35 36/36/36
f 37/37/37 38/38/38 39/39/39
f 37/37/37 39/39/39 40/40/40
f 41/41/41 42/42/42 43/43/43
f 41/41/41 43/43/43 44/44/44
f 45/45/45 46/46/46 47/47/47
f 45/45/45 47/47/47 48/48/48
f 49/49/49 50/50/50 51/51/51
f 49/49/49 51/51/51 52/52/52
f 49/49/49 52/52/52 53/53/53
f 49/49/49 53/53/53 54/54/54
f 49/49/49 54/54/54 55/55/55
f 49/49/49 55/55/55 56/56/56
f 49/49/49 56/56/56 57/57/57
f 49/49/49 57/57/57 58/58/58
f 49/49/49 58/58/58 59/59/59
f 49/49/49 59/59/59 60/60/60
f 61/61/61 62/62/62 63/63/63
f 61/61/61 63/63/63 64/64/64
f 61/61/61 64/64/64 65/65/65
f 61/61/61 65/65/65 66/66/66
f 61/61/61 66/66/66 67/67/67
f 61/61/61 67/67/67 68/68/68
f 61/61/61 68/68/68 69/69/69
f 61/61/61 69/69/69 70/70/70
f 61/61/61 70/70/70 71/71/71
f 61/61/61 71/71/71 72/72/72
