# Exported using automatic converter by Erwin Coumans
mtllib model6.mtl
#object group473545677_1

v 2.899176 -0.722502 -0.171713
v 2.923745 -0.721696 -0.210731
v 2.923845 -0.670799 -0.209617
v 2.899275 -0.671606 -0.170599
v 2.923920 -0.632626 -0.208781
v 2.899350 -0.633433 -0.169763
v 2.899275 -0.671606 -0.170599
v 2.923845 -0.670799 -0.209617
v 2.924069 -0.556281 -0.207109
v 2.899499 -0.557088 -0.168091
v 2.899350 -0.633433 -0.169763
v 2.923920 -0.632626 -0.208781
v 2.924243 -0.467212 -0.205159
v 2.899673 -0.468018 -0.166140
v 2.899499 -0.557088 -0.168091
v 2.924069 -0.556281 -0.207109
v 2.752259 -0.466732 -0.211735
v 2.754023 -0.465727 -0.257807
v 2.753849 -0.554797 -0.259757
v 2.752085 -0.555802 -0.213685
v 2.924293 -0.441764 -0.204601
v 2.899723 -0.442570 -0.165583
v 2.899673 -0.468018 -0.166140
v 2.924243 -0.467212 -0.205159
usemtl mat21

vn 0.846257 -0.013313 0.532608
vn 0.846257 -0.013313 0.532608
vn 0.846257 -0.013313 0.532608
vn 0.846257 -0.013313 0.532608
vn 0.846257 -0.013323 0.532608
vn 0.846257 -0.013323 0.532608
vn 0.846257 -0.013323 0.532608
vn 0.846257 -0.013323 0.532608
vn 0.846257 -0.013317 0.532608
vn 0.846257 -0.013317 0.532608
vn 0.846257 -0.013317 0.532608
vn 0.846257 -0.013317 0.532608
vn 0.846257 -0.013313 0.532608
vn 0.846257 -0.013313 0.532608
vn 0.846257 -0.013313 0.532608
vn 0.846257 -0.013313 0.532608
vn -0.999266 0.002791 -0.038205
vn -0.999266 0.002791 -0.038205
vn -0.999266 0.002791 -0.038205
vn -0.999266 0.002791 -0.038205
vn 0.846257 -0.013323 0.532608
vn 0.846257 -0.013323 0.532608
vn 0.846257 -0.013323 0.532608
vn 0.846257 -0.013323 0.532608

vt -0.057564 0.055333
vt -0.059894 0.059313
vt -0.055501 0.061885
vt -0.053171 0.057905
vt -0.052204 0.063815
vt -0.049874 0.059836
vt -0.053169 0.057906
vt -0.055499 0.061886
vt -0.045615 0.067673
vt -0.043285 0.063694
vt -0.049875 0.059835
vt -0.052205 0.063815
vt -0.037928 0.072175
vt -0.035598 0.068195
vt -0.043286 0.063693
vt -0.045616 0.067673
vt -0.047485 -0.034179
vt -0.043922 -0.031251
vt -0.038265 -0.038134
vt -0.041828 -0.041062
vt -0.035730 0.073462
vt -0.033399 0.069482
vt -0.035596 0.068196
vt -0.037926 0.072176
s off
f 1/1/1 2/2/2 3/3/3
f 1/1/1 3/3/3 4/4/4
f 5/5/5 6/6/6 7/7/7
f 5/5/5 7/7/7 8/8/8
f 9/9/9 10/10/10 11/11/11
f 9/9/9 11/11/11 12/12/12
f 13/13/13 14/14/14 15/15/15
f 13/13/13 15/15/15 16/16/16
f 17/17/17 18/18/18 19/19/19
f 17/17/17 19/19/19 20/20/20
f 21/21/21 22/22/22 23/23/23
f 21/21/21 23/23/23 24/24/24
