# Exported using automatic converter by Erwin Coumans
mtllib botlab.mtl
#object mesh745850135

v -2.263496 -1.035350 -0.604452
v -2.223100 -1.038153 -0.589804
v -2.219425 -0.985955 -0.589954
v -2.259820 -0.983153 -0.604603
v -2.223100 -1.038153 -0.589804
v -2.187540 -1.040658 -0.590217
v -2.183864 -0.988461 -0.590368
v -2.219425 -0.985955 -0.589954
v -2.187540 -1.040658 -0.590217
v -2.166343 -1.042195 -0.605582
v -2.162668 -0.989998 -0.605732
v -2.183864 -0.988461 -0.590368
v -2.166343 -1.042195 -0.605582
v -2.165189 -1.042351 -0.631781
v -2.161514 -0.990154 -0.631931
v -2.162668 -0.989998 -0.605732
v -2.165189 -1.042351 -0.631781
v -2.184388 -1.041086 -0.661794
v -2.180712 -0.988889 -0.661944
v -2.161514 -0.990154 -0.631931
v -2.184388 -1.041086 -0.661794
v -2.218795 -1.038738 -0.687579
v -2.215119 -0.986540 -0.687730
v -2.180712 -0.988889 -0.661944
v -2.218795 -1.038738 -0.687579
v -2.259190 -1.035935 -0.702228
v -2.255515 -0.983738 -0.702379
v -2.215119 -0.986540 -0.687730
v -2.259190 -1.035935 -0.702228
v -2.294750 -1.033430 -0.701815
v -2.291075 -0.981233 -0.701965
v -2.255515 -0.983738 -0.702379
v -2.294750 -1.033430 -0.701815
v -2.315947 -1.031893 -0.686450
v -2.312272 -0.979696 -0.686601
v -2.291075 -0.981233 -0.701965
v -2.315947 -1.031893 -0.686450
v -2.317101 -1.031737 -0.660251
v -2.313426 -0.979539 -0.660402
v -2.312272 -0.979696 -0.686601
v -2.317101 -1.031737 -0.660251
v -2.297902 -1.033002 -0.630238
v -2.294227 -0.980805 -0.630389
v -2.313426 -0.979539 -0.660402
v -2.297902 -1.033002 -0.630238
v -2.263496 -1.035350 -0.604452
v -2.259820 -0.983153 -0.604603
v -2.294227 -0.980805 -0.630389
v -2.259820 -0.983153 -0.604603
v -2.219425 -0.985955 -0.589954
v -2.183864 -0.988461 -0.590368
v -2.162668 -0.989998 -0.605732
v -2.161514 -0.990154 -0.631931
v -2.180712 -0.988889 -0.661944
v -2.215119 -0.986540 -0.687730
v -2.255515 -0.983738 -0.702379
v -2.291075 -0.981233 -0.701965
v -2.312272 -0.979696 -0.686601
v -2.313426 -0.979539 -0.660402
v -2.294227 -0.980805 -0.630389
v -2.297902 -1.033002 -0.630238
v -2.317101 -1.031737 -0.660251
v -2.315947 -1.031893 -0.686450
v -2.294750 -1.033430 -0.701815
v -2.259190 -1.035935 -0.702228
v -2.218795 -1.038738 -0.687579
v -2.184388 -1.041086 -0.661794
v -2.165189 -1.042351 -0.631781
v -2.166343 -1.042195 -0.605582
v -2.187540 -1.040658 -0.590217
v -2.223100 -1.038153 -0.589804
v -2.263496 -1.035350 -0.604452
usemtl mat24

vn -0.473305 0.035866 0.880168
vn -0.473305 0.035866 0.880168
vn -0.473305 0.035866 0.880168
vn -0.473305 0.035866 0.880168
vn 0.029153 0.000829 0.999575
vn 0.029153 0.000829 0.999575
vn 0.029153 0.000829 0.999575
vn 0.029153 0.000829 0.999575
vn 0.523799 -0.034430 0.851146
vn 0.523799 -0.034430 0.851146
vn 0.523799 -0.034430 0.851146
vn 0.523799 -0.034430 0.851146
vn 0.878094 -0.060463 0.474653
vn 0.878094 -0.060463 0.474653
vn 0.878094 -0.060463 0.474653
vn 0.878094 -0.060463 0.474653
vn 0.997104 -0.070295 -0.029023
vn 0.997104 -0.070295 -0.029023
vn 0.997104 -0.070295 -0.029023
vn 0.997104 -0.070295 -0.029023
vn 0.848941 -0.061292 -0.524921
vn 0.848941 -0.061292 -0.524921
vn 0.848941 -0.061292 -0.524921
vn 0.848941 -0.061292 -0.524921
vn 0.473305 -0.035866 -0.880168
vn 0.473305 -0.035866 -0.880168
vn 0.473305 -0.035866 -0.880168
vn 0.473305 -0.035866 -0.880168
vn -0.029153 -0.000829 -0.999575
vn -0.029153 -0.000829 -0.999575
vn -0.029153 -0.000829 -0.999575
vn -0.029153 -0.000829 -0.999575
vn -0.523799 0.034430 -0.851146
vn -0.523799 0.034430 -0.851146
vn -0.523799 0.034430 -0.851146
vn -0.523799 0.034430 -0.851146
vn -0.878094 0.060463 -0.474653
vn -0.878094 0.060463 -0.474653
vn -0.878094 0.060463 -0.474653
vn -0.878094 0.060463 -0.474653
vn -0.997104 0.070295 0.029022
vn -0.997104 0.070295 0.029022
vn -0.997104 0.070295 0.029022
vn -0.997104 0.070295 0.029022
vn -0.848941 0.061292 0.524922
vn -0.848941 0.061292 0.524922
vn -0.848941 0.061292 0.524922
vn -0.848941 0.061292 0.524922
vn 0.070242 0.997526 -0.002876
vn 0.070242 0.997526 -0.002876
vn 0.070242 0.997526 -0.002876
vn 0.070242 0.997526 -0.002876
vn 0.070242 0.997526 -0.002876
vn 0.070242 0.997526 -0.002876
vn 0.070242 0.997526 -0.002876
vn 0.070242 0.997526 -0.002876
vn 0.070242 0.997526 -0.002876
vn 0.070242 0.997526 -0.002876
vn 0.070242 0.997526 -0.002876
vn 0.070242 0.997526 -0.002876
vn -0.070242 -0.997526 0.002876
vn -0.070242 -0.997526 0.002876
vn -0.070242 -0.997526 0.002876
vn -0.070242 -0.997526 0.002876
vn -0.070242 -0.997526 0.002876
vn -0.070242 -0.997526 0.002876
vn -0.070242 -0.997526 0.002876
vn -0.070242 -0.997526 0.002876
vn -0.070242 -0.997526 0.002876
vn -0.070242 -0.997526 0.002876
vn -0.070242 -0.997526 0.002876
vn -0.070242 -0.997526 0.002876

vt 0.078454 -0.206978
vt 0.075714 -0.203717
vt 0.079720 -0.200351
vt 0.082460 -0.203612
vt 0.063068 -0.252103
vt 0.061265 -0.249028
vt 0.065779 -0.246381
vt 0.067582 -0.249456
vt 0.046963 -0.231102
vt 0.045673 -0.228827
vt 0.050226 -0.226247
vt 0.051515 -0.228522
vt 0.024681 -0.156145
vt 0.023275 -0.154247
vt 0.027480 -0.151133
vt 0.028886 -0.153030
vt -0.020305 -0.072631
vt -0.022955 -0.071109
vt -0.020348 -0.066571
vt -0.017699 -0.068094
vt -0.078425 -0.105448
vt -0.082199 -0.106789
vt -0.083951 -0.101859
vt -0.080178 -0.100517
vt -0.078454 -0.206978
vt -0.081195 -0.210239
vt -0.085201 -0.206872
vt -0.082460 -0.203612
vt -0.064731 -0.254939
vt -0.066534 -0.258014
vt -0.071048 -0.255368
vt -0.069245 -0.252293
vt -0.048584 -0.233963
vt -0.049874 -0.236238
vt -0.054426 -0.233658
vt -0.053136 -0.231383
vt -0.024681 -0.156145
vt -0.026086 -0.158042
vt -0.030291 -0.154928
vt -0.028886 -0.153030
vt 0.023156 -0.070993
vt 0.020506 -0.072515
vt 0.017900 -0.067978
vt 0.020550 -0.066456
vt 0.081523 -0.106549
vt 0.077749 -0.105208
vt 0.079502 -0.100277
vt 0.083276 -0.101619
vt 0.060949 -0.246842
vt 0.058172 -0.243551
vt 0.056975 -0.240193
vt 0.057680 -0.237667
vt 0.060097 -0.236650
vt 0.063579 -0.237415
vt 0.067193 -0.239757
vt 0.069970 -0.243048
vt 0.071167 -0.246406
vt 0.070462 -0.248932
vt 0.068045 -0.249949
vt 0.064563 -0.249184
vt -0.064563 -0.249184
vt -0.068045 -0.249949
vt -0.070462 -0.248932
vt -0.071167 -0.246406
vt -0.069970 -0.243048
vt -0.067193 -0.239757
vt -0.063579 -0.237415
vt -0.060097 -0.236650
vt -0.057680 -0.237667
vt -0.056975 -0.240193
vt -0.058172 -0.243551
vt -0.060949 -0.246842
s off
f 1/1/1 2/2/2 3/3/3
f 1/1/1 3/3/3 4/4/4
f 5/5/5 6/6/6 7/7/7
f 5/5/5 7/7/7 8/8/8
f 9/9/9 10/10/10 11/11/11
f 9/9/9 11/11/11 12/12/12
f 13/13/13 14/14/14 15/15/15
f 13/13/13 15/15/15 16/16/16
f 17/17/17 18/18/18 19/19/19
f 17/17/17 19/19/19 20/20/20
f 21/21/21 22/22/22 23/23/23
f 21/21/21 23/23/23 24/24/24
f 25/25/25 26/26/26 27/27/27
f 25/25/25 27/27/27 28/28/28
f 29/29/29 30/30/30 31/31/31
f 29/29/29 31/31/31 32/32/32
f 33/33/33 34/34/34 35/35/35
f 33/33/33 35/35/35 36/36/36
f 37/37/37 38/38/38 39/39/39
f 37/37/37 39/39/39 40/40/40
f 41/41/41 42/42/42 43/43/43
f 41/41/41 43/43/43 44/44/44
f 45/45/45 46/46/46 47/47/47
f 45/45/45 47/47/47 48/48/48
f 49/49/49 50/50/50 51/51/51
f 49/49/49 51/51/51 52/52/52
f 49/49/49 52/52/52 53/53/53
f 49/49/49 53/53/53 54/54/54
f 49/49/49 54/54/54 55/55/55
f 49/49/49 55/55/55 56/56/56
f 49/49/49 56/56/56 57/57/57
f 49/49/49 57/57/57 58/58/58
f 49/49/49 58/58/58 59/59/59
f 49/49/49 59/59/59 60/60/60
f 61/61/61 62/62/62 63/63/63
f 61/61/61 63/63/63 64/64/64
f 61/61/61 64/64/64 65/65/65
f 61/61/61 65/65/65 66/66/66
f 61/61/61 66/66/66 67/67/67
f 61/61/61 67/67/67 68/68/68
f 61/61/61 68/68/68 69/69/69
f 61/61/61 69/69/69 70/70/70
f 61/61/61 70/70/70 71/71/71
f 61/61/61 71/71/71 72/72/72
