# Exported using automatic converter by Erwin Coumans
mtllib model6.mtl
#object group1093795503_2

v -2.386850 -0.436495 1.493598
v -2.394946 -0.430714 1.492581
v -2.508560 -0.590848 1.481920
v -2.500464 -0.596628 1.482937
v -2.491230 -0.592796 1.332937
v -2.377616 -0.432663 1.343598
v -2.369520 -0.438444 1.344615
v -2.483134 -0.598577 1.333955
v -2.508560 -0.590848 1.481920
v -2.491230 -0.592796 1.332937
v -2.483134 -0.598577 1.333955
v -2.500464 -0.596628 1.482937
v -2.369520 -0.438444 1.344615
v -2.377616 -0.432663 1.343598
v -2.394946 -0.430714 1.492581
v -2.386850 -0.436495 1.493598
v -2.483134 -0.598577 1.333955
v -2.369520 -0.438444 1.344615
v -2.386850 -0.436495 1.493598
v -2.500464 -0.596628 1.482937
v -2.394946 -0.430714 1.492581
v -2.377616 -0.432663 1.343598
v -2.491230 -0.592796 1.332937
v -2.508560 -0.590848 1.481920
v -2.375060 -0.448701 1.486906
v -2.384625 -0.445881 1.486163
v -2.433820 -0.637550 1.487566
v -2.424256 -0.640370 1.488310
v -2.423061 -0.640497 1.337982
v -2.360872 -0.429470 1.338298
v -2.413497 -0.643317 1.338725
v -2.433820 -0.637550 1.487566
v -2.423061 -0.640497 1.337982
v -2.413497 -0.643317 1.338725
v -2.424256 -0.640370 1.488310
v -2.364301 -0.451648 1.337321
v -2.360872 -0.429470 1.338298
v -2.384625 -0.445881 1.486163
v -2.413497 -0.643317 1.338725
v -2.364301 -0.451648 1.337321
v -2.375060 -0.448701 1.486906
v -2.424256 -0.640370 1.488310
v -2.360872 -0.429470 1.338298
v -2.423061 -0.640497 1.337982
v -2.433820 -0.637550 1.487566
v -2.384625 -0.445881 1.486163
v -2.375060 -0.448701 1.486906
v -2.364301 -0.451648 1.337321
v -2.433820 -0.637550 1.487566
v -2.384625 -0.445881 1.486163
v -2.360872 -0.429470 1.338298
v -2.360872 -0.429470 1.338298
v -2.364301 -0.451648 1.337321
v -2.413497 -0.643317 1.338725
v -2.355540 -0.454256 1.483471
v -2.365139 -0.451528 1.482823
v -2.412151 -0.643818 1.482408
v -2.402553 -0.646546 1.483056
v -2.402405 -0.645071 1.332730
v -2.355393 -0.452781 1.333145
v -2.345795 -0.455509 1.333793
v -2.392807 -0.647799 1.333378
v -2.412151 -0.643818 1.482408
v -2.402405 -0.645071 1.332730
v -2.392807 -0.647799 1.333378
v -2.402553 -0.646546 1.483056
v -2.345795 -0.455509 1.333793
v -2.355393 -0.452781 1.333145
v -2.365139 -0.451528 1.482823
v -2.355540 -0.454256 1.483471
v -2.392807 -0.647799 1.333378
v -2.345795 -0.455509 1.333793
v -2.355540 -0.454256 1.483471
v -2.402553 -0.646546 1.483056
v -2.365139 -0.451528 1.482823
v -2.355393 -0.452781 1.333145
v -2.402405 -0.645071 1.332730
v -2.412151 -0.643818 1.482408
v -2.306000 -0.423956 1.479886
v -2.381560 -0.628736 1.450631
v -2.372383 -0.631964 1.452946
v -2.342801 -0.622356 1.305866
v -2.289411 -0.433706 1.331086
v -2.280235 -0.436934 1.333401
v -2.333625 -0.625584 1.308180
v -2.381560 -0.628736 1.450631
v -2.342801 -0.622356 1.305866
v -2.333625 -0.625584 1.308180
v -2.372383 -0.631964 1.452946
v -2.280235 -0.436934 1.333401
v -2.289411 -0.433706 1.331086
v -2.306000 -0.423956 1.479886
v -2.333625 -0.625584 1.308180
v -2.306000 -0.423956 1.479886
v -2.372383 -0.631964 1.452946
v -2.328170 -0.440085 1.475852
v -2.289411 -0.433706 1.331086
v -2.342801 -0.622356 1.305866
v -2.381560 -0.628736 1.450631
v -2.306000 -0.423956 1.479886
v -2.328170 -0.440085 1.475852
v -2.381560 -0.628736 1.450631
v -2.289411 -0.433706 1.331086
v -2.328170 -0.440085 1.475852
v -2.306000 -0.423956 1.479886
v -2.333625 -0.625584 1.308180
v -2.280235 -0.436934 1.333401
v -2.306000 -0.423956 1.479886
usemtl mat18

vn -0.114193 0.014891 0.993347
vn -0.114193 0.014891 0.993347
vn -0.114193 0.014891 0.993347
vn -0.114193 0.014891 0.993347
vn 0.114170 -0.014875 -0.993350
vn 0.114170 -0.014875 -0.993350
vn 0.114170 -0.014875 -0.993350
vn 0.114170 -0.014875 -0.993350
vn -0.575492 -0.815869 -0.056273
vn -0.575492 -0.815869 -0.056273
vn -0.575492 -0.815869 -0.056273
vn -0.575492 -0.815869 -0.056273
vn 0.575492 0.815869 0.056273
vn 0.575492 0.815869 0.056273
vn 0.575492 0.815869 0.056273
vn 0.575492 0.815869 0.056273
vn 0.808152 -0.580145 0.101595
vn 0.808152 -0.580145 0.101595
vn 0.808152 -0.580145 0.101595
vn 0.808152 -0.580145 0.101595
vn -0.808152 0.580145 -0.101595
vn -0.808152 0.580145 -0.101595
vn -0.808152 0.580145 -0.101595
vn -0.808152 0.580145 -0.101595
vn -0.070063 0.025286 0.997222
vn -0.070063 0.025286 0.997222
vn -0.070063 0.025286 0.997222
vn -0.070063 0.025286 0.997222
vn 0.071727 -0.019645 -0.997231
vn 0.071727 -0.019645 -0.997231
vn 0.071727 -0.019645 -0.997231
vn -0.282680 -0.959213 -0.001436
vn -0.282680 -0.959213 -0.001436
vn -0.282680 -0.959213 -0.001436
vn -0.282680 -0.959213 -0.001436
vn 0.977634 -0.157314 0.139588
vn 0.977634 -0.157314 0.139588
vn 0.977634 -0.157314 0.139588
vn 0.966053 -0.247412 0.074359
vn 0.966053 -0.247412 0.074359
vn 0.966053 -0.247412 0.074359
vn 0.966053 -0.247412 0.074359
vn -0.956529 0.282000 -0.074355
vn -0.956529 0.282000 -0.074355
vn -0.956529 0.282000 -0.074355
vn 0.282677 0.959214 0.001436
vn 0.282677 0.959214 0.001436
vn 0.282677 0.959214 0.001436
vn -0.960972 0.245721 -0.127100
vn -0.960972 0.245721 -0.127100
vn -0.960972 0.245721 -0.127100
vn -0.446834 0.108185 -0.888051
vn -0.446834 0.108185 -0.888051
vn -0.446834 0.108185 -0.888051
vn -0.063544 0.013380 0.997889
vn -0.063544 0.013380 0.997889
vn -0.063544 0.013380 0.997889
vn -0.063544 0.013380 0.997889
vn 0.063532 -0.013377 -0.997890
vn 0.063532 -0.013377 -0.997890
vn 0.063532 -0.013377 -0.997890
vn 0.063532 -0.013377 -0.997890
vn -0.272756 -0.962034 -0.009705
vn -0.272756 -0.962034 -0.009705
vn -0.272756 -0.962034 -0.009705
vn -0.272756 -0.962034 -0.009705
vn 0.272756 0.962034 0.009705
vn 0.272756 0.962034 0.009705
vn 0.272756 0.962034 0.009705
vn 0.272756 0.962034 0.009705
vn 0.969297 -0.237121 0.065097
vn 0.969297 -0.237121 0.065097
vn 0.969297 -0.237121 0.065097
vn 0.969297 -0.237121 0.065097
vn -0.969297 0.237121 -0.065097
vn -0.969297 0.237121 -0.065097
vn -0.969297 0.237121 -0.065097
vn -0.969297 0.237121 -0.065097
vn -0.258391 -0.042532 0.965104
vn -0.258391 -0.042532 0.965104
vn -0.258391 -0.042532 0.965104
vn 0.262210 0.054597 -0.963465
vn 0.262210 0.054597 -0.963465
vn 0.262210 0.054597 -0.963465
vn 0.262210 0.054597 -0.963465
vn -0.301744 -0.945492 -0.122455
vn -0.301744 -0.945492 -0.122455
vn -0.301744 -0.945492 -0.122455
vn -0.301744 -0.945492 -0.122455
vn 0.337171 0.941136 -0.024078
vn 0.337171 0.941136 -0.024078
vn 0.337171 0.941136 -0.024078
vn 0.917706 -0.322856 0.231473
vn 0.917706 -0.322856 0.231473
vn 0.917706 -0.322856 0.231473
vn -0.926544 0.293654 -0.235126
vn -0.926544 0.293654 -0.235126
vn -0.926544 0.293654 -0.235126
vn -0.926544 0.293654 -0.235126
vn -0.105506 -0.102378 0.989135
vn -0.105506 -0.102378 0.989135
vn -0.105506 -0.102378 0.989135
vn -0.570281 0.813097 -0.116851
vn -0.570281 0.813097 -0.116851
vn -0.570281 0.813097 -0.116851
vn 0.937581 -0.290835 0.190674
vn 0.937581 -0.290835 0.190674
vn 0.937581 -0.290835 0.190674

vt 0.113706 -0.211949
vt 0.114599 -0.212398
vt 0.105821 -0.229992
vt 0.104927 -0.229544
vt -0.105840 -0.229966
vt -0.114619 -0.212371
vt -0.113725 -0.211922
vt -0.104946 -0.229517
vt 0.056760 -0.328203
vt 0.045927 -0.317828
vt 0.046619 -0.317106
vt 0.057452 -0.327481
vt -0.046620 -0.317038
vt -0.045928 -0.317760
vt -0.056761 -0.328135
vt -0.057453 -0.327413
vt 0.159584 -0.251963
vt 0.168063 -0.234221
vt 0.181581 -0.240721
vt 0.173102 -0.258462
vt -0.181580 -0.240723
vt -0.168062 -0.234224
vt -0.159582 -0.251965
vt -0.173101 -0.258465
vt 0.114127 -0.223583
vt 0.114823 -0.224302
vt 0.100125 -0.237551
vt 0.099429 -0.236832
vt -0.100828 -0.236664
vt -0.116655 -0.221383
vt -0.100133 -0.235945
vt 0.114125 -0.332411
vt 0.100870 -0.325388
vt 0.101338 -0.324505
vt 0.114593 -0.331528
vt 0.184095 -0.184222
vt 0.185505 -0.182473
vt 0.196346 -0.192935
vt 0.168537 -0.191916
vt 0.178239 -0.174670
vt 0.191269 -0.182101
vt 0.181566 -0.199348
vt -0.178091 -0.177414
vt -0.167506 -0.196700
vt -0.180656 -0.203917
vt -0.113690 -0.332984
vt -0.114158 -0.332101
vt -0.100904 -0.325078
vt -0.183512 -0.213544
vt -0.193947 -0.196729
vt -0.182498 -0.186936
vt -0.160396 -0.298521
vt -0.158503 -0.299731
vt -0.143102 -0.312156
vt 0.115075 -0.222791
vt 0.115760 -0.223520
vt 0.100847 -0.236538
vt 0.100162 -0.235810
vt -0.100905 -0.236487
vt -0.115818 -0.223469
vt -0.115133 -0.222740
vt -0.100221 -0.235758
vt 0.113911 -0.331611
vt 0.100609 -0.324677
vt 0.101071 -0.323791
vt 0.114373 -0.330724
vt -0.100642 -0.324391
vt -0.100180 -0.325277
vt -0.113482 -0.332210
vt -0.113944 -0.331324
vt 0.167824 -0.187680
vt 0.177656 -0.170499
vt 0.190636 -0.178016
vt 0.180804 -0.195198
vt -0.190654 -0.177985
vt -0.177674 -0.170467
vt -0.167842 -0.187648
vt -0.180822 -0.195166
vt 0.107586 -0.159198
vt 0.093410 -0.176052
vt 0.092675 -0.175374
vt -0.094890 -0.173939
vt -0.108805 -0.159900
vt -0.108074 -0.159218
vt -0.094158 -0.173257
vt 0.089310 -0.339117
vt 0.078309 -0.328921
vt 0.078988 -0.328187
vt 0.089990 -0.338384
vt -0.103682 -0.312962
vt -0.103081 -0.313761
vt -0.115963 -0.321452
vt 0.170702 -0.232829
vt 0.196397 -0.225847
vt 0.182107 -0.242573
vt -0.195661 -0.226146
vt -0.184399 -0.216239
vt -0.171154 -0.230913
vt -0.182416 -0.240820
vt 0.129840 -0.198410
vt 0.129330 -0.201134
vt 0.114545 -0.214255
vt -0.158752 -0.275109
vt -0.171426 -0.283132
vt -0.172689 -0.280665
vt 0.170312 -0.220545
vt 0.183168 -0.205529
vt 0.195929 -0.213279
s off
f 1/1/1 2/2/2 3/3/3
f 1/1/1 3/3/3 4/4/4
f 5/5/5 6/6/6 7/7/7
f 5/5/5 7/7/7 8/8/8
f 9/9/9 10/10/10 11/11/11
f 9/9/9 11/11/11 12/12/12
f 13/13/13 14/14/14 15/15/15
f 13/13/13 15/15/15 16/16/16
f 17/17/17 18/18/18 19/19/19
f 17/17/17 19/19/19 20/20/20
f 21/21/21 22/22/22 23/23/23
f 21/21/21 23/23/23 24/24/24
f 25/25/25 26/26/26 27/27/27
f 25/25/25 27/27/27 28/28/28
f 29/29/29 30/30/30 31/31/31
f 32/32/32 33/33/33 34/34/34
f 32/32/32 34/34/34 35/35/35
f 36/36/36 37/37/37 38/38/38
f 39/39/39 40/40/40 41/41/41
f 39/39/39 41/41/41 42/42/42
f 43/43/43 44/44/44 45/45/45
f 46/46/46 47/47/47 48/48/48
f 49/49/49 50/50/50 51/51/51
f 52/52/52 53/53/53 54/54/54
f 55/55/55 56/56/56 57/57/57
f 55/55/55 57/57/57 58/58/58
f 59/59/59 60/60/60 61/61/61
f 59/59/59 61/61/61 62/62/62
f 63/63/63 64/64/64 65/65/65
f 63/63/63 65/65/65 66/66/66
f 67/67/67 68/68/68 69/69/69
f 67/67/67 69/69/69 70/70/70
f 71/71/71 72/72/72 73/73/73
f 71/71/71 73/73/73 74/74/74
f 75/75/75 76/76/76 77/77/77
f 75/75/75 77/77/77 78/78/78
f 79/79/79 80/80/80 81/81/81
f 82/82/82 83/83/83 84/84/84
f 82/82/82 84/84/84 85/85/85
f 86/86/86 87/87/87 88/88/88
f 86/86/86 88/88/88 89/89/89
f 90/90/90 91/91/91 92/92/92
f 93/93/93 94/94/94 95/95/95
f 96/96/96 97/97/97 98/98/98
f 96/96/96 98/98/98 99/99/99
f 100/100/100 101/101/101 102/102/102
f 103/103/103 104/104/104 105/105/105
f 106/106/106 107/107/107 108/108/108
