# Exported using automatic converter by Erwin Coumans
mtllib model6.mtl
#object mesh1917648195

v -0.123544 0.439866 1.540554
v -0.123250 0.476074 1.540395
v 0.586447 0.470309 1.539986
v 0.586153 0.434100 1.540145
v 0.586456 0.470373 1.554470
v -0.123241 0.476138 1.554879
v -0.123535 0.439929 1.555038
v 0.586162 0.434164 1.554629
v 0.586447 0.470309 1.539986
v 0.586456 0.470373 1.554470
v 0.586162 0.434164 1.554629
v 0.586153 0.434100 1.540145
v -0.123535 0.439929 1.555038
v -0.123241 0.476138 1.554879
v -0.123250 0.476074 1.540395
v -0.123544 0.439866 1.540554
v 0.586162 0.434164 1.554629
v -0.123535 0.439929 1.555038
v -0.123544 0.439866 1.540554
v 0.586153 0.434100 1.540145
v -0.123250 0.476074 1.540395
v -0.123241 0.476138 1.554879
v 0.586456 0.470373 1.554470
v 0.586447 0.470309 1.539986
v 0.578880 0.430523 1.536545
v 0.579056 0.452248 1.536449
v 0.608023 0.452012 1.536433
v 0.607847 0.430287 1.536528
v 0.608445 0.455036 2.224421
v 0.579477 0.455272 2.224437
v 0.579301 0.433546 2.224533
v 0.608268 0.433311 2.224516
v 0.608023 0.452012 1.536433
v 0.608445 0.455036 2.224421
v 0.608268 0.433311 2.224516
v 0.607847 0.430287 1.536528
v 0.579301 0.433546 2.224533
v 0.579477 0.455272 2.224437
v 0.579056 0.452248 1.536449
v 0.578880 0.430523 1.536545
v 0.608268 0.433311 2.224516
v 0.579301 0.433546 2.224533
v 0.578880 0.430523 1.536545
v 0.607847 0.430287 1.536528
v 0.579056 0.452248 1.536449
v 0.579477 0.455272 2.224437
v 0.608445 0.455036 2.224421
v 0.608023 0.452012 1.536433
v -0.130410 0.439217 2.203213
v -0.130115 0.475425 2.203054
v 0.579581 0.469660 2.202645
v 0.579287 0.433451 2.202805
v 0.579590 0.469724 2.217129
v -0.130107 0.475489 2.217538
v -0.130401 0.439280 2.217697
v 0.579296 0.433515 2.217288
v 0.579581 0.469660 2.202645
v 0.579590 0.469724 2.217129
v 0.579296 0.433515 2.217288
v 0.579287 0.433451 2.202805
v -0.130401 0.439280 2.217697
v -0.130107 0.475489 2.217538
v -0.130115 0.475425 2.203054
v -0.130410 0.439217 2.203213
v 0.579296 0.433515 2.217288
v -0.130401 0.439280 2.217697
v -0.130410 0.439217 2.203213
v 0.579287 0.433451 2.202805
v -0.130115 0.475425 2.203054
v -0.130107 0.475489 2.217538
v 0.579590 0.469724 2.217129
v 0.579581 0.469660 2.202645
v -0.152547 0.436433 1.529724
v -0.152371 0.458158 1.529629
v -0.123404 0.457923 1.529612
v -0.123580 0.436197 1.529708
v -0.122982 0.460947 2.217600
v -0.151950 0.461182 2.217617
v -0.152126 0.439457 2.217712
v -0.123159 0.439221 2.217696
v -0.123404 0.457923 1.529612
v -0.122982 0.460947 2.217600
v -0.123159 0.439221 2.217696
v -0.123580 0.436197 1.529708
v -0.152126 0.439457 2.217712
v -0.151950 0.461182 2.217617
v -0.152371 0.458158 1.529629
v -0.152547 0.436433 1.529724
v -0.123159 0.439221 2.217696
v -0.152126 0.439457 2.217712
v -0.152547 0.436433 1.529724
v -0.123580 0.436197 1.529708
v -0.152371 0.458158 1.529629
v -0.151950 0.461182 2.217617
v -0.122982 0.460947 2.217600
v -0.123404 0.457923 1.529612
usemtl mat20

vn -0.000612 -0.004395 -0.999990
vn -0.000612 -0.004395 -0.999990
vn -0.000612 -0.004395 -0.999990
vn -0.000612 -0.004395 -0.999990
vn 0.000612 0.004395 0.999990
vn 0.000612 0.004395 0.999990
vn 0.000612 0.004395 0.999990
vn 0.000612 0.004395 0.999990
vn 0.999967 -0.008124 -0.000576
vn 0.999967 -0.008124 -0.000576
vn 0.999967 -0.008124 -0.000576
vn 0.999967 -0.008124 -0.000576
vn -0.999967 0.008124 0.000576
vn -0.999967 0.008124 0.000576
vn -0.999967 0.008124 0.000576
vn -0.999967 0.008124 0.000576
vn -0.008121 -0.999957 0.004400
vn -0.008121 -0.999957 0.004400
vn -0.008121 -0.999957 0.004400
vn -0.008121 -0.999957 0.004400
vn 0.008121 0.999957 -0.004400
vn 0.008121 0.999957 -0.004400
vn 0.008121 0.999957 -0.004400
vn 0.008121 0.999957 -0.004400
vn -0.000612 -0.004395 -0.999990
vn -0.000612 -0.004395 -0.999990
vn -0.000612 -0.004395 -0.999990
vn -0.000612 -0.004395 -0.999990
vn 0.000612 0.004395 0.999990
vn 0.000612 0.004395 0.999990
vn 0.000612 0.004395 0.999990
vn 0.000612 0.004395 0.999990
vn 0.999967 -0.008124 -0.000576
vn 0.999967 -0.008124 -0.000576
vn 0.999967 -0.008124 -0.000576
vn 0.999967 -0.008124 -0.000576
vn -0.999967 0.008124 0.000576
vn -0.999967 0.008124 0.000576
vn -0.999967 0.008124 0.000576
vn -0.999967 0.008124 0.000576
vn -0.008121 -0.999957 0.004400
vn -0.008121 -0.999957 0.004400
vn -0.008121 -0.999957 0.004400
vn -0.008121 -0.999957 0.004400
vn 0.008121 0.999957 -0.004400
vn 0.008121 0.999957 -0.004400
vn 0.008121 0.999957 -0.004400
vn 0.008121 0.999957 -0.004400
vn -0.000612 -0.004395 -0.999990
vn -0.000612 -0.004395 -0.999990
vn -0.000612 -0.004395 -0.999990
vn -0.000612 -0.004395 -0.999990
vn 0.000612 0.004395 0.999990
vn 0.000612 0.004395 0.999990
vn 0.000612 0.004395 0.999990
vn 0.000612 0.004395 0.999990
vn 0.999967 -0.008124 -0.000576
vn 0.999967 -0.008124 -0.000576
vn 0.999967 -0.008124 -0.000576
vn 0.999967 -0.008124 -0.000576
vn -0.999967 0.008124 0.000576
vn -0.999967 0.008124 0.000576
vn -0.999967 0.008124 0.000576
vn -0.999967 0.008124 0.000576
vn -0.008121 -0.999957 0.004400
vn -0.008121 -0.999957 0.004400
vn -0.008121 -0.999957 0.004400
vn -0.008121 -0.999957 0.004400
vn 0.008121 0.999957 -0.004400
vn 0.008121 0.999957 -0.004400
vn 0.008121 0.999957 -0.004400
vn 0.008121 0.999957 -0.004400
vn -0.000612 -0.004395 -0.999990
vn -0.000612 -0.004395 -0.999990
vn -0.000612 -0.004395 -0.999990
vn -0.000612 -0.004395 -0.999990
vn 0.000612 0.004395 0.999990
vn 0.000612 0.004395 0.999990
vn 0.000612 0.004395 0.999990
vn 0.000612 0.004395 0.999990
vn 0.999967 -0.008124 -0.000576
vn 0.999967 -0.008124 -0.000576
vn 0.999967 -0.008124 -0.000576
vn 0.999967 -0.008124 -0.000576
vn -0.999967 0.008124 0.000576
vn -0.999967 0.008124 0.000576
vn -0.999967 0.008124 0.000576
vn -0.999967 0.008124 0.000576
vn -0.008121 -0.999957 0.004400
vn -0.008121 -0.999957 0.004400
vn -0.008121 -0.999957 0.004400
vn -0.008121 -0.999957 0.004400
vn 0.008121 0.999957 -0.004400
vn 0.008121 0.999957 -0.004400
vn 0.008121 0.999957 -0.004400
vn 0.008121 0.999957 -0.004400

vt -0.101096 0.002226
vt -0.104320 0.003875
vt -0.071992 0.067057
vt -0.068769 0.065408
vt 0.071992 0.067057
vt 0.104320 0.003875
vt 0.101096 0.002226
vt 0.068769 0.065408
vt 0.253908 -0.061263
vt 0.255097 -0.062090
vt 0.253030 -0.065063
vt 0.251841 -0.064236
vt -0.253030 -0.065063
vt -0.255097 -0.062090
vt -0.253908 -0.061263
vt -0.251841 -0.064236
vt 0.239750 -0.056727
vt 0.215964 -0.123594
vt 0.214600 -0.123109
vt 0.238385 -0.056241
vt -0.214600 -0.123109
vt -0.215964 -0.123594
vt -0.239750 -0.056727
vt -0.238385 -0.056241
vt -0.068776 0.064598
vt -0.070710 0.065588
vt -0.069391 0.068167
vt -0.067457 0.067177
vt 0.069391 0.068167
vt 0.070710 0.065588
vt 0.068776 0.064598
vt 0.067457 0.067177
vt 0.252577 -0.062543
vt 0.309067 -0.101815
vt 0.307827 -0.103599
vt 0.251337 -0.064327
vt -0.307827 -0.103599
vt -0.309067 -0.101815
vt -0.252577 -0.062543
vt -0.251337 -0.064327
vt 0.303593 -0.077130
vt 0.302622 -0.079860
vt 0.237802 -0.056802
vt 0.238772 -0.054073
vt -0.237802 -0.056802
vt -0.302622 -0.079860
vt -0.303593 -0.077130
vt -0.238772 -0.054073
vt -0.101104 0.001416
vt -0.104327 0.003066
vt -0.072000 0.066248
vt -0.068776 0.064598
vt 0.072000 0.066248
vt 0.104327 0.003066
vt 0.101104 0.001416
vt 0.068776 0.064598
vt 0.308110 -0.099386
vt 0.309299 -0.100212
vt 0.307232 -0.103186
vt 0.306043 -0.102359
vt -0.307232 -0.103186
vt -0.309299 -0.100212
vt -0.308110 -0.099386
vt -0.306043 -0.102359
vt 0.301940 -0.079617
vt 0.278154 -0.146484
vt 0.276789 -0.145999
vt 0.300575 -0.079131
vt -0.276789 -0.145999
vt -0.278154 -0.146484
vt -0.301940 -0.079617
vt -0.300575 -0.079131
vt -0.102094 -0.000518
vt -0.104028 0.000472
vt -0.102708 0.003051
vt -0.100774 0.002061
vt 0.102708 0.003051
vt 0.104028 0.000472
vt 0.102094 -0.000518
vt 0.100774 0.002061
vt 0.251983 -0.062130
vt 0.308472 -0.101402
vt 0.307232 -0.103186
vt 0.250743 -0.063913
vt -0.307232 -0.103186
vt -0.308472 -0.101402
vt -0.251983 -0.062130
vt -0.250743 -0.063913
vt 0.278397 -0.145802
vt 0.277426 -0.148531
vt 0.212605 -0.125474
vt 0.213576 -0.122745
vt -0.212605 -0.125474
vt -0.277426 -0.148531
vt -0.278397 -0.145802
vt -0.213576 -0.122745
s off
f 1/1/1 2/2/2 3/3/3
f 1/1/1 3/3/3 4/4/4
f 5/5/5 6/6/6 7/7/7
f 5/5/5 7/7/7 8/8/8
f 9/9/9 10/10/10 11/11/11
f 9/9/9 11/11/11 12/12/12
f 13/13/13 14/14/14 15/15/15
f 13/13/13 15/15/15 16/16/16
f 17/17/17 18/18/18 19/19/19
f 17/17/17 19/19/19 20/20/20
f 21/21/21 22/22/22 23/23/23
f 21/21/21 23/23/23 24/24/24
f 25/25/25 26/26/26 27/27/27
f 25/25/25 27/27/27 28/28/28
f 29/29/29 30/30/30 31/31/31
f 29/29/29 31/31/31 32/32/32
f 33/33/33 34/34/34 35/35/35
f 33/33/33 35/35/35 36/36/36
f 37/37/37 38/38/38 39/39/39
f 37/37/37 39/39/39 40/40/40
f 41/41/41 42/42/42 43/43/43
f 41/41/41 43/43/43 44/44/44
f 45/45/45 46/46/46 47/47/47
f 45/45/45 47/47/47 48/48/48
f 49/49/49 50/50/50 51/51/51
f 49/49/49 51/51/51 52/52/52
f 53/53/53 54/54/54 55/55/55
f 53/53/53 55/55/55 56/56/56
f 57/57/57 58/58/58 59/59/59
f 57/57/57 59/59/59 60/60/60
f 61/61/61 62/62/62 63/63/63
f 61/61/61 63/63/63 64/64/64
f 65/65/65 66/66/66 67/67/67
f 65/65/65 67/67/67 68/68/68
f 69/69/69 70/70/70 71/71/71
f 69/69/69 71/71/71 72/72/72
f 73/73/73 74/74/74 75/75/75
f 73/73/73 75/75/75 76/76/76
f 77/77/77 78/78/78 79/79/79
f 77/77/77 79/79/79 80/80/80
f 81/81/81 82/82/82 83/83/83
f 81/81/81 83/83/83 84/84/84
f 85/85/85 86/86/86 87/87/87
f 85/85/85 87/87/87 88/88/88
f 89/89/89 90/90/90 91/91/91
f 89/89/89 91/91/91 92/92/92
f 93/93/93 94/94/94 95/95/95
f 93/93/93 95/95/95 96/96/96
