# Exported using automatic converter by Erwin Coumans
mtllib model6.mtl
#object mesh1597737766

v 0.753906 -0.690626 2.455336
v 0.747166 -0.676861 2.442486
v 0.765473 -0.675268 2.434591
v 0.772212 -0.689033 2.447440
v 0.769883 -0.660846 2.447727
v 0.751577 -0.662439 2.455622
v 0.758316 -0.676204 2.468472
v 0.776623 -0.674611 2.460577
v 0.765473 -0.675268 2.434591
v 0.769883 -0.660846 2.447727
v 0.776623 -0.674611 2.460577
v 0.772212 -0.689033 2.447440
v 0.758316 -0.676204 2.468472
v 0.751577 -0.662439 2.455622
v 0.747166 -0.676861 2.442486
v 0.753906 -0.690626 2.455336
v 0.776623 -0.674611 2.460577
v 0.758316 -0.676204 2.468472
v 0.753906 -0.690626 2.455336
v 0.772212 -0.689033 2.447440
v 0.747166 -0.676861 2.442486
v 0.751577 -0.662439 2.455622
v 0.769883 -0.660846 2.447727
v 0.765473 -0.675268 2.434591
usemtl mat6

vn -0.220513 -0.721095 -0.656808
vn -0.220513 -0.721095 -0.656808
vn -0.220513 -0.721095 -0.656808
vn -0.220513 -0.721095 -0.656808
vn 0.220513 0.721095 0.656808
vn 0.220513 0.721095 0.656808
vn 0.220513 0.721095 0.656808
vn 0.220513 0.721095 0.656808
vn 0.915325 0.079657 -0.394760
vn 0.915325 0.079657 -0.394760
vn 0.915325 0.079657 -0.394760
vn 0.915325 0.079657 -0.394760
vn -0.915325 -0.079657 0.394760
vn -0.915325 -0.079657 0.394760
vn -0.915325 -0.079657 0.394760
vn -0.915325 -0.079657 0.394760
vn 0.336978 -0.688242 0.642471
vn 0.336978 -0.688242 0.642471
vn 0.336978 -0.688242 0.642471
vn 0.336978 -0.688242 0.642471
vn -0.336978 0.688242 -0.642471
vn -0.336978 0.688242 -0.642471
vn -0.336978 0.688242 -0.642471
vn -0.336978 0.688242 -0.642471

vt 0.219042 -0.142334
vt 0.217087 -0.141912
vt 0.217509 -0.139957
vt 0.219464 -0.140379
vt -0.217509 -0.139957
vt -0.217087 -0.141912
vt -0.219042 -0.142334
vt -0.219464 -0.140379
vt 0.321040 0.040758
vt 0.322168 0.042409
vt 0.323819 0.041282
vt 0.322692 0.039630
vt -0.323819 0.041282
vt -0.322168 0.042409
vt -0.321040 0.040758
vt -0.322692 0.039630
vt 0.234023 -0.021375
vt 0.234626 -0.023282
vt 0.232719 -0.023884
vt 0.232116 -0.021977
vt -0.232719 -0.023884
vt -0.234626 -0.023282
vt -0.234023 -0.021375
vt -0.232116 -0.021977
s off
f 1/1/1 2/2/2 3/3/3
f 1/1/1 3/3/3 4/4/4
f 5/5/5 6/6/6 7/7/7
f 5/5/5 7/7/7 8/8/8
f 9/9/9 10/10/10 11/11/11
f 9/9/9 11/11/11 12/12/12
f 13/13/13 14/14/14 15/15/15
f 13/13/13 15/15/15 16/16/16
f 17/17/17 18/18/18 19/19/19
f 17/17/17 19/19/19 20/20/20
f 21/21/21 22/22/22 23/23/23
f 21/21/21 23/23/23 24/24/24
