# Exported using automatic converter by Erwin Coumans
mtllib model6.mtl
#object mesh1512990182

v -0.017566 -0.653819 2.458822
v -0.061963 -0.662918 2.448321
v -0.062323 -0.637683 2.556317
v -0.061963 -0.662918 2.448321
v -0.095749 -0.657943 2.455730
v -0.062323 -0.637683 2.556317
v -0.095749 -0.657943 2.455730
v -0.128731 -0.676582 2.467799
v -0.062323 -0.637683 2.556317
v -0.128731 -0.676582 2.467799
v -0.122167 -0.663902 2.525143
v -0.062323 -0.637683 2.556317
v -0.122167 -0.663902 2.525143
v -0.157734 -0.689952 2.561800
v -0.062323 -0.637683 2.556317
v -0.157734 -0.689952 2.561800
v -0.142501 -0.705000 2.593078
v -0.062323 -0.637683 2.556317
v -0.142501 -0.705000 2.593078
v -0.112888 -0.695502 2.599635
v -0.062323 -0.637683 2.556317
v -0.112888 -0.695502 2.599635
v -0.046726 -0.663526 2.579884
v -0.062323 -0.637683 2.556317
v -0.046726 -0.663526 2.579884
v -0.044837 -0.738124 2.551185
v -0.062323 -0.637683 2.556317
v 0.060531 -0.690727 2.500000
v 0.001827 -0.665384 2.494169
v -0.062323 -0.637683 2.556317
v 0.001827 -0.665384 2.494169
v 0.001031 -0.653254 2.463903
v -0.062323 -0.637683 2.556317
v 0.001031 -0.653254 2.463903
v -0.017566 -0.653819 2.458822
v -0.062323 -0.637683 2.556317
v -0.044837 -0.738124 2.551185
v -0.095749 -0.657943 2.455730
v -0.061963 -0.662918 2.448321
v -0.044837 -0.738124 2.551185
v -0.046726 -0.663526 2.579884
v -0.112888 -0.695502 2.599635
v -0.044837 -0.738124 2.551185
v -0.112888 -0.695502 2.599635
v -0.142501 -0.705000 2.593078
v 0.001031 -0.653254 2.463903
v 0.001827 -0.665384 2.494169
v -0.044837 -0.738124 2.551185
v -0.017566 -0.653819 2.458822
v 0.001031 -0.653254 2.463903
v -0.044837 -0.738124 2.551185
v -0.061963 -0.662918 2.448321
v -0.017566 -0.653819 2.458822
v -0.044837 -0.738124 2.551185
v -0.142501 -0.705000 2.593078
v -0.157734 -0.689952 2.561800
v -0.122167 -0.663902 2.525143
v -0.142501 -0.705000 2.593078
v -0.122167 -0.663902 2.525143
v -0.128731 -0.676582 2.467799
v -0.044837 -0.738124 2.551185
v -0.142501 -0.705000 2.593078
v -0.128731 -0.676582 2.467799
v -0.044837 -0.738124 2.551185
v -0.128731 -0.676582 2.467799
v -0.095749 -0.657943 2.455730
v 0.037342 -0.711898 2.530590
v -0.044837 -0.738124 2.551185
v 0.001827 -0.665384 2.494169
v 0.037342 -0.711898 2.530590
v -0.062323 -0.637683 2.556317
v -0.044837 -0.738124 2.551185
v 0.037342 -0.711898 2.530590
v 0.060531 -0.690727 2.500000
v 0.041388 -0.668886 2.549269
v -0.062323 -0.637683 2.556317
v 0.041388 -0.668886 2.549269
v 0.060531 -0.690727 2.500000
v 0.037342 -0.711898 2.530590
v 0.041388 -0.668886 2.549269
v -0.062323 -0.637683 2.556317
v 0.001827 -0.665384 2.494169
v 0.060531 -0.690727 2.500000
v 0.037342 -0.711898 2.530590
usemtl mat9

vn -0.144102 0.963501 -0.225613
vn -0.144102 0.963501 -0.225613
vn -0.144102 0.963501 -0.225613
vn 0.093149 0.969606 -0.226248
vn 0.093149 0.969606 -0.226248
vn 0.093149 0.969606 -0.226248
vn -0.494888 0.868893 -0.010553
vn -0.494888 0.868893 -0.010553
vn -0.494888 0.868893 -0.010553
vn -0.320085 0.932108 -0.169473
vn -0.320085 0.932108 -0.169473
vn -0.320085 0.932108 -0.169473
vn -0.466582 0.868982 0.164838
vn -0.466582 0.868982 0.164838
vn -0.466582 0.868982 0.164838
vn -0.378709 0.748402 0.544495
vn -0.378709 0.748402 0.544495
vn -0.378709 0.748402 0.544495
vn -0.362767 0.740800 0.565345
vn -0.362767 0.740800 0.565345
vn -0.362767 0.740800 0.565345
vn -0.083777 0.643366 0.760961
vn -0.083777 0.643366 0.760961
vn -0.083777 0.643366 0.760961
vn 0.898880 0.176973 -0.400869
vn 0.898880 0.176973 -0.400869
vn 0.898880 0.176973 -0.400869
vn 0.396358 0.918096 -0.000088
vn 0.396358 0.918096 -0.000088
vn 0.396358 0.918096 -0.000088
vn 0.598784 0.748737 0.284343
vn 0.598784 0.748737 0.284343
vn 0.598784 0.748737 0.284343
vn 0.013023 0.987442 -0.157444
vn 0.013023 0.987442 -0.157444
vn 0.013023 0.987442 -0.157444
vn -0.238126 -0.802497 -0.547078
vn -0.238126 -0.802497 -0.547078
vn -0.238126 -0.802497 -0.547078
vn 0.409214 -0.318568 0.855019
vn 0.409214 -0.318568 0.855019
vn 0.409214 -0.318568 0.855019
vn 0.067293 -0.700348 0.710622
vn 0.067293 -0.700348 0.710622
vn 0.067293 -0.700348 0.710622
vn 0.689603 -0.665763 -0.284968
vn 0.689603 -0.665763 -0.284968
vn 0.689603 -0.665763 -0.284968
vn 0.194804 -0.752402 -0.629240
vn 0.194804 -0.752402 -0.629240
vn 0.194804 -0.752402 -0.629240
vn 0.294063 -0.747577 -0.595529
vn 0.294063 -0.747577 -0.595529
vn 0.294063 -0.747577 -0.595529
vn 0.136283 -0.865171 -0.482604
vn 0.136283 -0.865171 -0.482604
vn 0.136283 -0.865171 -0.482604
vn -0.894108 0.447840 0.003317
vn -0.894108 0.447840 0.003317
vn -0.894108 0.447840 0.003317
vn -0.403826 -0.881595 -0.244365
vn -0.403826 -0.881595 -0.244365
vn -0.403826 -0.881595 -0.244365
vn 0.154099 -0.714549 -0.682402
vn 0.154099 -0.714549 -0.682402
vn 0.154099 -0.714549 -0.682402
vn -0.000454 -0.616728 -0.787176
vn -0.000454 -0.616728 -0.787176
vn -0.000454 -0.616728 -0.787176
vn 0.245145 -0.006860 0.969462
vn 0.245145 -0.006860 0.969462
vn 0.245145 -0.006860 0.969462
vn 0.848254 -0.276057 0.451948
vn 0.848254 -0.276057 0.451948
vn 0.848254 -0.276057 0.451948
vn 0.254945 0.916806 -0.307360
vn 0.254945 0.916806 -0.307360
vn 0.254945 0.916806 -0.307360
vn -0.055950 -0.393276 0.917717
vn -0.055950 -0.393276 0.917717
vn -0.055950 -0.393276 0.917717
vn -0.237939 -0.704902 -0.668205
vn -0.237939 -0.704902 -0.668205
vn -0.237939 -0.704902 -0.668205

vt -0.305089 -0.113248
vt -0.302932 -0.117369
vt -0.313760 -0.119769
vt -0.304798 -0.104744
vt -0.304789 -0.108239
vt -0.315552 -0.107453
vt -0.305326 -0.143721
vt -0.305320 -0.147697
vt -0.316098 -0.143070
vt -0.303314 -0.139060
vt -0.309187 -0.139715
vt -0.314063 -0.134365
vt -0.307241 -0.143959
vt -0.309496 -0.149230
vt -0.312190 -0.138676
vt -0.265388 -0.123025
vt -0.269167 -0.123324
vt -0.267545 -0.112348
vt -0.264501 -0.122884
vt -0.266066 -0.120118
vt -0.262828 -0.111915
vt -0.195076 -0.143747
vt -0.195371 -0.136143
vt -0.191573 -0.135654
vt 0.288903 0.090493
vt 0.288394 0.082515
vt 0.285533 0.092314
vt -0.297235 -0.163686
vt -0.293871 -0.169155
vt -0.296334 -0.178176
vt -0.188964 -0.275599
vt -0.186423 -0.273554
vt -0.187418 -0.284822
vt -0.308795 -0.116142
vt -0.307808 -0.117799
vt -0.316143 -0.124743
vt 0.213025 -0.222475
vt 0.199731 -0.220333
vt 0.201296 -0.217209
vt 0.141361 -0.132154
vt 0.149062 -0.130008
vt 0.148983 -0.137617
vt 0.227699 -0.030075
vt 0.234792 -0.036211
vt 0.233961 -0.039278
vt 0.303508 -0.102330
vt 0.306410 -0.103818
vt 0.310361 -0.113388
vt 0.234521 -0.129422
vt 0.235787 -0.127967
vt 0.243879 -0.138153
vt 0.245689 -0.119250
vt 0.248261 -0.115375
vt 0.257573 -0.124157
vt 0.265487 -0.171131
vt 0.261708 -0.170834
vt 0.259485 -0.165549
vt -0.308982 -0.165466
vt -0.304357 -0.158700
vt -0.298501 -0.157913
vt 0.254645 -0.230694
vt 0.251625 -0.241407
vt 0.241568 -0.233297
vt 0.227853 -0.138012
vt 0.214668 -0.140002
vt 0.214534 -0.136028
vt 0.180816 -0.142917
vt 0.179359 -0.151665
vt 0.173923 -0.142853
vt 0.028490 -0.108332
vt 0.039597 -0.114470
vt 0.029737 -0.117113
vt 0.217644 -0.227773
vt 0.216835 -0.223465
vt 0.221985 -0.225953
vt -0.313490 -0.073235
vt -0.314172 -0.062403
vt -0.309357 -0.059318
vt 0.110934 0.027081
vt 0.115262 0.028931
vt 0.121497 0.020048
vt 0.173227 -0.208127
vt 0.178308 -0.204202
vt 0.180120 -0.208193
s off
f 1/1/1 2/2/2 3/3/3
f 4/4/4 5/5/5 6/6/6
f 7/7/7 8/8/8 9/9/9
f 10/10/10 11/11/11 12/12/12
f 13/13/13 14/14/14 15/15/15
f 16/16/16 17/17/17 18/18/18
f 19/19/19 20/20/20 21/21/21
f 22/22/22 23/23/23 24/24/24
f 25/25/25 26/26/26 27/27/27
f 28/28/28 29/29/29 30/30/30
f 31/31/31 32/32/32 33/33/33
f 34/34/34 35/35/35 36/36/36
f 37/37/37 38/38/38 39/39/39
f 40/40/40 41/41/41 42/42/42
f 43/43/43 44/44/44 45/45/45
f 46/46/46 47/47/47 48/48/48
f 49/49/49 50/50/50 51/51/51
f 52/52/52 53/53/53 54/54/54
f 55/55/55 56/56/56 57/57/57
f 58/58/58 59/59/59 60/60/60
f 61/61/61 62/62/62 63/63/63
f 64/64/64 65/65/65 66/66/66
f 67/67/67 68/68/68 69/69/69
f 70/70/70 71/71/71 72/72/72
f 73/73/73 74/74/74 75/75/75
f 76/76/76 77/77/77 78/78/78
f 79/79/79 80/80/80 81/81/81
f 82/82/82 83/83/83 84/84/84
