# Exported using automatic converter by Erwin Coumans
mtllib model6.mtl
#object mesh884816488

v 3.238238 -0.334511 2.339852
v -1.061762 -0.334511 2.339851
v -1.061762 -0.354511 2.339851
v 3.238238 -0.354511 2.339852
v -1.061762 -0.354511 2.319851
v -1.061762 -0.334511 2.319851
v 3.238238 -0.334511 2.319852
v 3.238238 -0.354511 2.319852
v -1.061762 -0.354511 2.339851
v -1.061762 -0.354511 2.319851
v 3.238238 -0.354511 2.319852
v 3.238238 -0.354511 2.339852
v 3.238238 -0.334511 2.319852
v -1.061762 -0.334511 2.319851
v -1.061762 -0.334511 2.339851
v 3.238238 -0.334511 2.339852
v 3.238238 -0.354511 2.319852
v 3.238238 -0.334511 2.319852
v 3.238238 -0.334511 2.339852
v 3.238238 -0.354511 2.339852
v -1.061762 -0.334511 2.339851
v -1.061762 -0.334511 2.319851
v -1.061762 -0.354511 2.319851
v -1.061762 -0.354511 2.339851
usemtl mat12

vn -0.000000 0.000000 1.000000
vn -0.000000 0.000000 1.000000
vn -0.000000 0.000000 1.000000
vn -0.000000 0.000000 1.000000
vn 0.000000 0.000000 -1.000000
vn 0.000000 0.000000 -1.000000
vn 0.000000 0.000000 -1.000000
vn 0.000000 0.000000 -1.000000
vn 0.000000 -1.000000 0.000000
vn 0.000000 -1.000000 0.000000
vn 0.000000 -1.000000 0.000000
vn 0.000000 -1.000000 0.000000
vn -0.000000 1.000000 0.000000
vn -0.000000 1.000000 0.000000
vn -0.000000 1.000000 0.000000
vn -0.000000 1.000000 0.000000
vn 1.000000 0.000000 0.000000
vn 1.000000 0.000000 0.000000
vn 1.000000 0.000000 0.000000
vn 1.000000 0.000000 0.000000
vn -1.000000 -0.000000 -0.000000
vn -1.000000 -0.000000 -0.000000
vn -1.000000 -0.000000 -0.000000
vn -1.000000 -0.000000 -0.000000

vt -0.117617 0.268775
vt 0.074685 -0.115828
vt 0.072896 -0.116723
vt -0.119406 0.267881
vt -0.072896 -0.116723
vt -0.074685 -0.115828
vt 0.117617 0.268775
vt 0.119406 0.267881
vt 0.258105 -0.237655
vt 0.256221 -0.236983
vt 0.400846 0.167966
vt 0.402729 0.167294
vt -0.400846 0.167966
vt -0.256221 -0.236983
vt -0.258105 -0.237655
vt -0.402729 0.167294
vt 0.268764 -0.175999
vt 0.269927 -0.174371
vt 0.271554 -0.175534
vt 0.270392 -0.177161
vt -0.271554 -0.175534
vt -0.269927 -0.174371
vt -0.268764 -0.175999
vt -0.270392 -0.177161
s off
f 1/1/1 2/2/2 3/3/3
f 1/1/1 3/3/3 4/4/4
f 5/5/5 6/6/6 7/7/7
f 5/5/5 7/7/7 8/8/8
f 9/9/9 10/10/10 11/11/11
f 9/9/9 11/11/11 12/12/12
f 13/13/13 14/14/14 15/15/15
f 13/13/13 15/15/15 16/16/16
f 17/17/17 18/18/18 19/19/19
f 17/17/17 19/19/19 20/20/20
f 21/21/21 22/22/22 23/23/23
f 21/21/21 23/23/23 24/24/24
