# Exported using automatic converter by Erwin Coumans
mtllib model6.mtl
#object mesh2039334891

v 1.523238 2.405489 -0.330148
v 1.453238 2.405489 -0.330148
v 1.453238 2.375489 -0.330148
v 1.523238 2.375489 -0.330148
v 1.453238 2.375489 -0.360148
v 1.453238 2.405489 -0.360148
v 1.523238 2.405489 -0.360148
v 1.523238 2.375489 -0.360148
v 1.453238 2.375489 -0.330148
v 1.453238 2.375489 -0.360148
v 1.523238 2.375489 -0.360148
v 1.523238 2.375489 -0.330148
v 1.523238 2.405489 -0.360148
v 1.453238 2.405489 -0.360148
v 1.453238 2.405489 -0.330148
v 1.523238 2.405489 -0.330148
v 1.523238 2.375489 -0.360148
v 1.523238 2.405489 -0.360148
v 1.523238 2.405489 -0.330148
v 1.523238 2.375489 -0.330148
v 1.453238 2.405489 -0.330148
v 1.453238 2.405489 -0.360148
v 1.453238 2.375489 -0.360148
v 1.453238 2.375489 -0.330148
usemtl mat21

vn -0.000000 -0.000000 1.000000
vn -0.000000 -0.000000 1.000000
vn -0.000000 -0.000000 1.000000
vn -0.000000 -0.000000 1.000000
vn 0.000000 0.000000 -1.000000
vn 0.000000 0.000000 -1.000000
vn 0.000000 0.000000 -1.000000
vn 0.000000 0.000000 -1.000000
vn 0.000000 -1.000000 -0.000000
vn 0.000000 -1.000000 -0.000000
vn 0.000000 -1.000000 -0.000000
vn 0.000000 -1.000000 -0.000000
vn -0.000000 1.000000 0.000000
vn -0.000000 1.000000 0.000000
vn -0.000000 1.000000 0.000000
vn -0.000000 1.000000 0.000000
vn 1.000000 0.000000 0.000000
vn 1.000000 0.000000 0.000000
vn 1.000000 0.000000 0.000000
vn 1.000000 0.000000 0.000000
vn -1.000000 -0.000000 -0.000000
vn -1.000000 -0.000000 -0.000000
vn -1.000000 -0.000000 -0.000000
vn -1.000000 -0.000000 -0.000000

vt 0.204153 0.237918
vt 0.207283 0.231657
vt 0.204600 0.230315
vt 0.201470 0.236576
vt -0.204600 0.230315
vt -0.207283 0.231657
vt -0.204153 0.237918
vt -0.201470 0.236576
vt 0.091248 0.088995
vt 0.088423 0.090004
vt 0.090777 0.096596
vt 0.093602 0.095587
vt -0.090777 0.096596
vt -0.088423 0.090004
vt -0.091248 0.088995
vt -0.093602 0.095587
vt 0.209362 0.201922
vt 0.211106 0.204363
vt 0.213547 0.202620
vt 0.211803 0.200178
vt -0.213547 0.202620
vt -0.211106 0.204363
vt -0.209362 0.201922
vt -0.211803 0.200178
s off
f 1/1/1 2/2/2 3/3/3
f 1/1/1 3/3/3 4/4/4
f 5/5/5 6/6/6 7/7/7
f 5/5/5 7/7/7 8/8/8
f 9/9/9 10/10/10 11/11/11
f 9/9/9 11/11/11 12/12/12
f 13/13/13 14/14/14 15/15/15
f 13/13/13 15/15/15 16/16/16
f 17/17/17 18/18/18 19/19/19
f 17/17/17 19/19/19 20/20/20
f 21/21/21 22/22/22 23/23/23
f 21/21/21 23/23/23 24/24/24
