# Exported using automatic converter by Erwin Coumans
mtllib model6.mtl
#object mesh1851861948

v 1.227374 -1.123165 2.476916
v 1.185766 -1.071569 2.482853
v 1.326895 -1.007344 2.449266
v 1.185766 -1.071569 2.482853
v 1.174971 -1.024275 2.470785
v 1.326895 -1.007344 2.449266
v 1.174971 -1.024275 2.470785
v 1.168650 -0.972098 2.492523
v 1.326895 -1.007344 2.449266
v 1.168650 -0.972098 2.492523
v 1.247678 -0.946568 2.476742
v 1.326895 -1.007344 2.449266
v 1.247678 -0.946568 2.476742
v 1.270823 -0.874872 2.509163
v 1.326895 -1.007344 2.449266
v 1.270823 -0.874872 2.509163
v 1.319211 -0.873079 2.533571
v 1.326895 -1.007344 2.449266
v 1.319211 -0.873079 2.533571
v 1.346680 -0.908211 2.524725
v 1.326895 -1.007344 2.449266
v 1.346680 -0.908211 2.524725
v 1.364641 -1.009420 2.488913
v 1.326895 -1.007344 2.449266
v 1.364641 -1.009420 2.488913
v 1.322420 -1.020090 2.594667
v 1.326895 -1.007344 2.449266
v 1.325294 -1.193061 2.542221
v 1.283861 -1.124630 2.497094
v 1.326895 -1.007344 2.449266
v 1.283861 -1.124630 2.497094
v 1.245405 -1.143938 2.479061
v 1.326895 -1.007344 2.449266
v 1.245405 -1.143938 2.479061
v 1.227374 -1.123165 2.476916
v 1.326895 -1.007344 2.449266
v 1.322420 -1.020090 2.594667
v 1.174971 -1.024275 2.470785
v 1.185766 -1.071569 2.482853
v 1.322420 -1.020090 2.594667
v 1.364641 -1.009420 2.488913
v 1.346680 -0.908211 2.524725
v 1.322420 -1.020090 2.594667
v 1.346680 -0.908211 2.524725
v 1.319211 -0.873079 2.533571
v 1.245405 -1.143938 2.479061
v 1.283861 -1.124630 2.497094
v 1.322420 -1.020090 2.594667
v 1.227374 -1.123165 2.476916
v 1.245405 -1.143938 2.479061
v 1.322420 -1.020090 2.594667
v 1.185766 -1.071569 2.482853
v 1.227374 -1.123165 2.476916
v 1.322420 -1.020090 2.594667
v 1.319211 -0.873079 2.533571
v 1.270823 -0.874872 2.509163
v 1.247678 -0.946568 2.476742
v 1.319211 -0.873079 2.533571
v 1.247678 -0.946568 2.476742
v 1.168650 -0.972098 2.492523
v 1.322420 -1.020090 2.594667
v 1.319211 -0.873079 2.533571
v 1.168650 -0.972098 2.492523
v 1.322420 -1.020090 2.594667
v 1.168650 -0.972098 2.492523
v 1.174971 -1.024275 2.470785
v 1.348648 -1.141631 2.569458
v 1.322420 -1.020090 2.594667
v 1.283861 -1.124630 2.497094
v 1.348648 -1.141631 2.569458
v 1.326895 -1.007344 2.449266
v 1.322420 -1.020090 2.594667
v 1.348648 -1.141631 2.569458
v 1.325294 -1.193061 2.542221
v 1.378896 -1.140742 2.509314
v 1.326895 -1.007344 2.449266
v 1.378896 -1.140742 2.509314
v 1.325294 -1.193061 2.542221
v 1.348648 -1.141631 2.569458
v 1.378896 -1.140742 2.509314
v 1.326895 -1.007344 2.449266
v 1.283861 -1.124630 2.497094
v 1.325294 -1.193061 2.542221
v 1.348648 -1.141631 2.569458
usemtl mat20

vn -0.207454 -0.054911 -0.976703
vn -0.207454 -0.054911 -0.976703
vn -0.207454 -0.054911 -0.976703
vn -0.105698 -0.268456 -0.957475
vn -0.105698 -0.268456 -0.957475
vn -0.105698 -0.268456 -0.957475
vn -0.170121 0.361344 -0.916782
vn -0.170121 0.361344 -0.916782
vn -0.170121 0.361344 -0.916782
vn -0.234387 0.130035 -0.963407
vn -0.234387 0.130035 -0.963407
vn -0.234387 0.130035 -0.963407
vn 0.000068 0.412016 -0.911177
vn 0.000068 0.412016 -0.911177
vn 0.000068 0.412016 -0.911177
vn 0.372657 0.508665 -0.776135
vn 0.372657 0.508665 -0.776135
vn 0.372657 0.508665 -0.776135
vn 0.397838 0.504094 -0.766560
vn 0.397838 0.504094 -0.766560
vn 0.397838 0.504094 -0.766560
vn 0.688140 0.347501 -0.636951
vn 0.688140 0.347501 -0.636951
vn 0.688140 0.347501 -0.636951
vn 0.035751 -0.995638 -0.086178
vn 0.035751 -0.995638 -0.086178
vn 0.035751 -0.995638 -0.086178
vn 0.225283 -0.437631 -0.870475
vn 0.225283 -0.437631 -0.870475
vn 0.225283 -0.437631 -0.870475
vn 0.558387 -0.480619 -0.676172
vn 0.558387 -0.480619 -0.676172
vn 0.558387 -0.480619 -0.676172
vn -0.077075 -0.168374 -0.982705
vn -0.077075 -0.168374 -0.982705
vn -0.077075 -0.168374 -0.982705
vn -0.643322 0.048124 0.764082
vn -0.643322 0.048124 0.764082
vn -0.643322 0.048124 0.764082
vn 0.927104 0.032401 0.373402
vn 0.927104 0.032401 0.373402
vn 0.927104 0.032401 0.373402
vn 0.627184 0.310542 0.714286
vn 0.627184 0.310542 0.714286
vn 0.627184 0.310542 0.714286
vn -0.000273 -0.682273 0.731098
vn -0.000273 -0.682273 0.731098
vn -0.000273 -0.682273 0.731098
vn -0.528284 -0.380165 0.759204
vn -0.528284 -0.380165 0.759204
vn -0.528284 -0.380165 0.759204
vn -0.454966 -0.454975 0.765509
vn -0.454966 -0.454975 0.765509
vn -0.454966 -0.454975 0.765509
vn -0.428082 -0.254006 0.867311
vn -0.428082 -0.254006 0.867311
vn -0.428082 -0.254006 0.867311
vn -0.354429 0.763010 -0.540551
vn -0.354429 0.763010 -0.540551
vn -0.354429 0.763010 -0.540551
vn -0.446544 0.335050 0.829662
vn -0.446544 0.335050 0.829662
vn -0.446544 0.335050 0.829662
vn -0.591406 -0.370111 0.716419
vn -0.591406 -0.370111 0.716419
vn -0.591406 -0.370111 0.716419
vn -0.746361 -0.285732 0.601084
vn -0.746361 -0.285732 0.601084
vn -0.746361 -0.285732 0.601084
vn 0.978380 0.201226 0.047754
vn 0.978380 0.201226 0.047754
vn 0.978380 0.201226 0.047754
vn 0.755189 -0.539851 0.371821
vn 0.755189 -0.539851 0.371821
vn 0.755189 -0.539851 0.371821
vn -0.112405 -0.443972 -0.888963
vn -0.112405 -0.443972 -0.888963
vn -0.112405 -0.443972 -0.888963
vn 0.779202 0.483355 0.399014
vn 0.779202 0.483355 0.399014
vn 0.779202 0.483355 0.399014
vn -0.746521 -0.013310 0.665228
vn -0.746521 -0.013310 0.665228
vn -0.746521 -0.013310 0.665228

vt 0.083347 -0.018009
vt 0.076871 -0.019544
vt 0.077371 -0.003686
vt 0.155291 -0.025465
vt 0.150513 -0.023997
vt 0.156141 -0.009623
vt -0.061144 0.049258
vt -0.066731 0.050326
vt -0.057310 0.064211
vt 0.004202 0.002083
vt 0.005199 0.010478
vt 0.014238 0.015530
vt -0.064631 0.118270
vt -0.071468 0.122801
vt -0.055923 0.123874
vt -0.086328 0.239743
vt -0.086199 0.245164
vt -0.070818 0.241243
vt -0.082400 0.252358
vt -0.078226 0.254162
vt -0.067053 0.248307
vt 0.081467 0.310977
vt 0.091358 0.306432
vt 0.089524 0.301271
vt 0.355854 -0.027186
vt 0.364203 -0.035003
vt 0.350780 -0.029252
vt 0.269929 0.018938
vt 0.260778 0.019726
vt 0.252502 0.030236
vt 0.327237 0.024275
vt 0.324902 0.020237
vt 0.320421 0.035786
vt 0.139904 0.002150
vt 0.137210 0.001556
vt 0.131537 0.016001
vt -0.259583 0.166821
vt -0.246151 0.153013
vt -0.250615 0.150763
vt 0.108787 -0.270723
vt 0.103319 -0.260678
vt 0.113950 -0.258341
vt -0.092183 -0.196326
vt -0.083275 -0.186295
vt -0.078903 -0.187541
vt 0.168977 0.115089
vt 0.171134 0.119226
vt 0.184862 0.124784
vt -0.031342 0.267193
vt -0.033876 0.268283
vt -0.023532 0.283754
vt 0.032306 0.252693
vt 0.026194 0.255326
vt 0.036179 0.270673
vt -0.061435 0.236060
vt -0.059628 0.230947
vt -0.065247 0.224972
vt -0.256933 0.012618
vt -0.248032 0.004986
vt -0.247827 -0.003465
vt -0.278263 0.078339
vt -0.265130 0.087344
vt -0.261510 0.069220
vt -0.043068 0.298073
vt -0.033863 0.281367
vt -0.039129 0.279217
vt -0.182818 0.281399
vt -0.171867 0.287805
vt -0.176578 0.273764
vt 0.127169 -0.328048
vt 0.131332 -0.310379
vt 0.138781 -0.322939
vt 0.246500 -0.123187
vt 0.241306 -0.126701
vt 0.241641 -0.118527
vt 0.204077 -0.041208
vt 0.219294 -0.044288
vt 0.221769 -0.052086
vt -0.148573 -0.278671
vt -0.149217 -0.271969
vt -0.134402 -0.267326
vt -0.285146 0.153382
vt -0.294221 0.151967
vt -0.293738 0.158220
s off
f 1/1/1 2/2/2 3/3/3
f 4/4/4 5/5/5 6/6/6
f 7/7/7 8/8/8 9/9/9
f 10/10/10 11/11/11 12/12/12
f 13/13/13 14/14/14 15/15/15
f 16/16/16 17/17/17 18/18/18
f 19/19/19 20/20/20 21/21/21
f 22/22/22 23/23/23 24/24/24
f 25/25/25 26/26/26 27/27/27
f 28/28/28 29/29/29 30/30/30
f 31/31/31 32/32/32 33/33/33
f 34/34/34 35/35/35 36/36/36
f 37/37/37 38/38/38 39/39/39
f 40/40/40 41/41/41 42/42/42
f 43/43/43 44/44/44 45/45/45
f 46/46/46 47/47/47 48/48/48
f 49/49/49 50/50/50 51/51/51
f 52/52/52 53/53/53 54/54/54
f 55/55/55 56/56/56 57/57/57
f 58/58/58 59/59/59 60/60/60
f 61/61/61 62/62/62 63/63/63
f 64/64/64 65/65/65 66/66/66
f 67/67/67 68/68/68 69/69/69
f 70/70/70 71/71/71 72/72/72
f 73/73/73 74/74/74 75/75/75
f 76/76/76 77/77/77 78/78/78
f 79/79/79 80/80/80 81/81/81
f 82/82/82 83/83/83 84/84/84
