# Exported using automatic converter by Erwin Coumans
mtllib model6.mtl
#object group306549940_2

v -2.209987 -0.894511 -1.008481
v -2.272278 -0.894511 -0.991790
v -2.272278 -0.352844 -0.991790
v -2.209987 -0.352844 -1.008482
v -2.272278 -0.894511 -0.991790
v -2.317879 -0.894511 -0.946190
v -2.317879 -0.352844 -0.946190
v -2.272278 -0.352844 -0.991790
v -2.317879 -0.894511 -0.946190
v -2.334570 -0.894511 -0.883898
v -2.334570 -0.352844 -0.883898
v -2.317879 -0.352844 -0.946190
v -2.334570 -0.894511 -0.883898
v -2.317879 -0.894511 -0.821606
v -2.317879 -0.352844 -0.821607
v -2.334570 -0.352844 -0.883898
v -2.317879 -0.894511 -0.821606
v -2.272278 -0.894511 -0.776006
v -2.272278 -0.352844 -0.776006
v -2.317879 -0.352844 -0.821607
v -2.272278 -0.894511 -0.776006
v -2.209987 -0.894511 -0.759315
v -2.209987 -0.352844 -0.759315
v -2.272278 -0.352844 -0.776006
v -2.209987 -0.894511 -0.759315
v -2.147695 -0.894511 -0.776006
v -2.147695 -0.352844 -0.776006
v -2.209987 -0.352844 -0.759315
v -2.147695 -0.894511 -0.776006
v -2.102094 -0.894511 -0.821606
v -2.102094 -0.352844 -0.821607
v -2.147695 -0.352844 -0.776006
v -2.102094 -0.894511 -0.821606
v -2.085403 -0.894511 -0.883898
v -2.085403 -0.352844 -0.883898
v -2.102094 -0.352844 -0.821607
v -2.085403 -0.894511 -0.883898
v -2.102094 -0.894511 -0.946190
v -2.102094 -0.352844 -0.946190
v -2.085403 -0.352844 -0.883898
v -2.102094 -0.894511 -0.946190
v -2.147695 -0.894511 -0.991790
v -2.147695 -0.352844 -0.991790
v -2.102094 -0.352844 -0.946190
v -2.147695 -0.894511 -0.991790
v -2.209987 -0.894511 -1.008481
v -2.209987 -0.352844 -1.008482
v -2.147695 -0.352844 -0.991790
v -2.209987 -0.352844 -1.008482
v -2.272278 -0.352844 -0.991790
v -2.317879 -0.352844 -0.946190
v -2.334570 -0.352844 -0.883898
v -2.317879 -0.352844 -0.821607
v -2.272278 -0.352844 -0.776006
v -2.209987 -0.352844 -0.759315
v -2.147695 -0.352844 -0.776006
v -2.102094 -0.352844 -0.821607
v -2.085403 -0.352844 -0.883898
v -2.102094 -0.352844 -0.946190
v -2.147695 -0.352844 -0.991790
v -2.147695 -0.894511 -0.991790
v -2.102094 -0.894511 -0.946190
v -2.085403 -0.894511 -0.883898
v -2.102094 -0.894511 -0.821606
v -2.147695 -0.894511 -0.776006
v -2.209987 -0.894511 -0.759315
v -2.272278 -0.894511 -0.776006
v -2.317879 -0.894511 -0.821606
v -2.334570 -0.894511 -0.883898
v -2.317879 -0.894511 -0.946190
v -2.272278 -0.894511 -0.991790
v -2.209987 -0.894511 -1.008481
usemtl mat17

vn 0.000000 -0.000000 -1.000000
vn 0.000000 -0.000000 -1.000000
vn 0.000000 -0.000000 -1.000000
vn 0.000000 -0.000000 -1.000000
vn -0.500000 -0.000000 -0.866025
vn -0.500000 -0.000000 -0.866025
vn -0.500000 -0.000000 -0.866025
vn -0.500000 -0.000000 -0.866025
vn -0.866025 -0.000000 -0.500000
vn -0.866025 -0.000000 -0.500000
vn -0.866025 -0.000000 -0.500000
vn -0.866025 -0.000000 -0.500000
vn -1.000000 0.000000 0.000000
vn -1.000000 0.000000 0.000000
vn -1.000000 0.000000 0.000000
vn -1.000000 0.000000 0.000000
vn -0.866025 0.000000 0.500000
vn -0.866025 0.000000 0.500000
vn -0.866025 0.000000 0.500000
vn -0.866025 0.000000 0.500000
vn -0.500000 0.000000 0.866025
vn -0.500000 0.000000 0.866025
vn -0.500000 0.000000 0.866025
vn -0.500000 0.000000 0.866025
vn 0.000000 0.000000 1.000000
vn 0.000000 0.000000 1.000000
vn 0.000000 0.000000 1.000000
vn 0.000000 0.000000 1.000000
vn 0.500000 0.000000 0.866025
vn 0.500000 0.000000 0.866025
vn 0.500000 0.000000 0.866025
vn 0.500000 0.000000 0.866025
vn 0.866025 0.000000 0.500000
vn 0.866025 0.000000 0.500000
vn 0.866025 0.000000 0.500000
vn 0.866025 0.000000 0.500000
vn 1.000000 -0.000000 -0.000000
vn 1.000000 -0.000000 -0.000000
vn 1.000000 -0.000000 -0.000000
vn 1.000000 -0.000000 -0.000000
vn 0.866025 -0.000000 -0.500000
vn 0.866025 -0.000000 -0.500000
vn 0.866025 -0.000000 -0.500000
vn 0.866025 -0.000000 -0.500000
vn 0.500000 -0.000000 -0.866026
vn 0.500000 -0.000000 -0.866026
vn 0.500000 -0.000000 -0.866026
vn 0.500000 -0.000000 -0.866026
vn 0.000000 1.000000 -0.000000
vn 0.000000 1.000000 -0.000000
vn 0.000000 1.000000 -0.000000
vn 0.000000 1.000000 -0.000000
vn 0.000000 1.000000 -0.000000
vn 0.000000 1.000000 -0.000000
vn 0.000000 1.000000 -0.000000
vn 0.000000 1.000000 -0.000000
vn 0.000000 1.000000 -0.000000
vn 0.000000 1.000000 -0.000000
vn 0.000000 1.000000 -0.000000
vn 0.000000 1.000000 -0.000000
vn 0.000000 -1.000000 0.000000
vn 0.000000 -1.000000 0.000000
vn 0.000000 -1.000000 0.000000
vn 0.000000 -1.000000 0.000000
vn 0.000000 -1.000000 0.000000
vn 0.000000 -1.000000 0.000000
vn 0.000000 -1.000000 0.000000
vn 0.000000 -1.000000 0.000000
vn 0.000000 -1.000000 0.000000
vn 0.000000 -1.000000 0.000000
vn 0.000000 -1.000000 0.000000
vn 0.000000 -1.000000 0.000000

vt -0.075947 -0.243573
vt -0.078733 -0.249144
vt -0.127181 -0.224920
vt -0.124395 -0.219349
vt -0.057310 -0.214695
vt -0.059999 -0.220314
vt -0.108857 -0.196928
vt -0.106168 -0.191309
vt -0.031584 -0.129127
vt -0.034858 -0.134426
vt -0.080939 -0.105956
vt -0.077665 -0.100657
vt 0.023322 -0.033726
vt 0.018253 -0.037347
vt -0.013230 0.006730
vt -0.008162 0.010351
vt 0.102528 -0.082986
vt 0.096707 -0.080766
vt 0.116011 -0.030156
vt 0.121831 -0.032376
vt 0.094936 -0.200232
vt 0.091272 -0.195195
vt 0.135077 -0.163334
vt 0.138741 -0.168371
vt 0.075947 -0.243573
vt 0.073161 -0.238001
vt 0.121609 -0.213777
vt 0.124395 -0.219349
vt 0.057310 -0.214695
vt 0.054620 -0.209076
vt 0.103478 -0.185690
vt 0.106168 -0.191309
vt 0.031584 -0.129127
vt 0.028309 -0.123827
vt 0.074391 -0.095357
vt 0.077665 -0.100657
vt -0.023322 -0.033726
vt -0.028391 -0.030106
vt 0.003093 0.013972
vt 0.008162 0.010351
vt -0.102528 -0.082986
vt -0.108348 -0.085206
vt -0.127651 -0.034596
vt -0.121831 -0.032376
vt -0.094936 -0.200232
vt -0.098600 -0.205270
vt -0.142405 -0.173409
vt -0.138741 -0.168371
vt 0.095841 -0.233172
vt 0.096364 -0.239599
vt 0.093604 -0.245428
vt 0.088299 -0.249095
vt 0.081871 -0.249618
vt 0.076043 -0.246857
vt 0.072376 -0.241552
vt 0.071853 -0.235124
vt 0.074613 -0.229296
vt 0.079918 -0.225629
vt 0.086346 -0.225106
vt 0.092174 -0.227867
vt -0.092174 -0.227867
vt -0.086346 -0.225106
vt -0.079918 -0.225629
vt -0.074613 -0.229296
vt -0.071853 -0.235124
vt -0.072376 -0.241552
vt -0.076043 -0.246857
vt -0.081871 -0.249618
vt -0.088299 -0.249095
vt -0.093604 -0.245428
vt -0.096364 -0.239599
vt -0.095841 -0.233172
s off
f 1/1/1 2/2/2 3/3/3
f 1/1/1 3/3/3 4/4/4
f 5/5/5 6/6/6 7/7/7
f 5/5/5 7/7/7 8/8/8
f 9/9/9 10/10/10 11/11/11
f 9/9/9 11/11/11 12/12/12
f 13/13/13 14/14/14 15/15/15
f 13/13/13 15/15/15 16/16/16
f 17/17/17 18/18/18 19/19/19
f 17/17/17 19/19/19 20/20/20
f 21/21/21 22/22/22 23/23/23
f 21/21/21 23/23/23 24/24/24
f 25/25/25 26/26/26 27/27/27
f 25/25/25 27/27/27 28/28/28
f 29/29/29 30/30/30 31/31/31
f 29/29/29 31/31/31 32/32/32
f 33/33/33 34/34/34 35/35/35
f 33/33/33 35/35/35 36/36/36
f 37/37/37 38/38/38 39/39/39
f 37/37/37 39/39/39 40/40/40
f 41/41/41 42/42/42 43/43/43
f 41/41/41 43/43/43 44/44/44
f 45/45/45 46/46/46 47/47/47
f 45/45/45 47/47/47 48/48/48
f 49/49/49 50/50/50 51/51/51
f 49/49/49 51/51/51 52/52/52
f 49/49/49 52/52/52 53/53/53
f 49/49/49 53/53/53 54/54/54
f 49/49/49 54/54/54 55/55/55
f 49/49/49 55/55/55 56/56/56
f 49/49/49 56/56/56 57/57/57
f 49/49/49 57/57/57 58/58/58
f 49/49/49 58/58/58 59/59/59
f 49/49/49 59/59/59 60/60/60
f 61/61/61 62/62/62 63/63/63
f 61/61/61 63/63/63 64/64/64
f 61/61/61 64/64/64 65/65/65
f 61/61/61 65/65/65 66/66/66
f 61/61/61 66/66/66 67/67/67
f 61/61/61 67/67/67 68/68/68
f 61/61/61 68/68/68 69/69/69
f 61/61/61 69/69/69 70/70/70
f 61/61/61 70/70/70 71/71/71
f 61/61/61 71/71/71 72/72/72
