# Exported using automatic converter by Erwin Coumans
mtllib model6.mtl
#object group1917648195_2

v 0.571821 0.438714 1.739291
v -0.116151 0.444303 1.739688
v -0.116033 0.458787 1.739624
v 0.571939 0.453198 1.739228
v -0.115976 0.459201 1.833770
v -0.116034 0.451959 1.833802
v 0.571937 0.446370 1.833405
v 0.571996 0.453612 1.833373
v -0.116033 0.458787 1.739624
v -0.115976 0.459201 1.833770
v 0.571996 0.453612 1.833373
v 0.571939 0.453198 1.739228
v 0.571937 0.446370 1.833405
v -0.116034 0.451959 1.833802
v -0.116151 0.444303 1.739688
v 0.571821 0.438714 1.739291
v 0.571996 0.453612 1.833373
v 0.571937 0.446370 1.833405
v 0.571821 0.438714 1.739291
v 0.571939 0.453198 1.739228
v -0.116151 0.444303 1.739688
v -0.116034 0.451959 1.833802
v -0.115976 0.459201 1.833770
v -0.116033 0.458787 1.739624
v 0.571827 0.445574 1.652357
v -0.116145 0.451163 1.652753
v -0.116086 0.458405 1.652721
v 0.571886 0.452816 1.652325
v -0.116029 0.458819 1.746867
v -0.116088 0.451577 1.746899
v 0.571884 0.445988 1.746502
v 0.571943 0.453230 1.746470
v -0.116086 0.458405 1.652721
v -0.116029 0.458819 1.746867
v 0.571943 0.453230 1.746470
v 0.571886 0.452816 1.652325
v 0.571884 0.445988 1.746502
v -0.116088 0.451577 1.746899
v -0.116145 0.451163 1.652753
v 0.571827 0.445574 1.652357
v 0.571943 0.453230 1.746470
v 0.571884 0.445988 1.746502
v 0.571827 0.445574 1.652357
v 0.571886 0.452816 1.652325
v -0.116145 0.451163 1.652753
v -0.116088 0.451577 1.746899
v -0.116029 0.458819 1.746867
v -0.116086 0.458405 1.652721
v 0.571769 0.445161 1.558209
v -0.116203 0.450750 1.558605
v -0.116144 0.457992 1.558573
v 0.571828 0.452403 1.558177
v -0.116087 0.458405 1.652719
v -0.116145 0.451164 1.652751
v 0.571827 0.445574 1.652354
v 0.571885 0.452816 1.652322
v -0.116144 0.457992 1.558573
v -0.116087 0.458405 1.652719
v 0.571885 0.452816 1.652322
v 0.571828 0.452403 1.558177
v 0.571827 0.445574 1.652354
v -0.116145 0.451164 1.652751
v -0.116203 0.450750 1.558605
v 0.571769 0.445161 1.558209
v 0.571885 0.452816 1.652322
v 0.571827 0.445574 1.652354
v 0.571769 0.445161 1.558209
v 0.571828 0.452403 1.558177
v -0.116203 0.450750 1.558605
v -0.116145 0.451164 1.652751
v -0.116087 0.458405 1.652719
v -0.116144 0.457992 1.558573
v 0.572106 0.447579 2.108599
v -0.115866 0.453168 2.108995
v -0.115807 0.460410 2.108963
v 0.572165 0.454821 2.108567
v -0.115750 0.460824 2.203109
v -0.115808 0.453582 2.203141
v 0.572164 0.447993 2.202745
v 0.572222 0.455235 2.202713
v -0.115807 0.460410 2.108963
v -0.115750 0.460824 2.203109
v 0.572222 0.455235 2.202713
v 0.572165 0.454821 2.108567
v 0.572164 0.447993 2.202745
v -0.115808 0.453582 2.203141
v -0.115866 0.453168 2.108995
v 0.572106 0.447579 2.108599
v 0.572222 0.455235 2.202713
v 0.572164 0.447993 2.202745
v 0.572106 0.447579 2.108599
v 0.572165 0.454821 2.108567
v -0.115866 0.453168 2.108995
v -0.115808 0.453582 2.203141
v -0.115750 0.460824 2.203109
v -0.115807 0.460410 2.108963
v 0.572053 0.447197 2.021697
v -0.115919 0.452786 2.022093
v -0.115860 0.460028 2.022061
v 0.572111 0.454439 2.021665
v -0.115803 0.460441 2.116207
v -0.115862 0.453200 2.116239
v 0.572110 0.447611 2.115842
v 0.572169 0.454852 2.115810
v -0.115860 0.460028 2.022061
v -0.115803 0.460441 2.116207
v 0.572169 0.454852 2.115810
v 0.572111 0.454439 2.021665
v 0.572110 0.447611 2.115842
v -0.115862 0.453200 2.116239
v -0.115919 0.452786 2.022093
v 0.572053 0.447197 2.021697
v 0.572169 0.454852 2.115810
v 0.572110 0.447611 2.115842
v 0.572053 0.447197 2.021697
v 0.572111 0.454439 2.021665
v -0.115919 0.452786 2.022093
v -0.115862 0.453200 2.116239
v -0.115803 0.460441 2.116207
v -0.115860 0.460028 2.022061
v 0.571995 0.446783 1.927551
v -0.115977 0.452372 1.927947
v -0.115918 0.459614 1.927915
v 0.572054 0.454025 1.927519
v -0.115860 0.460028 2.022061
v -0.115919 0.452786 2.022093
v 0.572053 0.447197 2.021697
v 0.572111 0.454439 2.021665
v -0.115918 0.459614 1.927915
v -0.115860 0.460028 2.022061
v 0.572111 0.454439 2.021665
v 0.572054 0.454025 1.927519
v 0.572053 0.447197 2.021697
v -0.115919 0.452786 2.022093
v -0.115977 0.452372 1.927947
v 0.571995 0.446783 1.927551
v 0.572111 0.454439 2.021665
v 0.572053 0.447197 2.021697
v 0.571995 0.446783 1.927551
v 0.572054 0.454025 1.927519
v -0.115977 0.452372 1.927947
v -0.115919 0.452786 2.022093
v -0.115860 0.460028 2.022061
v -0.115918 0.459614 1.927915
v 0.577422 0.450535 1.829266
v -0.110329 0.469378 1.823566
v 0.577544 0.457776 1.829219
v -0.111092 0.470001 1.917708
v 0.576659 0.451158 1.923407
v 0.576781 0.458399 1.923360
v -0.110329 0.469378 1.823566
v -0.111092 0.470001 1.917708
v 0.576781 0.458399 1.923360
v 0.577544 0.457776 1.829219
v 0.576659 0.451158 1.923407
v -0.118511 0.455609 1.925033
v -0.117748 0.454986 1.830891
v 0.577422 0.450535 1.829266
v 0.576781 0.458399 1.923360
v 0.576659 0.451158 1.923407
v 0.577422 0.450535 1.829266
v 0.577544 0.457776 1.829219
v -0.117748 0.454986 1.830891
v -0.118511 0.455609 1.925033
v -0.111092 0.470001 1.917708
v -0.110329 0.469378 1.823566
v 0.577422 0.450535 1.829266
v -0.117748 0.454986 1.830891
v -0.110329 0.469378 1.823566
v -0.111092 0.470001 1.917708
v -0.118511 0.455609 1.925033
v 0.576659 0.451158 1.923407
usemtl mat24

vn -0.000612 -0.004395 -0.999990
vn -0.000612 -0.004395 -0.999990
vn -0.000612 -0.004395 -0.999990
vn -0.000612 -0.004395 -0.999990
vn 0.000612 0.004395 0.999990
vn 0.000612 0.004395 0.999990
vn 0.000612 0.004395 0.999990
vn 0.000612 0.004395 0.999990
vn 0.008121 0.999957 -0.004400
vn 0.008121 0.999957 -0.004400
vn 0.008121 0.999957 -0.004400
vn 0.008121 0.999957 -0.004400
vn -0.008050 -0.996675 0.081083
vn -0.008050 -0.996675 0.081083
vn -0.008050 -0.996675 0.081083
vn -0.008050 -0.996675 0.081083
vn 0.999967 -0.008124 -0.000576
vn 0.999967 -0.008124 -0.000576
vn 0.999967 -0.008124 -0.000576
vn 0.999967 -0.008124 -0.000576
vn -0.999967 0.008124 0.000576
vn -0.999967 0.008124 0.000576
vn -0.999967 0.008124 0.000576
vn -0.999967 0.008124 0.000576
vn -0.000612 -0.004395 -0.999990
vn -0.000612 -0.004395 -0.999990
vn -0.000612 -0.004395 -0.999990
vn -0.000612 -0.004395 -0.999990
vn 0.000612 0.004395 0.999990
vn 0.000612 0.004395 0.999990
vn 0.000612 0.004395 0.999990
vn 0.000612 0.004395 0.999990
vn 0.008121 0.999957 -0.004400
vn 0.008121 0.999957 -0.004400
vn 0.008121 0.999957 -0.004400
vn 0.008121 0.999957 -0.004400
vn -0.008121 -0.999957 0.004400
vn -0.008121 -0.999957 0.004400
vn -0.008121 -0.999957 0.004400
vn -0.008121 -0.999957 0.004400
vn 0.999967 -0.008124 -0.000576
vn 0.999967 -0.008124 -0.000576
vn 0.999967 -0.008124 -0.000576
vn 0.999967 -0.008124 -0.000576
vn -0.999967 0.008124 0.000576
vn -0.999967 0.008124 0.000576
vn -0.999967 0.008124 0.000576
vn -0.999967 0.008124 0.000576
vn -0.000612 -0.004395 -0.999990
vn -0.000612 -0.004395 -0.999990
vn -0.000612 -0.004395 -0.999990
vn -0.000612 -0.004395 -0.999990
vn 0.000612 0.004395 0.999990
vn 0.000612 0.004395 0.999990
vn 0.000612 0.004395 0.999990
vn 0.000612 0.004395 0.999990
vn 0.008121 0.999957 -0.004400
vn 0.008121 0.999957 -0.004400
vn 0.008121 0.999957 -0.004400
vn 0.008121 0.999957 -0.004400
vn -0.008121 -0.999957 0.004400
vn -0.008121 -0.999957 0.004400
vn -0.008121 -0.999957 0.004400
vn -0.008121 -0.999957 0.004400
vn 0.999967 -0.008124 -0.000576
vn 0.999967 -0.008124 -0.000576
vn 0.999967 -0.008124 -0.000576
vn 0.999967 -0.008124 -0.000576
vn -0.999967 0.008124 0.000576
vn -0.999967 0.008124 0.000576
vn -0.999967 0.008124 0.000576
vn -0.999967 0.008124 0.000576
vn -0.000612 -0.004395 -0.999990
vn -0.000612 -0.004395 -0.999990
vn -0.000612 -0.004395 -0.999990
vn -0.000612 -0.004395 -0.999990
vn 0.000612 0.004395 0.999990
vn 0.000612 0.004395 0.999990
vn 0.000612 0.004395 0.999990
vn 0.000612 0.004395 0.999990
vn 0.008121 0.999957 -0.004400
vn 0.008121 0.999957 -0.004400
vn 0.008121 0.999957 -0.004400
vn 0.008121 0.999957 -0.004400
vn -0.008121 -0.999957 0.004400
vn -0.008121 -0.999957 0.004400
vn -0.008121 -0.999957 0.004400
vn -0.008121 -0.999957 0.004400
vn 0.999967 -0.008124 -0.000576
vn 0.999967 -0.008124 -0.000576
vn 0.999967 -0.008124 -0.000576
vn 0.999967 -0.008124 -0.000576
vn -0.999967 0.008124 0.000576
vn -0.999967 0.008124 0.000576
vn -0.999967 0.008124 0.000576
vn -0.999967 0.008124 0.000576
vn -0.000612 -0.004395 -0.999990
vn -0.000612 -0.004395 -0.999990
vn -0.000612 -0.004395 -0.999990
vn -0.000612 -0.004395 -0.999990
vn 0.000612 0.004395 0.999990
vn 0.000612 0.004395 0.999990
vn 0.000612 0.004395 0.999990
vn 0.000612 0.004395 0.999990
vn 0.008121 0.999957 -0.004400
vn 0.008121 0.999957 -0.004400
vn 0.008121 0.999957 -0.004400
vn 0.008121 0.999957 -0.004400
vn -0.008121 -0.999957 0.004400
vn -0.008121 -0.999957 0.004400
vn -0.008121 -0.999957 0.004400
vn -0.008121 -0.999957 0.004400
vn 0.999967 -0.008124 -0.000576
vn 0.999967 -0.008124 -0.000576
vn 0.999967 -0.008124 -0.000576
vn 0.999967 -0.008124 -0.000576
vn -0.999967 0.008124 0.000576
vn -0.999967 0.008124 0.000576
vn -0.999967 0.008124 0.000576
vn -0.999967 0.008124 0.000576
vn -0.000612 -0.004395 -0.999990
vn -0.000612 -0.004395 -0.999990
vn -0.000612 -0.004395 -0.999990
vn -0.000612 -0.004395 -0.999990
vn 0.000612 0.004395 0.999990
vn 0.000612 0.004395 0.999990
vn 0.000612 0.004395 0.999990
vn 0.000612 0.004395 0.999990
vn 0.008121 0.999957 -0.004400
vn 0.008121 0.999957 -0.004400
vn 0.008121 0.999957 -0.004400
vn 0.008121 0.999957 -0.004400
vn -0.008121 -0.999957 0.004400
vn -0.008121 -0.999957 0.004400
vn -0.008121 -0.999957 0.004400
vn -0.008121 -0.999957 0.004400
vn 0.999967 -0.008124 -0.000576
vn 0.999967 -0.008124 -0.000576
vn 0.999967 -0.008124 -0.000576
vn 0.999967 -0.008124 -0.000576
vn -0.999967 0.008124 0.000576
vn -0.999967 0.008124 0.000576
vn -0.999967 0.008124 0.000576
vn -0.999967 0.008124 0.000576
vn 0.008105 -0.006616 -0.999945
vn 0.008105 -0.006616 -0.999945
vn 0.008105 -0.006616 -0.999945
vn -0.008105 0.006616 0.999945
vn -0.008105 0.006616 0.999945
vn -0.008105 0.006616 0.999945
vn 0.016917 0.999836 -0.006479
vn 0.016917 0.999836 -0.006479
vn 0.016917 0.999836 -0.006479
vn 0.016917 0.999836 -0.006479
vn -0.006387 -0.999958 0.006564
vn -0.006387 -0.999958 0.006564
vn -0.006387 -0.999958 0.006564
vn -0.006387 -0.999958 0.006564
vn 0.999824 -0.016863 0.008216
vn 0.999824 -0.016863 0.008216
vn 0.999824 -0.016863 0.008216
vn 0.999824 -0.016863 0.008216
vn -0.890921 0.454044 -0.010226
vn -0.890921 0.454044 -0.010226
vn -0.890921 0.454044 -0.010226
vn -0.890921 0.454044 -0.010226
vn -0.004978 -0.451545 -0.892235
vn -0.004978 -0.451545 -0.892235
vn -0.004978 -0.451545 -0.892235
vn 0.004978 0.451544 0.892235
vn 0.004978 0.451544 0.892235
vn 0.004978 0.451544 0.892235

vt -0.069751 0.064283
vt -0.101089 0.003036
vt -0.102378 0.003695
vt -0.071040 0.064943
vt 0.102378 0.003695
vt 0.101734 0.003365
vt 0.070395 0.064613
vt 0.071040 0.064943
vt -0.233606 -0.129101
vt -0.242476 -0.132256
vt -0.265534 -0.067435
vt -0.256664 -0.064280
vt 0.273771 -0.059662
vt 0.253076 -0.125274
vt 0.244071 -0.122434
vt 0.264766 -0.056821
vt 0.276957 -0.079492
vt 0.276544 -0.080087
vt 0.268400 -0.075307
vt 0.269227 -0.074118
vt -0.268400 -0.075307
vt -0.276544 -0.080087
vt -0.276957 -0.079492
vt -0.269227 -0.074118
vt -0.070395 0.064613
vt -0.101734 0.003365
vt -0.102378 0.003695
vt -0.071040 0.064943
vt 0.102378 0.003695
vt 0.101734 0.003365
vt 0.070395 0.064613
vt 0.071040 0.064943
vt -0.225418 -0.126188
vt -0.234288 -0.129344
vt -0.257346 -0.064523
vt -0.248476 -0.061368
vt 0.257346 -0.064523
vt 0.234288 -0.129344
vt 0.225418 -0.126188
vt 0.248476 -0.061368
vt 0.269821 -0.074531
vt 0.269408 -0.075126
vt 0.261678 -0.069752
vt 0.262091 -0.069157
vt -0.261678 -0.069752
vt -0.269408 -0.075126
vt -0.269821 -0.074531
vt -0.262091 -0.069157
vt -0.070396 0.064613
vt -0.101734 0.003365
vt -0.102378 0.003695
vt -0.071040 0.064943
vt 0.102378 0.003695
vt 0.101734 0.003365
vt 0.070396 0.064613
vt 0.071040 0.064943
vt -0.216548 -0.123033
vt -0.225418 -0.126188
vt -0.248476 -0.061368
vt -0.239606 -0.058212
vt 0.248476 -0.061368
vt 0.225418 -0.126188
vt 0.216548 -0.123033
vt 0.239606 -0.058212
vt 0.262091 -0.069157
vt 0.261678 -0.069752
vt 0.253948 -0.064378
vt 0.254361 -0.063783
vt -0.253948 -0.064378
vt -0.261678 -0.069752
vt -0.262091 -0.069157
vt -0.254361 -0.063783
vt -0.070395 0.064613
vt -0.101733 0.003365
vt -0.102378 0.003695
vt -0.071040 0.064943
vt 0.102378 0.003695
vt 0.101733 0.003365
vt 0.070395 0.064613
vt 0.071040 0.064943
vt -0.268405 -0.141479
vt -0.277275 -0.144634
vt -0.300332 -0.079814
vt -0.291462 -0.076658
vt 0.300332 -0.079814
vt 0.277275 -0.144634
vt 0.268405 -0.141479
vt 0.291462 -0.076658
vt 0.307283 -0.100575
vt 0.306869 -0.101170
vt 0.299139 -0.095795
vt 0.299553 -0.095201
vt -0.299139 -0.095795
vt -0.306869 -0.101170
vt -0.307283 -0.100575
vt -0.299553 -0.095201
vt -0.070395 0.064613
vt -0.101733 0.003365
vt -0.102378 0.003695
vt -0.071040 0.064943
vt 0.102378 0.003695
vt 0.101733 0.003365
vt 0.070395 0.064613
vt 0.071040 0.064943
vt -0.260217 -0.138567
vt -0.269087 -0.141722
vt -0.292145 -0.076901
vt -0.283274 -0.073746
vt 0.292145 -0.076901
vt 0.269087 -0.141722
vt 0.260217 -0.138567
vt 0.283274 -0.073746
vt 0.300147 -0.095614
vt 0.299734 -0.096209
vt 0.292004 -0.090835
vt 0.292417 -0.090240
vt -0.292004 -0.090835
vt -0.299734 -0.096209
vt -0.300147 -0.095614
vt -0.292417 -0.090240
vt -0.070395 0.064613
vt -0.101733 0.003365
vt -0.102378 0.003695
vt -0.071040 0.064943
vt 0.102378 0.003695
vt 0.101733 0.003365
vt 0.070395 0.064613
vt 0.071040 0.064943
vt -0.251347 -0.135411
vt -0.260217 -0.138567
vt -0.283274 -0.073746
vt -0.274404 -0.070591
vt 0.283274 -0.073746
vt 0.260217 -0.138567
vt 0.251347 -0.135411
vt 0.274404 -0.070591
vt 0.292417 -0.090240
vt 0.292004 -0.090835
vt 0.284274 -0.085461
vt 0.284687 -0.084866
vt -0.284274 -0.085461
vt -0.292004 -0.090835
vt -0.292417 -0.090240
vt -0.284687 -0.084866
vt -0.068791 0.067272
vt -0.101423 0.006700
vt -0.069433 0.067609
vt 0.101423 0.006700
vt 0.068791 0.067272
vt 0.069433 0.067609
vt -0.241549 -0.132347
vt -0.250390 -0.135584
vt -0.274045 -0.070979
vt -0.265204 -0.067742
vt 0.274501 -0.069587
vt 0.251400 -0.135155
vt 0.242553 -0.131933
vt 0.265654 -0.066365
vt 0.284254 -0.084910
vt 0.283840 -0.085504
vt 0.276117 -0.080120
vt 0.276531 -0.079526
vt -0.277133 -0.042683
vt -0.285869 -0.046195
vt -0.285797 -0.044419
vt -0.277061 -0.040908
vt 0.046884 0.001368
vt 0.010530 -0.057888
vt 0.009534 -0.056416
vt -0.013059 -0.058694
vt -0.014054 -0.060166
vt -0.050408 -0.000910
s off
f 1/1/1 2/2/2 3/3/3
f 1/1/1 3/3/3 4/4/4
f 5/5/5 6/6/6 7/7/7
f 5/5/5 7/7/7 8/8/8
f 9/9/9 10/10/10 11/11/11
f 9/9/9 11/11/11 12/12/12
f 13/13/13 14/14/14 15/15/15
f 13/13/13 15/15/15 16/16/16
f 17/17/17 18/18/18 19/19/19
f 17/17/17 19/19/19 20/20/20
f 21/21/21 22/22/22 23/23/23
f 21/21/21 23/23/23 24/24/24
f 25/25/25 26/26/26 27/27/27
f 25/25/25 27/27/27 28/28/28
f 29/29/29 30/30/30 31/31/31
f 29/29/29 31/31/31 32/32/32
f 33/33/33 34/34/34 35/35/35
f 33/33/33 35/35/35 36/36/36
f 37/37/37 38/38/38 39/39/39
f 37/37/37 39/39/39 40/40/40
f 41/41/41 42/42/42 43/43/43
f 41/41/41 43/43/43 44/44/44
f 45/45/45 46/46/46 47/47/47
f 45/45/45 47/47/47 48/48/48
f 49/49/49 50/50/50 51/51/51
f 49/49/49 51/51/51 52/52/52
f 53/53/53 54/54/54 55/55/55
f 53/53/53 55/55/55 56/56/56
f 57/57/57 58/58/58 59/59/59
f 57/57/57 59/59/59 60/60/60
f 61/61/61 62/62/62 63/63/63
f 61/61/61 63/63/63 64/64/64
f 65/65/65 66/66/66 67/67/67
f 65/65/65 67/67/67 68/68/68
f 69/69/69 70/70/70 71/71/71
f 69/69/69 71/71/71 72/72/72
f 73/73/73 74/74/74 75/75/75
f 73/73/73 75/75/75 76/76/76
f 77/77/77 78/78/78 79/79/79
f 77/77/77 79/79/79 80/80/80
f 81/81/81 82/82/82 83/83/83
f 81/81/81 83/83/83 84/84/84
f 85/85/85 86/86/86 87/87/87
f 85/85/85 87/87/87 88/88/88
f 89/89/89 90/90/90 91/91/91
f 89/89/89 91/91/91 92/92/92
f 93/93/93 94/94/94 95/95/95
f 93/93/93 95/95/95 96/96/96
f 97/97/97 98/98/98 99/99/99
f 97/97/97 99/99/99 100/100/100
f 101/101/101 102/102/102 103/103/103
f 101/101/101 103/103/103 104/104/104
f 105/105/105 106/106/106 107/107/107
f 105/105/105 107/107/107 108/108/108
f 109/109/109 110/110/110 111/111/111
f 109/109/109 111/111/111 112/112/112
f 113/113/113 114/114/114 115/115/115
f 113/113/113 115/115/115 116/116/116
f 117/117/117 118/118/118 119/119/119
f 117/117/117 119/119/119 120/120/120
f 121/121/121 122/122/122 123/123/123
f 121/121/121 123/123/123 124/124/124
f 125/125/125 126/126/126 127/127/127
f 125/125/125 127/127/127 128/128/128
f 129/129/129 130/130/130 131/131/131
f 129/129/129 131/131/131 132/132/132
f 133/133/133 134/134/134 135/135/135
f 133/133/133 135/135/135 136/136/136
f 137/137/137 138/138/138 139/139/139
f 137/137/137 139/139/139 140/140/140
f 141/141/141 142/142/142 143/143/143
f 141/141/141 143/143/143 144/144/144
f 145/145/145 146/146/146 147/147/147
f 148/148/148 149/149/149 150/150/150
f 151/151/151 152/152/152 153/153/153
f 151/151/151 153/153/153 154/154/154
f 155/155/155 156/156/156 157/157/157
f 155/155/155 157/157/157 158/158/158
f 159/159/159 160/160/160 161/161/161
f 159/159/159 161/161/161 162/162/162
f 163/163/163 164/164/164 165/165/165
f 163/163/163 165/165/165 166/166/166
f 167/167/167 168/168/168 169/169/169
f 170/170/170 171/171/171 172/172/172
