# Exported using automatic converter by Erwin Coumans
mtllib model6.mtl
#object mesh1879842003

v 2.213266 2.028093 -0.577224
v 2.218030 2.030752 -0.590271
v 2.208193 2.040359 -0.588764
v 2.203071 2.038072 -0.575783
v 2.218030 2.030752 -0.590271
v 2.208976 2.021239 -0.595516
v 2.199318 2.030661 -0.593976
v 2.208193 2.040359 -0.588764
v 2.208976 2.021239 -0.595516
v 2.204211 2.018580 -0.582469
v 2.194196 2.028372 -0.580994
v 2.199318 2.030661 -0.593976
v 2.204211 2.018580 -0.582469
v 2.213266 2.028093 -0.577224
v 2.203071 2.038072 -0.575783
v 2.194196 2.028372 -0.580994
v 2.204211 2.018580 -0.582469
v 2.208976 2.021239 -0.595516
v 2.218030 2.030752 -0.590271
v 2.213266 2.028093 -0.577224
v 2.203071 2.038072 -0.575783
v 2.208193 2.040359 -0.588764
v 2.199318 2.030661 -0.593976
v 2.194196 2.028372 -0.580994
usemtl mat23

vn 0.675290 0.633930 0.376982
vn 0.675290 0.633930 0.376982
vn 0.675290 0.633930 0.376982
vn 0.675290 0.633930 0.376982
vn 0.181473 0.334034 -0.924926
vn 0.181473 0.334034 -0.924926
vn 0.181473 0.334034 -0.924926
vn 0.181473 0.334034 -0.924926
vn -0.676063 -0.633033 -0.377105
vn -0.676063 -0.633033 -0.377105
vn -0.676063 -0.633033 -0.377105
vn -0.676063 -0.633033 -0.377105
vn -0.187806 -0.328511 0.925640
vn -0.187806 -0.328511 0.925640
vn -0.187806 -0.328511 0.925640
vn -0.187806 -0.328511 0.925640
vn 0.690351 -0.715632 0.106238
vn 0.690351 -0.715632 0.106238
vn 0.690351 -0.715632 0.106238
vn 0.690351 -0.715632 0.106238
vn -0.689187 0.709537 -0.146900
vn -0.689187 0.709537 -0.146900
vn -0.689187 0.709537 -0.146900
vn -0.689187 0.709537 -0.146900

vt 0.083627 0.059791
vt 0.084068 0.061135
vt 0.085263 0.060438
vt 0.084872 0.059079
vt -0.165122 0.255152
vt -0.164459 0.253903
vt -0.165690 0.253331
vt -0.166376 0.254568
vt -0.084262 0.061155
vt -0.083823 0.059810
vt -0.085043 0.059107
vt -0.085433 0.060467
vt 0.164044 0.254270
vt 0.164700 0.255523
vt 0.166002 0.254922
vt 0.165323 0.253681
vt 0.140243 0.279030
vt 0.139192 0.279977
vt 0.140139 0.281028
vt 0.141189 0.280081
vt -0.146038 0.277998
vt -0.144997 0.278955
vt -0.144040 0.277914
vt -0.145081 0.276956
s off
f 1/1/1 2/2/2 3/3/3
f 1/1/1 3/3/3 4/4/4
f 5/5/5 6/6/6 7/7/7
f 5/5/5 7/7/7 8/8/8
f 9/9/9 10/10/10 11/11/11
f 9/9/9 11/11/11 12/12/12
f 13/13/13 14/14/14 15/15/15
f 13/13/13 15/15/15 16/16/16
f 17/17/17 18/18/18 19/19/19
f 17/17/17 19/19/19 20/20/20
f 21/21/21 22/22/22 23/23/23
f 21/21/21 23/23/23 24/24/24
