# Exported using automatic converter by Erwin Coumans
mtllib model6.mtl
#object mesh730404790

v 3.015121 -0.688039 -2.181931
v 3.016351 -0.688360 -2.233033
v 3.028699 -0.994809 -2.230810
v 3.027470 -0.994488 -2.179708
v 3.066995 -0.993260 -2.229898
v 3.054647 -0.686810 -2.232121
v 3.053417 -0.686489 -2.181019
v 3.065766 -0.992939 -2.178796
v 3.028699 -0.994809 -2.230810
v 3.066995 -0.993260 -2.229898
v 3.065766 -0.992939 -2.178796
v 3.027470 -0.994488 -2.179708
v 3.053417 -0.686489 -2.181019
v 3.054647 -0.686810 -2.232121
v 3.016351 -0.688360 -2.233033
v 3.015121 -0.688039 -2.181931
v 3.065766 -0.992939 -2.178796
v 3.053417 -0.686489 -2.181019
v 3.015121 -0.688039 -2.181931
v 3.027470 -0.994488 -2.179708
v 3.016351 -0.688360 -2.233033
v 3.054647 -0.686810 -2.232121
v 3.066995 -0.993260 -2.229898
v 3.028699 -0.994809 -2.230810
usemtl mat23

vn -0.998900 -0.040423 -0.023783
vn -0.998900 -0.040423 -0.023783
vn -0.998900 -0.040423 -0.023783
vn -0.998900 -0.040423 -0.023783
vn 0.998900 0.040423 0.023783
vn 0.998900 0.040423 0.023783
vn 0.998900 0.040423 0.023783
vn 0.998900 0.040423 0.023783
vn 0.040262 -0.999163 0.007248
vn 0.040262 -0.999163 0.007248
vn 0.040262 -0.999163 0.007248
vn 0.040262 -0.999163 0.007248
vn -0.040262 0.999163 -0.007248
vn -0.040262 0.999163 -0.007248
vn -0.040262 0.999163 -0.007248
vn -0.040262 0.999163 -0.007248
vn -0.024056 0.006282 0.999691
vn -0.024056 0.006282 0.999691
vn -0.024056 0.006282 0.999691
vn -0.024056 0.006282 0.999691
vn 0.024056 -0.006282 -0.999691
vn 0.024056 -0.006282 -0.999691
vn 0.024056 -0.006282 -0.999691
vn 0.024056 -0.006282 -0.999691

vt 0.124270 0.062534
vt 0.128226 0.065771
vt 0.147649 0.042034
vt 0.143693 0.038797
vt -0.147649 0.042034
vt -0.128226 0.065771
vt -0.124270 0.062534
vt -0.143693 0.038797
vt -0.038615 0.298963
vt -0.037272 0.302554
vt -0.032484 0.300763
vt -0.033827 0.297172
vt 0.032484 0.300763
vt 0.037272 0.302554
vt 0.038615 0.298963
vt 0.033827 0.297172
vt -0.167825 0.220521
vt -0.139930 0.233271
vt -0.138337 0.229784
vt -0.166232 0.217035
vt 0.138337 0.229784
vt 0.139930 0.233271
vt 0.167825 0.220521
vt 0.166232 0.217035
s off
f 1/1/1 2/2/2 3/3/3
f 1/1/1 3/3/3 4/4/4
f 5/5/5 6/6/6 7/7/7
f 5/5/5 7/7/7 8/8/8
f 9/9/9 10/10/10 11/11/11
f 9/9/9 11/11/11 12/12/12
f 13/13/13 14/14/14 15/15/15
f 13/13/13 15/15/15 16/16/16
f 17/17/17 18/18/18 19/19/19
f 17/17/17 19/19/19 20/20/20
f 21/21/21 22/22/22 23/23/23
f 21/21/21 23/23/23 24/24/24
