# Exported using automatic converter by Erwin Coumans
mtllib model6.mtl
#object mesh949576876

v 3.478120 0.075627 0.022529
v 3.480464 0.075627 0.013779
v 3.480464 0.040627 0.013779
v 3.478120 0.040627 0.022529
v 3.480464 0.075627 0.013779
v 3.486870 0.075627 0.007374
v 3.486870 0.040627 0.007374
v 3.480464 0.040627 0.013779
v 3.486870 0.075627 0.007374
v 3.495620 0.075627 0.005029
v 3.495620 0.040627 0.005029
v 3.486870 0.040627 0.007374
v 3.495620 0.075627 0.005029
v 3.504370 0.075627 0.007374
v 3.504370 0.040627 0.007374
v 3.495620 0.040627 0.005029
v 3.504370 0.075627 0.007374
v 3.510775 0.075627 0.013779
v 3.510775 0.040627 0.013779
v 3.504370 0.040627 0.007374
v 3.510775 0.075627 0.013779
v 3.513120 0.075627 0.022529
v 3.513120 0.040627 0.022529
v 3.510775 0.040627 0.013779
v 3.513120 0.075627 0.022529
v 3.510775 0.075627 0.031279
v 3.510775 0.040627 0.031279
v 3.513120 0.040627 0.022529
v 3.510775 0.075627 0.031279
v 3.504370 0.075627 0.037685
v 3.504370 0.040627 0.037685
v 3.510775 0.040627 0.031279
v 3.504370 0.075627 0.037685
v 3.495620 0.075627 0.040029
v 3.495620 0.040627 0.040029
v 3.504370 0.040627 0.037685
v 3.495620 0.075627 0.040029
v 3.486870 0.075627 0.037685
v 3.486870 0.040627 0.037685
v 3.495620 0.040627 0.040029
v 3.486870 0.075627 0.037685
v 3.480464 0.075627 0.031279
v 3.480464 0.040627 0.031279
v 3.486870 0.040627 0.037685
v 3.480464 0.075627 0.031279
v 3.478120 0.075627 0.022529
v 3.478120 0.040627 0.022529
v 3.480464 0.040627 0.031279
v 3.478120 0.040627 0.022529
v 3.480464 0.040627 0.013779
v 3.486870 0.040627 0.007374
v 3.495620 0.040627 0.005029
v 3.504370 0.040627 0.007374
v 3.510775 0.040627 0.013779
v 3.513120 0.040627 0.022529
v 3.510775 0.040627 0.031279
v 3.504370 0.040627 0.037685
v 3.495620 0.040627 0.040029
v 3.486870 0.040627 0.037685
v 3.480464 0.040627 0.031279
v 3.480464 0.075627 0.031279
v 3.486870 0.075627 0.037685
v 3.495620 0.075627 0.040029
v 3.504370 0.075627 0.037685
v 3.510775 0.075627 0.031279
v 3.513120 0.075627 0.022529
v 3.510775 0.075627 0.013779
v 3.504370 0.075627 0.007374
v 3.495620 0.075627 0.005029
v 3.486870 0.075627 0.007374
v 3.480464 0.075627 0.013779
v 3.478120 0.075627 0.022529
usemtl mat19

vn -1.000000 0.000000 -0.000000
vn -1.000000 0.000000 -0.000000
vn -1.000000 0.000000 -0.000000
vn -1.000000 0.000000 -0.000000
vn -0.866025 0.000000 -0.500000
vn -0.866025 0.000000 -0.500000
vn -0.866025 0.000000 -0.500000
vn -0.866025 0.000000 -0.500000
vn -0.500000 0.000000 -0.866026
vn -0.500000 0.000000 -0.866026
vn -0.500000 0.000000 -0.866026
vn -0.500000 0.000000 -0.866026
vn 0.000000 -0.000000 -1.000000
vn 0.000000 -0.000000 -1.000000
vn 0.000000 -0.000000 -1.000000
vn 0.000000 -0.000000 -1.000000
vn 0.500000 -0.000000 -0.866025
vn 0.500000 -0.000000 -0.866025
vn 0.500000 -0.000000 -0.866025
vn 0.500000 -0.000000 -0.866025
vn 0.866026 -0.000000 -0.500000
vn 0.866026 -0.000000 -0.500000
vn 0.866026 -0.000000 -0.500000
vn 0.866026 -0.000000 -0.500000
vn 1.000000 -0.000000 0.000000
vn 1.000000 -0.000000 0.000000
vn 1.000000 -0.000000 0.000000
vn 1.000000 -0.000000 0.000000
vn 0.866025 -0.000000 0.500000
vn 0.866025 -0.000000 0.500000
vn 0.866025 -0.000000 0.500000
vn 0.866025 -0.000000 0.500000
vn 0.500000 -0.000000 0.866026
vn 0.500000 -0.000000 0.866026
vn 0.500000 -0.000000 0.866026
vn 0.500000 -0.000000 0.866026
vn -0.000000 0.000000 1.000000
vn -0.000000 0.000000 1.000000
vn -0.000000 0.000000 1.000000
vn -0.000000 0.000000 1.000000
vn -0.500000 0.000000 0.866025
vn -0.500000 0.000000 0.866025
vn -0.500000 0.000000 0.866025
vn -0.500000 0.000000 0.866025
vn -0.866026 0.000000 0.499999
vn -0.866026 0.000000 0.499999
vn -0.866026 0.000000 0.499999
vn -0.866026 0.000000 0.499999
vn -0.000000 -1.000000 0.000000
vn -0.000000 -1.000000 0.000000
vn -0.000000 -1.000000 0.000000
vn -0.000000 -1.000000 0.000000
vn -0.000000 -1.000000 0.000000
vn -0.000000 -1.000000 0.000000
vn -0.000000 -1.000000 0.000000
vn -0.000000 -1.000000 0.000000
vn -0.000000 -1.000000 0.000000
vn -0.000000 -1.000000 0.000000
vn -0.000000 -1.000000 0.000000
vn -0.000000 -1.000000 0.000000
vn 0.000000 1.000000 -0.000000
vn 0.000000 1.000000 -0.000000
vn 0.000000 1.000000 -0.000000
vn 0.000000 1.000000 -0.000000
vn 0.000000 1.000000 -0.000000
vn 0.000000 1.000000 -0.000000
vn 0.000000 1.000000 -0.000000
vn 0.000000 1.000000 -0.000000
vn 0.000000 1.000000 -0.000000
vn 0.000000 1.000000 -0.000000
vn 0.000000 1.000000 -0.000000
vn 0.000000 1.000000 -0.000000

vt -0.106825 -0.007468
vt -0.106113 -0.006959
vt -0.104079 -0.009807
vt -0.104791 -0.010316
vt -0.005432 0.097779
vt -0.004972 0.098524
vt -0.001994 0.096684
vt -0.002454 0.095940
vt 0.048950 0.232005
vt 0.049328 0.232794
vt 0.052485 0.231283
vt 0.052107 0.230494
vt 0.092444 0.310138
vt 0.092835 0.310921
vt 0.095966 0.309356
vt 0.095574 0.308573
vt 0.143906 0.293087
vt 0.144420 0.293794
vt 0.147251 0.291736
vt 0.146736 0.291028
vt 0.202795 0.137298
vt 0.203613 0.137610
vt 0.204860 0.134339
vt 0.204042 0.134028
vt 0.106825 -0.007468
vt 0.107537 -0.007977
vt 0.105503 -0.010825
vt 0.104791 -0.010316
vt 0.005432 0.097779
vt 0.005892 0.097035
vt 0.002914 0.095195
vt 0.002454 0.095940
vt -0.048950 0.232005
vt -0.048572 0.231216
vt -0.051729 0.229705
vt -0.052107 0.230494
vt -0.092444 0.310138
vt -0.092052 0.309356
vt -0.095183 0.307790
vt -0.095574 0.308573
vt -0.143906 0.293087
vt -0.143391 0.292379
vt -0.146222 0.290320
vt -0.146736 0.291028
vt -0.202795 0.137298
vt -0.201978 0.136986
vt -0.203225 0.133716
vt -0.204042 0.134027
vt 0.192565 0.267824
vt 0.191820 0.268340
vt 0.191432 0.269158
vt 0.191506 0.270061
vt 0.192021 0.270806
vt 0.192840 0.271194
vt 0.193742 0.271120
vt 0.194488 0.270605
vt 0.194875 0.269787
vt 0.194802 0.268884
vt 0.194287 0.268139
vt 0.193468 0.267751
vt -0.193468 0.267751
vt -0.194287 0.268139
vt -0.194802 0.268884
vt -0.194875 0.269787
vt -0.194488 0.270605
vt -0.193742 0.271120
vt -0.192840 0.271194
vt -0.192021 0.270806
vt -0.191506 0.270061
vt -0.191432 0.269158
vt -0.191820 0.268340
vt -0.192565 0.267824
s off
f 1/1/1 2/2/2 3/3/3
f 1/1/1 3/3/3 4/4/4
f 5/5/5 6/6/6 7/7/7
f 5/5/5 7/7/7 8/8/8
f 9/9/9 10/10/10 11/11/11
f 9/9/9 11/11/11 12/12/12
f 13/13/13 14/14/14 15/15/15
f 13/13/13 15/15/15 16/16/16
f 17/17/17 18/18/18 19/19/19
f 17/17/17 19/19/19 20/20/20
f 21/21/21 22/22/22 23/23/23
f 21/21/21 23/23/23 24/24/24
f 25/25/25 26/26/26 27/27/27
f 25/25/25 27/27/27 28/28/28
f 29/29/29 30/30/30 31/31/31
f 29/29/29 31/31/31 32/32/32
f 33/33/33 34/34/34 35/35/35
f 33/33/33 35/35/35 36/36/36
f 37/37/37 38/38/38 39/39/39
f 37/37/37 39/39/39 40/40/40
f 41/41/41 42/42/42 43/43/43
f 41/41/41 43/43/43 44/44/44
f 45/45/45 46/46/46 47/47/47
f 45/45/45 47/47/47 48/48/48
f 49/49/49 50/50/50 51/51/51
f 49/49/49 51/51/51 52/52/52
f 49/49/49 52/52/52 53/53/53
f 49/49/49 53/53/53 54/54/54
f 49/49/49 54/54/54 55/55/55
f 49/49/49 55/55/55 56/56/56
f 49/49/49 56/56/56 57/57/57
f 49/49/49 57/57/57 58/58/58
f 49/49/49 58/58/58 59/59/59
f 49/49/49 59/59/59 60/60/60
f 61/61/61 62/62/62 63/63/63
f 61/61/61 63/63/63 64/64/64
f 61/61/61 64/64/64 65/65/65
f 61/61/61 65/65/65 66/66/66
f 61/61/61 66/66/66 67/67/67
f 61/61/61 67/67/67 68/68/68
f 61/61/61 68/68/68 69/69/69
f 61/61/61 69/69/69 70/70/70
f 61/61/61 70/70/70 71/71/71
f 61/61/61 71/71/71 72/72/72
