# Exported using automatic converter by Erwin Coumans
mtllib model6.mtl
#object mesh1791558581

v 1.658238 2.465489 -0.330148
v 1.598238 2.465489 -0.330148
v 1.598238 2.435489 -0.330148
v 1.658238 2.435489 -0.330148
v 1.598238 2.435489 -0.360148
v 1.598238 2.465489 -0.360148
v 1.658238 2.465489 -0.360148
v 1.658238 2.435489 -0.360148
v 1.598238 2.435489 -0.330148
v 1.598238 2.435489 -0.360148
v 1.658238 2.435489 -0.360148
v 1.658238 2.435489 -0.330148
v 1.658238 2.465489 -0.360148
v 1.598238 2.465489 -0.360148
v 1.598238 2.465489 -0.330148
v 1.658238 2.465489 -0.330148
v 1.658238 2.435489 -0.360148
v 1.658238 2.465489 -0.360148
v 1.658238 2.465489 -0.330148
v 1.658238 2.435489 -0.330148
v 1.598238 2.465489 -0.330148
v 1.598238 2.465489 -0.360148
v 1.598238 2.435489 -0.360148
v 1.598238 2.435489 -0.330148
usemtl mat21

vn -0.000000 0.000000 1.000000
vn -0.000000 0.000000 1.000000
vn -0.000000 0.000000 1.000000
vn -0.000000 0.000000 1.000000
vn 0.000000 0.000000 -1.000000
vn 0.000000 0.000000 -1.000000
vn 0.000000 0.000000 -1.000000
vn 0.000000 0.000000 -1.000000
vn 0.000000 -1.000000 0.000000
vn 0.000000 -1.000000 0.000000
vn 0.000000 -1.000000 0.000000
vn 0.000000 -1.000000 0.000000
vn -0.000000 1.000000 0.000000
vn -0.000000 1.000000 0.000000
vn -0.000000 1.000000 0.000000
vn -0.000000 1.000000 0.000000
vn 1.000000 0.000000 0.000000
vn 1.000000 0.000000 0.000000
vn 1.000000 0.000000 0.000000
vn 1.000000 0.000000 0.000000
vn -1.000000 -0.000000 -0.000000
vn -1.000000 -0.000000 -0.000000
vn -1.000000 -0.000000 -0.000000
vn -1.000000 -0.000000 -0.000000

vt 0.203482 0.252676
vt 0.206166 0.247309
vt 0.203482 0.245968
vt 0.200799 0.251334
vt -0.203482 0.245968
vt -0.206166 0.247309
vt -0.203482 0.252676
vt -0.200799 0.251334
vt 0.096125 0.102650
vt 0.093300 0.103659
vt 0.095318 0.109309
vt 0.098143 0.108300
vt -0.095318 0.109309
vt -0.093300 0.103659
vt -0.096125 0.102650
vt -0.098143 0.108300
vt 0.212849 0.206804
vt 0.214593 0.209246
vt 0.217034 0.207502
vt 0.215291 0.205061
vt -0.217034 0.207502
vt -0.214593 0.209246
vt -0.212849 0.206804
vt -0.215291 0.205061
s off
f 1/1/1 2/2/2 3/3/3
f 1/1/1 3/3/3 4/4/4
f 5/5/5 6/6/6 7/7/7
f 5/5/5 7/7/7 8/8/8
f 9/9/9 10/10/10 11/11/11
f 9/9/9 11/11/11 12/12/12
f 13/13/13 14/14/14 15/15/15
f 13/13/13 15/15/15 16/16/16
f 17/17/17 18/18/18 19/19/19
f 17/17/17 19/19/19 20/20/20
f 21/21/21 22/22/22 23/23/23
f 21/21/21 23/23/23 24/24/24
