# Exported using automatic converter by Erwin Coumans
mtllib model6.mtl
#object mesh1622524848

v 3.268238 0.455488 -3.260148
v 3.268238 0.455488 -3.180148
v 3.268238 -0.324512 -3.180148
v 3.268238 -0.324512 -3.260148
v -2.701762 -0.324511 -3.180148
v -2.701762 0.455489 -3.180148
v -2.701762 0.455489 -3.260148
v -2.701762 -0.324511 -3.260148
v 3.268238 -0.324512 -3.180148
v -2.701762 -0.324511 -3.180148
v -2.701762 -0.324511 -3.260148
v 3.268238 -0.324512 -3.260148
v -2.701762 0.455489 -3.260148
v -2.701762 0.455489 -3.180148
v 3.268238 0.455488 -3.180148
v 3.268238 0.455488 -3.260148
v -2.701762 -0.324511 -3.260148
v -2.701762 0.455489 -3.260148
v 3.268238 0.455488 -3.260148
v 3.268238 -0.324512 -3.260148
v 3.268238 0.455488 -3.180148
v -2.701762 0.455489 -3.180148
v -2.701762 -0.324511 -3.180148
v 3.268238 -0.324512 -3.180148
usemtl mat21

vn 1.000000 -0.000000 -0.000000
vn 1.000000 -0.000000 -0.000000
vn 1.000000 -0.000000 -0.000000
vn 1.000000 -0.000000 -0.000000
vn -1.000000 0.000000 0.000000
vn -1.000000 0.000000 0.000000
vn -1.000000 0.000000 0.000000
vn -1.000000 0.000000 0.000000
vn -0.000000 -1.000000 -0.000000
vn -0.000000 -1.000000 -0.000000
vn -0.000000 -1.000000 -0.000000
vn -0.000000 -1.000000 -0.000000
vn 0.000000 1.000000 0.000000
vn 0.000000 1.000000 0.000000
vn 0.000000 1.000000 0.000000
vn 0.000000 1.000000 0.000000
vn 0.000000 0.000000 -1.000000
vn 0.000000 0.000000 -1.000000
vn 0.000000 0.000000 -1.000000
vn 0.000000 0.000000 -1.000000
vn 0.000000 -0.000000 1.000000
vn 0.000000 -0.000000 1.000000
vn 0.000000 -0.000000 1.000000
vn 0.000000 -0.000000 1.000000

vt -0.138219 0.214244
vt -0.131709 0.209594
vt -0.177045 0.146123
vt -0.183555 0.150773
vt 0.177045 0.146123
vt 0.131709 0.209594
vt 0.138219 0.214244
vt 0.183555 0.150773
vt -0.116103 0.355777
vt -0.316896 -0.206443
vt -0.324430 -0.203753
vt -0.123637 0.358467
vt 0.324430 -0.203753
vt 0.316896 -0.206443
vt 0.116103 0.355777
vt 0.123637 0.358467
vt -0.148922 -0.262067
vt -0.218687 -0.227185
vt 0.048299 0.306788
vt 0.118065 0.271906
vt -0.048299 0.306788
vt 0.218687 -0.227185
vt 0.148922 -0.262067
vt -0.118065 0.271906
s off
f 1/1/1 2/2/2 3/3/3
f 1/1/1 3/3/3 4/4/4
f 5/5/5 6/6/6 7/7/7
f 5/5/5 7/7/7 8/8/8
f 9/9/9 10/10/10 11/11/11
f 9/9/9 11/11/11 12/12/12
f 13/13/13 14/14/14 15/15/15
f 13/13/13 15/15/15 16/16/16
f 17/17/17 18/18/18 19/19/19
f 17/17/17 19/19/19 20/20/20
f 21/21/21 22/22/22 23/23/23
f 21/21/21 23/23/23 24/24/24
