# Exported using automatic converter by Erwin Coumans
mtllib model6.mtl
#object mesh1641533269

v 0.180892 -0.992255 0.379313
v 0.085201 -0.990444 0.382223
v 0.080693 -1.059859 0.374403
v 0.176384 -1.061671 0.371493
v 0.168458 -1.056347 0.292641
v 0.172965 -0.986932 0.300461
v 0.268656 -0.988743 0.297551
v 0.264149 -1.058159 0.289731
v 0.080693 -1.059859 0.374403
v 0.168458 -1.056347 0.292641
v 0.264149 -1.058159 0.289731
v 0.176384 -1.061671 0.371493
v 0.268656 -0.988743 0.297551
v 0.172965 -0.986932 0.300461
v 0.085201 -0.990444 0.382223
v 0.180892 -0.992255 0.379313
v 0.264149 -1.058159 0.289731
v 0.268656 -0.988743 0.297551
v 0.180892 -0.992255 0.379313
v 0.176384 -1.061671 0.371493
v 0.085201 -0.990444 0.382223
v 0.172965 -0.986932 0.300461
v 0.168458 -1.056347 0.292641
v 0.080693 -1.059859 0.374403
v 0.547863 -0.995051 0.379794
v 0.452119 -0.993882 0.380262
v 0.448265 -1.062711 0.368110
v 0.544010 -1.063880 0.367641
v 0.538122 -1.053788 0.289077
v 0.541975 -0.984959 0.301229
v 0.637719 -0.986128 0.300761
v 0.633866 -1.054957 0.288608
v 0.448265 -1.062711 0.368110
v 0.538122 -1.053788 0.289077
v 0.633866 -1.054957 0.288608
v 0.544010 -1.063880 0.367641
v 0.637719 -0.986128 0.300761
v 0.541975 -0.984959 0.301229
v 0.452119 -0.993882 0.380262
v 0.547863 -0.995051 0.379794
v 0.633866 -1.054957 0.288608
v 0.637719 -0.986128 0.300761
v 0.547863 -0.995051 0.379794
v 0.544010 -1.063880 0.367641
v 0.452119 -0.993882 0.380262
v 0.541975 -0.984959 0.301229
v 0.538122 -1.053788 0.289077
v 0.448265 -1.062711 0.368110
v -0.005247 -0.990023 0.375933
v -0.100714 -0.986945 0.382654
v -0.106268 -1.056549 0.377715
v -0.010801 -1.059627 0.370994
v -0.021902 -1.057226 0.292381
v -0.016348 -0.987622 0.297320
v 0.079119 -0.990700 0.290599
v 0.073564 -1.060304 0.285660
v -0.106268 -1.056549 0.377715
v -0.021902 -1.057226 0.292381
v 0.073564 -1.060304 0.285660
v -0.010801 -1.059627 0.370994
v 0.079119 -0.990700 0.290599
v -0.016348 -0.987622 0.297320
v -0.100714 -0.986945 0.382654
v -0.005247 -0.990023 0.375933
v 0.073564 -1.060304 0.285660
v 0.079119 -0.990700 0.290599
v -0.005247 -0.990023 0.375933
v -0.010801 -1.059627 0.370994
v -0.100714 -0.986945 0.382654
v -0.016348 -0.987622 0.297320
v -0.021902 -1.057226 0.292381
v -0.106268 -1.056549 0.377715
v 0.363476 -0.998872 0.376284
v 0.267878 -0.995701 0.380706
v 0.262210 -1.064895 0.371755
v 0.357808 -1.068066 0.367333
v 0.348763 -1.061242 0.288717
v 0.354430 -0.992049 0.297668
v 0.450028 -0.995220 0.293246
v 0.444360 -1.064413 0.284295
v 0.262210 -1.064895 0.371755
v 0.348763 -1.061242 0.288717
v 0.444360 -1.064413 0.284295
v 0.357808 -1.068066 0.367333
v 0.450028 -0.995220 0.293246
v 0.354430 -0.992049 0.297668
v 0.267878 -0.995701 0.380706
v 0.363476 -0.998872 0.376284
v 0.444360 -1.064413 0.284295
v 0.450028 -0.995220 0.293246
v 0.363476 -0.998872 0.376284
v 0.357808 -1.068066 0.367333
v 0.267878 -0.995701 0.380706
v 0.354430 -0.992049 0.297668
v 0.348763 -1.061242 0.288717
v 0.262210 -1.064895 0.371755
usemtl mat12

vn 0.028047 -0.113704 0.993119
vn 0.028047 -0.113704 0.993119
vn 0.028047 -0.113704 0.993119
vn 0.028047 -0.113704 0.993119
vn -0.028046 0.113704 -0.993119
vn -0.028046 0.113704 -0.993119
vn -0.028046 0.113704 -0.993119
vn -0.028046 0.113704 -0.993119
vn -0.020872 -0.997650 -0.065259
vn -0.020872 -0.997650 -0.065259
vn -0.020872 -0.997650 -0.065259
vn -0.020872 -0.997650 -0.065259
vn 0.020872 0.997650 0.065259
vn 0.020872 0.997650 0.065259
vn 0.020872 0.997650 0.065259
vn 0.020872 0.997650 0.065259
vn 0.678935 -0.125581 0.723379
vn 0.678935 -0.125581 0.723379
vn 0.678935 -0.125581 0.723379
vn 0.678935 -0.125581 0.723379
vn -0.678935 0.125581 -0.723379
vn -0.678935 0.125581 -0.723379
vn -0.678935 0.125581 -0.723379
vn -0.678935 0.125581 -0.723379
vn 0.002695 -0.174015 0.984739
vn 0.002695 -0.174015 0.984739
vn 0.002695 -0.174015 0.984739
vn 0.002695 -0.174015 0.984739
vn -0.002695 0.174015 -0.984739
vn -0.002695 0.174015 -0.984739
vn -0.002695 0.174015 -0.984739
vn -0.002695 0.174015 -0.984739
vn -0.012728 -0.991890 -0.126458
vn -0.012728 -0.991890 -0.126458
vn -0.012728 -0.991890 -0.126458
vn -0.012728 -0.991890 -0.126458
vn 0.012728 0.991890 0.126458
vn 0.012728 0.991890 0.126458
vn 0.012728 0.991890 0.126458
vn 0.012728 0.991890 0.126458
vn 0.660503 -0.166254 0.732185
vn 0.660503 -0.166254 0.732185
vn 0.660503 -0.166254 0.732185
vn 0.660503 -0.166254 0.732185
vn -0.660503 0.166254 -0.732185
vn -0.660503 0.166254 -0.732185
vn -0.660503 0.166254 -0.732185
vn -0.660503 0.166254 -0.732185
vn 0.067594 -0.075983 0.994815
vn 0.067594 -0.075983 0.994815
vn 0.067594 -0.075983 0.994815
vn 0.067594 -0.075983 0.994815
vn -0.067594 0.075983 -0.994815
vn -0.067594 0.075983 -0.994815
vn -0.067594 0.075983 -0.994815
vn -0.067594 0.075983 -0.994815
vn -0.034021 -0.999090 -0.025707
vn -0.034021 -0.999090 -0.025707
vn -0.034021 -0.999090 -0.025707
vn -0.034021 -0.999090 -0.025707
vn 0.034021 0.999090 0.025707
vn 0.034021 0.999090 0.025707
vn 0.034021 0.999090 0.025707
vn 0.034021 0.999090 0.025707
vn 0.706700 -0.106030 0.699524
vn 0.706700 -0.106030 0.699524
vn 0.706700 -0.106030 0.699524
vn 0.706700 -0.106030 0.699524
vn -0.706700 0.106030 -0.699524
vn -0.706700 0.106030 -0.699524
vn -0.706700 0.106030 -0.699524
vn -0.706700 0.106030 -0.699524
vn 0.041450 -0.131526 0.990446
vn 0.041450 -0.131526 0.990446
vn 0.041450 -0.131526 0.990446
vn 0.041450 -0.131526 0.990446
vn -0.041450 0.131526 -0.990446
vn -0.041450 0.131526 -0.990446
vn -0.041450 0.131526 -0.990446
vn -0.041450 0.131526 -0.990446
vn -0.036842 -0.995934 -0.082208
vn -0.036842 -0.995934 -0.082208
vn -0.036842 -0.995934 -0.082208
vn -0.036842 -0.995934 -0.082208
vn 0.036842 0.995934 0.082208
vn 0.036842 0.995934 0.082208
vn 0.036842 0.995934 0.082208
vn 0.036842 0.995934 0.082208
vn 0.687905 -0.148264 0.710496
vn 0.687905 -0.148264 0.710496
vn 0.687905 -0.148264 0.710496
vn 0.687905 -0.148264 0.710496
vn -0.687905 0.148264 -0.710496
vn -0.687905 0.148264 -0.710496
vn -0.687905 0.148264 -0.710496
vn -0.687905 0.148264 -0.710496

vt -0.026065 -0.029781
vt -0.021934 -0.038419
vt -0.028116 -0.041703
vt -0.032247 -0.033064
vt 0.032348 -0.033736
vt 0.026165 -0.030452
vt 0.030296 -0.021814
vt 0.036478 -0.025097
vt 0.112991 -0.067747
vt 0.108587 -0.056584
vt 0.111829 -0.047574
vt 0.116232 -0.058737
vt -0.112245 -0.047410
vt -0.109003 -0.056420
vt -0.113407 -0.067583
vt -0.116649 -0.058573
vt 0.000770 -0.095967
vt 0.006966 -0.092708
vt 0.012551 -0.103329
vt 0.006356 -0.106587
vt -0.015541 -0.109882
vt -0.009955 -0.099261
vt -0.003760 -0.102520
vt -0.009346 -0.113141
vt -0.035205 0.010560
vt -0.031312 0.001812
vt -0.037581 -0.001302
vt -0.041475 0.007446
vt 0.041594 0.006778
vt 0.035324 0.009891
vt 0.039218 0.018639
vt 0.045487 0.015526
vt 0.127447 -0.037764
vt 0.123594 -0.026399
vt 0.127273 -0.017558
vt 0.131125 -0.028923
vt -0.127696 -0.017415
vt -0.124018 -0.026255
vt -0.127871 -0.037620
vt -0.131549 -0.028779
vt -0.005914 -0.066447
vt 0.000410 -0.063445
vt 0.005555 -0.074286
vt -0.000769 -0.077288
vt -0.008274 -0.080956
vt -0.003128 -0.070115
vt 0.003196 -0.073117
vt -0.001950 -0.083958
vt -0.020280 -0.053440
vt -0.015955 -0.061983
vt -0.022061 -0.065406
vt -0.026387 -0.056863
vt 0.026472 -0.057537
vt 0.020366 -0.054114
vt 0.024691 -0.045571
vt 0.030797 -0.048994
vt 0.106051 -0.082220
vt 0.101042 -0.071315
vt 0.103785 -0.062141
vt 0.108794 -0.073046
vt -0.104192 -0.061954
vt -0.101449 -0.071128
vt -0.106457 -0.082033
vt -0.109201 -0.072859
vt 0.005919 -0.111827
vt 0.011980 -0.108325
vt 0.017983 -0.118715
vt 0.011922 -0.122217
vt -0.021231 -0.125144
vt -0.015228 -0.114754
vt -0.009167 -0.118256
vt -0.015170 -0.128646
vt -0.031410 -0.013824
vt -0.027206 -0.022427
vt -0.033360 -0.025763
vt -0.037564 -0.017160
vt 0.037659 -0.017833
vt 0.031505 -0.014497
vt 0.035709 -0.005894
vt 0.041863 -0.009230
vt 0.119951 -0.051574
vt 0.115497 -0.040431
vt 0.118699 -0.031407
vt 0.123152 -0.042550
vt -0.119114 -0.031241
vt -0.115912 -0.040265
vt -0.120366 -0.051408
vt -0.123567 -0.042384
vt -0.001572 -0.083999
vt 0.004592 -0.080680
vt 0.010280 -0.091247
vt 0.004117 -0.094565
vt -0.013333 -0.097770
vt -0.007645 -0.087204
vt -0.001481 -0.090522
vt -0.007170 -0.101089
s off
f 1/1/1 2/2/2 3/3/3
f 1/1/1 3/3/3 4/4/4
f 5/5/5 6/6/6 7/7/7
f 5/5/5 7/7/7 8/8/8
f 9/9/9 10/10/10 11/11/11
f 9/9/9 11/11/11 12/12/12
f 13/13/13 14/14/14 15/15/15
f 13/13/13 15/15/15 16/16/16
f 17/17/17 18/18/18 19/19/19
f 17/17/17 19/19/19 20/20/20
f 21/21/21 22/22/22 23/23/23
f 21/21/21 23/23/23 24/24/24
f 25/25/25 26/26/26 27/27/27
f 25/25/25 27/27/27 28/28/28
f 29/29/29 30/30/30 31/31/31
f 29/29/29 31/31/31 32/32/32
f 33/33/33 34/34/34 35/35/35
f 33/33/33 35/35/35 36/36/36
f 37/37/37 38/38/38 39/39/39
f 37/37/37 39/39/39 40/40/40
f 41/41/41 42/42/42 43/43/43
f 41/41/41 43/43/43 44/44/44
f 45/45/45 46/46/46 47/47/47
f 45/45/45 47/47/47 48/48/48
f 49/49/49 50/50/50 51/51/51
f 49/49/49 51/51/51 52/52/52
f 53/53/53 54/54/54 55/55/55
f 53/53/53 55/55/55 56/56/56
f 57/57/57 58/58/58 59/59/59
f 57/57/57 59/59/59 60/60/60
f 61/61/61 62/62/62 63/63/63
f 61/61/61 63/63/63 64/64/64
f 65/65/65 66/66/66 67/67/67
f 65/65/65 67/67/67 68/68/68
f 69/69/69 70/70/70 71/71/71
f 69/69/69 71/71/71 72/72/72
f 73/73/73 74/74/74 75/75/75
f 73/73/73 75/75/75 76/76/76
f 77/77/77 78/78/78 79/79/79
f 77/77/77 79/79/79 80/80/80
f 81/81/81 82/82/82 83/83/83
f 81/81/81 83/83/83 84/84/84
f 85/85/85 86/86/86 87/87/87
f 85/85/85 87/87/87 88/88/88
f 89/89/89 90/90/90 91/91/91
f 89/89/89 91/91/91 92/92/92
f 93/93/93 94/94/94 95/95/95
f 93/93/93 95/95/95 96/96/96
