# Exported using automatic converter by Erwin Coumans
mtllib botlab.mtl
#object mesh1122315837

v 3.022938 -0.986576 -2.230885
v 3.086780 -0.984679 -2.229036
v 3.087903 -1.010406 -2.241421
v 3.024060 -1.012303 -2.243270
v 3.086026 -1.009493 -2.177558
v 3.084903 -0.983765 -2.165173
v 3.021060 -0.985663 -2.167022
v 3.022184 -1.011390 -2.179407
v 3.087903 -1.010406 -2.241421
v 3.086026 -1.009493 -2.177558
v 3.022184 -1.011390 -2.179407
v 3.024060 -1.012303 -2.243270
v 3.021060 -0.985663 -2.167022
v 3.084903 -0.983765 -2.165173
v 3.086780 -0.984679 -2.229036
v 3.022938 -0.986576 -2.230885
v 3.022184 -1.011390 -2.179407
v 3.021060 -0.985663 -2.167022
v 3.022938 -0.986576 -2.230885
v 3.024060 -1.012303 -2.243270
v 3.086780 -0.984679 -2.229036
v 3.084903 -0.983765 -2.165173
v 3.086026 -1.009493 -2.177558
v 3.087903 -1.010406 -2.241421
usemtl mat22

vn 0.013185 0.434187 -0.900726
vn 0.013185 0.434187 -0.900726
vn 0.013185 0.434187 -0.900726
vn 0.013185 0.434187 -0.900726
vn -0.013185 -0.434188 0.900726
vn -0.013185 -0.434188 0.900726
vn -0.013185 -0.434188 0.900726
vn -0.013185 -0.434188 0.900726
vn 0.029262 -0.999457 0.015151
vn 0.029262 -0.999457 0.015151
vn 0.029262 -0.999457 0.015151
vn 0.029262 -0.999457 0.015151
vn -0.029262 0.999457 -0.015151
vn -0.029262 0.999457 -0.015151
vn -0.029262 0.999457 -0.015151
vn -0.029262 0.999457 -0.015151
vn -0.999141 -0.029671 -0.028946
vn -0.999141 -0.029671 -0.028946
vn -0.999141 -0.029671 -0.028946
vn -0.999141 -0.029671 -0.028946
vn 0.999141 0.029671 0.028946
vn 0.999141 0.029671 0.028946
vn 0.999141 0.029671 0.028946
vn 0.999141 0.029671 0.028946

vt 0.176172 0.229435
vt 0.177752 0.235627
vt 0.180521 0.234920
vt 0.178941 0.228729
vt -0.177752 0.235627
vt -0.174983 0.236333
vt -0.173403 0.230142
vt -0.176172 0.229435
vt -0.038460 0.305568
vt -0.032483 0.303310
vt -0.034741 0.297332
vt -0.040718 0.299590
vt 0.033545 0.296881
vt 0.031287 0.302858
vt 0.037264 0.305116
vt 0.039523 0.299139
vt 0.144147 0.039873
vt 0.141555 0.041075
vt 0.146552 0.045057
vt 0.149144 0.043854
vt -0.146552 0.045057
vt -0.141555 0.041075
vt -0.144147 0.039873
vt -0.149144 0.043854
s off
f 1/1/1 2/2/2 3/3/3
f 1/1/1 3/3/3 4/4/4
f 5/5/5 6/6/6 7/7/7
f 5/5/5 7/7/7 8/8/8
f 9/9/9 10/10/10 11/11/11
f 9/9/9 11/11/11 12/12/12
f 13/13/13 14/14/14 15/15/15
f 13/13/13 15/15/15 16/16/16
f 17/17/17 18/18/18 19/19/19
f 17/17/17 19/19/19 20/20/20
f 21/21/21 22/22/22 23/23/23
f 21/21/21 23/23/23 24/24/24
