# Exported using automatic converter by Erwin Coumans
mtllib botlab.mtl
#object mesh436911360

v 3.498014 0.050086 -0.012618
v 3.493155 0.047669 -0.012348
v 3.490842 0.054497 -0.014326
v 3.495681 0.056954 -0.014605
v 3.493155 0.047669 -0.012348
v 3.491362 0.048069 -0.007235
v 3.489070 0.054859 -0.009203
v 3.490842 0.054497 -0.014326
v 3.491362 0.048069 -0.007235
v 3.495112 0.050734 -0.004344
v 3.492812 0.057540 -0.006316
v 3.489070 0.054859 -0.009203
v 3.495112 0.050734 -0.004344
v 3.499223 0.051981 -0.007671
v 3.496898 0.058835 -0.009655
v 3.492812 0.057540 -0.006316
v 3.499223 0.051981 -0.007671
v 3.498014 0.050086 -0.012618
v 3.495681 0.056954 -0.014605
v 3.496898 0.058835 -0.009655
v 3.499223 0.051981 -0.007671
v 3.495112 0.050734 -0.004344
v 3.491362 0.048069 -0.007235
v 3.493155 0.047669 -0.012348
v 3.498014 0.050086 -0.012618
v 3.479845 0.050489 0.014237
v 3.479219 0.049093 0.009022
v 3.483585 0.050817 0.006288
v 3.486910 0.053278 0.009811
v 3.484597 0.053075 0.014724
v 3.491612 0.065097 -0.008608
v 3.487537 0.063781 -0.005263
v 3.492812 0.057540 -0.006316
v 3.496898 0.058835 -0.009655
v 3.487537 0.063781 -0.005263
v 3.483814 0.061065 -0.008141
v 3.489070 0.054859 -0.009203
v 3.492812 0.057540 -0.006316
v 3.483814 0.061065 -0.008141
v 3.485586 0.060703 -0.013264
v 3.490842 0.054497 -0.014326
v 3.489070 0.054859 -0.009203
v 3.485586 0.060703 -0.013264
v 3.490407 0.063195 -0.013552
v 3.495681 0.056954 -0.014605
v 3.490842 0.054497 -0.014326
v 3.490407 0.063195 -0.013552
v 3.491612 0.065097 -0.008608
v 3.496898 0.058835 -0.009655
v 3.495681 0.056954 -0.014605
v 3.487793 0.069418 -0.005413
v 3.483736 0.068069 -0.002060
v 3.487537 0.063781 -0.005263
v 3.491612 0.065097 -0.008608
v 3.483736 0.068069 -0.002060
v 3.480023 0.065333 -0.004933
v 3.483814 0.061065 -0.008141
v 3.487537 0.063781 -0.005263
v 3.480023 0.065333 -0.004933
v 3.481785 0.064991 -0.010061
v 3.485586 0.060703 -0.013264
v 3.483814 0.061065 -0.008141
v 3.481785 0.064991 -0.010061
v 3.486588 0.067515 -0.010357
v 3.490407 0.063195 -0.013552
v 3.485586 0.060703 -0.013264
v 3.486588 0.067515 -0.010357
v 3.487793 0.069418 -0.005413
v 3.491612 0.065097 -0.008608
v 3.490407 0.063195 -0.013552
v 3.481957 0.068899 0.001416
v 3.484715 0.068156 -0.003206
v 3.483736 0.068069 -0.002060
v 3.487793 0.069418 -0.005413
v 3.484715 0.068156 -0.003206
v 3.481503 0.065466 -0.006665
v 3.480023 0.065333 -0.004933
v 3.483736 0.068069 -0.002060
v 3.481503 0.065466 -0.006665
v 3.476759 0.064544 -0.004181
v 3.481785 0.064991 -0.010061
v 3.480023 0.065333 -0.004933
v 3.476759 0.064544 -0.004181
v 3.477040 0.066667 0.000814
v 3.486588 0.067515 -0.010357
v 3.481785 0.064991 -0.010061
v 3.477040 0.066667 0.000814
v 3.481957 0.068899 0.001416
v 3.487793 0.069418 -0.005413
v 3.486588 0.067515 -0.010357
v 3.486079 0.061942 0.002996
v 3.488439 0.062054 -0.001897
v 3.484715 0.068156 -0.003206
v 3.481957 0.068899 0.001416
v 3.488439 0.062054 -0.001897
v 3.485157 0.059512 -0.005402
v 3.481503 0.065466 -0.006665
v 3.484715 0.068156 -0.003206
v 3.485157 0.059512 -0.005402
v 3.480769 0.057829 -0.002677
v 3.476759 0.064544 -0.004181
v 3.481503 0.065466 -0.006665
v 3.480769 0.057829 -0.002677
v 3.481339 0.059332 0.002514
v 3.477040 0.066667 0.000814
v 3.476759 0.064544 -0.004181
v 3.481339 0.059332 0.002514
v 3.486079 0.061942 0.002996
v 3.481957 0.068899 0.001416
v 3.477040 0.066667 0.000814
v 3.483642 0.058375 0.010444
v 3.485988 0.058514 0.005545
v 3.488439 0.062054 -0.001897
v 3.486079 0.061942 0.002996
v 3.485988 0.058514 0.005545
v 3.482692 0.055999 0.002034
v 3.485157 0.059512 -0.005402
v 3.488439 0.062054 -0.001897
v 3.482692 0.055999 0.002034
v 3.478310 0.054305 0.004762
v 3.480769 0.057829 -0.002677
v 3.485157 0.059512 -0.005402
v 3.478310 0.054305 0.004762
v 3.478897 0.055775 0.009960
v 3.481339 0.059332 0.002514
v 3.480769 0.057829 -0.002677
v 3.478897 0.055775 0.009960
v 3.483642 0.058375 0.010444
v 3.486079 0.061942 0.002996
v 3.481339 0.059332 0.002514
v 3.484597 0.053075 0.014724
v 3.486910 0.053278 0.009811
v 3.485988 0.058514 0.005545
v 3.483642 0.058375 0.010444
v 3.486910 0.053278 0.009811
v 3.483585 0.050817 0.006288
v 3.482692 0.055999 0.002034
v 3.485988 0.058514 0.005545
v 3.483585 0.050817 0.006288
v 3.479219 0.049093 0.009022
v 3.478310 0.054305 0.004762
v 3.482692 0.055999 0.002034
v 3.479219 0.049093 0.009022
v 3.479845 0.050489 0.014237
v 3.478897 0.055775 0.009960
v 3.478310 0.054305 0.004762
v 3.479845 0.050489 0.014237
v 3.484597 0.053075 0.014724
v 3.483642 0.058375 0.010444
v 3.478897 0.055775 0.009960
usemtl mat8

vn 0.073274 -0.254314 -0.964342
vn 0.073274 -0.254314 -0.964342
vn 0.073274 -0.254314 -0.964342
vn 0.073274 -0.254314 -0.964342
vn -0.882276 -0.379128 -0.279017
vn -0.882276 -0.379128 -0.279017
vn -0.882276 -0.379128 -0.279017
vn -0.882276 -0.379128 -0.279017
vn -0.618832 0.018493 0.785305
vn -0.618832 0.018493 0.785305
vn -0.618832 0.018493 0.785305
vn -0.618832 0.018493 0.785305
vn 0.503540 0.393290 0.769266
vn 0.503540 0.393290 0.769266
vn 0.503540 0.393290 0.769266
vn 0.503540 0.393290 0.769266
vn 0.923572 0.223323 -0.311674
vn 0.923572 0.223323 -0.311674
vn 0.923572 0.223323 -0.311674
vn 0.923572 0.223323 -0.311674
vn 0.444139 -0.867593 0.223656
vn 0.444139 -0.867593 0.223656
vn 0.444139 -0.867593 0.223656
vn 0.444139 -0.867593 0.223656
vn 0.444139 -0.867593 0.223656
vn 0.456062 -0.871844 0.178590
vn 0.456062 -0.871844 0.178590
vn 0.456062 -0.871844 0.178590
vn 0.456062 -0.871844 0.178590
vn 0.456062 -0.871844 0.178590
vn 0.536130 0.321738 0.780416
vn 0.536130 0.321738 0.780416
vn 0.536130 0.321738 0.780416
vn 0.536130 0.321738 0.780416
vn -0.337790 -0.428132 0.838213
vn -0.337790 -0.428132 0.838213
vn -0.337790 -0.428132 0.838213
vn -0.337790 -0.428132 0.838213
vn -0.762564 -0.608042 -0.220864
vn -0.762564 -0.608042 -0.220864
vn -0.762564 -0.608042 -0.220864
vn -0.762564 -0.608042 -0.220864
vn -0.100817 0.083123 -0.991427
vn -0.100817 0.083123 -0.991427
vn -0.100817 0.083123 -0.991427
vn -0.100817 0.083123 -0.991427
vn 0.664646 0.629038 -0.403184
vn 0.664646 0.629038 -0.403184
vn 0.664646 0.629038 -0.403184
vn 0.664646 0.629038 -0.403184
vn 0.637322 -0.008509 0.770550
vn 0.637322 -0.008509 0.770550
vn 0.637322 -0.008509 0.770550
vn 0.637322 -0.008509 0.770550
vn -0.101855 -0.652854 0.750605
vn -0.101855 -0.652854 0.750605
vn -0.101855 -0.652854 0.750605
vn -0.101855 -0.652854 0.750605
vn -0.808629 -0.536263 -0.241952
vn -0.808629 -0.536263 -0.241952
vn -0.808629 -0.536263 -0.241952
vn -0.808629 -0.536263 -0.241952
vn -0.267230 0.411176 -0.871506
vn -0.267230 0.411176 -0.871506
vn -0.267230 0.411176 -0.871506
vn -0.267230 0.411176 -0.871506
vn 0.507789 0.755291 -0.414350
vn 0.507789 0.755291 -0.414350
vn 0.507789 0.755291 -0.414350
vn 0.507789 0.755291 -0.414350
vn 0.599311 -0.653306 0.462620
vn 0.599311 -0.653306 0.462620
vn 0.599311 -0.653306 0.462620
vn 0.599311 -0.653306 0.462620
vn -0.413829 0.863702 -0.287688
vn -0.413829 0.863702 -0.287688
vn -0.413829 0.863702 -0.287688
vn -0.413829 0.863702 -0.287688
vn 0.265878 -0.951473 0.154943
vn 0.265878 -0.951473 0.154943
vn 0.265878 -0.951473 0.154943
vn 0.265878 -0.951473 0.154943
vn -0.455500 0.828264 -0.326342
vn -0.455500 0.828264 -0.326342
vn -0.455500 0.828264 -0.326342
vn -0.455500 0.828264 -0.326342
vn -0.374288 0.892389 -0.252093
vn -0.374288 0.892389 -0.252093
vn -0.374288 0.892389 -0.252093
vn -0.374288 0.892389 -0.252093
vn 0.757182 0.537153 0.371675
vn 0.757182 0.537153 0.371675
vn 0.757182 0.537153 0.371675
vn 0.757182 0.537153 0.371675
vn 0.624163 0.222192 -0.749034
vn 0.624163 0.222192 -0.749034
vn 0.624163 0.222192 -0.749034
vn 0.624163 0.222192 -0.749034
vn -0.363872 -0.403441 -0.839543
vn -0.363872 -0.403441 -0.839543
vn -0.363872 -0.403441 -0.839543
vn -0.363872 -0.403441 -0.839543
vn -0.859362 -0.454857 0.233671
vn -0.859362 -0.454857 0.233671
vn -0.859362 -0.454857 0.233671
vn -0.859362 -0.454857 0.233671
vn -0.171526 0.123306 0.977433
vn -0.171526 0.123306 0.977433
vn -0.171526 0.123306 0.977433
vn -0.171526 0.123306 0.977433
vn 0.859691 0.289915 0.420571
vn 0.859691 0.289915 0.420571
vn 0.859691 0.289915 0.420571
vn 0.859691 0.289915 0.420571
vn 0.681055 -0.722729 -0.117591
vn 0.681055 -0.722729 -0.117591
vn 0.681055 -0.722729 -0.117591
vn 0.681055 -0.722729 -0.117591
vn 0.104296 -0.911896 -0.396948
vn 0.104296 -0.911896 -0.396948
vn 0.104296 -0.911896 -0.396948
vn 0.104296 -0.911896 -0.396948
vn -0.864694 0.500117 -0.046775
vn -0.864694 0.500117 -0.046775
vn -0.864694 0.500117 -0.046775
vn -0.864694 0.500117 -0.046775
vn -0.485967 0.839688 0.242406
vn -0.485967 0.839688 0.242406
vn -0.485967 0.839688 0.242406
vn -0.485967 0.839688 0.242406
vn 0.795341 0.460946 0.393652
vn 0.795341 0.460946 0.393652
vn 0.795341 0.460946 0.393652
vn 0.795341 0.460946 0.393652
vn 0.791327 -0.298565 -0.533535
vn 0.791327 -0.298565 -0.533535
vn 0.791327 -0.298565 -0.533535
vn 0.791327 -0.298565 -0.533535
vn -0.210266 -0.641147 -0.738051
vn -0.210266 -0.641147 -0.738051
vn -0.210266 -0.641147 -0.738051
vn -0.210266 -0.641147 -0.738051
vn -0.988832 -0.066350 0.133451
vn -0.988832 -0.066350 0.133451
vn -0.988832 -0.066350 0.133451
vn -0.988832 -0.066350 0.133451
vn -0.372897 0.541807 0.753254
vn -0.372897 0.541807 0.753254
vn -0.372897 0.541807 0.753254
vn -0.372897 0.541807 0.753254

vt 0.139074 0.295570
vt 0.139036 0.295028
vt 0.138306 0.295187
vt 0.138339 0.295729
vt 0.076792 -0.004348
vt 0.076633 -0.004868
vt 0.075942 -0.004593
vt 0.076097 -0.004073
vt -0.164670 0.262288
vt -0.164793 0.262818
vt -0.164087 0.263054
vt -0.163965 0.262524
vt -0.118000 0.189781
vt -0.118046 0.190322
vt -0.117314 0.190488
vt -0.117274 0.189946
vt 0.184471 -0.022692
vt 0.183950 -0.022848
vt 0.183740 -0.022126
vt 0.184261 -0.021972
vt 0.153512 0.275169
vt 0.153711 0.274664
vt 0.153292 0.274318
vt 0.152834 0.274610
vt 0.152970 0.275136
vt 0.160438 0.269928
vt 0.159896 0.269974
vt 0.159773 0.270503
vt 0.160238 0.270784
vt 0.160649 0.270429
vt -0.102234 0.188554
vt -0.102179 0.188013
vt -0.102970 0.188244
vt -0.103027 0.188785
vt -0.027659 0.328537
vt -0.027870 0.328036
vt -0.028628 0.328349
vt -0.028421 0.328851
vt 0.153181 0.034934
vt 0.153117 0.035474
vt 0.153834 0.035873
vt 0.153897 0.035333
vt 0.070724 0.305809
vt 0.070700 0.306352
vt 0.071493 0.306575
vt 0.071513 0.306032
vt -0.124547 0.228204
vt -0.125078 0.228317
vt -0.124718 0.229061
vt -0.124187 0.228945
vt -0.033366 0.194405
vt -0.033250 0.193875
vt -0.033857 0.194126
vt -0.033976 0.194656
vt 0.050579 0.330480
vt 0.050245 0.330051
vt 0.049661 0.330348
vt 0.049993 0.330777
vt 0.129571 0.013714
vt 0.129580 0.014258
vt 0.130063 0.014703
vt 0.130051 0.014159
vt -0.008192 0.303505
vt -0.008270 0.304043
vt -0.007658 0.304287
vt -0.007583 0.303749
vt -0.138137 0.254869
vt -0.138676 0.254940
vt -0.138250 0.255443
vt -0.137711 0.255373
vt 0.105281 0.250024
vt 0.104862 0.250369
vt 0.104950 0.250247
vt 0.104755 0.250754
vt -0.146743 0.279921
vt -0.146280 0.279636
vt -0.146413 0.279451
vt -0.146831 0.279798
vt 0.168627 0.284605
vt 0.168733 0.284072
vt 0.168301 0.284715
vt 0.168754 0.284416
vt -0.138682 0.275142
vt -0.139224 0.275104
vt -0.138361 0.276296
vt -0.138228 0.275770
vt -0.153550 0.281727
vt -0.153761 0.282227
vt -0.153241 0.282961
vt -0.152699 0.282928
vt -0.130109 0.055767
vt -0.130115 0.056310
vt -0.129389 0.056287
vt -0.129286 0.055753
vt 0.119846 0.277280
vt 0.119855 0.276736
vt 0.119146 0.276701
vt 0.119120 0.277244
vt 0.127700 0.224807
vt 0.127679 0.224264
vt 0.126883 0.224254
vt 0.126990 0.224787
vt 0.141661 -0.122107
vt 0.141713 -0.122648
vt 0.140849 -0.122727
vt 0.140868 -0.122183
vt -0.127644 0.306196
vt -0.127666 0.306739
vt -0.126842 0.306733
vt -0.126777 0.306193
vt -0.059093 0.041579
vt -0.059258 0.042097
vt -0.059163 0.042952
vt -0.058996 0.042435
vt 0.181596 0.226286
vt 0.181140 0.225991
vt 0.180541 0.226606
vt 0.180997 0.226902
vt 0.201735 0.261331
vt 0.201816 0.260794
vt 0.201197 0.261390
vt 0.201116 0.261927
vt -0.150317 0.160100
vt -0.150857 0.160046
vt -0.150333 0.160728
vt -0.149792 0.160780
vt -0.195276 0.256647
vt -0.195478 0.257152
vt -0.194852 0.257743
vt -0.194651 0.257238
vt -0.109130 0.045542
vt -0.109180 0.046083
vt -0.108641 0.046500
vt -0.108584 0.045960
vt 0.202690 0.189222
vt 0.202319 0.188825
vt 0.201764 0.189213
vt 0.202131 0.189613
vt 0.170107 0.234139
vt 0.170129 0.233596
vt 0.169511 0.233877
vt 0.169492 0.234420
vt -0.132191 -0.030405
vt -0.132722 -0.030520
vt -0.132575 -0.029850
vt -0.132043 -0.029743
vt -0.191746 0.272797
vt -0.191877 0.273324
vt -0.191253 0.273613
vt -0.191124 0.273086
s off
f 1/1/1 2/2/2 3/3/3
f 1/1/1 3/3/3 4/4/4
f 5/5/5 6/6/6 7/7/7
f 5/5/5 7/7/7 8/8/8
f 9/9/9 10/10/10 11/11/11
f 9/9/9 11/11/11 12/12/12
f 13/13/13 14/14/14 15/15/15
f 13/13/13 15/15/15 16/16/16
f 17/17/17 18/18/18 19/19/19
f 17/17/17 19/19/19 20/20/20
f 21/21/21 22/22/22 23/23/23
f 21/21/21 23/23/23 24/24/24
f 21/21/21 24/24/24 25/25/25
f 26/26/26 27/27/27 28/28/28
f 26/26/26 28/28/28 29/29/29
f 26/26/26 29/29/29 30/30/30
f 31/31/31 32/32/32 33/33/33
f 31/31/31 33/33/33 34/34/34
f 35/35/35 36/36/36 37/37/37
f 35/35/35 37/37/37 38/38/38
f 39/39/39 40/40/40 41/41/41
f 39/39/39 41/41/41 42/42/42
f 43/43/43 44/44/44 45/45/45
f 43/43/43 45/45/45 46/46/46
f 47/47/47 48/48/48 49/49/49
f 47/47/47 49/49/49 50/50/50
f 51/51/51 52/52/52 53/53/53
f 51/51/51 53/53/53 54/54/54
f 55/55/55 56/56/56 57/57/57
f 55/55/55 57/57/57 58/58/58
f 59/59/59 60/60/60 61/61/61
f 59/59/59 61/61/61 62/62/62
f 63/63/63 64/64/64 65/65/65
f 63/63/63 65/65/65 66/66/66
f 67/67/67 68/68/68 69/69/69
f 67/67/67 69/69/69 70/70/70
f 71/71/71 72/72/72 73/73/73
f 71/71/71 73/73/73 74/74/74
f 75/75/75 76/76/76 77/77/77
f 75/75/75 77/77/77 78/78/78
f 79/79/79 80/80/80 81/81/81
f 79/79/79 81/81/81 82/82/82
f 83/83/83 84/84/84 85/85/85
f 83/83/83 85/85/85 86/86/86
f 87/87/87 88/88/88 89/89/89
f 87/87/87 89/89/89 90/90/90
f 91/91/91 92/92/92 93/93/93
f 91/91/91 93/93/93 94/94/94
f 95/95/95 96/96/96 97/97/97
f 95/95/95 97/97/97 98/98/98
f 99/99/99 100/100/100 101/101/101
f 99/99/99 101/101/101 102/102/102
f 103/103/103 104/104/104 105/105/105
f 103/103/103 105/105/105 106/106/106
f 107/107/107 108/108/108 109/109/109
f 107/107/107 109/109/109 110/110/110
f 111/111/111 112/112/112 113/113/113
f 111/111/111 113/113/113 114/114/114
f 115/115/115 116/116/116 117/117/117
f 115/115/115 117/117/117 118/118/118
f 119/119/119 120/120/120 121/121/121
f 119/119/119 121/121/121 122/122/122
f 123/123/123 124/124/124 125/125/125
f 123/123/123 125/125/125 126/126/126
f 127/127/127 128/128/128 129/129/129
f 127/127/127 129/129/129 130/130/130
f 131/131/131 132/132/132 133/133/133
f 131/131/131 133/133/133 134/134/134
f 135/135/135 136/136/136 137/137/137
f 135/135/135 137/137/137 138/138/138
f 139/139/139 140/140/140 141/141/141
f 139/139/139 141/141/141 142/142/142
f 143/143/143 144/144/144 145/145/145
f 143/143/143 145/145/145 146/146/146
f 147/147/147 148/148/148 149/149/149
f 147/147/147 149/149/149 150/150/150
