# Exported using automatic converter by Erwin Coumans
mtllib model6.mtl
#object mesh289842754

v 3.278238 0.335490 -3.250148
v 3.278238 0.335489 0.229852
v 3.278238 -0.314511 0.229852
v 3.278238 -0.314510 -3.250148
v 3.258238 -0.314511 0.229852
v 3.258238 0.335489 0.229852
v 3.258238 0.335490 -3.250148
v 3.258238 -0.314510 -3.250148
v 3.278238 -0.314511 0.229852
v 3.258238 -0.314511 0.229852
v 3.258238 -0.314510 -3.250148
v 3.278238 -0.314510 -3.250148
v 3.258238 0.335490 -3.250148
v 3.258238 0.335489 0.229852
v 3.278238 0.335489 0.229852
v 3.278238 0.335490 -3.250148
v 3.258238 -0.314510 -3.250148
v 3.258238 0.335490 -3.250148
v 3.278238 0.335490 -3.250148
v 3.278238 -0.314510 -3.250148
v 3.278238 0.335489 0.229852
v 3.258238 0.335489 0.229852
v 3.258238 -0.314511 0.229852
v 3.278238 -0.314511 0.229852
usemtl mat21

vn 1.000000 0.000000 0.000000
vn 1.000000 0.000000 0.000000
vn 1.000000 0.000000 0.000000
vn 1.000000 0.000000 0.000000
vn -1.000000 0.000000 0.000000
vn -1.000000 0.000000 0.000000
vn -1.000000 0.000000 0.000000
vn -1.000000 0.000000 0.000000
vn 0.000000 -1.000000 -0.000000
vn 0.000000 -1.000000 -0.000000
vn 0.000000 -1.000000 -0.000000
vn 0.000000 -1.000000 -0.000000
vn 0.000000 1.000000 0.000000
vn 0.000000 1.000000 0.000000
vn 0.000000 1.000000 0.000000
vn 0.000000 1.000000 0.000000
vn 0.000000 0.000000 -1.000000
vn 0.000000 0.000000 -1.000000
vn 0.000000 0.000000 -1.000000
vn 0.000000 0.000000 -1.000000
vn 0.000000 -0.000000 1.000000
vn 0.000000 -0.000000 1.000000
vn 0.000000 -0.000000 1.000000
vn 0.000000 -0.000000 1.000000

vt -0.144380 0.203898
vt 0.138800 0.001627
vt 0.101019 -0.051265
vt -0.182160 0.151006
vt -0.101019 -0.051265
vt -0.138800 0.001627
vt 0.144380 0.203898
vt 0.182160 0.151006
vt 0.205367 0.242028
vt 0.204694 0.240144
vt -0.123032 0.357189
vt -0.122359 0.359073
vt 0.123032 0.357189
vt -0.204694 0.240144
vt -0.205367 0.242028
vt 0.122359 0.359073
vt 0.116723 0.271459
vt 0.058585 0.300528
vt 0.059479 0.302316
vt 0.117617 0.273248
vt -0.059479 0.302316
vt -0.058585 0.300528
vt -0.116723 0.271459
vt -0.117617 0.273248
s off
f 1/1/1 2/2/2 3/3/3
f 1/1/1 3/3/3 4/4/4
f 5/5/5 6/6/6 7/7/7
f 5/5/5 7/7/7 8/8/8
f 9/9/9 10/10/10 11/11/11
f 9/9/9 11/11/11 12/12/12
f 13/13/13 14/14/14 15/15/15
f 13/13/13 15/15/15 16/16/16
f 17/17/17 18/18/18 19/19/19
f 17/17/17 19/19/19 20/20/20
f 21/21/21 22/22/22 23/23/23
f 21/21/21 23/23/23 24/24/24
