# Exported using automatic converter by Erwin Coumans
mtllib model6.mtl
#object mesh1681560492

v -0.631762 -0.034511 2.299851
v -0.491762 -0.034511 2.299851
v -0.491762 -0.054511 2.299851
v -0.631762 -0.054511 2.299851
v -0.491762 -0.054511 2.329852
v -0.491762 -0.034511 2.329852
v -0.631762 -0.034511 2.329852
v -0.631762 -0.054511 2.329852
v -0.491762 -0.054511 2.299851
v -0.491762 -0.054511 2.329852
v -0.631762 -0.054511 2.329852
v -0.631762 -0.054511 2.299851
v -0.631762 -0.034511 2.329852
v -0.491762 -0.034511 2.329852
v -0.491762 -0.034511 2.299851
v -0.631762 -0.034511 2.299851
v -0.631762 -0.054511 2.329852
v -0.631762 -0.034511 2.329852
v -0.631762 -0.034511 2.299851
v -0.631762 -0.054511 2.299851
v -0.491762 -0.034511 2.299851
v -0.491762 -0.034511 2.329852
v -0.491762 -0.054511 2.329852
v -0.491762 -0.054511 2.299851
usemtl mat11

vn -0.000000 0.000000 -1.000000
vn -0.000000 0.000000 -1.000000
vn -0.000000 0.000000 -1.000000
vn -0.000000 0.000000 -1.000000
vn 0.000000 0.000000 1.000000
vn 0.000000 0.000000 1.000000
vn 0.000000 0.000000 1.000000
vn 0.000000 0.000000 1.000000
vn -0.000000 -1.000000 0.000000
vn -0.000000 -1.000000 0.000000
vn -0.000000 -1.000000 0.000000
vn -0.000000 -1.000000 0.000000
vn 0.000000 1.000000 0.000000
vn 0.000000 1.000000 0.000000
vn 0.000000 1.000000 0.000000
vn 0.000000 1.000000 0.000000
vn -1.000000 0.000000 0.000000
vn -1.000000 0.000000 0.000000
vn -1.000000 0.000000 0.000000
vn -1.000000 0.000000 0.000000
vn 1.000000 -0.000000 -0.000000
vn 1.000000 -0.000000 -0.000000
vn 1.000000 -0.000000 -0.000000
vn 1.000000 -0.000000 -0.000000

vt -0.082287 -0.063952
vt -0.076026 -0.051430
vt -0.074237 -0.052324
vt -0.080498 -0.064846
vt 0.074237 -0.052324
vt 0.076026 -0.051430
vt 0.082287 -0.063952
vt 0.080498 -0.064846
vt 0.273509 -0.182631
vt 0.276334 -0.183640
vt 0.271625 -0.196824
vt 0.268800 -0.195815
vt -0.271625 -0.196824
vt -0.276334 -0.183640
vt -0.273509 -0.182631
vt -0.268800 -0.195815
vt -0.287015 -0.152168
vt -0.288178 -0.150541
vt -0.285737 -0.148797
vt -0.284574 -0.150424
vt 0.285737 -0.148797
vt 0.288178 -0.150541
vt 0.287015 -0.152168
vt 0.284574 -0.150424
s off
f 1/1/1 2/2/2 3/3/3
f 1/1/1 3/3/3 4/4/4
f 5/5/5 6/6/6 7/7/7
f 5/5/5 7/7/7 8/8/8
f 9/9/9 10/10/10 11/11/11
f 9/9/9 11/11/11 12/12/12
f 13/13/13 14/14/14 15/15/15
f 13/13/13 15/15/15 16/16/16
f 17/17/17 18/18/18 19/19/19
f 17/17/17 19/19/19 20/20/20
f 21/21/21 22/22/22 23/23/23
f 21/21/21 23/23/23 24/24/24
