# Exported using automatic converter by Erwin Coumans
mtllib model6.mtl
#object mesh1736778436

v 0.338238 1.455489 -0.510148
v 0.358238 1.455489 -0.510148
v 0.358238 0.895489 -0.510148
v 0.338238 0.895489 -0.510148
v 0.358238 0.895489 -0.490148
v 0.358238 1.455489 -0.490148
v 0.338238 1.455489 -0.490148
v 0.338238 0.895489 -0.490148
v 0.358238 0.895489 -0.510148
v 0.358238 0.895489 -0.490148
v 0.338238 0.895489 -0.490148
v 0.338238 0.895489 -0.510148
v 0.338238 1.455489 -0.490148
v 0.358238 1.455489 -0.490148
v 0.358238 1.455489 -0.510148
v 0.338238 1.455489 -0.510148
v 0.338238 0.895489 -0.490148
v 0.338238 1.455489 -0.490148
v 0.338238 1.455489 -0.510148
v 0.338238 0.895489 -0.510148
v 0.358238 1.455489 -0.510148
v 0.358238 1.455489 -0.490148
v 0.358238 0.895489 -0.490148
v 0.358238 0.895489 -0.510148
usemtl mat23

vn -0.000000 0.000000 -1.000000
vn -0.000000 0.000000 -1.000000
vn -0.000000 0.000000 -1.000000
vn -0.000000 0.000000 -1.000000
vn 0.000000 0.000000 1.000000
vn 0.000000 0.000000 1.000000
vn 0.000000 0.000000 1.000000
vn 0.000000 0.000000 1.000000
vn -0.000000 -1.000000 0.000000
vn -0.000000 -1.000000 0.000000
vn -0.000000 -1.000000 0.000000
vn -0.000000 -1.000000 0.000000
vn 0.000000 1.000000 0.000000
vn 0.000000 1.000000 0.000000
vn 0.000000 1.000000 0.000000
vn 0.000000 1.000000 0.000000
vn -1.000000 0.000000 0.000000
vn -1.000000 0.000000 0.000000
vn -1.000000 0.000000 0.000000
vn -1.000000 0.000000 0.000000
vn 1.000000 -0.000000 -0.000000
vn 1.000000 -0.000000 -0.000000
vn 1.000000 -0.000000 -0.000000
vn 1.000000 -0.000000 -0.000000

vt -0.172177 0.089443
vt -0.171283 0.091232
vt -0.121195 0.066188
vt -0.122089 0.064399
vt 0.121195 0.066188
vt 0.171283 0.091232
vt 0.172177 0.089443
vt 0.122089 0.064399
vt 0.037468 -0.008072
vt 0.039351 -0.008745
vt 0.038679 -0.010628
vt 0.036795 -0.009956
vt -0.038679 -0.010628
vt -0.039351 -0.008745
vt -0.037468 -0.008072
vt -0.036795 -0.009956
vt -0.112760 0.089046
vt -0.145309 0.134615
vt -0.143682 0.135777
vt -0.111133 0.090208
vt 0.143682 0.135777
vt 0.145309 0.134615
vt 0.112760 0.089046
vt 0.111133 0.090208
s off
f 1/1/1 2/2/2 3/3/3
f 1/1/1 3/3/3 4/4/4
f 5/5/5 6/6/6 7/7/7
f 5/5/5 7/7/7 8/8/8
f 9/9/9 10/10/10 11/11/11
f 9/9/9 11/11/11 12/12/12
f 13/13/13 14/14/14 15/15/15
f 13/13/13 15/15/15 16/16/16
f 17/17/17 18/18/18 19/19/19
f 17/17/17 19/19/19 20/20/20
f 21/21/21 22/22/22 23/23/23
f 21/21/21 23/23/23 24/24/24
