# Exported using automatic converter by Erwin Coumans
mtllib model6.mtl
#object mesh1716856801

v -0.240853 -1.004511 -0.321966
v -0.196308 -1.004511 -0.333902
v -0.196308 -0.953602 -0.333902
v -0.240853 -0.953602 -0.321966
v -0.196308 -1.004511 -0.333902
v -0.163698 -1.004511 -0.366511
v -0.163698 -0.953602 -0.366511
v -0.196308 -0.953602 -0.333902
v -0.163698 -1.004511 -0.366511
v -0.151762 -1.004511 -0.411057
v -0.151762 -0.953602 -0.411057
v -0.163698 -0.953602 -0.366511
v -0.151762 -1.004511 -0.411057
v -0.163698 -1.004511 -0.455602
v -0.163698 -0.953602 -0.455602
v -0.151762 -0.953602 -0.411057
v -0.163698 -1.004511 -0.455602
v -0.196308 -1.004511 -0.488212
v -0.196308 -0.953602 -0.488212
v -0.163698 -0.953602 -0.455602
v -0.196308 -1.004511 -0.488212
v -0.240853 -1.004511 -0.500148
v -0.240853 -0.953602 -0.500148
v -0.196308 -0.953602 -0.488212
v -0.240853 -1.004511 -0.500148
v -0.285399 -1.004511 -0.488212
v -0.285398 -0.953602 -0.488212
v -0.240853 -0.953602 -0.500148
v -0.285399 -1.004511 -0.488212
v -0.318008 -1.004511 -0.455602
v -0.318008 -0.953602 -0.455602
v -0.285398 -0.953602 -0.488212
v -0.329944 -1.004511 -0.411057
v -0.318008 -1.004511 -0.366511
v -0.318008 -0.953602 -0.366511
v -0.329944 -0.953602 -0.411057
v -0.318008 -1.004511 -0.366511
v -0.285399 -1.004511 -0.333902
v -0.285399 -0.953602 -0.333902
v -0.318008 -0.953602 -0.366511
v -0.285399 -1.004511 -0.333902
v -0.240853 -1.004511 -0.321966
v -0.240853 -0.953602 -0.321966
v -0.285399 -0.953602 -0.333902
v -0.285399 -0.839057 -0.333902
v -0.318009 -0.839057 -0.366512
v -0.318008 -0.915420 -0.366511
v -0.285399 -0.915420 -0.333902
v -0.318009 -0.839057 -0.366512
v -0.329945 -0.839057 -0.411057
v -0.329944 -0.915420 -0.411057
v -0.318008 -0.915420 -0.366511
v -0.318009 -0.839057 -0.455602
v -0.285399 -0.839057 -0.488212
v -0.285399 -0.915420 -0.488212
v -0.318008 -0.915420 -0.455602
v -0.285399 -0.839057 -0.488212
v -0.240854 -0.839057 -0.500148
v -0.240854 -0.915420 -0.500148
v -0.285399 -0.915420 -0.488212
v -0.240854 -0.839057 -0.500148
v -0.196308 -0.839057 -0.488212
v -0.196308 -0.915420 -0.488212
v -0.240854 -0.915420 -0.500148
v -0.196308 -0.839057 -0.488212
v -0.163699 -0.839057 -0.455602
v -0.163698 -0.915420 -0.455602
v -0.196308 -0.915420 -0.488212
v -0.163699 -0.839057 -0.455602
v -0.151763 -0.839057 -0.411057
v -0.151762 -0.915420 -0.411057
v -0.163698 -0.915420 -0.455602
v -0.151763 -0.839057 -0.411057
v -0.163699 -0.839057 -0.366512
v -0.163698 -0.915420 -0.366511
v -0.151762 -0.915420 -0.411057
v -0.163699 -0.839057 -0.366512
v -0.196308 -0.839057 -0.333902
v -0.196308 -0.915420 -0.333902
v -0.163698 -0.915420 -0.366511
v -0.196308 -0.839057 -0.333902
v -0.240854 -0.839057 -0.321966
v -0.240853 -0.915420 -0.321966
v -0.196308 -0.915420 -0.333902
v -0.240854 -0.839057 -0.321966
v -0.285399 -0.839057 -0.333902
v -0.285399 -0.915420 -0.333902
v -0.240853 -0.915420 -0.321966
v -0.285399 -0.749965 -0.333902
v -0.318009 -0.749965 -0.366512
v -0.318009 -0.839057 -0.366512
v -0.285399 -0.839057 -0.333902
v -0.318009 -0.749965 -0.366512
v -0.329945 -0.749965 -0.411057
v -0.329945 -0.839057 -0.411057
v -0.318009 -0.839057 -0.366512
v -0.318009 -0.749965 -0.455602
v -0.285399 -0.749965 -0.488212
v -0.285399 -0.839057 -0.488212
v -0.318009 -0.839057 -0.455602
v -0.285399 -0.749965 -0.488212
v -0.240854 -0.749965 -0.500148
v -0.240854 -0.839057 -0.500148
v -0.285399 -0.839057 -0.488212
v -0.240854 -0.749965 -0.500148
v -0.196308 -0.749965 -0.488212
v -0.196308 -0.839057 -0.488212
v -0.240854 -0.839057 -0.500148
v -0.196308 -0.749965 -0.488212
v -0.163699 -0.749965 -0.455602
v -0.163699 -0.839057 -0.455602
v -0.196308 -0.839057 -0.488212
v -0.151763 -0.749965 -0.411057
v -0.163699 -0.749965 -0.366512
v -0.163699 -0.839057 -0.366512
v -0.151763 -0.839057 -0.411057
v -0.163699 -0.749965 -0.366512
v -0.196308 -0.749965 -0.333902
v -0.196308 -0.839057 -0.333902
v -0.163699 -0.839057 -0.366512
v -0.196308 -0.749965 -0.333902
v -0.240854 -0.749965 -0.321966
v -0.240854 -0.839057 -0.321966
v -0.196308 -0.839057 -0.333902
v -0.240854 -0.749965 -0.321966
v -0.285399 -0.749965 -0.333902
v -0.285399 -0.839057 -0.333902
v -0.240854 -0.839057 -0.321966
v -0.196307 -0.749966 -0.411057
v -0.186762 -0.749966 -0.413615
v -0.186762 -0.711784 -0.413615
v -0.196307 -0.711784 -0.411057
v -0.186762 -0.749966 -0.413615
v -0.179774 -0.749966 -0.420602
v -0.179774 -0.711784 -0.420602
v -0.186762 -0.711784 -0.413615
v -0.179774 -0.749966 -0.420602
v -0.177216 -0.749966 -0.430148
v -0.177216 -0.711784 -0.430148
v -0.179774 -0.711784 -0.420602
v -0.177216 -0.749966 -0.430148
v -0.179774 -0.749966 -0.439693
v -0.179774 -0.711784 -0.439693
v -0.177216 -0.711784 -0.430148
v -0.179774 -0.749966 -0.439693
v -0.186762 -0.749966 -0.446681
v -0.186762 -0.711784 -0.446681
v -0.179774 -0.711784 -0.439693
v -0.186762 -0.749966 -0.446681
v -0.196307 -0.749966 -0.449239
v -0.196307 -0.711784 -0.449239
v -0.186762 -0.711784 -0.446681
v -0.196307 -0.749966 -0.449239
v -0.205853 -0.749966 -0.446681
v -0.205853 -0.711784 -0.446681
v -0.196307 -0.711784 -0.449239
v -0.205853 -0.749966 -0.446681
v -0.212840 -0.749966 -0.439693
v -0.212840 -0.711784 -0.439693
v -0.205853 -0.711784 -0.446681
v -0.212840 -0.749966 -0.439693
v -0.215398 -0.749966 -0.430148
v -0.215398 -0.711784 -0.430148
v -0.212840 -0.711784 -0.439693
v -0.215398 -0.749966 -0.430148
v -0.212840 -0.749966 -0.420602
v -0.212840 -0.711784 -0.420602
v -0.215398 -0.711784 -0.430148
v -0.212840 -0.749966 -0.420602
v -0.205853 -0.749966 -0.413615
v -0.205853 -0.711784 -0.413615
v -0.212840 -0.711784 -0.420602
v -0.205853 -0.749966 -0.413615
v -0.196307 -0.749966 -0.411057
v -0.196307 -0.711784 -0.411057
v -0.205853 -0.711784 -0.413615
v -0.196307 -0.711784 -0.411057
v -0.186762 -0.711784 -0.413615
v -0.179774 -0.711784 -0.420602
v -0.177216 -0.711784 -0.430148
v -0.179774 -0.711784 -0.439693
v -0.186762 -0.711784 -0.446681
v -0.196307 -0.711784 -0.449239
v -0.205853 -0.711784 -0.446681
v -0.212840 -0.711784 -0.439693
v -0.215398 -0.711784 -0.430148
v -0.212840 -0.711784 -0.420602
v -0.205853 -0.711784 -0.413615
v -0.205853 -0.749966 -0.413615
v -0.212840 -0.749966 -0.420602
v -0.215398 -0.749966 -0.430148
v -0.212840 -0.749966 -0.439693
v -0.205853 -0.749966 -0.446681
v -0.196307 -0.749966 -0.449239
v -0.186762 -0.749966 -0.446681
v -0.179774 -0.749966 -0.439693
v -0.177216 -0.749966 -0.430148
v -0.179774 -0.749966 -0.420602
v -0.186762 -0.749966 -0.413615
v -0.196307 -0.749966 -0.411057
usemtl mat13

vn 0.258825 0.000001 0.965924
vn 0.258825 0.000001 0.965924
vn 0.258825 0.000001 0.965924
vn 0.258825 0.000001 0.965924
vn 0.707108 0.000004 0.707105
vn 0.707108 0.000004 0.707105
vn 0.707108 0.000004 0.707105
vn 0.707108 0.000004 0.707105
vn 0.965925 -0.000001 0.258823
vn 0.965925 -0.000001 0.258823
vn 0.965925 -0.000001 0.258823
vn 0.965925 -0.000001 0.258823
vn 0.965925 0.000002 -0.258823
vn 0.965925 0.000002 -0.258823
vn 0.965925 0.000002 -0.258823
vn 0.965925 0.000002 -0.258823
vn 0.707109 0.000002 -0.707105
vn 0.707109 0.000002 -0.707105
vn 0.707109 0.000002 -0.707105
vn 0.707109 0.000002 -0.707105
vn 0.258825 -0.000004 -0.965924
vn 0.258825 -0.000004 -0.965924
vn 0.258825 -0.000004 -0.965924
vn 0.258825 -0.000004 -0.965924
vn -0.258825 0.000001 -0.965924
vn -0.258825 0.000001 -0.965924
vn -0.258825 0.000001 -0.965924
vn -0.258825 0.000001 -0.965924
vn -0.707108 0.000003 -0.707105
vn -0.707108 0.000003 -0.707105
vn -0.707108 0.000003 -0.707105
vn -0.707108 0.000003 -0.707105
vn -0.965925 0.000002 0.258823
vn -0.965925 0.000002 0.258823
vn -0.965925 0.000002 0.258823
vn -0.965925 0.000002 0.258823
vn -0.707109 0.000001 0.707105
vn -0.707109 0.000001 0.707105
vn -0.707109 0.000001 0.707105
vn -0.707109 0.000001 0.707105
vn -0.258825 -0.000004 0.965924
vn -0.258825 -0.000004 0.965924
vn -0.258825 -0.000004 0.965924
vn -0.258825 -0.000004 0.965924
vn -0.707108 0.000002 0.707106
vn -0.707108 0.000002 0.707106
vn -0.707108 0.000002 0.707106
vn -0.707108 0.000002 0.707106
vn -0.965925 -0.000002 0.258822
vn -0.965925 -0.000002 0.258822
vn -0.965925 -0.000002 0.258822
vn -0.965925 -0.000002 0.258822
vn -0.707106 -0.000009 -0.707108
vn -0.707106 -0.000009 -0.707108
vn -0.707106 -0.000009 -0.707108
vn -0.707106 -0.000009 -0.707108
vn -0.258826 -0.000009 -0.965924
vn -0.258826 -0.000009 -0.965924
vn -0.258826 -0.000009 -0.965924
vn -0.258826 -0.000009 -0.965924
vn 0.258823 -0.000007 -0.965925
vn 0.258823 -0.000007 -0.965925
vn 0.258823 -0.000007 -0.965925
vn 0.258823 -0.000007 -0.965925
vn 0.707111 -0.000002 -0.707103
vn 0.707111 -0.000002 -0.707103
vn 0.707111 -0.000002 -0.707103
vn 0.707111 -0.000002 -0.707103
vn 0.965925 0.000004 -0.258822
vn 0.965925 0.000004 -0.258822
vn 0.965925 0.000004 -0.258822
vn 0.965925 0.000004 -0.258822
vn 0.965925 0.000008 0.258823
vn 0.965925 0.000008 0.258823
vn 0.965925 0.000008 0.258823
vn 0.965925 0.000008 0.258823
vn 0.707109 0.000009 0.707104
vn 0.707109 0.000009 0.707104
vn 0.707109 0.000009 0.707104
vn 0.707109 0.000009 0.707104
vn 0.258824 0.000009 0.965924
vn 0.258824 0.000009 0.965924
vn 0.258824 0.000009 0.965924
vn 0.258824 0.000009 0.965924
vn -0.258825 0.000006 0.965924
vn -0.258825 0.000006 0.965924
vn -0.258825 0.000006 0.965924
vn -0.258825 0.000006 0.965924
vn -0.707109 -0.000002 0.707104
vn -0.707109 -0.000002 0.707104
vn -0.707109 -0.000002 0.707104
vn -0.707109 -0.000002 0.707104
vn -0.965925 -0.000002 0.258822
vn -0.965925 -0.000002 0.258822
vn -0.965925 -0.000002 0.258822
vn -0.965925 -0.000002 0.258822
vn -0.707108 -0.000003 -0.707105
vn -0.707108 -0.000003 -0.707105
vn -0.707108 -0.000003 -0.707105
vn -0.707108 -0.000003 -0.707105
vn -0.258825 -0.000001 -0.965924
vn -0.258825 -0.000001 -0.965924
vn -0.258825 -0.000001 -0.965924
vn -0.258825 -0.000001 -0.965924
vn 0.258823 0.000000 -0.965925
vn 0.258823 0.000000 -0.965925
vn 0.258823 0.000000 -0.965925
vn 0.258823 0.000000 -0.965925
vn 0.707114 0.000003 -0.707100
vn 0.707114 0.000003 -0.707100
vn 0.707114 0.000003 -0.707100
vn 0.707114 0.000003 -0.707100
vn 0.965925 0.000005 0.258823
vn 0.965925 0.000005 0.258823
vn 0.965925 0.000005 0.258823
vn 0.965925 0.000005 0.258823
vn 0.707112 0.000003 0.707102
vn 0.707112 0.000003 0.707102
vn 0.707112 0.000003 0.707102
vn 0.707112 0.000003 0.707102
vn 0.258823 0.000001 0.965925
vn 0.258823 0.000001 0.965925
vn 0.258823 0.000001 0.965925
vn 0.258823 0.000001 0.965925
vn -0.258825 -0.000001 0.965924
vn -0.258825 -0.000001 0.965924
vn -0.258825 -0.000001 0.965924
vn -0.258825 -0.000001 0.965924
vn -0.000000 -0.000000 1.000000
vn -0.000000 -0.000000 1.000000
vn -0.000000 -0.000000 1.000000
vn -0.000000 -0.000000 1.000000
vn 0.500000 -0.000000 0.866026
vn 0.500000 -0.000000 0.866026
vn 0.500000 -0.000000 0.866026
vn 0.500000 -0.000000 0.866026
vn 0.866025 0.000000 0.500000
vn 0.866025 0.000000 0.500000
vn 0.866025 0.000000 0.500000
vn 0.866025 0.000000 0.500000
vn 1.000000 0.000000 0.000000
vn 1.000000 0.000000 0.000000
vn 1.000000 0.000000 0.000000
vn 1.000000 0.000000 0.000000
vn 0.866025 0.000000 -0.500000
vn 0.866025 0.000000 -0.500000
vn 0.866025 0.000000 -0.500000
vn 0.866025 0.000000 -0.500000
vn 0.500000 0.000000 -0.866025
vn 0.500000 0.000000 -0.866025
vn 0.500000 0.000000 -0.866025
vn 0.500000 0.000000 -0.866025
vn 0.000000 0.000000 -1.000000
vn 0.000000 0.000000 -1.000000
vn 0.000000 0.000000 -1.000000
vn 0.000000 0.000000 -1.000000
vn -0.500000 0.000000 -0.866025
vn -0.500000 0.000000 -0.866025
vn -0.500000 0.000000 -0.866025
vn -0.500000 0.000000 -0.866025
vn -0.866025 -0.000000 -0.500000
vn -0.866025 -0.000000 -0.500000
vn -0.866025 -0.000000 -0.500000
vn -0.866025 -0.000000 -0.500000
vn -1.000000 -0.000000 -0.000000
vn -1.000000 -0.000000 -0.000000
vn -1.000000 -0.000000 -0.000000
vn -1.000000 -0.000000 -0.000000
vn -0.866026 -0.000000 0.500000
vn -0.866026 -0.000000 0.500000
vn -0.866026 -0.000000 0.500000
vn -0.866026 -0.000000 0.500000
vn -0.500000 -0.000000 0.866026
vn -0.500000 -0.000000 0.866026
vn -0.500000 -0.000000 0.866026
vn -0.500000 -0.000000 0.866026
vn -0.000000 1.000000 0.000000
vn -0.000000 1.000000 0.000000
vn -0.000000 1.000000 0.000000
vn -0.000000 1.000000 0.000000
vn -0.000000 1.000000 0.000000
vn -0.000000 1.000000 0.000000
vn -0.000000 1.000000 0.000000
vn -0.000000 1.000000 0.000000
vn -0.000000 1.000000 0.000000
vn -0.000000 1.000000 0.000000
vn -0.000000 1.000000 0.000000
vn -0.000000 1.000000 0.000000
vn 0.000000 -1.000000 -0.000000
vn 0.000000 -1.000000 -0.000000
vn 0.000000 -1.000000 -0.000000
vn 0.000000 -1.000000 -0.000000
vn 0.000000 -1.000000 -0.000000
vn 0.000000 -1.000000 -0.000000
vn 0.000000 -1.000000 -0.000000
vn 0.000000 -1.000000 -0.000000
vn 0.000000 -1.000000 -0.000000
vn 0.000000 -1.000000 -0.000000
vn 0.000000 -1.000000 -0.000000
vn 0.000000 -1.000000 -0.000000

vt -0.018080 -0.083465
vt -0.020050 -0.079295
vt -0.015447 -0.077120
vt -0.013477 -0.081290
vt -0.011457 -0.090549
vt -0.013587 -0.086459
vt -0.009073 -0.084107
vt -0.006942 -0.088197
vt -0.000000 -0.081530
vt -0.002942 -0.077978
vt 0.000979 -0.074731
vt 0.003921 -0.078283
vt 0.025042 -0.057081
vt 0.020497 -0.056298
vt 0.021362 -0.051281
vt 0.025907 -0.052064
vt 0.033024 -0.040254
vt 0.029611 -0.043357
vt 0.026187 -0.039590
vt 0.029599 -0.036487
vt 0.026087 -0.059100
vt 0.023796 -0.063103
vt 0.019377 -0.060574
vt 0.021668 -0.056571
vt 0.020050 -0.079295
vt 0.018080 -0.083465
vt 0.013477 -0.081290
vt 0.015447 -0.077120
vt 0.013587 -0.086459
vt 0.011456 -0.090549
vt 0.006941 -0.088197
vt 0.009072 -0.084107
vt -0.020497 -0.056298
vt -0.025042 -0.057081
vt -0.025907 -0.052064
vt -0.021362 -0.051281
vt -0.029611 -0.043357
vt -0.033024 -0.040255
vt -0.029599 -0.036488
vt -0.026187 -0.039590
vt -0.023795 -0.063102
vt -0.026086 -0.059100
vt -0.021668 -0.056571
vt -0.019377 -0.060573
vt -0.021894 -0.028012
vt -0.018481 -0.031115
vt -0.023618 -0.036765
vt -0.027031 -0.033663
vt -0.027851 -0.040776
vt -0.023307 -0.039993
vt -0.022010 -0.047518
vt -0.026555 -0.048301
vt -0.003217 -0.082904
vt -0.001086 -0.078814
vt 0.005687 -0.082343
vt 0.003556 -0.086433
vt 0.003120 -0.076397
vt 0.005090 -0.072228
vt 0.011994 -0.075489
vt 0.010025 -0.079659
vt 0.009436 -0.054883
vt 0.011727 -0.050881
vt 0.018355 -0.054675
vt 0.016064 -0.058677
vt 0.018482 -0.031114
vt 0.021894 -0.028012
vt 0.027031 -0.033663
vt 0.023618 -0.036765
vt 0.023307 -0.039993
vt 0.027851 -0.040776
vt 0.026555 -0.048301
vt 0.022010 -0.047518
vt 0.009801 -0.067425
vt 0.012743 -0.070977
vt 0.006861 -0.075847
vt 0.003920 -0.072296
vt 0.001086 -0.078814
vt 0.003217 -0.082904
vt -0.003556 -0.086433
vt -0.005687 -0.082343
vt -0.005090 -0.072228
vt -0.003120 -0.076397
vt -0.010025 -0.079659
vt -0.011995 -0.075490
vt -0.011727 -0.050881
vt -0.009436 -0.054883
vt -0.016064 -0.058677
vt -0.018355 -0.054675
vt -0.015901 -0.021420
vt -0.012488 -0.024522
vt -0.018481 -0.031114
vt -0.021894 -0.028012
vt -0.029364 -0.031996
vt -0.024819 -0.031213
vt -0.023307 -0.039993
vt -0.027851 -0.040776
vt -0.011118 -0.078787
vt -0.008987 -0.074698
vt -0.001086 -0.078814
vt -0.003217 -0.082904
vt -0.004936 -0.072592
vt -0.002966 -0.068422
vt 0.005090 -0.072227
vt 0.003120 -0.076397
vt 0.001704 -0.050457
vt 0.003995 -0.046455
vt 0.011727 -0.050881
vt 0.009436 -0.054883
vt 0.012488 -0.024522
vt 0.015901 -0.021420
vt 0.021894 -0.028012
vt 0.018482 -0.031114
vt 0.016663 -0.061743
vt 0.019605 -0.065295
vt 0.012743 -0.070977
vt 0.009801 -0.067425
vt 0.008987 -0.074698
vt 0.011118 -0.078787
vt 0.003217 -0.082904
vt 0.001086 -0.078814
vt 0.002966 -0.068422
vt 0.004936 -0.072592
vt -0.003120 -0.076397
vt -0.005090 -0.072227
vt -0.003995 -0.046455
vt -0.001704 -0.050457
vt -0.009436 -0.054883
vt -0.011727 -0.050881
vt -0.001179 -0.056999
vt -0.001606 -0.056146
vt 0.001809 -0.054438
vt 0.002236 -0.055292
vt 0.004851 -0.071619
vt 0.004439 -0.070758
vt 0.007883 -0.069110
vt 0.008295 -0.069971
vt 0.011615 -0.069305
vt 0.011113 -0.068493
vt 0.014361 -0.066486
vt 0.014863 -0.067298
vt 0.022003 -0.048338
vt 0.021226 -0.047783
vt 0.023445 -0.044676
vt 0.024222 -0.045231
vt 0.023111 -0.019596
vt 0.022219 -0.019936
vt 0.020858 -0.016369
vt 0.021750 -0.016029
vt 0.009295 -0.032350
vt 0.008734 -0.033122
vt 0.005646 -0.030876
vt 0.006207 -0.030104
vt 0.001179 -0.056999
vt 0.000752 -0.057853
vt -0.002663 -0.056146
vt -0.002236 -0.055292
vt -0.004851 -0.071619
vt -0.005263 -0.072480
vt -0.008707 -0.070832
vt -0.008295 -0.069971
vt -0.011615 -0.069305
vt -0.012117 -0.070117
vt -0.015365 -0.068110
vt -0.014863 -0.067298
vt -0.022003 -0.048338
vt -0.022779 -0.048893
vt -0.024999 -0.045786
vt -0.024222 -0.045231
vt -0.023111 -0.019596
vt -0.024003 -0.019256
vt -0.022642 -0.015688
vt -0.021750 -0.016029
vt -0.009295 -0.032350
vt -0.009857 -0.031578
vt -0.006769 -0.029332
vt -0.006207 -0.030104
vt -0.028148 -0.063629
vt -0.028229 -0.062644
vt -0.027805 -0.061751
vt -0.026993 -0.061189
vt -0.026008 -0.061109
vt -0.025115 -0.061532
vt -0.024553 -0.062345
vt -0.024472 -0.063329
vt -0.024895 -0.064223
vt -0.025708 -0.064784
vt -0.026693 -0.064865
vt -0.027586 -0.064442
vt 0.027586 -0.064442
vt 0.026693 -0.064865
vt 0.025708 -0.064784
vt 0.024895 -0.064223
vt 0.024472 -0.063329
vt 0.024553 -0.062345
vt 0.025115 -0.061532
vt 0.026008 -0.061109
vt 0.026993 -0.061189
vt 0.027805 -0.061751
vt 0.028229 -0.062644
vt 0.028148 -0.063629
s off
f 1/1/1 2/2/2 3/3/3
f 1/1/1 3/3/3 4/4/4
f 5/5/5 6/6/6 7/7/7
f 5/5/5 7/7/7 8/8/8
f 9/9/9 10/10/10 11/11/11
f 9/9/9 11/11/11 12/12/12
f 13/13/13 14/14/14 15/15/15
f 13/13/13 15/15/15 16/16/16
f 17/17/17 18/18/18 19/19/19
f 17/17/17 19/19/19 20/20/20
f 21/21/21 22/22/22 23/23/23
f 21/21/21 23/23/23 24/24/24
f 25/25/25 26/26/26 27/27/27
f 25/25/25 27/27/27 28/28/28
f 29/29/29 30/30/30 31/31/31
f 29/29/29 31/31/31 32/32/32
f 33/33/33 34/34/34 35/35/35
f 33/33/33 35/35/35 36/36/36
f 37/37/37 38/38/38 39/39/39
f 37/37/37 39/39/39 40/40/40
f 41/41/41 42/42/42 43/43/43
f 41/41/41 43/43/43 44/44/44
f 45/45/45 46/46/46 47/47/47
f 45/45/45 47/47/47 48/48/48
f 49/49/49 50/50/50 51/51/51
f 49/49/49 51/51/51 52/52/52
f 53/53/53 54/54/54 55/55/55
f 53/53/53 55/55/55 56/56/56
f 57/57/57 58/58/58 59/59/59
f 57/57/57 59/59/59 60/60/60
f 61/61/61 62/62/62 63/63/63
f 61/61/61 63/63/63 64/64/64
f 65/65/65 66/66/66 67/67/67
f 65/65/65 67/67/67 68/68/68
f 69/69/69 70/70/70 71/71/71
f 69/69/69 71/71/71 72/72/72
f 73/73/73 74/74/74 75/75/75
f 73/73/73 75/75/75 76/76/76
f 77/77/77 78/78/78 79/79/79
f 77/77/77 79/79/79 80/80/80
f 81/81/81 82/82/82 83/83/83
f 81/81/81 83/83/83 84/84/84
f 85/85/85 86/86/86 87/87/87
f 85/85/85 87/87/87 88/88/88
f 89/89/89 90/90/90 91/91/91
f 89/89/89 91/91/91 92/92/92
f 93/93/93 94/94/94 95/95/95
f 93/93/93 95/95/95 96/96/96
f 97/97/97 98/98/98 99/99/99
f 97/97/97 99/99/99 100/100/100
f 101/101/101 102/102/102 103/103/103
f 101/101/101 103/103/103 104/104/104
f 105/105/105 106/106/106 107/107/107
f 105/105/105 107/107/107 108/108/108
f 109/109/109 110/110/110 111/111/111
f 109/109/109 111/111/111 112/112/112
f 113/113/113 114/114/114 115/115/115
f 113/113/113 115/115/115 116/116/116
f 117/117/117 118/118/118 119/119/119
f 117/117/117 119/119/119 120/120/120
f 121/121/121 122/122/122 123/123/123
f 121/121/121 123/123/123 124/124/124
f 125/125/125 126/126/126 127/127/127
f 125/125/125 127/127/127 128/128/128
f 129/129/129 130/130/130 131/131/131
f 129/129/129 131/131/131 132/132/132
f 133/133/133 134/134/134 135/135/135
f 133/133/133 135/135/135 136/136/136
f 137/137/137 138/138/138 139/139/139
f 137/137/137 139/139/139 140/140/140
f 141/141/141 142/142/142 143/143/143
f 141/141/141 143/143/143 144/144/144
f 145/145/145 146/146/146 147/147/147
f 145/145/145 147/147/147 148/148/148
f 149/149/149 150/150/150 151/151/151
f 149/149/149 151/151/151 152/152/152
f 153/153/153 154/154/154 155/155/155
f 153/153/153 155/155/155 156/156/156
f 157/157/157 158/158/158 159/159/159
f 157/157/157 159/159/159 160/160/160
f 161/161/161 162/162/162 163/163/163
f 161/161/161 163/163/163 164/164/164
f 165/165/165 166/166/166 167/167/167
f 165/165/165 167/167/167 168/168/168
f 169/169/169 170/170/170 171/171/171
f 169/169/169 171/171/171 172/172/172
f 173/173/173 174/174/174 175/175/175
f 173/173/173 175/175/175 176/176/176
f 177/177/177 178/178/178 179/179/179
f 177/177/177 179/179/179 180/180/180
f 177/177/177 180/180/180 181/181/181
f 177/177/177 181/181/181 182/182/182
f 177/177/177 182/182/182 183/183/183
f 177/177/177 183/183/183 184/184/184
f 177/177/177 184/184/184 185/185/185
f 177/177/177 185/185/185 186/186/186
f 177/177/177 186/186/186 187/187/187
f 177/177/177 187/187/187 188/188/188
f 189/189/189 190/190/190 191/191/191
f 189/189/189 191/191/191 192/192/192
f 189/189/189 192/192/192 193/193/193
f 189/189/189 193/193/193 194/194/194
f 189/189/189 194/194/194 195/195/195
f 189/189/189 195/195/195 196/196/196
f 189/189/189 196/196/196 197/197/197
f 189/189/189 197/197/197 198/198/198
f 189/189/189 198/198/198 199/199/199
f 189/189/189 199/199/199 200/200/200
