# Exported using automatic converter by Erwin Coumans
mtllib model6.mtl
#object group1888307163_1

v 2.889089 -1.012351 -0.398237
v 2.875600 -1.012177 -0.442337
v 2.877457 -0.961303 -0.442704
v 2.890946 -0.961477 -0.398605
v 2.878851 -0.923148 -0.442980
v 2.892339 -0.923321 -0.398881
v 2.890946 -0.961477 -0.398605
v 2.877457 -0.961303 -0.442704
v 2.881638 -0.846837 -0.443532
v 2.895126 -0.847011 -0.399432
v 2.892339 -0.923321 -0.398881
v 2.878851 -0.923148 -0.442980
v 2.884888 -0.757808 -0.444175
v 2.898377 -0.757981 -0.400076
v 2.895126 -0.847011 -0.399432
v 2.881638 -0.846837 -0.443532
v 2.767629 -0.752616 -0.318298
v 2.733913 -0.751613 -0.349746
v 2.730662 -0.840642 -0.349102
v 2.764378 -0.841646 -0.317654
v 2.885817 -0.732371 -0.444359
v 2.899306 -0.732544 -0.400260
v 2.898377 -0.757981 -0.400076
v 2.884888 -0.757808 -0.444175
usemtl mat21

vn 0.955573 -0.037004 -0.292422
vn 0.955573 -0.037004 -0.292422
vn 0.955573 -0.037004 -0.292422
vn 0.955573 -0.037004 -0.292422
vn 0.955573 -0.037014 -0.292422
vn 0.955573 -0.037014 -0.292422
vn 0.955573 -0.037014 -0.292422
vn 0.955573 -0.037014 -0.292422
vn 0.955573 -0.037008 -0.292422
vn 0.955573 -0.037008 -0.292422
vn 0.955573 -0.037008 -0.292422
vn 0.955573 -0.037008 -0.292422
vn 0.955573 -0.037004 -0.292422
vn 0.955573 -0.037004 -0.292422
vn 0.955573 -0.037004 -0.292422
vn 0.955573 -0.037004 -0.292422
vn -0.681302 0.030166 0.731381
vn -0.681302 0.030166 0.731381
vn -0.681302 0.030166 0.731381
vn -0.681302 0.030166 0.731381
vn 0.955573 -0.037014 -0.292422
vn 0.955573 -0.037014 -0.292422
vn 0.955573 -0.037014 -0.292422
vn 0.955573 -0.037014 -0.292422

vt 0.118070 -0.055040
vt 0.113478 -0.054606
vt 0.113958 -0.049538
vt 0.118549 -0.049972
vt 0.114317 -0.045734
vt 0.118908 -0.046168
vt 0.118549 -0.049969
vt 0.113958 -0.049536
vt 0.115036 -0.038133
vt 0.119627 -0.038567
vt 0.118908 -0.046170
vt 0.114317 -0.045736
vt 0.115874 -0.029265
vt 0.120465 -0.029699
vt 0.119627 -0.038568
vt 0.115035 -0.038134
vt -0.176384 0.131721
vt -0.172930 0.128666
vt -0.178833 0.121993
vt -0.182287 0.125049
vt 0.116113 -0.026728
vt 0.120705 -0.027162
vt 0.120465 -0.029696
vt 0.115874 -0.029262
s off
f 1/1/1 2/2/2 3/3/3
f 1/1/1 3/3/3 4/4/4
f 5/5/5 6/6/6 7/7/7
f 5/5/5 7/7/7 8/8/8
f 9/9/9 10/10/10 11/11/11
f 9/9/9 11/11/11 12/12/12
f 13/13/13 14/14/14 15/15/15
f 13/13/13 15/15/15 16/16/16
f 17/17/17 18/18/18 19/19/19
f 17/17/17 19/19/19 20/20/20
f 21/21/21 22/22/22 23/23/23
f 21/21/21 23/23/23 24/24/24
