# Exported using automatic converter by Erwin Coumans
mtllib botlab.mtl
#object mesh1589463068

v -1.551762 -0.004511 2.339852
v -1.556762 -0.004511 2.341191
v -1.556762 0.035489 2.341191
v -1.551762 0.035489 2.339852
v -1.556762 -0.004511 2.341191
v -1.560422 -0.004511 2.344851
v -1.560422 0.035489 2.344851
v -1.556762 0.035489 2.341191
v -1.560422 -0.004511 2.344851
v -1.561762 -0.004511 2.349852
v -1.561762 0.035489 2.349852
v -1.560422 0.035489 2.344851
v -1.561762 -0.004511 2.349852
v -1.560422 -0.004511 2.354852
v -1.560422 0.035489 2.354852
v -1.561762 0.035489 2.349852
v -1.560422 -0.004511 2.354852
v -1.556762 -0.004511 2.358512
v -1.556762 0.035489 2.358512
v -1.560422 0.035489 2.354852
v -1.556762 -0.004511 2.358512
v -1.551762 -0.004511 2.359852
v -1.551762 0.035489 2.359852
v -1.556762 0.035489 2.358512
v -1.551762 -0.004511 2.359852
v -1.546762 -0.004511 2.358512
v -1.546762 0.035489 2.358512
v -1.551762 0.035489 2.359852
v -1.546762 -0.004511 2.358512
v -1.543102 -0.004511 2.354852
v -1.543102 0.035489 2.354852
v -1.546762 0.035489 2.358512
v -1.543102 -0.004511 2.354852
v -1.541762 -0.004511 2.349852
v -1.541762 0.035489 2.349852
v -1.543102 0.035489 2.354852
v -1.541762 -0.004511 2.349852
v -1.543102 -0.004511 2.344852
v -1.543102 0.035489 2.344851
v -1.541762 0.035489 2.349852
v -1.543102 -0.004511 2.344852
v -1.546762 -0.004511 2.341191
v -1.546762 0.035489 2.341191
v -1.543102 0.035489 2.344851
v -1.546762 -0.004511 2.341191
v -1.551762 -0.004511 2.339852
v -1.551762 0.035489 2.339852
v -1.546762 0.035489 2.341191
v -1.551762 0.035489 2.339852
v -1.556762 0.035489 2.341191
v -1.560422 0.035489 2.344851
v -1.561762 0.035489 2.349852
v -1.560422 0.035489 2.354852
v -1.556762 0.035489 2.358512
v -1.551762 0.035489 2.359852
v -1.546762 0.035489 2.358512
v -1.543102 0.035489 2.354852
v -1.541762 0.035489 2.349852
v -1.543102 0.035489 2.344851
v -1.546762 0.035489 2.341191
v -1.546762 -0.004511 2.341191
v -1.543102 -0.004511 2.344852
v -1.541762 -0.004511 2.349852
v -1.543102 -0.004511 2.354852
v -1.546762 -0.004511 2.358512
v -1.551762 -0.004511 2.359852
v -1.556762 -0.004511 2.358512
v -1.560422 -0.004511 2.354852
v -1.561762 -0.004511 2.349852
v -1.560422 -0.004511 2.344851
v -1.556762 -0.004511 2.341191
v -1.551762 -0.004511 2.339852
usemtl mat21

vn 0.000000 -0.000000 -1.000000
vn 0.000000 -0.000000 -1.000000
vn 0.000000 -0.000000 -1.000000
vn 0.000000 -0.000000 -1.000000
vn -0.500000 -0.000000 -0.866025
vn -0.500000 -0.000000 -0.866025
vn -0.500000 -0.000000 -0.866025
vn -0.500000 -0.000000 -0.866025
vn -0.866025 -0.000000 -0.500000
vn -0.866025 -0.000000 -0.500000
vn -0.866025 -0.000000 -0.500000
vn -0.866025 -0.000000 -0.500000
vn -1.000000 0.000000 -0.000000
vn -1.000000 0.000000 -0.000000
vn -1.000000 0.000000 -0.000000
vn -1.000000 0.000000 -0.000000
vn -0.866025 0.000000 0.500000
vn -0.866025 0.000000 0.500000
vn -0.866025 0.000000 0.500000
vn -0.866025 0.000000 0.500000
vn -0.500000 0.000000 0.866025
vn -0.500000 0.000000 0.866025
vn -0.500000 0.000000 0.866025
vn -0.500000 0.000000 0.866025
vn 0.000000 0.000000 1.000000
vn 0.000000 0.000000 1.000000
vn 0.000000 0.000000 1.000000
vn 0.000000 0.000000 1.000000
vn 0.500000 0.000000 0.866025
vn 0.500000 0.000000 0.866025
vn 0.500000 0.000000 0.866025
vn 0.500000 0.000000 0.866025
vn 0.866025 0.000000 0.500000
vn 0.866025 0.000000 0.500000
vn 0.866025 0.000000 0.500000
vn 0.866025 0.000000 0.500000
vn 1.000000 -0.000000 0.000000
vn 1.000000 -0.000000 0.000000
vn 1.000000 -0.000000 0.000000
vn 1.000000 -0.000000 0.000000
vn 0.866026 -0.000000 -0.500000
vn 0.866026 -0.000000 -0.500000
vn 0.866026 -0.000000 -0.500000
vn 0.866026 -0.000000 -0.500000
vn 0.500000 -0.000000 -0.866026
vn 0.500000 -0.000000 -0.866026
vn 0.500000 -0.000000 -0.866026
vn 0.500000 -0.000000 -0.866026
vn 0.000000 1.000000 -0.000000
vn 0.000000 1.000000 -0.000000
vn 0.000000 1.000000 -0.000000
vn 0.000000 1.000000 -0.000000
vn 0.000000 1.000000 -0.000000
vn 0.000000 1.000000 -0.000000
vn 0.000000 1.000000 -0.000000
vn 0.000000 1.000000 -0.000000
vn 0.000000 1.000000 -0.000000
vn 0.000000 1.000000 -0.000000
vn 0.000000 1.000000 -0.000000
vn 0.000000 1.000000 -0.000000
vn -0.000000 -1.000000 0.000000
vn -0.000000 -1.000000 0.000000
vn -0.000000 -1.000000 0.000000
vn -0.000000 -1.000000 0.000000
vn -0.000000 -1.000000 0.000000
vn -0.000000 -1.000000 0.000000
vn -0.000000 -1.000000 0.000000
vn -0.000000 -1.000000 0.000000
vn -0.000000 -1.000000 0.000000
vn -0.000000 -1.000000 0.000000
vn -0.000000 -1.000000 0.000000
vn -0.000000 -1.000000 0.000000

vt -0.126114 -0.144897
vt -0.126338 -0.145344
vt -0.129916 -0.143556
vt -0.129692 -0.143108
vt -0.182784 -0.270694
vt -0.183000 -0.271145
vt -0.186608 -0.269418
vt -0.186392 -0.268967
vt -0.237195 -0.292598
vt -0.237458 -0.293023
vt -0.240861 -0.290921
vt -0.240598 -0.290496
vt -0.291549 -0.149262
vt -0.291956 -0.149553
vt -0.294281 -0.146298
vt -0.293874 -0.146007
vt -0.158170 0.111701
vt -0.158637 0.111879
vt -0.157212 0.115616
vt -0.156745 0.115438
vt 0.038278 0.028977
vt 0.037984 0.029381
vt 0.041218 0.031734
vt 0.041513 0.031330
vt 0.126114 -0.144897
vt 0.125891 -0.144450
vt 0.129468 -0.142661
vt 0.129692 -0.143108
vt 0.182784 -0.270694
vt 0.182568 -0.270243
vt 0.186176 -0.268516
vt 0.186392 -0.268967
vt 0.237195 -0.292598
vt 0.236933 -0.292172
vt 0.240335 -0.290070
vt 0.240598 -0.290496
vt 0.291549 -0.149262
vt 0.291142 -0.148971
vt 0.293467 -0.145717
vt 0.293874 -0.146007
vt 0.158170 0.111701
vt 0.157703 0.111522
vt 0.156278 0.115260
vt 0.156745 0.115438
vt -0.038278 0.028977
vt -0.038572 0.028572
vt -0.041807 0.030925
vt -0.041513 0.031330
vt -0.241624 -0.283801
vt -0.241582 -0.284317
vt -0.241804 -0.284784
vt -0.242230 -0.285079
vt -0.242745 -0.285121
vt -0.243213 -0.284899
vt -0.243508 -0.284473
vt -0.243550 -0.283957
vt -0.243328 -0.283490
vt -0.242902 -0.283195
vt -0.242386 -0.283153
vt -0.241918 -0.283375
vt 0.241918 -0.283375
vt 0.242386 -0.283153
vt 0.242902 -0.283195
vt 0.243328 -0.283490
vt 0.243550 -0.283957
vt 0.243508 -0.284473
vt 0.243213 -0.284899
vt 0.242745 -0.285121
vt 0.242230 -0.285079
vt 0.241804 -0.284784
vt 0.241582 -0.284317
vt 0.241624 -0.283801
s off
f 1/1/1 2/2/2 3/3/3
f 1/1/1 3/3/3 4/4/4
f 5/5/5 6/6/6 7/7/7
f 5/5/5 7/7/7 8/8/8
f 9/9/9 10/10/10 11/11/11
f 9/9/9 11/11/11 12/12/12
f 13/13/13 14/14/14 15/15/15
f 13/13/13 15/15/15 16/16/16
f 17/17/17 18/18/18 19/19/19
f 17/17/17 19/19/19 20/20/20
f 21/21/21 22/22/22 23/23/23
f 21/21/21 23/23/23 24/24/24
f 25/25/25 26/26/26 27/27/27
f 25/25/25 27/27/27 28/28/28
f 29/29/29 30/30/30 31/31/31
f 29/29/29 31/31/31 32/32/32
f 33/33/33 34/34/34 35/35/35
f 33/33/33 35/35/35 36/36/36
f 37/37/37 38/38/38 39/39/39
f 37/37/37 39/39/39 40/40/40
f 41/41/41 42/42/42 43/43/43
f 41/41/41 43/43/43 44/44/44
f 45/45/45 46/46/46 47/47/47
f 45/45/45 47/47/47 48/48/48
f 49/49/49 50/50/50 51/51/51
f 49/49/49 51/51/51 52/52/52
f 49/49/49 52/52/52 53/53/53
f 49/49/49 53/53/53 54/54/54
f 49/49/49 54/54/54 55/55/55
f 49/49/49 55/55/55 56/56/56
f 49/49/49 56/56/56 57/57/57
f 49/49/49 57/57/57 58/58/58
f 49/49/49 58/58/58 59/59/59
f 49/49/49 59/59/59 60/60/60
f 61/61/61 62/62/62 63/63/63
f 61/61/61 63/63/63 64/64/64
f 61/61/61 64/64/64 65/65/65
f 61/61/61 65/65/65 66/66/66
f 61/61/61 66/66/66 67/67/67
f 61/61/61 67/67/67 68/68/68
f 61/61/61 68/68/68 69/69/69
f 61/61/61 69/69/69 70/70/70
f 61/61/61 70/70/70 71/71/71
f 61/61/61 71/71/71 72/72/72
