# Exported using automatic converter by Erwin Coumans
mtllib botlab.mtl
#object mesh524620121

v 0.717264 -0.706939 2.541546
v 0.709263 -0.693383 2.529208
v 0.727046 -0.690905 2.520399
v 0.735047 -0.704461 2.532737
v 0.731488 -0.676410 2.533443
v 0.713705 -0.678889 2.542253
v 0.721706 -0.692444 2.554591
v 0.739489 -0.689966 2.545782
v 0.727046 -0.690905 2.520399
v 0.731488 -0.676410 2.533443
v 0.739489 -0.689966 2.545782
v 0.735047 -0.704461 2.532737
v 0.721706 -0.692444 2.554591
v 0.713705 -0.678889 2.542253
v 0.709263 -0.693383 2.529208
v 0.717264 -0.706939 2.541546
v 0.739489 -0.689966 2.545782
v 0.721706 -0.692444 2.554591
v 0.717264 -0.706939 2.541546
v 0.735047 -0.704461 2.532737
v 0.709263 -0.693383 2.529208
v 0.713705 -0.678889 2.542253
v 0.731488 -0.676410 2.533443
v 0.727046 -0.690905 2.520399
usemtl mat6

vn -0.222113 -0.724736 -0.652245
vn -0.222113 -0.724736 -0.652245
vn -0.222113 -0.724736 -0.652245
vn -0.222113 -0.724736 -0.652245
vn 0.222113 0.724736 0.652245
vn 0.222113 0.724736 0.652245
vn 0.222113 0.724736 0.652245
vn 0.222113 0.724736 0.652245
vn 0.889174 0.123907 -0.440473
vn 0.889174 0.123907 -0.440473
vn 0.889174 0.123907 -0.440473
vn 0.889174 0.123907 -0.440473
vn -0.889174 -0.123907 0.440473
vn -0.889174 -0.123907 0.440473
vn -0.889174 -0.123907 0.440473
vn -0.889174 -0.123907 0.440473
vn 0.400045 -0.677794 0.616895
vn 0.400045 -0.677794 0.616895
vn 0.400045 -0.677794 0.616895
vn 0.400045 -0.677794 0.616895
vn -0.400045 0.677794 -0.616895
vn -0.400045 0.677794 -0.616895
vn -0.400045 0.677794 -0.616895
vn -0.400045 0.677794 -0.616895

vt 0.223962 -0.150910
vt 0.221982 -0.150626
vt 0.222266 -0.148646
vt 0.224246 -0.148931
vt -0.222266 -0.148646
vt -0.221982 -0.150626
vt -0.223962 -0.150910
vt -0.224246 -0.148931
vt 0.309093 0.098029
vt 0.309918 0.099851
vt 0.311739 0.099026
vt 0.310914 0.097205
vt -0.311739 0.099026
vt -0.309918 0.099851
vt -0.309092 0.098029
vt -0.310914 0.097205
vt 0.243488 -0.043994
vt 0.244092 -0.045901
vt 0.242186 -0.046505
vt 0.241581 -0.044599
vt -0.242186 -0.046505
vt -0.244092 -0.045901
vt -0.243488 -0.043994
vt -0.241581 -0.044599
s off
f 1/1/1 2/2/2 3/3/3
f 1/1/1 3/3/3 4/4/4
f 5/5/5 6/6/6 7/7/7
f 5/5/5 7/7/7 8/8/8
f 9/9/9 10/10/10 11/11/11
f 9/9/9 11/11/11 12/12/12
f 13/13/13 14/14/14 15/15/15
f 13/13/13 15/15/15 16/16/16
f 17/17/17 18/18/18 19/19/19
f 17/17/17 19/19/19 20/20/20
f 21/21/21 22/22/22 23/23/23
f 21/21/21 23/23/23 24/24/24
