# Exported using automatic converter by Erwin Coumans
mtllib model6.mtl
#object group1703443183_3

v 3.233237 0.475489 2.304852
v 3.123237 0.475489 2.304852
v 3.123237 0.405488 2.304852
v 3.233237 0.405488 2.304852
v 3.123238 0.405489 -2.615149
v 3.133238 0.475489 -2.595150
v 3.243238 0.475489 -2.595150
v 3.233238 0.405489 -2.615149
v 3.123237 0.405488 2.304852
v 3.123238 0.405489 -2.615149
v 3.233238 0.405489 -2.615149
v 3.233237 0.405488 2.304852
v 3.243238 0.475489 -2.595150
v 3.133238 0.475489 -2.595150
v 3.123237 0.475489 2.304852
v 3.233237 0.475489 2.304852
v 3.233238 0.405489 -2.615149
v 3.233237 0.475489 2.304852
v 3.233237 0.405488 2.304852
v 3.123237 0.475489 2.304852
v 3.123238 0.405489 -2.615149
v 3.123237 0.405488 2.304852
v 3.233238 0.405489 -2.615149
v 3.243238 0.475489 -2.595150
v 3.233237 0.475489 2.304852
v 3.123237 0.475489 2.304852
v 3.133238 0.475489 -2.595150
v 3.123238 0.405489 -2.615149
v 0.632286 0.495458 -2.529011
v 2.478238 1.445489 -2.564404
v 2.478238 1.395489 -2.564404
v 0.632286 0.445458 -2.529011
v 2.478239 1.395488 2.355597
v 2.468239 1.435488 2.355599
v 0.612286 0.495457 2.331005
v 0.622287 0.455457 2.331003
v 2.478238 1.395489 -2.564404
v 2.478239 1.395488 2.355597
v 0.622287 0.455457 2.331003
v 0.612286 0.495457 2.331005
v 2.468239 1.435488 2.355599
v 2.478238 1.445489 -2.564404
v 0.622287 0.455457 2.331003
v 0.632286 0.495458 -2.529011
v 0.632286 0.445458 -2.529011
v 2.478238 1.445489 -2.564404
v 2.478239 1.395488 2.355597
v 2.478238 1.395489 -2.564404
v 0.622287 0.455457 2.331003
v 0.632286 0.445458 -2.529011
v 2.478238 1.395489 -2.564404
v 2.478238 1.445489 -2.564404
v 0.632286 0.495458 -2.529011
v 0.612286 0.495457 2.331005
v 0.622287 0.455457 2.331003
v 0.612286 0.495457 2.331005
v 0.632286 0.495458 -2.529011
v 2.478238 1.445489 -2.564404
v 2.468239 1.435488 2.355599
v 2.478239 1.395488 2.355597
usemtl mat22

vn -0.000000 -0.000012 1.000000
vn -0.000000 -0.000012 1.000000
vn -0.000000 -0.000012 1.000000
vn -0.000000 -0.000012 1.000000
vn 0.000000 0.274710 -0.961527
vn 0.000000 0.274710 -0.961527
vn 0.000000 0.274710 -0.961527
vn 0.000000 0.274710 -0.961527
vn 0.000000 -1.000000 -0.000000
vn 0.000000 -1.000000 -0.000000
vn 0.000000 -1.000000 -0.000000
vn 0.000000 -1.000000 -0.000000
vn -0.000000 1.000000 0.000000
vn -0.000000 1.000000 0.000000
vn -0.000000 1.000000 0.000000
vn -0.000000 1.000000 0.000000
vn 1.000000 0.000000 0.000000
vn 1.000000 0.000000 0.000000
vn 1.000000 0.000000 0.000000
vn -1.000000 -0.000000 -0.000000
vn -1.000000 -0.000000 -0.000000
vn -1.000000 -0.000000 -0.000000
vn 0.989866 -0.141987 0.002020
vn 0.989866 -0.141987 0.002020
vn 0.989866 -0.141987 0.002020
vn -0.989867 0.141985 -0.002020
vn -0.989867 0.141985 -0.002020
vn -0.989867 0.141985 -0.002020
vn -0.019170 0.000003 -0.999816
vn -0.019170 0.000003 -0.999816
vn -0.019170 0.000003 -0.999816
vn -0.019170 0.000003 -0.999816
vn -0.011745 -0.002978 0.999927
vn -0.011745 -0.002978 0.999927
vn -0.011745 -0.002978 0.999927
vn -0.011745 -0.002978 0.999927
vn 0.451843 -0.892097 -0.000000
vn 0.451843 -0.892097 -0.000000
vn 0.451843 -0.892097 -0.000000
vn -0.451852 0.892092 0.000895
vn -0.451852 0.892092 0.000895
vn -0.451852 0.892092 0.000895
vn -0.999998 0.000003 -0.002057
vn -0.999998 0.000003 -0.002057
vn -0.999998 0.000003 -0.002057
vn 1.000000 -0.000000 -0.000000
vn 1.000000 -0.000000 -0.000000
vn 1.000000 -0.000000 -0.000000
vn 0.457649 -0.889129 0.002771
vn 0.457649 -0.889129 0.002771
vn 0.457649 -0.889129 0.002771
vn -0.457637 0.889137 -0.001883
vn -0.457637 0.889137 -0.001883
vn -0.457637 0.889137 -0.001883
vn -0.970131 -0.242550 -0.003992
vn -0.970131 -0.242550 -0.003992
vn -0.970131 -0.242550 -0.003992
vn 0.970142 0.242523 0.002465
vn 0.970142 0.242523 0.002465
vn 0.970142 0.242523 0.002465

vt -0.044941 0.304554
vt -0.040021 0.294715
vt -0.046282 0.291585
vt -0.051202 0.301424
vt 0.064937 0.276557
vt 0.058495 0.280093
vt 0.062426 0.290366
vt 0.068868 0.286831
vt 0.395565 0.157641
vt -0.067772 0.323118
vt -0.064072 0.333478
vt 0.399265 0.168000
vt 0.061852 0.333747
vt 0.065552 0.323388
vt -0.395565 0.157641
vt -0.399265 0.168000
vt -0.088639 0.172686
vt 0.315787 -0.107587
vt 0.311718 -0.113283
vt -0.315787 -0.107587
vt 0.088639 0.172686
vt -0.311718 -0.113283
vt -0.087109 0.197902
vt -0.081895 0.203080
vt 0.344899 -0.037644
vt -0.344151 -0.039016
vt 0.082643 0.201708
vt 0.087857 0.196530
vt -0.071957 0.075423
vt -0.074912 0.283040
vt -0.070434 0.280816
vt -0.067479 0.073199
vt 0.070032 0.282050
vt 0.074056 0.282948
vt 0.073157 0.074891
vt 0.069133 0.073993
vt -0.074730 0.316270
vt 0.393938 0.166557
vt 0.328289 -0.030872
vt -0.328505 -0.029978
vt -0.394153 0.167452
vt 0.074107 0.318442
vt -0.316395 -0.111559
vt 0.075978 0.175246
vt 0.078896 0.171185
vt -0.024061 0.254365
vt 0.373390 -0.035673
vt -0.026967 0.250296
vt 0.328607 -0.030514
vt -0.134211 0.117806
vt -0.074400 0.316643
vt 0.073757 0.318837
vt 0.133566 0.119999
vt -0.328843 -0.029599
vt -0.248737 -0.220758
vt -0.252161 -0.218461
vt 0.019003 0.184865
vt 0.017685 0.214595
vt 0.292080 -0.193784
vt 0.288662 -0.196088
s off
f 1/1/1 2/2/2 3/3/3
f 1/1/1 3/3/3 4/4/4
f 5/5/5 6/6/6 7/7/7
f 5/5/5 7/7/7 8/8/8
f 9/9/9 10/10/10 11/11/11
f 9/9/9 11/11/11 12/12/12
f 13/13/13 14/14/14 15/15/15
f 13/13/13 15/15/15 16/16/16
f 17/17/17 18/18/18 19/19/19
f 20/20/20 21/21/21 22/22/22
f 23/23/23 24/24/24 25/25/25
f 26/26/26 27/27/27 28/28/28
f 29/29/29 30/30/30 31/31/31
f 29/29/29 31/31/31 32/32/32
f 33/33/33 34/34/34 35/35/35
f 33/33/33 35/35/35 36/36/36
f 37/37/37 38/38/38 39/39/39
f 40/40/40 41/41/41 42/42/42
f 43/43/43 44/44/44 45/45/45
f 46/46/46 47/47/47 48/48/48
f 49/49/49 50/50/50 51/51/51
f 52/52/52 53/53/53 54/54/54
f 55/55/55 56/56/56 57/57/57
f 58/58/58 59/59/59 60/60/60
