# Exported using automatic converter by Erwin Coumans
mtllib model6.mtl
#object mesh1040804222

v 0.937884 2.028603 -0.590308
v 0.938400 2.040160 -0.598443
v 0.933405 2.040387 -0.598437
v 0.932889 2.028831 -0.590302
v 0.938400 2.040160 -0.598443
v 0.938016 2.032034 -0.610011
v 0.933021 2.032261 -0.610005
v 0.933405 2.040387 -0.598437
v 0.938016 2.032034 -0.610011
v 0.937500 2.020477 -0.601876
v 0.932505 2.020705 -0.601870
v 0.933021 2.032261 -0.610005
v 0.937500 2.020477 -0.601876
v 0.937884 2.028603 -0.590308
v 0.932889 2.028831 -0.590302
v 0.932505 2.020705 -0.601870
v 0.937500 2.020477 -0.601876
v 0.938016 2.032034 -0.610011
v 0.938400 2.040160 -0.598443
v 0.937884 2.028603 -0.590308
v 0.932889 2.028831 -0.590302
v 0.933405 2.040387 -0.598437
v 0.933021 2.032261 -0.610005
v 0.932505 2.020705 -0.601870
usemtl mat23

vn 0.027155 0.574579 0.817998
vn 0.027155 0.574579 0.817998
vn 0.027155 0.574579 0.817998
vn 0.027155 0.574579 0.817998
vn 0.036509 0.817184 -0.575219
vn 0.036509 0.817184 -0.575219
vn 0.036509 0.817184 -0.575219
vn 0.036509 0.817184 -0.575219
vn -0.027155 -0.574579 -0.817998
vn -0.027155 -0.574579 -0.817998
vn -0.027155 -0.574579 -0.817998
vn -0.027155 -0.574579 -0.817998
vn -0.036509 -0.817184 0.575219
vn -0.036509 -0.817184 0.575219
vn -0.036509 -0.817184 0.575219
vn -0.036509 -0.817184 0.575219
vn 0.998964 -0.045485 -0.001213
vn 0.998964 -0.045485 -0.001213
vn 0.998964 -0.045485 -0.001213
vn 0.998964 -0.045485 -0.001213
vn -0.998964 0.045485 0.001213
vn -0.998964 0.045485 0.001213
vn -0.998964 0.045485 0.001213
vn -0.998964 0.045485 0.001213

vt 0.129968 0.148367
vt 0.131146 0.149151
vt 0.131423 0.148735
vt 0.130246 0.147951
vt -0.169416 0.055314
vt -0.168003 0.055282
vt -0.168014 0.054782
vt -0.169428 0.054814
vt -0.131146 0.149151
vt -0.129968 0.148367
vt -0.130246 0.147951
vt -0.131423 0.148735
vt 0.168003 0.055282
vt 0.169416 0.055314
vt 0.169428 0.054814
vt 0.168014 0.054782
vt 0.162597 0.196105
vt 0.162549 0.197519
vt 0.163962 0.197567
vt 0.164010 0.196154
vt -0.164010 0.196154
vt -0.163962 0.197567
vt -0.162549 0.197519
vt -0.162597 0.196105
s off
f 1/1/1 2/2/2 3/3/3
f 1/1/1 3/3/3 4/4/4
f 5/5/5 6/6/6 7/7/7
f 5/5/5 7/7/7 8/8/8
f 9/9/9 10/10/10 11/11/11
f 9/9/9 11/11/11 12/12/12
f 13/13/13 14/14/14 15/15/15
f 13/13/13 15/15/15 16/16/16
f 17/17/17 18/18/18 19/19/19
f 17/17/17 19/19/19 20/20/20
f 21/21/21 22/22/22 23/23/23
f 21/21/21 23/23/23 24/24/24
