# Exported using automatic converter by Erwin Coumans
mtllib botlab.mtl
#object mesh1487957110

v -0.314477 -0.994042 1.384815
v -0.410013 -0.992499 1.391070
v -0.414602 -1.061916 1.383314
v -0.319067 -1.063460 1.377059
v -0.329759 -1.058055 1.298540
v -0.325170 -0.988637 1.306295
v -0.229634 -0.990180 1.300040
v -0.234224 -1.059598 1.292285
v -0.414602 -1.061916 1.383314
v -0.329759 -1.058055 1.298540
v -0.234224 -1.059598 1.292285
v -0.319067 -1.063460 1.377059
v -0.229634 -0.990180 1.300040
v -0.325170 -0.988637 1.306295
v -0.410013 -0.992499 1.391070
v -0.314477 -0.994042 1.384815
v -0.234224 -1.059598 1.292285
v -0.229634 -0.990180 1.300040
v -0.314477 -0.994042 1.384815
v -0.319067 -1.063460 1.377059
v -0.410013 -0.992499 1.391070
v -0.325170 -0.988637 1.306295
v -0.329759 -1.058055 1.298540
v -0.414602 -1.061916 1.383314
v -0.683275 -0.991439 1.380937
v -0.778632 -0.989837 1.389483
v -0.783104 -1.059594 1.385751
v -0.687747 -1.061196 1.377205
v -0.700409 -1.060244 1.298797
v -0.695936 -0.990486 1.302529
v -0.600580 -0.992088 1.293983
v -0.605052 -1.061846 1.290251
v -0.783104 -1.059594 1.385751
v -0.700409 -1.060244 1.298797
v -0.605052 -1.061846 1.290251
v -0.687747 -1.061196 1.377205
v -0.600580 -0.992088 1.293983
v -0.695936 -0.990486 1.302529
v -0.778632 -0.989837 1.389483
v -0.683275 -0.991439 1.380937
v -0.605052 -1.061846 1.290251
v -0.600580 -0.992088 1.293983
v -0.683275 -0.991439 1.380937
v -0.687747 -1.061196 1.377205
v -0.778632 -0.989837 1.389483
v -0.695936 -0.990486 1.302529
v -0.700409 -1.060244 1.298797
v -0.783104 -1.059594 1.385751
v -0.497136 -0.991739 1.383564
v -0.592772 -0.991473 1.388287
v -0.596249 -1.061074 1.381679
v -0.500614 -1.061340 1.376957
v -0.510125 -1.057451 1.298195
v -0.506648 -0.987850 1.304803
v -0.411013 -0.988116 1.300080
v -0.414490 -1.057716 1.293473
v -0.596249 -1.061074 1.381679
v -0.510125 -1.057451 1.298195
v -0.414490 -1.057716 1.293473
v -0.500614 -1.061340 1.376957
v -0.411013 -0.988116 1.300080
v -0.506648 -0.987850 1.304803
v -0.592772 -0.991473 1.388287
v -0.497136 -0.991739 1.383564
v -0.414490 -1.057716 1.293473
v -0.411013 -0.988116 1.300080
v -0.497136 -0.991739 1.383564
v -0.500614 -1.061340 1.376957
v -0.592772 -0.991473 1.388287
v -0.506648 -0.987850 1.304803
v -0.510125 -1.057451 1.298195
v -0.596249 -1.061074 1.381679
v -0.130099 -0.988997 1.387509
v -0.225823 -0.989539 1.389777
v -0.228646 -1.058620 1.378831
v -0.132922 -1.058078 1.376563
v -0.140461 -1.049412 1.297970
v -0.137638 -0.980330 1.308915
v -0.041914 -0.979788 1.306647
v -0.044736 -1.048870 1.295702
v -0.228646 -1.058620 1.378831
v -0.140461 -1.049412 1.297970
v -0.044736 -1.048870 1.295702
v -0.132922 -1.058078 1.376563
v -0.041914 -0.979788 1.306647
v -0.137638 -0.980330 1.308915
v -0.225823 -0.989539 1.389777
v -0.130099 -0.988997 1.387509
v -0.044736 -1.048870 1.295702
v -0.041914 -0.979788 1.306647
v -0.130099 -0.988997 1.387509
v -0.132922 -1.058078 1.376563
v -0.225823 -0.989539 1.389777
v -0.137638 -0.980330 1.308915
v -0.140461 -1.049412 1.297970
v -0.228646 -1.058620 1.378831
v -0.591406 -0.992628 1.380869
v -0.687003 -0.991171 1.386115
v -0.691358 -1.060768 1.380005
v -0.595760 -1.062225 1.374758
v -0.605663 -1.058757 1.296026
v -0.601309 -0.989160 1.302136
v -0.505712 -0.990617 1.296890
v -0.510066 -1.060214 1.290780
v -0.691358 -1.060768 1.380005
v -0.605663 -1.058757 1.296026
v -0.510066 -1.060214 1.290780
v -0.595760 -1.062225 1.374758
v -0.505712 -0.990617 1.296890
v -0.601309 -0.989160 1.302136
v -0.687003 -0.991171 1.386115
v -0.591406 -0.992628 1.380869
v -0.510066 -1.060214 1.290780
v -0.505712 -0.990617 1.296890
v -0.591406 -0.992628 1.380869
v -0.595760 -1.062225 1.374758
v -0.687003 -0.991171 1.386115
v -0.601309 -0.989160 1.302136
v -0.605663 -1.058757 1.296026
v -0.691358 -1.060768 1.380005
v -0.405331 -0.991962 1.387180
v -0.501073 -0.991714 1.388593
v -0.504338 -1.061060 1.379622
v -0.408596 -1.061308 1.378209
v -0.415370 -1.054863 1.299333
v -0.412104 -0.985517 1.308304
v -0.316363 -0.985765 1.306892
v -0.319628 -1.055111 1.297921
v -0.504338 -1.061060 1.379622
v -0.415370 -1.054863 1.299333
v -0.319628 -1.055111 1.297921
v -0.408596 -1.061308 1.378209
v -0.316363 -0.985765 1.306892
v -0.412104 -0.985517 1.308304
v -0.501073 -0.991714 1.388593
v -0.405331 -0.991962 1.387180
v -0.319628 -1.055111 1.297921
v -0.316363 -0.985765 1.306892
v -0.405331 -0.991962 1.387180
v -0.408596 -1.061308 1.378209
v -0.501073 -0.991714 1.388593
v -0.412104 -0.985517 1.308304
v -0.415370 -1.054863 1.299333
v -0.504338 -1.061060 1.379622
v -0.222639 -0.995634 1.386959
v -0.318333 -0.994049 1.389906
v -0.322745 -1.063174 1.379789
v -0.227050 -1.064758 1.376842
v -0.234970 -1.056835 1.298207
v -0.230559 -0.987711 1.308324
v -0.134865 -0.989296 1.305378
v -0.139276 -1.058420 1.295261
v -0.322745 -1.063174 1.379789
v -0.234970 -1.056835 1.298207
v -0.139276 -1.058420 1.295261
v -0.227050 -1.064758 1.376842
v -0.134865 -0.989296 1.305378
v -0.230559 -0.987711 1.308324
v -0.318333 -0.994049 1.389906
v -0.222639 -0.995634 1.386959
v -0.139276 -1.058420 1.295261
v -0.134865 -0.989296 1.305378
v -0.222639 -0.995634 1.386959
v -0.227050 -1.064758 1.376842
v -0.318333 -0.994049 1.389906
v -0.230559 -0.987711 1.308324
v -0.234970 -1.056835 1.298207
v -0.322745 -1.063174 1.379789
v -0.038415 -0.988945 1.393466
v -0.134161 -0.989302 1.392426
v -0.136715 -1.057983 1.379144
v -0.040968 -1.057626 1.380183
v -0.045785 -1.046386 1.301701
v -0.043231 -0.977706 1.314984
v 0.052515 -0.977349 1.316023
v 0.049961 -1.046029 1.302741
v -0.136715 -1.057983 1.379144
v -0.045785 -1.046386 1.301701
v 0.049961 -1.046029 1.302741
v -0.040968 -1.057626 1.380183
v 0.052515 -0.977349 1.316023
v -0.043231 -0.977706 1.314984
v -0.134161 -0.989302 1.392426
v -0.038415 -0.988945 1.393466
v 0.049961 -1.046029 1.302741
v 0.052515 -0.977349 1.316023
v -0.038415 -0.988945 1.393466
v -0.040968 -1.057626 1.380183
v -0.134161 -0.989302 1.392426
v -0.043231 -0.977706 1.314984
v -0.045785 -1.046386 1.301701
v -0.136715 -1.057983 1.379144
usemtl mat12

vn 0.063050 -0.114923 0.991372
vn 0.063050 -0.114923 0.991372
vn 0.063050 -0.114923 0.991372
vn 0.063050 -0.114923 0.991372
vn -0.063049 0.114923 -0.991372
vn -0.063049 0.114923 -0.991372
vn -0.063049 0.114923 -0.991372
vn -0.063049 0.114923 -0.991372
vn -0.020428 -0.997618 -0.065888
vn -0.020428 -0.997618 -0.065888
vn -0.020428 -0.997618 -0.065888
vn -0.020428 -0.997618 -0.065888
vn 0.020429 0.997618 0.065888
vn 0.020429 0.997618 0.065888
vn 0.020429 0.997618 0.065888
vn 0.020429 0.997618 0.065888
vn 0.704142 -0.124648 0.699033
vn 0.704142 -0.124648 0.699033
vn 0.704142 -0.124648 0.699033
vn 0.704142 -0.124648 0.699033
vn -0.704142 0.124648 -0.699033
vn -0.704142 0.124648 -0.699033
vn -0.704142 0.124648 -0.699033
vn -0.704142 0.124648 -0.699033
vn 0.088136 -0.058849 0.994369
vn 0.088136 -0.058849 0.994369
vn 0.088136 -0.058849 0.994369
vn 0.088136 -0.058849 0.994369
vn -0.088135 0.058848 -0.994369
vn -0.088135 0.058848 -0.994369
vn -0.088135 0.058848 -0.994369
vn -0.088135 0.058848 -0.994369
vn -0.017628 -0.999802 -0.009294
vn -0.017628 -0.999802 -0.009294
vn -0.017628 -0.999802 -0.009294
vn -0.017628 -0.999802 -0.009294
vn 0.017628 0.999801 0.009294
vn 0.017628 0.999801 0.009294
vn 0.017628 0.999801 0.009294
vn 0.017628 0.999801 0.009294
vn 0.721815 -0.083035 0.687087
vn 0.721815 -0.083035 0.687087
vn 0.721815 -0.083035 0.687087
vn 0.721815 -0.083035 0.687087
vn -0.721815 0.083035 -0.687087
vn -0.721815 0.083035 -0.687087
vn -0.721815 0.083035 -0.687087
vn -0.721815 0.083035 -0.687087
vn 0.048822 -0.096816 0.994104
vn 0.048822 -0.096816 0.994104
vn 0.048822 -0.096816 0.994104
vn 0.048822 -0.096816 0.994104
vn -0.048821 0.096816 -0.994104
vn -0.048821 0.096816 -0.994104
vn -0.048821 0.096816 -0.994104
vn -0.048821 0.096816 -0.994104
vn -0.005180 -0.998800 -0.048693
vn -0.005180 -0.998800 -0.048693
vn -0.005180 -0.998800 -0.048693
vn -0.005180 -0.998800 -0.048693
vn 0.005180 0.998800 0.048693
vn 0.005180 0.998800 0.048693
vn 0.005180 0.998800 0.048693
vn 0.005180 0.998800 0.048693
vn 0.694579 -0.102304 0.712105
vn 0.694579 -0.102304 0.712105
vn 0.694579 -0.102304 0.712105
vn 0.694579 -0.102304 0.712105
vn -0.694579 0.102304 -0.712105
vn -0.694579 0.102304 -0.712105
vn -0.694579 0.102304 -0.712105
vn -0.694579 0.102304 -0.712105
vn 0.024280 -0.157412 0.987234
vn 0.024280 -0.157412 0.987234
vn 0.024280 -0.157412 0.987234
vn 0.024280 -0.157412 0.987234
vn -0.024279 0.157412 -0.987234
vn -0.024279 0.157412 -0.987234
vn -0.024279 0.157412 -0.987234
vn -0.024279 0.157412 -0.987234
vn 0.003022 -0.993939 -0.109893
vn 0.003022 -0.993939 -0.109893
vn 0.003022 -0.993939 -0.109893
vn 0.003022 -0.993939 -0.109893
vn -0.003021 0.993939 0.109893
vn -0.003021 0.993939 0.109893
vn -0.003021 0.993939 0.109893
vn -0.003021 0.993939 0.109893
vn 0.677000 -0.142082 0.722138
vn 0.677000 -0.142082 0.722138
vn 0.677000 -0.142082 0.722138
vn 0.677000 -0.142082 0.722138
vn -0.677000 0.142082 -0.722138
vn -0.677000 0.142082 -0.722138
vn -0.677000 0.142082 -0.722138
vn -0.677000 0.142082 -0.722138
vn 0.053196 -0.090635 0.994462
vn 0.053196 -0.090635 0.994462
vn 0.053196 -0.090635 0.994462
vn 0.053196 -0.090635 0.994462
vn -0.053195 0.090635 -0.994462
vn -0.053195 0.090635 -0.994462
vn -0.053195 0.090635 -0.994462
vn -0.053195 0.090635 -0.994462
vn -0.017518 -0.998972 -0.041800
vn -0.017518 -0.998972 -0.041800
vn -0.017518 -0.998972 -0.041800
vn -0.017518 -0.998972 -0.041800
vn 0.017518 0.998972 0.041800
vn 0.017518 0.998972 0.041800
vn 0.017518 0.998972 0.041800
vn 0.017518 0.998972 0.041800
vn 0.697255 -0.105866 0.708962
vn 0.697255 -0.105866 0.708962
vn 0.697255 -0.105866 0.708962
vn 0.697255 -0.105866 0.708962
vn -0.697255 0.105866 -0.708962
vn -0.697255 0.105866 -0.708962
vn -0.697255 0.105866 -0.708962
vn -0.697255 0.105866 -0.708962
vn 0.014292 -0.128946 0.991549
vn 0.014292 -0.128946 0.991549
vn 0.014292 -0.128946 0.991549
vn 0.014292 -0.128946 0.991549
vn -0.014291 0.128946 -0.991549
vn -0.014291 0.128946 -0.991549
vn -0.014291 0.128946 -0.991549
vn -0.014291 0.128946 -0.991549
vn -0.003775 -0.996698 -0.081111
vn -0.003775 -0.996698 -0.081111
vn -0.003775 -0.996698 -0.081111
vn -0.003775 -0.996698 -0.081111
vn 0.003775 0.996698 0.081111
vn 0.003775 0.996698 0.081111
vn 0.003775 0.996698 0.081111
vn 0.003775 0.996698 0.081111
vn 0.669438 -0.126230 0.732065
vn 0.669438 -0.126230 0.732065
vn 0.669438 -0.126230 0.732065
vn 0.669438 -0.126230 0.732065
vn -0.669438 0.126230 -0.732065
vn -0.669438 0.126230 -0.732065
vn -0.669438 0.126230 -0.732065
vn -0.669438 0.126230 -0.732065
vn 0.028021 -0.146509 0.988812
vn 0.028021 -0.146509 0.988812
vn 0.028021 -0.146509 0.988812
vn 0.028021 -0.146509 0.988812
vn -0.028021 0.146509 -0.988812
vn -0.028021 0.146509 -0.988812
vn -0.028021 0.146509 -0.988812
vn -0.028021 0.146509 -0.988812
vn -0.019502 -0.994967 -0.098284
vn -0.019502 -0.994967 -0.098284
vn -0.019502 -0.994967 -0.098284
vn -0.019502 -0.994967 -0.098284
vn 0.019503 0.994967 0.098284
vn 0.019503 0.994967 0.098284
vn 0.019503 0.994967 0.098284
vn 0.019503 0.994967 0.098284
vn 0.678974 -0.148561 0.718975
vn 0.678974 -0.148561 0.718975
vn 0.678974 -0.148561 0.718975
vn 0.678974 -0.148561 0.718975
vn -0.678974 0.148561 -0.718975
vn -0.678974 0.148561 -0.718975
vn -0.678974 0.148561 -0.718975
vn -0.678974 0.148561 -0.718975
vn -0.009950 -0.189511 0.981828
vn -0.009950 -0.189511 0.981828
vn -0.009950 -0.189511 0.981828
vn -0.009950 -0.189511 0.981828
vn 0.009951 0.189511 -0.981828
vn 0.009951 0.189511 -0.981828
vn 0.009951 0.189511 -0.981828
vn 0.009951 0.189511 -0.981828
vn 0.005234 -0.989842 -0.142075
vn 0.005234 -0.989842 -0.142075
vn 0.005234 -0.989842 -0.142075
vn 0.005234 -0.989842 -0.142075
vn -0.005234 0.989842 0.142075
vn -0.005234 0.989842 0.142075
vn -0.005234 0.989842 0.142075
vn -0.005234 0.989842 0.142075
vn 0.651529 -0.167325 0.739941
vn 0.651529 -0.167325 0.739941
vn 0.651529 -0.167325 0.739941
vn 0.651529 -0.167325 0.739941
vn -0.651529 0.167325 -0.739941
vn -0.651529 0.167325 -0.739941
vn -0.651529 0.167325 -0.739941
vn -0.651529 0.167325 -0.739941

vt 0.008893 -0.080063
vt 0.012990 -0.088718
vt 0.006795 -0.091977
vt 0.002698 -0.083322
vt -0.002594 -0.083994
vt -0.008789 -0.080734
vt -0.004693 -0.072080
vt 0.001502 -0.075339
vt 0.188531 -0.150853
vt 0.183740 -0.139851
vt 0.186665 -0.130733
vt 0.191456 -0.141736
vt -0.187076 -0.130555
vt -0.184150 -0.139672
vt -0.188941 -0.150675
vt -0.191866 -0.141557
vt 0.059592 -0.188571
vt 0.065764 -0.185269
vt 0.071425 -0.195850
vt 0.065253 -0.199152
vt -0.074461 -0.202382
vt -0.068801 -0.191801
vt -0.062628 -0.195103
vt -0.068289 -0.205684
vt 0.016363 -0.123607
vt 0.020584 -0.132202
vt 0.014436 -0.135550
vt 0.010216 -0.126955
vt -0.010122 -0.127627
vt -0.016270 -0.124280
vt -0.012049 -0.115685
vt -0.005902 -0.119033
vt 0.177204 -0.179805
vt 0.171872 -0.169054
vt 0.174341 -0.159802
vt 0.179672 -0.170553
vt -0.174742 -0.159604
vt -0.172273 -0.168855
vt -0.177604 -0.179606
vt -0.180073 -0.170354
vt 0.065050 -0.217070
vt 0.071119 -0.213582
vt 0.077097 -0.223987
vt 0.071028 -0.227474
vt -0.080330 -0.230424
vt -0.074352 -0.220019
vt -0.068282 -0.223506
vt -0.074261 -0.233911
vt 0.012068 -0.095278
vt 0.016096 -0.103964
vt 0.009876 -0.107175
vt 0.005847 -0.098488
vt -0.005739 -0.099158
vt -0.011959 -0.095948
vt -0.007931 -0.087261
vt -0.001710 -0.090472
vt 0.182403 -0.166247
vt 0.177670 -0.155220
vt 0.180644 -0.146118
vt 0.185376 -0.157145
vt -0.181055 -0.145941
vt -0.178081 -0.155043
vt -0.182814 -0.166071
vt -0.185787 -0.156969
vt 0.059810 -0.200641
vt 0.066013 -0.197397
vt 0.071574 -0.208031
vt 0.065371 -0.211275
vt -0.074548 -0.214591
vt -0.068988 -0.203957
vt -0.062785 -0.207201
vt -0.068345 -0.217835
vt 0.006857 -0.050946
vt 0.010647 -0.059739
vt 0.004341 -0.062778
vt 0.000551 -0.053985
vt -0.000424 -0.054652
vt -0.006730 -0.051613
vt -0.002941 -0.042819
vt 0.003365 -0.045858
vt 0.194175 -0.137605
vt 0.189985 -0.126361
vt 0.193397 -0.117414
vt 0.197588 -0.128659
vt -0.193816 -0.117258
vt -0.190404 -0.126205
vt -0.194595 -0.137449
vt -0.198007 -0.128503
vt 0.054958 -0.170395
vt 0.061289 -0.167410
vt 0.066406 -0.178264
vt 0.060074 -0.181249
vt -0.069107 -0.184942
vt -0.063990 -0.174087
vt -0.057658 -0.177072
vt -0.062775 -0.187926
vt 0.015118 -0.105347
vt 0.019268 -0.113976
vt 0.013094 -0.117273
vt 0.008943 -0.108644
vt -0.008844 -0.109316
vt -0.015019 -0.106019
vt -0.010868 -0.097390
vt -0.004694 -0.100687
vt 0.178918 -0.174224
vt 0.174121 -0.163225
vt 0.177041 -0.154106
vt 0.181838 -0.165105
vt -0.177451 -0.153927
vt -0.174531 -0.163046
vt -0.179328 -0.174046
vt -0.182248 -0.164927
vt 0.063152 -0.206983
vt 0.069303 -0.203642
vt 0.075030 -0.214187
vt 0.068879 -0.217528
vt -0.078107 -0.220700
vt -0.072380 -0.210155
vt -0.066229 -0.213495
vt -0.071956 -0.224041
vt 0.011352 -0.076719
vt 0.015299 -0.085443
vt 0.009050 -0.088595
vt 0.005102 -0.079872
vt -0.004987 -0.080541
vt -0.011237 -0.077389
vt -0.007290 -0.068665
vt -0.001040 -0.071818
vt 0.184652 -0.160623
vt 0.180452 -0.149382
vt 0.183858 -0.140433
vt 0.188057 -0.151674
vt -0.184277 -0.140277
vt -0.180872 -0.149226
vt -0.185071 -0.160467
vt -0.188476 -0.151518
vt 0.058470 -0.189585
vt 0.064748 -0.186489
vt 0.070056 -0.197252
vt 0.063778 -0.200348
vt -0.072874 -0.203880
vt -0.067567 -0.193118
vt -0.061289 -0.196214
vt -0.066596 -0.206976
vt 0.008124 -0.061483
vt 0.012142 -0.070174
vt 0.005918 -0.073377
vt 0.001900 -0.064686
vt -0.001790 -0.065356
vt -0.008015 -0.062153
vt -0.003997 -0.053462
vt 0.002228 -0.056665
vt 0.190810 -0.145312
vt 0.186555 -0.134092
vt 0.189916 -0.125126
vt 0.194171 -0.136346
vt -0.190334 -0.124967
vt -0.186973 -0.133933
vt -0.191228 -0.145153
vt -0.194589 -0.136188
vt 0.058159 -0.177136
vt 0.064407 -0.173981
vt 0.069815 -0.184694
vt 0.063566 -0.187848
vt -0.072695 -0.191296
vt -0.067288 -0.180583
vt -0.061039 -0.183738
vt -0.066447 -0.194450
vt 0.006901 -0.032205
vt 0.010597 -0.041038
vt 0.004259 -0.044010
vt 0.000563 -0.035177
vt -0.000429 -0.035843
vt -0.006767 -0.032871
vt -0.003071 -0.024037
vt 0.003267 -0.027009
vt 0.196935 -0.131879
vt 0.193271 -0.120452
vt 0.197096 -0.111673
vt 0.200760 -0.123100
vt -0.197522 -0.111537
vt -0.193697 -0.120315
vt -0.197361 -0.131742
vt -0.201185 -0.122964
vt 0.054268 -0.158084
vt 0.060668 -0.155249
vt 0.065529 -0.166220
vt 0.059129 -0.169056
vt -0.068073 -0.172958
vt -0.063212 -0.161987
vt -0.056812 -0.164823
vt -0.061673 -0.175794
s off
f 1/1/1 2/2/2 3/3/3
f 1/1/1 3/3/3 4/4/4
f 5/5/5 6/6/6 7/7/7
f 5/5/5 7/7/7 8/8/8
f 9/9/9 10/10/10 11/11/11
f 9/9/9 11/11/11 12/12/12
f 13/13/13 14/14/14 15/15/15
f 13/13/13 15/15/15 16/16/16
f 17/17/17 18/18/18 19/19/19
f 17/17/17 19/19/19 20/20/20
f 21/21/21 22/22/22 23/23/23
f 21/21/21 23/23/23 24/24/24
f 25/25/25 26/26/26 27/27/27
f 25/25/25 27/27/27 28/28/28
f 29/29/29 30/30/30 31/31/31
f 29/29/29 31/31/31 32/32/32
f 33/33/33 34/34/34 35/35/35
f 33/33/33 35/35/35 36/36/36
f 37/37/37 38/38/38 39/39/39
f 37/37/37 39/39/39 40/40/40
f 41/41/41 42/42/42 43/43/43
f 41/41/41 43/43/43 44/44/44
f 45/45/45 46/46/46 47/47/47
f 45/45/45 47/47/47 48/48/48
f 49/49/49 50/50/50 51/51/51
f 49/49/49 51/51/51 52/52/52
f 53/53/53 54/54/54 55/55/55
f 53/53/53 55/55/55 56/56/56
f 57/57/57 58/58/58 59/59/59
f 57/57/57 59/59/59 60/60/60
f 61/61/61 62/62/62 63/63/63
f 61/61/61 63/63/63 64/64/64
f 65/65/65 66/66/66 67/67/67
f 65/65/65 67/67/67 68/68/68
f 69/69/69 70/70/70 71/71/71
f 69/69/69 71/71/71 72/72/72
f 73/73/73 74/74/74 75/75/75
f 73/73/73 75/75/75 76/76/76
f 77/77/77 78/78/78 79/79/79
f 77/77/77 79/79/79 80/80/80
f 81/81/81 82/82/82 83/83/83
f 81/81/81 83/83/83 84/84/84
f 85/85/85 86/86/86 87/87/87
f 85/85/85 87/87/87 88/88/88
f 89/89/89 90/90/90 91/91/91
f 89/89/89 91/91/91 92/92/92
f 93/93/93 94/94/94 95/95/95
f 93/93/93 95/95/95 96/96/96
f 97/97/97 98/98/98 99/99/99
f 97/97/97 99/99/99 100/100/100
f 101/101/101 102/102/102 103/103/103
f 101/101/101 103/103/103 104/104/104
f 105/105/105 106/106/106 107/107/107
f 105/105/105 107/107/107 108/108/108
f 109/109/109 110/110/110 111/111/111
f 109/109/109 111/111/111 112/112/112
f 113/113/113 114/114/114 115/115/115
f 113/113/113 115/115/115 116/116/116
f 117/117/117 118/118/118 119/119/119
f 117/117/117 119/119/119 120/120/120
f 121/121/121 122/122/122 123/123/123
f 121/121/121 123/123/123 124/124/124
f 125/125/125 126/126/126 127/127/127
f 125/125/125 127/127/127 128/128/128
f 129/129/129 130/130/130 131/131/131
f 129/129/129 131/131/131 132/132/132
f 133/133/133 134/134/134 135/135/135
f 133/133/133 135/135/135 136/136/136
f 137/137/137 138/138/138 139/139/139
f 137/137/137 139/139/139 140/140/140
f 141/141/141 142/142/142 143/143/143
f 141/141/141 143/143/143 144/144/144
f 145/145/145 146/146/146 147/147/147
f 145/145/145 147/147/147 148/148/148
f 149/149/149 150/150/150 151/151/151
f 149/149/149 151/151/151 152/152/152
f 153/153/153 154/154/154 155/155/155
f 153/153/153 155/155/155 156/156/156
f 157/157/157 158/158/158 159/159/159
f 157/157/157 159/159/159 160/160/160
f 161/161/161 162/162/162 163/163/163
f 161/161/161 163/163/163 164/164/164
f 165/165/165 166/166/166 167/167/167
f 165/165/165 167/167/167 168/168/168
f 169/169/169 170/170/170 171/171/171
f 169/169/169 171/171/171 172/172/172
f 173/173/173 174/174/174 175/175/175
f 173/173/173 175/175/175 176/176/176
f 177/177/177 178/178/178 179/179/179
f 177/177/177 179/179/179 180/180/180
f 181/181/181 182/182/182 183/183/183
f 181/181/181 183/183/183 184/184/184
f 185/185/185 186/186/186 187/187/187
f 185/185/185 187/187/187 188/188/188
f 189/189/189 190/190/190 191/191/191
f 189/189/189 191/191/191 192/192/192
