# Exported using automatic converter by Erwin Coumans
mtllib model6.mtl
#object mesh2114202017

v 1.408238 2.035489 -0.610148
v 1.438238 2.035489 -0.610148
v 1.438238 2.005489 -0.610148
v 1.408238 2.005489 -0.610148
v 1.438238 2.005489 -0.580148
v 1.438238 2.035489 -0.580148
v 1.408238 2.035489 -0.580148
v 1.408238 2.005489 -0.580148
v 1.438238 2.005489 -0.610148
v 1.438238 2.005489 -0.580148
v 1.408238 2.005489 -0.580148
v 1.408238 2.005489 -0.610148
v 1.408238 2.035489 -0.580148
v 1.438238 2.035489 -0.580148
v 1.438238 2.035489 -0.610148
v 1.408238 2.035489 -0.610148
v 1.408238 2.005489 -0.580148
v 1.408238 2.035489 -0.580148
v 1.408238 2.035489 -0.610148
v 1.408238 2.005489 -0.610148
v 1.438238 2.035489 -0.610148
v 1.438238 2.035489 -0.580148
v 1.438238 2.005489 -0.580148
v 1.438238 2.005489 -0.610148
usemtl mat23

vn -0.000000 0.000000 -1.000000
vn -0.000000 0.000000 -1.000000
vn -0.000000 0.000000 -1.000000
vn -0.000000 0.000000 -1.000000
vn 0.000000 0.000000 1.000000
vn 0.000000 0.000000 1.000000
vn 0.000000 0.000000 1.000000
vn 0.000000 0.000000 1.000000
vn -0.000000 -1.000000 0.000000
vn -0.000000 -1.000000 0.000000
vn -0.000000 -1.000000 0.000000
vn -0.000000 -1.000000 0.000000
vn 0.000000 1.000000 0.000000
vn 0.000000 1.000000 0.000000
vn 0.000000 1.000000 0.000000
vn 0.000000 1.000000 0.000000
vn -1.000000 0.000000 0.000000
vn -1.000000 0.000000 0.000000
vn -1.000000 0.000000 0.000000
vn -1.000000 0.000000 0.000000
vn 1.000000 -0.000000 -0.000000
vn 1.000000 -0.000000 -0.000000
vn 1.000000 -0.000000 -0.000000
vn 1.000000 -0.000000 -0.000000

vt -0.176202 0.211085
vt -0.174861 0.213768
vt -0.172177 0.212426
vt -0.173519 0.209743
vt 0.172177 0.212426
vt 0.174861 0.213768
vt 0.176202 0.211085
vt 0.173519 0.209743
vt 0.064375 0.096999
vt 0.067200 0.095990
vt 0.066191 0.093165
vt 0.063366 0.094174
vt -0.066191 0.093165
vt -0.067200 0.095990
vt -0.064375 0.096999
vt -0.063366 0.094174
vt -0.169954 0.184601
vt -0.171698 0.187043
vt -0.169256 0.188786
vt -0.167513 0.186345
vt 0.169256 0.188786
vt 0.171698 0.187043
vt 0.169954 0.184601
vt 0.167513 0.186345
s off
f 1/1/1 2/2/2 3/3/3
f 1/1/1 3/3/3 4/4/4
f 5/5/5 6/6/6 7/7/7
f 5/5/5 7/7/7 8/8/8
f 9/9/9 10/10/10 11/11/11
f 9/9/9 11/11/11 12/12/12
f 13/13/13 14/14/14 15/15/15
f 13/13/13 15/15/15 16/16/16
f 17/17/17 18/18/18 19/19/19
f 17/17/17 19/19/19 20/20/20
f 21/21/21 22/22/22 23/23/23
f 21/21/21 23/23/23 24/24/24
