# Exported using automatic converter by Erwin Coumans
mtllib model6.mtl
#object group1487006333_3

v 1.706686 -0.853346 -2.101301
v 1.704863 -0.694965 -2.099731
v 1.517689 -0.697097 -2.101967
v 1.519513 -0.855479 -2.103537
v 1.527911 -0.688417 -2.965860
v 1.715084 -0.686284 -2.963624
v 1.716908 -0.844666 -2.965194
v 1.529734 -0.846798 -2.967430
v 1.517689 -0.697097 -2.101967
v 1.527911 -0.688417 -2.965860
v 1.529734 -0.846798 -2.967430
v 1.519513 -0.855479 -2.103537
v 1.716908 -0.844666 -2.965194
v 1.715084 -0.686284 -2.963624
v 1.704863 -0.694965 -2.099731
v 1.706686 -0.853346 -2.101301
v 1.529734 -0.846798 -2.967430
v 1.716908 -0.844666 -2.965194
v 1.706686 -0.853346 -2.101301
v 1.519513 -0.855479 -2.103537
v 1.704863 -0.694965 -2.099731
v 1.715084 -0.686284 -2.963624
v 1.527911 -0.688417 -2.965860
v 1.517689 -0.697097 -2.101967
v 1.711580 -0.456635 -2.889350
v 1.653988 -0.457292 -2.890038
v 1.655812 -0.615673 -2.891608
v 1.713404 -0.615017 -2.890920
v 1.656834 -0.614805 -2.977997
v 1.655011 -0.456424 -2.976427
v 1.712602 -0.455767 -2.975739
v 1.714426 -0.614148 -2.977309
v 1.655812 -0.615673 -2.891608
v 1.656834 -0.614805 -2.977997
v 1.714426 -0.614148 -2.977309
v 1.713404 -0.615017 -2.890920
v 1.712602 -0.455767 -2.975739
v 1.655011 -0.456424 -2.976427
v 1.653988 -0.457292 -2.890038
v 1.711580 -0.456635 -2.889350
v 1.714426 -0.614148 -2.977309
v 1.712602 -0.455767 -2.975739
v 1.711580 -0.456635 -2.889350
v 1.713404 -0.615017 -2.890920
v 1.653988 -0.457292 -2.890038
v 1.655011 -0.456424 -2.976427
v 1.656834 -0.614805 -2.977997
v 1.655812 -0.615673 -2.891608
v 1.721549 -0.460233 -2.514824
v 1.635161 -0.461217 -2.515856
v 1.636985 -0.619598 -2.517426
v 1.723373 -0.618614 -2.516394
v 1.640903 -0.616271 -2.848585
v 1.639080 -0.457890 -2.847015
v 1.725468 -0.456905 -2.845983
v 1.727291 -0.615287 -2.847553
v 1.636985 -0.619598 -2.517426
v 1.640903 -0.616271 -2.848585
v 1.727291 -0.615287 -2.847553
v 1.723373 -0.618614 -2.516394
v 1.725468 -0.456905 -2.845983
v 1.639080 -0.457890 -2.847015
v 1.635161 -0.461217 -2.515856
v 1.721549 -0.460233 -2.514824
v 1.727291 -0.615287 -2.847553
v 1.725468 -0.456905 -2.845983
v 1.721549 -0.460233 -2.514824
v 1.723373 -0.618614 -2.516394
v 1.635161 -0.461217 -2.515856
v 1.639080 -0.457890 -2.847015
v 1.640903 -0.616271 -2.848585
v 1.636985 -0.619598 -2.517426
v 1.704762 -0.476965 -2.299165
v 1.632772 -0.477786 -2.300025
v 1.634595 -0.636167 -2.301595
v 1.706585 -0.635346 -2.300735
v 1.636639 -0.634431 -2.474374
v 1.634816 -0.476050 -2.472804
v 1.706806 -0.475229 -2.471944
v 1.708629 -0.633610 -2.473514
v 1.634595 -0.636167 -2.301595
v 1.636639 -0.634431 -2.474374
v 1.708629 -0.633610 -2.473514
v 1.706585 -0.635346 -2.300735
v 1.706806 -0.475229 -2.471944
v 1.634816 -0.476050 -2.472804
v 1.632772 -0.477786 -2.300025
v 1.704762 -0.476965 -2.299165
v 1.708629 -0.633610 -2.473514
v 1.706806 -0.475229 -2.471944
v 1.704762 -0.476965 -2.299165
v 1.706585 -0.635346 -2.300735
v 1.632772 -0.477786 -2.300025
v 1.634816 -0.476050 -2.472804
v 1.636639 -0.634431 -2.474374
v 1.634595 -0.636167 -2.301595
usemtl mat21

vn -0.011830 -0.010047 0.999879
vn -0.011830 -0.010047 0.999879
vn -0.011830 -0.010047 0.999879
vn -0.011830 -0.010047 0.999879
vn 0.011830 0.010047 -0.999879
vn 0.011830 0.010047 -0.999879
vn 0.011830 0.010047 -0.999879
vn 0.011830 0.010047 -0.999879
vn -0.999864 -0.011393 -0.011945
vn -0.999864 -0.011393 -0.011945
vn -0.999864 -0.011393 -0.011945
vn -0.999864 -0.011393 -0.011945
vn 0.999864 0.011393 0.011945
vn 0.999864 0.011393 0.011945
vn 0.999864 0.011393 0.011945
vn 0.999864 0.011393 0.011945
vn 0.011511 -0.999885 -0.009911
vn 0.011511 -0.999885 -0.009911
vn 0.011511 -0.999885 -0.009911
vn 0.011511 -0.999885 -0.009911
vn -0.011511 0.999885 0.009911
vn -0.011511 0.999885 0.009911
vn -0.011511 0.999885 0.009911
vn -0.011511 0.999885 0.009911
vn -0.011831 -0.010047 0.999880
vn -0.011831 -0.010047 0.999880
vn -0.011831 -0.010047 0.999880
vn -0.011831 -0.010047 0.999880
vn 0.011831 0.010047 -0.999880
vn 0.011831 0.010047 -0.999880
vn 0.011831 0.010047 -0.999880
vn 0.011831 0.010047 -0.999880
vn 0.011512 -0.999885 -0.009911
vn 0.011512 -0.999885 -0.009911
vn 0.011512 -0.999885 -0.009911
vn 0.011512 -0.999885 -0.009911
vn -0.011512 0.999885 0.009911
vn -0.011512 0.999885 0.009911
vn -0.011512 0.999885 0.009911
vn -0.011512 0.999885 0.009911
vn 0.999864 0.011393 0.011945
vn 0.999864 0.011393 0.011945
vn 0.999864 0.011393 0.011945
vn 0.999864 0.011393 0.011945
vn -0.999864 -0.011393 -0.011945
vn -0.999864 -0.011393 -0.011945
vn -0.999864 -0.011393 -0.011945
vn -0.999864 -0.011393 -0.011945
vn -0.011831 -0.010047 0.999880
vn -0.011831 -0.010047 0.999880
vn -0.011831 -0.010047 0.999880
vn -0.011831 -0.010047 0.999880
vn 0.011831 0.010047 -0.999880
vn 0.011831 0.010047 -0.999880
vn 0.011831 0.010047 -0.999880
vn 0.011831 0.010047 -0.999880
vn 0.011512 -0.999885 -0.009911
vn 0.011512 -0.999885 -0.009911
vn 0.011512 -0.999885 -0.009911
vn 0.011512 -0.999885 -0.009911
vn -0.011512 0.999885 0.009911
vn -0.011512 0.999885 0.009911
vn -0.011512 0.999885 0.009911
vn -0.011512 0.999885 0.009911
vn 0.999864 0.011393 0.011945
vn 0.999864 0.011393 0.011945
vn 0.999864 0.011393 0.011945
vn 0.999864 0.011393 0.011945
vn -0.999864 -0.011393 -0.011945
vn -0.999864 -0.011393 -0.011945
vn -0.999864 -0.011393 -0.011945
vn -0.999864 -0.011393 -0.011945
vn -0.011831 -0.010047 0.999880
vn -0.011831 -0.010047 0.999880
vn -0.011831 -0.010047 0.999880
vn -0.011831 -0.010047 0.999880
vn 0.011831 0.010047 -0.999880
vn 0.011831 0.010047 -0.999880
vn 0.011831 0.010047 -0.999880
vn 0.011831 0.010047 -0.999880
vn 0.011512 -0.999885 -0.009911
vn 0.011512 -0.999885 -0.009911
vn 0.011512 -0.999885 -0.009911
vn 0.011512 -0.999885 -0.009911
vn -0.011512 0.999885 0.009911
vn -0.011512 0.999885 0.009911
vn -0.011512 0.999885 0.009911
vn -0.011512 0.999885 0.009911
vn 0.999864 0.011393 0.011945
vn 0.999864 0.011393 0.011945
vn 0.999864 0.011393 0.011945
vn 0.999864 0.011393 0.011945
vn -0.999864 -0.011393 -0.011945
vn -0.999864 -0.011393 -0.011945
vn -0.999864 -0.011393 -0.011945
vn -0.999864 -0.011393 -0.011945

vt -0.095850 0.106867
vt -0.081594 0.113771
vt -0.073435 0.096923
vt -0.087691 0.090019
vt 0.073435 0.096923
vt 0.081594 0.113771
vt 0.095850 0.106867
vt 0.087691 0.090019
vt 0.111477 0.055854
vt 0.179894 0.108618
vt 0.189567 0.096075
vt 0.121150 0.043311
vt -0.189567 0.096075
vt -0.179894 0.108618
vt -0.111477 0.055854
vt -0.121150 0.043311
vt -0.153871 0.184750
vt -0.147322 0.202286
vt -0.066382 0.172058
vt -0.072932 0.154521
vt 0.066382 0.172058
vt 0.147322 0.202286
vt 0.153871 0.184750
vt 0.072932 0.154521
vt -0.060858 0.123813
vt -0.058347 0.118629
vt -0.072604 0.111725
vt -0.075114 0.116909
vt 0.072604 0.111725
vt 0.058347 0.118629
vt 0.060858 0.123813
vt 0.075114 0.116909
vt -0.142592 0.194372
vt -0.150686 0.197394
vt -0.148671 0.202790
vt -0.140577 0.199768
vt 0.148671 0.202790
vt 0.150686 0.197394
vt 0.142592 0.194372
vt 0.140577 0.199768
vt -0.176637 0.115199
vt -0.166964 0.127742
vt -0.160122 0.122466
vt -0.169795 0.109922
vt 0.160122 0.122466
vt 0.166964 0.127742
vt 0.176637 0.115199
vt 0.169795 0.109922
vt -0.061485 0.125109
vt -0.057720 0.117333
vt -0.071976 0.110429
vt -0.075742 0.118205
vt 0.071976 0.110429
vt 0.057720 0.117333
vt 0.061485 0.125109
vt 0.075742 0.118205
vt -0.108022 0.179924
vt -0.139049 0.191511
vt -0.136026 0.199605
vt -0.104999 0.188018
vt 0.136026 0.199605
vt 0.139049 0.191511
vt 0.108022 0.179924
vt 0.104999 0.188018
vt -0.166375 0.107284
vt -0.156701 0.119827
vt -0.130475 0.099601
vt -0.140148 0.087058
vt 0.130475 0.099601
vt 0.156701 0.119827
vt 0.166375 0.107284
vt 0.140148 0.087058
vt -0.062154 0.123185
vt -0.059016 0.116705
vt -0.073272 0.109801
vt -0.076410 0.116282
vt 0.073272 0.109801
vt 0.059016 0.116705
vt 0.062154 0.123185
vt 0.076410 0.116282
vt -0.087787 0.172366
vt -0.103975 0.178412
vt -0.101456 0.185157
vt -0.085268 0.179111
vt 0.101456 0.185157
vt 0.103975 0.178412
vt 0.087787 0.172366
vt 0.085268 0.179111
vt -0.137607 0.083280
vt -0.127933 0.095823
vt -0.114250 0.085270
vt -0.123923 0.072727
vt 0.114250 0.085270
vt 0.127933 0.095823
vt 0.137607 0.083280
vt 0.123923 0.072727
s off
f 1/1/1 2/2/2 3/3/3
f 1/1/1 3/3/3 4/4/4
f 5/5/5 6/6/6 7/7/7
f 5/5/5 7/7/7 8/8/8
f 9/9/9 10/10/10 11/11/11
f 9/9/9 11/11/11 12/12/12
f 13/13/13 14/14/14 15/15/15
f 13/13/13 15/15/15 16/16/16
f 17/17/17 18/18/18 19/19/19
f 17/17/17 19/19/19 20/20/20
f 21/21/21 22/22/22 23/23/23
f 21/21/21 23/23/23 24/24/24
f 25/25/25 26/26/26 27/27/27
f 25/25/25 27/27/27 28/28/28
f 29/29/29 30/30/30 31/31/31
f 29/29/29 31/31/31 32/32/32
f 33/33/33 34/34/34 35/35/35
f 33/33/33 35/35/35 36/36/36
f 37/37/37 38/38/38 39/39/39
f 37/37/37 39/39/39 40/40/40
f 41/41/41 42/42/42 43/43/43
f 41/41/41 43/43/43 44/44/44
f 45/45/45 46/46/46 47/47/47
f 45/45/45 47/47/47 48/48/48
f 49/49/49 50/50/50 51/51/51
f 49/49/49 51/51/51 52/52/52
f 53/53/53 54/54/54 55/55/55
f 53/53/53 55/55/55 56/56/56
f 57/57/57 58/58/58 59/59/59
f 57/57/57 59/59/59 60/60/60
f 61/61/61 62/62/62 63/63/63
f 61/61/61 63/63/63 64/64/64
f 65/65/65 66/66/66 67/67/67
f 65/65/65 67/67/67 68/68/68
f 69/69/69 70/70/70 71/71/71
f 69/69/69 71/71/71 72/72/72
f 73/73/73 74/74/74 75/75/75
f 73/73/73 75/75/75 76/76/76
f 77/77/77 78/78/78 79/79/79
f 77/77/77 79/79/79 80/80/80
f 81/81/81 82/82/82 83/83/83
f 81/81/81 83/83/83 84/84/84
f 85/85/85 86/86/86 87/87/87
f 85/85/85 87/87/87 88/88/88
f 89/89/89 90/90/90 91/91/91
f 89/89/89 91/91/91 92/92/92
f 93/93/93 94/94/94 95/95/95
f 93/93/93 95/95/95 96/96/96
