# Exported using automatic converter by Erwin Coumans
mtllib model6.mtl
#object mesh1763975222

v -1.157300 0.765727 -2.503050
v -1.158853 0.764970 -2.540781
v -1.157911 0.722496 -2.539969
v -1.156358 0.723253 -2.502238
v -0.912669 0.727743 -2.550169
v -0.913612 0.770217 -2.550982
v -0.912058 0.770974 -2.513251
v -0.911116 0.728500 -2.512438
v -1.157911 0.722496 -2.539969
v -0.912669 0.727743 -2.550169
v -0.911116 0.728500 -2.512438
v -1.156358 0.723253 -2.502238
v -0.912058 0.770974 -2.513251
v -0.913612 0.770217 -2.550982
v -1.158853 0.764970 -2.540781
v -1.157300 0.765727 -2.503050
v -0.911116 0.728500 -2.512438
v -0.912058 0.770974 -2.513251
v -1.157300 0.765727 -2.503050
v -1.156358 0.723253 -2.502238
v -1.158853 0.764970 -2.540781
v -0.913612 0.770217 -2.550982
v -0.912669 0.727743 -2.550169
v -1.157911 0.722496 -2.539969
v -0.957734 1.008706 -2.521206
v -0.958704 1.008233 -2.544789
v -0.950534 0.750722 -2.539619
v -0.949563 0.751195 -2.516037
v -0.917521 0.751428 -2.540992
v -0.925691 1.008940 -2.546162
v -0.924720 1.009412 -2.522580
v -0.916550 0.751901 -2.517410
v -0.950534 0.750722 -2.539619
v -0.917521 0.751428 -2.540992
v -0.916550 0.751901 -2.517410
v -0.949563 0.751195 -2.516037
v -0.924720 1.009412 -2.522580
v -0.925691 1.008940 -2.546162
v -0.958704 1.008233 -2.544789
v -0.957734 1.008706 -2.521206
v -0.916550 0.751901 -2.517410
v -0.924720 1.009412 -2.522580
v -0.957734 1.008706 -2.521206
v -0.949563 0.751195 -2.516037
v -0.958704 1.008233 -2.544789
v -0.925691 1.008940 -2.546162
v -0.917521 0.751428 -2.540992
v -0.950534 0.750722 -2.539619
v -1.155813 0.996781 -2.510485
v -1.156784 0.996308 -2.534067
v -1.153330 0.746383 -2.531184
v -1.152359 0.746856 -2.507602
v -1.120316 0.747089 -2.532557
v -1.123771 0.997014 -2.535440
v -1.122800 0.997487 -2.511858
v -1.119346 0.747562 -2.508975
v -1.153330 0.746383 -2.531184
v -1.120316 0.747089 -2.532557
v -1.119346 0.747562 -2.508975
v -1.152359 0.746856 -2.507602
v -1.122800 0.997487 -2.511858
v -1.123771 0.997014 -2.535440
v -1.156784 0.996308 -2.534067
v -1.155813 0.996781 -2.510485
v -1.119346 0.747562 -2.508975
v -1.122800 0.997487 -2.511858
v -1.155813 0.996781 -2.510485
v -1.152359 0.746856 -2.507602
v -1.156784 0.996308 -2.534067
v -1.123771 0.997014 -2.535440
v -1.120316 0.747089 -2.532557
v -1.153330 0.746383 -2.531184
v -1.160775 1.004601 -2.502201
v -1.163394 1.003345 -2.539860
v -1.162032 0.960896 -2.538539
v -1.159413 0.962152 -2.500880
v -0.917239 0.968215 -2.555805
v -0.918602 1.010665 -2.557126
v -0.915983 1.011921 -2.519467
v -0.914620 0.969471 -2.518146
v -1.162032 0.960896 -2.538539
v -0.917239 0.968215 -2.555805
v -0.914620 0.969471 -2.518146
v -1.159413 0.962152 -2.500880
v -0.915983 1.011921 -2.519467
v -0.918602 1.010665 -2.557126
v -1.163394 1.003345 -2.539860
v -1.160775 1.004601 -2.502201
v -0.914620 0.969471 -2.518146
v -0.915983 1.011921 -2.519467
v -1.160775 1.004601 -2.502201
v -1.159413 0.962152 -2.500880
v -1.163394 1.003345 -2.539860
v -0.918602 1.010665 -2.557126
v -0.917239 0.968215 -2.555805
v -1.162032 0.960896 -2.538539
v -1.129655 0.779155 -2.511244
v -1.131930 0.806482 -2.537219
v -1.132290 0.796712 -2.547467
v -1.130015 0.769385 -2.521492
v -0.922992 0.802974 -2.556405
v -0.922632 0.812745 -2.546156
v -0.920357 0.785418 -2.520182
v -0.920718 0.775647 -2.530430
v -1.132290 0.796712 -2.547467
v -0.922992 0.802974 -2.556405
v -0.920718 0.775647 -2.530430
v -1.130015 0.769385 -2.521492
v -0.920357 0.785418 -2.520182
v -0.922632 0.812745 -2.546156
v -1.131930 0.806482 -2.537219
v -1.129655 0.779155 -2.511244
v -0.920718 0.775647 -2.530430
v -0.920357 0.785418 -2.520182
v -1.129655 0.779155 -2.511244
v -1.130015 0.769385 -2.521492
v -1.131930 0.806482 -2.537219
v -0.922632 0.812745 -2.546156
v -0.922992 0.802974 -2.556405
v -1.132290 0.796712 -2.547467
v -1.129844 0.816884 -2.518524
v -1.132085 0.846024 -2.542450
v -1.130262 0.807881 -2.529450
v -0.922788 0.852234 -2.551445
v -0.920547 0.823094 -2.527519
v -0.920965 0.814091 -2.538445
v -1.142502 0.837021 -2.563377
v -0.933205 0.843231 -2.572371
v -0.920965 0.814091 -2.538445
v -1.130262 0.807881 -2.529450
v -0.920547 0.823094 -2.527519
v -0.922788 0.852234 -2.551445
v -1.132085 0.846024 -2.542450
v -1.129844 0.816884 -2.518524
v -0.920965 0.814091 -2.538445
v -0.920547 0.823094 -2.527519
v -1.129844 0.816884 -2.518524
v -1.130262 0.807881 -2.529450
v -1.132085 0.846024 -2.542450
v -0.922788 0.852234 -2.551445
v -0.933205 0.843231 -2.572371
v -1.142502 0.837021 -2.563377
v -1.132085 0.846024 -2.542450
v -1.142502 0.837021 -2.563377
v -1.130262 0.807881 -2.529450
v -0.920965 0.814091 -2.538445
v -0.933205 0.843231 -2.572371
v -0.922788 0.852234 -2.551445
v -1.134561 0.898378 -2.517583
v -1.136104 0.928725 -2.540018
v -1.136701 0.920293 -2.551383
v -1.135158 0.889946 -2.528948
v -0.927301 0.922257 -2.559885
v -0.926703 0.930689 -2.548520
v -0.925160 0.900343 -2.526085
v -0.925758 0.891910 -2.537450
v -1.136701 0.920293 -2.551383
v -0.927301 0.922257 -2.559885
v -0.925758 0.891910 -2.537450
v -1.135158 0.889946 -2.528948
v -0.925160 0.900343 -2.526085
v -0.926703 0.930689 -2.548520
v -1.136104 0.928725 -2.540018
v -1.134561 0.898378 -2.517583
v -0.925758 0.891910 -2.537450
v -0.925160 0.900343 -2.526085
v -1.134561 0.898378 -2.517583
v -1.135158 0.889946 -2.528948
v -1.136104 0.928725 -2.540018
v -0.926703 0.930689 -2.548520
v -0.927301 0.922257 -2.559885
v -1.136701 0.920293 -2.551383
v -1.135228 0.860337 -2.512208
v -1.136842 0.888977 -2.536779
v -1.137401 0.879743 -2.547505
v -1.135787 0.851103 -2.522933
v -0.927998 0.881757 -2.555948
v -0.927440 0.890990 -2.545223
v -0.925826 0.862350 -2.520651
v -0.926385 0.853117 -2.531377
v -1.137401 0.879743 -2.547505
v -0.927998 0.881757 -2.555948
v -0.926385 0.853117 -2.531377
v -1.135787 0.851103 -2.522933
v -0.925826 0.862350 -2.520651
v -0.927440 0.890990 -2.545223
v -1.136842 0.888977 -2.536779
v -1.135228 0.860337 -2.512208
v -0.926385 0.853117 -2.531377
v -0.925826 0.862350 -2.520651
v -1.135228 0.860337 -2.512208
v -1.135787 0.851103 -2.522933
v -1.136842 0.888977 -2.536779
v -0.927440 0.890990 -2.545223
v -0.927998 0.881757 -2.555948
v -1.137401 0.879743 -2.547505
v -1.142978 0.929370 -2.514930
v -1.145243 0.961156 -2.535206
v -1.145797 0.953517 -2.547121
v -1.143532 0.921731 -2.526844
v -0.936546 0.959776 -2.557095
v -0.935992 0.967416 -2.545181
v -0.933727 0.935629 -2.524905
v -0.934281 0.927990 -2.536819
v -1.145797 0.953517 -2.547121
v -0.936546 0.959776 -2.557095
v -0.934281 0.927990 -2.536819
v -1.143532 0.921731 -2.526844
v -0.933727 0.935629 -2.524905
v -0.935992 0.967416 -2.545181
v -1.145243 0.961156 -2.535206
v -1.142978 0.929370 -2.514930
v -0.934281 0.927990 -2.536819
v -0.933727 0.935629 -2.524905
v -1.142978 0.929370 -2.514930
v -1.143532 0.921731 -2.526844
v -1.145243 0.961156 -2.535206
v -0.935992 0.967416 -2.545181
v -0.936546 0.959776 -2.557095
v -1.145797 0.953517 -2.547121
usemtl mat16

vn -0.998908 -0.021372 0.041549
vn -0.998908 -0.021372 0.041549
vn -0.998908 -0.021372 0.041549
vn -0.998908 -0.021372 0.041549
vn 0.998908 0.021372 -0.041549
vn 0.998908 0.021372 -0.041549
vn 0.998908 0.021372 -0.041549
vn 0.998908 0.021372 -0.041549
vn 0.022182 -0.999571 0.019130
vn 0.022182 -0.999571 0.019130
vn 0.022182 -0.999571 0.019130
vn 0.022182 -0.999571 0.019130
vn -0.022182 0.999571 -0.019130
vn -0.022182 0.999571 -0.019130
vn -0.022182 0.999571 -0.019130
vn -0.022182 0.999571 -0.019130
vn 0.041122 0.020031 0.998953
vn 0.041122 0.020031 0.998953
vn 0.041122 0.020031 0.998953
vn 0.041122 0.020031 0.998953
vn -0.041122 -0.020031 -0.998953
vn -0.041122 -0.020031 -0.998953
vn -0.041122 -0.020031 -0.998953
vn -0.041122 -0.020031 -0.998953
vn -0.998653 -0.030848 0.041728
vn -0.998653 -0.030848 0.041728
vn -0.998653 -0.030848 0.041728
vn -0.998653 -0.030848 0.041728
vn 0.998653 0.030848 -0.041728
vn 0.998653 0.030848 -0.041728
vn 0.998653 0.030848 -0.041728
vn 0.998653 0.030848 -0.041728
vn 0.022182 -0.999571 0.019130
vn 0.022182 -0.999571 0.019130
vn 0.022182 -0.999571 0.019130
vn 0.022182 -0.999571 0.019130
vn -0.022182 0.999571 -0.019130
vn -0.022182 0.999571 -0.019130
vn -0.022182 0.999571 -0.019130
vn -0.022182 0.999571 -0.019130
vn 0.041093 0.021358 0.998927
vn 0.041093 0.021358 0.998927
vn 0.041093 0.021358 0.998927
vn 0.041093 0.021358 0.998927
vn -0.041093 -0.021358 -0.998927
vn -0.041093 -0.021358 -0.998927
vn -0.041093 -0.021358 -0.998927
vn -0.041093 -0.021358 -0.998927
vn -0.999054 -0.013331 0.041394
vn -0.999054 -0.013331 0.041394
vn -0.999054 -0.013331 0.041394
vn -0.999054 -0.013331 0.041394
vn 0.999054 0.013331 -0.041394
vn 0.999054 0.013331 -0.041394
vn 0.999054 0.013331 -0.041394
vn 0.999054 0.013331 -0.041394
vn 0.022182 -0.999571 0.019130
vn 0.022182 -0.999571 0.019130
vn 0.022182 -0.999571 0.019130
vn 0.022182 -0.999571 0.019130
vn -0.022182 0.999571 -0.019130
vn -0.022182 0.999571 -0.019130
vn -0.022182 0.999571 -0.019130
vn -0.022182 0.999571 -0.019130
vn 0.041297 0.012095 0.999074
vn 0.041297 0.012095 0.999074
vn 0.041297 0.012095 0.999074
vn 0.041297 0.012095 0.999074
vn -0.041297 -0.012095 -0.999074
vn -0.041297 -0.012095 -0.999074
vn -0.041297 -0.012095 -0.999074
vn -0.041297 -0.012095 -0.999074
vn -0.997078 -0.029813 0.070329
vn -0.997078 -0.029813 0.070329
vn -0.997078 -0.029813 0.070329
vn -0.997078 -0.029813 0.070329
vn 0.997078 0.029813 -0.070329
vn 0.997078 0.029813 -0.070329
vn 0.997078 0.029813 -0.070329
vn 0.997078 0.029813 -0.070329
vn 0.032063 -0.999002 0.031088
vn 0.032063 -0.999002 0.031088
vn 0.032063 -0.999002 0.031088
vn 0.032063 -0.999002 0.031088
vn -0.032063 0.999002 -0.031088
vn -0.032063 0.999002 -0.031088
vn -0.032063 0.999002 -0.031088
vn -0.032063 0.999002 -0.031088
vn 0.069332 0.033252 0.997039
vn 0.069332 0.033252 0.997039
vn 0.069332 0.033252 0.997039
vn 0.069332 0.033252 0.997039
vn -0.069332 -0.033252 -0.997039
vn -0.069332 -0.033252 -0.997039
vn -0.069332 -0.033252 -0.997039
vn -0.069332 -0.033252 -0.997039
vn -0.997861 -0.026073 0.059948
vn -0.997861 -0.026073 0.059948
vn -0.997861 -0.026073 0.059948
vn -0.997861 -0.026073 0.059948
vn 0.997861 0.026073 -0.059948
vn 0.997861 0.026073 -0.059948
vn 0.997861 0.026073 -0.059948
vn 0.997861 0.026073 -0.059948
vn -0.010307 -0.689359 -0.724347
vn -0.010307 -0.689359 -0.724347
vn -0.010307 -0.689359 -0.724347
vn -0.010307 -0.689359 -0.724347
vn 0.010307 0.689359 0.724347
vn 0.010307 0.689359 0.724347
vn 0.010307 0.689359 0.724347
vn 0.010307 0.689359 0.724347
vn 0.051044 -0.723707 0.688217
vn 0.051044 -0.723707 0.688217
vn 0.051044 -0.723707 0.688217
vn 0.051044 -0.723707 0.688217
vn -0.051044 0.723715 -0.688208
vn -0.051044 0.723715 -0.688208
vn -0.051044 0.723715 -0.688208
vn -0.051044 0.723715 -0.688208
vn -0.997804 -0.027088 0.060444
vn -0.997804 -0.027088 0.060444
vn -0.997804 -0.027088 0.060444
vn 0.997804 0.027088 -0.060444
vn 0.997804 0.027088 -0.060444
vn 0.997804 0.027088 -0.060444
vn -0.005414 -0.759542 -0.650436
vn -0.005414 -0.759542 -0.650436
vn -0.005414 -0.759542 -0.650436
vn -0.005414 -0.759542 -0.650436
vn 0.014339 0.635170 0.772240
vn 0.014339 0.635170 0.772240
vn 0.014339 0.635170 0.772240
vn 0.014339 0.635170 0.772240
vn 0.050143 -0.771715 0.633989
vn 0.050143 -0.771715 0.633989
vn 0.050143 -0.771715 0.633989
vn 0.050143 -0.771715 0.633989
vn -0.043635 0.925418 -0.376426
vn -0.043635 0.925418 -0.376426
vn -0.043635 0.925418 -0.376426
vn -0.043635 0.925418 -0.376426
vn -0.906964 0.096398 0.410029
vn -0.906964 0.096398 0.410029
vn -0.906964 0.096398 0.410029
vn 0.906965 -0.096397 -0.410027
vn 0.906965 -0.096397 -0.410027
vn 0.906965 -0.096397 -0.410027
vn -0.998275 -0.007730 0.058203
vn -0.998275 -0.007730 0.058203
vn -0.998275 -0.007730 0.058203
vn -0.998275 -0.007730 0.058203
vn 0.998275 0.007730 -0.058203
vn 0.998275 0.007730 -0.058203
vn 0.998275 0.007730 -0.058203
vn 0.998275 0.007730 -0.058203
vn -0.027029 -0.595136 -0.803171
vn -0.027029 -0.595136 -0.803171
vn -0.027029 -0.595136 -0.803171
vn -0.027029 -0.595136 -0.803171
vn 0.027029 0.595136 0.803171
vn 0.027029 0.595136 0.803171
vn 0.027029 0.595136 0.803171
vn 0.027029 0.595136 0.803171
vn 0.031674 -0.803487 0.594479
vn 0.031674 -0.803487 0.594479
vn 0.031674 -0.803487 0.594479
vn 0.031674 -0.803487 0.594479
vn -0.031674 0.803494 -0.594469
vn -0.031674 0.803494 -0.594469
vn -0.031674 0.803494 -0.594469
vn -0.031674 0.803494 -0.594469
vn -0.998308 -0.006691 0.057759
vn -0.998308 -0.006691 0.057759
vn -0.998308 -0.006691 0.057759
vn -0.998308 -0.006691 0.057759
vn 0.998308 0.006691 -0.057759
vn 0.998308 0.006691 -0.057759
vn 0.998308 0.006691 -0.057759
vn 0.998308 0.006691 -0.057759
vn -0.024300 -0.651736 -0.758056
vn -0.024300 -0.651736 -0.758056
vn -0.024300 -0.651736 -0.758056
vn -0.024300 -0.651736 -0.758056
vn 0.024300 0.651736 0.758057
vn 0.024300 0.651736 0.758057
vn 0.024300 0.651736 0.758057
vn 0.024300 0.651736 0.758057
vn 0.033543 -0.758294 0.651050
vn 0.033543 -0.758294 0.651050
vn 0.033543 -0.758294 0.651050
vn 0.033543 -0.758294 0.651050
vn -0.033543 0.758301 -0.651041
vn -0.033543 0.758301 -0.651041
vn -0.033543 0.758301 -0.651041
vn -0.033543 0.758301 -0.651041
vn -0.997432 -0.029425 0.065292
vn -0.997432 -0.029425 0.065292
vn -0.997432 -0.029425 0.065292
vn -0.997432 -0.029425 0.065292
vn 0.997432 0.029425 -0.065292
vn 0.997432 0.029425 -0.065292
vn 0.997432 0.029425 -0.065292
vn 0.997432 0.029425 -0.065292
vn -0.024022 -0.538850 -0.842059
vn -0.024022 -0.538850 -0.842059
vn -0.024022 -0.538850 -0.842059
vn -0.024022 -0.538850 -0.842059
vn 0.024022 0.538850 0.842059
vn 0.024022 0.538850 0.842059
vn 0.024022 0.538850 0.842059
vn 0.024022 0.538850 0.842059
vn 0.050797 -0.841797 0.537399
vn 0.050797 -0.841797 0.537399
vn 0.050797 -0.841797 0.537399
vn 0.050797 -0.841797 0.537399
vn -0.050796 0.841803 -0.537390
vn -0.050796 0.841803 -0.537390
vn -0.050796 0.841803 -0.537390
vn -0.050796 0.841803 -0.537390

vt 0.069184 0.198903
vt 0.072378 0.200919
vt 0.074646 0.197325
vt 0.071451 0.195310
vt -0.074646 0.197325
vt -0.072378 0.200919
vt -0.069184 0.198903
vt -0.071451 0.195310
vt -0.200564 -0.083152
vt -0.193545 -0.059625
vt -0.189926 -0.060705
vt -0.196945 -0.084231
vt 0.189926 -0.060705
vt 0.193545 -0.059625
vt 0.200564 -0.083152
vt 0.196945 -0.084231
vt 0.162942 -0.047358
vt 0.166783 -0.045542
vt 0.177279 -0.067736
vt 0.173437 -0.069553
vt -0.177279 -0.067736
vt -0.166783 -0.045542
vt -0.162942 -0.047358
vt -0.173437 -0.069553
vt 0.054256 0.220806
vt 0.056241 0.222084
vt 0.070162 0.200399
vt 0.068177 0.199121
vt -0.070179 0.200372
vt -0.056258 0.222058
vt -0.054273 0.220780
vt -0.068194 0.199095
vt -0.193720 -0.063515
vt -0.192775 -0.060348
vt -0.190513 -0.061023
vt -0.191458 -0.064190
vt 0.190616 -0.061247
vt 0.192878 -0.060572
vt 0.193823 -0.063739
vt 0.191561 -0.064414
vt 0.165491 -0.046629
vt 0.188887 -0.035826
vt 0.190301 -0.038813
vt 0.166905 -0.049616
vt -0.190304 -0.038812
vt -0.188890 -0.035825
vt -0.165494 -0.046627
vt -0.166908 -0.049614
vt 0.059320 0.217217
vt 0.061326 0.218461
vt 0.074672 0.197326
vt 0.072666 0.196081
vt -0.074658 0.197348
vt -0.061312 0.218484
vt -0.059306 0.217239
vt -0.072652 0.196104
vt -0.199524 -0.082969
vt -0.198579 -0.079802
vt -0.196317 -0.080477
vt -0.197262 -0.083644
vt 0.196070 -0.080341
vt 0.198332 -0.079666
vt 0.199277 -0.082833
vt 0.197014 -0.083508
vt 0.172640 -0.066028
vt 0.195172 -0.055204
vt 0.196579 -0.058195
vt 0.174047 -0.069018
vt -0.196562 -0.058203
vt -0.195155 -0.055212
vt -0.172623 -0.066036
vt -0.174030 -0.069026
vt 0.066619 0.219596
vt 0.069908 0.221453
vt 0.071997 0.217752
vt 0.068708 0.215896
vt -0.071997 0.217752
vt -0.069908 0.221453
vt -0.066619 0.219596
vt -0.068708 0.215896
vt -0.197200 -0.083692
vt -0.191012 -0.059934
vt -0.187357 -0.060886
vt -0.193545 -0.084644
vt 0.187357 -0.060886
vt 0.191012 -0.059934
vt 0.197200 -0.083692
vt 0.193545 -0.084644
vt 0.184517 -0.031759
vt 0.188375 -0.029979
vt 0.198661 -0.052271
vt 0.194803 -0.054051
vt -0.198661 -0.052271
vt -0.188375 -0.029979
vt -0.184517 -0.031759
vt -0.194803 -0.054051
vt 0.075503 0.200501
vt 0.076261 0.204201
vt 0.077648 0.203917
vt 0.076891 0.200217
vt -0.077298 0.203792
vt -0.075911 0.204076
vt -0.075153 0.200376
vt -0.076541 0.200092
vt -0.251603 -0.015049
vt -0.241630 0.003384
vt -0.238292 0.001617
vt -0.248265 -0.016816
vt 0.238282 0.001636
vt 0.241620 0.003403
vt 0.251593 -0.015030
vt 0.248255 -0.016797
vt -0.022593 -0.114575
vt -0.021185 -0.114421
vt -0.019231 -0.135288
vt -0.020639 -0.135441
vt 0.019230 -0.135323
vt 0.021185 -0.114456
vt 0.022593 -0.114609
vt 0.020638 -0.135476
vt 0.074059 0.204245
vt 0.074545 0.207991
vt 0.075463 0.204063
vt -0.074205 0.207841
vt -0.073719 0.204095
vt -0.075123 0.203912
vt -0.257270 -0.015319
vt -0.247475 0.003210
vt -0.243007 0.001968
vt -0.252802 -0.016560
vt 0.238662 0.002997
vt 0.241993 0.004777
vt 0.252043 -0.013614
vt 0.248712 -0.015395
vt -0.040368 -0.114203
vt -0.038955 -0.114105
vt -0.037812 -0.135032
vt -0.039225 -0.135130
vt 0.120629 -0.120345
vt 0.118340 -0.099512
vt 0.120739 -0.100232
vt 0.123029 -0.121064
vt 0.225782 0.095079
vt 0.227965 0.093850
vt 0.223989 0.091466
vt -0.216622 0.095047
vt -0.220598 0.097432
vt -0.218415 0.098660
vt 0.073885 0.207720
vt 0.074234 0.211480
vt 0.075645 0.211349
vt 0.075295 0.207589
vt -0.075310 0.211187
vt -0.073900 0.211318
vt -0.073550 0.207557
vt -0.074961 0.207426
vt -0.255349 -0.010993
vt -0.244944 0.007200
vt -0.241648 0.005355
vt -0.252053 -0.012838
vt 0.241637 0.005374
vt 0.244933 0.007219
vt 0.255338 -0.010974
vt 0.252042 -0.012819
vt -0.049378 -0.117234
vt -0.047963 -0.117160
vt -0.047185 -0.138104
vt -0.048600 -0.138178
vt 0.047187 -0.138138
vt 0.047965 -0.117194
vt 0.049380 -0.117268
vt 0.048602 -0.138212
vt 0.075479 0.204020
vt 0.076101 0.207746
vt 0.077498 0.207513
vt 0.076876 0.203787
vt -0.077153 0.207375
vt -0.075756 0.207608
vt -0.075134 0.203883
vt -0.076531 0.203650
vt -0.255378 -0.011925
vt -0.245030 0.006301
vt -0.241729 0.004467
vt -0.252076 -0.013759
vt 0.241718 0.004486
vt 0.245020 0.006320
vt 0.255367 -0.011906
vt 0.252066 -0.013740
vt -0.031097 -0.118239
vt -0.029686 -0.118107
vt -0.028055 -0.139002
vt -0.029465 -0.139133
vt 0.028055 -0.139036
vt 0.029687 -0.118142
vt 0.031097 -0.118273
vt 0.029465 -0.139168
vt 0.069359 0.213880
vt 0.069416 0.217656
vt 0.070832 0.217635
vt 0.070775 0.213858
vt -0.070512 0.217447
vt -0.069095 0.217469
vt -0.069038 0.213692
vt -0.070454 0.213671
vt -0.254605 -0.012612
vt -0.244569 0.005787
vt -0.241236 0.004009
vt -0.251272 -0.014390
vt 0.241226 0.004028
vt 0.244558 0.005806
vt 0.254595 -0.012593
vt 0.251262 -0.014371
vt -0.066284 -0.111539
vt -0.064867 -0.111528
vt -0.065014 -0.132485
vt -0.066430 -0.132497
vt 0.065017 -0.132520
vt 0.064870 -0.111562
vt 0.066287 -0.111573
vt 0.066433 -0.132531
s off
f 1/1/1 2/2/2 3/3/3
f 1/1/1 3/3/3 4/4/4
f 5/5/5 6/6/6 7/7/7
f 5/5/5 7/7/7 8/8/8
f 9/9/9 10/10/10 11/11/11
f 9/9/9 11/11/11 12/12/12
f 13/13/13 14/14/14 15/15/15
f 13/13/13 15/15/15 16/16/16
f 17/17/17 18/18/18 19/19/19
f 17/17/17 19/19/19 20/20/20
f 21/21/21 22/22/22 23/23/23
f 21/21/21 23/23/23 24/24/24
f 25/25/25 26/26/26 27/27/27
f 25/25/25 27/27/27 28/28/28
f 29/29/29 30/30/30 31/31/31
f 29/29/29 31/31/31 32/32/32
f 33/33/33 34/34/34 35/35/35
f 33/33/33 35/35/35 36/36/36
f 37/37/37 38/38/38 39/39/39
f 37/37/37 39/39/39 40/40/40
f 41/41/41 42/42/42 43/43/43
f 41/41/41 43/43/43 44/44/44
f 45/45/45 46/46/46 47/47/47
f 45/45/45 47/47/47 48/48/48
f 49/49/49 50/50/50 51/51/51
f 49/49/49 51/51/51 52/52/52
f 53/53/53 54/54/54 55/55/55
f 53/53/53 55/55/55 56/56/56
f 57/57/57 58/58/58 59/59/59
f 57/57/57 59/59/59 60/60/60
f 61/61/61 62/62/62 63/63/63
f 61/61/61 63/63/63 64/64/64
f 65/65/65 66/66/66 67/67/67
f 65/65/65 67/67/67 68/68/68
f 69/69/69 70/70/70 71/71/71
f 69/69/69 71/71/71 72/72/72
f 73/73/73 74/74/74 75/75/75
f 73/73/73 75/75/75 76/76/76
f 77/77/77 78/78/78 79/79/79
f 77/77/77 79/79/79 80/80/80
f 81/81/81 82/82/82 83/83/83
f 81/81/81 83/83/83 84/84/84
f 85/85/85 86/86/86 87/87/87
f 85/85/85 87/87/87 88/88/88
f 89/89/89 90/90/90 91/91/91
f 89/89/89 91/91/91 92/92/92
f 93/93/93 94/94/94 95/95/95
f 93/93/93 95/95/95 96/96/96
f 97/97/97 98/98/98 99/99/99
f 97/97/97 99/99/99 100/100/100
f 101/101/101 102/102/102 103/103/103
f 101/101/101 103/103/103 104/104/104
f 105/105/105 106/106/106 107/107/107
f 105/105/105 107/107/107 108/108/108
f 109/109/109 110/110/110 111/111/111
f 109/109/109 111/111/111 112/112/112
f 113/113/113 114/114/114 115/115/115
f 113/113/113 115/115/115 116/116/116
f 117/117/117 118/118/118 119/119/119
f 117/117/117 119/119/119 120/120/120
f 121/121/121 122/122/122 123/123/123
f 124/124/124 125/125/125 126/126/126
f 127/127/127 128/128/128 129/129/129
f 127/127/127 129/129/129 130/130/130
f 131/131/131 132/132/132 133/133/133
f 131/131/131 133/133/133 134/134/134
f 135/135/135 136/136/136 137/137/137
f 135/135/135 137/137/137 138/138/138
f 139/139/139 140/140/140 141/141/141
f 139/139/139 141/141/141 142/142/142
f 143/143/143 144/144/144 145/145/145
f 146/146/146 147/147/147 148/148/148
f 149/149/149 150/150/150 151/151/151
f 149/149/149 151/151/151 152/152/152
f 153/153/153 154/154/154 155/155/155
f 153/153/153 155/155/155 156/156/156
f 157/157/157 158/158/158 159/159/159
f 157/157/157 159/159/159 160/160/160
f 161/161/161 162/162/162 163/163/163
f 161/161/161 163/163/163 164/164/164
f 165/165/165 166/166/166 167/167/167
f 165/165/165 167/167/167 168/168/168
f 169/169/169 170/170/170 171/171/171
f 169/169/169 171/171/171 172/172/172
f 173/173/173 174/174/174 175/175/175
f 173/173/173 175/175/175 176/176/176
f 177/177/177 178/178/178 179/179/179
f 177/177/177 179/179/179 180/180/180
f 181/181/181 182/182/182 183/183/183
f 181/181/181 183/183/183 184/184/184
f 185/185/185 186/186/186 187/187/187
f 185/185/185 187/187/187 188/188/188
f 189/189/189 190/190/190 191/191/191
f 189/189/189 191/191/191 192/192/192
f 193/193/193 194/194/194 195/195/195
f 193/193/193 195/195/195 196/196/196
f 197/197/197 198/198/198 199/199/199
f 197/197/197 199/199/199 200/200/200
f 201/201/201 202/202/202 203/203/203
f 201/201/201 203/203/203 204/204/204
f 205/205/205 206/206/206 207/207/207
f 205/205/205 207/207/207 208/208/208
f 209/209/209 210/210/210 211/211/211
f 209/209/209 211/211/211 212/212/212
f 213/213/213 214/214/214 215/215/215
f 213/213/213 215/215/215 216/216/216
f 217/217/217 218/218/218 219/219/219
f 217/217/217 219/219/219 220/220/220
