# Exported using automatic converter by Erwin Coumans
mtllib model6.mtl
#object mesh437460730

v 1.108238 1.985489 -0.630148
v 1.108238 1.985489 -0.490148
v 1.108238 1.955489 -0.490148
v 1.108238 1.955489 -0.630148
v 1.078238 1.955489 -0.490148
v 1.078238 1.985489 -0.490148
v 1.078238 1.985489 -0.630148
v 1.078238 1.955489 -0.630148
v 1.108238 1.955489 -0.490148
v 1.078238 1.955489 -0.490148
v 1.078238 1.955489 -0.630148
v 1.108238 1.955489 -0.630148
v 1.078238 1.985489 -0.630148
v 1.078238 1.985489 -0.490148
v 1.108238 1.985489 -0.490148
v 1.108238 1.985489 -0.630148
v 1.078238 1.955489 -0.630148
v 1.078238 1.985489 -0.630148
v 1.108238 1.985489 -0.630148
v 1.108238 1.955489 -0.630148
v 1.108238 1.985489 -0.490148
v 1.078238 1.985489 -0.490148
v 1.078238 1.955489 -0.490148
v 1.108238 1.955489 -0.490148
usemtl mat23

vn 1.000000 0.000000 0.000000
vn 1.000000 0.000000 0.000000
vn 1.000000 0.000000 0.000000
vn 1.000000 0.000000 0.000000
vn -1.000000 0.000000 0.000000
vn -1.000000 0.000000 0.000000
vn -1.000000 0.000000 0.000000
vn -1.000000 0.000000 0.000000
vn 0.000000 -1.000000 0.000000
vn 0.000000 -1.000000 0.000000
vn 0.000000 -1.000000 0.000000
vn 0.000000 -1.000000 0.000000
vn 0.000000 1.000000 0.000000
vn 0.000000 1.000000 0.000000
vn 0.000000 1.000000 0.000000
vn 0.000000 1.000000 0.000000
vn 0.000000 0.000000 -1.000000
vn 0.000000 0.000000 -1.000000
vn 0.000000 0.000000 -1.000000
vn 0.000000 0.000000 -1.000000
vn 0.000000 0.000000 1.000000
vn 0.000000 0.000000 1.000000
vn 0.000000 0.000000 1.000000
vn 0.000000 0.000000 1.000000

vt 0.164723 0.185880
vt 0.176115 0.177743
vt 0.174371 0.175302
vt 0.162979 0.183439
vt -0.174371 0.175302
vt -0.176115 0.177743
vt -0.164723 0.185880
vt -0.162979 0.183439
vt 0.064577 0.061886
vt 0.063568 0.059061
vt 0.050383 0.063769
vt 0.051392 0.066595
vt -0.050383 0.063769
vt -0.063568 0.059061
vt -0.064577 0.061886
vt -0.051392 0.066595
vt -0.183805 0.177991
vt -0.186488 0.179333
vt -0.185146 0.182016
vt -0.182463 0.180674
vt 0.185146 0.182016
vt 0.186488 0.179333
vt 0.183805 0.177991
vt 0.182463 0.180674
s off
f 1/1/1 2/2/2 3/3/3
f 1/1/1 3/3/3 4/4/4
f 5/5/5 6/6/6 7/7/7
f 5/5/5 7/7/7 8/8/8
f 9/9/9 10/10/10 11/11/11
f 9/9/9 11/11/11 12/12/12
f 13/13/13 14/14/14 15/15/15
f 13/13/13 15/15/15 16/16/16
f 17/17/17 18/18/18 19/19/19
f 17/17/17 19/19/19 20/20/20
f 21/21/21 22/22/22 23/23/23
f 21/21/21 23/23/23 24/24/24
