# Exported using automatic converter by Erwin Coumans
mtllib model6.mtl
#object mesh1314334321

v -2.488885 0.045100 1.217917
v -2.454290 0.018149 1.203648
v -2.436682 0.015501 1.251341
v -2.471277 0.042451 1.265610
v -2.454290 0.018149 1.203648
v -2.411335 0.013482 1.187529
v -2.393726 0.010834 1.235222
v -2.436682 0.015501 1.251341
v -2.411335 0.013482 1.187529
v -2.371529 0.032348 1.173880
v -2.353920 0.029700 1.221573
v -2.393726 0.010834 1.235222
v -2.371529 0.032348 1.173880
v -2.345539 0.069693 1.166357
v -2.327930 0.067045 1.214051
v -2.353920 0.029700 1.221573
v -2.345539 0.069693 1.166357
v -2.340328 0.115511 1.166977
v -2.322719 0.112863 1.214671
v -2.327930 0.067045 1.214051
v -2.340328 0.115511 1.166977
v -2.357293 0.157523 1.175574
v -2.339684 0.154875 1.223267
v -2.322719 0.112863 1.214671
v -2.357293 0.157523 1.175574
v -2.391887 0.184474 1.189843
v -2.374279 0.181826 1.237536
v -2.339684 0.154875 1.223267
v -2.391887 0.184474 1.189843
v -2.434843 0.189141 1.205962
v -2.417234 0.186493 1.253655
v -2.374279 0.181826 1.237536
v -2.474649 0.170275 1.219611
v -2.500639 0.132929 1.227133
v -2.483030 0.130281 1.274826
v -2.457040 0.167627 1.267304
v -2.500639 0.132929 1.227133
v -2.505850 0.087112 1.226513
v -2.488241 0.084464 1.274206
v -2.483030 0.130281 1.274826
v -2.505850 0.087112 1.226513
v -2.488885 0.045100 1.217917
v -2.471277 0.042451 1.265610
v -2.488241 0.084464 1.274206
v -2.448621 0.078507 1.381516
v -2.443410 0.124324 1.382136
v -2.469824 0.128295 1.310597
v -2.475035 0.082478 1.309976
v -2.443410 0.124324 1.382136
v -2.417420 0.161669 1.374614
v -2.443834 0.165641 1.303074
v -2.469824 0.128295 1.310597
v -2.377614 0.180536 1.360965
v -2.334659 0.175868 1.344846
v -2.361072 0.179840 1.273306
v -2.404028 0.184507 1.289425
v -2.334659 0.175868 1.344846
v -2.300064 0.148918 1.330577
v -2.326477 0.152890 1.259037
v -2.361072 0.179840 1.273306
v -2.300064 0.148918 1.330577
v -2.283099 0.106905 1.321980
v -2.309512 0.110877 1.250441
v -2.326477 0.152890 1.259037
v -2.283099 0.106905 1.321980
v -2.288310 0.061088 1.321360
v -2.314723 0.065059 1.249821
v -2.309512 0.110877 1.250441
v -2.288310 0.061088 1.321360
v -2.314300 0.023743 1.328883
v -2.340714 0.027714 1.257343
v -2.314723 0.065059 1.249821
v -2.314300 0.023743 1.328883
v -2.354106 0.004876 1.342532
v -2.380519 0.008848 1.270992
v -2.340714 0.027714 1.257343
v -2.354106 0.004876 1.342532
v -2.397061 0.009543 1.358651
v -2.423475 0.013515 1.287111
v -2.380519 0.008848 1.270992
v -2.397061 0.009543 1.358651
v -2.431657 0.036494 1.372920
v -2.458070 0.040465 1.301380
v -2.423475 0.013515 1.287111
v -2.431657 0.036494 1.372920
v -2.448621 0.078507 1.381516
v -2.475035 0.082478 1.309976
v -2.458070 0.040465 1.301380
v -2.417806 0.073873 1.464980
v -2.412595 0.119690 1.465600
v -2.443410 0.124324 1.382136
v -2.448621 0.078507 1.381516
v -2.412595 0.119690 1.465600
v -2.386605 0.157035 1.458078
v -2.417420 0.161669 1.374614
v -2.443410 0.124324 1.382136
v -2.346799 0.175902 1.444428
v -2.303843 0.171235 1.428310
v -2.334659 0.175868 1.344846
v -2.377614 0.180536 1.360965
v -2.303843 0.171235 1.428310
v -2.269248 0.144284 1.414040
v -2.300064 0.148918 1.330577
v -2.334659 0.175868 1.344846
v -2.269248 0.144284 1.414040
v -2.252283 0.102271 1.405444
v -2.283099 0.106905 1.321980
v -2.300064 0.148918 1.330577
v -2.252283 0.102271 1.405444
v -2.257495 0.056454 1.404824
v -2.288310 0.061088 1.321360
v -2.283099 0.106905 1.321980
v -2.283485 0.019109 1.412346
v -2.323291 0.000242 1.425995
v -2.354106 0.004876 1.342532
v -2.314300 0.023743 1.328883
v -2.323291 0.000242 1.425995
v -2.366246 0.004909 1.442114
v -2.397061 0.009543 1.358651
v -2.354106 0.004876 1.342532
v -2.366246 0.004909 1.442114
v -2.400841 0.031860 1.456384
v -2.431657 0.036494 1.372920
v -2.397061 0.009543 1.358651
v -2.400841 0.031860 1.456384
v -2.417806 0.073873 1.464980
v -2.448621 0.078507 1.381516
v -2.431657 0.036494 1.372920
v -2.309264 0.053589 1.423779
v -2.301851 0.047814 1.420721
v -2.288644 0.045828 1.456491
v -2.296057 0.051603 1.459549
v -2.301851 0.047814 1.420721
v -2.292646 0.046814 1.417267
v -2.279439 0.044828 1.453037
v -2.288644 0.045828 1.456491
v -2.292646 0.046814 1.417267
v -2.284116 0.050857 1.414342
v -2.270910 0.048871 1.450112
v -2.279439 0.044828 1.453037
v -2.284116 0.050857 1.414342
v -2.278547 0.058859 1.412730
v -2.265340 0.056873 1.448500
v -2.270910 0.048871 1.450112
v -2.278547 0.058859 1.412730
v -2.277430 0.068677 1.412863
v -2.264224 0.066691 1.448633
v -2.265340 0.056873 1.448500
v -2.277430 0.068677 1.412863
v -2.281066 0.077680 1.414705
v -2.267859 0.075694 1.450475
v -2.264224 0.066691 1.448633
v -2.281066 0.077680 1.414705
v -2.288479 0.083455 1.417763
v -2.275272 0.081469 1.453533
v -2.267859 0.075694 1.450475
v -2.288479 0.083455 1.417763
v -2.297684 0.084455 1.421217
v -2.284477 0.082469 1.456987
v -2.275272 0.081469 1.453533
v -2.297684 0.084455 1.421217
v -2.306213 0.080412 1.424142
v -2.293007 0.078426 1.459911
v -2.284477 0.082469 1.456987
v -2.306213 0.080412 1.424142
v -2.311783 0.072410 1.425753
v -2.298576 0.070424 1.461523
v -2.293007 0.078426 1.459911
v -2.311783 0.072410 1.425753
v -2.312899 0.062592 1.425621
v -2.299693 0.060606 1.461391
v -2.298576 0.070424 1.461523
v -2.312899 0.062592 1.425621
v -2.309264 0.053589 1.423779
v -2.296057 0.051603 1.459549
v -2.299693 0.060606 1.461391
v -2.296057 0.051603 1.459549
v -2.288644 0.045828 1.456491
v -2.279439 0.044828 1.453037
v -2.270910 0.048871 1.450112
v -2.265340 0.056873 1.448500
v -2.264224 0.066691 1.448633
v -2.267859 0.075694 1.450475
v -2.275272 0.081469 1.453533
v -2.284477 0.082469 1.456987
v -2.293007 0.078426 1.459911
v -2.298576 0.070424 1.461523
v -2.299693 0.060606 1.461391
v -2.312899 0.062592 1.425621
v -2.311783 0.072410 1.425753
v -2.306213 0.080412 1.424142
v -2.297684 0.084455 1.421217
v -2.288479 0.083455 1.417763
v -2.281066 0.077680 1.414705
v -2.277430 0.068677 1.412863
v -2.278547 0.058859 1.412730
v -2.284116 0.050857 1.414342
v -2.292646 0.046814 1.417267
v -2.301851 0.047814 1.420721
v -2.309264 0.053589 1.423779
usemtl mat13

vn -0.563574 -0.809801 0.163115
vn -0.563574 -0.809801 0.163115
vn -0.563574 -0.809801 0.163115
vn -0.563574 -0.809801 0.163115
vn -0.112991 -0.993505 -0.013442
vn -0.112991 -0.993505 -0.013442
vn -0.112991 -0.993505 -0.013442
vn -0.112991 -0.993505 -0.013442
vn 0.367864 -0.911005 -0.186403
vn 0.367864 -0.911005 -0.186403
vn 0.367864 -0.911005 -0.186403
vn 0.367864 -0.911005 -0.186403
vn 0.750162 -0.584396 -0.309414
vn 0.750162 -0.584396 -0.309414
vn 0.750162 -0.584396 -0.309414
vn 0.750162 -0.584396 -0.309414
vn 0.931447 -0.101209 -0.349518
vn 0.931447 -0.101209 -0.349518
vn 0.931447 -0.101209 -0.349518
vn 0.931447 -0.101209 -0.349518
vn 0.863154 0.409100 -0.295975
vn 0.863154 0.409100 -0.295975
vn 0.863154 0.409100 -0.295975
vn 0.863154 0.409100 -0.295975
vn 0.563575 0.809801 -0.163113
vn 0.563575 0.809801 -0.163113
vn 0.563575 0.809801 -0.163113
vn 0.563575 0.809801 -0.163113
vn 0.112993 0.993505 0.013449
vn 0.112993 0.993505 0.013449
vn 0.112993 0.993505 0.013449
vn 0.112993 0.993505 0.013449
vn -0.750161 0.584396 0.309417
vn -0.750161 0.584396 0.309417
vn -0.750161 0.584396 0.309417
vn -0.750161 0.584396 0.309417
vn -0.931446 0.101208 0.349521
vn -0.931446 0.101208 0.349521
vn -0.931446 0.101208 0.349521
vn -0.931446 0.101208 0.349521
vn -0.863157 -0.409100 0.295967
vn -0.863157 -0.409100 0.295967
vn -0.863157 -0.409100 0.295967
vn -0.863157 -0.409100 0.295967
vn -0.931446 0.101207 0.349521
vn -0.931446 0.101207 0.349521
vn -0.931446 0.101207 0.349521
vn -0.931446 0.101207 0.349521
vn -0.750162 0.584396 0.309414
vn -0.750162 0.584396 0.309414
vn -0.750162 0.584396 0.309414
vn -0.750162 0.584396 0.309414
vn 0.112992 0.993505 0.013436
vn 0.112992 0.993505 0.013436
vn 0.112992 0.993505 0.013436
vn 0.112992 0.993505 0.013436
vn 0.563571 0.809802 -0.163122
vn 0.563571 0.809802 -0.163122
vn 0.563571 0.809802 -0.163122
vn 0.563571 0.809802 -0.163122
vn 0.863153 0.409102 -0.295977
vn 0.863153 0.409102 -0.295977
vn 0.863153 0.409102 -0.295977
vn 0.863153 0.409102 -0.295977
vn 0.931446 -0.101212 -0.349521
vn 0.931446 -0.101212 -0.349521
vn 0.931446 -0.101212 -0.349521
vn 0.931446 -0.101212 -0.349521
vn 0.750163 -0.584397 -0.309412
vn 0.750163 -0.584397 -0.309412
vn 0.750163 -0.584397 -0.309412
vn 0.750163 -0.584397 -0.309412
vn 0.367868 -0.911005 -0.186395
vn 0.367868 -0.911005 -0.186395
vn 0.367868 -0.911005 -0.186395
vn 0.367868 -0.911005 -0.186395
vn -0.112988 -0.993506 -0.013438
vn -0.112988 -0.993506 -0.013438
vn -0.112988 -0.993506 -0.013438
vn -0.112988 -0.993506 -0.013438
vn -0.563572 -0.809801 0.163123
vn -0.563572 -0.809801 0.163123
vn -0.563572 -0.809801 0.163123
vn -0.563572 -0.809801 0.163123
vn -0.863154 -0.409100 0.295977
vn -0.863154 -0.409100 0.295977
vn -0.863154 -0.409100 0.295977
vn -0.863154 -0.409100 0.295977
vn -0.931447 0.101210 0.349518
vn -0.931447 0.101210 0.349518
vn -0.931447 0.101210 0.349518
vn -0.931447 0.101210 0.349518
vn -0.750162 0.584397 0.309414
vn -0.750162 0.584397 0.309414
vn -0.750162 0.584397 0.309414
vn -0.750162 0.584397 0.309414
vn 0.112991 0.993505 0.013443
vn 0.112991 0.993505 0.013443
vn 0.112991 0.993505 0.013443
vn 0.112991 0.993505 0.013443
vn 0.563574 0.809801 -0.163115
vn 0.563574 0.809801 -0.163115
vn 0.563574 0.809801 -0.163115
vn 0.563574 0.809801 -0.163115
vn 0.863155 0.409102 -0.295971
vn 0.863155 0.409102 -0.295971
vn 0.863155 0.409102 -0.295971
vn 0.863155 0.409102 -0.295971
vn 0.931447 -0.101215 -0.349517
vn 0.931447 -0.101215 -0.349517
vn 0.931447 -0.101215 -0.349517
vn 0.931447 -0.101215 -0.349517
vn 0.367866 -0.911005 -0.186398
vn 0.367866 -0.911005 -0.186398
vn 0.367866 -0.911005 -0.186398
vn 0.367866 -0.911005 -0.186398
vn -0.112987 -0.993505 -0.013445
vn -0.112987 -0.993505 -0.013445
vn -0.112987 -0.993505 -0.013445
vn -0.112987 -0.993505 -0.013445
vn -0.563576 -0.809800 0.163116
vn -0.563576 -0.809800 0.163116
vn -0.563576 -0.809800 0.163116
vn -0.563576 -0.809800 0.163116
vn -0.863156 -0.409100 0.295970
vn -0.863156 -0.409100 0.295970
vn -0.863156 -0.409100 0.295970
vn -0.863156 -0.409100 0.295970
vn -0.738531 -0.630950 0.237641
vn -0.738531 -0.630950 0.237641
vn -0.738531 -0.630950 0.237641
vn -0.738531 -0.630950 0.237641
vn -0.350220 -0.933458 0.077476
vn -0.350220 -0.933458 0.077476
vn -0.350220 -0.933458 0.077476
vn -0.350220 -0.933458 0.077476
vn 0.131932 -0.985846 -0.103449
vn 0.131932 -0.985846 -0.103449
vn 0.131932 -0.985846 -0.103449
vn 0.131932 -0.985846 -0.103449
vn 0.578734 -0.774077 -0.256655
vn 0.578734 -0.774077 -0.256655
vn 0.578734 -0.774077 -0.256655
vn 0.578734 -0.774077 -0.256655
vn 0.870464 -0.354896 -0.341089
vn 0.870464 -0.354896 -0.341089
vn 0.870464 -0.354896 -0.341089
vn 0.870464 -0.354896 -0.341089
vn 0.928954 0.159380 -0.334130
vn 0.928954 0.159380 -0.334130
vn 0.928954 0.159380 -0.334130
vn 0.928954 0.159380 -0.334130
vn 0.738531 0.630951 -0.237641
vn 0.738531 0.630951 -0.237641
vn 0.738531 0.630951 -0.237641
vn 0.738531 0.630951 -0.237641
vn 0.350220 0.933458 -0.077476
vn 0.350220 0.933458 -0.077476
vn 0.350220 0.933458 -0.077476
vn 0.350220 0.933458 -0.077476
vn -0.131932 0.985846 0.103449
vn -0.131932 0.985846 0.103449
vn -0.131932 0.985846 0.103449
vn -0.131932 0.985846 0.103449
vn -0.578734 0.774077 0.256654
vn -0.578734 0.774077 0.256654
vn -0.578734 0.774077 0.256654
vn -0.578734 0.774077 0.256654
vn -0.870464 0.354896 0.341090
vn -0.870464 0.354896 0.341090
vn -0.870464 0.354896 0.341090
vn -0.870464 0.354896 0.341090
vn -0.928954 -0.159381 0.334130
vn -0.928954 -0.159381 0.334130
vn -0.928954 -0.159381 0.334130
vn -0.928954 -0.159381 0.334130
vn 0.345888 -0.052017 0.936833
vn 0.345888 -0.052017 0.936833
vn 0.345888 -0.052017 0.936833
vn 0.345888 -0.052017 0.936833
vn 0.345888 -0.052017 0.936833
vn 0.345888 -0.052017 0.936833
vn 0.345888 -0.052017 0.936833
vn 0.345888 -0.052017 0.936833
vn 0.345888 -0.052017 0.936833
vn 0.345888 -0.052017 0.936833
vn 0.345888 -0.052017 0.936833
vn 0.345888 -0.052017 0.936833
vn -0.345888 0.052017 -0.936833
vn -0.345888 0.052017 -0.936833
vn -0.345888 0.052017 -0.936833
vn -0.345888 0.052017 -0.936833
vn -0.345888 0.052017 -0.936833
vn -0.345888 0.052017 -0.936833
vn -0.345888 0.052017 -0.936833
vn -0.345888 0.052017 -0.936833
vn -0.345888 0.052017 -0.936833
vn -0.345888 0.052017 -0.936833
vn -0.345888 0.052017 -0.936833
vn -0.345888 0.052017 -0.936833

vt 0.090042 -0.308438
vt 0.090161 -0.303828
vt 0.095250 -0.303959
vt 0.095131 -0.308570
vt 0.093071 -0.336981
vt 0.093138 -0.332369
vt 0.098229 -0.332444
vt 0.098161 -0.337055
vt 0.094522 -0.277068
vt 0.094580 -0.272456
vt 0.099670 -0.272520
vt 0.099613 -0.277131
vt 0.095931 -0.144226
vt 0.095997 -0.139615
vt 0.101088 -0.139688
vt 0.101022 -0.144299
vt 0.098634 0.025449
vt 0.098746 0.030060
vt 0.103836 0.029936
vt 0.103724 0.025326
vt 0.189324 0.100121
vt 0.191963 0.103903
vt 0.196138 0.100990
vt 0.193499 0.097208
vt -0.090160 -0.303828
vt -0.090041 -0.308438
vt -0.095130 -0.308570
vt -0.095250 -0.303960
vt -0.093137 -0.332370
vt -0.093069 -0.336981
vt -0.098160 -0.337055
vt -0.098227 -0.332444
vt -0.095997 -0.139614
vt -0.095931 -0.144226
vt -0.101021 -0.144299
vt -0.101087 -0.139687
vt -0.098745 0.030060
vt -0.098633 0.025450
vt -0.103723 0.025326
vt -0.103835 0.029936
vt -0.191997 0.103842
vt -0.189357 0.100061
vt -0.193531 0.097147
vt -0.196171 0.100928
vt -0.115174 0.025048
vt -0.115286 0.029659
vt -0.107652 0.029844
vt -0.107539 0.025234
vt -0.112475 -0.144463
vt -0.112541 -0.139852
vt -0.104906 -0.139742
vt -0.104840 -0.144353
vt -0.109616 -0.337222
vt -0.109683 -0.332611
vt -0.102048 -0.332499
vt -0.101980 -0.337111
vt -0.106585 -0.308864
vt -0.106705 -0.304254
vt -0.099071 -0.304057
vt -0.098952 -0.308667
vt 0.205528 0.094447
vt 0.202889 0.090665
vt 0.196626 0.095034
vt 0.199265 0.098816
vt 0.115286 0.029657
vt 0.115173 0.025047
vt 0.107539 0.025232
vt 0.107652 0.029843
vt 0.112542 -0.139852
vt 0.112476 -0.144463
vt 0.104840 -0.144354
vt 0.104906 -0.139742
vt 0.111126 -0.272664
vt 0.111068 -0.277275
vt 0.103432 -0.277179
vt 0.103490 -0.272568
vt 0.109683 -0.332611
vt 0.109616 -0.337222
vt 0.101980 -0.337110
vt 0.102048 -0.332499
vt 0.106704 -0.304254
vt 0.106585 -0.308864
vt 0.098951 -0.308667
vt 0.099071 -0.304057
vt -0.202887 0.090669
vt -0.205525 0.094452
vt -0.199262 0.098821
vt -0.196623 0.095038
vt -0.124081 0.024830
vt -0.124194 0.029441
vt -0.115287 0.029657
vt -0.115175 0.025047
vt -0.121383 -0.144590
vt -0.121449 -0.139979
vt -0.112541 -0.139852
vt -0.112475 -0.144463
vt -0.118523 -0.337353
vt -0.118590 -0.332742
vt -0.109682 -0.332611
vt -0.109614 -0.337222
vt -0.115488 -0.309096
vt -0.115607 -0.304486
vt -0.106701 -0.304255
vt -0.106582 -0.308866
vt 0.212860 0.089293
vt 0.210220 0.085511
vt 0.202915 0.090610
vt 0.205554 0.094392
vt 0.124194 0.029439
vt 0.124082 0.024828
vt 0.115175 0.025045
vt 0.115287 0.029655
vt 0.120034 -0.272775
vt 0.119976 -0.277386
vt 0.111067 -0.277275
vt 0.111125 -0.272664
vt 0.118590 -0.332741
vt 0.118523 -0.337353
vt 0.109614 -0.337222
vt 0.109682 -0.332611
vt 0.115607 -0.304486
vt 0.115488 -0.309096
vt 0.106582 -0.308866
vt 0.106701 -0.304255
vt -0.210217 0.085517
vt -0.212857 0.089298
vt -0.205551 0.094397
vt -0.202912 0.090615
vt 0.110189 -0.258582
vt 0.110239 -0.257629
vt 0.114052 -0.257827
vt 0.114003 -0.258780
vt 0.117559 -0.327086
vt 0.117576 -0.326132
vt 0.121394 -0.326201
vt 0.121376 -0.327155
vt 0.119387 -0.311822
vt 0.119399 -0.310868
vt 0.123217 -0.310917
vt 0.123205 -0.311872
vt 0.120688 -0.214014
vt 0.120701 -0.213060
vt 0.124518 -0.213109
vt 0.124506 -0.214064
vt 0.122418 -0.059855
vt 0.122434 -0.058900
vt 0.126252 -0.058967
vt 0.126235 -0.059921
vt 0.128412 0.106763
vt 0.128455 0.107716
vt 0.132270 0.107543
vt 0.132226 0.106590
vt -0.110189 -0.258582
vt -0.110140 -0.259535
vt -0.113953 -0.259733
vt -0.114003 -0.258780
vt -0.117559 -0.327086
vt -0.117542 -0.328041
vt -0.121359 -0.328110
vt -0.121376 -0.327155
vt -0.119387 -0.311822
vt -0.119374 -0.312777
vt -0.123192 -0.312826
vt -0.123205 -0.311872
vt -0.120688 -0.214014
vt -0.120676 -0.214969
vt -0.124494 -0.215018
vt -0.124506 -0.214064
vt -0.122418 -0.059855
vt -0.122401 -0.060809
vt -0.126219 -0.060875
vt -0.126235 -0.059921
vt -0.128412 0.106763
vt -0.128369 0.105809
vt -0.132183 0.105636
vt -0.132226 0.106590
vt 0.193301 -0.268976
vt 0.192437 -0.268498
vt 0.191927 -0.267651
vt 0.191909 -0.266663
vt 0.192388 -0.265798
vt 0.193235 -0.265289
vt 0.194223 -0.265271
vt 0.195088 -0.265750
vt 0.195597 -0.266597
vt 0.195615 -0.267585
vt 0.195136 -0.268449
vt 0.194289 -0.268959
vt -0.194289 -0.268959
vt -0.195136 -0.268449
vt -0.195615 -0.267585
vt -0.195597 -0.266597
vt -0.195088 -0.265750
vt -0.194223 -0.265271
vt -0.193235 -0.265289
vt -0.192388 -0.265798
vt -0.191909 -0.266663
vt -0.191927 -0.267651
vt -0.192437 -0.268498
vt -0.193301 -0.268976
s off
f 1/1/1 2/2/2 3/3/3
f 1/1/1 3/3/3 4/4/4
f 5/5/5 6/6/6 7/7/7
f 5/5/5 7/7/7 8/8/8
f 9/9/9 10/10/10 11/11/11
f 9/9/9 11/11/11 12/12/12
f 13/13/13 14/14/14 15/15/15
f 13/13/13 15/15/15 16/16/16
f 17/17/17 18/18/18 19/19/19
f 17/17/17 19/19/19 20/20/20
f 21/21/21 22/22/22 23/23/23
f 21/21/21 23/23/23 24/24/24
f 25/25/25 26/26/26 27/27/27
f 25/25/25 27/27/27 28/28/28
f 29/29/29 30/30/30 31/31/31
f 29/29/29 31/31/31 32/32/32
f 33/33/33 34/34/34 35/35/35
f 33/33/33 35/35/35 36/36/36
f 37/37/37 38/38/38 39/39/39
f 37/37/37 39/39/39 40/40/40
f 41/41/41 42/42/42 43/43/43
f 41/41/41 43/43/43 44/44/44
f 45/45/45 46/46/46 47/47/47
f 45/45/45 47/47/47 48/48/48
f 49/49/49 50/50/50 51/51/51
f 49/49/49 51/51/51 52/52/52
f 53/53/53 54/54/54 55/55/55
f 53/53/53 55/55/55 56/56/56
f 57/57/57 58/58/58 59/59/59
f 57/57/57 59/59/59 60/60/60
f 61/61/61 62/62/62 63/63/63
f 61/61/61 63/63/63 64/64/64
f 65/65/65 66/66/66 67/67/67
f 65/65/65 67/67/67 68/68/68
f 69/69/69 70/70/70 71/71/71
f 69/69/69 71/71/71 72/72/72
f 73/73/73 74/74/74 75/75/75
f 73/73/73 75/75/75 76/76/76
f 77/77/77 78/78/78 79/79/79
f 77/77/77 79/79/79 80/80/80
f 81/81/81 82/82/82 83/83/83
f 81/81/81 83/83/83 84/84/84
f 85/85/85 86/86/86 87/87/87
f 85/85/85 87/87/87 88/88/88
f 89/89/89 90/90/90 91/91/91
f 89/89/89 91/91/91 92/92/92
f 93/93/93 94/94/94 95/95/95
f 93/93/93 95/95/95 96/96/96
f 97/97/97 98/98/98 99/99/99
f 97/97/97 99/99/99 100/100/100
f 101/101/101 102/102/102 103/103/103
f 101/101/101 103/103/103 104/104/104
f 105/105/105 106/106/106 107/107/107
f 105/105/105 107/107/107 108/108/108
f 109/109/109 110/110/110 111/111/111
f 109/109/109 111/111/111 112/112/112
f 113/113/113 114/114/114 115/115/115
f 113/113/113 115/115/115 116/116/116
f 117/117/117 118/118/118 119/119/119
f 117/117/117 119/119/119 120/120/120
f 121/121/121 122/122/122 123/123/123
f 121/121/121 123/123/123 124/124/124
f 125/125/125 126/126/126 127/127/127
f 125/125/125 127/127/127 128/128/128
f 129/129/129 130/130/130 131/131/131
f 129/129/129 131/131/131 132/132/132
f 133/133/133 134/134/134 135/135/135
f 133/133/133 135/135/135 136/136/136
f 137/137/137 138/138/138 139/139/139
f 137/137/137 139/139/139 140/140/140
f 141/141/141 142/142/142 143/143/143
f 141/141/141 143/143/143 144/144/144
f 145/145/145 146/146/146 147/147/147
f 145/145/145 147/147/147 148/148/148
f 149/149/149 150/150/150 151/151/151
f 149/149/149 151/151/151 152/152/152
f 153/153/153 154/154/154 155/155/155
f 153/153/153 155/155/155 156/156/156
f 157/157/157 158/158/158 159/159/159
f 157/157/157 159/159/159 160/160/160
f 161/161/161 162/162/162 163/163/163
f 161/161/161 163/163/163 164/164/164
f 165/165/165 166/166/166 167/167/167
f 165/165/165 167/167/167 168/168/168
f 169/169/169 170/170/170 171/171/171
f 169/169/169 171/171/171 172/172/172
f 173/173/173 174/174/174 175/175/175
f 173/173/173 175/175/175 176/176/176
f 177/177/177 178/178/178 179/179/179
f 177/177/177 179/179/179 180/180/180
f 177/177/177 180/180/180 181/181/181
f 177/177/177 181/181/181 182/182/182
f 177/177/177 182/182/182 183/183/183
f 177/177/177 183/183/183 184/184/184
f 177/177/177 184/184/184 185/185/185
f 177/177/177 185/185/185 186/186/186
f 177/177/177 186/186/186 187/187/187
f 177/177/177 187/187/187 188/188/188
f 189/189/189 190/190/190 191/191/191
f 189/189/189 191/191/191 192/192/192
f 189/189/189 192/192/192 193/193/193
f 189/189/189 193/193/193 194/194/194
f 189/189/189 194/194/194 195/195/195
f 189/189/189 195/195/195 196/196/196
f 189/189/189 196/196/196 197/197/197
f 189/189/189 197/197/197 198/198/198
f 189/189/189 198/198/198 199/199/199
f 189/189/189 199/199/199 200/200/200
