# Exported using automatic converter by Erwin Coumans
mtllib botlab.mtl
#object mesh70214526

v -1.674766 1.203961 -2.151833
v -1.680704 1.203471 -2.231611
v -1.679083 1.123488 -2.231241
v -1.673145 1.123978 -2.151463
v -1.599320 1.125077 -2.237187
v -1.600941 1.205060 -2.237557
v -1.595003 1.205550 -2.157779
v -1.593382 1.125567 -2.157409
v -1.679083 1.123488 -2.231241
v -1.599320 1.125077 -2.237187
v -1.593382 1.125567 -2.157409
v -1.673145 1.123978 -2.151463
v -1.595003 1.205550 -2.157779
v -1.600941 1.205060 -2.237557
v -1.680704 1.203471 -2.231611
v -1.674766 1.203961 -2.151833
v -1.593382 1.125567 -2.157409
v -1.595003 1.205550 -2.157779
v -1.674766 1.203961 -2.151833
v -1.673145 1.123978 -2.151463
v -1.680704 1.203471 -2.231611
v -1.600941 1.205060 -2.237557
v -1.599320 1.125077 -2.237187
v -1.679083 1.123488 -2.231241
usemtl mat22

vn -0.997036 -0.019863 0.074329
vn -0.997036 -0.019863 0.074329
vn -0.997036 -0.019863 0.074329
vn -0.997036 -0.019863 0.074329
vn 0.997036 0.019863 -0.074329
vn 0.997036 0.019863 -0.074329
vn 0.997036 0.019863 -0.074329
vn 0.997036 0.019863 -0.074329
vn 0.020263 -0.999784 0.004625
vn 0.020263 -0.999784 0.004625
vn 0.020263 -0.999784 0.004625
vn 0.020263 -0.999784 0.004625
vn -0.020263 0.999784 -0.004625
vn -0.020263 0.999784 -0.004625
vn -0.020263 0.999784 -0.004625
vn -0.020263 0.999784 -0.004625
vn 0.074221 0.006118 0.997223
vn 0.074221 0.006118 0.997223
vn 0.074221 0.006118 0.997223
vn 0.074221 0.006118 0.997223
vn -0.074221 -0.006118 -0.997223
vn -0.074221 -0.006118 -0.997223
vn -0.074221 -0.006118 -0.997223
vn -0.074221 -0.006118 -0.997223

vt 0.033763 0.219984
vt 0.040685 0.223995
vt 0.044696 0.217073
vt 0.037774 0.213062
vt -0.044696 0.217073
vt -0.040685 0.223995
vt -0.033763 0.219984
vt -0.037774 0.213062
vt -0.190600 -0.140167
vt -0.188515 -0.132444
vt -0.180792 -0.134528
vt -0.182876 -0.142251
vt 0.180792 -0.134528
vt 0.188515 -0.132444
vt 0.190600 -0.140167
vt 0.182876 -0.142251
vt 0.224663 -0.090610
vt 0.231915 -0.087233
vt 0.235292 -0.094485
vt 0.228040 -0.097862
vt -0.235292 -0.094485
vt -0.231915 -0.087233
vt -0.224663 -0.090610
vt -0.228040 -0.097862
s off
f 1/1/1 2/2/2 3/3/3
f 1/1/1 3/3/3 4/4/4
f 5/5/5 6/6/6 7/7/7
f 5/5/5 7/7/7 8/8/8
f 9/9/9 10/10/10 11/11/11
f 9/9/9 11/11/11 12/12/12
f 13/13/13 14/14/14 15/15/15
f 13/13/13 15/15/15 16/16/16
f 17/17/17 18/18/18 19/19/19
f 17/17/17 19/19/19 20/20/20
f 21/21/21 22/22/22 23/23/23
f 21/21/21 23/23/23 24/24/24
