# Exported using automatic converter by Erwin Coumans
mtllib model6.mtl
#object group1409426161_1

v -2.632077 -0.464511 2.114851
v -2.632077 -0.444511 2.114851
v -2.632077 -0.444511 2.129852
v -2.632077 -0.464511 2.129852
v -2.652076 -0.444511 2.129852
v -2.652076 -0.444511 2.114851
v -2.652076 -0.464511 2.114851
v -2.652076 -0.464511 2.129852
v -2.632077 -0.444511 2.129852
v -2.652076 -0.444511 2.129852
v -2.652076 -0.464511 2.129852
v -2.632077 -0.464511 2.129852
v -2.652076 -0.464511 2.114851
v -2.652076 -0.444511 2.114851
v -2.632077 -0.444511 2.114851
v -2.632077 -0.464511 2.114851
v -2.652076 -0.464511 2.129852
v -2.652076 -0.464511 2.114851
v -2.632077 -0.464511 2.114851
v -2.632077 -0.464511 2.129852
v -2.632077 -0.444511 2.114851
v -2.652076 -0.444511 2.114851
v -2.652076 -0.444511 2.129852
v -2.632077 -0.444511 2.129852
v -2.632077 -0.434511 2.114852
v -2.632077 -0.414511 2.114852
v -2.632077 -0.414511 2.134852
v -2.632077 -0.434511 2.134852
v -2.652077 -0.414511 2.134852
v -2.652077 -0.414511 2.114852
v -2.652077 -0.434511 2.114852
v -2.652077 -0.434511 2.134852
v -2.632077 -0.414511 2.134852
v -2.652077 -0.414511 2.134852
v -2.652077 -0.434511 2.134852
v -2.632077 -0.434511 2.134852
v -2.652077 -0.434511 2.114852
v -2.652077 -0.414511 2.114852
v -2.632077 -0.414511 2.114852
v -2.632077 -0.434511 2.114852
v -2.652077 -0.434511 2.134852
v -2.652077 -0.434511 2.114852
v -2.632077 -0.434511 2.114852
v -2.632077 -0.434511 2.134852
v -2.632077 -0.414511 2.114852
v -2.652077 -0.414511 2.114852
v -2.652077 -0.414511 2.134852
v -2.632077 -0.414511 2.134852
v -2.632077 -0.469511 2.119852
v -2.632077 -0.449511 2.119852
v -2.632077 -0.449511 2.139852
v -2.632077 -0.469511 2.139852
v -2.652076 -0.449511 2.139852
v -2.652076 -0.449511 2.119852
v -2.652076 -0.469511 2.119852
v -2.652076 -0.469511 2.139852
v -2.632077 -0.449511 2.139852
v -2.652076 -0.449511 2.139852
v -2.652076 -0.469511 2.139852
v -2.632077 -0.469511 2.139852
v -2.652076 -0.469511 2.119852
v -2.652076 -0.449511 2.119852
v -2.632077 -0.449511 2.119852
v -2.632077 -0.469511 2.119852
v -2.652076 -0.469511 2.139852
v -2.652076 -0.469511 2.119852
v -2.632077 -0.469511 2.119852
v -2.632077 -0.469511 2.139852
v -2.632077 -0.449511 2.119852
v -2.652076 -0.449511 2.119852
v -2.652076 -0.449511 2.139852
v -2.632077 -0.449511 2.139852
v -2.597078 -0.429511 2.114852
v -2.597078 -0.409511 2.114852
v -2.597078 -0.409511 2.134852
v -2.597078 -0.429511 2.134852
v -2.617078 -0.409511 2.134852
v -2.617078 -0.409511 2.114852
v -2.617078 -0.429511 2.114852
v -2.617078 -0.429511 2.134852
v -2.597078 -0.409511 2.134852
v -2.617078 -0.409511 2.134852
v -2.617078 -0.429511 2.134852
v -2.597078 -0.429511 2.134852
v -2.617078 -0.429511 2.114852
v -2.617078 -0.409511 2.114852
v -2.597078 -0.409511 2.114852
v -2.597078 -0.429511 2.114852
v -2.617078 -0.429511 2.134852
v -2.617078 -0.429511 2.114852
v -2.597078 -0.429511 2.114852
v -2.597078 -0.429511 2.134852
v -2.597078 -0.409511 2.114852
v -2.617078 -0.409511 2.114852
v -2.617078 -0.409511 2.134852
v -2.597078 -0.409511 2.134852
v -2.597078 -0.464511 2.109852
v -2.597078 -0.444511 2.109852
v -2.597078 -0.444511 2.139852
v -2.597078 -0.464511 2.139852
v -2.617078 -0.444511 2.139852
v -2.617078 -0.444511 2.109852
v -2.617078 -0.464511 2.109852
v -2.617078 -0.464511 2.139852
v -2.597078 -0.444511 2.139852
v -2.617078 -0.444511 2.139852
v -2.617078 -0.464511 2.139852
v -2.597078 -0.464511 2.139852
v -2.617078 -0.464511 2.109852
v -2.617078 -0.444511 2.109852
v -2.597078 -0.444511 2.109852
v -2.597078 -0.464511 2.109852
v -2.617078 -0.464511 2.139852
v -2.617078 -0.464511 2.109852
v -2.597078 -0.464511 2.109852
v -2.597078 -0.464511 2.139852
v -2.597078 -0.444511 2.109852
v -2.617078 -0.444511 2.109852
v -2.617078 -0.444511 2.139852
v -2.597078 -0.444511 2.139852
usemtl mat21

vn 1.000000 0.000000 -0.000000
vn 1.000000 0.000000 -0.000000
vn 1.000000 0.000000 -0.000000
vn 1.000000 0.000000 -0.000000
vn -1.000000 -0.000000 0.000000
vn -1.000000 -0.000000 0.000000
vn -1.000000 -0.000000 0.000000
vn -1.000000 -0.000000 0.000000
vn 0.000000 -0.000000 1.000000
vn 0.000000 -0.000000 1.000000
vn 0.000000 -0.000000 1.000000
vn 0.000000 -0.000000 1.000000
vn -0.000000 0.000000 -1.000000
vn -0.000000 0.000000 -1.000000
vn -0.000000 0.000000 -1.000000
vn -0.000000 0.000000 -1.000000
vn 0.000000 -1.000000 -0.000000
vn 0.000000 -1.000000 -0.000000
vn 0.000000 -1.000000 -0.000000
vn 0.000000 -1.000000 -0.000000
vn -0.000000 1.000000 0.000000
vn -0.000000 1.000000 0.000000
vn -0.000000 1.000000 0.000000
vn -0.000000 1.000000 0.000000
vn 1.000000 0.000000 -0.000000
vn 1.000000 0.000000 -0.000000
vn 1.000000 0.000000 -0.000000
vn 1.000000 0.000000 -0.000000
vn -1.000000 -0.000000 0.000000
vn -1.000000 -0.000000 0.000000
vn -1.000000 -0.000000 0.000000
vn -1.000000 -0.000000 0.000000
vn 0.000000 -0.000000 1.000000
vn 0.000000 -0.000000 1.000000
vn 0.000000 -0.000000 1.000000
vn 0.000000 -0.000000 1.000000
vn -0.000000 0.000000 -1.000000
vn -0.000000 0.000000 -1.000000
vn -0.000000 0.000000 -1.000000
vn -0.000000 0.000000 -1.000000
vn 0.000000 -1.000000 -0.000000
vn 0.000000 -1.000000 -0.000000
vn 0.000000 -1.000000 -0.000000
vn 0.000000 -1.000000 -0.000000
vn -0.000000 1.000000 0.000000
vn -0.000000 1.000000 0.000000
vn -0.000000 1.000000 0.000000
vn -0.000000 1.000000 0.000000
vn 1.000000 0.000000 -0.000000
vn 1.000000 0.000000 -0.000000
vn 1.000000 0.000000 -0.000000
vn 1.000000 0.000000 -0.000000
vn -1.000000 -0.000000 0.000000
vn -1.000000 -0.000000 0.000000
vn -1.000000 -0.000000 0.000000
vn -1.000000 -0.000000 0.000000
vn 0.000000 -0.000000 1.000000
vn 0.000000 -0.000000 1.000000
vn 0.000000 -0.000000 1.000000
vn 0.000000 -0.000000 1.000000
vn -0.000000 0.000000 -1.000000
vn -0.000000 0.000000 -1.000000
vn -0.000000 0.000000 -1.000000
vn -0.000000 0.000000 -1.000000
vn 0.000000 -1.000000 -0.000000
vn 0.000000 -1.000000 -0.000000
vn 0.000000 -1.000000 -0.000000
vn 0.000000 -1.000000 -0.000000
vn -0.000000 1.000000 0.000000
vn -0.000000 1.000000 0.000000
vn -0.000000 1.000000 0.000000
vn -0.000000 1.000000 0.000000
vn 1.000000 0.000000 -0.000000
vn 1.000000 0.000000 -0.000000
vn 1.000000 0.000000 -0.000000
vn 1.000000 0.000000 -0.000000
vn -1.000000 -0.000000 0.000000
vn -1.000000 -0.000000 0.000000
vn -1.000000 -0.000000 0.000000
vn -1.000000 -0.000000 0.000000
vn 0.000000 -0.000000 1.000000
vn 0.000000 -0.000000 1.000000
vn 0.000000 -0.000000 1.000000
vn 0.000000 -0.000000 1.000000
vn -0.000000 0.000000 -1.000000
vn -0.000000 0.000000 -1.000000
vn -0.000000 0.000000 -1.000000
vn -0.000000 0.000000 -1.000000
vn 0.000000 -1.000000 -0.000000
vn 0.000000 -1.000000 -0.000000
vn 0.000000 -1.000000 -0.000000
vn 0.000000 -1.000000 -0.000000
vn -0.000000 1.000000 0.000000
vn -0.000000 1.000000 0.000000
vn -0.000000 1.000000 0.000000
vn -0.000000 1.000000 0.000000
vn 1.000000 0.000000 -0.000000
vn 1.000000 0.000000 -0.000000
vn 1.000000 0.000000 -0.000000
vn 1.000000 0.000000 -0.000000
vn -1.000000 -0.000000 0.000000
vn -1.000000 -0.000000 0.000000
vn -1.000000 -0.000000 0.000000
vn -1.000000 -0.000000 0.000000
vn 0.000000 -0.000000 1.000000
vn 0.000000 -0.000000 1.000000
vn 0.000000 -0.000000 1.000000
vn 0.000000 -0.000000 1.000000
vn -0.000000 0.000000 -1.000000
vn -0.000000 0.000000 -1.000000
vn -0.000000 0.000000 -1.000000
vn -0.000000 0.000000 -1.000000
vn 0.000000 -1.000000 -0.000000
vn 0.000000 -1.000000 -0.000000
vn 0.000000 -1.000000 -0.000000
vn 0.000000 -1.000000 -0.000000
vn -0.000000 1.000000 0.000000
vn -0.000000 1.000000 0.000000
vn -0.000000 1.000000 0.000000
vn -0.000000 1.000000 0.000000

vt 0.245689 -0.173035
vt 0.246852 -0.171407
vt 0.248073 -0.172279
vt 0.246910 -0.173906
vt -0.248073 -0.172279
vt -0.246852 -0.171407
vt -0.245689 -0.173035
vt -0.246910 -0.173906
vt 0.135073 -0.261201
vt 0.135967 -0.262990
vt 0.134178 -0.263884
vt 0.133284 -0.262095
vt -0.134178 -0.263884
vt -0.135967 -0.262990
vt -0.135073 -0.261201
vt -0.133284 -0.262095
vt 0.184840 -0.380359
vt 0.183427 -0.379854
vt 0.184100 -0.377971
vt 0.185513 -0.378475
vt -0.184100 -0.377971
vt -0.183427 -0.379854
vt -0.184840 -0.380359
vt -0.185513 -0.378475
vt 0.247433 -0.170593
vt 0.248596 -0.168966
vt 0.250223 -0.170128
vt 0.249061 -0.171756
vt -0.250223 -0.170128
vt -0.248596 -0.168966
vt -0.247433 -0.170593
vt -0.249061 -0.171756
vt 0.137756 -0.259859
vt 0.138650 -0.261648
vt 0.136862 -0.262543
vt 0.135967 -0.260754
vt -0.136862 -0.262543
vt -0.138650 -0.261648
vt -0.137756 -0.259859
vt -0.135967 -0.260754
vt 0.185311 -0.380527
vt 0.183427 -0.379854
vt 0.184100 -0.377971
vt 0.185983 -0.378644
vt -0.184100 -0.377971
vt -0.183427 -0.379854
vt -0.185311 -0.380527
vt -0.185983 -0.378644
vt 0.245806 -0.173732
vt 0.246968 -0.172105
vt 0.248596 -0.173267
vt 0.247433 -0.174894
vt -0.248596 -0.173267
vt -0.246968 -0.172105
vt -0.245806 -0.173732
vt -0.247433 -0.174894
vt 0.134625 -0.261425
vt 0.135520 -0.263213
vt 0.133731 -0.264108
vt 0.132837 -0.262319
vt -0.133731 -0.264108
vt -0.135520 -0.263213
vt -0.134625 -0.261425
vt -0.132837 -0.262319
vt 0.185782 -0.380695
vt 0.183898 -0.380022
vt 0.184571 -0.378139
vt 0.186454 -0.378812
vt -0.184571 -0.378139
vt -0.183898 -0.380022
vt -0.185782 -0.380695
vt -0.186454 -0.378812
vt 0.247724 -0.170187
vt 0.248886 -0.168559
vt 0.250514 -0.169721
vt 0.249351 -0.171349
vt -0.250514 -0.169721
vt -0.248886 -0.168559
vt -0.247724 -0.170187
vt -0.249351 -0.171349
vt 0.136638 -0.256505
vt 0.137532 -0.258294
vt 0.135743 -0.259189
vt 0.134849 -0.257400
vt -0.135743 -0.259189
vt -0.137532 -0.258294
vt -0.136638 -0.256505
vt -0.134849 -0.257400
vt 0.186488 -0.377231
vt 0.184604 -0.376558
vt 0.185277 -0.374675
vt 0.187161 -0.375347
vt -0.185277 -0.374675
vt -0.184604 -0.376558
vt -0.186488 -0.377231
vt -0.187161 -0.375347
vt 0.245283 -0.172744
vt 0.246445 -0.171116
vt 0.248886 -0.172860
vt 0.247724 -0.174488
vt -0.248886 -0.172860
vt -0.246445 -0.171116
vt -0.245283 -0.172744
vt -0.247724 -0.174488
vt 0.133507 -0.258070
vt 0.134402 -0.259859
vt 0.132613 -0.260754
vt 0.131719 -0.258965
vt -0.132613 -0.260754
vt -0.134402 -0.259859
vt -0.133507 -0.258070
vt -0.131719 -0.258965
vt 0.186959 -0.377399
vt 0.184134 -0.376390
vt 0.184806 -0.374507
vt 0.187632 -0.375516
vt -0.184806 -0.374507
vt -0.184134 -0.376390
vt -0.186959 -0.377399
vt -0.187632 -0.375516
s off
f 1/1/1 2/2/2 3/3/3
f 1/1/1 3/3/3 4/4/4
f 5/5/5 6/6/6 7/7/7
f 5/5/5 7/7/7 8/8/8
f 9/9/9 10/10/10 11/11/11
f 9/9/9 11/11/11 12/12/12
f 13/13/13 14/14/14 15/15/15
f 13/13/13 15/15/15 16/16/16
f 17/17/17 18/18/18 19/19/19
f 17/17/17 19/19/19 20/20/20
f 21/21/21 22/22/22 23/23/23
f 21/21/21 23/23/23 24/24/24
f 25/25/25 26/26/26 27/27/27
f 25/25/25 27/27/27 28/28/28
f 29/29/29 30/30/30 31/31/31
f 29/29/29 31/31/31 32/32/32
f 33/33/33 34/34/34 35/35/35
f 33/33/33 35/35/35 36/36/36
f 37/37/37 38/38/38 39/39/39
f 37/37/37 39/39/39 40/40/40
f 41/41/41 42/42/42 43/43/43
f 41/41/41 43/43/43 44/44/44
f 45/45/45 46/46/46 47/47/47
f 45/45/45 47/47/47 48/48/48
f 49/49/49 50/50/50 51/51/51
f 49/49/49 51/51/51 52/52/52
f 53/53/53 54/54/54 55/55/55
f 53/53/53 55/55/55 56/56/56
f 57/57/57 58/58/58 59/59/59
f 57/57/57 59/59/59 60/60/60
f 61/61/61 62/62/62 63/63/63
f 61/61/61 63/63/63 64/64/64
f 65/65/65 66/66/66 67/67/67
f 65/65/65 67/67/67 68/68/68
f 69/69/69 70/70/70 71/71/71
f 69/69/69 71/71/71 72/72/72
f 73/73/73 74/74/74 75/75/75
f 73/73/73 75/75/75 76/76/76
f 77/77/77 78/78/78 79/79/79
f 77/77/77 79/79/79 80/80/80
f 81/81/81 82/82/82 83/83/83
f 81/81/81 83/83/83 84/84/84
f 85/85/85 86/86/86 87/87/87
f 85/85/85 87/87/87 88/88/88
f 89/89/89 90/90/90 91/91/91
f 89/89/89 91/91/91 92/92/92
f 93/93/93 94/94/94 95/95/95
f 93/93/93 95/95/95 96/96/96
f 97/97/97 98/98/98 99/99/99
f 97/97/97 99/99/99 100/100/100
f 101/101/101 102/102/102 103/103/103
f 101/101/101 103/103/103 104/104/104
f 105/105/105 106/106/106 107/107/107
f 105/105/105 107/107/107 108/108/108
f 109/109/109 110/110/110 111/111/111
f 109/109/109 111/111/111 112/112/112
f 113/113/113 114/114/114 115/115/115
f 113/113/113 115/115/115 116/116/116
f 117/117/117 118/118/118 119/119/119
f 117/117/117 119/119/119 120/120/120
