# Exported using automatic converter by Erwin Coumans
mtllib model6.mtl
#object mesh222155989

v 2.847577 -0.698631 -2.581761
v 2.848806 -0.698952 -2.632864
v 2.861155 -1.005402 -2.630641
v 2.859925 -1.005081 -2.579538
v 2.899451 -1.003852 -2.629729
v 2.887102 -0.697402 -2.631952
v 2.885873 -0.697081 -2.580850
v 2.898221 -1.003531 -2.578627
v 2.861155 -1.005402 -2.630641
v 2.899451 -1.003852 -2.629729
v 2.898221 -1.003531 -2.578627
v 2.859925 -1.005081 -2.579538
v 2.885873 -0.697081 -2.580850
v 2.887102 -0.697402 -2.631952
v 2.848806 -0.698952 -2.632864
v 2.847577 -0.698631 -2.581761
v 2.898221 -1.003531 -2.578627
v 2.885873 -0.697081 -2.580850
v 2.847577 -0.698631 -2.581761
v 2.859925 -1.005081 -2.579538
v 2.848806 -0.698952 -2.632864
v 2.887102 -0.697402 -2.631952
v 2.899451 -1.003852 -2.629729
v 2.861155 -1.005402 -2.630641
usemtl mat23

vn -0.998900 -0.040423 -0.023783
vn -0.998900 -0.040423 -0.023783
vn -0.998900 -0.040423 -0.023783
vn -0.998900 -0.040423 -0.023783
vn 0.998900 0.040423 0.023783
vn 0.998900 0.040423 0.023783
vn 0.998900 0.040423 0.023783
vn 0.998900 0.040423 0.023783
vn 0.040262 -0.999163 0.007248
vn 0.040262 -0.999163 0.007248
vn 0.040262 -0.999163 0.007248
vn 0.040262 -0.999163 0.007248
vn -0.040262 0.999163 -0.007248
vn -0.040262 0.999163 -0.007248
vn -0.040262 0.999163 -0.007248
vn -0.040262 0.999163 -0.007248
vn -0.024056 0.006282 0.999691
vn -0.024056 0.006282 0.999691
vn -0.024056 0.006282 0.999691
vn -0.024056 0.006282 0.999691
vn 0.024056 -0.006282 -0.999691
vn 0.024056 -0.006282 -0.999691
vn 0.024056 -0.006282 -0.999691
vn 0.024056 -0.006282 -0.999691

vt 0.154958 0.087522
vt 0.158914 0.090759
vt 0.178337 0.067022
vt 0.174380 0.063785
vt -0.178337 0.067022
vt -0.158914 0.090759
vt -0.154958 0.087522
vt -0.174380 0.063785
vt -0.081892 0.296218
vt -0.080549 0.299809
vt -0.075761 0.298019
vt -0.077104 0.294428
vt 0.075761 0.298019
vt 0.080549 0.299809
vt 0.081892 0.296218
vt 0.077104 0.294428
vt -0.160541 0.204357
vt -0.132646 0.217107
vt -0.131052 0.213620
vt -0.158947 0.200870
vt 0.131052 0.213620
vt 0.132646 0.217107
vt 0.160541 0.204357
vt 0.158947 0.200870
s off
f 1/1/1 2/2/2 3/3/3
f 1/1/1 3/3/3 4/4/4
f 5/5/5 6/6/6 7/7/7
f 5/5/5 7/7/7 8/8/8
f 9/9/9 10/10/10 11/11/11
f 9/9/9 11/11/11 12/12/12
f 13/13/13 14/14/14 15/15/15
f 13/13/13 15/15/15 16/16/16
f 17/17/17 18/18/18 19/19/19
f 17/17/17 19/19/19 20/20/20
f 21/21/21 22/22/22 23/23/23
f 21/21/21 23/23/23 24/24/24
