# Exported using automatic converter by Erwin Coumans
mtllib model6.mtl
#object mesh1850089097

v 1.922503 1.841926 -0.587063
v 1.929778 1.849979 -0.596130
v 1.621645 2.036830 -0.590186
v 1.612794 2.030327 -0.581277
v 1.929778 1.849979 -0.596130
v 1.923425 1.843504 -0.606979
v 1.616373 2.029291 -0.600927
v 1.621645 2.036830 -0.590186
v 1.923425 1.843504 -0.606979
v 1.916150 1.835450 -0.597912
v 1.607522 2.022789 -0.592018
v 1.616373 2.029291 -0.600927
v 1.916150 1.835450 -0.597912
v 1.922503 1.841926 -0.587063
v 1.612794 2.030327 -0.581277
v 1.607522 2.022789 -0.592018
v 1.916150 1.835450 -0.597912
v 1.923425 1.843504 -0.606979
v 1.929778 1.849979 -0.596130
v 1.922503 1.841926 -0.587063
v 1.612794 2.030327 -0.581277
v 1.621645 2.036830 -0.590186
v 1.616373 2.029291 -0.600927
v 1.607522 2.022789 -0.592018
usemtl mat23

vn 0.348715 0.550440 0.758560
vn 0.348715 0.550440 0.758560
vn 0.348715 0.550440 0.758560
vn 0.348715 0.550440 0.758560
vn 0.389036 0.662850 -0.639751
vn 0.389036 0.662850 -0.639751
vn 0.389036 0.662850 -0.639751
vn 0.389036 0.662850 -0.639751
vn -0.348450 -0.550680 -0.758508
vn -0.348450 -0.550680 -0.758508
vn -0.348450 -0.550680 -0.758508
vn -0.348450 -0.550680 -0.758508
vn -0.390217 -0.662050 0.639860
vn -0.390217 -0.662050 0.639860
vn -0.390217 -0.662050 0.639860
vn -0.390217 -0.662050 0.639860
vn 0.730432 -0.682685 -0.020259
vn 0.730432 -0.682685 -0.020259
vn 0.730432 -0.682685 -0.020259
vn 0.730432 -0.682685 -0.020259
vn -0.685045 0.710210 -0.162219
vn -0.685045 0.710210 -0.162219
vn -0.685045 0.710210 -0.162219
vn -0.685045 0.710210 -0.162219

vt 0.090311 0.173074
vt 0.090877 0.174370
vt 0.121271 0.155002
vt 0.120914 0.153633
vt -0.169686 0.115136
vt -0.168558 0.114284
vt -0.186135 0.082989
vt -0.187347 0.083718
vt -0.091006 0.174315
vt -0.090440 0.173019
vt -0.120898 0.153624
vt -0.121255 0.154993
vt 0.168709 0.114048
vt 0.169836 0.114901
vt 0.187652 0.083324
vt 0.186441 0.082594
vt 0.115208 0.255994
vt 0.114690 0.257310
vt 0.116007 0.257827
vt 0.116524 0.256511
vt -0.137814 0.234797
vt -0.137358 0.236136
vt -0.136019 0.235680
vt -0.136475 0.234341
s off
f 1/1/1 2/2/2 3/3/3
f 1/1/1 3/3/3 4/4/4
f 5/5/5 6/6/6 7/7/7
f 5/5/5 7/7/7 8/8/8
f 9/9/9 10/10/10 11/11/11
f 9/9/9 11/11/11 12/12/12
f 13/13/13 14/14/14 15/15/15
f 13/13/13 15/15/15 16/16/16
f 17/17/17 18/18/18 19/19/19
f 17/17/17 19/19/19 20/20/20
f 21/21/21 22/22/22 23/23/23
f 21/21/21 23/23/23 24/24/24
