# Exported using automatic converter by Erwin Coumans
mtllib model6.mtl
#object group1917648195_1

v 0.586221 0.441406 1.554596
v 0.586338 0.455889 1.554532
v 0.586742 0.458786 2.213552
v 0.586624 0.444302 2.213615
v 0.572258 0.458904 2.213560
v 0.571855 0.456007 1.554541
v 0.571737 0.441524 1.554604
v 0.572140 0.444420 2.213624
v 0.586742 0.458786 2.213552
v 0.572258 0.458904 2.213560
v 0.572140 0.444420 2.213624
v 0.586624 0.444302 2.213615
v 0.571737 0.441524 1.554604
v 0.571855 0.456007 1.554541
v 0.586338 0.455889 1.554532
v 0.586221 0.441406 1.554596
v 0.572140 0.444420 2.213624
v 0.571737 0.441524 1.554604
v 0.586221 0.441406 1.554596
v 0.586624 0.444302 2.213615
v 0.586338 0.455889 1.554532
v 0.571855 0.456007 1.554541
v 0.572258 0.458904 2.213560
v 0.586742 0.458786 2.213552
v -0.123229 0.444857 2.017064
v -0.123066 0.465122 2.014078
v 0.586631 0.459356 2.013669
v 0.586468 0.439092 2.016655
v 0.586699 0.466661 2.028121
v -0.122998 0.472427 2.028530
v -0.123220 0.444921 2.031548
v 0.586477 0.439155 2.031139
v 0.586631 0.459356 2.013669
v 0.586699 0.466661 2.028121
v 0.586477 0.439155 2.031139
v 0.586468 0.439092 2.016655
v -0.123220 0.444921 2.031548
v -0.122998 0.472427 2.028530
v -0.123066 0.465122 2.014078
v -0.123229 0.444857 2.017064
v 0.586477 0.439155 2.031139
v -0.123220 0.444921 2.031548
v -0.123229 0.444857 2.017064
v 0.586468 0.439092 2.016655
v -0.123066 0.465122 2.014078
v -0.122998 0.472427 2.028530
v 0.586699 0.466661 2.028121
v 0.586631 0.459356 2.013669
v -0.123251 0.448789 1.922896
v -0.123088 0.469053 1.919910
v 0.586609 0.463287 1.919501
v 0.586446 0.443023 1.922487
v 0.586676 0.470593 1.933953
v -0.123021 0.476358 1.934362
v -0.123242 0.448853 1.937380
v 0.586455 0.443087 1.936971
v 0.586609 0.463287 1.919501
v 0.586676 0.470593 1.933953
v 0.586455 0.443087 1.936971
v 0.586446 0.443023 1.922487
v -0.123242 0.448853 1.937380
v -0.123021 0.476358 1.934362
v -0.123088 0.469053 1.919910
v -0.123251 0.448789 1.922896
v 0.586455 0.443087 1.936971
v -0.123242 0.448853 1.937380
v -0.123251 0.448789 1.922896
v 0.586446 0.443023 1.922487
v -0.123088 0.469053 1.919910
v -0.123021 0.476358 1.934362
v 0.586676 0.470593 1.933953
v 0.586609 0.463287 1.919501
v -0.130589 0.444063 1.822982
v -0.130426 0.464327 1.819996
v 0.579271 0.458561 1.819587
v 0.579108 0.438297 1.822573
v 0.579338 0.465867 1.834039
v -0.130359 0.471632 1.834448
v -0.130580 0.444126 1.837466
v 0.579117 0.438361 1.837057
v 0.579271 0.458561 1.819587
v 0.579338 0.465867 1.834039
v 0.579117 0.438361 1.837057
v 0.579108 0.438297 1.822573
v -0.130580 0.444126 1.837466
v -0.130359 0.471632 1.834448
v -0.130426 0.464327 1.819996
v -0.130589 0.444063 1.822982
v 0.579117 0.438361 1.837057
v -0.130580 0.444126 1.837466
v -0.130589 0.444063 1.822982
v 0.579108 0.438297 1.822573
v -0.130426 0.464327 1.819996
v -0.130359 0.471632 1.834448
v 0.579338 0.465867 1.834039
v 0.579271 0.458561 1.819587
v -0.123424 0.440726 1.736087
v -0.123189 0.469692 1.735959
v 0.586508 0.463927 1.735550
v 0.586273 0.434960 1.735678
v 0.586517 0.463991 1.750034
v -0.123180 0.469756 1.750443
v -0.123415 0.440789 1.750571
v 0.586282 0.435024 1.750162
v 0.586508 0.463927 1.735550
v 0.586517 0.463991 1.750034
v 0.586282 0.435024 1.750162
v 0.586273 0.434960 1.735678
v -0.123415 0.440789 1.750571
v -0.123180 0.469756 1.750443
v -0.123189 0.469692 1.735959
v -0.123424 0.440726 1.736087
v 0.586282 0.435024 1.750162
v -0.123415 0.440789 1.750571
v -0.123424 0.440726 1.736087
v 0.586273 0.434960 1.735678
v -0.123189 0.469692 1.735959
v -0.123180 0.469756 1.750443
v 0.586517 0.463991 1.750034
v 0.586508 0.463927 1.735550
v -0.116177 0.447527 1.649146
v -0.116059 0.462010 1.649083
v 0.586396 0.456303 1.648678
v 0.586278 0.441820 1.648741
v 0.586405 0.456367 1.663162
v -0.116050 0.462074 1.663566
v -0.116168 0.447590 1.663630
v 0.586287 0.441884 1.663225
v 0.586396 0.456303 1.648678
v 0.586405 0.456367 1.663162
v 0.586287 0.441884 1.663225
v 0.586278 0.441820 1.648741
v -0.116168 0.447590 1.663630
v -0.116050 0.462074 1.663566
v -0.116059 0.462010 1.649083
v -0.116177 0.447527 1.649146
v 0.586287 0.441884 1.663225
v -0.116168 0.447590 1.663630
v -0.116177 0.447527 1.649146
v 0.586278 0.441820 1.648741
v -0.116059 0.462010 1.649083
v -0.116050 0.462074 1.663566
v 0.586405 0.456367 1.663162
v 0.586396 0.456303 1.648678
v -0.116207 0.450718 1.551365
v -0.116090 0.465201 1.551301
v 0.586366 0.459494 1.550896
v 0.586248 0.445011 1.550960
v 0.586374 0.459558 1.565380
v -0.116081 0.465265 1.565785
v -0.116198 0.450781 1.565849
v 0.586257 0.445075 1.565444
v 0.586366 0.459494 1.550896
v 0.586374 0.459558 1.565380
v 0.586257 0.445075 1.565444
v 0.586248 0.445011 1.550960
v -0.116198 0.450781 1.565849
v -0.116081 0.465265 1.565785
v -0.116090 0.465201 1.551301
v -0.116207 0.450718 1.551365
v 0.586257 0.445075 1.565444
v -0.116198 0.450781 1.565849
v -0.116207 0.450718 1.551365
v 0.586248 0.445011 1.550960
v -0.116090 0.465201 1.551301
v -0.116081 0.465265 1.565785
v 0.586374 0.459558 1.565380
v 0.586366 0.459494 1.550896
v -0.130381 0.449649 2.105399
v -0.130264 0.464132 2.105335
v 0.579433 0.458367 2.104926
v 0.579316 0.443883 2.104990
v 0.579442 0.458430 2.119410
v -0.130255 0.464196 2.119819
v -0.130372 0.449713 2.119883
v 0.579325 0.443947 2.119474
v 0.579433 0.458367 2.104926
v 0.579442 0.458430 2.119410
v 0.579325 0.443947 2.119474
v 0.579316 0.443883 2.104990
v -0.130372 0.449713 2.119883
v -0.130255 0.464196 2.119819
v -0.130264 0.464132 2.105335
v -0.130381 0.449649 2.105399
v 0.579325 0.443947 2.119474
v -0.130372 0.449713 2.119883
v -0.130381 0.449649 2.105399
v 0.579316 0.443883 2.104990
v -0.130264 0.464132 2.105335
v -0.130255 0.464196 2.119819
v 0.579442 0.458430 2.119410
v 0.579433 0.458367 2.104926
v -0.130326 0.450047 2.195924
v -0.130208 0.464530 2.195860
v 0.579489 0.458765 2.195451
v 0.579371 0.444281 2.195515
v 0.579498 0.458828 2.209935
v -0.130199 0.464594 2.210344
v -0.130317 0.450110 2.210408
v 0.579380 0.444345 2.209999
v 0.579489 0.458765 2.195451
v 0.579498 0.458828 2.209935
v 0.579380 0.444345 2.209999
v 0.579371 0.444281 2.195515
v -0.130317 0.450110 2.210408
v -0.130199 0.464594 2.210344
v -0.130208 0.464530 2.195860
v -0.130326 0.450047 2.195924
v 0.579380 0.444345 2.209999
v -0.130317 0.450110 2.210408
v -0.130326 0.450047 2.195924
v 0.579371 0.444281 2.195515
v -0.130208 0.464530 2.195860
v -0.130199 0.464594 2.210344
v 0.579498 0.458828 2.209935
v 0.579489 0.458765 2.195451
v -0.116239 0.447080 1.547759
v -0.116121 0.461564 1.547696
v -0.115718 0.464460 2.206715
v -0.115836 0.449977 2.206779
v -0.130202 0.464578 2.206724
v -0.130605 0.461681 1.547704
v -0.130722 0.447198 1.547768
v -0.130319 0.450094 2.206787
v -0.115718 0.464460 2.206715
v -0.130202 0.464578 2.206724
v -0.130319 0.450094 2.206787
v -0.115836 0.449977 2.206779
v -0.130722 0.447198 1.547768
v -0.130605 0.461681 1.547704
v -0.116121 0.461564 1.547696
v -0.116239 0.447080 1.547759
v -0.130319 0.450094 2.206787
v -0.130722 0.447198 1.547768
v -0.116239 0.447080 1.547759
v -0.115836 0.449977 2.206779
v -0.116121 0.461564 1.547696
v -0.130605 0.461681 1.547704
v -0.130202 0.464578 2.206724
v -0.115718 0.464460 2.206715
usemtl mat23

vn 0.999967 -0.008124 -0.000576
vn 0.999967 -0.008124 -0.000576
vn 0.999967 -0.008124 -0.000576
vn 0.999967 -0.008124 -0.000576
vn -0.999967 0.008124 0.000576
vn -0.999967 0.008124 0.000576
vn -0.999967 0.008124 0.000576
vn -0.999967 0.008124 0.000576
vn 0.000612 0.004395 0.999990
vn 0.000612 0.004395 0.999990
vn 0.000612 0.004395 0.999990
vn 0.000612 0.004395 0.999990
vn -0.000612 -0.004395 -0.999990
vn -0.000612 -0.004395 -0.999990
vn -0.000612 -0.004395 -0.999990
vn -0.000612 -0.004395 -0.999990
vn -0.008121 -0.999957 0.004400
vn -0.008121 -0.999957 0.004400
vn -0.008121 -0.999957 0.004400
vn -0.008121 -0.999957 0.004400
vn 0.008121 0.999957 -0.004400
vn 0.008121 0.999957 -0.004400
vn 0.008121 0.999957 -0.004400
vn 0.008121 0.999957 -0.004400
vn -0.001755 -0.145764 -0.989318
vn -0.001755 -0.145764 -0.989318
vn -0.001755 -0.145764 -0.989318
vn -0.001755 -0.145764 -0.989318
vn 0.001459 0.109050 0.994035
vn 0.001459 0.109050 0.994035
vn 0.001459 0.109050 0.994035
vn 0.001459 0.109050 0.994035
vn 0.999967 -0.008124 -0.000576
vn 0.999967 -0.008124 -0.000576
vn 0.999967 -0.008124 -0.000576
vn 0.999967 -0.008124 -0.000576
vn -0.999967 0.008124 0.000576
vn -0.999967 0.008124 0.000576
vn -0.999967 0.008124 0.000576
vn -0.999967 0.008124 0.000576
vn -0.008121 -0.999957 0.004400
vn -0.008121 -0.999957 0.004400
vn -0.008121 -0.999957 0.004400
vn -0.008121 -0.999957 0.004400
vn 0.006990 0.892425 -0.451143
vn 0.006990 0.892425 -0.451143
vn 0.006990 0.892425 -0.451143
vn 0.006990 0.892425 -0.451143
vn -0.001755 -0.145764 -0.989318
vn -0.001755 -0.145764 -0.989318
vn -0.001755 -0.145764 -0.989318
vn -0.001755 -0.145764 -0.989318
vn 0.001459 0.109050 0.994035
vn 0.001459 0.109050 0.994035
vn 0.001459 0.109050 0.994035
vn 0.001459 0.109050 0.994035
vn 0.999967 -0.008124 -0.000576
vn 0.999967 -0.008124 -0.000576
vn 0.999967 -0.008124 -0.000576
vn 0.999967 -0.008124 -0.000576
vn -0.999967 0.008124 0.000576
vn -0.999967 0.008124 0.000576
vn -0.999967 0.008124 0.000576
vn -0.999967 0.008124 0.000576
vn -0.008121 -0.999957 0.004400
vn -0.008121 -0.999957 0.004400
vn -0.008121 -0.999957 0.004400
vn -0.008121 -0.999957 0.004400
vn 0.006990 0.892425 -0.451143
vn 0.006990 0.892425 -0.451143
vn 0.006990 0.892425 -0.451143
vn 0.006990 0.892425 -0.451143
vn -0.001755 -0.145764 -0.989318
vn -0.001755 -0.145764 -0.989318
vn -0.001755 -0.145764 -0.989318
vn -0.001755 -0.145764 -0.989318
vn 0.001459 0.109050 0.994035
vn 0.001459 0.109050 0.994035
vn 0.001459 0.109050 0.994035
vn 0.001459 0.109050 0.994035
vn 0.999967 -0.008124 -0.000576
vn 0.999967 -0.008124 -0.000576
vn 0.999967 -0.008124 -0.000576
vn 0.999967 -0.008124 -0.000576
vn -0.999967 0.008124 0.000576
vn -0.999967 0.008124 0.000576
vn -0.999967 0.008124 0.000576
vn -0.999967 0.008124 0.000576
vn -0.008121 -0.999957 0.004400
vn -0.008121 -0.999957 0.004400
vn -0.008121 -0.999957 0.004400
vn -0.008121 -0.999957 0.004400
vn 0.006990 0.892425 -0.451143
vn 0.006990 0.892425 -0.451143
vn 0.006990 0.892425 -0.451143
vn 0.006990 0.892425 -0.451143
vn -0.000612 -0.004395 -0.999990
vn -0.000612 -0.004395 -0.999990
vn -0.000612 -0.004395 -0.999990
vn -0.000612 -0.004395 -0.999990
vn 0.000612 0.004395 0.999990
vn 0.000612 0.004395 0.999990
vn 0.000612 0.004395 0.999990
vn 0.000612 0.004395 0.999990
vn 0.999967 -0.008124 -0.000576
vn 0.999967 -0.008124 -0.000576
vn 0.999967 -0.008124 -0.000576
vn 0.999967 -0.008124 -0.000576
vn -0.999967 0.008124 0.000576
vn -0.999967 0.008124 0.000576
vn -0.999967 0.008124 0.000576
vn -0.999967 0.008124 0.000576
vn -0.008121 -0.999957 0.004400
vn -0.008121 -0.999957 0.004400
vn -0.008121 -0.999957 0.004400
vn -0.008121 -0.999957 0.004400
vn 0.008121 0.999957 -0.004400
vn 0.008121 0.999957 -0.004400
vn 0.008121 0.999957 -0.004400
vn 0.008121 0.999957 -0.004400
vn -0.000612 -0.004395 -0.999990
vn -0.000612 -0.004395 -0.999990
vn -0.000612 -0.004395 -0.999990
vn -0.000612 -0.004395 -0.999990
vn 0.000612 0.004395 0.999990
vn 0.000612 0.004395 0.999990
vn 0.000612 0.004395 0.999990
vn 0.000612 0.004395 0.999990
vn 0.999967 -0.008124 -0.000576
vn 0.999967 -0.008124 -0.000576
vn 0.999967 -0.008124 -0.000576
vn 0.999967 -0.008124 -0.000576
vn -0.999967 0.008124 0.000576
vn -0.999967 0.008124 0.000576
vn -0.999967 0.008124 0.000576
vn -0.999967 0.008124 0.000576
vn -0.008121 -0.999957 0.004400
vn -0.008121 -0.999957 0.004400
vn -0.008121 -0.999957 0.004400
vn -0.008121 -0.999957 0.004400
vn 0.008121 0.999957 -0.004400
vn 0.008121 0.999957 -0.004400
vn 0.008121 0.999957 -0.004400
vn 0.008121 0.999957 -0.004400
vn -0.000612 -0.004395 -0.999990
vn -0.000612 -0.004395 -0.999990
vn -0.000612 -0.004395 -0.999990
vn -0.000612 -0.004395 -0.999990
vn 0.000612 0.004395 0.999990
vn 0.000612 0.004395 0.999990
vn 0.000612 0.004395 0.999990
vn 0.000612 0.004395 0.999990
vn 0.999967 -0.008124 -0.000576
vn 0.999967 -0.008124 -0.000576
vn 0.999967 -0.008124 -0.000576
vn 0.999967 -0.008124 -0.000576
vn -0.999967 0.008124 0.000576
vn -0.999967 0.008124 0.000576
vn -0.999967 0.008124 0.000576
vn -0.999967 0.008124 0.000576
vn -0.008121 -0.999957 0.004400
vn -0.008121 -0.999957 0.004400
vn -0.008121 -0.999957 0.004400
vn -0.008121 -0.999957 0.004400
vn 0.008121 0.999957 -0.004400
vn 0.008121 0.999957 -0.004400
vn 0.008121 0.999957 -0.004400
vn 0.008121 0.999957 -0.004400
vn -0.000612 -0.004395 -0.999990
vn -0.000612 -0.004395 -0.999990
vn -0.000612 -0.004395 -0.999990
vn -0.000612 -0.004395 -0.999990
vn 0.000612 0.004395 0.999990
vn 0.000612 0.004395 0.999990
vn 0.000612 0.004395 0.999990
vn 0.000612 0.004395 0.999990
vn 0.999967 -0.008124 -0.000576
vn 0.999967 -0.008124 -0.000576
vn 0.999967 -0.008124 -0.000576
vn 0.999967 -0.008124 -0.000576
vn -0.999967 0.008124 0.000576
vn -0.999967 0.008124 0.000576
vn -0.999967 0.008124 0.000576
vn -0.999967 0.008124 0.000576
vn -0.008121 -0.999957 0.004400
vn -0.008121 -0.999957 0.004400
vn -0.008121 -0.999957 0.004400
vn -0.008121 -0.999957 0.004400
vn 0.008121 0.999957 -0.004400
vn 0.008121 0.999957 -0.004400
vn 0.008121 0.999957 -0.004400
vn 0.008121 0.999957 -0.004400
vn -0.000612 -0.004395 -0.999990
vn -0.000612 -0.004395 -0.999990
vn -0.000612 -0.004395 -0.999990
vn -0.000612 -0.004395 -0.999990
vn 0.000612 0.004395 0.999990
vn 0.000612 0.004395 0.999990
vn 0.000612 0.004395 0.999990
vn 0.000612 0.004395 0.999990
vn 0.999967 -0.008124 -0.000576
vn 0.999967 -0.008124 -0.000576
vn 0.999967 -0.008124 -0.000576
vn 0.999967 -0.008124 -0.000576
vn -0.999967 0.008124 0.000576
vn -0.999967 0.008124 0.000576
vn -0.999967 0.008124 0.000576
vn -0.999967 0.008124 0.000576
vn -0.008121 -0.999957 0.004400
vn -0.008121 -0.999957 0.004400
vn -0.008121 -0.999957 0.004400
vn -0.008121 -0.999957 0.004400
vn 0.008121 0.999957 -0.004400
vn 0.008121 0.999957 -0.004400
vn 0.008121 0.999957 -0.004400
vn 0.008121 0.999957 -0.004400
vn 0.999967 -0.008124 -0.000576
vn 0.999967 -0.008124 -0.000576
vn 0.999967 -0.008124 -0.000576
vn 0.999967 -0.008124 -0.000576
vn -0.999967 0.008124 0.000576
vn -0.999967 0.008124 0.000576
vn -0.999967 0.008124 0.000576
vn -0.999967 0.008124 0.000576
vn 0.000612 0.004395 0.999990
vn 0.000612 0.004395 0.999990
vn 0.000612 0.004395 0.999990
vn 0.000612 0.004395 0.999990
vn -0.000612 -0.004395 -0.999990
vn -0.000612 -0.004395 -0.999990
vn -0.000612 -0.004395 -0.999990
vn -0.000612 -0.004395 -0.999990
vn -0.008121 -0.999957 0.004400
vn -0.008121 -0.999957 0.004400
vn -0.008121 -0.999957 0.004400
vn -0.008121 -0.999957 0.004400
vn 0.008121 0.999957 -0.004400
vn 0.008121 0.999957 -0.004400
vn 0.008121 0.999957 -0.004400
vn 0.008121 0.999957 -0.004400

vt 0.253444 -0.064468
vt 0.254270 -0.063279
vt 0.308381 -0.100898
vt 0.307555 -0.102087
vt -0.308381 -0.100898
vt -0.254270 -0.063279
vt -0.253444 -0.064468
vt -0.307555 -0.102087
vt 0.070703 0.066397
vt 0.071363 0.065108
vt 0.070073 0.064448
vt 0.069413 0.065738
vt -0.070073 0.064448
vt -0.071363 0.065108
vt -0.070703 0.066397
vt -0.069413 0.065738
vt 0.301356 -0.080178
vt 0.239264 -0.058091
vt 0.239750 -0.056726
vt 0.301841 -0.078813
vt -0.239750 -0.056726
vt -0.239264 -0.058091
vt -0.301356 -0.080178
vt -0.301841 -0.078813
vt -0.064440 -0.014557
vt -0.066230 -0.013561
vt -0.031703 0.048447
vt -0.029913 0.047450
vt 0.042349 0.053781
vt 0.076364 -0.008509
vt 0.073936 -0.009835
vt 0.039920 0.052454
vt 0.292053 -0.089369
vt 0.293655 -0.089601
vt 0.292322 -0.092026
vt 0.291133 -0.091200
vt -0.292322 -0.092026
vt -0.293655 -0.089601
vt -0.292053 -0.089369
vt -0.291133 -0.091199
vt 0.284647 -0.072697
vt 0.260861 -0.139564
vt 0.259497 -0.139079
vt 0.283282 -0.072211
vt -0.296729 -0.070753
vt -0.298342 -0.070897
vt -0.304658 -0.000206
vt -0.303045 -0.000062
vt -0.065979 -0.013700
vt -0.067769 -0.012704
vt -0.033242 0.049304
vt -0.031452 0.048307
vt 0.043593 0.054460
vt 0.077609 -0.007829
vt 0.075180 -0.009156
vt 0.041164 0.053134
vt 0.284570 -0.083638
vt 0.286173 -0.083870
vt 0.284840 -0.086295
vt 0.283651 -0.085468
vt -0.284840 -0.086295
vt -0.286173 -0.083870
vt -0.284570 -0.083638
vt -0.283651 -0.085468
vt 0.275776 -0.069542
vt 0.251991 -0.136409
vt 0.250626 -0.135924
vt 0.274412 -0.069056
vt -0.288535 -0.070021
vt -0.290148 -0.070165
vt -0.296464 0.000526
vt -0.294851 0.000670
vt -0.067190 -0.013855
vt -0.068980 -0.012858
vt -0.034453 0.049149
vt -0.032663 0.048153
vt 0.044479 0.054119
vt 0.078495 -0.008171
vt 0.076066 -0.009497
vt 0.042050 0.052792
vt 0.276116 -0.078290
vt 0.277719 -0.078522
vt 0.276386 -0.080947
vt 0.275197 -0.080121
vt -0.276386 -0.080947
vt -0.277719 -0.078522
vt -0.276116 -0.078290
vt -0.275197 -0.080121
vt 0.266118 -0.066875
vt 0.242332 -0.133742
vt 0.240967 -0.133257
vt 0.264753 -0.066389
vt -0.279374 -0.069929
vt -0.280987 -0.070073
vt -0.287302 0.000617
vt -0.285689 0.000761
vt -0.101096 0.002226
vt -0.103675 0.003545
vt -0.071348 0.066727
vt -0.068769 0.065408
vt 0.071348 0.066727
vt 0.103675 0.003545
vt 0.101096 0.002226
vt 0.068769 0.065408
vt 0.269550 -0.073019
vt 0.270739 -0.073846
vt 0.269085 -0.076224
vt 0.267896 -0.075398
vt -0.269085 -0.076224
vt -0.270739 -0.073846
vt -0.269550 -0.073019
vt -0.267896 -0.075398
vt 0.258173 -0.063280
vt 0.234387 -0.130147
vt 0.233022 -0.129662
vt 0.256808 -0.062794
vt -0.233022 -0.129662
vt -0.234387 -0.130147
vt -0.258173 -0.063280
vt -0.256808 -0.062794
vt -0.101411 0.003200
vt -0.102701 0.003860
vt -0.070703 0.066397
vt -0.069413 0.065738
vt 0.070703 0.066397
vt 0.102701 0.003860
vt 0.101411 0.003200
vt 0.069413 0.065738
vt 0.262001 -0.068653
vt 0.263190 -0.069480
vt 0.262363 -0.070669
vt 0.261174 -0.069842
vt -0.262363 -0.070669
vt -0.263190 -0.069480
vt -0.262001 -0.068653
vt -0.261174 -0.069842
vt 0.249985 -0.060367
vt 0.226442 -0.126552
vt 0.225077 -0.126067
vt 0.248620 -0.059882
vt -0.225077 -0.126067
vt -0.226442 -0.126552
vt -0.249985 -0.060367
vt -0.248620 -0.059882
vt -0.101734 0.003365
vt -0.103023 0.004025
vt -0.071025 0.066562
vt -0.069736 0.065903
vt 0.071025 0.066562
vt 0.103023 0.004025
vt 0.101734 0.003365
vt 0.069736 0.065903
vt 0.254180 -0.062775
vt 0.255369 -0.063602
vt 0.254542 -0.064791
vt 0.253353 -0.063964
vt -0.254542 -0.064791
vt -0.255369 -0.063602
vt -0.254180 -0.062775
vt -0.253353 -0.063964
vt 0.240773 -0.057091
vt 0.217230 -0.123276
vt 0.215866 -0.122790
vt 0.239409 -0.056605
vt -0.215866 -0.122790
vt -0.217230 -0.123276
vt -0.240773 -0.057091
vt -0.239409 -0.056605
vt -0.102071 0.001911
vt -0.103360 0.002571
vt -0.071033 0.065753
vt -0.069743 0.065093
vt 0.071033 0.065753
vt 0.103360 0.002571
vt 0.102071 0.001911
vt 0.069743 0.065093
vt 0.299462 -0.094697
vt 0.300651 -0.095524
vt 0.299825 -0.096713
vt 0.298635 -0.095886
vt -0.299825 -0.096713
vt -0.300651 -0.095524
vt -0.299462 -0.094697
vt -0.298635 -0.095886
vt 0.292728 -0.076340
vt 0.268943 -0.143208
vt 0.267578 -0.142722
vt 0.291364 -0.075855
vt -0.267578 -0.142722
vt -0.268943 -0.143208
vt -0.292728 -0.076340
vt -0.291364 -0.075855
vt -0.102071 0.001911
vt -0.103360 0.002571
vt -0.071033 0.065753
vt -0.069743 0.065093
vt 0.071033 0.065753
vt 0.103360 0.002571
vt 0.102071 0.001911
vt 0.069743 0.065093
vt 0.306895 -0.099864
vt 0.308084 -0.100691
vt 0.307257 -0.101880
vt 0.306068 -0.101053
vt -0.307257 -0.101880
vt -0.308084 -0.100691
vt -0.306895 -0.099864
vt -0.306068 -0.101053
vt 0.301257 -0.079374
vt 0.277472 -0.146242
vt 0.276107 -0.145756
vt 0.299893 -0.078889
vt -0.276107 -0.145756
vt -0.277472 -0.146242
vt -0.301257 -0.079374
vt -0.299893 -0.078889
vt 0.252849 -0.064055
vt 0.253676 -0.062866
vt 0.307787 -0.100484
vt 0.306960 -0.101673
vt -0.307787 -0.100484
vt -0.253676 -0.062866
vt -0.252849 -0.064055
vt -0.306960 -0.101673
vt 0.102701 0.003860
vt 0.103360 0.002571
vt 0.102071 0.001911
vt 0.101411 0.003201
vt -0.102071 0.001911
vt -0.103360 0.002571
vt -0.102701 0.003860
vt -0.101411 0.003201
vt 0.277131 -0.146120
vt 0.215039 -0.124034
vt 0.215525 -0.122669
vt 0.277616 -0.144756
vt -0.215525 -0.122669
vt -0.215039 -0.124034
vt -0.277131 -0.146120
vt -0.277616 -0.144756
s off
f 1/1/1 2/2/2 3/3/3
f 1/1/1 3/3/3 4/4/4
f 5/5/5 6/6/6 7/7/7
f 5/5/5 7/7/7 8/8/8
f 9/9/9 10/10/10 11/11/11
f 9/9/9 11/11/11 12/12/12
f 13/13/13 14/14/14 15/15/15
f 13/13/13 15/15/15 16/16/16
f 17/17/17 18/18/18 19/19/19
f 17/17/17 19/19/19 20/20/20
f 21/21/21 22/22/22 23/23/23
f 21/21/21 23/23/23 24/24/24
f 25/25/25 26/26/26 27/27/27
f 25/25/25 27/27/27 28/28/28
f 29/29/29 30/30/30 31/31/31
f 29/29/29 31/31/31 32/32/32
f 33/33/33 34/34/34 35/35/35
f 33/33/33 35/35/35 36/36/36
f 37/37/37 38/38/38 39/39/39
f 37/37/37 39/39/39 40/40/40
f 41/41/41 42/42/42 43/43/43
f 41/41/41 43/43/43 44/44/44
f 45/45/45 46/46/46 47/47/47
f 45/45/45 47/47/47 48/48/48
f 49/49/49 50/50/50 51/51/51
f 49/49/49 51/51/51 52/52/52
f 53/53/53 54/54/54 55/55/55
f 53/53/53 55/55/55 56/56/56
f 57/57/57 58/58/58 59/59/59
f 57/57/57 59/59/59 60/60/60
f 61/61/61 62/62/62 63/63/63
f 61/61/61 63/63/63 64/64/64
f 65/65/65 66/66/66 67/67/67
f 65/65/65 67/67/67 68/68/68
f 69/69/69 70/70/70 71/71/71
f 69/69/69 71/71/71 72/72/72
f 73/73/73 74/74/74 75/75/75
f 73/73/73 75/75/75 76/76/76
f 77/77/77 78/78/78 79/79/79
f 77/77/77 79/79/79 80/80/80
f 81/81/81 82/82/82 83/83/83
f 81/81/81 83/83/83 84/84/84
f 85/85/85 86/86/86 87/87/87
f 85/85/85 87/87/87 88/88/88
f 89/89/89 90/90/90 91/91/91
f 89/89/89 91/91/91 92/92/92
f 93/93/93 94/94/94 95/95/95
f 93/93/93 95/95/95 96/96/96
f 97/97/97 98/98/98 99/99/99
f 97/97/97 99/99/99 100/100/100
f 101/101/101 102/102/102 103/103/103
f 101/101/101 103/103/103 104/104/104
f 105/105/105 106/106/106 107/107/107
f 105/105/105 107/107/107 108/108/108
f 109/109/109 110/110/110 111/111/111
f 109/109/109 111/111/111 112/112/112
f 113/113/113 114/114/114 115/115/115
f 113/113/113 115/115/115 116/116/116
f 117/117/117 118/118/118 119/119/119
f 117/117/117 119/119/119 120/120/120
f 121/121/121 122/122/122 123/123/123
f 121/121/121 123/123/123 124/124/124
f 125/125/125 126/126/126 127/127/127
f 125/125/125 127/127/127 128/128/128
f 129/129/129 130/130/130 131/131/131
f 129/129/129 131/131/131 132/132/132
f 133/133/133 134/134/134 135/135/135
f 133/133/133 135/135/135 136/136/136
f 137/137/137 138/138/138 139/139/139
f 137/137/137 139/139/139 140/140/140
f 141/141/141 142/142/142 143/143/143
f 141/141/141 143/143/143 144/144/144
f 145/145/145 146/146/146 147/147/147
f 145/145/145 147/147/147 148/148/148
f 149/149/149 150/150/150 151/151/151
f 149/149/149 151/151/151 152/152/152
f 153/153/153 154/154/154 155/155/155
f 153/153/153 155/155/155 156/156/156
f 157/157/157 158/158/158 159/159/159
f 157/157/157 159/159/159 160/160/160
f 161/161/161 162/162/162 163/163/163
f 161/161/161 163/163/163 164/164/164
f 165/165/165 166/166/166 167/167/167
f 165/165/165 167/167/167 168/168/168
f 169/169/169 170/170/170 171/171/171
f 169/169/169 171/171/171 172/172/172
f 173/173/173 174/174/174 175/175/175
f 173/173/173 175/175/175 176/176/176
f 177/177/177 178/178/178 179/179/179
f 177/177/177 179/179/179 180/180/180
f 181/181/181 182/182/182 183/183/183
f 181/181/181 183/183/183 184/184/184
f 185/185/185 186/186/186 187/187/187
f 185/185/185 187/187/187 188/188/188
f 189/189/189 190/190/190 191/191/191
f 189/189/189 191/191/191 192/192/192
f 193/193/193 194/194/194 195/195/195
f 193/193/193 195/195/195 196/196/196
f 197/197/197 198/198/198 199/199/199
f 197/197/197 199/199/199 200/200/200
f 201/201/201 202/202/202 203/203/203
f 201/201/201 203/203/203 204/204/204
f 205/205/205 206/206/206 207/207/207
f 205/205/205 207/207/207 208/208/208
f 209/209/209 210/210/210 211/211/211
f 209/209/209 211/211/211 212/212/212
f 213/213/213 214/214/214 215/215/215
f 213/213/213 215/215/215 216/216/216
f 217/217/217 218/218/218 219/219/219
f 217/217/217 219/219/219 220/220/220
f 221/221/221 222/222/222 223/223/223
f 221/221/221 223/223/223 224/224/224
f 225/225/225 226/226/226 227/227/227
f 225/225/225 227/227/227 228/228/228
f 229/229/229 230/230/230 231/231/231
f 229/229/229 231/231/231 232/232/232
f 233/233/233 234/234/234 235/235/235
f 233/233/233 235/235/235 236/236/236
f 237/237/237 238/238/238 239/239/239
f 237/237/237 239/239/239 240/240/240
