# Exported using automatic converter by Erwin Coumans
mtllib model6.mtl
#object group1768158497_2

v 2.966516 -0.620458 -0.480186
v 3.009887 -0.620526 -0.464511
v 3.009937 -0.658707 -0.464817
v 2.966566 -0.658639 -0.480492
v 2.966633 -0.709546 -0.480900
v 3.010005 -0.709614 -0.465225
v 3.039727 -0.709858 -0.429966
v 3.047838 -0.710211 -0.384569
v 3.032163 -0.710580 -0.341199
v 2.996902 -0.710864 -0.311478
v 2.951504 -0.710989 -0.303368
v 2.908133 -0.710921 -0.319043
v 2.878410 -0.710677 -0.354303
v 2.870300 -0.710324 -0.399700
v 2.885975 -0.709956 -0.443069
v 2.921235 -0.709671 -0.472791
v 3.009887 -0.620526 -0.464511
v 3.039610 -0.620770 -0.429252
v 3.039660 -0.658951 -0.429558
v 3.009937 -0.658707 -0.464817
v 3.047720 -0.621123 -0.383855
v 3.032045 -0.621492 -0.340485
v 3.032095 -0.659672 -0.340791
v 3.047771 -0.659304 -0.384161
v 3.032045 -0.621492 -0.340485
v 2.996785 -0.621776 -0.310764
v 2.996835 -0.659957 -0.311069
v 3.032095 -0.659672 -0.340791
v 2.996785 -0.621776 -0.310764
v 2.951387 -0.621901 -0.302654
v 2.951437 -0.660082 -0.302960
v 2.996835 -0.659957 -0.311069
v 2.951387 -0.621901 -0.302654
v 2.908016 -0.621833 -0.318329
v 2.908066 -0.660013 -0.318635
v 2.951437 -0.660082 -0.302960
v 2.908016 -0.621833 -0.318329
v 2.878293 -0.621589 -0.353589
v 2.878343 -0.659770 -0.353895
v 2.908066 -0.660013 -0.318635
v 2.878293 -0.621589 -0.353589
v 2.870183 -0.621236 -0.398986
v 2.870233 -0.659417 -0.399291
v 2.878343 -0.659770 -0.353895
v 2.870183 -0.621236 -0.398986
v 2.885858 -0.620868 -0.442355
v 2.885908 -0.659048 -0.442661
v 2.870233 -0.659417 -0.399291
v 2.885858 -0.620868 -0.442355
v 2.921118 -0.620583 -0.472077
v 2.921168 -0.658763 -0.472383
v 2.885908 -0.659048 -0.442661
v 2.921118 -0.620583 -0.472077
v 2.966516 -0.620458 -0.480186
v 2.966566 -0.658639 -0.480492
v 2.921168 -0.658763 -0.472383
v 2.966266 -0.429555 -0.478656
v 3.009637 -0.429624 -0.462980
v 3.009670 -0.455077 -0.463184
v 2.966299 -0.455009 -0.478860
v 3.009637 -0.429624 -0.462980
v 3.039360 -0.429867 -0.427721
v 3.039393 -0.455321 -0.427925
v 3.009670 -0.455077 -0.463184
v 3.047470 -0.430221 -0.382324
v 3.031795 -0.430589 -0.338955
v 3.031828 -0.456042 -0.339159
v 3.047503 -0.455674 -0.382528
v 3.031795 -0.430589 -0.338955
v 2.996534 -0.430874 -0.309233
v 2.996568 -0.456327 -0.309437
v 3.031828 -0.456042 -0.339159
v 2.996534 -0.430874 -0.309233
v 2.951136 -0.430998 -0.301123
v 2.951169 -0.456452 -0.301327
v 2.996568 -0.456327 -0.309437
v 2.951136 -0.430998 -0.301123
v 2.907765 -0.430930 -0.316799
v 2.907799 -0.456384 -0.317003
v 2.951169 -0.456452 -0.301327
v 2.907765 -0.430930 -0.316799
v 2.878043 -0.430686 -0.352058
v 2.878076 -0.456140 -0.352262
v 2.907799 -0.456384 -0.317003
v 2.878043 -0.430686 -0.352058
v 2.869932 -0.430333 -0.397455
v 2.869966 -0.455787 -0.397659
v 2.878076 -0.456140 -0.352262
v 2.869932 -0.430333 -0.397455
v 2.885607 -0.429965 -0.440824
v 2.885640 -0.455418 -0.441028
v 2.869966 -0.455787 -0.397659
v 2.885607 -0.429965 -0.440824
v 2.920868 -0.429680 -0.470546
v 2.920901 -0.455134 -0.470750
v 2.885640 -0.455418 -0.441028
v 2.920868 -0.429680 -0.470546
v 2.966266 -0.429555 -0.478656
v 2.966299 -0.455009 -0.478860
v 2.920901 -0.455134 -0.470750
v 2.920868 -0.429680 -0.470546
v 2.885607 -0.429965 -0.440824
v 2.869932 -0.430333 -0.397455
v 2.878043 -0.430686 -0.352058
v 2.907765 -0.430930 -0.316799
v 2.951136 -0.430998 -0.301123
v 2.996534 -0.430874 -0.309233
v 3.031795 -0.430589 -0.338955
v 3.047470 -0.430221 -0.382324
v 3.039360 -0.429867 -0.427721
v 3.009637 -0.429624 -0.462980
v 2.966266 -0.429555 -0.478656
usemtl mat23

vn 0.339902 0.007981 -0.940427
vn 0.339902 0.007981 -0.940427
vn 0.339902 0.007981 -0.940427
vn 0.339902 0.007981 -0.940427
vn 0.001318 -0.999967 -0.008017
vn 0.001318 -0.999967 -0.008017
vn 0.001318 -0.999967 -0.008017
vn 0.001318 -0.999967 -0.008017
vn 0.001318 -0.999967 -0.008017
vn 0.001318 -0.999967 -0.008017
vn 0.001318 -0.999967 -0.008017
vn 0.001318 -0.999967 -0.008017
vn 0.001318 -0.999967 -0.008017
vn 0.001318 -0.999967 -0.008017
vn 0.001318 -0.999967 -0.008017
vn 0.001318 -0.999967 -0.008017
vn 0.764591 0.006163 -0.644487
vn 0.764591 0.006163 -0.644487
vn 0.764591 0.006163 -0.644487
vn 0.764591 0.006163 -0.644487
vn 0.940460 -0.001491 0.339900
vn 0.940460 -0.001491 0.339900
vn 0.940460 -0.001491 0.339900
vn 0.940460 -0.001491 0.339900
vn 0.644517 -0.005282 0.764571
vn 0.644517 -0.005282 0.764571
vn 0.644517 -0.005282 0.764571
vn 0.644517 -0.005282 0.764571
vn 0.175863 -0.007658 0.984385
vn 0.175863 -0.007658 0.984385
vn 0.175863 -0.007658 0.984385
vn 0.175863 -0.007658 0.984385
vn -0.339904 -0.007984 0.940426
vn -0.339904 -0.007984 0.940426
vn -0.339904 -0.007984 0.940426
vn -0.339904 -0.007984 0.940426
vn -0.764591 -0.006167 0.644487
vn -0.764591 -0.006167 0.644487
vn -0.764591 -0.006167 0.644487
vn -0.764591 -0.006167 0.644487
vn -0.984414 -0.002700 0.175848
vn -0.984414 -0.002700 0.175848
vn -0.984414 -0.002700 0.175848
vn -0.984414 -0.002700 0.175848
vn -0.940461 0.001491 -0.339898
vn -0.940461 0.001491 -0.339898
vn -0.940461 0.001491 -0.339898
vn -0.940461 0.001491 -0.339898
vn -0.644517 0.005282 -0.764572
vn -0.644517 0.005282 -0.764572
vn -0.644517 0.005282 -0.764572
vn -0.644517 0.005282 -0.764572
vn -0.175862 0.007658 -0.984385
vn -0.175862 0.007658 -0.984385
vn -0.175862 0.007658 -0.984385
vn -0.175862 0.007658 -0.984385
vn 0.339906 0.007977 -0.940426
vn 0.339906 0.007977 -0.940426
vn 0.339906 0.007977 -0.940426
vn 0.339906 0.007977 -0.940426
vn 0.764591 0.006163 -0.644487
vn 0.764591 0.006163 -0.644487
vn 0.764591 0.006163 -0.644487
vn 0.764591 0.006163 -0.644487
vn 0.940462 -0.001494 0.339896
vn 0.940462 -0.001494 0.339896
vn 0.940462 -0.001494 0.339896
vn 0.940462 -0.001494 0.339896
vn 0.644516 -0.005283 0.764573
vn 0.644516 -0.005283 0.764573
vn 0.644516 -0.005283 0.764573
vn 0.644516 -0.005283 0.764573
vn 0.175864 -0.007657 0.984385
vn 0.175864 -0.007657 0.984385
vn 0.175864 -0.007657 0.984385
vn 0.175864 -0.007657 0.984385
vn -0.339912 -0.007979 0.940423
vn -0.339912 -0.007979 0.940423
vn -0.339912 -0.007979 0.940423
vn -0.339912 -0.007979 0.940423
vn -0.764591 -0.006164 0.644487
vn -0.764591 -0.006164 0.644487
vn -0.764591 -0.006164 0.644487
vn -0.764591 -0.006164 0.644487
vn -0.984414 -0.002696 0.175848
vn -0.984414 -0.002696 0.175848
vn -0.984414 -0.002696 0.175848
vn -0.984414 -0.002696 0.175848
vn -0.940463 0.001494 -0.339891
vn -0.940463 0.001494 -0.339891
vn -0.940463 0.001494 -0.339891
vn -0.940463 0.001494 -0.339891
vn -0.644515 0.005283 -0.764574
vn -0.644515 0.005283 -0.764574
vn -0.644515 0.005283 -0.764574
vn -0.644515 0.005283 -0.764574
vn -0.175861 0.007656 -0.984385
vn -0.175861 0.007656 -0.984385
vn -0.175861 0.007656 -0.984385
vn -0.175861 0.007656 -0.984385
vn -0.001318 0.999967 0.008017
vn -0.001318 0.999967 0.008017
vn -0.001318 0.999967 0.008017
vn -0.001318 0.999967 0.008017
vn -0.001318 0.999967 0.008017
vn -0.001318 0.999967 0.008017
vn -0.001318 0.999967 0.008017
vn -0.001318 0.999967 0.008017
vn -0.001318 0.999967 0.008017
vn -0.001318 0.999967 0.008017
vn -0.001318 0.999967 0.008017
vn -0.001318 0.999967 0.008017

vt 0.148424 0.218697
vt 0.150814 0.222641
vt 0.154079 0.220662
vt 0.151689 0.216718
vt 0.128898 0.236072
vt 0.131845 0.239619
vt 0.136171 0.241218
vt 0.140716 0.240440
vt 0.144263 0.237493
vt 0.145862 0.233167
vt 0.145084 0.228622
vt 0.142137 0.225074
vt 0.137811 0.223475
vt 0.133266 0.224254
vt 0.129719 0.227200
vt 0.128120 0.231526
vt 0.174006 0.112467
vt 0.177706 0.115220
vt 0.179985 0.112156
vt 0.176284 0.109404
vt -0.037749 0.028651
vt -0.035031 0.024925
vt -0.038116 0.022675
vt -0.040834 0.026401
vt -0.089062 0.148646
vt -0.087010 0.144516
vt -0.090429 0.142817
vt -0.092481 0.146947
vt -0.121072 0.224201
vt -0.119101 0.220032
vt -0.122552 0.218400
vt -0.124524 0.222569
vt -0.150814 0.222641
vt -0.148424 0.218696
vt -0.151689 0.216718
vt -0.154079 0.220662
vt -0.177706 0.115220
vt -0.174006 0.112467
vt -0.176285 0.109404
vt -0.179985 0.112156
vt -0.087624 -0.046208
vt -0.083288 -0.044637
vt -0.081988 -0.048228
vt -0.086324 -0.049798
vt 0.035031 0.024925
vt 0.037749 0.028651
vt 0.040833 0.026401
vt 0.038116 0.022675
vt 0.087010 0.144517
vt 0.089062 0.148647
vt 0.092481 0.146948
vt 0.090429 0.142818
vt 0.119101 0.220032
vt 0.121072 0.224201
vt 0.124524 0.222569
vt 0.122552 0.218400
vt 0.132097 0.228589
vt 0.134486 0.232533
vt 0.136663 0.231214
vt 0.134274 0.227270
vt 0.162611 0.127785
vt 0.166312 0.130538
vt 0.167831 0.128495
vt 0.164131 0.125743
vt -0.022324 0.039901
vt -0.019606 0.036175
vt -0.021663 0.034675
vt -0.024380 0.038401
vt -0.071965 0.157142
vt -0.069913 0.153012
vt -0.072192 0.151879
vt -0.074244 0.156009
vt -0.103813 0.232362
vt -0.101842 0.228192
vt -0.104143 0.227104
vt -0.106114 0.231274
vt -0.134487 0.232533
vt -0.132097 0.228588
vt -0.134274 0.227269
vt -0.136664 0.231213
vt -0.166312 0.130537
vt -0.162611 0.127785
vt -0.164131 0.125743
vt -0.167831 0.128495
vt -0.094124 -0.028256
vt -0.089788 -0.026686
vt -0.088921 -0.029079
vt -0.093258 -0.030650
vt 0.019606 0.036174
vt 0.022323 0.039900
vt 0.024380 0.038399
vt 0.021662 0.034674
vt 0.069913 0.153012
vt 0.071965 0.157142
vt 0.074245 0.156009
vt 0.072193 0.151880
vt 0.101842 0.228193
vt 0.103813 0.232362
vt 0.106115 0.231274
vt 0.104143 0.227104
vt -0.128120 0.231526
vt -0.129719 0.227201
vt -0.133266 0.224254
vt -0.137812 0.223476
vt -0.142137 0.225074
vt -0.145084 0.228622
vt -0.145862 0.233167
vt -0.144264 0.237493
vt -0.140716 0.240440
vt -0.136171 0.241218
vt -0.131845 0.239619
vt -0.128898 0.236072
s off
f 1/1/1 2/2/2 3/3/3
f 1/1/1 3/3/3 4/4/4
f 5/5/5 6/6/6 7/7/7
f 5/5/5 7/7/7 8/8/8
f 5/5/5 8/8/8 9/9/9
f 5/5/5 9/9/9 10/10/10
f 5/5/5 10/10/10 11/11/11
f 5/5/5 11/11/11 12/12/12
f 5/5/5 12/12/12 13/13/13
f 5/5/5 13/13/13 14/14/14
f 5/5/5 14/14/14 15/15/15
f 5/5/5 15/15/15 16/16/16
f 17/17/17 18/18/18 19/19/19
f 17/17/17 19/19/19 20/20/20
f 21/21/21 22/22/22 23/23/23
f 21/21/21 23/23/23 24/24/24
f 25/25/25 26/26/26 27/27/27
f 25/25/25 27/27/27 28/28/28
f 29/29/29 30/30/30 31/31/31
f 29/29/29 31/31/31 32/32/32
f 33/33/33 34/34/34 35/35/35
f 33/33/33 35/35/35 36/36/36
f 37/37/37 38/38/38 39/39/39
f 37/37/37 39/39/39 40/40/40
f 41/41/41 42/42/42 43/43/43
f 41/41/41 43/43/43 44/44/44
f 45/45/45 46/46/46 47/47/47
f 45/45/45 47/47/47 48/48/48
f 49/49/49 50/50/50 51/51/51
f 49/49/49 51/51/51 52/52/52
f 53/53/53 54/54/54 55/55/55
f 53/53/53 55/55/55 56/56/56
f 57/57/57 58/58/58 59/59/59
f 57/57/57 59/59/59 60/60/60
f 61/61/61 62/62/62 63/63/63
f 61/61/61 63/63/63 64/64/64
f 65/65/65 66/66/66 67/67/67
f 65/65/65 67/67/67 68/68/68
f 69/69/69 70/70/70 71/71/71
f 69/69/69 71/71/71 72/72/72
f 73/73/73 74/74/74 75/75/75
f 73/73/73 75/75/75 76/76/76
f 77/77/77 78/78/78 79/79/79
f 77/77/77 79/79/79 80/80/80
f 81/81/81 82/82/82 83/83/83
f 81/81/81 83/83/83 84/84/84
f 85/85/85 86/86/86 87/87/87
f 85/85/85 87/87/87 88/88/88
f 89/89/89 90/90/90 91/91/91
f 89/89/89 91/91/91 92/92/92
f 93/93/93 94/94/94 95/95/95
f 93/93/93 95/95/95 96/96/96
f 97/97/97 98/98/98 99/99/99
f 97/97/97 99/99/99 100/100/100
f 101/101/101 102/102/102 103/103/103
f 101/101/101 103/103/103 104/104/104
f 101/101/101 104/104/104 105/105/105
f 101/101/101 105/105/105 106/106/106
f 101/101/101 106/106/106 107/107/107
f 101/101/101 107/107/107 108/108/108
f 101/101/101 108/108/108 109/109/109
f 101/101/101 109/109/109 110/110/110
f 101/101/101 110/110/110 111/111/111
f 101/101/101 111/111/111 112/112/112
