# Exported using automatic converter by Erwin Coumans
mtllib model6.mtl
#object mesh774053115

v -2.021762 0.165489 -3.390148
v -2.021762 0.185489 -3.390148
v -2.021762 0.185489 -3.370148
v -2.021762 0.165489 -3.370148
v -2.111762 0.185489 -3.370148
v -2.111762 0.185489 -3.390148
v -2.111762 0.165489 -3.390148
v -2.111762 0.165489 -3.370148
v -2.021762 0.185489 -3.370148
v -2.111762 0.185489 -3.370148
v -2.111762 0.165489 -3.370148
v -2.021762 0.165489 -3.370148
v -2.111762 0.165489 -3.390148
v -2.111762 0.185489 -3.390148
v -2.021762 0.185489 -3.390148
v -2.021762 0.165489 -3.390148
v -2.111762 0.165489 -3.370148
v -2.111762 0.165489 -3.390148
v -2.021762 0.165489 -3.390148
v -2.021762 0.165489 -3.370148
v -2.021762 0.185489 -3.390148
v -2.111762 0.185489 -3.390148
v -2.111762 0.185489 -3.370148
v -2.021762 0.185489 -3.370148
usemtl mat23

vn 1.000000 0.000000 0.000000
vn 1.000000 0.000000 0.000000
vn 1.000000 0.000000 0.000000
vn 1.000000 0.000000 0.000000
vn -1.000000 0.000000 -0.000000
vn -1.000000 0.000000 -0.000000
vn -1.000000 0.000000 -0.000000
vn -1.000000 0.000000 -0.000000
vn -0.000000 0.000000 1.000000
vn -0.000000 0.000000 1.000000
vn -0.000000 0.000000 1.000000
vn -0.000000 0.000000 1.000000
vn 0.000000 -0.000000 -1.000000
vn 0.000000 -0.000000 -1.000000
vn 0.000000 -0.000000 -1.000000
vn 0.000000 -0.000000 -1.000000
vn 0.000000 -1.000000 0.000000
vn 0.000000 -1.000000 0.000000
vn 0.000000 -1.000000 0.000000
vn 0.000000 -1.000000 0.000000
vn 0.000000 1.000000 -0.000000
vn 0.000000 1.000000 -0.000000
vn 0.000000 1.000000 -0.000000
vn 0.000000 1.000000 -0.000000

vt -0.165653 0.198202
vt -0.164490 0.199830
vt -0.162863 0.198667
vt -0.164025 0.197040
vt 0.162863 0.198667
vt 0.164490 0.199830
vt 0.165653 0.198202
vt 0.164025 0.197040
vt 0.164127 -0.178438
vt 0.168152 -0.186488
vt 0.166363 -0.187383
vt 0.162339 -0.179333
vt -0.166363 -0.187383
vt -0.168152 -0.186488
vt -0.164127 -0.178438
vt -0.162339 -0.179333
vt -0.314945 -0.144490
vt -0.316829 -0.143817
vt -0.313802 -0.135342
vt -0.311918 -0.136014
vt 0.313802 -0.135342
vt 0.316829 -0.143817
vt 0.314945 -0.144490
vt 0.311918 -0.136014
s off
f 1/1/1 2/2/2 3/3/3
f 1/1/1 3/3/3 4/4/4
f 5/5/5 6/6/6 7/7/7
f 5/5/5 7/7/7 8/8/8
f 9/9/9 10/10/10 11/11/11
f 9/9/9 11/11/11 12/12/12
f 13/13/13 14/14/14 15/15/15
f 13/13/13 15/15/15 16/16/16
f 17/17/17 18/18/18 19/19/19
f 17/17/17 19/19/19 20/20/20
f 21/21/21 22/22/22 23/23/23
f 21/21/21 23/23/23 24/24/24
