# Exported using automatic converter by Erwin Coumans
mtllib model6.mtl
#object group2136252452_4

v 0.384113 -0.434923 2.103142
v 0.384170 -0.414934 2.103826
v 0.384264 -0.415619 2.123814
v 0.384207 -0.435607 2.123130
v 0.124268 -0.414917 2.125069
v 0.124174 -0.414234 2.105081
v 0.124117 -0.434222 2.104397
v 0.124211 -0.434906 2.124385
v 0.384264 -0.415619 2.123814
v 0.124268 -0.414917 2.125069
v 0.124211 -0.434906 2.124385
v 0.384207 -0.435607 2.123130
v 0.124117 -0.434222 2.104397
v 0.124174 -0.414234 2.105081
v 0.384170 -0.414934 2.103826
v 0.384113 -0.434923 2.103142
v 0.124211 -0.434906 2.124385
v 0.124117 -0.434222 2.104397
v 0.384113 -0.434923 2.103142
v 0.384207 -0.435607 2.123130
v 0.384170 -0.414934 2.103826
v 0.124174 -0.414234 2.105081
v 0.124268 -0.414917 2.125069
v 0.384264 -0.415619 2.123814
v 0.383969 -0.484893 2.101433
v 0.384027 -0.464905 2.102117
v 0.384121 -0.465589 2.122105
v 0.384064 -0.485577 2.121421
v 0.134125 -0.464915 2.123311
v 0.134031 -0.464231 2.103323
v 0.133973 -0.484219 2.102639
v 0.134068 -0.484903 2.122628
v 0.384121 -0.465589 2.122105
v 0.134125 -0.464915 2.123311
v 0.134068 -0.484903 2.122628
v 0.384064 -0.485577 2.121421
v 0.133973 -0.484219 2.102639
v 0.134031 -0.464231 2.103323
v 0.384027 -0.464905 2.102117
v 0.383969 -0.484893 2.101433
v 0.134068 -0.484903 2.122628
v 0.133973 -0.484219 2.102639
v 0.383969 -0.484893 2.101433
v 0.384064 -0.485577 2.121421
v 0.384027 -0.464905 2.102117
v 0.134031 -0.464231 2.103323
v 0.134125 -0.464915 2.123311
v 0.384121 -0.465589 2.122105
usemtl mat16

vn 0.999985 -0.002696 -0.004826
vn 0.999985 -0.002696 -0.004826
vn 0.999985 -0.002696 -0.004826
vn 0.999985 -0.002696 -0.004826
vn -0.999985 0.002696 0.004826
vn -0.999985 0.002696 0.004826
vn -0.999985 0.002696 0.004826
vn -0.999985 0.002696 0.004826
vn 0.004731 -0.034201 0.999404
vn 0.004731 -0.034201 0.999404
vn 0.004731 -0.034201 0.999404
vn 0.004731 -0.034201 0.999404
vn -0.004731 0.034201 -0.999404
vn -0.004731 0.034201 -0.999404
vn -0.004731 0.034201 -0.999404
vn -0.004731 0.034201 -0.999404
vn -0.002860 -0.999411 -0.034188
vn -0.002860 -0.999411 -0.034188
vn -0.002860 -0.999411 -0.034188
vn -0.002860 -0.999411 -0.034188
vn 0.002860 0.999411 0.034188
vn 0.002860 0.999411 0.034188
vn 0.002860 0.999411 0.034188
vn 0.002860 0.999411 0.034188
vn 0.999985 -0.002696 -0.004826
vn 0.999985 -0.002696 -0.004826
vn 0.999985 -0.002696 -0.004826
vn 0.999985 -0.002696 -0.004826
vn -0.999985 0.002696 0.004826
vn -0.999985 0.002696 0.004826
vn -0.999985 0.002696 0.004826
vn -0.999985 0.002696 0.004826
vn 0.004731 -0.034201 0.999404
vn 0.004731 -0.034201 0.999404
vn 0.004731 -0.034201 0.999404
vn 0.004731 -0.034201 0.999404
vn -0.004731 0.034201 -0.999404
vn -0.004731 0.034201 -0.999404
vn -0.004731 0.034201 -0.999404
vn -0.004731 0.034201 -0.999404
vn -0.002860 -0.999411 -0.034188
vn -0.002860 -0.999411 -0.034188
vn -0.002860 -0.999411 -0.034188
vn -0.002860 -0.999411 -0.034188
vn 0.002860 0.999411 0.034188
vn 0.002860 0.999411 0.034188
vn 0.002860 0.999411 0.034188
vn 0.002860 0.999411 0.034188

vt 0.248006 -0.167737
vt 0.249209 -0.166139
vt 0.250806 -0.167342
vt 0.249603 -0.168940
vt -0.250806 -0.167343
vt -0.249209 -0.166139
vt -0.248006 -0.167737
vt -0.249603 -0.168940
vt 0.012756 0.013079
vt 0.024200 -0.010267
vt 0.022404 -0.011147
vt 0.010961 0.012199
vt -0.022404 -0.011147
vt -0.024200 -0.010267
vt -0.012756 0.013079
vt -0.010961 0.012199
vt 0.275507 -0.122889
vt 0.273631 -0.122197
vt 0.282635 -0.097806
vt 0.284512 -0.098498
vt -0.282635 -0.097806
vt -0.273631 -0.122197
vt -0.275507 -0.122889
vt -0.284512 -0.098498
vt 0.244998 -0.171731
vt 0.246201 -0.170133
vt 0.247798 -0.171337
vt 0.246595 -0.172934
vt -0.247798 -0.171337
vt -0.246201 -0.170133
vt -0.244998 -0.171731
vt -0.246595 -0.172934
vt 0.008267 0.010878
vt 0.019270 -0.011570
vt 0.017475 -0.012450
vt 0.006471 0.009998
vt -0.017475 -0.012450
vt -0.019270 -0.011570
vt -0.008267 0.010878
vt -0.006471 0.009998
vt 0.275854 -0.121951
vt 0.273977 -0.121259
vt 0.282635 -0.097806
vt 0.284512 -0.098498
vt -0.282635 -0.097806
vt -0.273977 -0.121259
vt -0.275854 -0.121951
vt -0.284512 -0.098498
s off
f 1/1/1 2/2/2 3/3/3
f 1/1/1 3/3/3 4/4/4
f 5/5/5 6/6/6 7/7/7
f 5/5/5 7/7/7 8/8/8
f 9/9/9 10/10/10 11/11/11
f 9/9/9 11/11/11 12/12/12
f 13/13/13 14/14/14 15/15/15
f 13/13/13 15/15/15 16/16/16
f 17/17/17 18/18/18 19/19/19
f 17/17/17 19/19/19 20/20/20
f 21/21/21 22/22/22 23/23/23
f 21/21/21 23/23/23 24/24/24
f 25/25/25 26/26/26 27/27/27
f 25/25/25 27/27/27 28/28/28
f 29/29/29 30/30/30 31/31/31
f 29/29/29 31/31/31 32/32/32
f 33/33/33 34/34/34 35/35/35
f 33/33/33 35/35/35 36/36/36
f 37/37/37 38/38/38 39/39/39
f 37/37/37 39/39/39 40/40/40
f 41/41/41 42/42/42 43/43/43
f 41/41/41 43/43/43 44/44/44
f 45/45/45 46/46/46 47/47/47
f 45/45/45 47/47/47 48/48/48
