# Exported using automatic converter by Erwin Coumans
mtllib model6.mtl
#object mesh671510611

v 1.129832 2.180484 -0.396831
v 1.126041 2.179946 -0.385717
v 1.116230 2.310053 -0.378830
v 1.119898 2.311162 -0.389944
v 1.126041 2.179946 -0.385717
v 1.135176 2.182143 -0.378652
v 1.125497 2.311632 -0.371771
v 1.116230 2.310053 -0.378830
v 1.135176 2.182143 -0.378652
v 1.144614 2.184038 -0.385400
v 1.134892 2.313717 -0.378522
v 1.125497 2.311632 -0.371771
v 1.144614 2.184038 -0.385400
v 1.141311 2.183013 -0.396636
v 1.131432 2.313427 -0.389753
v 1.134892 2.313717 -0.378522
v 1.141311 2.183013 -0.396636
v 1.129832 2.180484 -0.396831
v 1.119898 2.311162 -0.389944
v 1.131432 2.313427 -0.389753
v 1.141311 2.183013 -0.396636
v 1.144614 2.184038 -0.385400
v 1.135176 2.182143 -0.378652
v 1.126041 2.179946 -0.385717
v 1.129832 2.180484 -0.396831
v 1.119898 2.311162 -0.389944
v 1.116230 2.310053 -0.378830
v 1.125497 2.311632 -0.371771
v 1.134892 2.313717 -0.378522
v 1.131432 2.313427 -0.389753
usemtl mat23

vn -0.945401 -0.054610 -0.321303
vn -0.945401 -0.054610 -0.321303
vn -0.945401 -0.054610 -0.321303
vn -0.945401 -0.054610 -0.321303
vn -0.595229 -0.087054 0.798827
vn -0.595229 -0.087054 0.798827
vn -0.595229 -0.087054 0.798827
vn -0.595229 -0.087054 0.798827
vn 0.582524 0.000458 0.812814
vn 0.582524 0.000458 0.812814
vn 0.582524 0.000458 0.812814
vn 0.582524 0.000458 0.812814
vn 0.952483 0.087219 -0.291836
vn 0.952483 0.087219 -0.291836
vn 0.952483 0.087219 -0.291836
vn 0.952483 0.087219 -0.291836
vn 0.005687 0.053096 -0.998573
vn 0.005687 0.053096 -0.998573
vn 0.005687 0.053096 -0.998573
vn 0.005687 0.053096 -0.998573
vn 0.214696 -0.976336 0.025974
vn 0.214696 -0.976336 0.025974
vn 0.214696 -0.976336 0.025974
vn 0.214696 -0.976336 0.025974
vn 0.214696 -0.976336 0.025974
vn -0.193099 0.980586 0.034129
vn -0.193099 0.980586 0.034129
vn -0.193099 0.980586 0.034129
vn -0.193099 0.980586 0.034129
vn -0.193099 0.980586 0.034129

vt -0.226531 0.131181
vt -0.227153 0.130183
vt -0.238437 0.136769
vt -0.237866 0.137797
vt 0.159550 0.231889
vt 0.159057 0.232956
vt 0.169840 0.240224
vt 0.170389 0.239185
vt 0.223003 0.150858
vt 0.222663 0.151983
vt 0.234834 0.156617
vt 0.235155 0.155486
vt 0.103150 0.249668
vt 0.101975 0.249704
vt 0.103896 0.262659
vt 0.105067 0.262548
vt -0.206155 0.191918
vt -0.206424 0.190774
vt -0.218646 0.195555
vt -0.218350 0.196692
vt 0.095538 0.114859
vt 0.096714 0.114842
vt 0.097061 0.113719
vt 0.096100 0.113042
vt 0.095159 0.113747
vt -0.082058 0.113243
vt -0.082987 0.112524
vt -0.083959 0.113186
vt -0.083630 0.114314
vt -0.082455 0.114350
s off
f 1/1/1 2/2/2 3/3/3
f 1/1/1 3/3/3 4/4/4
f 5/5/5 6/6/6 7/7/7
f 5/5/5 7/7/7 8/8/8
f 9/9/9 10/10/10 11/11/11
f 9/9/9 11/11/11 12/12/12
f 13/13/13 14/14/14 15/15/15
f 13/13/13 15/15/15 16/16/16
f 17/17/17 18/18/18 19/19/19
f 17/17/17 19/19/19 20/20/20
f 21/21/21 22/22/22 23/23/23
f 21/21/21 23/23/23 24/24/24
f 21/21/21 24/24/24 25/25/25
f 26/26/26 27/27/27 28/28/28
f 26/26/26 28/28/28 29/29/29
f 26/26/26 29/29/29 30/30/30
