# Exported using automatic converter by Erwin Coumans
mtllib model6.mtl
#object group135980460_4

v 3.068700 0.150301 1.662206
v 3.060227 0.148031 1.662206
v 3.060227 0.148031 1.696095
v 3.068700 0.150301 1.696095
v 3.060227 0.148031 1.662206
v 3.054025 0.141829 1.662206
v 3.054025 0.141829 1.696095
v 3.060227 0.148031 1.696095
v 3.054025 0.141829 1.662206
v 3.051755 0.133357 1.662206
v 3.051755 0.133357 1.696095
v 3.054025 0.141829 1.696095
v 3.051755 0.133357 1.662206
v 3.054025 0.124885 1.662206
v 3.054025 0.124885 1.696095
v 3.051755 0.133357 1.696095
v 3.054025 0.124885 1.662206
v 3.060227 0.118683 1.662206
v 3.060227 0.118683 1.696095
v 3.054025 0.124885 1.696095
v 3.060227 0.118683 1.662206
v 3.068700 0.116413 1.662206
v 3.068700 0.116413 1.696095
v 3.060227 0.118683 1.696095
v 3.068700 0.116413 1.662206
v 3.077172 0.118683 1.662206
v 3.077172 0.118683 1.696095
v 3.068700 0.116413 1.696095
v 3.077172 0.118683 1.662206
v 3.083374 0.124885 1.662206
v 3.083374 0.124885 1.696095
v 3.077172 0.118683 1.696095
v 3.083374 0.124885 1.662206
v 3.085644 0.133357 1.662206
v 3.085644 0.133357 1.696095
v 3.083374 0.124885 1.696095
v 3.085644 0.133357 1.662206
v 3.083374 0.141829 1.662206
v 3.083374 0.141829 1.696095
v 3.085644 0.133357 1.696095
v 3.083374 0.141829 1.662206
v 3.077172 0.148031 1.662206
v 3.077172 0.148031 1.696095
v 3.083374 0.141829 1.696095
v 3.077172 0.148031 1.662206
v 3.068700 0.150301 1.662206
v 3.068700 0.150301 1.696095
v 3.077172 0.148031 1.696095
v 3.068700 0.150301 1.696095
v 3.060227 0.148031 1.696095
v 3.054025 0.141829 1.696095
v 3.051755 0.133357 1.696095
v 3.054025 0.124885 1.696095
v 3.060227 0.118683 1.696095
v 3.068700 0.116413 1.696095
v 3.077172 0.118683 1.696095
v 3.083374 0.124885 1.696095
v 3.085644 0.133357 1.696095
v 3.083374 0.141829 1.696095
v 3.077172 0.148031 1.696095
v 3.077172 0.148031 1.662206
v 3.083374 0.141829 1.662206
v 3.085644 0.133357 1.662206
v 3.083374 0.124885 1.662206
v 3.077172 0.118683 1.662206
v 3.068700 0.116413 1.662206
v 3.060227 0.118683 1.662206
v 3.054025 0.124885 1.662206
v 3.051755 0.133357 1.662206
v 3.054025 0.141829 1.662206
v 3.060227 0.148031 1.662206
v 3.068700 0.150301 1.662206
usemtl mat5

vn 0.000000 1.000000 -0.000000
vn 0.000000 1.000000 -0.000000
vn 0.000000 1.000000 -0.000000
vn 0.000000 1.000000 -0.000000
vn -0.500000 0.866025 -0.000000
vn -0.500000 0.866025 -0.000000
vn -0.500000 0.866025 -0.000000
vn -0.500000 0.866025 -0.000000
vn -0.866026 0.500000 -0.000000
vn -0.866026 0.500000 -0.000000
vn -0.866026 0.500000 -0.000000
vn -0.866026 0.500000 -0.000000
vn -1.000000 -0.000000 -0.000000
vn -1.000000 -0.000000 -0.000000
vn -1.000000 -0.000000 -0.000000
vn -1.000000 -0.000000 -0.000000
vn -0.866025 -0.500000 -0.000000
vn -0.866025 -0.500000 -0.000000
vn -0.866025 -0.500000 -0.000000
vn -0.866025 -0.500000 -0.000000
vn -0.500000 -0.866025 0.000000
vn -0.500000 -0.866025 0.000000
vn -0.500000 -0.866025 0.000000
vn -0.500000 -0.866025 0.000000
vn 0.000000 -1.000000 0.000000
vn 0.000000 -1.000000 0.000000
vn 0.000000 -1.000000 0.000000
vn 0.000000 -1.000000 0.000000
vn 0.500000 -0.866025 0.000000
vn 0.500000 -0.866025 0.000000
vn 0.500000 -0.866025 0.000000
vn 0.500000 -0.866025 0.000000
vn 0.866026 -0.500000 0.000000
vn 0.866026 -0.500000 0.000000
vn 0.866026 -0.500000 0.000000
vn 0.866026 -0.500000 0.000000
vn 1.000000 0.000000 0.000000
vn 1.000000 0.000000 0.000000
vn 1.000000 0.000000 0.000000
vn 1.000000 0.000000 0.000000
vn 0.866026 0.500000 0.000000
vn 0.866026 0.500000 0.000000
vn 0.866026 0.500000 0.000000
vn 0.866026 0.500000 0.000000
vn 0.500000 0.866026 -0.000000
vn 0.500000 0.866026 -0.000000
vn 0.500000 0.866026 -0.000000
vn 0.500000 0.866026 -0.000000
vn -0.000000 -0.000000 1.000000
vn -0.000000 -0.000000 1.000000
vn -0.000000 -0.000000 1.000000
vn -0.000000 -0.000000 1.000000
vn -0.000000 -0.000000 1.000000
vn -0.000000 -0.000000 1.000000
vn -0.000000 -0.000000 1.000000
vn -0.000000 -0.000000 1.000000
vn -0.000000 -0.000000 1.000000
vn -0.000000 -0.000000 1.000000
vn -0.000000 -0.000000 1.000000
vn -0.000000 -0.000000 1.000000
vn 0.000000 0.000000 -1.000000
vn 0.000000 0.000000 -1.000000
vn 0.000000 0.000000 -1.000000
vn 0.000000 0.000000 -1.000000
vn 0.000000 0.000000 -1.000000
vn 0.000000 0.000000 -1.000000
vn 0.000000 0.000000 -1.000000
vn 0.000000 0.000000 -1.000000
vn 0.000000 0.000000 -1.000000
vn 0.000000 0.000000 -1.000000
vn 0.000000 0.000000 -1.000000
vn 0.000000 0.000000 -1.000000

vt -0.333210 0.174119
vt -0.332925 0.173322
vt -0.336117 0.172182
vt -0.336402 0.172980
vt -0.325371 0.179320
vt -0.325112 0.178513
vt -0.328340 0.177480
vt -0.328598 0.178287
vt -0.306839 0.087631
vt -0.306536 0.086840
vt -0.309701 0.085628
vt -0.310004 0.086420
vt -0.243606 -0.098075
vt -0.243114 -0.098764
vt -0.245872 -0.100734
vt -0.246364 -0.100044
vt 0.130118 -0.235281
vt 0.130951 -0.235124
vt 0.131576 -0.238455
vt 0.130743 -0.238612
vt 0.325220 0.052077
vt 0.325644 0.052810
vt 0.328576 0.051110
vt 0.328151 0.050377
vt 0.333210 0.174119
vt 0.333495 0.174917
vt 0.336687 0.173777
vt 0.336402 0.172980
vt 0.325371 0.179320
vt 0.325629 0.180126
vt 0.328856 0.179093
vt 0.328598 0.178287
vt 0.306839 0.087631
vt 0.307142 0.088422
vt 0.310307 0.087211
vt 0.310004 0.086420
vt 0.243606 -0.098075
vt 0.244099 -0.097385
vt 0.246856 -0.099355
vt 0.246364 -0.100044
vt -0.130118 -0.235281
vt -0.129285 -0.235437
vt -0.129910 -0.238768
vt -0.130743 -0.238612
vt -0.325220 0.052077
vt -0.324795 0.051344
vt -0.327726 0.049644
vt -0.328151 0.050377
vt -0.066672 0.275293
vt -0.066496 0.274434
vt -0.066774 0.273602
vt -0.067430 0.273020
vt -0.068289 0.272844
vt -0.069121 0.273121
vt -0.069703 0.273777
vt -0.069879 0.274637
vt -0.069602 0.275469
vt -0.068946 0.276051
vt -0.068086 0.276227
vt -0.067254 0.275949
vt 0.067254 0.275949
vt 0.068086 0.276227
vt 0.068946 0.276051
vt 0.069602 0.275469
vt 0.069879 0.274637
vt 0.069703 0.273777
vt 0.069121 0.273121
vt 0.068289 0.272844
vt 0.067430 0.273020
vt 0.066774 0.273602
vt 0.066496 0.274434
vt 0.066672 0.275293
s off
f 1/1/1 2/2/2 3/3/3
f 1/1/1 3/3/3 4/4/4
f 5/5/5 6/6/6 7/7/7
f 5/5/5 7/7/7 8/8/8
f 9/9/9 10/10/10 11/11/11
f 9/9/9 11/11/11 12/12/12
f 13/13/13 14/14/14 15/15/15
f 13/13/13 15/15/15 16/16/16
f 17/17/17 18/18/18 19/19/19
f 17/17/17 19/19/19 20/20/20
f 21/21/21 22/22/22 23/23/23
f 21/21/21 23/23/23 24/24/24
f 25/25/25 26/26/26 27/27/27
f 25/25/25 27/27/27 28/28/28
f 29/29/29 30/30/30 31/31/31
f 29/29/29 31/31/31 32/32/32
f 33/33/33 34/34/34 35/35/35
f 33/33/33 35/35/35 36/36/36
f 37/37/37 38/38/38 39/39/39
f 37/37/37 39/39/39 40/40/40
f 41/41/41 42/42/42 43/43/43
f 41/41/41 43/43/43 44/44/44
f 45/45/45 46/46/46 47/47/47
f 45/45/45 47/47/47 48/48/48
f 49/49/49 50/50/50 51/51/51
f 49/49/49 51/51/51 52/52/52
f 49/49/49 52/52/52 53/53/53
f 49/49/49 53/53/53 54/54/54
f 49/49/49 54/54/54 55/55/55
f 49/49/49 55/55/55 56/56/56
f 49/49/49 56/56/56 57/57/57
f 49/49/49 57/57/57 58/58/58
f 49/49/49 58/58/58 59/59/59
f 49/49/49 59/59/59 60/60/60
f 61/61/61 62/62/62 63/63/63
f 61/61/61 63/63/63 64/64/64
f 61/61/61 64/64/64 65/65/65
f 61/61/61 65/65/65 66/66/66
f 61/61/61 66/66/66 67/67/67
f 61/61/61 67/67/67 68/68/68
f 61/61/61 68/68/68 69/69/69
f 61/61/61 69/69/69 70/70/70
f 61/61/61 70/70/70 71/71/71
f 61/61/61 71/71/71 72/72/72
