# Exported using automatic converter by Erwin Coumans
mtllib model6.mtl
#object mesh1174504514

v 0.768238 0.555489 -2.610148
v 3.068238 0.555489 -2.610148
v 3.068238 0.445489 -2.610148
v 0.768237 0.445489 -2.610148
v 3.068238 0.445489 -2.520148
v 3.068238 0.555489 -2.520148
v 0.768238 0.555489 -2.520148
v 0.768237 0.445489 -2.520148
v 3.068238 0.445489 -2.610148
v 3.068238 0.445489 -2.520148
v 0.768237 0.445489 -2.520148
v 0.768237 0.445489 -2.610148
v 0.768238 0.555489 -2.520148
v 3.068238 0.555489 -2.520148
v 3.068238 0.555489 -2.610148
v 0.768238 0.555489 -2.610148
v 0.768237 0.445489 -2.520148
v 0.768238 0.555489 -2.520148
v 0.768238 0.555489 -2.610148
v 0.768237 0.445489 -2.610148
v 3.068238 0.555489 -2.610148
v 3.068238 0.555489 -2.520148
v 3.068238 0.445489 -2.520148
v 3.068238 0.445489 -2.610148
usemtl mat21

vn -0.000000 0.000000 -1.000000
vn -0.000000 0.000000 -1.000000
vn -0.000000 0.000000 -1.000000
vn -0.000000 0.000000 -1.000000
vn 0.000000 0.000000 1.000000
vn 0.000000 0.000000 1.000000
vn 0.000000 0.000000 1.000000
vn 0.000000 0.000000 1.000000
vn -0.000000 -1.000000 0.000000
vn -0.000000 -1.000000 0.000000
vn -0.000000 -1.000000 0.000000
vn -0.000000 -1.000000 0.000000
vn 0.000000 1.000000 0.000000
vn 0.000000 1.000000 0.000000
vn 0.000000 1.000000 0.000000
vn 0.000000 1.000000 0.000000
vn -1.000000 0.000000 0.000000
vn -1.000000 0.000000 0.000000
vn -1.000000 0.000000 0.000000
vn -1.000000 0.000000 0.000000
vn 1.000000 -0.000000 -0.000000
vn 1.000000 -0.000000 -0.000000
vn 1.000000 -0.000000 -0.000000
vn 1.000000 -0.000000 -0.000000

vt -0.072449 0.087654
vt 0.030411 0.293372
vt 0.040249 0.288453
vt -0.062610 0.082735
vt -0.040249 0.288453
vt -0.030411 0.293372
vt 0.072449 0.087654
vt 0.062610 0.082735
vt -0.069151 0.317771
vt -0.060675 0.314744
vt -0.138032 0.098143
vt -0.146508 0.101170
vt 0.138032 0.098143
vt 0.060675 0.314744
vt 0.069151 0.317771
vt 0.146508 0.101170
vt 0.078583 0.170419
vt 0.072190 0.179370
vt 0.079513 0.184601
vt 0.085907 0.175650
vt -0.079513 0.184601
vt -0.072190 0.179370
vt -0.078583 0.170419
vt -0.085907 0.175650
s off
f 1/1/1 2/2/2 3/3/3
f 1/1/1 3/3/3 4/4/4
f 5/5/5 6/6/6 7/7/7
f 5/5/5 7/7/7 8/8/8
f 9/9/9 10/10/10 11/11/11
f 9/9/9 11/11/11 12/12/12
f 13/13/13 14/14/14 15/15/15
f 13/13/13 15/15/15 16/16/16
f 17/17/17 18/18/18 19/19/19
f 17/17/17 19/19/19 20/20/20
f 21/21/21 22/22/22 23/23/23
f 21/21/21 23/23/23 24/24/24
