# Exported using automatic converter by Erwin Coumans
mtllib model6.mtl
#object group1678575937_1

v -2.556384 -0.612365 2.186222
v -2.550804 -0.611911 2.200707
v -2.555907 -0.472025 2.198279
v -2.561487 -0.472480 2.183794
v -2.550804 -0.611911 2.200707
v -2.538731 -0.611301 2.210455
v -2.543834 -0.471415 2.208027
v -2.555907 -0.472025 2.198279
v -2.538731 -0.611301 2.210455
v -2.523400 -0.610700 2.212855
v -2.528504 -0.470814 2.210427
v -2.543834 -0.471415 2.208027
v -2.523400 -0.610700 2.212855
v -2.508919 -0.610269 2.207263
v -2.514023 -0.470383 2.204835
v -2.528504 -0.470814 2.210427
v -2.508919 -0.610269 2.207263
v -2.499168 -0.610123 2.195178
v -2.504272 -0.470237 2.192750
v -2.514023 -0.470383 2.204835
v -2.499168 -0.610123 2.195178
v -2.496760 -0.610301 2.179837
v -2.501864 -0.470415 2.177409
v -2.504272 -0.470237 2.192750
v -2.496760 -0.610301 2.179837
v -2.502340 -0.610756 2.165352
v -2.507444 -0.470870 2.162925
v -2.501864 -0.470415 2.177409
v -2.502340 -0.610756 2.165352
v -2.514413 -0.611366 2.155604
v -2.519517 -0.471480 2.153176
v -2.507444 -0.470870 2.162925
v -2.514413 -0.611366 2.155604
v -2.529744 -0.611967 2.153204
v -2.534847 -0.472081 2.150777
v -2.519517 -0.471480 2.153176
v -2.529744 -0.611967 2.153204
v -2.544225 -0.612398 2.158796
v -2.549329 -0.472512 2.156369
v -2.534847 -0.472081 2.150777
v -2.544225 -0.612398 2.158796
v -2.553976 -0.612544 2.170882
v -2.559079 -0.472658 2.168454
v -2.549329 -0.472512 2.156369
v -2.553976 -0.612544 2.170882
v -2.556384 -0.612365 2.186222
v -2.561487 -0.472480 2.183794
v -2.559079 -0.472658 2.168454
v -2.554237 -0.462436 2.170588
v -2.546339 -0.462318 2.160799
v -2.549329 -0.472512 2.156369
v -2.559079 -0.472658 2.168454
v -2.553976 -0.612544 2.170882
v -2.544225 -0.612398 2.158796
v -2.529744 -0.611967 2.153204
v -2.514413 -0.611366 2.155604
v -2.502340 -0.610756 2.165352
v -2.496760 -0.610301 2.179837
v -2.499168 -0.610123 2.195178
v -2.508919 -0.610269 2.207263
v -2.523400 -0.610700 2.212855
v -2.538731 -0.611301 2.210455
v -2.550804 -0.611911 2.200707
v -2.556384 -0.612365 2.186222
v -2.546339 -0.462318 2.160799
v -2.534609 -0.461968 2.156270
v -2.534847 -0.472081 2.150777
v -2.549329 -0.472512 2.156369
v -2.534609 -0.461968 2.156270
v -2.522191 -0.461482 2.158213
v -2.519517 -0.471480 2.153176
v -2.534847 -0.472081 2.150777
v -2.522191 -0.461482 2.158213
v -2.512412 -0.460988 2.166110
v -2.507444 -0.470870 2.162925
v -2.519517 -0.471480 2.153176
v -2.512412 -0.460988 2.166110
v -2.507892 -0.460619 2.177842
v -2.501864 -0.470415 2.177409
v -2.507444 -0.470870 2.162925
v -2.507892 -0.460619 2.177842
v -2.509843 -0.460475 2.190268
v -2.504272 -0.470237 2.192750
v -2.501864 -0.470415 2.177409
v -2.509843 -0.460475 2.190268
v -2.517741 -0.460593 2.200057
v -2.514023 -0.470383 2.204835
v -2.504272 -0.470237 2.192750
v -2.517741 -0.460593 2.200057
v -2.529470 -0.460942 2.204587
v -2.528504 -0.470814 2.210427
v -2.514023 -0.470383 2.204835
v -2.529470 -0.460942 2.204587
v -2.541888 -0.461429 2.202642
v -2.543834 -0.471415 2.208027
v -2.528504 -0.470814 2.210427
v -2.541888 -0.461429 2.202642
v -2.551667 -0.461923 2.194746
v -2.555907 -0.472025 2.198279
v -2.543834 -0.471415 2.208027
v -2.551667 -0.461923 2.194746
v -2.556187 -0.462292 2.183014
v -2.561487 -0.472480 2.183794
v -2.555907 -0.472025 2.198279
v -2.556187 -0.462292 2.183014
v -2.554237 -0.462436 2.170588
v -2.559079 -0.472658 2.168454
v -2.561487 -0.472480 2.183794
v -2.544377 -0.452068 2.170588
v -2.546339 -0.462318 2.160799
v -2.554237 -0.462436 2.170588
v -2.544377 -0.452068 2.170588
v -2.530016 -0.451640 2.165042
v -2.534609 -0.461968 2.156270
v -2.546339 -0.462318 2.160799
v -2.530016 -0.451640 2.165042
v -2.522191 -0.461482 2.158213
v -2.534609 -0.461968 2.156270
v -2.530016 -0.451640 2.165042
v -2.518044 -0.451036 2.174709
v -2.512412 -0.460988 2.166110
v -2.522191 -0.461482 2.158213
v -2.518044 -0.451036 2.174709
v -2.507892 -0.460619 2.177842
v -2.512412 -0.460988 2.166110
v -2.518044 -0.451036 2.174709
v -2.520432 -0.450859 2.189922
v -2.509843 -0.460475 2.190268
v -2.507892 -0.460619 2.177842
v -2.520432 -0.450859 2.189922
v -2.517741 -0.460593 2.200057
v -2.509843 -0.460475 2.190268
v -2.520432 -0.450859 2.189922
v -2.534792 -0.451287 2.195467
v -2.529470 -0.460942 2.204587
v -2.517741 -0.460593 2.200057
v -2.534792 -0.451287 2.195467
v -2.541888 -0.461429 2.202642
v -2.529470 -0.460942 2.204587
v -2.534792 -0.451287 2.195467
v -2.546765 -0.451891 2.185800
v -2.551667 -0.461923 2.194746
v -2.541888 -0.461429 2.202642
v -2.546765 -0.451891 2.185800
v -2.556187 -0.462292 2.183014
v -2.551667 -0.461923 2.194746
v -2.546765 -0.451891 2.185800
v -2.544377 -0.452068 2.170588
v -2.554237 -0.462436 2.170588
v -2.556187 -0.462292 2.183014
v -2.546765 -0.451891 2.185800
v -2.534792 -0.451287 2.195467
v -2.520432 -0.450859 2.189922
v -2.518044 -0.451036 2.174709
v -2.530016 -0.451640 2.165042
v -2.544377 -0.452068 2.170588
usemtl mat14

vn -0.993726 -0.034408 0.106417
vn -0.993726 -0.034408 0.106417
vn -0.993726 -0.034408 0.106417
vn -0.993726 -0.034408 0.106417
vn -0.807725 -0.019243 0.589245
vn -0.807725 -0.019243 0.589245
vn -0.807725 -0.019243 0.589245
vn -0.807725 -0.019243 0.589245
vn -0.405295 0.001079 0.914185
vn -0.405295 0.001079 0.914185
vn -0.405295 0.001079 0.914185
vn -0.405295 0.001079 0.914185
vn 0.105733 0.021111 0.994170
vn 0.105733 0.021111 0.994170
vn 0.105733 0.021111 0.994170
vn 0.105733 0.021111 0.994170
vn 0.588431 0.035487 0.807769
vn 0.588431 0.035487 0.807769
vn 0.588431 0.035487 0.807769
vn 0.588431 0.035487 0.807769
vn 0.913459 0.040354 0.404926
vn 0.913459 0.040354 0.404926
vn 0.913459 0.040354 0.404926
vn 0.913459 0.040354 0.404926
vn 0.993726 0.034408 -0.106417
vn 0.993726 0.034408 -0.106417
vn 0.993726 0.034408 -0.106417
vn 0.993726 0.034408 -0.106417
vn 0.807725 0.019243 -0.589245
vn 0.807725 0.019243 -0.589245
vn 0.807725 0.019243 -0.589245
vn 0.807725 0.019243 -0.589245
vn 0.405295 -0.001079 -0.914185
vn 0.405295 -0.001079 -0.914185
vn 0.405295 -0.001079 -0.914185
vn 0.405295 -0.001079 -0.914185
vn -0.105733 -0.021111 -0.994170
vn -0.105733 -0.021111 -0.994170
vn -0.105733 -0.021111 -0.994170
vn -0.105733 -0.021111 -0.994170
vn -0.588431 -0.035487 -0.807769
vn -0.588431 -0.035487 -0.807769
vn -0.588431 -0.035487 -0.807769
vn -0.588431 -0.035487 -0.807769
vn -0.913459 -0.040354 -0.404925
vn -0.913459 -0.040354 -0.404925
vn -0.913459 -0.040354 -0.404925
vn -0.913459 -0.040354 -0.404925
vn -0.698625 0.447503 -0.558269
vn -0.698625 0.447503 -0.558269
vn -0.698625 0.447503 -0.558269
vn -0.698625 0.447503 -0.558269
vn 0.036454 -0.999185 0.017341
vn 0.036454 -0.999185 0.017341
vn 0.036454 -0.999185 0.017341
vn 0.036454 -0.999185 0.017341
vn 0.036454 -0.999185 0.017341
vn 0.036454 -0.999185 0.017341
vn 0.036454 -0.999185 0.017341
vn 0.036454 -0.999185 0.017341
vn 0.036454 -0.999185 0.017341
vn 0.036454 -0.999185 0.017341
vn 0.036454 -0.999185 0.017341
vn 0.036454 -0.999185 0.017341
vn -0.332358 0.456214 -0.825474
vn -0.332358 0.456214 -0.825474
vn -0.332358 0.456214 -0.825474
vn -0.332358 0.456214 -0.825474
vn 0.118257 0.471792 -0.873743
vn 0.118257 0.471792 -0.873743
vn 0.118257 0.471792 -0.873743
vn 0.118257 0.471792 -0.873743
vn 0.532481 0.490107 -0.690115
vn 0.532481 0.490107 -0.690115
vn 0.532481 0.490107 -0.690115
vn 0.532481 0.490107 -0.690115
vn 0.799314 0.506198 -0.323821
vn 0.799314 0.506198 -0.323821
vn 0.799314 0.506198 -0.323821
vn 0.799314 0.506198 -0.323821
vn 0.847251 0.515788 0.126999
vn 0.847251 0.515788 0.126999
vn 0.847251 0.515788 0.126999
vn 0.847251 0.515788 0.126999
vn 0.663452 0.516306 0.541534
vn 0.663452 0.516306 0.541534
vn 0.663452 0.516306 0.541534
vn 0.663452 0.516306 0.541534
vn 0.297186 0.507589 0.808724
vn 0.297186 0.507589 0.808724
vn 0.297186 0.507589 0.808724
vn 0.297186 0.507589 0.808724
vn -0.153417 0.492019 0.856960
vn -0.153417 0.492019 0.856960
vn -0.153417 0.492019 0.856960
vn -0.153417 0.492019 0.856960
vn -0.567616 0.473726 0.673347
vn -0.567616 0.473726 0.673347
vn -0.567616 0.473726 0.673347
vn -0.567616 0.473726 0.673347
vn -0.834436 0.457622 0.307082
vn -0.834436 0.457622 0.307082
vn -0.834436 0.457622 0.307082
vn -0.834436 0.457622 0.307082
vn -0.882390 0.448031 -0.143724
vn -0.882390 0.448031 -0.143724
vn -0.882390 0.448031 -0.143724
vn -0.882390 0.448031 -0.143724
vn -0.627852 0.597050 -0.499333
vn -0.627852 0.597050 -0.499333
vn -0.627852 0.597050 -0.499333
vn -0.278311 0.690673 -0.667468
vn -0.278311 0.690673 -0.667468
vn -0.278311 0.690673 -0.667468
vn -0.278311 0.690673 -0.667468
vn 0.097751 0.618656 -0.779557
vn 0.097751 0.618656 -0.779557
vn 0.097751 0.618656 -0.779557
vn 0.415065 0.717869 -0.558914
vn 0.415065 0.717869 -0.558914
vn 0.415065 0.717869 -0.558914
vn 0.415065 0.717869 -0.558914
vn 0.702699 0.649214 -0.291094
vn 0.702699 0.649214 -0.291094
vn 0.702699 0.649214 -0.291094
vn 0.667423 0.738441 0.096184
vn 0.667423 0.738441 0.096184
vn 0.667423 0.738441 0.096184
vn 0.667423 0.738441 0.096184
vn 0.582050 0.658137 0.477570
vn 0.582050 0.658137 0.477570
vn 0.582050 0.658137 0.477570
vn 0.226431 0.731829 0.642771
vn 0.226431 0.731829 0.642771
vn 0.226431 0.731829 0.642771
vn 0.226431 0.731829 0.642771
vn -0.143573 0.636516 0.757783
vn -0.143573 0.636516 0.757783
vn -0.143573 0.636516 0.757783
vn -0.466967 0.704639 0.534253
vn -0.466967 0.704639 0.534253
vn -0.466967 0.704639 0.534253
vn -0.466967 0.704639 0.534253
vn -0.748510 0.605968 0.269325
vn -0.748510 0.605968 0.269325
vn -0.748510 0.605968 0.269325
vn -0.719332 0.684069 -0.120875
vn -0.719332 0.684069 -0.120875
vn -0.719332 0.684069 -0.120875
vn -0.719332 0.684069 -0.120875
vn -0.036454 0.999185 -0.017341
vn -0.036454 0.999185 -0.017341
vn -0.036454 0.999185 -0.017341
vn -0.036454 0.999185 -0.017341
vn -0.036454 0.999185 -0.017341
vn -0.036454 0.999185 -0.017341

vt -0.241881 -0.131659
vt -0.243218 -0.132339
vt -0.249566 -0.119861
vt -0.248230 -0.119181
vt -0.071361 0.039045
vt -0.072603 0.039886
vt -0.064756 0.051480
vt -0.063514 0.050639
vt 0.062436 -0.119961
vt 0.061669 -0.118672
vt 0.073701 -0.111515
vt 0.074468 -0.112804
vt 0.121589 -0.290518
vt 0.120976 -0.289149
vt 0.133755 -0.283431
vt 0.134368 -0.284800
vt 0.163459 -0.376417
vt 0.162836 -0.375052
vt 0.175571 -0.369237
vt 0.176194 -0.370601
vt 0.207349 -0.337258
vt 0.206538 -0.335996
vt 0.218321 -0.328434
vt 0.219131 -0.329696
vt 0.241881 -0.131659
vt 0.240544 -0.130979
vt 0.246893 -0.118501
vt 0.248230 -0.119181
vt 0.071361 0.039045
vt 0.070119 0.038205
vt 0.062271 0.049798
vt 0.063513 0.050639
vt -0.062436 -0.119961
vt -0.063203 -0.121251
vt -0.075235 -0.114093
vt -0.074468 -0.112804
vt -0.121589 -0.290518
vt -0.122201 -0.291887
vt -0.134981 -0.286169
vt -0.134368 -0.284800
vt -0.163459 -0.376417
vt -0.164082 -0.377781
vt -0.176817 -0.371966
vt -0.176194 -0.370601
vt -0.207349 -0.337258
vt -0.208159 -0.338520
vt -0.219941 -0.330958
vt -0.219131 -0.329696
vt -0.245262 -0.338473
vt -0.244504 -0.337469
vt -0.243505 -0.338039
vt -0.244440 -0.339279
vt 0.196499 -0.370291
vt 0.195672 -0.368976
vt 0.195613 -0.367424
vt 0.196338 -0.366051
vt 0.197652 -0.365224
vt 0.199204 -0.365165
vt 0.200577 -0.365890
vt 0.201404 -0.367204
vt 0.201463 -0.368756
vt 0.200738 -0.370129
vt 0.199424 -0.370957
vt 0.197872 -0.371015
vt -0.227345 -0.313949
vt -0.226877 -0.312782
vt -0.225763 -0.313069
vt -0.226340 -0.314511
vt -0.210996 -0.199671
vt -0.210776 -0.198432
vt -0.209626 -0.198487
vt -0.209898 -0.200016
vt -0.204891 -0.038640
vt -0.204953 -0.037384
vt -0.203820 -0.037181
vt -0.203744 -0.038732
vt -0.238058 -0.108721
vt -0.239233 -0.108273
vt -0.238965 -0.107154
vt -0.237514 -0.107707
vt 0.084280 -0.356330
vt 0.084161 -0.357582
vt 0.083011 -0.357621
vt 0.083157 -0.356075
vt 0.079612 -0.409409
vt 0.079797 -0.410653
vt 0.078689 -0.410966
vt 0.078461 -0.409430
vt 0.049607 -0.380741
vt 0.050038 -0.381923
vt 0.049015 -0.382452
vt 0.048484 -0.380993
vt -0.002306 -0.283304
vt -0.001594 -0.284341
vt -0.002451 -0.285109
vt -0.003330 -0.283829
vt -0.086829 -0.177818
vt -0.085786 -0.178521
vt -0.086302 -0.179550
vt -0.087590 -0.178683
vt -0.192583 -0.167469
vt -0.191326 -0.167525
vt -0.191229 -0.168672
vt -0.192781 -0.168603
vt -0.247924 -0.266659
vt -0.246835 -0.266030
vt -0.246137 -0.266945
vt -0.247481 -0.267721
vt -0.250500 -0.333946
vt -0.249103 -0.334254
vt -0.249886 -0.335238
vt -0.248233 -0.313688
vt -0.247746 -0.312227
vt -0.246440 -0.312811
vt -0.246838 -0.314004
vt -0.235586 -0.220852
vt -0.234270 -0.220292
vt -0.234336 -0.221548
vt -0.249925 -0.171853
vt -0.250674 -0.170507
vt -0.249361 -0.169938
vt -0.248750 -0.171038
vt -0.214357 -0.215130
vt -0.214813 -0.213774
vt -0.213566 -0.213938
vt -0.056974 -0.382136
vt -0.057851 -0.383403
vt -0.058941 -0.382476
vt -0.058225 -0.381442
vt 0.025551 -0.417140
vt 0.024269 -0.417776
vt 0.024262 -0.416518
vt -0.020839 -0.394787
vt -0.020424 -0.396270
vt -0.021833 -0.396517
vt -0.022172 -0.395306
vt -0.037493 -0.313130
vt -0.038172 -0.314389
vt -0.038904 -0.313366
vt -0.124206 -0.265804
vt -0.122877 -0.266582
vt -0.123719 -0.267740
vt -0.124804 -0.267104
vt -0.193307 -0.222832
vt -0.192729 -0.224141
vt -0.193986 -0.224091
vt -0.239781 -0.299328
vt -0.238403 -0.298641
vt -0.237894 -0.299978
vt -0.239019 -0.300540
vt -0.198596 -0.369629
vt -0.199900 -0.368809
vt -0.199841 -0.367270
vt -0.198479 -0.366551
vt -0.197176 -0.367371
vt -0.197234 -0.368910
s off
f 1/1/1 2/2/2 3/3/3
f 1/1/1 3/3/3 4/4/4
f 5/5/5 6/6/6 7/7/7
f 5/5/5 7/7/7 8/8/8
f 9/9/9 10/10/10 11/11/11
f 9/9/9 11/11/11 12/12/12
f 13/13/13 14/14/14 15/15/15
f 13/13/13 15/15/15 16/16/16
f 17/17/17 18/18/18 19/19/19
f 17/17/17 19/19/19 20/20/20
f 21/21/21 22/22/22 23/23/23
f 21/21/21 23/23/23 24/24/24
f 25/25/25 26/26/26 27/27/27
f 25/25/25 27/27/27 28/28/28
f 29/29/29 30/30/30 31/31/31
f 29/29/29 31/31/31 32/32/32
f 33/33/33 34/34/34 35/35/35
f 33/33/33 35/35/35 36/36/36
f 37/37/37 38/38/38 39/39/39
f 37/37/37 39/39/39 40/40/40
f 41/41/41 42/42/42 43/43/43
f 41/41/41 43/43/43 44/44/44
f 45/45/45 46/46/46 47/47/47
f 45/45/45 47/47/47 48/48/48
f 49/49/49 50/50/50 51/51/51
f 49/49/49 51/51/51 52/52/52
f 53/53/53 54/54/54 55/55/55
f 53/53/53 55/55/55 56/56/56
f 53/53/53 56/56/56 57/57/57
f 53/53/53 57/57/57 58/58/58
f 53/53/53 58/58/58 59/59/59
f 53/53/53 59/59/59 60/60/60
f 53/53/53 60/60/60 61/61/61
f 53/53/53 61/61/61 62/62/62
f 53/53/53 62/62/62 63/63/63
f 53/53/53 63/63/63 64/64/64
f 65/65/65 66/66/66 67/67/67
f 65/65/65 67/67/67 68/68/68
f 69/69/69 70/70/70 71/71/71
f 69/69/69 71/71/71 72/72/72
f 73/73/73 74/74/74 75/75/75
f 73/73/73 75/75/75 76/76/76
f 77/77/77 78/78/78 79/79/79
f 77/77/77 79/79/79 80/80/80
f 81/81/81 82/82/82 83/83/83
f 81/81/81 83/83/83 84/84/84
f 85/85/85 86/86/86 87/87/87
f 85/85/85 87/87/87 88/88/88
f 89/89/89 90/90/90 91/91/91
f 89/89/89 91/91/91 92/92/92
f 93/93/93 94/94/94 95/95/95
f 93/93/93 95/95/95 96/96/96
f 97/97/97 98/98/98 99/99/99
f 97/97/97 99/99/99 100/100/100
f 101/101/101 102/102/102 103/103/103
f 101/101/101 103/103/103 104/104/104
f 105/105/105 106/106/106 107/107/107
f 105/105/105 107/107/107 108/108/108
f 109/109/109 110/110/110 111/111/111
f 112/112/112 113/113/113 114/114/114
f 112/112/112 114/114/114 115/115/115
f 116/116/116 117/117/117 118/118/118
f 119/119/119 120/120/120 121/121/121
f 119/119/119 121/121/121 122/122/122
f 123/123/123 124/124/124 125/125/125
f 126/126/126 127/127/127 128/128/128
f 126/126/126 128/128/128 129/129/129
f 130/130/130 131/131/131 132/132/132
f 133/133/133 134/134/134 135/135/135
f 133/133/133 135/135/135 136/136/136
f 137/137/137 138/138/138 139/139/139
f 140/140/140 141/141/141 142/142/142
f 140/140/140 142/142/142 143/143/143
f 144/144/144 145/145/145 146/146/146
f 147/147/147 148/148/148 149/149/149
f 147/147/147 149/149/149 150/150/150
f 151/151/151 152/152/152 153/153/153
f 151/151/151 153/153/153 154/154/154
f 151/151/151 154/154/154 155/155/155
f 151/151/151 155/155/155 156/156/156
