# Exported using automatic converter by Erwin Coumans
mtllib botlab.mtl
#object mesh206776297

v 1.174557 1.652697 3.567327
v 1.164816 1.650957 3.568769
v 1.164117 1.655783 3.569873
v 1.173858 1.657524 3.568431
v 1.164816 1.650957 3.568769
v 1.161483 1.648399 3.577843
v 1.160784 1.653225 3.578947
v 1.164117 1.655783 3.569873
v 1.161483 1.648399 3.577843
v 1.167892 1.647581 3.585476
v 1.167193 1.652407 3.586580
v 1.160784 1.653225 3.578947
v 1.167892 1.647581 3.585476
v 1.177633 1.649321 3.584035
v 1.176934 1.654148 3.585139
v 1.167193 1.652407 3.586580
v 1.177633 1.649321 3.584035
v 1.180966 1.651879 3.574960
v 1.180267 1.656706 3.576064
v 1.176934 1.654148 3.585139
v 1.180966 1.651879 3.574960
v 1.174557 1.652697 3.567327
v 1.173858 1.657524 3.568431
v 1.180267 1.656706 3.576064
v 1.180966 1.651879 3.574960
v 1.177633 1.649321 3.584035
v 1.167892 1.647581 3.585476
v 1.161483 1.648399 3.577843
v 1.164816 1.650957 3.568769
v 1.174557 1.652697 3.567327
v 1.173858 1.657524 3.568431
v 1.164117 1.655783 3.569873
v 1.160784 1.653225 3.578947
v 1.167193 1.652407 3.586580
v 1.176934 1.654148 3.585139
v 1.180267 1.656706 3.576064
usemtl mat21

vn -0.177576 0.194916 -0.964611
vn -0.177576 0.194916 -0.964611
vn -0.177576 0.194916 -0.964611
vn -0.177576 0.194916 -0.964611
vn -0.932407 -0.053274 -0.357461
vn -0.932407 -0.053274 -0.357461
vn -0.932407 -0.053274 -0.357461
vn -0.932407 -0.053274 -0.357461
vn -0.754832 -0.248190 0.607150
vn -0.754832 -0.248190 0.607150
vn -0.754832 -0.248190 0.607150
vn -0.754832 -0.248190 0.607150
vn 0.177576 -0.194916 0.964611
vn 0.177576 -0.194916 0.964611
vn 0.177576 -0.194916 0.964611
vn 0.177576 -0.194916 0.964611
vn 0.932407 0.053274 0.357461
vn 0.932407 0.053274 0.357461
vn 0.932407 0.053274 0.357461
vn 0.932407 0.053274 0.357461
vn 0.754831 0.248190 -0.607150
vn 0.754831 0.248190 -0.607150
vn 0.754831 0.248190 -0.607150
vn 0.754831 0.248190 -0.607150
vn 0.139792 -0.965253 -0.220780
vn 0.139792 -0.965253 -0.220780
vn 0.139792 -0.965253 -0.220780
vn 0.139792 -0.965253 -0.220780
vn 0.139792 -0.965253 -0.220780
vn 0.139792 -0.965253 -0.220780
vn -0.139792 0.965253 0.220780
vn -0.139792 0.965253 0.220780
vn -0.139792 0.965253 0.220780
vn -0.139792 0.965253 0.220780
vn -0.139792 0.965253 0.220780
vn -0.139792 0.965253 0.220780

vt -0.271458 0.123328
vt -0.271689 0.122355
vt -0.272176 0.122471
vt -0.271945 0.123444
vt -0.379772 -0.211459
vt -0.380091 -0.212407
vt -0.380565 -0.212248
vt -0.380246 -0.211300
vt -0.009695 0.478136
vt -0.010323 0.478914
vt -0.009934 0.479228
vt -0.009306 0.478450
vt 0.271689 0.122355
vt 0.271458 0.123328
vt 0.271945 0.123444
vt 0.272176 0.122471
vt 0.380091 -0.212407
vt 0.379772 -0.211460
vt 0.380246 -0.211300
vt 0.380565 -0.212248
vt 0.010323 0.478914
vt 0.009695 0.478136
vt 0.009306 0.478450
vt 0.009934 0.479228
vt 0.406975 -0.037265
vt 0.407702 -0.037952
vt 0.407471 -0.038924
vt 0.406513 -0.039211
vt 0.405786 -0.038524
vt 0.406017 -0.037551
vt -0.406017 -0.037551
vt -0.405786 -0.038524
vt -0.406513 -0.039211
vt -0.407471 -0.038924
vt -0.407702 -0.037952
vt -0.406975 -0.037265
s off
f 1/1/1 2/2/2 3/3/3
f 1/1/1 3/3/3 4/4/4
f 5/5/5 6/6/6 7/7/7
f 5/5/5 7/7/7 8/8/8
f 9/9/9 10/10/10 11/11/11
f 9/9/9 11/11/11 12/12/12
f 13/13/13 14/14/14 15/15/15
f 13/13/13 15/15/15 16/16/16
f 17/17/17 18/18/18 19/19/19
f 17/17/17 19/19/19 20/20/20
f 21/21/21 22/22/22 23/23/23
f 21/21/21 23/23/23 24/24/24
f 25/25/25 26/26/26 27/27/27
f 25/25/25 27/27/27 28/28/28
f 25/25/25 28/28/28 29/29/29
f 25/25/25 29/29/29 30/30/30
f 31/31/31 32/32/32 33/33/33
f 31/31/31 33/33/33 34/34/34
f 31/31/31 34/34/34 35/35/35
f 31/31/31 35/35/35 36/36/36
