# Exported using automatic converter by Erwin Coumans
mtllib model6.mtl
#object group484448288_2

v 0.063697 2.235049 -0.304537
v 0.059873 2.231511 -0.447709
v 0.133325 1.624880 -0.430499
v 0.137150 1.628417 -0.287328
v 0.133325 1.624880 -0.430499
v 0.620045 1.645507 -0.433632
v 0.623869 1.649044 -0.290461
v 0.137150 1.628417 -0.287328
v 0.589325 2.191116 -0.304706
v 0.585500 2.187579 -0.447877
v 0.059873 2.231511 -0.447709
v 0.063697 2.235049 -0.304537
v 0.623869 1.649044 -0.290461
v 0.589325 2.191116 -0.304706
v 0.137150 1.628417 -0.287328
v 0.589325 2.191116 -0.304706
v 0.063697 2.235049 -0.304537
v 0.137150 1.628417 -0.287328
v 0.511119 2.229553 -0.302906
v 0.513006 2.233065 -0.442875
v 0.503585 1.679198 -0.459724
v 0.501698 1.675686 -0.319754
v 0.979411 1.684559 -0.443034
v 0.988831 2.238426 -0.426186
v 0.986945 2.234915 -0.286217
v 0.977524 1.681048 -0.303065
v 0.503585 1.679198 -0.459724
v 0.979411 1.684559 -0.443034
v 0.977524 1.681048 -0.303065
v 0.501698 1.675686 -0.319754
v 0.986945 2.234915 -0.286217
v 0.988831 2.238426 -0.426186
v 0.513006 2.233065 -0.442875
v 0.511119 2.229553 -0.302906
v 0.977524 1.681048 -0.303065
v 0.986945 2.234915 -0.286217
v 0.511119 2.229553 -0.302906
v 0.501698 1.675686 -0.319754
v 0.919654 1.654788 -0.329808
v 0.891457 2.171646 -0.325409
v 0.901428 2.173732 -0.506593
v 0.929625 1.656874 -0.510992
v 1.232122 2.191616 -0.488188
v 1.222151 2.189530 -0.307004
v 1.250348 1.672673 -0.311403
v 1.260319 1.674759 -0.492587
v 1.250348 1.672673 -0.311403
v 1.222151 2.189530 -0.307004
v 0.891457 2.171646 -0.325409
v 0.919654 1.654788 -0.329808
v 1.260319 1.674759 -0.492587
v 1.250348 1.672673 -0.311403
v 0.919654 1.654788 -0.329808
v 0.929625 1.656874 -0.510992
v 0.891457 2.171646 -0.325409
v 1.222151 2.189530 -0.307004
v 1.232122 2.191616 -0.488188
v 0.901428 2.173732 -0.506593
v 1.174991 2.188045 -0.319870
v 1.178460 2.184569 -0.441337
v 1.211483 1.615258 -0.424106
v 1.208014 1.618733 -0.302639
v 1.658995 1.641580 -0.412081
v 1.625971 2.210892 -0.429312
v 1.622503 2.214367 -0.307844
v 1.655526 1.645055 -0.290613
v 1.211483 1.615258 -0.424106
v 1.658995 1.641580 -0.412081
v 1.655526 1.645055 -0.290613
v 1.208014 1.618733 -0.302639
v 1.622503 2.214367 -0.307844
v 1.625971 2.210892 -0.429312
v 1.178460 2.184569 -0.441337
v 1.174991 2.188045 -0.319870
v 1.655526 1.645055 -0.290613
v 1.622503 2.214367 -0.307844
v 1.174991 2.188045 -0.319870
v 1.208014 1.618733 -0.302639
v 1.589875 2.223888 -0.288446
v 1.585127 2.223082 -0.353945
v 1.666797 1.609667 -0.382194
v 1.671545 1.610474 -0.316695
v 2.049136 1.655348 -0.410476
v 1.967466 2.268763 -0.382227
v 1.972214 2.269570 -0.316729
v 2.053885 1.656155 -0.344978
v 1.666797 1.609667 -0.382194
v 2.049136 1.655348 -0.410476
v 2.053885 1.656155 -0.344978
v 1.671545 1.610474 -0.316695
v 1.972214 2.269570 -0.316729
v 1.967466 2.268763 -0.382227
v 1.585127 2.223082 -0.353945
v 1.589875 2.223888 -0.288446
v 2.053885 1.656155 -0.344978
v 1.972214 2.269570 -0.316729
v 1.589875 2.223888 -0.288446
v 1.671545 1.610474 -0.316695
v 2.006052 2.211126 -0.332964
v 2.007275 2.201925 -0.492130
v 1.979356 1.587436 -0.486977
v 1.978132 1.596637 -0.327811
v 2.420318 1.555489 -0.481741
v 2.448238 2.169978 -0.486894
v 2.447014 2.179180 -0.327728
v 2.419095 1.564691 -0.322575
v 1.979356 1.587436 -0.486977
v 2.420318 1.555489 -0.481741
v 2.419095 1.564691 -0.322575
v 1.978132 1.596637 -0.327811
v 2.447014 2.179180 -0.327728
v 2.448238 2.169978 -0.486894
v 2.007275 2.201925 -0.492130
v 2.006052 2.211126 -0.332964
v 2.419095 1.564691 -0.322575
v 2.447014 2.179180 -0.327728
v 2.006052 2.211126 -0.332964
v 1.978132 1.596637 -0.327811
usemtl mat23

vn -0.992418 -0.119329 0.029458
vn -0.992418 -0.119329 0.029458
vn -0.992418 -0.119329 0.029458
vn -0.992418 -0.119329 0.029458
vn 0.042481 -0.998820 0.023544
vn 0.042481 -0.998820 0.023544
vn 0.042481 -0.998820 0.023544
vn 0.042481 -0.998820 0.023544
vn 0.083252 0.996167 -0.026838
vn 0.083252 0.996167 -0.026838
vn 0.083252 0.996167 -0.026838
vn 0.083252 0.996167 -0.026838
vn 0.005307 0.026608 0.999632
vn 0.005307 0.026608 0.999632
vn 0.005307 0.026608 0.999632
vn 0.002719 0.028686 0.999585
vn 0.002719 0.028686 0.999585
vn 0.002719 0.028686 0.999585
vn -0.999763 0.017402 -0.013040
vn -0.999763 0.017402 -0.013040
vn -0.999763 0.017402 -0.013040
vn -0.999763 0.017402 -0.013040
vn 0.999763 -0.017402 0.013040
vn 0.999763 -0.017402 0.013040
vn 0.999763 -0.017402 0.013040
vn 0.999763 -0.017402 0.013040
vn 0.012137 -0.999616 -0.024914
vn 0.012137 -0.999616 -0.024914
vn 0.012137 -0.999616 -0.024914
vn 0.012137 -0.999616 -0.024914
vn -0.012137 0.999616 0.024914
vn -0.012137 0.999616 0.024914
vn -0.012137 0.999616 0.024914
vn -0.012137 0.999616 0.024914
vn -0.034702 -0.029797 0.998954
vn -0.034702 -0.029797 0.998954
vn -0.034702 -0.029797 0.998954
vn -0.034702 -0.029797 0.998954
vn -0.997002 -0.053919 -0.055489
vn -0.997002 -0.053919 -0.055489
vn -0.997002 -0.053919 -0.055489
vn -0.997002 -0.053919 -0.055489
vn 0.997002 0.053919 0.055489
vn 0.997002 0.053919 0.055489
vn 0.997002 0.053919 0.055489
vn 0.997002 0.053919 0.055489
vn -0.054946 -0.011495 0.998423
vn -0.054946 -0.011495 0.998423
vn -0.054946 -0.011495 0.998423
vn -0.054946 -0.011495 0.998423
vn 0.054472 -0.998479 -0.008497
vn 0.054472 -0.998479 -0.008497
vn 0.054472 -0.998479 -0.008497
vn 0.054472 -0.998479 -0.008497
vn -0.054472 0.998479 0.008497
vn -0.054472 0.998479 0.008497
vn -0.054472 0.998479 0.008497
vn -0.054472 0.998479 0.008497
vn -0.997916 -0.058696 -0.026816
vn -0.997916 -0.058696 -0.026816
vn -0.997916 -0.058696 -0.026816
vn -0.997916 -0.058696 -0.026816
vn 0.997916 0.058696 0.026816
vn 0.997916 0.058696 0.026816
vn 0.997916 0.058696 0.026816
vn 0.997916 0.058696 0.026816
vn 0.057882 -0.997867 0.030202
vn 0.057882 -0.997867 0.030202
vn 0.057882 -0.997867 0.030202
vn 0.057882 -0.997867 0.030202
vn -0.057882 0.997867 -0.030202
vn -0.057882 0.997867 -0.030202
vn -0.057882 0.997867 -0.030202
vn -0.057882 0.997867 -0.030202
vn -0.028531 0.028587 0.999184
vn -0.028531 0.028587 0.999184
vn -0.028531 0.028587 0.999184
vn -0.028531 0.028587 0.999184
vn -0.988139 -0.134937 0.073303
vn -0.988139 -0.134937 0.073303
vn -0.988139 -0.134937 0.073303
vn -0.988139 -0.134937 0.073303
vn 0.988139 0.134937 -0.073302
vn 0.988139 0.134937 -0.073302
vn 0.988139 0.134937 -0.073302
vn 0.988139 0.134937 -0.073302
vn 0.118897 -0.992900 0.003613
vn 0.118897 -0.992900 0.003613
vn 0.118897 -0.992900 0.003613
vn 0.118897 -0.992900 0.003613
vn -0.118897 0.992900 -0.003613
vn -0.118897 0.992900 -0.003613
vn -0.118897 0.992900 -0.003613
vn -0.118897 0.992900 -0.003613
vn 0.077942 -0.035506 0.996325
vn 0.077942 -0.035506 0.996325
vn 0.077942 -0.035506 0.996325
vn 0.077942 -0.035506 0.996325
vn -0.998920 0.045299 -0.010295
vn -0.998920 0.045299 -0.010295
vn -0.998920 0.045299 -0.010295
vn -0.998920 0.045299 -0.010295
vn 0.998920 -0.045299 0.010295
vn 0.998920 -0.045299 0.010295
vn 0.998920 -0.045299 0.010295
vn 0.998920 -0.045299 0.010295
vn -0.072814 -0.995715 0.057003
vn -0.072814 -0.995715 0.057003
vn -0.072814 -0.995715 0.057003
vn -0.072814 -0.995715 0.057003
vn 0.072814 0.995715 -0.057003
vn 0.072814 0.995715 -0.057003
vn 0.072814 0.995715 -0.057003
vn 0.072814 0.995715 -0.057003
vn -0.011227 0.008895 0.999897
vn -0.011227 0.008895 0.999897
vn -0.011227 0.008895 0.999897
vn -0.011227 0.008895 0.999897

vt -0.222967 0.168023
vt -0.211931 0.177159
vt -0.173269 0.129808
vt -0.184304 0.120672
vt 0.045494 -0.024429
vt 0.060853 0.021803
vt 0.074543 0.017577
vt 0.059183 -0.028655
vt -0.063833 -0.016740
vt -0.050228 -0.012249
vt -0.032486 -0.061921
vt -0.046091 -0.066412
vt 0.174551 0.123760
vt 0.224454 0.145256
vt 0.194764 0.079434
vt 0.224121 0.145550
vt 0.251898 0.100711
vt 0.194492 0.079702
vt -0.205674 0.186958
vt -0.194494 0.195390
vt -0.160897 0.151315
vt -0.172076 0.142883
vt 0.162543 0.151815
vt 0.196141 0.195890
vt 0.207320 0.187458
vt 0.173722 0.143383
vt 0.042975 0.007834
vt 0.060936 0.051931
vt 0.074014 0.046927
vt 0.056052 0.002829
vt -0.074856 0.048337
vt -0.061778 0.053342
vt -0.043817 0.009245
vt -0.056895 0.004240
vt 0.164980 0.158483
vt 0.214206 0.183943
vt 0.234831 0.141027
vt 0.185605 0.115567
vt -0.181161 0.118782
vt -0.216707 0.156412
vt -0.203515 0.168874
vt -0.167969 0.131243
vt 0.203515 0.168874
vt 0.216707 0.156412
vt 0.181161 0.118782
vt 0.167969 0.131243
vt 0.149110 0.184426
vt 0.196493 0.205270
vt 0.209849 0.174909
vt 0.162466 0.154065
vt 0.071271 0.088172
vt 0.088029 0.081208
vt 0.075301 0.050579
vt 0.058543 0.057543
vt -0.075301 0.050579
vt -0.088029 0.081208
vt -0.071271 0.088172
vt -0.058543 0.057543
vt -0.213008 0.161437
vt -0.203614 0.169152
vt -0.167404 0.125063
vt -0.176798 0.117348
vt 0.167404 0.125063
vt 0.203614 0.169152
vt 0.213008 0.161437
vt 0.176798 0.117348
vt 0.082496 0.080309
vt 0.097858 0.122441
vt 0.109279 0.118276
vt 0.093917 0.076145
vt -0.109279 0.118276
vt -0.097858 0.122441
vt -0.082496 0.080309
vt -0.093917 0.076145
vt 0.125156 0.218106
vt 0.177300 0.241258
vt 0.195498 0.200271
vt 0.143353 0.177120
vt -0.210543 0.154472
vt -0.205339 0.158478
vt -0.165233 0.111266
vt -0.170437 0.107260
vt 0.164838 0.110753
vt 0.204945 0.157965
vt 0.210149 0.153958
vt 0.170042 0.106747
vt 0.099952 0.134885
vt 0.109605 0.172268
vt 0.115964 0.170626
vt 0.106311 0.133243
vt -0.118591 0.168877
vt -0.112232 0.170519
vt -0.102579 0.133136
vt -0.108938 0.131494
vt 0.121981 0.246478
vt 0.180966 0.265402
vt 0.193375 0.228841
vt 0.134389 0.209917
vt -0.199658 0.199449
vt -0.185949 0.207587
vt -0.151997 0.156291
vt -0.165707 0.148152
vt 0.151387 0.155262
vt 0.185338 0.206559
vt 0.199048 0.198420
vt 0.165097 0.147124
vt 0.098384 0.126766
vt 0.113007 0.168493
vt 0.128053 0.163220
vt 0.113431 0.121493
vt -0.130345 0.160656
vt -0.115298 0.165929
vt -0.100676 0.124202
vt -0.115722 0.118929
vt 0.086975 0.281154
vt 0.140565 0.311355
vt 0.163305 0.273436
vt 0.109715 0.243235
s off
f 1/1/1 2/2/2 3/3/3
f 1/1/1 3/3/3 4/4/4
f 5/5/5 6/6/6 7/7/7
f 5/5/5 7/7/7 8/8/8
f 9/9/9 10/10/10 11/11/11
f 9/9/9 11/11/11 12/12/12
f 13/13/13 14/14/14 15/15/15
f 16/16/16 17/17/17 18/18/18
f 19/19/19 20/20/20 21/21/21
f 19/19/19 21/21/21 22/22/22
f 23/23/23 24/24/24 25/25/25
f 23/23/23 25/25/25 26/26/26
f 27/27/27 28/28/28 29/29/29
f 27/27/27 29/29/29 30/30/30
f 31/31/31 32/32/32 33/33/33
f 31/31/31 33/33/33 34/34/34
f 35/35/35 36/36/36 37/37/37
f 35/35/35 37/37/37 38/38/38
f 39/39/39 40/40/40 41/41/41
f 39/39/39 41/41/41 42/42/42
f 43/43/43 44/44/44 45/45/45
f 43/43/43 45/45/45 46/46/46
f 47/47/47 48/48/48 49/49/49
f 47/47/47 49/49/49 50/50/50
f 51/51/51 52/52/52 53/53/53
f 51/51/51 53/53/53 54/54/54
f 55/55/55 56/56/56 57/57/57
f 55/55/55 57/57/57 58/58/58
f 59/59/59 60/60/60 61/61/61
f 59/59/59 61/61/61 62/62/62
f 63/63/63 64/64/64 65/65/65
f 63/63/63 65/65/65 66/66/66
f 67/67/67 68/68/68 69/69/69
f 67/67/67 69/69/69 70/70/70
f 71/71/71 72/72/72 73/73/73
f 71/71/71 73/73/73 74/74/74
f 75/75/75 76/76/76 77/77/77
f 75/75/75 77/77/77 78/78/78
f 79/79/79 80/80/80 81/81/81
f 79/79/79 81/81/81 82/82/82
f 83/83/83 84/84/84 85/85/85
f 83/83/83 85/85/85 86/86/86
f 87/87/87 88/88/88 89/89/89
f 87/87/87 89/89/89 90/90/90
f 91/91/91 92/92/92 93/93/93
f 91/91/91 93/93/93 94/94/94
f 95/95/95 96/96/96 97/97/97
f 95/95/95 97/97/97 98/98/98
f 99/99/99 100/100/100 101/101/101
f 99/99/99 101/101/101 102/102/102
f 103/103/103 104/104/104 105/105/105
f 103/103/103 105/105/105 106/106/106
f 107/107/107 108/108/108 109/109/109
f 107/107/107 109/109/109 110/110/110
f 111/111/111 112/112/112 113/113/113
f 111/111/111 113/113/113 114/114/114
f 115/115/115 116/116/116 117/117/117
f 115/115/115 117/117/117 118/118/118
