# Exported using automatic converter by Erwin Coumans
mtllib model6.mtl
#object mesh1401345519

v 0.695096 -0.601837 2.504614
v 0.679846 -0.595473 2.493348
v 0.685030 -0.608425 2.479016
v 0.700280 -0.614788 2.490283
v 0.696886 -0.594577 2.470790
v 0.691702 -0.581625 2.485121
v 0.706952 -0.587989 2.496388
v 0.712136 -0.600940 2.482057
v 0.685030 -0.608425 2.479016
v 0.696886 -0.594577 2.470790
v 0.712136 -0.600940 2.482057
v 0.700280 -0.614788 2.490283
v 0.706952 -0.587989 2.496388
v 0.691702 -0.581625 2.485121
v 0.679846 -0.595473 2.493348
v 0.695096 -0.601837 2.504614
v 0.712136 -0.600940 2.482057
v 0.706952 -0.587989 2.496388
v 0.695096 -0.601837 2.504614
v 0.700280 -0.614788 2.490283
v 0.679846 -0.595473 2.493348
v 0.691702 -0.581625 2.485121
v 0.696886 -0.594577 2.470790
v 0.685030 -0.608425 2.479016
usemtl mat7

vn -0.592793 -0.692398 0.411316
vn -0.592793 -0.692398 0.411316
vn -0.592793 -0.692398 0.411316
vn -0.592793 -0.692398 0.411316
vn 0.592793 0.692398 -0.411316
vn 0.592793 0.692398 -0.411316
vn 0.592793 0.692398 -0.411316
vn 0.592793 0.692398 -0.411316
vn 0.259181 -0.647572 -0.716572
vn 0.259181 -0.647572 -0.716572
vn 0.259181 -0.647572 -0.716572
vn 0.259181 -0.647572 -0.716572
vn -0.259181 0.647572 0.716572
vn -0.259181 0.647572 0.716572
vn -0.259181 0.647572 0.716572
vn -0.259181 0.647572 0.716572
vn 0.762510 -0.318174 0.563333
vn 0.762510 -0.318174 0.563333
vn 0.762510 -0.318174 0.563333
vn 0.762510 -0.318174 0.563333
vn -0.762510 0.318174 -0.563333
vn -0.762510 0.318174 -0.563333
vn -0.762510 0.318174 -0.563333
vn -0.762510 0.318174 -0.563333

vt 0.300175 0.105794
vt 0.299316 0.103988
vt 0.297510 0.104847
vt 0.298369 0.106653
vt -0.297510 0.104847
vt -0.299316 0.103988
vt -0.300175 0.105794
vt -0.298369 0.106653
vt 0.251975 -0.039775
vt 0.251280 -0.037900
vt 0.253156 -0.037205
vt 0.253850 -0.039080
vt -0.253156 -0.037205
vt -0.251280 -0.037900
vt -0.251975 -0.039775
vt -0.253850 -0.039080
vt 0.198932 -0.159763
vt 0.200902 -0.160110
vt 0.200555 -0.162079
vt 0.198585 -0.161732
vt -0.200555 -0.162079
vt -0.200902 -0.160110
vt -0.198932 -0.159763
vt -0.198585 -0.161732
s off
f 1/1/1 2/2/2 3/3/3
f 1/1/1 3/3/3 4/4/4
f 5/5/5 6/6/6 7/7/7
f 5/5/5 7/7/7 8/8/8
f 9/9/9 10/10/10 11/11/11
f 9/9/9 11/11/11 12/12/12
f 13/13/13 14/14/14 15/15/15
f 13/13/13 15/15/15 16/16/16
f 17/17/17 18/18/18 19/19/19
f 17/17/17 19/19/19 20/20/20
f 21/21/21 22/22/22 23/23/23
f 21/21/21 23/23/23 24/24/24
