# Exported using automatic converter by Erwin Coumans
mtllib model6.mtl
#object mesh661906580

v 1.318238 0.255489 0.949852
v 1.318238 0.285489 0.949852
v 1.318238 0.285489 0.799851
v 1.318238 0.255489 0.799851
v 1.338238 0.285489 0.799851
v 1.338238 0.285489 0.949852
v 1.338238 0.255489 0.949852
v 1.338238 0.255489 0.799851
v 1.318238 0.285489 0.799851
v 1.338238 0.285489 0.799851
v 1.338238 0.255489 0.799851
v 1.318238 0.255489 0.799851
v 1.338238 0.255489 0.949852
v 1.338238 0.285489 0.949852
v 1.318238 0.285489 0.949852
v 1.318238 0.255489 0.949852
v 1.338238 0.255489 0.799851
v 1.338238 0.255489 0.949852
v 1.318238 0.255489 0.949852
v 1.318238 0.255489 0.799851
v 1.318238 0.285489 0.949852
v 1.338238 0.285489 0.949852
v 1.338238 0.285489 0.799851
v 1.318238 0.285489 0.799851
usemtl mat22

vn -1.000000 0.000000 0.000000
vn -1.000000 0.000000 0.000000
vn -1.000000 0.000000 0.000000
vn -1.000000 0.000000 0.000000
vn 1.000000 0.000000 0.000000
vn 1.000000 0.000000 0.000000
vn 1.000000 0.000000 0.000000
vn 1.000000 0.000000 0.000000
vn 0.000000 0.000000 -1.000000
vn 0.000000 0.000000 -1.000000
vn 0.000000 0.000000 -1.000000
vn 0.000000 0.000000 -1.000000
vn 0.000000 -0.000000 1.000000
vn 0.000000 -0.000000 1.000000
vn 0.000000 -0.000000 1.000000
vn 0.000000 -0.000000 1.000000
vn 0.000000 -1.000000 0.000000
vn 0.000000 -1.000000 0.000000
vn 0.000000 -1.000000 0.000000
vn 0.000000 -1.000000 0.000000
vn 0.000000 1.000000 -0.000000
vn 0.000000 1.000000 -0.000000
vn 0.000000 1.000000 -0.000000
vn 0.000000 1.000000 -0.000000

vt -0.192739 -0.046732
vt -0.194482 -0.044290
vt -0.182276 -0.035572
vt -0.180533 -0.038013
vt 0.182276 -0.035572
vt 0.194482 -0.044290
vt 0.192739 -0.046732
vt 0.180533 -0.038013
vt -0.023702 0.124773
vt -0.022808 0.126561
vt -0.020125 0.125220
vt -0.021019 0.123431
vt 0.020125 0.125220
vt 0.022808 0.126561
vt 0.023702 0.124773
vt 0.021019 0.123431
vt 0.193797 0.040159
vt 0.207923 0.035114
vt 0.207251 0.033230
vt 0.193124 0.038275
vt -0.207251 0.033230
vt -0.207923 0.035114
vt -0.193797 0.040159
vt -0.193124 0.038275
s off
f 1/1/1 2/2/2 3/3/3
f 1/1/1 3/3/3 4/4/4
f 5/5/5 6/6/6 7/7/7
f 5/5/5 7/7/7 8/8/8
f 9/9/9 10/10/10 11/11/11
f 9/9/9 11/11/11 12/12/12
f 13/13/13 14/14/14 15/15/15
f 13/13/13 15/15/15 16/16/16
f 17/17/17 18/18/18 19/19/19
f 17/17/17 19/19/19 20/20/20
f 21/21/21 22/22/22 23/23/23
f 21/21/21 23/23/23 24/24/24
