# Exported using automatic converter by Erwin Coumans
mtllib botlab.mtl
#object mesh188865675

v -0.141762 0.265489 1.009852
v -0.141762 0.375489 1.009852
v -0.141762 0.375489 0.969852
v -0.141762 0.265489 0.969852
v -0.081762 0.375489 0.969852
v -0.081762 0.375489 1.009852
v -0.081762 0.265489 1.009852
v -0.081762 0.265489 0.969852
v -0.141762 0.375489 0.969852
v -0.081762 0.375489 0.969852
v -0.081762 0.265489 0.969852
v -0.141762 0.265489 0.969852
v -0.081762 0.265489 1.009852
v -0.081762 0.375489 1.009852
v -0.141762 0.375489 1.009852
v -0.141762 0.265489 1.009852
v -0.081762 0.265489 0.969852
v -0.081762 0.265489 1.009852
v -0.141762 0.265489 1.009852
v -0.141762 0.265489 0.969852
v -0.141762 0.375489 1.009852
v -0.081762 0.375489 1.009852
v -0.081762 0.375489 0.969852
v -0.141762 0.375489 0.969852
usemtl mat15

vn -1.000000 0.000000 0.000000
vn -1.000000 0.000000 0.000000
vn -1.000000 0.000000 0.000000
vn -1.000000 0.000000 0.000000
vn 1.000000 0.000000 0.000000
vn 1.000000 0.000000 0.000000
vn 1.000000 0.000000 0.000000
vn 1.000000 0.000000 0.000000
vn 0.000000 0.000000 -1.000000
vn 0.000000 0.000000 -1.000000
vn 0.000000 0.000000 -1.000000
vn 0.000000 0.000000 -1.000000
vn 0.000000 -0.000000 1.000000
vn 0.000000 -0.000000 1.000000
vn 0.000000 -0.000000 1.000000
vn 0.000000 -0.000000 1.000000
vn 0.000000 -1.000000 0.000000
vn 0.000000 -1.000000 0.000000
vn 0.000000 -1.000000 0.000000
vn 0.000000 -1.000000 0.000000
vn 0.000000 1.000000 -0.000000
vn 0.000000 1.000000 -0.000000
vn 0.000000 1.000000 -0.000000
vn 0.000000 1.000000 -0.000000

vt -0.198202 -0.049405
vt -0.204596 -0.040454
vt -0.201341 -0.038129
vt -0.194947 -0.047080
vt 0.201341 -0.038129
vt 0.204596 -0.040454
vt 0.198202 -0.049405
vt 0.194947 -0.047080
vt -0.097045 -0.001789
vt -0.094362 0.003578
vt -0.084523 -0.001342
vt -0.087207 -0.006708
vt 0.084523 -0.001342
vt 0.094362 0.003578
vt 0.097045 -0.001789
vt 0.087207 -0.006708
vt 0.162047 -0.099286
vt 0.165814 -0.100632
vt 0.163796 -0.106282
vt 0.160029 -0.104937
vt -0.163796 -0.106282
vt -0.165814 -0.100632
vt -0.162047 -0.099286
vt -0.160029 -0.104937
s off
f 1/1/1 2/2/2 3/3/3
f 1/1/1 3/3/3 4/4/4
f 5/5/5 6/6/6 7/7/7
f 5/5/5 7/7/7 8/8/8
f 9/9/9 10/10/10 11/11/11
f 9/9/9 11/11/11 12/12/12
f 13/13/13 14/14/14 15/15/15
f 13/13/13 15/15/15 16/16/16
f 17/17/17 18/18/18 19/19/19
f 17/17/17 19/19/19 20/20/20
f 21/21/21 22/22/22 23/23/23
f 21/21/21 23/23/23 24/24/24
