# Exported using automatic converter by Erwin Coumans
mtllib botlab.mtl
#object mesh374524179

v 0.765852 -0.625991 2.516624
v 0.766042 -0.631988 2.526734
v 0.761288 -0.630015 2.523481
v 0.772797 -0.628872 2.521377
v 0.766042 -0.631988 2.526734
v 0.777217 -0.632737 2.530304
v 0.755480 -0.623719 2.515431
v 0.761288 -0.630015 2.523481
v 0.777217 -0.632737 2.530304
v 0.783934 -0.627203 2.522401
v 0.763399 -0.618684 2.508351
v 0.755480 -0.623719 2.515431
v 0.783934 -0.627203 2.522401
v 0.776910 -0.623034 2.513947
v 0.774102 -0.621869 2.512025
v 0.763399 -0.618684 2.508351
v 0.776910 -0.623034 2.513947
v 0.765852 -0.625991 2.516624
v 0.772797 -0.628872 2.521377
v 0.774102 -0.621869 2.512025
v 0.776910 -0.623034 2.513947
v 0.783934 -0.627203 2.522401
v 0.777217 -0.632737 2.530304
v 0.766042 -0.631988 2.526734
v 0.765852 -0.625991 2.516624
v 0.666989 -0.597015 2.490253
v 0.670252 -0.602699 2.500013
v 0.681954 -0.601989 2.500889
v 0.685922 -0.595866 2.491672
v 0.676674 -0.592792 2.485098
v 0.768145 -0.615761 2.500094
v 0.757519 -0.614226 2.495305
v 0.763399 -0.618684 2.508351
v 0.774102 -0.621869 2.512025
v 0.757519 -0.614226 2.495305
v 0.749607 -0.619418 2.502279
v 0.755480 -0.623719 2.515431
v 0.763399 -0.618684 2.508351
v 0.749607 -0.619418 2.502279
v 0.755342 -0.624161 2.511379
v 0.761288 -0.630015 2.523481
v 0.755480 -0.623719 2.515431
v 0.755342 -0.624161 2.511379
v 0.766800 -0.621901 2.510028
v 0.772797 -0.628872 2.521377
v 0.761288 -0.630015 2.523481
v 0.766800 -0.621901 2.510028
v 0.768145 -0.615761 2.500094
v 0.774102 -0.621869 2.512025
v 0.772797 -0.628872 2.521377
v 0.757317 -0.617347 2.488818
v 0.746689 -0.615793 2.484040
v 0.757519 -0.614226 2.495305
v 0.768145 -0.615761 2.500094
v 0.746689 -0.615793 2.484040
v 0.738768 -0.620915 2.491056
v 0.749607 -0.619418 2.502279
v 0.757519 -0.614226 2.495305
v 0.738768 -0.620915 2.491056
v 0.744501 -0.625633 2.500171
v 0.755342 -0.624161 2.511379
v 0.749607 -0.619418 2.502279
v 0.744501 -0.625633 2.500171
v 0.755965 -0.623428 2.498787
v 0.766800 -0.621901 2.510028
v 0.755342 -0.624161 2.511379
v 0.755965 -0.623428 2.498787
v 0.757317 -0.617347 2.488818
v 0.768145 -0.615761 2.500094
v 0.766800 -0.621901 2.510028
v 0.739940 -0.614978 2.477734
v 0.748797 -0.616081 2.485385
v 0.746689 -0.615793 2.484040
v 0.757317 -0.617347 2.488818
v 0.748797 -0.616081 2.485385
v 0.744732 -0.621727 2.494861
v 0.738768 -0.620915 2.491056
v 0.746689 -0.615793 2.484040
v 0.744732 -0.621727 2.494861
v 0.733362 -0.624115 2.493066
v 0.744501 -0.625633 2.500171
v 0.738768 -0.620915 2.491056
v 0.733362 -0.624115 2.493066
v 0.730400 -0.619944 2.482481
v 0.755965 -0.623428 2.498787
v 0.744501 -0.625633 2.500171
v 0.730400 -0.619944 2.482481
v 0.739940 -0.614978 2.477734
v 0.757317 -0.617347 2.488818
v 0.755965 -0.623428 2.498787
v 0.726316 -0.607025 2.479721
v 0.735545 -0.609932 2.486396
v 0.748797 -0.616081 2.485385
v 0.739940 -0.614978 2.477734
v 0.735545 -0.609932 2.486396
v 0.731575 -0.616040 2.495623
v 0.744732 -0.621727 2.494861
v 0.748797 -0.616081 2.485385
v 0.731575 -0.616040 2.495623
v 0.719891 -0.616907 2.494649
v 0.733362 -0.624115 2.493066
v 0.744732 -0.621727 2.494861
v 0.719891 -0.616907 2.494649
v 0.716641 -0.611336 2.484821
v 0.730400 -0.619944 2.482481
v 0.733362 -0.624115 2.493066
v 0.716641 -0.611336 2.484821
v 0.726316 -0.607025 2.479721
v 0.739940 -0.614978 2.477734
v 0.730400 -0.619944 2.482481
v 0.714400 -0.609548 2.489619
v 0.723635 -0.612502 2.496266
v 0.735545 -0.609932 2.486396
v 0.726316 -0.607025 2.479721
v 0.723635 -0.612502 2.496266
v 0.719659 -0.618561 2.505522
v 0.731575 -0.616040 2.495623
v 0.735545 -0.609932 2.486396
v 0.719659 -0.618561 2.505522
v 0.707967 -0.619352 2.504595
v 0.719891 -0.616907 2.494649
v 0.731575 -0.616040 2.495623
v 0.707967 -0.619352 2.504595
v 0.704716 -0.613782 2.494766
v 0.716641 -0.611336 2.484821
v 0.719891 -0.616907 2.494649
v 0.704716 -0.613782 2.494766
v 0.714400 -0.609548 2.489619
v 0.726316 -0.607025 2.479721
v 0.716641 -0.611336 2.484821
v 0.699757 -0.610100 2.489087
v 0.708988 -0.613029 2.495749
v 0.723635 -0.612502 2.496266
v 0.714400 -0.609548 2.489619
v 0.708988 -0.613029 2.495749
v 0.705018 -0.619132 2.504979
v 0.719659 -0.618561 2.505522
v 0.723635 -0.612502 2.496266
v 0.705018 -0.619132 2.504979
v 0.693331 -0.619974 2.504021
v 0.707967 -0.619352 2.504595
v 0.719659 -0.618561 2.505522
v 0.693331 -0.619974 2.504021
v 0.690080 -0.614392 2.494199
v 0.704716 -0.613782 2.494766
v 0.707967 -0.619352 2.504595
v 0.690080 -0.614392 2.494199
v 0.699757 -0.610100 2.489087
v 0.714400 -0.609548 2.489619
v 0.704716 -0.613782 2.494766
v 0.689166 -0.600334 2.486234
v 0.698405 -0.603325 2.492859
v 0.708988 -0.613029 2.495749
v 0.699757 -0.610100 2.489087
v 0.698405 -0.603325 2.492859
v 0.694437 -0.609451 2.502074
v 0.705018 -0.619132 2.504979
v 0.708988 -0.613029 2.495749
v 0.694437 -0.609451 2.502074
v 0.682745 -0.610246 2.501145
v 0.693331 -0.619974 2.504021
v 0.705018 -0.619132 2.504979
v 0.682745 -0.610246 2.501145
v 0.679487 -0.604611 2.491356
v 0.690080 -0.614392 2.494199
v 0.693331 -0.619974 2.504021
v 0.679487 -0.604611 2.491356
v 0.689166 -0.600334 2.486234
v 0.699757 -0.610100 2.489087
v 0.690080 -0.614392 2.494199
v 0.676674 -0.592792 2.485098
v 0.685922 -0.595866 2.491672
v 0.698405 -0.603325 2.492859
v 0.689166 -0.600334 2.486234
v 0.685922 -0.595866 2.491672
v 0.681954 -0.601989 2.500889
v 0.694437 -0.609451 2.502074
v 0.698405 -0.603325 2.492859
v 0.681954 -0.601989 2.500889
v 0.670252 -0.602699 2.500013
v 0.682745 -0.610246 2.501145
v 0.694437 -0.609451 2.502074
v 0.670252 -0.602699 2.500013
v 0.666989 -0.597015 2.490253
v 0.679487 -0.604611 2.491356
v 0.682745 -0.610246 2.501145
v 0.666989 -0.597015 2.490253
v 0.676674 -0.592792 2.485098
v 0.689166 -0.600334 2.486234
v 0.679487 -0.604611 2.491356
usemtl mat20

vn 0.007786 0.860140 0.509998
vn 0.007786 0.860140 0.509998
vn 0.007786 0.860140 0.509998
vn 0.007786 0.860140 0.509998
vn -0.169482 0.713223 0.680139
vn -0.169482 0.713223 0.680139
vn -0.169482 0.713223 0.680139
vn -0.169482 0.713223 0.680139
vn -0.033794 0.831953 0.553816
vn -0.033794 0.831953 0.553816
vn -0.033794 0.831953 0.553816
vn -0.033794 0.831953 0.553816
vn 0.167364 0.932290 0.320663
vn 0.167364 0.932290 0.320663
vn 0.167364 0.932290 0.320663
vn 0.167364 0.932290 0.320663
vn -0.071564 0.803145 0.591470
vn -0.071564 0.803145 0.591470
vn -0.071564 0.803145 0.591470
vn -0.071564 0.803145 0.591470
vn 0.105284 -0.854432 -0.508784
vn 0.105284 -0.854432 -0.508784
vn 0.105284 -0.854432 -0.508784
vn 0.105284 -0.854432 -0.508784
vn 0.105284 -0.854432 -0.508784
vn -0.090637 0.847108 0.523634
vn -0.090637 0.847108 0.523634
vn -0.090637 0.847108 0.523634
vn -0.090637 0.847108 0.523634
vn -0.090637 0.847108 0.523634
vn 0.061179 0.929334 0.364138
vn 0.061179 0.929334 0.364138
vn 0.061179 0.929334 0.364138
vn 0.061179 0.929334 0.364138
vn -0.222314 0.890305 0.397408
vn -0.222314 0.890305 0.397408
vn -0.222314 0.890305 0.397408
vn -0.222314 0.890305 0.397408
vn -0.758825 -0.644167 0.096093
vn -0.758825 -0.644167 0.096093
vn -0.758825 -0.644167 0.096093
vn -0.758825 -0.644167 0.096093
vn 0.052925 -0.864549 -0.499755
vn 0.052925 -0.864549 -0.499755
vn 0.052925 -0.864549 -0.499755
vn 0.052925 -0.864549 -0.499755
vn 0.151974 -0.826334 -0.542288
vn 0.151974 -0.826334 -0.542288
vn 0.151974 -0.826334 -0.542288
vn 0.151974 -0.826334 -0.542288
vn 0.312691 0.852137 -0.419627
vn 0.312691 0.852137 -0.419627
vn 0.312691 0.852137 -0.419627
vn 0.312691 0.852137 -0.419627
vn -0.373718 0.896507 0.237930
vn -0.373718 0.896507 0.237930
vn -0.373718 0.896507 0.237930
vn -0.373718 0.896507 0.237930
vn -0.694439 0.358841 0.623689
vn -0.694439 0.358841 0.623689
vn -0.694439 0.358841 0.623689
vn -0.694439 0.358841 0.623689
vn 0.185478 -0.981475 -0.048001
vn 0.185478 -0.981475 -0.048001
vn 0.185478 -0.981475 -0.048001
vn 0.185478 -0.981475 -0.048001
vn 0.519398 -0.757799 -0.394926
vn 0.519398 -0.757799 -0.394926
vn 0.519398 -0.757799 -0.394926
vn 0.519398 -0.757799 -0.394926
vn 0.167114 0.984585 -0.051624
vn 0.167114 0.984585 -0.051624
vn 0.167114 0.984585 -0.051624
vn 0.167114 0.984585 -0.051624
vn 0.167896 -0.876855 -0.450484
vn 0.167896 -0.876855 -0.450484
vn 0.167896 -0.876855 -0.450484
vn 0.167896 -0.876855 -0.450484
vn -0.253938 0.784370 0.565933
vn -0.253938 0.784370 0.565933
vn -0.253938 0.784370 0.565933
vn -0.253938 0.784370 0.565933
vn 0.127467 -0.910102 -0.394293
vn 0.127467 -0.910102 -0.394293
vn 0.127467 -0.910102 -0.394293
vn 0.127467 -0.910102 -0.394293
vn 0.197438 -0.848577 -0.490851
vn 0.197438 -0.848577 -0.490851
vn 0.197438 -0.848577 -0.490851
vn 0.197438 -0.848577 -0.490851
vn 0.419420 0.860700 -0.288587
vn 0.419420 0.860700 -0.288587
vn 0.419420 0.860700 -0.288587
vn 0.419420 0.860700 -0.288587
vn 0.359770 0.712527 0.602388
vn 0.359770 0.712527 0.602388
vn 0.359770 0.712527 0.602388
vn 0.359770 0.712527 0.602388
vn -0.069156 -0.314990 0.946572
vn -0.069156 -0.314990 0.946572
vn -0.069156 -0.314990 0.946572
vn -0.069156 -0.314990 0.946572
vn -0.513252 -0.824744 -0.237425
vn -0.513252 -0.824744 -0.237425
vn -0.513252 -0.824744 -0.237425
vn -0.513252 -0.824744 -0.237425
vn -0.319916 -0.293649 -0.900791
vn -0.319916 -0.293649 -0.900791
vn -0.319916 -0.293649 -0.900791
vn -0.319916 -0.293649 -0.900791
vn 0.066428 0.943980 0.323249
vn 0.066428 0.943980 0.323249
vn 0.066428 0.943980 0.323249
vn 0.066428 0.943980 0.323249
vn 0.361745 0.699672 0.616117
vn 0.361745 0.699672 0.616117
vn 0.361745 0.699672 0.616117
vn 0.361745 0.699672 0.616117
vn 0.081975 -0.985563 -0.148141
vn 0.081975 -0.985563 -0.148141
vn 0.081975 -0.985563 -0.148141
vn 0.081975 -0.985563 -0.148141
vn -0.184600 -0.879957 -0.437719
vn -0.184600 -0.879957 -0.437719
vn -0.184600 -0.879957 -0.437719
vn -0.184600 -0.879957 -0.437719
vn -0.558132 0.657737 -0.505838
vn -0.558132 0.657737 -0.505838
vn -0.558132 0.657737 -0.505838
vn -0.558132 0.657737 -0.505838
vn -0.049139 0.886525 0.460064
vn -0.049139 0.886525 0.460064
vn -0.049139 0.886525 0.460064
vn -0.049139 0.886525 0.460064
vn -0.050978 0.844251 0.533519
vn -0.050978 0.844251 0.533519
vn -0.050978 0.844251 0.533519
vn -0.050978 0.844251 0.533519
vn 0.012020 -0.824646 0.565522
vn 0.012020 -0.824646 0.565522
vn 0.012020 -0.824646 0.565522
vn 0.012020 -0.824646 0.565522
vn 0.055961 -0.860281 -0.506740
vn 0.055961 -0.860281 -0.506740
vn 0.055961 -0.860281 -0.506740
vn 0.055961 -0.860281 -0.506740
vn 0.053975 -0.815659 -0.576010
vn 0.053975 -0.815659 -0.576010
vn 0.053975 -0.815659 -0.576010
vn 0.053975 -0.815659 -0.576010
vn 0.609117 0.475083 -0.635037
vn 0.609117 0.475083 -0.635037
vn 0.609117 0.475083 -0.635037
vn 0.609117 0.475083 -0.635037
vn 0.430755 0.655689 0.620098
vn 0.430755 0.655689 0.620098
vn 0.430755 0.655689 0.620098
vn 0.430755 0.655689 0.620098
vn -0.092208 0.190535 0.977340
vn -0.092208 0.190535 0.977340
vn -0.092208 0.190535 0.977340
vn -0.092208 0.190535 0.977340
vn -0.628669 -0.746420 -0.218250
vn -0.628669 -0.746420 -0.218250
vn -0.628669 -0.746420 -0.218250
vn -0.628669 -0.746420 -0.218250
vn -0.227127 -0.491192 -0.840918
vn -0.227127 -0.491192 -0.840918
vn -0.227127 -0.491192 -0.840918
vn -0.227127 -0.491192 -0.840918
vn 0.506467 0.789559 -0.346537
vn 0.506467 0.789559 -0.346537
vn 0.506467 0.789559 -0.346537
vn 0.506467 0.789559 -0.346537
vn 0.358858 0.698769 0.618824
vn 0.358858 0.698769 0.618824
vn 0.358858 0.698769 0.618824
vn 0.358858 0.698769 0.618824
vn -0.078417 0.023394 0.996646
vn -0.078417 0.023394 0.996646
vn -0.078417 0.023394 0.996646
vn -0.078417 0.023394 0.996646
vn -0.469965 -0.822794 -0.319598
vn -0.469965 -0.822794 -0.319598
vn -0.469965 -0.822794 -0.319598
vn -0.469965 -0.822794 -0.319598
vn -0.226193 -0.497313 -0.837566
vn -0.226193 -0.497313 -0.837566
vn -0.226193 -0.497313 -0.837566
vn -0.226193 -0.497313 -0.837566

vt -0.283445 -0.108592
vt -0.284479 -0.109152
vt -0.283914 -0.109380
vt -0.284270 -0.108259
vt -0.263589 -0.061143
vt -0.264439 -0.060331
vt -0.261847 -0.061347
vt -0.263022 -0.061365
vt -0.280642 -0.099244
vt -0.280137 -0.098182
vt -0.277693 -0.099154
vt -0.278054 -0.100272
vt -0.302538 -0.128678
vt -0.301377 -0.128861
vt -0.301048 -0.129007
vt -0.300136 -0.129747
vt -0.274669 -0.088919
vt -0.274453 -0.090074
vt -0.275280 -0.089748
vt -0.274334 -0.089050
vt 0.293085 -0.088878
vt 0.294250 -0.088713
vt 0.294766 -0.089769
vt 0.293921 -0.090587
vt 0.292883 -0.090036
vt -0.281172 -0.098267
vt -0.282318 -0.098530
vt -0.282922 -0.097522
vt -0.282150 -0.096635
vt -0.281068 -0.097096
vt -0.301735 -0.114757
vt -0.300798 -0.115460
vt -0.302288 -0.115585
vt -0.303196 -0.114845
vt -0.312904 -0.078239
vt -0.313292 -0.079348
vt -0.314793 -0.079432
vt -0.314400 -0.078324
vt 0.273936 -0.205217
vt 0.275106 -0.205315
vt 0.276558 -0.205543
vt 0.275385 -0.205613
vt 0.289501 -0.099449
vt 0.289857 -0.098330
vt 0.291311 -0.098452
vt 0.290965 -0.099573
vt 0.289718 -0.079933
vt 0.288762 -0.079250
vt 0.290223 -0.079369
vt 0.291172 -0.080061
vt -0.306830 0.053692
vt -0.306328 0.052629
vt -0.307547 0.053620
vt -0.308051 0.054682
vt -0.329038 -0.070449
vt -0.329435 -0.071555
vt -0.330863 -0.070909
vt -0.330469 -0.069802
vt -0.287898 0.049723
vt -0.289073 0.049736
vt -0.290402 0.050565
vt -0.289227 0.050554
vt 0.334226 -0.072843
vt 0.334476 -0.071695
vt 0.335896 -0.071029
vt 0.335643 -0.072177
vt 0.323577 -0.048302
vt 0.322631 -0.047605
vt 0.324053 -0.046938
vt 0.324998 -0.047637
vt -0.331495 -0.071003
vt -0.332517 -0.070421
vt -0.332318 -0.070576
vt -0.333130 -0.069726
vt 0.302236 -0.083585
vt 0.303016 -0.084464
vt 0.302402 -0.084823
vt 0.302019 -0.083712
vt -0.289764 -0.062514
vt -0.289174 -0.063532
vt -0.290324 -0.062863
vt -0.289148 -0.062873
vt 0.307695 -0.092192
vt 0.306547 -0.091941
vt 0.309174 -0.090388
vt 0.308840 -0.091515
vt 0.297073 -0.078902
vt 0.296958 -0.077733
vt 0.298751 -0.076689
vt 0.299711 -0.077367
vt -0.327578 0.001944
vt -0.328373 0.002809
vt -0.328468 0.004269
vt -0.327553 0.003533
vt -0.200444 -0.178283
vt -0.201120 -0.179245
vt -0.202162 -0.178258
vt -0.201511 -0.177280
vt 0.065645 0.093795
vt 0.065950 0.092660
vt 0.064789 0.093665
vt 0.064653 0.094833
vt 0.262407 -0.198438
vt 0.261275 -0.198127
vt 0.262249 -0.196809
vt 0.263347 -0.197225
vt 0.069264 -0.112889
vt 0.069291 -0.111714
vt 0.070611 -0.110828
vt 0.070643 -0.112003
vt -0.303622 -0.117553
vt -0.304690 -0.117060
vt -0.304330 -0.115534
vt -0.303262 -0.116025
vt -0.195536 -0.179530
vt -0.196202 -0.180498
vt -0.196168 -0.178929
vt -0.195499 -0.177962
vt 0.328957 -0.088480
vt 0.328434 -0.089533
vt 0.327949 -0.088038
vt 0.328475 -0.086987
vt 0.274559 -0.144474
vt 0.273418 -0.144191
vt 0.273167 -0.142639
vt 0.274307 -0.142922
vt -0.262022 -0.083157
vt -0.261851 -0.081994
vt -0.261194 -0.080569
vt -0.261357 -0.081733
vt -0.290919 -0.104731
vt -0.291998 -0.104263
vt -0.292714 -0.102983
vt -0.291636 -0.103451
vt -0.279277 -0.101381
vt -0.280046 -0.102270
vt -0.280779 -0.101000
vt -0.280010 -0.100111
vt 0.272800 0.034052
vt 0.272660 0.032885
vt 0.272760 0.034348
vt 0.272894 0.035516
vt 0.284771 -0.103695
vt 0.283625 -0.103432
vt 0.284351 -0.102159
vt 0.285497 -0.102422
vt 0.270146 -0.099787
vt 0.270052 -0.098615
vt 0.270793 -0.097350
vt 0.270886 -0.098522
vt -0.099260 0.258914
vt -0.098946 0.260047
vt -0.097867 0.261037
vt -0.098173 0.259902
vt -0.171898 -0.196699
vt -0.172534 -0.197687
vt -0.173926 -0.197237
vt -0.173291 -0.196248
vt -0.101266 0.021287
vt -0.100733 0.020240
vt -0.102138 0.020658
vt -0.102667 0.021707
vt 0.229578 -0.236831
vt 0.228480 -0.236411
vt 0.229797 -0.235761
vt 0.230894 -0.236185
vt 0.138584 -0.119820
vt 0.138575 -0.118644
vt 0.139987 -0.118241
vt 0.139997 -0.119416
vt -0.320477 0.035700
vt -0.321180 0.036642
vt -0.321313 0.038095
vt -0.320602 0.037158
vt -0.192044 -0.181083
vt -0.192713 -0.182050
vt -0.193946 -0.181270
vt -0.193277 -0.180303
vt -0.047074 0.047382
vt -0.046590 0.046311
vt -0.047843 0.047069
vt -0.048319 0.048144
vt 0.249333 -0.202096
vt 0.248209 -0.201753
vt 0.249337 -0.200816
vt 0.250460 -0.201162
vt 0.139262 -0.121221
vt 0.139255 -0.120046
vt 0.140531 -0.119330
vt 0.140542 -0.120505
s off
f 1/1/1 2/2/2 3/3/3
f 1/1/1 3/3/3 4/4/4
f 5/5/5 6/6/6 7/7/7
f 5/5/5 7/7/7 8/8/8
f 9/9/9 10/10/10 11/11/11
f 9/9/9 11/11/11 12/12/12
f 13/13/13 14/14/14 15/15/15
f 13/13/13 15/15/15 16/16/16
f 17/17/17 18/18/18 19/19/19
f 17/17/17 19/19/19 20/20/20
f 21/21/21 22/22/22 23/23/23
f 21/21/21 23/23/23 24/24/24
f 21/21/21 24/24/24 25/25/25
f 26/26/26 27/27/27 28/28/28
f 26/26/26 28/28/28 29/29/29
f 26/26/26 29/29/29 30/30/30
f 31/31/31 32/32/32 33/33/33
f 31/31/31 33/33/33 34/34/34
f 35/35/35 36/36/36 37/37/37
f 35/35/35 37/37/37 38/38/38
f 39/39/39 40/40/40 41/41/41
f 39/39/39 41/41/41 42/42/42
f 43/43/43 44/44/44 45/45/45
f 43/43/43 45/45/45 46/46/46
f 47/47/47 48/48/48 49/49/49
f 47/47/47 49/49/49 50/50/50
f 51/51/51 52/52/52 53/53/53
f 51/51/51 53/53/53 54/54/54
f 55/55/55 56/56/56 57/57/57
f 55/55/55 57/57/57 58/58/58
f 59/59/59 60/60/60 61/61/61
f 59/59/59 61/61/61 62/62/62
f 63/63/63 64/64/64 65/65/65
f 63/63/63 65/65/65 66/66/66
f 67/67/67 68/68/68 69/69/69
f 67/67/67 69/69/69 70/70/70
f 71/71/71 72/72/72 73/73/73
f 71/71/71 73/73/73 74/74/74
f 75/75/75 76/76/76 77/77/77
f 75/75/75 77/77/77 78/78/78
f 79/79/79 80/80/80 81/81/81
f 79/79/79 81/81/81 82/82/82
f 83/83/83 84/84/84 85/85/85
f 83/83/83 85/85/85 86/86/86
f 87/87/87 88/88/88 89/89/89
f 87/87/87 89/89/89 90/90/90
f 91/91/91 92/92/92 93/93/93
f 91/91/91 93/93/93 94/94/94
f 95/95/95 96/96/96 97/97/97
f 95/95/95 97/97/97 98/98/98
f 99/99/99 100/100/100 101/101/101
f 99/99/99 101/101/101 102/102/102
f 103/103/103 104/104/104 105/105/105
f 103/103/103 105/105/105 106/106/106
f 107/107/107 108/108/108 109/109/109
f 107/107/107 109/109/109 110/110/110
f 111/111/111 112/112/112 113/113/113
f 111/111/111 113/113/113 114/114/114
f 115/115/115 116/116/116 117/117/117
f 115/115/115 117/117/117 118/118/118
f 119/119/119 120/120/120 121/121/121
f 119/119/119 121/121/121 122/122/122
f 123/123/123 124/124/124 125/125/125
f 123/123/123 125/125/125 126/126/126
f 127/127/127 128/128/128 129/129/129
f 127/127/127 129/129/129 130/130/130
f 131/131/131 132/132/132 133/133/133
f 131/131/131 133/133/133 134/134/134
f 135/135/135 136/136/136 137/137/137
f 135/135/135 137/137/137 138/138/138
f 139/139/139 140/140/140 141/141/141
f 139/139/139 141/141/141 142/142/142
f 143/143/143 144/144/144 145/145/145
f 143/143/143 145/145/145 146/146/146
f 147/147/147 148/148/148 149/149/149
f 147/147/147 149/149/149 150/150/150
f 151/151/151 152/152/152 153/153/153
f 151/151/151 153/153/153 154/154/154
f 155/155/155 156/156/156 157/157/157
f 155/155/155 157/157/157 158/158/158
f 159/159/159 160/160/160 161/161/161
f 159/159/159 161/161/161 162/162/162
f 163/163/163 164/164/164 165/165/165
f 163/163/163 165/165/165 166/166/166
f 167/167/167 168/168/168 169/169/169
f 167/167/167 169/169/169 170/170/170
f 171/171/171 172/172/172 173/173/173
f 171/171/171 173/173/173 174/174/174
f 175/175/175 176/176/176 177/177/177
f 175/175/175 177/177/177 178/178/178
f 179/179/179 180/180/180 181/181/181
f 179/179/179 181/181/181 182/182/182
f 183/183/183 184/184/184 185/185/185
f 183/183/183 185/185/185 186/186/186
f 187/187/187 188/188/188 189/189/189
f 187/187/187 189/189/189 190/190/190
