# Exported using automatic converter by Erwin Coumans
mtllib model6.mtl
#object group1084661357_5

v -0.844955 1.301625 -1.549224
v -0.860491 1.301625 -1.549224
v -0.860491 0.377256 -1.549224
v -0.844955 0.377256 -1.549224
v -0.860491 0.377256 -1.564759
v -0.860491 1.301625 -1.564759
v -0.844955 1.301625 -1.564759
v -0.844955 0.377256 -1.564759
v -0.860491 0.377256 -1.549224
v -0.860491 0.377256 -1.564759
v -0.844955 0.377256 -1.564759
v -0.844955 0.377256 -1.549224
v -0.844955 1.301625 -1.564759
v -0.860491 1.301625 -1.564759
v -0.860491 1.301625 -1.549224
v -0.844955 1.301625 -1.549224
v -0.844955 0.377256 -1.564759
v -0.844955 1.301625 -1.564759
v -0.844955 1.301625 -1.549224
v -0.844955 0.377256 -1.549224
v -0.860491 1.301625 -1.549224
v -0.860491 1.301625 -1.564759
v -0.860491 0.377256 -1.564759
v -0.860491 0.377256 -1.549224
usemtl mat22

vn -0.000000 -0.000000 1.000000
vn -0.000000 -0.000000 1.000000
vn -0.000000 -0.000000 1.000000
vn -0.000000 -0.000000 1.000000
vn 0.000000 0.000000 -1.000000
vn 0.000000 0.000000 -1.000000
vn 0.000000 0.000000 -1.000000
vn 0.000000 0.000000 -1.000000
vn -0.000000 -1.000000 -0.000000
vn -0.000000 -1.000000 -0.000000
vn -0.000000 -1.000000 -0.000000
vn -0.000000 -1.000000 -0.000000
vn 0.000000 1.000000 0.000000
vn 0.000000 1.000000 0.000000
vn 0.000000 1.000000 0.000000
vn 0.000000 1.000000 0.000000
vn 1.000000 -0.000000 0.000000
vn 1.000000 -0.000000 0.000000
vn 1.000000 -0.000000 0.000000
vn 1.000000 -0.000000 0.000000
vn -1.000000 0.000000 -0.000000
vn -1.000000 0.000000 -0.000000
vn -1.000000 0.000000 -0.000000
vn -1.000000 0.000000 -0.000000

vt 0.211329 -0.023266
vt 0.212024 -0.024656
vt 0.129346 -0.065995
vt 0.128651 -0.064605
vt -0.129346 -0.065995
vt -0.212024 -0.024656
vt -0.211329 -0.023266
vt -0.128651 -0.064605
vt -0.101377 -0.087897
vt -0.102840 -0.087374
vt -0.102317 -0.085911
vt -0.100854 -0.086434
vt 0.102317 -0.085911
vt 0.102840 -0.087374
vt 0.101377 -0.087897
vt 0.100854 -0.086434
vt -0.004806 0.109336
vt 0.048922 0.184555
vt 0.050186 0.183652
vt -0.003542 0.108433
vt -0.050186 0.183652
vt -0.048922 0.184555
vt 0.004806 0.109336
vt 0.003542 0.108433
s off
f 1/1/1 2/2/2 3/3/3
f 1/1/1 3/3/3 4/4/4
f 5/5/5 6/6/6 7/7/7
f 5/5/5 7/7/7 8/8/8
f 9/9/9 10/10/10 11/11/11
f 9/9/9 11/11/11 12/12/12
f 13/13/13 14/14/14 15/15/15
f 13/13/13 15/15/15 16/16/16
f 17/17/17 18/18/18 19/19/19
f 17/17/17 19/19/19 20/20/20
f 21/21/21 22/22/22 23/23/23
f 21/21/21 23/23/23 24/24/24
