# Exported using automatic converter by Erwin Coumans
mtllib model6.mtl
#object mesh1185143258

v 0.648238 0.265489 0.999852
v 0.618238 0.265489 0.999852
v 0.618238 0.265489 0.969852
v 0.648238 0.265489 0.969852
v 0.618238 0.345489 0.969852
v 0.618238 0.345489 0.999852
v 0.648238 0.345489 0.999852
v 0.648238 0.345489 0.969852
v 0.618238 0.265489 0.969852
v 0.618238 0.345489 0.969852
v 0.648238 0.345489 0.969852
v 0.648238 0.265489 0.969852
v 0.648238 0.345489 0.999852
v 0.618238 0.345489 0.999852
v 0.618238 0.265489 0.999852
v 0.648238 0.265489 0.999852
v 0.648238 0.345489 0.969852
v 0.648238 0.345489 0.999852
v 0.648238 0.265489 0.999852
v 0.648238 0.265489 0.969852
v 0.618238 0.265489 0.999852
v 0.618238 0.345489 0.999852
v 0.618238 0.345489 0.969852
v 0.618238 0.265489 0.969852
usemtl mat15

vn 0.000000 -1.000000 0.000000
vn 0.000000 -1.000000 0.000000
vn 0.000000 -1.000000 0.000000
vn 0.000000 -1.000000 0.000000
vn -0.000000 1.000000 0.000000
vn -0.000000 1.000000 0.000000
vn -0.000000 1.000000 0.000000
vn -0.000000 1.000000 0.000000
vn 0.000000 0.000000 -1.000000
vn 0.000000 0.000000 -1.000000
vn 0.000000 0.000000 -1.000000
vn 0.000000 0.000000 -1.000000
vn 0.000000 -0.000000 1.000000
vn 0.000000 -0.000000 1.000000
vn 0.000000 -0.000000 1.000000
vn 0.000000 -0.000000 1.000000
vn 1.000000 0.000000 0.000000
vn 1.000000 0.000000 0.000000
vn 1.000000 0.000000 0.000000
vn 1.000000 0.000000 0.000000
vn -1.000000 -0.000000 -0.000000
vn -1.000000 -0.000000 -0.000000
vn -1.000000 -0.000000 -0.000000
vn -1.000000 -0.000000 -0.000000

vt 0.189425 -0.031548
vt 0.188416 -0.034374
vt 0.185590 -0.033365
vt 0.186599 -0.030539
vt -0.185590 -0.033365
vt -0.188416 -0.034374
vt -0.189425 -0.031548
vt -0.186599 -0.030539
vt -0.053218 0.061268
vt -0.060374 0.064846
vt -0.059032 0.067529
vt -0.051877 0.063952
vt 0.059032 0.067529
vt 0.060374 0.064846
vt 0.053218 0.061268
vt 0.051877 0.063952
vt 0.199597 -0.040570
vt 0.202038 -0.042314
vt 0.197388 -0.048824
vt 0.194947 -0.047080
vt -0.197388 -0.048824
vt -0.202038 -0.042314
vt -0.199597 -0.040570
vt -0.194947 -0.047080
s off
f 1/1/1 2/2/2 3/3/3
f 1/1/1 3/3/3 4/4/4
f 5/5/5 6/6/6 7/7/7
f 5/5/5 7/7/7 8/8/8
f 9/9/9 10/10/10 11/11/11
f 9/9/9 11/11/11 12/12/12
f 13/13/13 14/14/14 15/15/15
f 13/13/13 15/15/15 16/16/16
f 17/17/17 18/18/18 19/19/19
f 17/17/17 19/19/19 20/20/20
f 21/21/21 22/22/22 23/23/23
f 21/21/21 23/23/23 24/24/24
