# Exported using automatic converter by Erwin Coumans
mtllib model6.mtl
#object mesh1813396723

v -2.041762 -0.484511 -3.530148
v -2.041762 -0.484511 -3.500148
v -2.041762 -0.994511 -3.500148
v -2.041762 -0.994511 -3.530148
v -2.251762 -0.994511 -3.500148
v -2.251762 -0.484511 -3.500148
v -2.251762 -0.484511 -3.530148
v -2.251762 -0.994511 -3.530148
v -2.041762 -0.994511 -3.500148
v -2.251762 -0.994511 -3.500148
v -2.251762 -0.994511 -3.530148
v -2.041762 -0.994511 -3.530148
v -2.251762 -0.484511 -3.530148
v -2.251762 -0.484511 -3.500148
v -2.041762 -0.484511 -3.500148
v -2.041762 -0.484511 -3.530148
v -2.251762 -0.994511 -3.530148
v -2.251762 -0.484511 -3.530148
v -2.041762 -0.484511 -3.530148
v -2.041762 -0.994511 -3.530148
v -2.041762 -0.484511 -3.500148
v -2.251762 -0.484511 -3.500148
v -2.251762 -0.994511 -3.500148
v -2.041762 -0.994511 -3.500148
usemtl mat11

vn 1.000000 0.000000 0.000000
vn 1.000000 0.000000 0.000000
vn 1.000000 0.000000 0.000000
vn 1.000000 0.000000 0.000000
vn -1.000000 0.000000 0.000000
vn -1.000000 0.000000 0.000000
vn -1.000000 0.000000 0.000000
vn -1.000000 0.000000 0.000000
vn 0.000000 -1.000000 0.000000
vn 0.000000 -1.000000 0.000000
vn 0.000000 -1.000000 0.000000
vn 0.000000 -1.000000 0.000000
vn 0.000000 1.000000 0.000000
vn 0.000000 1.000000 0.000000
vn 0.000000 1.000000 0.000000
vn 0.000000 1.000000 0.000000
vn 0.000000 0.000000 -1.000000
vn 0.000000 0.000000 -1.000000
vn 0.000000 0.000000 -1.000000
vn 0.000000 0.000000 -1.000000
vn 0.000000 0.000000 1.000000
vn 0.000000 0.000000 1.000000
vn 0.000000 0.000000 1.000000
vn 0.000000 0.000000 1.000000

vt -0.214826 0.153447
vt -0.212384 0.151703
vt -0.242028 0.110203
vt -0.244469 0.111947
vt 0.242028 0.110203
vt 0.212384 0.151703
vt 0.214826 0.153447
vt 0.244469 0.111947
vt -0.324834 -0.133526
vt -0.331897 -0.153302
vt -0.334722 -0.152293
vt -0.327659 -0.132517
vt 0.334722 -0.152293
vt 0.331897 -0.153302
vt 0.324834 -0.133526
vt 0.327659 -0.132517
vt -0.068871 -0.251781
vt -0.114487 -0.228973
vt -0.105095 -0.210190
vt -0.059479 -0.232998
vt 0.105095 -0.210190
vt 0.114487 -0.228973
vt 0.068871 -0.251781
vt 0.059479 -0.232998
s off
f 1/1/1 2/2/2 3/3/3
f 1/1/1 3/3/3 4/4/4
f 5/5/5 6/6/6 7/7/7
f 5/5/5 7/7/7 8/8/8
f 9/9/9 10/10/10 11/11/11
f 9/9/9 11/11/11 12/12/12
f 13/13/13 14/14/14 15/15/15
f 13/13/13 15/15/15 16/16/16
f 17/17/17 18/18/18 19/19/19
f 17/17/17 19/19/19 20/20/20
f 21/21/21 22/22/22 23/23/23
f 21/21/21 23/23/23 24/24/24
