# Exported using automatic converter by Erwin Coumans
mtllib model6.mtl
#object mesh810692152

v -1.051762 -0.444511 2.359852
v -1.051762 -0.304511 2.359852
v -1.051762 -0.304511 2.339852
v -1.051762 -0.444511 2.339852
v 3.268238 -0.304511 2.339852
v 3.268238 -0.304511 2.359852
v 3.268238 -0.444511 2.359852
v 3.268238 -0.444511 2.339852
v -1.051762 -0.304511 2.339852
v 3.268238 -0.304511 2.339852
v 3.268238 -0.444511 2.339852
v -1.051762 -0.444511 2.339852
v 3.268238 -0.444511 2.359852
v 3.268238 -0.304511 2.359852
v -1.051762 -0.304511 2.359852
v -1.051762 -0.444511 2.359852
v 3.268238 -0.444511 2.339852
v 3.268238 -0.444511 2.359852
v -1.051762 -0.444511 2.359852
v -1.051762 -0.444511 2.339852
v -1.051762 -0.304511 2.359852
v 3.268238 -0.304511 2.359852
v 3.268238 -0.304511 2.339852
v -1.051762 -0.304511 2.339852
usemtl mat5

vn -1.000000 0.000000 0.000000
vn -1.000000 0.000000 0.000000
vn -1.000000 0.000000 0.000000
vn -1.000000 0.000000 0.000000
vn 1.000000 0.000000 0.000000
vn 1.000000 0.000000 0.000000
vn 1.000000 0.000000 0.000000
vn 1.000000 0.000000 0.000000
vn 0.000000 0.000000 -1.000000
vn 0.000000 0.000000 -1.000000
vn 0.000000 0.000000 -1.000000
vn 0.000000 0.000000 -1.000000
vn 0.000000 -0.000000 1.000000
vn 0.000000 -0.000000 1.000000
vn 0.000000 -0.000000 1.000000
vn 0.000000 -0.000000 1.000000
vn 0.000000 -1.000000 0.000000
vn 0.000000 -1.000000 0.000000
vn 0.000000 -1.000000 0.000000
vn 0.000000 -1.000000 0.000000
vn 0.000000 1.000000 -0.000000
vn 0.000000 1.000000 -0.000000
vn 0.000000 1.000000 -0.000000
vn 0.000000 1.000000 -0.000000

vt -0.266788 -0.185648
vt -0.274926 -0.174255
vt -0.273298 -0.173093
vt -0.265161 -0.184485
vt 0.273298 -0.173093
vt 0.274926 -0.174255
vt 0.266788 -0.185648
vt 0.265161 -0.184485
vt -0.076921 -0.113592
vt 0.116275 0.272800
vt 0.128798 0.266539
vt -0.064399 -0.119853
vt -0.128798 0.266539
vt -0.116275 0.272800
vt 0.076921 -0.113592
vt 0.064399 -0.119853
vt 0.403738 0.170119
vt 0.405622 0.169446
vt 0.260324 -0.237386
vt 0.258441 -0.236714
vt -0.260324 -0.237386
vt -0.405622 0.169446
vt -0.403738 0.170119
vt -0.258441 -0.236714
s off
f 1/1/1 2/2/2 3/3/3
f 1/1/1 3/3/3 4/4/4
f 5/5/5 6/6/6 7/7/7
f 5/5/5 7/7/7 8/8/8
f 9/9/9 10/10/10 11/11/11
f 9/9/9 11/11/11 12/12/12
f 13/13/13 14/14/14 15/15/15
f 13/13/13 15/15/15 16/16/16
f 17/17/17 18/18/18 19/19/19
f 17/17/17 19/19/19 20/20/20
f 21/21/21 22/22/22 23/23/23
f 21/21/21 23/23/23 24/24/24
