# Exported using automatic converter by Erwin Coumans
mtllib botlab.mtl
#object mesh488244054

v -2.011762 0.425489 -3.390148
v -2.011762 0.445489 -3.390148
v -2.011762 0.445489 -3.350148
v -2.011762 0.425489 -3.350148
v -2.121762 0.445489 -3.350148
v -2.121762 0.445489 -3.390148
v -2.121762 0.425489 -3.390148
v -2.121762 0.425489 -3.350148
v -2.011762 0.445489 -3.350148
v -2.121762 0.445489 -3.350148
v -2.121762 0.425489 -3.350148
v -2.011762 0.425489 -3.350148
v -2.121762 0.425489 -3.390148
v -2.121762 0.445489 -3.390148
v -2.011762 0.445489 -3.390148
v -2.011762 0.425489 -3.390148
v -2.121762 0.425489 -3.350148
v -2.121762 0.425489 -3.390148
v -2.011762 0.425489 -3.390148
v -2.011762 0.425489 -3.350148
v -2.011762 0.445489 -3.390148
v -2.121762 0.445489 -3.390148
v -2.121762 0.445489 -3.350148
v -2.011762 0.445489 -3.350148
usemtl mat23

vn 1.000000 0.000000 0.000000
vn 1.000000 0.000000 0.000000
vn 1.000000 0.000000 0.000000
vn 1.000000 0.000000 0.000000
vn -1.000000 0.000000 0.000000
vn -1.000000 0.000000 0.000000
vn -1.000000 0.000000 0.000000
vn -1.000000 0.000000 0.000000
vn 0.000000 0.000000 1.000000
vn 0.000000 0.000000 1.000000
vn 0.000000 0.000000 1.000000
vn 0.000000 0.000000 1.000000
vn 0.000000 -0.000000 -1.000000
vn 0.000000 -0.000000 -1.000000
vn 0.000000 -0.000000 -1.000000
vn 0.000000 -0.000000 -1.000000
vn 0.000000 -1.000000 0.000000
vn 0.000000 -1.000000 0.000000
vn 0.000000 -1.000000 0.000000
vn 0.000000 -1.000000 0.000000
vn 0.000000 1.000000 -0.000000
vn 0.000000 1.000000 -0.000000
vn 0.000000 1.000000 -0.000000
vn 0.000000 1.000000 -0.000000

vt -0.150541 0.219359
vt -0.149378 0.220987
vt -0.146123 0.218662
vt -0.147286 0.217034
vt 0.146123 0.218662
vt 0.149378 0.220987
vt 0.150541 0.219359
vt 0.147286 0.217034
vt 0.186935 -0.165916
vt 0.191855 -0.175755
vt 0.190066 -0.176649
vt 0.185146 -0.166811
vt -0.190066 -0.176649
vt -0.191855 -0.175755
vt -0.186935 -0.165916
vt -0.185146 -0.166811
vt -0.313398 -0.146105
vt -0.317165 -0.144759
vt -0.313466 -0.134400
vt -0.309698 -0.135745
vt 0.313466 -0.134400
vt 0.317165 -0.144759
vt 0.313398 -0.146105
vt 0.309698 -0.135745
s off
f 1/1/1 2/2/2 3/3/3
f 1/1/1 3/3/3 4/4/4
f 5/5/5 6/6/6 7/7/7
f 5/5/5 7/7/7 8/8/8
f 9/9/9 10/10/10 11/11/11
f 9/9/9 11/11/11 12/12/12
f 13/13/13 14/14/14 15/15/15
f 13/13/13 15/15/15 16/16/16
f 17/17/17 18/18/18 19/19/19
f 17/17/17 19/19/19 20/20/20
f 21/21/21 22/22/22 23/23/23
f 21/21/21 23/23/23 24/24/24
