# Exported using automatic converter by Erwin Coumans
mtllib model6.mtl
#object mesh1327901208

v 2.218238 2.025489 -0.580148
v 2.218238 2.045489 -0.580148
v 2.218238 2.045489 -0.560148
v 2.218238 2.025489 -0.560148
v 0.328238 2.045489 -0.560148
v 0.328238 2.045489 -0.580148
v 0.328238 2.025489 -0.580148
v 0.328238 2.025489 -0.560148
v 2.218238 2.045489 -0.560148
v 0.328238 2.045489 -0.560148
v 0.328238 2.025489 -0.560148
v 2.218238 2.025489 -0.560148
v 0.328238 2.025489 -0.580148
v 0.328238 2.045489 -0.580148
v 2.218238 2.045489 -0.580148
v 2.218238 2.025489 -0.580148
v 0.328238 2.025489 -0.560148
v 0.328238 2.025489 -0.580148
v 2.218238 2.025489 -0.580148
v 2.218238 2.025489 -0.560148
v 2.218238 2.045489 -0.580148
v 0.328238 2.045489 -0.580148
v 0.328238 2.045489 -0.560148
v 2.218238 2.045489 -0.560148
usemtl mat15

vn 1.000000 0.000000 0.000000
vn 1.000000 0.000000 0.000000
vn 1.000000 0.000000 0.000000
vn 1.000000 0.000000 0.000000
vn -1.000000 0.000000 0.000000
vn -1.000000 0.000000 0.000000
vn -1.000000 0.000000 0.000000
vn -1.000000 0.000000 0.000000
vn 0.000000 0.000000 1.000000
vn 0.000000 0.000000 1.000000
vn 0.000000 0.000000 1.000000
vn 0.000000 0.000000 1.000000
vn 0.000000 -0.000000 -1.000000
vn 0.000000 -0.000000 -1.000000
vn 0.000000 -0.000000 -1.000000
vn 0.000000 -0.000000 -1.000000
vn 0.000000 -1.000000 0.000000
vn 0.000000 -1.000000 0.000000
vn 0.000000 -1.000000 0.000000
vn 0.000000 -1.000000 0.000000
vn 0.000000 1.000000 -0.000000
vn 0.000000 1.000000 -0.000000
vn 0.000000 1.000000 -0.000000
vn 0.000000 1.000000 -0.000000

vt 0.171117 0.186229
vt 0.172279 0.187856
vt 0.173907 0.186694
vt 0.172744 0.185066
vt -0.173907 0.186694
vt -0.172279 0.187856
vt -0.171117 0.186229
vt -0.172744 0.185066
vt 0.140872 0.283981
vt 0.225396 0.114934
vt 0.223607 0.114040
vt 0.139083 0.283086
vt -0.223607 0.114040
vt -0.225396 0.114934
vt -0.140872 0.283981
vt -0.139083 0.283086
vt 0.031750 -0.009216
vt 0.029867 -0.008543
vt 0.093434 0.169446
vt 0.095318 0.168774
vt -0.093434 0.169446
vt -0.029867 -0.008543
vt -0.031750 -0.009216
vt -0.095318 0.168774
s off
f 1/1/1 2/2/2 3/3/3
f 1/1/1 3/3/3 4/4/4
f 5/5/5 6/6/6 7/7/7
f 5/5/5 7/7/7 8/8/8
f 9/9/9 10/10/10 11/11/11
f 9/9/9 11/11/11 12/12/12
f 13/13/13 14/14/14 15/15/15
f 13/13/13 15/15/15 16/16/16
f 17/17/17 18/18/18 19/19/19
f 17/17/17 19/19/19 20/20/20
f 21/21/21 22/22/22 23/23/23
f 21/21/21 23/23/23 24/24/24
