# Exported using automatic converter by Erwin Coumans
mtllib botlab.mtl
#object mesh1741737717

v 0.548238 0.255489 0.939852
v 0.548238 0.275489 0.939852
v 0.548238 0.275489 0.809852
v 0.548238 0.255489 0.809852
v 0.568238 0.275489 0.809852
v 0.568238 0.275489 0.939852
v 0.568238 0.255489 0.939852
v 0.568238 0.255489 0.809852
v 0.548238 0.275489 0.809852
v 0.568238 0.275489 0.809852
v 0.568238 0.255489 0.809852
v 0.548238 0.255489 0.809852
v 0.568238 0.255489 0.939852
v 0.568238 0.275489 0.939852
v 0.548238 0.275489 0.939852
v 0.548238 0.255489 0.939852
v 0.568238 0.255489 0.809852
v 0.568238 0.255489 0.939852
v 0.548238 0.255489 0.939852
v 0.548238 0.255489 0.809852
v 0.548238 0.275489 0.939852
v 0.568238 0.275489 0.939852
v 0.568238 0.275489 0.809852
v 0.548238 0.275489 0.809852
usemtl mat22

vn -1.000000 0.000000 0.000000
vn -1.000000 0.000000 0.000000
vn -1.000000 0.000000 0.000000
vn -1.000000 0.000000 0.000000
vn 1.000000 0.000000 0.000000
vn 1.000000 0.000000 0.000000
vn 1.000000 0.000000 0.000000
vn 1.000000 0.000000 0.000000
vn 0.000000 0.000000 -1.000000
vn 0.000000 0.000000 -1.000000
vn 0.000000 0.000000 -1.000000
vn 0.000000 0.000000 -1.000000
vn 0.000000 -0.000000 1.000000
vn 0.000000 -0.000000 1.000000
vn 0.000000 -0.000000 1.000000
vn 0.000000 -0.000000 1.000000
vn 0.000000 -1.000000 0.000000
vn 0.000000 -1.000000 0.000000
vn 0.000000 -1.000000 0.000000
vn 0.000000 -1.000000 0.000000
vn 0.000000 1.000000 -0.000000
vn 0.000000 1.000000 -0.000000
vn 0.000000 1.000000 -0.000000
vn 0.000000 1.000000 -0.000000

vt -0.191925 -0.046150
vt -0.193087 -0.044523
vt -0.182509 -0.036967
vt -0.181346 -0.038594
vt 0.182509 -0.036967
vt 0.193087 -0.044523
vt 0.191925 -0.046150
vt 0.181346 -0.038594
vt -0.057243 0.055454
vt -0.056349 0.057243
vt -0.054560 0.056349
vt -0.055455 0.054560
vt 0.054560 0.056349
vt 0.056349 0.057243
vt 0.057243 0.055454
vt 0.055455 0.054560
vt 0.168841 -0.032692
vt 0.181084 -0.037064
vt 0.180411 -0.038948
vt 0.168168 -0.034575
vt -0.180411 -0.038948
vt -0.181084 -0.037064
vt -0.168841 -0.032692
vt -0.168168 -0.034575
s off
f 1/1/1 2/2/2 3/3/3
f 1/1/1 3/3/3 4/4/4
f 5/5/5 6/6/6 7/7/7
f 5/5/5 7/7/7 8/8/8
f 9/9/9 10/10/10 11/11/11
f 9/9/9 11/11/11 12/12/12
f 13/13/13 14/14/14 15/15/15
f 13/13/13 15/15/15 16/16/16
f 17/17/17 18/18/18 19/19/19
f 17/17/17 19/19/19 20/20/20
f 21/21/21 22/22/22 23/23/23
f 21/21/21 23/23/23 24/24/24
