# Exported using automatic converter by Erwin Coumans
mtllib model6.mtl
#object group2014640840_1

v -2.420927 -0.988150 -0.348658
v -2.395525 -1.019376 -0.340120
v -2.360900 -1.033467 -0.322921
v -2.326331 -1.026647 -0.301668
v -2.301080 -1.000743 -0.282057
v -2.291913 -0.962697 -0.269341
v -2.301286 -0.922703 -0.266929
v -2.326689 -0.891477 -0.275467
v -2.361313 -0.877386 -0.292666
v -2.395882 -0.884206 -0.313919
v -2.421134 -0.910110 -0.333530
v -2.430300 -0.948156 -0.346246
v -2.251210 -1.014139 -0.507850
v -2.209800 -1.005969 -0.482391
v -2.230671 -1.013045 -0.446173
v -2.272081 -1.021215 -0.471631
v -2.168570 -0.929363 -0.443667
v -2.179798 -0.881454 -0.440777
v -2.200669 -0.888531 -0.404559
v -2.189440 -0.936440 -0.407448
v -2.251704 -0.827169 -0.471608
v -2.293115 -0.835339 -0.497066
v -2.313986 -0.842415 -0.460847
v -2.272575 -0.834246 -0.435389
v -2.276181 -0.899518 -0.599103
v -2.267376 -0.862970 -0.586889
v -2.243119 -0.838087 -0.568050
v -2.209913 -0.831536 -0.547635
v -2.176653 -0.845072 -0.531114
v -2.152251 -0.875067 -0.522912
v -2.143247 -0.913485 -0.525229
v -2.152053 -0.950033 -0.537444
v -2.176310 -0.974916 -0.556283
v -2.209517 -0.981467 -0.576698
v -2.242776 -0.967931 -0.593219
v -2.267178 -0.937936 -0.601421
usemtl mat21

vn -0.492279 -0.166897 0.854287
vn -0.492279 -0.166897 0.854287
vn -0.492279 -0.166897 0.854287
vn -0.492279 -0.166897 0.854287
vn -0.492279 -0.166897 0.854287
vn -0.492279 -0.166897 0.854287
vn -0.492279 -0.166897 0.854287
vn -0.492279 -0.166897 0.854287
vn -0.492279 -0.166897 0.854287
vn -0.492279 -0.166897 0.854287
vn -0.492279 -0.166897 0.854287
vn -0.492279 -0.166897 0.854287
vn 0.227788 -0.971944 -0.058628
vn 0.227788 -0.971944 -0.058628
vn 0.227788 -0.971944 -0.058628
vn 0.227788 -0.971944 -0.058628
vn 0.840100 0.165749 0.516487
vn 0.840100 0.165749 0.516487
vn 0.840100 0.165749 0.516487
vn 0.840100 0.165749 0.516487
vn -0.227793 0.971943 0.058625
vn -0.227793 0.971943 0.058625
vn -0.227793 0.971943 0.058625
vn -0.227793 0.971943 0.058625
vn 0.492279 0.166897 -0.854287
vn 0.492279 0.166897 -0.854287
vn 0.492279 0.166897 -0.854287
vn 0.492279 0.166897 -0.854287
vn 0.492279 0.166897 -0.854287
vn 0.492279 0.166897 -0.854287
vn 0.492279 0.166897 -0.854287
vn 0.492279 0.166897 -0.854287
vn 0.492279 0.166897 -0.854287
vn 0.492279 0.166897 -0.854287
vn 0.492279 0.166897 -0.854287
vn 0.492279 0.166897 -0.854287

vt 0.079730 -0.194598
vt 0.075708 -0.193729
vt 0.072659 -0.190965
vt 0.071401 -0.187048
vt 0.072270 -0.183025
vt 0.075033 -0.179977
vt 0.078951 -0.178718
vt 0.082973 -0.179587
vt 0.086022 -0.182351
vt 0.087280 -0.186268
vt 0.086411 -0.190290
vt 0.083648 -0.193339
vt -0.048752 -0.259452
vt -0.044975 -0.256285
vt -0.042251 -0.259534
vt -0.046029 -0.262701
vt 0.058818 -0.157622
vt 0.063577 -0.156340
vt 0.064680 -0.160434
vt 0.059920 -0.161716
vt 0.044975 -0.256285
vt 0.048752 -0.259452
vt 0.046028 -0.262701
vt 0.042251 -0.259534
vt -0.083183 -0.192760
vt -0.085837 -0.189831
vt -0.086672 -0.185968
vt -0.085463 -0.182204
vt -0.082535 -0.179550
vt -0.078671 -0.178715
vt -0.074908 -0.179924
vt -0.072253 -0.182852
vt -0.071418 -0.186716
vt -0.072627 -0.190479
vt -0.075556 -0.193134
vt -0.079419 -0.193969
s off
f 1/1/1 2/2/2 3/3/3
f 1/1/1 3/3/3 4/4/4
f 1/1/1 4/4/4 5/5/5
f 1/1/1 5/5/5 6/6/6
f 1/1/1 6/6/6 7/7/7
f 1/1/1 7/7/7 8/8/8
f 1/1/1 8/8/8 9/9/9
f 1/1/1 9/9/9 10/10/10
f 1/1/1 10/10/10 11/11/11
f 1/1/1 11/11/11 12/12/12
f 13/13/13 14/14/14 15/15/15
f 13/13/13 15/15/15 16/16/16
f 17/17/17 18/18/18 19/19/19
f 17/17/17 19/19/19 20/20/20
f 21/21/21 22/22/22 23/23/23
f 21/21/21 23/23/23 24/24/24
f 25/25/25 26/26/26 27/27/27
f 25/25/25 27/27/27 28/28/28
f 25/25/25 28/28/28 29/29/29
f 25/25/25 29/29/29 30/30/30
f 25/25/25 30/30/30 31/31/31
f 25/25/25 31/31/31 32/32/32
f 25/25/25 32/32/32 33/33/33
f 25/25/25 33/33/33 34/34/34
f 25/25/25 34/34/34 35/35/35
f 25/25/25 35/35/35 36/36/36
