# Exported using automatic converter by Erwin Coumans
mtllib model6.mtl
#object group974128616_3

v -2.022522 -0.924511 -3.140150
v -2.022522 -0.904511 -3.140150
v -1.332522 -0.904511 -3.140150
v -1.332522 -0.924511 -3.140150
v -1.332522 -0.904511 -2.960149
v -2.022522 -0.904511 -2.960150
v -2.022522 -0.924511 -2.960150
v -1.332522 -0.924511 -2.960149
v -1.332522 -0.904511 -3.140150
v -1.332522 -0.904511 -2.960149
v -1.332522 -0.924511 -2.960149
v -1.332522 -0.924511 -3.140150
v -2.022522 -0.924511 -2.960150
v -2.022522 -0.904511 -2.960150
v -2.022522 -0.904511 -3.140150
v -2.022522 -0.924511 -3.140150
v -1.332522 -0.924511 -2.960149
v -2.022522 -0.924511 -2.960150
v -2.022522 -0.924511 -3.140150
v -1.332522 -0.924511 -3.140150
v -2.022522 -0.904511 -3.140150
v -2.022522 -0.904511 -2.960150
v -1.332522 -0.904511 -2.960149
v -1.332522 -0.904511 -3.140150
usemtl mat17

vn 0.000000 0.000000 -1.000000
vn 0.000000 0.000000 -1.000000
vn 0.000000 0.000000 -1.000000
vn 0.000000 0.000000 -1.000000
vn -0.000000 0.000000 1.000000
vn -0.000000 0.000000 1.000000
vn -0.000000 0.000000 1.000000
vn -0.000000 0.000000 1.000000
vn 1.000000 0.000000 0.000000
vn 1.000000 0.000000 0.000000
vn 1.000000 0.000000 0.000000
vn 1.000000 0.000000 0.000000
vn -1.000000 -0.000000 -0.000000
vn -1.000000 -0.000000 -0.000000
vn -1.000000 -0.000000 -0.000000
vn -1.000000 -0.000000 -0.000000
vn 0.000000 -1.000000 0.000000
vn 0.000000 -1.000000 0.000000
vn 0.000000 -1.000000 0.000000
vn 0.000000 -1.000000 0.000000
vn 0.000000 1.000000 -0.000000
vn 0.000000 1.000000 -0.000000
vn 0.000000 1.000000 -0.000000
vn 0.000000 1.000000 -0.000000

vt -0.064880 -0.228147
vt -0.066669 -0.227252
vt -0.035811 -0.165537
vt -0.034022 -0.166432
vt 0.035811 -0.165537
vt 0.066669 -0.227252
vt 0.064880 -0.228147
vt 0.034022 -0.166432
vt -0.207502 0.096602
vt -0.192855 0.086140
vt -0.194017 0.084512
vt -0.208665 0.094974
vt 0.194017 0.084512
vt 0.192855 0.086140
vt 0.207502 0.096602
vt 0.208665 0.094974
vt -0.250125 -0.084896
vt -0.273333 -0.149876
vt -0.290284 -0.143822
vt -0.267077 -0.078842
vt 0.290284 -0.143822
vt 0.273333 -0.149876
vt 0.250125 -0.084896
vt 0.267077 -0.078842
s off
f 1/1/1 2/2/2 3/3/3
f 1/1/1 3/3/3 4/4/4
f 5/5/5 6/6/6 7/7/7
f 5/5/5 7/7/7 8/8/8
f 9/9/9 10/10/10 11/11/11
f 9/9/9 11/11/11 12/12/12
f 13/13/13 14/14/14 15/15/15
f 13/13/13 15/15/15 16/16/16
f 17/17/17 18/18/18 19/19/19
f 17/17/17 19/19/19 20/20/20
f 21/21/21 22/22/22 23/23/23
f 21/21/21 23/23/23 24/24/24
