# Exported using automatic converter by Erwin Coumans
mtllib model6.mtl
#object mesh1482331206

v -2.384209 -0.538039 1.220581
v -2.382902 -0.508076 1.219890
v -2.384540 -0.508695 1.189942
v -2.385847 -0.538658 1.190632
v -2.294760 -0.512723 1.185114
v -2.293122 -0.512104 1.215063
v -2.294429 -0.542067 1.215754
v -2.296067 -0.542687 1.185805
v -2.384540 -0.508695 1.189942
v -2.294760 -0.512723 1.185114
v -2.296067 -0.542687 1.185805
v -2.385847 -0.538658 1.190632
v -2.294429 -0.542067 1.215754
v -2.293122 -0.512104 1.215063
v -2.382902 -0.508076 1.219890
v -2.384209 -0.538039 1.220581
v -2.296067 -0.542687 1.185805
v -2.294429 -0.542067 1.215754
v -2.384209 -0.538039 1.220581
v -2.385847 -0.538658 1.190632
v -2.382902 -0.508076 1.219890
v -2.293122 -0.512104 1.215063
v -2.294760 -0.512723 1.185114
v -2.384540 -0.508695 1.189942
v -2.250993 -0.556564 1.103490
v -2.249686 -0.526600 1.102799
v -2.279613 -0.525257 1.104408
v -2.280920 -0.555221 1.105099
v -2.283435 -0.526702 1.034527
v -2.253509 -0.528045 1.032918
v -2.254816 -0.558008 1.033609
v -2.284742 -0.556666 1.035218
v -2.279613 -0.525257 1.104408
v -2.283435 -0.526702 1.034527
v -2.284742 -0.556666 1.035218
v -2.280920 -0.555221 1.105099
v -2.254816 -0.558008 1.033609
v -2.253509 -0.528045 1.032918
v -2.249686 -0.526600 1.102799
v -2.250993 -0.556564 1.103490
v -2.284742 -0.556666 1.035218
v -2.254816 -0.558008 1.033609
v -2.250993 -0.556564 1.103490
v -2.280920 -0.555221 1.105099
v -2.249686 -0.526600 1.102799
v -2.253509 -0.528045 1.032918
v -2.283435 -0.526702 1.034527
v -2.279613 -0.525257 1.104408
v -2.264792 -0.433722 1.070150
v -2.265173 -0.427938 1.078298
v -2.279003 -0.588614 1.190808
v -2.278623 -0.594397 1.182660
v -2.428540 -0.583502 1.180196
v -2.414709 -0.422827 1.067686
v -2.414329 -0.428610 1.059538
v -2.428159 -0.589286 1.172047
v -2.279003 -0.588614 1.190808
v -2.428540 -0.583502 1.180196
v -2.428159 -0.589286 1.172047
v -2.278623 -0.594397 1.182660
v -2.414329 -0.428610 1.059538
v -2.414709 -0.422827 1.067686
v -2.265173 -0.427938 1.078298
v -2.264792 -0.433722 1.070150
v -2.428159 -0.589286 1.172047
v -2.414329 -0.428610 1.059538
v -2.264792 -0.433722 1.070150
v -2.278623 -0.594397 1.182660
v -2.265173 -0.427938 1.078298
v -2.414709 -0.422827 1.067686
v -2.428540 -0.583502 1.180196
v -2.279003 -0.588614 1.190808
v -2.293492 -0.449624 0.983262
v -2.293535 -0.427586 0.978516
v -2.303338 -0.634464 1.052712
v -2.302015 -0.637866 1.043403
v -2.451868 -0.634939 1.031765
v -2.443345 -0.446697 0.971624
v -2.442021 -0.450098 0.962315
v -2.450544 -0.638340 1.022455
v -2.303338 -0.634464 1.052712
v -2.451868 -0.634939 1.031765
v -2.450544 -0.638340 1.022455
v -2.302015 -0.637866 1.043403
v -2.442021 -0.450098 0.962315
v -2.443345 -0.446697 0.971624
v -2.293535 -0.427586 0.978516
v -2.450544 -0.638340 1.022455
v -2.442021 -0.450098 0.962315
v -2.293492 -0.449624 0.983262
v -2.302015 -0.637866 1.043403
v -2.293535 -0.427586 0.978516
v -2.451868 -0.634939 1.031765
v -2.303338 -0.634464 1.052712
v -2.293535 -0.427586 0.978516
v -2.293492 -0.449624 0.983262
v -2.442021 -0.450098 0.962315
v -2.293535 -0.427586 0.978516
v -2.443345 -0.446697 0.971624
v -2.451868 -0.634939 1.031765
usemtl mat21

vn -0.997557 0.044756 0.053639
vn -0.997557 0.044756 0.053639
vn -0.997557 0.044756 0.053639
vn -0.997557 0.044756 0.053639
vn 0.997557 -0.044756 -0.053639
vn 0.997557 -0.044756 -0.053639
vn 0.997557 -0.044756 -0.053639
vn 0.997557 -0.044756 -0.053639
vn -0.054605 -0.020641 -0.998295
vn -0.054605 -0.020641 -0.998295
vn -0.054605 -0.020641 -0.998295
vn -0.054605 -0.020641 -0.998295
vn 0.054605 0.020641 0.998295
vn 0.054605 0.020641 0.998295
vn 0.054605 0.020641 0.998295
vn 0.054605 0.020641 0.998295
vn -0.043573 -0.998785 0.023035
vn -0.043573 -0.998785 0.023035
vn -0.043573 -0.998785 0.023035
vn -0.043573 -0.998785 0.023035
vn 0.043573 0.998785 -0.023035
vn 0.043573 0.998785 -0.023035
vn 0.043573 0.998785 -0.023035
vn 0.043573 0.998785 -0.023035
vn 0.054605 0.020641 0.998295
vn 0.054605 0.020641 0.998295
vn 0.054605 0.020641 0.998295
vn 0.054605 0.020641 0.998295
vn -0.054605 -0.020641 -0.998295
vn -0.054605 -0.020641 -0.998295
vn -0.054605 -0.020641 -0.998295
vn -0.054605 -0.020641 -0.998295
vn -0.997557 0.044756 0.053639
vn -0.997557 0.044756 0.053639
vn -0.997557 0.044756 0.053639
vn -0.997557 0.044756 0.053639
vn 0.997557 -0.044756 -0.053639
vn 0.997557 -0.044756 -0.053639
vn 0.997557 -0.044756 -0.053639
vn 0.997557 -0.044756 -0.053639
vn -0.043573 -0.998785 0.023035
vn -0.043573 -0.998785 0.023035
vn -0.043573 -0.998785 0.023035
vn -0.043573 -0.998785 0.023035
vn 0.043573 0.998785 -0.023035
vn 0.043573 0.998785 -0.023035
vn 0.043573 0.998785 -0.023035
vn 0.043573 0.998785 -0.023035
vn 0.996787 -0.035540 0.071779
vn 0.996787 -0.035540 0.071779
vn 0.996787 -0.035540 0.071779
vn 0.996787 -0.035540 0.071779
vn -0.996788 0.035555 -0.071756
vn -0.996788 0.035555 -0.071756
vn -0.996788 0.035555 -0.071756
vn -0.996788 0.035555 -0.071756
vn -0.068688 -0.815054 0.575298
vn -0.068688 -0.815054 0.575298
vn -0.068688 -0.815054 0.575298
vn -0.068688 -0.815054 0.575298
vn 0.068688 0.815054 -0.575298
vn 0.068688 0.815054 -0.575298
vn 0.068688 0.815054 -0.575298
vn 0.068688 0.815054 -0.575298
vn 0.038310 -0.575378 -0.816990
vn 0.038310 -0.575378 -0.816990
vn 0.038310 -0.575378 -0.816990
vn 0.038310 -0.575378 -0.816990
vn -0.038311 0.575377 0.816991
vn -0.038311 0.575377 0.816991
vn -0.038311 0.575377 0.816991
vn -0.038311 0.575377 0.816991
vn 0.990196 0.003164 0.139650
vn 0.990196 0.003164 0.139650
vn 0.990196 0.003164 0.139650
vn 0.990196 0.003164 0.139650
vn -0.990047 -0.000139 -0.140737
vn -0.990047 -0.000139 -0.140737
vn -0.990047 -0.000139 -0.140737
vn -0.990047 -0.000139 -0.140737
vn -0.044560 -0.940357 0.337258
vn -0.044560 -0.940357 0.337258
vn -0.044560 -0.940357 0.337258
vn -0.044560 -0.940357 0.337258
vn -0.102289 0.929562 -0.354191
vn -0.102289 0.929562 -0.354191
vn -0.102289 0.929562 -0.354191
vn 0.133865 -0.307087 -0.942220
vn 0.133865 -0.307087 -0.942220
vn 0.133865 -0.307087 -0.942220
vn 0.133865 -0.307087 -0.942220
vn -0.132388 0.340175 0.930997
vn -0.132388 0.340175 0.930997
vn -0.132388 0.340175 0.930997
vn 0.137240 -0.208309 -0.968387
vn 0.137240 -0.208309 -0.968387
vn 0.137240 -0.208309 -0.968387
vn -0.082742 0.306685 0.948208
vn -0.082742 0.306685 0.948208
vn -0.082742 0.306685 0.948208

vt -0.162900 -0.111004
vt -0.164303 -0.108352
vt -0.161651 -0.106949
vt -0.160249 -0.109601
vt 0.161651 -0.106949
vt 0.164303 -0.108352
vt 0.162900 -0.111004
vt 0.160249 -0.109601
vt -0.119025 -0.253784
vt -0.114662 -0.245913
vt -0.112038 -0.247367
vt -0.116402 -0.255239
vt 0.112038 -0.247367
vt 0.114662 -0.245913
vt 0.119025 -0.253784
vt 0.116402 -0.255239
vt 0.108934 -0.314016
vt 0.111812 -0.314860
vt 0.109280 -0.323496
vt 0.106401 -0.322652
vt -0.109280 -0.323496
vt -0.111812 -0.314860
vt -0.108934 -0.314016
vt -0.106401 -0.322652
vt 0.108739 -0.243479
vt 0.111363 -0.242025
vt 0.112818 -0.244649
vt 0.110194 -0.246103
vt -0.112818 -0.244649
vt -0.111363 -0.242025
vt -0.108739 -0.243479
vt -0.110194 -0.246103
vt -0.154112 -0.104092
vt -0.147925 -0.100818
vt -0.146522 -0.103470
vt -0.152709 -0.106744
vt 0.146522 -0.103470
vt 0.147925 -0.100818
vt 0.154112 -0.104092
vt 0.152709 -0.106744
vt 0.095103 -0.307875
vt 0.095947 -0.304996
vt 0.102664 -0.306966
vt 0.101820 -0.309845
vt -0.102664 -0.306966
vt -0.095947 -0.304996
vt -0.095103 -0.307875
vt -0.101820 -0.309845
vt 0.164791 -0.136581
vt 0.165789 -0.136639
vt 0.164571 -0.156265
vt 0.163572 -0.156207
vt -0.164568 -0.156285
vt -0.165786 -0.136659
vt -0.164787 -0.136601
vt -0.163570 -0.156227
vt 0.163106 -0.249877
vt 0.162480 -0.264864
vt 0.161481 -0.264822
vt 0.162107 -0.249835
vt -0.161555 -0.264790
vt -0.162554 -0.264832
vt -0.163180 -0.249845
vt -0.162181 -0.249803
vt -0.031537 -0.294303
vt -0.047520 -0.282849
vt -0.038804 -0.270641
vt -0.022821 -0.282095
vt 0.038807 -0.270638
vt 0.047523 -0.282846
vt 0.031540 -0.294301
vt 0.022824 -0.282093
vt 0.160426 -0.153276
vt 0.161646 -0.151381
vt 0.152384 -0.171337
vt 0.151477 -0.170916
vt -0.152362 -0.171780
vt -0.161280 -0.154124
vt -0.160372 -0.153705
vt -0.151454 -0.171361
vt 0.131598 -0.283775
vt 0.127118 -0.298090
vt 0.126163 -0.297792
vt 0.130644 -0.283476
vt -0.131603 -0.302444
vt -0.132564 -0.302721
vt -0.136072 -0.288015
vt -0.066304 -0.251812
vt -0.082755 -0.240829
vt -0.074466 -0.228327
vt -0.058015 -0.239310
vt 0.072016 -0.230671
vt 0.062163 -0.255408
vt 0.053776 -0.242971
vt -0.088957 -0.217419
vt -0.087013 -0.218560
vt -0.094965 -0.231278
vt 0.080546 -0.236582
vt 0.086871 -0.250314
vt 0.070341 -0.261176
s off
f 1/1/1 2/2/2 3/3/3
f 1/1/1 3/3/3 4/4/4
f 5/5/5 6/6/6 7/7/7
f 5/5/5 7/7/7 8/8/8
f 9/9/9 10/10/10 11/11/11
f 9/9/9 11/11/11 12/12/12
f 13/13/13 14/14/14 15/15/15
f 13/13/13 15/15/15 16/16/16
f 17/17/17 18/18/18 19/19/19
f 17/17/17 19/19/19 20/20/20
f 21/21/21 22/22/22 23/23/23
f 21/21/21 23/23/23 24/24/24
f 25/25/25 26/26/26 27/27/27
f 25/25/25 27/27/27 28/28/28
f 29/29/29 30/30/30 31/31/31
f 29/29/29 31/31/31 32/32/32
f 33/33/33 34/34/34 35/35/35
f 33/33/33 35/35/35 36/36/36
f 37/37/37 38/38/38 39/39/39
f 37/37/37 39/39/39 40/40/40
f 41/41/41 42/42/42 43/43/43
f 41/41/41 43/43/43 44/44/44
f 45/45/45 46/46/46 47/47/47
f 45/45/45 47/47/47 48/48/48
f 49/49/49 50/50/50 51/51/51
f 49/49/49 51/51/51 52/52/52
f 53/53/53 54/54/54 55/55/55
f 53/53/53 55/55/55 56/56/56
f 57/57/57 58/58/58 59/59/59
f 57/57/57 59/59/59 60/60/60
f 61/61/61 62/62/62 63/63/63
f 61/61/61 63/63/63 64/64/64
f 65/65/65 66/66/66 67/67/67
f 65/65/65 67/67/67 68/68/68
f 69/69/69 70/70/70 71/71/71
f 69/69/69 71/71/71 72/72/72
f 73/73/73 74/74/74 75/75/75
f 73/73/73 75/75/75 76/76/76
f 77/77/77 78/78/78 79/79/79
f 77/77/77 79/79/79 80/80/80
f 81/81/81 82/82/82 83/83/83
f 81/81/81 83/83/83 84/84/84
f 85/85/85 86/86/86 87/87/87
f 88/88/88 89/89/89 90/90/90
f 88/88/88 90/90/90 91/91/91
f 92/92/92 93/93/93 94/94/94
f 95/95/95 96/96/96 97/97/97
f 98/98/98 99/99/99 100/100/100
