# Exported using automatic converter by Erwin Coumans
mtllib model6.mtl
#object mesh1712014988

v 0.917299 -0.635535 2.588768
v 0.909349 -0.643682 2.591706
v 0.923328 -0.644567 2.604539
v 0.931227 -0.636349 2.601664
v 0.909349 -0.643682 2.591706
v 0.913261 -0.649294 2.601266
v 0.927206 -0.650131 2.614141
v 0.923328 -0.644567 2.604539
v 0.913261 -0.649294 2.601266
v 0.923628 -0.644615 2.604238
v 0.937501 -0.645352 2.617200
v 0.927206 -0.650131 2.614141
v 0.923628 -0.644615 2.604238
v 0.926124 -0.636112 2.596514
v 0.939987 -0.636834 2.609489
v 0.937501 -0.645352 2.617200
v 0.926124 -0.636112 2.596514
v 0.917299 -0.635535 2.588768
v 0.931227 -0.636349 2.601664
v 0.939987 -0.636834 2.609489
v 0.926124 -0.636112 2.596514
v 0.923628 -0.644615 2.604238
v 0.913261 -0.649294 2.601266
v 0.909349 -0.643682 2.591706
v 0.917299 -0.635535 2.588768
v 0.955269 -0.637141 2.651589
v 0.950836 -0.645597 2.658449
v 0.941507 -0.650198 2.652974
v 0.940173 -0.644587 2.642730
v 0.948679 -0.636517 2.641874
v 0.941951 -0.638149 2.626889
v 0.939465 -0.646665 2.634601
v 0.937501 -0.645352 2.617200
v 0.939987 -0.636834 2.609489
v 0.939465 -0.646665 2.634601
v 0.929154 -0.651424 2.631560
v 0.927206 -0.650131 2.614141
v 0.937501 -0.645352 2.617200
v 0.929154 -0.651424 2.631560
v 0.925268 -0.645848 2.621968
v 0.923328 -0.644567 2.604539
v 0.927206 -0.650131 2.614141
v 0.925268 -0.645848 2.621968
v 0.933178 -0.637644 2.619081
v 0.931227 -0.636349 2.601664
v 0.923328 -0.644567 2.604539
v 0.933178 -0.637644 2.619081
v 0.941951 -0.638149 2.626889
v 0.939987 -0.636834 2.609489
v 0.931227 -0.636349 2.601664
v 0.948210 -0.636484 2.641338
v 0.945715 -0.644988 2.649062
v 0.939465 -0.646665 2.634601
v 0.941951 -0.638149 2.626889
v 0.945715 -0.644988 2.649062
v 0.935413 -0.649758 2.646010
v 0.929154 -0.651424 2.631560
v 0.939465 -0.646665 2.634601
v 0.935413 -0.649758 2.646010
v 0.931541 -0.644202 2.636401
v 0.925268 -0.645848 2.621968
v 0.929154 -0.651424 2.631560
v 0.931541 -0.644202 2.636401
v 0.939450 -0.635998 2.633514
v 0.933178 -0.637644 2.619081
v 0.925268 -0.645848 2.621968
v 0.939450 -0.635998 2.633514
v 0.948210 -0.636484 2.641338
v 0.941951 -0.638149 2.626889
v 0.933178 -0.637644 2.619081
v 0.948679 -0.636517 2.641874
v 0.940173 -0.644587 2.642730
v 0.945715 -0.644988 2.649062
v 0.948210 -0.636484 2.641338
v 0.940173 -0.644587 2.642730
v 0.941507 -0.650198 2.652974
v 0.935413 -0.649758 2.646010
v 0.945715 -0.644988 2.649062
v 0.941507 -0.650198 2.652974
v 0.950836 -0.645597 2.658449
v 0.931541 -0.644202 2.636401
v 0.935413 -0.649758 2.646010
v 0.950836 -0.645597 2.658449
v 0.955269 -0.637141 2.651589
v 0.939450 -0.635998 2.633514
v 0.931541 -0.644202 2.636401
v 0.955269 -0.637141 2.651589
v 0.948679 -0.636517 2.641874
v 0.948210 -0.636484 2.641338
v 0.939450 -0.635998 2.633514
usemtl mat20

vn -0.481962 0.668101 0.566881
vn -0.481962 0.668101 0.566881
vn -0.481962 0.668101 0.566881
vn -0.481962 0.668101 0.566881
vn -0.493082 0.649256 0.579083
vn -0.493082 0.649256 0.579083
vn -0.493082 0.649256 0.579083
vn -0.493082 0.649256 0.579083
vn 0.474798 -0.684746 -0.552893
vn 0.474798 -0.684746 -0.552893
vn 0.474798 -0.684746 -0.552893
vn 0.474798 -0.684746 -0.552893
vn 0.495187 -0.658665 -0.566526
vn 0.495187 -0.658665 -0.566526
vn 0.495187 -0.658665 -0.566526
vn 0.495187 -0.658665 -0.566526
vn 0.157608 0.981236 -0.111063
vn 0.157608 0.981236 -0.111063
vn 0.157608 0.981236 -0.111063
vn 0.157608 0.981236 -0.111063
vn 0.467181 -0.665690 -0.581892
vn 0.467181 -0.665690 -0.581892
vn 0.467181 -0.665690 -0.581892
vn 0.467181 -0.665690 -0.581892
vn 0.467181 -0.665690 -0.581892
vn 0.592412 -0.671590 -0.444988
vn 0.592412 -0.671590 -0.444988
vn 0.592412 -0.671590 -0.444988
vn 0.592412 -0.671590 -0.444988
vn 0.592412 -0.671590 -0.444988
vn 0.912897 -0.386181 -0.132228
vn 0.912897 -0.386181 -0.132228
vn 0.912897 -0.386181 -0.132228
vn 0.912897 -0.386181 -0.132228
vn 0.445382 -0.887730 -0.116489
vn 0.445382 -0.887730 -0.116489
vn 0.445382 -0.887730 -0.116489
vn 0.445382 -0.887730 -0.116489
vn -0.864183 -0.499642 0.059547
vn -0.864183 -0.499642 0.059547
vn -0.864183 -0.499642 0.059547
vn -0.864183 -0.499642 0.059547
vn -0.691233 0.710892 0.129729
vn -0.691233 0.710892 0.129729
vn -0.691233 0.710892 0.129729
vn -0.691233 0.710892 0.129729
vn -0.011471 0.997040 0.076024
vn -0.011471 0.997040 0.076024
vn -0.011471 0.997040 0.076024
vn -0.011471 0.997040 0.076024
vn 0.812494 -0.503810 -0.293306
vn 0.812494 -0.503810 -0.293306
vn 0.812494 -0.503810 -0.293306
vn 0.812494 -0.503810 -0.293306
vn 0.438987 -0.894318 -0.086523
vn 0.438987 -0.894318 -0.086523
vn 0.438987 -0.894318 -0.086523
vn 0.438987 -0.894318 -0.086523
vn -0.918310 0.039476 0.393888
vn -0.918310 0.039476 0.393888
vn -0.918310 0.039476 0.393888
vn -0.918310 0.039476 0.393888
vn -0.666564 0.715818 0.208078
vn -0.666564 0.715818 0.208078
vn -0.666564 0.715818 0.208078
vn -0.666564 0.715818 0.208078
vn 0.244736 0.945550 -0.214568
vn 0.244736 0.945550 -0.214568
vn 0.244736 0.945550 -0.214568
vn 0.244736 0.945550 -0.214568
vn -0.556208 0.642199 0.527460
vn -0.556208 0.642199 0.527460
vn -0.556208 0.642199 0.527460
vn -0.556208 0.642199 0.527460
vn 0.000000 0.000000 0.000000
vn 0.000000 0.000000 0.000000
vn 0.000000 0.000000 0.000000
vn 0.000000 0.000000 0.000000
vn -0.607256 0.556899 0.566660
vn -0.607256 0.556899 0.566660
vn -0.607256 0.556899 0.566660
vn -0.607256 0.556899 0.566660
vn -0.526359 0.684813 0.503962
vn -0.526359 0.684813 0.503962
vn -0.526359 0.684813 0.503962
vn -0.526359 0.684813 0.503962
vn -0.004895 0.997715 0.067387
vn -0.004895 0.997715 0.067387
vn -0.004895 0.997715 0.067387
vn -0.004895 0.997715 0.067387

vt -0.316039 -0.013940
vt -0.316194 -0.015105
vt -0.317919 -0.014307
vt -0.317764 -0.013142
vt -0.314420 -0.010373
vt -0.315577 -0.010582
vt -0.317298 -0.009778
vt -0.316141 -0.009569
vt 0.319429 -0.019486
vt 0.319992 -0.018454
vt 0.321720 -0.017664
vt 0.321156 -0.018695
vt 0.318390 -0.012096
vt 0.317580 -0.011243
vt 0.319306 -0.010447
vt 0.320115 -0.011300
vt -0.349156 -0.042213
vt -0.348151 -0.042822
vt -0.349802 -0.041882
vt -0.350813 -0.041283
vt 0.313979 -0.012671
vt 0.314795 -0.013518
vt 0.314241 -0.014555
vt 0.313084 -0.014350
vt 0.312922 -0.013185
vt 0.342768 -0.021970
vt 0.343366 -0.022982
vt 0.342588 -0.023864
vt 0.341510 -0.023396
vt 0.341621 -0.022226
vt 0.344795 -0.093623
vt 0.345284 -0.094693
vt 0.343617 -0.094140
vt 0.343128 -0.093071
vt 0.353308 -0.060475
vt 0.352673 -0.061465
vt 0.350966 -0.061045
vt 0.351603 -0.060057
vt 0.124824 -0.334641
vt 0.123946 -0.333859
vt 0.123347 -0.332206
vt 0.124224 -0.332989
vt -0.350383 -0.067643
vt -0.350422 -0.066468
vt -0.348722 -0.066025
vt -0.348682 -0.067200
vt -0.349708 -0.069835
vt -0.350756 -0.069304
vt -0.349060 -0.068850
vt -0.348011 -0.069379
vt 0.354057 -0.041887
vt 0.354703 -0.042869
vt 0.353131 -0.043069
vt 0.352486 -0.042086
vt 0.354668 -0.060455
vt 0.354031 -0.061444
vt 0.352456 -0.061608
vt 0.353092 -0.060619
vt -0.349526 0.022702
vt -0.348430 0.023129
vt -0.346888 0.022775
vt -0.347982 0.022346
vt -0.353247 -0.057496
vt -0.353253 -0.056321
vt -0.351680 -0.056495
vt -0.351675 -0.057671
vt -0.350231 -0.012900
vt -0.351203 -0.012239
vt -0.349635 -0.012461
vt -0.348665 -0.013125
vt -0.330368 -0.009157
vt -0.330300 -0.010331
vt -0.331094 -0.010049
vt -0.330301 -0.009181
vt 0.000000 0.000000
vt 0.000000 0.000000
vt 0.000000 0.000000
vt 0.000000 0.000000
vt -0.326032 0.009385
vt -0.326758 0.010310
vt -0.324010 0.009285
vt -0.325164 0.009062
vt -0.334638 -0.019509
vt -0.334013 -0.018514
vt -0.331741 -0.019301
vt -0.331867 -0.020470
vt -0.353752 -0.068180
vt -0.352606 -0.068441
vt -0.352539 -0.068466
vt -0.351491 -0.068998
s off
f 1/1/1 2/2/2 3/3/3
f 1/1/1 3/3/3 4/4/4
f 5/5/5 6/6/6 7/7/7
f 5/5/5 7/7/7 8/8/8
f 9/9/9 10/10/10 11/11/11
f 9/9/9 11/11/11 12/12/12
f 13/13/13 14/14/14 15/15/15
f 13/13/13 15/15/15 16/16/16
f 17/17/17 18/18/18 19/19/19
f 17/17/17 19/19/19 20/20/20
f 21/21/21 22/22/22 23/23/23
f 21/21/21 23/23/23 24/24/24
f 21/21/21 24/24/24 25/25/25
f 26/26/26 27/27/27 28/28/28
f 26/26/26 28/28/28 29/29/29
f 26/26/26 29/29/29 30/30/30
f 31/31/31 32/32/32 33/33/33
f 31/31/31 33/33/33 34/34/34
f 35/35/35 36/36/36 37/37/37
f 35/35/35 37/37/37 38/38/38
f 39/39/39 40/40/40 41/41/41
f 39/39/39 41/41/41 42/42/42
f 43/43/43 44/44/44 45/45/45
f 43/43/43 45/45/45 46/46/46
f 47/47/47 48/48/48 49/49/49
f 47/47/47 49/49/49 50/50/50
f 51/51/51 52/52/52 53/53/53
f 51/51/51 53/53/53 54/54/54
f 55/55/55 56/56/56 57/57/57
f 55/55/55 57/57/57 58/58/58
f 59/59/59 60/60/60 61/61/61
f 59/59/59 61/61/61 62/62/62
f 63/63/63 64/64/64 65/65/65
f 63/63/63 65/65/65 66/66/66
f 67/67/67 68/68/68 69/69/69
f 67/67/67 69/69/69 70/70/70
f 71/71/71 72/72/72 73/73/73
f 71/71/71 73/73/73 74/74/74
f 75/75/75 76/76/76 77/77/77
f 75/75/75 77/77/77 78/78/78
f 79/79/79 80/80/80 81/81/81
f 79/79/79 81/81/81 82/82/82
f 83/83/83 84/84/84 85/85/85
f 83/83/83 85/85/85 86/86/86
f 87/87/87 88/88/88 89/89/89
f 87/87/87 89/89/89 90/90/90
