# Exported using automatic converter by Erwin Coumans
mtllib botlab.mtl
#object mesh599776908

v -2.261762 -0.484511 -3.540148
v -2.261762 -0.484511 -3.520148
v -2.261762 -0.984511 -3.520148
v -2.261762 -0.984511 -3.540148
v -2.331762 -0.984511 -3.520148
v -2.331762 -0.484511 -3.520148
v -2.331762 -0.484511 -3.540148
v -2.331762 -0.984511 -3.540148
v -2.261762 -0.984511 -3.520148
v -2.331762 -0.984511 -3.520148
v -2.331762 -0.984511 -3.540148
v -2.261762 -0.984511 -3.540148
v -2.331762 -0.484511 -3.540148
v -2.331762 -0.484511 -3.520148
v -2.261762 -0.484511 -3.520148
v -2.261762 -0.484511 -3.540148
v -2.331762 -0.984511 -3.540148
v -2.331762 -0.484511 -3.540148
v -2.261762 -0.484511 -3.540148
v -2.261762 -0.984511 -3.540148
v -2.261762 -0.484511 -3.520148
v -2.331762 -0.484511 -3.520148
v -2.331762 -0.984511 -3.520148
v -2.261762 -0.984511 -3.520148
usemtl mat11

vn 1.000000 0.000000 0.000000
vn 1.000000 0.000000 0.000000
vn 1.000000 0.000000 0.000000
vn 1.000000 0.000000 0.000000
vn -1.000000 0.000000 0.000000
vn -1.000000 0.000000 0.000000
vn -1.000000 0.000000 0.000000
vn -1.000000 0.000000 0.000000
vn 0.000000 -1.000000 0.000000
vn 0.000000 -1.000000 0.000000
vn 0.000000 -1.000000 0.000000
vn 0.000000 -1.000000 0.000000
vn 0.000000 1.000000 0.000000
vn 0.000000 1.000000 0.000000
vn 0.000000 1.000000 0.000000
vn 0.000000 1.000000 0.000000
vn 0.000000 0.000000 -1.000000
vn 0.000000 0.000000 -1.000000
vn 0.000000 0.000000 -1.000000
vn 0.000000 0.000000 -1.000000
vn 0.000000 0.000000 1.000000
vn 0.000000 0.000000 1.000000
vn 0.000000 0.000000 1.000000
vn 0.000000 0.000000 1.000000

vt -0.215639 0.154028
vt -0.214012 0.152866
vt -0.243074 0.112179
vt -0.244701 0.113342
vt 0.243074 0.112179
vt 0.214012 0.152866
vt 0.215639 0.154028
vt 0.244701 0.113342
vt -0.334117 -0.153571
vt -0.336471 -0.160163
vt -0.338354 -0.159491
vt -0.336000 -0.152899
vt 0.338354 -0.159491
vt 0.336471 -0.160163
vt 0.334117 -0.153571
vt 0.336000 -0.152899
vt -0.073343 -0.258489
vt -0.118064 -0.236129
vt -0.114934 -0.229868
vt -0.070213 -0.252228
vt 0.114934 -0.229868
vt 0.118064 -0.236129
vt 0.073343 -0.258489
vt 0.070213 -0.252228
s off
f 1/1/1 2/2/2 3/3/3
f 1/1/1 3/3/3 4/4/4
f 5/5/5 6/6/6 7/7/7
f 5/5/5 7/7/7 8/8/8
f 9/9/9 10/10/10 11/11/11
f 9/9/9 11/11/11 12/12/12
f 13/13/13 14/14/14 15/15/15
f 13/13/13 15/15/15 16/16/16
f 17/17/17 18/18/18 19/19/19
f 17/17/17 19/19/19 20/20/20
f 21/21/21 22/22/22 23/23/23
f 21/21/21 23/23/23 24/24/24
