# Exported using automatic converter by Erwin Coumans
mtllib model6.mtl
#object mesh669145177

v 0.205685 -0.523749 -2.372183
v 0.197490 -0.520099 -2.411164
v 0.198395 -0.621081 -2.420808
v 0.206591 -0.624731 -2.381827
v 0.253617 -0.619492 -2.432270
v 0.252712 -0.518510 -2.422626
v 0.260907 -0.522159 -2.383645
v 0.261813 -0.623141 -2.393289
v 0.198395 -0.621081 -2.420808
v 0.253617 -0.619492 -2.432270
v 0.261813 -0.623141 -2.393289
v 0.206591 -0.624731 -2.381827
v 0.260907 -0.522159 -2.383645
v 0.252712 -0.518510 -2.422626
v 0.197490 -0.520099 -2.411164
v 0.205685 -0.523749 -2.372183
v 0.261813 -0.623141 -2.393289
v 0.260907 -0.522159 -2.383645
v 0.205685 -0.523749 -2.372183
v 0.206591 -0.624731 -2.381827
v 0.197490 -0.520099 -2.411164
v 0.252712 -0.518510 -2.422626
v 0.253617 -0.619492 -2.432270
v 0.198395 -0.621081 -2.420808
usemtl mat23

vn -0.978743 -0.028175 0.203145
vn -0.978743 -0.028175 0.203145
vn -0.978743 -0.028175 0.203145
vn -0.978743 -0.028175 0.203145
vn 0.978743 0.028175 -0.203145
vn 0.978743 0.028175 -0.203145
vn 0.978743 0.028175 -0.203145
vn 0.978743 0.028175 -0.203145
vn 0.008923 -0.995431 -0.095070
vn 0.008923 -0.995431 -0.095070
vn 0.008923 -0.995431 -0.095070
vn 0.008923 -0.995431 -0.095070
vn -0.008923 0.995431 0.095070
vn -0.008923 0.995431 0.095070
vn -0.008923 0.995431 0.095070
vn -0.008923 0.995431 0.095070
vn 0.204895 -0.091237 0.974522
vn 0.204895 -0.091237 0.974522
vn 0.204895 -0.091237 0.974522
vn 0.204895 -0.091237 0.974522
vn -0.204895 0.091237 -0.974522
vn -0.204895 0.091237 -0.974522
vn -0.204895 0.091237 -0.974522
vn -0.204895 0.091237 -0.974522

vt 0.141869 0.039494
vt 0.145563 0.041027
vt 0.149452 0.031657
vt 0.145757 0.030124
vt -0.149452 0.031657
vt -0.145563 0.041027
vt -0.141869 0.039494
vt -0.145757 0.030124
vt -0.144386 0.045852
vt -0.143401 0.051408
vt -0.139463 0.050710
vt -0.140447 0.045155
vt 0.139463 0.050710
vt 0.143401 0.051408
vt 0.144386 0.045852
vt 0.140447 0.045155
vt -0.035848 0.012532
vt -0.026518 0.016515
vt -0.024303 0.011326
vt -0.033633 0.007343
vt 0.024303 0.011326
vt 0.026518 0.016515
vt 0.035848 0.012532
vt 0.033633 0.007343
s off
f 1/1/1 2/2/2 3/3/3
f 1/1/1 3/3/3 4/4/4
f 5/5/5 6/6/6 7/7/7
f 5/5/5 7/7/7 8/8/8
f 9/9/9 10/10/10 11/11/11
f 9/9/9 11/11/11 12/12/12
f 13/13/13 14/14/14 15/15/15
f 13/13/13 15/15/15 16/16/16
f 17/17/17 18/18/18 19/19/19
f 17/17/17 19/19/19 20/20/20
f 21/21/21 22/22/22 23/23/23
f 21/21/21 23/23/23 24/24/24
