# Exported using automatic converter by Erwin Coumans
mtllib model6.mtl
#object mesh165277833

v 0.732889 -0.514422 2.484417
v 0.721775 -0.518172 2.485200
v 0.725826 -0.519730 2.488095
v 0.725954 -0.511754 2.479461
v 0.721775 -0.518172 2.485200
v 0.715694 -0.513383 2.476352
v 0.736922 -0.521550 2.491524
v 0.725826 -0.519730 2.488095
v 0.715694 -0.513383 2.476352
v 0.723050 -0.506674 2.470101
v 0.743908 -0.514697 2.485009
v 0.736922 -0.521550 2.491524
v 0.723050 -0.506674 2.470101
v 0.733678 -0.507316 2.475086
v 0.737129 -0.508643 2.477553
v 0.743908 -0.514697 2.485009
v 0.733678 -0.507316 2.475086
v 0.732889 -0.514422 2.484417
v 0.725954 -0.511754 2.479461
v 0.737129 -0.508643 2.477553
v 0.699454 -0.475249 2.477446
v 0.688505 -0.473050 2.473773
v 0.681191 -0.480030 2.479771
v 0.687620 -0.486543 2.487151
v 0.698907 -0.483588 2.485713
v 0.725954 -0.511754 2.479461
v 0.725826 -0.519730 2.488095
v 0.736922 -0.521550 2.491524
v 0.743908 -0.514697 2.485009
v 0.737129 -0.508643 2.477553
v 0.723799 -0.501914 2.483009
v 0.712500 -0.504771 2.484543
v 0.721775 -0.518172 2.485200
v 0.732889 -0.514422 2.484417
v 0.712500 -0.504771 2.484543
v 0.706087 -0.498388 2.477037
v 0.715694 -0.513383 2.476352
v 0.721775 -0.518172 2.485200
v 0.706087 -0.498388 2.477037
v 0.713424 -0.491585 2.470865
v 0.723050 -0.506674 2.470101
v 0.715694 -0.513383 2.476352
v 0.713424 -0.491585 2.470865
v 0.724370 -0.493764 2.474556
v 0.733678 -0.507316 2.475086
v 0.723050 -0.506674 2.470101
v 0.724370 -0.493764 2.474556
v 0.723799 -0.501914 2.483009
v 0.732889 -0.514422 2.484417
v 0.733678 -0.507316 2.475086
v 0.707723 -0.494811 2.483426
v 0.696426 -0.497691 2.484937
v 0.712500 -0.504771 2.484543
v 0.723799 -0.501914 2.483009
v 0.696426 -0.497691 2.484937
v 0.690005 -0.491234 2.477502
v 0.706087 -0.498388 2.477037
v 0.712500 -0.504771 2.484543
v 0.690005 -0.491234 2.477502
v 0.697333 -0.484364 2.471395
v 0.713424 -0.491585 2.470865
v 0.706087 -0.498388 2.477037
v 0.697333 -0.484364 2.471395
v 0.708283 -0.486574 2.475057
v 0.724370 -0.493764 2.474556
v 0.713424 -0.491585 2.470865
v 0.708283 -0.486574 2.475057
v 0.707723 -0.494811 2.483426
v 0.723799 -0.501914 2.483009
v 0.724370 -0.493764 2.474556
v 0.698907 -0.483588 2.485713
v 0.687620 -0.486543 2.487151
v 0.696426 -0.497691 2.484937
v 0.707723 -0.494811 2.483426
v 0.687620 -0.486543 2.487151
v 0.681191 -0.480030 2.479771
v 0.690005 -0.491234 2.477502
v 0.696426 -0.497691 2.484937
v 0.681191 -0.480030 2.479771
v 0.688505 -0.473050 2.473773
v 0.697333 -0.484364 2.471395
v 0.690005 -0.491234 2.477502
v 0.688505 -0.473050 2.473773
v 0.699454 -0.475249 2.477446
v 0.708283 -0.486574 2.475057
v 0.697333 -0.484364 2.471395
v 0.699454 -0.475249 2.477446
v 0.698907 -0.483588 2.485713
v 0.707723 -0.494811 2.483426
v 0.708283 -0.486574 2.475057
usemtl mat20

vn 0.196565 -0.721573 -0.663849
vn 0.196565 -0.721573 -0.663849
vn 0.196565 -0.721573 -0.663849
vn 0.196565 -0.721573 -0.663849
vn 0.003695 -0.878377 -0.477954
vn 0.003695 -0.878377 -0.477954
vn 0.003695 -0.878377 -0.477954
vn 0.003695 -0.878377 -0.477954
vn 0.157932 -0.760230 -0.630165
vn 0.157932 -0.760230 -0.630165
vn 0.157932 -0.760230 -0.630165
vn 0.157932 -0.760230 -0.630165
vn 0.319725 -0.572140 -0.755269
vn 0.319725 -0.572140 -0.755269
vn 0.319725 -0.572140 -0.755269
vn 0.319725 -0.572140 -0.755269
vn 0.119443 -0.794629 -0.595229
vn 0.119443 -0.794629 -0.595229
vn 0.119443 -0.794629 -0.595229
vn 0.119443 -0.794629 -0.595229
vn -0.094667 0.704009 0.703853
vn -0.094667 0.704009 0.703853
vn -0.094667 0.704009 0.703853
vn -0.094667 0.704009 0.703853
vn -0.094667 0.704009 0.703853
vn -0.088570 0.732311 0.675185
vn -0.088570 0.732311 0.675185
vn -0.088570 0.732311 0.675185
vn -0.088570 0.732311 0.675185
vn -0.088570 0.732311 0.675185
vn 0.065356 0.125239 0.989972
vn 0.065356 0.125239 0.989972
vn 0.065356 0.125239 0.989972
vn 0.065356 0.125239 0.989972
vn -0.806256 -0.536400 0.249451
vn -0.806256 -0.536400 0.249451
vn -0.806256 -0.536400 0.249451
vn -0.806256 -0.536400 0.249451
vn -0.471877 -0.261110 -0.842113
vn -0.471877 -0.261110 -0.842113
vn -0.471877 -0.261110 -0.842113
vn -0.471877 -0.261110 -0.842113
vn 0.389418 0.264657 -0.882219
vn 0.389418 0.264657 -0.882219
vn 0.389418 0.264657 -0.882219
vn 0.389418 0.264657 -0.882219
vn 0.688660 0.523476 0.501717
vn 0.688660 0.523476 0.501717
vn 0.688660 0.523476 0.501717
vn 0.688660 0.523476 0.501717
vn 0.093169 0.154970 0.983516
vn 0.093169 0.154970 0.983516
vn 0.093169 0.154970 0.983516
vn 0.093169 0.154970 0.983516
vn -0.381081 -0.837234 -0.392195
vn -0.381081 -0.837234 -0.392195
vn -0.381081 -0.837234 -0.392195
vn -0.381081 -0.837234 -0.392195
vn -0.244530 -0.489426 -0.837059
vn -0.244530 -0.489426 -0.837059
vn -0.244530 -0.489426 -0.837059
vn -0.244530 -0.489426 -0.837059
vn 0.333494 0.782250 -0.526182
vn 0.333494 0.782250 -0.526182
vn 0.333494 0.782250 -0.526182
vn 0.333494 0.782250 -0.526182
vn 0.316381 0.668801 0.672762
vn 0.316381 0.668801 0.672762
vn 0.316381 0.668801 0.672762
vn 0.316381 0.668801 0.672762
vn 0.149486 -0.080509 0.985481
vn 0.149486 -0.080509 0.985481
vn 0.149486 -0.080509 0.985481
vn 0.149486 -0.080509 0.985481
vn -0.768610 -0.629134 0.115884
vn -0.768610 -0.629134 0.115884
vn -0.768610 -0.629134 0.115884
vn -0.768610 -0.629134 0.115884
vn -0.494525 -0.213538 -0.842524
vn -0.494525 -0.213538 -0.842524
vn -0.494525 -0.213538 -0.842524
vn -0.494525 -0.213538 -0.842524
vn 0.363800 0.454887 -0.812851
vn 0.363800 0.454887 -0.812851
vn 0.363800 0.454887 -0.812851
vn 0.363800 0.454887 -0.812851
vn 0.725884 0.462472 0.509129
vn 0.725884 0.462472 0.509129
vn 0.725884 0.462472 0.509129
vn 0.725884 0.462472 0.509129

vt 0.259069 -0.054628
vt 0.258754 -0.055760
vt 0.259239 -0.055569
vt 0.258237 -0.054955
vt 0.281229 -0.107372
vt 0.280055 -0.107418
vt 0.282589 -0.106393
vt 0.281713 -0.107176
vt 0.262483 -0.068455
vt 0.262076 -0.067352
vt 0.264576 -0.066371
vt 0.265028 -0.067456
vt 0.239489 -0.006215
vt 0.240393 -0.005463
vt 0.240804 -0.005295
vt 0.241976 -0.005198
vt 0.267524 -0.078004
vt 0.268501 -0.078659
vt 0.267669 -0.078986
vt 0.267938 -0.077842
vt -0.235163 -0.069935
vt -0.234240 -0.070663
vt -0.234646 -0.071766
vt -0.235821 -0.071720
vt -0.236141 -0.070589
vt -0.245892 -0.075029
vt -0.246895 -0.075643
vt -0.247789 -0.074879
vt -0.247338 -0.073793
vt -0.246166 -0.073886
vt -0.048111 -0.003377
vt -0.047845 -0.004521
vt -0.049464 -0.004326
vt -0.049648 -0.003166
vt 0.310128 -0.128724
vt 0.309040 -0.129170
vt 0.309773 -0.127546
vt 0.310922 -0.127300
vt 0.026749 -0.151872
vt 0.026462 -0.150732
vt 0.028241 -0.150523
vt 0.028519 -0.151665
vt -0.010864 0.188601
vt -0.010237 0.189595
vt -0.008626 0.189923
vt -0.009089 0.188843
vt -0.089504 -0.261018
vt -0.090335 -0.261848
vt -0.091871 -0.261621
vt -0.091120 -0.260717
vt -0.051278 -0.017664
vt -0.051012 -0.018809
vt -0.052387 -0.017716
vt -0.052656 -0.016571
vt 0.245346 -0.184100
vt 0.244172 -0.184159
vt 0.245350 -0.182850
vt 0.246525 -0.182798
vt 0.126856 -0.118972
vt 0.126489 -0.117855
vt 0.127873 -0.116760
vt 0.128236 -0.117878
vt -0.281179 0.092693
vt -0.281386 0.093850
vt -0.280984 0.095567
vt -0.280772 0.094410
vt -0.177348 -0.162212
vt -0.178296 -0.162907
vt -0.179625 -0.161757
vt -0.178680 -0.161058
vt 0.029939 0.000621
vt 0.030148 -0.000536
vt 0.028753 -0.000185
vt 0.028537 0.000971
vt 0.265001 -0.212540
vt 0.263837 -0.212703
vt 0.264638 -0.211503
vt 0.265803 -0.211347
vt 0.005935 -0.153087
vt 0.005646 -0.151948
vt 0.007057 -0.151592
vt 0.007335 -0.152734
vt -0.107548 0.189518
vt -0.107139 0.190620
vt -0.105779 0.191139
vt -0.106189 0.190038
vt -0.055864 -0.267779
vt -0.056659 -0.268645
vt -0.058032 -0.268193
vt -0.057246 -0.267318
s off
f 1/1/1 2/2/2 3/3/3
f 1/1/1 3/3/3 4/4/4
f 5/5/5 6/6/6 7/7/7
f 5/5/5 7/7/7 8/8/8
f 9/9/9 10/10/10 11/11/11
f 9/9/9 11/11/11 12/12/12
f 13/13/13 14/14/14 15/15/15
f 13/13/13 15/15/15 16/16/16
f 17/17/17 18/18/18 19/19/19
f 17/17/17 19/19/19 20/20/20
f 21/21/21 22/22/22 23/23/23
f 21/21/21 23/23/23 24/24/24
f 21/21/21 24/24/24 25/25/25
f 26/26/26 27/27/27 28/28/28
f 26/26/26 28/28/28 29/29/29
f 26/26/26 29/29/29 30/30/30
f 31/31/31 32/32/32 33/33/33
f 31/31/31 33/33/33 34/34/34
f 35/35/35 36/36/36 37/37/37
f 35/35/35 37/37/37 38/38/38
f 39/39/39 40/40/40 41/41/41
f 39/39/39 41/41/41 42/42/42
f 43/43/43 44/44/44 45/45/45
f 43/43/43 45/45/45 46/46/46
f 47/47/47 48/48/48 49/49/49
f 47/47/47 49/49/49 50/50/50
f 51/51/51 52/52/52 53/53/53
f 51/51/51 53/53/53 54/54/54
f 55/55/55 56/56/56 57/57/57
f 55/55/55 57/57/57 58/58/58
f 59/59/59 60/60/60 61/61/61
f 59/59/59 61/61/61 62/62/62
f 63/63/63 64/64/64 65/65/65
f 63/63/63 65/65/65 66/66/66
f 67/67/67 68/68/68 69/69/69
f 67/67/67 69/69/69 70/70/70
f 71/71/71 72/72/72 73/73/73
f 71/71/71 73/73/73 74/74/74
f 75/75/75 76/76/76 77/77/77
f 75/75/75 77/77/77 78/78/78
f 79/79/79 80/80/80 81/81/81
f 79/79/79 81/81/81 82/82/82
f 83/83/83 84/84/84 85/85/85
f 83/83/83 85/85/85 86/86/86
f 87/87/87 88/88/88 89/89/89
f 87/87/87 89/89/89 90/90/90
