# Exported using automatic converter by Erwin Coumans
mtllib model6.mtl
#object mesh1761773202

v 0.077860 -0.694117 -2.403431
v 0.066186 -0.695851 -2.513719
v 0.121329 -0.695023 -2.519568
v 0.133003 -0.693289 -2.409281
v 0.928779 -0.518368 -2.506861
v 0.888249 -0.501705 -2.492235
v 0.891222 -0.681903 -2.489717
v 0.121329 -0.695023 -2.519568
v 0.879548 -0.683637 -2.600005
v 0.891222 -0.681903 -2.489717
v 0.133003 -0.693289 -2.409281
v 0.888249 -0.501705 -2.492235
v 0.876575 -0.503438 -2.602523
v 0.118356 -0.514824 -2.522087
v 0.130030 -0.513090 -2.411799
v 0.891222 -0.681903 -2.489717
v 0.888249 -0.501705 -2.492235
v 0.130030 -0.513090 -2.411799
v 0.133003 -0.693289 -2.409281
v 0.118356 -0.514824 -2.522087
v 0.876575 -0.503438 -2.602523
v 0.879548 -0.683637 -2.600005
v 0.121329 -0.695023 -2.519568
v 0.066186 -0.695851 -2.513719
v 0.063213 -0.515652 -2.516237
v 0.118356 -0.514824 -2.522087
v 0.121329 -0.695023 -2.519568
v 0.063213 -0.515652 -2.516237
v 0.074887 -0.513918 -2.405949
v 0.130030 -0.513090 -2.411799
v 0.118356 -0.514824 -2.522087
v 0.074887 -0.513918 -2.405949
v 0.077860 -0.694117 -2.403431
v 0.133003 -0.693289 -2.409281
v 0.130030 -0.513090 -2.411799
v 0.036503 -0.694738 -2.399044
v 0.024829 -0.696472 -2.509331
v 0.066186 -0.695851 -2.513719
v 0.077860 -0.694117 -2.403431
v 0.024829 -0.696472 -2.509331
v 0.021856 -0.516273 -2.511849
v 0.063213 -0.515652 -2.516237
v 0.066186 -0.695851 -2.513719
v 0.021856 -0.516273 -2.511849
v 0.033530 -0.514539 -2.401561
v 0.074887 -0.513918 -2.405949
v 0.063213 -0.515652 -2.516237
v 0.033530 -0.514539 -2.401561
v 0.036503 -0.694738 -2.399044
v 0.077860 -0.694117 -2.403431
v 0.074887 -0.513918 -2.405949
v -0.014892 -0.700163 -2.489954
v 0.024829 -0.696472 -2.509331
v 0.036503 -0.694738 -2.399044
v -0.014892 -0.700163 -2.489954
v -0.017516 -0.541075 -2.492177
v 0.021856 -0.516273 -2.511849
v 0.024829 -0.696472 -2.509331
v -0.017516 -0.541075 -2.492177
v 0.033530 -0.514539 -2.401561
v 0.021856 -0.516273 -2.511849
v 0.003320 -0.539821 -2.427026
v 0.005945 -0.698909 -2.424802
v 0.036503 -0.694738 -2.399044
v 0.033530 -0.514539 -2.401561
v 0.003320 -0.539821 -2.427026
v -0.017516 -0.541075 -2.492177
v -0.014892 -0.700163 -2.489954
v 0.005945 -0.698909 -2.424802
v 0.928779 -0.518368 -2.506861
v 0.919323 -0.519772 -2.596193
v 0.876575 -0.503438 -2.602523
v 0.888249 -0.501705 -2.492235
v 0.919323 -0.519772 -2.596193
v 0.879548 -0.683637 -2.600005
v 0.876575 -0.503438 -2.602523
v 0.974185 -0.679199 -2.627382
v 0.983641 -0.677795 -2.538049
v 0.891222 -0.681903 -2.489717
v 0.879548 -0.683637 -2.600005
v 0.974185 -0.679199 -2.627382
v 0.919323 -0.519772 -2.596193
v 0.928779 -0.518368 -2.506861
v 0.983641 -0.677795 -2.538049
v 0.036503 -0.694738 -2.399044
v 0.005945 -0.698909 -2.424802
v -0.014892 -0.700163 -2.489954
v -0.017516 -0.541075 -2.492177
v 0.003320 -0.539821 -2.427026
v 0.033530 -0.514539 -2.401561
v 0.891222 -0.681903 -2.489717
v 0.983641 -0.677795 -2.538049
v 0.928779 -0.518368 -2.506861
v 0.919323 -0.519772 -2.596193
v 0.974185 -0.679199 -2.627382
v 0.879548 -0.683637 -2.600005
v 0.081692 -0.445271 -2.463523
v 0.043752 -0.450906 -2.821959
v 0.044895 -0.520213 -2.820990
v 0.082836 -0.514578 -2.462554
v 0.541183 -0.512760 -2.873639
v 0.540040 -0.443453 -2.874608
v 0.577980 -0.437818 -2.516172
v 0.579124 -0.507126 -2.515203
v 0.044895 -0.520213 -2.820990
v 0.541183 -0.512760 -2.873639
v 0.579124 -0.507126 -2.515203
v 0.082836 -0.514578 -2.462554
v 0.124778 -0.417375 -2.502962
v 0.094046 -0.421939 -2.793295
v 0.043752 -0.450906 -2.821959
v 0.081692 -0.445271 -2.463523
v 0.579124 -0.507126 -2.515203
v 0.577980 -0.437818 -2.516172
v 0.081692 -0.445271 -2.463523
v 0.082836 -0.514578 -2.462554
v 0.043752 -0.450906 -2.821959
v 0.540040 -0.443453 -2.874608
v 0.541183 -0.512760 -2.873639
v 0.044895 -0.520213 -2.820990
v 0.094046 -0.421939 -2.793295
v 0.496040 -0.415903 -2.835941
v 0.540040 -0.443453 -2.874608
v 0.043752 -0.450906 -2.821959
v 0.496040 -0.415903 -2.835941
v 0.526771 -0.411339 -2.545608
v 0.577980 -0.437818 -2.516172
v 0.540040 -0.443453 -2.874608
v 0.526771 -0.411339 -2.545608
v 0.124778 -0.417375 -2.502962
v 0.081692 -0.445271 -2.463523
v 0.577980 -0.437818 -2.516172
v 0.526771 -0.411339 -2.545608
v 0.496040 -0.415903 -2.835941
v 0.094046 -0.421939 -2.793295
v 0.124778 -0.417375 -2.502962
usemtl mat10

vn 0.016492 -0.999766 0.013971
vn 0.016492 -0.999766 0.013971
vn 0.016492 -0.999766 0.013971
vn 0.016492 -0.999766 0.013971
vn 0.346215 0.018819 0.937966
vn 0.346215 0.018819 0.937966
vn 0.346215 0.018819 0.937966
vn 0.016495 -0.999766 0.013971
vn 0.016495 -0.999766 0.013971
vn 0.016495 -0.999766 0.013971
vn 0.016495 -0.999766 0.013971
vn -0.016495 0.999766 -0.013971
vn -0.016495 0.999766 -0.013971
vn -0.016495 0.999766 -0.013971
vn -0.016495 0.999766 -0.013971
vn 0.105249 0.015631 0.994323
vn 0.105249 0.015631 0.994323
vn 0.105249 0.015631 0.994323
vn 0.105249 0.015631 0.994323
vn -0.105249 -0.015631 -0.994323
vn -0.105249 -0.015631 -0.994323
vn -0.105249 -0.015631 -0.994323
vn -0.105249 -0.015631 -0.994323
vn -0.105250 -0.015631 -0.994323
vn -0.105250 -0.015631 -0.994323
vn -0.105250 -0.015631 -0.994323
vn -0.105250 -0.015631 -0.994323
vn -0.016489 0.999767 -0.013972
vn -0.016489 0.999767 -0.013972
vn -0.016489 0.999767 -0.013972
vn -0.016489 0.999767 -0.013972
vn 0.105249 0.015631 0.994323
vn 0.105249 0.015631 0.994323
vn 0.105249 0.015631 0.994323
vn 0.105249 0.015631 0.994323
vn 0.016495 -0.999766 0.013971
vn 0.016495 -0.999766 0.013971
vn 0.016495 -0.999766 0.013971
vn 0.016495 -0.999766 0.013971
vn -0.105249 -0.015631 -0.994323
vn -0.105249 -0.015631 -0.994323
vn -0.105249 -0.015631 -0.994323
vn -0.105249 -0.015631 -0.994323
vn -0.016495 0.999766 -0.013971
vn -0.016495 0.999766 -0.013971
vn -0.016495 0.999766 -0.013971
vn -0.016495 0.999766 -0.013971
vn 0.105249 0.015631 0.994323
vn 0.105249 0.015631 0.994323
vn 0.105249 0.015631 0.994323
vn 0.105249 0.015631 0.994323
vn 0.095231 -0.995440 0.005568
vn 0.095231 -0.995440 0.005568
vn 0.095231 -0.995440 0.005568
vn -0.436880 -0.019775 -0.899302
vn -0.436880 -0.019775 -0.899302
vn -0.436880 -0.019775 -0.899302
vn -0.436880 -0.019775 -0.899302
vn -0.517676 0.854576 0.041362
vn -0.517676 0.854576 0.041362
vn -0.517676 0.854576 0.041362
vn -0.644522 0.000051 0.764586
vn -0.644522 0.000051 0.764586
vn -0.644522 0.000051 0.764586
vn -0.644522 0.000051 0.764586
vn -0.952347 -0.011453 0.304802
vn -0.952347 -0.011453 0.304802
vn -0.952347 -0.011453 0.304802
vn -0.952347 -0.011453 0.304802
vn 0.363262 0.930174 -0.053074
vn 0.363262 0.930174 -0.053074
vn 0.363262 0.930174 -0.053074
vn 0.363262 0.930174 -0.053074
vn 0.142163 -0.011486 -0.989777
vn 0.142163 -0.011486 -0.989777
vn 0.142163 -0.011486 -0.989777
vn 0.049850 -0.998702 0.010424
vn 0.049850 -0.998702 0.010424
vn 0.049850 -0.998702 0.010424
vn 0.049850 -0.998702 0.010424
vn 0.933979 0.341788 -0.104234
vn 0.933979 0.341788 -0.104234
vn 0.933979 0.341788 -0.104234
vn 0.933979 0.341788 -0.104234
vn 0.162389 -0.986176 -0.032951
vn 0.162389 -0.986176 -0.032951
vn 0.162389 -0.986176 -0.032951
vn -0.728597 0.648467 0.220538
vn -0.728597 0.648467 0.220538
vn -0.728597 0.648467 0.220538
vn 0.463859 -0.013667 0.885804
vn 0.463859 -0.013667 0.885804
vn 0.463859 -0.013667 0.885804
vn -0.280661 0.090352 -0.955545
vn -0.280661 0.090352 -0.955545
vn -0.280661 0.090352 -0.955545
vn -0.994309 -0.014931 0.105482
vn -0.994309 -0.014931 0.105482
vn -0.994309 -0.014931 0.105482
vn -0.994309 -0.014931 0.105482
vn 0.994309 0.014931 -0.105482
vn 0.994309 0.014931 -0.105482
vn 0.994309 0.014931 -0.105482
vn 0.994309 0.014931 -0.105482
vn 0.016495 -0.999766 0.013971
vn 0.016495 -0.999766 0.013971
vn 0.016495 -0.999766 0.013971
vn 0.016495 -0.999766 0.013971
vn -0.516179 0.855490 0.041189
vn -0.516179 0.855490 0.041189
vn -0.516179 0.855490 0.041189
vn -0.516179 0.855490 0.041189
vn 0.105249 0.015631 0.994323
vn 0.105249 0.015631 0.994323
vn 0.105249 0.015631 0.994323
vn 0.105249 0.015631 0.994323
vn -0.105249 -0.015631 -0.994323
vn -0.105249 -0.015631 -0.994323
vn -0.105249 -0.015631 -0.994323
vn -0.105249 -0.015631 -0.994323
vn -0.079050 0.767162 -0.636563
vn -0.079050 0.767162 -0.636563
vn -0.079050 0.767162 -0.636563
vn -0.079050 0.767162 -0.636563
vn 0.487698 0.870566 -0.065309
vn 0.487698 0.870566 -0.065309
vn 0.487698 0.870566 -0.065309
vn 0.487698 0.870566 -0.065309
vn 0.053414 0.786816 0.614871
vn 0.053414 0.786816 0.614871
vn 0.053414 0.786816 0.614871
vn 0.053414 0.786816 0.614871
vn -0.016495 0.999766 -0.013971
vn -0.016495 0.999766 -0.013971
vn -0.016495 0.999766 -0.013971
vn -0.016495 0.999766 -0.013971

vt -0.150875 0.027682
vt -0.161677 0.030198
vt -0.160420 0.035599
vt -0.149617 0.033084
vt -0.049474 0.102929
vt -0.046131 0.099740
vt -0.062520 0.092239
vt -0.160420 0.035599
vt -0.143125 0.109868
vt -0.132322 0.107352
vt -0.149617 0.033083
vt 0.132322 0.107352
vt 0.143125 0.109868
vt 0.160420 0.035599
vt 0.149617 0.033083
vt -0.048409 0.059618
vt -0.032096 0.067283
vt 0.000332 -0.001735
vt -0.015981 -0.009400
vt -0.000332 -0.001735
vt 0.032096 0.067283
vt 0.048409 0.059618
vt 0.015981 -0.009400
vt 0.013623 -0.014419
vt -0.002690 -0.006754
vt -0.000332 -0.001735
vt 0.015981 -0.009399
vt 0.161677 0.030198
vt 0.150875 0.027682
vt 0.149617 0.033084
vt 0.160420 0.035599
vt 0.002690 -0.006754
vt -0.013623 -0.014419
vt -0.015981 -0.009400
vt 0.000332 -0.001735
vt -0.151818 0.023631
vt -0.162621 0.026147
vt -0.161677 0.030198
vt -0.150875 0.027682
vt 0.011854 -0.018184
vt -0.004459 -0.010519
vt -0.002690 -0.006754
vt 0.013623 -0.014419
vt 0.162621 0.026147
vt 0.151818 0.023631
vt 0.150875 0.027682
vt 0.161677 0.030198
vt 0.004459 -0.010519
vt -0.011854 -0.018184
vt -0.013623 -0.014419
vt 0.002690 -0.006754
vt -0.162571 0.019167
vt -0.163121 0.023568
vt -0.152300 0.021131
vt 0.034092 0.029080
vt 0.019640 0.035740
vt 0.019272 0.040779
vt 0.035642 0.033235
vt 0.162365 0.019145
vt 0.151985 0.021878
vt 0.162837 0.024175
vt 0.079573 -0.093128
vt 0.067722 -0.103746
vt 0.065295 -0.100543
vt 0.078720 -0.088515
vt 0.155676 0.005523
vt 0.162507 0.005892
vt 0.163365 -0.009997
vt 0.156534 -0.010366
vt 0.125331 0.116230
vt 0.133907 0.118908
vt 0.136253 0.114928
vt 0.125665 0.111623
vt 0.018487 0.031197
vt 0.031023 0.019913
vt 0.015000 0.028166
vt -0.143140 0.118598
vt -0.134384 0.116589
vt -0.132825 0.106269
vt -0.143636 0.108749
vt -0.114142 0.128610
vt -0.097763 0.133680
vt -0.093753 0.125640
vt -0.110133 0.120571
vt -0.151922 0.020358
vt -0.155363 0.018282
vt -0.162202 0.018442
vt 0.162305 0.013497
vt 0.155466 0.013328
vt 0.151995 0.016484
vt -0.073441 0.104396
vt -0.077563 0.113985
vt -0.060457 0.115162
vt 0.060143 0.089724
vt 0.077249 0.088550
vt 0.073503 0.079428
vt 0.139370 0.076324
vt 0.171669 0.092332
vt 0.174747 0.086120
vt 0.142448 0.070112
vt -0.174747 0.086120
vt -0.171669 0.092332
vt -0.139370 0.076324
vt -0.142448 0.070112
vt -0.191070 0.038466
vt -0.179750 0.087078
vt -0.144642 0.078902
vt -0.155962 0.030290
vt 0.157911 0.037202
vt 0.186477 0.043248
vt 0.190965 0.038583
vt 0.155698 0.031119
vt -0.019125 0.039676
vt -0.012850 0.042623
vt 0.008375 -0.002552
vt 0.002101 -0.005500
vt -0.008375 -0.002552
vt 0.012850 0.042623
vt 0.019125 0.039676
vt -0.002101 -0.005500
vt 0.141854 -0.017405
vt 0.146460 0.022761
vt 0.151378 0.026970
vt 0.145691 -0.022618
vt 0.169187 0.094135
vt 0.141820 0.083956
vt 0.136696 0.087910
vt 0.170482 0.100478
vt 0.102140 0.092221
vt 0.119535 0.055725
vt 0.117598 0.049549
vt 0.096122 0.094605
vt 0.149052 0.075061
vt 0.177490 0.081683
vt 0.186660 0.042307
vt 0.158221 0.035685
s off
f 1/1/1 2/2/2 3/3/3
f 1/1/1 3/3/3 4/4/4
f 5/5/5 6/6/6 7/7/7
f 8/8/8 9/9/9 10/10/10
f 8/8/8 10/10/10 11/11/11
f 12/12/12 13/13/13 14/14/14
f 12/12/12 14/14/14 15/15/15
f 16/16/16 17/17/17 18/18/18
f 16/16/16 18/18/18 19/19/19
f 20/20/20 21/21/21 22/22/22
f 20/20/20 22/22/22 23/23/23
f 24/24/24 25/25/25 26/26/26
f 24/24/24 26/26/26 27/27/27
f 28/28/28 29/29/29 30/30/30
f 28/28/28 30/30/30 31/31/31
f 32/32/32 33/33/33 34/34/34
f 32/32/32 34/34/34 35/35/35
f 36/36/36 37/37/37 38/38/38
f 36/36/36 38/38/38 39/39/39
f 40/40/40 41/41/41 42/42/42
f 40/40/40 42/42/42 43/43/43
f 44/44/44 45/45/45 46/46/46
f 44/44/44 46/46/46 47/47/47
f 48/48/48 49/49/49 50/50/50
f 48/48/48 50/50/50 51/51/51
f 52/52/52 53/53/53 54/54/54
f 55/55/55 56/56/56 57/57/57
f 55/55/55 57/57/57 58/58/58
f 59/59/59 60/60/60 61/61/61
f 62/62/62 63/63/63 64/64/64
f 62/62/62 64/64/64 65/65/65
f 66/66/66 67/67/67 68/68/68
f 66/66/66 68/68/68 69/69/69
f 70/70/70 71/71/71 72/72/72
f 70/70/70 72/72/72 73/73/73
f 74/74/74 75/75/75 76/76/76
f 77/77/77 78/78/78 79/79/79
f 77/77/77 79/79/79 80/80/80
f 81/81/81 82/82/82 83/83/83
f 81/81/81 83/83/83 84/84/84
f 85/85/85 86/86/86 87/87/87
f 88/88/88 89/89/89 90/90/90
f 91/91/91 92/92/92 93/93/93
f 94/94/94 95/95/95 96/96/96
f 97/97/97 98/98/98 99/99/99
f 97/97/97 99/99/99 100/100/100
f 101/101/101 102/102/102 103/103/103
f 101/101/101 103/103/103 104/104/104
f 105/105/105 106/106/106 107/107/107
f 105/105/105 107/107/107 108/108/108
f 109/109/109 110/110/110 111/111/111
f 109/109/109 111/111/111 112/112/112
f 113/113/113 114/114/114 115/115/115
f 113/113/113 115/115/115 116/116/116
f 117/117/117 118/118/118 119/119/119
f 117/117/117 119/119/119 120/120/120
f 121/121/121 122/122/122 123/123/123
f 121/121/121 123/123/123 124/124/124
f 125/125/125 126/126/126 127/127/127
f 125/125/125 127/127/127 128/128/128
f 129/129/129 130/130/130 131/131/131
f 129/129/129 131/131/131 132/132/132
f 133/133/133 134/134/134 135/135/135
f 133/133/133 135/135/135 136/136/136
