# Exported using automatic converter by Erwin Coumans
mtllib model6.mtl
#object mesh1013101740

v 0.699436 0.611057 -2.829198
v 0.700541 0.616187 -2.709312
v 0.697891 0.496327 -2.704159
v 0.696786 0.491197 -2.824045
v 0.577925 0.499022 -2.703169
v 0.580575 0.618882 -2.708322
v 0.579470 0.613752 -2.828207
v 0.576820 0.493892 -2.823054
v 0.697891 0.496327 -2.704159
v 0.577925 0.499022 -2.703169
v 0.576820 0.493892 -2.823054
v 0.696786 0.491197 -2.824045
v 0.579470 0.613752 -2.828207
v 0.580575 0.618882 -2.708322
v 0.700541 0.616187 -2.709312
v 0.699436 0.611057 -2.829198
v 0.576820 0.493892 -2.823054
v 0.579470 0.613752 -2.828207
v 0.699436 0.611057 -2.829198
v 0.696786 0.491197 -2.824045
v 0.700541 0.616187 -2.709312
v 0.580575 0.618882 -2.708322
v 0.577925 0.499022 -2.703169
v 0.697891 0.496327 -2.704159
usemtl mat22

vn 0.999714 -0.022459 -0.008254
vn 0.999714 -0.022459 -0.008254
vn 0.999714 -0.022459 -0.008254
vn 0.999714 -0.022459 -0.008254
vn -0.999714 0.022459 0.008254
vn -0.999714 0.022459 0.008254
vn -0.999714 0.022459 0.008254
vn -0.999714 0.022459 0.008254
vn -0.022085 -0.998833 0.042942
vn -0.022085 -0.998833 0.042942
vn -0.022085 -0.998833 0.042942
vn -0.022085 -0.998833 0.042942
vn 0.022085 0.998833 -0.042942
vn 0.022085 0.998833 -0.042942
vn 0.022085 0.998833 -0.042942
vn 0.022085 0.998833 -0.042942
vn -0.009209 -0.042748 -0.999044
vn -0.009209 -0.042748 -0.999044
vn -0.009209 -0.042748 -0.999044
vn -0.009209 -0.042748 -0.999044
vn 0.009209 0.042748 0.999044
vn 0.009209 0.042748 0.999044
vn 0.009209 0.042748 0.999044
vn 0.009209 0.042748 0.999044

vt -0.099641 0.199351
vt -0.089386 0.193120
vt -0.095617 0.182865
vt -0.105872 0.189096
vt 0.095617 0.182865
vt 0.089386 0.193120
vt 0.099641 0.199351
vt 0.105872 0.189096
vt -0.155870 0.091553
vt -0.159620 0.080154
vt -0.171019 0.083905
vt -0.167269 0.095304
vt 0.171019 0.083905
vt 0.159620 0.080154
vt 0.155870 0.091553
vt 0.167269 0.095304
vt -0.081259 0.073849
vt -0.091811 0.079563
vt -0.086097 0.090116
vt -0.075545 0.084402
vt 0.086097 0.090116
vt 0.091811 0.079563
vt 0.081259 0.073849
vt 0.075545 0.084402
s off
f 1/1/1 2/2/2 3/3/3
f 1/1/1 3/3/3 4/4/4
f 5/5/5 6/6/6 7/7/7
f 5/5/5 7/7/7 8/8/8
f 9/9/9 10/10/10 11/11/11
f 9/9/9 11/11/11 12/12/12
f 13/13/13 14/14/14 15/15/15
f 13/13/13 15/15/15 16/16/16
f 17/17/17 18/18/18 19/19/19
f 17/17/17 19/19/19 20/20/20
f 21/21/21 22/22/22 23/23/23
f 21/21/21 23/23/23 24/24/24
