# Exported using automatic converter by Erwin Coumans
mtllib model6.mtl
#object mesh564485406

v 0.678816 0.500999 -1.395148
v -0.161184 0.500999 -1.395148
v -0.161184 0.460999 -1.395148
v 0.678816 0.460999 -1.395148
v -0.161184 0.460999 -1.705148
v -0.161184 0.500999 -1.705148
v 0.678817 0.500999 -1.705148
v 0.678817 0.460999 -1.705148
v -0.161184 0.460999 -1.395148
v -0.161184 0.460999 -1.705148
v 0.678817 0.460999 -1.705148
v 0.678816 0.460999 -1.395148
v 0.678817 0.500999 -1.705148
v -0.161184 0.500999 -1.705148
v -0.161184 0.500999 -1.395148
v 0.678816 0.500999 -1.395148
v 0.678817 0.460999 -1.705148
v 0.678817 0.500999 -1.705148
v 0.678816 0.500999 -1.395148
v 0.678816 0.460999 -1.395148
v -0.161184 0.500999 -1.395148
v -0.161184 0.500999 -1.705148
v -0.161184 0.460999 -1.705148
v -0.161184 0.460999 -1.395148
usemtl mat22

vn -0.000000 -0.000000 1.000000
vn -0.000000 -0.000000 1.000000
vn -0.000000 -0.000000 1.000000
vn -0.000000 -0.000000 1.000000
vn 0.000000 0.000000 -1.000000
vn 0.000000 0.000000 -1.000000
vn 0.000000 0.000000 -1.000000
vn 0.000000 0.000000 -1.000000
vn 0.000000 -1.000000 -0.000000
vn 0.000000 -1.000000 -0.000000
vn 0.000000 -1.000000 -0.000000
vn 0.000000 -1.000000 -0.000000
vn -0.000000 1.000000 0.000000
vn -0.000000 1.000000 0.000000
vn -0.000000 1.000000 0.000000
vn -0.000000 1.000000 0.000000
vn 1.000000 0.000000 0.000000
vn 1.000000 0.000000 0.000000
vn 1.000000 0.000000 0.000000
vn 1.000000 0.000000 0.000000
vn -1.000000 -0.000000 -0.000000
vn -1.000000 -0.000000 -0.000000
vn -1.000000 -0.000000 -0.000000
vn -1.000000 -0.000000 -0.000000

vt 0.071574 0.077219
vt 0.109140 0.002087
vt 0.105562 0.000298
vt 0.067996 0.075430
vt -0.105562 0.000298
vt -0.109140 0.002087
vt -0.071574 0.077219
vt -0.067996 0.075430
vt -0.063346 -0.027222
vt -0.092540 -0.016796
vt -0.064288 0.062310
vt -0.035094 0.051884
vt 0.064288 0.062310
vt 0.092540 -0.016796
vt 0.063346 -0.027222
vt 0.035094 0.051884
vt -0.011363 0.124310
vt -0.009038 0.127565
vt 0.016188 0.109547
vt 0.013863 0.106292
vt -0.016188 0.109547
vt 0.009038 0.127565
vt 0.011363 0.124310
vt -0.013863 0.106292
s off
f 1/1/1 2/2/2 3/3/3
f 1/1/1 3/3/3 4/4/4
f 5/5/5 6/6/6 7/7/7
f 5/5/5 7/7/7 8/8/8
f 9/9/9 10/10/10 11/11/11
f 9/9/9 11/11/11 12/12/12
f 13/13/13 14/14/14 15/15/15
f 13/13/13 15/15/15 16/16/16
f 17/17/17 18/18/18 19/19/19
f 17/17/17 19/19/19 20/20/20
f 21/21/21 22/22/22 23/23/23
f 21/21/21 23/23/23 24/24/24
