# Exported using automatic converter by Erwin Coumans
mtllib model6.mtl
#object mesh13627733

v -0.331762 -0.994511 -1.380148
v -0.331762 -0.994511 -1.440148
v -0.331762 -1.014511 -1.440148
v -0.331762 -1.014511 -1.380148
v 0.408238 -1.014511 -1.440148
v 0.408238 -0.994511 -1.440148
v 0.408238 -0.994511 -1.380148
v 0.408238 -1.014511 -1.380148
v -0.331762 -1.014511 -1.440148
v 0.408238 -1.014511 -1.440148
v 0.408238 -1.014511 -1.380148
v -0.331762 -1.014511 -1.380148
v 0.408238 -0.994511 -1.380148
v 0.408238 -0.994511 -1.440148
v -0.331762 -0.994511 -1.440148
v -0.331762 -0.994511 -1.380148
v 0.408238 -1.014511 -1.380148
v 0.408238 -0.994511 -1.380148
v -0.331762 -0.994511 -1.380148
v -0.331762 -1.014511 -1.380148
v -0.331762 -0.994511 -1.440148
v 0.408238 -0.994511 -1.440148
v 0.408238 -1.014511 -1.440148
v -0.331762 -1.014511 -1.440148
usemtl mat15

vn -1.000000 0.000000 -0.000000
vn -1.000000 0.000000 -0.000000
vn -1.000000 0.000000 -0.000000
vn -1.000000 0.000000 -0.000000
vn 1.000000 0.000000 0.000000
vn 1.000000 0.000000 0.000000
vn 1.000000 0.000000 0.000000
vn 1.000000 0.000000 0.000000
vn -0.000000 -1.000000 0.000000
vn -0.000000 -1.000000 0.000000
vn -0.000000 -1.000000 0.000000
vn -0.000000 -1.000000 0.000000
vn 0.000000 1.000000 -0.000000
vn 0.000000 1.000000 -0.000000
vn 0.000000 1.000000 -0.000000
vn 0.000000 1.000000 -0.000000
vn -0.000000 0.000000 1.000000
vn -0.000000 0.000000 1.000000
vn -0.000000 0.000000 1.000000
vn -0.000000 0.000000 1.000000
vn 0.000000 -0.000000 -1.000000
vn 0.000000 -0.000000 -1.000000
vn 0.000000 -0.000000 -1.000000
vn 0.000000 -0.000000 -1.000000

vt 0.069516 -0.013020
vt 0.074398 -0.009532
vt 0.075561 -0.011160
vt 0.070679 -0.014647
vt -0.075561 -0.011160
vt -0.074398 -0.009532
vt -0.069516 -0.013020
vt -0.070679 -0.014647
vt -0.073321 -0.041773
vt -0.048432 0.027916
vt -0.042782 0.025898
vt -0.067671 -0.043791
vt 0.042782 0.025898
vt 0.048432 0.027916
vt 0.073321 -0.041773
vt 0.067671 -0.043791
vt -0.051877 -0.014758
vt -0.050088 -0.013864
vt -0.016994 -0.080051
vt -0.018783 -0.080946
vt 0.016994 -0.080051
vt 0.050088 -0.013864
vt 0.051877 -0.014758
vt 0.018783 -0.080946
s off
f 1/1/1 2/2/2 3/3/3
f 1/1/1 3/3/3 4/4/4
f 5/5/5 6/6/6 7/7/7
f 5/5/5 7/7/7 8/8/8
f 9/9/9 10/10/10 11/11/11
f 9/9/9 11/11/11 12/12/12
f 13/13/13 14/14/14 15/15/15
f 13/13/13 15/15/15 16/16/16
f 17/17/17 18/18/18 19/19/19
f 17/17/17 19/19/19 20/20/20
f 21/21/21 22/22/22 23/23/23
f 21/21/21 23/23/23 24/24/24
