# Exported using automatic converter by Erwin Coumans
mtllib model6.mtl
#object group1604366400_2

v 2.930372 -0.912535 -0.255498
v 2.976067 -0.913295 -0.261679
v 2.975444 -0.951471 -0.261589
v 2.929749 -0.950712 -0.255408
v 2.928919 -1.001614 -0.255288
v 2.974614 -1.002373 -0.261469
v 3.017277 -1.003028 -0.243972
v 3.045478 -1.003402 -0.207485
v 3.051661 -1.003395 -0.161784
v 3.034167 -1.003010 -0.119116
v 2.997686 -1.002348 -0.090912
v 2.951992 -1.001589 -0.084731
v 2.909328 -1.000934 -0.102228
v 2.881127 -1.000560 -0.138716
v 2.874945 -1.000567 -0.184416
v 2.892438 -1.000952 -0.227085
v 2.976067 -0.913295 -0.261679
v 3.018730 -0.913949 -0.244182
v 3.018107 -0.952126 -0.244092
v 2.975444 -0.951471 -0.261589
v 3.046931 -0.914323 -0.207695
v 3.053113 -0.914316 -0.161994
v 3.052490 -0.952493 -0.161904
v 3.046308 -0.952500 -0.207605
v 3.053113 -0.914316 -0.161994
v 3.035620 -0.913931 -0.119326
v 3.034997 -0.952107 -0.119236
v 3.052490 -0.952493 -0.161904
v 3.035620 -0.913931 -0.119326
v 2.999138 -0.913269 -0.091122
v 2.998516 -0.951446 -0.091032
v 3.034997 -0.952107 -0.119236
v 2.999138 -0.913269 -0.091122
v 2.953444 -0.912510 -0.084941
v 2.952821 -0.950687 -0.084851
v 2.998516 -0.951446 -0.091032
v 2.953444 -0.912510 -0.084941
v 2.910780 -0.911855 -0.102438
v 2.910158 -0.950032 -0.102348
v 2.952821 -0.950687 -0.084851
v 2.910780 -0.911855 -0.102438
v 2.882580 -0.911481 -0.138925
v 2.881957 -0.949658 -0.138835
v 2.910158 -0.950032 -0.102348
v 2.882580 -0.911481 -0.138925
v 2.876397 -0.911488 -0.184626
v 2.875775 -0.949665 -0.184536
v 2.881957 -0.949658 -0.138835
v 2.876397 -0.911488 -0.184626
v 2.893890 -0.911874 -0.227295
v 2.893268 -0.950050 -0.227205
v 2.875775 -0.949665 -0.184536
v 2.893890 -0.911874 -0.227295
v 2.930372 -0.912535 -0.255498
v 2.929749 -0.950712 -0.255408
v 2.893268 -0.950050 -0.227205
v 2.933486 -0.721652 -0.255948
v 2.979180 -0.722412 -0.262129
v 2.978765 -0.747863 -0.262068
v 2.933070 -0.747103 -0.255887
v 2.979180 -0.722412 -0.262129
v 3.021843 -0.723066 -0.244631
v 3.021428 -0.748517 -0.244571
v 2.978765 -0.747863 -0.262068
v 3.050045 -0.723440 -0.208144
v 3.056227 -0.723433 -0.162444
v 3.055812 -0.748884 -0.162384
v 3.049629 -0.748891 -0.208084
v 3.056227 -0.723433 -0.162444
v 3.038734 -0.723048 -0.119775
v 3.038318 -0.748499 -0.119715
v 3.055812 -0.748884 -0.162384
v 3.038734 -0.723048 -0.119775
v 3.002252 -0.722386 -0.091572
v 3.001837 -0.747837 -0.091512
v 3.038318 -0.748499 -0.119715
v 3.002252 -0.722386 -0.091572
v 2.956558 -0.721627 -0.085391
v 2.956143 -0.747078 -0.085331
v 3.001837 -0.747837 -0.091512
v 2.956558 -0.721627 -0.085391
v 2.913894 -0.720972 -0.102888
v 2.913479 -0.746423 -0.102828
v 2.956143 -0.747078 -0.085331
v 2.913894 -0.720972 -0.102888
v 2.885693 -0.720598 -0.139375
v 2.885278 -0.746049 -0.139315
v 2.913479 -0.746423 -0.102828
v 2.885693 -0.720598 -0.139375
v 2.879511 -0.720605 -0.185076
v 2.879096 -0.746056 -0.185015
v 2.885278 -0.746049 -0.139315
v 2.879511 -0.720605 -0.185076
v 2.897004 -0.720990 -0.227745
v 2.896589 -0.746442 -0.227684
v 2.879096 -0.746056 -0.185015
v 2.897004 -0.720990 -0.227745
v 2.933486 -0.721652 -0.255948
v 2.933070 -0.747103 -0.255887
v 2.896589 -0.746442 -0.227684
v 2.897004 -0.720990 -0.227745
v 2.879511 -0.720605 -0.185076
v 2.885693 -0.720598 -0.139375
v 2.913894 -0.720972 -0.102888
v 2.956558 -0.721627 -0.085391
v 3.002252 -0.722386 -0.091572
v 3.038734 -0.723048 -0.119775
v 3.056227 -0.723433 -0.162444
v 3.050045 -0.723440 -0.208144
v 3.021843 -0.723066 -0.244631
v 2.979180 -0.722412 -0.262129
v 2.933486 -0.721652 -0.255948
usemtl mat23

vn -0.134054 -0.000153 -0.990974
vn -0.134054 -0.000153 -0.990974
vn -0.134054 -0.000153 -0.990974
vn -0.134054 -0.000153 -0.990974
vn -0.016304 -0.999864 0.002353
vn -0.016304 -0.999864 0.002353
vn -0.016304 -0.999864 0.002353
vn -0.016304 -0.999864 0.002353
vn -0.016304 -0.999864 0.002353
vn -0.016304 -0.999864 0.002353
vn -0.016304 -0.999864 0.002353
vn -0.016304 -0.999864 0.002353
vn -0.016304 -0.999864 0.002353
vn -0.016304 -0.999864 0.002353
vn -0.016304 -0.999864 0.002353
vn -0.016304 -0.999864 0.002353
vn 0.379322 -0.008374 -0.925227
vn 0.379322 -0.008374 -0.925227
vn 0.379322 -0.008374 -0.925227
vn 0.379322 -0.008374 -0.925227
vn 0.990840 -0.016478 -0.134034
vn 0.990840 -0.016478 -0.134034
vn 0.990840 -0.016478 -0.134034
vn 0.990840 -0.016478 -0.134034
vn 0.925122 -0.014194 0.379404
vn 0.925122 -0.014194 0.379404
vn 0.925122 -0.014194 0.379404
vn 0.925122 -0.014194 0.379404
vn 0.611511 -0.008107 0.791195
vn 0.611511 -0.008107 0.791195
vn 0.611511 -0.008107 0.791195
vn 0.611511 -0.008107 0.791195
vn 0.134051 0.000150 0.990974
vn 0.134051 0.000150 0.990974
vn 0.134051 0.000150 0.990974
vn 0.134051 0.000150 0.990974
vn -0.379322 0.008370 0.925227
vn -0.379322 0.008370 0.925227
vn -0.379322 0.008370 0.925227
vn -0.379322 0.008370 0.925227
vn -0.791067 0.014346 0.611561
vn -0.791067 0.014346 0.611561
vn -0.791067 0.014346 0.611561
vn -0.791067 0.014346 0.611561
vn -0.990839 0.016478 0.134036
vn -0.990839 0.016478 0.134036
vn -0.990839 0.016478 0.134036
vn -0.990839 0.016478 0.134036
vn -0.925122 0.014194 -0.379404
vn -0.925122 0.014194 -0.379404
vn -0.925122 0.014194 -0.379404
vn -0.925122 0.014194 -0.379404
vn -0.611510 0.008107 -0.791195
vn -0.611510 0.008107 -0.791195
vn -0.611510 0.008107 -0.791195
vn -0.611510 0.008107 -0.791195
vn -0.134049 -0.000157 -0.990975
vn -0.134049 -0.000157 -0.990975
vn -0.134049 -0.000157 -0.990975
vn -0.134049 -0.000157 -0.990975
vn 0.379322 -0.008374 -0.925227
vn 0.379322 -0.008374 -0.925227
vn 0.379322 -0.008374 -0.925227
vn 0.379322 -0.008374 -0.925227
vn 0.990839 -0.016481 -0.134039
vn 0.990839 -0.016481 -0.134039
vn 0.990839 -0.016481 -0.134039
vn 0.990839 -0.016481 -0.134039
vn 0.925122 -0.014195 0.379405
vn 0.925122 -0.014195 0.379405
vn 0.925122 -0.014195 0.379405
vn 0.925122 -0.014195 0.379405
vn 0.611512 -0.008106 0.791194
vn 0.611512 -0.008106 0.791194
vn 0.611512 -0.008106 0.791194
vn 0.611512 -0.008106 0.791194
vn 0.134043 0.000155 0.990975
vn 0.134043 0.000155 0.990975
vn 0.134043 0.000155 0.990975
vn 0.134043 0.000155 0.990975
vn -0.379322 0.008374 0.925227
vn -0.379322 0.008374 0.925227
vn -0.379322 0.008374 0.925227
vn -0.379322 0.008374 0.925227
vn -0.791067 0.014350 0.611561
vn -0.791067 0.014350 0.611561
vn -0.791067 0.014350 0.611561
vn -0.791067 0.014350 0.611561
vn -0.990839 0.016481 0.134043
vn -0.990839 0.016481 0.134043
vn -0.990839 0.016481 0.134043
vn -0.990839 0.016481 0.134043
vn -0.925121 0.014195 -0.379407
vn -0.925121 0.014195 -0.379407
vn -0.925121 0.014195 -0.379407
vn -0.925121 0.014195 -0.379407
vn -0.611510 0.008106 -0.791196
vn -0.611510 0.008106 -0.791196
vn -0.611510 0.008106 -0.791196
vn -0.611510 0.008106 -0.791196
vn 0.016304 0.999864 -0.002353
vn 0.016304 0.999864 -0.002353
vn 0.016304 0.999864 -0.002353
vn 0.016304 0.999864 -0.002353
vn 0.016304 0.999864 -0.002353
vn 0.016304 0.999864 -0.002353
vn 0.016304 0.999864 -0.002353
vn 0.016304 0.999864 -0.002353
vn 0.016304 0.999864 -0.002353
vn 0.016304 0.999864 -0.002353
vn 0.016304 0.999864 -0.002353
vn 0.016304 0.999864 -0.002353

vt 0.147588 0.207900
vt 0.149657 0.212022
vt 0.153069 0.210309
vt 0.151001 0.206187
vt 0.148449 0.226016
vt 0.149411 0.230526
vt 0.152500 0.233951
vt 0.156887 0.235373
vt 0.161397 0.234411
vt 0.164822 0.231323
vt 0.166244 0.226936
vt 0.165282 0.222425
vt 0.162194 0.219001
vt 0.157807 0.217578
vt 0.153296 0.218541
vt 0.149871 0.221629
vt 0.181809 0.204994
vt 0.184351 0.208842
vt 0.187537 0.206737
vt 0.184994 0.202889
vt 0.080895 -0.076403
vt 0.085139 -0.078207
vt 0.083646 -0.081721
vt 0.079401 -0.079917
vt -0.053125 0.007072
vt -0.050399 0.003352
vt -0.053479 0.001095
vt -0.056205 0.004815
vt -0.111954 0.132667
vt -0.109840 0.128568
vt -0.113233 0.126818
vt -0.115348 0.130916
vt -0.149657 0.212022
vt -0.147588 0.207900
vt -0.151001 0.206188
vt -0.153069 0.210310
vt -0.184351 0.208842
vt -0.181809 0.204994
vt -0.184994 0.202890
vt -0.187536 0.206737
vt -0.208394 0.085267
vt -0.204489 0.082813
vt -0.206521 0.079580
vt -0.210426 0.082034
vt -0.085140 -0.078207
vt -0.080896 -0.076403
vt -0.079402 -0.079917
vt -0.083646 -0.081721
vt 0.050399 0.003352
vt 0.053125 0.007072
vt 0.056205 0.004815
vt 0.053479 0.001095
vt 0.109840 0.128568
vt 0.111954 0.132667
vt 0.115348 0.130916
vt 0.113233 0.126818
vt 0.130526 0.216462
vt 0.132594 0.220584
vt 0.134869 0.219442
vt 0.132801 0.215320
vt 0.165881 0.215519
vt 0.168424 0.219367
vt 0.170547 0.217964
vt 0.168005 0.214116
vt 0.088365 -0.058832
vt 0.092609 -0.060636
vt 0.091614 -0.062979
vt 0.087369 -0.061175
vt -0.037727 0.018357
vt -0.035001 0.014638
vt -0.037054 0.013133
vt -0.039780 0.016853
vt -0.094988 0.141419
vt -0.092874 0.137321
vt -0.095136 0.136154
vt -0.097250 0.140252
vt -0.132595 0.220584
vt -0.130526 0.216463
vt -0.132801 0.215321
vt -0.134870 0.219443
vt -0.168424 0.219367
vt -0.165881 0.215519
vt -0.168005 0.214116
vt -0.170548 0.217963
vt -0.198238 0.101432
vt -0.194333 0.098978
vt -0.195687 0.096823
vt -0.199592 0.099276
vt -0.092611 -0.060636
vt -0.088367 -0.058832
vt -0.087371 -0.061175
vt -0.091615 -0.062979
vt 0.035001 0.014638
vt 0.037727 0.018358
vt 0.039780 0.016853
vt 0.037054 0.013133
vt 0.092874 0.137321
vt 0.094988 0.141419
vt 0.097251 0.140252
vt 0.095136 0.136154
vt -0.149871 0.221629
vt -0.153296 0.218541
vt -0.157807 0.217579
vt -0.162194 0.219001
vt -0.165282 0.222426
vt -0.166244 0.226936
vt -0.164822 0.231323
vt -0.161397 0.234411
vt -0.156887 0.235373
vt -0.152500 0.233951
vt -0.149411 0.230526
vt -0.148449 0.226016
s off
f 1/1/1 2/2/2 3/3/3
f 1/1/1 3/3/3 4/4/4
f 5/5/5 6/6/6 7/7/7
f 5/5/5 7/7/7 8/8/8
f 5/5/5 8/8/8 9/9/9
f 5/5/5 9/9/9 10/10/10
f 5/5/5 10/10/10 11/11/11
f 5/5/5 11/11/11 12/12/12
f 5/5/5 12/12/12 13/13/13
f 5/5/5 13/13/13 14/14/14
f 5/5/5 14/14/14 15/15/15
f 5/5/5 15/15/15 16/16/16
f 17/17/17 18/18/18 19/19/19
f 17/17/17 19/19/19 20/20/20
f 21/21/21 22/22/22 23/23/23
f 21/21/21 23/23/23 24/24/24
f 25/25/25 26/26/26 27/27/27
f 25/25/25 27/27/27 28/28/28
f 29/29/29 30/30/30 31/31/31
f 29/29/29 31/31/31 32/32/32
f 33/33/33 34/34/34 35/35/35
f 33/33/33 35/35/35 36/36/36
f 37/37/37 38/38/38 39/39/39
f 37/37/37 39/39/39 40/40/40
f 41/41/41 42/42/42 43/43/43
f 41/41/41 43/43/43 44/44/44
f 45/45/45 46/46/46 47/47/47
f 45/45/45 47/47/47 48/48/48
f 49/49/49 50/50/50 51/51/51
f 49/49/49 51/51/51 52/52/52
f 53/53/53 54/54/54 55/55/55
f 53/53/53 55/55/55 56/56/56
f 57/57/57 58/58/58 59/59/59
f 57/57/57 59/59/59 60/60/60
f 61/61/61 62/62/62 63/63/63
f 61/61/61 63/63/63 64/64/64
f 65/65/65 66/66/66 67/67/67
f 65/65/65 67/67/67 68/68/68
f 69/69/69 70/70/70 71/71/71
f 69/69/69 71/71/71 72/72/72
f 73/73/73 74/74/74 75/75/75
f 73/73/73 75/75/75 76/76/76
f 77/77/77 78/78/78 79/79/79
f 77/77/77 79/79/79 80/80/80
f 81/81/81 82/82/82 83/83/83
f 81/81/81 83/83/83 84/84/84
f 85/85/85 86/86/86 87/87/87
f 85/85/85 87/87/87 88/88/88
f 89/89/89 90/90/90 91/91/91
f 89/89/89 91/91/91 92/92/92
f 93/93/93 94/94/94 95/95/95
f 93/93/93 95/95/95 96/96/96
f 97/97/97 98/98/98 99/99/99
f 97/97/97 99/99/99 100/100/100
f 101/101/101 102/102/102 103/103/103
f 101/101/101 103/103/103 104/104/104
f 101/101/101 104/104/104 105/105/105
f 101/101/101 105/105/105 106/106/106
f 101/101/101 106/106/106 107/107/107
f 101/101/101 107/107/107 108/108/108
f 101/101/101 108/108/108 109/109/109
f 101/101/101 109/109/109 110/110/110
f 101/101/101 110/110/110 111/111/111
f 101/101/101 111/111/111 112/112/112
