# Exported using automatic converter by Erwin Coumans
mtllib model6.mtl
#object mesh58033271

v -2.421762 0.255489 1.009852
v -2.421762 0.385489 1.009852
v -2.451762 0.385489 1.009852
v -2.451762 0.255489 1.009852
v -2.451762 0.385489 0.979852
v -2.421762 0.385489 0.979852
v -2.421762 0.255489 0.979852
v -2.451762 0.255489 0.979852
v -2.451762 0.385489 1.009852
v -2.451762 0.385489 0.979852
v -2.451762 0.255489 0.979852
v -2.451762 0.255489 1.009852
v -2.421762 0.255489 0.979852
v -2.421762 0.385489 0.979852
v -2.421762 0.385489 1.009852
v -2.421762 0.255489 1.009852
v -2.451762 0.255489 0.979852
v -2.421762 0.255489 0.979852
v -2.421762 0.255489 1.009852
v -2.451762 0.255489 1.009852
v -2.421762 0.385489 1.009852
v -2.421762 0.385489 0.979852
v -2.451762 0.385489 0.979852
v -2.451762 0.385489 1.009852
usemtl mat15

vn 0.000000 0.000000 1.000000
vn 0.000000 0.000000 1.000000
vn 0.000000 0.000000 1.000000
vn 0.000000 0.000000 1.000000
vn 0.000000 0.000000 -1.000000
vn 0.000000 0.000000 -1.000000
vn 0.000000 0.000000 -1.000000
vn 0.000000 0.000000 -1.000000
vn -1.000000 0.000000 0.000000
vn -1.000000 0.000000 0.000000
vn -1.000000 0.000000 0.000000
vn -1.000000 0.000000 0.000000
vn 1.000000 0.000000 0.000000
vn 1.000000 0.000000 0.000000
vn 1.000000 0.000000 0.000000
vn 1.000000 0.000000 0.000000
vn 0.000000 -1.000000 0.000000
vn 0.000000 -1.000000 0.000000
vn 0.000000 -1.000000 0.000000
vn 0.000000 -1.000000 0.000000
vn 0.000000 1.000000 0.000000
vn 0.000000 1.000000 0.000000
vn 0.000000 1.000000 0.000000
vn 0.000000 1.000000 0.000000

vt 0.188277 -0.211085
vt 0.199905 -0.205271
vt 0.201246 -0.207954
vt 0.189619 -0.213768
vt -0.201246 -0.207954
vt -0.199905 -0.205271
vt -0.188277 -0.211085
vt -0.189619 -0.213768
vt -0.205177 -0.039640
vt -0.202736 -0.037897
vt -0.195180 -0.048475
vt -0.197621 -0.050219
vt 0.195180 -0.048475
vt 0.202736 -0.037897
vt 0.205177 -0.039640
vt 0.197621 -0.050219
vt 0.083277 -0.322816
vt 0.084286 -0.319990
vt 0.087111 -0.321000
vt 0.086102 -0.323825
vt -0.087111 -0.321000
vt -0.084286 -0.319990
vt -0.083277 -0.322816
vt -0.086102 -0.323825
s off
f 1/1/1 2/2/2 3/3/3
f 1/1/1 3/3/3 4/4/4
f 5/5/5 6/6/6 7/7/7
f 5/5/5 7/7/7 8/8/8
f 9/9/9 10/10/10 11/11/11
f 9/9/9 11/11/11 12/12/12
f 13/13/13 14/14/14 15/15/15
f 13/13/13 15/15/15 16/16/16
f 17/17/17 18/18/18 19/19/19
f 17/17/17 19/19/19 20/20/20
f 21/21/21 22/22/22 23/23/23
f 21/21/21 23/23/23 24/24/24
