# Exported using automatic converter by Erwin Coumans
mtllib model6.mtl
#object group1985477391_4

v 0.755185 -0.396387 -0.092201
v 0.734084 -0.397424 -0.090288
v 0.734442 -0.395939 -0.085527
v 0.755544 -0.394902 -0.087440
v 0.734084 -0.397424 -0.090288
v 0.735640 -0.417653 -0.084094
v 0.735998 -0.416168 -0.079334
v 0.734442 -0.395939 -0.085527
v 0.735640 -0.417653 -0.084094
v 0.756741 -0.416616 -0.086007
v 0.757099 -0.415131 -0.081246
v 0.735998 -0.416168 -0.079334
v 0.756741 -0.416616 -0.086007
v 0.755185 -0.396387 -0.092201
v 0.755544 -0.394902 -0.087440
v 0.757099 -0.415131 -0.081246
v 0.756741 -0.416616 -0.086007
v 0.735640 -0.417653 -0.084094
v 0.734084 -0.397424 -0.090288
v 0.755185 -0.396387 -0.092201
v 0.755544 -0.394902 -0.087440
v 0.734442 -0.395939 -0.085527
v 0.735998 -0.416168 -0.079334
v 0.757099 -0.415131 -0.081246
usemtl mat13

vn -0.073333 0.953610 -0.291978
vn -0.073333 0.953610 -0.291978
vn -0.073333 0.953610 -0.291978
vn -0.073333 0.953610 -0.291978
vn -0.994727 -0.048890 0.090157
vn -0.994727 -0.048890 0.090157
vn -0.994727 -0.048890 0.090157
vn -0.994727 -0.048890 0.090157
vn 0.073333 -0.953610 0.291978
vn 0.073333 -0.953610 0.291978
vn 0.073333 -0.953610 0.291978
vn 0.073333 -0.953610 0.291978
vn 0.994727 0.048890 -0.090157
vn 0.994727 0.048890 -0.090157
vn 0.994727 0.048890 -0.090157
vn 0.994727 0.048890 -0.090157
vn -0.071700 -0.297050 -0.952166
vn -0.071700 -0.297050 -0.952166
vn -0.071700 -0.297050 -0.952166
vn -0.071700 -0.297050 -0.952166
vn 0.071700 0.297050 0.952166
vn 0.071700 0.297050 0.952166
vn 0.071700 0.297050 0.952166
vn 0.071700 0.297050 0.952166

vt -0.085543 0.028190
vt -0.085303 0.026082
vt -0.085799 0.026025
vt -0.086040 0.028133
vt -0.075439 -0.036476
vt -0.074952 -0.038541
vt -0.075438 -0.038655
vt -0.075925 -0.036591
vt 0.085303 0.026082
vt 0.085543 0.028190
vt 0.086040 0.028133
vt 0.085799 0.026025
vt 0.074952 -0.038541
vt 0.075439 -0.036476
vt 0.075925 -0.036591
vt 0.075438 -0.038655
vt 0.034667 0.025119
vt 0.033745 0.023209
vt 0.031835 0.024132
vt 0.032757 0.026042
vt -0.032757 0.026042
vt -0.031835 0.024132
vt -0.033745 0.023209
vt -0.034667 0.025119
s off
f 1/1/1 2/2/2 3/3/3
f 1/1/1 3/3/3 4/4/4
f 5/5/5 6/6/6 7/7/7
f 5/5/5 7/7/7 8/8/8
f 9/9/9 10/10/10 11/11/11
f 9/9/9 11/11/11 12/12/12
f 13/13/13 14/14/14 15/15/15
f 13/13/13 15/15/15 16/16/16
f 17/17/17 18/18/18 19/19/19
f 17/17/17 19/19/19 20/20/20
f 21/21/21 22/22/22 23/23/23
f 21/21/21 23/23/23 24/24/24
