# Exported using automatic converter by Erwin Coumans
mtllib model6.mtl
#object mesh1826601032

v -0.375438 -0.934586 2.548904
v -0.380803 -0.943179 2.554869
v -0.366507 -0.937396 2.562129
v -0.361091 -0.928777 2.556250
v -0.380803 -0.943179 2.554869
v -0.374165 -0.952848 2.554069
v -0.359985 -0.947126 2.561138
v -0.366507 -0.937396 2.562129
v -0.374165 -0.952848 2.554069
v -0.364698 -0.950231 2.547610
v -0.350537 -0.944520 2.554645
v -0.359985 -0.947126 2.561138
v -0.364698 -0.950231 2.547610
v -0.365485 -0.938945 2.544418
v -0.351221 -0.933179 2.551625
v -0.350537 -0.944520 2.554645
v -0.365485 -0.938945 2.544418
v -0.375438 -0.934586 2.548904
v -0.361091 -0.928777 2.556250
v -0.351221 -0.933179 2.551625
v -0.365485 -0.938945 2.544418
v -0.364698 -0.950231 2.547610
v -0.374165 -0.952848 2.554069
v -0.380803 -0.943179 2.554869
v -0.375438 -0.934586 2.548904
v -0.304689 -0.945443 2.554614
v -0.310166 -0.954093 2.560391
v -0.303596 -0.963799 2.559478
v -0.294059 -0.961147 2.553137
v -0.294735 -0.949802 2.550131
v -0.335788 -0.940448 2.550218
v -0.335102 -0.951788 2.553241
v -0.350537 -0.944520 2.554645
v -0.351221 -0.933179 2.551625
v -0.335102 -0.951788 2.553241
v -0.344582 -0.954411 2.559680
v -0.359985 -0.947126 2.561138
v -0.350537 -0.944520 2.554645
v -0.344582 -0.954411 2.559680
v -0.351126 -0.944692 2.560636
v -0.366507 -0.937396 2.562129
v -0.359985 -0.947126 2.561138
v -0.351126 -0.944692 2.560636
v -0.345691 -0.936063 2.554788
v -0.361091 -0.928777 2.556250
v -0.366507 -0.937396 2.562129
v -0.345691 -0.936063 2.554788
v -0.335788 -0.940448 2.550218
v -0.351221 -0.933179 2.551625
v -0.361091 -0.928777 2.556250
v -0.322342 -0.944545 2.546950
v -0.321651 -0.955882 2.549982
v -0.335102 -0.951788 2.553241
v -0.335788 -0.940448 2.550218
v -0.321651 -0.955882 2.549982
v -0.331136 -0.958507 2.556411
v -0.344582 -0.954411 2.559680
v -0.335102 -0.951788 2.553241
v -0.331136 -0.958507 2.556411
v -0.337690 -0.948793 2.557352
v -0.351126 -0.944692 2.560636
v -0.344582 -0.954411 2.559680
v -0.337690 -0.948793 2.557352
v -0.332254 -0.940164 2.551505
v -0.345691 -0.936063 2.554788
v -0.351126 -0.944692 2.560636
v -0.332254 -0.940164 2.551505
v -0.322342 -0.944545 2.546950
v -0.335788 -0.940448 2.550218
v -0.345691 -0.936063 2.554788
v -0.309209 -0.949534 2.551586
v -0.308543 -0.960884 2.554574
v -0.321651 -0.955882 2.549982
v -0.322342 -0.944545 2.546950
v -0.308543 -0.960884 2.554574
v -0.318082 -0.963537 2.560913
v -0.331136 -0.958507 2.556411
v -0.321651 -0.955882 2.549982
v -0.318082 -0.963537 2.560913
v -0.324643 -0.953826 2.561841
v -0.337690 -0.948793 2.557352
v -0.331136 -0.958507 2.556411
v -0.324643 -0.953826 2.561841
v -0.319159 -0.945172 2.556077
v -0.332254 -0.940164 2.551505
v -0.337690 -0.948793 2.557352
v -0.319159 -0.945172 2.556077
v -0.309209 -0.949534 2.551586
v -0.322342 -0.944545 2.546950
v -0.332254 -0.940164 2.551505
v -0.294735 -0.949802 2.550131
v -0.294059 -0.961147 2.553137
v -0.308543 -0.960884 2.554574
v -0.309209 -0.949534 2.551586
v -0.294059 -0.961147 2.553137
v -0.303596 -0.963799 2.559478
v -0.318082 -0.963537 2.560913
v -0.308543 -0.960884 2.554574
v -0.303596 -0.963799 2.559478
v -0.310166 -0.954093 2.560391
v -0.324643 -0.953826 2.561841
v -0.318082 -0.963537 2.560913
v -0.310166 -0.954093 2.560391
v -0.304689 -0.945443 2.554614
v -0.319159 -0.945172 2.556077
v -0.324643 -0.953826 2.561841
v -0.304689 -0.945443 2.554614
v -0.294735 -0.949802 2.550131
v -0.309209 -0.949534 2.551586
v -0.319159 -0.945172 2.556077
usemtl mat22

vn -0.532284 0.680198 0.503988
vn -0.532284 0.680198 0.503988
vn -0.532284 0.680198 0.503988
vn -0.532284 0.680198 0.503988
vn -0.327096 -0.304539 0.894575
vn -0.327096 -0.304539 0.894575
vn -0.327096 -0.304539 0.894575
vn -0.327096 -0.304539 0.894575
vn 0.328541 -0.939063 0.101103
vn 0.328541 -0.939063 0.101103
vn 0.328541 -0.939063 0.101103
vn 0.328541 -0.939063 0.101103
vn 0.501933 -0.198500 -0.841820
vn 0.501933 -0.198500 -0.841820
vn 0.501933 -0.198500 -0.841820
vn 0.501933 -0.198500 -0.841820
vn 0.030189 0.752508 -0.657891
vn 0.030189 0.752508 -0.657891
vn 0.030189 0.752508 -0.657891
vn 0.030189 0.752508 -0.657891
vn -0.491111 -0.268577 -0.828659
vn -0.491111 -0.268577 -0.828659
vn -0.491111 -0.268577 -0.828659
vn -0.491111 -0.268577 -0.828659
vn -0.491111 -0.268577 -0.828659
vn 0.486703 0.250717 0.836816
vn 0.486703 0.250717 0.836816
vn 0.486703 0.250717 0.836816
vn 0.486703 0.250717 0.836816
vn 0.486703 0.250717 0.836816
vn -0.209850 -0.263550 -0.941544
vn -0.209850 -0.263550 -0.941544
vn -0.209850 -0.263550 -0.941544
vn -0.209850 -0.263550 -0.941544
vn -0.343032 -0.581846 -0.737417
vn -0.343032 -0.581846 -0.737417
vn -0.343032 -0.581846 -0.737417
vn -0.343032 -0.581846 -0.737417
vn 0.070807 -0.052206 0.996123
vn 0.070807 -0.052206 0.996123
vn 0.070807 -0.052206 0.996123
vn 0.070807 -0.052206 0.996123
vn 0.279162 0.413572 0.866618
vn 0.279162 0.413572 0.866618
vn 0.279162 0.413572 0.866618
vn 0.279162 0.413572 0.866618
vn 0.431010 0.899868 0.066841
vn 0.431010 0.899868 0.066841
vn 0.431010 0.899868 0.066841
vn 0.431010 0.899868 0.066841
vn -0.302406 -0.262987 -0.916182
vn -0.302406 -0.262987 -0.916182
vn -0.302406 -0.262987 -0.916182
vn -0.302406 -0.262987 -0.916182
vn -0.352631 -0.561307 -0.748723
vn -0.352631 -0.561307 -0.748723
vn -0.352631 -0.561307 -0.748723
vn -0.352631 -0.561307 -0.748723
vn 0.259182 0.080717 0.962450
vn 0.259182 0.080717 0.962450
vn 0.259182 0.080717 0.962450
vn 0.259182 0.080717 0.962450
vn 0.327370 0.380032 0.865104
vn 0.327370 0.380032 0.865104
vn 0.327370 0.380032 0.865104
vn 0.327370 0.380032 0.865104
vn 0.125998 0.837765 -0.531296
vn 0.125998 0.837765 -0.531296
vn 0.125998 0.837765 -0.531296
vn 0.125998 0.837765 -0.531296
vn 0.241469 -0.235385 -0.941428
vn 0.241469 -0.235385 -0.941428
vn 0.241469 -0.235385 -0.941428
vn 0.241469 -0.235385 -0.941428
vn -0.131319 -0.831657 -0.539538
vn -0.131319 -0.831657 -0.539538
vn -0.131319 -0.831657 -0.539538
vn -0.131319 -0.831657 -0.539538
vn -0.426363 -0.367410 0.826574
vn -0.426363 -0.367410 0.826574
vn -0.426363 -0.367410 0.826574
vn -0.426363 -0.367410 0.826574
vn -0.057832 0.581658 0.811375
vn -0.057832 0.581658 0.811375
vn -0.057832 0.581658 0.811375
vn -0.057832 0.581658 0.811375
vn 0.375978 0.924155 -0.067661
vn 0.375978 0.924155 -0.067661
vn 0.375978 0.924155 -0.067661
vn 0.375978 0.924155 -0.067661
vn -0.100715 -0.259621 -0.960445
vn -0.100715 -0.259621 -0.960445
vn -0.100715 -0.259621 -0.960445
vn -0.100715 -0.259621 -0.960445
vn -0.061965 -0.884128 -0.463118
vn -0.061965 -0.884128 -0.463118
vn -0.061965 -0.884128 -0.463118
vn -0.061965 -0.884128 -0.463118
vn 0.098552 -0.027714 0.994746
vn 0.098552 -0.027714 0.994746
vn 0.098552 -0.027714 0.994746
vn 0.098552 -0.027714 0.994746
vn 0.095505 0.509769 0.854994
vn 0.095505 0.509769 0.854994
vn 0.095505 0.509769 0.854994
vn 0.095505 0.509769 0.854994
vn -0.065321 0.639273 -0.766200
vn -0.065321 0.639273 -0.766200
vn -0.065321 0.639273 -0.766200
vn -0.065321 0.639273 -0.766200

vt -0.274672 -0.132094
vt -0.275182 -0.133153
vt -0.276272 -0.131843
vt -0.275770 -0.130780
vt 0.042127 0.070340
vt 0.040978 0.070588
vt 0.041054 0.072271
vt 0.042207 0.072043
vt 0.301956 -0.176410
vt 0.301623 -0.175282
vt 0.302747 -0.174032
vt 0.303084 -0.175158
vt 0.162064 0.007918
vt 0.161074 0.008553
vt 0.161759 0.010108
vt 0.162739 0.009458
vt -0.231876 -0.045363
vt -0.232560 -0.046319
vt -0.233406 -0.044829
vt -0.232709 -0.043882
vt 0.017006 -0.258853
vt 0.018055 -0.259386
vt 0.017872 -0.260547
vt 0.016711 -0.260733
vt 0.016176 -0.259686
vt -0.015902 -0.251684
vt -0.016433 -0.252733
vt -0.017594 -0.252552
vt -0.017781 -0.251392
vt -0.016735 -0.250855
vt 0.054987 -0.180346
vt 0.056043 -0.180863
vt 0.054690 -0.181911
vt 0.053634 -0.181395
vt 0.129651 -0.257283
vt 0.129600 -0.258458
vt 0.128294 -0.259562
vt 0.128343 -0.258387
vt 0.011951 -0.093457
vt 0.013112 -0.093637
vt 0.014434 -0.094720
vt 0.013272 -0.094543
vt -0.086790 -0.222645
vt -0.086205 -0.221625
vt -0.084862 -0.222683
vt -0.085447 -0.223703
vt -0.277513 -0.214198
vt -0.277682 -0.213035
vt -0.276919 -0.214567
vt -0.276756 -0.215731
vt 0.043401 -0.204551
vt 0.044456 -0.205069
vt 0.043493 -0.206144
vt 0.042438 -0.205626
vt 0.123263 -0.256323
vt 0.123202 -0.257497
vt 0.122300 -0.258624
vt 0.122361 -0.257450
vt -0.000470 -0.167941
vt 0.000693 -0.168114
vt 0.001660 -0.169185
vt 0.000497 -0.169012
vt -0.072268 -0.229436
vt -0.071693 -0.228411
vt -0.070744 -0.229499
vt -0.071320 -0.230523
vt -0.264750 -0.045280
vt -0.264168 -0.044259
vt -0.264613 -0.045631
vt -0.265197 -0.046652
vt 0.118616 -0.052829
vt 0.119648 -0.053393
vt 0.118426 -0.054223
vt 0.117393 -0.053662
vt 0.229552 -0.230127
vt 0.229641 -0.231299
vt 0.228408 -0.232099
vt 0.228311 -0.230927
vt 0.051660 0.118479
vt 0.052804 0.118206
vt 0.053658 0.117012
vt 0.052514 0.117283
vt -0.178328 -0.166745
vt -0.177731 -0.165732
vt -0.176470 -0.166497
vt -0.177072 -0.167506
vt -0.299104 -0.165388
vt -0.299096 -0.164213
vt -0.298137 -0.165339
vt -0.298153 -0.166515
vt 0.071735 -0.146627
vt 0.072790 -0.147146
vt 0.072083 -0.148419
vt 0.071029 -0.147898
vt 0.252653 -0.218461
vt 0.252784 -0.219629
vt 0.252176 -0.220952
vt 0.252045 -0.219783
vt 0.006147 -0.102247
vt 0.007309 -0.102426
vt 0.007960 -0.103727
vt 0.006798 -0.103549
vt -0.139386 -0.188003
vt -0.138788 -0.186991
vt -0.138073 -0.188258
vt -0.138671 -0.189270
vt -0.195147 -0.052064
vt -0.194384 -0.051169
vt -0.194711 -0.052587
vt -0.195474 -0.053481
s off
f 1/1/1 2/2/2 3/3/3
f 1/1/1 3/3/3 4/4/4
f 5/5/5 6/6/6 7/7/7
f 5/5/5 7/7/7 8/8/8
f 9/9/9 10/10/10 11/11/11
f 9/9/9 11/11/11 12/12/12
f 13/13/13 14/14/14 15/15/15
f 13/13/13 15/15/15 16/16/16
f 17/17/17 18/18/18 19/19/19
f 17/17/17 19/19/19 20/20/20
f 21/21/21 22/22/22 23/23/23
f 21/21/21 23/23/23 24/24/24
f 21/21/21 24/24/24 25/25/25
f 26/26/26 27/27/27 28/28/28
f 26/26/26 28/28/28 29/29/29
f 26/26/26 29/29/29 30/30/30
f 31/31/31 32/32/32 33/33/33
f 31/31/31 33/33/33 34/34/34
f 35/35/35 36/36/36 37/37/37
f 35/35/35 37/37/37 38/38/38
f 39/39/39 40/40/40 41/41/41
f 39/39/39 41/41/41 42/42/42
f 43/43/43 44/44/44 45/45/45
f 43/43/43 45/45/45 46/46/46
f 47/47/47 48/48/48 49/49/49
f 47/47/47 49/49/49 50/50/50
f 51/51/51 52/52/52 53/53/53
f 51/51/51 53/53/53 54/54/54
f 55/55/55 56/56/56 57/57/57
f 55/55/55 57/57/57 58/58/58
f 59/59/59 60/60/60 61/61/61
f 59/59/59 61/61/61 62/62/62
f 63/63/63 64/64/64 65/65/65
f 63/63/63 65/65/65 66/66/66
f 67/67/67 68/68/68 69/69/69
f 67/67/67 69/69/69 70/70/70
f 71/71/71 72/72/72 73/73/73
f 71/71/71 73/73/73 74/74/74
f 75/75/75 76/76/76 77/77/77
f 75/75/75 77/77/77 78/78/78
f 79/79/79 80/80/80 81/81/81
f 79/79/79 81/81/81 82/82/82
f 83/83/83 84/84/84 85/85/85
f 83/83/83 85/85/85 86/86/86
f 87/87/87 88/88/88 89/89/89
f 87/87/87 89/89/89 90/90/90
f 91/91/91 92/92/92 93/93/93
f 91/91/91 93/93/93 94/94/94
f 95/95/95 96/96/96 97/97/97
f 95/95/95 97/97/97 98/98/98
f 99/99/99 100/100/100 101/101/101
f 99/99/99 101/101/101 102/102/102
f 103/103/103 104/104/104 105/105/105
f 103/103/103 105/105/105 106/106/106
f 107/107/107 108/108/108 109/109/109
f 107/107/107 109/109/109 110/110/110
