# Exported using automatic converter by Erwin Coumans
mtllib model6.mtl
#object group1763463869_1

v 2.118237 -1.004511 -2.140148
v 1.808238 -1.004511 -2.140148
v 1.798237 -1.034511 -2.130148
v 2.148237 -1.034511 -2.130148
v 1.798238 -1.034511 -2.770149
v 2.128238 -0.994511 -2.760149
v 2.148238 -1.034511 -2.770148
v 1.798237 -1.034511 -2.130148
v 1.798238 -1.034511 -2.770149
v 2.148238 -1.034511 -2.770148
v 2.148237 -1.034511 -2.130148
v 2.128238 -0.994511 -2.760149
v 1.808238 -1.004511 -2.140148
v 2.118237 -1.004511 -2.140148
v 2.148238 -1.034511 -2.770148
v 2.128238 -0.994511 -2.760149
v 2.148237 -1.034511 -2.130148
v 1.798238 -1.004511 -2.750149
v 1.798238 -1.034511 -2.770149
v 1.798237 -1.034511 -2.130148
v 2.128238 -0.994511 -2.760149
v 2.118237 -1.004511 -2.140148
v 2.148237 -1.034511 -2.130148
v 1.798237 -1.034511 -2.130148
v 1.808238 -1.004511 -2.140148
v 1.798238 -1.004511 -2.750149
v 1.798238 -1.034511 -2.770149
v 1.798238 -1.004511 -2.750149
v 2.128238 -0.994511 -2.760149
v 2.128238 -0.994511 -2.760149
v 1.798238 -1.004511 -2.750149
v 1.808238 -1.004511 -2.140148
usemtl mat23

vn -0.000001 0.316228 0.948683
vn -0.000001 0.316228 0.948683
vn -0.000001 0.316228 0.948683
vn -0.000001 0.316228 0.948683
vn 0.000000 0.242536 -0.970142
vn 0.000000 0.242536 -0.970142
vn 0.000000 0.242536 -0.970142
vn 0.000000 -1.000000 0.000000
vn 0.000000 -1.000000 0.000000
vn 0.000000 -1.000000 0.000000
vn 0.000000 -1.000000 0.000000
vn -0.000000 0.999870 0.016127
vn -0.000000 0.999870 0.016127
vn -0.000000 0.999870 0.016127
vn 0.894427 0.447214 0.000000
vn 0.894427 0.447214 0.000000
vn 0.894427 0.447214 0.000000
vn -1.000000 0.000000 -0.000000
vn -1.000000 0.000000 -0.000000
vn -1.000000 0.000000 -0.000000
vn 0.703112 0.710714 0.022804
vn 0.703112 0.710714 0.022804
vn 0.703112 0.710714 0.022804
vn -0.947005 0.320845 0.015524
vn -0.947005 0.320845 0.015524
vn -0.947005 0.320845 0.015524
vn -0.041985 0.554211 -0.831316
vn -0.041985 0.554211 -0.831316
vn -0.041985 0.554211 -0.831316
vn -0.030274 0.999542 0.000496
vn -0.030274 0.999542 0.000496
vn -0.030274 0.999542 0.000496

vt -0.100113 0.151111
vt -0.084414 0.124380
vt -0.086635 0.121916
vt -0.104359 0.152096
vt 0.147078 0.101789
vt 0.155463 0.133971
vt 0.160034 0.134303
vt -0.066662 0.182025
vt -0.126933 0.203551
vt -0.115162 0.236512
vt -0.054890 0.214986
vt 0.112433 0.234810
vt 0.065163 0.183483
vt 0.054529 0.212602
vt -0.131481 0.188000
vt -0.127008 0.187000
vt -0.131481 0.124000
vt 0.181579 0.065796
vt 0.184950 0.064518
vt 0.132871 0.027318
vt 0.009395 0.250913
vt -0.033133 0.205776
vt -0.036907 0.207958
vt 0.113174 0.044466
vt 0.112832 0.047765
vt 0.168921 0.071765
vt 0.178865 0.119520
vt 0.175339 0.120271
vt 0.181947 0.152633
vt 0.116433 0.232242
vt 0.126458 0.200769
vt 0.068590 0.181448
s off
f 1/1/1 2/2/2 3/3/3
f 1/1/1 3/3/3 4/4/4
f 5/5/5 6/6/6 7/7/7
f 8/8/8 9/9/9 10/10/10
f 8/8/8 10/10/10 11/11/11
f 12/12/12 13/13/13 14/14/14
f 15/15/15 16/16/16 17/17/17
f 18/18/18 19/19/19 20/20/20
f 21/21/21 22/22/22 23/23/23
f 24/24/24 25/25/25 26/26/26
f 27/27/27 28/28/28 29/29/29
f 30/30/30 31/31/31 32/32/32
