# Exported using automatic converter by Erwin Coumans
mtllib model6.mtl
#object mesh793993243

v -2.021762 0.645489 -3.390149
v -2.001762 0.645489 -3.390149
v -2.001762 -0.914511 -3.390148
v -2.021762 -0.914511 -3.390148
v -2.001762 -0.914511 -3.370148
v -2.001762 0.645489 -3.370149
v -2.021762 0.645489 -3.370149
v -2.021762 -0.914511 -3.370148
v -2.001762 -0.914511 -3.390148
v -2.001762 -0.914511 -3.370148
v -2.021762 -0.914511 -3.370148
v -2.021762 -0.914511 -3.390148
v -2.021762 0.645489 -3.370149
v -2.001762 0.645489 -3.370149
v -2.001762 0.645489 -3.390149
v -2.021762 0.645489 -3.390149
v -2.021762 -0.914511 -3.370148
v -2.021762 0.645489 -3.370149
v -2.021762 0.645489 -3.390149
v -2.021762 -0.914511 -3.390148
v -2.001762 0.645489 -3.390149
v -2.001762 0.645489 -3.370149
v -2.001762 -0.914511 -3.370148
v -2.001762 -0.914511 -3.390148
usemtl mat22

vn -0.000000 -0.000000 -1.000000
vn -0.000000 -0.000000 -1.000000
vn -0.000000 -0.000000 -1.000000
vn -0.000000 -0.000000 -1.000000
vn 0.000000 0.000000 1.000000
vn 0.000000 0.000000 1.000000
vn 0.000000 0.000000 1.000000
vn 0.000000 0.000000 1.000000
vn -0.000000 -1.000000 0.000000
vn -0.000000 -1.000000 0.000000
vn -0.000000 -1.000000 0.000000
vn -0.000000 -1.000000 0.000000
vn 0.000000 1.000000 -0.000000
vn 0.000000 1.000000 -0.000000
vn 0.000000 1.000000 -0.000000
vn 0.000000 1.000000 -0.000000
vn -1.000000 0.000000 0.000000
vn -1.000000 0.000000 0.000000
vn -1.000000 0.000000 0.000000
vn -1.000000 0.000000 0.000000
vn 1.000000 -0.000000 -0.000000
vn 1.000000 -0.000000 -0.000000
vn 1.000000 -0.000000 -0.000000
vn 1.000000 -0.000000 -0.000000

vt -0.205271 -0.157866
vt -0.204377 -0.156077
vt -0.064846 -0.225843
vt -0.065740 -0.227632
vt 0.064846 -0.225843
vt 0.204377 -0.156077
vt 0.205271 -0.157866
vt 0.065740 -0.227632
vt -0.313129 -0.133458
vt -0.311246 -0.134131
vt -0.311918 -0.136014
vt -0.313802 -0.135342
vt 0.311918 -0.136014
vt 0.311246 -0.134131
vt 0.313129 -0.133458
vt 0.313802 -0.135342
vt 0.226799 0.109156
vt 0.136126 0.236099
vt 0.137754 0.237261
vt 0.228427 0.110319
vt -0.137754 0.237261
vt -0.136126 0.236099
vt -0.226799 0.109156
vt -0.228427 0.110319
s off
f 1/1/1 2/2/2 3/3/3
f 1/1/1 3/3/3 4/4/4
f 5/5/5 6/6/6 7/7/7
f 5/5/5 7/7/7 8/8/8
f 9/9/9 10/10/10 11/11/11
f 9/9/9 11/11/11 12/12/12
f 13/13/13 14/14/14 15/15/15
f 13/13/13 15/15/15 16/16/16
f 17/17/17 18/18/18 19/19/19
f 17/17/17 19/19/19 20/20/20
f 21/21/21 22/22/22 23/23/23
f 21/21/21 23/23/23 24/24/24
