# Exported using automatic converter by Erwin Coumans
mtllib botlab.mtl
#object mesh510561371

v -0.181270 0.293097 -3.050612
v -0.193619 0.286355 -3.049175
v -0.191059 0.318931 -3.047632
v -0.177002 0.320402 -3.048109
v -0.193619 0.286355 -3.049175
v -0.200465 0.298694 -3.050113
v -0.189514 0.305416 -3.043763
v -0.191059 0.318931 -3.047632
v -0.200465 0.298694 -3.050113
v -0.188116 0.305436 -3.051550
v -0.175456 0.306888 -3.044240
v -0.189514 0.305416 -3.043763
v -0.188116 0.305436 -3.051550
v -0.181270 0.293097 -3.050612
v -0.177002 0.320402 -3.048109
v -0.175456 0.306888 -3.044240
v -0.233425 0.334175 -0.272390
v -0.244400 0.327231 -0.277988
v -0.237837 0.314934 -0.275603
v -0.226862 0.321877 -0.270005
v -0.177002 0.320402 -3.048109
v -0.191059 0.318931 -3.047632
v -0.189514 0.305416 -3.043763
v -0.175456 0.306888 -3.044240
v -0.226862 0.321877 -0.270005
v -0.237837 0.314934 -0.275603
v -0.193619 0.286355 -3.049175
v -0.181270 0.293097 -3.050612
v -0.237837 0.314934 -0.275603
v -0.244400 0.327231 -0.277988
v -0.200465 0.298694 -3.050113
v -0.193619 0.286355 -3.049175
v -0.244400 0.327231 -0.277988
v -0.233425 0.334175 -0.272390
v -0.188116 0.305436 -3.051550
v -0.200465 0.298694 -3.050113
v -0.233425 0.334175 -0.272390
v -0.226862 0.321877 -0.270005
v -0.181270 0.293097 -3.050612
v -0.188116 0.305436 -3.051550
usemtl mat22

vn -0.096208 0.078036 -0.992297
vn -0.096208 0.078036 -0.992297
vn -0.096208 0.078036 -0.992297
vn -0.096208 0.078036 -0.992297
vn -0.511738 0.334851 -0.791201
vn -0.511738 0.334851 -0.791201
vn -0.511738 0.334851 -0.791201
vn -0.511738 0.334851 -0.791201
vn 0.300000 -0.952550 0.051467
vn 0.300000 -0.952550 0.051467
vn 0.300000 -0.952550 0.051467
vn 0.300000 -0.952550 0.051467
vn 0.497635 -0.527816 0.688310
vn 0.497635 -0.527816 0.688310
vn 0.497635 -0.527816 0.688310
vn 0.497635 -0.527816 0.688310
vn -0.427025 -0.052826 0.902695
vn -0.427025 -0.052826 0.902695
vn -0.427025 -0.052826 0.902695
vn -0.427025 -0.052826 0.902695
vn 0.003783 0.275582 0.961270
vn 0.003783 0.275582 0.961270
vn 0.003783 0.275582 0.961270
vn 0.003783 0.275582 0.961270
vn 0.503713 -0.863702 0.017064
vn 0.503713 -0.863702 0.017064
vn 0.503713 -0.863702 0.017064
vn 0.503713 -0.863702 0.017064
vn -0.877788 -0.478964 -0.009020
vn -0.877788 -0.478964 -0.009020
vn -0.877788 -0.478964 -0.009020
vn -0.877788 -0.478964 -0.009020
vn -0.503727 0.863695 -0.017009
vn -0.503727 0.863695 -0.017009
vn -0.503727 0.863695 -0.017009
vn -0.503727 0.863695 -0.017009
vn 0.877767 0.478996 0.009396
vn 0.877767 0.478996 0.009396
vn 0.877767 0.478996 0.009396
vn 0.877767 0.478996 0.009396

vt -0.066498 0.000151
vt -0.066413 -0.001259
vt -0.069271 0.000332
vt -0.068818 0.001670
vt 0.032939 0.067566
vt 0.031800 0.067581
vt 0.031179 0.068565
vt 0.030214 0.069171
vt -0.208842 0.039549
vt -0.208551 0.040904
vt -0.207491 0.041882
vt -0.207847 0.040542
vt -0.078154 0.054917
vt -0.079093 0.054957
vt -0.076969 0.056396
vt -0.077731 0.055846
vt 0.085064 0.025615
vt 0.085113 0.024201
vt 0.083700 0.024152
vt 0.083650 0.025565
vt 0.142396 0.027141
vt 0.142967 0.025847
vt 0.141673 0.025277
vt 0.141102 0.026571
vt 0.058893 -0.024794
vt 0.057963 -0.025858
vt -0.205420 0.061228
vt -0.205128 0.062611
vt -0.089089 -0.071626
vt -0.090501 -0.071540
vt -0.115992 0.204548
vt -0.114579 0.204608
vt -0.057770 -0.025739
vt -0.058700 -0.024675
vt 0.205190 0.062663
vt 0.205482 0.061280
vt 0.090525 -0.072096
vt 0.089113 -0.072182
vt 0.114595 0.204761
vt 0.116008 0.204701
s off
f 1/1/1 2/2/2 3/3/3
f 1/1/1 3/3/3 4/4/4
f 5/5/5 6/6/6 7/7/7
f 5/5/5 7/7/7 8/8/8
f 9/9/9 10/10/10 11/11/11
f 9/9/9 11/11/11 12/12/12
f 13/13/13 14/14/14 15/15/15
f 13/13/13 15/15/15 16/16/16
f 17/17/17 18/18/18 19/19/19
f 17/17/17 19/19/19 20/20/20
f 21/21/21 22/22/22 23/23/23
f 21/21/21 23/23/23 24/24/24
f 25/25/25 26/26/26 27/27/27
f 25/25/25 27/27/27 28/28/28
f 29/29/29 30/30/30 31/31/31
f 29/29/29 31/31/31 32/32/32
f 33/33/33 34/34/34 35/35/35
f 33/33/33 35/35/35 36/36/36
f 37/37/37 38/38/38 39/39/39
f 37/37/37 39/39/39 40/40/40
