# Exported using automatic converter by Erwin Coumans
mtllib model6.mtl
#object mesh2106397595

v 0.958627 -0.598643 2.669034
v 0.950126 -0.590161 2.653041
v 0.968191 -0.585037 2.646156
v 0.976692 -0.593519 2.662149
v 0.967013 -0.567665 2.655996
v 0.948948 -0.572788 2.662880
v 0.957449 -0.581271 2.678874
v 0.975514 -0.576147 2.671989
v 0.968191 -0.585037 2.646156
v 0.967013 -0.567665 2.655996
v 0.975514 -0.576147 2.671989
v 0.976692 -0.593519 2.662149
v 0.957449 -0.581271 2.678874
v 0.948948 -0.572788 2.662880
v 0.950126 -0.590161 2.653041
v 0.958627 -0.598643 2.669034
v 0.975514 -0.576147 2.671989
v 0.957449 -0.581271 2.678874
v 0.958627 -0.598643 2.669034
v 0.976692 -0.593519 2.662149
v 0.950126 -0.590161 2.653041
v 0.948948 -0.572788 2.662880
v 0.967013 -0.567665 2.655996
v 0.968191 -0.585037 2.646156
usemtl mat6

vn 0.058863 -0.868609 -0.491989
vn 0.058863 -0.868609 -0.491989
vn 0.058863 -0.868609 -0.491989
vn 0.058863 -0.868609 -0.491989
vn -0.058863 0.868609 0.491989
vn -0.058863 0.868609 0.491989
vn -0.058863 0.868609 0.491989
vn -0.058863 0.868609 0.491989
vn 0.903252 0.256192 -0.344239
vn 0.903252 0.256192 -0.344239
vn 0.903252 0.256192 -0.344239
vn 0.903252 0.256192 -0.344239
vn -0.903252 -0.256192 0.344239
vn -0.903252 -0.256192 0.344239
vn -0.903252 -0.256192 0.344239
vn -0.903252 -0.256192 0.344239
vn 0.425053 -0.424127 0.799654
vn 0.425053 -0.424127 0.799654
vn 0.425053 -0.424127 0.799654
vn 0.425053 -0.424127 0.799654
vn -0.425053 0.424127 -0.799654
vn -0.425053 0.424127 -0.799654
vn -0.425053 0.424127 -0.799654
vn -0.425053 0.424127 -0.799654

vt 0.312285 -0.086472
vt 0.310289 -0.086346
vt 0.310414 -0.084350
vt 0.312410 -0.084476
vt -0.310414 -0.084350
vt -0.310289 -0.086346
vt -0.312285 -0.086472
vt -0.312410 -0.084476
vt 0.351266 0.044012
vt 0.351950 0.045892
vt 0.353829 0.045208
vt 0.353146 0.043329
vt -0.353829 0.045208
vt -0.351950 0.045892
vt -0.351266 0.044012
vt -0.353146 0.043329
vt 0.172005 -0.035897
vt 0.172346 -0.037868
vt 0.170375 -0.038209
vt 0.170034 -0.036238
vt -0.170375 -0.038209
vt -0.172346 -0.037868
vt -0.172005 -0.035897
vt -0.170034 -0.036238
s off
f 1/1/1 2/2/2 3/3/3
f 1/1/1 3/3/3 4/4/4
f 5/5/5 6/6/6 7/7/7
f 5/5/5 7/7/7 8/8/8
f 9/9/9 10/10/10 11/11/11
f 9/9/9 11/11/11 12/12/12
f 13/13/13 14/14/14 15/15/15
f 13/13/13 15/15/15 16/16/16
f 17/17/17 18/18/18 19/19/19
f 17/17/17 19/19/19 20/20/20
f 21/21/21 22/22/22 23/23/23
f 21/21/21 23/23/23 24/24/24
