# Exported using automatic converter by Erwin Coumans
mtllib model6.mtl
#object group433369088_1

v 1.346107 -0.989569 1.405277
v 1.250434 -0.988534 1.409055
v 1.246342 -1.057723 1.399249
v 1.342014 -1.058758 1.395472
v 1.333362 -1.051196 1.316879
v 1.337454 -0.982007 1.326684
v 1.433127 -0.983043 1.322907
v 1.429035 -1.052232 1.313102
v 1.246342 -1.057723 1.399249
v 1.333362 -1.051196 1.316879
v 1.429035 -1.052232 1.313102
v 1.342014 -1.058758 1.395472
v 1.433127 -0.983043 1.322907
v 1.337454 -0.982007 1.326684
v 1.250434 -0.988534 1.409055
v 1.346107 -0.989569 1.405277
v 1.429035 -1.052232 1.313102
v 1.433127 -0.983043 1.322907
v 1.346107 -0.989569 1.405277
v 1.342014 -1.058758 1.395472
v 1.250434 -0.988534 1.409055
v 1.337454 -0.982007 1.326684
v 1.333362 -1.051196 1.316879
v 1.246342 -1.057723 1.399249
v 0.979055 -0.986461 1.407135
v 0.883524 -0.984581 1.413352
v 0.878838 -1.054211 1.407902
v 0.974370 -1.056091 1.401684
v 0.963667 -1.053276 1.323031
v 0.968353 -0.983646 1.328481
v 1.063884 -0.985525 1.322263
v 1.059199 -1.055156 1.316813
v 0.878838 -1.054211 1.407902
v 0.963667 -1.053276 1.323031
v 1.059199 -1.055156 1.316813
v 0.974370 -1.056091 1.401684
v 1.063884 -0.985525 1.322263
v 0.968353 -0.983646 1.328481
v 0.883524 -0.984581 1.413352
v 0.979055 -0.986461 1.407135
v 1.059199 -1.055156 1.316813
v 1.063884 -0.985525 1.322263
v 0.979055 -0.986461 1.407135
v 0.974370 -1.056091 1.401684
v 0.883524 -0.984581 1.413352
v 0.968353 -0.983646 1.328481
v 0.963667 -1.053276 1.323031
v 0.878838 -1.054211 1.407902
v 0.792927 -0.983203 1.407423
v 0.697756 -0.979933 1.417438
v 0.692119 -1.049659 1.414881
v 0.787290 -1.052929 1.404866
v 0.773398 -1.052994 1.326662
v 0.779034 -0.983268 1.329219
v 0.874205 -0.986539 1.319203
v 0.868569 -1.056265 1.316646
v 0.692119 -1.049659 1.414881
v 0.773398 -1.052994 1.326662
v 0.868569 -1.056265 1.316646
v 0.787290 -1.052929 1.404866
v 0.874205 -0.986539 1.319203
v 0.779034 -0.983268 1.329219
v 0.697756 -0.979933 1.417438
v 0.792927 -0.983203 1.407423
v 0.868569 -1.056265 1.316646
v 0.874205 -0.986539 1.319203
v 0.792927 -0.983203 1.407423
v 0.787290 -1.052929 1.404866
v 0.697756 -0.979933 1.417438
v 0.779034 -0.983268 1.329219
v 0.773398 -1.052994 1.326662
v 0.692119 -1.049659 1.414881
v 1.161652 -0.991686 1.405556
v 1.066265 -0.988507 1.413283
v 1.060452 -1.057954 1.406701
v 1.155839 -1.061132 1.398973
v 1.143984 -1.056779 1.320555
v 1.149796 -0.987333 1.327138
v 1.245184 -0.990511 1.319411
v 1.239371 -1.059958 1.312828
v 1.060452 -1.057954 1.406701
v 1.143984 -1.056779 1.320555
v 1.239371 -1.059958 1.312828
v 1.155839 -1.061132 1.398973
v 1.245184 -0.990511 1.319411
v 1.149796 -0.987333 1.327138
v 1.066265 -0.988507 1.413283
v 1.161652 -0.991686 1.405556
v 1.239371 -1.059958 1.312828
v 1.245184 -0.990511 1.319411
v 1.161652 -0.991686 1.405556
v 1.155839 -1.061132 1.398973
v 1.066265 -0.988507 1.413283
v 1.149796 -0.987333 1.327138
v 1.143984 -1.056779 1.320555
v 1.060452 -1.057954 1.406701
usemtl mat23

vn 0.037512 -0.142391 0.989100
vn 0.037512 -0.142391 0.989100
vn 0.037512 -0.142391 0.989100
vn 0.037512 -0.142391 0.989100
vn -0.037511 0.142391 -0.989099
vn -0.037511 0.142391 -0.989099
vn -0.037511 0.142391 -0.989099
vn -0.037511 0.142391 -0.989099
vn -0.014492 -0.995449 -0.094185
vn -0.014492 -0.995449 -0.094185
vn -0.014492 -0.995449 -0.094185
vn -0.014492 -0.995449 -0.094185
vn 0.014492 0.995449 0.094185
vn 0.014492 0.995449 0.094185
vn 0.014492 0.995449 0.094185
vn 0.014492 0.995449 0.094185
vn 0.686085 -0.141705 0.713587
vn 0.686085 -0.141705 0.713587
vn 0.686085 -0.141705 0.713587
vn 0.686085 -0.141705 0.713587
vn -0.686085 0.141705 -0.713587
vn -0.686085 0.141705 -0.713587
vn -0.686085 0.141705 -0.713587
vn -0.686085 0.141705 -0.713587
vn 0.063118 -0.082098 0.994624
vn 0.063118 -0.082098 0.994624
vn 0.063118 -0.082098 0.994624
vn 0.063118 -0.082098 0.994624
vn -0.063118 0.082098 -0.994624
vn -0.063118 0.082098 -0.994624
vn -0.063118 0.082098 -0.994624
vn -0.063118 0.082098 -0.994624
vn -0.021794 -0.999224 -0.032794
vn -0.021794 -0.999224 -0.032794
vn -0.021794 -0.999224 -0.032794
vn -0.021794 -0.999224 -0.032794
vn 0.021794 0.999224 0.032794
vn 0.021794 0.999224 0.032794
vn 0.021794 0.999224 0.032794
vn 0.021794 0.999224 0.032794
vn 0.704130 -0.102376 0.702652
vn 0.704130 -0.102376 0.702652
vn 0.704130 -0.102376 0.702652
vn 0.704130 -0.102376 0.702652
vn -0.704130 0.102376 -0.702652
vn -0.704130 0.102376 -0.702652
vn -0.704130 0.102376 -0.702652
vn -0.704130 0.102376 -0.702652
vn 0.103029 -0.044769 0.993670
vn 0.103029 -0.044769 0.993670
vn 0.103029 -0.044769 0.993670
vn 0.103029 -0.044769 0.993670
vn -0.103028 0.044769 -0.993671
vn -0.103028 0.044769 -0.993671
vn -0.103028 0.044769 -0.993671
vn -0.103028 0.044769 -0.993671
vn -0.033626 -0.999411 0.006806
vn -0.033626 -0.999411 0.006806
vn -0.033626 -0.999411 0.006806
vn -0.033626 -0.999411 0.006806
vn 0.033626 0.999411 -0.006806
vn 0.033626 0.999411 -0.006806
vn 0.033626 0.999411 -0.006806
vn 0.033626 0.999411 -0.006806
vn 0.731266 -0.083940 0.676908
vn 0.731266 -0.083940 0.676908
vn 0.731266 -0.083940 0.676908
vn 0.731266 -0.083940 0.676908
vn -0.731266 0.083940 -0.676908
vn -0.731266 0.083940 -0.676908
vn -0.731266 0.083940 -0.676908
vn -0.731266 0.083940 -0.676908
vn 0.077012 -0.100472 0.991955
vn 0.077012 -0.100472 0.991955
vn 0.077012 -0.100472 0.991955
vn 0.077012 -0.100472 0.991955
vn -0.077011 0.100472 -0.991955
vn -0.077011 0.100472 -0.991955
vn -0.077011 0.100472 -0.991955
vn -0.077011 0.100472 -0.991955
vn -0.037293 -0.998065 -0.049765
vn -0.037293 -0.998065 -0.049765
vn -0.037293 -0.998065 -0.049765
vn -0.037293 -0.998065 -0.049765
vn 0.037293 0.998065 0.049765
vn 0.037293 0.998065 0.049765
vn 0.037293 0.998065 0.049765
vn 0.037293 0.998065 0.049765
vn 0.713128 -0.125072 0.689786
vn 0.713128 -0.125072 0.689786
vn 0.713128 -0.125072 0.689786
vn 0.713128 -0.125072 0.689786
vn -0.713128 0.125072 -0.689786
vn -0.713128 0.125072 -0.689786
vn -0.713128 0.125072 -0.689786
vn -0.713128 0.125072 -0.689786

vt -0.053870 0.080042
vt -0.049890 0.071333
vt -0.056128 0.068158
vt -0.060108 0.076867
vt 0.060220 0.076197
vt 0.053982 0.079373
vt 0.057962 0.088082
vt 0.064200 0.084907
vt 0.251663 -0.000258
vt 0.247276 0.010911
vt 0.250531 0.019916
vt 0.254918 0.008747
vt -0.250948 0.020080
vt -0.247692 0.011075
vt -0.252079 -0.000095
vt -0.255334 0.008910
vt 0.016170 -0.073648
vt 0.022422 -0.070498
vt 0.027822 -0.081214
vt 0.021570 -0.084364
vt -0.030697 -0.087818
vt -0.025297 -0.077102
vt -0.019046 -0.080252
vt -0.024446 -0.090968
vt -0.050061 0.034516
vt -0.045856 0.025914
vt -0.052010 0.022577
vt -0.056215 0.031179
vt 0.056310 0.030507
vt 0.050156 0.033844
vt 0.054362 0.042446
vt 0.060515 0.039109
vt 0.237157 -0.027391
vt 0.232214 -0.016456
vt 0.235013 -0.007299
vt 0.239956 -0.018233
vt -0.235421 -0.007114
vt -0.232622 -0.016271
vt -0.237565 -0.027206
vt -0.240364 -0.018049
vt 0.020141 -0.107191
vt 0.026256 -0.103785
vt 0.032095 -0.114269
vt 0.025979 -0.117675
vt -0.035240 -0.120749
vt -0.029402 -0.110265
vt -0.023287 -0.113670
vt -0.029125 -0.124155
vt -0.046068 0.005318
vt -0.041678 -0.003191
vt -0.047758 -0.006660
vt -0.052148 0.001849
vt 0.052228 0.001175
vt 0.046148 0.004644
vt 0.050538 0.013154
vt 0.056618 0.009685
vt 0.230167 -0.040011
vt 0.224619 -0.029370
vt 0.226900 -0.020071
vt 0.232448 -0.030711
vt -0.227297 -0.019864
vt -0.225016 -0.029163
vt -0.230563 -0.039804
vt -0.232845 -0.030504
vt 0.026075 -0.127840
vt 0.032049 -0.124192
vt 0.038304 -0.134433
vt 0.032330 -0.138081
vt -0.041707 -0.140781
vt -0.035453 -0.130540
vt -0.029479 -0.134188
vt -0.035733 -0.144430
vt -0.052405 0.050034
vt -0.048128 0.041467
vt -0.054254 0.038079
vt -0.058530 0.046646
vt 0.058620 0.045973
vt 0.052494 0.049361
vt 0.056771 0.057928
vt 0.062896 0.054540
vt 0.244328 -0.012522
vt 0.239333 -0.001611
vt 0.242088 0.007560
vt 0.247083 -0.003351
vt -0.242495 0.007746
vt -0.239740 -0.001424
vt -0.244735 -0.012335
vt -0.247490 -0.003165
vt 0.021598 -0.095760
vt 0.027680 -0.092294
vt 0.033621 -0.102721
vt 0.027539 -0.106186
vt -0.036830 -0.109169
vt -0.030890 -0.098743
vt -0.024808 -0.102208
vt -0.030748 -0.112635
s off
f 1/1/1 2/2/2 3/3/3
f 1/1/1 3/3/3 4/4/4
f 5/5/5 6/6/6 7/7/7
f 5/5/5 7/7/7 8/8/8
f 9/9/9 10/10/10 11/11/11
f 9/9/9 11/11/11 12/12/12
f 13/13/13 14/14/14 15/15/15
f 13/13/13 15/15/15 16/16/16
f 17/17/17 18/18/18 19/19/19
f 17/17/17 19/19/19 20/20/20
f 21/21/21 22/22/22 23/23/23
f 21/21/21 23/23/23 24/24/24
f 25/25/25 26/26/26 27/27/27
f 25/25/25 27/27/27 28/28/28
f 29/29/29 30/30/30 31/31/31
f 29/29/29 31/31/31 32/32/32
f 33/33/33 34/34/34 35/35/35
f 33/33/33 35/35/35 36/36/36
f 37/37/37 38/38/38 39/39/39
f 37/37/37 39/39/39 40/40/40
f 41/41/41 42/42/42 43/43/43
f 41/41/41 43/43/43 44/44/44
f 45/45/45 46/46/46 47/47/47
f 45/45/45 47/47/47 48/48/48
f 49/49/49 50/50/50 51/51/51
f 49/49/49 51/51/51 52/52/52
f 53/53/53 54/54/54 55/55/55
f 53/53/53 55/55/55 56/56/56
f 57/57/57 58/58/58 59/59/59
f 57/57/57 59/59/59 60/60/60
f 61/61/61 62/62/62 63/63/63
f 61/61/61 63/63/63 64/64/64
f 65/65/65 66/66/66 67/67/67
f 65/65/65 67/67/67 68/68/68
f 69/69/69 70/70/70 71/71/71
f 69/69/69 71/71/71 72/72/72
f 73/73/73 74/74/74 75/75/75
f 73/73/73 75/75/75 76/76/76
f 77/77/77 78/78/78 79/79/79
f 77/77/77 79/79/79 80/80/80
f 81/81/81 82/82/82 83/83/83
f 81/81/81 83/83/83 84/84/84
f 85/85/85 86/86/86 87/87/87
f 85/85/85 87/87/87 88/88/88
f 89/89/89 90/90/90 91/91/91
f 89/89/89 91/91/91 92/92/92
f 93/93/93 94/94/94 95/95/95
f 93/93/93 95/95/95 96/96/96
