# Exported using automatic converter by Erwin Coumans
mtllib botlab.mtl
#object mesh302006132

v -1.651762 1.195489 -2.200148
v -1.653102 1.195489 -2.205148
v -1.653102 1.215489 -2.205148
v -1.651762 1.215489 -2.200148
v -1.653102 1.195489 -2.205148
v -1.656762 1.195489 -2.208808
v -1.656762 1.215489 -2.208808
v -1.653102 1.215489 -2.205148
v -1.656762 1.195489 -2.208808
v -1.661762 1.195489 -2.210148
v -1.661762 1.215489 -2.210148
v -1.656762 1.215489 -2.208808
v -1.661762 1.195489 -2.210148
v -1.666762 1.195489 -2.208808
v -1.666762 1.215489 -2.208808
v -1.661762 1.215489 -2.210148
v -1.666762 1.195489 -2.208808
v -1.670422 1.195489 -2.205148
v -1.670422 1.215489 -2.205148
v -1.666762 1.215489 -2.208808
v -1.670422 1.195489 -2.205148
v -1.671762 1.195489 -2.200148
v -1.671762 1.215489 -2.200148
v -1.670422 1.215489 -2.205148
v -1.671762 1.195489 -2.200148
v -1.670422 1.195489 -2.195148
v -1.670422 1.215489 -2.195148
v -1.671762 1.215489 -2.200148
v -1.670422 1.195489 -2.195148
v -1.666762 1.195489 -2.191488
v -1.666762 1.215489 -2.191488
v -1.670422 1.215489 -2.195148
v -1.666762 1.195489 -2.191488
v -1.661762 1.195489 -2.190148
v -1.661762 1.215489 -2.190148
v -1.666762 1.215489 -2.191488
v -1.661762 1.195489 -2.190148
v -1.656762 1.195489 -2.191488
v -1.656762 1.215489 -2.191488
v -1.661762 1.215489 -2.190148
v -1.656762 1.195489 -2.191488
v -1.653102 1.195489 -2.195148
v -1.653102 1.215489 -2.195148
v -1.656762 1.215489 -2.191488
v -1.653102 1.195489 -2.195148
v -1.651762 1.195489 -2.200148
v -1.651762 1.215489 -2.200148
v -1.653102 1.215489 -2.195148
v -1.651762 1.215489 -2.200148
v -1.653102 1.215489 -2.205148
v -1.656762 1.215489 -2.208808
v -1.661762 1.215489 -2.210148
v -1.666762 1.215489 -2.208808
v -1.670422 1.215489 -2.205148
v -1.671762 1.215489 -2.200148
v -1.670422 1.215489 -2.195148
v -1.666762 1.215489 -2.191488
v -1.661762 1.215489 -2.190148
v -1.656762 1.215489 -2.191488
v -1.653102 1.215489 -2.195148
v -1.653102 1.195489 -2.195148
v -1.656762 1.195489 -2.191488
v -1.661762 1.195489 -2.190148
v -1.666762 1.195489 -2.191488
v -1.670422 1.195489 -2.195148
v -1.671762 1.195489 -2.200148
v -1.670422 1.195489 -2.205148
v -1.666762 1.195489 -2.208808
v -1.661762 1.195489 -2.210148
v -1.656762 1.195489 -2.208808
v -1.653102 1.195489 -2.205148
v -1.651762 1.195489 -2.200148
usemtl mat14

vn 1.000000 -0.000000 -0.000000
vn 1.000000 -0.000000 -0.000000
vn 1.000000 -0.000000 -0.000000
vn 1.000000 -0.000000 -0.000000
vn 0.866025 -0.000000 -0.500000
vn 0.866025 -0.000000 -0.500000
vn 0.866025 -0.000000 -0.500000
vn 0.866025 -0.000000 -0.500000
vn 0.500000 -0.000000 -0.866026
vn 0.500000 -0.000000 -0.866026
vn 0.500000 -0.000000 -0.866026
vn 0.500000 -0.000000 -0.866026
vn -0.000000 0.000000 -1.000000
vn -0.000000 0.000000 -1.000000
vn -0.000000 0.000000 -1.000000
vn -0.000000 0.000000 -1.000000
vn -0.500000 0.000000 -0.866025
vn -0.500000 0.000000 -0.866025
vn -0.500000 0.000000 -0.866025
vn -0.500000 0.000000 -0.866025
vn -0.866025 0.000000 -0.500000
vn -0.866025 0.000000 -0.500000
vn -0.866025 0.000000 -0.500000
vn -0.866025 0.000000 -0.500000
vn -1.000000 0.000000 0.000000
vn -1.000000 0.000000 0.000000
vn -1.000000 0.000000 0.000000
vn -1.000000 0.000000 0.000000
vn -0.866025 0.000000 0.500000
vn -0.866025 0.000000 0.500000
vn -0.866025 0.000000 0.500000
vn -0.866025 0.000000 0.500000
vn -0.500000 0.000000 0.866026
vn -0.500000 0.000000 0.866026
vn -0.500000 0.000000 0.866026
vn -0.500000 0.000000 0.866026
vn 0.000000 -0.000000 1.000000
vn 0.000000 -0.000000 1.000000
vn 0.000000 -0.000000 1.000000
vn 0.000000 -0.000000 1.000000
vn 0.500000 -0.000000 0.866025
vn 0.500000 -0.000000 0.866025
vn 0.500000 -0.000000 0.866025
vn 0.500000 -0.000000 0.866025
vn 0.866026 -0.000000 0.500000
vn 0.866026 -0.000000 0.500000
vn 0.866026 -0.000000 0.500000
vn 0.866026 -0.000000 0.500000
vn 0.000000 1.000000 0.000000
vn 0.000000 1.000000 0.000000
vn 0.000000 1.000000 0.000000
vn 0.000000 1.000000 0.000000
vn 0.000000 1.000000 0.000000
vn 0.000000 1.000000 0.000000
vn 0.000000 1.000000 0.000000
vn 0.000000 1.000000 0.000000
vn 0.000000 1.000000 0.000000
vn 0.000000 1.000000 0.000000
vn 0.000000 1.000000 0.000000
vn 0.000000 1.000000 0.000000
vn -0.000000 -1.000000 0.000000
vn -0.000000 -1.000000 0.000000
vn -0.000000 -1.000000 0.000000
vn -0.000000 -1.000000 0.000000
vn -0.000000 -1.000000 0.000000
vn -0.000000 -1.000000 0.000000
vn -0.000000 -1.000000 0.000000
vn -0.000000 -1.000000 0.000000
vn -0.000000 -1.000000 0.000000
vn -0.000000 -1.000000 0.000000
vn -0.000000 -1.000000 0.000000
vn -0.000000 -1.000000 0.000000

vt -0.008951 0.212849
vt -0.009358 0.213140
vt -0.008196 0.214768
vt -0.007789 0.214477
vt -0.257904 0.081438
vt -0.258371 0.081260
vt -0.259084 0.083128
vt -0.258617 0.083306
vt -0.274742 -0.092127
vt -0.275036 -0.092531
vt -0.276654 -0.091355
vt -0.276359 -0.090950
vt -0.238365 -0.101070
vt -0.238588 -0.101517
vt -0.240377 -0.100623
vt -0.240154 -0.100176
vt -0.196915 -0.022273
vt -0.197131 -0.022724
vt -0.198934 -0.021861
vt -0.198719 -0.021410
vt -0.135065 0.101019
vt -0.135328 0.100593
vt -0.137030 0.101645
vt -0.136767 0.102070
vt 0.008951 0.212849
vt 0.008544 0.212559
vt 0.007382 0.214186
vt 0.007789 0.214477
vt 0.257904 0.081438
vt 0.257437 0.081616
vt 0.258150 0.083485
vt 0.258617 0.083306
vt 0.274742 -0.092127
vt 0.274448 -0.091722
vt 0.276065 -0.090546
vt 0.276359 -0.090950
vt 0.238365 -0.101070
vt 0.238141 -0.100623
vt 0.239930 -0.099729
vt 0.240154 -0.100176
vt 0.196915 -0.022273
vt 0.196699 -0.021822
vt 0.198503 -0.020959
vt 0.198719 -0.021410
vt 0.135065 0.101019
vt 0.134803 0.101444
vt 0.136504 0.102495
vt 0.136767 0.102070
vt 0.189290 -0.140521
vt 0.189806 -0.140479
vt 0.190274 -0.140701
vt 0.190568 -0.141127
vt 0.190610 -0.141643
vt 0.190389 -0.142110
vt 0.189963 -0.142405
vt 0.189447 -0.142447
vt 0.188979 -0.142225
vt 0.188685 -0.141799
vt 0.188643 -0.141283
vt 0.188864 -0.140816
vt -0.188864 -0.140816
vt -0.188643 -0.141283
vt -0.188685 -0.141799
vt -0.188979 -0.142225
vt -0.189447 -0.142447
vt -0.189963 -0.142405
vt -0.190389 -0.142110
vt -0.190610 -0.141643
vt -0.190568 -0.141127
vt -0.190274 -0.140701
vt -0.189806 -0.140479
vt -0.189290 -0.140521
s off
f 1/1/1 2/2/2 3/3/3
f 1/1/1 3/3/3 4/4/4
f 5/5/5 6/6/6 7/7/7
f 5/5/5 7/7/7 8/8/8
f 9/9/9 10/10/10 11/11/11
f 9/9/9 11/11/11 12/12/12
f 13/13/13 14/14/14 15/15/15
f 13/13/13 15/15/15 16/16/16
f 17/17/17 18/18/18 19/19/19
f 17/17/17 19/19/19 20/20/20
f 21/21/21 22/22/22 23/23/23
f 21/21/21 23/23/23 24/24/24
f 25/25/25 26/26/26 27/27/27
f 25/25/25 27/27/27 28/28/28
f 29/29/29 30/30/30 31/31/31
f 29/29/29 31/31/31 32/32/32
f 33/33/33 34/34/34 35/35/35
f 33/33/33 35/35/35 36/36/36
f 37/37/37 38/38/38 39/39/39
f 37/37/37 39/39/39 40/40/40
f 41/41/41 42/42/42 43/43/43
f 41/41/41 43/43/43 44/44/44
f 45/45/45 46/46/46 47/47/47
f 45/45/45 47/47/47 48/48/48
f 49/49/49 50/50/50 51/51/51
f 49/49/49 51/51/51 52/52/52
f 49/49/49 52/52/52 53/53/53
f 49/49/49 53/53/53 54/54/54
f 49/49/49 54/54/54 55/55/55
f 49/49/49 55/55/55 56/56/56
f 49/49/49 56/56/56 57/57/57
f 49/49/49 57/57/57 58/58/58
f 49/49/49 58/58/58 59/59/59
f 49/49/49 59/59/59 60/60/60
f 61/61/61 62/62/62 63/63/63
f 61/61/61 63/63/63 64/64/64
f 61/61/61 64/64/64 65/65/65
f 61/61/61 65/65/65 66/66/66
f 61/61/61 66/66/66 67/67/67
f 61/61/61 67/67/67 68/68/68
f 61/61/61 68/68/68 69/69/69
f 61/61/61 69/69/69 70/70/70
f 61/61/61 70/70/70 71/71/71
f 61/61/61 71/71/71 72/72/72
