# Exported using automatic converter by Erwin Coumans
mtllib model6.mtl
#object mesh367012641

v 2.846749 -0.693812 -2.166025
v 2.847979 -0.694133 -2.217127
v 2.860327 -1.000583 -2.214904
v 2.859097 -1.000262 -2.163802
v 2.898623 -0.999033 -2.213992
v 2.886275 -0.692584 -2.216215
v 2.885045 -0.692263 -2.165113
v 2.897394 -0.998712 -2.162890
v 2.860327 -1.000583 -2.214904
v 2.898623 -0.999033 -2.213992
v 2.897394 -0.998712 -2.162890
v 2.859097 -1.000262 -2.163802
v 2.885045 -0.692263 -2.165113
v 2.886275 -0.692584 -2.216215
v 2.847979 -0.694133 -2.217127
v 2.846749 -0.693812 -2.166025
v 2.897394 -0.998712 -2.162890
v 2.885045 -0.692263 -2.165113
v 2.846749 -0.693812 -2.166025
v 2.859097 -1.000262 -2.163802
v 2.847979 -0.694133 -2.217127
v 2.886275 -0.692584 -2.216215
v 2.898623 -0.999033 -2.213992
v 2.860327 -1.000583 -2.214904
usemtl mat23

vn -0.998900 -0.040423 -0.023783
vn -0.998900 -0.040423 -0.023783
vn -0.998900 -0.040423 -0.023783
vn -0.998900 -0.040423 -0.023783
vn 0.998900 0.040423 0.023783
vn 0.998900 0.040423 0.023783
vn 0.998900 0.040423 0.023783
vn 0.998900 0.040423 0.023783
vn 0.040262 -0.999163 0.007248
vn 0.040262 -0.999163 0.007248
vn 0.040262 -0.999163 0.007248
vn 0.040262 -0.999163 0.007248
vn -0.040262 0.999163 -0.007248
vn -0.040262 0.999163 -0.007248
vn -0.040262 0.999163 -0.007248
vn -0.040262 0.999163 -0.007248
vn -0.024056 0.006282 0.999691
vn -0.024056 0.006282 0.999691
vn -0.024056 0.006282 0.999691
vn -0.024056 0.006282 0.999691
vn 0.024056 -0.006282 -0.999691
vn 0.024056 -0.006282 -0.999691
vn 0.024056 -0.006282 -0.999691
vn 0.024056 -0.006282 -0.999691

vt 0.122672 0.061342
vt 0.126628 0.064579
vt 0.146051 0.040842
vt 0.142095 0.037605
vt -0.146051 0.040842
vt -0.126628 0.064579
vt -0.122672 0.061342
vt -0.142095 0.037605
vt -0.042636 0.282526
vt -0.041293 0.286116
vt -0.036505 0.284326
vt -0.037848 0.280735
vt 0.036505 0.284326
vt 0.041293 0.286116
vt 0.042636 0.282526
vt 0.037848 0.280735
vt -0.160759 0.205275
vt -0.132864 0.218025
vt -0.131270 0.214538
vt -0.159165 0.201788
vt 0.131270 0.214538
vt 0.132864 0.218025
vt 0.160759 0.205275
vt 0.159165 0.201788
s off
f 1/1/1 2/2/2 3/3/3
f 1/1/1 3/3/3 4/4/4
f 5/5/5 6/6/6 7/7/7
f 5/5/5 7/7/7 8/8/8
f 9/9/9 10/10/10 11/11/11
f 9/9/9 11/11/11 12/12/12
f 13/13/13 14/14/14 15/15/15
f 13/13/13 15/15/15 16/16/16
f 17/17/17 18/18/18 19/19/19
f 17/17/17 19/19/19 20/20/20
f 21/21/21 22/22/22 23/23/23
f 21/21/21 23/23/23 24/24/24
