# Exported using automatic converter by Erwin Coumans
mtllib botlab.mtl
#object mesh883628781

v 0.853796 -0.970741 2.526900
v 0.854678 -0.971181 2.538614
v 0.847790 -0.966947 2.525489
v 0.846908 -0.966472 2.513777
v 0.854678 -0.971181 2.538614
v 0.866097 -0.971046 2.541405
v 0.859209 -0.966788 2.528282
v 0.847790 -0.966947 2.525489
v 0.866097 -0.971046 2.541405
v 0.872272 -0.970523 2.531416
v 0.865383 -0.966213 2.518294
v 0.859209 -0.966788 2.528282
v 0.872272 -0.970523 2.531416
v 0.864670 -0.970334 2.522451
v 0.857781 -0.966018 2.509330
v 0.865383 -0.966213 2.518294
v 0.864670 -0.970334 2.522451
v 0.853796 -0.970741 2.526900
v 0.846908 -0.966472 2.513777
v 0.857781 -0.966018 2.509330
v 0.864670 -0.970334 2.522451
v 0.872272 -0.970523 2.531416
v 0.866097 -0.971046 2.541405
v 0.854678 -0.971181 2.538614
v 0.853796 -0.970741 2.526900
v 0.840421 -0.928079 2.497135
v 0.841309 -0.928876 2.508830
v 0.852731 -0.928973 2.511608
v 0.858903 -0.928237 2.501629
v 0.851294 -0.927684 2.492685
v 0.851701 -0.956779 2.499627
v 0.859304 -0.957036 2.508588
v 0.865383 -0.966213 2.518294
v 0.857781 -0.966018 2.509330
v 0.859304 -0.957036 2.508588
v 0.853131 -0.957642 2.518574
v 0.859209 -0.966788 2.528282
v 0.865383 -0.966213 2.518294
v 0.853131 -0.957642 2.518574
v 0.841712 -0.957760 2.515784
v 0.847790 -0.966947 2.525489
v 0.859209 -0.966788 2.528282
v 0.841712 -0.957760 2.515784
v 0.840828 -0.957226 2.504074
v 0.846908 -0.966472 2.513777
v 0.847790 -0.966947 2.525489
v 0.840828 -0.957226 2.504074
v 0.851701 -0.956779 2.499627
v 0.857781 -0.966018 2.509330
v 0.846908 -0.966472 2.513777
v 0.847549 -0.943699 2.491375
v 0.855155 -0.944080 2.500330
v 0.859304 -0.957036 2.508588
v 0.851701 -0.956779 2.499627
v 0.855155 -0.944080 2.500330
v 0.848983 -0.944762 2.510312
v 0.853131 -0.957642 2.518574
v 0.859304 -0.957036 2.508588
v 0.848983 -0.944762 2.510312
v 0.837562 -0.944802 2.507526
v 0.841712 -0.957760 2.515784
v 0.853131 -0.957642 2.518574
v 0.837562 -0.944802 2.507526
v 0.836676 -0.944145 2.495822
v 0.840828 -0.957226 2.504074
v 0.841712 -0.957760 2.515784
v 0.836676 -0.944145 2.495822
v 0.847549 -0.943699 2.491375
v 0.851701 -0.956779 2.499627
v 0.840828 -0.957226 2.504074
v 0.851294 -0.927684 2.492685
v 0.858903 -0.928237 2.501629
v 0.855155 -0.944080 2.500330
v 0.847549 -0.943699 2.491375
v 0.858903 -0.928237 2.501629
v 0.852731 -0.928973 2.511608
v 0.848983 -0.944762 2.510312
v 0.855155 -0.944080 2.500330
v 0.852731 -0.928973 2.511608
v 0.841309 -0.928876 2.508830
v 0.837562 -0.944802 2.507526
v 0.848983 -0.944762 2.510312
v 0.841309 -0.928876 2.508830
v 0.840421 -0.928079 2.497135
v 0.836676 -0.944145 2.495822
v 0.837562 -0.944802 2.507526
v 0.840421 -0.928079 2.497135
v 0.851294 -0.927684 2.492685
v 0.847549 -0.943699 2.491375
v 0.836676 -0.944145 2.495822
usemtl mat20

vn -0.535246 -0.844665 0.007284
vn -0.535246 -0.844665 0.007284
vn -0.535246 -0.844665 0.007284
vn -0.535246 -0.844665 0.007284
vn -0.098210 0.930589 0.352644
vn -0.098210 0.930589 0.352644
vn -0.098210 0.930589 0.352644
vn -0.098210 0.930589 0.352644
vn 0.226745 0.954711 0.192649
vn 0.226745 0.954711 0.192649
vn 0.226745 0.954711 0.192649
vn 0.226745 0.954711 0.192649
vn 0.591034 -0.621243 -0.514526
vn 0.591034 -0.621243 -0.514526
vn 0.591034 -0.621243 -0.514526
vn 0.591034 -0.621243 -0.514526
vn -0.074381 -0.958685 -0.274575
vn -0.074381 -0.958685 -0.274575
vn -0.074381 -0.958685 -0.274575
vn -0.074381 -0.958685 -0.274575
vn 0.021367 -0.999005 -0.039157
vn 0.021367 -0.999005 -0.039157
vn 0.021367 -0.999005 -0.039157
vn 0.021367 -0.999005 -0.039157
vn 0.021367 -0.999005 -0.039157
vn -0.008163 0.997614 0.068550
vn -0.008163 0.997614 0.068550
vn -0.008163 0.997614 0.068550
vn -0.008163 0.997614 0.068550
vn -0.008163 0.997614 0.068550
vn 0.747933 -0.179669 -0.638995
vn 0.747933 -0.179669 -0.638995
vn 0.747933 -0.179669 -0.638995
vn 0.747933 -0.179669 -0.638995
vn 0.536814 0.755034 0.376502
vn 0.536814 0.755034 0.376502
vn 0.536814 0.755034 0.376502
vn 0.536814 0.755034 0.376502
vn -0.187315 0.652923 0.733897
vn -0.187315 0.652923 0.733897
vn -0.187315 0.652923 0.733897
vn -0.187315 0.652923 0.733897
vn -0.853796 -0.518908 0.042027
vn -0.853796 -0.518908 0.042027
vn -0.853796 -0.518908 0.042027
vn -0.853796 -0.518908 0.042027
vn -0.213589 -0.770722 -0.600307
vn -0.213589 -0.770722 -0.600307
vn -0.213589 -0.770722 -0.600307
vn -0.213589 -0.770722 -0.600307
vn 0.748527 -0.168101 -0.641444
vn 0.748527 -0.168101 -0.641444
vn 0.748527 -0.168101 -0.641444
vn 0.748527 -0.168101 -0.641444
vn 0.706640 0.528076 0.470953
vn 0.706640 0.528076 0.470953
vn 0.706640 0.528076 0.470953
vn 0.706640 0.528076 0.470953
vn -0.211519 0.477359 0.852871
vn -0.211519 0.477359 0.852871
vn -0.211519 0.477359 0.852871
vn -0.211519 0.477359 0.852871
vn -0.961316 -0.269056 0.058999
vn -0.961316 -0.269056 0.058999
vn -0.961316 -0.269056 0.058999
vn -0.961316 -0.269056 0.058999
vn -0.289464 -0.574738 -0.765433
vn -0.289464 -0.574738 -0.765433
vn -0.289464 -0.574738 -0.765433
vn -0.289464 -0.574738 -0.765433
vn 0.752837 -0.124135 -0.646396
vn 0.752837 -0.124135 -0.646396
vn 0.752837 -0.124135 -0.646396
vn 0.752837 -0.124135 -0.646396
vn 0.833477 -0.238386 0.498486
vn 0.833477 -0.238386 0.498486
vn 0.833477 -0.238386 0.498486
vn 0.833477 -0.238386 0.498486
vn -0.236625 -0.023695 0.971312
vn -0.236625 -0.023695 0.971312
vn -0.236625 -0.023695 0.971312
vn -0.236625 -0.023695 0.971312
vn -0.971504 0.220339 0.087357
vn -0.971504 0.220339 0.087357
vn -0.971504 0.220339 0.087357
vn -0.971504 0.220339 0.087357
vn -0.379006 0.162952 -0.910934
vn -0.379006 0.162952 -0.910934
vn -0.379006 0.162952 -0.910934
vn -0.379006 0.162952 -0.910934

vt 0.329455 -0.115568
vt 0.330507 -0.116092
vt 0.328966 -0.116102
vt 0.327913 -0.115580
vt -0.330096 -0.094970
vt -0.330836 -0.094056
vt -0.329294 -0.094063
vt -0.328554 -0.094977
vt -0.330754 -0.113104
vt -0.330162 -0.112089
vt -0.328618 -0.112095
vt -0.329212 -0.113110
vt 0.329727 -0.035128
vt 0.328622 -0.035527
vt 0.327078 -0.035531
vt 0.328184 -0.035132
vt 0.328938 -0.105291
vt 0.328847 -0.106463
vt 0.327304 -0.106468
vt 0.327395 -0.105296
vt 0.340478 -0.068320
vt 0.341583 -0.067920
vt 0.342305 -0.068849
vt 0.341645 -0.069822
vt 0.340516 -0.069495
vt -0.337001 -0.074204
vt -0.338126 -0.074546
vt -0.338799 -0.073582
vt -0.338090 -0.072644
vt -0.336979 -0.073028
vt 0.293837 0.075514
vt 0.294874 0.076069
vt 0.296319 0.075813
vt 0.295285 0.075253
vt -0.247939 -0.210851
vt -0.248210 -0.211994
vt -0.249659 -0.212219
vt -0.249390 -0.211075
vt -0.273079 -0.055859
vt -0.272321 -0.056757
vt -0.273779 -0.056927
vt -0.274535 -0.056027
vt 0.162483 -0.307643
vt 0.162062 -0.306545
vt 0.163398 -0.307161
vt 0.163815 -0.308260
vt 0.259699 -0.144574
vt 0.259969 -0.143430
vt 0.261429 -0.143611
vt 0.261159 -0.144755
vt 0.290565 0.080228
vt 0.291603 0.080781
vt 0.293036 0.080089
vt 0.292004 0.079526
vt -0.135069 -0.267429
vt -0.135025 -0.268603
vt -0.136487 -0.269217
vt -0.136537 -0.268043
vt -0.233545 -0.016828
vt -0.232808 -0.017743
vt -0.234330 -0.018207
vt -0.235063 -0.017287
vt -0.153297 -0.310680
vt -0.152679 -0.309680
vt -0.152055 -0.311155
vt -0.152683 -0.312148
vt 0.191045 -0.146713
vt 0.191406 -0.145594
vt 0.192937 -0.146065
vt 0.192576 -0.147184
vt 0.283482 0.096470
vt 0.284511 0.097038
vt 0.285055 0.095498
vt 0.284034 0.094915
vt 0.170340 -0.200385
vt 0.171007 -0.201353
vt 0.169781 -0.202424
vt 0.169110 -0.201459
vt -0.096477 0.099272
vt -0.095904 0.098246
vt -0.097111 0.097134
vt -0.097673 0.098167
vt -0.308303 -0.155818
vt -0.307232 -0.155332
vt -0.306504 -0.156818
vt -0.307580 -0.157291
vt -0.044176 -0.068686
vt -0.043709 -0.067607
vt -0.042369 -0.068569
vt -0.042831 -0.069650
s off
f 1/1/1 2/2/2 3/3/3
f 1/1/1 3/3/3 4/4/4
f 5/5/5 6/6/6 7/7/7
f 5/5/5 7/7/7 8/8/8
f 9/9/9 10/10/10 11/11/11
f 9/9/9 11/11/11 12/12/12
f 13/13/13 14/14/14 15/15/15
f 13/13/13 15/15/15 16/16/16
f 17/17/17 18/18/18 19/19/19
f 17/17/17 19/19/19 20/20/20
f 21/21/21 22/22/22 23/23/23
f 21/21/21 23/23/23 24/24/24
f 21/21/21 24/24/24 25/25/25
f 26/26/26 27/27/27 28/28/28
f 26/26/26 28/28/28 29/29/29
f 26/26/26 29/29/29 30/30/30
f 31/31/31 32/32/32 33/33/33
f 31/31/31 33/33/33 34/34/34
f 35/35/35 36/36/36 37/37/37
f 35/35/35 37/37/37 38/38/38
f 39/39/39 40/40/40 41/41/41
f 39/39/39 41/41/41 42/42/42
f 43/43/43 44/44/44 45/45/45
f 43/43/43 45/45/45 46/46/46
f 47/47/47 48/48/48 49/49/49
f 47/47/47 49/49/49 50/50/50
f 51/51/51 52/52/52 53/53/53
f 51/51/51 53/53/53 54/54/54
f 55/55/55 56/56/56 57/57/57
f 55/55/55 57/57/57 58/58/58
f 59/59/59 60/60/60 61/61/61
f 59/59/59 61/61/61 62/62/62
f 63/63/63 64/64/64 65/65/65
f 63/63/63 65/65/65 66/66/66
f 67/67/67 68/68/68 69/69/69
f 67/67/67 69/69/69 70/70/70
f 71/71/71 72/72/72 73/73/73
f 71/71/71 73/73/73 74/74/74
f 75/75/75 76/76/76 77/77/77
f 75/75/75 77/77/77 78/78/78
f 79/79/79 80/80/80 81/81/81
f 79/79/79 81/81/81 82/82/82
f 83/83/83 84/84/84 85/85/85
f 83/83/83 85/85/85 86/86/86
f 87/87/87 88/88/88 89/89/89
f 87/87/87 89/89/89 90/90/90
