# Exported using automatic converter by Erwin Coumans
mtllib botlab.mtl
#object mesh145494998

v -1.243050 -0.432076 -2.803228
v -1.245495 -0.413401 -2.809956
v -1.229263 -0.415422 -2.821465
v -1.226818 -0.434096 -2.814736
v -1.217838 -0.408554 -2.806556
v -1.234069 -0.406533 -2.795047
v -1.231624 -0.425208 -2.788319
v -1.215392 -0.427229 -2.799827
v -1.229263 -0.415422 -2.821465
v -1.217838 -0.408554 -2.806556
v -1.215392 -0.427229 -2.799827
v -1.226818 -0.434096 -2.814736
v -1.231624 -0.425208 -2.788319
v -1.234069 -0.406533 -2.795047
v -1.245495 -0.413401 -2.809956
v -1.243050 -0.432076 -2.803228
v -1.215392 -0.427229 -2.799827
v -1.231624 -0.425208 -2.788319
v -1.243050 -0.432076 -2.803228
v -1.226818 -0.434096 -2.814736
v -1.245495 -0.413401 -2.809956
v -1.234069 -0.406533 -2.795047
v -1.217838 -0.408554 -2.806556
v -1.229263 -0.415422 -2.821465
usemtl mat12

vn -0.571288 -0.343394 -0.745461
vn -0.571288 -0.343394 -0.745461
vn -0.571288 -0.343394 -0.745461
vn -0.571288 -0.343394 -0.745461
vn 0.571288 0.343394 0.745461
vn 0.571288 0.343394 0.745461
vn 0.571288 0.343394 0.745461
vn 0.571288 0.343394 0.745461
vn 0.811590 -0.101034 -0.575425
vn 0.811590 -0.101034 -0.575425
vn 0.811590 -0.101034 -0.575425
vn 0.811590 -0.101034 -0.575425
vn -0.811590 0.101034 0.575425
vn -0.811590 0.101034 0.575425
vn -0.811590 0.101034 0.575425
vn -0.811590 0.101034 0.575425
vn 0.122281 -0.933741 0.336414
vn 0.122281 -0.933741 0.336414
vn 0.122281 -0.933741 0.336414
vn 0.122281 -0.933741 0.336414
vn -0.122281 0.933741 -0.336414
vn -0.122281 0.933741 -0.336414
vn -0.122281 0.933741 -0.336414
vn -0.122281 0.933741 -0.336414

vt -0.086595 0.023497
vt -0.088397 0.024363
vt -0.087530 0.026166
vt -0.085728 0.025299
vt 0.087530 0.026166
vt 0.088397 0.024363
vt 0.086595 0.023497
vt 0.085728 0.025299
vt -0.224759 -0.101312
vt -0.223363 -0.099880
vt -0.221931 -0.101276
vt -0.223327 -0.102708
vt 0.221931 -0.101276
vt 0.223363 -0.099880
vt 0.224759 -0.101312
vt 0.223327 -0.102708
vt -0.197627 -0.113473
vt -0.196742 -0.115267
vt -0.198536 -0.116152
vt -0.199420 -0.114358
vt 0.198536 -0.116152
vt 0.196742 -0.115267
vt 0.197627 -0.113473
vt 0.199420 -0.114358
s off
f 1/1/1 2/2/2 3/3/3
f 1/1/1 3/3/3 4/4/4
f 5/5/5 6/6/6 7/7/7
f 5/5/5 7/7/7 8/8/8
f 9/9/9 10/10/10 11/11/11
f 9/9/9 11/11/11 12/12/12
f 13/13/13 14/14/14 15/15/15
f 13/13/13 15/15/15 16/16/16
f 17/17/17 18/18/18 19/19/19
f 17/17/17 19/19/19 20/20/20
f 21/21/21 22/22/22 23/23/23
f 21/21/21 23/23/23 24/24/24
