# Exported using automatic converter by Erwin Coumans
mtllib model6.mtl
#object group53658737_1

v 1.810892 -0.988106 1.408424
v 1.715201 -0.986294 1.411333
v 1.710693 -1.055710 1.403513
v 1.806384 -1.057521 1.400603
v 1.798458 -1.052197 1.321751
v 1.802965 -0.982782 1.329571
v 1.898656 -0.984593 1.326661
v 1.894149 -1.054009 1.318841
v 1.710693 -1.055710 1.403513
v 1.798458 -1.052197 1.321751
v 1.894149 -1.054009 1.318841
v 1.806384 -1.057521 1.400603
v 1.898656 -0.984593 1.326661
v 1.802965 -0.982782 1.329571
v 1.715201 -0.986294 1.411333
v 1.810892 -0.988106 1.408424
v 1.894149 -1.054009 1.318841
v 1.898656 -0.984593 1.326661
v 1.810892 -0.988106 1.408424
v 1.806384 -1.057521 1.400603
v 1.715201 -0.986294 1.411333
v 1.802965 -0.982782 1.329571
v 1.798458 -1.052197 1.321751
v 1.710693 -1.055710 1.403513
v 2.177863 -0.990901 1.408904
v 2.082119 -0.989732 1.409372
v 2.078265 -1.058562 1.397220
v 2.174010 -1.059731 1.396751
v 2.168122 -1.049639 1.318187
v 2.171975 -0.980809 1.330339
v 2.267720 -0.981978 1.329871
v 2.263866 -1.050807 1.317718
v 2.078265 -1.058562 1.397220
v 2.168122 -1.049639 1.318187
v 2.263866 -1.050807 1.317718
v 2.174010 -1.059731 1.396751
v 2.267720 -0.981978 1.329871
v 2.171975 -0.980809 1.330339
v 2.082119 -0.989732 1.409372
v 2.177863 -0.990901 1.408904
v 2.263866 -1.050807 1.317718
v 2.267720 -0.981978 1.329871
v 2.177863 -0.990901 1.408904
v 2.174010 -1.059731 1.396751
v 2.082119 -0.989732 1.409372
v 2.171975 -0.980809 1.330339
v 2.168122 -1.049639 1.318187
v 2.078265 -1.058562 1.397220
v 1.624753 -0.985873 1.405043
v 1.529286 -0.982795 1.411765
v 1.523732 -1.052399 1.406825
v 1.619199 -1.055477 1.400104
v 1.608098 -1.053077 1.321491
v 1.613652 -0.983472 1.326430
v 1.709119 -0.986550 1.319709
v 1.703565 -1.056154 1.314770
v 1.523732 -1.052399 1.406825
v 1.608098 -1.053077 1.321491
v 1.703565 -1.056154 1.314770
v 1.619199 -1.055477 1.400104
v 1.709119 -0.986550 1.319709
v 1.613652 -0.983472 1.326430
v 1.529286 -0.982795 1.411765
v 1.624753 -0.985873 1.405043
v 1.703565 -1.056154 1.314770
v 1.709119 -0.986550 1.319709
v 1.624753 -0.985873 1.405043
v 1.619199 -1.055477 1.400104
v 1.529286 -0.982795 1.411765
v 1.613652 -0.983472 1.326430
v 1.608098 -1.053077 1.321491
v 1.523732 -1.052399 1.406825
v 1.993476 -0.994723 1.405394
v 1.897878 -0.991551 1.409816
v 1.892210 -1.060745 1.400865
v 1.987808 -1.063916 1.396443
v 1.978763 -1.057092 1.317827
v 1.984430 -0.987899 1.326778
v 2.080028 -0.991070 1.322356
v 2.074360 -1.060264 1.313405
v 1.892210 -1.060745 1.400865
v 1.978763 -1.057092 1.317827
v 2.074360 -1.060264 1.313405
v 1.987808 -1.063916 1.396443
v 2.080028 -0.991070 1.322356
v 1.984430 -0.987899 1.326778
v 1.897878 -0.991551 1.409816
v 1.993476 -0.994723 1.405394
v 2.074360 -1.060264 1.313405
v 2.080028 -0.991070 1.322356
v 1.993476 -0.994723 1.405394
v 1.987808 -1.063916 1.396443
v 1.897878 -0.991551 1.409816
v 1.984430 -0.987899 1.326778
v 1.978763 -1.057092 1.317827
v 1.892210 -1.060745 1.400865
usemtl mat12

vn 0.028047 -0.113704 0.993119
vn 0.028047 -0.113704 0.993119
vn 0.028047 -0.113704 0.993119
vn 0.028047 -0.113704 0.993119
vn -0.028046 0.113704 -0.993119
vn -0.028046 0.113704 -0.993119
vn -0.028046 0.113704 -0.993119
vn -0.028046 0.113704 -0.993119
vn -0.020872 -0.997650 -0.065259
vn -0.020872 -0.997650 -0.065259
vn -0.020872 -0.997650 -0.065259
vn -0.020872 -0.997650 -0.065259
vn 0.020872 0.997650 0.065260
vn 0.020872 0.997650 0.065260
vn 0.020872 0.997650 0.065260
vn 0.020872 0.997650 0.065260
vn 0.678935 -0.125581 0.723379
vn 0.678935 -0.125581 0.723379
vn 0.678935 -0.125581 0.723379
vn 0.678935 -0.125581 0.723379
vn -0.678935 0.125581 -0.723379
vn -0.678935 0.125581 -0.723379
vn -0.678935 0.125581 -0.723379
vn -0.678935 0.125581 -0.723379
vn 0.002695 -0.174015 0.984739
vn 0.002695 -0.174015 0.984739
vn 0.002695 -0.174015 0.984739
vn 0.002695 -0.174015 0.984739
vn -0.002695 0.174015 -0.984739
vn -0.002695 0.174015 -0.984739
vn -0.002695 0.174015 -0.984739
vn -0.002695 0.174015 -0.984739
vn -0.012728 -0.991890 -0.126458
vn -0.012728 -0.991890 -0.126458
vn -0.012728 -0.991890 -0.126458
vn -0.012728 -0.991890 -0.126458
vn 0.012728 0.991890 0.126458
vn 0.012728 0.991890 0.126458
vn 0.012728 0.991890 0.126458
vn 0.012728 0.991890 0.126458
vn 0.660503 -0.166254 0.732185
vn 0.660503 -0.166254 0.732185
vn 0.660503 -0.166254 0.732185
vn 0.660503 -0.166254 0.732185
vn -0.660503 0.166254 -0.732185
vn -0.660503 0.166254 -0.732185
vn -0.660503 0.166254 -0.732185
vn -0.660503 0.166254 -0.732185
vn 0.067594 -0.075983 0.994815
vn 0.067594 -0.075983 0.994815
vn 0.067594 -0.075983 0.994815
vn 0.067594 -0.075983 0.994815
vn -0.067594 0.075983 -0.994815
vn -0.067594 0.075983 -0.994815
vn -0.067594 0.075983 -0.994815
vn -0.067594 0.075983 -0.994815
vn -0.034021 -0.999090 -0.025707
vn -0.034021 -0.999090 -0.025707
vn -0.034021 -0.999090 -0.025707
vn -0.034021 -0.999090 -0.025707
vn 0.034021 0.999090 0.025707
vn 0.034021 0.999090 0.025707
vn 0.034021 0.999090 0.025707
vn 0.034021 0.999090 0.025707
vn 0.706700 -0.106030 0.699524
vn 0.706700 -0.106030 0.699524
vn 0.706700 -0.106030 0.699524
vn 0.706700 -0.106030 0.699524
vn -0.706700 0.106030 -0.699524
vn -0.706700 0.106030 -0.699524
vn -0.706700 0.106030 -0.699524
vn -0.706700 0.106030 -0.699524
vn 0.041450 -0.131526 0.990446
vn 0.041450 -0.131526 0.990446
vn 0.041450 -0.131526 0.990446
vn 0.041450 -0.131526 0.990446
vn -0.041450 0.131526 -0.990446
vn -0.041450 0.131526 -0.990446
vn -0.041450 0.131526 -0.990446
vn -0.041450 0.131526 -0.990446
vn -0.036842 -0.995934 -0.082209
vn -0.036842 -0.995934 -0.082209
vn -0.036842 -0.995934 -0.082209
vn -0.036842 -0.995934 -0.082209
vn 0.036842 0.995934 0.082209
vn 0.036842 0.995934 0.082209
vn 0.036842 0.995934 0.082209
vn 0.036842 0.995934 0.082209
vn 0.687905 -0.148264 0.710496
vn 0.687905 -0.148264 0.710496
vn 0.687905 -0.148264 0.710496
vn 0.687905 -0.148264 0.710496
vn -0.687905 0.148264 -0.710496
vn -0.687905 0.148264 -0.710496
vn -0.687905 0.148264 -0.710496
vn -0.687905 0.148264 -0.710496

vt -0.080838 0.121113
vt -0.076708 0.112475
vt -0.082890 0.109191
vt -0.087021 0.117830
vt 0.087121 0.117158
vt 0.080939 0.120441
vt 0.085070 0.129080
vt 0.091252 0.125796
vt 0.268095 0.046235
vt 0.263691 0.057397
vt 0.266932 0.066407
vt 0.271336 0.055245
vt -0.267348 0.066571
vt -0.264107 0.057562
vt -0.268511 0.046399
vt -0.271752 0.055409
vt -0.002258 -0.042076
vt 0.003937 -0.038817
vt 0.009523 -0.049438
vt 0.003327 -0.052696
vt -0.012513 -0.055991
vt -0.006927 -0.045370
vt -0.000732 -0.048629
vt -0.006317 -0.059249
vt -0.082622 0.167299
vt -0.078729 0.158551
vt -0.084998 0.155437
vt -0.088892 0.164185
vt 0.089011 0.163517
vt 0.082741 0.166630
vt 0.086634 0.175378
vt 0.092904 0.172265
vt 0.284562 0.072846
vt 0.280709 0.084211
vt 0.284388 0.093051
vt 0.288241 0.081686
vt -0.284811 0.093195
vt -0.281133 0.084354
vt -0.284986 0.072989
vt -0.288664 0.081830
vt -0.004585 -0.005702
vt 0.001739 -0.002700
vt 0.006885 -0.013541
vt 0.000561 -0.016543
vt -0.009603 -0.020211
vt -0.004458 -0.009370
vt 0.001866 -0.012372
vt -0.003279 -0.023213
vt -0.077866 0.091447
vt -0.073541 0.082904
vt -0.079647 0.079482
vt -0.083972 0.088024
vt 0.084058 0.087351
vt 0.077952 0.090773
vt 0.082277 0.099316
vt 0.088383 0.095893
vt 0.259672 0.033911
vt 0.254663 0.044816
vt 0.257407 0.053989
vt 0.262415 0.043085
vt -0.257813 0.054176
vt -0.255070 0.045002
vt -0.260078 0.034098
vt -0.262822 0.043271
vt 0.003044 -0.065659
vt 0.009105 -0.062157
vt 0.015108 -0.072547
vt 0.009047 -0.076049
vt -0.018356 -0.078976
vt -0.012353 -0.068586
vt -0.006292 -0.072088
vt -0.012295 -0.082478
vt -0.082689 0.136940
vt -0.078485 0.128337
vt -0.084639 0.125001
vt -0.088843 0.133604
vt 0.088938 0.132931
vt 0.082785 0.136267
vt 0.086989 0.144870
vt 0.093143 0.141534
vt 0.275939 0.060703
vt 0.271485 0.071846
vt 0.274686 0.080870
vt 0.279140 0.069727
vt -0.275102 0.081036
vt -0.271901 0.072012
vt -0.276354 0.060869
vt -0.279555 0.069893
vt 0.000019 -0.030483
vt 0.006182 -0.027165
vt 0.011871 -0.037731
vt 0.005707 -0.041049
vt -0.014924 -0.044255
vt -0.009236 -0.033689
vt -0.003072 -0.037007
vt -0.008760 -0.047573
s off
f 1/1/1 2/2/2 3/3/3
f 1/1/1 3/3/3 4/4/4
f 5/5/5 6/6/6 7/7/7
f 5/5/5 7/7/7 8/8/8
f 9/9/9 10/10/10 11/11/11
f 9/9/9 11/11/11 12/12/12
f 13/13/13 14/14/14 15/15/15
f 13/13/13 15/15/15 16/16/16
f 17/17/17 18/18/18 19/19/19
f 17/17/17 19/19/19 20/20/20
f 21/21/21 22/22/22 23/23/23
f 21/21/21 23/23/23 24/24/24
f 25/25/25 26/26/26 27/27/27
f 25/25/25 27/27/27 28/28/28
f 29/29/29 30/30/30 31/31/31
f 29/29/29 31/31/31 32/32/32
f 33/33/33 34/34/34 35/35/35
f 33/33/33 35/35/35 36/36/36
f 37/37/37 38/38/38 39/39/39
f 37/37/37 39/39/39 40/40/40
f 41/41/41 42/42/42 43/43/43
f 41/41/41 43/43/43 44/44/44
f 45/45/45 46/46/46 47/47/47
f 45/45/45 47/47/47 48/48/48
f 49/49/49 50/50/50 51/51/51
f 49/49/49 51/51/51 52/52/52
f 53/53/53 54/54/54 55/55/55
f 53/53/53 55/55/55 56/56/56
f 57/57/57 58/58/58 59/59/59
f 57/57/57 59/59/59 60/60/60
f 61/61/61 62/62/62 63/63/63
f 61/61/61 63/63/63 64/64/64
f 65/65/65 66/66/66 67/67/67
f 65/65/65 67/67/67 68/68/68
f 69/69/69 70/70/70 71/71/71
f 69/69/69 71/71/71 72/72/72
f 73/73/73 74/74/74 75/75/75
f 73/73/73 75/75/75 76/76/76
f 77/77/77 78/78/78 79/79/79
f 77/77/77 79/79/79 80/80/80
f 81/81/81 82/82/82 83/83/83
f 81/81/81 83/83/83 84/84/84
f 85/85/85 86/86/86 87/87/87
f 85/85/85 87/87/87 88/88/88
f 89/89/89 90/90/90 91/91/91
f 89/89/89 91/91/91 92/92/92
f 93/93/93 94/94/94 95/95/95
f 93/93/93 95/95/95 96/96/96
