# Exported using automatic converter by Erwin Coumans
mtllib model6.mtl
#object mesh1874524575

v -0.558402 1.303768 3.591461
v -0.557098 1.311685 3.597429
v -0.552161 1.311436 3.596680
v -0.553465 1.303519 3.590713
v -0.557098 1.311685 3.597429
v -0.555677 1.310371 3.607240
v -0.550739 1.310122 3.606491
v -0.552161 1.311436 3.596680
v -0.555677 1.310371 3.607240
v -0.555558 1.301140 3.611083
v -0.550621 1.300891 3.610334
v -0.550739 1.310122 3.606491
v -0.555558 1.301140 3.611083
v -0.556862 1.293222 3.605115
v -0.551925 1.292974 3.604366
v -0.550621 1.300891 3.610334
v -0.556862 1.293222 3.605115
v -0.558284 1.294536 3.595304
v -0.553347 1.294288 3.594555
v -0.551925 1.292974 3.604366
v -0.558284 1.294536 3.595304
v -0.558402 1.303768 3.591461
v -0.553465 1.303519 3.590713
v -0.553347 1.294288 3.594555
v -0.558284 1.294536 3.595304
v -0.556862 1.293222 3.605115
v -0.555558 1.301140 3.611083
v -0.555677 1.310371 3.607240
v -0.557098 1.311685 3.597429
v -0.558402 1.303768 3.591461
v -0.553465 1.303519 3.590713
v -0.552161 1.311436 3.596680
v -0.550739 1.310122 3.606491
v -0.550621 1.300891 3.610334
v -0.551925 1.292974 3.604366
v -0.553347 1.294288 3.594555
usemtl mat21

vn -0.088912 0.608832 -0.788301
vn -0.088912 0.608832 -0.788301
vn -0.088912 0.608832 -0.788301
vn -0.088912 0.608832 -0.788301
vn 0.068469 0.990082 0.122677
vn 0.068469 0.990082 0.122677
vn 0.068469 0.990082 0.122677
vn 0.068469 0.990082 0.122677
vn 0.157380 0.381250 0.910977
vn 0.157380 0.381250 0.910977
vn 0.157380 0.381250 0.910977
vn 0.157380 0.381250 0.910977
vn 0.088912 -0.608832 0.788301
vn 0.088912 -0.608832 0.788301
vn 0.088912 -0.608832 0.788301
vn 0.088912 -0.608832 0.788301
vn -0.068469 -0.990082 -0.122677
vn -0.068469 -0.990082 -0.122677
vn -0.068469 -0.990082 -0.122677
vn -0.068469 -0.990082 -0.122677
vn -0.157380 -0.381250 -0.910977
vn -0.157380 -0.381250 -0.910977
vn -0.157380 -0.381250 -0.910977
vn -0.157380 -0.381250 -0.910977
vn -0.987468 0.049729 0.149783
vn -0.987468 0.049729 0.149783
vn -0.987468 0.049729 0.149783
vn -0.987468 0.049729 0.149783
vn -0.987468 0.049729 0.149783
vn -0.987468 0.049729 0.149783
vn 0.987468 -0.049729 -0.149783
vn 0.987468 -0.049729 -0.149783
vn 0.987468 -0.049729 -0.149783
vn 0.987468 -0.049729 -0.149783
vn 0.987468 -0.049729 -0.149783
vn 0.987468 -0.049729 -0.149783

vt -0.427690 -0.037297
vt -0.428645 -0.037002
vt -0.428498 -0.036525
vt -0.427542 -0.036819
vt -0.348369 -0.261267
vt -0.349335 -0.261527
vt -0.349465 -0.261045
vt -0.348499 -0.260784
vt 0.075535 -0.142988
vt 0.074670 -0.143489
vt 0.074419 -0.143056
vt 0.075285 -0.142555
vt 0.428645 -0.037002
vt 0.427690 -0.037297
vt 0.427542 -0.036819
vt 0.428498 -0.036525
vt 0.349335 -0.261527
vt 0.348369 -0.261267
vt 0.348499 -0.260784
vt 0.349465 -0.261045
vt -0.074670 -0.143489
vt -0.075535 -0.142988
vt -0.075285 -0.142556
vt -0.074419 -0.143056
vt -0.462734 0.010732
vt -0.463618 0.010265
vt -0.464465 0.010798
vt -0.464426 0.011798
vt -0.463541 0.012264
vt -0.462695 0.011731
vt 0.462695 0.011731
vt 0.463541 0.012264
vt 0.464426 0.011798
vt 0.464465 0.010798
vt 0.463618 0.010265
vt 0.462734 0.010732
s off
f 1/1/1 2/2/2 3/3/3
f 1/1/1 3/3/3 4/4/4
f 5/5/5 6/6/6 7/7/7
f 5/5/5 7/7/7 8/8/8
f 9/9/9 10/10/10 11/11/11
f 9/9/9 11/11/11 12/12/12
f 13/13/13 14/14/14 15/15/15
f 13/13/13 15/15/15 16/16/16
f 17/17/17 18/18/18 19/19/19
f 17/17/17 19/19/19 20/20/20
f 21/21/21 22/22/22 23/23/23
f 21/21/21 23/23/23 24/24/24
f 25/25/25 26/26/26 27/27/27
f 25/25/25 27/27/27 28/28/28
f 25/25/25 28/28/28 29/29/29
f 25/25/25 29/29/29 30/30/30
f 31/31/31 32/32/32 33/33/33
f 31/31/31 33/33/33 34/34/34
f 31/31/31 34/34/34 35/35/35
f 31/31/31 35/35/35 36/36/36
