# Exported using automatic converter by Erwin Coumans
mtllib model6.mtl
#object mesh1268761422

v 2.286619 -0.876848 1.497541
v 2.301880 -0.874109 1.484908
v 2.304179 -0.893919 1.483391
v 2.288918 -0.896658 1.496024
v 2.316899 -0.893625 1.498822
v 2.314600 -0.873815 1.500339
v 2.299339 -0.876554 1.512972
v 2.301638 -0.896364 1.511454
v 2.304179 -0.893919 1.483391
v 2.316899 -0.893625 1.498822
v 2.301638 -0.896364 1.511454
v 2.288918 -0.896658 1.496024
v 2.299339 -0.876554 1.512972
v 2.314600 -0.873815 1.500339
v 2.301880 -0.874109 1.484908
v 2.286619 -0.876848 1.497541
v 2.301638 -0.896364 1.511454
v 2.299339 -0.876554 1.512972
v 2.286619 -0.876848 1.497541
v 2.288918 -0.896658 1.496024
v 2.301880 -0.874109 1.484908
v 2.314600 -0.873815 1.500339
v 2.316899 -0.893625 1.498822
v 2.304179 -0.893919 1.483391
usemtl mat9

vn -0.636012 -0.014693 -0.771539
vn -0.636012 -0.014693 -0.771539
vn -0.636012 -0.014693 -0.771539
vn -0.636012 -0.014693 -0.771539
vn 0.636012 0.014693 0.771539
vn 0.636012 0.014693 0.771539
vn 0.636012 0.014693 0.771539
vn 0.636012 0.014693 0.771539
vn 0.114943 -0.990469 -0.075890
vn 0.114943 -0.990469 -0.075890
vn 0.114943 -0.990469 -0.075890
vn 0.114943 -0.990469 -0.075890
vn -0.114943 0.990469 0.075890
vn -0.114943 0.990469 0.075890
vn -0.114943 0.990469 0.075890
vn -0.114943 0.990469 0.075890
vn -0.763071 -0.136950 0.631639
vn -0.763071 -0.136950 0.631639
vn -0.763071 -0.136950 0.631639
vn -0.763071 -0.136950 0.631639
vn 0.763071 0.136950 -0.631639
vn 0.763071 0.136950 -0.631639
vn 0.763071 0.136950 -0.631639
vn 0.763071 0.136950 -0.631639

vt 0.039584 -0.018733
vt 0.040217 -0.016836
vt 0.042114 -0.017470
vt 0.041480 -0.019367
vt -0.042114 -0.017470
vt -0.040217 -0.016836
vt -0.039584 -0.018733
vt -0.041480 -0.019367
vt 0.293344 0.098650
vt 0.295233 0.099307
vt 0.295890 0.097418
vt 0.294001 0.096761
vt -0.295890 0.097418
vt -0.295233 0.099307
vt -0.293344 0.098650
vt -0.294001 0.096761
vt -0.248537 0.193163
vt -0.247094 0.194548
vt -0.245709 0.193105
vt -0.247152 0.191720
vt 0.245709 0.193105
vt 0.247094 0.194548
vt 0.248537 0.193163
vt 0.247152 0.191720
s off
f 1/1/1 2/2/2 3/3/3
f 1/1/1 3/3/3 4/4/4
f 5/5/5 6/6/6 7/7/7
f 5/5/5 7/7/7 8/8/8
f 9/9/9 10/10/10 11/11/11
f 9/9/9 11/11/11 12/12/12
f 13/13/13 14/14/14 15/15/15
f 13/13/13 15/15/15 16/16/16
f 17/17/17 18/18/18 19/19/19
f 17/17/17 19/19/19 20/20/20
f 21/21/21 22/22/22 23/23/23
f 21/21/21 23/23/23 24/24/24
