# Exported using automatic converter by Erwin Coumans
mtllib model6.mtl
#object mesh1001836320

v -1.871762 0.945489 1.599852
v -1.881762 0.945489 1.602531
v -1.881762 0.985489 1.602531
v -1.871762 0.985489 1.599852
v -1.881762 0.945489 1.602531
v -1.889083 0.945489 1.609852
v -1.889083 0.985489 1.609852
v -1.881762 0.985489 1.602531
v -1.889083 0.945489 1.609852
v -1.891762 0.945489 1.619852
v -1.891762 0.985489 1.619852
v -1.889083 0.985489 1.609852
v -1.891762 0.945489 1.619852
v -1.889083 0.945489 1.629852
v -1.889083 0.985489 1.629852
v -1.891762 0.985489 1.619852
v -1.889083 0.945489 1.629852
v -1.881762 0.945489 1.637172
v -1.881762 0.985489 1.637172
v -1.889083 0.985489 1.629852
v -1.881762 0.945489 1.637172
v -1.871762 0.945489 1.639852
v -1.871762 0.985489 1.639852
v -1.881762 0.985489 1.637172
v -1.871762 0.945489 1.639852
v -1.861762 0.945489 1.637172
v -1.861762 0.985489 1.637172
v -1.871762 0.985489 1.639852
v -1.861762 0.945489 1.637172
v -1.854442 0.945489 1.629852
v -1.854442 0.985489 1.629852
v -1.861762 0.985489 1.637172
v -1.854442 0.945489 1.629852
v -1.851762 0.945489 1.619852
v -1.851762 0.985489 1.619852
v -1.854442 0.985489 1.629852
v -1.851762 0.945489 1.619852
v -1.854442 0.945489 1.609852
v -1.854442 0.985489 1.609852
v -1.851762 0.985489 1.619852
v -1.854442 0.945489 1.609852
v -1.861762 0.945489 1.602531
v -1.861762 0.985489 1.602531
v -1.854442 0.985489 1.609852
v -1.861762 0.945489 1.602531
v -1.871762 0.945489 1.599852
v -1.871762 0.985489 1.599852
v -1.861762 0.985489 1.602531
v -1.871762 0.985489 1.599852
v -1.881762 0.985489 1.602531
v -1.889083 0.985489 1.609852
v -1.891762 0.985489 1.619852
v -1.889083 0.985489 1.629852
v -1.881762 0.985489 1.637172
v -1.871762 0.985489 1.639852
v -1.861762 0.985489 1.637172
v -1.854442 0.985489 1.629852
v -1.851762 0.985489 1.619852
v -1.854442 0.985489 1.609852
v -1.861762 0.985489 1.602531
v -1.861762 0.945489 1.602531
v -1.854442 0.945489 1.609852
v -1.851762 0.945489 1.619852
v -1.854442 0.945489 1.629852
v -1.861762 0.945489 1.637172
v -1.871762 0.945489 1.639852
v -1.881762 0.945489 1.637172
v -1.889083 0.945489 1.629852
v -1.891762 0.945489 1.619852
v -1.889083 0.945489 1.609852
v -1.881762 0.945489 1.602531
v -1.871762 0.945489 1.599852
usemtl mat22

vn 0.000000 -0.000000 -1.000000
vn 0.000000 -0.000000 -1.000000
vn 0.000000 -0.000000 -1.000000
vn 0.000000 -0.000000 -1.000000
vn -0.500000 -0.000000 -0.866025
vn -0.500000 -0.000000 -0.866025
vn -0.500000 -0.000000 -0.866025
vn -0.500000 -0.000000 -0.866025
vn -0.866025 -0.000000 -0.500000
vn -0.866025 -0.000000 -0.500000
vn -0.866025 -0.000000 -0.500000
vn -0.866025 -0.000000 -0.500000
vn -1.000000 0.000000 -0.000000
vn -1.000000 0.000000 -0.000000
vn -1.000000 0.000000 -0.000000
vn -1.000000 0.000000 -0.000000
vn -0.866025 0.000000 0.500000
vn -0.866025 0.000000 0.500000
vn -0.866025 0.000000 0.500000
vn -0.866025 0.000000 0.500000
vn -0.500000 0.000000 0.866025
vn -0.500000 0.000000 0.866025
vn -0.500000 0.000000 0.866025
vn -0.500000 0.000000 0.866025
vn 0.000000 0.000000 1.000000
vn 0.000000 0.000000 1.000000
vn 0.000000 0.000000 1.000000
vn 0.000000 0.000000 1.000000
vn 0.500000 0.000000 0.866025
vn 0.500000 0.000000 0.866025
vn 0.500000 0.000000 0.866025
vn 0.500000 0.000000 0.866025
vn 0.866025 0.000000 0.500000
vn 0.866025 0.000000 0.500000
vn 0.866025 0.000000 0.500000
vn 0.866025 0.000000 0.500000
vn 1.000000 -0.000000 0.000000
vn 1.000000 -0.000000 0.000000
vn 1.000000 -0.000000 0.000000
vn 1.000000 -0.000000 0.000000
vn 0.866026 -0.000000 -0.500000
vn 0.866026 -0.000000 -0.500000
vn 0.866026 -0.000000 -0.500000
vn 0.866026 -0.000000 -0.500000
vn 0.500000 -0.000000 -0.866026
vn 0.500000 -0.000000 -0.866026
vn 0.500000 -0.000000 -0.866026
vn 0.500000 -0.000000 -0.866026
vn 0.000000 1.000000 -0.000000
vn 0.000000 1.000000 -0.000000
vn 0.000000 1.000000 -0.000000
vn 0.000000 1.000000 -0.000000
vn 0.000000 1.000000 -0.000000
vn 0.000000 1.000000 -0.000000
vn 0.000000 1.000000 -0.000000
vn 0.000000 1.000000 -0.000000
vn 0.000000 1.000000 -0.000000
vn 0.000000 1.000000 -0.000000
vn 0.000000 1.000000 -0.000000
vn 0.000000 1.000000 -0.000000
vn -0.000000 -1.000000 0.000000
vn -0.000000 -1.000000 0.000000
vn -0.000000 -1.000000 0.000000
vn -0.000000 -1.000000 0.000000
vn -0.000000 -1.000000 0.000000
vn -0.000000 -1.000000 0.000000
vn -0.000000 -1.000000 0.000000
vn -0.000000 -1.000000 0.000000
vn -0.000000 -1.000000 0.000000
vn -0.000000 -1.000000 0.000000
vn -0.000000 -1.000000 0.000000
vn -0.000000 -1.000000 0.000000

vt -0.225396 -0.131034
vt -0.225843 -0.131928
vt -0.229420 -0.130139
vt -0.228973 -0.129245
vt -0.264680 -0.221752
vt -0.265112 -0.222654
vt -0.268719 -0.220927
vt -0.268288 -0.220025
vt -0.293196 -0.202494
vt -0.293722 -0.203345
vt -0.297125 -0.201243
vt -0.296599 -0.200392
vt -0.287364 -0.029527
vt -0.288178 -0.030108
vt -0.290503 -0.026853
vt -0.289689 -0.026272
vt -0.050297 0.172232
vt -0.051231 0.172588
vt -0.049805 0.176326
vt -0.048871 0.175969
vt 0.152876 0.032926
vt 0.152287 0.033734
vt 0.155522 0.036087
vt 0.156110 0.035278
vt 0.225396 -0.131034
vt 0.224948 -0.130139
vt 0.228526 -0.128350
vt 0.228973 -0.129245
vt 0.264680 -0.221752
vt 0.264248 -0.220850
vt 0.267856 -0.219123
vt 0.268288 -0.220025
vt 0.293196 -0.202494
vt 0.292670 -0.201644
vt 0.296073 -0.199541
vt 0.296599 -0.200392
vt 0.287364 -0.029527
vt 0.286550 -0.028946
vt 0.288875 -0.025691
vt 0.289689 -0.026272
vt 0.050297 0.172232
vt 0.049362 0.171876
vt 0.047937 0.175613
vt 0.048871 0.175969
vt -0.152876 0.032926
vt -0.153464 0.032117
vt -0.156699 0.034470
vt -0.156110 0.035278
vt -0.161172 -0.289048
vt -0.161088 -0.290079
vt -0.161532 -0.291015
vt -0.162383 -0.291604
vt -0.163415 -0.291688
vt -0.164351 -0.291244
vt -0.164939 -0.290393
vt -0.165023 -0.289361
vt -0.164580 -0.288425
vt -0.163729 -0.287837
vt -0.162697 -0.287753
vt -0.161761 -0.288196
vt 0.161761 -0.288196
vt 0.162697 -0.287753
vt 0.163729 -0.287837
vt 0.164580 -0.288425
vt 0.165023 -0.289361
vt 0.164939 -0.290393
vt 0.164351 -0.291244
vt 0.163415 -0.291688
vt 0.162383 -0.291604
vt 0.161532 -0.291015
vt 0.161088 -0.290079
vt 0.161172 -0.289048
s off
f 1/1/1 2/2/2 3/3/3
f 1/1/1 3/3/3 4/4/4
f 5/5/5 6/6/6 7/7/7
f 5/5/5 7/7/7 8/8/8
f 9/9/9 10/10/10 11/11/11
f 9/9/9 11/11/11 12/12/12
f 13/13/13 14/14/14 15/15/15
f 13/13/13 15/15/15 16/16/16
f 17/17/17 18/18/18 19/19/19
f 17/17/17 19/19/19 20/20/20
f 21/21/21 22/22/22 23/23/23
f 21/21/21 23/23/23 24/24/24
f 25/25/25 26/26/26 27/27/27
f 25/25/25 27/27/27 28/28/28
f 29/29/29 30/30/30 31/31/31
f 29/29/29 31/31/31 32/32/32
f 33/33/33 34/34/34 35/35/35
f 33/33/33 35/35/35 36/36/36
f 37/37/37 38/38/38 39/39/39
f 37/37/37 39/39/39 40/40/40
f 41/41/41 42/42/42 43/43/43
f 41/41/41 43/43/43 44/44/44
f 45/45/45 46/46/46 47/47/47
f 45/45/45 47/47/47 48/48/48
f 49/49/49 50/50/50 51/51/51
f 49/49/49 51/51/51 52/52/52
f 49/49/49 52/52/52 53/53/53
f 49/49/49 53/53/53 54/54/54
f 49/49/49 54/54/54 55/55/55
f 49/49/49 55/55/55 56/56/56
f 49/49/49 56/56/56 57/57/57
f 49/49/49 57/57/57 58/58/58
f 49/49/49 58/58/58 59/59/59
f 49/49/49 59/59/59 60/60/60
f 61/61/61 62/62/62 63/63/63
f 61/61/61 63/63/63 64/64/64
f 61/61/61 64/64/64 65/65/65
f 61/61/61 65/65/65 66/66/66
f 61/61/61 66/66/66 67/67/67
f 61/61/61 67/67/67 68/68/68
f 61/61/61 68/68/68 69/69/69
f 61/61/61 69/69/69 70/70/70
f 61/61/61 70/70/70 71/71/71
f 61/61/61 71/71/71 72/72/72
