# Exported using automatic converter by Erwin Coumans
mtllib model6.mtl
#object mesh683425079

v -0.863468 -0.991087 0.201788
v -0.854019 -0.988621 0.297041
v -0.855460 -1.058432 0.301961
v -0.864909 -1.060899 0.206708
v -0.943175 -1.062386 0.220166
v -0.941734 -0.992574 0.215246
v -0.951184 -0.995041 0.119993
v -0.952624 -1.064853 0.124913
v -0.855460 -1.058432 0.301961
v -0.943175 -1.062386 0.220166
v -0.952624 -1.064853 0.124913
v -0.864909 -1.060899 0.206708
v -0.951184 -0.995041 0.119993
v -0.941734 -0.992574 0.215246
v -0.854019 -0.988621 0.297041
v -0.863468 -0.991087 0.201788
v -0.952624 -1.064853 0.124913
v -0.951184 -0.995041 0.119993
v -0.863468 -0.991087 0.201788
v -0.864909 -1.060899 0.206708
v -0.854019 -0.988621 0.297041
v -0.941734 -0.992574 0.215246
v -0.943175 -1.062386 0.220166
v -0.855460 -1.058432 0.301961
v -0.878016 -0.995245 -0.164969
v -0.870951 -0.993755 -0.069489
v -0.876782 -1.063368 -0.065010
v -0.883848 -1.064857 -0.160490
v -0.962386 -1.061607 -0.149086
v -0.956555 -0.991994 -0.153566
v -0.963620 -0.993484 -0.249045
v -0.969452 -1.063096 -0.244566
v -0.876782 -1.063368 -0.065010
v -0.962386 -1.061607 -0.149086
v -0.969452 -1.063096 -0.244566
v -0.883848 -1.064857 -0.160490
v -0.963620 -0.993484 -0.249045
v -0.956555 -0.991994 -0.153566
v -0.870951 -0.993755 -0.069489
v -0.878016 -0.995245 -0.164969
v -0.969452 -1.063096 -0.244566
v -0.963620 -0.993484 -0.249045
v -0.878016 -0.995245 -0.164969
v -0.883848 -1.064857 -0.160490
v -0.870951 -0.993755 -0.069489
v -0.956555 -0.991994 -0.153566
v -0.962386 -1.061607 -0.149086
v -0.876782 -1.063368 -0.065010
v -0.856836 -0.987336 0.387789
v -0.853687 -0.993273 0.432548
v -0.852202 -1.063019 0.438317
v -0.855351 -1.057082 0.393558
v -0.932898 -1.061412 0.410190
v -0.934383 -0.991666 0.404421
v -0.947532 -0.995729 0.309663
v -0.946048 -1.065475 0.315432
v -0.932898 -1.061412 0.410190
v -0.946048 -1.065475 0.315432
v -0.855351 -1.057082 0.393558
v -0.947532 -0.995729 0.309663
v -0.934383 -0.991666 0.404421
v -0.856836 -0.987336 0.387789
v -0.946048 -1.065475 0.315432
v -0.947532 -0.995729 0.309663
v -0.856836 -0.987336 0.387789
v -0.855351 -1.057082 0.393558
v -0.853687 -0.993273 0.432548
v -0.934383 -0.991666 0.404421
v -0.932898 -1.061412 0.410190
v -0.852202 -1.063019 0.438317
v -0.934383 -0.991666 0.404421
v -0.853687 -0.993273 0.432548
v -0.856836 -0.987336 0.387789
v -0.855351 -1.057082 0.393558
v -0.852202 -1.063019 0.438317
v -0.932898 -1.061412 0.410190
v -0.871156 -0.996864 0.019363
v -0.860277 -0.993018 0.114418
v -0.862818 -1.062706 0.120504
v -0.873698 -1.066553 0.025449
v -0.951773 -1.066488 0.040050
v -0.949231 -0.996800 0.033964
v -0.960110 -1.000646 -0.061091
v -0.962652 -1.070335 -0.055004
v -0.862818 -1.062706 0.120504
v -0.951773 -1.066488 0.040050
v -0.962652 -1.070335 -0.055004
v -0.873698 -1.066553 0.025449
v -0.960110 -1.000646 -0.061091
v -0.949231 -0.996800 0.033964
v -0.860277 -0.993018 0.114418
v -0.871156 -0.996864 0.019363
v -0.962652 -1.070335 -0.055004
v -0.960110 -1.000646 -0.061091
v -0.871156 -0.996864 0.019363
v -0.873698 -1.066553 0.025449
v -0.860277 -0.993018 0.114418
v -0.949231 -0.996800 0.033964
v -0.951773 -1.066488 0.040050
v -0.862818 -1.062706 0.120504
usemtl mat23

vn 0.994811 -0.027436 -0.097977
vn 0.994811 -0.027436 -0.097977
vn 0.994811 -0.027436 -0.097977
vn 0.994811 -0.027436 -0.097977
vn -0.994811 0.027436 0.097977
vn -0.994811 0.027436 0.097977
vn -0.994811 0.027436 0.097977
vn -0.994811 0.027436 0.097977
vn 0.023051 -0.999456 0.023592
vn 0.023051 -0.999456 0.023592
vn 0.023051 -0.999456 0.023592
vn 0.023051 -0.999456 0.023592
vn -0.023051 0.999456 -0.023592
vn -0.023051 0.999456 -0.023592
vn -0.023051 0.999456 -0.023592
vn -0.023051 0.999456 -0.023592
vn 0.682109 -0.065403 -0.728320
vn 0.682109 -0.065403 -0.728320
vn 0.682109 -0.065403 -0.728320
vn 0.682109 -0.065403 -0.728320
vn -0.682109 0.065403 0.728320
vn -0.682109 0.065403 0.728320
vn -0.682109 0.065403 0.728320
vn -0.682109 0.065403 0.728320
vn 0.993515 -0.087875 -0.072152
vn 0.993515 -0.087875 -0.072152
vn 0.993515 -0.087875 -0.072152
vn 0.993515 -0.087875 -0.072152
vn -0.993515 0.087875 0.072152
vn -0.993515 0.087875 0.072152
vn -0.993515 0.087875 0.072152
vn -0.993515 0.087875 0.072152
vn -0.038672 -0.999082 0.018450
vn -0.038672 -0.999082 0.018450
vn -0.038672 -0.999082 0.018450
vn -0.038672 -0.999082 0.018450
vn 0.038673 0.999082 -0.018450
vn 0.038673 0.999082 -0.018450
vn 0.038673 0.999082 -0.018450
vn 0.038673 0.999082 -0.018450
vn 0.695819 -0.104024 -0.710644
vn 0.695819 -0.104024 -0.710644
vn 0.695819 -0.104024 -0.710644
vn 0.695819 -0.104024 -0.710644
vn -0.695819 0.104024 0.710644
vn -0.695819 0.104024 0.710644
vn -0.695819 0.104024 0.710644
vn -0.695819 0.104024 0.710644
vn 0.997554 0.015600 -0.068130
vn 0.997554 0.015600 -0.068130
vn 0.997554 0.015600 -0.068130
vn 0.997554 0.015600 -0.068130
vn -0.990405 -0.009680 0.137853
vn -0.990405 -0.009680 0.137853
vn -0.990405 -0.009680 0.137853
vn -0.990405 -0.009680 0.137853
vn 0.062992 -0.997434 0.034026
vn 0.062992 -0.997434 0.034026
vn 0.062992 -0.997434 0.034026
vn -0.062992 0.997434 -0.034026
vn -0.062992 0.997434 -0.034026
vn -0.062992 0.997434 -0.034026
vn 0.654454 -0.048482 -0.754546
vn 0.654454 -0.048482 -0.754546
vn 0.654454 -0.048482 -0.754546
vn 0.654454 -0.048482 -0.754546
vn -0.327033 0.070985 0.942343
vn -0.327033 0.070985 0.942343
vn -0.327033 0.070985 0.942343
vn -0.327033 0.070985 0.942343
vn -0.026730 0.990716 0.133296
vn -0.026730 0.990716 0.133296
vn -0.026730 0.990716 0.133296
vn 0.026730 -0.990716 -0.133295
vn 0.026730 -0.990716 -0.133295
vn 0.026730 -0.990716 -0.133295
vn 0.992672 -0.045965 -0.111756
vn 0.992672 -0.045965 -0.111756
vn 0.992672 -0.045965 -0.111756
vn 0.992672 -0.045965 -0.111756
vn -0.992672 0.045965 0.111755
vn -0.992672 0.045965 0.111755
vn -0.992672 0.045965 0.111755
vn -0.992672 0.045965 0.111755
vn 0.006596 -0.999191 0.039677
vn 0.006596 -0.999191 0.039677
vn 0.006596 -0.999191 0.039677
vn 0.006596 -0.999191 0.039677
vn -0.006596 0.999191 -0.039678
vn -0.006596 0.999191 -0.039678
vn -0.006596 0.999191 -0.039678
vn -0.006596 0.999191 -0.039678
vn 0.670205 -0.088796 -0.736845
vn 0.670205 -0.088796 -0.736845
vn 0.670205 -0.088796 -0.736845
vn 0.670205 -0.088796 -0.736845
vn -0.670205 0.088796 0.736845
vn -0.670205 0.088796 0.736845
vn -0.670205 0.088796 0.736845
vn -0.670205 0.088796 0.736845

vt 0.063639 -0.091241
vt 0.072352 -0.095213
vt 0.069719 -0.101699
vt 0.061007 -0.097727
vt -0.061361 -0.098307
vt -0.063993 -0.091821
vt -0.055281 -0.087848
vt -0.052648 -0.094334
vt 0.073477 -0.149476
vt 0.062895 -0.155135
vt 0.053572 -0.152951
vt 0.064154 -0.147292
vt -0.053361 -0.152557
vt -0.062684 -0.154740
vt -0.073266 -0.149081
vt -0.063943 -0.146898
vt 0.027670 -0.066517
vt 0.022915 -0.061381
vt 0.031720 -0.053228
vt 0.036476 -0.058364
vt -0.037271 -0.048638
vt -0.028466 -0.056791
vt -0.033222 -0.061928
vt -0.042027 -0.053775
vt 0.030567 -0.083300
vt 0.039255 -0.087327
vt 0.036582 -0.093796
vt 0.027894 -0.089770
vt -0.028245 -0.090352
vt -0.030918 -0.083882
vt -0.022230 -0.079855
vt -0.019557 -0.086325
vt 0.037884 -0.136670
vt 0.027099 -0.141932
vt 0.017864 -0.139403
vt 0.028649 -0.134142
vt -0.017668 -0.139001
vt -0.026903 -0.141530
vt -0.037688 -0.136268
vt -0.028453 -0.133739
vt 0.007628 -0.084865
vt 0.003409 -0.079280
vt 0.012984 -0.072047
vt 0.017204 -0.077632
vt -0.018966 -0.068034
vt -0.009391 -0.075267
vt -0.013610 -0.080853
vt -0.023185 -0.073620
vt 0.078004 -0.102689
vt 0.081555 -0.105495
vt 0.078490 -0.111788
vt 0.074939 -0.108982
vt -0.079489 -0.096575
vt -0.081760 -0.089954
vt -0.072842 -0.086468
vt -0.070571 -0.093089
vt 0.081515 -0.161445
vt 0.072096 -0.159725
vt 0.082385 -0.153550
vt -0.071865 -0.159341
vt -0.081285 -0.161061
vt -0.082155 -0.153166
vt 0.034574 -0.058870
vt 0.029389 -0.054167
vt 0.037452 -0.045279
vt 0.042637 -0.049982
vt -0.015457 -0.089748
vt -0.010617 -0.096792
vt -0.016635 -0.100368
vt -0.021475 -0.093323
vt -0.076683 -0.167367
vt -0.082376 -0.160992
vt -0.078086 -0.159549
vt 0.079459 -0.160158
vt 0.083749 -0.161600
vt 0.078056 -0.167976
vt 0.047379 -0.083463
vt 0.056278 -0.086995
vt 0.053973 -0.093605
vt 0.045073 -0.090072
vt -0.045455 -0.090633
vt -0.047761 -0.084024
vt -0.038861 -0.080491
vt -0.036556 -0.087100
vt 0.056138 -0.142819
vt 0.045671 -0.148687
vt 0.036307 -0.146689
vt 0.046774 -0.140821
vt -0.036088 -0.146299
vt -0.045452 -0.148297
vt -0.055920 -0.142429
vt -0.046555 -0.140431
vt 0.017867 -0.078826
vt 0.013140 -0.073664
vt 0.021989 -0.065559
vt 0.026717 -0.070721
vt -0.027565 -0.061000
vt -0.018716 -0.069105
vt -0.023444 -0.074267
vt -0.032293 -0.066162
s off
f 1/1/1 2/2/2 3/3/3
f 1/1/1 3/3/3 4/4/4
f 5/5/5 6/6/6 7/7/7
f 5/5/5 7/7/7 8/8/8
f 9/9/9 10/10/10 11/11/11
f 9/9/9 11/11/11 12/12/12
f 13/13/13 14/14/14 15/15/15
f 13/13/13 15/15/15 16/16/16
f 17/17/17 18/18/18 19/19/19
f 17/17/17 19/19/19 20/20/20
f 21/21/21 22/22/22 23/23/23
f 21/21/21 23/23/23 24/24/24
f 25/25/25 26/26/26 27/27/27
f 25/25/25 27/27/27 28/28/28
f 29/29/29 30/30/30 31/31/31
f 29/29/29 31/31/31 32/32/32
f 33/33/33 34/34/34 35/35/35
f 33/33/33 35/35/35 36/36/36
f 37/37/37 38/38/38 39/39/39
f 37/37/37 39/39/39 40/40/40
f 41/41/41 42/42/42 43/43/43
f 41/41/41 43/43/43 44/44/44
f 45/45/45 46/46/46 47/47/47
f 45/45/45 47/47/47 48/48/48
f 49/49/49 50/50/50 51/51/51
f 49/49/49 51/51/51 52/52/52
f 53/53/53 54/54/54 55/55/55
f 53/53/53 55/55/55 56/56/56
f 57/57/57 58/58/58 59/59/59
f 60/60/60 61/61/61 62/62/62
f 63/63/63 64/64/64 65/65/65
f 63/63/63 65/65/65 66/66/66
f 67/67/67 68/68/68 69/69/69
f 67/67/67 69/69/69 70/70/70
f 71/71/71 72/72/72 73/73/73
f 74/74/74 75/75/75 76/76/76
f 77/77/77 78/78/78 79/79/79
f 77/77/77 79/79/79 80/80/80
f 81/81/81 82/82/82 83/83/83
f 81/81/81 83/83/83 84/84/84
f 85/85/85 86/86/86 87/87/87
f 85/85/85 87/87/87 88/88/88
f 89/89/89 90/90/90 91/91/91
f 89/89/89 91/91/91 92/92/92
f 93/93/93 94/94/94 95/95/95
f 93/93/93 95/95/95 96/96/96
f 97/97/97 98/98/98 99/99/99
f 97/97/97 99/99/99 100/100/100
