# Exported using automatic converter by Erwin Coumans
mtllib model6.mtl
#object group160158814_1

v -2.623648 -1.012485 -0.459451
v -2.594551 -1.012485 -0.488547
v -2.554804 -1.012485 -0.499197
v -2.515058 -1.012485 -0.488547
v -2.485961 -1.012485 -0.459451
v -2.475311 -1.012485 -0.419704
v -2.485961 -1.012485 -0.379957
v -2.515058 -1.012485 -0.350861
v -2.554804 -1.012485 -0.340210
v -2.594551 -1.012485 -0.350861
v -2.623648 -1.012485 -0.379957
v -2.634298 -1.012485 -0.419704
v -2.550547 -0.797279 -0.515699
v -2.502934 -0.797279 -0.502941
v -2.502934 -0.839675 -0.502941
v -2.550547 -0.839675 -0.515699
v -2.455321 -0.797279 -0.420473
v -2.468079 -0.797279 -0.372861
v -2.468079 -0.839675 -0.372861
v -2.455321 -0.839675 -0.420473
v -2.550547 -0.797279 -0.325249
v -2.598159 -0.797279 -0.338006
v -2.598159 -0.839675 -0.338006
v -2.550547 -0.839675 -0.325249
v -2.626907 -0.712485 -0.420473
v -2.616677 -0.712485 -0.382292
v -2.588726 -0.712485 -0.354342
v -2.550547 -0.712485 -0.344112
v -2.512366 -0.712485 -0.354342
v -2.484416 -0.712485 -0.382292
v -2.474185 -0.712485 -0.420472
v -2.484415 -0.712485 -0.458653
v -2.512366 -0.712485 -0.486603
v -2.550547 -0.712485 -0.496834
v -2.588726 -0.712485 -0.486603
v -2.616677 -0.712485 -0.458654
usemtl mat21

vn -0.000000 -1.000000 0.000000
vn -0.000000 -1.000000 0.000000
vn -0.000000 -1.000000 0.000000
vn -0.000000 -1.000000 0.000000
vn -0.000000 -1.000000 0.000000
vn -0.000000 -1.000000 0.000000
vn -0.000000 -1.000000 0.000000
vn -0.000000 -1.000000 0.000000
vn -0.000000 -1.000000 0.000000
vn -0.000000 -1.000000 0.000000
vn -0.000000 -1.000000 0.000000
vn -0.000000 -1.000000 0.000000
vn 0.258811 0.000005 -0.965928
vn 0.258811 0.000005 -0.965928
vn 0.258811 0.000005 -0.965928
vn 0.258811 0.000005 -0.965928
vn 0.965924 -0.000002 0.258825
vn 0.965924 -0.000002 0.258825
vn 0.965924 -0.000002 0.258825
vn 0.965924 -0.000002 0.258825
vn -0.258817 -0.000006 0.965927
vn -0.258817 -0.000006 0.965927
vn -0.258817 -0.000006 0.965927
vn -0.258817 -0.000006 0.965927
vn 0.000000 1.000000 -0.000000
vn 0.000000 1.000000 -0.000000
vn 0.000000 1.000000 -0.000000
vn 0.000000 1.000000 -0.000000
vn 0.000000 1.000000 -0.000000
vn 0.000000 1.000000 -0.000000
vn 0.000000 1.000000 -0.000000
vn 0.000000 1.000000 -0.000000
vn 0.000000 1.000000 -0.000000
vn 0.000000 1.000000 -0.000000
vn 0.000000 1.000000 -0.000000
vn 0.000000 1.000000 -0.000000

vt -0.058049 -0.290594
vt -0.059811 -0.286875
vt -0.059477 -0.282774
vt -0.057137 -0.279389
vt -0.053418 -0.277627
vt -0.049317 -0.277961
vt -0.045932 -0.280301
vt -0.044171 -0.284020
vt -0.044505 -0.288121
vt -0.046844 -0.291506
vt -0.050563 -0.293267
vt -0.054664 -0.292934
vt -0.105222 -0.246780
vt -0.102773 -0.242502
vt -0.099094 -0.244609
vt -0.101542 -0.248886
vt 0.050466 -0.109981
vt 0.053610 -0.113778
vt 0.050344 -0.116482
vt 0.047200 -0.112685
vt 0.102773 -0.242502
vt 0.105222 -0.246780
vt 0.101542 -0.248886
vt 0.099094 -0.244608
vt 0.054488 -0.292212
vt 0.050549 -0.292533
vt 0.046976 -0.290840
vt 0.044729 -0.287589
vt 0.044408 -0.283649
vt 0.046100 -0.280077
vt 0.049352 -0.277829
vt 0.053291 -0.277509
vt 0.056864 -0.279201
vt 0.059111 -0.282452
vt 0.059432 -0.286392
vt 0.057740 -0.289964
s off
f 1/1/1 2/2/2 3/3/3
f 1/1/1 3/3/3 4/4/4
f 1/1/1 4/4/4 5/5/5
f 1/1/1 5/5/5 6/6/6
f 1/1/1 6/6/6 7/7/7
f 1/1/1 7/7/7 8/8/8
f 1/1/1 8/8/8 9/9/9
f 1/1/1 9/9/9 10/10/10
f 1/1/1 10/10/10 11/11/11
f 1/1/1 11/11/11 12/12/12
f 13/13/13 14/14/14 15/15/15
f 13/13/13 15/15/15 16/16/16
f 17/17/17 18/18/18 19/19/19
f 17/17/17 19/19/19 20/20/20
f 21/21/21 22/22/22 23/23/23
f 21/21/21 23/23/23 24/24/24
f 25/25/25 26/26/26 27/27/27
f 25/25/25 27/27/27 28/28/28
f 25/25/25 28/28/28 29/29/29
f 25/25/25 29/29/29 30/30/30
f 25/25/25 30/30/30 31/31/31
f 25/25/25 31/31/31 32/32/32
f 25/25/25 32/32/32 33/33/33
f 25/25/25 33/33/33 34/34/34
f 25/25/25 34/34/34 35/35/35
f 25/25/25 35/35/35 36/36/36
