# Exported using automatic converter by Erwin Coumans
mtllib botlab.mtl
#object mesh2001820485

v -2.220566 -0.951248 -0.600954
v -2.219429 -0.954025 -0.596736
v -2.216834 -0.937149 -0.586322
v -2.217971 -0.934372 -0.590540
v -2.219429 -0.954025 -0.596736
v -2.215943 -0.956409 -0.593743
v -2.213347 -0.939532 -0.583329
v -2.216834 -0.937149 -0.586322
v -2.215943 -0.956409 -0.593743
v -2.211040 -0.957759 -0.592777
v -2.208444 -0.940883 -0.582363
v -2.213347 -0.939532 -0.583329
v -2.211040 -0.957759 -0.592777
v -2.206035 -0.957714 -0.594097
v -2.203439 -0.940838 -0.583682
v -2.208444 -0.940883 -0.582363
v -2.206035 -0.957714 -0.594097
v -2.202268 -0.956287 -0.597348
v -2.199673 -0.939411 -0.586934
v -2.203439 -0.940838 -0.583682
v -2.202268 -0.956287 -0.597348
v -2.200750 -0.953859 -0.601661
v -2.198155 -0.936983 -0.591246
v -2.199673 -0.939411 -0.586934
v -2.200750 -0.953859 -0.601661
v -2.201886 -0.951082 -0.605878
v -2.199291 -0.934206 -0.595464
v -2.198155 -0.936983 -0.591246
v -2.201886 -0.951082 -0.605878
v -2.205373 -0.948699 -0.608871
v -2.202778 -0.931822 -0.598457
v -2.199291 -0.934206 -0.595464
v -2.205373 -0.948699 -0.608871
v -2.210276 -0.947348 -0.609837
v -2.207681 -0.930472 -0.599423
v -2.202778 -0.931822 -0.598457
v -2.210276 -0.947348 -0.609837
v -2.215281 -0.947393 -0.608518
v -2.212686 -0.930517 -0.598104
v -2.207681 -0.930472 -0.599423
v -2.215281 -0.947393 -0.608518
v -2.219048 -0.948820 -0.605266
v -2.216452 -0.931944 -0.594852
v -2.212686 -0.930517 -0.598104
v -2.219048 -0.948820 -0.605266
v -2.220566 -0.951248 -0.600954
v -2.217971 -0.934372 -0.590540
v -2.216452 -0.931944 -0.594852
v -2.217971 -0.934372 -0.590540
v -2.216834 -0.937149 -0.586322
v -2.213347 -0.939532 -0.583329
v -2.208444 -0.940883 -0.582363
v -2.203439 -0.940838 -0.583682
v -2.199673 -0.939411 -0.586934
v -2.198155 -0.936983 -0.591246
v -2.199291 -0.934206 -0.595464
v -2.202778 -0.931822 -0.598457
v -2.207681 -0.930472 -0.599423
v -2.212686 -0.930517 -0.598104
v -2.216452 -0.931944 -0.594852
v -2.219048 -0.948820 -0.605266
v -2.215281 -0.947393 -0.608518
v -2.210276 -0.947348 -0.609837
v -2.205373 -0.948699 -0.608871
v -2.201886 -0.951082 -0.605878
v -2.200750 -0.953859 -0.601661
v -2.202268 -0.956287 -0.597348
v -2.206035 -0.957714 -0.594097
v -2.211040 -0.957759 -0.592777
v -2.215943 -0.956409 -0.593743
v -2.219429 -0.954025 -0.596736
v -2.220566 -0.951248 -0.600954
usemtl mat24

vn -0.990809 0.130571 0.035331
vn -0.990809 0.130571 0.035331
vn -0.990809 0.130571 0.035331
vn -0.990809 0.130571 0.035331
vn -0.877155 -0.147179 0.457097
vn -0.877155 -0.147179 0.457097
vn -0.877155 -0.147179 0.457097
vn -0.877155 -0.147179 0.457097
vn -0.528467 -0.385493 0.756385
vn -0.528467 -0.385493 0.756385
vn -0.528467 -0.385493 0.756385
vn -0.528467 -0.385493 0.756385
vn -0.038178 -0.520514 0.852999
vn -0.038178 -0.520514 0.852999
vn -0.038178 -0.520514 0.852999
vn -0.038178 -0.520514 0.852999
vn 0.462342 -0.516064 0.721054
vn 0.462342 -0.516064 0.721054
vn 0.462342 -0.516064 0.721054
vn 0.462342 -0.516064 0.721054
vn 0.838977 -0.373335 0.395902
vn 0.838977 -0.373335 0.395902
vn 0.838977 -0.373335 0.395902
vn 0.838977 -0.373335 0.395902
vn 0.990809 -0.130571 -0.035331
vn 0.990809 -0.130571 -0.035331
vn 0.990809 -0.130571 -0.035331
vn 0.990809 -0.130571 -0.035331
vn 0.877155 0.147179 -0.457097
vn 0.877155 0.147179 -0.457097
vn 0.877155 0.147179 -0.457097
vn 0.877155 0.147179 -0.457097
vn 0.528467 0.385493 -0.756385
vn 0.528467 0.385493 -0.756385
vn 0.528467 0.385493 -0.756385
vn 0.528467 0.385493 -0.756385
vn 0.038178 0.520514 -0.852999
vn 0.038178 0.520514 -0.852999
vn 0.038178 0.520514 -0.852999
vn 0.038178 0.520514 -0.852999
vn -0.462342 0.516064 -0.721054
vn -0.462342 0.516064 -0.721054
vn -0.462342 0.516064 -0.721054
vn -0.462342 0.516064 -0.721054
vn -0.838977 0.373335 -0.395902
vn -0.838977 0.373335 -0.395902
vn -0.838977 0.373335 -0.395902
vn -0.838977 0.373335 -0.395902
vn 0.129767 0.843811 0.520715
vn 0.129767 0.843811 0.520715
vn 0.129767 0.843811 0.520715
vn 0.129767 0.843811 0.520715
vn 0.129767 0.843811 0.520715
vn 0.129767 0.843811 0.520715
vn 0.129767 0.843811 0.520715
vn 0.129767 0.843811 0.520715
vn 0.129767 0.843811 0.520715
vn 0.129767 0.843811 0.520715
vn 0.129767 0.843811 0.520715
vn 0.129767 0.843811 0.520715
vn -0.129767 -0.843811 -0.520715
vn -0.129767 -0.843811 -0.520715
vn -0.129767 -0.843811 -0.520715
vn -0.129767 -0.843811 -0.520715
vn -0.129767 -0.843811 -0.520715
vn -0.129767 -0.843811 -0.520715
vn -0.129767 -0.843811 -0.520715
vn -0.129767 -0.843811 -0.520715
vn -0.129767 -0.843811 -0.520715
vn -0.129767 -0.843811 -0.520715
vn -0.129767 -0.843811 -0.520715
vn -0.129767 -0.843811 -0.520715

vt 0.018466 -0.079750
vt 0.018206 -0.080177
vt 0.016496 -0.079140
vt 0.016756 -0.078713
vt 0.078961 -0.046254
vt 0.078466 -0.046326
vt 0.078178 -0.044346
vt 0.078673 -0.044274
vt 0.059712 -0.181595
vt 0.059421 -0.181189
vt 0.061047 -0.180025
vt 0.061338 -0.180431
vt 0.035557 -0.248542
vt 0.035376 -0.248076
vt 0.037239 -0.247350
vt 0.037421 -0.247815
vt 0.020891 -0.246836
vt 0.020735 -0.246360
vt 0.022635 -0.245737
vt 0.022791 -0.246212
vt 0.006267 -0.182090
vt 0.006094 -0.181621
vt 0.007971 -0.180929
vt 0.008144 -0.181398
vt -0.018466 -0.079750
vt -0.018725 -0.079322
vt -0.017015 -0.078285
vt -0.016756 -0.078713
vt -0.078961 -0.046254
vt -0.079455 -0.046182
vt -0.079167 -0.044203
vt -0.078673 -0.044275
vt -0.059712 -0.181595
vt -0.060003 -0.182002
vt -0.061629 -0.180838
vt -0.061338 -0.180431
vt -0.035557 -0.248542
vt -0.035739 -0.249008
vt -0.037602 -0.248281
vt -0.037421 -0.247815
vt -0.020891 -0.246836
vt -0.021047 -0.247311
vt -0.022947 -0.246687
vt -0.022791 -0.246212
vt -0.006267 -0.182090
vt -0.006440 -0.182559
vt -0.008317 -0.181867
vt -0.008144 -0.181398
vt 0.083437 -0.238194
vt 0.082944 -0.238352
vt 0.082439 -0.238242
vt 0.082055 -0.237894
vt 0.081898 -0.237401
vt 0.082008 -0.236895
vt 0.082356 -0.236512
vt 0.082849 -0.236354
vt 0.083355 -0.236464
vt 0.083738 -0.236812
vt 0.083895 -0.237305
vt 0.083786 -0.237811
vt -0.083786 -0.237811
vt -0.083895 -0.237305
vt -0.083738 -0.236812
vt -0.083355 -0.236464
vt -0.082849 -0.236354
vt -0.082356 -0.236512
vt -0.082008 -0.236895
vt -0.081898 -0.237401
vt -0.082055 -0.237894
vt -0.082439 -0.238242
vt -0.082944 -0.238352
vt -0.083437 -0.238194
s off
f 1/1/1 2/2/2 3/3/3
f 1/1/1 3/3/3 4/4/4
f 5/5/5 6/6/6 7/7/7
f 5/5/5 7/7/7 8/8/8
f 9/9/9 10/10/10 11/11/11
f 9/9/9 11/11/11 12/12/12
f 13/13/13 14/14/14 15/15/15
f 13/13/13 15/15/15 16/16/16
f 17/17/17 18/18/18 19/19/19
f 17/17/17 19/19/19 20/20/20
f 21/21/21 22/22/22 23/23/23
f 21/21/21 23/23/23 24/24/24
f 25/25/25 26/26/26 27/27/27
f 25/25/25 27/27/27 28/28/28
f 29/29/29 30/30/30 31/31/31
f 29/29/29 31/31/31 32/32/32
f 33/33/33 34/34/34 35/35/35
f 33/33/33 35/35/35 36/36/36
f 37/37/37 38/38/38 39/39/39
f 37/37/37 39/39/39 40/40/40
f 41/41/41 42/42/42 43/43/43
f 41/41/41 43/43/43 44/44/44
f 45/45/45 46/46/46 47/47/47
f 45/45/45 47/47/47 48/48/48
f 49/49/49 50/50/50 51/51/51
f 49/49/49 51/51/51 52/52/52
f 49/49/49 52/52/52 53/53/53
f 49/49/49 53/53/53 54/54/54
f 49/49/49 54/54/54 55/55/55
f 49/49/49 55/55/55 56/56/56
f 49/49/49 56/56/56 57/57/57
f 49/49/49 57/57/57 58/58/58
f 49/49/49 58/58/58 59/59/59
f 49/49/49 59/59/59 60/60/60
f 61/61/61 62/62/62 63/63/63
f 61/61/61 63/63/63 64/64/64
f 61/61/61 64/64/64 65/65/65
f 61/61/61 65/65/65 66/66/66
f 61/61/61 66/66/66 67/67/67
f 61/61/61 67/67/67 68/68/68
f 61/61/61 68/68/68 69/69/69
f 61/61/61 69/69/69 70/70/70
f 61/61/61 70/70/70 71/71/71
f 61/61/61 71/71/71 72/72/72
