# Exported using automatic converter by Erwin Coumans
mtllib model6.mtl
#object mesh899318251

v 3.298238 -0.444511 -3.250148
v 3.298238 -0.314511 -3.250148
v -2.731762 -0.314511 -3.250149
v -2.731762 -0.444511 -3.250149
v -2.731762 -0.314511 -3.280149
v 3.298238 -0.314511 -3.280148
v 3.298238 -0.444511 -3.280148
v -2.731762 -0.444511 -3.280149
v -2.731762 -0.314511 -3.250149
v -2.731762 -0.314511 -3.280149
v -2.731762 -0.444511 -3.280149
v -2.731762 -0.444511 -3.250149
v 3.298238 -0.444511 -3.280148
v 3.298238 -0.314511 -3.280148
v 3.298238 -0.314511 -3.250148
v 3.298238 -0.444511 -3.250148
v -2.731762 -0.444511 -3.280149
v 3.298238 -0.444511 -3.280148
v 3.298238 -0.444511 -3.250148
v -2.731762 -0.444511 -3.250149
v 3.298238 -0.314511 -3.250148
v 3.298238 -0.314511 -3.280148
v -2.731762 -0.314511 -3.280149
v -2.731762 -0.314511 -3.250149
usemtl mat5

vn -0.000000 0.000000 1.000000
vn -0.000000 0.000000 1.000000
vn -0.000000 0.000000 1.000000
vn -0.000000 0.000000 1.000000
vn 0.000000 0.000000 -1.000000
vn 0.000000 0.000000 -1.000000
vn 0.000000 0.000000 -1.000000
vn 0.000000 0.000000 -1.000000
vn -1.000000 0.000000 -0.000000
vn -1.000000 0.000000 -0.000000
vn -1.000000 0.000000 -0.000000
vn -1.000000 0.000000 -0.000000
vn 1.000000 -0.000000 0.000000
vn 1.000000 -0.000000 0.000000
vn 1.000000 -0.000000 0.000000
vn 1.000000 -0.000000 0.000000
vn 0.000000 -1.000000 0.000000
vn 0.000000 -1.000000 0.000000
vn 0.000000 -1.000000 0.000000
vn 0.000000 -1.000000 0.000000
vn 0.000000 1.000000 -0.000000
vn 0.000000 1.000000 -0.000000
vn 0.000000 1.000000 -0.000000
vn 0.000000 1.000000 -0.000000

vt -0.130139 0.269222
vt -0.118512 0.275036
vt 0.151158 -0.264303
vt 0.139531 -0.270117
vt -0.151158 -0.264303
vt 0.118512 0.275036
vt 0.130139 0.269222
vt -0.139531 -0.270117
vt 0.182160 0.151006
vt 0.184601 0.152749
vt 0.192157 0.142171
vt 0.189716 0.140427
vt -0.192157 0.142171
vt -0.184601 0.152749
vt -0.182160 0.151006
vt -0.189716 0.140427
vt -0.327323 -0.205905
vt -0.124512 0.361965
vt -0.121687 0.360956
vt -0.324497 -0.206914
vt 0.121687 0.360956
vt 0.124512 0.361965
vt 0.327323 -0.205905
vt 0.324497 -0.206914
s off
f 1/1/1 2/2/2 3/3/3
f 1/1/1 3/3/3 4/4/4
f 5/5/5 6/6/6 7/7/7
f 5/5/5 7/7/7 8/8/8
f 9/9/9 10/10/10 11/11/11
f 9/9/9 11/11/11 12/12/12
f 13/13/13 14/14/14 15/15/15
f 13/13/13 15/15/15 16/16/16
f 17/17/17 18/18/18 19/19/19
f 17/17/17 19/19/19 20/20/20
f 21/21/21 22/22/22 23/23/23
f 21/21/21 23/23/23 24/24/24
