# Exported using automatic converter by Erwin Coumans
mtllib model6.mtl
#object mesh1333702396

v 1.878238 1.255489 -0.480148
v 1.878238 1.255489 -0.580148
v 1.878238 1.135489 -0.580148
v 1.878238 1.135489 -0.480148
v 1.938238 1.135489 -0.580148
v 1.938238 1.255489 -0.580148
v 1.938238 1.255489 -0.480148
v 1.938238 1.135489 -0.480148
v 1.878238 1.135489 -0.580148
v 1.938238 1.135489 -0.580148
v 1.938238 1.135489 -0.480148
v 1.878238 1.135489 -0.480148
v 1.938238 1.255489 -0.480148
v 1.938238 1.255489 -0.580148
v 1.878238 1.255489 -0.580148
v 1.878238 1.255489 -0.480148
v 1.938238 1.135489 -0.480148
v 1.938238 1.255489 -0.480148
v 1.878238 1.255489 -0.480148
v 1.878238 1.135489 -0.480148
v 1.878238 1.255489 -0.580148
v 1.938238 1.255489 -0.580148
v 1.938238 1.135489 -0.580148
v 1.878238 1.135489 -0.580148
usemtl mat21

vn -1.000000 0.000000 -0.000000
vn -1.000000 0.000000 -0.000000
vn -1.000000 0.000000 -0.000000
vn -1.000000 0.000000 -0.000000
vn 1.000000 0.000000 0.000000
vn 1.000000 0.000000 0.000000
vn 1.000000 0.000000 0.000000
vn 1.000000 0.000000 0.000000
vn -0.000000 -1.000000 0.000000
vn -0.000000 -1.000000 0.000000
vn -0.000000 -1.000000 0.000000
vn -0.000000 -1.000000 0.000000
vn 0.000000 1.000000 -0.000000
vn 0.000000 1.000000 -0.000000
vn 0.000000 1.000000 -0.000000
vn 0.000000 1.000000 -0.000000
vn -0.000000 0.000000 1.000000
vn -0.000000 0.000000 1.000000
vn -0.000000 0.000000 1.000000
vn -0.000000 0.000000 1.000000
vn 0.000000 -0.000000 -1.000000
vn 0.000000 -0.000000 -1.000000
vn 0.000000 -0.000000 -1.000000
vn 0.000000 -0.000000 -1.000000

vt -0.134499 0.117759
vt -0.126361 0.123571
vt -0.119386 0.113806
vt -0.127524 0.107994
vt 0.119386 0.113806
vt 0.126361 0.123571
vt 0.134499 0.117759
vt 0.127524 0.107994
vt 0.081999 0.137427
vt 0.084017 0.143077
vt 0.093434 0.139714
vt 0.091416 0.134064
vt -0.093434 0.139714
vt -0.084017 0.143077
vt -0.081999 0.137427
vt -0.091416 0.134064
vt 0.072001 0.218240
vt 0.082735 0.223607
vt 0.085418 0.218240
vt 0.074685 0.212874
vt -0.085418 0.218240
vt -0.082734 0.223607
vt -0.072001 0.218240
vt -0.074685 0.212874
s off
f 1/1/1 2/2/2 3/3/3
f 1/1/1 3/3/3 4/4/4
f 5/5/5 6/6/6 7/7/7
f 5/5/5 7/7/7 8/8/8
f 9/9/9 10/10/10 11/11/11
f 9/9/9 11/11/11 12/12/12
f 13/13/13 14/14/14 15/15/15
f 13/13/13 15/15/15 16/16/16
f 17/17/17 18/18/18 19/19/19
f 17/17/17 19/19/19 20/20/20
f 21/21/21 22/22/22 23/23/23
f 21/21/21 23/23/23 24/24/24
