# Exported using automatic converter by Erwin Coumans
mtllib model6.mtl
#object group1395972722_1

v -0.216762 -0.444511 -3.019748
v -0.216762 -0.424511 -3.019748
v -0.216762 -0.424511 -3.034748
v -0.216762 -0.444511 -3.034748
v -0.196762 -0.424511 -3.034748
v -0.196762 -0.424511 -3.019748
v -0.196762 -0.444511 -3.019748
v -0.196762 -0.444511 -3.034748
v -0.216762 -0.424511 -3.034748
v -0.196762 -0.424511 -3.034748
v -0.196762 -0.444511 -3.034748
v -0.216762 -0.444511 -3.034748
v -0.196762 -0.444511 -3.019748
v -0.196762 -0.424511 -3.019748
v -0.216762 -0.424511 -3.019748
v -0.216762 -0.444511 -3.019748
v -0.196762 -0.444511 -3.034748
v -0.196762 -0.444511 -3.019748
v -0.216762 -0.444511 -3.019748
v -0.216762 -0.444511 -3.034748
v -0.216762 -0.424511 -3.019748
v -0.196762 -0.424511 -3.019748
v -0.196762 -0.424511 -3.034748
v -0.216762 -0.424511 -3.034748
v -0.216761 -0.414511 -3.019748
v -0.216761 -0.394511 -3.019748
v -0.216761 -0.394511 -3.039748
v -0.216761 -0.414511 -3.039748
v -0.196761 -0.394511 -3.039748
v -0.196761 -0.394511 -3.019748
v -0.196761 -0.414511 -3.019748
v -0.196761 -0.414511 -3.039748
v -0.216761 -0.394511 -3.039748
v -0.196761 -0.394511 -3.039748
v -0.196761 -0.414511 -3.039748
v -0.216761 -0.414511 -3.039748
v -0.196761 -0.414511 -3.019748
v -0.196761 -0.394511 -3.019748
v -0.216761 -0.394511 -3.019748
v -0.216761 -0.414511 -3.019748
v -0.196761 -0.414511 -3.039748
v -0.196761 -0.414511 -3.019748
v -0.216761 -0.414511 -3.019748
v -0.216761 -0.414511 -3.039748
v -0.216761 -0.394511 -3.019748
v -0.196761 -0.394511 -3.019748
v -0.196761 -0.394511 -3.039748
v -0.216761 -0.394511 -3.039748
v -0.216762 -0.449511 -3.024748
v -0.216762 -0.429511 -3.024748
v -0.216762 -0.429511 -3.044748
v -0.216762 -0.449511 -3.044748
v -0.196762 -0.429511 -3.044748
v -0.196762 -0.429511 -3.024748
v -0.196762 -0.449511 -3.024748
v -0.196762 -0.449511 -3.044748
v -0.216762 -0.429511 -3.044748
v -0.196762 -0.429511 -3.044748
v -0.196762 -0.449511 -3.044748
v -0.216762 -0.449511 -3.044748
v -0.196762 -0.449511 -3.024748
v -0.196762 -0.429511 -3.024748
v -0.216762 -0.429511 -3.024748
v -0.216762 -0.449511 -3.024748
v -0.196762 -0.449511 -3.044748
v -0.196762 -0.449511 -3.024748
v -0.216762 -0.449511 -3.024748
v -0.216762 -0.449511 -3.044748
v -0.216762 -0.429511 -3.024748
v -0.196762 -0.429511 -3.024748
v -0.196762 -0.429511 -3.044748
v -0.216762 -0.429511 -3.044748
v -0.251761 -0.409511 -3.019748
v -0.251761 -0.389511 -3.019748
v -0.251761 -0.389511 -3.039748
v -0.251761 -0.409511 -3.039748
v -0.231761 -0.389511 -3.039748
v -0.231761 -0.389511 -3.019748
v -0.231761 -0.409511 -3.019748
v -0.231761 -0.409511 -3.039748
v -0.251761 -0.389511 -3.039748
v -0.231761 -0.389511 -3.039748
v -0.231761 -0.409511 -3.039748
v -0.251761 -0.409511 -3.039748
v -0.231761 -0.409511 -3.019748
v -0.231761 -0.389511 -3.019748
v -0.251761 -0.389511 -3.019748
v -0.251761 -0.409511 -3.019748
v -0.231761 -0.409511 -3.039748
v -0.231761 -0.409511 -3.019748
v -0.251761 -0.409511 -3.019748
v -0.251761 -0.409511 -3.039748
v -0.251761 -0.389511 -3.019748
v -0.231761 -0.389511 -3.019748
v -0.231761 -0.389511 -3.039748
v -0.251761 -0.389511 -3.039748
v -0.251761 -0.444511 -3.014749
v -0.251761 -0.424511 -3.014749
v -0.251761 -0.424511 -3.044748
v -0.251761 -0.444511 -3.044748
v -0.231761 -0.424511 -3.044748
v -0.231761 -0.424511 -3.014749
v -0.231761 -0.444511 -3.014749
v -0.231761 -0.444511 -3.044748
v -0.251761 -0.424511 -3.044748
v -0.231761 -0.424511 -3.044748
v -0.231761 -0.444511 -3.044748
v -0.251761 -0.444511 -3.044748
v -0.231761 -0.444511 -3.014749
v -0.231761 -0.424511 -3.014749
v -0.251761 -0.424511 -3.014749
v -0.251761 -0.444511 -3.014749
v -0.231761 -0.444511 -3.044748
v -0.231761 -0.444511 -3.014749
v -0.251761 -0.444511 -3.014749
v -0.251761 -0.444511 -3.044748
v -0.251761 -0.424511 -3.014749
v -0.231761 -0.424511 -3.014749
v -0.231761 -0.424511 -3.044748
v -0.251761 -0.424511 -3.044748
usemtl mat21

vn -1.000000 0.000000 0.000000
vn -1.000000 0.000000 0.000000
vn -1.000000 0.000000 0.000000
vn -1.000000 0.000000 0.000000
vn 1.000000 -0.000000 -0.000000
vn 1.000000 -0.000000 -0.000000
vn 1.000000 -0.000000 -0.000000
vn 1.000000 -0.000000 -0.000000
vn -0.000000 -0.000000 -1.000000
vn -0.000000 -0.000000 -1.000000
vn -0.000000 -0.000000 -1.000000
vn -0.000000 -0.000000 -1.000000
vn 0.000000 0.000000 1.000000
vn 0.000000 0.000000 1.000000
vn 0.000000 0.000000 1.000000
vn 0.000000 0.000000 1.000000
vn -0.000000 -1.000000 0.000000
vn -0.000000 -1.000000 0.000000
vn -0.000000 -1.000000 0.000000
vn -0.000000 -1.000000 0.000000
vn 0.000000 1.000000 -0.000000
vn 0.000000 1.000000 -0.000000
vn 0.000000 1.000000 -0.000000
vn 0.000000 1.000000 -0.000000
vn -1.000000 0.000000 0.000000
vn -1.000000 0.000000 0.000000
vn -1.000000 0.000000 0.000000
vn -1.000000 0.000000 0.000000
vn 1.000000 -0.000000 -0.000000
vn 1.000000 -0.000000 -0.000000
vn 1.000000 -0.000000 -0.000000
vn 1.000000 -0.000000 -0.000000
vn -0.000000 -0.000000 -1.000000
vn -0.000000 -0.000000 -1.000000
vn -0.000000 -0.000000 -1.000000
vn -0.000000 -0.000000 -1.000000
vn 0.000000 0.000000 1.000000
vn 0.000000 0.000000 1.000000
vn 0.000000 0.000000 1.000000
vn 0.000000 0.000000 1.000000
vn -0.000000 -1.000000 0.000000
vn -0.000000 -1.000000 0.000000
vn -0.000000 -1.000000 0.000000
vn -0.000000 -1.000000 0.000000
vn 0.000000 1.000000 -0.000000
vn 0.000000 1.000000 -0.000000
vn 0.000000 1.000000 -0.000000
vn 0.000000 1.000000 -0.000000
vn -1.000000 0.000000 0.000000
vn -1.000000 0.000000 0.000000
vn -1.000000 0.000000 0.000000
vn -1.000000 0.000000 0.000000
vn 1.000000 -0.000000 -0.000000
vn 1.000000 -0.000000 -0.000000
vn 1.000000 -0.000000 -0.000000
vn 1.000000 -0.000000 -0.000000
vn -0.000000 -0.000000 -1.000000
vn -0.000000 -0.000000 -1.000000
vn -0.000000 -0.000000 -1.000000
vn -0.000000 -0.000000 -1.000000
vn 0.000000 0.000000 1.000000
vn 0.000000 0.000000 1.000000
vn 0.000000 0.000000 1.000000
vn 0.000000 0.000000 1.000000
vn -0.000000 -1.000000 0.000000
vn -0.000000 -1.000000 0.000000
vn -0.000000 -1.000000 0.000000
vn -0.000000 -1.000000 0.000000
vn 0.000000 1.000000 -0.000000
vn 0.000000 1.000000 -0.000000
vn 0.000000 1.000000 -0.000000
vn 0.000000 1.000000 -0.000000
vn -1.000000 0.000000 0.000000
vn -1.000000 0.000000 0.000000
vn -1.000000 0.000000 0.000000
vn -1.000000 0.000000 0.000000
vn 1.000000 -0.000000 -0.000000
vn 1.000000 -0.000000 -0.000000
vn 1.000000 -0.000000 -0.000000
vn 1.000000 -0.000000 -0.000000
vn -0.000000 -0.000000 -1.000000
vn -0.000000 -0.000000 -1.000000
vn -0.000000 -0.000000 -1.000000
vn -0.000000 -0.000000 -1.000000
vn 0.000000 0.000000 1.000000
vn 0.000000 0.000000 1.000000
vn 0.000000 0.000000 1.000000
vn 0.000000 0.000000 1.000000
vn -0.000000 -1.000000 0.000000
vn -0.000000 -1.000000 0.000000
vn -0.000000 -1.000000 0.000000
vn -0.000000 -1.000000 0.000000
vn 0.000000 1.000000 -0.000000
vn 0.000000 1.000000 -0.000000
vn 0.000000 1.000000 -0.000000
vn 0.000000 1.000000 -0.000000
vn -1.000000 0.000000 0.000000
vn -1.000000 0.000000 0.000000
vn -1.000000 0.000000 0.000000
vn -1.000000 0.000000 0.000000
vn 1.000000 -0.000000 -0.000000
vn 1.000000 -0.000000 -0.000000
vn 1.000000 -0.000000 -0.000000
vn 1.000000 -0.000000 -0.000000
vn -0.000000 -0.000000 -1.000000
vn -0.000000 -0.000000 -1.000000
vn -0.000000 -0.000000 -1.000000
vn -0.000000 -0.000000 -1.000000
vn 0.000000 0.000000 1.000000
vn 0.000000 0.000000 1.000000
vn 0.000000 0.000000 1.000000
vn 0.000000 0.000000 1.000000
vn -0.000000 -1.000000 0.000000
vn -0.000000 -1.000000 0.000000
vn -0.000000 -1.000000 0.000000
vn -0.000000 -1.000000 0.000000
vn 0.000000 1.000000 -0.000000
vn 0.000000 1.000000 -0.000000
vn 0.000000 1.000000 -0.000000
vn 0.000000 1.000000 -0.000000

vt 0.170968 0.127035
vt 0.169805 0.128663
vt 0.171026 0.129535
vt 0.172188 0.127907
vt -0.171026 0.129535
vt -0.169805 0.128663
vt -0.170968 0.127035
vt -0.172188 0.127907
vt -0.028845 -0.044274
vt -0.027951 -0.042485
vt -0.026162 -0.043380
vt -0.027056 -0.045169
vt 0.026162 -0.043380
vt 0.027951 -0.042485
vt 0.028845 -0.044274
vt 0.027056 -0.045169
vt -0.218951 0.024573
vt -0.217538 0.024068
vt -0.218211 0.022185
vt -0.219624 0.022689
vt 0.218211 0.022185
vt 0.217538 0.024068
vt 0.218951 0.024573
vt 0.219624 0.022689
vt 0.169224 0.129477
vt 0.168062 0.131104
vt 0.169689 0.132267
vt 0.170852 0.130639
vt -0.169689 0.132267
vt -0.168062 0.131104
vt -0.169224 0.129477
vt -0.170852 0.130639
vt -0.031529 -0.042932
vt -0.030634 -0.041144
vt -0.028845 -0.042038
vt -0.029740 -0.043827
vt 0.028845 -0.042038
vt 0.030634 -0.041144
vt 0.031529 -0.042932
vt 0.029740 -0.043827
vt -0.219422 0.024741
vt -0.217538 0.024068
vt -0.218211 0.022185
vt -0.220095 0.022857
vt 0.218211 0.022185
vt 0.217538 0.024068
vt 0.219422 0.024741
vt 0.220095 0.022857
vt 0.171665 0.126919
vt 0.170503 0.128547
vt 0.172130 0.129709
vt 0.173293 0.128082
vt -0.172130 0.129709
vt -0.170503 0.128547
vt -0.171665 0.126919
vt -0.173293 0.128082
vt -0.028398 -0.044498
vt -0.027504 -0.042709
vt -0.025715 -0.043603
vt -0.026609 -0.045392
vt 0.025715 -0.043603
vt 0.027504 -0.042709
vt 0.028398 -0.044498
vt 0.026609 -0.045392
vt -0.219893 0.024909
vt -0.218009 0.024236
vt -0.218682 0.022353
vt -0.220565 0.023026
vt 0.218682 0.022353
vt 0.218009 0.024236
vt 0.219893 0.024909
vt 0.220565 0.023026
vt 0.168933 0.129883
vt 0.167771 0.131511
vt 0.169399 0.132673
vt 0.170561 0.131046
vt -0.169399 0.132673
vt -0.167771 0.131511
vt -0.168933 0.129883
vt -0.170561 0.131046
vt -0.033541 -0.045839
vt -0.032647 -0.044050
vt -0.030858 -0.044945
vt -0.031752 -0.046734
vt 0.030858 -0.044945
vt 0.032647 -0.044050
vt 0.033541 -0.045839
vt 0.031752 -0.046734
vt -0.220599 0.021445
vt -0.218716 0.020772
vt -0.219388 0.018889
vt -0.221272 0.019561
vt 0.219388 0.018889
vt 0.218716 0.020772
vt 0.220599 0.021445
vt 0.221272 0.019561
vt 0.170561 0.126745
vt 0.169399 0.128372
vt 0.171840 0.130116
vt 0.173002 0.128488
vt -0.171840 0.130116
vt -0.169399 0.128372
vt -0.170561 0.126745
vt -0.173002 0.128488
vt -0.030410 -0.047404
vt -0.029516 -0.045616
vt -0.027727 -0.046510
vt -0.028622 -0.048299
vt 0.027727 -0.046510
vt 0.029516 -0.045616
vt 0.030410 -0.047404
vt 0.028622 -0.048299
vt -0.221070 0.021613
vt -0.218245 0.020604
vt -0.218917 0.018721
vt -0.221742 0.019730
vt 0.218917 0.018721
vt 0.218245 0.020604
vt 0.221070 0.021613
vt 0.221742 0.019730
s off
f 1/1/1 2/2/2 3/3/3
f 1/1/1 3/3/3 4/4/4
f 5/5/5 6/6/6 7/7/7
f 5/5/5 7/7/7 8/8/8
f 9/9/9 10/10/10 11/11/11
f 9/9/9 11/11/11 12/12/12
f 13/13/13 14/14/14 15/15/15
f 13/13/13 15/15/15 16/16/16
f 17/17/17 18/18/18 19/19/19
f 17/17/17 19/19/19 20/20/20
f 21/21/21 22/22/22 23/23/23
f 21/21/21 23/23/23 24/24/24
f 25/25/25 26/26/26 27/27/27
f 25/25/25 27/27/27 28/28/28
f 29/29/29 30/30/30 31/31/31
f 29/29/29 31/31/31 32/32/32
f 33/33/33 34/34/34 35/35/35
f 33/33/33 35/35/35 36/36/36
f 37/37/37 38/38/38 39/39/39
f 37/37/37 39/39/39 40/40/40
f 41/41/41 42/42/42 43/43/43
f 41/41/41 43/43/43 44/44/44
f 45/45/45 46/46/46 47/47/47
f 45/45/45 47/47/47 48/48/48
f 49/49/49 50/50/50 51/51/51
f 49/49/49 51/51/51 52/52/52
f 53/53/53 54/54/54 55/55/55
f 53/53/53 55/55/55 56/56/56
f 57/57/57 58/58/58 59/59/59
f 57/57/57 59/59/59 60/60/60
f 61/61/61 62/62/62 63/63/63
f 61/61/61 63/63/63 64/64/64
f 65/65/65 66/66/66 67/67/67
f 65/65/65 67/67/67 68/68/68
f 69/69/69 70/70/70 71/71/71
f 69/69/69 71/71/71 72/72/72
f 73/73/73 74/74/74 75/75/75
f 73/73/73 75/75/75 76/76/76
f 77/77/77 78/78/78 79/79/79
f 77/77/77 79/79/79 80/80/80
f 81/81/81 82/82/82 83/83/83
f 81/81/81 83/83/83 84/84/84
f 85/85/85 86/86/86 87/87/87
f 85/85/85 87/87/87 88/88/88
f 89/89/89 90/90/90 91/91/91
f 89/89/89 91/91/91 92/92/92
f 93/93/93 94/94/94 95/95/95
f 93/93/93 95/95/95 96/96/96
f 97/97/97 98/98/98 99/99/99
f 97/97/97 99/99/99 100/100/100
f 101/101/101 102/102/102 103/103/103
f 101/101/101 103/103/103 104/104/104
f 105/105/105 106/106/106 107/107/107
f 105/105/105 107/107/107 108/108/108
f 109/109/109 110/110/110 111/111/111
f 109/109/109 111/111/111 112/112/112
f 113/113/113 114/114/114 115/115/115
f 113/113/113 115/115/115 116/116/116
f 117/117/117 118/118/118 119/119/119
f 117/117/117 119/119/119 120/120/120
