# Exported using automatic converter by Erwin Coumans
mtllib model6.mtl
#object group1655629968_1

v -0.122966 0.449866 -0.414446
v -0.122671 0.486074 -0.414605
v 0.587026 0.480309 -0.415014
v 0.586731 0.444100 -0.414854
v 0.587034 0.480373 -0.400530
v -0.122663 0.486138 -0.400121
v -0.122957 0.449929 -0.399962
v 0.586740 0.444164 -0.400371
v 0.587026 0.480309 -0.415014
v 0.587034 0.480373 -0.400530
v 0.586740 0.444164 -0.400371
v 0.586731 0.444100 -0.414854
v -0.122957 0.449929 -0.399962
v -0.122663 0.486138 -0.400121
v -0.122671 0.486074 -0.414605
v -0.122966 0.449866 -0.414446
v 0.586740 0.444164 -0.400371
v -0.122957 0.449929 -0.399962
v -0.122966 0.449866 -0.414446
v 0.586731 0.444100 -0.414854
v -0.122671 0.486074 -0.414605
v -0.122663 0.486138 -0.400121
v 0.587034 0.480373 -0.400530
v 0.587026 0.480309 -0.415014
v 0.579458 0.440523 -0.418455
v 0.579634 0.462248 -0.418551
v 0.608602 0.462012 -0.418567
v 0.608425 0.440287 -0.418472
v 0.609023 0.465036 0.269421
v 0.580055 0.465272 0.269437
v 0.579879 0.443547 0.269533
v 0.608846 0.443311 0.269516
v 0.608602 0.462012 -0.418567
v 0.609023 0.465036 0.269421
v 0.608846 0.443311 0.269516
v 0.608425 0.440287 -0.418472
v 0.579879 0.443547 0.269533
v 0.580055 0.465272 0.269437
v 0.579634 0.462248 -0.418551
v 0.579458 0.440523 -0.418455
v 0.608846 0.443311 0.269516
v 0.579879 0.443547 0.269533
v 0.579458 0.440523 -0.418455
v 0.608425 0.440287 -0.418472
v 0.579634 0.462248 -0.418551
v 0.580055 0.465272 0.269437
v 0.609023 0.465036 0.269421
v 0.608602 0.462012 -0.418567
v -0.129831 0.449217 0.248213
v -0.129537 0.485425 0.248054
v 0.580160 0.479660 0.247645
v 0.579866 0.443451 0.247805
v 0.580168 0.479724 0.262129
v -0.129528 0.485489 0.262538
v -0.129823 0.449280 0.262697
v 0.579875 0.443515 0.262289
v 0.580160 0.479660 0.247645
v 0.580168 0.479724 0.262129
v 0.579875 0.443515 0.262289
v 0.579866 0.443451 0.247805
v -0.129823 0.449280 0.262697
v -0.129528 0.485489 0.262538
v -0.129537 0.485425 0.248054
v -0.129831 0.449217 0.248213
v 0.579875 0.443515 0.262289
v -0.129823 0.449280 0.262697
v -0.129831 0.449217 0.248213
v 0.579866 0.443451 0.247805
v -0.129537 0.485425 0.248054
v -0.129528 0.485489 0.262538
v 0.580168 0.479724 0.262129
v 0.580160 0.479660 0.247645
v -0.151969 0.446433 -0.425275
v -0.151792 0.468158 -0.425371
v -0.122825 0.467923 -0.425388
v -0.123002 0.446198 -0.425292
v -0.122404 0.470947 0.262600
v -0.151371 0.471182 0.262617
v -0.151548 0.449457 0.262713
v -0.122581 0.449221 0.262696
v -0.122825 0.467923 -0.425388
v -0.122404 0.470947 0.262600
v -0.122581 0.449221 0.262696
v -0.123002 0.446198 -0.425292
v -0.151548 0.449457 0.262713
v -0.151371 0.471182 0.262617
v -0.151792 0.468158 -0.425371
v -0.151969 0.446433 -0.425275
v -0.122581 0.449221 0.262696
v -0.151548 0.449457 0.262713
v -0.151969 0.446433 -0.425275
v -0.123002 0.446198 -0.425292
v -0.151792 0.468158 -0.425371
v -0.151371 0.471182 0.262617
v -0.122404 0.470947 0.262600
v -0.122825 0.467923 -0.425388
usemtl mat20

vn -0.000612 -0.004395 -0.999990
vn -0.000612 -0.004395 -0.999990
vn -0.000612 -0.004395 -0.999990
vn -0.000612 -0.004395 -0.999990
vn 0.000612 0.004395 0.999990
vn 0.000612 0.004395 0.999990
vn 0.000612 0.004395 0.999990
vn 0.000612 0.004395 0.999990
vn 0.999967 -0.008124 -0.000576
vn 0.999967 -0.008124 -0.000576
vn 0.999967 -0.008124 -0.000576
vn 0.999967 -0.008124 -0.000576
vn -0.999967 0.008124 0.000576
vn -0.999967 0.008124 0.000576
vn -0.999967 0.008124 0.000576
vn -0.999967 0.008124 0.000576
vn -0.008121 -0.999957 0.004400
vn -0.008121 -0.999957 0.004400
vn -0.008121 -0.999957 0.004400
vn -0.008121 -0.999957 0.004400
vn 0.008121 0.999957 -0.004400
vn 0.008121 0.999957 -0.004400
vn 0.008121 0.999957 -0.004400
vn 0.008121 0.999957 -0.004400
vn -0.000612 -0.004395 -0.999990
vn -0.000612 -0.004395 -0.999990
vn -0.000612 -0.004395 -0.999990
vn -0.000612 -0.004395 -0.999990
vn 0.000612 0.004395 0.999990
vn 0.000612 0.004395 0.999990
vn 0.000612 0.004395 0.999990
vn 0.000612 0.004395 0.999990
vn 0.999967 -0.008124 -0.000576
vn 0.999967 -0.008124 -0.000576
vn 0.999967 -0.008124 -0.000576
vn 0.999967 -0.008124 -0.000576
vn -0.999967 0.008124 0.000576
vn -0.999967 0.008124 0.000576
vn -0.999967 0.008124 0.000576
vn -0.999967 0.008124 0.000576
vn -0.008121 -0.999957 0.004400
vn -0.008121 -0.999957 0.004400
vn -0.008121 -0.999957 0.004400
vn -0.008121 -0.999957 0.004400
vn 0.008121 0.999957 -0.004400
vn 0.008121 0.999957 -0.004400
vn 0.008121 0.999957 -0.004400
vn 0.008121 0.999957 -0.004400
vn -0.000612 -0.004395 -0.999990
vn -0.000612 -0.004395 -0.999990
vn -0.000612 -0.004395 -0.999990
vn -0.000612 -0.004395 -0.999990
vn 0.000612 0.004395 0.999990
vn 0.000612 0.004395 0.999990
vn 0.000612 0.004395 0.999990
vn 0.000612 0.004395 0.999990
vn 0.999967 -0.008124 -0.000576
vn 0.999967 -0.008124 -0.000576
vn 0.999967 -0.008124 -0.000576
vn 0.999967 -0.008124 -0.000576
vn -0.999967 0.008124 0.000576
vn -0.999967 0.008124 0.000576
vn -0.999967 0.008124 0.000576
vn -0.999967 0.008124 0.000576
vn -0.008121 -0.999957 0.004400
vn -0.008121 -0.999957 0.004400
vn -0.008121 -0.999957 0.004400
vn -0.008121 -0.999957 0.004400
vn 0.008121 0.999957 -0.004400
vn 0.008121 0.999957 -0.004400
vn 0.008121 0.999957 -0.004400
vn 0.008121 0.999957 -0.004400
vn -0.000612 -0.004395 -0.999990
vn -0.000612 -0.004395 -0.999990
vn -0.000612 -0.004395 -0.999990
vn -0.000612 -0.004395 -0.999990
vn 0.000612 0.004395 0.999990
vn 0.000612 0.004395 0.999990
vn 0.000612 0.004395 0.999990
vn 0.000612 0.004395 0.999990
vn 0.999967 -0.008124 -0.000576
vn 0.999967 -0.008124 -0.000576
vn 0.999967 -0.008124 -0.000576
vn 0.999967 -0.008124 -0.000576
vn -0.999967 0.008124 0.000576
vn -0.999967 0.008124 0.000576
vn -0.999967 0.008124 0.000576
vn -0.999967 0.008124 0.000576
vn -0.008121 -0.999957 0.004400
vn -0.008121 -0.999957 0.004400
vn -0.008121 -0.999957 0.004400
vn -0.008121 -0.999957 0.004400
vn 0.008121 0.999957 -0.004400
vn 0.008121 0.999957 -0.004400
vn 0.008121 0.999957 -0.004400
vn 0.008121 0.999957 -0.004400

vt -0.102679 0.003218
vt -0.105902 0.004867
vt -0.073575 0.068049
vt -0.070351 0.066400
vt 0.073575 0.068049
vt 0.105902 0.004867
vt 0.102679 0.003218
vt 0.070351 0.066400
vt 0.094455 0.051856
vt 0.095645 0.051030
vt 0.093578 0.048057
vt 0.092388 0.048883
vt -0.093578 0.048057
vt -0.095645 0.051030
vt -0.094455 0.051856
vt -0.092388 0.048883
vt 0.055617 0.008945
vt 0.031831 -0.057923
vt 0.030466 -0.057438
vt 0.054252 0.009430
vt -0.030466 -0.057438
vt -0.031831 -0.057923
vt -0.055617 0.008945
vt -0.054252 0.009430
vt -0.070359 0.065590
vt -0.072293 0.066580
vt -0.070973 0.069159
vt -0.069039 0.068169
vt 0.070973 0.069159
vt 0.072293 0.066580
vt 0.070359 0.065590
vt 0.069039 0.068169
vt 0.093125 0.050577
vt 0.149614 0.011304
vt 0.148374 0.009521
vt 0.091884 0.048793
vt -0.148374 0.009521
vt -0.149614 0.011304
vt -0.093125 0.050577
vt -0.091884 0.048793
vt 0.119460 -0.011459
vt 0.118489 -0.014189
vt 0.053668 0.008869
vt 0.054639 0.011598
vt -0.053668 0.008869
vt -0.118489 -0.014189
vt -0.119460 -0.011459
vt -0.054639 0.011598
vt -0.102686 0.002408
vt -0.105910 0.004058
vt -0.073582 0.067240
vt -0.070359 0.065590
vt 0.073582 0.067240
vt 0.105910 0.004058
vt 0.102686 0.002408
vt 0.070359 0.065590
vt 0.148657 0.013734
vt 0.149846 0.012907
vt 0.147779 0.009934
vt 0.146590 0.010761
vt -0.147779 0.009934
vt -0.149846 0.012907
vt -0.148657 0.013734
vt -0.146590 0.010761
vt 0.117806 -0.013946
vt 0.094021 -0.080813
vt 0.092656 -0.080328
vt 0.116442 -0.013460
vt -0.092656 -0.080328
vt -0.094021 -0.080813
vt -0.117806 -0.013946
vt -0.116442 -0.013460
vt -0.103676 0.000474
vt -0.105610 0.001464
vt -0.104291 0.004043
vt -0.102357 0.003053
vt 0.104291 0.004043
vt 0.105610 0.001464
vt 0.103676 0.000474
vt 0.102357 0.003053
vt 0.092530 0.050990
vt 0.149019 0.011718
vt 0.147779 0.009934
vt 0.091290 0.049206
vt -0.147779 0.009934
vt -0.149019 0.011718
vt -0.092530 0.050990
vt -0.091290 0.049206
vt 0.094264 -0.080131
vt 0.093293 -0.082860
vt 0.028472 -0.059803
vt 0.029443 -0.057074
vt -0.028472 -0.059803
vt -0.093293 -0.082860
vt -0.094263 -0.080131
vt -0.029443 -0.057074
s off
f 1/1/1 2/2/2 3/3/3
f 1/1/1 3/3/3 4/4/4
f 5/5/5 6/6/6 7/7/7
f 5/5/5 7/7/7 8/8/8
f 9/9/9 10/10/10 11/11/11
f 9/9/9 11/11/11 12/12/12
f 13/13/13 14/14/14 15/15/15
f 13/13/13 15/15/15 16/16/16
f 17/17/17 18/18/18 19/19/19
f 17/17/17 19/19/19 20/20/20
f 21/21/21 22/22/22 23/23/23
f 21/21/21 23/23/23 24/24/24
f 25/25/25 26/26/26 27/27/27
f 25/25/25 27/27/27 28/28/28
f 29/29/29 30/30/30 31/31/31
f 29/29/29 31/31/31 32/32/32
f 33/33/33 34/34/34 35/35/35
f 33/33/33 35/35/35 36/36/36
f 37/37/37 38/38/38 39/39/39
f 37/37/37 39/39/39 40/40/40
f 41/41/41 42/42/42 43/43/43
f 41/41/41 43/43/43 44/44/44
f 45/45/45 46/46/46 47/47/47
f 45/45/45 47/47/47 48/48/48
f 49/49/49 50/50/50 51/51/51
f 49/49/49 51/51/51 52/52/52
f 53/53/53 54/54/54 55/55/55
f 53/53/53 55/55/55 56/56/56
f 57/57/57 58/58/58 59/59/59
f 57/57/57 59/59/59 60/60/60
f 61/61/61 62/62/62 63/63/63
f 61/61/61 63/63/63 64/64/64
f 65/65/65 66/66/66 67/67/67
f 65/65/65 67/67/67 68/68/68
f 69/69/69 70/70/70 71/71/71
f 69/69/69 71/71/71 72/72/72
f 73/73/73 74/74/74 75/75/75
f 73/73/73 75/75/75 76/76/76
f 77/77/77 78/78/78 79/79/79
f 77/77/77 79/79/79 80/80/80
f 81/81/81 82/82/82 83/83/83
f 81/81/81 83/83/83 84/84/84
f 85/85/85 86/86/86 87/87/87
f 85/85/85 87/87/87 88/88/88
f 89/89/89 90/90/90 91/91/91
f 89/89/89 91/91/91 92/92/92
f 93/93/93 94/94/94 95/95/95
f 93/93/93 95/95/95 96/96/96
