# Exported using automatic converter by Erwin Coumans
mtllib botlab.mtl
#object mesh850715002

v -2.013771 -0.990707 1.918976
v -2.024650 -0.986860 1.823922
v -2.022109 -1.056549 1.817835
v -2.011229 -1.060395 1.912890
v -1.933154 -1.060331 1.898289
v -1.935696 -0.990642 1.904375
v -1.924816 -0.994489 1.999430
v -1.922275 -1.064177 1.993344
v -2.022109 -1.056549 1.817835
v -1.933154 -1.060331 1.898289
v -1.922275 -1.064177 1.993344
v -2.011229 -1.060395 1.912890
v -1.924816 -0.994489 1.999430
v -1.935696 -0.990642 1.904375
v -2.024650 -0.986860 1.823922
v -2.013771 -0.990707 1.918976
v -1.922275 -1.064177 1.993344
v -1.924816 -0.994489 1.999430
v -2.013771 -0.990707 1.918976
v -2.011229 -1.060395 1.912890
v -2.024650 -0.986860 1.823922
v -1.935696 -0.990642 1.904375
v -1.933154 -1.060331 1.898289
v -2.022109 -1.056549 1.817835
v -2.028091 -0.981179 1.550550
v -2.031240 -0.987116 1.505792
v -2.032725 -1.056862 1.500023
v -2.029575 -1.050925 1.544781
v -1.952029 -1.055255 1.528149
v -1.950544 -0.985509 1.533918
v -1.937394 -0.989572 1.628676
v -1.938879 -1.059318 1.622907
v -1.952029 -1.055255 1.528149
v -1.938879 -1.059318 1.622907
v -2.029575 -1.050925 1.544781
v -1.937394 -0.989572 1.628676
v -1.950544 -0.985509 1.533918
v -2.028091 -0.981179 1.550550
v -1.938879 -1.059318 1.622907
v -1.937394 -0.989572 1.628676
v -2.028091 -0.981179 1.550550
v -2.029575 -1.050925 1.544781
v -2.031240 -0.987116 1.505792
v -1.950544 -0.985509 1.533918
v -1.952029 -1.055255 1.528149
v -2.032725 -1.056862 1.500023
v -1.950544 -0.985509 1.533918
v -2.031240 -0.987116 1.505792
v -2.028091 -0.981179 1.550550
v -2.029575 -1.050925 1.544781
v -2.032725 -1.056862 1.500023
v -1.952029 -1.055255 1.528149
v -2.021458 -0.984930 1.736551
v -2.030908 -0.982463 1.641298
v -2.029467 -1.052275 1.636379
v -2.020017 -1.054742 1.731632
v -1.941751 -1.056229 1.718173
v -1.943192 -0.986417 1.723093
v -1.933743 -0.988883 1.818346
v -1.932302 -1.058695 1.813427
v -2.029467 -1.052275 1.636379
v -1.941751 -1.056229 1.718173
v -1.932302 -1.058695 1.813427
v -2.020017 -1.054742 1.731632
v -1.933743 -0.988883 1.818346
v -1.943192 -0.986417 1.723093
v -2.030908 -0.982463 1.641298
v -2.021458 -0.984930 1.736551
v -1.932302 -1.058695 1.813427
v -1.933743 -0.988883 1.818346
v -2.021458 -0.984930 1.736551
v -2.020017 -1.054742 1.731632
v -2.030908 -0.982463 1.641298
v -1.943192 -0.986417 1.723093
v -1.941751 -1.056229 1.718173
v -2.029467 -1.052275 1.636379
v -2.006910 -0.989087 2.103309
v -2.013976 -0.987598 2.007829
v -2.008144 -1.057210 2.003349
v -2.001079 -1.058700 2.098829
v -1.922540 -1.055449 2.087425
v -1.928372 -0.985837 2.091905
v -1.921306 -0.987326 2.187385
v -1.915474 -1.056939 2.182905
v -2.008144 -1.057210 2.003349
v -1.922540 -1.055449 2.087425
v -1.915474 -1.056939 2.182905
v -2.001079 -1.058700 2.098829
v -1.921306 -0.987326 2.187385
v -1.928372 -0.985837 2.091905
v -2.013976 -0.987598 2.007829
v -2.006910 -0.989087 2.103309
v -1.915474 -1.056939 2.182905
v -1.921306 -0.987326 2.187385
v -2.006910 -0.989087 2.103309
v -2.001079 -1.058700 2.098829
v -2.013976 -0.987598 2.007829
v -1.928372 -0.985837 2.091905
v -1.922540 -1.055449 2.087425
v -2.008144 -1.057210 2.003349
v -2.023532 -0.984164 1.642265
v -2.033416 -0.980474 1.547096
v -2.032515 -1.050230 1.541325
v -2.022630 -1.053920 1.636495
v -1.944443 -1.055818 1.622640
v -1.945344 -0.986062 1.628410
v -1.935460 -0.989752 1.723580
v -1.934558 -1.059508 1.717810
v -2.032515 -1.050230 1.541325
v -1.944443 -1.055818 1.622640
v -1.934558 -1.059508 1.717810
v -2.022630 -1.053920 1.636495
v -1.935460 -0.989752 1.723580
v -1.945344 -0.986062 1.628410
v -2.033416 -0.980474 1.547096
v -2.023532 -0.984164 1.642265
v -1.934558 -1.059508 1.717810
v -1.935460 -0.989752 1.723580
v -2.023532 -0.984164 1.642265
v -2.022630 -1.053920 1.636495
v -2.033416 -0.980474 1.547096
v -1.945344 -0.986062 1.628410
v -1.944443 -1.055818 1.622640
v -2.032515 -1.050230 1.541325
v -2.020504 -0.986690 1.828407
v -2.026662 -0.984473 1.732878
v -2.022838 -1.054202 1.728053
v -2.016680 -1.056419 1.823581
v -1.937981 -1.055419 1.812892
v -1.941804 -0.985691 1.817717
v -1.935647 -0.987908 1.913246
v -1.931823 -1.057636 1.908420
v -2.022838 -1.054202 1.728053
v -1.937981 -1.055419 1.812892
v -1.931823 -1.057636 1.908420
v -2.016680 -1.056419 1.823581
v -1.935647 -0.987908 1.913246
v -1.941804 -0.985691 1.817717
v -2.026662 -0.984473 1.732878
v -2.020504 -0.986690 1.828407
v -1.931823 -1.057636 1.908420
v -1.935647 -0.987908 1.913246
v -2.020504 -0.986690 1.828407
v -2.016680 -1.056419 1.823581
v -2.026662 -0.984473 1.732878
v -1.941804 -0.985691 1.817717
v -1.937981 -1.055419 1.812892
v -2.022838 -1.054202 1.728053
v -2.008275 -0.990407 2.195166
v -2.012034 -0.988966 2.099498
v -2.003832 -1.058349 2.095175
v -2.000072 -1.059790 2.190843
v -1.921326 -1.054019 2.182204
v -1.929528 -0.984636 2.186528
v -1.925769 -0.986077 2.282196
v -1.917567 -1.055460 2.277872
v -2.003832 -1.058349 2.095175
v -1.921326 -1.054019 2.182204
v -1.917567 -1.055460 2.277872
v -2.000072 -1.059790 2.190843
v -1.925769 -0.986077 2.282196
v -1.929528 -0.984636 2.186528
v -2.012034 -0.988966 2.099498
v -2.008275 -0.990407 2.195166
v -1.917567 -1.055460 2.277872
v -1.925769 -0.986077 2.282196
v -2.008275 -0.990407 2.195166
v -2.000072 -1.059790 2.190843
v -2.012034 -0.988966 2.099498
v -1.929528 -0.984636 2.186528
v -1.921326 -1.054019 2.182204
v -2.003832 -1.058349 2.095175
v -2.011446 -0.993937 2.010767
v -2.019035 -0.990280 1.915386
v -2.014111 -1.059846 1.909361
v -2.006522 -1.063504 2.004742
v -1.928015 -1.060990 1.992944
v -1.932939 -0.991424 1.998969
v -1.925350 -0.995081 2.094350
v -1.920426 -1.064648 2.088326
v -2.014111 -1.059846 1.909361
v -1.928015 -1.060990 1.992944
v -1.920426 -1.064648 2.088326
v -2.006522 -1.063504 2.004742
v -1.925350 -0.995081 2.094350
v -1.932939 -0.991424 1.998969
v -2.019035 -0.990280 1.915386
v -2.011446 -0.993937 2.010767
v -1.920426 -1.064648 2.088326
v -1.925350 -0.995081 2.094350
v -2.011446 -0.993937 2.010767
v -2.006522 -1.063504 2.004742
v -2.019035 -0.990280 1.915386
v -1.932939 -0.991424 1.998969
v -1.928015 -1.060990 1.992944
v -2.014111 -1.059846 1.909361
usemtl mat12

vn -0.992672 -0.045965 0.111756
vn -0.992672 -0.045965 0.111756
vn -0.992672 -0.045965 0.111756
vn -0.992672 -0.045965 0.111756
vn 0.992672 0.045965 -0.111755
vn 0.992672 0.045965 -0.111755
vn 0.992672 0.045965 -0.111755
vn 0.992672 0.045965 -0.111755
vn -0.006596 -0.999191 -0.039677
vn -0.006596 -0.999191 -0.039677
vn -0.006596 -0.999191 -0.039677
vn -0.006596 -0.999191 -0.039677
vn 0.006596 0.999191 0.039678
vn 0.006596 0.999191 0.039678
vn 0.006596 0.999191 0.039678
vn 0.006596 0.999191 0.039678
vn -0.670205 -0.088796 0.736845
vn -0.670205 -0.088796 0.736845
vn -0.670205 -0.088796 0.736845
vn -0.670205 -0.088796 0.736845
vn 0.670205 0.088796 -0.736845
vn 0.670205 0.088796 -0.736845
vn 0.670205 0.088796 -0.736845
vn 0.670205 0.088796 -0.736845
vn -0.997554 0.015600 0.068130
vn -0.997554 0.015600 0.068130
vn -0.997554 0.015600 0.068130
vn -0.997554 0.015600 0.068130
vn 0.990405 -0.009680 -0.137853
vn 0.990405 -0.009680 -0.137853
vn 0.990405 -0.009680 -0.137853
vn 0.990405 -0.009680 -0.137853
vn -0.062992 -0.997434 -0.034026
vn -0.062992 -0.997434 -0.034026
vn -0.062992 -0.997434 -0.034026
vn 0.062992 0.997434 0.034026
vn 0.062992 0.997434 0.034026
vn 0.062992 0.997434 0.034026
vn -0.654454 -0.048482 0.754546
vn -0.654454 -0.048482 0.754546
vn -0.654454 -0.048482 0.754546
vn -0.654454 -0.048482 0.754546
vn 0.327033 0.070985 -0.942343
vn 0.327033 0.070985 -0.942343
vn 0.327033 0.070985 -0.942343
vn 0.327033 0.070985 -0.942343
vn 0.026730 0.990716 -0.133296
vn 0.026730 0.990716 -0.133296
vn 0.026730 0.990716 -0.133296
vn -0.026730 -0.990716 0.133295
vn -0.026730 -0.990716 0.133295
vn -0.026730 -0.990716 0.133295
vn -0.994810 -0.027436 0.097977
vn -0.994810 -0.027436 0.097977
vn -0.994810 -0.027436 0.097977
vn -0.994810 -0.027436 0.097977
vn 0.994811 0.027436 -0.097977
vn 0.994811 0.027436 -0.097977
vn 0.994811 0.027436 -0.097977
vn 0.994811 0.027436 -0.097977
vn -0.023051 -0.999456 -0.023592
vn -0.023051 -0.999456 -0.023592
vn -0.023051 -0.999456 -0.023592
vn -0.023051 -0.999456 -0.023592
vn 0.023051 0.999456 0.023592
vn 0.023051 0.999456 0.023592
vn 0.023051 0.999456 0.023592
vn 0.023051 0.999456 0.023592
vn -0.682109 -0.065403 0.728320
vn -0.682109 -0.065403 0.728320
vn -0.682109 -0.065403 0.728320
vn -0.682109 -0.065403 0.728320
vn 0.682109 0.065403 -0.728320
vn 0.682109 0.065403 -0.728320
vn 0.682109 0.065403 -0.728320
vn 0.682109 0.065403 -0.728320
vn -0.993515 -0.087875 0.072153
vn -0.993515 -0.087875 0.072153
vn -0.993515 -0.087875 0.072153
vn -0.993515 -0.087875 0.072153
vn 0.993515 0.087875 -0.072152
vn 0.993515 0.087875 -0.072152
vn 0.993515 0.087875 -0.072152
vn 0.993515 0.087875 -0.072152
vn 0.038673 -0.999082 -0.018450
vn 0.038673 -0.999082 -0.018450
vn 0.038673 -0.999082 -0.018450
vn 0.038673 -0.999082 -0.018450
vn -0.038673 0.999082 0.018450
vn -0.038673 0.999082 0.018450
vn -0.038673 0.999082 0.018450
vn -0.038673 0.999082 0.018450
vn -0.695819 -0.104024 0.710644
vn -0.695819 -0.104024 0.710644
vn -0.695819 -0.104024 0.710644
vn -0.695819 -0.104024 0.710644
vn 0.695819 0.104024 -0.710644
vn 0.695819 0.104024 -0.710644
vn 0.695819 0.104024 -0.710644
vn 0.695819 0.104024 -0.710644
vn -0.994508 -0.021332 0.102462
vn -0.994508 -0.021332 0.102462
vn -0.994508 -0.021332 0.102462
vn -0.994508 -0.021332 0.102462
vn 0.994508 0.021332 -0.102461
vn 0.994508 0.021332 -0.102461
vn 0.994508 0.021332 -0.102461
vn 0.994508 0.021332 -0.102461
vn -0.030545 -0.998901 -0.035563
vn -0.030545 -0.998901 -0.035563
vn -0.030545 -0.998901 -0.035563
vn -0.030545 -0.998901 -0.035563
vn 0.030545 0.998901 0.035563
vn 0.030545 0.998901 0.035563
vn 0.030545 0.998901 0.035563
vn 0.030545 0.998901 0.035563
vn -0.679099 -0.069230 0.730775
vn -0.679099 -0.069230 0.730775
vn -0.679099 -0.069230 0.730775
vn -0.679099 -0.069230 0.730775
vn 0.679099 0.069230 -0.730775
vn 0.679099 0.069230 -0.730775
vn 0.679099 0.069230 -0.730775
vn 0.679099 0.069230 -0.730775
vn -0.996278 -0.058986 0.062854
vn -0.996278 -0.058986 0.062854
vn -0.996278 -0.058986 0.062854
vn -0.996278 -0.058986 0.062854
vn 0.996278 0.058986 -0.062853
vn 0.996278 0.058986 -0.062853
vn 0.996278 0.058986 -0.062853
vn 0.996278 0.058986 -0.062853
vn 0.009464 -0.999672 -0.023810
vn 0.009464 -0.999672 -0.023810
vn 0.009464 -0.999672 -0.023810
vn 0.009464 -0.999672 -0.023810
vn -0.009464 0.999672 0.023810
vn -0.009464 0.999672 0.023810
vn -0.009464 0.999672 0.023810
vn -0.009464 0.999672 0.023810
vn -0.704953 -0.087367 0.703852
vn -0.704953 -0.087367 0.703852
vn -0.704953 -0.087367 0.703852
vn -0.704953 -0.087367 0.703852
vn 0.704953 0.087367 -0.703852
vn 0.704953 0.087367 -0.703852
vn 0.704953 0.087367 -0.703852
vn 0.704953 0.087367 -0.703852
vn -0.992126 -0.119600 0.037184
vn -0.992126 -0.119600 0.037184
vn -0.992126 -0.119600 0.037184
vn -0.992126 -0.119600 0.037184
vn 0.992126 0.119600 -0.037183
vn 0.992126 0.119600 -0.037183
vn 0.992126 0.119600 -0.037183
vn 0.992126 0.119600 -0.037183
vn 0.071135 -0.997307 -0.017819
vn 0.071135 -0.997307 -0.017819
vn 0.071135 -0.997307 -0.017819
vn 0.071135 -0.997307 -0.017819
vn -0.071135 0.997307 0.017819
vn -0.071135 0.997307 0.017819
vn -0.071135 0.997307 0.017819
vn -0.071135 0.997307 0.017819
vn -0.716625 -0.127447 0.685716
vn -0.716625 -0.127447 0.685716
vn -0.716625 -0.127447 0.685716
vn -0.716625 -0.127447 0.685716
vn 0.716625 0.127447 -0.685716
vn 0.716625 0.127447 -0.685716
vn 0.716625 0.127447 -0.685716
vn 0.716625 0.127447 -0.685716
vn -0.994122 -0.076963 0.076144
vn -0.994122 -0.076963 0.076144
vn -0.994122 -0.076963 0.076144
vn -0.994122 -0.076963 0.076144
vn 0.994122 0.076963 -0.076143
vn 0.994122 0.076963 -0.076143
vn 0.994122 0.076963 -0.076143
vn 0.994122 0.076963 -0.076143
vn 0.025912 -0.998849 -0.040365
vn 0.025912 -0.998849 -0.040365
vn 0.025912 -0.998849 -0.040365
vn 0.025912 -0.998849 -0.040365
vn -0.025912 0.998849 0.040365
vn -0.025912 0.998849 0.040365
vn -0.025912 0.998849 0.040365
vn -0.025912 0.998849 0.040365
vn -0.693032 -0.110747 0.712350
vn -0.693032 -0.110747 0.712350
vn -0.693032 -0.110747 0.712350
vn -0.693032 -0.110747 0.712350
vn 0.693032 0.110747 -0.712350
vn 0.693032 0.110747 -0.712350
vn 0.693032 0.110747 -0.712350
vn 0.693032 0.110747 -0.712350

vt -0.204739 -0.153822
vt -0.196495 -0.148952
vt -0.192683 -0.154823
vt -0.200927 -0.159694
vt 0.200249 -0.159736
vt 0.204061 -0.153864
vt 0.212305 -0.158735
vt 0.208493 -0.164606
vt 0.172965 -0.314155
vt 0.183643 -0.308681
vt 0.192927 -0.311026
vt 0.182248 -0.316500
vt -0.193131 -0.311424
vt -0.183848 -0.309079
vt -0.173169 -0.314553
vt -0.182452 -0.316898
vt -0.038131 0.006047
vt -0.032890 0.010687
vt -0.024935 0.001703
vt -0.030175 -0.002938
vt 0.020470 -0.003949
vt 0.028425 0.005035
vt 0.033666 0.000395
vt 0.025710 -0.008590
vt -0.172568 -0.157743
vt -0.168361 -0.156073
vt -0.164448 -0.161877
vt -0.168655 -0.163547
vt 0.168666 -0.136064
vt 0.171930 -0.129872
vt 0.180582 -0.133974
vt 0.177318 -0.140167
vt 0.147005 -0.295390
vt 0.156326 -0.297582
vt 0.145740 -0.303232
vt -0.156537 -0.297976
vt -0.147216 -0.295785
vt -0.145951 -0.303627
vt -0.027611 -0.030828
vt -0.022670 -0.025870
vt -0.014170 -0.034341
vt -0.019112 -0.039299
vt -0.043102 -0.138770
vt -0.039151 -0.131191
vt -0.033171 -0.134829
vt -0.037122 -0.142408
vt -0.161621 -0.280052
vt -0.156665 -0.287016
vt -0.161087 -0.287977
vt 0.159655 -0.287524
vt 0.155233 -0.286562
vt 0.160189 -0.279599
vt -0.188821 -0.152013
vt -0.180537 -0.147210
vt -0.176774 -0.153112
vt -0.185057 -0.157915
vt 0.184380 -0.157962
vt 0.188143 -0.152060
vt 0.196427 -0.156863
vt 0.192663 -0.162765
vt 0.156598 -0.306638
vt 0.167335 -0.301280
vt 0.176593 -0.303726
vt 0.165856 -0.309084
vt -0.176793 -0.304127
vt -0.167535 -0.301681
vt -0.156798 -0.307039
vt -0.166056 -0.309485
vt -0.039782 -0.007180
vt -0.034736 -0.002328
vt -0.026418 -0.010977
vt -0.031464 -0.015829
vt 0.021725 -0.016441
vt 0.030043 -0.007792
vt 0.035088 -0.012644
vt 0.026771 -0.021293
vt -0.215343 -0.183904
vt -0.207568 -0.178316
vt -0.203246 -0.183823
vt -0.211022 -0.189411
vt 0.210343 -0.189392
vt 0.214664 -0.183885
vt 0.222439 -0.189473
vt 0.218118 -0.194980
vt 0.194191 -0.317973
vt 0.204998 -0.312756
vt 0.214223 -0.315323
vt 0.203416 -0.320540
vt -0.214417 -0.315726
vt -0.205192 -0.313159
vt -0.194385 -0.318376
vt -0.203610 -0.320943
vt -0.050098 0.030965
vt -0.044715 0.035439
vt -0.037044 0.026211
vt -0.042427 0.021736
vt 0.032758 0.020422
vt 0.040429 0.029650
vt 0.045812 0.025176
vt 0.038141 0.015948
vt -0.180767 -0.145905
vt -0.172482 -0.141105
vt -0.168720 -0.147008
vt -0.177006 -0.151808
vt 0.176328 -0.151856
vt 0.180090 -0.145952
vt 0.188375 -0.150752
vt 0.184613 -0.156656
vt 0.146294 -0.304440
vt 0.157041 -0.299103
vt 0.166294 -0.301566
vt 0.155547 -0.306904
vt -0.166493 -0.301966
vt -0.157240 -0.299503
vt -0.146493 -0.304841
vt -0.155746 -0.307304
vt -0.033905 -0.012348
vt -0.028887 -0.007466
vt -0.020520 -0.016067
vt -0.025537 -0.020949
vt 0.015794 -0.021504
vt 0.024162 -0.012903
vt 0.029180 -0.017784
vt 0.020812 -0.026385
vt -0.193676 -0.172089
vt -0.185842 -0.166584
vt -0.181579 -0.172136
vt -0.189413 -0.177642
vt 0.188734 -0.177630
vt 0.192997 -0.172078
vt 0.200831 -0.177583
vt 0.196568 -0.183135
vt 0.166450 -0.309961
vt 0.177339 -0.304920
vt 0.186521 -0.307636
vt 0.175632 -0.312677
vt -0.186709 -0.308042
vt -0.177527 -0.305326
vt -0.166638 -0.310367
vt -0.175820 -0.313083
vt -0.045992 0.011868
vt -0.040870 0.016640
vt -0.032690 0.007859
vt -0.037812 0.003088
vt 0.028084 0.002322
vt 0.036263 0.011102
vt 0.041385 0.006331
vt 0.033206 -0.002449
vt -0.214461 -0.210328
vt -0.207264 -0.204011
vt -0.202429 -0.209073
vt -0.209626 -0.215389
vt 0.208952 -0.215305
vt 0.213787 -0.210243
vt 0.220984 -0.216559
vt 0.216148 -0.221621
vt 0.204011 -0.320925
vt 0.214969 -0.316034
vt 0.224113 -0.318875
vt 0.213155 -0.323766
vt -0.224295 -0.319283
vt -0.215151 -0.316442
vt -0.204194 -0.321334
vt -0.213337 -0.324175
vt -0.055125 0.051534
vt -0.049653 0.055900
vt -0.042169 0.046521
vt -0.047640 0.042155
vt 0.037999 0.040648
vt 0.045484 0.050027
vt 0.050955 0.045661
vt 0.043470 0.036282
vt -0.208588 -0.176629
vt -0.200830 -0.171017
vt -0.196491 -0.176510
vt -0.204250 -0.182122
vt 0.203571 -0.182101
vt 0.207909 -0.176608
vt 0.215667 -0.182220
vt 0.211329 -0.187713
vt 0.182853 -0.317126
vt 0.193689 -0.311971
vt 0.202899 -0.314592
vt 0.192062 -0.319746
vt -0.203091 -0.314996
vt -0.193881 -0.312375
vt -0.183045 -0.317530
vt -0.192254 -0.320150
vt -0.043660 0.025995
vt -0.038334 0.030538
vt -0.030546 0.021410
vt -0.035871 0.016866
vt 0.026185 0.015676
vt 0.033974 0.024805
vt 0.039299 0.020262
vt 0.031511 0.011133
s off
f 1/1/1 2/2/2 3/3/3
f 1/1/1 3/3/3 4/4/4
f 5/5/5 6/6/6 7/7/7
f 5/5/5 7/7/7 8/8/8
f 9/9/9 10/10/10 11/11/11
f 9/9/9 11/11/11 12/12/12
f 13/13/13 14/14/14 15/15/15
f 13/13/13 15/15/15 16/16/16
f 17/17/17 18/18/18 19/19/19
f 17/17/17 19/19/19 20/20/20
f 21/21/21 22/22/22 23/23/23
f 21/21/21 23/23/23 24/24/24
f 25/25/25 26/26/26 27/27/27
f 25/25/25 27/27/27 28/28/28
f 29/29/29 30/30/30 31/31/31
f 29/29/29 31/31/31 32/32/32
f 33/33/33 34/34/34 35/35/35
f 36/36/36 37/37/37 38/38/38
f 39/39/39 40/40/40 41/41/41
f 39/39/39 41/41/41 42/42/42
f 43/43/43 44/44/44 45/45/45
f 43/43/43 45/45/45 46/46/46
f 47/47/47 48/48/48 49/49/49
f 50/50/50 51/51/51 52/52/52
f 53/53/53 54/54/54 55/55/55
f 53/53/53 55/55/55 56/56/56
f 57/57/57 58/58/58 59/59/59
f 57/57/57 59/59/59 60/60/60
f 61/61/61 62/62/62 63/63/63
f 61/61/61 63/63/63 64/64/64
f 65/65/65 66/66/66 67/67/67
f 65/65/65 67/67/67 68/68/68
f 69/69/69 70/70/70 71/71/71
f 69/69/69 71/71/71 72/72/72
f 73/73/73 74/74/74 75/75/75
f 73/73/73 75/75/75 76/76/76
f 77/77/77 78/78/78 79/79/79
f 77/77/77 79/79/79 80/80/80
f 81/81/81 82/82/82 83/83/83
f 81/81/81 83/83/83 84/84/84
f 85/85/85 86/86/86 87/87/87
f 85/85/85 87/87/87 88/88/88
f 89/89/89 90/90/90 91/91/91
f 89/89/89 91/91/91 92/92/92
f 93/93/93 94/94/94 95/95/95
f 93/93/93 95/95/95 96/96/96
f 97/97/97 98/98/98 99/99/99
f 97/97/97 99/99/99 100/100/100
f 101/101/101 102/102/102 103/103/103
f 101/101/101 103/103/103 104/104/104
f 105/105/105 106/106/106 107/107/107
f 105/105/105 107/107/107 108/108/108
f 109/109/109 110/110/110 111/111/111
f 109/109/109 111/111/111 112/112/112
f 113/113/113 114/114/114 115/115/115
f 113/113/113 115/115/115 116/116/116
f 117/117/117 118/118/118 119/119/119
f 117/117/117 119/119/119 120/120/120
f 121/121/121 122/122/122 123/123/123
f 121/121/121 123/123/123 124/124/124
f 125/125/125 126/126/126 127/127/127
f 125/125/125 127/127/127 128/128/128
f 129/129/129 130/130/130 131/131/131
f 129/129/129 131/131/131 132/132/132
f 133/133/133 134/134/134 135/135/135
f 133/133/133 135/135/135 136/136/136
f 137/137/137 138/138/138 139/139/139
f 137/137/137 139/139/139 140/140/140
f 141/141/141 142/142/142 143/143/143
f 141/141/141 143/143/143 144/144/144
f 145/145/145 146/146/146 147/147/147
f 145/145/145 147/147/147 148/148/148
f 149/149/149 150/150/150 151/151/151
f 149/149/149 151/151/151 152/152/152
f 153/153/153 154/154/154 155/155/155
f 153/153/153 155/155/155 156/156/156
f 157/157/157 158/158/158 159/159/159
f 157/157/157 159/159/159 160/160/160
f 161/161/161 162/162/162 163/163/163
f 161/161/161 163/163/163 164/164/164
f 165/165/165 166/166/166 167/167/167
f 165/165/165 167/167/167 168/168/168
f 169/169/169 170/170/170 171/171/171
f 169/169/169 171/171/171 172/172/172
f 173/173/173 174/174/174 175/175/175
f 173/173/173 175/175/175 176/176/176
f 177/177/177 178/178/178 179/179/179
f 177/177/177 179/179/179 180/180/180
f 181/181/181 182/182/182 183/183/183
f 181/181/181 183/183/183 184/184/184
f 185/185/185 186/186/186 187/187/187
f 185/185/185 187/187/187 188/188/188
f 189/189/189 190/190/190 191/191/191
f 189/189/189 191/191/191 192/192/192
f 193/193/193 194/194/194 195/195/195
f 193/193/193 195/195/195 196/196/196
