# Exported using automatic converter by Erwin Coumans
mtllib model6.mtl
#object mesh630370012

v -0.739756 -0.701727 0.020693
v -0.744022 -0.708127 -0.767230
v -0.743735 -0.730321 -0.767051
v -0.739468 -0.723921 0.020872
v -0.399730 -0.725881 -0.768950
v -0.400017 -0.703688 -0.769128
v -0.395751 -0.697288 0.018794
v -0.395463 -0.719482 0.018973
v -0.743735 -0.730321 -0.767051
v -0.399730 -0.725881 -0.768950
v -0.395463 -0.719482 0.018973
v -0.739468 -0.723921 0.020872
v -0.395751 -0.697288 0.018794
v -0.400017 -0.703688 -0.769128
v -0.744022 -0.708127 -0.767230
v -0.739756 -0.701727 0.020693
v -0.395463 -0.719482 0.018973
v -0.395751 -0.697288 0.018794
v -0.739756 -0.701727 0.020693
v -0.739468 -0.723921 0.020872
v -0.744022 -0.708127 -0.767230
v -0.400017 -0.703688 -0.769128
v -0.399730 -0.725881 -0.768950
v -0.743735 -0.730321 -0.767051
usemtl mat18

vn -0.999902 -0.012903 0.005519
vn -0.999902 -0.012903 0.005519
vn -0.999902 -0.012903 0.005519
vn -0.999902 -0.012903 0.005519
vn 0.999902 0.012903 -0.005519
vn 0.999902 0.012903 -0.005519
vn 0.999902 0.012903 -0.005519
vn 0.999902 0.012903 -0.005519
vn 0.012947 -0.999884 0.008051
vn 0.012947 -0.999884 0.008051
vn 0.012947 -0.999884 0.008051
vn 0.012947 -0.999884 0.008051
vn -0.012947 0.999884 -0.008051
vn -0.012947 0.999884 -0.008051
vn -0.012947 0.999884 -0.008051
vn -0.012947 0.999884 -0.008051
vn 0.005414 0.008122 0.999952
vn 0.005414 0.008122 0.999952
vn 0.005414 0.008122 0.999952
vn 0.005414 0.008122 0.999952
vn -0.005414 -0.008122 -0.999952
vn -0.005414 -0.008122 -0.999952
vn -0.005414 -0.008122 -0.999952
vn -0.005414 -0.008122 -0.999952

vt -0.061461 -0.069485
vt 0.002798 -0.023882
vt 0.004083 -0.025692
vt -0.060176 -0.071295
vt -0.004083 -0.025692
vt -0.002798 -0.023882
vt 0.061461 -0.069485
vt 0.060176 -0.071295
vt -0.023502 -0.103568
vt -0.012288 -0.071043
vt 0.062205 -0.096726
vt 0.050991 -0.129251
vt -0.062205 -0.096726
vt 0.012288 -0.071043
vt 0.023502 -0.103568
vt -0.050991 -0.129251
vt 0.010128 -0.074202
vt 0.012125 -0.073232
vt 0.027159 -0.104177
vt 0.025162 -0.105147
vt -0.027159 -0.104177
vt -0.012125 -0.073232
vt -0.010128 -0.074202
vt -0.025162 -0.105147
s off
f 1/1/1 2/2/2 3/3/3
f 1/1/1 3/3/3 4/4/4
f 5/5/5 6/6/6 7/7/7
f 5/5/5 7/7/7 8/8/8
f 9/9/9 10/10/10 11/11/11
f 9/9/9 11/11/11 12/12/12
f 13/13/13 14/14/14 15/15/15
f 13/13/13 15/15/15 16/16/16
f 17/17/17 18/18/18 19/19/19
f 17/17/17 19/19/19 20/20/20
f 21/21/21 22/22/22 23/23/23
f 21/21/21 23/23/23 24/24/24
