# Exported using automatic converter by Erwin Coumans
mtllib model6.mtl
#object mesh1817004537

v -2.626762 0.575489 -2.635148
v -0.326762 0.575488 -2.635148
v -0.326762 0.485488 -2.635148
v -2.626762 0.485489 -2.635148
v -0.326762 0.485488 -2.545148
v -0.326762 0.575488 -2.545148
v -2.626762 0.575489 -2.545148
v -2.626762 0.485489 -2.545148
v -0.326762 0.485488 -2.635148
v -0.326762 0.485488 -2.545148
v -2.626762 0.485489 -2.545148
v -2.626762 0.485489 -2.635148
v -0.878803 1.435489 -2.607271
v -0.844721 1.435489 -2.607271
v -0.326762 0.575488 -2.635148
v -2.626762 0.575489 -2.635148
v -0.326762 0.575488 -2.635148
v -0.326762 0.575488 -2.545148
v -0.326762 0.485488 -2.545148
v -0.326762 0.485488 -2.635148
v -0.844721 1.455489 -2.573025
v -0.878803 1.445489 -2.573025
v -2.626762 0.575489 -2.545148
v -0.326762 0.575488 -2.545148
usemtl mat21

vn -0.000000 0.000000 -1.000000
vn -0.000000 0.000000 -1.000000
vn -0.000000 0.000000 -1.000000
vn -0.000000 0.000000 -1.000000
vn 0.000000 0.000000 1.000000
vn 0.000000 0.000000 1.000000
vn 0.000000 0.000000 1.000000
vn 0.000000 0.000000 1.000000
vn -0.000000 -1.000000 0.000000
vn -0.000000 -1.000000 0.000000
vn -0.000000 -1.000000 0.000000
vn -0.000000 -1.000000 0.000000
vn -0.000000 0.032398 -0.999475
vn -0.000000 0.032398 -0.999475
vn -0.000000 0.032398 -0.999475
vn -0.000000 0.032398 -0.999475
vn 1.000000 -0.000000 -0.000000
vn 1.000000 -0.000000 -0.000000
vn 1.000000 -0.000000 -0.000000
vn 1.000000 -0.000000 -0.000000
vn 0.000000 0.032026 0.999487
vn 0.000000 0.032026 0.999487
vn 0.000000 0.032026 0.999487
vn 0.000000 0.032026 0.999487

vt -0.226066 -0.215110
vt -0.123207 -0.009391
vt -0.115157 -0.013416
vt -0.218017 -0.219135
vt 0.115157 -0.013416
vt 0.123207 -0.009391
vt 0.226066 -0.215110
vt 0.218017 -0.219135
vt -0.185691 -0.001110
vt -0.177216 -0.004137
vt -0.254573 -0.220738
vt -0.263049 -0.217711
vt -0.219523 -0.024929
vt -0.218028 -0.021866
vt -0.117982 -0.013067
vt -0.218880 -0.219755
vt -0.080385 0.187682
vt -0.073062 0.182451
vt -0.078293 0.175127
vt -0.085616 0.180358
vt 0.229928 -0.011952
vt 0.230589 -0.015441
vt 0.232644 -0.210700
vt 0.127957 -0.005906
s off
f 1/1/1 2/2/2 3/3/3
f 1/1/1 3/3/3 4/4/4
f 5/5/5 6/6/6 7/7/7
f 5/5/5 7/7/7 8/8/8
f 9/9/9 10/10/10 11/11/11
f 9/9/9 11/11/11 12/12/12
f 13/13/13 14/14/14 15/15/15
f 13/13/13 15/15/15 16/16/16
f 17/17/17 18/18/18 19/19/19
f 17/17/17 19/19/19 20/20/20
f 21/21/21 22/22/22 23/23/23
f 21/21/21 23/23/23 24/24/24
