# Exported using automatic converter by Erwin Coumans
mtllib model6.mtl
#object mesh949637284

v -1.841762 -0.994511 2.259851
v -1.841762 -0.994511 1.999852
v -1.841762 -1.034511 1.999852
v -1.841762 -1.034511 2.259851
v -1.131762 -1.034511 1.999852
v -1.131762 -0.994511 1.999852
v -1.131762 -0.994511 2.259852
v -1.131762 -1.034511 2.259852
v -1.841762 -1.034511 1.999852
v -1.131762 -1.034511 1.999852
v -1.131762 -1.034511 2.259852
v -1.841762 -1.034511 2.259851
v -1.131762 -0.994511 2.259852
v -1.131762 -0.994511 1.999852
v -1.841762 -0.994511 1.999852
v -1.841762 -0.994511 2.259851
v -1.131762 -1.034511 2.259852
v -1.131762 -0.994511 2.259852
v -1.841762 -0.994511 2.259851
v -1.841762 -1.034511 2.259851
v -1.841762 -0.994511 1.999852
v -1.131762 -0.994511 1.999852
v -1.131762 -1.034511 1.999852
v -1.841762 -1.034511 1.999852
usemtl mat22

vn -1.000000 0.000000 -0.000000
vn -1.000000 0.000000 -0.000000
vn -1.000000 0.000000 -0.000000
vn -1.000000 0.000000 -0.000000
vn 1.000000 0.000000 0.000000
vn 1.000000 0.000000 0.000000
vn 1.000000 0.000000 0.000000
vn 1.000000 0.000000 0.000000
vn -0.000000 -1.000000 0.000000
vn -0.000000 -1.000000 0.000000
vn -0.000000 -1.000000 0.000000
vn -0.000000 -1.000000 0.000000
vn 0.000000 1.000000 -0.000000
vn 0.000000 1.000000 -0.000000
vn 0.000000 1.000000 -0.000000
vn 0.000000 1.000000 -0.000000
vn -0.000000 0.000000 1.000000
vn -0.000000 0.000000 1.000000
vn -0.000000 0.000000 1.000000
vn -0.000000 0.000000 1.000000
vn 0.000000 -0.000000 -1.000000
vn 0.000000 -0.000000 -1.000000
vn 0.000000 -0.000000 -1.000000
vn 0.000000 -0.000000 -1.000000

vt -0.226683 -0.224590
vt -0.205526 -0.209478
vt -0.203201 -0.212733
vt -0.224358 -0.227845
vt 0.203201 -0.212733
vt 0.205526 -0.209478
vt 0.226683 -0.224590
vt 0.224358 -0.227845
vt 0.199851 -0.299676
vt 0.223731 -0.232812
vt 0.248216 -0.241557
vt 0.224336 -0.308420
vt -0.248216 -0.241557
vt -0.223731 -0.232812
vt -0.199851 -0.299676
vt -0.224336 -0.308420
vt 0.015205 -0.153394
vt 0.018783 -0.151605
vt 0.050535 -0.215110
vt 0.046957 -0.216899
vt -0.050535 -0.215110
vt -0.018783 -0.151605
vt -0.015205 -0.153394
vt -0.046957 -0.216899
s off
f 1/1/1 2/2/2 3/3/3
f 1/1/1 3/3/3 4/4/4
f 5/5/5 6/6/6 7/7/7
f 5/5/5 7/7/7 8/8/8
f 9/9/9 10/10/10 11/11/11
f 9/9/9 11/11/11 12/12/12
f 13/13/13 14/14/14 15/15/15
f 13/13/13 15/15/15 16/16/16
f 17/17/17 18/18/18 19/19/19
f 17/17/17 19/19/19 20/20/20
f 21/21/21 22/22/22 23/23/23
f 21/21/21 23/23/23 24/24/24
