# Exported using automatic converter by Erwin Coumans
mtllib model6.mtl
#object mesh530958627

v -2.669779 0.273903 -2.083500
v -2.677131 -0.275943 -2.082979
v -2.686658 -0.275866 -2.083020
v -2.679306 0.273981 -2.083541
v -2.687203 -0.275790 -1.959171
v -2.677676 -0.275868 -1.959129
v -2.670323 0.273979 -1.959650
v -2.679850 0.274056 -1.959692
v -2.686658 -0.275866 -2.083020
v -2.687203 -0.275790 -1.959171
v -2.679850 0.274056 -1.959692
v -2.679306 0.273981 -2.083541
v -2.670323 0.273979 -1.959650
v -2.677676 -0.275868 -1.959129
v -2.677131 -0.275943 -2.082979
v -2.669779 0.273903 -2.083500
v -2.679850 0.274056 -1.959692
v -2.670323 0.273979 -1.959650
v -2.669779 0.273903 -2.083500
v -2.679306 0.273981 -2.083541
v -2.677131 -0.275943 -2.082979
v -2.677676 -0.275868 -1.959129
v -2.687203 -0.275790 -1.959171
v -2.686658 -0.275866 -2.083020
v -2.668187 0.273682 -2.445522
v -2.675539 -0.276164 -2.445001
v -2.685066 -0.276087 -2.445043
v -2.677714 0.273760 -2.445564
v -2.685611 -0.276011 -2.321193
v -2.676084 -0.276089 -2.321151
v -2.668731 0.273758 -2.321672
v -2.678258 0.273836 -2.321714
v -2.685066 -0.276087 -2.445043
v -2.685611 -0.276011 -2.321193
v -2.678258 0.273836 -2.321714
v -2.677714 0.273760 -2.445564
v -2.668731 0.273758 -2.321672
v -2.676084 -0.276089 -2.321151
v -2.675539 -0.276164 -2.445001
v -2.668187 0.273682 -2.445522
v -2.678258 0.273836 -2.321714
v -2.668731 0.273758 -2.321672
v -2.668187 0.273682 -2.445522
v -2.677714 0.273760 -2.445564
v -2.675539 -0.276164 -2.445001
v -2.676084 -0.276089 -2.321151
v -2.685611 -0.276011 -2.321193
v -2.685066 -0.276087 -2.445043
v -2.670322 0.273979 -1.959650
v -2.677674 -0.275868 -1.959129
v -2.687201 -0.275790 -1.959171
v -2.679849 0.274057 -1.959692
v -2.687746 -0.275714 -1.835321
v -2.678219 -0.275792 -1.835279
v -2.670866 0.274055 -1.835800
v -2.680393 0.274132 -1.835842
v -2.687201 -0.275790 -1.959171
v -2.687746 -0.275714 -1.835321
v -2.680393 0.274132 -1.835842
v -2.679849 0.274057 -1.959692
v -2.670866 0.274055 -1.835800
v -2.678219 -0.275792 -1.835279
v -2.677674 -0.275868 -1.959129
v -2.670322 0.273979 -1.959650
v -2.680393 0.274132 -1.835842
v -2.670866 0.274055 -1.835800
v -2.670322 0.273979 -1.959650
v -2.679849 0.274057 -1.959692
v -2.677674 -0.275868 -1.959129
v -2.678219 -0.275792 -1.835279
v -2.687746 -0.275714 -1.835321
v -2.687201 -0.275790 -1.959171
v -2.659165 0.273675 -2.318003
v -2.666517 -0.276172 -2.330637
v -2.685570 -0.276017 -2.330720
v -2.686115 -0.275942 -2.206871
v -2.676588 -0.276019 -2.206829
v -2.669235 0.273828 -2.194195
v -2.685570 -0.276017 -2.330720
v -2.686115 -0.275942 -2.206871
v -2.678762 0.273905 -2.207392
v -2.678218 0.273829 -2.331242
v -2.669235 0.273828 -2.194195
v -2.676588 -0.276019 -2.206829
v -2.666517 -0.276172 -2.330637
v -2.659165 0.273675 -2.318003
v -2.678762 0.273905 -2.207392
v -2.669235 0.273828 -2.194195
v -2.659165 0.273675 -2.318003
v -2.666517 -0.276172 -2.330637
v -2.676588 -0.276019 -2.206829
v -2.686115 -0.275942 -2.206871
v -2.685570 -0.276017 -2.330720
v -2.685570 -0.276017 -2.330720
v -2.678218 0.273829 -2.331242
v -2.659165 0.273675 -2.318003
v -2.659165 0.273675 -2.318003
v -2.678218 0.273829 -2.331242
v -2.678762 0.273905 -2.207392
v -2.669235 0.273828 -2.194195
v -2.678762 0.273905 -2.207392
v -2.686115 -0.275942 -2.206871
v -2.667644 0.273606 -2.569375
v -2.674996 -0.276241 -2.568853
v -2.684523 -0.276163 -2.568895
v -2.677171 0.273683 -2.569417
v -2.685068 -0.276088 -2.445045
v -2.675541 -0.276165 -2.445004
v -2.668188 0.273682 -2.445525
v -2.677715 0.273759 -2.445567
v -2.684523 -0.276163 -2.568895
v -2.685068 -0.276088 -2.445045
v -2.677715 0.273759 -2.445567
v -2.677171 0.273683 -2.569417
v -2.668188 0.273682 -2.445525
v -2.675541 -0.276165 -2.445004
v -2.674996 -0.276241 -2.568853
v -2.667644 0.273606 -2.569375
v -2.677715 0.273759 -2.445567
v -2.668188 0.273682 -2.445525
v -2.667644 0.273606 -2.569375
v -2.677171 0.273683 -2.569417
v -2.674996 -0.276241 -2.568853
v -2.675541 -0.276165 -2.445004
v -2.685068 -0.276088 -2.445045
v -2.684523 -0.276163 -2.568895
v -2.670826 0.274049 -1.845329
v -2.678179 -0.275797 -1.844808
v -2.687706 -0.275720 -1.844850
v -2.680353 0.274127 -1.845371
v -2.688250 -0.275644 -1.721000
v -2.678723 -0.275722 -1.720958
v -2.671371 0.274125 -1.721479
v -2.680897 0.274203 -1.721521
v -2.687706 -0.275720 -1.844850
v -2.688250 -0.275644 -1.721000
v -2.680897 0.274203 -1.721521
v -2.680353 0.274127 -1.845371
v -2.671371 0.274125 -1.721479
v -2.678723 -0.275722 -1.720958
v -2.678179 -0.275797 -1.844808
v -2.670826 0.274049 -1.845329
v -2.680897 0.274203 -1.721521
v -2.671371 0.274125 -1.721479
v -2.670826 0.274049 -1.845329
v -2.680353 0.274127 -1.845371
v -2.678179 -0.275797 -1.844808
v -2.678723 -0.275722 -1.720958
v -2.688250 -0.275644 -1.721000
v -2.687706 -0.275720 -1.844850
v -2.674714 0.281042 -2.212796
v -2.699502 -0.268514 -2.220294
v -2.684239 0.281204 -2.212857
v -2.700321 -0.269518 -2.096450
v -2.675533 0.280039 -2.075797
v -2.685059 0.280200 -2.089014
v -2.699502 -0.268514 -2.220294
v -2.700321 -0.269518 -2.096450
v -2.685059 0.280200 -2.089014
v -2.684239 0.281204 -2.212857
v -2.675533 0.280039 -2.075797
v -2.681388 -0.279277 -2.086813
v -2.680569 -0.278273 -2.210658
v -2.685059 0.280200 -2.089014
v -2.675533 0.280039 -2.075797
v -2.684239 0.281204 -2.212857
v -2.680569 -0.278273 -2.210658
v -2.681388 -0.279277 -2.086813
v -2.700321 -0.269518 -2.096450
v -2.699502 -0.268514 -2.220294
v -2.674714 0.281042 -2.212796
v -2.680569 -0.278273 -2.210658
v -2.699502 -0.268514 -2.220294
v -2.700321 -0.269518 -2.096450
v -2.681388 -0.279277 -2.086813
v -2.675533 0.280039 -2.075797
v -2.680569 -0.278273 -2.210658
v -2.674714 0.281042 -2.212796
v -2.675533 0.280039 -2.075797
v -2.675533 0.280039 -2.075797
v -2.674714 0.281042 -2.212796
v -2.684239 0.281204 -2.212857
usemtl mat24

vn 0.004392 -0.001006 -0.999990
vn 0.004392 -0.001006 -0.999990
vn 0.004392 -0.001006 -0.999990
vn 0.004392 -0.001006 -0.999990
vn -0.004403 0.001007 0.999990
vn -0.004403 0.001007 0.999990
vn -0.004403 0.001007 0.999990
vn -0.004403 0.001007 0.999990
vn -0.999901 0.013366 -0.004402
vn -0.999901 0.013366 -0.004402
vn -0.999901 0.013366 -0.004402
vn -0.999901 0.013366 -0.004402
vn 0.999901 -0.013366 0.004403
vn 0.999901 -0.013366 0.004403
vn 0.999901 -0.013366 0.004403
vn 0.999901 -0.013366 0.004403
vn 0.008124 0.999967 -0.000576
vn 0.008124 0.999967 -0.000576
vn 0.008124 0.999967 -0.000576
vn 0.008124 0.999967 -0.000576
vn -0.008124 -0.999967 0.000576
vn -0.008124 -0.999967 0.000576
vn -0.008124 -0.999967 0.000576
vn -0.008124 -0.999967 0.000576
vn 0.004391 -0.001007 -0.999990
vn 0.004391 -0.001007 -0.999990
vn 0.004391 -0.001007 -0.999990
vn 0.004391 -0.001007 -0.999990
vn -0.004403 0.001007 0.999990
vn -0.004403 0.001007 0.999990
vn -0.004403 0.001007 0.999990
vn -0.004403 0.001007 0.999990
vn -0.999901 0.013366 -0.004402
vn -0.999901 0.013366 -0.004402
vn -0.999901 0.013366 -0.004402
vn -0.999901 0.013366 -0.004402
vn 0.999901 -0.013366 0.004403
vn 0.999901 -0.013366 0.004403
vn 0.999901 -0.013366 0.004403
vn 0.999901 -0.013366 0.004403
vn 0.008124 0.999967 -0.000576
vn 0.008124 0.999967 -0.000576
vn 0.008124 0.999967 -0.000576
vn 0.008124 0.999967 -0.000576
vn -0.008124 -0.999967 0.000576
vn -0.008124 -0.999967 0.000576
vn -0.008124 -0.999967 0.000576
vn -0.008124 -0.999967 0.000576
vn 0.004392 -0.001006 -0.999990
vn 0.004392 -0.001006 -0.999990
vn 0.004392 -0.001006 -0.999990
vn 0.004392 -0.001006 -0.999990
vn -0.004403 0.001007 0.999990
vn -0.004403 0.001007 0.999990
vn -0.004403 0.001007 0.999990
vn -0.004403 0.001007 0.999990
vn -0.999901 0.013366 -0.004402
vn -0.999901 0.013366 -0.004402
vn -0.999901 0.013366 -0.004402
vn -0.999901 0.013366 -0.004402
vn 0.999901 -0.013366 0.004403
vn 0.999901 -0.013366 0.004403
vn 0.999901 -0.013366 0.004403
vn 0.999901 -0.013366 0.004403
vn 0.008124 0.999967 -0.000576
vn 0.008124 0.999967 -0.000576
vn 0.008124 0.999967 -0.000576
vn 0.008124 0.999967 -0.000576
vn -0.008124 -0.999967 0.000576
vn -0.008124 -0.999967 0.000576
vn -0.008124 -0.999967 0.000576
vn -0.008124 -0.999967 0.000576
vn 0.004585 0.022909 -0.999727
vn 0.004585 0.022909 -0.999727
vn 0.004585 0.022909 -0.999727
vn -0.004585 -0.022909 0.999727
vn -0.004585 -0.022909 0.999727
vn -0.004585 -0.022909 0.999727
vn -0.999901 0.013366 -0.004402
vn -0.999901 0.013366 -0.004402
vn -0.999901 0.013366 -0.004402
vn -0.999901 0.013366 -0.004402
vn 0.996592 -0.015189 0.081084
vn 0.996592 -0.015189 0.081084
vn 0.996592 -0.015189 0.081084
vn 0.996592 -0.015189 0.081084
vn 0.008840 0.999961 -0.000518
vn 0.008840 0.999961 -0.000518
vn 0.008840 0.999961 -0.000518
vn -0.008124 -0.999967 0.000576
vn -0.008124 -0.999967 0.000576
vn -0.008124 -0.999967 0.000576
vn -0.008124 -0.999967 0.000576
vn 0.570541 -0.008408 -0.821226
vn 0.570541 -0.008408 -0.821226
vn 0.570541 -0.008408 -0.821226
vn 0.008521 0.999964 -0.000574
vn 0.008521 0.999964 -0.000574
vn 0.008521 0.999964 -0.000574
vn -0.810716 0.011396 0.585329
vn -0.810716 0.011396 0.585329
vn -0.810716 0.011396 0.585329
vn 0.004391 -0.001007 -0.999990
vn 0.004391 -0.001007 -0.999990
vn 0.004391 -0.001007 -0.999990
vn 0.004391 -0.001007 -0.999990
vn -0.004403 0.001007 0.999990
vn -0.004403 0.001007 0.999990
vn -0.004403 0.001007 0.999990
vn -0.004403 0.001007 0.999990
vn -0.999901 0.013366 -0.004402
vn -0.999901 0.013366 -0.004402
vn -0.999901 0.013366 -0.004402
vn -0.999901 0.013366 -0.004402
vn 0.999901 -0.013366 0.004403
vn 0.999901 -0.013366 0.004403
vn 0.999901 -0.013366 0.004403
vn 0.999901 -0.013366 0.004403
vn 0.008124 0.999967 -0.000576
vn 0.008124 0.999967 -0.000576
vn 0.008124 0.999967 -0.000576
vn 0.008124 0.999967 -0.000576
vn -0.008124 -0.999967 0.000576
vn -0.008124 -0.999967 0.000576
vn -0.008124 -0.999967 0.000576
vn -0.008124 -0.999967 0.000576
vn 0.004392 -0.001006 -0.999990
vn 0.004392 -0.001006 -0.999990
vn 0.004392 -0.001006 -0.999990
vn 0.004392 -0.001006 -0.999990
vn -0.004403 0.001007 0.999990
vn -0.004403 0.001007 0.999990
vn -0.004403 0.001007 0.999990
vn -0.004403 0.001007 0.999990
vn -0.999901 0.013366 -0.004402
vn -0.999901 0.013366 -0.004402
vn -0.999901 0.013366 -0.004402
vn -0.999901 0.013366 -0.004402
vn 0.999901 -0.013366 0.004403
vn 0.999901 -0.013366 0.004403
vn 0.999901 -0.013366 0.004403
vn 0.999901 -0.013366 0.004403
vn 0.008124 0.999967 -0.000576
vn 0.008124 0.999967 -0.000576
vn 0.008124 0.999967 -0.000576
vn 0.008124 0.999967 -0.000576
vn -0.008124 -0.999967 0.000576
vn -0.008124 -0.999967 0.000576
vn -0.008124 -0.999967 0.000576
vn -0.008124 -0.999967 0.000576
vn 0.006679 0.013341 -0.999889
vn 0.006679 0.013341 -0.999889
vn 0.006679 0.013341 -0.999889
vn -0.811087 0.014609 0.584743
vn -0.811087 0.014609 0.584743
vn -0.811087 0.014609 0.584743
vn -0.999592 0.027839 -0.006389
vn -0.999592 0.027839 -0.006389
vn -0.999592 0.027839 -0.006389
vn -0.999592 0.027839 -0.006389
vn 0.999923 -0.010596 0.006529
vn 0.999923 -0.010596 0.006529
vn 0.999923 -0.010596 0.006529
vn 0.005621 0.999951 0.008143
vn 0.005621 0.999951 0.008143
vn 0.005621 0.999951 0.008143
vn -0.454044 -0.890921 -0.010226
vn -0.454044 -0.890921 -0.010226
vn -0.454044 -0.890921 -0.010226
vn -0.454044 -0.890921 -0.010226
vn 0.450243 -0.008127 -0.892869
vn 0.450243 -0.008127 -0.892869
vn 0.450243 -0.008127 -0.892869
vn -0.458742 -0.012698 0.888479
vn -0.458742 -0.012698 0.888479
vn -0.458742 -0.012698 0.888479
vn 0.999928 -0.010446 0.005905
vn 0.999928 -0.010446 0.005905
vn 0.999928 -0.010446 0.005905
vn 0.016874 0.999830 0.007427
vn 0.016874 0.999830 0.007427
vn 0.016874 0.999830 0.007427

vt -0.201570 -0.232672
vt -0.152742 -0.257964
vt -0.153176 -0.258812
vt -0.202004 -0.233520
vt 0.153172 -0.258815
vt 0.152739 -0.257967
vt 0.201566 -0.232675
vt 0.202000 -0.233523
vt 0.086741 0.081709
vt 0.076611 0.074583
vt 0.044991 0.119572
vt 0.055121 0.126698
vt -0.044988 0.119576
vt -0.076608 0.074587
vt -0.086738 0.081713
vt -0.055118 0.126702
vt 0.201644 -0.245804
vt 0.201319 -0.244908
vt 0.212959 -0.240679
vt 0.213285 -0.241575
vt -0.213037 -0.240958
vt -0.201397 -0.245187
vt -0.201722 -0.246082
vt -0.213363 -0.241853
vt -0.201583 -0.232665
vt -0.152755 -0.257957
vt -0.153188 -0.258806
vt -0.202016 -0.233513
vt 0.153185 -0.258809
vt 0.152752 -0.257961
vt 0.201579 -0.232668
vt 0.202013 -0.233517
vt 0.116352 0.102538
vt 0.106222 0.095412
vt 0.074601 0.140401
vt 0.084731 0.147527
vt -0.074598 0.140406
vt -0.106218 0.095416
vt -0.116348 0.102542
vt -0.084728 0.147531
vt 0.235671 -0.233442
vt 0.235345 -0.232546
vt 0.246986 -0.228317
vt 0.247311 -0.229213
vt -0.247064 -0.228596
vt -0.235423 -0.232825
vt -0.235749 -0.233720
vt -0.247389 -0.229491
vt -0.201565 -0.232674
vt -0.152738 -0.257966
vt -0.153171 -0.258815
vt -0.201999 -0.233522
vt 0.153168 -0.258817
vt 0.152734 -0.257969
vt 0.201562 -0.232677
vt 0.201996 -0.233525
vt 0.076611 0.074583
vt 0.066481 0.067458
vt 0.034861 0.112447
vt 0.044991 0.119572
vt -0.034858 0.112451
vt -0.066478 0.067462
vt -0.076608 0.074587
vt -0.044988 0.119576
vt 0.190003 -0.250032
vt 0.189678 -0.249137
vt 0.201319 -0.244908
vt 0.201644 -0.245803
vt -0.201397 -0.245186
vt -0.189756 -0.249415
vt -0.190081 -0.250311
vt -0.201722 -0.246082
vt -0.196467 -0.234750
vt -0.147453 -0.259710
vt -0.148308 -0.261413
vt 0.148568 -0.261282
vt 0.148141 -0.260431
vt 0.197155 -0.235470
vt 0.107001 0.095961
vt 0.096871 0.088835
vt 0.065251 0.133824
vt 0.075381 0.140950
vt -0.034605 0.122743
vt -0.071116 0.081604
vt -0.080593 0.089633
vt -0.044082 0.130772
vt 0.224981 -0.237362
vt 0.223417 -0.236910
vt 0.234732 -0.231784
vt -0.235994 -0.231604
vt -0.224678 -0.236729
vt -0.225003 -0.237624
vt -0.236644 -0.233395
vt -0.224009 -0.240543
vt -0.266133 -0.205196
vt -0.264649 -0.203413
vt 0.234702 -0.231782
vt 0.236591 -0.233129
vt 0.224951 -0.237358
vt 0.279429 -0.076149
vt 0.280842 -0.076957
vt 0.253653 -0.124755
vt -0.201587 -0.232663
vt -0.152759 -0.257955
vt -0.153193 -0.258803
vt -0.202021 -0.233511
vt 0.153190 -0.258807
vt 0.152756 -0.257959
vt 0.201584 -0.232666
vt 0.202018 -0.233515
vt 0.126482 0.109664
vt 0.116352 0.102538
vt 0.084732 0.147527
vt 0.094862 0.154653
vt -0.084728 0.147531
vt -0.116348 0.102542
vt -0.126478 0.109668
vt -0.094858 0.154657
vt 0.247312 -0.229213
vt 0.246986 -0.228317
vt 0.258627 -0.224089
vt 0.258952 -0.224984
vt -0.258705 -0.224367
vt -0.247064 -0.228596
vt -0.247390 -0.229492
vt -0.259030 -0.225262
vt -0.201561 -0.232676
vt -0.152734 -0.257968
vt -0.153167 -0.258817
vt -0.201995 -0.233524
vt 0.153164 -0.258819
vt 0.152730 -0.257971
vt 0.201558 -0.232679
vt 0.201992 -0.233527
vt 0.067261 0.068006
vt 0.057131 0.060880
vt 0.025511 0.105869
vt 0.035640 0.112995
vt -0.025507 0.105873
vt -0.057127 0.060884
vt -0.067257 0.068010
vt -0.035637 0.112999
vt 0.179258 -0.253936
vt 0.178933 -0.253041
vt 0.190573 -0.248812
vt 0.190899 -0.249707
vt -0.190652 -0.249090
vt -0.179011 -0.253319
vt -0.179336 -0.254215
vt -0.190977 -0.249986
vt -0.200011 -0.234726
vt -0.151884 -0.261384
vt -0.200449 -0.235572
vt 0.246970 -0.119702
vt 0.271591 -0.070464
vt 0.273012 -0.071260
vt 0.100459 0.085244
vt 0.090318 0.078134
vt 0.058511 0.123002
vt 0.068652 0.130112
vt -0.052466 0.127343
vt -0.085812 0.082422
vt -0.095841 0.089689
vt 0.215386 -0.240790
vt 0.213819 -0.240345
vt 0.227003 -0.236495
vt -0.247731 -0.178147
vt -0.236900 -0.184154
vt -0.238773 -0.185554
vt -0.249604 -0.179547
vt -0.248214 -0.224591
vt -0.202451 -0.256754
vt -0.204462 -0.257946
vt 0.198892 -0.255021
vt 0.196893 -0.253808
vt 0.242654 -0.221623
vt -0.096027 0.089770
vt -0.063783 0.135476
vt -0.052677 0.127453
vt 0.214414 -0.240800
vt 0.227260 -0.236037
vt 0.227592 -0.236930
s off
f 1/1/1 2/2/2 3/3/3
f 1/1/1 3/3/3 4/4/4
f 5/5/5 6/6/6 7/7/7
f 5/5/5 7/7/7 8/8/8
f 9/9/9 10/10/10 11/11/11
f 9/9/9 11/11/11 12/12/12
f 13/13/13 14/14/14 15/15/15
f 13/13/13 15/15/15 16/16/16
f 17/17/17 18/18/18 19/19/19
f 17/17/17 19/19/19 20/20/20
f 21/21/21 22/22/22 23/23/23
f 21/21/21 23/23/23 24/24/24
f 25/25/25 26/26/26 27/27/27
f 25/25/25 27/27/27 28/28/28
f 29/29/29 30/30/30 31/31/31
f 29/29/29 31/31/31 32/32/32
f 33/33/33 34/34/34 35/35/35
f 33/33/33 35/35/35 36/36/36
f 37/37/37 38/38/38 39/39/39
f 37/37/37 39/39/39 40/40/40
f 41/41/41 42/42/42 43/43/43
f 41/41/41 43/43/43 44/44/44
f 45/45/45 46/46/46 47/47/47
f 45/45/45 47/47/47 48/48/48
f 49/49/49 50/50/50 51/51/51
f 49/49/49 51/51/51 52/52/52
f 53/53/53 54/54/54 55/55/55
f 53/53/53 55/55/55 56/56/56
f 57/57/57 58/58/58 59/59/59
f 57/57/57 59/59/59 60/60/60
f 61/61/61 62/62/62 63/63/63
f 61/61/61 63/63/63 64/64/64
f 65/65/65 66/66/66 67/67/67
f 65/65/65 67/67/67 68/68/68
f 69/69/69 70/70/70 71/71/71
f 69/69/69 71/71/71 72/72/72
f 73/73/73 74/74/74 75/75/75
f 76/76/76 77/77/77 78/78/78
f 79/79/79 80/80/80 81/81/81
f 79/79/79 81/81/81 82/82/82
f 83/83/83 84/84/84 85/85/85
f 83/83/83 85/85/85 86/86/86
f 87/87/87 88/88/88 89/89/89
f 90/90/90 91/91/91 92/92/92
f 90/90/90 92/92/92 93/93/93
f 94/94/94 95/95/95 96/96/96
f 97/97/97 98/98/98 99/99/99
f 100/100/100 101/101/101 102/102/102
f 103/103/103 104/104/104 105/105/105
f 103/103/103 105/105/105 106/106/106
f 107/107/107 108/108/108 109/109/109
f 107/107/107 109/109/109 110/110/110
f 111/111/111 112/112/112 113/113/113
f 111/111/111 113/113/113 114/114/114
f 115/115/115 116/116/116 117/117/117
f 115/115/115 117/117/117 118/118/118
f 119/119/119 120/120/120 121/121/121
f 119/119/119 121/121/121 122/122/122
f 123/123/123 124/124/124 125/125/125
f 123/123/123 125/125/125 126/126/126
f 127/127/127 128/128/128 129/129/129
f 127/127/127 129/129/129 130/130/130
f 131/131/131 132/132/132 133/133/133
f 131/131/131 133/133/133 134/134/134
f 135/135/135 136/136/136 137/137/137
f 135/135/135 137/137/137 138/138/138
f 139/139/139 140/140/140 141/141/141
f 139/139/139 141/141/141 142/142/142
f 143/143/143 144/144/144 145/145/145
f 143/143/143 145/145/145 146/146/146
f 147/147/147 148/148/148 149/149/149
f 147/147/147 149/149/149 150/150/150
f 151/151/151 152/152/152 153/153/153
f 154/154/154 155/155/155 156/156/156
f 157/157/157 158/158/158 159/159/159
f 157/157/157 159/159/159 160/160/160
f 161/161/161 162/162/162 163/163/163
f 164/164/164 165/165/165 166/166/166
f 167/167/167 168/168/168 169/169/169
f 167/167/167 169/169/169 170/170/170
f 171/171/171 172/172/172 173/173/173
f 174/174/174 175/175/175 176/176/176
f 177/177/177 178/178/178 179/179/179
f 180/180/180 181/181/181 182/182/182
