# Exported using automatic converter by Erwin Coumans
mtllib botlab.mtl
#object mesh2087850268

v 2.678238 0.505489 -3.110148
v 2.678238 0.505489 -3.050148
v 2.678238 -0.464511 -3.050148
v 2.678238 -0.464511 -3.110148
v 2.588238 -0.464511 -3.050148
v 2.588238 0.505489 -3.050148
v 2.588238 0.505489 -3.110148
v 2.588238 -0.464511 -3.110148
v 2.678238 -0.464511 -3.050148
v 2.588238 -0.464511 -3.050148
v 2.588238 -0.464511 -3.110148
v 2.678238 -0.464511 -3.110148
v 2.588238 0.505489 -3.110148
v 2.588238 0.505489 -3.050148
v 2.678238 0.505489 -3.050148
v 2.678238 0.505489 -3.110148
v 2.588238 -0.464511 -3.110148
v 2.588238 0.505489 -3.110148
v 2.678238 0.505489 -3.110148
v 2.678238 -0.464511 -3.110148
v 2.678238 0.505489 -3.050148
v 2.588238 0.505489 -3.050148
v 2.588238 -0.464511 -3.050148
v 2.678238 -0.464511 -3.050148
usemtl mat15

vn 1.000000 0.000000 0.000000
vn 1.000000 0.000000 0.000000
vn 1.000000 0.000000 0.000000
vn 1.000000 0.000000 0.000000
vn -1.000000 0.000000 0.000000
vn -1.000000 0.000000 0.000000
vn -1.000000 0.000000 0.000000
vn -1.000000 0.000000 0.000000
vn 0.000000 -1.000000 0.000000
vn 0.000000 -1.000000 0.000000
vn 0.000000 -1.000000 0.000000
vn 0.000000 -1.000000 0.000000
vn 0.000000 1.000000 0.000000
vn 0.000000 1.000000 0.000000
vn 0.000000 1.000000 0.000000
vn 0.000000 1.000000 0.000000
vn 0.000000 0.000000 -1.000000
vn 0.000000 0.000000 -1.000000
vn 0.000000 0.000000 -1.000000
vn 0.000000 0.000000 -1.000000
vn 0.000000 0.000000 1.000000
vn 0.000000 0.000000 1.000000
vn 0.000000 0.000000 1.000000
vn 0.000000 0.000000 1.000000

vt -0.123106 0.209595
vt -0.118224 0.206107
vt -0.174604 0.127175
vt -0.179486 0.130662
vt 0.174604 0.127175
vt 0.118224 0.206107
vt 0.123106 0.209595
vt 0.179486 0.130662
vt -0.123705 0.295841
vt -0.126732 0.287366
vt -0.132382 0.289384
vt -0.129355 0.297859
vt 0.132382 0.289384
vt 0.126732 0.287366
vt 0.123705 0.295841
vt 0.129355 0.297859
vt 0.100176 0.204824
vt 0.013416 0.248204
vt 0.017441 0.256253
vt 0.104201 0.212874
vt -0.017441 0.256253
vt -0.013416 0.248204
vt -0.100176 0.204824
vt -0.104201 0.212874
s off
f 1/1/1 2/2/2 3/3/3
f 1/1/1 3/3/3 4/4/4
f 5/5/5 6/6/6 7/7/7
f 5/5/5 7/7/7 8/8/8
f 9/9/9 10/10/10 11/11/11
f 9/9/9 11/11/11 12/12/12
f 13/13/13 14/14/14 15/15/15
f 13/13/13 15/15/15 16/16/16
f 17/17/17 18/18/18 19/19/19
f 17/17/17 19/19/19 20/20/20
f 21/21/21 22/22/22 23/23/23
f 21/21/21 23/23/23 24/24/24
