# Exported using automatic converter by Erwin Coumans
mtllib model6.mtl
#object group1505145855_1

v -2.313003 -0.512904 -2.145383
v -2.310972 -0.502818 -2.190338
v -2.361749 -0.505166 -2.193158
v -2.363780 -0.515252 -2.148204
v -2.399832 -0.506927 -2.195273
v -2.401862 -0.517013 -2.150319
v -2.363780 -0.515252 -2.148204
v -2.361749 -0.505166 -2.193158
v -2.475996 -0.510450 -2.199504
v -2.478027 -0.520536 -2.154549
v -2.401862 -0.517013 -2.150319
v -2.399832 -0.506927 -2.195273
v -2.564856 -0.514560 -2.204440
v -2.566886 -0.524646 -2.159485
v -2.478027 -0.520536 -2.154549
v -2.475996 -0.510450 -2.199504
v -2.560136 -0.678661 -2.152764
v -2.557061 -0.692402 -2.196678
v -2.468202 -0.688292 -2.191742
v -2.471277 -0.674551 -2.147828
v -2.590244 -0.515734 -2.205850
v -2.592274 -0.525820 -2.160896
v -2.566886 -0.524646 -2.159485
v -2.564856 -0.514560 -2.204440
usemtl mat21

vn -0.057087 0.974700 0.216103
vn -0.057087 0.974700 0.216103
vn -0.057087 0.974700 0.216103
vn -0.057087 0.974700 0.216103
vn -0.057077 0.974701 0.216104
vn -0.057077 0.974701 0.216104
vn -0.057077 0.974701 0.216104
vn -0.057077 0.974701 0.216104
vn -0.057082 0.974701 0.216103
vn -0.057082 0.974701 0.216103
vn -0.057082 0.974701 0.216103
vn -0.057082 0.974701 0.216103
vn -0.057086 0.974700 0.216103
vn -0.057086 0.974700 0.216103
vn -0.057086 0.974700 0.216103
vn -0.057086 0.974700 0.216103
vn 0.027418 -0.953465 0.300254
vn 0.027418 -0.953465 0.300254
vn 0.027418 -0.953465 0.300254
vn 0.027418 -0.953465 0.300254
vn -0.057077 0.974701 0.216104
vn -0.057077 0.974701 0.216104
vn -0.057077 0.974701 0.216104
vn -0.057077 0.974701 0.216104

vt 0.218833 -0.190689
vt 0.222956 -0.188623
vt 0.225237 -0.193174
vt 0.221114 -0.195240
vt 0.226948 -0.196587
vt 0.222825 -0.198653
vt 0.221115 -0.195240
vt 0.225238 -0.193173
vt 0.230370 -0.203414
vt 0.226247 -0.205481
vt 0.222825 -0.198654
vt 0.226948 -0.196587
vt 0.234361 -0.211379
vt 0.230239 -0.213445
vt 0.226247 -0.205481
vt 0.230370 -0.203414
vt -0.176852 -0.258021
vt -0.181318 -0.256870
vt -0.179095 -0.248243
vt -0.174629 -0.249393
vt 0.235502 -0.213654
vt 0.231379 -0.215721
vt 0.230239 -0.213445
vt 0.234362 -0.211379
s off
f 1/1/1 2/2/2 3/3/3
f 1/1/1 3/3/3 4/4/4
f 5/5/5 6/6/6 7/7/7
f 5/5/5 7/7/7 8/8/8
f 9/9/9 10/10/10 11/11/11
f 9/9/9 11/11/11 12/12/12
f 13/13/13 14/14/14 15/15/15
f 13/13/13 15/15/15 16/16/16
f 17/17/17 18/18/18 19/19/19
f 17/17/17 19/19/19 20/20/20
f 21/21/21 22/22/22 23/23/23
f 21/21/21 23/23/23 24/24/24
