# Exported using automatic converter by Erwin Coumans
mtllib model6.mtl
#object group90545862_1

v 0.156030 -0.993671 1.386425
v 0.060390 -0.991935 1.390733
v 0.055841 -1.061398 1.383371
v 0.151481 -1.063134 1.379064
v 0.142389 -1.058264 1.300308
v 0.146939 -0.988801 1.307669
v 0.242578 -0.990537 1.303361
v 0.238029 -1.059999 1.296000
v 0.055841 -1.061398 1.383371
v 0.142389 -1.058264 1.300308
v 0.238029 -1.059999 1.296000
v 0.151481 -1.063134 1.379064
v 0.242578 -0.990537 1.303361
v 0.146939 -0.988801 1.307669
v 0.060390 -0.991935 1.390733
v 0.156030 -0.993671 1.386425
v 0.238029 -1.059999 1.296000
v 0.242578 -0.990537 1.303361
v 0.156030 -0.993671 1.386425
v 0.151481 -1.063134 1.379064
v 0.060390 -0.991935 1.390733
v 0.146939 -0.988801 1.307669
v 0.142389 -1.058264 1.300308
v 0.055841 -1.061398 1.383371
v 0.342033 -0.993834 1.394621
v 0.246283 -0.993240 1.395073
v 0.242853 -1.062407 1.384867
v 0.338602 -1.063001 1.384415
v 0.332653 -1.055164 1.305599
v 0.336083 -0.985997 1.315805
v 0.431833 -0.986591 1.315353
v 0.428402 -1.055758 1.305147
v 0.242853 -1.062407 1.384867
v 0.332653 -1.055164 1.305599
v 0.428402 -1.055758 1.305147
v 0.338602 -1.063001 1.384415
v 0.431833 -0.986591 1.315353
v 0.336083 -0.985997 1.315805
v 0.246283 -0.993240 1.395073
v 0.342033 -0.993834 1.394621
v 0.428402 -1.055758 1.305147
v 0.431833 -0.986591 1.315353
v 0.342033 -0.993834 1.394621
v 0.338602 -1.063001 1.384415
v 0.246283 -0.993240 1.395073
v 0.336083 -0.985997 1.315805
v 0.332653 -1.055164 1.305599
v 0.242853 -1.062407 1.384867
v 0.524703 -0.998208 1.396176
v 0.428990 -0.996305 1.398186
v 0.424426 -1.065226 1.386826
v 0.520139 -1.067129 1.384817
v 0.513046 -1.057815 1.306256
v 0.517610 -0.988894 1.317615
v 0.613322 -0.990797 1.315606
v 0.608758 -1.059718 1.304246
v 0.424426 -1.065226 1.386826
v 0.513046 -1.057815 1.306256
v 0.608758 -1.059718 1.304246
v 0.520139 -1.067129 1.384817
v 0.613322 -0.990797 1.315606
v 0.517610 -0.988894 1.317615
v 0.428990 -0.996305 1.398186
v 0.524703 -0.998208 1.396176
v 0.608758 -1.059718 1.304246
v 0.613322 -0.990797 1.315606
v 0.524703 -0.998208 1.396176
v 0.520139 -1.067129 1.384817
v 0.428990 -0.996305 1.398186
v 0.517610 -0.988894 1.317615
v 0.513046 -1.057815 1.306256
v 0.424426 -1.065226 1.386826
v 0.708875 -0.992346 1.404654
v 0.613143 -0.992314 1.402644
v 0.610471 -1.060744 1.388146
v 0.706203 -1.060776 1.390155
v 0.702223 -1.048160 1.311836
v 0.704896 -0.979730 1.326334
v 0.800627 -0.979761 1.328344
v 0.797955 -1.048191 1.313846
v 0.610471 -1.060744 1.388146
v 0.702223 -1.048160 1.311836
v 0.797955 -1.048191 1.313846
v 0.706203 -1.060776 1.390155
v 0.800627 -0.979761 1.328344
v 0.704896 -0.979730 1.326334
v 0.613143 -0.992314 1.402644
v 0.708875 -0.992346 1.404654
v 0.797955 -1.048191 1.313846
v 0.800627 -0.979761 1.328344
v 0.708875 -0.992346 1.404654
v 0.706203 -1.060776 1.390155
v 0.613143 -0.992314 1.402644
v 0.704896 -0.979730 1.326334
v 0.702223 -1.048160 1.311836
v 0.610471 -1.060744 1.388146
usemtl mat12

vn 0.042776 -0.108055 0.993224
vn 0.042776 -0.108055 0.993224
vn 0.042776 -0.108055 0.993224
vn 0.042776 -0.108055 0.993224
vn -0.042775 0.108054 -0.993224
vn -0.042775 0.108054 -0.993224
vn -0.042775 0.108054 -0.993224
vn -0.042775 0.108054 -0.993224
vn -0.020783 -0.998023 -0.059313
vn -0.020783 -0.998023 -0.059313
vn -0.020783 -0.998023 -0.059313
vn -0.020783 -0.998023 -0.059313
vn 0.020783 0.998023 0.059313
vn 0.020783 0.998023 0.059313
vn 0.020783 0.998023 0.059313
vn 0.020783 0.998023 0.059313
vn 0.689636 -0.120829 0.714004
vn 0.689636 -0.120829 0.714004
vn 0.689636 -0.120829 0.714004
vn 0.689636 -0.120829 0.714004
vn -0.689636 0.120829 -0.714004
vn -0.689636 0.120829 -0.714004
vn -0.689636 0.120829 -0.714004
vn -0.689636 0.120829 -0.714004
vn 0.003763 -0.146159 0.989254
vn 0.003763 -0.146159 0.989254
vn 0.003763 -0.146159 0.989254
vn 0.003763 -0.146159 0.989254
vn -0.003762 0.146159 -0.989254
vn -0.003762 0.146159 -0.989254
vn -0.003762 0.146159 -0.989254
vn -0.003762 0.146159 -0.989254
vn -0.006633 -0.995121 -0.098438
vn -0.006633 -0.995121 -0.098438
vn -0.006633 -0.995121 -0.098438
vn -0.006633 -0.995121 -0.098438
vn 0.006633 0.995121 0.098438
vn 0.006633 0.995121 0.098438
vn 0.006633 0.995121 0.098438
vn 0.006633 0.995121 0.098438
vn 0.661511 -0.141483 0.736468
vn 0.661511 -0.141483 0.736468
vn 0.661511 -0.141483 0.736468
vn 0.661511 -0.141483 0.736468
vn -0.661511 0.141483 -0.736468
vn -0.661511 0.141483 -0.736468
vn -0.661511 0.141483 -0.736468
vn -0.661511 0.141483 -0.736468
vn 0.017454 -0.163725 0.986352
vn 0.017454 -0.163725 0.986352
vn 0.017454 -0.163725 0.986352
vn 0.017454 -0.163725 0.986352
vn -0.017453 0.163725 -0.986352
vn -0.017453 0.163725 -0.986352
vn -0.017453 0.163725 -0.986352
vn -0.017453 0.163725 -0.986352
vn -0.022179 -0.993033 -0.115735
vn -0.022179 -0.993033 -0.115735
vn -0.022179 -0.993033 -0.115735
vn -0.022179 -0.993033 -0.115735
vn 0.022179 0.993033 0.115735
vn 0.022179 0.993033 0.115735
vn 0.022179 0.993033 0.115735
vn 0.022179 0.993033 0.115735
vn 0.671096 -0.163620 0.723090
vn 0.671096 -0.163620 0.723090
vn 0.671096 -0.163620 0.723090
vn 0.671096 -0.163620 0.723090
vn -0.671096 0.163620 -0.723090
vn -0.671096 0.163620 -0.723090
vn -0.671096 0.163620 -0.723090
vn -0.671096 0.163620 -0.723090
vn -0.020603 -0.206453 0.978240
vn -0.020603 -0.206453 0.978240
vn -0.020603 -0.206453 0.978240
vn -0.020603 -0.206453 0.978240
vn 0.020604 0.206453 -0.978240
vn 0.020604 0.206453 -0.978240
vn 0.020604 0.206453 -0.978240
vn 0.020604 0.206453 -0.978240
vn 0.003019 -0.987245 -0.159180
vn 0.003019 -0.987245 -0.159180
vn 0.003019 -0.987245 -0.159180
vn 0.003019 -0.987245 -0.159180
vn -0.003018 0.987245 0.159180
vn -0.003018 0.987245 0.159180
vn -0.003018 0.987245 0.159180
vn -0.003018 0.987245 0.159180
vn 0.643371 -0.182638 0.743450
vn 0.643371 -0.182638 0.743450
vn 0.643371 -0.182638 0.743450
vn 0.643371 -0.182638 0.743450
vn -0.643371 0.182638 -0.743450
vn -0.643371 0.182638 -0.743450
vn -0.643371 0.182638 -0.743450
vn -0.643371 0.182638 -0.743450

vt -0.013369 -0.033589
vt -0.009234 -0.042225
vt -0.015414 -0.045512
vt -0.019550 -0.036876
vt 0.019650 -0.037547
vt 0.013470 -0.034261
vt 0.017605 -0.025624
vt 0.023785 -0.028911
vt 0.205781 -0.106385
vt 0.201185 -0.095300
vt 0.204271 -0.086236
vt 0.208867 -0.097321
vt -0.204684 -0.086064
vt -0.201598 -0.095129
vt -0.206194 -0.106214
vt -0.209280 -0.097150
vt 0.043811 -0.155582
vt 0.049987 -0.152287
vt 0.055635 -0.162875
vt 0.049459 -0.166170
vt -0.058663 -0.169410
vt -0.053015 -0.158823
vt -0.046839 -0.162117
vt -0.052487 -0.172705
vt -0.016553 -0.004578
vt -0.012624 -0.013310
vt -0.018881 -0.016449
vt -0.022810 -0.007716
vt 0.022926 -0.008386
vt 0.016669 -0.005247
vt 0.020598 0.003485
vt 0.026855 0.000347
vt 0.212675 -0.093126
vt 0.208678 -0.081812
vt 0.212242 -0.072925
vt 0.216240 -0.084239
vt -0.212664 -0.072776
vt -0.209099 -0.081663
vt -0.213097 -0.092977
vt -0.216662 -0.084090
vt 0.039295 -0.135929
vt 0.045596 -0.132879
vt 0.050824 -0.143681
vt 0.044523 -0.146730
vt -0.053593 -0.150330
vt -0.048366 -0.139528
vt -0.042065 -0.142578
vt -0.047293 -0.153379
vt -0.019112 0.010877
vt -0.015116 0.002175
vt -0.021349 -0.001012
vt -0.025345 0.007690
vt 0.025456 0.007020
vt 0.019223 0.010207
vt 0.023219 0.018909
vt 0.029452 0.015722
vt 0.219692 -0.078260
vt 0.215637 -0.066965
vt 0.219157 -0.058061
vt 0.223212 -0.069355
vt -0.219578 -0.057909
vt -0.216058 -0.066814
vt -0.220113 -0.078108
vt -0.223633 -0.069204
vt 0.040007 -0.123796
vt 0.046280 -0.120691
vt 0.051604 -0.131445
vt 0.045330 -0.134550
vt -0.054432 -0.138069
vt -0.049108 -0.127315
vt -0.042835 -0.130420
vt -0.048158 -0.141175
vt -0.019490 0.040512
vt -0.015822 0.031667
vt -0.022169 0.028715
vt -0.025837 0.037560
vt 0.025973 0.036894
vt 0.019626 0.039846
vt 0.023295 0.048691
vt 0.029642 0.045739
vt 0.226884 -0.065075
vt 0.223419 -0.053587
vt 0.227395 -0.044876
vt 0.230860 -0.056365
vt -0.227823 -0.044747
vt -0.223847 -0.053457
vt -0.227312 -0.064946
vt -0.231288 -0.056236
vt 0.036272 -0.102668
vt 0.042694 -0.099882
vt 0.047470 -0.110891
vt 0.041048 -0.113677
vt -0.049961 -0.117649
vt -0.045185 -0.106640
vt -0.038764 -0.109426
vt -0.043540 -0.120435
s off
f 1/1/1 2/2/2 3/3/3
f 1/1/1 3/3/3 4/4/4
f 5/5/5 6/6/6 7/7/7
f 5/5/5 7/7/7 8/8/8
f 9/9/9 10/10/10 11/11/11
f 9/9/9 11/11/11 12/12/12
f 13/13/13 14/14/14 15/15/15
f 13/13/13 15/15/15 16/16/16
f 17/17/17 18/18/18 19/19/19
f 17/17/17 19/19/19 20/20/20
f 21/21/21 22/22/22 23/23/23
f 21/21/21 23/23/23 24/24/24
f 25/25/25 26/26/26 27/27/27
f 25/25/25 27/27/27 28/28/28
f 29/29/29 30/30/30 31/31/31
f 29/29/29 31/31/31 32/32/32
f 33/33/33 34/34/34 35/35/35
f 33/33/33 35/35/35 36/36/36
f 37/37/37 38/38/38 39/39/39
f 37/37/37 39/39/39 40/40/40
f 41/41/41 42/42/42 43/43/43
f 41/41/41 43/43/43 44/44/44
f 45/45/45 46/46/46 47/47/47
f 45/45/45 47/47/47 48/48/48
f 49/49/49 50/50/50 51/51/51
f 49/49/49 51/51/51 52/52/52
f 53/53/53 54/54/54 55/55/55
f 53/53/53 55/55/55 56/56/56
f 57/57/57 58/58/58 59/59/59
f 57/57/57 59/59/59 60/60/60
f 61/61/61 62/62/62 63/63/63
f 61/61/61 63/63/63 64/64/64
f 65/65/65 66/66/66 67/67/67
f 65/65/65 67/67/67 68/68/68
f 69/69/69 70/70/70 71/71/71
f 69/69/69 71/71/71 72/72/72
f 73/73/73 74/74/74 75/75/75
f 73/73/73 75/75/75 76/76/76
f 77/77/77 78/78/78 79/79/79
f 77/77/77 79/79/79 80/80/80
f 81/81/81 82/82/82 83/83/83
f 81/81/81 83/83/83 84/84/84
f 85/85/85 86/86/86 87/87/87
f 85/85/85 87/87/87 88/88/88
f 89/89/89 90/90/90 91/91/91
f 89/89/89 91/91/91 92/92/92
f 93/93/93 94/94/94 95/95/95
f 93/93/93 95/95/95 96/96/96
