# Exported using automatic converter by Erwin Coumans
mtllib model6.mtl
#object group740056941_1

v -2.546219 -1.007713 -0.726466
v -2.505304 -1.007369 -0.722103
v -2.472053 -1.006917 -0.697868
v -2.455375 -1.006477 -0.660252
v -2.459740 -1.006167 -0.619337
v -2.483979 -1.006071 -0.586084
v -2.521595 -1.006214 -0.569405
v -2.562510 -1.006558 -0.573767
v -2.595762 -1.007010 -0.598003
v -2.612439 -1.007450 -0.635618
v -2.608074 -1.007759 -0.676534
v -2.583836 -1.007856 -0.709786
v -2.458154 -0.791666 -0.706720
v -2.438176 -0.791139 -0.661661
v -2.437858 -0.833533 -0.661307
v -2.457836 -0.834060 -0.706365
v -2.472440 -0.790654 -0.572814
v -2.517501 -0.790825 -0.552834
v -2.517182 -0.833219 -0.552480
v -2.472122 -0.833047 -0.572460
v -2.606345 -0.791778 -0.587092
v -2.626323 -0.792305 -0.632151
v -2.626004 -0.834699 -0.631797
v -2.606027 -0.834172 -0.586738
v -2.580847 -0.707791 -0.707028
v -2.604131 -0.707699 -0.675086
v -2.608324 -0.707402 -0.635782
v -2.592304 -0.706979 -0.599650
v -2.560363 -0.706545 -0.576370
v -2.521059 -0.706214 -0.572178
v -2.484926 -0.706077 -0.588200
v -2.461642 -0.706169 -0.620143
v -2.457450 -0.706467 -0.659447
v -2.473470 -0.706889 -0.695579
v -2.505410 -0.707324 -0.718859
v -2.544714 -0.707654 -0.723051
usemtl mat21

vn 0.007507 -0.999937 0.008364
vn 0.007507 -0.999937 0.008364
vn 0.007507 -0.999937 0.008364
vn 0.007507 -0.999937 0.008364
vn 0.007507 -0.999937 0.008364
vn 0.007507 -0.999937 0.008364
vn 0.007507 -0.999937 0.008364
vn 0.007507 -0.999937 0.008364
vn 0.007507 -0.999937 0.008364
vn 0.007507 -0.999937 0.008364
vn 0.007507 -0.999937 0.008364
vn 0.007507 -0.999937 0.008364
vn 0.914152 0.003478 -0.405357
vn 0.914152 0.003478 -0.405357
vn 0.914152 0.003478 -0.405357
vn 0.914152 0.003478 -0.405357
vn 0.405289 0.010687 0.914126
vn 0.405289 0.010687 0.914126
vn 0.405289 0.010687 0.914126
vn 0.405289 0.010687 0.914126
vn -0.914154 -0.003478 0.405352
vn -0.914154 -0.003478 0.405352
vn -0.914154 -0.003478 0.405352
vn -0.914154 -0.003478 0.405352
vn -0.007507 0.999937 -0.008364
vn -0.007507 0.999937 -0.008364
vn -0.007507 0.999937 -0.008364
vn -0.007507 0.999937 -0.008364
vn -0.007507 0.999937 -0.008364
vn -0.007507 0.999937 -0.008364
vn -0.007507 0.999937 -0.008364
vn -0.007507 0.999937 -0.008364
vn -0.007507 0.999937 -0.008364
vn -0.007507 0.999937 -0.008364
vn -0.007507 0.999937 -0.008364
vn -0.007507 0.999937 -0.008364

vt -0.079788 -0.274931
vt -0.078019 -0.271216
vt -0.074629 -0.268883
vt -0.070527 -0.268558
vt -0.066812 -0.270327
vt -0.064479 -0.273717
vt -0.064154 -0.277819
vt -0.065923 -0.281534
vt -0.069313 -0.283867
vt -0.073414 -0.284192
vt -0.077130 -0.282423
vt -0.079463 -0.279033
vt -0.089509 -0.044409
vt -0.084650 -0.043583
vt -0.083940 -0.047763
vt -0.088799 -0.048589
vt 0.086985 -0.254245
vt 0.089071 -0.258711
vt 0.085230 -0.260506
vt 0.083144 -0.256040
vt 0.084649 -0.043582
vt 0.089509 -0.044408
vt 0.088798 -0.048587
vt 0.083939 -0.047762
vt 0.078792 -0.278714
vt 0.076551 -0.281970
vt 0.072982 -0.283669
vt 0.069042 -0.283357
vt 0.065786 -0.281116
vt 0.064086 -0.277547
vt 0.064399 -0.273607
vt 0.066640 -0.270350
vt 0.070209 -0.268651
vt 0.074149 -0.268964
vt 0.077405 -0.271205
vt 0.079104 -0.274773
s off
f 1/1/1 2/2/2 3/3/3
f 1/1/1 3/3/3 4/4/4
f 1/1/1 4/4/4 5/5/5
f 1/1/1 5/5/5 6/6/6
f 1/1/1 6/6/6 7/7/7
f 1/1/1 7/7/7 8/8/8
f 1/1/1 8/8/8 9/9/9
f 1/1/1 9/9/9 10/10/10
f 1/1/1 10/10/10 11/11/11
f 1/1/1 11/11/11 12/12/12
f 13/13/13 14/14/14 15/15/15
f 13/13/13 15/15/15 16/16/16
f 17/17/17 18/18/18 19/19/19
f 17/17/17 19/19/19 20/20/20
f 21/21/21 22/22/22 23/23/23
f 21/21/21 23/23/23 24/24/24
f 25/25/25 26/26/26 27/27/27
f 25/25/25 27/27/27 28/28/28
f 25/25/25 28/28/28 29/29/29
f 25/25/25 29/29/29 30/30/30
f 25/25/25 30/30/30 31/31/31
f 25/25/25 31/31/31 32/32/32
f 25/25/25 32/32/32 33/33/33
f 25/25/25 33/33/33 34/34/34
f 25/25/25 34/34/34 35/35/35
f 25/25/25 35/35/35 36/36/36
