# Exported using automatic converter by Erwin Coumans
mtllib model6.mtl
#object group1624754713_2

v 2.360623 -0.776511 1.827213
v 2.354274 -0.776511 1.850905
v 2.369529 -0.796511 1.859713
v 2.378238 -0.796511 1.827213
v 2.236257 -0.925183 1.795495
v 2.238152 -0.856474 1.794609
v 2.258143 -0.857023 1.794830
v 2.256248 -0.925731 1.795716
v 2.257829 -0.856636 1.824177
v 2.237838 -0.856087 1.823956
v 2.235943 -0.924795 1.824843
v 2.255934 -0.925344 1.825064
v 2.258143 -0.857023 1.794830
v 2.257829 -0.856636 1.824177
v 2.255934 -0.925344 1.825064
v 2.256248 -0.925731 1.795716
v 2.235943 -0.924795 1.824843
v 2.237838 -0.856087 1.823956
v 2.238152 -0.856474 1.794609
v 2.236257 -0.925183 1.795495
v 2.255934 -0.925344 1.825064
v 2.235943 -0.924795 1.824843
v 2.236257 -0.925183 1.795495
v 2.256248 -0.925731 1.795716
v 2.238152 -0.856474 1.794609
v 2.237838 -0.856087 1.823956
v 2.257829 -0.856636 1.824177
v 2.258143 -0.857023 1.794830
usemtl mat21

vn 0.735705 0.647978 0.197135
vn 0.735705 0.647978 0.197135
vn 0.735705 0.647978 0.197135
vn 0.735705 0.647978 0.197135
vn 0.010694 -0.013196 -0.999856
vn 0.010694 -0.013196 -0.999856
vn 0.010694 -0.013196 -0.999856
vn 0.010694 -0.013196 -0.999856
vn -0.010694 0.013196 0.999856
vn -0.010694 0.013196 0.999856
vn -0.010694 0.013196 0.999856
vn -0.010694 0.013196 0.999856
vn 0.999563 -0.027426 0.011053
vn 0.999563 -0.027426 0.011053
vn 0.999563 -0.027426 0.011053
vn 0.999563 -0.027426 0.011053
vn -0.999563 0.027426 -0.011053
vn -0.999563 0.027426 -0.011053
vn -0.999563 0.027426 -0.011053
vn -0.999563 0.027426 -0.011053
vn -0.027568 -0.999537 0.012897
vn -0.027568 -0.999537 0.012897
vn -0.027568 -0.999537 0.012897
vn -0.027568 -0.999537 0.012897
vn 0.027568 0.999537 -0.012897
vn 0.027568 0.999537 -0.012897
vn 0.027568 0.999537 -0.012897
vn 0.027568 0.999537 -0.012897

vt -0.249030 -0.142608
vt -0.249749 -0.144953
vt -0.252393 -0.144619
vt -0.251406 -0.141402
vt 0.130889 0.153023
vt 0.124845 0.156297
vt 0.125798 0.158056
vt 0.131842 0.154781
vt -0.125798 0.158056
vt -0.124845 0.156297
vt -0.130889 0.153023
vt -0.131842 0.154781
vt 0.200126 -0.178579
vt 0.202554 -0.180228
vt 0.198693 -0.185915
vt 0.196265 -0.184266
vt -0.198693 -0.185915
vt -0.202554 -0.180228
vt -0.200126 -0.178579
vt -0.196265 -0.184266
vt 0.320954 0.093863
vt 0.320264 0.091986
vt 0.317509 0.092999
vt 0.318200 0.094876
vt -0.317509 0.092999
vt -0.320264 0.091986
vt -0.320954 0.093863
vt -0.318200 0.094876
s off
f 1/1/1 2/2/2 3/3/3
f 1/1/1 3/3/3 4/4/4
f 5/5/5 6/6/6 7/7/7
f 5/5/5 7/7/7 8/8/8
f 9/9/9 10/10/10 11/11/11
f 9/9/9 11/11/11 12/12/12
f 13/13/13 14/14/14 15/15/15
f 13/13/13 15/15/15 16/16/16
f 17/17/17 18/18/18 19/19/19
f 17/17/17 19/19/19 20/20/20
f 21/21/21 22/22/22 23/23/23
f 21/21/21 23/23/23 24/24/24
f 25/25/25 26/26/26 27/27/27
f 25/25/25 27/27/27 28/28/28
