# Exported using automatic converter by Erwin Coumans
mtllib model6.mtl
#object mesh1343977886

v -2.556762 0.225489 0.944851
v -2.556762 0.315489 0.944851
v 3.133238 0.315489 0.944852
v 3.133238 0.225489 0.944852
v 3.133238 0.315489 0.984852
v -2.556762 0.315489 0.984851
v -2.556762 0.225489 0.984851
v 3.133238 0.225489 0.984852
usemtl mat23

vn 0.000000 0.000000 -1.000000
vn 0.000000 0.000000 -1.000000
vn 0.000000 0.000000 -1.000000
vn 0.000000 0.000000 -1.000000
vn -0.000000 0.000000 1.000000
vn -0.000000 0.000000 1.000000
vn -0.000000 0.000000 1.000000
vn -0.000000 0.000000 1.000000

vt -0.191631 -0.224501
vt -0.199681 -0.220476
vt 0.054784 0.288453
vt 0.062834 0.284428
vt -0.054784 0.288453
vt 0.199681 -0.220476
vt 0.191631 -0.224501
vt -0.062834 0.284428
s off
f 1/1/1 2/2/2 3/3/3
f 1/1/1 3/3/3 4/4/4
f 5/5/5 6/6/6 7/7/7
f 5/5/5 7/7/7 8/8/8
