# Exported using automatic converter by Erwin Coumans
mtllib model6.mtl
#object mesh834114662

v -1.881762 -0.974511 2.359852
v -1.881762 -0.974511 2.339852
v -1.881762 -1.024511 2.339852
v -1.881762 -1.024511 2.359852
v -1.071762 -1.024511 2.339852
v -1.071762 -0.974511 2.339852
v -1.071762 -0.974511 2.359852
v -1.071762 -1.024511 2.359852
v -1.881762 -1.024511 2.339852
v -1.071762 -1.024511 2.339852
v -1.071762 -1.024511 2.359852
v -1.881762 -1.024511 2.359852
v -1.071762 -0.974511 2.359852
v -1.071762 -0.974511 2.339852
v -1.881762 -0.974511 2.339852
v -1.881762 -0.974511 2.359852
v -1.071762 -1.024511 2.359852
v -1.071762 -0.974511 2.359852
v -1.881762 -0.974511 2.359852
v -1.881762 -1.024511 2.359852
v -1.881762 -0.974511 2.339852
v -1.071762 -0.974511 2.339852
v -1.071762 -1.024511 2.339852
v -1.881762 -1.024511 2.339852
usemtl mat21

vn -1.000000 0.000000 -0.000000
vn -1.000000 0.000000 -0.000000
vn -1.000000 0.000000 -0.000000
vn -1.000000 0.000000 -0.000000
vn 1.000000 0.000000 0.000000
vn 1.000000 0.000000 0.000000
vn 1.000000 0.000000 0.000000
vn 1.000000 0.000000 0.000000
vn -0.000000 -1.000000 0.000000
vn -0.000000 -1.000000 0.000000
vn -0.000000 -1.000000 0.000000
vn -0.000000 -1.000000 0.000000
vn 0.000000 1.000000 -0.000000
vn 0.000000 1.000000 -0.000000
vn 0.000000 1.000000 -0.000000
vn 0.000000 1.000000 -0.000000
vn -0.000000 0.000000 1.000000
vn -0.000000 0.000000 1.000000
vn -0.000000 0.000000 1.000000
vn -0.000000 0.000000 1.000000
vn 0.000000 -0.000000 -1.000000
vn 0.000000 -0.000000 -1.000000
vn 0.000000 -0.000000 -1.000000
vn 0.000000 -0.000000 -1.000000

vt -0.235983 -0.228775
vt -0.234355 -0.227613
vt -0.231449 -0.231682
vt -0.233076 -0.232844
vt 0.231449 -0.231682
vt 0.234355 -0.227613
vt 0.235983 -0.228775
vt 0.233076 -0.232844
vt 0.230525 -0.314878
vt 0.257768 -0.238597
vt 0.259652 -0.239270
vt 0.232408 -0.315551
vt -0.259652 -0.239270
vt -0.257768 -0.238597
vt -0.230525 -0.314878
vt -0.232408 -0.315551
vt 0.013416 -0.147581
vt 0.017888 -0.145344
vt 0.054113 -0.217793
vt 0.049641 -0.220029
vt -0.054113 -0.217793
vt -0.017888 -0.145344
vt -0.013416 -0.147581
vt -0.049641 -0.220029
s off
f 1/1/1 2/2/2 3/3/3
f 1/1/1 3/3/3 4/4/4
f 5/5/5 6/6/6 7/7/7
f 5/5/5 7/7/7 8/8/8
f 9/9/9 10/10/10 11/11/11
f 9/9/9 11/11/11 12/12/12
f 13/13/13 14/14/14 15/15/15
f 13/13/13 15/15/15 16/16/16
f 17/17/17 18/18/18 19/19/19
f 17/17/17 19/19/19 20/20/20
f 21/21/21 22/22/22 23/23/23
f 21/21/21 23/23/23 24/24/24
