# Exported using automatic converter by Erwin Coumans
mtllib model6.mtl
#object group2136252452_10

v 0.512699 -0.517800 2.175127
v 0.509610 -0.558505 2.195300
v 0.509435 -0.557242 2.158399
v 0.497303 -0.558472 2.195359
v 0.500392 -0.517767 2.175186
v 0.497128 -0.557209 2.158458
v 0.509610 -0.558505 2.195300
v 0.497303 -0.558472 2.195359
v 0.497128 -0.557209 2.158458
v 0.509435 -0.557242 2.158399
v 0.503454 -0.517670 2.172097
v 0.500392 -0.517767 2.175186
v 0.512699 -0.517800 2.175127
v 0.497128 -0.557209 2.158458
v 0.512699 -0.517800 2.175127
v 0.509435 -0.557242 2.158399
v 0.512699 -0.517800 2.175127
v 0.500392 -0.517767 2.175186
v 0.497303 -0.558472 2.195359
v 0.509610 -0.558505 2.195300
v 0.500392 -0.517767 2.175186
v 0.503454 -0.517670 2.172097
v 0.497128 -0.557209 2.158458
v 0.497128 -0.557209 2.158458
v 0.503454 -0.517670 2.172097
v 0.512699 -0.517800 2.175127
v 0.047559 -0.446850 2.187454
v 0.043698 -0.497731 2.212670
v 0.043479 -0.496152 2.166543
v 0.028313 -0.497689 2.212744
v 0.032175 -0.446808 2.187528
v 0.028095 -0.496111 2.166618
v 0.043698 -0.497731 2.212670
v 0.028313 -0.497689 2.212744
v 0.028095 -0.496111 2.166618
v 0.043479 -0.496152 2.166543
v 0.036003 -0.446687 2.183666
v 0.032175 -0.446808 2.187528
v 0.047559 -0.446850 2.187454
v 0.028095 -0.496111 2.166618
v 0.047559 -0.446850 2.187454
v 0.043479 -0.496152 2.166543
v 0.047559 -0.446850 2.187454
v 0.032175 -0.446808 2.187528
v 0.028313 -0.497689 2.212744
v 0.043698 -0.497731 2.212670
v 0.032175 -0.446808 2.187528
v 0.036003 -0.446687 2.183666
v 0.028095 -0.496111 2.166618
v 0.028095 -0.496111 2.166618
v 0.036003 -0.446687 2.183666
v 0.047559 -0.446850 2.187454
usemtl mat12

vn 0.996820 -0.079340 -0.007434
vn 0.996820 -0.079340 -0.007434
vn 0.996820 -0.079340 -0.007434
vn -0.996820 0.079340 0.007434
vn -0.996820 0.079340 0.007434
vn -0.996820 0.079340 0.007434
vn -0.002860 -0.999411 -0.034188
vn -0.002860 -0.999411 -0.034188
vn -0.002860 -0.999411 -0.034188
vn -0.002860 -0.999411 -0.034188
vn 0.000000 0.000000 0.000000
vn 0.000000 0.000000 0.000000
vn 0.000000 0.000000 0.000000
vn -0.003389 0.390691 -0.920516
vn -0.003389 0.390691 -0.920516
vn -0.003389 0.390691 -0.920516
vn 0.005522 0.443709 0.896154
vn 0.005522 0.443709 0.896154
vn 0.005522 0.443709 0.896154
vn 0.005522 0.443709 0.896154
vn -0.674490 0.334874 -0.657969
vn -0.674490 0.334874 -0.657969
vn -0.674490 0.334874 -0.657969
vn 0.303584 0.266917 -0.914654
vn 0.303584 0.266917 -0.914654
vn 0.303584 0.266917 -0.914654
vn 0.996820 -0.079340 -0.007434
vn 0.996820 -0.079340 -0.007434
vn 0.996820 -0.079340 -0.007434
vn -0.996820 0.079340 0.007434
vn -0.996820 0.079340 0.007434
vn -0.996820 0.079340 0.007434
vn -0.002860 -0.999411 -0.034188
vn -0.002860 -0.999411 -0.034188
vn -0.002860 -0.999411 -0.034188
vn -0.002860 -0.999411 -0.034188
vn 0.000000 0.000000 0.000000
vn 0.000000 0.000000 0.000000
vn 0.000000 0.000000 0.000000
vn -0.003389 0.390691 -0.920516
vn -0.003389 0.390691 -0.920516
vn -0.003389 0.390691 -0.920516
vn 0.005522 0.443709 0.896154
vn 0.005522 0.443709 0.896154
vn 0.005522 0.443709 0.896154
vn 0.005522 0.443709 0.896154
vn -0.674490 0.334874 -0.657969
vn -0.674490 0.334874 -0.657969
vn -0.674490 0.334874 -0.657969
vn 0.303584 0.266917 -0.914654
vn 0.303584 0.266917 -0.914654
vn 0.303584 0.266917 -0.914654

vt 0.261416 -0.160352
vt 0.261026 -0.164889
vt 0.257934 -0.162870
vt -0.260974 -0.164968
vt -0.261364 -0.160431
vt -0.257883 -0.162949
vt 0.296070 -0.089400
vt 0.295644 -0.090555
vt 0.292180 -0.089276
vt 0.292606 -0.088121
vt 0.000000 0.000000
vt 0.000000 0.000000
vt 0.000000 0.000000
vt -0.101595 0.051351
vt -0.105195 0.054139
vt -0.101215 0.052522
vt -0.128676 -0.055862
vt -0.128037 -0.056915
vt -0.131762 -0.059534
vt -0.132400 -0.058482
vt -0.174310 -0.131928
vt -0.174080 -0.131559
vt -0.170280 -0.133418
vt -0.025131 0.130639
vt -0.028627 0.133021
vt -0.028279 0.133930
vt 0.263924 -0.157917
vt 0.263437 -0.163588
vt 0.259572 -0.161065
vt -0.263373 -0.163687
vt -0.263860 -0.158016
vt -0.259508 -0.161163
vt 0.281153 -0.133583
vt 0.280620 -0.135027
vt 0.276291 -0.133428
vt 0.276823 -0.131985
vt 0.000000 0.000000
vt 0.000000 0.000000
vt 0.000000 0.000000
vt -0.121555 0.008499
vt -0.126055 0.011984
vt -0.121079 0.009962
vt -0.099581 -0.092645
vt -0.098783 -0.093960
vt -0.103439 -0.097234
vt -0.104237 -0.095919
vt -0.189210 -0.162318
vt -0.188922 -0.161857
vt -0.184173 -0.164180
vt -0.049815 0.092557
vt -0.054185 0.095534
vt -0.053750 0.096669
s off
f 1/1/1 2/2/2 3/3/3
f 4/4/4 5/5/5 6/6/6
f 7/7/7 8/8/8 9/9/9
f 7/7/7 9/9/9 10/10/10
f 11/11/11 12/12/12 13/13/13
f 14/14/14 15/15/15 16/16/16
f 17/17/17 18/18/18 19/19/19
f 17/17/17 19/19/19 20/20/20
f 21/21/21 22/22/22 23/23/23
f 24/24/24 25/25/25 26/26/26
f 27/27/27 28/28/28 29/29/29
f 30/30/30 31/31/31 32/32/32
f 33/33/33 34/34/34 35/35/35
f 33/33/33 35/35/35 36/36/36
f 37/37/37 38/38/38 39/39/39
f 40/40/40 41/41/41 42/42/42
f 43/43/43 44/44/44 45/45/45
f 43/43/43 45/45/45 46/46/46
f 47/47/47 48/48/48 49/49/49
f 50/50/50 51/51/51 52/52/52
