# Exported using automatic converter by Erwin Coumans
mtllib model6.mtl
#object mesh2022766362

v 0.763679 -0.650268 2.604222
v 0.743551 -0.640764 2.590970
v 0.747121 -0.653782 2.576212
v 0.767249 -0.663286 2.589464
v 0.762912 -0.636396 2.564696
v 0.759342 -0.623379 2.579453
v 0.779470 -0.632882 2.592706
v 0.783040 -0.645900 2.577948
v 0.747121 -0.653782 2.576212
v 0.762912 -0.636396 2.564696
v 0.783040 -0.645900 2.577948
v 0.767249 -0.663286 2.589464
v 0.779470 -0.632882 2.592706
v 0.759342 -0.623379 2.579453
v 0.743551 -0.640764 2.590970
v 0.763679 -0.650268 2.604222
v 0.783040 -0.645900 2.577948
v 0.779470 -0.632882 2.592706
v 0.763679 -0.650268 2.604222
v 0.767249 -0.663286 2.589464
v 0.743551 -0.640764 2.590970
v 0.759342 -0.623379 2.579453
v 0.762912 -0.636396 2.564696
v 0.747121 -0.653782 2.576212
usemtl mat7

vn -0.603683 -0.664640 0.440251
vn -0.603683 -0.664640 0.440251
vn -0.603683 -0.664640 0.440251
vn -0.603683 -0.664640 0.440251
vn 0.603683 0.664640 -0.440251
vn 0.603683 0.664640 -0.440251
vn 0.603683 0.664640 -0.440251
vn 0.603683 0.664640 -0.440251
vn 0.178486 -0.650889 -0.737893
vn 0.178486 -0.650889 -0.737893
vn 0.178486 -0.650889 -0.737893
vn 0.178486 -0.650889 -0.737893
vn -0.178486 0.650889 0.737893
vn -0.178486 0.650889 0.737893
vn -0.178486 0.650889 0.737893
vn -0.178486 0.650889 0.737893
vn 0.776988 -0.366874 0.511560
vn 0.776988 -0.366874 0.511560
vn 0.776988 -0.366874 0.511560
vn 0.776988 -0.366874 0.511560
vn -0.776988 0.366874 -0.511560
vn -0.776988 0.366874 -0.511560
vn -0.776988 0.366874 -0.511560
vn -0.776988 0.366874 -0.511560

vt 0.289970 0.146644
vt 0.289262 0.144152
vt 0.287338 0.144698
vt 0.288045 0.147190
vt -0.287338 0.144698
vt -0.289262 0.144152
vt -0.289970 0.146644
vt -0.288045 0.147190
vt 0.252047 -0.052020
vt 0.251127 -0.049572
vt 0.253552 -0.048660
vt 0.254472 -0.051109
vt -0.253552 -0.048660
vt -0.251127 -0.049572
vt -0.252047 -0.052020
vt -0.254472 -0.051109
vt 0.221306 -0.159109
vt 0.223295 -0.159321
vt 0.223017 -0.161922
vt 0.221029 -0.161710
vt -0.223017 -0.161922
vt -0.223295 -0.159321
vt -0.221306 -0.159109
vt -0.221029 -0.161710
s off
f 1/1/1 2/2/2 3/3/3
f 1/1/1 3/3/3 4/4/4
f 5/5/5 6/6/6 7/7/7
f 5/5/5 7/7/7 8/8/8
f 9/9/9 10/10/10 11/11/11
f 9/9/9 11/11/11 12/12/12
f 13/13/13 14/14/14 15/15/15
f 13/13/13 15/15/15 16/16/16
f 17/17/17 18/18/18 19/19/19
f 17/17/17 19/19/19 20/20/20
f 21/21/21 22/22/22 23/23/23
f 21/21/21 23/23/23 24/24/24
