# Exported using automatic converter by Erwin Coumans
mtllib model6.mtl
#object mesh827414911

v -2.489903 -0.119750 1.057549
v -2.489523 -0.113967 1.049401
v -2.475692 -0.274642 0.936891
v -2.476073 -0.280426 0.945040
v -2.326155 -0.269531 0.947503
v -2.339986 -0.108855 1.060013
v -2.340366 -0.114639 1.068161
v -2.326536 -0.275314 0.955652
v -2.475692 -0.274642 0.936891
v -2.326155 -0.269531 0.947503
v -2.326536 -0.275314 0.955652
v -2.476073 -0.280426 0.945040
v -2.340366 -0.114639 1.068161
v -2.339986 -0.108855 1.060013
v -2.489523 -0.113967 1.049401
v -2.489903 -0.119750 1.057549
v -2.326536 -0.275314 0.955652
v -2.340366 -0.114639 1.068161
v -2.489903 -0.119750 1.057549
v -2.476073 -0.280426 0.945040
v -2.489523 -0.113967 1.049401
v -2.339986 -0.108855 1.060013
v -2.326155 -0.269531 0.947503
v -2.475692 -0.274642 0.936891
v -2.370486 -0.224068 0.907118
v -2.371794 -0.194104 0.907809
v -2.370155 -0.194724 0.937758
v -2.368848 -0.224687 0.937067
v -2.459935 -0.198752 0.942585
v -2.461574 -0.198132 0.912636
v -2.460267 -0.228096 0.911945
v -2.458628 -0.228715 0.941894
v -2.370155 -0.194724 0.937758
v -2.459935 -0.198752 0.942585
v -2.458628 -0.228715 0.941894
v -2.368848 -0.224687 0.937067
v -2.460267 -0.228096 0.911945
v -2.461574 -0.198132 0.912636
v -2.371794 -0.194104 0.907809
v -2.370486 -0.224068 0.907118
v -2.458628 -0.228715 0.941894
v -2.460267 -0.228096 0.911945
v -2.370486 -0.224068 0.907118
v -2.368848 -0.224687 0.937067
v -2.371794 -0.194104 0.907809
v -2.461574 -0.198132 0.912636
v -2.459935 -0.198752 0.942585
v -2.370155 -0.194724 0.937758
v -2.503702 -0.242592 1.024209
v -2.505009 -0.212628 1.024900
v -2.475083 -0.211286 1.023291
v -2.473775 -0.241249 1.022600
v -2.471260 -0.212731 1.093172
v -2.501187 -0.214073 1.094781
v -2.499880 -0.244037 1.094090
v -2.469953 -0.242694 1.092481
v -2.475083 -0.211286 1.023291
v -2.471260 -0.212731 1.093172
v -2.469953 -0.242694 1.092481
v -2.473775 -0.241249 1.022600
v -2.499880 -0.244037 1.094090
v -2.501187 -0.214073 1.094781
v -2.505009 -0.212628 1.024900
v -2.503702 -0.242592 1.024209
v -2.469953 -0.242694 1.092481
v -2.499880 -0.244037 1.094090
v -2.503702 -0.242592 1.024209
v -2.473775 -0.241249 1.022600
v -2.505009 -0.212628 1.024900
v -2.501187 -0.214073 1.094781
v -2.471260 -0.212731 1.093172
v -2.475083 -0.211286 1.023291
v -2.461204 -0.135652 1.144437
v -2.461160 -0.113614 1.149183
v -2.451357 -0.320493 1.074987
v -2.452681 -0.323894 1.084296
v -2.302828 -0.320967 1.095934
v -2.311350 -0.132725 1.156075
v -2.312674 -0.136127 1.165384
v -2.304152 -0.324369 1.105244
v -2.451357 -0.320493 1.074987
v -2.302828 -0.320967 1.095934
v -2.304152 -0.324369 1.105244
v -2.452681 -0.323894 1.084296
v -2.312674 -0.136127 1.165384
v -2.311350 -0.132725 1.156075
v -2.461160 -0.113614 1.149183
v -2.304152 -0.324369 1.105244
v -2.312674 -0.136127 1.165384
v -2.461204 -0.135652 1.144437
v -2.452681 -0.323894 1.084296
v -2.461160 -0.113614 1.149183
v -2.302828 -0.320967 1.095934
v -2.451357 -0.320493 1.074987
v -2.461160 -0.113614 1.149183
v -2.461204 -0.135652 1.144437
v -2.312674 -0.136127 1.165384
v -2.461160 -0.113614 1.149183
v -2.311350 -0.132725 1.156075
v -2.302828 -0.320967 1.095934
usemtl mat21

vn -0.996787 -0.035540 -0.071779
vn -0.996787 -0.035540 -0.071779
vn -0.996787 -0.035540 -0.071779
vn -0.996787 -0.035540 -0.071779
vn 0.996788 0.035555 0.071756
vn 0.996788 0.035555 0.071756
vn 0.996788 0.035555 0.071756
vn 0.996788 0.035555 0.071756
vn 0.068688 -0.815055 -0.575298
vn 0.068688 -0.815055 -0.575298
vn 0.068688 -0.815055 -0.575298
vn 0.068688 -0.815055 -0.575298
vn -0.068688 0.815055 0.575298
vn -0.068688 0.815055 0.575298
vn -0.068688 0.815055 0.575298
vn -0.068688 0.815055 0.575298
vn -0.038310 -0.575377 0.816990
vn -0.038310 -0.575377 0.816990
vn -0.038310 -0.575377 0.816990
vn -0.038310 -0.575377 0.816990
vn 0.038311 0.575377 -0.816991
vn 0.038311 0.575377 -0.816991
vn 0.038311 0.575377 -0.816991
vn 0.038311 0.575377 -0.816991
vn 0.997557 0.044756 -0.053639
vn 0.997557 0.044756 -0.053639
vn 0.997557 0.044756 -0.053639
vn 0.997557 0.044756 -0.053639
vn -0.997557 -0.044756 0.053639
vn -0.997557 -0.044756 0.053639
vn -0.997557 -0.044756 0.053639
vn -0.997557 -0.044756 0.053639
vn 0.054605 -0.020641 0.998295
vn 0.054605 -0.020641 0.998295
vn 0.054605 -0.020641 0.998295
vn 0.054605 -0.020641 0.998295
vn -0.054605 0.020641 -0.998295
vn -0.054605 0.020641 -0.998295
vn -0.054605 0.020641 -0.998295
vn -0.054605 0.020641 -0.998295
vn 0.043573 -0.998785 -0.023035
vn 0.043573 -0.998785 -0.023035
vn 0.043573 -0.998785 -0.023035
vn 0.043573 -0.998785 -0.023035
vn -0.043573 0.998785 0.023035
vn -0.043573 0.998785 0.023035
vn -0.043573 0.998785 0.023035
vn -0.043573 0.998785 0.023035
vn -0.054605 0.020641 -0.998295
vn -0.054605 0.020641 -0.998295
vn -0.054605 0.020641 -0.998295
vn -0.054605 0.020641 -0.998295
vn 0.054605 -0.020641 0.998295
vn 0.054605 -0.020641 0.998295
vn 0.054605 -0.020641 0.998295
vn 0.054605 -0.020641 0.998295
vn 0.997557 0.044756 -0.053639
vn 0.997557 0.044756 -0.053639
vn 0.997557 0.044756 -0.053639
vn 0.997557 0.044756 -0.053639
vn -0.997557 -0.044756 0.053639
vn -0.997557 -0.044756 0.053639
vn -0.997557 -0.044756 0.053639
vn -0.997557 -0.044756 0.053639
vn 0.043573 -0.998785 -0.023035
vn 0.043573 -0.998785 -0.023035
vn 0.043573 -0.998785 -0.023035
vn 0.043573 -0.998785 -0.023035
vn -0.043573 0.998785 0.023035
vn -0.043573 0.998785 0.023035
vn -0.043573 0.998785 0.023035
vn -0.043573 0.998785 0.023035
vn -0.990196 0.003163 -0.139650
vn -0.990196 0.003163 -0.139650
vn -0.990196 0.003163 -0.139650
vn -0.990196 0.003163 -0.139650
vn 0.990047 -0.000139 0.140737
vn 0.990047 -0.000139 0.140737
vn 0.990047 -0.000139 0.140737
vn 0.990047 -0.000139 0.140737
vn 0.044560 -0.940357 -0.337258
vn 0.044560 -0.940357 -0.337258
vn 0.044560 -0.940357 -0.337258
vn 0.044560 -0.940357 -0.337258
vn 0.102289 0.929562 0.354191
vn 0.102289 0.929562 0.354191
vn 0.102289 0.929562 0.354191
vn -0.133865 -0.307087 0.942220
vn -0.133865 -0.307087 0.942220
vn -0.133865 -0.307087 0.942220
vn -0.133865 -0.307087 0.942220
vn 0.132388 0.340174 -0.930997
vn 0.132388 0.340174 -0.930997
vn 0.132388 0.340174 -0.930997
vn -0.137240 -0.208309 0.968387
vn -0.137240 -0.208309 0.968387
vn -0.137240 -0.208309 0.968387
vn 0.082742 0.306685 -0.948208
vn 0.082742 0.306685 -0.948208
vn 0.082742 0.306685 -0.948208

vt -0.188803 -0.111400
vt -0.188595 -0.110422
vt -0.169377 -0.114586
vt -0.169585 -0.115564
vt 0.169350 -0.114584
vt 0.188568 -0.110419
vt 0.188776 -0.111397
vt 0.169558 -0.115562
vt -0.014997 -0.301866
vt -0.007044 -0.289148
vt -0.006196 -0.289678
vt -0.014149 -0.302396
vt 0.006276 -0.289669
vt 0.007124 -0.289139
vt 0.015077 -0.301857
vt 0.014229 -0.302387
vt 0.173315 -0.227445
vt 0.192801 -0.224807
vt 0.194840 -0.239668
vt 0.175354 -0.242306
vt -0.194844 -0.239667
vt -0.192805 -0.224806
vt -0.173319 -0.227444
vt -0.175358 -0.242305
vt 0.158644 -0.059677
vt 0.160360 -0.057216
vt 0.162821 -0.058933
vt 0.161104 -0.061393
vt -0.162821 -0.058933
vt -0.160360 -0.057216
vt -0.158644 -0.059677
vt -0.161104 -0.061393
vt 0.150235 -0.235468
vt 0.153795 -0.243734
vt 0.151040 -0.244921
vt 0.147480 -0.236655
vt -0.151040 -0.244921
vt -0.153795 -0.243734
vt -0.150235 -0.235468
vt -0.147480 -0.236655
vt 0.078248 -0.320783
vt 0.075375 -0.319919
vt 0.077965 -0.311300
vt 0.080838 -0.312164
vt -0.077965 -0.311300
vt -0.075375 -0.319919
vt -0.078248 -0.320783
vt -0.080838 -0.312164
vt -0.152100 -0.249908
vt -0.154855 -0.248721
vt -0.153668 -0.245966
vt -0.150913 -0.247153
vt 0.153668 -0.245966
vt 0.154855 -0.248721
vt 0.152100 -0.249908
vt 0.150913 -0.247153
vt 0.168810 -0.064330
vt 0.174551 -0.068335
vt 0.172834 -0.070795
vt 0.167093 -0.066790
vt -0.172834 -0.070795
vt -0.174551 -0.068335
vt -0.168810 -0.064330
vt -0.167093 -0.066790
vt 0.092038 -0.327015
vt 0.091174 -0.329888
vt 0.084471 -0.327873
vt 0.085334 -0.325000
vt -0.084471 -0.327873
vt -0.091174 -0.329888
vt -0.092038 -0.327015
vt -0.085334 -0.325000
vt -0.195329 -0.143796
vt -0.197207 -0.142551
vt -0.177378 -0.152081
vt -0.177812 -0.152982
vt 0.177458 -0.152449
vt 0.195011 -0.143330
vt 0.195441 -0.144233
vt 0.177888 -0.153352
vt 0.039430 -0.323497
vt 0.047834 -0.311072
vt 0.048662 -0.311633
vt 0.040258 -0.324057
vt -0.030816 -0.324137
vt -0.030004 -0.323553
vt -0.021751 -0.336219
vt 0.157591 -0.189557
vt 0.176290 -0.183107
vt 0.181226 -0.197271
vt 0.162528 -0.203721
vt -0.186324 -0.197957
vt -0.160764 -0.190493
vt -0.165402 -0.204758
vt 0.173266 -0.194322
vt 0.171209 -0.195243
vt 0.165464 -0.181387
vt -0.184829 -0.208590
vt -0.177955 -0.195125
vt -0.159194 -0.201391
s off
f 1/1/1 2/2/2 3/3/3
f 1/1/1 3/3/3 4/4/4
f 5/5/5 6/6/6 7/7/7
f 5/5/5 7/7/7 8/8/8
f 9/9/9 10/10/10 11/11/11
f 9/9/9 11/11/11 12/12/12
f 13/13/13 14/14/14 15/15/15
f 13/13/13 15/15/15 16/16/16
f 17/17/17 18/18/18 19/19/19
f 17/17/17 19/19/19 20/20/20
f 21/21/21 22/22/22 23/23/23
f 21/21/21 23/23/23 24/24/24
f 25/25/25 26/26/26 27/27/27
f 25/25/25 27/27/27 28/28/28
f 29/29/29 30/30/30 31/31/31
f 29/29/29 31/31/31 32/32/32
f 33/33/33 34/34/34 35/35/35
f 33/33/33 35/35/35 36/36/36
f 37/37/37 38/38/38 39/39/39
f 37/37/37 39/39/39 40/40/40
f 41/41/41 42/42/42 43/43/43
f 41/41/41 43/43/43 44/44/44
f 45/45/45 46/46/46 47/47/47
f 45/45/45 47/47/47 48/48/48
f 49/49/49 50/50/50 51/51/51
f 49/49/49 51/51/51 52/52/52
f 53/53/53 54/54/54 55/55/55
f 53/53/53 55/55/55 56/56/56
f 57/57/57 58/58/58 59/59/59
f 57/57/57 59/59/59 60/60/60
f 61/61/61 62/62/62 63/63/63
f 61/61/61 63/63/63 64/64/64
f 65/65/65 66/66/66 67/67/67
f 65/65/65 67/67/67 68/68/68
f 69/69/69 70/70/70 71/71/71
f 69/69/69 71/71/71 72/72/72
f 73/73/73 74/74/74 75/75/75
f 73/73/73 75/75/75 76/76/76
f 77/77/77 78/78/78 79/79/79
f 77/77/77 79/79/79 80/80/80
f 81/81/81 82/82/82 83/83/83
f 81/81/81 83/83/83 84/84/84
f 85/85/85 86/86/86 87/87/87
f 88/88/88 89/89/89 90/90/90
f 88/88/88 90/90/90 91/91/91
f 92/92/92 93/93/93 94/94/94
f 95/95/95 96/96/96 97/97/97
f 98/98/98 99/99/99 100/100/100
