# Exported using automatic converter by Erwin Coumans
mtllib model6.mtl
#object mesh1491571887

v 0.678238 0.490999 0.559852
v -0.161762 0.490999 0.559852
v -0.161762 0.450999 0.559852
v 0.678238 0.450999 0.559852
v -0.161762 0.450999 0.249851
v -0.161762 0.490999 0.249851
v 0.678238 0.490999 0.249852
v 0.678238 0.450999 0.249852
v -0.161762 0.450999 0.559852
v -0.161762 0.450999 0.249851
v 0.678238 0.450999 0.249852
v 0.678238 0.450999 0.559852
v 0.678238 0.490999 0.249852
v -0.161762 0.490999 0.249851
v -0.161762 0.490999 0.559852
v 0.678238 0.490999 0.559852
v 0.678238 0.450999 0.249852
v 0.678238 0.490999 0.249852
v 0.678238 0.490999 0.559852
v 0.678238 0.450999 0.559852
v -0.161762 0.490999 0.559852
v -0.161762 0.490999 0.249851
v -0.161762 0.450999 0.249851
v -0.161762 0.450999 0.559852
usemtl mat22

vn -0.000000 -0.000000 1.000000
vn -0.000000 -0.000000 1.000000
vn -0.000000 -0.000000 1.000000
vn -0.000000 -0.000000 1.000000
vn 0.000000 0.000000 -1.000000
vn 0.000000 0.000000 -1.000000
vn 0.000000 0.000000 -1.000000
vn 0.000000 0.000000 -1.000000
vn 0.000000 -1.000000 -0.000000
vn 0.000000 -1.000000 -0.000000
vn 0.000000 -1.000000 -0.000000
vn 0.000000 -1.000000 -0.000000
vn -0.000000 1.000000 0.000000
vn -0.000000 1.000000 0.000000
vn -0.000000 1.000000 0.000000
vn -0.000000 1.000000 0.000000
vn 1.000000 0.000000 0.000000
vn 1.000000 0.000000 0.000000
vn 1.000000 0.000000 0.000000
vn 1.000000 0.000000 0.000000
vn -1.000000 -0.000000 -0.000000
vn -1.000000 -0.000000 -0.000000
vn -1.000000 -0.000000 -0.000000
vn -1.000000 -0.000000 -0.000000

vt 0.070705 0.076720
vt 0.108271 0.001588
vt 0.104694 -0.000201
vt 0.067128 0.074931
vt -0.104694 -0.000201
vt -0.108271 0.001588
vt -0.070705 0.076720
vt -0.067128 0.074931
vt 0.120745 -0.093031
vt 0.091551 -0.082604
vt 0.119803 -0.003498
vt 0.148997 -0.013924
vt -0.119803 -0.003498
vt -0.091551 -0.082604
vt -0.120745 -0.093031
vt -0.148997 -0.013924
vt 0.147141 0.009864
vt 0.149466 0.013119
vt 0.174692 -0.004899
vt 0.172367 -0.008154
vt -0.174692 -0.004899
vt -0.149466 0.013119
vt -0.147141 0.009864
vt -0.172367 -0.008154
s off
f 1/1/1 2/2/2 3/3/3
f 1/1/1 3/3/3 4/4/4
f 5/5/5 6/6/6 7/7/7
f 5/5/5 7/7/7 8/8/8
f 9/9/9 10/10/10 11/11/11
f 9/9/9 11/11/11 12/12/12
f 13/13/13 14/14/14 15/15/15
f 13/13/13 15/15/15 16/16/16
f 17/17/17 18/18/18 19/19/19
f 17/17/17 19/19/19 20/20/20
f 21/21/21 22/22/22 23/23/23
f 21/21/21 23/23/23 24/24/24
