# Exported using automatic converter by Erwin Coumans
mtllib model6.mtl
#object mesh477433236

v 0.421308 -0.991806 -1.420825
v 0.420623 -0.998822 -1.421380
v 0.408718 -1.002831 -1.425820
v 0.409464 -0.995822 -1.425252
v 0.420623 -0.998822 -1.421380
v 0.419174 -0.999227 -1.414471
v 0.407302 -1.003240 -1.418904
v 0.408718 -1.002831 -1.425820
v 0.419174 -0.999227 -1.414471
v 0.419859 -0.992211 -1.413916
v 0.408049 -0.996232 -1.418336
v 0.407302 -1.003240 -1.418904
v 0.419859 -0.992211 -1.413916
v 0.421308 -0.991806 -1.420825
v 0.409464 -0.995822 -1.425252
v 0.408049 -0.996232 -1.418336
v 0.423624 -0.994345 -1.409769
v 0.423007 -1.001368 -1.410311
v 0.424505 -1.000968 -1.417210
v 0.425122 -0.993945 -1.416668
v 0.409464 -0.995822 -1.425252
v 0.408718 -1.002831 -1.425820
v 0.407302 -1.003240 -1.418904
v 0.408049 -0.996232 -1.418336
v 0.425122 -0.993945 -1.416668
v 0.424505 -1.000968 -1.417210
v 0.420623 -0.998822 -1.421380
v 0.421308 -0.991806 -1.420825
v 0.424505 -1.000968 -1.417210
v 0.423007 -1.001368 -1.410311
v 0.419174 -0.999227 -1.414471
v 0.420623 -0.998822 -1.421380
v 0.423007 -1.001368 -1.410311
v 0.423624 -0.994345 -1.409769
v 0.419859 -0.992211 -1.413916
v 0.419174 -0.999227 -1.414471
v 0.423624 -0.994345 -1.409769
v 0.425122 -0.993945 -1.416668
v 0.421308 -0.991806 -1.420825
v 0.419859 -0.992211 -1.413916
usemtl mat13

vn 0.337307 0.040849 -0.940508
vn 0.337307 0.040849 -0.940508
vn 0.337307 0.040849 -0.940508
vn 0.337307 0.040849 -0.940508
vn 0.316435 -0.948565 0.009695
vn 0.316435 -0.948565 0.009695
vn 0.316435 -0.948565 0.009695
vn 0.316435 -0.948565 0.009695
vn -0.337676 -0.040801 0.940378
vn -0.337676 -0.040801 0.940378
vn -0.337676 -0.040801 0.940378
vn -0.337676 -0.040801 0.940378
vn -0.318307 0.947934 -0.010120
vn -0.318307 0.947934 -0.010120
vn -0.318307 0.947934 -0.010120
vn -0.318307 0.947934 -0.010120
vn 0.973380 -0.101460 0.205516
vn 0.973380 -0.101460 0.205516
vn 0.973380 -0.101460 0.205516
vn 0.973380 -0.101460 0.205516
vn -0.974042 0.119374 -0.192334
vn -0.974042 0.119374 -0.192334
vn -0.974042 0.119374 -0.192334
vn -0.974042 0.119374 -0.192334
vn 0.730580 -0.014486 -0.682674
vn 0.730580 -0.014486 -0.682674
vn 0.730580 -0.014486 -0.682674
vn 0.730580 -0.014486 -0.682674
vn -0.368505 -0.920164 -0.132296
vn -0.368505 -0.920164 -0.132296
vn -0.368505 -0.920164 -0.132296
vn -0.368505 -0.920164 -0.132296
vn -0.733946 0.015082 0.679041
vn -0.733946 0.015082 0.679041
vn -0.733946 0.015082 0.679041
vn -0.733946 0.015082 0.679041
vn 0.372127 0.918607 0.132978
vn 0.372127 0.918607 0.132978
vn 0.372127 0.918607 0.132978
vn 0.372127 0.918607 0.132978

vt 0.042216 -0.032670
vt 0.042783 -0.033093
vt 0.042498 -0.034394
vt 0.041934 -0.033967
vt -0.052775 0.011058
vt -0.052163 0.010704
vt -0.052969 0.009646
vt -0.053582 0.009998
vt -0.042824 -0.033038
vt -0.042257 -0.032616
vt -0.041977 -0.033909
vt -0.042540 -0.034337
vt 0.052070 0.010861
vt 0.052682 0.011216
vt 0.053486 0.010160
vt 0.052872 0.009809
vt -0.073482 -0.000318
vt -0.073996 -0.000803
vt -0.074482 -0.000290
vt -0.073968 0.000196
vt 0.074472 -0.001387
vt 0.074975 -0.001884
vt 0.074477 -0.002387
vt 0.073975 -0.001889
vt 0.008331 -0.058221
vt 0.008713 -0.058816
vt 0.008137 -0.059011
vt 0.007759 -0.058414
vt -0.023484 0.050078
vt -0.022960 0.049603
vt -0.023546 0.049457
vt -0.024074 0.049928
vt -0.008506 -0.058771
vt -0.008127 -0.058174
vt -0.007558 -0.058361
vt -0.007931 -0.058961
vt 0.022846 0.049652
vt 0.023370 0.050127
vt 0.023956 0.049984
vt 0.023429 0.049511
s off
f 1/1/1 2/2/2 3/3/3
f 1/1/1 3/3/3 4/4/4
f 5/5/5 6/6/6 7/7/7
f 5/5/5 7/7/7 8/8/8
f 9/9/9 10/10/10 11/11/11
f 9/9/9 11/11/11 12/12/12
f 13/13/13 14/14/14 15/15/15
f 13/13/13 15/15/15 16/16/16
f 17/17/17 18/18/18 19/19/19
f 17/17/17 19/19/19 20/20/20
f 21/21/21 22/22/22 23/23/23
f 21/21/21 23/23/23 24/24/24
f 25/25/25 26/26/26 27/27/27
f 25/25/25 27/27/27 28/28/28
f 29/29/29 30/30/30 31/31/31
f 29/29/29 31/31/31 32/32/32
f 33/33/33 34/34/34 35/35/35
f 33/33/33 35/35/35 36/36/36
f 37/37/37 38/38/38 39/39/39
f 37/37/37 39/39/39 40/40/40
