# Exported using automatic converter by Erwin Coumans
mtllib botlab.mtl
#object mesh738198293

v 2.238238 2.035489 -0.610148
v 2.238238 2.035489 -0.500148
v 2.238238 1.995489 -0.500148
v 2.238238 1.995489 -0.610148
v 2.208238 1.995489 -0.500148
v 2.208238 2.035489 -0.500148
v 2.208238 2.035489 -0.610148
v 2.208238 1.995489 -0.610148
v 2.238238 1.995489 -0.500148
v 2.208238 1.995489 -0.500148
v 2.208238 1.995489 -0.610148
v 2.238238 1.995489 -0.610148
v 2.208238 2.035489 -0.610148
v 2.208238 2.035489 -0.500148
v 2.238238 2.035489 -0.500148
v 2.238238 2.035489 -0.610148
v 2.208238 1.995489 -0.610148
v 2.208238 2.035489 -0.610148
v 2.238238 2.035489 -0.610148
v 2.238238 1.995489 -0.610148
v 2.238238 2.035489 -0.500148
v 2.208238 2.035489 -0.500148
v 2.208238 1.995489 -0.500148
v 2.238238 1.995489 -0.500148
usemtl mat23

vn 1.000000 0.000000 0.000000
vn 1.000000 0.000000 0.000000
vn 1.000000 0.000000 0.000000
vn 1.000000 0.000000 0.000000
vn -1.000000 0.000000 -0.000000
vn -1.000000 0.000000 -0.000000
vn -1.000000 0.000000 -0.000000
vn -1.000000 0.000000 -0.000000
vn 0.000000 -1.000000 -0.000000
vn 0.000000 -1.000000 -0.000000
vn 0.000000 -1.000000 -0.000000
vn 0.000000 -1.000000 -0.000000
vn -0.000000 1.000000 0.000000
vn -0.000000 1.000000 0.000000
vn -0.000000 1.000000 0.000000
vn -0.000000 1.000000 0.000000
vn 0.000000 0.000000 -1.000000
vn 0.000000 0.000000 -1.000000
vn 0.000000 0.000000 -1.000000
vn 0.000000 0.000000 -1.000000
vn -0.000000 -0.000000 1.000000
vn -0.000000 -0.000000 1.000000
vn -0.000000 -0.000000 1.000000
vn -0.000000 -0.000000 1.000000

vt 0.169257 0.188786
vt 0.178208 0.182392
vt 0.175883 0.179138
vt 0.166932 0.185531
vt -0.175883 0.179138
vt -0.178208 0.182392
vt -0.169257 0.188786
vt -0.166932 0.185531
vt 0.101641 0.168639
vt 0.100632 0.165814
vt 0.090273 0.169514
vt 0.091282 0.172339
vt -0.090273 0.169514
vt -0.100632 0.165814
vt -0.101641 0.168639
vt -0.091282 0.172339
vt -0.136847 0.280850
vt -0.140425 0.282639
vt -0.139083 0.285322
vt -0.135506 0.283533
vt 0.139083 0.285322
vt 0.140425 0.282639
vt 0.136847 0.280850
vt 0.135506 0.283533
s off
f 1/1/1 2/2/2 3/3/3
f 1/1/1 3/3/3 4/4/4
f 5/5/5 6/6/6 7/7/7
f 5/5/5 7/7/7 8/8/8
f 9/9/9 10/10/10 11/11/11
f 9/9/9 11/11/11 12/12/12
f 13/13/13 14/14/14 15/15/15
f 13/13/13 15/15/15 16/16/16
f 17/17/17 18/18/18 19/19/19
f 17/17/17 19/19/19 20/20/20
f 21/21/21 22/22/22 23/23/23
f 21/21/21 23/23/23 24/24/24
