# Exported using automatic converter by Erwin Coumans
mtllib model6.mtl
#object group340975897_2

v 3.014778 -0.913499 -0.574968
v 3.042381 -0.913922 -0.538026
v 3.041789 -0.952100 -0.538021
v 3.014186 -0.951677 -0.574963
v 3.013397 -1.002580 -0.574956
v 3.041000 -1.003003 -0.538015
v 3.046436 -1.003081 -0.492220
v 3.028250 -1.002793 -0.449841
v 2.991313 -1.002217 -0.422235
v 2.945523 -1.001507 -0.416798
v 2.903150 -1.000853 -0.434987
v 2.875547 -1.000430 -0.471928
v 2.870111 -1.000351 -0.517723
v 2.888297 -1.000639 -0.560102
v 2.925234 -1.001215 -0.587708
v 2.971024 -1.001925 -0.593145
v 3.042381 -0.913922 -0.538026
v 3.047817 -0.914001 -0.492231
v 3.047225 -0.952178 -0.492226
v 3.041789 -0.952100 -0.538021
v 3.029631 -0.913713 -0.449853
v 2.992694 -0.913137 -0.422247
v 2.992102 -0.951314 -0.422242
v 3.029039 -0.951891 -0.449848
v 2.992694 -0.913137 -0.422247
v 2.946904 -0.912427 -0.416809
v 2.946312 -0.950604 -0.416804
v 2.992102 -0.951314 -0.422242
v 2.946904 -0.912427 -0.416809
v 2.904531 -0.911772 -0.434999
v 2.903939 -0.949950 -0.434994
v 2.946312 -0.950604 -0.416804
v 2.904531 -0.911772 -0.434999
v 2.876928 -0.911349 -0.471940
v 2.876336 -0.949527 -0.471935
v 2.903939 -0.949950 -0.434994
v 2.876928 -0.911349 -0.471940
v 2.871491 -0.911271 -0.517735
v 2.870899 -0.949449 -0.517730
v 2.876336 -0.949527 -0.471935
v 2.871491 -0.911271 -0.517735
v 2.889678 -0.911559 -0.560113
v 2.889086 -0.949736 -0.560108
v 2.870899 -0.949449 -0.517730
v 2.889678 -0.911559 -0.560113
v 2.926615 -0.912135 -0.587719
v 2.926023 -0.950312 -0.587714
v 2.889086 -0.949736 -0.560108
v 2.926615 -0.912135 -0.587719
v 2.972404 -0.912845 -0.593157
v 2.971812 -0.951023 -0.593152
v 2.926023 -0.950312 -0.587714
v 2.972404 -0.912845 -0.593157
v 3.014778 -0.913499 -0.574968
v 3.014186 -0.951677 -0.574963
v 2.971812 -0.951023 -0.593152
v 3.017737 -0.722613 -0.574992
v 3.045340 -0.723036 -0.538051
v 3.044945 -0.748488 -0.538047
v 3.017343 -0.748065 -0.574989
v 3.045340 -0.723036 -0.538051
v 3.050777 -0.723115 -0.492256
v 3.050382 -0.748566 -0.492252
v 3.044945 -0.748488 -0.538047
v 3.032590 -0.722827 -0.449878
v 2.995653 -0.722251 -0.422271
v 2.995259 -0.747702 -0.422268
v 3.032195 -0.748279 -0.449874
v 2.995653 -0.722251 -0.422271
v 2.949863 -0.721541 -0.416834
v 2.949469 -0.746992 -0.416831
v 2.995259 -0.747702 -0.422268
v 2.949863 -0.721541 -0.416834
v 2.907490 -0.720886 -0.435023
v 2.907095 -0.746338 -0.435020
v 2.949469 -0.746992 -0.416831
v 2.907490 -0.720886 -0.435023
v 2.879888 -0.720463 -0.471964
v 2.879493 -0.745915 -0.471961
v 2.907095 -0.746338 -0.435020
v 2.879888 -0.720463 -0.471964
v 2.874451 -0.720385 -0.517759
v 2.874056 -0.745837 -0.517756
v 2.879493 -0.745915 -0.471961
v 2.874451 -0.720385 -0.517759
v 2.892638 -0.720672 -0.560138
v 2.892243 -0.746124 -0.560134
v 2.874056 -0.745837 -0.517756
v 2.892638 -0.720672 -0.560138
v 2.929574 -0.721249 -0.587744
v 2.929179 -0.746700 -0.587741
v 2.892243 -0.746124 -0.560134
v 2.929574 -0.721249 -0.587744
v 2.975364 -0.721959 -0.593181
v 2.974969 -0.747410 -0.593178
v 2.929179 -0.746700 -0.587741
v 2.975364 -0.721959 -0.593181
v 3.017737 -0.722613 -0.574992
v 3.017343 -0.748065 -0.574989
v 2.974969 -0.747410 -0.593178
v 2.975364 -0.721959 -0.593181
v 2.929574 -0.721249 -0.587744
v 2.892638 -0.720672 -0.560138
v 2.874451 -0.720385 -0.517759
v 2.879888 -0.720463 -0.471964
v 2.907490 -0.720886 -0.435023
v 2.949863 -0.721541 -0.416834
v 2.995653 -0.722251 -0.422271
v 3.032590 -0.722827 -0.449878
v 3.050777 -0.723115 -0.492256
v 3.045340 -0.723036 -0.538051
v 3.017737 -0.722613 -0.574992
usemtl mat23

vn 0.800940 -0.012500 -0.598615
vn 0.800940 -0.012500 -0.598615
vn 0.800940 -0.012500 -0.598615
vn 0.800940 -0.012500 -0.598615
vn -0.015497 -0.999880 0.000132
vn -0.015497 -0.999880 0.000132
vn -0.015497 -0.999880 0.000132
vn -0.015497 -0.999880 0.000132
vn -0.015497 -0.999880 0.000132
vn -0.015497 -0.999880 0.000132
vn -0.015497 -0.999880 0.000132
vn -0.015497 -0.999880 0.000132
vn -0.015497 -0.999880 0.000132
vn -0.015497 -0.999880 0.000132
vn -0.015497 -0.999880 0.000132
vn -0.015497 -0.999880 0.000132
vn 0.992906 -0.015416 -0.117901
vn 0.992906 -0.015416 -0.117901
vn 0.992906 -0.015416 -0.117901
vn 0.992906 -0.015416 -0.117901
vn 0.598545 -0.009177 0.801036
vn 0.598545 -0.009177 0.801036
vn 0.598545 -0.009177 0.801036
vn 0.598545 -0.009177 0.801036
vn 0.117893 -0.001698 0.993025
vn 0.117893 -0.001698 0.993025
vn 0.117893 -0.001698 0.993025
vn 0.117893 -0.001698 0.993025
vn -0.394365 0.006235 0.918932
vn -0.394365 0.006235 0.918932
vn -0.394365 0.006235 0.918932
vn -0.394365 0.006235 0.918932
vn -0.800941 0.012497 0.598613
vn -0.800941 0.012497 0.598613
vn -0.800941 0.012497 0.598613
vn -0.800941 0.012497 0.598613
vn -0.992906 0.015412 0.117901
vn -0.992906 0.015412 0.117901
vn -0.992906 0.015412 0.117901
vn -0.992906 0.015412 0.117901
vn -0.918823 0.014196 -0.394414
vn -0.918823 0.014196 -0.394414
vn -0.918823 0.014196 -0.394414
vn -0.918823 0.014196 -0.394414
vn -0.598547 0.009177 -0.801035
vn -0.598547 0.009177 -0.801035
vn -0.598547 0.009177 -0.801035
vn -0.598547 0.009177 -0.801035
vn -0.117892 0.001698 -0.993025
vn -0.117892 0.001698 -0.993025
vn -0.117892 0.001698 -0.993025
vn -0.117892 0.001698 -0.993025
vn 0.394366 -0.006235 -0.918932
vn 0.394366 -0.006235 -0.918932
vn 0.394366 -0.006235 -0.918932
vn 0.394366 -0.006235 -0.918932
vn 0.800942 -0.012503 -0.598611
vn 0.800942 -0.012503 -0.598611
vn 0.800942 -0.012503 -0.598611
vn 0.800942 -0.012503 -0.598611
vn 0.992906 -0.015416 -0.117901
vn 0.992906 -0.015416 -0.117901
vn 0.992906 -0.015416 -0.117901
vn 0.992906 -0.015416 -0.117901
vn 0.598549 -0.009180 0.801034
vn 0.598549 -0.009180 0.801034
vn 0.598549 -0.009180 0.801034
vn 0.598549 -0.009180 0.801034
vn 0.117891 -0.001699 0.993025
vn 0.117891 -0.001699 0.993025
vn 0.117891 -0.001699 0.993025
vn 0.117891 -0.001699 0.993025
vn -0.394365 0.006236 0.918933
vn -0.394365 0.006236 0.918933
vn -0.394365 0.006236 0.918933
vn -0.394365 0.006236 0.918933
vn -0.800946 0.012501 0.598606
vn -0.800946 0.012501 0.598606
vn -0.800946 0.012501 0.598606
vn -0.800946 0.012501 0.598606
vn -0.992906 0.015416 0.117901
vn -0.992906 0.015416 0.117901
vn -0.992906 0.015416 0.117901
vn -0.992906 0.015416 0.117901
vn -0.918823 0.014200 -0.394414
vn -0.918823 0.014200 -0.394414
vn -0.918823 0.014200 -0.394414
vn -0.918823 0.014200 -0.394414
vn -0.598553 0.009179 -0.801031
vn -0.598553 0.009179 -0.801031
vn -0.598553 0.009179 -0.801031
vn -0.598553 0.009179 -0.801031
vn -0.117889 0.001699 -0.993025
vn -0.117889 0.001699 -0.993025
vn -0.117889 0.001699 -0.993025
vn -0.117889 0.001699 -0.993025
vn 0.394367 -0.006237 -0.918932
vn 0.394367 -0.006237 -0.918932
vn 0.394367 -0.006237 -0.918932
vn 0.394367 -0.006237 -0.918932
vn 0.015497 0.999880 -0.000132
vn 0.015497 0.999880 -0.000132
vn 0.015497 0.999880 -0.000132
vn 0.015497 0.999880 -0.000132
vn 0.015497 0.999880 -0.000132
vn 0.015497 0.999880 -0.000132
vn 0.015497 0.999880 -0.000132
vn 0.015497 0.999880 -0.000132
vn 0.015497 0.999880 -0.000132
vn 0.015497 0.999880 -0.000132
vn 0.015497 0.999880 -0.000132
vn 0.015497 0.999880 -0.000132

vt 0.180939 0.062986
vt 0.184899 0.065350
vt 0.186856 0.062072
vt 0.182897 0.059708
vt 0.121520 0.244586
vt 0.125931 0.245932
vt 0.130424 0.244893
vt 0.133795 0.241747
vt 0.135142 0.237336
vt 0.134102 0.232843
vt 0.130956 0.229471
vt 0.126545 0.228125
vt 0.122052 0.229164
vt 0.118681 0.232311
vt 0.117334 0.236721
vt 0.118373 0.241214
vt 0.044894 -0.063307
vt 0.049082 -0.065238
vt 0.047484 -0.068705
vt 0.043296 -0.066775
vt -0.121915 0.153476
vt -0.119816 0.149370
vt -0.123215 0.147632
vt -0.125314 0.151738
vt -0.151954 0.216533
vt -0.149886 0.212411
vt -0.153299 0.210699
vt -0.155367 0.214821
vt -0.177658 0.196047
vt -0.175095 0.192214
vt -0.178269 0.190091
vt -0.180832 0.193925
vt -0.184899 0.065349
vt -0.180939 0.062985
vt -0.182897 0.059707
vt -0.186856 0.062071
vt -0.049081 -0.065239
vt -0.044893 -0.063308
vt -0.043295 -0.066776
vt -0.047483 -0.068706
vt 0.070558 0.032026
vt 0.073244 0.035775
vt 0.076348 0.033551
vt 0.073662 0.029802
vt 0.119816 0.149369
vt 0.121914 0.153476
vt 0.125314 0.151738
vt 0.123215 0.147632
vt 0.149886 0.212411
vt 0.151955 0.216533
vt 0.155367 0.214821
vt 0.153299 0.210699
vt 0.175095 0.192213
vt 0.177658 0.196047
vt 0.180832 0.193925
vt 0.178269 0.190091
vt 0.171150 0.079374
vt 0.175109 0.081739
vt 0.176415 0.079554
vt 0.172455 0.077189
vt 0.052886 -0.045969
vt 0.057074 -0.047900
vt 0.056008 -0.050212
vt 0.051820 -0.048281
vt -0.104915 0.162165
vt -0.102816 0.158058
vt -0.105082 0.156900
vt -0.107181 0.161006
vt -0.134891 0.225095
vt -0.132823 0.220974
vt -0.135098 0.219832
vt -0.137166 0.223954
vt -0.161789 0.206659
vt -0.159225 0.202826
vt -0.161341 0.201411
vt -0.163905 0.205244
vt -0.175109 0.081737
vt -0.171150 0.079372
vt -0.172455 0.077187
vt -0.176415 0.079552
vt -0.057074 -0.047900
vt -0.052886 -0.045970
vt -0.051820 -0.048281
vt -0.056008 -0.050212
vt 0.055039 0.043146
vt 0.057725 0.046895
vt 0.059794 0.045412
vt 0.057108 0.041663
vt 0.102816 0.158057
vt 0.104915 0.162164
vt 0.107181 0.161005
vt 0.105082 0.156899
vt 0.132823 0.220974
vt 0.134891 0.225096
vt 0.137166 0.223954
vt 0.135098 0.219832
vt 0.159225 0.202826
vt 0.161789 0.206659
vt 0.163905 0.205244
vt 0.161341 0.201411
vt -0.118373 0.241214
vt -0.117334 0.236721
vt -0.118681 0.232311
vt -0.122052 0.229164
vt -0.126545 0.228125
vt -0.130956 0.229471
vt -0.134103 0.232843
vt -0.135142 0.237336
vt -0.133795 0.241747
vt -0.130424 0.244893
vt -0.125931 0.245932
vt -0.121520 0.244586
s off
f 1/1/1 2/2/2 3/3/3
f 1/1/1 3/3/3 4/4/4
f 5/5/5 6/6/6 7/7/7
f 5/5/5 7/7/7 8/8/8
f 5/5/5 8/8/8 9/9/9
f 5/5/5 9/9/9 10/10/10
f 5/5/5 10/10/10 11/11/11
f 5/5/5 11/11/11 12/12/12
f 5/5/5 12/12/12 13/13/13
f 5/5/5 13/13/13 14/14/14
f 5/5/5 14/14/14 15/15/15
f 5/5/5 15/15/15 16/16/16
f 17/17/17 18/18/18 19/19/19
f 17/17/17 19/19/19 20/20/20
f 21/21/21 22/22/22 23/23/23
f 21/21/21 23/23/23 24/24/24
f 25/25/25 26/26/26 27/27/27
f 25/25/25 27/27/27 28/28/28
f 29/29/29 30/30/30 31/31/31
f 29/29/29 31/31/31 32/32/32
f 33/33/33 34/34/34 35/35/35
f 33/33/33 35/35/35 36/36/36
f 37/37/37 38/38/38 39/39/39
f 37/37/37 39/39/39 40/40/40
f 41/41/41 42/42/42 43/43/43
f 41/41/41 43/43/43 44/44/44
f 45/45/45 46/46/46 47/47/47
f 45/45/45 47/47/47 48/48/48
f 49/49/49 50/50/50 51/51/51
f 49/49/49 51/51/51 52/52/52
f 53/53/53 54/54/54 55/55/55
f 53/53/53 55/55/55 56/56/56
f 57/57/57 58/58/58 59/59/59
f 57/57/57 59/59/59 60/60/60
f 61/61/61 62/62/62 63/63/63
f 61/61/61 63/63/63 64/64/64
f 65/65/65 66/66/66 67/67/67
f 65/65/65 67/67/67 68/68/68
f 69/69/69 70/70/70 71/71/71
f 69/69/69 71/71/71 72/72/72
f 73/73/73 74/74/74 75/75/75
f 73/73/73 75/75/75 76/76/76
f 77/77/77 78/78/78 79/79/79
f 77/77/77 79/79/79 80/80/80
f 81/81/81 82/82/82 83/83/83
f 81/81/81 83/83/83 84/84/84
f 85/85/85 86/86/86 87/87/87
f 85/85/85 87/87/87 88/88/88
f 89/89/89 90/90/90 91/91/91
f 89/89/89 91/91/91 92/92/92
f 93/93/93 94/94/94 95/95/95
f 93/93/93 95/95/95 96/96/96
f 97/97/97 98/98/98 99/99/99
f 97/97/97 99/99/99 100/100/100
f 101/101/101 102/102/102 103/103/103
f 101/101/101 103/103/103 104/104/104
f 101/101/101 104/104/104 105/105/105
f 101/101/101 105/105/105 106/106/106
f 101/101/101 106/106/106 107/107/107
f 101/101/101 107/107/107 108/108/108
f 101/101/101 108/108/108 109/109/109
f 101/101/101 109/109/109 110/110/110
f 101/101/101 110/110/110 111/111/111
f 101/101/101 111/111/111 112/112/112
