# Exported using automatic converter by Erwin Coumans
mtllib model6.mtl
#object mesh850715002

v -2.013771 -0.990707 1.918976
v -2.024650 -0.986860 1.823922
v -2.022109 -1.056549 1.817835
v -2.011229 -1.060395 1.912890
v -1.933154 -1.060331 1.898289
v -1.935696 -0.990642 1.904375
v -1.924816 -0.994489 1.999430
v -1.922275 -1.064177 1.993344
v -2.022109 -1.056549 1.817835
v -1.933154 -1.060331 1.898289
v -1.922275 -1.064177 1.993344
v -2.011229 -1.060395 1.912890
v -1.924816 -0.994489 1.999430
v -1.935696 -0.990642 1.904375
v -2.024650 -0.986860 1.823922
v -2.013771 -0.990707 1.918976
v -1.922275 -1.064177 1.993344
v -1.924816 -0.994489 1.999430
v -2.013771 -0.990707 1.918976
v -2.011229 -1.060395 1.912890
v -2.024650 -0.986860 1.823922
v -1.935696 -0.990642 1.904375
v -1.933154 -1.060331 1.898289
v -2.022109 -1.056549 1.817835
v -2.028091 -0.981179 1.550550
v -2.031240 -0.987116 1.505792
v -2.032725 -1.056862 1.500023
v -2.029575 -1.050925 1.544781
v -1.952029 -1.055255 1.528149
v -1.950544 -0.985509 1.533918
v -1.937394 -0.989572 1.628676
v -1.938879 -1.059318 1.622907
v -1.952029 -1.055255 1.528149
v -1.938879 -1.059318 1.622907
v -2.029575 -1.050925 1.544781
v -1.937394 -0.989572 1.628676
v -1.950544 -0.985509 1.533918
v -2.028091 -0.981179 1.550550
v -1.938879 -1.059318 1.622907
v -1.937394 -0.989572 1.628676
v -2.028091 -0.981179 1.550550
v -2.029575 -1.050925 1.544781
v -2.031240 -0.987116 1.505792
v -1.950544 -0.985509 1.533918
v -1.952029 -1.055255 1.528149
v -2.032725 -1.056862 1.500023
v -1.950544 -0.985509 1.533918
v -2.031240 -0.987116 1.505792
v -2.028091 -0.981179 1.550550
v -2.029575 -1.050925 1.544781
v -2.032725 -1.056862 1.500023
v -1.952029 -1.055255 1.528149
v -2.021458 -0.984930 1.736551
v -2.030908 -0.982463 1.641298
v -2.029467 -1.052275 1.636379
v -2.020017 -1.054742 1.731632
v -1.941751 -1.056229 1.718173
v -1.943192 -0.986417 1.723093
v -1.933743 -0.988883 1.818346
v -1.932302 -1.058695 1.813427
v -2.029467 -1.052275 1.636379
v -1.941751 -1.056229 1.718173
v -1.932302 -1.058695 1.813427
v -2.020017 -1.054742 1.731632
v -1.933743 -0.988883 1.818346
v -1.943192 -0.986417 1.723093
v -2.030908 -0.982463 1.641298
v -2.021458 -0.984930 1.736551
v -1.932302 -1.058695 1.813427
v -1.933743 -0.988883 1.818346
v -2.021458 -0.984930 1.736551
v -2.020017 -1.054742 1.731632
v -2.030908 -0.982463 1.641298
v -1.943192 -0.986417 1.723093
v -1.941751 -1.056229 1.718173
v -2.029467 -1.052275 1.636379
v -2.006910 -0.989087 2.103309
v -2.013976 -0.987598 2.007829
v -2.008144 -1.057210 2.003349
v -2.001079 -1.058700 2.098829
v -1.922540 -1.055449 2.087425
v -1.928372 -0.985837 2.091905
v -1.921306 -0.987326 2.187385
v -1.915474 -1.056939 2.182905
v -2.008144 -1.057210 2.003349
v -1.922540 -1.055449 2.087425
v -1.915474 -1.056939 2.182905
v -2.001079 -1.058700 2.098829
v -1.921306 -0.987326 2.187385
v -1.928372 -0.985837 2.091905
v -2.013976 -0.987598 2.007829
v -2.006910 -0.989087 2.103309
v -1.915474 -1.056939 2.182905
v -1.921306 -0.987326 2.187385
v -2.006910 -0.989087 2.103309
v -2.001079 -1.058700 2.098829
v -2.013976 -0.987598 2.007829
v -1.928372 -0.985837 2.091905
v -1.922540 -1.055449 2.087425
v -2.008144 -1.057210 2.003349
usemtl mat23

vn -0.992672 -0.045965 0.111756
vn -0.992672 -0.045965 0.111756
vn -0.992672 -0.045965 0.111756
vn -0.992672 -0.045965 0.111756
vn 0.992672 0.045965 -0.111755
vn 0.992672 0.045965 -0.111755
vn 0.992672 0.045965 -0.111755
vn 0.992672 0.045965 -0.111755
vn -0.006596 -0.999191 -0.039677
vn -0.006596 -0.999191 -0.039677
vn -0.006596 -0.999191 -0.039677
vn -0.006596 -0.999191 -0.039677
vn 0.006596 0.999191 0.039678
vn 0.006596 0.999191 0.039678
vn 0.006596 0.999191 0.039678
vn 0.006596 0.999191 0.039678
vn -0.670205 -0.088796 0.736845
vn -0.670205 -0.088796 0.736845
vn -0.670205 -0.088796 0.736845
vn -0.670205 -0.088796 0.736845
vn 0.670205 0.088796 -0.736845
vn 0.670205 0.088796 -0.736845
vn 0.670205 0.088796 -0.736845
vn 0.670205 0.088796 -0.736845
vn -0.997554 0.015600 0.068130
vn -0.997554 0.015600 0.068130
vn -0.997554 0.015600 0.068130
vn -0.997554 0.015600 0.068130
vn 0.990405 -0.009680 -0.137853
vn 0.990405 -0.009680 -0.137853
vn 0.990405 -0.009680 -0.137853
vn 0.990405 -0.009680 -0.137853
vn -0.062992 -0.997434 -0.034026
vn -0.062992 -0.997434 -0.034026
vn -0.062992 -0.997434 -0.034026
vn 0.062992 0.997434 0.034026
vn 0.062992 0.997434 0.034026
vn 0.062992 0.997434 0.034026
vn -0.654454 -0.048482 0.754546
vn -0.654454 -0.048482 0.754546
vn -0.654454 -0.048482 0.754546
vn -0.654454 -0.048482 0.754546
vn 0.327033 0.070985 -0.942343
vn 0.327033 0.070985 -0.942343
vn 0.327033 0.070985 -0.942343
vn 0.327033 0.070985 -0.942343
vn 0.026730 0.990716 -0.133296
vn 0.026730 0.990716 -0.133296
vn 0.026730 0.990716 -0.133296
vn -0.026730 -0.990716 0.133295
vn -0.026730 -0.990716 0.133295
vn -0.026730 -0.990716 0.133295
vn -0.994810 -0.027436 0.097977
vn -0.994810 -0.027436 0.097977
vn -0.994810 -0.027436 0.097977
vn -0.994810 -0.027436 0.097977
vn 0.994811 0.027436 -0.097977
vn 0.994811 0.027436 -0.097977
vn 0.994811 0.027436 -0.097977
vn 0.994811 0.027436 -0.097977
vn -0.023051 -0.999456 -0.023592
vn -0.023051 -0.999456 -0.023592
vn -0.023051 -0.999456 -0.023592
vn -0.023051 -0.999456 -0.023592
vn 0.023051 0.999456 0.023592
vn 0.023051 0.999456 0.023592
vn 0.023051 0.999456 0.023592
vn 0.023051 0.999456 0.023592
vn -0.682109 -0.065403 0.728320
vn -0.682109 -0.065403 0.728320
vn -0.682109 -0.065403 0.728320
vn -0.682109 -0.065403 0.728320
vn 0.682109 0.065403 -0.728320
vn 0.682109 0.065403 -0.728320
vn 0.682109 0.065403 -0.728320
vn 0.682109 0.065403 -0.728320
vn -0.993515 -0.087875 0.072153
vn -0.993515 -0.087875 0.072153
vn -0.993515 -0.087875 0.072153
vn -0.993515 -0.087875 0.072153
vn 0.993515 0.087875 -0.072152
vn 0.993515 0.087875 -0.072152
vn 0.993515 0.087875 -0.072152
vn 0.993515 0.087875 -0.072152
vn 0.038673 -0.999082 -0.018450
vn 0.038673 -0.999082 -0.018450
vn 0.038673 -0.999082 -0.018450
vn 0.038673 -0.999082 -0.018450
vn -0.038673 0.999082 0.018450
vn -0.038673 0.999082 0.018450
vn -0.038673 0.999082 0.018450
vn -0.038673 0.999082 0.018450
vn -0.695819 -0.104024 0.710644
vn -0.695819 -0.104024 0.710644
vn -0.695819 -0.104024 0.710644
vn -0.695819 -0.104024 0.710644
vn 0.695819 0.104024 -0.710644
vn 0.695819 0.104024 -0.710644
vn 0.695819 0.104024 -0.710644
vn 0.695819 0.104024 -0.710644

vt -0.204739 -0.153822
vt -0.196495 -0.148952
vt -0.192683 -0.154823
vt -0.200927 -0.159694
vt 0.200249 -0.159736
vt 0.204061 -0.153864
vt 0.212305 -0.158735
vt 0.208493 -0.164606
vt 0.172965 -0.314155
vt 0.183643 -0.308681
vt 0.192927 -0.311026
vt 0.182248 -0.316500
vt -0.193131 -0.311424
vt -0.183848 -0.309079
vt -0.173169 -0.314553
vt -0.182452 -0.316898
vt -0.038131 0.006047
vt -0.032890 0.010687
vt -0.024935 0.001703
vt -0.030175 -0.002938
vt 0.020470 -0.003949
vt 0.028425 0.005035
vt 0.033666 0.000395
vt 0.025710 -0.008590
vt -0.172568 -0.157743
vt -0.168361 -0.156073
vt -0.164448 -0.161877
vt -0.168655 -0.163547
vt 0.168666 -0.136064
vt 0.171930 -0.129872
vt 0.180582 -0.133974
vt 0.177318 -0.140167
vt 0.147005 -0.295390
vt 0.156326 -0.297582
vt 0.145740 -0.303232
vt -0.156537 -0.297976
vt -0.147216 -0.295785
vt -0.145951 -0.303627
vt -0.027611 -0.030828
vt -0.022670 -0.025870
vt -0.014170 -0.034341
vt -0.019112 -0.039299
vt -0.043102 -0.138770
vt -0.039151 -0.131191
vt -0.033171 -0.134829
vt -0.037122 -0.142408
vt -0.161621 -0.280052
vt -0.156665 -0.287016
vt -0.161087 -0.287977
vt 0.159655 -0.287524
vt 0.155233 -0.286562
vt 0.160189 -0.279599
vt -0.188821 -0.152013
vt -0.180537 -0.147210
vt -0.176774 -0.153112
vt -0.185057 -0.157915
vt 0.184380 -0.157962
vt 0.188143 -0.152060
vt 0.196427 -0.156863
vt 0.192663 -0.162765
vt 0.156598 -0.306638
vt 0.167335 -0.301280
vt 0.176593 -0.303726
vt 0.165856 -0.309084
vt -0.176793 -0.304127
vt -0.167535 -0.301681
vt -0.156798 -0.307039
vt -0.166056 -0.309485
vt -0.039782 -0.007180
vt -0.034736 -0.002328
vt -0.026418 -0.010977
vt -0.031464 -0.015829
vt 0.021725 -0.016441
vt 0.030043 -0.007792
vt 0.035088 -0.012644
vt 0.026771 -0.021293
vt -0.215343 -0.183904
vt -0.207568 -0.178316
vt -0.203246 -0.183823
vt -0.211022 -0.189411
vt 0.210343 -0.189392
vt 0.214664 -0.183885
vt 0.222439 -0.189473
vt 0.218118 -0.194980
vt 0.194191 -0.317973
vt 0.204998 -0.312756
vt 0.214223 -0.315323
vt 0.203416 -0.320540
vt -0.214417 -0.315726
vt -0.205192 -0.313159
vt -0.194385 -0.318376
vt -0.203610 -0.320943
vt -0.050098 0.030965
vt -0.044715 0.035439
vt -0.037044 0.026211
vt -0.042427 0.021736
vt 0.032758 0.020422
vt 0.040429 0.029650
vt 0.045812 0.025176
vt 0.038141 0.015948
s off
f 1/1/1 2/2/2 3/3/3
f 1/1/1 3/3/3 4/4/4
f 5/5/5 6/6/6 7/7/7
f 5/5/5 7/7/7 8/8/8
f 9/9/9 10/10/10 11/11/11
f 9/9/9 11/11/11 12/12/12
f 13/13/13 14/14/14 15/15/15
f 13/13/13 15/15/15 16/16/16
f 17/17/17 18/18/18 19/19/19
f 17/17/17 19/19/19 20/20/20
f 21/21/21 22/22/22 23/23/23
f 21/21/21 23/23/23 24/24/24
f 25/25/25 26/26/26 27/27/27
f 25/25/25 27/27/27 28/28/28
f 29/29/29 30/30/30 31/31/31
f 29/29/29 31/31/31 32/32/32
f 33/33/33 34/34/34 35/35/35
f 36/36/36 37/37/37 38/38/38
f 39/39/39 40/40/40 41/41/41
f 39/39/39 41/41/41 42/42/42
f 43/43/43 44/44/44 45/45/45
f 43/43/43 45/45/45 46/46/46
f 47/47/47 48/48/48 49/49/49
f 50/50/50 51/51/51 52/52/52
f 53/53/53 54/54/54 55/55/55
f 53/53/53 55/55/55 56/56/56
f 57/57/57 58/58/58 59/59/59
f 57/57/57 59/59/59 60/60/60
f 61/61/61 62/62/62 63/63/63
f 61/61/61 63/63/63 64/64/64
f 65/65/65 66/66/66 67/67/67
f 65/65/65 67/67/67 68/68/68
f 69/69/69 70/70/70 71/71/71
f 69/69/69 71/71/71 72/72/72
f 73/73/73 74/74/74 75/75/75
f 73/73/73 75/75/75 76/76/76
f 77/77/77 78/78/78 79/79/79
f 77/77/77 79/79/79 80/80/80
f 81/81/81 82/82/82 83/83/83
f 81/81/81 83/83/83 84/84/84
f 85/85/85 86/86/86 87/87/87
f 85/85/85 87/87/87 88/88/88
f 89/89/89 90/90/90 91/91/91
f 89/89/89 91/91/91 92/92/92
f 93/93/93 94/94/94 95/95/95
f 93/93/93 95/95/95 96/96/96
f 97/97/97 98/98/98 99/99/99
f 97/97/97 99/99/99 100/100/100
