# Exported using automatic converter by Erwin Coumans
mtllib model6.mtl
#object mesh886977655

v 0.168421 0.256269 -0.087862
v 0.175702 0.253737 -0.065881
v 0.190510 0.504840 -0.047302
v 0.183230 0.507373 -0.069284
v 0.175702 0.253737 -0.065881
v 0.193070 0.251933 -0.050464
v 0.207879 0.503036 -0.031885
v 0.190510 0.504840 -0.047302
v 0.193070 0.251933 -0.050464
v 0.215872 0.251340 -0.045742
v 0.230681 0.502444 -0.027164
v 0.207879 0.503036 -0.031885
v 0.215872 0.251340 -0.045742
v 0.237999 0.252118 -0.052981
v 0.252808 0.503222 -0.034403
v 0.230681 0.502444 -0.027164
v 0.237999 0.252118 -0.052981
v 0.253521 0.254058 -0.070241
v 0.268330 0.505161 -0.051662
v 0.252808 0.503222 -0.034403
v 0.253521 0.254058 -0.070241
v 0.258280 0.256640 -0.092897
v 0.273089 0.507743 -0.074318
v 0.268330 0.505161 -0.051662
v 0.258280 0.256640 -0.092897
v 0.250999 0.259172 -0.114878
v 0.265808 0.510276 -0.096300
v 0.273089 0.507743 -0.074318
v 0.250999 0.259172 -0.114878
v 0.233631 0.260976 -0.130295
v 0.248440 0.512080 -0.111717
v 0.265808 0.510276 -0.096300
v 0.233631 0.260976 -0.130295
v 0.210828 0.261569 -0.135017
v 0.225637 0.512672 -0.116438
v 0.248440 0.512080 -0.111717
v 0.210828 0.261569 -0.135017
v 0.188702 0.260791 -0.127778
v 0.203511 0.511895 -0.109199
v 0.225637 0.512672 -0.116438
v 0.188702 0.260791 -0.127778
v 0.173180 0.258851 -0.110518
v 0.187989 0.509955 -0.091940
v 0.203511 0.511895 -0.109199
v 0.173180 0.258851 -0.110518
v 0.168421 0.256269 -0.087862
v 0.183230 0.507373 -0.069284
v 0.187989 0.509955 -0.091940
v 0.183230 0.507373 -0.069284
v 0.190510 0.504840 -0.047302
v 0.207879 0.503036 -0.031885
v 0.230681 0.502444 -0.027164
v 0.252808 0.503222 -0.034403
v 0.268330 0.505161 -0.051662
v 0.273089 0.507743 -0.074318
v 0.265808 0.510276 -0.096300
v 0.248440 0.512080 -0.111717
v 0.225637 0.512672 -0.116438
v 0.203511 0.511895 -0.109199
v 0.187989 0.509955 -0.091940
v 0.173180 0.258851 -0.110518
v 0.188702 0.260791 -0.127778
v 0.210828 0.261569 -0.135017
v 0.233631 0.260976 -0.130295
v 0.250999 0.259172 -0.114878
v 0.258280 0.256640 -0.092897
v 0.253521 0.254058 -0.070241
v 0.237999 0.252118 -0.052981
v 0.215872 0.251340 -0.045742
v 0.193070 0.251933 -0.050464
v 0.175702 0.253737 -0.065881
v 0.168421 0.256269 -0.087862
usemtl mat22

vn -0.947670 0.032390 0.317605
vn -0.947670 0.032390 0.317605
vn -0.947670 0.032390 0.317605
vn -0.947670 0.032390 0.317605
vn -0.664693 -0.016065 0.746943
vn -0.664693 -0.016065 0.746943
vn -0.664693 -0.016065 0.746943
vn -0.664693 -0.016065 0.746943
vn -0.203899 -0.060272 0.977135
vn -0.203899 -0.060272 0.977135
vn -0.203899 -0.060272 0.977135
vn -0.203899 -0.060272 0.977135
vn 0.312527 -0.088408 0.945786
vn 0.312527 -0.088408 0.945786
vn 0.312527 -0.088408 0.945786
vn 0.312527 -0.088408 0.945786
vn 0.745498 -0.092799 0.660016
vn 0.745498 -0.092799 0.660016
vn 0.745498 -0.092799 0.660016
vn 0.745498 -0.092799 0.660016
vn 0.977715 -0.072245 0.197115
vn 0.977715 -0.072245 0.197115
vn 0.977715 -0.072245 0.197115
vn 0.977715 -0.072245 0.197115
vn 0.947670 -0.032390 -0.317605
vn 0.947670 -0.032390 -0.317605
vn 0.947670 -0.032390 -0.317605
vn 0.947670 -0.032390 -0.317605
vn 0.664693 0.016065 -0.746944
vn 0.664693 0.016065 -0.746944
vn 0.664693 0.016065 -0.746944
vn 0.664693 0.016065 -0.746944
vn 0.203899 0.060271 -0.977135
vn 0.203899 0.060271 -0.977135
vn 0.203899 0.060271 -0.977135
vn 0.203899 0.060271 -0.977135
vn -0.312527 0.088408 -0.945786
vn -0.312527 0.088408 -0.945786
vn -0.312527 0.088408 -0.945786
vn -0.312527 0.088408 -0.945786
vn -0.745498 0.092799 -0.660016
vn -0.745498 0.092799 -0.660016
vn -0.745498 0.092799 -0.660016
vn -0.745498 0.092799 -0.660016
vn -0.977715 0.072245 -0.197114
vn -0.977715 0.072245 -0.197114
vn -0.977715 0.072245 -0.197114
vn -0.977715 0.072245 -0.197114
vn 0.002274 0.993512 0.113704
vn 0.002274 0.993512 0.113704
vn 0.002274 0.993512 0.113704
vn 0.002274 0.993512 0.113704
vn 0.002274 0.993512 0.113704
vn 0.002274 0.993512 0.113704
vn 0.002274 0.993512 0.113704
vn 0.002274 0.993512 0.113704
vn 0.002274 0.993512 0.113704
vn 0.002274 0.993512 0.113704
vn 0.002274 0.993512 0.113704
vn 0.002274 0.993512 0.113704
vn -0.002274 -0.993512 -0.113704
vn -0.002274 -0.993512 -0.113704
vn -0.002274 -0.993512 -0.113704
vn -0.002274 -0.993512 -0.113704
vn -0.002274 -0.993512 -0.113704
vn -0.002274 -0.993512 -0.113704
vn -0.002274 -0.993512 -0.113704
vn -0.002274 -0.993512 -0.113704
vn -0.002274 -0.993512 -0.113704
vn -0.002274 -0.993512 -0.113704
vn -0.002274 -0.993512 -0.113704
vn -0.002274 -0.993512 -0.113704

vt -0.074413 0.069933
vt -0.076717 0.069590
vt -0.079928 0.094607
vt -0.077624 0.094951
vt 0.023342 0.084188
vt 0.021611 0.085746
vt 0.038189 0.104754
vt 0.039921 0.103196
vt 0.067223 0.041165
vt 0.066106 0.043209
vt 0.087643 0.056337
vt 0.088760 0.054293
vt 0.087524 0.001957
vt 0.086609 0.004100
vt 0.109101 0.015513
vt 0.110016 0.013371
vt 0.101350 -0.018641
vt 0.100344 -0.016540
vt 0.122308 -0.004139
vt 0.123314 -0.006240
vt 0.110301 -0.003301
vt 0.108820 -0.001503
vt 0.127450 0.015500
vt 0.128931 0.013702
vt 0.076802 0.070159
vt 0.074498 0.070502
vt 0.077709 0.095519
vt 0.080012 0.095176
vt -0.022003 0.086182
vt -0.023735 0.084624
vt -0.040313 0.103632
vt -0.038581 0.105190
vt -0.066493 0.043421
vt -0.067610 0.041377
vt -0.089147 0.054505
vt -0.088030 0.056549
vt -0.086772 0.004169
vt -0.087687 0.002027
vt -0.110179 0.013441
vt -0.109265 0.015583
vt -0.100223 -0.016598
vt -0.101229 -0.018699
vt -0.123192 -0.006298
vt -0.122187 -0.004197
vt -0.108504 -0.001764
vt -0.109985 -0.003562
vt -0.128615 0.013441
vt -0.127134 0.015239
vt -0.060118 -0.038561
vt -0.062441 -0.038731
vt -0.064538 -0.037717
vt -0.065847 -0.035790
vt -0.066017 -0.033467
vt -0.065003 -0.031370
vt -0.063076 -0.030061
vt -0.060753 -0.029891
vt -0.058656 -0.030905
vt -0.057347 -0.032832
vt -0.057177 -0.035155
vt -0.058191 -0.037252
vt 0.058582 -0.038953
vt 0.057568 -0.036856
vt 0.057738 -0.034533
vt 0.059046 -0.032606
vt 0.061143 -0.031592
vt 0.063466 -0.031762
vt 0.065393 -0.033071
vt 0.066408 -0.035167
vt 0.066238 -0.037491
vt 0.064929 -0.039418
vt 0.062832 -0.040432
vt 0.060509 -0.040262
s off
f 1/1/1 2/2/2 3/3/3
f 1/1/1 3/3/3 4/4/4
f 5/5/5 6/6/6 7/7/7
f 5/5/5 7/7/7 8/8/8
f 9/9/9 10/10/10 11/11/11
f 9/9/9 11/11/11 12/12/12
f 13/13/13 14/14/14 15/15/15
f 13/13/13 15/15/15 16/16/16
f 17/17/17 18/18/18 19/19/19
f 17/17/17 19/19/19 20/20/20
f 21/21/21 22/22/22 23/23/23
f 21/21/21 23/23/23 24/24/24
f 25/25/25 26/26/26 27/27/27
f 25/25/25 27/27/27 28/28/28
f 29/29/29 30/30/30 31/31/31
f 29/29/29 31/31/31 32/32/32
f 33/33/33 34/34/34 35/35/35
f 33/33/33 35/35/35 36/36/36
f 37/37/37 38/38/38 39/39/39
f 37/37/37 39/39/39 40/40/40
f 41/41/41 42/42/42 43/43/43
f 41/41/41 43/43/43 44/44/44
f 45/45/45 46/46/46 47/47/47
f 45/45/45 47/47/47 48/48/48
f 49/49/49 50/50/50 51/51/51
f 49/49/49 51/51/51 52/52/52
f 49/49/49 52/52/52 53/53/53
f 49/49/49 53/53/53 54/54/54
f 49/49/49 54/54/54 55/55/55
f 49/49/49 55/55/55 56/56/56
f 49/49/49 56/56/56 57/57/57
f 49/49/49 57/57/57 58/58/58
f 49/49/49 58/58/58 59/59/59
f 49/49/49 59/59/59 60/60/60
f 61/61/61 62/62/62 63/63/63
f 61/61/61 63/63/63 64/64/64
f 61/61/61 64/64/64 65/65/65
f 61/61/61 65/65/65 66/66/66
f 61/61/61 66/66/66 67/67/67
f 61/61/61 67/67/67 68/68/68
f 61/61/61 68/68/68 69/69/69
f 61/61/61 69/69/69 70/70/70
f 61/61/61 70/70/70 71/71/71
f 61/61/61 71/71/71 72/72/72
