# Exported using automatic converter by Erwin Coumans
mtllib model6.mtl
#object group1624754713_6

v 2.313238 -1.054511 1.742213
v 2.270738 -1.054511 1.753600
v 2.270738 -0.986511 1.753600
v 2.313238 -0.986511 1.742213
v 2.270738 -1.054511 1.753600
v 2.239625 -1.054511 1.784713
v 2.239625 -0.986511 1.784713
v 2.270738 -0.986511 1.753600
v 2.239625 -1.054511 1.784713
v 2.228238 -1.054511 1.827213
v 2.228238 -0.986511 1.827213
v 2.239625 -0.986511 1.784713
v 2.228238 -1.054511 1.827213
v 2.239625 -1.054511 1.869713
v 2.239625 -0.986511 1.869713
v 2.228238 -0.986511 1.827213
v 2.239625 -1.054511 1.869713
v 2.270738 -1.054511 1.900825
v 2.270738 -0.986511 1.900825
v 2.239625 -0.986511 1.869713
v 2.270738 -1.054511 1.900825
v 2.313238 -1.054511 1.912213
v 2.313238 -0.986511 1.912213
v 2.270738 -0.986511 1.900825
v 2.313238 -1.054511 1.912213
v 2.355738 -1.054511 1.900825
v 2.355738 -0.986511 1.900825
v 2.313238 -0.986511 1.912213
v 2.355738 -1.054511 1.900825
v 2.386850 -1.054511 1.869713
v 2.386850 -0.986511 1.869713
v 2.355738 -0.986511 1.900825
v 2.386850 -1.054511 1.869713
v 2.398238 -1.054511 1.827213
v 2.398238 -0.986511 1.827213
v 2.386850 -0.986511 1.869713
v 2.398238 -1.054511 1.827213
v 2.386850 -1.054511 1.784713
v 2.386850 -0.986511 1.784713
v 2.398238 -0.986511 1.827213
v 2.386850 -1.054511 1.784713
v 2.355738 -1.054511 1.753600
v 2.355738 -0.986511 1.753600
v 2.386850 -0.986511 1.784713
v 2.355738 -1.054511 1.753600
v 2.313238 -1.054511 1.742213
v 2.313238 -0.986511 1.742213
v 2.355738 -0.986511 1.753600
v 2.313238 -0.986511 1.742213
v 2.270738 -0.986511 1.753600
v 2.239625 -0.986511 1.784713
v 2.228238 -0.986511 1.827213
v 2.239625 -0.986511 1.869713
v 2.270738 -0.986511 1.900825
v 2.313238 -0.986511 1.912213
v 2.355738 -0.986511 1.900825
v 2.386850 -0.986511 1.869713
v 2.398238 -0.986511 1.827213
v 2.386850 -0.986511 1.784713
v 2.355738 -0.986511 1.753600
v 2.355738 -1.054511 1.753600
v 2.386850 -1.054511 1.784713
v 2.398238 -1.054511 1.827213
v 2.386850 -1.054511 1.869713
v 2.355738 -1.054511 1.900825
v 2.313238 -1.054511 1.912213
v 2.270738 -1.054511 1.900825
v 2.239625 -1.054511 1.869713
v 2.228238 -1.054511 1.827213
v 2.239625 -1.054511 1.784713
v 2.270738 -1.054511 1.753600
v 2.313238 -1.054511 1.742213
usemtl mat22

vn 0.000000 0.000000 -1.000000
vn 0.000000 0.000000 -1.000000
vn 0.000000 0.000000 -1.000000
vn 0.000000 0.000000 -1.000000
vn -0.500000 0.000000 -0.866026
vn -0.500000 0.000000 -0.866026
vn -0.500000 0.000000 -0.866026
vn -0.500000 0.000000 -0.866026
vn -0.866025 0.000000 -0.500000
vn -0.866025 0.000000 -0.500000
vn -0.866025 0.000000 -0.500000
vn -0.866025 0.000000 -0.500000
vn -1.000000 0.000000 -0.000000
vn -1.000000 0.000000 -0.000000
vn -1.000000 0.000000 -0.000000
vn -1.000000 0.000000 -0.000000
vn -0.866025 0.000000 0.500000
vn -0.866025 0.000000 0.500000
vn -0.866025 0.000000 0.500000
vn -0.866025 0.000000 0.500000
vn -0.500000 -0.000000 0.866025
vn -0.500000 -0.000000 0.866025
vn -0.500000 -0.000000 0.866025
vn -0.500000 -0.000000 0.866025
vn -0.000000 -0.000000 1.000000
vn -0.000000 -0.000000 1.000000
vn -0.000000 -0.000000 1.000000
vn -0.000000 -0.000000 1.000000
vn 0.500000 -0.000000 0.866025
vn 0.500000 -0.000000 0.866025
vn 0.500000 -0.000000 0.866025
vn 0.500000 -0.000000 0.866025
vn 0.866025 -0.000000 0.500000
vn 0.866025 -0.000000 0.500000
vn 0.866025 -0.000000 0.500000
vn 0.866025 -0.000000 0.500000
vn 1.000000 -0.000000 0.000000
vn 1.000000 -0.000000 0.000000
vn 1.000000 -0.000000 0.000000
vn 1.000000 -0.000000 0.000000
vn 0.866026 -0.000000 -0.500000
vn 0.866026 -0.000000 -0.500000
vn 0.866026 -0.000000 -0.500000
vn 0.866026 -0.000000 -0.500000
vn 0.500000 0.000000 -0.866026
vn 0.500000 0.000000 -0.866026
vn 0.500000 0.000000 -0.866026
vn 0.500000 0.000000 -0.866026
vn 0.000000 1.000000 0.000000
vn 0.000000 1.000000 0.000000
vn 0.000000 1.000000 0.000000
vn 0.000000 1.000000 0.000000
vn 0.000000 1.000000 0.000000
vn 0.000000 1.000000 0.000000
vn 0.000000 1.000000 0.000000
vn 0.000000 1.000000 0.000000
vn 0.000000 1.000000 0.000000
vn 0.000000 1.000000 0.000000
vn 0.000000 1.000000 0.000000
vn 0.000000 1.000000 0.000000
vn -0.000000 -1.000000 -0.000000
vn -0.000000 -1.000000 -0.000000
vn -0.000000 -1.000000 -0.000000
vn -0.000000 -1.000000 -0.000000
vn -0.000000 -1.000000 -0.000000
vn -0.000000 -1.000000 -0.000000
vn -0.000000 -1.000000 -0.000000
vn -0.000000 -1.000000 -0.000000
vn -0.000000 -1.000000 -0.000000
vn -0.000000 -1.000000 -0.000000
vn -0.000000 -1.000000 -0.000000
vn -0.000000 -1.000000 -0.000000

vt 0.140649 0.153841
vt 0.138748 0.150040
vt 0.132666 0.153081
vt 0.134567 0.156883
vt 0.067721 0.009459
vt 0.065886 0.005626
vt 0.059752 0.008561
vt 0.061587 0.012395
vt -0.022507 -0.144876
vt -0.024740 -0.148492
vt -0.030525 -0.144918
vt -0.028292 -0.141302
vt -0.187990 -0.204326
vt -0.191448 -0.206796
vt -0.195401 -0.201263
vt -0.191943 -0.198793
vt -0.333861 0.066333
vt -0.337832 0.067847
vt -0.335409 0.074201
vt -0.331438 0.072686
vt -0.228148 0.216776
vt -0.230648 0.220213
vt -0.225148 0.224212
vt -0.222648 0.220775
vt -0.140649 0.153841
vt -0.142549 0.157643
vt -0.136467 0.160684
vt -0.134567 0.156883
vt -0.067721 0.009459
vt -0.069556 0.013293
vt -0.063422 0.016228
vt -0.061587 0.012395
vt 0.022507 -0.144876
vt 0.020273 -0.141261
vt 0.026058 -0.137687
vt 0.028292 -0.141302
vt 0.187990 -0.204326
vt 0.184532 -0.201856
vt 0.188484 -0.196323
vt 0.191943 -0.198793
vt 0.333861 0.066333
vt 0.329890 0.064818
vt 0.327467 0.071172
vt 0.331438 0.072686
vt 0.228148 0.216776
vt 0.225648 0.213339
vt 0.220148 0.217338
vt 0.222648 0.220775
vt -0.315336 0.100283
vt -0.314979 0.095898
vt -0.316862 0.091922
vt -0.320482 0.089420
vt -0.324867 0.089063
vt -0.328844 0.090946
vt -0.331346 0.094566
vt -0.331703 0.098951
vt -0.329819 0.102927
vt -0.326200 0.105429
vt -0.321814 0.105786
vt -0.317838 0.103903
vt 0.317838 0.103903
vt 0.321814 0.105786
vt 0.326200 0.105429
vt 0.329819 0.102927
vt 0.331703 0.098951
vt 0.331346 0.094566
vt 0.328844 0.090946
vt 0.324867 0.089063
vt 0.320482 0.089420
vt 0.316862 0.091922
vt 0.314979 0.095898
vt 0.315336 0.100283
s off
f 1/1/1 2/2/2 3/3/3
f 1/1/1 3/3/3 4/4/4
f 5/5/5 6/6/6 7/7/7
f 5/5/5 7/7/7 8/8/8
f 9/9/9 10/10/10 11/11/11
f 9/9/9 11/11/11 12/12/12
f 13/13/13 14/14/14 15/15/15
f 13/13/13 15/15/15 16/16/16
f 17/17/17 18/18/18 19/19/19
f 17/17/17 19/19/19 20/20/20
f 21/21/21 22/22/22 23/23/23
f 21/21/21 23/23/23 24/24/24
f 25/25/25 26/26/26 27/27/27
f 25/25/25 27/27/27 28/28/28
f 29/29/29 30/30/30 31/31/31
f 29/29/29 31/31/31 32/32/32
f 33/33/33 34/34/34 35/35/35
f 33/33/33 35/35/35 36/36/36
f 37/37/37 38/38/38 39/39/39
f 37/37/37 39/39/39 40/40/40
f 41/41/41 42/42/42 43/43/43
f 41/41/41 43/43/43 44/44/44
f 45/45/45 46/46/46 47/47/47
f 45/45/45 47/47/47 48/48/48
f 49/49/49 50/50/50 51/51/51
f 49/49/49 51/51/51 52/52/52
f 49/49/49 52/52/52 53/53/53
f 49/49/49 53/53/53 54/54/54
f 49/49/49 54/54/54 55/55/55
f 49/49/49 55/55/55 56/56/56
f 49/49/49 56/56/56 57/57/57
f 49/49/49 57/57/57 58/58/58
f 49/49/49 58/58/58 59/59/59
f 49/49/49 59/59/59 60/60/60
f 61/61/61 62/62/62 63/63/63
f 61/61/61 63/63/63 64/64/64
f 61/61/61 64/64/64 65/65/65
f 61/61/61 65/65/65 66/66/66
f 61/61/61 66/66/66 67/67/67
f 61/61/61 67/67/67 68/68/68
f 61/61/61 68/68/68 69/69/69
f 61/61/61 69/69/69 70/70/70
f 61/61/61 70/70/70 71/71/71
f 61/61/61 71/71/71 72/72/72
