# Exported using automatic converter by Erwin Coumans
mtllib model6.mtl
#object group82387319_1

v -0.236762 -0.434511 2.164851
v -0.236762 -0.414511 2.164851
v -0.236762 -0.414511 2.179852
v -0.236762 -0.434511 2.179852
v -0.256762 -0.414511 2.179852
v -0.256762 -0.414511 2.164851
v -0.256762 -0.434511 2.164851
v -0.256762 -0.434511 2.179852
v -0.236762 -0.414511 2.179852
v -0.256762 -0.414511 2.179852
v -0.256762 -0.434511 2.179852
v -0.236762 -0.434511 2.179852
v -0.256762 -0.434511 2.164851
v -0.256762 -0.414511 2.164851
v -0.236762 -0.414511 2.164851
v -0.236762 -0.434511 2.164851
v -0.256762 -0.434511 2.179852
v -0.256762 -0.434511 2.164851
v -0.236762 -0.434511 2.164851
v -0.236762 -0.434511 2.179852
v -0.236762 -0.414511 2.164851
v -0.256762 -0.414511 2.164851
v -0.256762 -0.414511 2.179852
v -0.236762 -0.414511 2.179852
v -0.236763 -0.404511 2.164852
v -0.236763 -0.384511 2.164852
v -0.236763 -0.384511 2.184852
v -0.236763 -0.404511 2.184852
v -0.256763 -0.384511 2.184852
v -0.256763 -0.384511 2.164852
v -0.256763 -0.404511 2.164852
v -0.256763 -0.404511 2.184852
v -0.236763 -0.384511 2.184852
v -0.256763 -0.384511 2.184852
v -0.256763 -0.404511 2.184852
v -0.236763 -0.404511 2.184852
v -0.256763 -0.404511 2.164852
v -0.256763 -0.384511 2.164852
v -0.236763 -0.384511 2.164852
v -0.236763 -0.404511 2.164852
v -0.256763 -0.404511 2.184852
v -0.256763 -0.404511 2.164852
v -0.236763 -0.404511 2.164852
v -0.236763 -0.404511 2.184852
v -0.236763 -0.384511 2.164852
v -0.256763 -0.384511 2.164852
v -0.256763 -0.384511 2.184852
v -0.236763 -0.384511 2.184852
v -0.236762 -0.439511 2.169852
v -0.236762 -0.419511 2.169852
v -0.236762 -0.419511 2.189852
v -0.236762 -0.439511 2.189852
v -0.256762 -0.419511 2.189852
v -0.256762 -0.419511 2.169852
v -0.256762 -0.439511 2.169852
v -0.256762 -0.439511 2.189852
v -0.236762 -0.419511 2.189852
v -0.256762 -0.419511 2.189852
v -0.256762 -0.439511 2.189852
v -0.236762 -0.439511 2.189852
v -0.256762 -0.439511 2.169852
v -0.256762 -0.419511 2.169852
v -0.236762 -0.419511 2.169852
v -0.236762 -0.439511 2.169852
v -0.256762 -0.439511 2.189852
v -0.256762 -0.439511 2.169852
v -0.236762 -0.439511 2.169852
v -0.236762 -0.439511 2.189852
v -0.236762 -0.419511 2.169852
v -0.256762 -0.419511 2.169852
v -0.256762 -0.419511 2.189852
v -0.236762 -0.419511 2.189852
v -0.201763 -0.399511 2.164852
v -0.201763 -0.379511 2.164852
v -0.201763 -0.379511 2.184852
v -0.201763 -0.399511 2.184852
v -0.221763 -0.379511 2.184852
v -0.221763 -0.379511 2.164852
v -0.221763 -0.399511 2.164852
v -0.221763 -0.399511 2.184852
v -0.201763 -0.379511 2.184852
v -0.221763 -0.379511 2.184852
v -0.221763 -0.399511 2.184852
v -0.201763 -0.399511 2.184852
v -0.221763 -0.399511 2.164852
v -0.221763 -0.379511 2.164852
v -0.201763 -0.379511 2.164852
v -0.201763 -0.399511 2.164852
v -0.221763 -0.399511 2.184852
v -0.221763 -0.399511 2.164852
v -0.201763 -0.399511 2.164852
v -0.201763 -0.399511 2.184852
v -0.201763 -0.379511 2.164852
v -0.221763 -0.379511 2.164852
v -0.221763 -0.379511 2.184852
v -0.201763 -0.379511 2.184852
v -0.201763 -0.434511 2.159852
v -0.201763 -0.414511 2.159852
v -0.201763 -0.414511 2.189852
v -0.201763 -0.434511 2.189852
v -0.221763 -0.414511 2.189852
v -0.221763 -0.414511 2.159852
v -0.221763 -0.434511 2.159852
v -0.221763 -0.434511 2.189852
v -0.201763 -0.414511 2.189852
v -0.221763 -0.414511 2.189852
v -0.221763 -0.434511 2.189852
v -0.201763 -0.434511 2.189852
v -0.221763 -0.434511 2.159852
v -0.221763 -0.414511 2.159852
v -0.201763 -0.414511 2.159852
v -0.201763 -0.434511 2.159852
v -0.221763 -0.434511 2.189852
v -0.221763 -0.434511 2.159852
v -0.201763 -0.434511 2.159852
v -0.201763 -0.434511 2.189852
v -0.201763 -0.414511 2.159852
v -0.221763 -0.414511 2.159852
v -0.221763 -0.414511 2.189852
v -0.201763 -0.414511 2.189852
usemtl mat21

vn 1.000000 -0.000000 -0.000000
vn 1.000000 -0.000000 -0.000000
vn 1.000000 -0.000000 -0.000000
vn 1.000000 -0.000000 -0.000000
vn -1.000000 0.000000 0.000000
vn -1.000000 0.000000 0.000000
vn -1.000000 0.000000 0.000000
vn -1.000000 0.000000 0.000000
vn 0.000000 -0.000000 1.000000
vn 0.000000 -0.000000 1.000000
vn 0.000000 -0.000000 1.000000
vn 0.000000 -0.000000 1.000000
vn -0.000000 0.000000 -1.000000
vn -0.000000 0.000000 -1.000000
vn -0.000000 0.000000 -1.000000
vn -0.000000 0.000000 -1.000000
vn -0.000000 -1.000000 -0.000000
vn -0.000000 -1.000000 -0.000000
vn -0.000000 -1.000000 -0.000000
vn -0.000000 -1.000000 -0.000000
vn 0.000000 1.000000 0.000000
vn 0.000000 1.000000 0.000000
vn 0.000000 1.000000 0.000000
vn 0.000000 1.000000 0.000000
vn 1.000000 -0.000000 -0.000000
vn 1.000000 -0.000000 -0.000000
vn 1.000000 -0.000000 -0.000000
vn 1.000000 -0.000000 -0.000000
vn -1.000000 0.000000 0.000000
vn -1.000000 0.000000 0.000000
vn -1.000000 0.000000 0.000000
vn -1.000000 0.000000 0.000000
vn 0.000000 -0.000000 1.000000
vn 0.000000 -0.000000 1.000000
vn 0.000000 -0.000000 1.000000
vn 0.000000 -0.000000 1.000000
vn -0.000000 0.000000 -1.000000
vn -0.000000 0.000000 -1.000000
vn -0.000000 0.000000 -1.000000
vn -0.000000 0.000000 -1.000000
vn -0.000000 -1.000000 -0.000000
vn -0.000000 -1.000000 -0.000000
vn -0.000000 -1.000000 -0.000000
vn -0.000000 -1.000000 -0.000000
vn 0.000000 1.000000 0.000000
vn 0.000000 1.000000 0.000000
vn 0.000000 1.000000 0.000000
vn 0.000000 1.000000 0.000000
vn 1.000000 -0.000000 -0.000000
vn 1.000000 -0.000000 -0.000000
vn 1.000000 -0.000000 -0.000000
vn 1.000000 -0.000000 -0.000000
vn -1.000000 0.000000 0.000000
vn -1.000000 0.000000 0.000000
vn -1.000000 0.000000 0.000000
vn -1.000000 0.000000 0.000000
vn 0.000000 -0.000000 1.000000
vn 0.000000 -0.000000 1.000000
vn 0.000000 -0.000000 1.000000
vn 0.000000 -0.000000 1.000000
vn -0.000000 0.000000 -1.000000
vn -0.000000 0.000000 -1.000000
vn -0.000000 0.000000 -1.000000
vn -0.000000 0.000000 -1.000000
vn -0.000000 -1.000000 -0.000000
vn -0.000000 -1.000000 -0.000000
vn -0.000000 -1.000000 -0.000000
vn -0.000000 -1.000000 -0.000000
vn 0.000000 1.000000 0.000000
vn 0.000000 1.000000 0.000000
vn 0.000000 1.000000 0.000000
vn 0.000000 1.000000 0.000000
vn 1.000000 -0.000000 -0.000000
vn 1.000000 -0.000000 -0.000000
vn 1.000000 -0.000000 -0.000000
vn 1.000000 -0.000000 -0.000000
vn -1.000000 0.000000 0.000000
vn -1.000000 0.000000 0.000000
vn -1.000000 0.000000 0.000000
vn -1.000000 0.000000 0.000000
vn 0.000000 -0.000000 1.000000
vn 0.000000 -0.000000 1.000000
vn 0.000000 -0.000000 1.000000
vn 0.000000 -0.000000 1.000000
vn -0.000000 0.000000 -1.000000
vn -0.000000 0.000000 -1.000000
vn -0.000000 0.000000 -1.000000
vn -0.000000 0.000000 -1.000000
vn -0.000000 -1.000000 -0.000000
vn -0.000000 -1.000000 -0.000000
vn -0.000000 -1.000000 -0.000000
vn -0.000000 -1.000000 -0.000000
vn 0.000000 1.000000 0.000000
vn 0.000000 1.000000 0.000000
vn 0.000000 1.000000 0.000000
vn 0.000000 1.000000 0.000000
vn 1.000000 -0.000000 -0.000000
vn 1.000000 -0.000000 -0.000000
vn 1.000000 -0.000000 -0.000000
vn 1.000000 -0.000000 -0.000000
vn -1.000000 0.000000 0.000000
vn -1.000000 0.000000 0.000000
vn -1.000000 0.000000 0.000000
vn -1.000000 0.000000 0.000000
vn 0.000000 -0.000000 1.000000
vn 0.000000 -0.000000 1.000000
vn 0.000000 -0.000000 1.000000
vn 0.000000 -0.000000 1.000000
vn -0.000000 0.000000 -1.000000
vn -0.000000 0.000000 -1.000000
vn -0.000000 0.000000 -1.000000
vn -0.000000 0.000000 -1.000000
vn -0.000000 -1.000000 -0.000000
vn -0.000000 -1.000000 -0.000000
vn -0.000000 -1.000000 -0.000000
vn -0.000000 -1.000000 -0.000000
vn 0.000000 1.000000 0.000000
vn 0.000000 1.000000 0.000000
vn 0.000000 1.000000 0.000000
vn 0.000000 1.000000 0.000000

vt 0.251502 -0.173499
vt 0.252664 -0.171872
vt 0.253885 -0.172744
vt 0.252722 -0.174371
vt -0.253885 -0.172744
vt -0.252664 -0.171872
vt -0.251502 -0.173499
vt -0.252722 -0.174371
vt 0.030634 -0.045616
vt 0.031529 -0.047405
vt 0.029740 -0.048299
vt 0.028845 -0.046510
vt -0.029740 -0.048299
vt -0.031529 -0.047405
vt -0.030634 -0.045616
vt -0.028845 -0.046510
vt 0.270112 -0.156464
vt 0.268699 -0.155959
vt 0.269372 -0.154076
vt 0.270784 -0.154580
vt -0.269372 -0.154076
vt -0.268699 -0.155959
vt -0.270112 -0.156464
vt -0.270784 -0.154580
vt 0.253246 -0.171058
vt 0.254408 -0.169431
vt 0.256035 -0.170593
vt 0.254873 -0.172221
vt -0.256035 -0.170593
vt -0.254408 -0.169431
vt -0.253246 -0.171058
vt -0.254873 -0.172221
vt 0.033317 -0.044274
vt 0.034212 -0.046063
vt 0.032423 -0.046958
vt 0.031529 -0.045169
vt -0.032423 -0.046958
vt -0.034212 -0.046063
vt -0.033317 -0.044274
vt -0.031529 -0.045169
vt 0.270583 -0.156632
vt 0.268699 -0.155959
vt 0.269372 -0.154076
vt 0.271255 -0.154748
vt -0.269372 -0.154076
vt -0.268699 -0.155959
vt -0.270583 -0.156632
vt -0.271255 -0.154748
vt 0.251618 -0.174197
vt 0.252780 -0.172569
vt 0.254408 -0.173732
vt 0.253246 -0.175360
vt -0.254408 -0.173732
vt -0.252780 -0.172569
vt -0.251618 -0.174197
vt -0.253246 -0.175360
vt 0.030187 -0.045839
vt 0.031081 -0.047628
vt 0.029293 -0.048523
vt 0.028398 -0.046734
vt -0.029293 -0.048523
vt -0.031081 -0.047628
vt -0.030187 -0.045839
vt -0.028398 -0.046734
vt 0.271053 -0.156800
vt 0.269170 -0.156127
vt 0.269843 -0.154244
vt 0.271726 -0.154916
vt -0.269843 -0.154244
vt -0.269170 -0.156127
vt -0.271053 -0.156800
vt -0.271726 -0.154916
vt 0.253536 -0.170651
vt 0.254699 -0.169024
vt 0.256326 -0.170187
vt 0.255164 -0.171814
vt -0.256326 -0.170187
vt -0.254699 -0.169024
vt -0.253536 -0.170651
vt -0.255164 -0.171814
vt 0.032199 -0.040920
vt 0.033094 -0.042709
vt 0.031305 -0.043603
vt 0.030411 -0.041815
vt -0.031305 -0.043603
vt -0.033094 -0.042709
vt -0.032199 -0.040920
vt -0.030411 -0.041815
vt 0.271760 -0.153336
vt 0.269876 -0.152663
vt 0.270549 -0.150780
vt 0.272432 -0.151452
vt -0.270549 -0.150780
vt -0.269876 -0.152663
vt -0.271760 -0.153336
vt -0.272432 -0.151452
vt 0.251095 -0.173209
vt 0.252257 -0.171581
vt 0.254699 -0.173325
vt 0.253536 -0.174953
vt -0.254699 -0.173325
vt -0.252257 -0.171581
vt -0.251095 -0.173209
vt -0.253536 -0.174953
vt 0.029069 -0.042485
vt 0.029963 -0.044274
vt 0.028175 -0.045169
vt 0.027280 -0.043380
vt -0.028175 -0.045169
vt -0.029963 -0.044274
vt -0.029069 -0.042485
vt -0.027280 -0.043380
vt 0.272231 -0.153504
vt 0.269405 -0.152495
vt 0.270078 -0.150612
vt 0.272903 -0.151621
vt -0.270078 -0.150612
vt -0.269405 -0.152495
vt -0.272231 -0.153504
vt -0.272903 -0.151621
s off
f 1/1/1 2/2/2 3/3/3
f 1/1/1 3/3/3 4/4/4
f 5/5/5 6/6/6 7/7/7
f 5/5/5 7/7/7 8/8/8
f 9/9/9 10/10/10 11/11/11
f 9/9/9 11/11/11 12/12/12
f 13/13/13 14/14/14 15/15/15
f 13/13/13 15/15/15 16/16/16
f 17/17/17 18/18/18 19/19/19
f 17/17/17 19/19/19 20/20/20
f 21/21/21 22/22/22 23/23/23
f 21/21/21 23/23/23 24/24/24
f 25/25/25 26/26/26 27/27/27
f 25/25/25 27/27/27 28/28/28
f 29/29/29 30/30/30 31/31/31
f 29/29/29 31/31/31 32/32/32
f 33/33/33 34/34/34 35/35/35
f 33/33/33 35/35/35 36/36/36
f 37/37/37 38/38/38 39/39/39
f 37/37/37 39/39/39 40/40/40
f 41/41/41 42/42/42 43/43/43
f 41/41/41 43/43/43 44/44/44
f 45/45/45 46/46/46 47/47/47
f 45/45/45 47/47/47 48/48/48
f 49/49/49 50/50/50 51/51/51
f 49/49/49 51/51/51 52/52/52
f 53/53/53 54/54/54 55/55/55
f 53/53/53 55/55/55 56/56/56
f 57/57/57 58/58/58 59/59/59
f 57/57/57 59/59/59 60/60/60
f 61/61/61 62/62/62 63/63/63
f 61/61/61 63/63/63 64/64/64
f 65/65/65 66/66/66 67/67/67
f 65/65/65 67/67/67 68/68/68
f 69/69/69 70/70/70 71/71/71
f 69/69/69 71/71/71 72/72/72
f 73/73/73 74/74/74 75/75/75
f 73/73/73 75/75/75 76/76/76
f 77/77/77 78/78/78 79/79/79
f 77/77/77 79/79/79 80/80/80
f 81/81/81 82/82/82 83/83/83
f 81/81/81 83/83/83 84/84/84
f 85/85/85 86/86/86 87/87/87
f 85/85/85 87/87/87 88/88/88
f 89/89/89 90/90/90 91/91/91
f 89/89/89 91/91/91 92/92/92
f 93/93/93 94/94/94 95/95/95
f 93/93/93 95/95/95 96/96/96
f 97/97/97 98/98/98 99/99/99
f 97/97/97 99/99/99 100/100/100
f 101/101/101 102/102/102 103/103/103
f 101/101/101 103/103/103 104/104/104
f 105/105/105 106/106/106 107/107/107
f 105/105/105 107/107/107 108/108/108
f 109/109/109 110/110/110 111/111/111
f 109/109/109 111/111/111 112/112/112
f 113/113/113 114/114/114 115/115/115
f 113/113/113 115/115/115 116/116/116
f 117/117/117 118/118/118 119/119/119
f 117/117/117 119/119/119 120/120/120
