# Exported using automatic converter by Erwin Coumans
mtllib model6.mtl
#object mesh1536157960

v -1.781762 -0.474511 -3.540148
v -1.781762 -0.474511 -3.510148
v -1.781762 -0.984511 -3.510148
v -1.781762 -0.984511 -3.540148
v -2.021762 -0.984511 -3.510148
v -2.021762 -0.474511 -3.510148
v -2.021762 -0.474511 -3.540148
v -2.021762 -0.984511 -3.540148
v -1.781762 -0.984511 -3.510148
v -2.021762 -0.984511 -3.510148
v -2.021762 -0.984511 -3.540148
v -1.781762 -0.984511 -3.540148
v -2.021762 -0.474511 -3.540148
v -2.021762 -0.474511 -3.510148
v -1.781762 -0.474511 -3.510148
v -1.781762 -0.474511 -3.540148
v -2.021762 -0.984511 -3.540148
v -2.021762 -0.474511 -3.540148
v -1.781762 -0.474511 -3.540148
v -1.781762 -0.984511 -3.540148
v -1.781762 -0.474511 -3.510148
v -2.021762 -0.474511 -3.510148
v -2.021762 -0.984511 -3.510148
v -1.781762 -0.984511 -3.510148
usemtl mat11

vn 1.000000 0.000000 0.000000
vn 1.000000 0.000000 0.000000
vn 1.000000 0.000000 0.000000
vn 1.000000 0.000000 0.000000
vn -1.000000 0.000000 0.000000
vn -1.000000 0.000000 0.000000
vn -1.000000 0.000000 0.000000
vn -1.000000 0.000000 0.000000
vn 0.000000 -1.000000 -0.000000
vn 0.000000 -1.000000 -0.000000
vn 0.000000 -1.000000 -0.000000
vn 0.000000 -1.000000 -0.000000
vn 0.000000 1.000000 0.000000
vn 0.000000 1.000000 0.000000
vn 0.000000 1.000000 0.000000
vn 0.000000 1.000000 0.000000
vn 0.000000 0.000000 -1.000000
vn 0.000000 0.000000 -1.000000
vn 0.000000 0.000000 -1.000000
vn 0.000000 0.000000 -1.000000
vn 0.000000 -0.000000 1.000000
vn 0.000000 -0.000000 1.000000
vn 0.000000 -0.000000 1.000000
vn 0.000000 -0.000000 1.000000

vt -0.215058 0.154842
vt -0.212617 0.153098
vt -0.242260 0.111598
vt -0.244701 0.113342
vt 0.242260 0.111598
vt 0.212617 0.153098
vt 0.215058 0.154842
vt 0.244701 0.113342
vt -0.317031 -0.108704
vt -0.325103 -0.131306
vt -0.327928 -0.130297
vt -0.319856 -0.107695
vt 0.327928 -0.130297
vt 0.325103 -0.131306
vt 0.317031 -0.108704
vt 0.319856 -0.107695
vt -0.059479 -0.230762
vt -0.105095 -0.207954
vt -0.094362 -0.186488
vt -0.048746 -0.209296
vt 0.094362 -0.186488
vt 0.105095 -0.207954
vt 0.059479 -0.230762
vt 0.048746 -0.209296
s off
f 1/1/1 2/2/2 3/3/3
f 1/1/1 3/3/3 4/4/4
f 5/5/5 6/6/6 7/7/7
f 5/5/5 7/7/7 8/8/8
f 9/9/9 10/10/10 11/11/11
f 9/9/9 11/11/11 12/12/12
f 13/13/13 14/14/14 15/15/15
f 13/13/13 15/15/15 16/16/16
f 17/17/17 18/18/18 19/19/19
f 17/17/17 19/19/19 20/20/20
f 21/21/21 22/22/22 23/23/23
f 21/21/21 23/23/23 24/24/24
