# Exported using automatic converter by Erwin Coumans
mtllib model6.mtl
#object mesh2125255798

v -1.741762 -0.474511 -3.490148
v -1.741762 -0.474511 -3.290148
v -1.741762 -0.974511 -3.290148
v -1.741762 -0.974511 -3.490148
v -1.761762 -0.974511 -3.290148
v -1.761762 -0.474511 -3.290148
v -1.761762 -0.474511 -3.490148
v -1.761762 -0.974511 -3.490148
v -1.741762 -0.974511 -3.290148
v -1.761762 -0.974511 -3.290148
v -1.761762 -0.974511 -3.490148
v -1.741762 -0.974511 -3.490148
v -1.761762 -0.474511 -3.490148
v -1.761762 -0.474511 -3.290148
v -1.741762 -0.474511 -3.290148
v -1.741762 -0.474511 -3.490148
v -1.761762 -0.974511 -3.490148
v -1.761762 -0.474511 -3.490148
v -1.741762 -0.474511 -3.490148
v -1.741762 -0.974511 -3.490148
v -1.741762 -0.474511 -3.290148
v -1.761762 -0.474511 -3.290148
v -1.761762 -0.974511 -3.290148
v -1.741762 -0.974511 -3.290148
usemtl mat11

vn 1.000000 -0.000000 -0.000000
vn 1.000000 -0.000000 -0.000000
vn 1.000000 -0.000000 -0.000000
vn 1.000000 -0.000000 -0.000000
vn -1.000000 0.000000 0.000000
vn -1.000000 0.000000 0.000000
vn -1.000000 0.000000 0.000000
vn -1.000000 0.000000 0.000000
vn -0.000000 -1.000000 -0.000000
vn -0.000000 -1.000000 -0.000000
vn -0.000000 -1.000000 -0.000000
vn -0.000000 -1.000000 -0.000000
vn 0.000000 1.000000 0.000000
vn 0.000000 1.000000 0.000000
vn 0.000000 1.000000 0.000000
vn 0.000000 1.000000 0.000000
vn 0.000000 0.000000 -1.000000
vn 0.000000 0.000000 -1.000000
vn 0.000000 0.000000 -1.000000
vn 0.000000 0.000000 -1.000000
vn 0.000000 -0.000000 1.000000
vn 0.000000 -0.000000 1.000000
vn 0.000000 -0.000000 1.000000
vn 0.000000 -0.000000 1.000000

vt -0.210990 0.151936
vt -0.194715 0.140311
vt -0.223777 0.099624
vt -0.240051 0.111249
vt 0.223777 0.099624
vt 0.194715 0.140311
vt 0.210990 0.151936
vt 0.240051 0.111249
vt -0.294967 -0.112336
vt -0.295640 -0.114220
vt -0.314474 -0.107493
vt -0.313802 -0.105610
vt 0.314474 -0.107493
vt 0.295640 -0.114220
vt 0.294967 -0.112336
vt 0.313802 -0.105610
vt -0.048746 -0.207060
vt -0.093468 -0.184699
vt -0.092573 -0.182910
vt -0.047852 -0.205271
vt 0.092573 -0.182910
vt 0.093468 -0.184699
vt 0.048746 -0.207060
vt 0.047852 -0.205271
s off
f 1/1/1 2/2/2 3/3/3
f 1/1/1 3/3/3 4/4/4
f 5/5/5 6/6/6 7/7/7
f 5/5/5 7/7/7 8/8/8
f 9/9/9 10/10/10 11/11/11
f 9/9/9 11/11/11 12/12/12
f 13/13/13 14/14/14 15/15/15
f 13/13/13 15/15/15 16/16/16
f 17/17/17 18/18/18 19/19/19
f 17/17/17 19/19/19 20/20/20
f 21/21/21 22/22/22 23/23/23
f 21/21/21 23/23/23 24/24/24
