# Exported using automatic converter by Erwin Coumans
mtllib model6.mtl
#object group761388940_3

v 2.499697 0.350186 1.160300
v 2.463706 0.350186 1.169944
v 2.499697 0.396625 1.232281
v 2.463706 0.350186 1.169944
v 2.437359 0.350186 1.196291
v 2.499697 0.396625 1.232281
v 2.437359 0.350186 1.196291
v 2.427716 0.350186 1.232281
v 2.499697 0.396625 1.232281
v 2.427716 0.350186 1.232281
v 2.437359 0.350186 1.268272
v 2.499697 0.396625 1.232281
v 2.437359 0.350186 1.268272
v 2.463706 0.350186 1.294619
v 2.499697 0.396625 1.232281
v 2.463706 0.350186 1.294619
v 2.499697 0.350186 1.304263
v 2.499697 0.396625 1.232281
v 2.499697 0.350186 1.304263
v 2.535688 0.350186 1.294619
v 2.499697 0.396625 1.232281
v 2.535688 0.350186 1.294619
v 2.562035 0.350186 1.268272
v 2.499697 0.396625 1.232281
v 2.562035 0.350186 1.268272
v 2.571678 0.350186 1.232281
v 2.499697 0.396625 1.232281
v 2.571678 0.350186 1.232281
v 2.562035 0.350186 1.196291
v 2.499697 0.396625 1.232281
v 2.562035 0.350186 1.196291
v 2.535688 0.350186 1.169944
v 2.499697 0.396625 1.232281
v 2.535688 0.350186 1.169944
v 2.499697 0.350186 1.160300
v 2.499697 0.396625 1.232281
v 2.499697 0.317678 1.145184
v 2.456149 0.317678 1.156853
v 2.463706 0.350186 1.169944
v 2.499697 0.350186 1.160300
v 2.456149 0.317678 1.156853
v 2.424268 0.317678 1.188733
v 2.437359 0.350186 1.196291
v 2.463706 0.350186 1.169944
v 2.424268 0.317678 1.188733
v 2.412600 0.317678 1.232281
v 2.427716 0.350186 1.232281
v 2.437359 0.350186 1.196291
v 2.412600 0.317678 1.232281
v 2.424268 0.317678 1.275830
v 2.437359 0.350186 1.268272
v 2.427716 0.350186 1.232281
v 2.424268 0.317678 1.275830
v 2.456148 0.317678 1.307710
v 2.463706 0.350186 1.294619
v 2.437359 0.350186 1.268272
v 2.456148 0.317678 1.307710
v 2.499697 0.317678 1.319379
v 2.499697 0.350186 1.304263
v 2.463706 0.350186 1.294619
v 2.499697 0.317678 1.319379
v 2.543246 0.317678 1.307710
v 2.535688 0.350186 1.294619
v 2.499697 0.350186 1.304263
v 2.543246 0.317678 1.307710
v 2.575126 0.317678 1.275830
v 2.562035 0.350186 1.268272
v 2.535688 0.350186 1.294619
v 2.575126 0.317678 1.275830
v 2.586795 0.317678 1.232281
v 2.571678 0.350186 1.232281
v 2.562035 0.350186 1.268272
v 2.586795 0.317678 1.232281
v 2.575126 0.317678 1.188733
v 2.562035 0.350186 1.196291
v 2.571678 0.350186 1.232281
v 2.575126 0.317678 1.188733
v 2.543246 0.317678 1.156853
v 2.535688 0.350186 1.169944
v 2.562035 0.350186 1.196291
v 2.543246 0.317678 1.156853
v 2.499697 0.317678 1.145184
v 2.499697 0.350186 1.160300
v 2.535688 0.350186 1.169944
v 2.499697 0.317678 1.161732
v 2.464423 0.317678 1.171184
v 2.456149 0.317678 1.156853
v 2.499697 0.317678 1.145184
v 2.464423 0.317678 1.171184
v 2.438600 0.317678 1.197007
v 2.424268 0.317678 1.188733
v 2.456149 0.317678 1.156853
v 2.438600 0.317678 1.197007
v 2.429148 0.317678 1.232281
v 2.412600 0.317678 1.232281
v 2.424268 0.317678 1.188733
v 2.429148 0.317678 1.232281
v 2.438600 0.317678 1.267556
v 2.424268 0.317678 1.275830
v 2.412600 0.317678 1.232281
v 2.438600 0.317678 1.267556
v 2.464423 0.317678 1.293378
v 2.456148 0.317678 1.307710
v 2.424268 0.317678 1.275830
v 2.464423 0.317678 1.293378
v 2.499697 0.317678 1.302830
v 2.499697 0.317678 1.319379
v 2.456148 0.317678 1.307710
v 2.499697 0.317678 1.302830
v 2.534972 0.317678 1.293378
v 2.543246 0.317678 1.307710
v 2.499697 0.317678 1.319379
v 2.534972 0.317678 1.293378
v 2.560794 0.317678 1.267556
v 2.575126 0.317678 1.275830
v 2.543246 0.317678 1.307710
v 2.560794 0.317678 1.267556
v 2.570246 0.317678 1.232281
v 2.586795 0.317678 1.232281
v 2.575126 0.317678 1.275830
v 2.570246 0.317678 1.232281
v 2.560794 0.317678 1.197007
v 2.575126 0.317678 1.188733
v 2.586795 0.317678 1.232281
v 2.560794 0.317678 1.197007
v 2.534971 0.317678 1.171184
v 2.543246 0.317678 1.156853
v 2.575126 0.317678 1.188733
v 2.534971 0.317678 1.171184
v 2.499697 0.317678 1.161732
v 2.499697 0.317678 1.145184
v 2.543246 0.317678 1.156853
v 2.499698 0.359473 1.180851
v 2.473983 0.359473 1.187741
v 2.464423 0.317678 1.171184
v 2.499697 0.317678 1.161732
v 2.473983 0.359473 1.187741
v 2.455158 0.359473 1.206566
v 2.438600 0.317678 1.197007
v 2.464423 0.317678 1.171184
v 2.455158 0.359473 1.206566
v 2.448267 0.359473 1.232281
v 2.429148 0.317678 1.232281
v 2.438600 0.317678 1.197007
v 2.448267 0.359473 1.232281
v 2.455158 0.359473 1.257996
v 2.438600 0.317678 1.267556
v 2.429148 0.317678 1.232281
v 2.455158 0.359473 1.257996
v 2.473982 0.359473 1.276821
v 2.464423 0.317678 1.293378
v 2.438600 0.317678 1.267556
v 2.473982 0.359473 1.276821
v 2.499697 0.359473 1.283711
v 2.499697 0.317678 1.302830
v 2.464423 0.317678 1.293378
v 2.499697 0.359473 1.283711
v 2.525413 0.359473 1.276821
v 2.534972 0.317678 1.293378
v 2.499697 0.317678 1.302830
v 2.525413 0.359473 1.276821
v 2.544237 0.359473 1.257996
v 2.560794 0.317678 1.267556
v 2.534972 0.317678 1.293378
v 2.544237 0.359473 1.257996
v 2.551128 0.359473 1.232281
v 2.570246 0.317678 1.232281
v 2.560794 0.317678 1.267556
v 2.551128 0.359473 1.232281
v 2.544237 0.359473 1.206566
v 2.560794 0.317678 1.197007
v 2.570246 0.317678 1.232281
v 2.544237 0.359473 1.206566
v 2.525413 0.359473 1.187741
v 2.534971 0.317678 1.171184
v 2.560794 0.317678 1.197007
v 2.525413 0.359473 1.187741
v 2.499698 0.359473 1.180851
v 2.499697 0.317678 1.161732
v 2.534971 0.317678 1.171184
v 2.525413 0.359473 1.187741
v 2.544237 0.359473 1.206566
v 2.551128 0.359473 1.232281
v 2.544237 0.359473 1.257996
v 2.525413 0.359473 1.276821
v 2.499697 0.359473 1.283711
v 2.473982 0.359473 1.276821
v 2.455158 0.359473 1.257996
v 2.448267 0.359473 1.232281
v 2.455158 0.359473 1.206566
v 2.473983 0.359473 1.187741
v 2.499698 0.359473 1.180851
usemtl mat15

vn -0.143754 0.831569 -0.536496
vn -0.143754 0.831569 -0.536496
vn -0.143754 0.831569 -0.536496
vn -0.392742 0.831569 -0.392742
vn -0.392742 0.831569 -0.392742
vn -0.392742 0.831569 -0.392742
vn -0.536496 0.831569 -0.143754
vn -0.536496 0.831569 -0.143754
vn -0.536496 0.831569 -0.143754
vn -0.536496 0.831569 0.143753
vn -0.536496 0.831569 0.143753
vn -0.536496 0.831569 0.143753
vn -0.392743 0.831569 0.392742
vn -0.392743 0.831569 0.392742
vn -0.392743 0.831569 0.392742
vn -0.143754 0.831569 0.536496
vn -0.143754 0.831569 0.536496
vn -0.143754 0.831569 0.536496
vn 0.143753 0.831569 0.536496
vn 0.143753 0.831569 0.536496
vn 0.143753 0.831569 0.536496
vn 0.392742 0.831569 0.392743
vn 0.392742 0.831569 0.392743
vn 0.392742 0.831569 0.392743
vn 0.536496 0.831569 0.143754
vn 0.536496 0.831569 0.143754
vn 0.536496 0.831569 0.143754
vn 0.536496 0.831569 -0.143753
vn 0.536496 0.831569 -0.143753
vn 0.536496 0.831569 -0.143753
vn 0.392742 0.831569 -0.392742
vn 0.392742 0.831569 -0.392742
vn 0.392742 0.831569 -0.392742
vn 0.143753 0.831569 -0.536496
vn 0.143753 0.831569 -0.536496
vn 0.143753 0.831569 -0.536496
vn -0.236097 0.409725 -0.881126
vn -0.236097 0.409725 -0.881126
vn -0.236097 0.409725 -0.881126
vn -0.236097 0.409725 -0.881126
vn -0.645029 0.409722 -0.645031
vn -0.645029 0.409722 -0.645031
vn -0.645029 0.409722 -0.645031
vn -0.645029 0.409722 -0.645031
vn -0.881128 0.409721 -0.236098
vn -0.881128 0.409721 -0.236098
vn -0.881128 0.409721 -0.236098
vn -0.881128 0.409721 -0.236098
vn -0.881128 0.409723 0.236095
vn -0.881128 0.409723 0.236095
vn -0.881128 0.409723 0.236095
vn -0.881128 0.409723 0.236095
vn -0.645029 0.409723 0.645030
vn -0.645029 0.409723 0.645030
vn -0.645029 0.409723 0.645030
vn -0.645029 0.409723 0.645030
vn -0.236098 0.409723 0.881127
vn -0.236098 0.409723 0.881127
vn -0.236098 0.409723 0.881127
vn -0.236098 0.409723 0.881127
vn 0.236097 0.409723 0.881127
vn 0.236097 0.409723 0.881127
vn 0.236097 0.409723 0.881127
vn 0.236097 0.409723 0.881127
vn 0.645029 0.409724 0.645029
vn 0.645029 0.409724 0.645029
vn 0.645029 0.409724 0.645029
vn 0.645029 0.409724 0.645029
vn 0.881125 0.409727 0.236099
vn 0.881125 0.409727 0.236099
vn 0.881125 0.409727 0.236099
vn 0.881125 0.409727 0.236099
vn 0.881125 0.409727 -0.236099
vn 0.881125 0.409727 -0.236099
vn 0.881125 0.409727 -0.236099
vn 0.881125 0.409727 -0.236099
vn 0.645029 0.409724 -0.645030
vn 0.645029 0.409724 -0.645030
vn 0.645029 0.409724 -0.645030
vn 0.645029 0.409724 -0.645030
vn 0.236099 0.409726 -0.881125
vn 0.236099 0.409726 -0.881125
vn 0.236099 0.409726 -0.881125
vn 0.236099 0.409726 -0.881125
vn -0.000003 -1.000000 -0.000010
vn -0.000003 -1.000000 -0.000010
vn -0.000003 -1.000000 -0.000010
vn -0.000003 -1.000000 -0.000010
vn -0.000007 -1.000000 -0.000007
vn -0.000007 -1.000000 -0.000007
vn -0.000007 -1.000000 -0.000007
vn -0.000007 -1.000000 -0.000007
vn -0.000010 -1.000000 -0.000003
vn -0.000010 -1.000000 -0.000003
vn -0.000010 -1.000000 -0.000003
vn -0.000010 -1.000000 -0.000003
vn -0.000011 -1.000000 0.000003
vn -0.000011 -1.000000 0.000003
vn -0.000011 -1.000000 0.000003
vn -0.000011 -1.000000 0.000003
vn -0.000008 -1.000000 0.000007
vn -0.000008 -1.000000 0.000007
vn -0.000008 -1.000000 0.000007
vn -0.000008 -1.000000 0.000007
vn -0.000003 -1.000000 0.000010
vn -0.000003 -1.000000 0.000010
vn -0.000003 -1.000000 0.000010
vn -0.000003 -1.000000 0.000010
vn 0.000002 -1.000000 0.000010
vn 0.000002 -1.000000 0.000010
vn 0.000002 -1.000000 0.000010
vn 0.000002 -1.000000 0.000010
vn 0.000007 -1.000000 0.000007
vn 0.000007 -1.000000 0.000007
vn 0.000007 -1.000000 0.000007
vn 0.000007 -1.000000 0.000007
vn 0.000010 -1.000000 0.000003
vn 0.000010 -1.000000 0.000003
vn 0.000010 -1.000000 0.000003
vn 0.000010 -1.000000 0.000003
vn 0.000010 -1.000000 -0.000003
vn 0.000010 -1.000000 -0.000003
vn 0.000010 -1.000000 -0.000003
vn 0.000010 -1.000000 -0.000003
vn 0.000007 -1.000000 -0.000007
vn 0.000007 -1.000000 -0.000007
vn 0.000007 -1.000000 -0.000007
vn 0.000007 -1.000000 -0.000007
vn 0.000003 -1.000000 -0.000010
vn 0.000003 -1.000000 -0.000010
vn 0.000003 -1.000000 -0.000010
vn 0.000003 -1.000000 -0.000010
vn 0.236739 -0.404154 0.883524
vn 0.236739 -0.404154 0.883524
vn 0.236739 -0.404154 0.883524
vn 0.236739 -0.404154 0.883524
vn 0.646783 -0.404155 0.646785
vn 0.646783 -0.404155 0.646785
vn 0.646783 -0.404155 0.646785
vn 0.646783 -0.404155 0.646785
vn 0.883523 -0.404157 0.236737
vn 0.883523 -0.404157 0.236737
vn 0.883523 -0.404157 0.236737
vn 0.883523 -0.404157 0.236737
vn 0.883522 -0.404161 -0.236733
vn 0.883522 -0.404161 -0.236733
vn 0.883522 -0.404161 -0.236733
vn 0.883522 -0.404161 -0.236733
vn 0.646783 -0.404160 -0.646781
vn 0.646783 -0.404160 -0.646781
vn 0.646783 -0.404160 -0.646781
vn 0.646783 -0.404160 -0.646781
vn 0.236739 -0.404159 -0.883522
vn 0.236739 -0.404159 -0.883522
vn 0.236739 -0.404159 -0.883522
vn 0.236739 -0.404159 -0.883522
vn -0.236739 -0.404157 -0.883522
vn -0.236739 -0.404157 -0.883522
vn -0.236739 -0.404157 -0.883522
vn -0.236739 -0.404157 -0.883522
vn -0.646783 -0.404155 -0.646784
vn -0.646783 -0.404155 -0.646784
vn -0.646783 -0.404155 -0.646784
vn -0.646783 -0.404155 -0.646784
vn -0.883522 -0.404153 -0.236747
vn -0.883522 -0.404153 -0.236747
vn -0.883522 -0.404153 -0.236747
vn -0.883522 -0.404153 -0.236747
vn -0.883523 -0.404151 0.236745
vn -0.883523 -0.404151 0.236745
vn -0.883523 -0.404151 0.236745
vn -0.883523 -0.404151 0.236745
vn -0.646783 -0.404149 0.646788
vn -0.646783 -0.404149 0.646788
vn -0.646783 -0.404149 0.646788
vn -0.646783 -0.404149 0.646788
vn -0.236744 -0.404151 0.883524
vn -0.236744 -0.404151 0.883524
vn -0.236744 -0.404151 0.883524
vn -0.236744 -0.404151 0.883524
vn 0.000000 -1.000000 -0.000000
vn 0.000000 -1.000000 -0.000000
vn 0.000000 -1.000000 -0.000000
vn 0.000000 -1.000000 -0.000000
vn 0.000000 -1.000000 -0.000000
vn 0.000000 -1.000000 -0.000000
vn 0.000000 -1.000000 -0.000000
vn 0.000000 -1.000000 -0.000000
vn 0.000000 -1.000000 -0.000000
vn 0.000000 -1.000000 -0.000000
vn 0.000000 -1.000000 -0.000000
vn 0.000000 -1.000000 -0.000000

vt -0.223153 0.205037
vt -0.223865 0.201379
vt -0.231716 0.204806
vt -0.239137 0.171568
vt -0.241239 0.168492
vt -0.247092 0.174747
vt -0.260653 0.149314
vt -0.263846 0.147393
vt -0.266559 0.155519
vt -0.271834 0.151169
vt -0.275550 0.150893
vt -0.274313 0.159369
vt -0.261890 0.159127
vt -0.265322 0.160577
vt -0.260351 0.167554
vt -0.238034 0.142397
vt -0.240515 0.145177
vt -0.233037 0.149355
vt -0.216693 0.091575
vt -0.217861 0.095113
vt -0.209337 0.095965
vt -0.211613 0.025151
vt -0.211226 0.028857
vt -0.203104 0.026135
vt -0.234941 -0.012494
vt -0.232718 -0.009503
vt -0.227119 -0.015986
vt -0.273647 0.051542
vt -0.269958 0.052070
vt -0.270619 0.043529
vt -0.255147 0.174419
vt -0.252341 0.171967
vt -0.259245 0.166896
vt -0.225538 0.219254
vt -0.224611 0.215645
vt -0.233173 0.215369
vt -0.105700 0.213134
vt -0.107365 0.208944
vt -0.110532 0.210624
vt -0.109156 0.214087
vt -0.157838 0.114238
vt -0.160346 0.110491
vt -0.163089 0.112798
vt -0.161017 0.115895
vt -0.223913 0.056735
vt -0.227534 0.054049
vt -0.229342 0.057145
vt -0.226350 0.059365
vt -0.271178 0.108319
vt -0.275666 0.107885
vt -0.275620 0.111470
vt -0.271911 0.111829
vt -0.233103 0.206122
vt -0.237078 0.208249
vt -0.235051 0.211206
vt -0.231766 0.209448
vt -0.158830 0.211514
vt -0.161658 0.215025
vt -0.158638 0.216955
vt -0.156301 0.214054
vt -0.099080 0.124329
vt -0.100979 0.128418
vt -0.097582 0.129564
vt -0.096013 0.126185
vt -0.053900 -0.012428
vt -0.055121 -0.008088
vt -0.051584 -0.007500
vt -0.050576 -0.011087
vt -0.014826 -0.154935
vt -0.015550 -0.150485
vt -0.011970 -0.150299
vt -0.011372 -0.153977
vt 0.071936 -0.254054
vt 0.070798 -0.249691
vt 0.074345 -0.249171
vt 0.075285 -0.252776
vt -0.024961 0.313676
vt -0.025579 0.309210
vt -0.029055 0.310086
vt -0.028544 0.313777
vt -0.064431 0.291830
vt -0.065479 0.287445
vt -0.068854 0.288653
vt -0.067988 0.292277
vt 0.266941 0.137366
vt 0.266644 0.133726
vt 0.265016 0.133428
vt 0.265382 0.137922
vt 0.266645 0.133725
vt 0.268208 0.130425
vt 0.266947 0.129354
vt 0.265017 0.133428
vt 0.268208 0.130425
vt 0.271212 0.128349
vt 0.270655 0.126790
vt 0.266947 0.129354
vt 0.271212 0.128349
vt 0.274852 0.128053
vt 0.275149 0.126425
vt 0.270656 0.126791
vt 0.274852 0.128054
vt 0.278152 0.129617
vt 0.279224 0.128356
vt 0.275149 0.126426
vt 0.278152 0.129618
vt 0.280229 0.132622
vt 0.281787 0.132065
vt 0.279224 0.128356
vt 0.280229 0.132622
vt 0.280525 0.136262
vt 0.282153 0.136559
vt 0.281787 0.132066
vt 0.280525 0.136263
vt 0.278962 0.139563
vt 0.280223 0.140634
vt 0.282153 0.136560
vt 0.278962 0.139563
vt 0.275958 0.141639
vt 0.276514 0.143198
vt 0.280223 0.140634
vt 0.275958 0.141639
vt 0.272318 0.141935
vt 0.272021 0.143563
vt 0.276514 0.143197
vt 0.272318 0.141934
vt 0.269017 0.140371
vt 0.267946 0.141632
vt 0.272020 0.143562
vt 0.269017 0.140370
vt 0.266941 0.137366
vt 0.265382 0.137923
vt 0.267946 0.141631
vt 0.109461 0.213909
vt 0.110448 0.211436
vt 0.106388 0.209283
vt 0.105034 0.212674
vt 0.161586 0.115414
vt 0.163065 0.113200
vt 0.159540 0.110251
vt 0.157511 0.113287
vt 0.227150 0.058896
vt 0.229285 0.057305
vt 0.226952 0.053345
vt 0.224023 0.055527
vt 0.272596 0.112660
vt 0.275246 0.112402
vt 0.275296 0.107806
vt 0.271661 0.108160
vt 0.230926 0.211814
vt 0.233271 0.213075
vt 0.235871 0.209285
vt 0.232655 0.207555
vt 0.154195 0.216403
vt 0.155862 0.218479
vt 0.159734 0.216004
vt 0.157448 0.213156
vt 0.093270 0.128025
vt 0.094392 0.130439
vt 0.098744 0.128961
vt 0.097204 0.125649
vt 0.047222 -0.009773
vt 0.047952 -0.007213
vt 0.052482 -0.007990
vt 0.051481 -0.011502
vt 0.006612 -0.152980
vt 0.007065 -0.150357
vt 0.011652 -0.150647
vt 0.011030 -0.154246
vt -0.096701 -0.244930
vt -0.095835 -0.242413
vt -0.091353 -0.243430
vt -0.092540 -0.246883
vt 0.026070 0.313916
vt 0.026472 0.311285
vt 0.022030 0.310105
vt 0.021478 0.313715
vt 0.067697 0.292350
vt 0.068328 0.289764
vt 0.064007 0.288200
vt 0.063140 0.291747
vt 0.270255 0.138914
vt 0.272661 0.140053
vt 0.275315 0.139837
vt 0.277505 0.138324
vt 0.278644 0.135918
vt 0.278428 0.133264
vt 0.276914 0.131074
vt 0.274509 0.129935
vt 0.271855 0.130150
vt 0.269665 0.131664
vt 0.268525 0.134070
vt 0.268741 0.136724
s off
f 1/1/1 2/2/2 3/3/3
f 4/4/4 5/5/5 6/6/6
f 7/7/7 8/8/8 9/9/9
f 10/10/10 11/11/11 12/12/12
f 13/13/13 14/14/14 15/15/15
f 16/16/16 17/17/17 18/18/18
f 19/19/19 20/20/20 21/21/21
f 22/22/22 23/23/23 24/24/24
f 25/25/25 26/26/26 27/27/27
f 28/28/28 29/29/29 30/30/30
f 31/31/31 32/32/32 33/33/33
f 34/34/34 35/35/35 36/36/36
f 37/37/37 38/38/38 39/39/39
f 37/37/37 39/39/39 40/40/40
f 41/41/41 42/42/42 43/43/43
f 41/41/41 43/43/43 44/44/44
f 45/45/45 46/46/46 47/47/47
f 45/45/45 47/47/47 48/48/48
f 49/49/49 50/50/50 51/51/51
f 49/49/49 51/51/51 52/52/52
f 53/53/53 54/54/54 55/55/55
f 53/53/53 55/55/55 56/56/56
f 57/57/57 58/58/58 59/59/59
f 57/57/57 59/59/59 60/60/60
f 61/61/61 62/62/62 63/63/63
f 61/61/61 63/63/63 64/64/64
f 65/65/65 66/66/66 67/67/67
f 65/65/65 67/67/67 68/68/68
f 69/69/69 70/70/70 71/71/71
f 69/69/69 71/71/71 72/72/72
f 73/73/73 74/74/74 75/75/75
f 73/73/73 75/75/75 76/76/76
f 77/77/77 78/78/78 79/79/79
f 77/77/77 79/79/79 80/80/80
f 81/81/81 82/82/82 83/83/83
f 81/81/81 83/83/83 84/84/84
f 85/85/85 86/86/86 87/87/87
f 85/85/85 87/87/87 88/88/88
f 89/89/89 90/90/90 91/91/91
f 89/89/89 91/91/91 92/92/92
f 93/93/93 94/94/94 95/95/95
f 93/93/93 95/95/95 96/96/96
f 97/97/97 98/98/98 99/99/99
f 97/97/97 99/99/99 100/100/100
f 101/101/101 102/102/102 103/103/103
f 101/101/101 103/103/103 104/104/104
f 105/105/105 106/106/106 107/107/107
f 105/105/105 107/107/107 108/108/108
f 109/109/109 110/110/110 111/111/111
f 109/109/109 111/111/111 112/112/112
f 113/113/113 114/114/114 115/115/115
f 113/113/113 115/115/115 116/116/116
f 117/117/117 118/118/118 119/119/119
f 117/117/117 119/119/119 120/120/120
f 121/121/121 122/122/122 123/123/123
f 121/121/121 123/123/123 124/124/124
f 125/125/125 126/126/126 127/127/127
f 125/125/125 127/127/127 128/128/128
f 129/129/129 130/130/130 131/131/131
f 129/129/129 131/131/131 132/132/132
f 133/133/133 134/134/134 135/135/135
f 133/133/133 135/135/135 136/136/136
f 137/137/137 138/138/138 139/139/139
f 137/137/137 139/139/139 140/140/140
f 141/141/141 142/142/142 143/143/143
f 141/141/141 143/143/143 144/144/144
f 145/145/145 146/146/146 147/147/147
f 145/145/145 147/147/147 148/148/148
f 149/149/149 150/150/150 151/151/151
f 149/149/149 151/151/151 152/152/152
f 153/153/153 154/154/154 155/155/155
f 153/153/153 155/155/155 156/156/156
f 157/157/157 158/158/158 159/159/159
f 157/157/157 159/159/159 160/160/160
f 161/161/161 162/162/162 163/163/163
f 161/161/161 163/163/163 164/164/164
f 165/165/165 166/166/166 167/167/167
f 165/165/165 167/167/167 168/168/168
f 169/169/169 170/170/170 171/171/171
f 169/169/169 171/171/171 172/172/172
f 173/173/173 174/174/174 175/175/175
f 173/173/173 175/175/175 176/176/176
f 177/177/177 178/178/178 179/179/179
f 177/177/177 179/179/179 180/180/180
f 181/181/181 182/182/182 183/183/183
f 181/181/181 183/183/183 184/184/184
f 181/181/181 184/184/184 185/185/185
f 181/181/181 185/185/185 186/186/186
f 181/181/181 186/186/186 187/187/187
f 181/181/181 187/187/187 188/188/188
f 181/181/181 188/188/188 189/189/189
f 181/181/181 189/189/189 190/190/190
f 181/181/181 190/190/190 191/191/191
f 181/181/181 191/191/191 192/192/192
