# Exported using automatic converter by Erwin Coumans
mtllib model6.mtl
#object group2061739718_5

v 2.394488 -1.006511 1.654852
v 2.384440 -1.006511 1.617352
v 2.384440 -0.946511 1.617352
v 2.394488 -0.946511 1.654852
v 2.384440 -1.006511 1.617352
v 2.356988 -1.006511 1.589900
v 2.356988 -0.946511 1.589900
v 2.384440 -0.946511 1.617352
v 2.356988 -1.006511 1.589900
v 2.319488 -1.006511 1.579852
v 2.319488 -0.946511 1.579852
v 2.356988 -0.946511 1.589900
v 2.319488 -1.006511 1.579852
v 2.281988 -1.006511 1.589900
v 2.281988 -0.946511 1.589900
v 2.319488 -0.946511 1.579852
v 2.281988 -1.006511 1.589900
v 2.254536 -1.006511 1.617352
v 2.254536 -0.946511 1.617352
v 2.281988 -0.946511 1.589900
v 2.254536 -1.006511 1.617352
v 2.244488 -1.006511 1.654852
v 2.244488 -0.946511 1.654852
v 2.254536 -0.946511 1.617352
v 2.244488 -1.006511 1.654852
v 2.254536 -1.006511 1.692351
v 2.254536 -0.946511 1.692351
v 2.244488 -0.946511 1.654852
v 2.254536 -1.006511 1.692351
v 2.281988 -1.006511 1.719803
v 2.281988 -0.946511 1.719803
v 2.254536 -0.946511 1.692351
v 2.281988 -1.006511 1.719803
v 2.319488 -1.006511 1.729852
v 2.319488 -0.946511 1.729852
v 2.281988 -0.946511 1.719803
v 2.319488 -1.006511 1.729852
v 2.356988 -1.006511 1.719803
v 2.356988 -0.946511 1.719803
v 2.319488 -0.946511 1.729852
v 2.356988 -1.006511 1.719803
v 2.384440 -1.006511 1.692351
v 2.384440 -0.946511 1.692351
v 2.356988 -0.946511 1.719803
v 2.384440 -1.006511 1.692351
v 2.394488 -1.006511 1.654852
v 2.394488 -0.946511 1.654852
v 2.384440 -0.946511 1.692351
v 2.394488 -0.946511 1.654852
v 2.384440 -0.946511 1.617352
v 2.356988 -0.946511 1.589900
v 2.319488 -0.946511 1.579852
v 2.281988 -0.946511 1.589900
v 2.254536 -0.946511 1.617352
v 2.244488 -0.946511 1.654852
v 2.254536 -0.946511 1.692351
v 2.281988 -0.946511 1.719803
v 2.319488 -0.946511 1.729852
v 2.356988 -0.946511 1.719803
v 2.384440 -0.946511 1.692351
v 2.384440 -1.006511 1.692351
v 2.356988 -1.006511 1.719803
v 2.319488 -1.006511 1.729852
v 2.281988 -1.006511 1.719803
v 2.254536 -1.006511 1.692351
v 2.244488 -1.006511 1.654852
v 2.254536 -1.006511 1.617352
v 2.281988 -1.006511 1.589900
v 2.319488 -1.006511 1.579852
v 2.356988 -1.006511 1.589900
v 2.384440 -1.006511 1.617352
v 2.394488 -1.006511 1.654852
usemtl mat24

vn 1.000000 0.000000 0.000000
vn 1.000000 0.000000 0.000000
vn 1.000000 0.000000 0.000000
vn 1.000000 0.000000 0.000000
vn 0.866025 0.000000 -0.500000
vn 0.866025 0.000000 -0.500000
vn 0.866025 0.000000 -0.500000
vn 0.866025 0.000000 -0.500000
vn 0.500000 0.000000 -0.866025
vn 0.500000 0.000000 -0.866025
vn 0.500000 0.000000 -0.866025
vn 0.500000 0.000000 -0.866025
vn 0.000000 0.000000 -1.000000
vn 0.000000 0.000000 -1.000000
vn 0.000000 0.000000 -1.000000
vn 0.000000 0.000000 -1.000000
vn -0.500000 -0.000000 -0.866025
vn -0.500000 -0.000000 -0.866025
vn -0.500000 -0.000000 -0.866025
vn -0.500000 -0.000000 -0.866025
vn -0.866025 -0.000000 -0.500000
vn -0.866025 -0.000000 -0.500000
vn -0.866025 -0.000000 -0.500000
vn -0.866025 -0.000000 -0.500000
vn -1.000000 -0.000000 0.000000
vn -1.000000 -0.000000 0.000000
vn -1.000000 -0.000000 0.000000
vn -1.000000 -0.000000 0.000000
vn -0.866025 -0.000000 0.500000
vn -0.866025 -0.000000 0.500000
vn -0.866025 -0.000000 0.500000
vn -0.866025 -0.000000 0.500000
vn -0.500000 -0.000000 0.866025
vn -0.500000 -0.000000 0.866025
vn -0.500000 -0.000000 0.866025
vn -0.500000 -0.000000 0.866025
vn -0.000000 -0.000000 1.000000
vn -0.000000 -0.000000 1.000000
vn -0.000000 -0.000000 1.000000
vn -0.000000 -0.000000 1.000000
vn 0.500000 0.000000 0.866025
vn 0.500000 0.000000 0.866025
vn 0.500000 0.000000 0.866025
vn 0.500000 0.000000 0.866025
vn 0.866026 0.000000 0.500000
vn 0.866026 0.000000 0.500000
vn 0.866026 0.000000 0.500000
vn 0.866026 0.000000 0.500000
vn -0.000000 1.000000 -0.000000
vn -0.000000 1.000000 -0.000000
vn -0.000000 1.000000 -0.000000
vn -0.000000 1.000000 -0.000000
vn -0.000000 1.000000 -0.000000
vn -0.000000 1.000000 -0.000000
vn -0.000000 1.000000 -0.000000
vn -0.000000 1.000000 -0.000000
vn -0.000000 1.000000 -0.000000
vn -0.000000 1.000000 -0.000000
vn -0.000000 1.000000 -0.000000
vn -0.000000 1.000000 -0.000000
vn 0.000000 -1.000000 0.000000
vn 0.000000 -1.000000 0.000000
vn 0.000000 -1.000000 0.000000
vn 0.000000 -1.000000 0.000000
vn 0.000000 -1.000000 0.000000
vn 0.000000 -1.000000 0.000000
vn 0.000000 -1.000000 0.000000
vn 0.000000 -1.000000 0.000000
vn 0.000000 -1.000000 0.000000
vn 0.000000 -1.000000 0.000000
vn 0.000000 -1.000000 0.000000
vn 0.000000 -1.000000 0.000000

vt 0.176754 -0.190402
vt 0.173703 -0.188222
vt 0.177190 -0.183340
vt 0.180242 -0.185520
vt 0.318496 0.065610
vt 0.314992 0.064273
vt 0.312853 0.069879
vt 0.316357 0.071216
vt 0.219515 0.213067
vt 0.217309 0.210035
vt 0.212457 0.213564
vt 0.214663 0.216596
vt 0.136635 0.156547
vt 0.134958 0.153193
vt 0.129591 0.155876
vt 0.131268 0.159230
vt 0.067346 0.019793
vt 0.065727 0.016411
vt 0.060315 0.019001
vt 0.061934 0.022384
vt -0.018580 -0.129389
vt -0.020551 -0.132579
vt -0.025656 -0.129425
vt -0.023685 -0.126235
vt -0.176755 -0.190402
vt -0.179806 -0.192582
vt -0.183293 -0.187699
vt -0.180242 -0.185520
vt -0.318496 0.065610
vt -0.321999 0.066946
vt -0.319861 0.072552
vt -0.316357 0.071216
vt -0.219515 0.213067
vt -0.221721 0.216100
vt -0.216868 0.219629
vt -0.214663 0.216596
vt -0.136635 0.156547
vt -0.138312 0.159901
vt -0.132945 0.162584
vt -0.131268 0.159230
vt -0.067346 0.019793
vt -0.068965 0.023176
vt -0.063553 0.025766
vt -0.061934 0.022384
vt 0.018580 -0.129389
vt 0.016609 -0.126199
vt 0.021714 -0.123045
vt 0.023685 -0.126235
vt -0.309842 0.110873
vt -0.305972 0.111188
vt -0.302463 0.109526
vt -0.300256 0.106333
vt -0.299941 0.102463
vt -0.301603 0.098955
vt -0.304796 0.096747
vt -0.308666 0.096432
vt -0.312174 0.098094
vt -0.314382 0.101288
vt -0.314697 0.105157
vt -0.313035 0.108666
vt 0.313035 0.108666
vt 0.314697 0.105157
vt 0.314382 0.101288
vt 0.312174 0.098094
vt 0.308666 0.096432
vt 0.304796 0.096747
vt 0.301603 0.098955
vt 0.299941 0.102463
vt 0.300256 0.106333
vt 0.302463 0.109526
vt 0.305972 0.111188
vt 0.309842 0.110873
s off
f 1/1/1 2/2/2 3/3/3
f 1/1/1 3/3/3 4/4/4
f 5/5/5 6/6/6 7/7/7
f 5/5/5 7/7/7 8/8/8
f 9/9/9 10/10/10 11/11/11
f 9/9/9 11/11/11 12/12/12
f 13/13/13 14/14/14 15/15/15
f 13/13/13 15/15/15 16/16/16
f 17/17/17 18/18/18 19/19/19
f 17/17/17 19/19/19 20/20/20
f 21/21/21 22/22/22 23/23/23
f 21/21/21 23/23/23 24/24/24
f 25/25/25 26/26/26 27/27/27
f 25/25/25 27/27/27 28/28/28
f 29/29/29 30/30/30 31/31/31
f 29/29/29 31/31/31 32/32/32
f 33/33/33 34/34/34 35/35/35
f 33/33/33 35/35/35 36/36/36
f 37/37/37 38/38/38 39/39/39
f 37/37/37 39/39/39 40/40/40
f 41/41/41 42/42/42 43/43/43
f 41/41/41 43/43/43 44/44/44
f 45/45/45 46/46/46 47/47/47
f 45/45/45 47/47/47 48/48/48
f 49/49/49 50/50/50 51/51/51
f 49/49/49 51/51/51 52/52/52
f 49/49/49 52/52/52 53/53/53
f 49/49/49 53/53/53 54/54/54
f 49/49/49 54/54/54 55/55/55
f 49/49/49 55/55/55 56/56/56
f 49/49/49 56/56/56 57/57/57
f 49/49/49 57/57/57 58/58/58
f 49/49/49 58/58/58 59/59/59
f 49/49/49 59/59/59 60/60/60
f 61/61/61 62/62/62 63/63/63
f 61/61/61 63/63/63 64/64/64
f 61/61/61 64/64/64 65/65/65
f 61/61/61 65/65/65 66/66/66
f 61/61/61 66/66/66 67/67/67
f 61/61/61 67/67/67 68/68/68
f 61/61/61 68/68/68 69/69/69
f 61/61/61 69/69/69 70/70/70
f 61/61/61 70/70/70 71/71/71
f 61/61/61 71/71/71 72/72/72
