# Exported using automatic converter by Erwin Coumans
mtllib botlab.mtl
#object mesh1616093604

v 2.878143 -0.911329 -2.228565
v 2.877114 -0.885791 -2.228750
v 3.043063 -0.879076 -2.224799
v 3.044092 -0.904613 -2.224613
v 3.042448 -0.878915 -2.199248
v 2.876499 -0.885631 -2.203199
v 2.877528 -0.911169 -2.203013
v 3.043478 -0.904453 -2.199062
v 3.043063 -0.879076 -2.224799
v 3.042448 -0.878915 -2.199248
v 3.043478 -0.904453 -2.199062
v 3.044092 -0.904613 -2.224613
v 2.877528 -0.911169 -2.203013
v 2.876499 -0.885631 -2.203199
v 2.877114 -0.885791 -2.228750
v 2.878143 -0.911329 -2.228565
v 3.043478 -0.904453 -2.199062
v 2.877528 -0.911169 -2.203013
v 2.878143 -0.911329 -2.228565
v 3.044092 -0.904613 -2.224613
v 2.877114 -0.885791 -2.228750
v 2.876499 -0.885631 -2.203199
v 3.042448 -0.878915 -2.199248
v 3.043063 -0.879076 -2.224799
usemtl mat22

vn 0.024056 -0.006282 -0.999691
vn 0.024056 -0.006282 -0.999691
vn 0.024056 -0.006282 -0.999691
vn 0.024056 -0.006282 -0.999691
vn -0.024056 0.006282 0.999691
vn -0.024056 0.006282 0.999691
vn -0.024056 0.006282 0.999691
vn -0.024056 0.006282 0.999691
vn 0.998900 0.040424 0.023783
vn 0.998900 0.040424 0.023783
vn 0.998900 0.040424 0.023783
vn 0.998900 0.040424 0.023783
vn -0.998900 -0.040424 -0.023783
vn -0.998900 -0.040424 -0.023783
vn -0.998900 -0.040424 -0.023783
vn -0.998900 -0.040424 -0.023783
vn 0.040262 -0.999163 0.007248
vn 0.040262 -0.999163 0.007248
vn 0.040262 -0.999163 0.007248
vn 0.040262 -0.999163 0.007248
vn -0.040262 0.999163 -0.007248
vn -0.040262 0.999163 -0.007248
vn -0.040262 0.999163 -0.007248
vn -0.040262 0.999163 -0.007248

vt 0.151986 0.207387
vt 0.149662 0.208449
vt 0.156568 0.223559
vt 0.158892 0.222497
vt -0.156568 0.223559
vt -0.149662 0.208449
vt -0.151986 0.207387
vt -0.158892 0.222497
vt -0.139871 0.050531
vt -0.137893 0.048912
vt -0.139511 0.046934
vt -0.141489 0.048553
vt 0.139511 0.046934
vt 0.137893 0.048912
vt 0.139871 0.050531
vt 0.141489 0.048553
vt -0.034951 0.299639
vt -0.040770 0.284078
vt -0.043164 0.284974
vt -0.037345 0.300534
vt 0.043164 0.284974
vt 0.040770 0.284078
vt 0.034951 0.299639
vt 0.037345 0.300534
s off
f 1/1/1 2/2/2 3/3/3
f 1/1/1 3/3/3 4/4/4
f 5/5/5 6/6/6 7/7/7
f 5/5/5 7/7/7 8/8/8
f 9/9/9 10/10/10 11/11/11
f 9/9/9 11/11/11 12/12/12
f 13/13/13 14/14/14 15/15/15
f 13/13/13 15/15/15 16/16/16
f 17/17/17 18/18/18 19/19/19
f 17/17/17 19/19/19 20/20/20
f 21/21/21 22/22/22 23/23/23
f 21/21/21 23/23/23 24/24/24
