# Exported using automatic converter by Erwin Coumans
mtllib model6.mtl
#object mesh1029037828

v -0.901314 0.322182 0.321641
v -0.891671 0.322182 0.357632
v -0.829333 0.368622 0.321641
v -0.891671 0.322182 0.357632
v -0.865323 0.322182 0.383979
v -0.829333 0.368622 0.321641
v -0.865323 0.322182 0.383979
v -0.829333 0.322182 0.393622
v -0.829333 0.368622 0.321641
v -0.829333 0.322182 0.393622
v -0.793342 0.322182 0.383979
v -0.829333 0.368622 0.321641
v -0.793342 0.322182 0.383979
v -0.766995 0.322182 0.357632
v -0.829333 0.368622 0.321641
v -0.766995 0.322182 0.357632
v -0.757351 0.322182 0.321641
v -0.829333 0.368622 0.321641
v -0.757351 0.322182 0.321641
v -0.766995 0.322182 0.285650
v -0.829333 0.368622 0.321641
v -0.766995 0.322182 0.285650
v -0.793342 0.322182 0.259303
v -0.829333 0.368622 0.321641
v -0.793342 0.322182 0.259303
v -0.829333 0.322182 0.249660
v -0.829333 0.368622 0.321641
v -0.829333 0.322182 0.249660
v -0.865323 0.322182 0.259303
v -0.829333 0.368622 0.321641
v -0.865323 0.322182 0.259303
v -0.891671 0.322182 0.285650
v -0.829333 0.368622 0.321641
v -0.891671 0.322182 0.285650
v -0.901314 0.322182 0.321641
v -0.829333 0.368622 0.321641
v -0.916430 0.289674 0.321641
v -0.904762 0.289674 0.365189
v -0.891671 0.322182 0.357632
v -0.901314 0.322182 0.321641
v -0.904762 0.289674 0.365189
v -0.872882 0.289674 0.397070
v -0.865323 0.322182 0.383979
v -0.891671 0.322182 0.357632
v -0.872882 0.289674 0.397070
v -0.829333 0.289674 0.408738
v -0.829333 0.322182 0.393622
v -0.865323 0.322182 0.383979
v -0.829333 0.289674 0.408738
v -0.785784 0.289674 0.397070
v -0.793342 0.322182 0.383979
v -0.829333 0.322182 0.393622
v -0.785784 0.289674 0.397070
v -0.753904 0.289674 0.365190
v -0.766995 0.322182 0.357632
v -0.793342 0.322182 0.383979
v -0.753904 0.289674 0.365190
v -0.742235 0.289674 0.321641
v -0.757351 0.322182 0.321641
v -0.766995 0.322182 0.357632
v -0.742235 0.289674 0.321641
v -0.753904 0.289674 0.278092
v -0.766995 0.322182 0.285650
v -0.757351 0.322182 0.321641
v -0.753904 0.289674 0.278092
v -0.785784 0.289674 0.246212
v -0.793342 0.322182 0.259303
v -0.766995 0.322182 0.285650
v -0.785784 0.289674 0.246212
v -0.829333 0.289674 0.234543
v -0.829333 0.322182 0.249660
v -0.793342 0.322182 0.259303
v -0.829333 0.289674 0.234543
v -0.872882 0.289674 0.246212
v -0.865323 0.322182 0.259303
v -0.829333 0.322182 0.249660
v -0.872882 0.289674 0.246212
v -0.904761 0.289674 0.278092
v -0.891671 0.322182 0.285650
v -0.865323 0.322182 0.259303
v -0.904761 0.289674 0.278092
v -0.916430 0.289674 0.321641
v -0.901314 0.322182 0.321641
v -0.891671 0.322182 0.285650
v -0.899882 0.289674 0.321641
v -0.890430 0.289674 0.356915
v -0.904762 0.289674 0.365189
v -0.916430 0.289674 0.321641
v -0.890430 0.289674 0.356915
v -0.864608 0.289674 0.382738
v -0.872882 0.289674 0.397070
v -0.904762 0.289674 0.365189
v -0.864608 0.289674 0.382738
v -0.829333 0.289674 0.392190
v -0.829333 0.289674 0.408738
v -0.872882 0.289674 0.397070
v -0.829333 0.289674 0.392190
v -0.794059 0.289674 0.382738
v -0.785784 0.289674 0.397070
v -0.829333 0.289674 0.408738
v -0.794059 0.289674 0.382738
v -0.768236 0.289674 0.356915
v -0.753904 0.289674 0.365190
v -0.785784 0.289674 0.397070
v -0.768236 0.289674 0.356915
v -0.758784 0.289674 0.321641
v -0.742235 0.289674 0.321641
v -0.753904 0.289674 0.365190
v -0.758784 0.289674 0.321641
v -0.768236 0.289674 0.286366
v -0.753904 0.289674 0.278092
v -0.742235 0.289674 0.321641
v -0.768236 0.289674 0.286366
v -0.794058 0.289674 0.260544
v -0.785784 0.289674 0.246212
v -0.753904 0.289674 0.278092
v -0.794058 0.289674 0.260544
v -0.829333 0.289674 0.251092
v -0.829333 0.289674 0.234543
v -0.785784 0.289674 0.246212
v -0.829333 0.289674 0.251092
v -0.864608 0.289674 0.260544
v -0.872882 0.289674 0.246212
v -0.829333 0.289674 0.234543
v -0.864608 0.289674 0.260544
v -0.890430 0.289674 0.286367
v -0.904761 0.289674 0.278092
v -0.872882 0.289674 0.246212
v -0.890430 0.289674 0.286367
v -0.899882 0.289674 0.321641
v -0.916430 0.289674 0.321641
v -0.904761 0.289674 0.278092
v -0.880763 0.331470 0.321640
v -0.873873 0.331470 0.347356
v -0.890430 0.289674 0.356915
v -0.899882 0.289674 0.321641
v -0.873873 0.331470 0.347356
v -0.855048 0.331470 0.366180
v -0.864608 0.289674 0.382738
v -0.890430 0.289674 0.356915
v -0.855048 0.331470 0.366180
v -0.829333 0.331470 0.373071
v -0.829333 0.289674 0.392190
v -0.864608 0.289674 0.382738
v -0.829333 0.331470 0.373071
v -0.803618 0.331470 0.366180
v -0.794059 0.289674 0.382738
v -0.829333 0.289674 0.392190
v -0.803618 0.331470 0.366180
v -0.784793 0.331470 0.347356
v -0.768236 0.289674 0.356915
v -0.794059 0.289674 0.382738
v -0.784793 0.331470 0.347356
v -0.777903 0.331470 0.321641
v -0.758784 0.289674 0.321641
v -0.768236 0.289674 0.356915
v -0.777903 0.331470 0.321641
v -0.784793 0.331470 0.295926
v -0.768236 0.289674 0.286366
v -0.758784 0.289674 0.321641
v -0.784793 0.331470 0.295926
v -0.803618 0.331470 0.277101
v -0.794058 0.289674 0.260544
v -0.768236 0.289674 0.286366
v -0.803618 0.331470 0.277101
v -0.829333 0.331470 0.270210
v -0.829333 0.289674 0.251092
v -0.794058 0.289674 0.260544
v -0.829333 0.331470 0.270210
v -0.855048 0.331470 0.277101
v -0.864608 0.289674 0.260544
v -0.829333 0.289674 0.251092
v -0.855048 0.331470 0.277101
v -0.873873 0.331470 0.295925
v -0.890430 0.289674 0.286367
v -0.864608 0.289674 0.260544
v -0.873873 0.331470 0.295925
v -0.880763 0.331470 0.321640
v -0.899882 0.289674 0.321641
v -0.890430 0.289674 0.286367
v -0.873873 0.331470 0.295925
v -0.855048 0.331470 0.277101
v -0.829333 0.331470 0.270210
v -0.803618 0.331470 0.277101
v -0.784793 0.331470 0.295926
v -0.777903 0.331470 0.321641
v -0.784793 0.331470 0.347356
v -0.803618 0.331470 0.366180
v -0.829333 0.331470 0.373071
v -0.855048 0.331470 0.366180
v -0.873873 0.331470 0.347356
v -0.880763 0.331470 0.321640
usemtl mat15

vn -0.536496 0.831569 0.143754
vn -0.536496 0.831569 0.143754
vn -0.536496 0.831569 0.143754
vn -0.392742 0.831569 0.392742
vn -0.392742 0.831569 0.392742
vn -0.392742 0.831569 0.392742
vn -0.143754 0.831569 0.536496
vn -0.143754 0.831569 0.536496
vn -0.143754 0.831569 0.536496
vn 0.143753 0.831569 0.536496
vn 0.143753 0.831569 0.536496
vn 0.143753 0.831569 0.536496
vn 0.392742 0.831569 0.392743
vn 0.392742 0.831569 0.392743
vn 0.392742 0.831569 0.392743
vn 0.536496 0.831569 0.143754
vn 0.536496 0.831569 0.143754
vn 0.536496 0.831569 0.143754
vn 0.536496 0.831569 -0.143753
vn 0.536496 0.831569 -0.143753
vn 0.536496 0.831569 -0.143753
vn 0.392742 0.831569 -0.392742
vn 0.392742 0.831569 -0.392742
vn 0.392742 0.831569 -0.392742
vn 0.143754 0.831569 -0.536496
vn 0.143754 0.831569 -0.536496
vn 0.143754 0.831569 -0.536496
vn -0.143753 0.831569 -0.536496
vn -0.143753 0.831569 -0.536496
vn -0.143753 0.831569 -0.536496
vn -0.392742 0.831569 -0.392742
vn -0.392742 0.831569 -0.392742
vn -0.392742 0.831569 -0.392742
vn -0.536496 0.831569 -0.143753
vn -0.536496 0.831569 -0.143753
vn -0.536496 0.831569 -0.143753
vn -0.881126 0.409725 0.236097
vn -0.881126 0.409725 0.236097
vn -0.881126 0.409725 0.236097
vn -0.881126 0.409725 0.236097
vn -0.645031 0.409722 0.645029
vn -0.645031 0.409722 0.645029
vn -0.645031 0.409722 0.645029
vn -0.645031 0.409722 0.645029
vn -0.236098 0.409721 0.881128
vn -0.236098 0.409721 0.881128
vn -0.236098 0.409721 0.881128
vn -0.236098 0.409721 0.881128
vn 0.236095 0.409723 0.881128
vn 0.236095 0.409723 0.881128
vn 0.236095 0.409723 0.881128
vn 0.236095 0.409723 0.881128
vn 0.645030 0.409724 0.645029
vn 0.645030 0.409724 0.645029
vn 0.645030 0.409724 0.645029
vn 0.645030 0.409724 0.645029
vn 0.881127 0.409723 0.236097
vn 0.881127 0.409723 0.236097
vn 0.881127 0.409723 0.236097
vn 0.881127 0.409723 0.236097
vn 0.881127 0.409723 -0.236097
vn 0.881127 0.409723 -0.236097
vn 0.881127 0.409723 -0.236097
vn 0.881127 0.409723 -0.236097
vn 0.645029 0.409725 -0.645029
vn 0.645029 0.409725 -0.645029
vn 0.645029 0.409725 -0.645029
vn 0.645029 0.409725 -0.645029
vn 0.236099 0.409727 -0.881125
vn 0.236099 0.409727 -0.881125
vn 0.236099 0.409727 -0.881125
vn 0.236099 0.409727 -0.881125
vn -0.236099 0.409727 -0.881125
vn -0.236099 0.409727 -0.881125
vn -0.236099 0.409727 -0.881125
vn -0.236099 0.409727 -0.881125
vn -0.645030 0.409724 -0.645029
vn -0.645030 0.409724 -0.645029
vn -0.645030 0.409724 -0.645029
vn -0.645030 0.409724 -0.645029
vn -0.881126 0.409726 -0.236098
vn -0.881126 0.409726 -0.236098
vn -0.881126 0.409726 -0.236098
vn -0.881126 0.409726 -0.236098
vn -0.000010 -1.000000 0.000003
vn -0.000010 -1.000000 0.000003
vn -0.000010 -1.000000 0.000003
vn -0.000010 -1.000000 0.000003
vn -0.000007 -1.000000 0.000007
vn -0.000007 -1.000000 0.000007
vn -0.000007 -1.000000 0.000007
vn -0.000007 -1.000000 0.000007
vn -0.000003 -1.000000 0.000010
vn -0.000003 -1.000000 0.000010
vn -0.000003 -1.000000 0.000010
vn -0.000003 -1.000000 0.000010
vn 0.000003 -1.000000 0.000011
vn 0.000003 -1.000000 0.000011
vn 0.000003 -1.000000 0.000011
vn 0.000003 -1.000000 0.000011
vn 0.000008 -1.000000 0.000008
vn 0.000008 -1.000000 0.000008
vn 0.000008 -1.000000 0.000008
vn 0.000008 -1.000000 0.000008
vn 0.000010 -1.000000 0.000003
vn 0.000010 -1.000000 0.000003
vn 0.000010 -1.000000 0.000003
vn 0.000010 -1.000000 0.000003
vn 0.000010 -1.000000 -0.000002
vn 0.000010 -1.000000 -0.000002
vn 0.000010 -1.000000 -0.000002
vn 0.000010 -1.000000 -0.000002
vn 0.000008 -1.000000 -0.000007
vn 0.000008 -1.000000 -0.000007
vn 0.000008 -1.000000 -0.000007
vn 0.000008 -1.000000 -0.000007
vn 0.000003 -1.000000 -0.000010
vn 0.000003 -1.000000 -0.000010
vn 0.000003 -1.000000 -0.000010
vn 0.000003 -1.000000 -0.000010
vn -0.000003 -1.000000 -0.000010
vn -0.000003 -1.000000 -0.000010
vn -0.000003 -1.000000 -0.000010
vn -0.000003 -1.000000 -0.000010
vn -0.000007 -1.000000 -0.000007
vn -0.000007 -1.000000 -0.000007
vn -0.000007 -1.000000 -0.000007
vn -0.000007 -1.000000 -0.000007
vn -0.000010 -1.000000 -0.000003
vn -0.000010 -1.000000 -0.000003
vn -0.000010 -1.000000 -0.000003
vn -0.000010 -1.000000 -0.000003
vn 0.883524 -0.404154 -0.236739
vn 0.883524 -0.404154 -0.236739
vn 0.883524 -0.404154 -0.236739
vn 0.883524 -0.404154 -0.236739
vn 0.646785 -0.404155 -0.646783
vn 0.646785 -0.404155 -0.646783
vn 0.646785 -0.404155 -0.646783
vn 0.646785 -0.404155 -0.646783
vn 0.236737 -0.404157 -0.883523
vn 0.236737 -0.404157 -0.883523
vn 0.236737 -0.404157 -0.883523
vn 0.236737 -0.404157 -0.883523
vn -0.236733 -0.404161 -0.883522
vn -0.236733 -0.404161 -0.883522
vn -0.236733 -0.404161 -0.883522
vn -0.236733 -0.404161 -0.883522
vn -0.646781 -0.404160 -0.646783
vn -0.646781 -0.404160 -0.646783
vn -0.646781 -0.404160 -0.646783
vn -0.646781 -0.404160 -0.646783
vn -0.883522 -0.404159 -0.236739
vn -0.883522 -0.404159 -0.236739
vn -0.883522 -0.404159 -0.236739
vn -0.883522 -0.404159 -0.236739
vn -0.883522 -0.404157 0.236740
vn -0.883522 -0.404157 0.236740
vn -0.883522 -0.404157 0.236740
vn -0.883522 -0.404157 0.236740
vn -0.646784 -0.404155 0.646784
vn -0.646784 -0.404155 0.646784
vn -0.646784 -0.404155 0.646784
vn -0.646784 -0.404155 0.646784
vn -0.236746 -0.404153 0.883522
vn -0.236746 -0.404153 0.883522
vn -0.236746 -0.404153 0.883522
vn -0.236746 -0.404153 0.883522
vn 0.236745 -0.404151 0.883523
vn 0.236745 -0.404151 0.883523
vn 0.236745 -0.404151 0.883523
vn 0.236745 -0.404151 0.883523
vn 0.646788 -0.404149 0.646783
vn 0.646788 -0.404149 0.646783
vn 0.646788 -0.404149 0.646783
vn 0.646788 -0.404149 0.646783
vn 0.883524 -0.404151 0.236744
vn 0.883524 -0.404151 0.236744
vn 0.883524 -0.404151 0.236744
vn 0.883524 -0.404151 0.236744
vn 0.000000 -1.000000 -0.000000
vn 0.000000 -1.000000 -0.000000
vn 0.000000 -1.000000 -0.000000
vn 0.000000 -1.000000 -0.000000
vn 0.000000 -1.000000 -0.000000
vn 0.000000 -1.000000 -0.000000
vn 0.000000 -1.000000 -0.000000
vn 0.000000 -1.000000 -0.000000
vn 0.000000 -1.000000 -0.000000
vn 0.000000 -1.000000 -0.000000
vn 0.000000 -1.000000 -0.000000
vn 0.000000 -1.000000 -0.000000

vt -0.079688 -0.084577
vt -0.083404 -0.084854
vt -0.082166 -0.076377
vt -0.041700 -0.089986
vt -0.045132 -0.088535
vt -0.040162 -0.081559
vt -0.008232 -0.115101
vt -0.010714 -0.112321
vt -0.003236 -0.108143
vt 0.012735 -0.146499
vt 0.011567 -0.142960
vt 0.020090 -0.142109
vt 0.017010 -0.170681
vt 0.017397 -0.166975
vt 0.025520 -0.169697
vt -0.004753 -0.181297
vt -0.002530 -0.178306
vt 0.003070 -0.184789
vt -0.066415 -0.167569
vt -0.062726 -0.167042
vt -0.063387 -0.175582
vt -0.121920 -0.128742
vt -0.119114 -0.131194
vt -0.126018 -0.136264
vt -0.136712 -0.114262
vt -0.135785 -0.117871
vt -0.144347 -0.118147
vt -0.136451 -0.115431
vt -0.137163 -0.119089
vt -0.145014 -0.115662
vt -0.128495 -0.111147
vt -0.130597 -0.114223
vt -0.136449 -0.107968
vt -0.110408 -0.097045
vt -0.113601 -0.098966
vt -0.116313 -0.090840
vt -0.085852 0.001034
vt -0.090340 0.000600
vt -0.090294 0.004184
vt -0.086585 0.004543
vt -0.003060 0.000628
vt -0.007035 0.002756
vt -0.005008 0.005713
vt -0.001723 0.003955
vt 0.056236 -0.058419
vt 0.053408 -0.054908
vt 0.056428 -0.052977
vt 0.058766 -0.055879
vt 0.088802 -0.116980
vt 0.086904 -0.112891
vt 0.090301 -0.111745
vt 0.091870 -0.115125
vt 0.108178 -0.144490
vt 0.106958 -0.140149
vt 0.110494 -0.139561
vt 0.111503 -0.143148
vt 0.121938 -0.130867
vt 0.121215 -0.126417
vt 0.124795 -0.126231
vt 0.125393 -0.129908
vt 0.143677 -0.055396
vt 0.142539 -0.051033
vt 0.146086 -0.050512
vt 0.147026 -0.054118
vt -0.132935 0.025973
vt -0.133553 0.021507
vt -0.137029 0.022383
vt -0.136518 0.026074
vt -0.141438 -0.044614
vt -0.142485 -0.048999
vt -0.145861 -0.047791
vt -0.144995 -0.044167
vt -0.147129 -0.091075
vt -0.148795 -0.095264
vt -0.151962 -0.093584
vt -0.150585 -0.090122
vt -0.148763 -0.097616
vt -0.151271 -0.101363
vt -0.154015 -0.099056
vt -0.151943 -0.095959
vt -0.136701 -0.057817
vt -0.140322 -0.060503
vt -0.142131 -0.057408
vt -0.139138 -0.055188
vt 0.073486 -0.154531
vt 0.077125 -0.154828
vt 0.077423 -0.156456
vt 0.072929 -0.156090
vt 0.077126 -0.154827
vt 0.080427 -0.153264
vt 0.081498 -0.154525
vt 0.077423 -0.156455
vt 0.080427 -0.153264
vt 0.082504 -0.150260
vt 0.084062 -0.150816
vt 0.081499 -0.154525
vt 0.082504 -0.150259
vt 0.082800 -0.146619
vt 0.084428 -0.146322
vt 0.084063 -0.150816
vt 0.082800 -0.146619
vt 0.081237 -0.143319
vt 0.082498 -0.142247
vt 0.084428 -0.146322
vt 0.081236 -0.143318
vt 0.078232 -0.141242
vt 0.078789 -0.139683
vt 0.082498 -0.142247
vt 0.078232 -0.141242
vt 0.074592 -0.140946
vt 0.074295 -0.139318
vt 0.078788 -0.139683
vt 0.074591 -0.140946
vt 0.071291 -0.142509
vt 0.070219 -0.141248
vt 0.074294 -0.139318
vt 0.071290 -0.142510
vt 0.069213 -0.145514
vt 0.067655 -0.144957
vt 0.070219 -0.141248
vt 0.069213 -0.145514
vt 0.068917 -0.149154
vt 0.067289 -0.149451
vt 0.067655 -0.144957
vt 0.068917 -0.149154
vt 0.070480 -0.152455
vt 0.069219 -0.153526
vt 0.067289 -0.149451
vt 0.070481 -0.152455
vt 0.073485 -0.154531
vt 0.072928 -0.156090
vt 0.069220 -0.153526
vt 0.087376 0.007113
vt 0.090026 0.006855
vt 0.090076 0.002259
vt 0.086441 0.002613
vt 0.000850 0.006690
vt 0.003195 0.007951
vt 0.005795 0.004161
vt 0.002579 0.002431
vt -0.060460 -0.053858
vt -0.058793 -0.051782
vt -0.054920 -0.054257
vt -0.057207 -0.057104
vt -0.093869 -0.113585
vt -0.092747 -0.111171
vt -0.088395 -0.112649
vt -0.089935 -0.115961
vt -0.113723 -0.141704
vt -0.112993 -0.139144
vt -0.108463 -0.139921
vt -0.109464 -0.143433
vt -0.128005 -0.127898
vt -0.127552 -0.125275
vt -0.122965 -0.125565
vt -0.123587 -0.129164
vt -0.151574 -0.041964
vt -0.150709 -0.039446
vt -0.146227 -0.040463
vt -0.147414 -0.043917
vt 0.137169 0.027628
vt 0.137572 0.024996
vt 0.133130 0.023816
vt 0.132578 0.027426
vt 0.146383 -0.043705
vt 0.147014 -0.046291
vt 0.142693 -0.047856
vt 0.141826 -0.044308
vt 0.152212 -0.089884
vt 0.153199 -0.092357
vt 0.149138 -0.094511
vt 0.147784 -0.091119
vt 0.153697 -0.095509
vt 0.155175 -0.097722
vt 0.151651 -0.100672
vt 0.149622 -0.097635
vt 0.140838 -0.053936
vt 0.142973 -0.055527
vt 0.140639 -0.059487
vt 0.137711 -0.057305
vt 0.071939 -0.151216
vt 0.070799 -0.148810
vt 0.071015 -0.146157
vt 0.072529 -0.143967
vt 0.074935 -0.142827
vt 0.077588 -0.143043
vt 0.079778 -0.144557
vt 0.080918 -0.146963
vt 0.080702 -0.149616
vt 0.079188 -0.151806
vt 0.076782 -0.152946
vt 0.074129 -0.152730
s off
f 1/1/1 2/2/2 3/3/3
f 4/4/4 5/5/5 6/6/6
f 7/7/7 8/8/8 9/9/9
f 10/10/10 11/11/11 12/12/12
f 13/13/13 14/14/14 15/15/15
f 16/16/16 17/17/17 18/18/18
f 19/19/19 20/20/20 21/21/21
f 22/22/22 23/23/23 24/24/24
f 25/25/25 26/26/26 27/27/27
f 28/28/28 29/29/29 30/30/30
f 31/31/31 32/32/32 33/33/33
f 34/34/34 35/35/35 36/36/36
f 37/37/37 38/38/38 39/39/39
f 37/37/37 39/39/39 40/40/40
f 41/41/41 42/42/42 43/43/43
f 41/41/41 43/43/43 44/44/44
f 45/45/45 46/46/46 47/47/47
f 45/45/45 47/47/47 48/48/48
f 49/49/49 50/50/50 51/51/51
f 49/49/49 51/51/51 52/52/52
f 53/53/53 54/54/54 55/55/55
f 53/53/53 55/55/55 56/56/56
f 57/57/57 58/58/58 59/59/59
f 57/57/57 59/59/59 60/60/60
f 61/61/61 62/62/62 63/63/63
f 61/61/61 63/63/63 64/64/64
f 65/65/65 66/66/66 67/67/67
f 65/65/65 67/67/67 68/68/68
f 69/69/69 70/70/70 71/71/71
f 69/69/69 71/71/71 72/72/72
f 73/73/73 74/74/74 75/75/75
f 73/73/73 75/75/75 76/76/76
f 77/77/77 78/78/78 79/79/79
f 77/77/77 79/79/79 80/80/80
f 81/81/81 82/82/82 83/83/83
f 81/81/81 83/83/83 84/84/84
f 85/85/85 86/86/86 87/87/87
f 85/85/85 87/87/87 88/88/88
f 89/89/89 90/90/90 91/91/91
f 89/89/89 91/91/91 92/92/92
f 93/93/93 94/94/94 95/95/95
f 93/93/93 95/95/95 96/96/96
f 97/97/97 98/98/98 99/99/99
f 97/97/97 99/99/99 100/100/100
f 101/101/101 102/102/102 103/103/103
f 101/101/101 103/103/103 104/104/104
f 105/105/105 106/106/106 107/107/107
f 105/105/105 107/107/107 108/108/108
f 109/109/109 110/110/110 111/111/111
f 109/109/109 111/111/111 112/112/112
f 113/113/113 114/114/114 115/115/115
f 113/113/113 115/115/115 116/116/116
f 117/117/117 118/118/118 119/119/119
f 117/117/117 119/119/119 120/120/120
f 121/121/121 122/122/122 123/123/123
f 121/121/121 123/123/123 124/124/124
f 125/125/125 126/126/126 127/127/127
f 125/125/125 127/127/127 128/128/128
f 129/129/129 130/130/130 131/131/131
f 129/129/129 131/131/131 132/132/132
f 133/133/133 134/134/134 135/135/135
f 133/133/133 135/135/135 136/136/136
f 137/137/137 138/138/138 139/139/139
f 137/137/137 139/139/139 140/140/140
f 141/141/141 142/142/142 143/143/143
f 141/141/141 143/143/143 144/144/144
f 145/145/145 146/146/146 147/147/147
f 145/145/145 147/147/147 148/148/148
f 149/149/149 150/150/150 151/151/151
f 149/149/149 151/151/151 152/152/152
f 153/153/153 154/154/154 155/155/155
f 153/153/153 155/155/155 156/156/156
f 157/157/157 158/158/158 159/159/159
f 157/157/157 159/159/159 160/160/160
f 161/161/161 162/162/162 163/163/163
f 161/161/161 163/163/163 164/164/164
f 165/165/165 166/166/166 167/167/167
f 165/165/165 167/167/167 168/168/168
f 169/169/169 170/170/170 171/171/171
f 169/169/169 171/171/171 172/172/172
f 173/173/173 174/174/174 175/175/175
f 173/173/173 175/175/175 176/176/176
f 177/177/177 178/178/178 179/179/179
f 177/177/177 179/179/179 180/180/180
f 181/181/181 182/182/182 183/183/183
f 181/181/181 183/183/183 184/184/184
f 181/181/181 184/184/184 185/185/185
f 181/181/181 185/185/185 186/186/186
f 181/181/181 186/186/186 187/187/187
f 181/181/181 187/187/187 188/188/188
f 181/181/181 188/188/188 189/189/189
f 181/181/181 189/189/189 190/190/190
f 181/181/181 190/190/190 191/191/191
f 181/181/181 191/191/191 192/192/192
