# Exported using automatic converter by Erwin Coumans
mtllib model6.mtl
#object group1546383804_4

v -1.566762 0.175489 0.920802
v -1.566762 0.195489 0.920802
v -1.566762 0.195489 0.810803
v -1.566762 0.175489 0.810803
v -1.406762 0.195489 0.810803
v -1.406762 0.195489 0.920802
v -1.406762 0.175489 0.920802
v -1.406762 0.175489 0.810803
v -1.566762 0.195489 0.810803
v -1.406762 0.195489 0.810803
v -1.406762 0.175489 0.810803
v -1.566762 0.175489 0.810803
v -1.406762 0.175489 0.920802
v -1.406762 0.195489 0.920802
v -1.566762 0.195489 0.920802
v -1.566762 0.175489 0.920802
v -1.406762 0.175489 0.810803
v -1.406762 0.175489 0.920802
v -1.566762 0.175489 0.920802
v -1.566762 0.175489 0.810803
v -1.566762 0.195489 0.920802
v -1.406762 0.195489 0.920802
v -1.406762 0.195489 0.810803
v -1.566762 0.195489 0.810803
usemtl mat13

vn -1.000000 0.000000 -0.000000
vn -1.000000 0.000000 -0.000000
vn -1.000000 0.000000 -0.000000
vn -1.000000 0.000000 -0.000000
vn 1.000000 0.000000 0.000000
vn 1.000000 0.000000 0.000000
vn 1.000000 0.000000 0.000000
vn 1.000000 0.000000 0.000000
vn 0.000000 0.000000 -1.000000
vn 0.000000 0.000000 -1.000000
vn 0.000000 0.000000 -1.000000
vn 0.000000 0.000000 -1.000000
vn -0.000000 -0.000000 1.000000
vn -0.000000 -0.000000 1.000000
vn -0.000000 -0.000000 1.000000
vn -0.000000 -0.000000 1.000000
vn 0.000000 -1.000000 0.000000
vn 0.000000 -1.000000 0.000000
vn 0.000000 -1.000000 0.000000
vn 0.000000 -1.000000 0.000000
vn 0.000000 1.000000 -0.000000
vn 0.000000 1.000000 -0.000000
vn 0.000000 1.000000 -0.000000
vn 0.000000 1.000000 -0.000000

vt -0.185725 -0.051553
vt -0.186887 -0.049926
vt -0.177936 -0.043532
vt -0.176774 -0.045159
vt 0.177936 -0.043532
vt 0.186887 -0.049926
vt 0.185725 -0.051553
vt 0.176774 -0.045159
vt -0.144674 -0.137295
vt -0.137518 -0.122984
vt -0.135729 -0.123878
vt -0.142885 -0.138189
vt 0.135729 -0.123878
vt 0.137518 -0.122984
vt 0.144674 -0.137295
vt 0.142885 -0.138189
vt 0.102504 -0.218718
vt 0.112863 -0.222418
vt 0.107482 -0.237485
vt 0.097123 -0.233786
vt -0.107482 -0.237485
vt -0.112863 -0.222418
vt -0.102504 -0.218718
vt -0.097123 -0.233786
s off
f 1/1/1 2/2/2 3/3/3
f 1/1/1 3/3/3 4/4/4
f 5/5/5 6/6/6 7/7/7
f 5/5/5 7/7/7 8/8/8
f 9/9/9 10/10/10 11/11/11
f 9/9/9 11/11/11 12/12/12
f 13/13/13 14/14/14 15/15/15
f 13/13/13 15/15/15 16/16/16
f 17/17/17 18/18/18 19/19/19
f 17/17/17 19/19/19 20/20/20
f 21/21/21 22/22/22 23/23/23
f 21/21/21 23/23/23 24/24/24
