# Exported using automatic converter by Erwin Coumans
mtllib model6.mtl
#object mesh1592913841

v -1.001762 0.465489 -2.740148
v -1.001762 0.465489 -3.050148
v -1.001762 0.185489 -3.050148
v -1.001762 0.185489 -2.740148
v -0.451762 0.185489 -3.050148
v -0.451762 0.465489 -3.050148
v -0.451762 0.465489 -2.740148
v -0.451762 0.185489 -2.740148
v -1.001762 0.185489 -3.050148
v -0.451762 0.185489 -3.050148
v -0.451762 0.185489 -2.740148
v -1.001762 0.185489 -2.740148
v -0.451762 0.465489 -2.740148
v -0.451762 0.465489 -3.050148
v -1.001762 0.465489 -3.050148
v -1.001762 0.465489 -2.740148
v -0.451762 0.185489 -2.740148
v -0.451762 0.465489 -2.740148
v -1.001762 0.465489 -2.740148
v -1.001762 0.185489 -2.740148
v -1.001762 0.465489 -3.050148
v -0.451762 0.465489 -3.050148
v -0.451762 0.185489 -3.050148
v -1.001762 0.185489 -3.050148
usemtl mat18

vn -1.000000 0.000000 -0.000000
vn -1.000000 0.000000 -0.000000
vn -1.000000 0.000000 -0.000000
vn -1.000000 0.000000 -0.000000
vn 1.000000 0.000000 0.000000
vn 1.000000 0.000000 0.000000
vn 1.000000 0.000000 0.000000
vn 1.000000 0.000000 0.000000
vn -0.000000 -1.000000 0.000000
vn -0.000000 -1.000000 0.000000
vn -0.000000 -1.000000 0.000000
vn -0.000000 -1.000000 0.000000
vn 0.000000 1.000000 -0.000000
vn 0.000000 1.000000 -0.000000
vn 0.000000 1.000000 -0.000000
vn 0.000000 1.000000 -0.000000
vn -0.000000 0.000000 1.000000
vn -0.000000 0.000000 1.000000
vn -0.000000 0.000000 1.000000
vn -0.000000 0.000000 1.000000
vn 0.000000 -0.000000 -1.000000
vn 0.000000 -0.000000 -1.000000
vn 0.000000 -0.000000 -1.000000
vn 0.000000 -0.000000 -1.000000

vt 0.095323 0.184834
vt 0.120549 0.202852
vt 0.136823 0.180068
vt 0.111598 0.162049
vt -0.136823 0.180068
vt -0.120549 0.202852
vt -0.095323 0.184834
vt -0.111598 0.162049
vt -0.247476 -0.050720
vt -0.228978 0.001076
vt -0.199784 -0.009350
vt -0.218282 -0.061146
vt 0.199784 -0.009350
vt 0.228978 0.001076
vt 0.247476 -0.050720
vt 0.218282 -0.061146
vt 0.093915 -0.038013
vt 0.118959 -0.025491
vt 0.143556 -0.074685
vt 0.118512 -0.087207
vt -0.143556 -0.074685
vt -0.118959 -0.025491
vt -0.093915 -0.038013
vt -0.118512 -0.087207
s off
f 1/1/1 2/2/2 3/3/3
f 1/1/1 3/3/3 4/4/4
f 5/5/5 6/6/6 7/7/7
f 5/5/5 7/7/7 8/8/8
f 9/9/9 10/10/10 11/11/11
f 9/9/9 11/11/11 12/12/12
f 13/13/13 14/14/14 15/15/15
f 13/13/13 15/15/15 16/16/16
f 17/17/17 18/18/18 19/19/19
f 17/17/17 19/19/19 20/20/20
f 21/21/21 22/22/22 23/23/23
f 21/21/21 23/23/23 24/24/24
