# Exported using automatic converter by Erwin Coumans
mtllib model6.mtl
#object mesh1919387022

v -2.068398 -0.981179 0.110550
v -2.071548 -0.987116 0.065792
v -2.073032 -1.056862 0.060023
v -2.069882 -1.050925 0.104781
v -1.992336 -1.055255 0.088149
v -1.990851 -0.985509 0.093918
v -1.977701 -0.989572 0.188677
v -1.979186 -1.059318 0.182907
v -1.992336 -1.055255 0.088149
v -1.979186 -1.059318 0.182907
v -2.069882 -1.050925 0.104781
v -1.977701 -0.989572 0.188677
v -1.990851 -0.985509 0.093918
v -2.068398 -0.981179 0.110550
v -1.979186 -1.059318 0.182907
v -1.977701 -0.989572 0.188677
v -2.068398 -0.981179 0.110550
v -2.069882 -1.050925 0.104781
v -2.071548 -0.987116 0.065792
v -1.990851 -0.985509 0.093918
v -1.992336 -1.055255 0.088149
v -2.073032 -1.056862 0.060023
v -1.990851 -0.985509 0.093918
v -2.071548 -0.987116 0.065792
v -2.068398 -0.981179 0.110550
v -2.069882 -1.050925 0.104781
v -2.073032 -1.056862 0.060023
v -1.992336 -1.055255 0.088149
v -2.054078 -0.990707 0.478977
v -2.064957 -0.986860 0.383922
v -2.062416 -1.056549 0.377836
v -2.051536 -1.060395 0.472890
v -1.973461 -1.060331 0.458289
v -1.976003 -0.990642 0.464376
v -1.965123 -0.994489 0.559430
v -1.962582 -1.064177 0.553344
v -2.062416 -1.056549 0.377836
v -1.973461 -1.060331 0.458289
v -1.962582 -1.064177 0.553344
v -2.051536 -1.060395 0.472890
v -1.965123 -0.994489 0.559430
v -1.976003 -0.990642 0.464376
v -2.064957 -0.986860 0.383922
v -2.054078 -0.990707 0.478977
v -1.962582 -1.064177 0.553344
v -1.965123 -0.994489 0.559430
v -2.054078 -0.990707 0.478977
v -2.051536 -1.060395 0.472890
v -2.064957 -0.986860 0.383922
v -1.976003 -0.990642 0.464376
v -1.973461 -1.060331 0.458289
v -2.062416 -1.056549 0.377836
v -2.047217 -0.989087 0.663309
v -2.054283 -0.987598 0.567829
v -2.048451 -1.057210 0.563349
v -2.041386 -1.058700 0.658829
v -1.962847 -1.055449 0.647425
v -1.968679 -0.985837 0.651905
v -1.961613 -0.987326 0.747385
v -1.955781 -1.056939 0.742905
v -2.048451 -1.057210 0.563349
v -1.962847 -1.055449 0.647425
v -1.955781 -1.056939 0.742905
v -2.041386 -1.058700 0.658829
v -1.961613 -0.987326 0.747385
v -1.968679 -0.985837 0.651905
v -2.054283 -0.987598 0.567829
v -2.047217 -0.989087 0.663309
v -1.955781 -1.056939 0.742905
v -1.961613 -0.987326 0.747385
v -2.047217 -0.989087 0.663309
v -2.041386 -1.058700 0.658829
v -2.054283 -0.987598 0.567829
v -1.968679 -0.985837 0.651905
v -1.962847 -1.055449 0.647425
v -2.048451 -1.057210 0.563349
v -2.061765 -0.984930 0.296552
v -2.071215 -0.982463 0.201299
v -2.069774 -1.052275 0.196379
v -2.060324 -1.054742 0.291632
v -1.982059 -1.056229 0.278174
v -1.983499 -0.986417 0.283094
v -1.974050 -0.988883 0.378347
v -1.972609 -1.058695 0.373427
v -2.069774 -1.052275 0.196379
v -1.982059 -1.056229 0.278174
v -1.972609 -1.058695 0.373427
v -2.060324 -1.054742 0.291632
v -1.974050 -0.988883 0.378347
v -1.983499 -0.986417 0.283094
v -2.071215 -0.982463 0.201299
v -2.061765 -0.984930 0.296552
v -1.972609 -1.058695 0.373427
v -1.974050 -0.988883 0.378347
v -2.061765 -0.984930 0.296552
v -2.060324 -1.054742 0.291632
v -2.071215 -0.982463 0.201299
v -1.983499 -0.986417 0.283094
v -1.982059 -1.056229 0.278174
v -2.069774 -1.052275 0.196379
usemtl mat23

vn -0.997554 0.015600 0.068130
vn -0.997554 0.015600 0.068130
vn -0.997554 0.015600 0.068130
vn -0.997554 0.015600 0.068130
vn 0.990405 -0.009680 -0.137853
vn 0.990405 -0.009680 -0.137853
vn 0.990405 -0.009680 -0.137853
vn 0.990405 -0.009680 -0.137853
vn -0.062992 -0.997434 -0.034026
vn -0.062992 -0.997434 -0.034026
vn -0.062992 -0.997434 -0.034026
vn 0.062992 0.997434 0.034026
vn 0.062992 0.997434 0.034026
vn 0.062992 0.997434 0.034026
vn -0.654454 -0.048482 0.754546
vn -0.654454 -0.048482 0.754546
vn -0.654454 -0.048482 0.754546
vn -0.654454 -0.048482 0.754546
vn 0.327033 0.070985 -0.942343
vn 0.327033 0.070985 -0.942343
vn 0.327033 0.070985 -0.942343
vn 0.327033 0.070985 -0.942343
vn 0.026730 0.990716 -0.133296
vn 0.026730 0.990716 -0.133296
vn 0.026730 0.990716 -0.133296
vn -0.026730 -0.990716 0.133295
vn -0.026730 -0.990716 0.133295
vn -0.026730 -0.990716 0.133295
vn -0.992672 -0.045965 0.111756
vn -0.992672 -0.045965 0.111756
vn -0.992672 -0.045965 0.111756
vn -0.992672 -0.045965 0.111756
vn 0.992672 0.045965 -0.111755
vn 0.992672 0.045965 -0.111755
vn 0.992672 0.045965 -0.111755
vn 0.992672 0.045965 -0.111755
vn -0.006596 -0.999191 -0.039677
vn -0.006596 -0.999191 -0.039677
vn -0.006596 -0.999191 -0.039677
vn -0.006596 -0.999191 -0.039677
vn 0.006596 0.999191 0.039678
vn 0.006596 0.999191 0.039678
vn 0.006596 0.999191 0.039678
vn 0.006596 0.999191 0.039678
vn -0.670205 -0.088796 0.736845
vn -0.670205 -0.088796 0.736845
vn -0.670205 -0.088796 0.736845
vn -0.670205 -0.088796 0.736845
vn 0.670205 0.088796 -0.736845
vn 0.670205 0.088796 -0.736845
vn 0.670205 0.088796 -0.736845
vn 0.670205 0.088796 -0.736845
vn -0.993515 -0.087875 0.072153
vn -0.993515 -0.087875 0.072153
vn -0.993515 -0.087875 0.072153
vn -0.993515 -0.087875 0.072153
vn 0.993515 0.087875 -0.072152
vn 0.993515 0.087875 -0.072152
vn 0.993515 0.087875 -0.072152
vn 0.993515 0.087875 -0.072152
vn 0.038673 -0.999082 -0.018450
vn 0.038673 -0.999082 -0.018450
vn 0.038673 -0.999082 -0.018450
vn 0.038673 -0.999082 -0.018450
vn -0.038673 0.999082 0.018450
vn -0.038673 0.999082 0.018450
vn -0.038673 0.999082 0.018450
vn -0.038673 0.999082 0.018450
vn -0.695819 -0.104024 0.710644
vn -0.695819 -0.104024 0.710644
vn -0.695819 -0.104024 0.710644
vn -0.695819 -0.104024 0.710644
vn 0.695819 0.104024 -0.710644
vn 0.695819 0.104024 -0.710644
vn 0.695819 0.104024 -0.710644
vn 0.695819 0.104024 -0.710644
vn -0.994810 -0.027436 0.097977
vn -0.994810 -0.027436 0.097977
vn -0.994810 -0.027436 0.097977
vn -0.994810 -0.027436 0.097977
vn 0.994811 0.027436 -0.097977
vn 0.994811 0.027436 -0.097977
vn 0.994811 0.027436 -0.097977
vn 0.994811 0.027436 -0.097977
vn -0.023051 -0.999456 -0.023592
vn -0.023051 -0.999456 -0.023592
vn -0.023051 -0.999456 -0.023592
vn -0.023051 -0.999456 -0.023592
vn 0.023051 0.999456 0.023592
vn 0.023051 0.999456 0.023592
vn 0.023051 0.999456 0.023592
vn 0.023051 0.999456 0.023592
vn -0.682109 -0.065403 0.728320
vn -0.682109 -0.065403 0.728320
vn -0.682109 -0.065403 0.728320
vn -0.682109 -0.065403 0.728320
vn 0.682109 0.065403 -0.728320
vn 0.682109 0.065403 -0.728320
vn 0.682109 0.065403 -0.728320
vn 0.682109 0.065403 -0.728320

vt -0.046949 -0.087468
vt -0.042742 -0.085798
vt -0.038829 -0.091602
vt -0.043036 -0.093272
vt 0.036869 -0.080115
vt 0.040133 -0.073922
vt 0.048785 -0.078025
vt 0.045521 -0.084218
vt 0.011433 -0.246956
vt 0.020754 -0.249148
vt 0.010168 -0.254798
vt -0.020965 -0.249542
vt -0.011644 -0.247351
vt -0.010378 -0.255192
vt 0.032512 -0.107626
vt 0.037453 -0.102668
vt 0.045953 -0.111139
vt 0.041012 -0.116097
vt -0.059142 -0.188138
vt -0.055190 -0.180559
vt -0.049210 -0.184197
vt -0.053161 -0.191776
vt -0.023342 -0.244459
vt -0.018386 -0.251422
vt -0.022808 -0.252384
vt 0.021376 -0.251931
vt 0.016954 -0.250969
vt 0.021910 -0.244006
vt -0.078047 -0.086330
vt -0.069803 -0.081459
vt -0.065992 -0.087331
vt -0.074236 -0.092201
vt 0.073558 -0.092243
vt 0.077369 -0.086371
vt 0.085613 -0.091242
vt 0.081802 -0.097113
vt 0.036958 -0.267024
vt 0.047636 -0.261550
vt 0.056920 -0.263895
vt 0.046241 -0.269369
vt -0.057124 -0.264293
vt -0.047840 -0.261948
vt -0.037162 -0.267422
vt -0.046445 -0.269767
vt 0.018589 -0.076674
vt 0.023830 -0.072034
vt 0.031785 -0.081018
vt 0.026544 -0.085658
vt -0.036250 -0.086670
vt -0.028295 -0.077686
vt -0.023054 -0.082326
vt -0.031009 -0.091310
vt -0.096861 -0.102213
vt -0.089085 -0.096625
vt -0.084764 -0.102132
vt -0.092539 -0.107720
vt 0.091860 -0.107701
vt 0.096182 -0.102194
vt 0.103957 -0.107782
vt 0.099636 -0.113289
vt 0.057316 -0.273126
vt 0.068123 -0.267909
vt 0.077348 -0.270476
vt 0.066541 -0.275693
vt -0.077542 -0.270879
vt -0.068317 -0.268312
vt -0.057511 -0.273529
vt -0.066735 -0.276096
vt 0.009403 -0.054511
vt 0.014786 -0.050036
vt 0.022457 -0.059265
vt 0.017074 -0.063739
vt -0.026743 -0.065053
vt -0.019072 -0.055825
vt -0.013689 -0.060299
vt -0.021360 -0.069528
vt -0.062556 -0.083403
vt -0.054272 -0.078600
vt -0.050509 -0.084502
vt -0.058792 -0.089305
vt 0.058114 -0.089352
vt 0.061878 -0.083450
vt 0.070162 -0.088253
vt 0.066398 -0.094155
vt 0.020342 -0.260009
vt 0.031079 -0.254651
vt 0.040337 -0.257097
vt 0.029599 -0.262455
vt -0.040537 -0.257497
vt -0.031279 -0.255052
vt -0.020542 -0.260410
vt -0.029799 -0.262855
vt 0.023060 -0.087010
vt 0.028105 -0.082158
vt 0.036423 -0.090808
vt 0.031377 -0.095660
vt -0.041117 -0.096272
vt -0.032799 -0.087622
vt -0.027753 -0.092474
vt -0.036071 -0.101124
s off
f 1/1/1 2/2/2 3/3/3
f 1/1/1 3/3/3 4/4/4
f 5/5/5 6/6/6 7/7/7
f 5/5/5 7/7/7 8/8/8
f 9/9/9 10/10/10 11/11/11
f 12/12/12 13/13/13 14/14/14
f 15/15/15 16/16/16 17/17/17
f 15/15/15 17/17/17 18/18/18
f 19/19/19 20/20/20 21/21/21
f 19/19/19 21/21/21 22/22/22
f 23/23/23 24/24/24 25/25/25
f 26/26/26 27/27/27 28/28/28
f 29/29/29 30/30/30 31/31/31
f 29/29/29 31/31/31 32/32/32
f 33/33/33 34/34/34 35/35/35
f 33/33/33 35/35/35 36/36/36
f 37/37/37 38/38/38 39/39/39
f 37/37/37 39/39/39 40/40/40
f 41/41/41 42/42/42 43/43/43
f 41/41/41 43/43/43 44/44/44
f 45/45/45 46/46/46 47/47/47
f 45/45/45 47/47/47 48/48/48
f 49/49/49 50/50/50 51/51/51
f 49/49/49 51/51/51 52/52/52
f 53/53/53 54/54/54 55/55/55
f 53/53/53 55/55/55 56/56/56
f 57/57/57 58/58/58 59/59/59
f 57/57/57 59/59/59 60/60/60
f 61/61/61 62/62/62 63/63/63
f 61/61/61 63/63/63 64/64/64
f 65/65/65 66/66/66 67/67/67
f 65/65/65 67/67/67 68/68/68
f 69/69/69 70/70/70 71/71/71
f 69/69/69 71/71/71 72/72/72
f 73/73/73 74/74/74 75/75/75
f 73/73/73 75/75/75 76/76/76
f 77/77/77 78/78/78 79/79/79
f 77/77/77 79/79/79 80/80/80
f 81/81/81 82/82/82 83/83/83
f 81/81/81 83/83/83 84/84/84
f 85/85/85 86/86/86 87/87/87
f 85/85/85 87/87/87 88/88/88
f 89/89/89 90/90/90 91/91/91
f 89/89/89 91/91/91 92/92/92
f 93/93/93 94/94/94 95/95/95
f 93/93/93 95/95/95 96/96/96
f 97/97/97 98/98/98 99/99/99
f 97/97/97 99/99/99 100/100/100
