# Exported using automatic converter by Erwin Coumans
mtllib model6.mtl
#object mesh1393507802

v 3.494022 0.056114 -0.039408
v 3.471963 0.056114 -0.033497
v 3.471963 0.088622 -0.033497
v 3.494022 0.088622 -0.039408
v 3.471963 0.056114 -0.033497
v 3.455815 0.056114 -0.017349
v 3.455815 0.088622 -0.017349
v 3.471963 0.088622 -0.033497
v 3.455815 0.056114 -0.017349
v 3.449904 0.056114 0.004710
v 3.449904 0.088622 0.004710
v 3.455815 0.088622 -0.017349
v 3.449904 0.056114 0.004710
v 3.455815 0.056114 0.026768
v 3.455815 0.088622 0.026768
v 3.449904 0.088622 0.004710
v 3.455815 0.056114 0.026768
v 3.471963 0.056114 0.042917
v 3.471963 0.088622 0.042917
v 3.455815 0.088622 0.026768
v 3.471963 0.056114 0.042917
v 3.494022 0.056114 0.048827
v 3.494022 0.088622 0.048827
v 3.471963 0.088622 0.042917
v 3.494022 0.056114 0.048827
v 3.516081 0.056114 0.042917
v 3.516081 0.088622 0.042917
v 3.494022 0.088622 0.048827
v 3.516081 0.056114 0.042917
v 3.532229 0.056114 0.026768
v 3.532229 0.088622 0.026769
v 3.516081 0.088622 0.042917
v 3.532229 0.056114 0.026768
v 3.538140 0.056114 0.004710
v 3.538140 0.088622 0.004710
v 3.532229 0.088622 0.026769
v 3.538140 0.056114 0.004710
v 3.532229 0.056114 -0.017349
v 3.532229 0.088622 -0.017349
v 3.538140 0.088622 0.004710
v 3.532229 0.056114 -0.017349
v 3.516081 0.056114 -0.033497
v 3.516081 0.088622 -0.033497
v 3.532229 0.088622 -0.017349
v 3.516081 0.056114 -0.033497
v 3.494022 0.056114 -0.039408
v 3.494022 0.088622 -0.039408
v 3.516081 0.088622 -0.033497
v 3.494022 0.088622 -0.039408
v 3.471963 0.088622 -0.033497
v 3.455815 0.088622 -0.017349
v 3.449904 0.088622 0.004710
v 3.455815 0.088622 0.026768
v 3.471963 0.088622 0.042917
v 3.494022 0.088622 0.048827
v 3.516081 0.088622 0.042917
v 3.532229 0.088622 0.026769
v 3.538140 0.088622 0.004710
v 3.532229 0.088622 -0.017349
v 3.516081 0.088622 -0.033497
v 3.516081 0.056114 -0.033497
v 3.532229 0.056114 -0.017349
v 3.538140 0.056114 0.004710
v 3.532229 0.056114 0.026768
v 3.516081 0.056114 0.042917
v 3.494022 0.056114 0.048827
v 3.471963 0.056114 0.042917
v 3.455815 0.056114 0.026768
v 3.449904 0.056114 0.004710
v 3.455815 0.056114 -0.017349
v 3.471963 0.056114 -0.033497
v 3.494022 0.056114 -0.039408
usemtl mat21

vn -0.258813 -0.000002 -0.965927
vn -0.258813 -0.000002 -0.965927
vn -0.258813 -0.000002 -0.965927
vn -0.258813 -0.000002 -0.965927
vn -0.707106 -0.000001 -0.707107
vn -0.707106 -0.000001 -0.707107
vn -0.707106 -0.000001 -0.707107
vn -0.707106 -0.000001 -0.707107
vn -0.965926 0.000000 -0.258818
vn -0.965926 0.000000 -0.258818
vn -0.965926 0.000000 -0.258818
vn -0.965926 0.000000 -0.258818
vn -0.965926 0.000000 0.258818
vn -0.965926 0.000000 0.258818
vn -0.965926 0.000000 0.258818
vn -0.965926 0.000000 0.258818
vn -0.707107 -0.000001 0.707107
vn -0.707107 -0.000001 0.707107
vn -0.707107 -0.000001 0.707107
vn -0.707107 -0.000001 0.707107
vn -0.258813 0.000003 0.965927
vn -0.258813 0.000003 0.965927
vn -0.258813 0.000003 0.965927
vn -0.258813 0.000003 0.965927
vn 0.258813 -0.000001 0.965928
vn 0.258813 -0.000001 0.965928
vn 0.258813 -0.000001 0.965928
vn 0.258813 -0.000001 0.965928
vn 0.707107 -0.000001 0.707107
vn 0.707107 -0.000001 0.707107
vn 0.707107 -0.000001 0.707107
vn 0.707107 -0.000001 0.707107
vn 0.965926 -0.000000 0.258818
vn 0.965926 -0.000000 0.258818
vn 0.965926 -0.000000 0.258818
vn 0.965926 -0.000000 0.258818
vn 0.965926 -0.000001 -0.258818
vn 0.965926 -0.000001 -0.258818
vn 0.965926 -0.000001 -0.258818
vn 0.965926 -0.000001 -0.258818
vn 0.707106 -0.000002 -0.707107
vn 0.707106 -0.000002 -0.707107
vn 0.707106 -0.000002 -0.707107
vn 0.707106 -0.000002 -0.707107
vn 0.258813 0.000002 -0.965927
vn 0.258813 0.000002 -0.965927
vn 0.258813 0.000002 -0.965927
vn 0.258813 0.000002 -0.965927
vn 0.000000 1.000000 -0.000000
vn 0.000000 1.000000 -0.000000
vn 0.000000 1.000000 -0.000000
vn 0.000000 1.000000 -0.000000
vn 0.000000 1.000000 -0.000000
vn 0.000000 1.000000 -0.000000
vn 0.000000 1.000000 -0.000000
vn 0.000000 1.000000 -0.000000
vn 0.000000 1.000000 -0.000000
vn 0.000000 1.000000 -0.000000
vn 0.000000 1.000000 -0.000000
vn 0.000000 1.000000 -0.000000
vn -0.000000 -1.000000 0.000000
vn -0.000000 -1.000000 0.000000
vn -0.000000 -1.000000 0.000000
vn -0.000000 -1.000000 0.000000
vn -0.000000 -1.000000 0.000000
vn -0.000000 -1.000000 0.000000
vn -0.000000 -1.000000 0.000000
vn -0.000000 -1.000000 0.000000
vn -0.000000 -1.000000 0.000000
vn -0.000000 -1.000000 0.000000
vn -0.000000 -1.000000 0.000000
vn -0.000000 -1.000000 0.000000

vt 0.073160 0.281421
vt 0.072184 0.279356
vt 0.069245 0.280745
vt 0.070221 0.282810
vt 0.027435 0.169656
vt 0.026380 0.167630
vt 0.023497 0.169133
vt 0.024552 0.171158
vt -0.043451 0.032293
vt -0.044907 0.030534
vt -0.047411 0.032608
vt -0.045955 0.034367
vt -0.174493 0.024792
vt -0.176743 0.024405
vt -0.177295 0.027608
vt -0.175045 0.027996
vt -0.176289 0.233336
vt -0.177979 0.234872
vt -0.175792 0.237277
vt -0.174102 0.235741
vt -0.116891 0.313032
vt -0.118026 0.315014
vt -0.115205 0.316629
vt -0.114070 0.314647
vt -0.072184 0.279357
vt -0.073159 0.281422
vt -0.070220 0.282810
vt -0.069245 0.280745
vt -0.026379 0.167631
vt -0.027434 0.169656
vt -0.024551 0.171158
vt -0.023496 0.169133
vt 0.044907 0.030534
vt 0.043451 0.032293
vt 0.045955 0.034367
vt 0.047411 0.032608
vt 0.176743 0.024405
vt 0.174493 0.024793
vt 0.175045 0.027996
vt 0.177295 0.027608
vt 0.177979 0.234872
vt 0.176289 0.233336
vt 0.174102 0.235741
vt 0.175792 0.237277
vt 0.118025 0.315014
vt 0.116890 0.313032
vt 0.114069 0.314647
vt 0.115204 0.316629
vt -0.187267 0.271405
vt -0.187082 0.269129
vt -0.188060 0.267065
vt -0.189938 0.265767
vt -0.192214 0.265581
vt -0.194278 0.266559
vt -0.195577 0.268438
vt -0.195762 0.270714
vt -0.194784 0.272777
vt -0.192906 0.274076
vt -0.190630 0.274261
vt -0.188566 0.273284
vt 0.188566 0.273284
vt 0.190630 0.274261
vt 0.192906 0.274076
vt 0.194784 0.272777
vt 0.195762 0.270714
vt 0.195577 0.268438
vt 0.194278 0.266559
vt 0.192214 0.265581
vt 0.189938 0.265767
vt 0.188060 0.267065
vt 0.187082 0.269129
vt 0.187267 0.271405
s off
f 1/1/1 2/2/2 3/3/3
f 1/1/1 3/3/3 4/4/4
f 5/5/5 6/6/6 7/7/7
f 5/5/5 7/7/7 8/8/8
f 9/9/9 10/10/10 11/11/11
f 9/9/9 11/11/11 12/12/12
f 13/13/13 14/14/14 15/15/15
f 13/13/13 15/15/15 16/16/16
f 17/17/17 18/18/18 19/19/19
f 17/17/17 19/19/19 20/20/20
f 21/21/21 22/22/22 23/23/23
f 21/21/21 23/23/23 24/24/24
f 25/25/25 26/26/26 27/27/27
f 25/25/25 27/27/27 28/28/28
f 29/29/29 30/30/30 31/31/31
f 29/29/29 31/31/31 32/32/32
f 33/33/33 34/34/34 35/35/35
f 33/33/33 35/35/35 36/36/36
f 37/37/37 38/38/38 39/39/39
f 37/37/37 39/39/39 40/40/40
f 41/41/41 42/42/42 43/43/43
f 41/41/41 43/43/43 44/44/44
f 45/45/45 46/46/46 47/47/47
f 45/45/45 47/47/47 48/48/48
f 49/49/49 50/50/50 51/51/51
f 49/49/49 51/51/51 52/52/52
f 49/49/49 52/52/52 53/53/53
f 49/49/49 53/53/53 54/54/54
f 49/49/49 54/54/54 55/55/55
f 49/49/49 55/55/55 56/56/56
f 49/49/49 56/56/56 57/57/57
f 49/49/49 57/57/57 58/58/58
f 49/49/49 58/58/58 59/59/59
f 49/49/49 59/59/59 60/60/60
f 61/61/61 62/62/62 63/63/63
f 61/61/61 63/63/63 64/64/64
f 61/61/61 64/64/64 65/65/65
f 61/61/61 65/65/65 66/66/66
f 61/61/61 66/66/66 67/67/67
f 61/61/61 67/67/67 68/68/68
f 61/61/61 68/68/68 69/69/69
f 61/61/61 69/69/69 70/70/70
f 61/61/61 70/70/70 71/71/71
f 61/61/61 71/71/71 72/72/72
