# Exported using automatic converter by Erwin Coumans
mtllib botlab.mtl
#object mesh1021351533

v 0.956993 -0.612270 2.462708
v 0.956313 -0.617257 2.473332
v 0.970053 -0.612645 2.474739
v 0.970735 -0.607707 2.464092
v 0.956313 -0.617257 2.473332
v 0.967249 -0.618540 2.477449
v 0.980994 -0.614020 2.478814
v 0.970053 -0.612645 2.474739
v 0.967249 -0.618540 2.477449
v 0.974688 -0.614345 2.469371
v 0.988438 -0.609931 2.470685
v 0.980994 -0.614020 2.478814
v 0.974688 -0.614345 2.469371
v 0.968349 -0.610469 2.460260
v 0.982098 -0.606030 2.461587
v 0.988438 -0.609931 2.470685
v 0.968349 -0.610469 2.460260
v 0.956993 -0.612270 2.462708
v 0.970735 -0.607707 2.464092
v 0.982098 -0.606030 2.461587
v 0.912749 -0.564913 2.471645
v 0.901971 -0.563132 2.467304
v 0.894193 -0.567340 2.475049
v 0.900165 -0.571722 2.484178
v 0.911633 -0.570222 2.482074
v 0.970735 -0.607707 2.464092
v 0.970053 -0.612645 2.474739
v 0.980994 -0.614020 2.478814
v 0.988438 -0.609931 2.470685
v 0.982098 -0.606030 2.461587
v 0.963718 -0.613678 2.468418
v 0.952402 -0.616439 2.470011
v 0.956313 -0.617257 2.473332
v 0.956993 -0.612270 2.462708
v 0.952402 -0.616439 2.470011
v 0.946679 -0.614231 2.459983
v 0.967249 -0.618540 2.477449
v 0.956313 -0.617257 2.473332
v 0.946679 -0.614231 2.459983
v 0.954456 -0.610107 2.452193
v 0.974688 -0.614345 2.469371
v 0.967249 -0.618540 2.477449
v 0.954456 -0.610107 2.452193
v 0.964987 -0.609765 2.457406
v 0.968349 -0.610469 2.460260
v 0.974688 -0.614345 2.469371
v 0.964987 -0.609765 2.457406
v 0.963718 -0.613678 2.468418
v 0.956993 -0.612270 2.462708
v 0.968349 -0.610469 2.460260
v 0.950843 -0.603651 2.471328
v 0.939375 -0.605170 2.473424
v 0.952402 -0.616439 2.470011
v 0.963718 -0.613678 2.468418
v 0.939375 -0.605170 2.473424
v 0.933411 -0.600995 2.464194
v 0.946679 -0.614231 2.459983
v 0.952402 -0.616439 2.470011
v 0.933411 -0.600995 2.464194
v 0.941192 -0.596897 2.456393
v 0.954456 -0.610107 2.452193
v 0.946679 -0.614231 2.459983
v 0.941192 -0.596897 2.456393
v 0.951966 -0.598538 2.460802
v 0.964987 -0.609765 2.457406
v 0.954456 -0.610107 2.452193
v 0.951966 -0.598538 2.460802
v 0.950843 -0.603651 2.471328
v 0.963718 -0.613678 2.468418
v 0.964987 -0.609765 2.457406
v 0.937748 -0.600170 2.475239
v 0.926278 -0.601602 2.477377
v 0.939375 -0.605170 2.473424
v 0.950843 -0.603651 2.471328
v 0.926278 -0.601602 2.477377
v 0.920313 -0.597418 2.468152
v 0.933411 -0.600995 2.464194
v 0.939375 -0.605170 2.473424
v 0.920313 -0.597418 2.468152
v 0.928097 -0.593400 2.460312
v 0.941192 -0.596897 2.456393
v 0.933411 -0.600995 2.464194
v 0.928097 -0.593400 2.460312
v 0.938873 -0.595101 2.464693
v 0.951966 -0.598538 2.460802
v 0.941192 -0.596897 2.456393
v 0.938873 -0.595101 2.464693
v 0.937748 -0.600170 2.475239
v 0.950843 -0.603651 2.471328
v 0.951966 -0.598538 2.460802
v 0.922411 -0.596263 2.475806
v 0.910940 -0.597692 2.477946
v 0.926278 -0.601602 2.477377
v 0.937748 -0.600170 2.475239
v 0.910940 -0.597692 2.477946
v 0.904975 -0.593467 2.468740
v 0.920313 -0.597418 2.468152
v 0.926278 -0.601602 2.477377
v 0.904975 -0.593467 2.468740
v 0.912758 -0.589427 2.460911
v 0.928097 -0.593400 2.460312
v 0.920313 -0.597418 2.468152
v 0.912758 -0.589427 2.460911
v 0.923534 -0.591155 2.465278
v 0.938873 -0.595101 2.464693
v 0.928097 -0.593400 2.460312
v 0.923534 -0.591155 2.465278
v 0.922411 -0.596263 2.475806
v 0.937748 -0.600170 2.475239
v 0.938873 -0.595101 2.464693
v 0.920138 -0.581320 2.477116
v 0.908667 -0.582758 2.479250
v 0.910940 -0.597692 2.477946
v 0.922411 -0.596263 2.475806
v 0.908667 -0.582758 2.479250
v 0.902701 -0.578502 2.470060
v 0.904975 -0.593467 2.468740
v 0.910940 -0.597692 2.477946
v 0.902701 -0.578502 2.470060
v 0.910483 -0.574434 2.462245
v 0.912758 -0.589427 2.460911
v 0.904975 -0.593467 2.468740
v 0.910483 -0.574434 2.462245
v 0.921260 -0.576176 2.466605
v 0.923534 -0.591155 2.465278
v 0.912758 -0.589427 2.460911
v 0.921260 -0.576176 2.466605
v 0.920138 -0.581320 2.477116
v 0.922411 -0.596263 2.475806
v 0.923534 -0.591155 2.465278
v 0.911633 -0.570222 2.482074
v 0.900165 -0.571722 2.484178
v 0.908667 -0.582758 2.479250
v 0.920138 -0.581320 2.477116
v 0.900165 -0.571722 2.484178
v 0.894193 -0.567340 2.475049
v 0.902701 -0.578502 2.470060
v 0.908667 -0.582758 2.479250
v 0.894193 -0.567340 2.475049
v 0.901971 -0.563132 2.467304
v 0.910483 -0.574434 2.462245
v 0.902701 -0.578502 2.470060
v 0.901971 -0.563132 2.467304
v 0.912749 -0.564913 2.471645
v 0.921260 -0.576176 2.466605
v 0.910483 -0.574434 2.462245
v 0.912749 -0.564913 2.471645
v 0.911633 -0.570222 2.482074
v 0.920138 -0.581320 2.477116
v 0.921260 -0.576176 2.466605
usemtl mat20

vn -0.327330 0.864127 0.382282
vn -0.327330 0.864127 0.382282
vn -0.327330 0.864127 0.382282
vn -0.327330 0.864127 0.382282
vn -0.249777 0.500014 0.829215
vn -0.249777 0.500014 0.829215
vn -0.249777 0.500014 0.829215
vn -0.249777 0.500014 0.829215
vn 0.319843 -0.929910 -0.181572
vn 0.319843 -0.929910 -0.181572
vn 0.319843 -0.929910 -0.181572
vn 0.319843 -0.929910 -0.181572
vn 0.303878 -0.781256 -0.545250
vn 0.303878 -0.781256 -0.545250
vn 0.303878 -0.781256 -0.545250
vn 0.303878 -0.781256 -0.545250
vn -0.232684 0.851878 -0.469214
vn -0.232684 0.851878 -0.469214
vn -0.232684 0.851878 -0.469214
vn -0.232684 0.851878 -0.469214
vn -0.034036 0.892106 0.450541
vn -0.034036 0.892106 0.450541
vn -0.034036 0.892106 0.450541
vn -0.034036 0.892106 0.450541
vn -0.034036 0.892106 0.450541
vn -0.041722 0.907410 0.418170
vn -0.041722 0.907410 0.418170
vn -0.041722 0.907410 0.418170
vn -0.041722 0.907410 0.418170
vn -0.041722 0.907410 0.418170
vn 0.160951 -0.897291 -0.411051
vn 0.160951 -0.897291 -0.411051
vn 0.160951 -0.897291 -0.411051
vn 0.160951 -0.897291 -0.411051
vn -0.042926 -0.980581 -0.191358
vn -0.042926 -0.980581 -0.191358
vn -0.042926 -0.980581 -0.191358
vn -0.042926 -0.980581 -0.191358
vn 0.119757 -0.921886 -0.368488
vn 0.119757 -0.921886 -0.368488
vn 0.119757 -0.921886 -0.368488
vn 0.119757 -0.921886 -0.368488
vn 0.292634 -0.789533 -0.539446
vn 0.292634 -0.789533 -0.539446
vn 0.292634 -0.789533 -0.539446
vn 0.292634 -0.789533 -0.539446
vn 0.079153 -0.942160 -0.325682
vn 0.079153 -0.942160 -0.325682
vn 0.079153 -0.942160 -0.325682
vn 0.079153 -0.942160 -0.325682
vn 0.173926 -0.079856 0.981516
vn 0.173926 -0.079856 0.981516
vn 0.173926 -0.079856 0.981516
vn 0.173926 -0.079856 0.981516
vn -0.650883 -0.744557 0.148280
vn -0.650883 -0.744557 0.148280
vn -0.650883 -0.744557 0.148280
vn -0.650883 -0.744557 0.148280
vn -0.572127 -0.336051 -0.748158
vn -0.572127 -0.336051 -0.748158
vn -0.572127 -0.336051 -0.748158
vn -0.572127 -0.336051 -0.748158
vn 0.357877 0.605835 -0.710555
vn 0.357877 0.605835 -0.710555
vn 0.357877 0.605835 -0.710555
vn 0.357877 0.605835 -0.710555
vn 0.643158 0.678142 0.355628
vn 0.643158 0.678142 0.355628
vn 0.643158 0.678142 0.355628
vn 0.643158 0.678142 0.355628
vn 0.208485 -0.273144 0.939109
vn 0.208485 -0.273144 0.939109
vn 0.208485 -0.273144 0.939109
vn 0.208485 -0.273144 0.939109
vn -0.316640 -0.924119 -0.213876
vn -0.316640 -0.924119 -0.213876
vn -0.316640 -0.924119 -0.213876
vn -0.316640 -0.924119 -0.213876
vn -0.374753 -0.616207 -0.692712
vn -0.374753 -0.616207 -0.692712
vn -0.374753 -0.616207 -0.692712
vn -0.374753 -0.616207 -0.692712
vn 0.211002 0.965900 -0.150053
vn 0.211002 0.965900 -0.150053
vn 0.211002 0.965900 -0.150053
vn 0.211002 0.965900 -0.150053
vn 0.349267 0.828565 0.437600
vn 0.349267 0.828565 0.437600
vn 0.349267 0.828565 0.437600
vn 0.349267 0.828565 0.437600
vn 0.126768 0.363347 0.922989
vn 0.126768 0.363347 0.922989
vn 0.126768 0.363347 0.922989
vn 0.126768 0.363347 0.922989
vn -0.248771 -0.931855 -0.264121
vn -0.248771 -0.931855 -0.264121
vn -0.248771 -0.931855 -0.264121
vn -0.248771 -0.931855 -0.264121
vn -0.220183 -0.761072 -0.610155
vn -0.220183 -0.761072 -0.610155
vn -0.220183 -0.761072 -0.610155
vn -0.220183 -0.761072 -0.610155
vn 0.236650 0.948329 -0.211349
vn 0.236650 0.948329 -0.211349
vn 0.236650 0.948329 -0.211349
vn 0.236650 0.948329 -0.211349
vn 0.237957 0.864454 0.442828
vn 0.237957 0.864454 0.442828
vn 0.237957 0.864454 0.442828
vn 0.237957 0.864454 0.442828
vn 0.189733 -0.056893 0.980186
vn 0.189733 -0.056893 0.980186
vn 0.189733 -0.056893 0.980186
vn 0.189733 -0.056893 0.980186
vn -0.860823 -0.172925 0.478624
vn -0.860823 -0.172925 0.478624
vn -0.860823 -0.172925 0.478624
vn -0.860823 -0.172925 0.478624
vn -0.697164 -0.042458 -0.715654
vn -0.697164 -0.042458 -0.715654
vn -0.697164 -0.042458 -0.715654
vn -0.697164 -0.042458 -0.715654
vn 0.390935 0.140087 -0.909695
vn 0.390935 0.140087 -0.909695
vn 0.390935 0.140087 -0.909695
vn 0.390935 0.140087 -0.909695
vn 0.976488 0.133496 0.169264
vn 0.976488 0.133496 0.169264
vn 0.976488 0.133496 0.169264
vn 0.976488 0.133496 0.169264
vn 0.207675 -0.261412 0.942621
vn 0.207675 -0.261412 0.942621
vn 0.207675 -0.261412 0.942621
vn 0.207675 -0.261412 0.942621
vn -0.741178 -0.647351 0.177743
vn -0.741178 -0.647351 0.177743
vn -0.741178 -0.647351 0.177743
vn -0.741178 -0.647351 0.177743
vn -0.652739 -0.163639 -0.739698
vn -0.652739 -0.163639 -0.739698
vn -0.652739 -0.163639 -0.739698
vn -0.652739 -0.163639 -0.739698
vn 0.381584 0.601843 -0.701554
vn 0.381584 0.601843 -0.701554
vn 0.381584 0.601843 -0.701554
vn 0.381584 0.601843 -0.701554
vn 0.816971 0.476299 0.325112
vn 0.816971 0.476299 0.325112
vn 0.816971 0.476299 0.325112
vn 0.816971 0.476299 0.325112

vt -0.324239 -0.049612
vt -0.325253 -0.050206
vt -0.325857 -0.048881
vt -0.324842 -0.048289
vt -0.227555 0.012172
vt -0.228436 0.012950
vt -0.228934 0.014315
vt -0.228049 0.013542
vt 0.338004 -0.054048
vt 0.337496 -0.052988
vt 0.338090 -0.051665
vt 0.338601 -0.052723
vt 0.304560 -0.037076
vt 0.303388 -0.037175
vt 0.303977 -0.035849
vt 0.305149 -0.035751
vt -0.288341 0.005547
vt -0.288393 0.004372
vt -0.288824 0.005761
vt -0.288761 0.006935
vt -0.298323 -0.086653
vt -0.297399 -0.087380
vt -0.297806 -0.088483
vt -0.298980 -0.088438
vt -0.299300 -0.087307
vt -0.307409 -0.081195
vt -0.308416 -0.081803
vt -0.309305 -0.081033
vt -0.308848 -0.079950
vt -0.307676 -0.080050
vt 0.315339 -0.066246
vt 0.315045 -0.067385
vt 0.315525 -0.067186
vt 0.314513 -0.066588
vt 0.328224 -0.081050
vt 0.327053 -0.081147
vt 0.329541 -0.080017
vt 0.328697 -0.080836
vt 0.316855 -0.072784
vt 0.316422 -0.071691
vt 0.318902 -0.070654
vt 0.319376 -0.071730
vt 0.302435 -0.040433
vt 0.303335 -0.039678
vt 0.303748 -0.039508
vt 0.304920 -0.039410
vt 0.320071 -0.074948
vt 0.321065 -0.075576
vt 0.320243 -0.075925
vt 0.320482 -0.074774
vt 0.012083 0.010682
vt 0.012436 0.009560
vt 0.010845 0.010304
vt 0.010618 0.011457
vt 0.328883 -0.093728
vt 0.327738 -0.093988
vt 0.328142 -0.092112
vt 0.329313 -0.092027
vt 0.054695 -0.183266
vt 0.054653 -0.182092
vt 0.056415 -0.181332
vt 0.056459 -0.182507
vt -0.173354 0.191870
vt -0.173276 0.193042
vt -0.171944 0.194181
vt -0.171813 0.193013
vt -0.190579 -0.238501
vt -0.191359 -0.239379
vt -0.192633 -0.238319
vt -0.191926 -0.237381
vt 0.080320 0.021455
vt 0.080637 0.020323
vt 0.079764 0.021436
vt 0.079456 0.022570
vt 0.307027 -0.128722
vt 0.305853 -0.128784
vt 0.306264 -0.127431
vt 0.307438 -0.127369
vt 0.172504 -0.158395
vt 0.172296 -0.157238
vt 0.173087 -0.156070
vt 0.173301 -0.157226
vt -0.336184 -0.030337
vt -0.336908 -0.029411
vt -0.336900 -0.028003
vt -0.336173 -0.028926
vt -0.256936 -0.158549
vt -0.257849 -0.159290
vt -0.258460 -0.158019
vt -0.257547 -0.157280
vt -0.126204 -0.049185
vt -0.125799 -0.050288
vt -0.126880 -0.049131
vt -0.127285 -0.048027
vt 0.305093 -0.124078
vt 0.303918 -0.124136
vt 0.304726 -0.122772
vt 0.305901 -0.122716
vt 0.234867 -0.131629
vt 0.234561 -0.130494
vt 0.235571 -0.129271
vt 0.235875 -0.130406
vt -0.333836 -0.014014
vt -0.334515 -0.013054
vt -0.334812 -0.011497
vt -0.334131 -0.012456
vt -0.273065 -0.134926
vt -0.274007 -0.135629
vt -0.274932 -0.134344
vt -0.273991 -0.133640
vt 0.010541 0.000599
vt 0.010904 -0.000520
vt 0.009444 -0.000928
vt 0.009080 0.000190
vt -0.277941 0.166120
vt -0.276775 0.165965
vt -0.277512 0.164636
vt -0.278677 0.164795
vt -0.066405 -0.181299
vt -0.066278 -0.180131
vt -0.064821 -0.180570
vt -0.064951 -0.181739
vt 0.057207 0.181416
vt 0.057889 0.182374
vt 0.059309 0.181830
vt 0.058628 0.180872
vt 0.165549 -0.275288
vt 0.165738 -0.276448
vt 0.164413 -0.277186
vt 0.164220 -0.276026
vt 0.080071 0.019220
vt 0.080384 0.018087
vt 0.078966 0.018501
vt 0.078647 0.019633
vt 0.317426 -0.127311
vt 0.316263 -0.127484
vt 0.316511 -0.126015
vt 0.317676 -0.125855
vt -0.020095 -0.186154
vt -0.020049 -0.184979
vt -0.018611 -0.184544
vt -0.018671 -0.185718
vt -0.176262 0.194641
vt -0.176166 0.195813
vt -0.174818 0.196470
vt -0.174911 0.195298
vt -0.067980 -0.296875
vt -0.068492 -0.297933
vt -0.069819 -0.297268
vt -0.069320 -0.296204
s off
f 1/1/1 2/2/2 3/3/3
f 1/1/1 3/3/3 4/4/4
f 5/5/5 6/6/6 7/7/7
f 5/5/5 7/7/7 8/8/8
f 9/9/9 10/10/10 11/11/11
f 9/9/9 11/11/11 12/12/12
f 13/13/13 14/14/14 15/15/15
f 13/13/13 15/15/15 16/16/16
f 17/17/17 18/18/18 19/19/19
f 17/17/17 19/19/19 20/20/20
f 21/21/21 22/22/22 23/23/23
f 21/21/21 23/23/23 24/24/24
f 21/21/21 24/24/24 25/25/25
f 26/26/26 27/27/27 28/28/28
f 26/26/26 28/28/28 29/29/29
f 26/26/26 29/29/29 30/30/30
f 31/31/31 32/32/32 33/33/33
f 31/31/31 33/33/33 34/34/34
f 35/35/35 36/36/36 37/37/37
f 35/35/35 37/37/37 38/38/38
f 39/39/39 40/40/40 41/41/41
f 39/39/39 41/41/41 42/42/42
f 43/43/43 44/44/44 45/45/45
f 43/43/43 45/45/45 46/46/46
f 47/47/47 48/48/48 49/49/49
f 47/47/47 49/49/49 50/50/50
f 51/51/51 52/52/52 53/53/53
f 51/51/51 53/53/53 54/54/54
f 55/55/55 56/56/56 57/57/57
f 55/55/55 57/57/57 58/58/58
f 59/59/59 60/60/60 61/61/61
f 59/59/59 61/61/61 62/62/62
f 63/63/63 64/64/64 65/65/65
f 63/63/63 65/65/65 66/66/66
f 67/67/67 68/68/68 69/69/69
f 67/67/67 69/69/69 70/70/70
f 71/71/71 72/72/72 73/73/73
f 71/71/71 73/73/73 74/74/74
f 75/75/75 76/76/76 77/77/77
f 75/75/75 77/77/77 78/78/78
f 79/79/79 80/80/80 81/81/81
f 79/79/79 81/81/81 82/82/82
f 83/83/83 84/84/84 85/85/85
f 83/83/83 85/85/85 86/86/86
f 87/87/87 88/88/88 89/89/89
f 87/87/87 89/89/89 90/90/90
f 91/91/91 92/92/92 93/93/93
f 91/91/91 93/93/93 94/94/94
f 95/95/95 96/96/96 97/97/97
f 95/95/95 97/97/97 98/98/98
f 99/99/99 100/100/100 101/101/101
f 99/99/99 101/101/101 102/102/102
f 103/103/103 104/104/104 105/105/105
f 103/103/103 105/105/105 106/106/106
f 107/107/107 108/108/108 109/109/109
f 107/107/107 109/109/109 110/110/110
f 111/111/111 112/112/112 113/113/113
f 111/111/111 113/113/113 114/114/114
f 115/115/115 116/116/116 117/117/117
f 115/115/115 117/117/117 118/118/118
f 119/119/119 120/120/120 121/121/121
f 119/119/119 121/121/121 122/122/122
f 123/123/123 124/124/124 125/125/125
f 123/123/123 125/125/125 126/126/126
f 127/127/127 128/128/128 129/129/129
f 127/127/127 129/129/129 130/130/130
f 131/131/131 132/132/132 133/133/133
f 131/131/131 133/133/133 134/134/134
f 135/135/135 136/136/136 137/137/137
f 135/135/135 137/137/137 138/138/138
f 139/139/139 140/140/140 141/141/141
f 139/139/139 141/141/141 142/142/142
f 143/143/143 144/144/144 145/145/145
f 143/143/143 145/145/145 146/146/146
f 147/147/147 148/148/148 149/149/149
f 147/147/147 149/149/149 150/150/150
