# Exported using automatic converter by Erwin Coumans
mtllib model6.mtl
#object group2061739718_1

v 2.319487 -0.756511 1.702237
v 2.295795 -0.756511 1.695888
v 2.286988 -0.776511 1.711143
v 2.319488 -0.776511 1.719852
v 2.351205 -0.905183 1.577871
v 2.352092 -0.836474 1.579766
v 2.351871 -0.837023 1.599757
v 2.350984 -0.905731 1.597862
v 2.322523 -0.836636 1.599443
v 2.322744 -0.836087 1.579452
v 2.321858 -0.904795 1.577557
v 2.321637 -0.905344 1.597548
v 2.351871 -0.837023 1.599757
v 2.322523 -0.836636 1.599443
v 2.321637 -0.905344 1.597548
v 2.350984 -0.905731 1.597862
v 2.321858 -0.904795 1.577557
v 2.322744 -0.836087 1.579452
v 2.352092 -0.836474 1.579766
v 2.351205 -0.905183 1.577871
v 2.321637 -0.905344 1.597548
v 2.321858 -0.904795 1.577557
v 2.351205 -0.905183 1.577871
v 2.350984 -0.905731 1.597862
v 2.352092 -0.836474 1.579766
v 2.322744 -0.836087 1.579452
v 2.322523 -0.836636 1.599443
v 2.351871 -0.837023 1.599757
usemtl mat21

vn -0.197134 0.647978 0.735705
vn -0.197134 0.647978 0.735705
vn -0.197134 0.647978 0.735705
vn -0.197134 0.647978 0.735705
vn 0.999856 -0.013196 0.010694
vn 0.999856 -0.013196 0.010694
vn 0.999856 -0.013196 0.010694
vn 0.999856 -0.013196 0.010694
vn -0.999856 0.013196 -0.010694
vn -0.999856 0.013196 -0.010694
vn -0.999856 0.013196 -0.010694
vn -0.999856 0.013196 -0.010694
vn -0.011053 -0.027426 0.999563
vn -0.011053 -0.027426 0.999563
vn -0.011053 -0.027426 0.999563
vn -0.011053 -0.027426 0.999563
vn 0.011053 0.027426 -0.999563
vn 0.011053 0.027426 -0.999563
vn 0.011053 0.027426 -0.999563
vn 0.011053 0.027426 -0.999563
vn -0.012897 -0.999537 -0.027568
vn -0.012897 -0.999537 -0.027568
vn -0.012897 -0.999537 -0.027568
vn -0.012897 -0.999537 -0.027568
vn 0.012897 0.999537 0.027568
vn 0.012897 0.999537 0.027568
vn 0.012897 0.999537 0.027568
vn 0.012897 0.999537 0.027568

vt -0.284919 0.096994
vt -0.283295 0.095156
vt -0.284961 0.093075
vt -0.287189 0.095597
vt 0.175884 -0.174478
vt 0.180041 -0.169003
vt 0.181634 -0.170212
vt 0.177477 -0.175687
vt -0.181634 -0.170212
vt -0.180040 -0.169003
vt -0.175884 -0.174478
vt -0.177477 -0.175687
vt -0.116931 0.173291
vt -0.115602 0.170674
vt -0.121730 0.167560
vt -0.123060 0.170177
vt 0.121730 0.167560
vt 0.115602 0.170674
vt 0.116931 0.173291
vt 0.123060 0.170177
vt 0.304615 0.101693
vt 0.302749 0.102413
vt 0.303806 0.105151
vt 0.305672 0.104431
vt -0.303806 0.105151
vt -0.302749 0.102413
vt -0.304615 0.101693
vt -0.305672 0.104431
s off
f 1/1/1 2/2/2 3/3/3
f 1/1/1 3/3/3 4/4/4
f 5/5/5 6/6/6 7/7/7
f 5/5/5 7/7/7 8/8/8
f 9/9/9 10/10/10 11/11/11
f 9/9/9 11/11/11 12/12/12
f 13/13/13 14/14/14 15/15/15
f 13/13/13 15/15/15 16/16/16
f 17/17/17 18/18/18 19/19/19
f 17/17/17 19/19/19 20/20/20
f 21/21/21 22/22/22 23/23/23
f 21/21/21 23/23/23 24/24/24
f 25/25/25 26/26/26 27/27/27
f 25/25/25 27/27/27 28/28/28
