# Exported using automatic converter by Erwin Coumans
mtllib model6.mtl
#object mesh150619073

v -2.476762 -0.974511 -0.130148
v -2.569262 -0.974511 -0.105363
v -2.569262 0.965489 -0.105363
v -2.476762 0.965489 -0.130148
v -2.569262 -0.974511 -0.105363
v -2.636977 -0.974511 -0.037648
v -2.636977 0.965489 -0.037648
v -2.569262 0.965489 -0.105363
v -2.636977 -0.974511 -0.037648
v -2.661762 -0.974511 0.054852
v -2.661762 0.965489 0.054852
v -2.636977 0.965489 -0.037648
v -2.661762 -0.974511 0.054852
v -2.636977 -0.974511 0.147352
v -2.636977 0.965489 0.147352
v -2.661762 0.965489 0.054852
v -2.636977 -0.974511 0.147352
v -2.569262 -0.974511 0.215066
v -2.569262 0.965489 0.215066
v -2.636977 0.965489 0.147352
v -2.569262 -0.974511 0.215066
v -2.476762 -0.974511 0.239852
v -2.476762 0.965489 0.239852
v -2.569262 0.965489 0.215066
v -2.476762 -0.974511 0.239852
v -2.384262 -0.974511 0.215066
v -2.384262 0.965489 0.215066
v -2.476762 0.965489 0.239852
v -2.384262 -0.974511 0.215066
v -2.316548 -0.974511 0.147352
v -2.316548 0.965489 0.147352
v -2.384262 0.965489 0.215066
v -2.316548 -0.974511 0.147352
v -2.291762 -0.974511 0.054852
v -2.291762 0.965489 0.054852
v -2.316548 0.965489 0.147352
v -2.291762 -0.974511 0.054852
v -2.316548 -0.974511 -0.037648
v -2.316548 0.965489 -0.037648
v -2.291762 0.965489 0.054852
v -2.316548 -0.974511 -0.037648
v -2.384262 -0.974511 -0.105363
v -2.384262 0.965489 -0.105363
v -2.316548 0.965489 -0.037648
v -2.384262 -0.974511 -0.105363
v -2.476762 -0.974511 -0.130148
v -2.476762 0.965489 -0.130148
v -2.384262 0.965489 -0.105363
v -2.409330 1.465489 -0.061946
v -2.359965 1.465489 -0.012582
v -2.316548 0.965489 -0.037648
v -2.384262 0.965489 -0.105363
v -2.384262 -0.974511 -0.105363
v -2.316548 -0.974511 -0.037648
v -2.291762 -0.974511 0.054852
v -2.316548 -0.974511 0.147352
v -2.384262 -0.974511 0.215066
v -2.476762 -0.974511 0.239852
v -2.569262 -0.974511 0.215066
v -2.636977 -0.974511 0.147352
v -2.661762 -0.974511 0.054852
v -2.636977 -0.974511 -0.037648
v -2.569262 -0.974511 -0.105363
v -2.476762 -0.974511 -0.130148
v -2.359965 1.465489 -0.012582
v -2.341897 1.465489 0.054851
v -2.291762 0.965489 0.054852
v -2.316548 0.965489 -0.037648
v -2.341897 1.465489 0.054851
v -2.359965 1.465489 0.122283
v -2.316548 0.965489 0.147352
v -2.291762 0.965489 0.054852
v -2.359965 1.465489 0.122283
v -2.409330 1.465489 0.171647
v -2.384262 0.965489 0.215066
v -2.316548 0.965489 0.147352
v -2.409330 1.465489 0.171647
v -2.476762 1.465489 0.189716
v -2.476762 0.965489 0.239852
v -2.384262 0.965489 0.215066
v -2.476762 1.465489 0.189716
v -2.544194 1.465489 0.171647
v -2.569262 0.965489 0.215066
v -2.476762 0.965489 0.239852
v -2.544194 1.465489 0.171647
v -2.593558 1.465489 0.122283
v -2.636977 0.965489 0.147352
v -2.569262 0.965489 0.215066
v -2.593558 1.465489 0.122283
v -2.611627 1.465489 0.054851
v -2.661762 0.965489 0.054852
v -2.636977 0.965489 0.147352
v -2.611627 1.465489 0.054851
v -2.593558 1.465489 -0.012582
v -2.636977 0.965489 -0.037648
v -2.661762 0.965489 0.054852
v -2.593558 1.465489 -0.012582
v -2.544194 1.465489 -0.061946
v -2.569262 0.965489 -0.105363
v -2.636977 0.965489 -0.037648
v -2.544194 1.465489 -0.061946
v -2.476762 1.465489 -0.080014
v -2.476762 0.965489 -0.130148
v -2.569262 0.965489 -0.105363
v -2.476762 1.465489 -0.080014
v -2.409330 1.465489 -0.061946
v -2.384262 0.965489 -0.105363
v -2.476762 0.965489 -0.130148
v -2.409329 1.475489 -0.061946
v -2.359965 1.475489 -0.012582
v -2.359965 1.465489 -0.012582
v -2.409330 1.465489 -0.061946
v -2.359965 1.475489 -0.012582
v -2.341897 1.475489 0.054851
v -2.341897 1.465489 0.054851
v -2.359965 1.465489 -0.012582
v -2.341897 1.475489 0.054851
v -2.359965 1.475489 0.122283
v -2.359965 1.465489 0.122283
v -2.341897 1.465489 0.054851
v -2.359965 1.475489 0.122283
v -2.409329 1.475489 0.171647
v -2.409330 1.465489 0.171647
v -2.359965 1.465489 0.122283
v -2.409329 1.475489 0.171647
v -2.476762 1.475489 0.189716
v -2.476762 1.465489 0.189716
v -2.409330 1.465489 0.171647
v -2.476762 1.475489 0.189716
v -2.544194 1.475489 0.171647
v -2.544194 1.465489 0.171647
v -2.476762 1.465489 0.189716
v -2.544194 1.475489 0.171647
v -2.593558 1.475489 0.122283
v -2.593558 1.465489 0.122283
v -2.544194 1.465489 0.171647
v -2.593558 1.475489 0.122283
v -2.611627 1.475489 0.054851
v -2.611627 1.465489 0.054851
v -2.593558 1.465489 0.122283
v -2.611627 1.475489 0.054851
v -2.593558 1.475489 -0.012582
v -2.593558 1.465489 -0.012582
v -2.611627 1.465489 0.054851
v -2.593558 1.475489 -0.012582
v -2.544194 1.475489 -0.061946
v -2.544194 1.465489 -0.061946
v -2.593558 1.465489 -0.012582
v -2.544194 1.475489 -0.061946
v -2.476762 1.475489 -0.080014
v -2.476762 1.465489 -0.080014
v -2.544194 1.465489 -0.061946
v -2.476762 1.475489 -0.080014
v -2.409329 1.475489 -0.061946
v -2.409330 1.465489 -0.061946
v -2.476762 1.465489 -0.080014
v -2.432519 1.485489 -0.021780
v -2.400131 1.485489 0.010608
v -2.359965 1.475489 -0.012582
v -2.409329 1.475489 -0.061946
v -2.400131 1.485489 0.010608
v -2.388277 1.485489 0.054850
v -2.341897 1.475489 0.054851
v -2.359965 1.475489 -0.012582
v -2.388277 1.485489 0.054850
v -2.400131 1.485489 0.099093
v -2.359965 1.475489 0.122283
v -2.341897 1.475489 0.054851
v -2.400131 1.485489 0.099093
v -2.432519 1.485489 0.131481
v -2.409329 1.475489 0.171647
v -2.359965 1.475489 0.122283
v -2.432519 1.485489 0.131481
v -2.476761 1.485489 0.143335
v -2.476762 1.475489 0.189716
v -2.409329 1.475489 0.171647
v -2.476761 1.485489 0.143335
v -2.521004 1.485489 0.131481
v -2.544194 1.475489 0.171647
v -2.476762 1.475489 0.189716
v -2.521004 1.485489 0.131481
v -2.553391 1.485489 0.099093
v -2.593558 1.475489 0.122283
v -2.544194 1.475489 0.171647
v -2.553391 1.485489 0.099093
v -2.565246 1.485489 0.054851
v -2.611627 1.475489 0.054851
v -2.593558 1.475489 0.122283
v -2.565246 1.485489 0.054851
v -2.553391 1.485489 0.010608
v -2.593558 1.475489 -0.012582
v -2.611627 1.475489 0.054851
v -2.553391 1.485489 0.010608
v -2.521003 1.485489 -0.021780
v -2.544194 1.475489 -0.061946
v -2.593558 1.475489 -0.012582
v -2.521003 1.485489 -0.021780
v -2.476761 1.485489 -0.033635
v -2.476762 1.475489 -0.080014
v -2.544194 1.475489 -0.061946
v -2.476761 1.485489 -0.033635
v -2.432519 1.485489 -0.021780
v -2.409329 1.475489 -0.061946
v -2.476762 1.475489 -0.080014
usemtl mat20

vn 0.000000 0.000000 -1.000000
vn 0.000000 0.000000 -1.000000
vn 0.000000 0.000000 -1.000000
vn 0.000000 0.000000 -1.000000
vn -0.500000 0.000000 -0.866025
vn -0.500000 0.000000 -0.866025
vn -0.500000 0.000000 -0.866025
vn -0.500000 0.000000 -0.866025
vn -0.866025 0.000000 -0.500000
vn -0.866025 0.000000 -0.500000
vn -0.866025 0.000000 -0.500000
vn -0.866025 0.000000 -0.500000
vn -1.000000 0.000000 -0.000000
vn -1.000000 0.000000 -0.000000
vn -1.000000 0.000000 -0.000000
vn -1.000000 0.000000 -0.000000
vn -0.866025 0.000000 0.500000
vn -0.866025 0.000000 0.500000
vn -0.866025 0.000000 0.500000
vn -0.866025 0.000000 0.500000
vn -0.500000 0.000000 0.866025
vn -0.500000 0.000000 0.866025
vn -0.500000 0.000000 0.866025
vn -0.500000 0.000000 0.866025
vn 0.000000 0.000000 1.000000
vn 0.000000 0.000000 1.000000
vn 0.000000 0.000000 1.000000
vn 0.000000 0.000000 1.000000
vn 0.500000 0.000000 0.866025
vn 0.500000 0.000000 0.866025
vn 0.500000 0.000000 0.866025
vn 0.500000 0.000000 0.866025
vn 0.866025 0.000000 0.500000
vn 0.866025 0.000000 0.500000
vn 0.866025 0.000000 0.500000
vn 0.866025 0.000000 0.500000
vn 1.000000 0.000000 0.000000
vn 1.000000 0.000000 0.000000
vn 1.000000 0.000000 0.000000
vn 1.000000 0.000000 0.000000
vn 0.866026 0.000000 -0.500000
vn 0.866026 0.000000 -0.500000
vn 0.866026 0.000000 -0.500000
vn 0.866026 0.000000 -0.500000
vn 0.500000 0.000000 -0.866026
vn 0.500000 0.000000 -0.866026
vn 0.500000 0.000000 -0.866026
vn 0.500000 0.000000 -0.866026
vn 0.703812 0.096401 -0.703815
vn 0.703812 0.096401 -0.703815
vn 0.703812 0.096401 -0.703815
vn 0.703812 0.096401 -0.703815
vn 0.000000 -1.000000 0.000000
vn 0.000000 -1.000000 0.000000
vn 0.000000 -1.000000 0.000000
vn 0.000000 -1.000000 0.000000
vn 0.000000 -1.000000 0.000000
vn 0.000000 -1.000000 0.000000
vn 0.000000 -1.000000 0.000000
vn 0.000000 -1.000000 0.000000
vn 0.000000 -1.000000 0.000000
vn 0.000000 -1.000000 0.000000
vn 0.000000 -1.000000 0.000000
vn 0.000000 -1.000000 0.000000
vn 0.961428 0.096401 -0.257611
vn 0.961428 0.096401 -0.257611
vn 0.961428 0.096401 -0.257611
vn 0.961428 0.096401 -0.257611
vn 0.961428 0.096402 0.257612
vn 0.961428 0.096402 0.257612
vn 0.961428 0.096402 0.257612
vn 0.961428 0.096402 0.257612
vn 0.703813 0.096403 0.703814
vn 0.703813 0.096403 0.703814
vn 0.703813 0.096403 0.703814
vn 0.703813 0.096403 0.703814
vn 0.257614 0.096404 0.961427
vn 0.257614 0.096404 0.961427
vn 0.257614 0.096404 0.961427
vn 0.257614 0.096404 0.961427
vn -0.257614 0.096404 0.961427
vn -0.257614 0.096404 0.961427
vn -0.257614 0.096404 0.961427
vn -0.257614 0.096404 0.961427
vn -0.703814 0.096404 0.703813
vn -0.703814 0.096404 0.703813
vn -0.703814 0.096404 0.703813
vn -0.703814 0.096404 0.703813
vn -0.961427 0.096404 0.257614
vn -0.961427 0.096404 0.257614
vn -0.961427 0.096404 0.257614
vn -0.961427 0.096404 0.257614
vn -0.961427 0.096403 -0.257614
vn -0.961427 0.096403 -0.257614
vn -0.961427 0.096403 -0.257614
vn -0.961427 0.096403 -0.257614
vn -0.703814 0.096401 -0.703813
vn -0.703814 0.096401 -0.703813
vn -0.703814 0.096401 -0.703813
vn -0.703814 0.096401 -0.703813
vn -0.257614 0.096401 -0.961427
vn -0.257614 0.096401 -0.961427
vn -0.257614 0.096401 -0.961427
vn -0.257614 0.096401 -0.961427
vn 0.257615 0.096400 -0.961427
vn 0.257615 0.096400 -0.961427
vn 0.257615 0.096400 -0.961427
vn 0.257615 0.096400 -0.961427
vn 0.707100 -0.000030 -0.707114
vn 0.707100 -0.000030 -0.707114
vn 0.707100 -0.000030 -0.707114
vn 0.707100 -0.000030 -0.707114
vn 0.965927 -0.000028 -0.258814
vn 0.965927 -0.000028 -0.258814
vn 0.965927 -0.000028 -0.258814
vn 0.965927 -0.000028 -0.258814
vn 0.965927 -0.000040 0.258814
vn 0.965927 -0.000040 0.258814
vn 0.965927 -0.000040 0.258814
vn 0.965927 -0.000040 0.258814
vn 0.707105 -0.000013 0.707109
vn 0.707105 -0.000013 0.707109
vn 0.707105 -0.000013 0.707109
vn 0.707105 -0.000013 0.707109
vn 0.258820 0.000008 0.965926
vn 0.258820 0.000008 0.965926
vn 0.258820 0.000008 0.965926
vn 0.258820 0.000008 0.965926
vn -0.258819 0.000027 0.965926
vn -0.258819 0.000027 0.965926
vn -0.258819 0.000027 0.965926
vn -0.258819 0.000027 0.965926
vn -0.707108 0.000025 0.707105
vn -0.707108 0.000025 0.707105
vn -0.707108 0.000025 0.707105
vn -0.707108 0.000025 0.707105
vn -0.965926 0.000025 0.258820
vn -0.965926 0.000025 0.258820
vn -0.965926 0.000025 0.258820
vn -0.965926 0.000025 0.258820
vn -0.965926 0.000018 -0.258819
vn -0.965926 0.000018 -0.258819
vn -0.965926 0.000018 -0.258819
vn -0.965926 0.000018 -0.258819
vn -0.707104 0.000008 -0.707110
vn -0.707104 0.000008 -0.707110
vn -0.707104 0.000008 -0.707110
vn -0.707104 0.000008 -0.707110
vn -0.258819 -0.000014 -0.965926
vn -0.258819 -0.000014 -0.965926
vn -0.258819 -0.000014 -0.965926
vn -0.258819 -0.000014 -0.965926
vn 0.258819 -0.000029 -0.965926
vn 0.258819 -0.000029 -0.965926
vn 0.258819 -0.000029 -0.965926
vn 0.258819 -0.000029 -0.965926
vn 0.154044 0.975982 -0.154044
vn 0.154044 0.975982 -0.154044
vn 0.154044 0.975982 -0.154044
vn 0.154044 0.975982 -0.154044
vn 0.210429 0.975982 -0.056384
vn 0.210429 0.975982 -0.056384
vn 0.210429 0.975982 -0.056384
vn 0.210429 0.975982 -0.056384
vn 0.210428 0.975982 0.056384
vn 0.210428 0.975982 0.056384
vn 0.210428 0.975982 0.056384
vn 0.210428 0.975982 0.056384
vn 0.154042 0.975982 0.154043
vn 0.154042 0.975982 0.154043
vn 0.154042 0.975982 0.154043
vn 0.154042 0.975982 0.154043
vn 0.056383 0.975983 0.210424
vn 0.056383 0.975983 0.210424
vn 0.056383 0.975983 0.210424
vn 0.056383 0.975983 0.210424
vn -0.056383 0.975983 0.210425
vn -0.056383 0.975983 0.210425
vn -0.056383 0.975983 0.210425
vn -0.056383 0.975983 0.210425
vn -0.154041 0.975983 0.154040
vn -0.154041 0.975983 0.154040
vn -0.154041 0.975983 0.154040
vn -0.154041 0.975983 0.154040
vn -0.210425 0.975983 0.056382
vn -0.210425 0.975983 0.056382
vn -0.210425 0.975983 0.056382
vn -0.210425 0.975983 0.056382
vn -0.210425 0.975983 -0.056384
vn -0.210425 0.975983 -0.056384
vn -0.210425 0.975983 -0.056384
vn -0.210425 0.975983 -0.056384
vn -0.154042 0.975983 -0.154041
vn -0.154042 0.975983 -0.154041
vn -0.154042 0.975983 -0.154041
vn -0.154042 0.975983 -0.154041
vn -0.056383 0.975982 -0.210427
vn -0.056383 0.975982 -0.210427
vn -0.056383 0.975982 -0.210427
vn -0.056383 0.975982 -0.210427
vn 0.056384 0.975982 -0.210428
vn 0.056384 0.975982 -0.210428
vn 0.056384 0.975982 -0.210428
vn 0.056384 0.975982 -0.210428

vt -0.080722 -0.271012
vt -0.084859 -0.279285
vt -0.258378 -0.192526
vt -0.254241 -0.184252
vt -0.080334 -0.281325
vt -0.084327 -0.289669
vt -0.259314 -0.205911
vt -0.255321 -0.197567
vt -0.074519 -0.213842
vt -0.079381 -0.221711
vt -0.244423 -0.119745
vt -0.239561 -0.111876
vt -0.048417 -0.094800
vt -0.055944 -0.100176
vt -0.168704 0.057688
vt -0.161177 0.063064
vt 0.036179 -0.066242
vt 0.027537 -0.062946
vt 0.096672 0.118317
vt 0.105315 0.115021
vt 0.074447 -0.185663
vt 0.069006 -0.178182
vt 0.225897 -0.064072
vt 0.231338 -0.071552
vt 0.080722 -0.271012
vt 0.076585 -0.262738
vt 0.250104 -0.175979
vt 0.254241 -0.184252
vt 0.080334 -0.281325
vt 0.076340 -0.272982
vt 0.251327 -0.189224
vt 0.255321 -0.197567
vt 0.074519 -0.213842
vt 0.069657 -0.205973
vt 0.234699 -0.104006
vt 0.239561 -0.111876
vt 0.048417 -0.094800
vt 0.040890 -0.089424
vt 0.153650 0.068441
vt 0.161177 0.063064
vt -0.036179 -0.066242
vt -0.044822 -0.069539
vt -0.113957 0.111724
vt -0.105315 0.115021
vt -0.074447 -0.185663
vt -0.079888 -0.193144
vt -0.236779 -0.079033
vt -0.231338 -0.071553
vt -0.251828 0.045492
vt -0.247183 0.050703
vt -0.208819 0.018248
vt -0.215191 0.011099
vt -0.016652 -0.279959
vt -0.007998 -0.275860
vt 0.001547 -0.276637
vt 0.009425 -0.282082
vt 0.013524 -0.290736
vt 0.012747 -0.300281
vt 0.007302 -0.308159
vt -0.001353 -0.312258
vt -0.010897 -0.311481
vt -0.018775 -0.306036
vt -0.022874 -0.297381
vt -0.022097 -0.287837
vt 0.062400 0.212721
vt 0.069221 0.211235
vt 0.059801 0.161875
vt 0.050444 0.163913
vt 0.268886 -0.009633
vt 0.272830 -0.015393
vt 0.232116 -0.044846
vt 0.226705 -0.036945
vt 0.296932 -0.147469
vt 0.299917 -0.153780
vt 0.255060 -0.176430
vt 0.250966 -0.167773
vt 0.297380 -0.179243
vt 0.300391 -0.185541
vt 0.255630 -0.208378
vt 0.251499 -0.199739
vt 0.278823 -0.108295
vt 0.282572 -0.114185
vt 0.240888 -0.142250
vt 0.235747 -0.134171
vt 0.202465 0.055368
vt 0.207996 0.051108
vt 0.178371 0.010519
vt 0.170784 0.016362
vt -0.045857 0.159646
vt -0.038947 0.160639
vt -0.030519 0.111100
vt -0.039998 0.109738
vt -0.237658 -0.002689
vt -0.232814 0.002338
vt -0.195742 -0.031586
vt -0.202387 -0.038482
vt -0.288350 -0.144144
vt -0.284920 -0.138064
vt -0.240533 -0.161621
vt -0.245239 -0.169961
vt -0.301341 -0.187833
vt -0.298411 -0.181496
vt -0.252271 -0.201401
vt -0.256290 -0.210093
vt -0.297810 -0.127834
vt -0.294673 -0.121597
vt -0.249215 -0.143015
vt -0.253519 -0.151570
vt -0.230696 0.055152
vt -0.225530 0.059848
vt -0.224857 0.059108
vt -0.230023 0.054412
vt 0.048762 0.190478
vt 0.055642 0.189293
vt 0.055472 0.188307
vt 0.048593 0.189493
vt 0.252917 0.001882
vt 0.257370 -0.003495
vt 0.256600 -0.004133
vt 0.252147 0.001244
vt 0.294079 -0.140244
vt 0.297305 -0.146436
vt 0.296418 -0.146898
vt 0.293192 -0.140706
vt 0.301085 -0.178468
vt 0.304067 -0.184780
vt 0.303163 -0.185208
vt 0.300181 -0.178896
vt 0.289856 -0.111839
vt 0.293325 -0.117898
vt 0.292457 -0.118395
vt 0.288989 -0.112336
vt 0.225528 0.059852
vt 0.230693 0.055156
vt 0.230021 0.054416
vt 0.224855 0.059112
vt -0.055638 0.189294
vt -0.048758 0.190479
vt -0.048589 0.189494
vt -0.055468 0.188308
vt -0.257374 -0.003499
vt -0.252921 0.001878
vt -0.252151 0.001240
vt -0.256604 -0.004137
vt -0.297305 -0.146436
vt -0.294079 -0.140245
vt -0.293192 -0.140707
vt -0.296418 -0.146898
vt -0.304067 -0.184780
vt -0.301085 -0.178468
vt -0.300181 -0.178895
vt -0.303163 -0.185207
vt -0.293325 -0.117897
vt -0.289857 -0.111839
vt -0.288989 -0.112336
vt -0.292457 -0.118394
vt -0.024514 -0.319667
vt -0.028529 -0.317462
vt -0.027371 -0.312861
vt -0.021252 -0.316222
vt 0.012965 -0.321179
vt 0.008404 -0.321604
vt 0.006783 -0.317145
vt 0.013734 -0.316497
vt 0.047208 -0.313660
vt 0.043652 -0.316547
vt 0.039827 -0.313740
vt 0.045246 -0.309340
vt 0.066434 -0.300081
vt 0.064926 -0.304406
vt 0.060196 -0.304028
vt 0.062495 -0.297436
vt 0.067819 -0.283613
vt 0.068641 -0.288119
vt 0.064340 -0.290123
vt 0.063088 -0.283256
vt 0.053730 -0.267198
vt 0.056590 -0.270776
vt 0.053754 -0.274579
vt 0.049395 -0.269126
vt 0.028366 -0.255326
vt 0.032566 -0.257152
vt 0.031837 -0.261840
vt 0.025434 -0.259057
vt -0.002480 -0.252749
vt 0.002087 -0.252405
vt 0.003630 -0.256891
vt -0.003332 -0.257417
vt -0.031733 -0.260944
vt -0.027854 -0.258508
vt -0.024396 -0.261757
vt -0.030308 -0.265470
vt -0.052673 -0.276663
vt -0.050387 -0.272694
vt -0.045810 -0.273944
vt -0.049294 -0.279994
vt -0.060237 -0.294427
vt -0.060130 -0.289847
vt -0.055513 -0.288755
vt -0.055676 -0.295734
vt -0.051054 -0.309783
vt -0.053261 -0.305769
vt -0.049817 -0.302505
vt -0.046453 -0.308623
s off
f 1/1/1 2/2/2 3/3/3
f 1/1/1 3/3/3 4/4/4
f 5/5/5 6/6/6 7/7/7
f 5/5/5 7/7/7 8/8/8
f 9/9/9 10/10/10 11/11/11
f 9/9/9 11/11/11 12/12/12
f 13/13/13 14/14/14 15/15/15
f 13/13/13 15/15/15 16/16/16
f 17/17/17 18/18/18 19/19/19
f 17/17/17 19/19/19 20/20/20
f 21/21/21 22/22/22 23/23/23
f 21/21/21 23/23/23 24/24/24
f 25/25/25 26/26/26 27/27/27
f 25/25/25 27/27/27 28/28/28
f 29/29/29 30/30/30 31/31/31
f 29/29/29 31/31/31 32/32/32
f 33/33/33 34/34/34 35/35/35
f 33/33/33 35/35/35 36/36/36
f 37/37/37 38/38/38 39/39/39
f 37/37/37 39/39/39 40/40/40
f 41/41/41 42/42/42 43/43/43
f 41/41/41 43/43/43 44/44/44
f 45/45/45 46/46/46 47/47/47
f 45/45/45 47/47/47 48/48/48
f 49/49/49 50/50/50 51/51/51
f 49/49/49 51/51/51 52/52/52
f 53/53/53 54/54/54 55/55/55
f 53/53/53 55/55/55 56/56/56
f 53/53/53 56/56/56 57/57/57
f 53/53/53 57/57/57 58/58/58
f 53/53/53 58/58/58 59/59/59
f 53/53/53 59/59/59 60/60/60
f 53/53/53 60/60/60 61/61/61
f 53/53/53 61/61/61 62/62/62
f 53/53/53 62/62/62 63/63/63
f 53/53/53 63/63/63 64/64/64
f 65/65/65 66/66/66 67/67/67
f 65/65/65 67/67/67 68/68/68
f 69/69/69 70/70/70 71/71/71
f 69/69/69 71/71/71 72/72/72
f 73/73/73 74/74/74 75/75/75
f 73/73/73 75/75/75 76/76/76
f 77/77/77 78/78/78 79/79/79
f 77/77/77 79/79/79 80/80/80
f 81/81/81 82/82/82 83/83/83
f 81/81/81 83/83/83 84/84/84
f 85/85/85 86/86/86 87/87/87
f 85/85/85 87/87/87 88/88/88
f 89/89/89 90/90/90 91/91/91
f 89/89/89 91/91/91 92/92/92
f 93/93/93 94/94/94 95/95/95
f 93/93/93 95/95/95 96/96/96
f 97/97/97 98/98/98 99/99/99
f 97/97/97 99/99/99 100/100/100
f 101/101/101 102/102/102 103/103/103
f 101/101/101 103/103/103 104/104/104
f 105/105/105 106/106/106 107/107/107
f 105/105/105 107/107/107 108/108/108
f 109/109/109 110/110/110 111/111/111
f 109/109/109 111/111/111 112/112/112
f 113/113/113 114/114/114 115/115/115
f 113/113/113 115/115/115 116/116/116
f 117/117/117 118/118/118 119/119/119
f 117/117/117 119/119/119 120/120/120
f 121/121/121 122/122/122 123/123/123
f 121/121/121 123/123/123 124/124/124
f 125/125/125 126/126/126 127/127/127
f 125/125/125 127/127/127 128/128/128
f 129/129/129 130/130/130 131/131/131
f 129/129/129 131/131/131 132/132/132
f 133/133/133 134/134/134 135/135/135
f 133/133/133 135/135/135 136/136/136
f 137/137/137 138/138/138 139/139/139
f 137/137/137 139/139/139 140/140/140
f 141/141/141 142/142/142 143/143/143
f 141/141/141 143/143/143 144/144/144
f 145/145/145 146/146/146 147/147/147
f 145/145/145 147/147/147 148/148/148
f 149/149/149 150/150/150 151/151/151
f 149/149/149 151/151/151 152/152/152
f 153/153/153 154/154/154 155/155/155
f 153/153/153 155/155/155 156/156/156
f 157/157/157 158/158/158 159/159/159
f 157/157/157 159/159/159 160/160/160
f 161/161/161 162/162/162 163/163/163
f 161/161/161 163/163/163 164/164/164
f 165/165/165 166/166/166 167/167/167
f 165/165/165 167/167/167 168/168/168
f 169/169/169 170/170/170 171/171/171
f 169/169/169 171/171/171 172/172/172
f 173/173/173 174/174/174 175/175/175
f 173/173/173 175/175/175 176/176/176
f 177/177/177 178/178/178 179/179/179
f 177/177/177 179/179/179 180/180/180
f 181/181/181 182/182/182 183/183/183
f 181/181/181 183/183/183 184/184/184
f 185/185/185 186/186/186 187/187/187
f 185/185/185 187/187/187 188/188/188
f 189/189/189 190/190/190 191/191/191
f 189/189/189 191/191/191 192/192/192
f 193/193/193 194/194/194 195/195/195
f 193/193/193 195/195/195 196/196/196
f 197/197/197 198/198/198 199/199/199
f 197/197/197 199/199/199 200/200/200
f 201/201/201 202/202/202 203/203/203
f 201/201/201 203/203/203 204/204/204
