# Exported using automatic converter by Erwin Coumans
mtllib model6.mtl
#object mesh1665786058

v 3.298238 -0.434511 0.189852
v 3.298238 -0.314511 0.189852
v 3.248238 -0.314511 0.189852
v 3.248238 -0.434511 0.189852
v 3.248238 -0.314511 -3.240148
v 3.298238 -0.314511 -3.240148
v 3.298238 -0.434511 -3.240148
v 3.248238 -0.434511 -3.240148
v 3.248238 -0.314511 0.189852
v 3.248238 -0.314511 -3.240148
v 3.248238 -0.434511 -3.240148
v 3.248238 -0.434511 0.189852
v 3.298238 -0.434511 -3.240148
v 3.298238 -0.314511 -3.240148
v 3.298238 -0.314511 0.189852
v 3.298238 -0.434511 0.189852
v 3.248238 -0.434511 -3.240148
v 3.298238 -0.434511 -3.240148
v 3.298238 -0.434511 0.189852
v 3.248238 -0.434511 0.189852
v 3.298238 -0.314511 0.189852
v 3.298238 -0.314511 -3.240148
v 3.248238 -0.314511 -3.240148
v 3.248238 -0.314511 0.189852
usemtl mat5

vn 0.000000 0.000000 1.000000
vn 0.000000 0.000000 1.000000
vn 0.000000 0.000000 1.000000
vn 0.000000 0.000000 1.000000
vn 0.000000 0.000000 -1.000000
vn 0.000000 0.000000 -1.000000
vn 0.000000 0.000000 -1.000000
vn 0.000000 0.000000 -1.000000
vn -1.000000 0.000000 0.000000
vn -1.000000 0.000000 0.000000
vn -1.000000 0.000000 0.000000
vn -1.000000 0.000000 0.000000
vn 1.000000 0.000000 0.000000
vn 1.000000 0.000000 0.000000
vn 1.000000 0.000000 0.000000
vn 1.000000 0.000000 0.000000
vn 0.000000 -1.000000 0.000000
vn 0.000000 -1.000000 0.000000
vn 0.000000 -1.000000 0.000000
vn 0.000000 -1.000000 0.000000
vn 0.000000 1.000000 0.000000
vn 0.000000 1.000000 0.000000
vn 0.000000 1.000000 0.000000
vn 0.000000 1.000000 0.000000

vt -0.129245 0.269670
vt -0.118512 0.275036
vt -0.116275 0.270564
vt -0.127009 0.265198
vt 0.116275 0.270564
vt 0.118512 0.275036
vt 0.129245 0.269670
vt 0.127009 0.265198
vt -0.097764 -0.048940
vt 0.181346 0.150424
vt 0.188321 0.140660
vt -0.090789 -0.058705
vt -0.188321 0.140660
vt -0.181346 0.150424
vt 0.097764 -0.048940
vt 0.090789 -0.058705
vt -0.122427 0.355911
vt -0.120745 0.360620
vt 0.202273 0.245256
vt 0.200591 0.240548
vt -0.202273 0.245256
vt 0.120745 0.360620
vt 0.122427 0.355911
vt -0.200591 0.240548
s off
f 1/1/1 2/2/2 3/3/3
f 1/1/1 3/3/3 4/4/4
f 5/5/5 6/6/6 7/7/7
f 5/5/5 7/7/7 8/8/8
f 9/9/9 10/10/10 11/11/11
f 9/9/9 11/11/11 12/12/12
f 13/13/13 14/14/14 15/15/15
f 13/13/13 15/15/15 16/16/16
f 17/17/17 18/18/18 19/19/19
f 17/17/17 19/19/19 20/20/20
f 21/21/21 22/22/22 23/23/23
f 21/21/21 23/23/23 24/24/24
