# Exported using automatic converter by Erwin Coumans
mtllib model6.mtl
#object group261362406_1

v 0.840738 -0.459511 -0.221487
v 0.840738 -0.439511 -0.221487
v 0.825738 -0.439511 -0.221487
v 0.825738 -0.459511 -0.221487
v 0.825738 -0.439511 -0.241487
v 0.840738 -0.439511 -0.241487
v 0.840738 -0.459511 -0.241487
v 0.825738 -0.459511 -0.241487
v 0.825738 -0.439511 -0.221487
v 0.825738 -0.439511 -0.241487
v 0.825738 -0.459511 -0.241487
v 0.825738 -0.459511 -0.221487
v 0.840738 -0.459511 -0.241487
v 0.840738 -0.439511 -0.241487
v 0.840738 -0.439511 -0.221487
v 0.840738 -0.459511 -0.221487
v 0.825738 -0.459511 -0.241487
v 0.840738 -0.459511 -0.241487
v 0.840738 -0.459511 -0.221487
v 0.825738 -0.459511 -0.221487
v 0.840738 -0.439511 -0.221487
v 0.840738 -0.439511 -0.241487
v 0.825738 -0.439511 -0.241487
v 0.825738 -0.439511 -0.221487
v 0.840738 -0.429511 -0.221488
v 0.840738 -0.409511 -0.221488
v 0.820738 -0.409511 -0.221488
v 0.820738 -0.429511 -0.221488
v 0.820738 -0.409511 -0.241488
v 0.840738 -0.409511 -0.241488
v 0.840738 -0.429511 -0.241488
v 0.820738 -0.429511 -0.241488
v 0.820738 -0.409511 -0.221488
v 0.820738 -0.409511 -0.241488
v 0.820738 -0.429511 -0.241488
v 0.820738 -0.429511 -0.221488
v 0.840738 -0.429511 -0.241488
v 0.840738 -0.409511 -0.241488
v 0.840738 -0.409511 -0.221488
v 0.840738 -0.429511 -0.221488
v 0.820738 -0.429511 -0.241488
v 0.840738 -0.429511 -0.241488
v 0.840738 -0.429511 -0.221488
v 0.820738 -0.429511 -0.221488
v 0.840738 -0.409511 -0.221488
v 0.840738 -0.409511 -0.241488
v 0.820738 -0.409511 -0.241488
v 0.820738 -0.409511 -0.221488
v 0.835738 -0.464511 -0.221487
v 0.835738 -0.444511 -0.221487
v 0.815738 -0.444511 -0.221487
v 0.815738 -0.464511 -0.221487
v 0.815738 -0.444511 -0.241487
v 0.835738 -0.444511 -0.241487
v 0.835738 -0.464511 -0.241487
v 0.815738 -0.464511 -0.241487
v 0.815738 -0.444511 -0.221487
v 0.815738 -0.444511 -0.241487
v 0.815738 -0.464511 -0.241487
v 0.815738 -0.464511 -0.221487
v 0.835738 -0.464511 -0.241487
v 0.835738 -0.444511 -0.241487
v 0.835738 -0.444511 -0.221487
v 0.835738 -0.464511 -0.221487
v 0.815738 -0.464511 -0.241487
v 0.835738 -0.464511 -0.241487
v 0.835738 -0.464511 -0.221487
v 0.815738 -0.464511 -0.221487
v 0.835738 -0.444511 -0.221487
v 0.835738 -0.444511 -0.241487
v 0.815738 -0.444511 -0.241487
v 0.815738 -0.444511 -0.221487
v 0.840738 -0.424511 -0.186488
v 0.840738 -0.404511 -0.186488
v 0.820738 -0.404511 -0.186488
v 0.820738 -0.424511 -0.186488
v 0.820738 -0.404511 -0.206488
v 0.840738 -0.404511 -0.206488
v 0.840738 -0.424511 -0.206488
v 0.820738 -0.424511 -0.206488
v 0.820738 -0.404511 -0.186488
v 0.820738 -0.404511 -0.206488
v 0.820738 -0.424511 -0.206488
v 0.820738 -0.424511 -0.186488
v 0.840738 -0.424511 -0.206488
v 0.840738 -0.404511 -0.206488
v 0.840738 -0.404511 -0.186488
v 0.840738 -0.424511 -0.186488
v 0.820738 -0.424511 -0.206488
v 0.840738 -0.424511 -0.206488
v 0.840738 -0.424511 -0.186488
v 0.820738 -0.424511 -0.186488
v 0.840738 -0.404511 -0.186488
v 0.840738 -0.404511 -0.206488
v 0.820738 -0.404511 -0.206488
v 0.820738 -0.404511 -0.186488
v 0.845738 -0.459511 -0.186488
v 0.845738 -0.439511 -0.186488
v 0.815738 -0.439511 -0.186488
v 0.815738 -0.459511 -0.186488
v 0.815738 -0.439511 -0.206488
v 0.845738 -0.439511 -0.206488
v 0.845738 -0.459511 -0.206488
v 0.815738 -0.459511 -0.206488
v 0.815738 -0.439511 -0.186488
v 0.815738 -0.439511 -0.206488
v 0.815738 -0.459511 -0.206488
v 0.815738 -0.459511 -0.186488
v 0.845738 -0.459511 -0.206488
v 0.845738 -0.439511 -0.206488
v 0.845738 -0.439511 -0.186488
v 0.845738 -0.459511 -0.186488
v 0.815738 -0.459511 -0.206488
v 0.845738 -0.459511 -0.206488
v 0.845738 -0.459511 -0.186488
v 0.815738 -0.459511 -0.186488
v 0.845738 -0.439511 -0.186488
v 0.845738 -0.439511 -0.206488
v 0.815738 -0.439511 -0.206488
v 0.815738 -0.439511 -0.186488
usemtl mat21

vn 0.000000 0.000000 1.000000
vn 0.000000 0.000000 1.000000
vn 0.000000 0.000000 1.000000
vn 0.000000 0.000000 1.000000
vn -0.000000 -0.000000 -1.000000
vn -0.000000 -0.000000 -1.000000
vn -0.000000 -0.000000 -1.000000
vn -0.000000 -0.000000 -1.000000
vn -1.000000 -0.000000 0.000000
vn -1.000000 -0.000000 0.000000
vn -1.000000 -0.000000 0.000000
vn -1.000000 -0.000000 0.000000
vn 1.000000 0.000000 -0.000000
vn 1.000000 0.000000 -0.000000
vn 1.000000 0.000000 -0.000000
vn 1.000000 0.000000 -0.000000
vn 0.000000 -1.000000 0.000000
vn 0.000000 -1.000000 0.000000
vn 0.000000 -1.000000 0.000000
vn 0.000000 -1.000000 0.000000
vn -0.000000 1.000000 -0.000000
vn -0.000000 1.000000 -0.000000
vn -0.000000 1.000000 -0.000000
vn -0.000000 1.000000 -0.000000
vn 0.000000 0.000000 1.000000
vn 0.000000 0.000000 1.000000
vn 0.000000 0.000000 1.000000
vn 0.000000 0.000000 1.000000
vn -0.000000 -0.000000 -1.000000
vn -0.000000 -0.000000 -1.000000
vn -0.000000 -0.000000 -1.000000
vn -0.000000 -0.000000 -1.000000
vn -1.000000 -0.000000 0.000000
vn -1.000000 -0.000000 0.000000
vn -1.000000 -0.000000 0.000000
vn -1.000000 -0.000000 0.000000
vn 1.000000 0.000000 -0.000000
vn 1.000000 0.000000 -0.000000
vn 1.000000 0.000000 -0.000000
vn 1.000000 0.000000 -0.000000
vn 0.000000 -1.000000 0.000000
vn 0.000000 -1.000000 0.000000
vn 0.000000 -1.000000 0.000000
vn 0.000000 -1.000000 0.000000
vn -0.000000 1.000000 -0.000000
vn -0.000000 1.000000 -0.000000
vn -0.000000 1.000000 -0.000000
vn -0.000000 1.000000 -0.000000
vn 0.000000 0.000000 1.000000
vn 0.000000 0.000000 1.000000
vn 0.000000 0.000000 1.000000
vn 0.000000 0.000000 1.000000
vn -0.000000 -0.000000 -1.000000
vn -0.000000 -0.000000 -1.000000
vn -0.000000 -0.000000 -1.000000
vn -0.000000 -0.000000 -1.000000
vn -1.000000 -0.000000 0.000000
vn -1.000000 -0.000000 0.000000
vn -1.000000 -0.000000 0.000000
vn -1.000000 -0.000000 0.000000
vn 1.000000 0.000000 -0.000000
vn 1.000000 0.000000 -0.000000
vn 1.000000 0.000000 -0.000000
vn 1.000000 0.000000 -0.000000
vn 0.000000 -1.000000 0.000000
vn 0.000000 -1.000000 0.000000
vn 0.000000 -1.000000 0.000000
vn 0.000000 -1.000000 0.000000
vn -0.000000 1.000000 -0.000000
vn -0.000000 1.000000 -0.000000
vn -0.000000 1.000000 -0.000000
vn -0.000000 1.000000 -0.000000
vn 0.000000 0.000000 1.000000
vn 0.000000 0.000000 1.000000
vn 0.000000 0.000000 1.000000
vn 0.000000 0.000000 1.000000
vn -0.000000 -0.000000 -1.000000
vn -0.000000 -0.000000 -1.000000
vn -0.000000 -0.000000 -1.000000
vn -0.000000 -0.000000 -1.000000
vn -1.000000 -0.000000 0.000000
vn -1.000000 -0.000000 0.000000
vn -1.000000 -0.000000 0.000000
vn -1.000000 -0.000000 0.000000
vn 1.000000 0.000000 -0.000000
vn 1.000000 0.000000 -0.000000
vn 1.000000 0.000000 -0.000000
vn 1.000000 0.000000 -0.000000
vn 0.000000 -1.000000 0.000000
vn 0.000000 -1.000000 0.000000
vn 0.000000 -1.000000 0.000000
vn 0.000000 -1.000000 0.000000
vn -0.000000 1.000000 -0.000000
vn -0.000000 1.000000 -0.000000
vn -0.000000 1.000000 -0.000000
vn -0.000000 1.000000 -0.000000
vn 0.000000 0.000000 1.000000
vn 0.000000 0.000000 1.000000
vn 0.000000 0.000000 1.000000
vn 0.000000 0.000000 1.000000
vn -0.000000 -0.000000 -1.000000
vn -0.000000 -0.000000 -1.000000
vn -0.000000 -0.000000 -1.000000
vn -0.000000 -0.000000 -1.000000
vn -1.000000 -0.000000 0.000000
vn -1.000000 -0.000000 0.000000
vn -1.000000 -0.000000 0.000000
vn -1.000000 -0.000000 0.000000
vn 1.000000 0.000000 -0.000000
vn 1.000000 0.000000 -0.000000
vn 1.000000 0.000000 -0.000000
vn 1.000000 0.000000 -0.000000
vn 0.000000 -1.000000 0.000000
vn 0.000000 -1.000000 0.000000
vn 0.000000 -1.000000 0.000000
vn 0.000000 -1.000000 0.000000
vn -0.000000 1.000000 -0.000000
vn -0.000000 1.000000 -0.000000
vn -0.000000 1.000000 -0.000000
vn -0.000000 1.000000 -0.000000

vt -0.021578 0.048746
vt -0.019789 0.049641
vt -0.019118 0.048299
vt -0.020907 0.047405
vt 0.019118 0.048299
vt 0.019789 0.049641
vt 0.021578 0.048746
vt 0.020907 0.047405
vt -0.057027 -0.035203
vt -0.055399 -0.034041
vt -0.054237 -0.035668
vt -0.055864 -0.036831
vt 0.054237 -0.035668
vt 0.055399 -0.034041
vt 0.057027 -0.035203
vt 0.055864 -0.036831
vt 0.078493 0.026918
vt 0.078997 0.028331
vt 0.080881 0.027658
vt 0.080376 0.026246
vt -0.080881 0.027658
vt -0.078997 0.028331
vt -0.078493 0.026918
vt -0.080376 0.026246
vt -0.018895 0.050088
vt -0.017106 0.050982
vt -0.016212 0.049193
vt -0.018000 0.048299
vt 0.016212 0.049193
vt 0.017106 0.050982
vt 0.018895 0.050088
vt 0.018000 0.048299
vt -0.058770 -0.032762
vt -0.057143 -0.031600
vt -0.055980 -0.033227
vt -0.057608 -0.034390
vt 0.055980 -0.033227
vt 0.057143 -0.031600
vt 0.058770 -0.032762
vt 0.057608 -0.034390
vt 0.078324 0.026447
vt 0.078997 0.028331
vt 0.080880 0.027658
vt 0.080208 0.025775
vt -0.080880 0.027658
vt -0.078997 0.028331
vt -0.078324 0.026447
vt -0.080208 0.025775
vt -0.021802 0.048075
vt -0.020013 0.048970
vt -0.019118 0.047181
vt -0.020907 0.046287
vt 0.019118 0.047181
vt 0.020013 0.048970
vt 0.021802 0.048075
vt 0.020907 0.046287
vt -0.056736 -0.035610
vt -0.055109 -0.034448
vt -0.053946 -0.036075
vt -0.055574 -0.037238
vt 0.053946 -0.036075
vt 0.055109 -0.034448
vt 0.056736 -0.035610
vt 0.055574 -0.037238
vt 0.078156 0.025977
vt 0.078829 0.027860
vt 0.080712 0.027187
vt 0.080040 0.025304
vt -0.080712 0.027187
vt -0.078829 0.027860
vt -0.078156 0.025977
vt -0.080040 0.025304
vt -0.018448 0.050311
vt -0.016659 0.051206
vt -0.015764 0.049417
vt -0.017553 0.048523
vt 0.015764 0.049417
vt 0.016659 0.051206
vt 0.018448 0.050311
vt 0.017553 0.048523
vt -0.061909 -0.034390
vt -0.060282 -0.033227
vt -0.059119 -0.034855
vt -0.060747 -0.036017
vt 0.059119 -0.034855
vt 0.060282 -0.033227
vt 0.061909 -0.034390
vt 0.060747 -0.036017
vt 0.081620 0.025270
vt 0.082293 0.027154
vt 0.084177 0.026481
vt 0.083504 0.024598
vt -0.084177 0.026481
vt -0.082293 0.027154
vt -0.081620 0.025270
vt -0.083504 0.024598
vt -0.021802 0.049193
vt -0.020013 0.050088
vt -0.018671 0.047405
vt -0.020460 0.046510
vt 0.018671 0.047405
vt 0.020013 0.050088
vt 0.021802 0.049193
vt 0.020460 0.046510
vt -0.059875 -0.037238
vt -0.058247 -0.036075
vt -0.057085 -0.037703
vt -0.058712 -0.038865
vt 0.057085 -0.037703
vt 0.058247 -0.036075
vt 0.059875 -0.037238
vt 0.058712 -0.038865
vt 0.081452 0.024799
vt 0.082461 0.027625
vt 0.084345 0.026952
vt 0.083336 0.024127
vt -0.084345 0.026952
vt -0.082461 0.027625
vt -0.081452 0.024799
vt -0.083336 0.024127
s off
f 1/1/1 2/2/2 3/3/3
f 1/1/1 3/3/3 4/4/4
f 5/5/5 6/6/6 7/7/7
f 5/5/5 7/7/7 8/8/8
f 9/9/9 10/10/10 11/11/11
f 9/9/9 11/11/11 12/12/12
f 13/13/13 14/14/14 15/15/15
f 13/13/13 15/15/15 16/16/16
f 17/17/17 18/18/18 19/19/19
f 17/17/17 19/19/19 20/20/20
f 21/21/21 22/22/22 23/23/23
f 21/21/21 23/23/23 24/24/24
f 25/25/25 26/26/26 27/27/27
f 25/25/25 27/27/27 28/28/28
f 29/29/29 30/30/30 31/31/31
f 29/29/29 31/31/31 32/32/32
f 33/33/33 34/34/34 35/35/35
f 33/33/33 35/35/35 36/36/36
f 37/37/37 38/38/38 39/39/39
f 37/37/37 39/39/39 40/40/40
f 41/41/41 42/42/42 43/43/43
f 41/41/41 43/43/43 44/44/44
f 45/45/45 46/46/46 47/47/47
f 45/45/45 47/47/47 48/48/48
f 49/49/49 50/50/50 51/51/51
f 49/49/49 51/51/51 52/52/52
f 53/53/53 54/54/54 55/55/55
f 53/53/53 55/55/55 56/56/56
f 57/57/57 58/58/58 59/59/59
f 57/57/57 59/59/59 60/60/60
f 61/61/61 62/62/62 63/63/63
f 61/61/61 63/63/63 64/64/64
f 65/65/65 66/66/66 67/67/67
f 65/65/65 67/67/67 68/68/68
f 69/69/69 70/70/70 71/71/71
f 69/69/69 71/71/71 72/72/72
f 73/73/73 74/74/74 75/75/75
f 73/73/73 75/75/75 76/76/76
f 77/77/77 78/78/78 79/79/79
f 77/77/77 79/79/79 80/80/80
f 81/81/81 82/82/82 83/83/83
f 81/81/81 83/83/83 84/84/84
f 85/85/85 86/86/86 87/87/87
f 85/85/85 87/87/87 88/88/88
f 89/89/89 90/90/90 91/91/91
f 89/89/89 91/91/91 92/92/92
f 93/93/93 94/94/94 95/95/95
f 93/93/93 95/95/95 96/96/96
f 97/97/97 98/98/98 99/99/99
f 97/97/97 99/99/99 100/100/100
f 101/101/101 102/102/102 103/103/103
f 101/101/101 103/103/103 104/104/104
f 105/105/105 106/106/106 107/107/107
f 105/105/105 107/107/107 108/108/108
f 109/109/109 110/110/110 111/111/111
f 109/109/109 111/111/111 112/112/112
f 113/113/113 114/114/114 115/115/115
f 113/113/113 115/115/115 116/116/116
f 117/117/117 118/118/118 119/119/119
f 117/117/117 119/119/119 120/120/120
