# Exported using automatic converter by Erwin Coumans
mtllib model6.mtl
#object mesh1458277294

v 0.582053 0.472706 1.041697
v -0.105919 0.478295 1.042093
v -0.105860 0.485537 1.042061
v 0.582111 0.479948 1.041665
v -0.105803 0.485951 1.136207
v -0.105862 0.478709 1.136239
v 0.582110 0.473120 1.135842
v 0.582169 0.480362 1.135810
v -0.105860 0.485537 1.042061
v -0.105803 0.485951 1.136207
v 0.582169 0.480362 1.135810
v 0.582111 0.479948 1.041665
v 0.582110 0.473120 1.135842
v -0.105862 0.478709 1.136239
v -0.105919 0.478295 1.042093
v 0.582053 0.472706 1.041697
v 0.582169 0.480362 1.135810
v 0.582110 0.473120 1.135842
v 0.582053 0.472706 1.041697
v 0.582111 0.479948 1.041665
v -0.105919 0.478295 1.042093
v -0.105862 0.478709 1.136239
v -0.105803 0.485951 1.136207
v -0.105860 0.485537 1.042061
v 0.581821 0.464224 0.759291
v -0.106151 0.469813 0.759688
v -0.106033 0.484297 0.759624
v 0.581939 0.478708 0.759228
v -0.105976 0.484711 0.853770
v -0.106034 0.477469 0.853802
v 0.581937 0.471880 0.853405
v 0.581996 0.479121 0.853373
v -0.106033 0.484297 0.759624
v -0.105976 0.484711 0.853770
v 0.581996 0.479121 0.853373
v 0.581939 0.478708 0.759228
v 0.581937 0.471880 0.853405
v -0.106034 0.477469 0.853802
v -0.106151 0.469813 0.759688
v 0.581821 0.464224 0.759291
v 0.581996 0.479121 0.853373
v 0.581937 0.471880 0.853405
v 0.581821 0.464224 0.759291
v 0.581939 0.478708 0.759228
v -0.106151 0.469813 0.759688
v -0.106034 0.477469 0.853802
v -0.105976 0.484711 0.853770
v -0.106033 0.484297 0.759624
v 0.581827 0.471084 0.672356
v -0.106145 0.476673 0.672753
v -0.106086 0.483915 0.672721
v 0.581886 0.478326 0.672324
v -0.106029 0.484329 0.766867
v -0.106087 0.477087 0.766899
v 0.581884 0.471498 0.766502
v 0.581943 0.478740 0.766470
v -0.106086 0.483915 0.672721
v -0.106029 0.484329 0.766867
v 0.581943 0.478740 0.766470
v 0.581886 0.478326 0.672324
v 0.581884 0.471498 0.766502
v -0.106087 0.477087 0.766899
v -0.106145 0.476673 0.672753
v 0.581827 0.471084 0.672356
v 0.581943 0.478740 0.766470
v 0.581884 0.471498 0.766502
v 0.581827 0.471084 0.672356
v 0.581886 0.478326 0.672324
v -0.106145 0.476673 0.672753
v -0.106087 0.477087 0.766899
v -0.106029 0.484329 0.766867
v -0.106086 0.483915 0.672721
v 0.581769 0.470670 0.578208
v -0.106203 0.476259 0.578605
v -0.106144 0.483501 0.578573
v 0.581828 0.477912 0.578177
v -0.106087 0.483915 0.672719
v -0.106145 0.476673 0.672751
v 0.581826 0.471084 0.672354
v 0.581885 0.478326 0.672322
v -0.106144 0.483501 0.578573
v -0.106087 0.483915 0.672719
v 0.581885 0.478326 0.672322
v 0.581828 0.477912 0.578177
v 0.581826 0.471084 0.672354
v -0.106145 0.476673 0.672751
v -0.106203 0.476259 0.578605
v 0.581769 0.470670 0.578208
v 0.581885 0.478326 0.672322
v 0.581826 0.471084 0.672354
v 0.581769 0.470670 0.578208
v 0.581828 0.477912 0.578177
v -0.106203 0.476259 0.578605
v -0.106145 0.476673 0.672751
v -0.106087 0.483915 0.672719
v -0.106144 0.483501 0.578573
v 0.582106 0.473088 1.128599
v -0.105866 0.478678 1.128996
v -0.105807 0.485919 1.128964
v 0.582165 0.480330 1.128567
v -0.105750 0.486333 1.223109
v -0.105808 0.479091 1.223141
v 0.582164 0.473502 1.222745
v 0.582222 0.480744 1.222713
v -0.105807 0.485919 1.128964
v -0.105750 0.486333 1.223109
v 0.582222 0.480744 1.222713
v 0.582165 0.480330 1.128567
v 0.582164 0.473502 1.222745
v -0.105808 0.479091 1.223141
v -0.105866 0.478678 1.128996
v 0.582106 0.473088 1.128599
v 0.582222 0.480744 1.222713
v 0.582164 0.473502 1.222745
v 0.582106 0.473088 1.128599
v 0.582165 0.480330 1.128567
v -0.105866 0.478678 1.128996
v -0.105808 0.479091 1.223141
v -0.105750 0.486333 1.223109
v -0.105807 0.485919 1.128964
v 0.581995 0.472293 0.947551
v -0.105977 0.477882 0.947947
v -0.105918 0.485124 0.947916
v 0.582054 0.479535 0.947519
v -0.105860 0.485538 1.042061
v -0.105919 0.478296 1.042093
v 0.582053 0.472707 1.041697
v 0.582111 0.479949 1.041665
v -0.105918 0.485124 0.947916
v -0.105860 0.485538 1.042061
v 0.582111 0.479949 1.041665
v 0.582054 0.479535 0.947519
v 0.582053 0.472707 1.041697
v -0.105919 0.478296 1.042093
v -0.105977 0.477882 0.947947
v 0.581995 0.472293 0.947551
v 0.582111 0.479949 1.041665
v 0.582053 0.472707 1.041697
v 0.581995 0.472293 0.947551
v 0.582054 0.479535 0.947519
v -0.105977 0.477882 0.947947
v -0.105919 0.478296 1.042093
v -0.105860 0.485538 1.042061
v -0.105918 0.485124 0.947916
v 0.587422 0.476045 0.849266
v -0.100329 0.494888 0.843566
v 0.587544 0.483286 0.849219
v -0.101092 0.495511 0.937708
v 0.586659 0.476668 0.943407
v 0.586781 0.483909 0.943360
v -0.100329 0.494888 0.843566
v -0.101092 0.495511 0.937708
v 0.586781 0.483909 0.943360
v 0.587544 0.483286 0.849219
v 0.586659 0.476668 0.943407
v -0.108511 0.481119 0.945033
v -0.107748 0.480496 0.850891
v 0.587422 0.476045 0.849266
v 0.586781 0.483909 0.943360
v 0.586659 0.476668 0.943407
v 0.587422 0.476045 0.849266
v 0.587544 0.483286 0.849219
v -0.107748 0.480496 0.850891
v -0.108511 0.481119 0.945033
v -0.101092 0.495511 0.937708
v -0.100329 0.494888 0.843566
v 0.587422 0.476045 0.849266
v -0.107748 0.480496 0.850891
v -0.100329 0.494888 0.843566
v -0.101092 0.495511 0.937708
v -0.108511 0.481119 0.945033
v 0.586659 0.476668 0.943407
usemtl mat24

vn -0.000612 -0.004395 -0.999990
vn -0.000612 -0.004395 -0.999990
vn -0.000612 -0.004395 -0.999990
vn -0.000612 -0.004395 -0.999990
vn 0.000612 0.004395 0.999990
vn 0.000612 0.004395 0.999990
vn 0.000612 0.004395 0.999990
vn 0.000612 0.004395 0.999990
vn 0.008121 0.999957 -0.004400
vn 0.008121 0.999957 -0.004400
vn 0.008121 0.999957 -0.004400
vn 0.008121 0.999957 -0.004400
vn -0.008121 -0.999957 0.004400
vn -0.008121 -0.999957 0.004400
vn -0.008121 -0.999957 0.004400
vn -0.008121 -0.999957 0.004400
vn 0.999967 -0.008124 -0.000576
vn 0.999967 -0.008124 -0.000576
vn 0.999967 -0.008124 -0.000576
vn 0.999967 -0.008124 -0.000576
vn -0.999967 0.008124 0.000576
vn -0.999967 0.008124 0.000576
vn -0.999967 0.008124 0.000576
vn -0.999967 0.008124 0.000576
vn -0.000612 -0.004395 -0.999990
vn -0.000612 -0.004395 -0.999990
vn -0.000612 -0.004395 -0.999990
vn -0.000612 -0.004395 -0.999990
vn 0.000612 0.004395 0.999990
vn 0.000612 0.004395 0.999990
vn 0.000612 0.004395 0.999990
vn 0.000612 0.004395 0.999990
vn 0.008121 0.999957 -0.004400
vn 0.008121 0.999957 -0.004400
vn 0.008121 0.999957 -0.004400
vn 0.008121 0.999957 -0.004400
vn -0.008050 -0.996675 0.081083
vn -0.008050 -0.996675 0.081083
vn -0.008050 -0.996675 0.081083
vn -0.008050 -0.996675 0.081083
vn 0.999967 -0.008124 -0.000576
vn 0.999967 -0.008124 -0.000576
vn 0.999967 -0.008124 -0.000576
vn 0.999967 -0.008124 -0.000576
vn -0.999967 0.008124 0.000576
vn -0.999967 0.008124 0.000576
vn -0.999967 0.008124 0.000576
vn -0.999967 0.008124 0.000576
vn -0.000612 -0.004395 -0.999990
vn -0.000612 -0.004395 -0.999990
vn -0.000612 -0.004395 -0.999990
vn -0.000612 -0.004395 -0.999990
vn 0.000612 0.004395 0.999990
vn 0.000612 0.004395 0.999990
vn 0.000612 0.004395 0.999990
vn 0.000612 0.004395 0.999990
vn 0.008121 0.999957 -0.004400
vn 0.008121 0.999957 -0.004400
vn 0.008121 0.999957 -0.004400
vn 0.008121 0.999957 -0.004400
vn -0.008121 -0.999957 0.004400
vn -0.008121 -0.999957 0.004400
vn -0.008121 -0.999957 0.004400
vn -0.008121 -0.999957 0.004400
vn 0.999967 -0.008124 -0.000576
vn 0.999967 -0.008124 -0.000576
vn 0.999967 -0.008124 -0.000576
vn 0.999967 -0.008124 -0.000576
vn -0.999967 0.008124 0.000576
vn -0.999967 0.008124 0.000576
vn -0.999967 0.008124 0.000576
vn -0.999967 0.008124 0.000576
vn -0.000612 -0.004395 -0.999990
vn -0.000612 -0.004395 -0.999990
vn -0.000612 -0.004395 -0.999990
vn -0.000612 -0.004395 -0.999990
vn 0.000612 0.004395 0.999990
vn 0.000612 0.004395 0.999990
vn 0.000612 0.004395 0.999990
vn 0.000612 0.004395 0.999990
vn 0.008121 0.999957 -0.004400
vn 0.008121 0.999957 -0.004400
vn 0.008121 0.999957 -0.004400
vn 0.008121 0.999957 -0.004400
vn -0.008121 -0.999957 0.004400
vn -0.008121 -0.999957 0.004400
vn -0.008121 -0.999957 0.004400
vn -0.008121 -0.999957 0.004400
vn 0.999967 -0.008124 -0.000576
vn 0.999967 -0.008124 -0.000576
vn 0.999967 -0.008124 -0.000576
vn 0.999967 -0.008124 -0.000576
vn -0.999967 0.008124 0.000576
vn -0.999967 0.008124 0.000576
vn -0.999967 0.008124 0.000576
vn -0.999967 0.008124 0.000576
vn -0.000612 -0.004395 -0.999990
vn -0.000612 -0.004395 -0.999990
vn -0.000612 -0.004395 -0.999990
vn -0.000612 -0.004395 -0.999990
vn 0.000612 0.004395 0.999990
vn 0.000612 0.004395 0.999990
vn 0.000612 0.004395 0.999990
vn 0.000612 0.004395 0.999990
vn 0.008121 0.999957 -0.004400
vn 0.008121 0.999957 -0.004400
vn 0.008121 0.999957 -0.004400
vn 0.008121 0.999957 -0.004400
vn -0.008121 -0.999957 0.004400
vn -0.008121 -0.999957 0.004400
vn -0.008121 -0.999957 0.004400
vn -0.008121 -0.999957 0.004400
vn 0.999967 -0.008124 -0.000576
vn 0.999967 -0.008124 -0.000576
vn 0.999967 -0.008124 -0.000576
vn 0.999967 -0.008124 -0.000576
vn -0.999967 0.008124 0.000576
vn -0.999967 0.008124 0.000576
vn -0.999967 0.008124 0.000576
vn -0.999967 0.008124 0.000576
vn -0.000612 -0.004395 -0.999990
vn -0.000612 -0.004395 -0.999990
vn -0.000612 -0.004395 -0.999990
vn -0.000612 -0.004395 -0.999990
vn 0.000612 0.004395 0.999990
vn 0.000612 0.004395 0.999990
vn 0.000612 0.004395 0.999990
vn 0.000612 0.004395 0.999990
vn 0.008121 0.999957 -0.004400
vn 0.008121 0.999957 -0.004400
vn 0.008121 0.999957 -0.004400
vn 0.008121 0.999957 -0.004400
vn -0.008121 -0.999957 0.004400
vn -0.008121 -0.999957 0.004400
vn -0.008121 -0.999957 0.004400
vn -0.008121 -0.999957 0.004400
vn 0.999967 -0.008124 -0.000576
vn 0.999967 -0.008124 -0.000576
vn 0.999967 -0.008124 -0.000576
vn 0.999967 -0.008124 -0.000576
vn -0.999967 0.008124 0.000576
vn -0.999967 0.008124 0.000576
vn -0.999967 0.008124 0.000576
vn -0.999967 0.008124 0.000576
vn 0.008105 -0.006616 -0.999945
vn 0.008105 -0.006616 -0.999945
vn 0.008105 -0.006616 -0.999945
vn -0.008105 0.006616 0.999945
vn -0.008105 0.006616 0.999945
vn -0.008105 0.006616 0.999945
vn 0.016917 0.999836 -0.006479
vn 0.016917 0.999836 -0.006479
vn 0.016917 0.999836 -0.006479
vn 0.016917 0.999836 -0.006479
vn -0.006387 -0.999958 0.006564
vn -0.006387 -0.999958 0.006564
vn -0.006387 -0.999958 0.006564
vn -0.006387 -0.999958 0.006564
vn 0.999824 -0.016863 0.008216
vn 0.999824 -0.016863 0.008216
vn 0.999824 -0.016863 0.008216
vn 0.999824 -0.016863 0.008216
vn -0.890921 0.454044 -0.010226
vn -0.890921 0.454044 -0.010226
vn -0.890921 0.454044 -0.010226
vn -0.890921 0.454044 -0.010226
vn -0.004978 -0.451545 -0.892235
vn -0.004978 -0.451545 -0.892235
vn -0.004978 -0.451545 -0.892235
vn 0.004978 0.451544 0.892235
vn 0.004978 0.451544 0.892235
vn 0.004978 0.451544 0.892235

vt -0.072586 0.066897
vt -0.103924 0.005649
vt -0.104568 0.005979
vt -0.073230 0.067227
vt 0.104568 0.005979
vt 0.103924 0.005649
vt 0.072586 0.066897
vt 0.073230 0.067227
vt -0.168243 -0.104751
vt -0.177114 -0.107906
vt -0.200171 -0.043086
vt -0.191301 -0.039931
vt 0.200171 -0.043086
vt 0.177114 -0.107906
vt 0.168243 -0.104751
vt 0.191301 -0.039931
vt 0.221399 -0.037226
vt 0.220986 -0.037821
vt 0.213256 -0.032447
vt 0.213669 -0.031852
vt -0.213256 -0.032447
vt -0.220986 -0.037821
vt -0.221399 -0.037226
vt -0.213669 -0.031852
vt -0.071941 0.066567
vt -0.103279 0.005320
vt -0.104568 0.005979
vt -0.073230 0.067227
vt 0.104568 0.005979
vt 0.103924 0.005650
vt 0.072586 0.066897
vt 0.073230 0.067227
vt -0.141633 -0.095285
vt -0.150503 -0.098441
vt -0.173561 -0.033620
vt -0.164690 -0.030465
vt 0.181128 -0.029354
vt 0.160433 -0.094967
vt 0.151427 -0.092126
vt 0.172123 -0.026513
vt 0.198209 -0.021104
vt 0.197796 -0.021698
vt 0.189652 -0.016919
vt 0.190479 -0.015730
vt -0.189652 -0.016919
vt -0.197796 -0.021698
vt -0.198209 -0.021104
vt -0.190479 -0.015730
vt -0.072586 0.066897
vt -0.103924 0.005650
vt -0.104568 0.005979
vt -0.073230 0.067227
vt 0.104568 0.005979
vt 0.103924 0.005650
vt 0.072586 0.066897
vt 0.073230 0.067227
vt -0.133445 -0.092373
vt -0.142315 -0.095528
vt -0.165373 -0.030708
vt -0.156503 -0.027552
vt 0.165373 -0.030708
vt 0.142315 -0.095528
vt 0.133445 -0.092373
vt 0.156503 -0.027552
vt 0.191074 -0.016143
vt 0.190660 -0.016738
vt 0.182930 -0.011364
vt 0.183343 -0.010769
vt -0.182930 -0.011364
vt -0.190660 -0.016738
vt -0.191074 -0.016143
vt -0.183343 -0.010769
vt -0.072586 0.066897
vt -0.103924 0.005650
vt -0.104569 0.005979
vt -0.073230 0.067227
vt 0.104569 0.005979
vt 0.103924 0.005650
vt 0.072586 0.066897
vt 0.073230 0.067227
vt -0.124575 -0.089218
vt -0.133445 -0.092373
vt -0.156502 -0.027552
vt -0.147632 -0.024397
vt 0.156502 -0.027552
vt 0.133445 -0.092373
vt 0.124575 -0.089218
vt 0.147632 -0.024397
vt 0.183343 -0.010769
vt 0.182930 -0.011363
vt 0.175200 -0.005989
vt 0.175613 -0.005395
vt -0.175200 -0.005989
vt -0.182930 -0.011363
vt -0.183343 -0.010769
vt -0.175613 -0.005395
vt -0.072586 0.066897
vt -0.103924 0.005649
vt -0.104568 0.005979
vt -0.073230 0.067227
vt 0.104568 0.005979
vt 0.103924 0.005649
vt 0.072586 0.066897
vt 0.073230 0.067227
vt -0.176431 -0.107664
vt -0.185301 -0.110819
vt -0.208359 -0.045998
vt -0.199489 -0.042843
vt 0.208359 -0.045998
vt 0.185301 -0.110819
vt 0.176431 -0.107664
vt 0.199489 -0.042843
vt 0.228535 -0.042187
vt 0.228121 -0.042781
vt 0.220391 -0.037407
vt 0.220805 -0.036812
vt -0.220391 -0.037407
vt -0.228121 -0.042781
vt -0.228535 -0.042187
vt -0.220805 -0.036812
vt -0.072586 0.066897
vt -0.103924 0.005649
vt -0.104568 0.005979
vt -0.073230 0.067227
vt 0.104568 0.005979
vt 0.103924 0.005649
vt 0.072586 0.066897
vt 0.073230 0.067227
vt -0.159373 -0.101596
vt -0.168243 -0.104751
vt -0.191301 -0.039931
vt -0.182431 -0.036775
vt 0.191301 -0.039931
vt 0.168243 -0.104751
vt 0.159373 -0.101596
vt 0.182431 -0.036775
vt 0.213669 -0.031852
vt 0.213256 -0.032446
vt 0.205526 -0.027072
vt 0.205939 -0.026478
vt -0.205526 -0.027072
vt -0.213256 -0.032446
vt -0.213669 -0.031852
vt -0.205939 -0.026478
vt -0.071556 0.068896
vt -0.104188 0.008323
vt -0.072197 0.069232
vt 0.104188 0.008323
vt 0.071556 0.068896
vt 0.072197 0.069232
vt -0.149589 -0.098515
vt -0.158430 -0.101752
vt -0.182085 -0.037147
vt -0.173244 -0.033910
vt 0.182493 -0.035884
vt 0.159392 -0.101452
vt 0.150545 -0.098231
vt 0.173646 -0.032663
vt 0.205705 -0.026246
vt 0.205290 -0.026840
vt 0.197567 -0.021456
vt 0.197981 -0.020862
vt -0.187316 -0.003406
vt -0.196051 -0.006918
vt -0.195979 -0.005142
vt -0.187244 -0.001630
vt 0.007853 0.026736
vt -0.028500 -0.032520
vt -0.029496 -0.031047
vt 0.025971 -0.033325
vt 0.024976 -0.034798
vt -0.011378 0.024458
s off
f 1/1/1 2/2/2 3/3/3
f 1/1/1 3/3/3 4/4/4
f 5/5/5 6/6/6 7/7/7
f 5/5/5 7/7/7 8/8/8
f 9/9/9 10/10/10 11/11/11
f 9/9/9 11/11/11 12/12/12
f 13/13/13 14/14/14 15/15/15
f 13/13/13 15/15/15 16/16/16
f 17/17/17 18/18/18 19/19/19
f 17/17/17 19/19/19 20/20/20
f 21/21/21 22/22/22 23/23/23
f 21/21/21 23/23/23 24/24/24
f 25/25/25 26/26/26 27/27/27
f 25/25/25 27/27/27 28/28/28
f 29/29/29 30/30/30 31/31/31
f 29/29/29 31/31/31 32/32/32
f 33/33/33 34/34/34 35/35/35
f 33/33/33 35/35/35 36/36/36
f 37/37/37 38/38/38 39/39/39
f 37/37/37 39/39/39 40/40/40
f 41/41/41 42/42/42 43/43/43
f 41/41/41 43/43/43 44/44/44
f 45/45/45 46/46/46 47/47/47
f 45/45/45 47/47/47 48/48/48
f 49/49/49 50/50/50 51/51/51
f 49/49/49 51/51/51 52/52/52
f 53/53/53 54/54/54 55/55/55
f 53/53/53 55/55/55 56/56/56
f 57/57/57 58/58/58 59/59/59
f 57/57/57 59/59/59 60/60/60
f 61/61/61 62/62/62 63/63/63
f 61/61/61 63/63/63 64/64/64
f 65/65/65 66/66/66 67/67/67
f 65/65/65 67/67/67 68/68/68
f 69/69/69 70/70/70 71/71/71
f 69/69/69 71/71/71 72/72/72
f 73/73/73 74/74/74 75/75/75
f 73/73/73 75/75/75 76/76/76
f 77/77/77 78/78/78 79/79/79
f 77/77/77 79/79/79 80/80/80
f 81/81/81 82/82/82 83/83/83
f 81/81/81 83/83/83 84/84/84
f 85/85/85 86/86/86 87/87/87
f 85/85/85 87/87/87 88/88/88
f 89/89/89 90/90/90 91/91/91
f 89/89/89 91/91/91 92/92/92
f 93/93/93 94/94/94 95/95/95
f 93/93/93 95/95/95 96/96/96
f 97/97/97 98/98/98 99/99/99
f 97/97/97 99/99/99 100/100/100
f 101/101/101 102/102/102 103/103/103
f 101/101/101 103/103/103 104/104/104
f 105/105/105 106/106/106 107/107/107
f 105/105/105 107/107/107 108/108/108
f 109/109/109 110/110/110 111/111/111
f 109/109/109 111/111/111 112/112/112
f 113/113/113 114/114/114 115/115/115
f 113/113/113 115/115/115 116/116/116
f 117/117/117 118/118/118 119/119/119
f 117/117/117 119/119/119 120/120/120
f 121/121/121 122/122/122 123/123/123
f 121/121/121 123/123/123 124/124/124
f 125/125/125 126/126/126 127/127/127
f 125/125/125 127/127/127 128/128/128
f 129/129/129 130/130/130 131/131/131
f 129/129/129 131/131/131 132/132/132
f 133/133/133 134/134/134 135/135/135
f 133/133/133 135/135/135 136/136/136
f 137/137/137 138/138/138 139/139/139
f 137/137/137 139/139/139 140/140/140
f 141/141/141 142/142/142 143/143/143
f 141/141/141 143/143/143 144/144/144
f 145/145/145 146/146/146 147/147/147
f 148/148/148 149/149/149 150/150/150
f 151/151/151 152/152/152 153/153/153
f 151/151/151 153/153/153 154/154/154
f 155/155/155 156/156/156 157/157/157
f 155/155/155 157/157/157 158/158/158
f 159/159/159 160/160/160 161/161/161
f 159/159/159 161/161/161 162/162/162
f 163/163/163 164/164/164 165/165/165
f 163/163/163 165/165/165 166/166/166
f 167/167/167 168/168/168 169/169/169
f 170/170/170 171/171/171 172/172/172
