# Exported using automatic converter by Erwin Coumans
mtllib model6.mtl
#object mesh1942236059

v -2.686762 0.295489 2.294852
v -2.716762 0.295489 2.294852
v -2.716762 -0.324511 2.294852
v -2.686762 -0.324511 2.294852
v -2.716762 -0.324511 1.514851
v -2.716762 0.295489 1.514851
v -2.686762 0.295489 1.514851
v -2.686762 -0.324511 1.514851
v -2.716762 -0.324511 2.294852
v -2.716762 -0.324511 1.514851
v -2.686762 -0.324511 1.514851
v -2.686762 -0.324511 2.294852
v -2.686762 0.295489 1.514851
v -2.716762 0.295489 1.514851
v -2.716762 0.295489 2.294852
v -2.686762 0.295489 2.294852
v -2.686762 -0.324511 1.514851
v -2.686762 0.295489 1.514851
v -2.686762 0.295489 2.294852
v -2.686762 -0.324511 2.294852
v -2.716762 0.295489 2.294852
v -2.716762 0.295489 1.514851
v -2.716762 -0.324511 1.514851
v -2.716762 -0.324511 2.294852
usemtl mat21

vn -0.000000 0.000000 1.000000
vn -0.000000 0.000000 1.000000
vn -0.000000 0.000000 1.000000
vn -0.000000 0.000000 1.000000
vn 0.000000 0.000000 -1.000000
vn 0.000000 0.000000 -1.000000
vn 0.000000 0.000000 -1.000000
vn 0.000000 0.000000 -1.000000
vn 0.000000 -1.000000 0.000000
vn 0.000000 -1.000000 0.000000
vn 0.000000 -1.000000 0.000000
vn 0.000000 -1.000000 0.000000
vn -0.000000 1.000000 0.000000
vn -0.000000 1.000000 0.000000
vn -0.000000 1.000000 0.000000
vn -0.000000 1.000000 0.000000
vn 1.000000 0.000000 0.000000
vn 1.000000 0.000000 0.000000
vn 1.000000 0.000000 0.000000
vn 1.000000 0.000000 0.000000
vn -1.000000 -0.000000 -0.000000
vn -1.000000 -0.000000 -0.000000
vn -1.000000 -0.000000 -0.000000
vn -1.000000 -0.000000 -0.000000

vt 0.203706 -0.232998
vt 0.205047 -0.235682
vt 0.149593 -0.263409
vt 0.148251 -0.260725
vt -0.149593 -0.263409
vt -0.205047 -0.235682
vt -0.203706 -0.232998
vt -0.148251 -0.260725
vt 0.198203 -0.392000
vt 0.124747 -0.365766
vt 0.125756 -0.362941
vt 0.199212 -0.389175
vt -0.125756 -0.362941
vt -0.124747 -0.365766
vt -0.198203 -0.392000
vt -0.199212 -0.389175
vt 0.205003 -0.126768
vt 0.241039 -0.076317
vt 0.304511 -0.121653
vt 0.268474 -0.172105
vt -0.304511 -0.121653
vt -0.241039 -0.076317
vt -0.205003 -0.126768
vt -0.268474 -0.172105
s off
f 1/1/1 2/2/2 3/3/3
f 1/1/1 3/3/3 4/4/4
f 5/5/5 6/6/6 7/7/7
f 5/5/5 7/7/7 8/8/8
f 9/9/9 10/10/10 11/11/11
f 9/9/9 11/11/11 12/12/12
f 13/13/13 14/14/14 15/15/15
f 13/13/13 15/15/15 16/16/16
f 17/17/17 18/18/18 19/19/19
f 17/17/17 19/19/19 20/20/20
f 21/21/21 22/22/22 23/23/23
f 21/21/21 23/23/23 24/24/24
