# Exported using automatic converter by Erwin Coumans
mtllib model6.mtl
#object mesh188133202

v -2.171762 -0.954511 0.419852
v -2.621762 -0.954511 0.419852
v -2.621762 -1.054511 0.419852
v -2.171762 -1.054511 0.419852
v -2.621762 -1.054511 -0.270148
v -2.621762 -0.954511 -0.270148
v -2.171762 -0.954511 -0.270148
v -2.171762 -1.054511 -0.270148
v -2.621762 -1.054511 0.419852
v -2.621762 -1.054511 -0.270148
v -2.171762 -1.054511 -0.270148
v -2.171762 -1.054511 0.419852
v -2.171762 -0.954511 -0.270148
v -2.621762 -0.954511 -0.270148
v -2.621762 -0.954511 0.419852
v -2.171762 -0.954511 0.419852
v -2.171762 -1.054511 -0.270148
v -2.171762 -0.954511 -0.270148
v -2.171762 -0.954511 0.419852
v -2.171762 -1.054511 0.419852
v -2.621762 -0.954511 0.419852
v -2.621762 -0.954511 -0.270148
v -2.621762 -1.054511 -0.270148
v -2.621762 -1.054511 0.419852
usemtl mat15

vn -0.000000 0.000000 1.000000
vn -0.000000 0.000000 1.000000
vn -0.000000 0.000000 1.000000
vn -0.000000 0.000000 1.000000
vn 0.000000 0.000000 -1.000000
vn 0.000000 0.000000 -1.000000
vn 0.000000 0.000000 -1.000000
vn 0.000000 0.000000 -1.000000
vn 0.000000 -1.000000 0.000000
vn 0.000000 -1.000000 0.000000
vn 0.000000 -1.000000 0.000000
vn 0.000000 -1.000000 0.000000
vn -0.000000 1.000000 0.000000
vn -0.000000 1.000000 0.000000
vn -0.000000 1.000000 0.000000
vn -0.000000 1.000000 0.000000
vn 1.000000 0.000000 0.000000
vn 1.000000 0.000000 0.000000
vn 1.000000 0.000000 0.000000
vn 1.000000 0.000000 0.000000
vn -1.000000 -0.000000 -0.000000
vn -1.000000 -0.000000 -0.000000
vn -1.000000 -0.000000 -0.000000
vn -1.000000 -0.000000 -0.000000

vt 0.068871 -0.242837
vt 0.088996 -0.283086
vt 0.080051 -0.287558
vt 0.059927 -0.247309
vt -0.080051 -0.287558
vt -0.088995 -0.283086
vt -0.068871 -0.242837
vt -0.059927 -0.247309
vt 0.024822 -0.319990
vt -0.040159 -0.296783
vt -0.025023 -0.254405
vt 0.039957 -0.277612
vt 0.025023 -0.254405
vt 0.040159 -0.296783
vt -0.024822 -0.319990
vt -0.039957 -0.277612
vt 0.017321 -0.082420
vt 0.023133 -0.074282
vt 0.079281 -0.114388
vt 0.073469 -0.122525
vt -0.079281 -0.114388
vt -0.023133 -0.074282
vt -0.017321 -0.082420
vt -0.073469 -0.122525
s off
f 1/1/1 2/2/2 3/3/3
f 1/1/1 3/3/3 4/4/4
f 5/5/5 6/6/6 7/7/7
f 5/5/5 7/7/7 8/8/8
f 9/9/9 10/10/10 11/11/11
f 9/9/9 11/11/11 12/12/12
f 13/13/13 14/14/14 15/15/15
f 13/13/13 15/15/15 16/16/16
f 17/17/17 18/18/18 19/19/19
f 17/17/17 19/19/19 20/20/20
f 21/21/21 22/22/22 23/23/23
f 21/21/21 23/23/23 24/24/24
