# Exported using automatic converter by Erwin Coumans
mtllib model6.mtl
#object mesh1776900949

v -0.414101 -0.734520 2.514004
v -0.424579 -0.735685 2.531000
v -0.402260 -0.720441 2.518447
v -0.391701 -0.719137 2.501512
v -0.424579 -0.735685 2.531000
v -0.417540 -0.746367 2.546374
v -0.395312 -0.731279 2.533753
v -0.402260 -0.720441 2.518447
v -0.417540 -0.746367 2.546374
v -0.400024 -0.755883 2.544752
v -0.377807 -0.740814 2.532123
v -0.395312 -0.731279 2.533753
v -0.400024 -0.755883 2.544752
v -0.389547 -0.754718 2.527756
v -0.367249 -0.739510 2.515187
v -0.377807 -0.740814 2.532123
v -0.389547 -0.754718 2.527756
v -0.396585 -0.744036 2.512382
v -0.374196 -0.728672 2.499881
v -0.367249 -0.739510 2.515187
v -0.396585 -0.744036 2.512382
v -0.414101 -0.734520 2.514004
v -0.391701 -0.719137 2.501512
v -0.374196 -0.728672 2.499881
v -0.396585 -0.744036 2.512382
v -0.389547 -0.754718 2.527756
v -0.400024 -0.755883 2.544752
v -0.417540 -0.746367 2.546374
v -0.424579 -0.735685 2.531000
v -0.414101 -0.734520 2.514004
v -0.376875 -0.605675 2.494755
v -0.389178 -0.611030 2.509585
v -0.382195 -0.621642 2.525033
v -0.362909 -0.626900 2.525649
v -0.350605 -0.621545 2.510818
v -0.357588 -0.610932 2.495372
v -0.350098 -0.716473 2.491811
v -0.343283 -0.727538 2.507014
v -0.367249 -0.739510 2.515187
v -0.374196 -0.728672 2.499881
v -0.343283 -0.727538 2.507014
v -0.354015 -0.729139 2.523815
v -0.377807 -0.740814 2.532123
v -0.367249 -0.739510 2.515187
v -0.354015 -0.729139 2.523815
v -0.371561 -0.719674 2.525413
v -0.395312 -0.731279 2.533753
v -0.377807 -0.740814 2.532123
v -0.371561 -0.719674 2.525413
v -0.378375 -0.708609 2.510211
v -0.402260 -0.720441 2.518447
v -0.395312 -0.731279 2.533753
v -0.378375 -0.708609 2.510211
v -0.367644 -0.707008 2.493410
v -0.391701 -0.719137 2.501512
v -0.402260 -0.720441 2.518447
v -0.367644 -0.707008 2.493410
v -0.350098 -0.716473 2.491811
v -0.374196 -0.728672 2.499881
v -0.391701 -0.719137 2.501512
v -0.335099 -0.693429 2.495264
v -0.328351 -0.704611 2.510410
v -0.343283 -0.727538 2.507014
v -0.350098 -0.716473 2.491811
v -0.328351 -0.704611 2.510410
v -0.339257 -0.706515 2.527067
v -0.354015 -0.729139 2.523815
v -0.343283 -0.727538 2.507014
v -0.339257 -0.706515 2.527067
v -0.356910 -0.697236 2.528577
v -0.371561 -0.719674 2.525413
v -0.354015 -0.729139 2.523815
v -0.356910 -0.697236 2.528577
v -0.363657 -0.686054 2.513430
v -0.378375 -0.708609 2.510211
v -0.371561 -0.719674 2.525413
v -0.363657 -0.686054 2.513430
v -0.352752 -0.684151 2.496773
v -0.367644 -0.707008 2.493410
v -0.378375 -0.708609 2.510211
v -0.352752 -0.684151 2.496773
v -0.335099 -0.693429 2.495264
v -0.350098 -0.716473 2.491811
v -0.367644 -0.707008 2.493410
v -0.358120 -0.673238 2.502556
v -0.351395 -0.684460 2.517684
v -0.328351 -0.704611 2.510410
v -0.335099 -0.693429 2.495264
v -0.351395 -0.684460 2.517684
v -0.362485 -0.686696 2.534176
v -0.339257 -0.706515 2.527067
v -0.328351 -0.704611 2.510410
v -0.362485 -0.686696 2.534176
v -0.380301 -0.677711 2.535541
v -0.356910 -0.697236 2.528577
v -0.339257 -0.706515 2.527067
v -0.380301 -0.677711 2.535541
v -0.387026 -0.666489 2.520414
v -0.363657 -0.686054 2.513430
v -0.356910 -0.697236 2.528577
v -0.387026 -0.666489 2.520414
v -0.375936 -0.664252 2.503922
v -0.352752 -0.684151 2.496773
v -0.363657 -0.686054 2.513430
v -0.375936 -0.664252 2.503922
v -0.358120 -0.673238 2.502556
v -0.335099 -0.693429 2.495264
v -0.352752 -0.684151 2.496773
v -0.350689 -0.656639 2.482701
v -0.343776 -0.667469 2.498028
v -0.351395 -0.684460 2.517684
v -0.358120 -0.673238 2.502556
v -0.343776 -0.667469 2.498028
v -0.355407 -0.670832 2.513947
v -0.362485 -0.686696 2.534176
v -0.351395 -0.684460 2.517684
v -0.355407 -0.670832 2.513947
v -0.373951 -0.663365 2.514539
v -0.380301 -0.677711 2.535541
v -0.362485 -0.686696 2.534176
v -0.373951 -0.663365 2.514539
v -0.380865 -0.652536 2.499212
v -0.387026 -0.666489 2.520414
v -0.380301 -0.677711 2.535541
v -0.380865 -0.652536 2.499212
v -0.369234 -0.649173 2.483293
v -0.375936 -0.664252 2.503922
v -0.387026 -0.666489 2.520414
v -0.369234 -0.649173 2.483293
v -0.350689 -0.656639 2.482701
v -0.358120 -0.673238 2.502556
v -0.375936 -0.664252 2.503922
v -0.340761 -0.626380 2.474978
v -0.333816 -0.637124 2.490351
v -0.343776 -0.667469 2.498028
v -0.350689 -0.656639 2.482701
v -0.333816 -0.637124 2.490351
v -0.345904 -0.641729 2.505604
v -0.355407 -0.670832 2.513947
v -0.343776 -0.667469 2.498028
v -0.345904 -0.641729 2.505604
v -0.364938 -0.635589 2.505484
v -0.373951 -0.663365 2.514539
v -0.355407 -0.670832 2.513947
v -0.364938 -0.635589 2.505484
v -0.371883 -0.624844 2.490112
v -0.380865 -0.652536 2.499212
v -0.373951 -0.663365 2.514539
v -0.371883 -0.624844 2.490112
v -0.359795 -0.620240 2.474858
v -0.369234 -0.649173 2.483293
v -0.380865 -0.652536 2.499212
v -0.359795 -0.620240 2.474858
v -0.340761 -0.626380 2.474978
v -0.350689 -0.656639 2.482701
v -0.369234 -0.649173 2.483293
v -0.357588 -0.610932 2.495372
v -0.350605 -0.621545 2.510818
v -0.333816 -0.637124 2.490351
v -0.340761 -0.626380 2.474978
v -0.350605 -0.621545 2.510818
v -0.362909 -0.626900 2.525649
v -0.345904 -0.641729 2.505604
v -0.333816 -0.637124 2.490351
v -0.362909 -0.626900 2.525649
v -0.382195 -0.621642 2.525033
v -0.364938 -0.635589 2.505484
v -0.345904 -0.641729 2.505604
v -0.382195 -0.621642 2.525033
v -0.389178 -0.611030 2.509585
v -0.371883 -0.624844 2.490112
v -0.364938 -0.635589 2.505484
v -0.389178 -0.611030 2.509585
v -0.376875 -0.605675 2.494755
v -0.359795 -0.620240 2.474858
v -0.371883 -0.624844 2.490112
v -0.376875 -0.605675 2.494755
v -0.357588 -0.610932 2.495372
v -0.340761 -0.626380 2.474978
v -0.359795 -0.620240 2.474858
usemtl mat15

vn -0.655761 0.664602 -0.358165
vn -0.655761 0.664602 -0.358165
vn -0.655761 0.664602 -0.358165
vn -0.655761 0.664602 -0.358165
vn -0.173597 0.767298 0.617348
vn -0.173597 0.767298 0.617348
vn -0.173597 0.767298 0.617348
vn -0.173597 0.767298 0.617348
vn 0.272894 0.348568 0.896677
vn 0.272894 0.348568 0.896677
vn 0.272894 0.348568 0.896677
vn 0.272894 0.348568 0.896677
vn 0.655112 -0.665492 0.357698
vn 0.655112 -0.665492 0.357698
vn 0.655112 -0.665492 0.357698
vn 0.655112 -0.665492 0.357698
vn 0.177271 -0.765899 -0.618041
vn 0.177271 -0.765899 -0.618041
vn 0.177271 -0.765899 -0.618041
vn 0.177271 -0.765899 -0.618041
vn -0.268936 -0.340563 -0.900939
vn -0.268936 -0.340563 -0.900939
vn -0.268936 -0.340563 -0.900939
vn -0.268936 -0.340563 -0.900939
vn -0.472366 -0.810331 -0.346747
vn -0.472366 -0.810331 -0.346747
vn -0.472366 -0.810331 -0.346747
vn -0.472366 -0.810331 -0.346747
vn -0.472366 -0.810331 -0.346747
vn -0.472366 -0.810331 -0.346747
vn 0.215559 0.847598 0.484883
vn 0.215559 0.847598 0.484883
vn 0.215559 0.847598 0.484883
vn 0.215559 0.847598 0.484883
vn 0.215559 0.847598 0.484883
vn 0.215559 0.847598 0.484883
vn 0.172044 -0.761801 -0.624548
vn 0.172044 -0.761801 -0.624548
vn 0.172044 -0.761801 -0.624548
vn 0.172044 -0.761801 -0.624548
vn 0.496227 -0.833973 0.241346
vn 0.496227 -0.833973 0.241346
vn 0.496227 -0.833973 0.241346
vn 0.496227 -0.833973 0.241346
vn 0.215691 0.236944 0.947278
vn 0.215691 0.236944 0.947278
vn 0.215691 0.236944 0.947278
vn 0.215691 0.236944 0.947278
vn -0.160354 0.766117 0.622376
vn -0.160354 0.766117 0.622376
vn -0.160354 0.766117 0.622376
vn -0.160354 0.766117 0.622376
vn -0.498681 0.832008 -0.243065
vn -0.498681 0.832008 -0.243065
vn -0.498681 0.832008 -0.243065
vn -0.498681 0.832008 -0.243065
vn -0.207927 -0.221699 -0.952689
vn -0.207927 -0.221699 -0.952689
vn -0.207927 -0.221699 -0.952689
vn -0.207927 -0.221699 -0.952689
vn 0.712142 -0.375270 -0.593318
vn 0.712142 -0.375270 -0.593318
vn 0.712142 -0.375270 -0.593318
vn 0.712142 -0.375270 -0.593318
vn 0.732306 -0.538202 0.417213
vn 0.732306 -0.538202 0.417213
vn 0.732306 -0.538202 0.417213
vn 0.732306 -0.538202 0.417213
vn 0.009164 -0.146808 0.989123
vn 0.009164 -0.146808 0.989123
vn 0.009164 -0.146808 0.989123
vn 0.009164 -0.146808 0.989123
vn -0.709320 0.378662 0.594542
vn -0.709320 0.378662 0.594542
vn -0.709320 0.378662 0.594542
vn -0.709320 0.378662 0.594542
vn -0.732394 0.538023 -0.417289
vn -0.732394 0.538023 -0.417289
vn -0.732394 0.538023 -0.417289
vn -0.732394 0.538023 -0.417289
vn -0.006777 0.151185 -0.988482
vn -0.006777 0.151185 -0.988482
vn -0.006777 0.151185 -0.988482
vn -0.006777 0.151185 -0.988482
vn 0.681027 0.700000 0.214949
vn 0.681027 0.700000 0.214949
vn 0.681027 0.700000 0.214949
vn 0.681027 0.700000 0.214949
vn 0.649376 0.571049 0.502209
vn 0.649376 0.571049 0.502209
vn 0.649376 0.571049 0.502209
vn 0.649376 0.571049 0.502209
vn -0.214553 -0.544319 0.810977
vn -0.214553 -0.544319 0.810977
vn -0.214553 -0.544319 0.810977
vn -0.214553 -0.544319 0.810977
vn -0.663678 -0.711417 -0.231124
vn -0.663678 -0.711417 -0.231124
vn -0.663678 -0.711417 -0.231124
vn -0.663678 -0.711417 -0.231124
vn -0.643430 -0.580168 -0.499402
vn -0.643430 -0.580168 -0.499402
vn -0.643430 -0.580168 -0.499402
vn -0.643430 -0.580168 -0.499402
vn 0.209990 0.536464 -0.817380
vn 0.209990 0.536464 -0.817380
vn 0.209990 0.536464 -0.817380
vn 0.209990 0.536464 -0.817380
vn 0.118350 -0.778334 -0.616595
vn 0.118350 -0.778334 -0.616595
vn 0.118350 -0.778334 -0.616595
vn 0.118350 -0.778334 -0.616595
vn 0.728571 0.372165 0.575045
vn 0.728571 0.372165 0.575045
vn 0.728571 0.372165 0.575045
vn 0.728571 0.372165 0.575045
vn 0.349430 0.697913 0.625152
vn 0.349430 0.697913 0.625152
vn 0.349430 0.697913 0.625152
vn 0.349430 0.697913 0.625152
vn 0.059106 0.820928 0.567965
vn 0.059106 0.820928 0.567965
vn 0.059106 0.820928 0.567965
vn 0.059106 0.820928 0.567965
vn -0.665017 -0.502020 -0.552927
vn -0.665017 -0.502020 -0.552927
vn -0.665017 -0.502020 -0.552927
vn -0.665017 -0.502020 -0.552927
vn -0.341964 -0.678425 -0.650231
vn -0.341964 -0.678425 -0.650231
vn -0.341964 -0.678425 -0.650231
vn -0.341964 -0.678425 -0.650231
vn 0.710635 -0.383160 -0.590074
vn 0.710635 -0.383160 -0.590074
vn 0.710635 -0.383160 -0.590074
vn 0.710635 -0.383160 -0.590074
vn 0.804185 -0.105652 0.584914
vn 0.804185 -0.105652 0.584914
vn 0.804185 -0.105652 0.584914
vn 0.804185 -0.105652 0.584914
vn 0.105897 0.259161 0.960011
vn 0.105897 0.259161 0.960011
vn 0.105897 0.259161 0.960011
vn 0.105897 0.259161 0.960011
vn -0.681265 0.417759 0.601129
vn -0.681265 0.417759 0.601129
vn -0.681265 0.417759 0.601129
vn -0.681265 0.417759 0.601129
vn -0.802904 0.078196 -0.590958
vn -0.802904 0.078196 -0.590958
vn -0.802904 0.078196 -0.590958
vn -0.802904 0.078196 -0.590958
vn -0.096391 -0.232634 -0.967776
vn -0.096391 -0.232634 -0.967776
vn -0.096391 -0.232634 -0.967776
vn -0.096391 -0.232634 -0.967776
vn 0.746454 0.655133 0.116646
vn 0.746454 0.655133 0.116646
vn 0.746454 0.655133 0.116646
vn 0.746454 0.655133 0.116646
vn 0.773934 0.016688 0.633047
vn 0.773934 0.016688 0.633047
vn 0.773934 0.016688 0.633047
vn 0.773934 0.016688 0.633047
vn -0.267917 -0.874703 0.403876
vn -0.267917 -0.874703 0.403876
vn -0.267917 -0.874703 0.403876
vn -0.267917 -0.874703 0.403876
vn -0.716100 -0.681923 -0.148933
vn -0.716100 -0.681923 -0.148933
vn -0.716100 -0.681923 -0.148933
vn -0.716100 -0.681923 -0.148933
vn -0.768523 -0.045511 -0.638202
vn -0.768523 -0.045511 -0.638202
vn -0.768523 -0.045511 -0.638202
vn -0.768523 -0.045511 -0.638202
vn 0.265909 0.866775 -0.421893
vn 0.265909 0.866775 -0.421893
vn 0.265909 0.866775 -0.421893
vn 0.265909 0.866775 -0.421893

vt -0.275504 -0.193677
vt -0.276849 -0.195157
vt -0.276665 -0.192182
vt -0.275333 -0.190691
vt -0.224468 -0.175428
vt -0.226442 -0.175751
vt -0.225913 -0.172830
vt -0.223942 -0.172495
vt -0.049154 -0.208985
vt -0.050795 -0.207842
vt -0.050373 -0.204906
vt -0.048730 -0.206048
vt 0.277231 -0.194797
vt 0.275886 -0.193317
vt 0.275698 -0.190346
vt 0.277031 -0.191837
vt 0.227004 -0.172379
vt 0.225030 -0.172056
vt 0.224505 -0.169113
vt 0.226477 -0.169449
vt 0.047676 -0.203561
vt 0.046034 -0.204703
vt 0.045598 -0.201744
vt 0.047241 -0.200603
vt 0.195744 -0.281150
vt 0.197699 -0.281571
vt 0.198312 -0.283475
vt 0.196969 -0.284958
vt 0.195014 -0.284536
vt 0.194402 -0.282632
vt -0.204134 -0.241660
vt -0.204809 -0.243543
vt -0.206777 -0.243899
vt -0.208070 -0.242373
vt -0.207394 -0.240491
vt -0.205426 -0.240134
vt 0.222666 -0.166417
vt 0.224635 -0.166770
vt 0.224606 -0.169571
vt 0.222635 -0.169235
vt 0.294705 -0.168824
vt 0.296035 -0.170318
vt 0.296025 -0.173096
vt 0.294670 -0.171625
vt -0.027401 -0.169658
vt -0.025758 -0.170799
vt -0.025733 -0.173570
vt -0.027380 -0.172436
vt -0.223731 -0.171945
vt -0.221763 -0.171592
vt -0.221736 -0.174381
vt -0.223708 -0.174717
vt -0.294970 -0.171282
vt -0.293640 -0.169788
vt -0.293591 -0.172601
vt -0.294947 -0.174071
vt 0.021422 -0.164501
vt 0.023065 -0.163361
vt 0.023073 -0.166180
vt 0.021426 -0.167315
vt 0.248340 -0.021671
vt 0.250284 -0.022138
vt 0.250159 -0.024892
vt 0.248211 -0.024439
vt 0.259658 -0.203178
vt 0.260892 -0.204752
vt 0.259295 -0.206955
vt 0.258032 -0.205405
vt 0.053175 -0.050745
vt 0.054747 -0.051982
vt 0.053264 -0.054236
vt 0.051678 -0.053017
vt -0.249884 -0.023708
vt -0.247939 -0.023244
vt -0.247827 -0.025954
vt -0.249775 -0.026405
vt -0.261038 -0.204640
vt -0.259804 -0.203066
vt -0.258185 -0.205287
vt -0.259448 -0.206837
vt -0.056306 -0.049968
vt -0.054736 -0.048729
vt -0.053205 -0.051039
vt -0.054790 -0.052260
vt -0.156278 -0.308663
vt -0.158178 -0.309287
vt -0.160352 -0.307012
vt -0.158452 -0.306387
vt -0.076397 -0.318408
vt -0.076471 -0.320407
vt -0.079072 -0.318658
vt -0.079012 -0.316659
vt 0.169235 0.040707
vt 0.170479 0.039142
vt 0.167944 0.040969
vt 0.166671 0.042512
vt 0.160710 -0.310243
vt 0.158803 -0.309639
vt 0.160945 -0.307362
vt 0.162852 -0.307966
vt 0.077519 -0.319755
vt 0.077427 -0.317757
vt 0.080015 -0.315983
vt 0.080094 -0.317982
vt -0.167050 0.037854
vt -0.165794 0.039410
vt -0.163182 0.041166
vt -0.164466 0.039633
vt 0.216386 -0.174995
vt 0.218356 -0.175335
vt 0.220212 -0.177307
vt 0.218245 -0.176942
vt 0.010118 -0.315491
vt 0.010328 -0.317479
vt 0.009212 -0.319900
vt 0.008927 -0.317921
vt -0.144228 -0.261984
vt -0.142764 -0.263344
vt -0.144458 -0.265343
vt -0.145952 -0.264016
vt -0.210502 -0.214652
vt -0.208534 -0.214299
vt -0.210410 -0.216116
vt -0.212375 -0.216486
vt 0.042378 -0.316836
vt 0.042372 -0.314837
vt 0.043705 -0.317117
vt 0.043652 -0.319116
vt 0.134135 -0.257759
vt 0.135609 -0.256411
vt 0.137332 -0.258478
vt 0.135824 -0.259789
vt 0.245045 -0.019116
vt 0.247000 -0.019541
vt 0.248259 -0.022575
vt 0.246306 -0.022141
vt 0.167838 -0.262002
vt 0.168492 -0.263892
vt 0.166693 -0.266506
vt 0.165914 -0.264664
vt -0.041290 -0.137518
vt -0.039831 -0.138885
vt -0.041921 -0.141116
vt -0.043456 -0.139836
vt -0.244492 -0.030186
vt -0.242535 -0.029776
vt -0.243877 -0.032515
vt -0.245832 -0.032934
vt -0.162271 -0.267139
vt -0.161643 -0.265241
vt -0.159825 -0.267823
vt -0.160578 -0.269675
vt 0.032407 -0.130135
vt 0.033862 -0.128764
vt 0.036102 -0.131155
vt 0.034568 -0.132437
vt -0.144747 -0.312917
vt -0.146621 -0.313616
vt -0.147536 -0.310683
vt -0.145658 -0.309993
vt 0.130343 -0.276194
vt 0.130787 -0.278144
vt 0.128234 -0.276536
vt 0.127715 -0.274604
vt 0.297853 -0.065661
vt 0.297734 -0.067657
vt 0.295651 -0.065559
vt 0.295688 -0.063559
vt 0.154910 -0.312297
vt 0.153016 -0.311655
vt 0.153802 -0.308814
vt 0.155699 -0.309448
vt -0.123350 -0.280870
vt -0.122936 -0.278913
vt -0.120434 -0.277258
vt -0.120921 -0.279198
vt -0.293649 -0.061363
vt -0.293727 -0.059365
vt -0.291459 -0.057307
vt -0.291465 -0.059307
s off
f 1/1/1 2/2/2 3/3/3
f 1/1/1 3/3/3 4/4/4
f 5/5/5 6/6/6 7/7/7
f 5/5/5 7/7/7 8/8/8
f 9/9/9 10/10/10 11/11/11
f 9/9/9 11/11/11 12/12/12
f 13/13/13 14/14/14 15/15/15
f 13/13/13 15/15/15 16/16/16
f 17/17/17 18/18/18 19/19/19
f 17/17/17 19/19/19 20/20/20
f 21/21/21 22/22/22 23/23/23
f 21/21/21 23/23/23 24/24/24
f 25/25/25 26/26/26 27/27/27
f 25/25/25 27/27/27 28/28/28
f 25/25/25 28/28/28 29/29/29
f 25/25/25 29/29/29 30/30/30
f 31/31/31 32/32/32 33/33/33
f 31/31/31 33/33/33 34/34/34
f 31/31/31 34/34/34 35/35/35
f 31/31/31 35/35/35 36/36/36
f 37/37/37 38/38/38 39/39/39
f 37/37/37 39/39/39 40/40/40
f 41/41/41 42/42/42 43/43/43
f 41/41/41 43/43/43 44/44/44
f 45/45/45 46/46/46 47/47/47
f 45/45/45 47/47/47 48/48/48
f 49/49/49 50/50/50 51/51/51
f 49/49/49 51/51/51 52/52/52
f 53/53/53 54/54/54 55/55/55
f 53/53/53 55/55/55 56/56/56
f 57/57/57 58/58/58 59/59/59
f 57/57/57 59/59/59 60/60/60
f 61/61/61 62/62/62 63/63/63
f 61/61/61 63/63/63 64/64/64
f 65/65/65 66/66/66 67/67/67
f 65/65/65 67/67/67 68/68/68
f 69/69/69 70/70/70 71/71/71
f 69/69/69 71/71/71 72/72/72
f 73/73/73 74/74/74 75/75/75
f 73/73/73 75/75/75 76/76/76
f 77/77/77 78/78/78 79/79/79
f 77/77/77 79/79/79 80/80/80
f 81/81/81 82/82/82 83/83/83
f 81/81/81 83/83/83 84/84/84
f 85/85/85 86/86/86 87/87/87
f 85/85/85 87/87/87 88/88/88
f 89/89/89 90/90/90 91/91/91
f 89/89/89 91/91/91 92/92/92
f 93/93/93 94/94/94 95/95/95
f 93/93/93 95/95/95 96/96/96
f 97/97/97 98/98/98 99/99/99
f 97/97/97 99/99/99 100/100/100
f 101/101/101 102/102/102 103/103/103
f 101/101/101 103/103/103 104/104/104
f 105/105/105 106/106/106 107/107/107
f 105/105/105 107/107/107 108/108/108
f 109/109/109 110/110/110 111/111/111
f 109/109/109 111/111/111 112/112/112
f 113/113/113 114/114/114 115/115/115
f 113/113/113 115/115/115 116/116/116
f 117/117/117 118/118/118 119/119/119
f 117/117/117 119/119/119 120/120/120
f 121/121/121 122/122/122 123/123/123
f 121/121/121 123/123/123 124/124/124
f 125/125/125 126/126/126 127/127/127
f 125/125/125 127/127/127 128/128/128
f 129/129/129 130/130/130 131/131/131
f 129/129/129 131/131/131 132/132/132
f 133/133/133 134/134/134 135/135/135
f 133/133/133 135/135/135 136/136/136
f 137/137/137 138/138/138 139/139/139
f 137/137/137 139/139/139 140/140/140
f 141/141/141 142/142/142 143/143/143
f 141/141/141 143/143/143 144/144/144
f 145/145/145 146/146/146 147/147/147
f 145/145/145 147/147/147 148/148/148
f 149/149/149 150/150/150 151/151/151
f 149/149/149 151/151/151 152/152/152
f 153/153/153 154/154/154 155/155/155
f 153/153/153 155/155/155 156/156/156
f 157/157/157 158/158/158 159/159/159
f 157/157/157 159/159/159 160/160/160
f 161/161/161 162/162/162 163/163/163
f 161/161/161 163/163/163 164/164/164
f 165/165/165 166/166/166 167/167/167
f 165/165/165 167/167/167 168/168/168
f 169/169/169 170/170/170 171/171/171
f 169/169/169 171/171/171 172/172/172
f 173/173/173 174/174/174 175/175/175
f 173/173/173 175/175/175 176/176/176
f 177/177/177 178/178/178 179/179/179
f 177/177/177 179/179/179 180/180/180
