# Exported using automatic converter by Erwin Coumans
mtllib model6.mtl
#object mat0

v -1.912522 -0.314511 -3.110149
v -1.912522 -0.314511 -3.160149
v -1.912522 -0.354511 -3.160149
v -1.912522 -0.354511 -3.110149
v -1.862522 -0.354511 -3.160149
v -1.862522 -0.314511 -3.160149
v -1.862522 -0.314511 -3.110149
v -1.862522 -0.354511 -3.110149
v -1.912522 -0.354511 -3.160149
v -1.862522 -0.354511 -3.160149
v -1.862522 -0.354511 -3.110149
v -1.912522 -0.354511 -3.110149
v -1.862522 -0.314511 -3.110149
v -1.862522 -0.314511 -3.160149
v -1.912522 -0.314511 -3.160149
v -1.912522 -0.314511 -3.110149
v -1.862522 -0.354511 -3.110149
v -1.862522 -0.314511 -3.110149
v -1.912522 -0.314511 -3.110149
v -1.912522 -0.354511 -3.110149
v -1.912522 -0.314511 -3.160149
v -1.862522 -0.314511 -3.160149
v -1.862522 -0.354511 -3.160149
v -1.912522 -0.354511 -3.160149
v -1.972522 -0.304511 -3.110149
v -1.972522 -0.304511 -3.150149
v -1.972522 -0.354511 -3.150149
v -1.972522 -0.354511 -3.110149
v -1.922522 -0.354511 -3.150149
v -1.922522 -0.304511 -3.150149
v -1.922522 -0.304511 -3.110149
v -1.922522 -0.354511 -3.110149
v -1.972522 -0.354511 -3.150149
v -1.922522 -0.354511 -3.150149
v -1.922522 -0.354511 -3.110149
v -1.972522 -0.354511 -3.110149
v -1.922522 -0.304511 -3.110149
v -1.922522 -0.304511 -3.150149
v -1.972522 -0.304511 -3.150149
v -1.972522 -0.304511 -3.110149
v -1.922522 -0.354511 -3.110149
v -1.922522 -0.304511 -3.110149
v -1.972522 -0.304511 -3.110149
v -1.972522 -0.354511 -3.110149
v -1.972522 -0.304511 -3.150149
v -1.922522 -0.304511 -3.150149
v -1.922522 -0.354511 -3.150149
v -1.972522 -0.354511 -3.150149
usemtl mat0

vn -1.000000 0.000000 -0.000000
vn -1.000000 0.000000 -0.000000
vn -1.000000 0.000000 -0.000000
vn -1.000000 0.000000 -0.000000
vn 1.000000 0.000000 0.000000
vn 1.000000 0.000000 0.000000
vn 1.000000 0.000000 0.000000
vn 1.000000 0.000000 0.000000
vn -0.000000 -1.000000 0.000000
vn -0.000000 -1.000000 0.000000
vn -0.000000 -1.000000 0.000000
vn -0.000000 -1.000000 0.000000
vn 0.000000 1.000000 -0.000000
vn 0.000000 1.000000 -0.000000
vn 0.000000 1.000000 -0.000000
vn 0.000000 1.000000 -0.000000
vn -0.000000 0.000000 1.000000
vn -0.000000 0.000000 1.000000
vn -0.000000 0.000000 1.000000
vn -0.000000 0.000000 1.000000
vn 0.000000 -0.000000 -1.000000
vn 0.000000 -0.000000 -1.000000
vn 0.000000 -0.000000 -1.000000
vn 0.000000 -0.000000 -1.000000
vn -1.000000 0.000000 -0.000000
vn -1.000000 0.000000 -0.000000
vn -1.000000 0.000000 -0.000000
vn -1.000000 0.000000 -0.000000
vn 1.000000 0.000000 0.000000
vn 1.000000 0.000000 0.000000
vn 1.000000 0.000000 0.000000
vn 1.000000 0.000000 0.000000
vn -0.000000 -1.000000 0.000000
vn -0.000000 -1.000000 0.000000
vn -0.000000 -1.000000 0.000000
vn -0.000000 -1.000000 0.000000
vn 0.000000 1.000000 -0.000000
vn 0.000000 1.000000 -0.000000
vn 0.000000 1.000000 -0.000000
vn 0.000000 1.000000 -0.000000
vn -0.000000 0.000000 1.000000
vn -0.000000 0.000000 1.000000
vn -0.000000 0.000000 1.000000
vn -0.000000 0.000000 1.000000
vn 0.000000 -0.000000 -1.000000
vn 0.000000 -0.000000 -1.000000
vn 0.000000 -0.000000 -1.000000
vn 0.000000 -0.000000 -1.000000

vt 0.170768 0.142868
vt 0.174837 0.145775
vt 0.177161 0.142520
vt 0.173093 0.139613
vt -0.177161 0.142520
vt -0.174837 0.145775
vt -0.170768 0.142868
vt -0.173093 0.139613
vt -0.288468 -0.132790
vt -0.286786 -0.128081
vt -0.282077 -0.129763
vt -0.283759 -0.134472
vt 0.282077 -0.129763
vt 0.286786 -0.128081
vt 0.288468 -0.132790
vt 0.283759 -0.134472
vt 0.108707 -0.188345
vt 0.112285 -0.186556
vt 0.114521 -0.191028
vt 0.110943 -0.192817
vt -0.114521 -0.191028
vt -0.112285 -0.186556
vt -0.108707 -0.188345
vt -0.110943 -0.192817
vt 0.170187 0.143682
vt 0.173441 0.146007
vt 0.176348 0.141938
vt 0.173093 0.139613
vt -0.176348 0.141938
vt -0.173441 0.146007
vt -0.170187 0.143682
vt -0.173093 0.139613
vt -0.289544 -0.138777
vt -0.287862 -0.134068
vt -0.284095 -0.135413
vt -0.285777 -0.140122
vt 0.284095 -0.135413
vt 0.287862 -0.134068
vt 0.289544 -0.138777
vt 0.285777 -0.140122
vt 0.111390 -0.193711
vt 0.115862 -0.191475
vt 0.118098 -0.195947
vt 0.113626 -0.198184
vt -0.118098 -0.195947
vt -0.115862 -0.191475
vt -0.111390 -0.193711
vt -0.113626 -0.198184
s off
f 1/1/1 2/2/2 3/3/3
f 1/1/1 3/3/3 4/4/4
f 5/5/5 6/6/6 7/7/7
f 5/5/5 7/7/7 8/8/8
f 9/9/9 10/10/10 11/11/11
f 9/9/9 11/11/11 12/12/12
f 13/13/13 14/14/14 15/15/15
f 13/13/13 15/15/15 16/16/16
f 17/17/17 18/18/18 19/19/19
f 17/17/17 19/19/19 20/20/20
f 21/21/21 22/22/22 23/23/23
f 21/21/21 23/23/23 24/24/24
f 25/25/25 26/26/26 27/27/27
f 25/25/25 27/27/27 28/28/28
f 29/29/29 30/30/30 31/31/31
f 29/29/29 31/31/31 32/32/32
f 33/33/33 34/34/34 35/35/35
f 33/33/33 35/35/35 36/36/36
f 37/37/37 38/38/38 39/39/39
f 37/37/37 39/39/39 40/40/40
f 41/41/41 42/42/42 43/43/43
f 41/41/41 43/43/43 44/44/44
f 45/45/45 46/46/46 47/47/47
f 45/45/45 47/47/47 48/48/48
