# Exported using automatic converter by Erwin Coumans
mtllib model6.mtl
#object mesh1069339802

v 1.223238 2.075489 -0.550148
v 1.243238 2.075489 -0.550148
v 1.243237 0.825489 -0.550148
v 1.223238 0.825489 -0.550148
v 1.243237 0.825489 -0.490148
v 1.243238 2.075489 -0.490148
v 1.223238 2.075489 -0.490148
v 1.223238 0.825489 -0.490148
v 1.243237 0.825489 -0.550148
v 1.243237 0.825489 -0.490148
v 1.223238 0.825489 -0.490148
v 1.223238 0.825489 -0.550148
v 1.223238 2.075489 -0.490148
v 1.243238 2.075489 -0.490148
v 1.243238 2.075489 -0.550148
v 1.223238 2.075489 -0.550148
v 1.223238 0.825489 -0.490148
v 1.223238 2.075489 -0.490148
v 1.223238 2.075489 -0.550148
v 1.223238 0.825489 -0.550148
v 1.243238 2.075489 -0.550148
v 1.243238 2.075489 -0.490148
v 1.243237 0.825489 -0.490148
v 1.243237 0.825489 -0.550148
usemtl mat23

vn 0.000000 0.000000 -1.000000
vn 0.000000 0.000000 -1.000000
vn 0.000000 0.000000 -1.000000
vn 0.000000 0.000000 -1.000000
vn -0.000000 -0.000000 1.000000
vn -0.000000 -0.000000 1.000000
vn -0.000000 -0.000000 1.000000
vn -0.000000 -0.000000 1.000000
vn -0.000000 -1.000000 -0.000000
vn -0.000000 -1.000000 -0.000000
vn -0.000000 -1.000000 -0.000000
vn -0.000000 -1.000000 -0.000000
vn 0.000000 1.000000 0.000000
vn 0.000000 1.000000 0.000000
vn 0.000000 1.000000 0.000000
vn 0.000000 1.000000 0.000000
vn -1.000000 0.000000 -0.000000
vn -1.000000 0.000000 -0.000000
vn -1.000000 0.000000 -0.000000
vn -1.000000 0.000000 -0.000000
vn 1.000000 -0.000000 0.000000
vn 1.000000 -0.000000 0.000000
vn 1.000000 -0.000000 0.000000
vn 1.000000 -0.000000 0.000000

vt -0.188053 0.196327
vt -0.187159 0.198116
vt -0.075356 0.142214
vt -0.076250 0.140425
vt 0.075356 0.142214
vt 0.187159 0.198116
vt 0.188053 0.196327
vt 0.076250 0.140425
vt 0.063467 0.076617
vt 0.069117 0.074599
vt 0.068444 0.072716
vt 0.062794 0.074734
vt -0.068444 0.072716
vt -0.069117 0.074599
vt -0.063467 0.076617
vt -0.062794 0.074734
vt -0.108691 0.083350
vt -0.181346 0.185066
vt -0.176464 0.188554
vt -0.103809 0.086837
vt 0.176464 0.188554
vt 0.181346 0.185066
vt 0.108691 0.083350
vt 0.103809 0.086837
s off
f 1/1/1 2/2/2 3/3/3
f 1/1/1 3/3/3 4/4/4
f 5/5/5 6/6/6 7/7/7
f 5/5/5 7/7/7 8/8/8
f 9/9/9 10/10/10 11/11/11
f 9/9/9 11/11/11 12/12/12
f 13/13/13 14/14/14 15/15/15
f 13/13/13 15/15/15 16/16/16
f 17/17/17 18/18/18 19/19/19
f 17/17/17 19/19/19 20/20/20
f 21/21/21 22/22/22 23/23/23
f 21/21/21 23/23/23 24/24/24
