# Exported using automatic converter by Erwin Coumans
mtllib model6.mtl
#object mesh738735463

v -1.441762 0.025489 2.359852
v -1.441762 0.024149 2.364851
v -1.381762 0.024149 2.364852
v -1.381762 0.025489 2.359852
v -1.441762 0.024149 2.364851
v -1.441762 0.020489 2.368512
v -1.381762 0.020489 2.368512
v -1.381762 0.024149 2.364852
v -1.441762 0.020489 2.368512
v -1.441762 0.015489 2.369852
v -1.381762 0.015489 2.369852
v -1.381762 0.020489 2.368512
v -1.441762 0.015489 2.369852
v -1.441762 0.010489 2.368512
v -1.381762 0.010489 2.368512
v -1.381762 0.015489 2.369852
v -1.441762 0.010489 2.368512
v -1.441762 0.006829 2.364852
v -1.381762 0.006829 2.364852
v -1.381762 0.010489 2.368512
v -1.441762 0.006829 2.364852
v -1.441762 0.005489 2.359852
v -1.381762 0.005489 2.359852
v -1.381762 0.006829 2.364852
v -1.441762 0.005489 2.359852
v -1.441762 0.006829 2.354852
v -1.381762 0.006829 2.354852
v -1.381762 0.005489 2.359852
v -1.441762 0.006829 2.354852
v -1.441762 0.010489 2.351192
v -1.381762 0.010489 2.351192
v -1.381762 0.006829 2.354852
v -1.441762 0.010489 2.351192
v -1.441762 0.015489 2.349852
v -1.381762 0.015489 2.349852
v -1.381762 0.010489 2.351192
v -1.441762 0.015489 2.349852
v -1.441762 0.020489 2.351192
v -1.381762 0.020489 2.351192
v -1.381762 0.015489 2.349852
v -1.441762 0.020489 2.351192
v -1.441762 0.024149 2.354852
v -1.381762 0.024149 2.354852
v -1.381762 0.020489 2.351192
v -1.441762 0.024149 2.354852
v -1.441762 0.025489 2.359852
v -1.381762 0.025489 2.359852
v -1.381762 0.024149 2.354852
v -1.381762 0.025489 2.359852
v -1.381762 0.024149 2.364852
v -1.381762 0.020489 2.368512
v -1.381762 0.015489 2.369852
v -1.381762 0.010489 2.368512
v -1.381762 0.006829 2.364852
v -1.381762 0.005489 2.359852
v -1.381762 0.006829 2.354852
v -1.381762 0.010489 2.351192
v -1.381762 0.015489 2.349852
v -1.381762 0.020489 2.351192
v -1.381762 0.024149 2.354852
v -1.441762 0.024149 2.354852
v -1.441762 0.020489 2.351192
v -1.441762 0.015489 2.349852
v -1.441762 0.010489 2.351192
v -1.441762 0.006829 2.354852
v -1.441762 0.005489 2.359852
v -1.441762 0.006829 2.364852
v -1.441762 0.010489 2.368512
v -1.441762 0.015489 2.369852
v -1.441762 0.020489 2.368512
v -1.441762 0.024149 2.364851
v -1.441762 0.025489 2.359852
usemtl mat21

vn 0.000000 1.000000 -0.000000
vn 0.000000 1.000000 -0.000000
vn 0.000000 1.000000 -0.000000
vn 0.000000 1.000000 -0.000000
vn -0.000000 0.866025 0.500000
vn -0.000000 0.866025 0.500000
vn -0.000000 0.866025 0.500000
vn -0.000000 0.866025 0.500000
vn -0.000000 0.500000 0.866025
vn -0.000000 0.500000 0.866025
vn -0.000000 0.500000 0.866025
vn -0.000000 0.500000 0.866025
vn -0.000000 -0.000000 1.000000
vn -0.000000 -0.000000 1.000000
vn -0.000000 -0.000000 1.000000
vn -0.000000 -0.000000 1.000000
vn -0.000000 -0.500000 0.866025
vn -0.000000 -0.500000 0.866025
vn -0.000000 -0.500000 0.866025
vn -0.000000 -0.500000 0.866025
vn -0.000000 -0.866025 0.500000
vn -0.000000 -0.866025 0.500000
vn -0.000000 -0.866025 0.500000
vn -0.000000 -0.866025 0.500000
vn 0.000000 -1.000000 -0.000000
vn 0.000000 -1.000000 -0.000000
vn 0.000000 -1.000000 -0.000000
vn 0.000000 -1.000000 -0.000000
vn 0.000000 -0.866025 -0.500000
vn 0.000000 -0.866025 -0.500000
vn 0.000000 -0.866025 -0.500000
vn 0.000000 -0.866025 -0.500000
vn 0.000000 -0.500000 -0.866025
vn 0.000000 -0.500000 -0.866025
vn 0.000000 -0.500000 -0.866025
vn 0.000000 -0.500000 -0.866025
vn 0.000000 0.000000 -1.000000
vn 0.000000 0.000000 -1.000000
vn 0.000000 0.000000 -1.000000
vn 0.000000 0.000000 -1.000000
vn 0.000000 0.500000 -0.866025
vn 0.000000 0.500000 -0.866025
vn 0.000000 0.500000 -0.866025
vn 0.000000 0.500000 -0.866025
vn 0.000000 0.866026 -0.500000
vn 0.000000 0.866026 -0.500000
vn 0.000000 0.866026 -0.500000
vn 0.000000 0.866026 -0.500000
vn 1.000000 -0.000000 0.000000
vn 1.000000 -0.000000 0.000000
vn 1.000000 -0.000000 0.000000
vn 1.000000 -0.000000 0.000000
vn 1.000000 -0.000000 0.000000
vn 1.000000 -0.000000 0.000000
vn 1.000000 -0.000000 0.000000
vn 1.000000 -0.000000 0.000000
vn 1.000000 -0.000000 0.000000
vn 1.000000 -0.000000 0.000000
vn 1.000000 -0.000000 0.000000
vn 1.000000 -0.000000 0.000000
vn -1.000000 0.000000 -0.000000
vn -1.000000 0.000000 -0.000000
vn -1.000000 0.000000 -0.000000
vn -1.000000 0.000000 -0.000000
vn -1.000000 0.000000 -0.000000
vn -1.000000 0.000000 -0.000000
vn -1.000000 0.000000 -0.000000
vn -1.000000 0.000000 -0.000000
vn -1.000000 0.000000 -0.000000
vn -1.000000 0.000000 -0.000000
vn -1.000000 0.000000 -0.000000
vn -1.000000 0.000000 -0.000000

vt -0.247207 -0.274114
vt -0.247678 -0.274282
vt -0.249696 -0.268632
vt -0.249225 -0.268464
vt -0.138405 -0.277921
vt -0.138841 -0.278165
vt -0.141770 -0.272928
vt -0.141334 -0.272684
vt -0.010384 -0.211484
vt -0.010810 -0.211745
vt -0.013941 -0.206626
vt -0.013514 -0.206365
vt 0.122984 -0.134164
vt 0.122537 -0.134388
vt 0.119853 -0.129021
vt 0.120300 -0.128797
vt 0.242599 -0.118849
vt 0.242114 -0.118972
vt 0.240635 -0.113157
vt 0.241119 -0.113034
vt 0.295563 -0.192833
vt 0.295063 -0.192803
vt 0.295419 -0.186814
vt 0.295918 -0.186843
vt 0.247207 -0.274114
vt 0.246736 -0.273946
vt 0.248754 -0.268296
vt 0.249225 -0.268464
vt 0.138405 -0.277921
vt 0.137969 -0.277676
vt 0.140897 -0.272440
vt 0.141334 -0.272684
vt 0.010384 -0.211484
vt 0.009957 -0.211223
vt 0.013087 -0.206105
vt 0.013514 -0.206365
vt -0.122984 -0.134164
vt -0.123431 -0.133940
vt -0.120748 -0.128574
vt -0.120300 -0.128797
vt -0.242599 -0.118849
vt -0.243083 -0.118726
vt -0.241604 -0.112911
vt -0.241119 -0.113034
vt -0.295563 -0.192833
vt -0.296062 -0.192862
vt -0.296417 -0.186873
vt -0.295918 -0.186843
vt 0.294107 -0.147402
vt 0.294436 -0.147802
vt 0.294521 -0.148312
vt 0.294339 -0.148797
vt 0.293939 -0.149126
vt 0.293429 -0.149211
vt 0.292944 -0.149030
vt 0.292615 -0.148630
vt 0.292530 -0.148119
vt 0.292712 -0.147635
vt 0.293111 -0.147306
vt 0.293622 -0.147221
vt -0.293622 -0.147221
vt -0.293111 -0.147306
vt -0.292712 -0.147635
vt -0.292530 -0.148119
vt -0.292615 -0.148630
vt -0.292944 -0.149030
vt -0.293429 -0.149211
vt -0.293939 -0.149126
vt -0.294339 -0.148797
vt -0.294521 -0.148312
vt -0.294436 -0.147802
vt -0.294107 -0.147402
s off
f 1/1/1 2/2/2 3/3/3
f 1/1/1 3/3/3 4/4/4
f 5/5/5 6/6/6 7/7/7
f 5/5/5 7/7/7 8/8/8
f 9/9/9 10/10/10 11/11/11
f 9/9/9 11/11/11 12/12/12
f 13/13/13 14/14/14 15/15/15
f 13/13/13 15/15/15 16/16/16
f 17/17/17 18/18/18 19/19/19
f 17/17/17 19/19/19 20/20/20
f 21/21/21 22/22/22 23/23/23
f 21/21/21 23/23/23 24/24/24
f 25/25/25 26/26/26 27/27/27
f 25/25/25 27/27/27 28/28/28
f 29/29/29 30/30/30 31/31/31
f 29/29/29 31/31/31 32/32/32
f 33/33/33 34/34/34 35/35/35
f 33/33/33 35/35/35 36/36/36
f 37/37/37 38/38/38 39/39/39
f 37/37/37 39/39/39 40/40/40
f 41/41/41 42/42/42 43/43/43
f 41/41/41 43/43/43 44/44/44
f 45/45/45 46/46/46 47/47/47
f 45/45/45 47/47/47 48/48/48
f 49/49/49 50/50/50 51/51/51
f 49/49/49 51/51/51 52/52/52
f 49/49/49 52/52/52 53/53/53
f 49/49/49 53/53/53 54/54/54
f 49/49/49 54/54/54 55/55/55
f 49/49/49 55/55/55 56/56/56
f 49/49/49 56/56/56 57/57/57
f 49/49/49 57/57/57 58/58/58
f 49/49/49 58/58/58 59/59/59
f 49/49/49 59/59/59 60/60/60
f 61/61/61 62/62/62 63/63/63
f 61/61/61 63/63/63 64/64/64
f 61/61/61 64/64/64 65/65/65
f 61/61/61 65/65/65 66/66/66
f 61/61/61 66/66/66 67/67/67
f 61/61/61 67/67/67 68/68/68
f 61/61/61 68/68/68 69/69/69
f 61/61/61 69/69/69 70/70/70
f 61/61/61 70/70/70 71/71/71
f 61/61/61 71/71/71 72/72/72
