# Exported using automatic converter by Erwin Coumans
mtllib model6.mtl
#object mesh1636895380

v -2.721762 0.315489 -3.270148
v -2.691762 0.315489 -3.270148
v -2.691762 -0.334511 -3.270148
v -2.721762 -0.334511 -3.270148
v -2.691762 -0.334511 -2.620148
v -2.691762 0.315489 -2.620148
v -2.721762 0.315489 -2.620148
v -2.721762 -0.334511 -2.620148
v -2.691762 -0.334511 -3.270148
v -2.691762 -0.334511 -2.620148
v -2.721762 -0.334511 -2.620148
v -2.721762 -0.334511 -3.270148
v -2.721762 0.315489 -2.620148
v -2.691762 0.315489 -2.620148
v -2.691762 0.315489 -3.270148
v -2.721762 0.315489 -3.270148
v -2.721762 -0.334511 -2.620148
v -2.721762 0.315489 -2.620148
v -2.721762 0.315489 -3.270148
v -2.721762 -0.334511 -3.270148
v -2.691762 0.315489 -3.270148
v -2.691762 0.315489 -2.620148
v -2.691762 -0.334511 -2.620148
v -2.691762 -0.334511 -3.270148
usemtl mat21

vn -0.000000 0.000000 -1.000000
vn -0.000000 0.000000 -1.000000
vn -0.000000 0.000000 -1.000000
vn -0.000000 0.000000 -1.000000
vn 0.000000 0.000000 1.000000
vn 0.000000 0.000000 1.000000
vn 0.000000 0.000000 1.000000
vn 0.000000 0.000000 1.000000
vn -0.000000 -1.000000 0.000000
vn -0.000000 -1.000000 0.000000
vn -0.000000 -1.000000 0.000000
vn -0.000000 -1.000000 0.000000
vn 0.000000 1.000000 0.000000
vn 0.000000 1.000000 0.000000
vn 0.000000 1.000000 0.000000
vn 0.000000 1.000000 0.000000
vn -1.000000 0.000000 0.000000
vn -1.000000 0.000000 0.000000
vn -1.000000 0.000000 0.000000
vn -1.000000 0.000000 0.000000
vn 1.000000 -0.000000 -0.000000
vn 1.000000 -0.000000 -0.000000
vn 1.000000 -0.000000 -0.000000
vn 1.000000 -0.000000 -0.000000

vt -0.207060 -0.235234
vt -0.205718 -0.232551
vt -0.147581 -0.261620
vt -0.148922 -0.264303
vt 0.147581 -0.261620
vt 0.205718 -0.232551
vt 0.207060 -0.235234
vt 0.148922 -0.264303
vt -0.325036 -0.202475
vt -0.263822 -0.224336
vt -0.264831 -0.227162
vt -0.326044 -0.205300
vt 0.264831 -0.227162
vt 0.263822 -0.224336
vt 0.325036 -0.202475
vt 0.326044 -0.205300
vt 0.132057 0.112760
vt 0.094277 0.165653
vt 0.147170 0.203433
vt 0.184950 0.150541
vt -0.147170 0.203433
vt -0.094277 0.165653
vt -0.132057 0.112760
vt -0.184950 0.150541
s off
f 1/1/1 2/2/2 3/3/3
f 1/1/1 3/3/3 4/4/4
f 5/5/5 6/6/6 7/7/7
f 5/5/5 7/7/7 8/8/8
f 9/9/9 10/10/10 11/11/11
f 9/9/9 11/11/11 12/12/12
f 13/13/13 14/14/14 15/15/15
f 13/13/13 15/15/15 16/16/16
f 17/17/17 18/18/18 19/19/19
f 17/17/17 19/19/19 20/20/20
f 21/21/21 22/22/22 23/23/23
f 21/21/21 23/23/23 24/24/24
