# Exported using automatic converter by Erwin Coumans
mtllib model6.mtl
#object mesh792518645

v -0.485909 0.445165 -2.727492
v -0.486022 0.447236 -2.741548
v -0.791011 0.447520 -2.737548
v -0.790898 0.445449 -2.723493
v -0.791058 0.437495 -2.742616
v -0.486069 0.437212 -2.746615
v -0.485915 0.435119 -2.727536
v -0.790904 0.435402 -2.723536
v -0.791011 0.447520 -2.737548
v -0.791058 0.437495 -2.742616
v -0.790904 0.435402 -2.723536
v -0.790898 0.445449 -2.723493
v -0.485915 0.435119 -2.727536
v -0.486069 0.437212 -2.746615
v -0.486022 0.447236 -2.741548
v -0.485909 0.445165 -2.727492
v -0.790904 0.435402 -2.723536
v -0.485915 0.435119 -2.727536
v -0.485909 0.445165 -2.727492
v -0.790898 0.445449 -2.723493
v -0.486022 0.447236 -2.741548
v -0.486069 0.437212 -2.746615
v -0.791058 0.437495 -2.742616
v -0.791011 0.447520 -2.737548
usemtl mat23

vn 0.002830 0.989317 0.145755
vn 0.002830 0.989317 0.145755
vn 0.002830 0.989317 0.145755
vn 0.002830 0.989317 0.145755
vn -0.002353 -0.994034 -0.109042
vn -0.002353 -0.994034 -0.109042
vn -0.002353 -0.994034 -0.109042
vn -0.002353 -0.994034 -0.109042
vn -0.999967 0.000576 0.008124
vn -0.999967 0.000576 0.008124
vn -0.999967 0.000576 0.008124
vn -0.999967 0.000576 0.008124
vn 0.999967 -0.000576 -0.008124
vn 0.999967 -0.000576 -0.008124
vn 0.999967 -0.000576 -0.008124
vn 0.999967 -0.000576 -0.008124
vn 0.013108 -0.004403 0.999904
vn 0.013108 -0.004403 0.999904
vn 0.013108 -0.004403 0.999904
vn 0.013108 -0.004403 0.999904
vn -0.011283 0.451145 -0.892380
vn -0.011283 0.451145 -0.892380
vn -0.011283 0.451145 -0.892380
vn -0.011283 0.451145 -0.892380

vt 0.210891 0.003452
vt 0.212202 0.004000
vt 0.223813 -0.024206
vt 0.222502 -0.024753
vt -0.221445 -0.028203
vt -0.210241 0.000166
vt -0.208459 -0.000548
vt -0.219664 -0.028917
vt 0.099001 0.182569
vt 0.099990 0.182036
vt 0.098545 0.180773
vt 0.097967 0.181595
vt -0.098676 0.180851
vt -0.100121 0.182114
vt -0.099132 0.182647
vt -0.098098 0.181673
vt 0.129458 -0.055771
vt 0.115875 -0.028461
vt 0.116775 -0.028014
vt 0.130358 -0.055324
vt -0.020651 -0.074265
vt -0.019572 -0.074576
vt -0.028085 -0.103866
vt -0.029165 -0.103555
s off
f 1/1/1 2/2/2 3/3/3
f 1/1/1 3/3/3 4/4/4
f 5/5/5 6/6/6 7/7/7
f 5/5/5 7/7/7 8/8/8
f 9/9/9 10/10/10 11/11/11
f 9/9/9 11/11/11 12/12/12
f 13/13/13 14/14/14 15/15/15
f 13/13/13 15/15/15 16/16/16
f 17/17/17 18/18/18 19/19/19
f 17/17/17 19/19/19 20/20/20
f 21/21/21 22/22/22 23/23/23
f 21/21/21 23/23/23 24/24/24
