# Exported using automatic converter by Erwin Coumans
mtllib model6.mtl
#object group576903952_2

v 2.972430 -0.911006 -0.416813
v 3.015113 -0.911965 -0.399377
v 3.014506 -0.950137 -0.399993
v 2.971823 -0.949178 -0.417430
v 2.971015 -1.000074 -0.418252
v 3.013697 -1.001033 -0.400816
v 3.041938 -1.002071 -0.364372
v 3.048169 -1.002908 -0.318685
v 3.030721 -1.003320 -0.275999
v 2.994270 -1.003198 -0.247749
v 2.948582 -1.002573 -0.241506
v 2.905899 -1.001613 -0.258943
v 2.877659 -1.000576 -0.295387
v 2.871428 -0.999739 -0.341073
v 2.888875 -0.999326 -0.383760
v 2.925327 -0.999449 -0.412010
v 3.015113 -0.911965 -0.399377
v 3.043353 -0.913003 -0.362933
v 3.042746 -0.951175 -0.363550
v 3.014506 -0.950137 -0.399993
v 3.049584 -0.913840 -0.317247
v 3.032136 -0.914252 -0.274560
v 3.031530 -0.952424 -0.275176
v 3.048977 -0.952012 -0.317863
v 3.032136 -0.914252 -0.274560
v 2.995685 -0.914130 -0.246310
v 2.995078 -0.952302 -0.246927
v 3.031530 -0.952424 -0.275176
v 2.995685 -0.914130 -0.246310
v 2.949997 -0.913505 -0.240067
v 2.949390 -0.951677 -0.240684
v 2.995078 -0.952302 -0.246927
v 2.949997 -0.913505 -0.240067
v 2.907314 -0.912545 -0.257504
v 2.906708 -0.950717 -0.258121
v 2.949390 -0.951677 -0.240684
v 2.907314 -0.912545 -0.257504
v 2.879074 -0.911508 -0.293948
v 2.878467 -0.949680 -0.294564
v 2.906708 -0.950717 -0.258121
v 2.879074 -0.911508 -0.293948
v 2.872843 -0.910671 -0.339634
v 2.872236 -0.948843 -0.340251
v 2.878467 -0.949680 -0.294564
v 2.872843 -0.910671 -0.339634
v 2.890290 -0.910258 -0.382321
v 2.889684 -0.948430 -0.382938
v 2.872236 -0.948843 -0.340251
v 2.890290 -0.910258 -0.382321
v 2.926742 -0.910381 -0.410571
v 2.926135 -0.948553 -0.411187
v 2.889684 -0.948430 -0.382938
v 2.926742 -0.910381 -0.410571
v 2.972430 -0.911006 -0.416813
v 2.971823 -0.949178 -0.417430
v 2.926135 -0.948553 -0.411187
v 2.975463 -0.720146 -0.413730
v 3.018145 -0.721105 -0.396293
v 3.017741 -0.746553 -0.396704
v 2.975058 -0.745594 -0.414141
v 3.018145 -0.721105 -0.396293
v 3.046386 -0.722143 -0.359849
v 3.045981 -0.747591 -0.360260
v 3.017741 -0.746553 -0.396704
v 3.052617 -0.722980 -0.314163
v 3.035169 -0.723392 -0.271476
v 3.034765 -0.748840 -0.271887
v 3.052212 -0.748428 -0.314574
v 3.035169 -0.723392 -0.271476
v 2.998718 -0.723270 -0.243226
v 2.998313 -0.748717 -0.243637
v 3.034765 -0.748840 -0.271887
v 2.998718 -0.723270 -0.243226
v 2.953029 -0.722645 -0.236984
v 2.952625 -0.748093 -0.237395
v 2.998313 -0.748717 -0.243637
v 2.953029 -0.722645 -0.236984
v 2.910347 -0.721685 -0.254421
v 2.909943 -0.747133 -0.254832
v 2.952625 -0.748093 -0.237395
v 2.910347 -0.721685 -0.254421
v 2.882107 -0.720648 -0.290864
v 2.881702 -0.746096 -0.291276
v 2.909943 -0.747133 -0.254832
v 2.882107 -0.720648 -0.290864
v 2.875876 -0.719811 -0.336551
v 2.875471 -0.745259 -0.336962
v 2.881702 -0.746096 -0.291276
v 2.875876 -0.719811 -0.336551
v 2.893323 -0.719398 -0.379238
v 2.892919 -0.744846 -0.379648
v 2.875471 -0.745259 -0.336962
v 2.893323 -0.719398 -0.379238
v 2.929775 -0.719521 -0.407488
v 2.929370 -0.744969 -0.407898
v 2.892919 -0.744846 -0.379648
v 2.929775 -0.719521 -0.407488
v 2.975463 -0.720146 -0.413730
v 2.975058 -0.745594 -0.414141
v 2.929370 -0.744969 -0.407898
v 2.929775 -0.719521 -0.407488
v 2.893323 -0.719398 -0.379238
v 2.875876 -0.719811 -0.336551
v 2.882107 -0.720648 -0.290864
v 2.910347 -0.721685 -0.254421
v 2.953029 -0.722645 -0.236984
v 2.998718 -0.723270 -0.243226
v 3.035169 -0.723392 -0.271476
v 3.052617 -0.722980 -0.314163
v 3.046386 -0.722143 -0.359849
v 3.018145 -0.721105 -0.396293
v 2.975463 -0.720146 -0.413730
usemtl mat23

vn 0.378338 0.008937 -0.925624
vn 0.378338 0.008937 -0.925624
vn 0.378338 0.008937 -0.925624
vn 0.378338 0.008937 -0.925624
vn -0.015880 -0.999744 -0.016151
vn -0.015880 -0.999744 -0.016151
vn -0.015880 -0.999744 -0.016151
vn -0.015880 -0.999744 -0.016151
vn -0.015880 -0.999744 -0.016151
vn -0.015880 -0.999744 -0.016151
vn -0.015880 -0.999744 -0.016151
vn -0.015880 -0.999744 -0.016151
vn -0.015880 -0.999744 -0.016151
vn -0.015880 -0.999744 -0.016151
vn -0.015880 -0.999744 -0.016151
vn -0.015880 -0.999744 -0.016151
vn 0.790413 -0.002670 -0.612569
vn 0.790413 -0.002670 -0.612569
vn 0.790413 -0.002670 -0.612569
vn 0.790413 -0.002670 -0.612569
vn 0.925532 -0.020815 0.378097
vn 0.925532 -0.020815 0.378097
vn 0.925532 -0.020815 0.378097
vn 0.925532 -0.020815 0.378097
vn 0.612371 -0.022496 0.790250
vn 0.612371 -0.022496 0.790250
vn 0.612371 -0.022496 0.790250
vn 0.612371 -0.022496 0.790250
vn 0.135112 -0.018148 0.990664
vn 0.135112 -0.018148 0.990664
vn 0.135112 -0.018148 0.990664
vn 0.135112 -0.018148 0.990664
vn -0.378340 -0.008940 0.925624
vn -0.378340 -0.008940 0.925624
vn -0.378340 -0.008940 0.925624
vn -0.378340 -0.008940 0.925624
vn -0.790413 0.002667 0.612569
vn -0.790413 0.002667 0.612569
vn -0.790413 0.002667 0.612569
vn -0.790413 0.002667 0.612569
vn -0.990703 0.013557 0.135367
vn -0.990703 0.013557 0.135367
vn -0.990703 0.013557 0.135367
vn -0.990703 0.013557 0.135367
vn -0.925533 0.020815 -0.378095
vn -0.925533 0.020815 -0.378095
vn -0.925533 0.020815 -0.378095
vn -0.925533 0.020815 -0.378095
vn -0.612371 0.022496 -0.790251
vn -0.612371 0.022496 -0.790251
vn -0.612371 0.022496 -0.790251
vn -0.612371 0.022496 -0.790251
vn -0.135111 0.018148 -0.990664
vn -0.135111 0.018148 -0.990664
vn -0.135111 0.018148 -0.990664
vn -0.135111 0.018148 -0.990664
vn 0.378342 0.008933 -0.925623
vn 0.378342 0.008933 -0.925623
vn 0.378342 0.008933 -0.925623
vn 0.378342 0.008933 -0.925623
vn 0.790413 -0.002671 -0.612569
vn 0.790413 -0.002671 -0.612569
vn 0.790413 -0.002671 -0.612569
vn 0.790413 -0.002671 -0.612569
vn 0.925533 -0.020818 0.378093
vn 0.925533 -0.020818 0.378093
vn 0.925533 -0.020818 0.378093
vn 0.925533 -0.020818 0.378093
vn 0.612370 -0.022497 0.790251
vn 0.612370 -0.022497 0.790251
vn 0.612370 -0.022497 0.790251
vn 0.612370 -0.022497 0.790251
vn 0.135113 -0.018147 0.990664
vn 0.135113 -0.018147 0.990664
vn 0.135113 -0.018147 0.990664
vn 0.135113 -0.018147 0.990664
vn -0.378347 -0.008935 0.925621
vn -0.378347 -0.008935 0.925621
vn -0.378347 -0.008935 0.925621
vn -0.378347 -0.008935 0.925621
vn -0.790413 0.002670 0.612569
vn -0.790413 0.002670 0.612569
vn -0.790413 0.002670 0.612569
vn -0.790413 0.002670 0.612569
vn -0.990703 0.013561 0.135367
vn -0.990703 0.013561 0.135367
vn -0.990703 0.013561 0.135367
vn -0.990703 0.013561 0.135367
vn -0.925535 0.020818 -0.378089
vn -0.925535 0.020818 -0.378089
vn -0.925535 0.020818 -0.378089
vn -0.925535 0.020818 -0.378089
vn -0.612369 0.022497 -0.790252
vn -0.612369 0.022497 -0.790252
vn -0.612369 0.022497 -0.790252
vn -0.612369 0.022497 -0.790252
vn -0.135111 0.018146 -0.990664
vn -0.135111 0.018146 -0.990664
vn -0.135111 0.018146 -0.990664
vn -0.135111 0.018146 -0.990664
vn 0.015880 0.999744 0.016151
vn 0.015880 0.999744 0.016151
vn 0.015880 0.999744 0.016151
vn 0.015880 0.999744 0.016151
vn 0.015880 0.999744 0.016151
vn 0.015880 0.999744 0.016151
vn 0.015880 0.999744 0.016151
vn 0.015880 0.999744 0.016151
vn 0.015880 0.999744 0.016151
vn 0.015880 0.999744 0.016151
vn 0.015880 0.999744 0.016151
vn 0.015880 0.999744 0.016151

vt 0.176713 0.201513
vt 0.179237 0.205372
vt 0.182433 0.203283
vt 0.179909 0.199423
vt 0.137312 0.234023
vt 0.140424 0.237427
vt 0.144821 0.238818
vt 0.149324 0.237824
vt 0.152728 0.234712
vt 0.154119 0.230315
vt 0.153125 0.225812
vt 0.150013 0.222409
vt 0.145616 0.221017
vt 0.141113 0.222011
vt 0.137709 0.225123
vt 0.136318 0.229520
vt 0.194203 0.077037
vt 0.198113 0.079482
vt 0.200137 0.076244
vt 0.196227 0.073799
vt -0.059875 0.019030
vt -0.057193 0.015278
vt -0.060299 0.013058
vt -0.062981 0.016809
vt -0.113821 0.141566
vt -0.111739 0.137451
vt -0.115146 0.135727
vt -0.117228 0.139842
vt -0.148076 0.214739
vt -0.146034 0.210604
vt -0.149457 0.208913
vt -0.151500 0.213048
vt -0.179237 0.205372
vt -0.176713 0.201513
vt -0.179909 0.199423
vt -0.182432 0.203283
vt -0.198113 0.079482
vt -0.194203 0.077037
vt -0.196227 0.073799
vt -0.200137 0.076244
vt -0.071003 -0.072936
vt -0.066792 -0.071055
vt -0.065235 -0.074542
vt -0.069446 -0.076422
vt 0.057193 0.015278
vt 0.059875 0.019029
vt 0.062981 0.016809
vt 0.060299 0.013057
vt 0.111739 0.137451
vt 0.113821 0.141566
vt 0.117228 0.139842
vt 0.115146 0.135727
vt 0.146034 0.210604
vt 0.148076 0.214739
vt 0.151499 0.213048
vt 0.149457 0.208913
vt 0.160735 0.211958
vt 0.163258 0.215818
vt 0.165389 0.214425
vt 0.162865 0.210565
vt 0.184081 0.093224
vt 0.187991 0.095669
vt 0.189341 0.093511
vt 0.185431 0.091066
vt -0.044343 0.030132
vt -0.041661 0.026380
vt -0.043732 0.024900
vt -0.046414 0.028651
vt -0.096787 0.150186
vt -0.094705 0.146071
vt -0.096976 0.144921
vt -0.099058 0.149036
vt -0.130960 0.223195
vt -0.128918 0.219060
vt -0.131200 0.217933
vt -0.133243 0.222067
vt -0.163258 0.215818
vt -0.160735 0.211958
vt -0.162866 0.210565
vt -0.165389 0.214425
vt -0.187991 0.095669
vt -0.184081 0.093224
vt -0.185431 0.091065
vt -0.189341 0.093510
vt -0.078789 -0.055504
vt -0.074578 -0.053623
vt -0.073540 -0.055947
vt -0.077751 -0.057828
vt 0.041661 0.026379
vt 0.044343 0.030131
vt 0.046414 0.028650
vt 0.043732 0.024899
vt 0.094705 0.146071
vt 0.096787 0.150186
vt 0.099058 0.149037
vt 0.096976 0.144922
vt 0.128918 0.219060
vt 0.130961 0.223195
vt 0.133243 0.222067
vt 0.131200 0.217933
vt -0.136318 0.229520
vt -0.137710 0.225123
vt -0.141113 0.222011
vt -0.145616 0.221018
vt -0.150013 0.222409
vt -0.153125 0.225812
vt -0.154119 0.230315
vt -0.152728 0.234712
vt -0.149324 0.237824
vt -0.144821 0.238818
vt -0.140424 0.237427
vt -0.137312 0.234024
s off
f 1/1/1 2/2/2 3/3/3
f 1/1/1 3/3/3 4/4/4
f 5/5/5 6/6/6 7/7/7
f 5/5/5 7/7/7 8/8/8
f 5/5/5 8/8/8 9/9/9
f 5/5/5 9/9/9 10/10/10
f 5/5/5 10/10/10 11/11/11
f 5/5/5 11/11/11 12/12/12
f 5/5/5 12/12/12 13/13/13
f 5/5/5 13/13/13 14/14/14
f 5/5/5 14/14/14 15/15/15
f 5/5/5 15/15/15 16/16/16
f 17/17/17 18/18/18 19/19/19
f 17/17/17 19/19/19 20/20/20
f 21/21/21 22/22/22 23/23/23
f 21/21/21 23/23/23 24/24/24
f 25/25/25 26/26/26 27/27/27
f 25/25/25 27/27/27 28/28/28
f 29/29/29 30/30/30 31/31/31
f 29/29/29 31/31/31 32/32/32
f 33/33/33 34/34/34 35/35/35
f 33/33/33 35/35/35 36/36/36
f 37/37/37 38/38/38 39/39/39
f 37/37/37 39/39/39 40/40/40
f 41/41/41 42/42/42 43/43/43
f 41/41/41 43/43/43 44/44/44
f 45/45/45 46/46/46 47/47/47
f 45/45/45 47/47/47 48/48/48
f 49/49/49 50/50/50 51/51/51
f 49/49/49 51/51/51 52/52/52
f 53/53/53 54/54/54 55/55/55
f 53/53/53 55/55/55 56/56/56
f 57/57/57 58/58/58 59/59/59
f 57/57/57 59/59/59 60/60/60
f 61/61/61 62/62/62 63/63/63
f 61/61/61 63/63/63 64/64/64
f 65/65/65 66/66/66 67/67/67
f 65/65/65 67/67/67 68/68/68
f 69/69/69 70/70/70 71/71/71
f 69/69/69 71/71/71 72/72/72
f 73/73/73 74/74/74 75/75/75
f 73/73/73 75/75/75 76/76/76
f 77/77/77 78/78/78 79/79/79
f 77/77/77 79/79/79 80/80/80
f 81/81/81 82/82/82 83/83/83
f 81/81/81 83/83/83 84/84/84
f 85/85/85 86/86/86 87/87/87
f 85/85/85 87/87/87 88/88/88
f 89/89/89 90/90/90 91/91/91
f 89/89/89 91/91/91 92/92/92
f 93/93/93 94/94/94 95/95/95
f 93/93/93 95/95/95 96/96/96
f 97/97/97 98/98/98 99/99/99
f 97/97/97 99/99/99 100/100/100
f 101/101/101 102/102/102 103/103/103
f 101/101/101 103/103/103 104/104/104
f 101/101/101 104/104/104 105/105/105
f 101/101/101 105/105/105 106/106/106
f 101/101/101 106/106/106 107/107/107
f 101/101/101 107/107/107 108/108/108
f 101/101/101 108/108/108 109/109/109
f 101/101/101 109/109/109 110/110/110
f 101/101/101 110/110/110 111/111/111
f 101/101/101 111/111/111 112/112/112
