# Exported using automatic converter by Erwin Coumans
mtllib botlab.mtl
#object mesh399062099

v -2.377498 -0.435582 0.197026
v -2.378070 -0.395593 0.197749
v -2.376040 -0.394842 0.157807
v -2.375467 -0.434831 0.157085
v -2.228346 -0.392864 0.165354
v -2.230377 -0.393615 0.205295
v -2.229805 -0.433605 0.204573
v -2.227774 -0.432853 0.164631
v -2.376040 -0.394842 0.157807
v -2.228346 -0.392864 0.165354
v -2.227774 -0.432853 0.164631
v -2.375467 -0.434831 0.157085
v -2.229805 -0.433605 0.204573
v -2.230377 -0.393615 0.205295
v -2.378070 -0.395593 0.197749
v -2.377498 -0.435582 0.197026
v -2.227774 -0.432853 0.164631
v -2.229805 -0.433605 0.204573
v -2.377498 -0.435582 0.197026
v -2.375467 -0.434831 0.157085
v -2.378070 -0.395593 0.197749
v -2.230377 -0.393615 0.205295
v -2.228346 -0.392864 0.165354
v -2.376040 -0.394842 0.157807
usemtl mat20

vn -0.998608 -0.013374 -0.051025
vn -0.998608 -0.013374 -0.051025
vn -0.998608 -0.013374 -0.051025
vn -0.998608 -0.013374 -0.051025
vn 0.998608 0.013374 0.051025
vn 0.998608 0.013374 0.051025
vn 0.998608 0.013374 0.051025
vn 0.998608 0.013374 0.051025
vn 0.050770 0.018777 -0.998534
vn 0.050770 0.018777 -0.998534
vn 0.050770 0.018777 -0.998534
vn 0.050770 0.018777 -0.998534
vn -0.050770 -0.018777 0.998534
vn -0.050770 -0.018777 0.998534
vn -0.050770 -0.018777 0.998534
vn -0.050770 -0.018777 0.998534
vn 0.014313 -0.999734 -0.018072
vn 0.014313 -0.999734 -0.018072
vn 0.014313 -0.999734 -0.018072
vn 0.014313 -0.999734 -0.018072
vn -0.014313 0.999734 0.018072
vn -0.014313 0.999734 0.018072
vn -0.014313 0.999734 0.018072
vn -0.014313 0.999734 0.018072

vt -0.099145 -0.072066
vt -0.101771 -0.069048
vt -0.098753 -0.066423
vt -0.096127 -0.069440
vt 0.098753 -0.066423
vt 0.101771 -0.069048
vt 0.099145 -0.072066
vt 0.096127 -0.069440
vt -0.127885 -0.229812
vt -0.121427 -0.216506
vt -0.117829 -0.218253
vt -0.124287 -0.231558
vt 0.117829 -0.218253
vt 0.121427 -0.216506
vt 0.127885 -0.229812
vt 0.124287 -0.231558
vt 0.012412 -0.274221
vt 0.016097 -0.275777
vt 0.010344 -0.289402
vt 0.006659 -0.287846
vt -0.010344 -0.289402
vt -0.016097 -0.275777
vt -0.012412 -0.274221
vt -0.006659 -0.287846
s off
f 1/1/1 2/2/2 3/3/3
f 1/1/1 3/3/3 4/4/4
f 5/5/5 6/6/6 7/7/7
f 5/5/5 7/7/7 8/8/8
f 9/9/9 10/10/10 11/11/11
f 9/9/9 11/11/11 12/12/12
f 13/13/13 14/14/14 15/15/15
f 13/13/13 15/15/15 16/16/16
f 17/17/17 18/18/18 19/19/19
f 17/17/17 19/19/19 20/20/20
f 21/21/21 22/22/22 23/23/23
f 21/21/21 23/23/23 24/24/24
