# Exported using automatic converter by Erwin Coumans
mtllib model6.mtl
#object group989105887_1

v 2.868238 -0.544511 -3.115148
v 2.868238 -0.544511 -3.155148
v 2.868238 -0.634511 -3.155148
v 2.868238 -0.634511 -3.115148
v 2.968238 -0.634511 -3.155148
v 2.968238 -0.544511 -3.155148
v 2.968238 -0.544511 -3.115148
v 2.968238 -0.634511 -3.115148
v 2.868238 -0.634511 -3.155148
v 2.968238 -0.634511 -3.155148
v 2.968238 -0.634511 -3.115148
v 2.868238 -0.634511 -3.115148
v 2.968238 -0.544511 -3.115148
v 2.968238 -0.544511 -3.155148
v 2.868238 -0.544511 -3.155148
v 2.868238 -0.544511 -3.115148
v 2.968238 -0.634511 -3.115148
v 2.968238 -0.544511 -3.115148
v 2.868238 -0.544511 -3.115148
v 2.868238 -0.634511 -3.115148
v 2.868238 -0.544511 -3.155148
v 2.968238 -0.544511 -3.155148
v 2.968238 -0.634511 -3.155148
v 2.868238 -0.634511 -3.155148
usemtl mat18

vn -1.000000 -0.000000 -0.000000
vn -1.000000 -0.000000 -0.000000
vn -1.000000 -0.000000 -0.000000
vn -1.000000 -0.000000 -0.000000
vn 1.000000 0.000000 0.000000
vn 1.000000 0.000000 0.000000
vn 1.000000 0.000000 0.000000
vn 1.000000 0.000000 0.000000
vn 0.000000 -1.000000 0.000000
vn 0.000000 -1.000000 0.000000
vn 0.000000 -1.000000 0.000000
vn 0.000000 -1.000000 0.000000
vn -0.000000 1.000000 -0.000000
vn -0.000000 1.000000 -0.000000
vn -0.000000 1.000000 -0.000000
vn -0.000000 1.000000 -0.000000
vn -0.000000 0.000000 1.000000
vn -0.000000 0.000000 1.000000
vn -0.000000 0.000000 1.000000
vn -0.000000 0.000000 1.000000
vn 0.000000 -0.000000 -1.000000
vn 0.000000 -0.000000 -1.000000
vn 0.000000 -0.000000 -1.000000
vn 0.000000 -0.000000 -1.000000

vt 0.184543 0.124443
vt 0.187798 0.126768
vt 0.193029 0.119444
vt 0.189774 0.117120
vt -0.193029 0.119444
vt -0.187798 0.126768
vt -0.184543 0.124443
vt -0.189774 0.117120
vt -0.127202 0.317266
vt -0.123839 0.326684
vt -0.120072 0.325338
vt -0.123435 0.315921
vt 0.120072 0.325338
vt 0.123839 0.326684
vt 0.127202 0.317266
vt 0.123435 0.315921
vt -0.132375 0.231209
vt -0.124325 0.235234
vt -0.119853 0.226290
vt -0.127903 0.222265
vt 0.119853 0.226290
vt 0.124325 0.235234
vt 0.132375 0.231209
vt 0.127903 0.222265
s off
f 1/1/1 2/2/2 3/3/3
f 1/1/1 3/3/3 4/4/4
f 5/5/5 6/6/6 7/7/7
f 5/5/5 7/7/7 8/8/8
f 9/9/9 10/10/10 11/11/11
f 9/9/9 11/11/11 12/12/12
f 13/13/13 14/14/14 15/15/15
f 13/13/13 15/15/15 16/16/16
f 17/17/17 18/18/18 19/19/19
f 17/17/17 19/19/19 20/20/20
f 21/21/21 22/22/22 23/23/23
f 21/21/21 23/23/23 24/24/24
