# Exported using automatic converter by Erwin Coumans
mtllib model6.mtl
#object group1314334321_2

v -2.475035 0.082478 1.309976
v -2.469824 0.128295 1.310597
v -2.483030 0.130281 1.274826
v -2.488241 0.084464 1.274206
v -2.505850 0.087112 1.226513
v -2.500639 0.132929 1.227133
v -2.474649 0.170275 1.219611
v -2.434843 0.189141 1.205962
v -2.391887 0.184474 1.189843
v -2.357293 0.157523 1.175574
v -2.340328 0.115511 1.166977
v -2.345539 0.069693 1.166357
v -2.371529 0.032348 1.173880
v -2.411335 0.013482 1.187529
v -2.454290 0.018149 1.203648
v -2.488885 0.045100 1.217917
v -2.469824 0.128295 1.310597
v -2.443834 0.165641 1.303074
v -2.457040 0.167627 1.267304
v -2.483030 0.130281 1.274826
v -2.404028 0.184507 1.289425
v -2.361072 0.179840 1.273306
v -2.374279 0.181826 1.237536
v -2.417234 0.186493 1.253655
v -2.361072 0.179840 1.273306
v -2.326477 0.152890 1.259037
v -2.339684 0.154875 1.223267
v -2.374279 0.181826 1.237536
v -2.326477 0.152890 1.259037
v -2.309512 0.110877 1.250441
v -2.322719 0.112863 1.214671
v -2.339684 0.154875 1.223267
v -2.309512 0.110877 1.250441
v -2.314723 0.065059 1.249821
v -2.327930 0.067045 1.214051
v -2.322719 0.112863 1.214671
v -2.314723 0.065059 1.249821
v -2.340714 0.027714 1.257343
v -2.353920 0.029700 1.221573
v -2.327930 0.067045 1.214051
v -2.340714 0.027714 1.257343
v -2.380519 0.008848 1.270992
v -2.393726 0.010834 1.235222
v -2.353920 0.029700 1.221573
v -2.380519 0.008848 1.270992
v -2.423475 0.013515 1.287111
v -2.436682 0.015501 1.251341
v -2.393726 0.010834 1.235222
v -2.423475 0.013515 1.287111
v -2.458070 0.040465 1.301380
v -2.471277 0.042451 1.265610
v -2.436682 0.015501 1.251341
v -2.458070 0.040465 1.301380
v -2.475035 0.082478 1.309976
v -2.488241 0.084464 1.274206
v -2.471277 0.042451 1.265610
v -2.409002 0.072549 1.488827
v -2.403790 0.118366 1.489447
v -2.412595 0.119690 1.465600
v -2.417806 0.073873 1.464980
v -2.403790 0.118366 1.489447
v -2.377800 0.155711 1.481924
v -2.386605 0.157035 1.458078
v -2.412595 0.119690 1.465600
v -2.337995 0.174578 1.468275
v -2.295039 0.169911 1.452156
v -2.303843 0.171235 1.428310
v -2.346799 0.175902 1.444428
v -2.295039 0.169911 1.452156
v -2.260444 0.142960 1.437887
v -2.269248 0.144284 1.414040
v -2.303843 0.171235 1.428310
v -2.260444 0.142960 1.437887
v -2.243479 0.100947 1.429291
v -2.252283 0.102271 1.405444
v -2.269248 0.144284 1.414040
v -2.243479 0.100947 1.429291
v -2.248690 0.055130 1.428671
v -2.257495 0.056454 1.404824
v -2.252283 0.102271 1.405444
v -2.248690 0.055130 1.428671
v -2.274681 0.017785 1.436193
v -2.283485 0.019109 1.412346
v -2.257495 0.056454 1.404824
v -2.274681 0.017785 1.436193
v -2.314487 -0.001081 1.449842
v -2.323291 0.000242 1.425995
v -2.283485 0.019109 1.412346
v -2.314487 -0.001081 1.449842
v -2.357442 0.003585 1.465961
v -2.366246 0.004909 1.442114
v -2.323291 0.000242 1.425995
v -2.357442 0.003585 1.465961
v -2.392037 0.030536 1.480230
v -2.400841 0.031860 1.456384
v -2.366246 0.004909 1.442114
v -2.392037 0.030536 1.480230
v -2.409002 0.072549 1.488827
v -2.417806 0.073873 1.464980
v -2.400841 0.031860 1.456384
v -2.392037 0.030536 1.480230
v -2.357442 0.003585 1.465961
v -2.314487 -0.001081 1.449842
v -2.274681 0.017785 1.436193
v -2.248690 0.055130 1.428671
v -2.243479 0.100947 1.429291
v -2.260444 0.142960 1.437887
v -2.295039 0.169911 1.452156
v -2.337995 0.174578 1.468275
v -2.377800 0.155711 1.481924
v -2.403790 0.118366 1.489447
v -2.409002 0.072549 1.488827
usemtl mat23

vn -0.931449 0.101208 0.349513
vn -0.931449 0.101208 0.349513
vn -0.931449 0.101208 0.349513
vn -0.931449 0.101208 0.349513
vn -0.345888 0.052017 -0.936833
vn -0.345888 0.052017 -0.936833
vn -0.345888 0.052017 -0.936833
vn -0.345888 0.052017 -0.936833
vn -0.345888 0.052017 -0.936833
vn -0.345888 0.052017 -0.936833
vn -0.345888 0.052017 -0.936833
vn -0.345888 0.052017 -0.936833
vn -0.345888 0.052017 -0.936833
vn -0.345888 0.052017 -0.936833
vn -0.345888 0.052017 -0.936833
vn -0.345888 0.052017 -0.936833
vn -0.750166 0.584397 0.309405
vn -0.750166 0.584397 0.309405
vn -0.750166 0.584397 0.309405
vn -0.750166 0.584397 0.309405
vn 0.112992 0.993505 0.013440
vn 0.112992 0.993505 0.013440
vn 0.112992 0.993505 0.013440
vn 0.112992 0.993505 0.013440
vn 0.563573 0.809802 -0.163116
vn 0.563573 0.809802 -0.163116
vn 0.563573 0.809802 -0.163116
vn 0.563573 0.809802 -0.163116
vn 0.863156 0.409101 -0.295969
vn 0.863156 0.409101 -0.295969
vn 0.863156 0.409101 -0.295969
vn 0.863156 0.409101 -0.295969
vn 0.931448 -0.101210 -0.349515
vn 0.931448 -0.101210 -0.349515
vn 0.931448 -0.101210 -0.349515
vn 0.931448 -0.101210 -0.349515
vn 0.750165 -0.584397 -0.309408
vn 0.750165 -0.584397 -0.309408
vn 0.750165 -0.584397 -0.309408
vn 0.750165 -0.584397 -0.309408
vn 0.367867 -0.911005 -0.186395
vn 0.367867 -0.911005 -0.186395
vn 0.367867 -0.911005 -0.186395
vn 0.367867 -0.911005 -0.186395
vn -0.112990 -0.993505 -0.013440
vn -0.112990 -0.993505 -0.013440
vn -0.112990 -0.993505 -0.013440
vn -0.112990 -0.993505 -0.013440
vn -0.563574 -0.809801 0.163116
vn -0.563574 -0.809801 0.163116
vn -0.563574 -0.809801 0.163116
vn -0.563574 -0.809801 0.163116
vn -0.863157 -0.409100 0.295969
vn -0.863157 -0.409100 0.295969
vn -0.863157 -0.409100 0.295969
vn -0.863157 -0.409100 0.295969
vn -0.931450 0.101212 0.349510
vn -0.931450 0.101212 0.349510
vn -0.931450 0.101212 0.349510
vn -0.931450 0.101212 0.349510
vn -0.750166 0.584397 0.309405
vn -0.750166 0.584397 0.309405
vn -0.750166 0.584397 0.309405
vn -0.750166 0.584397 0.309405
vn 0.112987 0.993506 0.013439
vn 0.112987 0.993506 0.013439
vn 0.112987 0.993506 0.013439
vn 0.112987 0.993506 0.013439
vn 0.563574 0.809800 -0.163117
vn 0.563574 0.809800 -0.163117
vn 0.563574 0.809800 -0.163117
vn 0.563574 0.809800 -0.163117
vn 0.863156 0.409101 -0.295968
vn 0.863156 0.409101 -0.295968
vn 0.863156 0.409101 -0.295968
vn 0.863156 0.409101 -0.295968
vn 0.931449 -0.101218 -0.349512
vn 0.931449 -0.101218 -0.349512
vn 0.931449 -0.101218 -0.349512
vn 0.931449 -0.101218 -0.349512
vn 0.750166 -0.584397 -0.309405
vn 0.750166 -0.584397 -0.309405
vn 0.750166 -0.584397 -0.309405
vn 0.750166 -0.584397 -0.309405
vn 0.367869 -0.911005 -0.186392
vn 0.367869 -0.911005 -0.186392
vn 0.367869 -0.911005 -0.186392
vn 0.367869 -0.911005 -0.186392
vn -0.112982 -0.993506 -0.013440
vn -0.112982 -0.993506 -0.013440
vn -0.112982 -0.993506 -0.013440
vn -0.112982 -0.993506 -0.013440
vn -0.563575 -0.809800 0.163118
vn -0.563575 -0.809800 0.163118
vn -0.563575 -0.809800 0.163118
vn -0.563575 -0.809800 0.163118
vn -0.863158 -0.409099 0.295968
vn -0.863158 -0.409099 0.295968
vn -0.863158 -0.409099 0.295968
vn -0.863158 -0.409099 0.295968
vn 0.345888 -0.052017 0.936833
vn 0.345888 -0.052017 0.936833
vn 0.345888 -0.052017 0.936833
vn 0.345888 -0.052017 0.936833
vn 0.345888 -0.052017 0.936833
vn 0.345888 -0.052017 0.936833
vn 0.345888 -0.052017 0.936833
vn 0.345888 -0.052017 0.936833
vn 0.345888 -0.052017 0.936833
vn 0.345888 -0.052017 0.936833
vn 0.345888 -0.052017 0.936833
vn 0.345888 -0.052017 0.936833

vt -0.107543 0.025232
vt -0.107655 0.029842
vt -0.103838 0.029935
vt -0.103726 0.025325
vt -0.200084 -0.278615
vt -0.204036 -0.276238
vt -0.206269 -0.272203
vt -0.206187 -0.267592
vt -0.203809 -0.263640
vt -0.199775 -0.261407
vt -0.195164 -0.261489
vt -0.191212 -0.263866
vt -0.188978 -0.267901
vt -0.189061 -0.272512
vt -0.191438 -0.276464
vt -0.195473 -0.278697
vt -0.104842 -0.144354
vt -0.104908 -0.139743
vt -0.101090 -0.139688
vt -0.101024 -0.144299
vt -0.101980 -0.337111
vt -0.102047 -0.332500
vt -0.098229 -0.332444
vt -0.098162 -0.337055
vt -0.098949 -0.308668
vt -0.099068 -0.304058
vt -0.095251 -0.303959
vt -0.095132 -0.308569
vt 0.199296 0.098754
vt 0.196657 0.094973
vt 0.193526 0.097158
vt 0.196165 0.100940
vt 0.107654 0.029842
vt 0.107542 0.025232
vt 0.103725 0.025325
vt 0.103837 0.029935
vt 0.104907 -0.139743
vt 0.104841 -0.144354
vt 0.101023 -0.144299
vt 0.101089 -0.139688
vt 0.103490 -0.272568
vt 0.103432 -0.277179
vt 0.099614 -0.277131
vt 0.099672 -0.272520
vt 0.102047 -0.332500
vt 0.101980 -0.337111
vt 0.098162 -0.337055
vt 0.098229 -0.332444
vt 0.099068 -0.304058
vt 0.098949 -0.308668
vt 0.095132 -0.308569
vt 0.095251 -0.303959
vt -0.196654 0.094977
vt -0.199294 0.098758
vt -0.196163 0.100944
vt -0.193523 0.097162
vt -0.126630 0.024766
vt -0.126742 0.029376
vt -0.124197 0.029438
vt -0.124085 0.024828
vt -0.123931 -0.144628
vt -0.123997 -0.140016
vt -0.121452 -0.139980
vt -0.121386 -0.144591
vt -0.121069 -0.337389
vt -0.121137 -0.332778
vt -0.118591 -0.332741
vt -0.118524 -0.337352
vt -0.118033 -0.309161
vt -0.118153 -0.304551
vt -0.115608 -0.304485
vt -0.115489 -0.309096
vt 0.214956 0.087814
vt 0.212316 0.084033
vt 0.210229 0.085490
vt 0.212869 0.089271
vt 0.126741 0.029375
vt 0.126629 0.024765
vt 0.124084 0.024826
vt 0.124196 0.029437
vt 0.123997 -0.140016
vt 0.123931 -0.144628
vt 0.121385 -0.144591
vt 0.121451 -0.139980
vt 0.122580 -0.272807
vt 0.122522 -0.277418
vt 0.119977 -0.277386
vt 0.120035 -0.272775
vt 0.121136 -0.332778
vt 0.121069 -0.337389
vt 0.118524 -0.337352
vt 0.118591 -0.332741
vt 0.118153 -0.304551
vt 0.118033 -0.309161
vt 0.115489 -0.309095
vt 0.115608 -0.304485
vt -0.212314 0.084039
vt -0.214953 0.087820
vt -0.212866 0.089277
vt -0.210226 0.085496
vt 0.195473 -0.278697
vt 0.191438 -0.276464
vt 0.189061 -0.272512
vt 0.188978 -0.267901
vt 0.191212 -0.263866
vt 0.195164 -0.261489
vt 0.199775 -0.261407
vt 0.203810 -0.263640
vt 0.206187 -0.267592
vt 0.206270 -0.272203
vt 0.204036 -0.276237
vt 0.200084 -0.278615
s off
f 1/1/1 2/2/2 3/3/3
f 1/1/1 3/3/3 4/4/4
f 5/5/5 6/6/6 7/7/7
f 5/5/5 7/7/7 8/8/8
f 5/5/5 8/8/8 9/9/9
f 5/5/5 9/9/9 10/10/10
f 5/5/5 10/10/10 11/11/11
f 5/5/5 11/11/11 12/12/12
f 5/5/5 12/12/12 13/13/13
f 5/5/5 13/13/13 14/14/14
f 5/5/5 14/14/14 15/15/15
f 5/5/5 15/15/15 16/16/16
f 17/17/17 18/18/18 19/19/19
f 17/17/17 19/19/19 20/20/20
f 21/21/21 22/22/22 23/23/23
f 21/21/21 23/23/23 24/24/24
f 25/25/25 26/26/26 27/27/27
f 25/25/25 27/27/27 28/28/28
f 29/29/29 30/30/30 31/31/31
f 29/29/29 31/31/31 32/32/32
f 33/33/33 34/34/34 35/35/35
f 33/33/33 35/35/35 36/36/36
f 37/37/37 38/38/38 39/39/39
f 37/37/37 39/39/39 40/40/40
f 41/41/41 42/42/42 43/43/43
f 41/41/41 43/43/43 44/44/44
f 45/45/45 46/46/46 47/47/47
f 45/45/45 47/47/47 48/48/48
f 49/49/49 50/50/50 51/51/51
f 49/49/49 51/51/51 52/52/52
f 53/53/53 54/54/54 55/55/55
f 53/53/53 55/55/55 56/56/56
f 57/57/57 58/58/58 59/59/59
f 57/57/57 59/59/59 60/60/60
f 61/61/61 62/62/62 63/63/63
f 61/61/61 63/63/63 64/64/64
f 65/65/65 66/66/66 67/67/67
f 65/65/65 67/67/67 68/68/68
f 69/69/69 70/70/70 71/71/71
f 69/69/69 71/71/71 72/72/72
f 73/73/73 74/74/74 75/75/75
f 73/73/73 75/75/75 76/76/76
f 77/77/77 78/78/78 79/79/79
f 77/77/77 79/79/79 80/80/80
f 81/81/81 82/82/82 83/83/83
f 81/81/81 83/83/83 84/84/84
f 85/85/85 86/86/86 87/87/87
f 85/85/85 87/87/87 88/88/88
f 89/89/89 90/90/90 91/91/91
f 89/89/89 91/91/91 92/92/92
f 93/93/93 94/94/94 95/95/95
f 93/93/93 95/95/95 96/96/96
f 97/97/97 98/98/98 99/99/99
f 97/97/97 99/99/99 100/100/100
f 101/101/101 102/102/102 103/103/103
f 101/101/101 103/103/103 104/104/104
f 101/101/101 104/104/104 105/105/105
f 101/101/101 105/105/105 106/106/106
f 101/101/101 106/106/106 107/107/107
f 101/101/101 107/107/107 108/108/108
f 101/101/101 108/108/108 109/109/109
f 101/101/101 109/109/109 110/110/110
f 101/101/101 110/110/110 111/111/111
f 101/101/101 111/111/111 112/112/112
