# Exported using automatic converter by Erwin Coumans
mtllib model6.mtl
#object mesh574804455

v -0.481762 0.175489 -2.750148
v -0.481762 0.285489 -2.750148
v -0.981762 0.285489 -2.750148
v -0.981762 0.175489 -2.750148
v -0.981762 0.285489 -3.020148
v -0.481762 0.285489 -3.020148
v -0.481762 0.175489 -3.020148
v -0.981762 0.175489 -3.020148
v -0.981762 0.285489 -2.750148
v -0.981762 0.285489 -3.020148
v -0.981762 0.175489 -3.020148
v -0.981762 0.175489 -2.750148
v -0.481762 0.175489 -3.020148
v -0.481762 0.285489 -3.020148
v -0.481762 0.285489 -2.750148
v -0.481762 0.175489 -2.750148
v -0.981762 0.175489 -3.020148
v -0.481762 0.175489 -3.020148
v -0.481762 0.175489 -2.750148
v -0.981762 0.175489 -2.750148
v -0.481762 0.285489 -2.750148
v -0.481762 0.285489 -3.020148
v -0.981762 0.285489 -3.020148
v -0.981762 0.285489 -2.750148
usemtl mat22

vn 0.000000 0.000000 1.000000
vn 0.000000 0.000000 1.000000
vn 0.000000 0.000000 1.000000
vn 0.000000 0.000000 1.000000
vn 0.000000 0.000000 -1.000000
vn 0.000000 0.000000 -1.000000
vn 0.000000 0.000000 -1.000000
vn 0.000000 0.000000 -1.000000
vn -1.000000 0.000000 0.000000
vn -1.000000 0.000000 0.000000
vn -1.000000 0.000000 0.000000
vn -1.000000 0.000000 0.000000
vn 1.000000 0.000000 0.000000
vn 1.000000 0.000000 0.000000
vn 1.000000 0.000000 0.000000
vn 1.000000 0.000000 0.000000
vn 0.000000 -1.000000 0.000000
vn 0.000000 -1.000000 0.000000
vn 0.000000 -1.000000 0.000000
vn 0.000000 -1.000000 0.000000
vn 0.000000 1.000000 0.000000
vn 0.000000 1.000000 0.000000
vn 0.000000 1.000000 0.000000
vn 0.000000 1.000000 0.000000

vt 0.094362 -0.041144
vt 0.104201 -0.036224
vt 0.126561 -0.080946
vt 0.116723 -0.085865
vt -0.126561 -0.080946
vt -0.104201 -0.036224
vt -0.094362 -0.041144
vt -0.116723 -0.085865
vt 0.106599 0.170768
vt 0.128570 0.186461
vt 0.134963 0.177510
vt 0.112993 0.161817
vt -0.134963 0.177510
vt -0.128570 0.186461
vt -0.106599 0.170768
vt -0.112993 0.161817
vt -0.243978 -0.049845
vt -0.227162 -0.002758
vt -0.201735 -0.011839
vt -0.218551 -0.058926
vt 0.201735 -0.011839
vt 0.227162 -0.002758
vt 0.243978 -0.049845
vt 0.218551 -0.058926
s off
f 1/1/1 2/2/2 3/3/3
f 1/1/1 3/3/3 4/4/4
f 5/5/5 6/6/6 7/7/7
f 5/5/5 7/7/7 8/8/8
f 9/9/9 10/10/10 11/11/11
f 9/9/9 11/11/11 12/12/12
f 13/13/13 14/14/14 15/15/15
f 13/13/13 15/15/15 16/16/16
f 17/17/17 18/18/18 19/19/19
f 17/17/17 19/19/19 20/20/20
f 21/21/21 22/22/22 23/23/23
f 21/21/21 23/23/23 24/24/24
