# Exported using automatic converter by Erwin Coumans
mtllib model6.mtl
#object mesh1435643625

v 1.906663 2.249600 -0.367961
v 1.899098 2.248751 -0.359003
v 1.906647 2.261972 -0.361480
v 1.914199 2.262886 -0.370443
v 1.899098 2.248751 -0.359003
v 1.905007 2.250807 -0.349051
v 1.912578 2.263922 -0.351519
v 1.906647 2.261972 -0.361480
v 1.905007 2.250807 -0.349051
v 1.916224 2.252927 -0.351858
v 1.923795 2.266041 -0.354326
v 1.912578 2.263922 -0.351519
v 1.916224 2.252927 -0.351858
v 1.917248 2.252181 -0.363545
v 1.924797 2.265401 -0.366022
v 1.923795 2.266041 -0.354326
v 1.917248 2.252181 -0.363545
v 1.906663 2.249600 -0.367961
v 1.914199 2.262886 -0.370443
v 1.924797 2.265401 -0.366022
v 1.917248 2.252181 -0.363545
v 1.916224 2.252927 -0.351858
v 1.905007 2.250807 -0.349051
v 1.899098 2.248751 -0.359003
v 1.906663 2.249600 -0.367961
v 1.914199 2.262886 -0.370443
v 1.906647 2.261972 -0.361480
v 1.912578 2.263922 -0.351519
v 1.923795 2.266041 -0.354326
v 1.924797 2.265401 -0.366022
usemtl mat23

vn -0.741411 0.310629 -0.594827
vn -0.741411 0.310629 -0.594827
vn -0.741411 0.310629 -0.594827
vn -0.741411 0.310629 -0.594827
vn -0.778549 0.514467 0.359422
vn -0.778549 0.514467 0.359422
vn -0.778549 0.514467 0.359422
vn -0.778549 0.514467 0.359422
vn 0.233978 0.047725 0.971070
vn 0.233978 0.047725 0.971070
vn 0.233978 0.047725 0.971070
vn 0.233978 0.047725 0.971070
vn 0.870834 -0.480474 0.103886
vn 0.870834 -0.480474 0.103886
vn 0.870834 -0.480474 0.103886
vn 0.870834 -0.480474 0.103886
vn 0.433133 -0.397806 -0.808793
vn 0.433133 -0.397806 -0.808793
vn 0.433133 -0.397806 -0.808793
vn 0.433133 -0.397806 -0.808793
vn 0.204442 -0.975592 0.080152
vn 0.204442 -0.975592 0.080152
vn 0.204442 -0.975592 0.080152
vn 0.204442 -0.975592 0.080152
vn 0.204442 -0.975592 0.080152
vn -0.202274 0.976768 -0.070781
vn -0.202274 0.976768 -0.070781
vn -0.202274 0.976768 -0.070781
vn -0.202274 0.976768 -0.070781
vn -0.202274 0.976768 -0.070781

vt -0.216426 0.228060
vt -0.217036 0.227055
vt -0.217779 0.228407
vt -0.217174 0.229415
vt -0.085507 0.306985
vt -0.086630 0.307334
vt -0.086574 0.308867
vt -0.085449 0.308527
vt 0.181125 0.244617
vt 0.180818 0.245751
vt 0.181660 0.247034
vt 0.181967 0.245899
vt 0.179855 0.266726
vt 0.178780 0.267200
vt 0.179187 0.268688
vt 0.180259 0.268206
vt -0.055894 0.306181
vt -0.056542 0.305201
vt -0.057123 0.306635
vt -0.056469 0.307613
vt 0.131059 0.183136
vt 0.132154 0.182710
vt 0.132087 0.181536
vt 0.130950 0.181237
vt 0.130315 0.182226
vt -0.128710 0.183012
vt -0.129343 0.182022
vt -0.130481 0.182318
vt -0.130551 0.183491
vt -0.129457 0.183921
s off
f 1/1/1 2/2/2 3/3/3
f 1/1/1 3/3/3 4/4/4
f 5/5/5 6/6/6 7/7/7
f 5/5/5 7/7/7 8/8/8
f 9/9/9 10/10/10 11/11/11
f 9/9/9 11/11/11 12/12/12
f 13/13/13 14/14/14 15/15/15
f 13/13/13 15/15/15 16/16/16
f 17/17/17 18/18/18 19/19/19
f 17/17/17 19/19/19 20/20/20
f 21/21/21 22/22/22 23/23/23
f 21/21/21 23/23/23 24/24/24
f 21/21/21 24/24/24 25/25/25
f 26/26/26 27/27/27 28/28/28
f 26/26/26 28/28/28 29/29/29
f 26/26/26 29/29/29 30/30/30
