# Exported using automatic converter by Erwin Coumans
mtllib model6.mtl
#object mesh1709994665

v -1.925615 1.355692 1.859828
v -1.927434 1.334959 1.580543
v -1.925506 1.122387 1.596311
v -1.923687 1.143120 1.875596
v -1.518543 1.125863 1.593402
v -1.520472 1.338436 1.577634
v -1.518653 1.359169 1.856919
v -1.516724 1.146596 1.872687
v -1.925506 1.122387 1.596311
v -1.518543 1.125863 1.593402
v -1.516724 1.146596 1.872687
v -1.923687 1.143120 1.875596
v -1.518653 1.359169 1.856919
v -1.520472 1.338436 1.577634
v -1.927434 1.334959 1.580543
v -1.925615 1.355692 1.859828
v -1.516724 1.146596 1.872687
v -1.518653 1.359169 1.856919
v -1.925615 1.355692 1.859828
v -1.923687 1.143120 1.875596
v -1.927434 1.334959 1.580543
v -1.520472 1.338436 1.577634
v -1.518543 1.125863 1.593402
v -1.925506 1.122387 1.596311
usemtl mat22

vn -0.999938 -0.008543 0.007147
vn -0.999938 -0.008543 0.007147
vn -0.999938 -0.008543 0.007147
vn -0.999938 -0.008543 0.007147
vn 0.999938 0.008543 -0.007147
vn 0.999938 0.008543 -0.007147
vn 0.999938 0.008543 -0.007147
vn 0.999938 0.008543 -0.007147
vn 0.009048 -0.997219 0.073970
vn 0.009048 -0.997219 0.073970
vn 0.009048 -0.997219 0.073970
vn 0.009048 -0.997219 0.073970
vn -0.009048 0.997219 -0.073970
vn -0.009048 0.997219 -0.073970
vn -0.009048 0.997219 -0.073970
vn -0.009048 0.997219 -0.073970
vn 0.006496 0.074031 0.997235
vn 0.006496 0.074031 0.997235
vn 0.006496 0.074031 0.997235
vn 0.006496 0.074031 0.997235
vn -0.006496 -0.074031 -0.997235
vn -0.006496 -0.074031 -0.997235
vn -0.006496 -0.074031 -0.997235
vn -0.006496 -0.074031 -0.997235

vt -0.330555 -0.007145
vt -0.306603 0.007368
vt -0.295556 -0.010863
vt -0.319508 -0.025376
vt 0.295556 -0.010863
vt 0.306603 0.007368
vt 0.330555 -0.007145
vt 0.319508 -0.025376
vt 0.180415 -0.290333
vt 0.192485 -0.251466
vt 0.219231 -0.259771
vt 0.207161 -0.298639
vt -0.219231 -0.259771
vt -0.192485 -0.251466
vt -0.180415 -0.290333
vt -0.207161 -0.298639
vt 0.211532 -0.097296
vt 0.230502 -0.087573
vt 0.249065 -0.123792
vt 0.230095 -0.133515
vt -0.249065 -0.123792
vt -0.230502 -0.087573
vt -0.211532 -0.097296
vt -0.230095 -0.133515
s off
f 1/1/1 2/2/2 3/3/3
f 1/1/1 3/3/3 4/4/4
f 5/5/5 6/6/6 7/7/7
f 5/5/5 7/7/7 8/8/8
f 9/9/9 10/10/10 11/11/11
f 9/9/9 11/11/11 12/12/12
f 13/13/13 14/14/14 15/15/15
f 13/13/13 15/15/15 16/16/16
f 17/17/17 18/18/18 19/19/19
f 17/17/17 19/19/19 20/20/20
f 21/21/21 22/22/22 23/23/23
f 21/21/21 23/23/23 24/24/24
