# Exported using automatic converter by Erwin Coumans
mtllib model6.mtl
#object group958256502_1

v -2.246908 0.189822 0.724017
v -2.447270 0.197150 0.730875
v -2.454242 0.037344 0.734561
v -2.253880 0.030017 0.727703
v -2.469532 0.031565 0.455038
v -2.462560 0.191370 0.451353
v -2.262197 0.184043 0.444495
v -2.269169 0.024237 0.448180
v -2.454242 0.037344 0.734561
v -2.469532 0.031565 0.455038
v -2.269169 0.024237 0.448180
v -2.253880 0.030017 0.727703
v -2.256650 0.189936 0.710524
v -2.418255 0.197187 0.719213
v -2.246908 0.189822 0.724017
v -2.269169 0.024237 0.448180
v -2.262197 0.184043 0.444495
v -2.246908 0.189822 0.724017
v -2.253880 0.030017 0.727703
v -2.447270 0.197150 0.730875
v -2.462560 0.191370 0.451353
v -2.469532 0.031565 0.455038
v -2.454242 0.037344 0.734561
v -2.418255 0.197187 0.719213
v -2.432016 0.191985 0.467643
v -2.462560 0.191370 0.451353
v -2.447270 0.197150 0.730875
v -2.432016 0.191985 0.467643
v -2.270411 0.184735 0.458954
v -2.262197 0.184043 0.444495
v -2.270411 0.184735 0.458954
v -2.256650 0.189936 0.710524
v -2.246908 0.189822 0.724017
v -2.262197 0.184043 0.444495
v -2.261443 0.080070 0.713058
v -2.423048 0.087321 0.721747
v -2.418255 0.197187 0.719213
v -2.256650 0.189936 0.710524
v -2.423048 0.087321 0.721747
v -2.436809 0.082119 0.470177
v -2.432016 0.191985 0.467643
v -2.418255 0.197187 0.719213
v -2.436809 0.082119 0.470177
v -2.275204 0.074868 0.461488
v -2.270411 0.184735 0.458954
v -2.432016 0.191985 0.467643
v -2.275204 0.074868 0.461488
v -2.261443 0.080070 0.713058
v -2.256650 0.189936 0.710524
v -2.270411 0.184735 0.458954
v -2.275204 0.074868 0.461488
v -2.436809 0.082119 0.470177
v -2.423048 0.087321 0.721747
v -2.261443 0.080070 0.713058
v -2.262197 0.184043 0.444495
v -2.462560 0.191370 0.451353
v -2.432016 0.191985 0.467643
v -2.418255 0.197187 0.719213
v -2.447270 0.197150 0.730875
v -2.246908 0.189822 0.724017
usemtl mat13

vn 0.034985 0.021517 0.999156
vn 0.034985 0.021517 0.999156
vn 0.034985 0.021517 0.999156
vn 0.034985 0.021517 0.999156
vn -0.034986 -0.021517 -0.999156
vn -0.034986 -0.021517 -0.999156
vn -0.034986 -0.021517 -0.999156
vn -0.034986 -0.021517 -0.999156
vn -0.035765 -0.999104 0.022614
vn -0.035765 -0.999104 0.022614
vn -0.035765 -0.999104 0.022614
vn -0.035765 -0.999104 0.022614
vn 0.043573 0.998785 -0.023027
vn 0.043573 0.998785 -0.023027
vn 0.043573 0.998785 -0.023027
vn 0.997557 -0.044756 -0.053639
vn 0.997557 -0.044756 -0.053639
vn 0.997557 -0.044756 -0.053639
vn 0.997557 -0.044756 -0.053639
vn -0.997557 0.044756 0.053639
vn -0.997557 0.044756 0.053639
vn -0.997557 0.044756 0.053639
vn -0.997557 0.044756 0.053639
vn -0.009377 0.999753 -0.020159
vn -0.009377 0.999753 -0.020159
vn -0.009377 0.999753 -0.020159
vn -0.009377 0.999753 -0.020159
vn 0.043573 0.998784 -0.023042
vn 0.043573 0.998784 -0.023042
vn 0.043573 0.998784 -0.023042
vn 0.043585 0.998784 -0.023035
vn 0.043585 0.998784 -0.023035
vn 0.043585 0.998784 -0.023035
vn 0.043585 0.998784 -0.023035
vn -0.054604 -0.020641 -0.998295
vn -0.054604 -0.020641 -0.998295
vn -0.054604 -0.020641 -0.998295
vn -0.054604 -0.020641 -0.998295
vn 0.997557 -0.044756 -0.053639
vn 0.997557 -0.044756 -0.053639
vn 0.997557 -0.044756 -0.053639
vn 0.997557 -0.044756 -0.053639
vn 0.054606 0.020641 0.998295
vn 0.054606 0.020641 0.998295
vn 0.054606 0.020641 0.998295
vn 0.054606 0.020641 0.998295
vn -0.997557 0.044756 0.053639
vn -0.997557 0.044756 0.053639
vn -0.997557 0.044756 0.053639
vn -0.997557 0.044756 0.053639
vn 0.043573 0.998785 -0.023035
vn 0.043573 0.998785 -0.023035
vn 0.043573 0.998785 -0.023035
vn 0.043573 0.998785 -0.023035
vn 0.032969 0.994505 -0.099359
vn 0.032969 0.994505 -0.099359
vn 0.032969 0.994505 -0.099359
vn 0.039852 0.993954 0.102308
vn 0.039852 0.993954 0.102308
vn 0.039852 0.993954 0.102308

vt 0.174234 -0.204648
vt 0.183867 -0.222245
vt 0.169893 -0.230038
vt 0.160260 -0.212441
vt -0.170161 -0.230519
vt -0.184135 -0.222726
vt -0.174502 -0.205129
vt -0.160528 -0.212922
vt 0.061986 -0.316389
vt 0.035108 -0.308540
vt 0.041109 -0.289398
vt 0.067987 -0.297246
vt -0.065961 -0.298077
vt -0.061402 -0.313622
vt -0.067558 -0.297607
vt 0.123653 -0.024125
vt 0.131135 -0.009983
vt 0.155884 -0.023077
vt 0.148402 -0.037219
vt -0.155463 -0.023031
vt -0.130713 -0.009937
vt -0.123231 -0.024080
vt -0.147980 -0.037174
vt -0.064586 -0.310101
vt -0.040353 -0.303187
vt -0.037815 -0.305542
vt -0.064740 -0.313224
vt -0.037224 -0.306530
vt -0.041783 -0.290985
vt -0.040693 -0.289727
vt -0.041781 -0.290985
vt -0.065962 -0.298077
vt -0.067559 -0.297608
vt -0.040691 -0.289728
vt -0.165971 -0.213809
vt -0.173825 -0.227978
vt -0.183445 -0.222645
vt -0.175591 -0.208476
vt 0.149503 -0.032145
vt 0.127228 -0.020361
vt 0.132372 -0.010637
vt 0.154647 -0.022422
vt 0.173825 -0.227978
vt 0.165971 -0.213809
vt 0.175591 -0.208476
vt 0.183445 -0.222645
vt -0.127228 -0.020361
vt -0.149503 -0.032145
vt -0.154647 -0.022422
vt -0.132372 -0.010637
vt -0.041781 -0.290985
vt -0.037222 -0.306530
vt -0.061404 -0.313622
vt -0.065963 -0.298076
vt -0.056264 -0.288419
vt -0.051026 -0.307784
vt -0.053488 -0.305350
vt -0.035865 -0.313397
vt -0.035825 -0.316524
vt -0.042941 -0.297767
s off
f 1/1/1 2/2/2 3/3/3
f 1/1/1 3/3/3 4/4/4
f 5/5/5 6/6/6 7/7/7
f 5/5/5 7/7/7 8/8/8
f 9/9/9 10/10/10 11/11/11
f 9/9/9 11/11/11 12/12/12
f 13/13/13 14/14/14 15/15/15
f 16/16/16 17/17/17 18/18/18
f 16/16/16 18/18/18 19/19/19
f 20/20/20 21/21/21 22/22/22
f 20/20/20 22/22/22 23/23/23
f 24/24/24 25/25/25 26/26/26
f 24/24/24 26/26/26 27/27/27
f 28/28/28 29/29/29 30/30/30
f 31/31/31 32/32/32 33/33/33
f 31/31/31 33/33/33 34/34/34
f 35/35/35 36/36/36 37/37/37
f 35/35/35 37/37/37 38/38/38
f 39/39/39 40/40/40 41/41/41
f 39/39/39 41/41/41 42/42/42
f 43/43/43 44/44/44 45/45/45
f 43/43/43 45/45/45 46/46/46
f 47/47/47 48/48/48 49/49/49
f 47/47/47 49/49/49 50/50/50
f 51/51/51 52/52/52 53/53/53
f 51/51/51 53/53/53 54/54/54
f 55/55/55 56/56/56 57/57/57
f 58/58/58 59/59/59 60/60/60
