# Exported using automatic converter by Erwin Coumans
mtllib model6.mtl
#object mat11

v -1.881762 -0.984511 2.329852
v -1.881762 -0.984511 2.299851
v -1.881762 -1.014511 2.299851
v -1.881762 -1.014511 2.329852
v -1.091762 -1.014511 2.299852
v -1.091762 -0.984511 2.299852
v -1.091762 -0.984511 2.329852
v -1.091762 -1.014511 2.329852
v -1.881762 -1.014511 2.299851
v -1.091762 -1.014511 2.299852
v -1.091762 -1.014511 2.329852
v -1.881762 -1.014511 2.329852
v -1.091762 -0.984511 2.329852
v -1.091762 -0.984511 2.299852
v -1.881762 -0.984511 2.299851
v -1.881762 -0.984511 2.329852
v -1.091762 -1.014511 2.329852
v -1.091762 -0.984511 2.329852
v -1.881762 -0.984511 2.329852
v -1.881762 -1.014511 2.329852
v -1.881762 -0.984511 2.299851
v -1.091762 -0.984511 2.299852
v -1.091762 -1.014511 2.299852
v -1.881762 -1.014511 2.299851
v -1.781762 -0.474511 -3.540148
v -1.781762 -0.474511 -3.510148
v -1.781762 -0.984511 -3.510148
v -1.781762 -0.984511 -3.540148
v -2.021762 -0.984511 -3.510148
v -2.021762 -0.474511 -3.510148
v -2.021762 -0.474511 -3.540148
v -2.021762 -0.984511 -3.540148
v -1.781762 -0.984511 -3.510148
v -2.021762 -0.984511 -3.510148
v -2.021762 -0.984511 -3.540148
v -1.781762 -0.984511 -3.540148
v -2.021762 -0.474511 -3.540148
v -2.021762 -0.474511 -3.510148
v -1.781762 -0.474511 -3.510148
v -1.781762 -0.474511 -3.540148
v -2.021762 -0.984511 -3.540148
v -2.021762 -0.474511 -3.540148
v -1.781762 -0.474511 -3.540148
v -1.781762 -0.984511 -3.540148
v -1.781762 -0.474511 -3.510148
v -2.021762 -0.474511 -3.510148
v -2.021762 -0.984511 -3.510148
v -1.781762 -0.984511 -3.510148
v -2.041762 -0.484511 -3.530148
v -2.041762 -0.484511 -3.500148
v -2.041762 -0.994511 -3.500148
v -2.041762 -0.994511 -3.530148
v -2.251762 -0.994511 -3.500148
v -2.251762 -0.484511 -3.500148
v -2.251762 -0.484511 -3.530148
v -2.251762 -0.994511 -3.530148
v -2.041762 -0.994511 -3.500148
v -2.251762 -0.994511 -3.500148
v -2.251762 -0.994511 -3.530148
v -2.041762 -0.994511 -3.530148
v -2.251762 -0.484511 -3.530148
v -2.251762 -0.484511 -3.500148
v -2.041762 -0.484511 -3.500148
v -2.041762 -0.484511 -3.530148
v -2.251762 -0.994511 -3.530148
v -2.251762 -0.484511 -3.530148
v -2.041762 -0.484511 -3.530148
v -2.041762 -0.994511 -3.530148
v -2.041762 -0.484511 -3.500148
v -2.251762 -0.484511 -3.500148
v -2.251762 -0.994511 -3.500148
v -2.041762 -0.994511 -3.500148
v -2.261762 -0.484511 -3.540148
v -2.261762 -0.484511 -3.520148
v -2.261762 -0.984511 -3.520148
v -2.261762 -0.984511 -3.540148
v -2.331762 -0.984511 -3.520148
v -2.331762 -0.484511 -3.520148
v -2.331762 -0.484511 -3.540148
v -2.331762 -0.984511 -3.540148
v -2.261762 -0.984511 -3.520148
v -2.331762 -0.984511 -3.520148
v -2.331762 -0.984511 -3.540148
v -2.261762 -0.984511 -3.540148
v -2.331762 -0.484511 -3.540148
v -2.331762 -0.484511 -3.520148
v -2.261762 -0.484511 -3.520148
v -2.261762 -0.484511 -3.540148
v -2.331762 -0.984511 -3.540148
v -2.331762 -0.484511 -3.540148
v -2.261762 -0.484511 -3.540148
v -2.261762 -0.984511 -3.540148
v -2.261762 -0.484511 -3.520148
v -2.331762 -0.484511 -3.520148
v -2.331762 -0.984511 -3.520148
v -2.261762 -0.984511 -3.520148
v -1.741762 -0.474511 -3.490148
v -1.741762 -0.474511 -3.290148
v -1.741762 -0.974511 -3.290148
v -1.741762 -0.974511 -3.490148
v -1.761762 -0.974511 -3.290148
v -1.761762 -0.474511 -3.290148
v -1.761762 -0.474511 -3.490148
v -1.761762 -0.974511 -3.490148
v -1.741762 -0.974511 -3.290148
v -1.761762 -0.974511 -3.290148
v -1.761762 -0.974511 -3.490148
v -1.741762 -0.974511 -3.490148
v -1.761762 -0.474511 -3.490148
v -1.761762 -0.474511 -3.290148
v -1.741762 -0.474511 -3.290148
v -1.741762 -0.474511 -3.490148
v -1.761762 -0.974511 -3.490148
v -1.761762 -0.474511 -3.490148
v -1.741762 -0.474511 -3.490148
v -1.741762 -0.974511 -3.490148
v -1.741762 -0.474511 -3.290148
v -1.761762 -0.474511 -3.290148
v -1.761762 -0.974511 -3.290148
v -1.741762 -0.974511 -3.290148
v -2.391762 -0.484511 -3.480148
v -2.371762 -0.484511 -3.480148
v -2.371762 -0.974511 -3.480148
v -2.391762 -0.974511 -3.480148
v -2.371762 -0.974511 -3.270148
v -2.371762 -0.484511 -3.270148
v -2.391762 -0.484511 -3.270148
v -2.391762 -0.974511 -3.270148
v -2.371762 -0.974511 -3.480148
v -2.371762 -0.974511 -3.270148
v -2.391762 -0.974511 -3.270148
v -2.391762 -0.974511 -3.480148
v -2.391762 -0.484511 -3.270148
v -2.371762 -0.484511 -3.270148
v -2.371762 -0.484511 -3.480148
v -2.391762 -0.484511 -3.480148
v -2.391762 -0.974511 -3.270148
v -2.391762 -0.484511 -3.270148
v -2.391762 -0.484511 -3.480148
v -2.391762 -0.974511 -3.480148
v -2.371762 -0.484511 -3.480148
v -2.371762 -0.484511 -3.270148
v -2.371762 -0.974511 -3.270148
v -2.371762 -0.974511 -3.480148
v -0.631762 -0.034511 2.299851
v -0.491762 -0.034511 2.299851
v -0.491762 -0.054511 2.299851
v -0.631762 -0.054511 2.299851
v -0.491762 -0.054511 2.329852
v -0.491762 -0.034511 2.329852
v -0.631762 -0.034511 2.329852
v -0.631762 -0.054511 2.329852
v -0.491762 -0.054511 2.299851
v -0.491762 -0.054511 2.329852
v -0.631762 -0.054511 2.329852
v -0.631762 -0.054511 2.299851
v -0.631762 -0.034511 2.329852
v -0.491762 -0.034511 2.329852
v -0.491762 -0.034511 2.299851
v -0.631762 -0.034511 2.299851
v -0.631762 -0.054511 2.329852
v -0.631762 -0.034511 2.329852
v -0.631762 -0.034511 2.299851
v -0.631762 -0.054511 2.299851
v -0.491762 -0.034511 2.299851
v -0.491762 -0.034511 2.329852
v -0.491762 -0.054511 2.329852
v -0.491762 -0.054511 2.299851
v -0.641762 -0.074511 2.299852
v -0.491762 -0.074511 2.299852
v -0.491762 -0.104511 2.299852
v -0.641762 -0.104511 2.299852
v -0.491762 -0.104511 2.339852
v -0.491762 -0.074511 2.339852
v -0.641762 -0.074511 2.339852
v -0.641762 -0.104511 2.339852
v -0.491762 -0.104511 2.299852
v -0.491762 -0.104511 2.339852
v -0.641762 -0.104511 2.339852
v -0.641762 -0.104511 2.299852
v -0.641762 -0.074511 2.339852
v -0.491762 -0.074511 2.339852
v -0.491762 -0.074511 2.299852
v -0.641762 -0.074511 2.299852
v -0.641762 -0.104511 2.339852
v -0.641762 -0.074511 2.339852
v -0.641762 -0.074511 2.299852
v -0.641762 -0.104511 2.299852
v -0.491762 -0.074511 2.299852
v -0.491762 -0.074511 2.339852
v -0.491762 -0.104511 2.339852
v -0.491762 -0.104511 2.299852
usemtl mat11

vn -1.000000 0.000000 -0.000000
vn -1.000000 0.000000 -0.000000
vn -1.000000 0.000000 -0.000000
vn -1.000000 0.000000 -0.000000
vn 1.000000 0.000000 0.000000
vn 1.000000 0.000000 0.000000
vn 1.000000 0.000000 0.000000
vn 1.000000 0.000000 0.000000
vn -0.000000 -1.000000 0.000000
vn -0.000000 -1.000000 0.000000
vn -0.000000 -1.000000 0.000000
vn -0.000000 -1.000000 0.000000
vn 0.000000 1.000000 -0.000000
vn 0.000000 1.000000 -0.000000
vn 0.000000 1.000000 -0.000000
vn 0.000000 1.000000 -0.000000
vn -0.000000 0.000000 1.000000
vn -0.000000 0.000000 1.000000
vn -0.000000 0.000000 1.000000
vn -0.000000 0.000000 1.000000
vn 0.000000 -0.000000 -1.000000
vn 0.000000 -0.000000 -1.000000
vn 0.000000 -0.000000 -1.000000
vn 0.000000 -0.000000 -1.000000
vn 1.000000 0.000000 0.000000
vn 1.000000 0.000000 0.000000
vn 1.000000 0.000000 0.000000
vn 1.000000 0.000000 0.000000
vn -1.000000 0.000000 0.000000
vn -1.000000 0.000000 0.000000
vn -1.000000 0.000000 0.000000
vn -1.000000 0.000000 0.000000
vn 0.000000 -1.000000 -0.000000
vn 0.000000 -1.000000 -0.000000
vn 0.000000 -1.000000 -0.000000
vn 0.000000 -1.000000 -0.000000
vn 0.000000 1.000000 0.000000
vn 0.000000 1.000000 0.000000
vn 0.000000 1.000000 0.000000
vn 0.000000 1.000000 0.000000
vn 0.000000 0.000000 -1.000000
vn 0.000000 0.000000 -1.000000
vn 0.000000 0.000000 -1.000000
vn 0.000000 0.000000 -1.000000
vn 0.000000 -0.000000 1.000000
vn 0.000000 -0.000000 1.000000
vn 0.000000 -0.000000 1.000000
vn 0.000000 -0.000000 1.000000
vn 1.000000 0.000000 0.000000
vn 1.000000 0.000000 0.000000
vn 1.000000 0.000000 0.000000
vn 1.000000 0.000000 0.000000
vn -1.000000 0.000000 0.000000
vn -1.000000 0.000000 0.000000
vn -1.000000 0.000000 0.000000
vn -1.000000 0.000000 0.000000
vn 0.000000 -1.000000 0.000000
vn 0.000000 -1.000000 0.000000
vn 0.000000 -1.000000 0.000000
vn 0.000000 -1.000000 0.000000
vn 0.000000 1.000000 0.000000
vn 0.000000 1.000000 0.000000
vn 0.000000 1.000000 0.000000
vn 0.000000 1.000000 0.000000
vn 0.000000 0.000000 -1.000000
vn 0.000000 0.000000 -1.000000
vn 0.000000 0.000000 -1.000000
vn 0.000000 0.000000 -1.000000
vn 0.000000 0.000000 1.000000
vn 0.000000 0.000000 1.000000
vn 0.000000 0.000000 1.000000
vn 0.000000 0.000000 1.000000
vn 1.000000 0.000000 0.000000
vn 1.000000 0.000000 0.000000
vn 1.000000 0.000000 0.000000
vn 1.000000 0.000000 0.000000
vn -1.000000 0.000000 0.000000
vn -1.000000 0.000000 0.000000
vn -1.000000 0.000000 0.000000
vn -1.000000 0.000000 0.000000
vn 0.000000 -1.000000 0.000000
vn 0.000000 -1.000000 0.000000
vn 0.000000 -1.000000 0.000000
vn 0.000000 -1.000000 0.000000
vn 0.000000 1.000000 0.000000
vn 0.000000 1.000000 0.000000
vn 0.000000 1.000000 0.000000
vn 0.000000 1.000000 0.000000
vn 0.000000 0.000000 -1.000000
vn 0.000000 0.000000 -1.000000
vn 0.000000 0.000000 -1.000000
vn 0.000000 0.000000 -1.000000
vn 0.000000 0.000000 1.000000
vn 0.000000 0.000000 1.000000
vn 0.000000 0.000000 1.000000
vn 0.000000 0.000000 1.000000
vn 1.000000 -0.000000 -0.000000
vn 1.000000 -0.000000 -0.000000
vn 1.000000 -0.000000 -0.000000
vn 1.000000 -0.000000 -0.000000
vn -1.000000 0.000000 0.000000
vn -1.000000 0.000000 0.000000
vn -1.000000 0.000000 0.000000
vn -1.000000 0.000000 0.000000
vn -0.000000 -1.000000 -0.000000
vn -0.000000 -1.000000 -0.000000
vn -0.000000 -1.000000 -0.000000
vn -0.000000 -1.000000 -0.000000
vn 0.000000 1.000000 0.000000
vn 0.000000 1.000000 0.000000
vn 0.000000 1.000000 0.000000
vn 0.000000 1.000000 0.000000
vn 0.000000 0.000000 -1.000000
vn 0.000000 0.000000 -1.000000
vn 0.000000 0.000000 -1.000000
vn 0.000000 0.000000 -1.000000
vn 0.000000 -0.000000 1.000000
vn 0.000000 -0.000000 1.000000
vn 0.000000 -0.000000 1.000000
vn 0.000000 -0.000000 1.000000
vn -0.000000 -0.000000 -1.000000
vn -0.000000 -0.000000 -1.000000
vn -0.000000 -0.000000 -1.000000
vn -0.000000 -0.000000 -1.000000
vn 0.000000 0.000000 1.000000
vn 0.000000 0.000000 1.000000
vn 0.000000 0.000000 1.000000
vn 0.000000 0.000000 1.000000
vn -0.000000 -1.000000 0.000000
vn -0.000000 -1.000000 0.000000
vn -0.000000 -1.000000 0.000000
vn -0.000000 -1.000000 0.000000
vn 0.000000 1.000000 -0.000000
vn 0.000000 1.000000 -0.000000
vn 0.000000 1.000000 -0.000000
vn 0.000000 1.000000 -0.000000
vn -1.000000 0.000000 0.000000
vn -1.000000 0.000000 0.000000
vn -1.000000 0.000000 0.000000
vn -1.000000 0.000000 0.000000
vn 1.000000 -0.000000 -0.000000
vn 1.000000 -0.000000 -0.000000
vn 1.000000 -0.000000 -0.000000
vn 1.000000 -0.000000 -0.000000
vn -0.000000 0.000000 -1.000000
vn -0.000000 0.000000 -1.000000
vn -0.000000 0.000000 -1.000000
vn -0.000000 0.000000 -1.000000
vn 0.000000 0.000000 1.000000
vn 0.000000 0.000000 1.000000
vn 0.000000 0.000000 1.000000
vn 0.000000 0.000000 1.000000
vn -0.000000 -1.000000 0.000000
vn -0.000000 -1.000000 0.000000
vn -0.000000 -1.000000 0.000000
vn -0.000000 -1.000000 0.000000
vn 0.000000 1.000000 0.000000
vn 0.000000 1.000000 0.000000
vn 0.000000 1.000000 0.000000
vn 0.000000 1.000000 0.000000
vn -1.000000 0.000000 0.000000
vn -1.000000 0.000000 0.000000
vn -1.000000 0.000000 0.000000
vn -1.000000 0.000000 0.000000
vn 1.000000 -0.000000 -0.000000
vn 1.000000 -0.000000 -0.000000
vn 1.000000 -0.000000 -0.000000
vn 1.000000 -0.000000 -0.000000
vn -0.000000 0.000000 -1.000000
vn -0.000000 0.000000 -1.000000
vn -0.000000 0.000000 -1.000000
vn -0.000000 0.000000 -1.000000
vn 0.000000 0.000000 1.000000
vn 0.000000 0.000000 1.000000
vn 0.000000 0.000000 1.000000
vn 0.000000 0.000000 1.000000
vn -0.000000 -1.000000 0.000000
vn -0.000000 -1.000000 0.000000
vn -0.000000 -1.000000 0.000000
vn -0.000000 -1.000000 0.000000
vn 0.000000 1.000000 0.000000
vn 0.000000 1.000000 0.000000
vn 0.000000 1.000000 0.000000
vn 0.000000 1.000000 0.000000
vn -1.000000 0.000000 0.000000
vn -1.000000 0.000000 0.000000
vn -1.000000 0.000000 0.000000
vn -1.000000 0.000000 0.000000
vn 1.000000 -0.000000 -0.000000
vn 1.000000 -0.000000 -0.000000
vn 1.000000 -0.000000 -0.000000
vn 1.000000 -0.000000 -0.000000

vt -0.232960 -0.227845
vt -0.230519 -0.226102
vt -0.228775 -0.228543
vt -0.231217 -0.230287
vt 0.228775 -0.228543
vt 0.230519 -0.226102
vt 0.232960 -0.227845
vt 0.231217 -0.230287
vt 0.226758 -0.313533
vt 0.253329 -0.239135
vt 0.256154 -0.240144
vt 0.229583 -0.314542
vt -0.256154 -0.240144
vt -0.253329 -0.239135
vt -0.226758 -0.313533
vt -0.229583 -0.314542
vt 0.015205 -0.148922
vt 0.017888 -0.147581
vt 0.053218 -0.218240
vt 0.050535 -0.219582
vt -0.053218 -0.218240
vt -0.017888 -0.147581
vt -0.015205 -0.148922
vt -0.050535 -0.219582
vt -0.215058 0.154842
vt -0.212617 0.153098
vt -0.242260 0.111598
vt -0.244701 0.113342
vt 0.242260 0.111598
vt 0.212617 0.153098
vt 0.215058 0.154842
vt 0.244701 0.113342
vt -0.317031 -0.108704
vt -0.325103 -0.131306
vt -0.327928 -0.130297
vt -0.319856 -0.107695
vt 0.327928 -0.130297
vt 0.325103 -0.131306
vt 0.317031 -0.108704
vt 0.319856 -0.107695
vt -0.059479 -0.230762
vt -0.105095 -0.207954
vt -0.094362 -0.186488
vt -0.048746 -0.209296
vt 0.094362 -0.186488
vt 0.105095 -0.207954
vt 0.059479 -0.230762
vt 0.048746 -0.209296
vt -0.214826 0.153447
vt -0.212384 0.151703
vt -0.242028 0.110203
vt -0.244469 0.111947
vt 0.242028 0.110203
vt 0.212384 0.151703
vt 0.214826 0.153447
vt 0.244469 0.111947
vt -0.324834 -0.133526
vt -0.331897 -0.153302
vt -0.334722 -0.152293
vt -0.327659 -0.132517
vt 0.334722 -0.152293
vt 0.331897 -0.153302
vt 0.324834 -0.133526
vt 0.327659 -0.132517
vt -0.068871 -0.251781
vt -0.114487 -0.228973
vt -0.105095 -0.210190
vt -0.059479 -0.232998
vt 0.105095 -0.210190
vt 0.114487 -0.228973
vt 0.068871 -0.251781
vt 0.059479 -0.232998
vt -0.215639 0.154028
vt -0.214012 0.152866
vt -0.243074 0.112179
vt -0.244701 0.113342
vt 0.243074 0.112179
vt 0.214012 0.152866
vt 0.215639 0.154028
vt 0.244701 0.113342
vt -0.334117 -0.153571
vt -0.336471 -0.160163
vt -0.338354 -0.159491
vt -0.336000 -0.152899
vt 0.338354 -0.159491
vt 0.336471 -0.160163
vt 0.334117 -0.153571
vt 0.336000 -0.152899
vt -0.073343 -0.258489
vt -0.118064 -0.236129
vt -0.114934 -0.229868
vt -0.070213 -0.252228
vt 0.114934 -0.229868
vt 0.118064 -0.236129
vt 0.073343 -0.258489
vt 0.070213 -0.252228
vt -0.210990 0.151936
vt -0.194715 0.140311
vt -0.223777 0.099624
vt -0.240051 0.111249
vt 0.223777 0.099624
vt 0.194715 0.140311
vt 0.210990 0.151936
vt 0.240051 0.111249
vt -0.294967 -0.112336
vt -0.295640 -0.114220
vt -0.314474 -0.107493
vt -0.313802 -0.105610
vt 0.314474 -0.107493
vt 0.295640 -0.114220
vt 0.294967 -0.112336
vt 0.313802 -0.105610
vt -0.048746 -0.207060
vt -0.093468 -0.184699
vt -0.092573 -0.182910
vt -0.047852 -0.205271
vt 0.092573 -0.182910
vt 0.093468 -0.184699
vt 0.048746 -0.207060
vt 0.047852 -0.205271
vt -0.120748 -0.241495
vt -0.119853 -0.239706
vt -0.076026 -0.261620
vt -0.076921 -0.263409
vt 0.076026 -0.261620
vt 0.119853 -0.239706
vt 0.120748 -0.241495
vt 0.076921 -0.263409
vt -0.334049 -0.165276
vt -0.314273 -0.172339
vt -0.314945 -0.174222
vt -0.334722 -0.167159
vt 0.314945 -0.174222
vt 0.314273 -0.172339
vt 0.334049 -0.165276
vt 0.334722 -0.167159
vt 0.222149 0.098462
vt 0.193669 0.138335
vt 0.210757 0.150541
vt 0.239238 0.110668
vt -0.210757 0.150541
vt -0.193669 0.138335
vt -0.222149 0.098462
vt -0.239238 0.110668
vt -0.082287 -0.063952
vt -0.076026 -0.051430
vt -0.074237 -0.052324
vt -0.080498 -0.064846
vt 0.074237 -0.052324
vt 0.076026 -0.051430
vt 0.082287 -0.063952
vt 0.080498 -0.064846
vt 0.273509 -0.182631
vt 0.276334 -0.183640
vt 0.271625 -0.196824
vt 0.268800 -0.195815
vt -0.271625 -0.196824
vt -0.276334 -0.183640
vt -0.273509 -0.182631
vt -0.268800 -0.195815
vt -0.287015 -0.152168
vt -0.288178 -0.150541
vt -0.285737 -0.148797
vt -0.284574 -0.150424
vt 0.285737 -0.148797
vt 0.288178 -0.150541
vt 0.287015 -0.152168
vt 0.284574 -0.150424
vt -0.079157 -0.066635
vt -0.072449 -0.053218
vt -0.069765 -0.054560
vt -0.076474 -0.067976
vt 0.069765 -0.054560
vt 0.072449 -0.053218
vt 0.079157 -0.066635
vt 0.076474 -0.067976
vt 0.273509 -0.182631
vt 0.277276 -0.183976
vt 0.272231 -0.198102
vt 0.268464 -0.196757
vt -0.272231 -0.198102
vt -0.277276 -0.183976
vt -0.273509 -0.182631
vt -0.268464 -0.196757
vt -0.284923 -0.156818
vt -0.286667 -0.154377
vt -0.283412 -0.152052
vt -0.281668 -0.154493
vt 0.283412 -0.152052
vt 0.286667 -0.154377
vt 0.284923 -0.156818
vt 0.281668 -0.154493
s off
f 1/1/1 2/2/2 3/3/3
f 1/1/1 3/3/3 4/4/4
f 5/5/5 6/6/6 7/7/7
f 5/5/5 7/7/7 8/8/8
f 9/9/9 10/10/10 11/11/11
f 9/9/9 11/11/11 12/12/12
f 13/13/13 14/14/14 15/15/15
f 13/13/13 15/15/15 16/16/16
f 17/17/17 18/18/18 19/19/19
f 17/17/17 19/19/19 20/20/20
f 21/21/21 22/22/22 23/23/23
f 21/21/21 23/23/23 24/24/24
f 25/25/25 26/26/26 27/27/27
f 25/25/25 27/27/27 28/28/28
f 29/29/29 30/30/30 31/31/31
f 29/29/29 31/31/31 32/32/32
f 33/33/33 34/34/34 35/35/35
f 33/33/33 35/35/35 36/36/36
f 37/37/37 38/38/38 39/39/39
f 37/37/37 39/39/39 40/40/40
f 41/41/41 42/42/42 43/43/43
f 41/41/41 43/43/43 44/44/44
f 45/45/45 46/46/46 47/47/47
f 45/45/45 47/47/47 48/48/48
f 49/49/49 50/50/50 51/51/51
f 49/49/49 51/51/51 52/52/52
f 53/53/53 54/54/54 55/55/55
f 53/53/53 55/55/55 56/56/56
f 57/57/57 58/58/58 59/59/59
f 57/57/57 59/59/59 60/60/60
f 61/61/61 62/62/62 63/63/63
f 61/61/61 63/63/63 64/64/64
f 65/65/65 66/66/66 67/67/67
f 65/65/65 67/67/67 68/68/68
f 69/69/69 70/70/70 71/71/71
f 69/69/69 71/71/71 72/72/72
f 73/73/73 74/74/74 75/75/75
f 73/73/73 75/75/75 76/76/76
f 77/77/77 78/78/78 79/79/79
f 77/77/77 79/79/79 80/80/80
f 81/81/81 82/82/82 83/83/83
f 81/81/81 83/83/83 84/84/84
f 85/85/85 86/86/86 87/87/87
f 85/85/85 87/87/87 88/88/88
f 89/89/89 90/90/90 91/91/91
f 89/89/89 91/91/91 92/92/92
f 93/93/93 94/94/94 95/95/95
f 93/93/93 95/95/95 96/96/96
f 97/97/97 98/98/98 99/99/99
f 97/97/97 99/99/99 100/100/100
f 101/101/101 102/102/102 103/103/103
f 101/101/101 103/103/103 104/104/104
f 105/105/105 106/106/106 107/107/107
f 105/105/105 107/107/107 108/108/108
f 109/109/109 110/110/110 111/111/111
f 109/109/109 111/111/111 112/112/112
f 113/113/113 114/114/114 115/115/115
f 113/113/113 115/115/115 116/116/116
f 117/117/117 118/118/118 119/119/119
f 117/117/117 119/119/119 120/120/120
f 121/121/121 122/122/122 123/123/123
f 121/121/121 123/123/123 124/124/124
f 125/125/125 126/126/126 127/127/127
f 125/125/125 127/127/127 128/128/128
f 129/129/129 130/130/130 131/131/131
f 129/129/129 131/131/131 132/132/132
f 133/133/133 134/134/134 135/135/135
f 133/133/133 135/135/135 136/136/136
f 137/137/137 138/138/138 139/139/139
f 137/137/137 139/139/139 140/140/140
f 141/141/141 142/142/142 143/143/143
f 141/141/141 143/143/143 144/144/144
f 145/145/145 146/146/146 147/147/147
f 145/145/145 147/147/147 148/148/148
f 149/149/149 150/150/150 151/151/151
f 149/149/149 151/151/151 152/152/152
f 153/153/153 154/154/154 155/155/155
f 153/153/153 155/155/155 156/156/156
f 157/157/157 158/158/158 159/159/159
f 157/157/157 159/159/159 160/160/160
f 161/161/161 162/162/162 163/163/163
f 161/161/161 163/163/163 164/164/164
f 165/165/165 166/166/166 167/167/167
f 165/165/165 167/167/167 168/168/168
f 169/169/169 170/170/170 171/171/171
f 169/169/169 171/171/171 172/172/172
f 173/173/173 174/174/174 175/175/175
f 173/173/173 175/175/175 176/176/176
f 177/177/177 178/178/178 179/179/179
f 177/177/177 179/179/179 180/180/180
f 181/181/181 182/182/182 183/183/183
f 181/181/181 183/183/183 184/184/184
f 185/185/185 186/186/186 187/187/187
f 185/185/185 187/187/187 188/188/188
f 189/189/189 190/190/190 191/191/191
f 189/189/189 191/191/191 192/192/192
