# Exported using automatic converter by Erwin Coumans
mtllib model6.mtl
#object mesh228037932

v -2.721762 -0.404511 1.519852
v -2.721762 -0.294511 1.519852
v -2.721762 -0.294511 2.359852
v -2.721762 -0.404511 2.359852
v -2.741762 -0.294511 2.359852
v -2.741762 -0.294511 1.519852
v -2.741762 -0.404511 1.519852
v -2.741762 -0.404511 2.359852
v -2.721762 -0.294511 2.359852
v -2.741762 -0.294511 2.359852
v -2.741762 -0.404511 2.359852
v -2.721762 -0.404511 2.359852
v -2.741762 -0.404511 1.519852
v -2.741762 -0.294511 1.519852
v -2.721762 -0.294511 1.519852
v -2.721762 -0.404511 1.519852
v -2.741762 -0.404511 2.359852
v -2.741762 -0.404511 1.519852
v -2.721762 -0.404511 1.519852
v -2.721762 -0.404511 2.359852
v -2.721762 -0.294511 1.519852
v -2.741762 -0.294511 1.519852
v -2.741762 -0.294511 2.359852
v -2.721762 -0.294511 2.359852
usemtl mat5

vn 1.000000 0.000000 0.000000
vn 1.000000 0.000000 0.000000
vn 1.000000 0.000000 0.000000
vn 1.000000 0.000000 0.000000
vn -1.000000 0.000000 0.000000
vn -1.000000 0.000000 0.000000
vn -1.000000 0.000000 0.000000
vn -1.000000 0.000000 0.000000
vn 0.000000 0.000000 1.000000
vn 0.000000 0.000000 1.000000
vn 0.000000 0.000000 1.000000
vn 0.000000 0.000000 1.000000
vn 0.000000 -0.000000 -1.000000
vn 0.000000 -0.000000 -1.000000
vn 0.000000 -0.000000 -1.000000
vn 0.000000 -0.000000 -1.000000
vn 0.000000 -1.000000 0.000000
vn 0.000000 -1.000000 0.000000
vn 0.000000 -1.000000 0.000000
vn 0.000000 -1.000000 0.000000
vn 0.000000 1.000000 -0.000000
vn 0.000000 1.000000 -0.000000
vn 0.000000 1.000000 -0.000000
vn 0.000000 1.000000 -0.000000

vt 0.200760 -0.133569
vt 0.207153 -0.124618
vt 0.275507 -0.173441
vt 0.269113 -0.182393
vt -0.275507 -0.173441
vt -0.207153 -0.124618
vt -0.200760 -0.133569
vt -0.269113 -0.182393
vt 0.152500 -0.262514
vt 0.153394 -0.264303
vt 0.143556 -0.269223
vt 0.142661 -0.267434
vt -0.143556 -0.269223
vt -0.153394 -0.264303
vt -0.152500 -0.262514
vt -0.142661 -0.267434
vt 0.203484 -0.396541
vt 0.124377 -0.368288
vt 0.125050 -0.366405
vt 0.204156 -0.394657
vt -0.125050 -0.366405
vt -0.124377 -0.368288
vt -0.203484 -0.396541
vt -0.204156 -0.394657
s off
f 1/1/1 2/2/2 3/3/3
f 1/1/1 3/3/3 4/4/4
f 5/5/5 6/6/6 7/7/7
f 5/5/5 7/7/7 8/8/8
f 9/9/9 10/10/10 11/11/11
f 9/9/9 11/11/11 12/12/12
f 13/13/13 14/14/14 15/15/15
f 13/13/13 15/15/15 16/16/16
f 17/17/17 18/18/18 19/19/19
f 17/17/17 19/19/19 20/20/20
f 21/21/21 22/22/22 23/23/23
f 21/21/21 23/23/23 24/24/24
