# Exported using automatic converter by Erwin Coumans
mtllib botlab.mtl
#object mesh1389758281

v -0.131762 0.265489 0.949852
v -0.131762 0.295489 0.949852
v -0.131762 0.295489 0.809852
v -0.131762 0.265489 0.809852
v -0.111762 0.295489 0.809852
v -0.111762 0.295489 0.949852
v -0.111762 0.265489 0.949852
v -0.111762 0.265489 0.809852
v -0.131762 0.295489 0.809852
v -0.111762 0.295489 0.809852
v -0.111762 0.265489 0.809852
v -0.131762 0.265489 0.809852
v -0.111762 0.265489 0.949852
v -0.111762 0.295489 0.949852
v -0.131762 0.295489 0.949852
v -0.131762 0.265489 0.949852
v -0.111762 0.265489 0.809852
v -0.111762 0.265489 0.949852
v -0.131762 0.265489 0.949852
v -0.131762 0.265489 0.809852
v -0.131762 0.295489 0.949852
v -0.111762 0.295489 0.949852
v -0.111762 0.295489 0.809852
v -0.131762 0.295489 0.809852
usemtl mat22

vn -1.000000 0.000000 0.000000
vn -1.000000 0.000000 0.000000
vn -1.000000 0.000000 0.000000
vn -1.000000 0.000000 0.000000
vn 1.000000 0.000000 0.000000
vn 1.000000 0.000000 0.000000
vn 1.000000 0.000000 0.000000
vn 1.000000 0.000000 0.000000
vn 0.000000 0.000000 -1.000000
vn 0.000000 0.000000 -1.000000
vn 0.000000 0.000000 -1.000000
vn 0.000000 0.000000 -1.000000
vn 0.000000 -0.000000 1.000000
vn 0.000000 -0.000000 1.000000
vn 0.000000 -0.000000 1.000000
vn 0.000000 -0.000000 1.000000
vn 0.000000 -1.000000 0.000000
vn 0.000000 -1.000000 0.000000
vn 0.000000 -1.000000 0.000000
vn 0.000000 -1.000000 0.000000
vn 0.000000 1.000000 -0.000000
vn 0.000000 1.000000 -0.000000
vn 0.000000 1.000000 -0.000000
vn 0.000000 1.000000 -0.000000

vt -0.193320 -0.045918
vt -0.195064 -0.043477
vt -0.183671 -0.035339
vt -0.181928 -0.037780
vt 0.183671 -0.035339
vt 0.195064 -0.043477
vt 0.193320 -0.045918
vt 0.181928 -0.037780
vt -0.089443 -0.004472
vt -0.088548 -0.002683
vt -0.085865 -0.004025
vt -0.086759 -0.005814
vt 0.085865 -0.004025
vt 0.088548 -0.002683
vt 0.089443 -0.004472
vt 0.086759 -0.005814
vt 0.145970 -0.096730
vt 0.159154 -0.101439
vt 0.158482 -0.103322
vt 0.145297 -0.098614
vt -0.158482 -0.103322
vt -0.159154 -0.101439
vt -0.145970 -0.096730
vt -0.145297 -0.098614
s off
f 1/1/1 2/2/2 3/3/3
f 1/1/1 3/3/3 4/4/4
f 5/5/5 6/6/6 7/7/7
f 5/5/5 7/7/7 8/8/8
f 9/9/9 10/10/10 11/11/11
f 9/9/9 11/11/11 12/12/12
f 13/13/13 14/14/14 15/15/15
f 13/13/13 15/15/15 16/16/16
f 17/17/17 18/18/18 19/19/19
f 17/17/17 19/19/19 20/20/20
f 21/21/21 22/22/22 23/23/23
f 21/21/21 23/23/23 24/24/24
