# Exported using automatic converter by Erwin Coumans
mtllib botlab.mtl
#object mesh577165075

v 2.258687 -0.880394 1.471584
v 2.295931 -0.878322 1.443457
v 2.299056 -0.997219 1.438839
v 2.261813 -0.999291 1.466966
v 2.365240 -0.998879 1.526350
v 2.362114 -0.879982 1.530969
v 2.324871 -0.882053 1.559096
v 2.327997 -1.000950 1.554478
v 2.299056 -0.997219 1.438839
v 2.365240 -0.998879 1.526350
v 2.327997 -1.000950 1.554478
v 2.261813 -0.999291 1.466966
v 2.324871 -0.882053 1.559096
v 2.362114 -0.879982 1.530969
v 2.295931 -0.878322 1.443457
v 2.258687 -0.880394 1.471584
v 2.327997 -1.000950 1.554478
v 2.324871 -0.882053 1.559096
v 2.258687 -0.880394 1.471584
v 2.261813 -0.999291 1.466966
v 2.295931 -0.878322 1.443457
v 2.362114 -0.879982 1.530969
v 2.365240 -0.998879 1.526350
v 2.299056 -0.997219 1.438839
usemtl mat23

vn -0.603136 0.015122 -0.797495
vn -0.603136 0.015122 -0.797495
vn -0.603136 0.015122 -0.797495
vn -0.603136 0.015122 -0.797495
vn 0.603136 -0.015122 0.797495
vn 0.603136 -0.015122 0.797495
vn 0.603136 -0.015122 0.797495
vn 0.603136 -0.015122 0.797495
vn 0.026260 -0.998902 -0.038801
vn 0.026260 -0.998902 -0.038801
vn 0.026260 -0.998902 -0.038801
vn 0.026260 -0.998902 -0.038801
vn -0.026260 0.998902 0.038801
vn -0.026260 0.998902 0.038801
vn -0.026260 0.998902 0.038801
vn -0.026260 0.998902 0.038801
vn -0.797206 -0.044344 0.602076
vn -0.797206 -0.044344 0.602076
vn -0.797206 -0.044344 0.602076
vn -0.797206 -0.044344 0.602076
vn 0.797206 0.044344 -0.602076
vn 0.797206 0.044344 -0.602076
vn 0.797206 0.044344 -0.602076
vn 0.797206 0.044344 -0.602076

vt 0.037132 -0.003860
vt 0.039028 0.000409
vt 0.049906 -0.004421
vt 0.048010 -0.008691
vt -0.049906 -0.004421
vt -0.039028 0.000409
vt -0.037132 -0.003860
vt -0.048010 -0.008691
vt 0.288956 0.103736
vt 0.299465 0.106894
vt 0.300809 0.102420
vt 0.290300 0.099262
vt -0.300809 0.102420
vt -0.299465 0.106894
vt -0.288956 0.103736
vt -0.290300 0.099262
vt -0.289584 0.138678
vt -0.282914 0.148536
vt -0.273825 0.142387
vt -0.280495 0.132529
vt 0.273825 0.142387
vt 0.282914 0.148536
vt 0.289584 0.138678
vt 0.280495 0.132529
s off
f 1/1/1 2/2/2 3/3/3
f 1/1/1 3/3/3 4/4/4
f 5/5/5 6/6/6 7/7/7
f 5/5/5 7/7/7 8/8/8
f 9/9/9 10/10/10 11/11/11
f 9/9/9 11/11/11 12/12/12
f 13/13/13 14/14/14 15/15/15
f 13/13/13 15/15/15 16/16/16
f 17/17/17 18/18/18 19/19/19
f 17/17/17 19/19/19 20/20/20
f 21/21/21 22/22/22 23/23/23
f 21/21/21 23/23/23 24/24/24
