# Exported using automatic converter by Erwin Coumans
mtllib model6.mtl
#object group884513229_6

v -0.483539 -0.312394 -0.420906
v -0.526494 -0.313994 -0.395365
v -0.525345 -0.372089 -0.397073
v -0.482390 -0.370489 -0.422613
v -0.550916 -0.371332 -0.440032
v -0.552065 -0.313238 -0.438325
v -0.509111 -0.311638 -0.463865
v -0.507962 -0.369732 -0.465573
v -0.525345 -0.372089 -0.397073
v -0.550916 -0.371332 -0.440032
v -0.507962 -0.369732 -0.465573
v -0.482390 -0.370489 -0.422613
v -0.509111 -0.311638 -0.463865
v -0.552065 -0.313238 -0.438325
v -0.526494 -0.313994 -0.395365
v -0.483539 -0.312394 -0.420906
v -0.507962 -0.369732 -0.465573
v -0.509111 -0.311638 -0.463865
v -0.483539 -0.312394 -0.420906
v -0.482390 -0.370489 -0.422613
v -0.526494 -0.313994 -0.395365
v -0.552065 -0.313238 -0.438325
v -0.550916 -0.371332 -0.440032
v -0.525345 -0.372089 -0.397073
usemtl mat23

vn 0.511430 -0.015134 0.859192
vn 0.511430 -0.015134 0.859192
vn 0.511430 -0.015134 0.859192
vn 0.511430 -0.015134 0.859192
vn -0.511430 0.015134 -0.859192
vn -0.511430 0.015134 -0.859192
vn -0.511430 0.015134 -0.859192
vn -0.511430 0.015134 -0.859192
vn 0.019767 -0.999373 -0.029370
vn 0.019767 -0.999373 -0.029370
vn 0.019767 -0.999373 -0.029370
vn 0.019767 -0.999373 -0.029370
vn -0.019767 0.999373 0.029370
vn -0.019767 0.999373 0.029370
vn -0.019767 0.999373 0.029370
vn -0.019767 0.999373 0.029370
vn 0.859098 0.032004 -0.510810
vn 0.859098 0.032004 -0.510810
vn 0.859098 0.032004 -0.510810
vn 0.859098 0.032004 -0.510810
vn -0.859098 -0.032004 0.510810
vn -0.859098 -0.032004 0.510810
vn -0.859098 -0.032004 0.510810
vn -0.859098 -0.032004 0.510810

vt 0.055510 -0.075403
vt 0.057539 -0.079973
vt 0.052226 -0.082332
vt 0.050197 -0.077762
vt -0.052226 -0.082332
vt -0.057539 -0.079973
vt -0.055510 -0.075403
vt -0.050197 -0.077762
vt 0.017232 -0.094889
vt 0.012317 -0.095805
vt 0.011401 -0.090889
vt 0.016316 -0.089973
vt -0.011401 -0.090889
vt -0.012317 -0.095805
vt -0.017232 -0.094889
vt -0.016316 -0.089973
vt -0.010560 0.011110
vt -0.012809 0.016471
vt -0.008199 0.018405
vt -0.005949 0.013045
vt 0.008199 0.018405
vt 0.012809 0.016471
vt 0.010560 0.011110
vt 0.005949 0.013045
s off
f 1/1/1 2/2/2 3/3/3
f 1/1/1 3/3/3 4/4/4
f 5/5/5 6/6/6 7/7/7
f 5/5/5 7/7/7 8/8/8
f 9/9/9 10/10/10 11/11/11
f 9/9/9 11/11/11 12/12/12
f 13/13/13 14/14/14 15/15/15
f 13/13/13 15/15/15 16/16/16
f 17/17/17 18/18/18 19/19/19
f 17/17/17 19/19/19 20/20/20
f 21/21/21 22/22/22 23/23/23
f 21/21/21 23/23/23 24/24/24
