# Exported using automatic converter by Erwin Coumans
mtllib model6.mtl
#object group761388940_5

v 2.509162 1.321625 1.223045
v 2.509162 1.321625 1.238580
v 2.509163 0.397256 1.238581
v 2.509163 0.397256 1.223045
v 2.493627 0.397256 1.238581
v 2.493627 1.321625 1.238580
v 2.493627 1.321625 1.223045
v 2.493627 0.397256 1.223045
v 2.509163 0.397256 1.238581
v 2.493627 0.397256 1.238581
v 2.493627 0.397256 1.223045
v 2.509163 0.397256 1.223045
v 2.493627 1.321625 1.223045
v 2.493627 1.321625 1.238580
v 2.509162 1.321625 1.238580
v 2.509162 1.321625 1.223045
v 2.493627 0.397256 1.223045
v 2.493627 1.321625 1.223045
v 2.509162 1.321625 1.223045
v 2.509163 0.397256 1.223045
v 2.509162 1.321625 1.238580
v 2.493627 1.321625 1.238580
v 2.493627 0.397256 1.238581
v 2.509163 0.397256 1.238581
usemtl mat22

vn 1.000000 0.000000 0.000000
vn 1.000000 0.000000 0.000000
vn 1.000000 0.000000 0.000000
vn 1.000000 0.000000 0.000000
vn -1.000000 -0.000000 -0.000000
vn -1.000000 -0.000000 -0.000000
vn -1.000000 -0.000000 -0.000000
vn -1.000000 -0.000000 -0.000000
vn 0.000000 -1.000000 0.000000
vn 0.000000 -1.000000 0.000000
vn 0.000000 -1.000000 0.000000
vn 0.000000 -1.000000 0.000000
vn -0.000000 1.000000 -0.000000
vn -0.000000 1.000000 -0.000000
vn -0.000000 1.000000 -0.000000
vn -0.000000 1.000000 -0.000000
vn 0.000000 -0.000000 -1.000000
vn 0.000000 -0.000000 -1.000000
vn 0.000000 -0.000000 -1.000000
vn 0.000000 -0.000000 -1.000000
vn -0.000000 0.000000 1.000000
vn -0.000000 0.000000 1.000000
vn -0.000000 0.000000 1.000000
vn -0.000000 0.000000 1.000000

vt 0.276937 0.024144
vt 0.278201 0.023241
vt 0.224473 -0.051978
vt 0.223209 -0.051075
vt -0.224473 -0.051978
vt -0.278201 0.023241
vt -0.276937 0.024144
vt -0.223209 -0.051075
vt 0.274496 0.135673
vt 0.273974 0.134210
vt 0.272511 0.134733
vt 0.273033 0.136196
vt -0.272511 0.134733
vt -0.273974 0.134210
vt -0.274496 0.135673
vt -0.273033 0.136196
vt 0.018866 0.234901
vt -0.063812 0.276240
vt -0.063117 0.277630
vt 0.019561 0.236290
vt 0.063117 0.277630
vt 0.063812 0.276240
vt -0.018866 0.234901
vt -0.019561 0.236290
s off
f 1/1/1 2/2/2 3/3/3
f 1/1/1 3/3/3 4/4/4
f 5/5/5 6/6/6 7/7/7
f 5/5/5 7/7/7 8/8/8
f 9/9/9 10/10/10 11/11/11
f 9/9/9 11/11/11 12/12/12
f 13/13/13 14/14/14 15/15/15
f 13/13/13 15/15/15 16/16/16
f 17/17/17 18/18/18 19/19/19
f 17/17/17 19/19/19 20/20/20
f 21/21/21 22/22/22 23/23/23
f 21/21/21 23/23/23 24/24/24
