# Exported using automatic converter by Erwin Coumans
mtllib model6.mtl
#object group1423792878_2

v -0.843463 0.363631 1.193218
v -0.852213 0.363631 1.190873
v -0.852213 0.328631 1.190873
v -0.843463 0.328631 1.193218
v -0.852213 0.363631 1.190873
v -0.858619 0.363631 1.184468
v -0.858619 0.328631 1.184468
v -0.852213 0.328631 1.190873
v -0.858619 0.363631 1.184468
v -0.860963 0.363631 1.175718
v -0.860963 0.328631 1.175718
v -0.858619 0.328631 1.184468
v -0.860963 0.363631 1.175718
v -0.858619 0.363631 1.166968
v -0.858619 0.328631 1.166968
v -0.860963 0.328631 1.175718
v -0.858619 0.363631 1.166968
v -0.852213 0.363631 1.160563
v -0.852213 0.328631 1.160562
v -0.858619 0.328631 1.166968
v -0.852213 0.363631 1.160563
v -0.843463 0.363631 1.158218
v -0.843463 0.328631 1.158218
v -0.852213 0.328631 1.160562
v -0.843463 0.363631 1.158218
v -0.834714 0.363631 1.160563
v -0.834714 0.328631 1.160563
v -0.843463 0.328631 1.158218
v -0.834714 0.363631 1.160563
v -0.828308 0.363631 1.166968
v -0.828308 0.328631 1.166968
v -0.834714 0.328631 1.160563
v -0.828308 0.363631 1.166968
v -0.825963 0.363631 1.175718
v -0.825963 0.328631 1.175718
v -0.828308 0.328631 1.166968
v -0.825963 0.363631 1.175718
v -0.828308 0.363631 1.184468
v -0.828308 0.328631 1.184468
v -0.825963 0.328631 1.175718
v -0.828308 0.363631 1.184468
v -0.834714 0.363631 1.190874
v -0.834714 0.328631 1.190873
v -0.828308 0.328631 1.184468
v -0.834714 0.363631 1.190874
v -0.843463 0.363631 1.193218
v -0.843463 0.328631 1.193218
v -0.834714 0.328631 1.190873
v -0.843463 0.328631 1.193218
v -0.852213 0.328631 1.190873
v -0.858619 0.328631 1.184468
v -0.860963 0.328631 1.175718
v -0.858619 0.328631 1.166968
v -0.852213 0.328631 1.160562
v -0.843463 0.328631 1.158218
v -0.834714 0.328631 1.160563
v -0.828308 0.328631 1.166968
v -0.825963 0.328631 1.175718
v -0.828308 0.328631 1.184468
v -0.834714 0.328631 1.190873
v -0.834714 0.363631 1.190874
v -0.828308 0.363631 1.184468
v -0.825963 0.363631 1.175718
v -0.828308 0.363631 1.166968
v -0.834714 0.363631 1.160563
v -0.843463 0.363631 1.158218
v -0.852213 0.363631 1.160563
v -0.858619 0.363631 1.166968
v -0.860963 0.363631 1.175718
v -0.858619 0.363631 1.184468
v -0.852213 0.363631 1.190873
v -0.843463 0.363631 1.193218
usemtl mat19

vn -0.000000 -0.000000 1.000000
vn -0.000000 -0.000000 1.000000
vn -0.000000 -0.000000 1.000000
vn -0.000000 -0.000000 1.000000
vn -0.500000 -0.000000 0.866025
vn -0.500000 -0.000000 0.866025
vn -0.500000 -0.000000 0.866025
vn -0.500000 -0.000000 0.866025
vn -0.866026 0.000000 0.500000
vn -0.866026 0.000000 0.500000
vn -0.866026 0.000000 0.500000
vn -0.866026 0.000000 0.500000
vn -1.000000 0.000000 -0.000000
vn -1.000000 0.000000 -0.000000
vn -1.000000 0.000000 -0.000000
vn -1.000000 0.000000 -0.000000
vn -0.866025 0.000000 -0.500000
vn -0.866025 0.000000 -0.500000
vn -0.866025 0.000000 -0.500000
vn -0.866025 0.000000 -0.500000
vn -0.500000 0.000000 -0.866026
vn -0.500000 0.000000 -0.866026
vn -0.500000 0.000000 -0.866026
vn -0.500000 0.000000 -0.866026
vn 0.000000 0.000000 -1.000000
vn 0.000000 0.000000 -1.000000
vn 0.000000 0.000000 -1.000000
vn 0.000000 0.000000 -1.000000
vn 0.500000 0.000000 -0.866025
vn 0.500000 0.000000 -0.866025
vn 0.500000 0.000000 -0.866025
vn 0.500000 0.000000 -0.866025
vn 0.866026 -0.000000 -0.500000
vn 0.866026 -0.000000 -0.500000
vn 0.866026 -0.000000 -0.500000
vn 0.866026 -0.000000 -0.500000
vn 1.000000 -0.000000 0.000000
vn 1.000000 -0.000000 0.000000
vn 1.000000 -0.000000 0.000000
vn 1.000000 -0.000000 0.000000
vn 0.866025 -0.000000 0.500000
vn 0.866025 -0.000000 0.500000
vn 0.866025 -0.000000 0.500000
vn 0.866025 -0.000000 0.500000
vn 0.499999 -0.000000 0.866026
vn 0.499999 -0.000000 0.866026
vn 0.499999 -0.000000 0.866026
vn 0.499999 -0.000000 0.866026
vn -0.000000 -1.000000 -0.000000
vn -0.000000 -1.000000 -0.000000
vn -0.000000 -1.000000 -0.000000
vn -0.000000 -1.000000 -0.000000
vn -0.000000 -1.000000 -0.000000
vn -0.000000 -1.000000 -0.000000
vn -0.000000 -1.000000 -0.000000
vn -0.000000 -1.000000 -0.000000
vn -0.000000 -1.000000 -0.000000
vn -0.000000 -1.000000 -0.000000
vn -0.000000 -1.000000 -0.000000
vn -0.000000 -1.000000 -0.000000
vn 0.000000 1.000000 0.000000
vn 0.000000 1.000000 0.000000
vn 0.000000 1.000000 0.000000
vn 0.000000 1.000000 0.000000
vn 0.000000 1.000000 0.000000
vn 0.000000 1.000000 0.000000
vn 0.000000 1.000000 0.000000
vn 0.000000 1.000000 0.000000
vn 0.000000 1.000000 0.000000
vn 0.000000 1.000000 0.000000
vn 0.000000 1.000000 0.000000
vn 0.000000 1.000000 0.000000

vt 0.127366 -0.065081
vt 0.127757 -0.065864
vt 0.124627 -0.067429
vt 0.124235 -0.066646
vt 0.066501 0.052761
vt 0.067015 0.052053
vt 0.064185 0.049995
vt 0.063670 0.050702
vt -0.083134 0.122482
vt -0.082316 0.122170
vt -0.083563 0.118900
vt -0.084381 0.119212
vt -0.217404 -0.051060
vt -0.216692 -0.050551
vt -0.214657 -0.053400
vt -0.215369 -0.053908
vt -0.196456 -0.156615
vt -0.195996 -0.155870
vt -0.193018 -0.157710
vt -0.193478 -0.158454
vt -0.164161 -0.146518
vt -0.163783 -0.145728
vt -0.160626 -0.147239
vt -0.161004 -0.148029
vt -0.127366 -0.065081
vt -0.126974 -0.064299
vt -0.123844 -0.065864
vt -0.124235 -0.066646
vt -0.066501 0.052761
vt -0.065986 0.053469
vt -0.063156 0.051410
vt -0.063670 0.050702
vt 0.083134 0.122482
vt 0.083951 0.122794
vt 0.085199 0.119524
vt 0.084381 0.119212
vt 0.217404 -0.051060
vt 0.218116 -0.051569
vt 0.216081 -0.054417
vt 0.215369 -0.053908
vt 0.196456 -0.156615
vt 0.196916 -0.157359
vt 0.193938 -0.159199
vt 0.193478 -0.158454
vt 0.164161 -0.146518
vt 0.164538 -0.147307
vt 0.161381 -0.148818
vt 0.161004 -0.148029
vt 0.157463 -0.178532
vt 0.156948 -0.179277
vt 0.156130 -0.179665
vt 0.155227 -0.179591
vt 0.154482 -0.179076
vt 0.154094 -0.178257
vt 0.154167 -0.177355
vt 0.154682 -0.176609
vt 0.155501 -0.176222
vt 0.156404 -0.176295
vt 0.157149 -0.176810
vt 0.157537 -0.177629
vt -0.157537 -0.177629
vt -0.157149 -0.176810
vt -0.156404 -0.176295
vt -0.155501 -0.176222
vt -0.154682 -0.176609
vt -0.154167 -0.177355
vt -0.154094 -0.178257
vt -0.154482 -0.179076
vt -0.155227 -0.179591
vt -0.156130 -0.179665
vt -0.156948 -0.179277
vt -0.157463 -0.178532
s off
f 1/1/1 2/2/2 3/3/3
f 1/1/1 3/3/3 4/4/4
f 5/5/5 6/6/6 7/7/7
f 5/5/5 7/7/7 8/8/8
f 9/9/9 10/10/10 11/11/11
f 9/9/9 11/11/11 12/12/12
f 13/13/13 14/14/14 15/15/15
f 13/13/13 15/15/15 16/16/16
f 17/17/17 18/18/18 19/19/19
f 17/17/17 19/19/19 20/20/20
f 21/21/21 22/22/22 23/23/23
f 21/21/21 23/23/23 24/24/24
f 25/25/25 26/26/26 27/27/27
f 25/25/25 27/27/27 28/28/28
f 29/29/29 30/30/30 31/31/31
f 29/29/29 31/31/31 32/32/32
f 33/33/33 34/34/34 35/35/35
f 33/33/33 35/35/35 36/36/36
f 37/37/37 38/38/38 39/39/39
f 37/37/37 39/39/39 40/40/40
f 41/41/41 42/42/42 43/43/43
f 41/41/41 43/43/43 44/44/44
f 45/45/45 46/46/46 47/47/47
f 45/45/45 47/47/47 48/48/48
f 49/49/49 50/50/50 51/51/51
f 49/49/49 51/51/51 52/52/52
f 49/49/49 52/52/52 53/53/53
f 49/49/49 53/53/53 54/54/54
f 49/49/49 54/54/54 55/55/55
f 49/49/49 55/55/55 56/56/56
f 49/49/49 56/56/56 57/57/57
f 49/49/49 57/57/57 58/58/58
f 49/49/49 58/58/58 59/59/59
f 49/49/49 59/59/59 60/60/60
f 61/61/61 62/62/62 63/63/63
f 61/61/61 63/63/63 64/64/64
f 61/61/61 64/64/64 65/65/65
f 61/61/61 65/65/65 66/66/66
f 61/61/61 66/66/66 67/67/67
f 61/61/61 67/67/67 68/68/68
f 61/61/61 68/68/68 69/69/69
f 61/61/61 69/69/69 70/70/70
f 61/61/61 70/70/70 71/71/71
f 61/61/61 71/71/71 72/72/72
