# Exported using automatic converter by Erwin Coumans
mtllib botlab.mtl
#object mesh284731613

v -2.391762 -0.484511 -3.480148
v -2.371762 -0.484511 -3.480148
v -2.371762 -0.974511 -3.480148
v -2.391762 -0.974511 -3.480148
v -2.371762 -0.974511 -3.270148
v -2.371762 -0.484511 -3.270148
v -2.391762 -0.484511 -3.270148
v -2.391762 -0.974511 -3.270148
v -2.371762 -0.974511 -3.480148
v -2.371762 -0.974511 -3.270148
v -2.391762 -0.974511 -3.270148
v -2.391762 -0.974511 -3.480148
v -2.391762 -0.484511 -3.270148
v -2.371762 -0.484511 -3.270148
v -2.371762 -0.484511 -3.480148
v -2.391762 -0.484511 -3.480148
v -2.391762 -0.974511 -3.270148
v -2.391762 -0.484511 -3.270148
v -2.391762 -0.484511 -3.480148
v -2.391762 -0.974511 -3.480148
v -2.371762 -0.484511 -3.480148
v -2.371762 -0.484511 -3.270148
v -2.371762 -0.974511 -3.270148
v -2.371762 -0.974511 -3.480148
usemtl mat11

vn -0.000000 -0.000000 -1.000000
vn -0.000000 -0.000000 -1.000000
vn -0.000000 -0.000000 -1.000000
vn -0.000000 -0.000000 -1.000000
vn 0.000000 0.000000 1.000000
vn 0.000000 0.000000 1.000000
vn 0.000000 0.000000 1.000000
vn 0.000000 0.000000 1.000000
vn -0.000000 -1.000000 0.000000
vn -0.000000 -1.000000 0.000000
vn -0.000000 -1.000000 0.000000
vn -0.000000 -1.000000 0.000000
vn 0.000000 1.000000 -0.000000
vn 0.000000 1.000000 -0.000000
vn 0.000000 1.000000 -0.000000
vn 0.000000 1.000000 -0.000000
vn -1.000000 0.000000 0.000000
vn -1.000000 0.000000 0.000000
vn -1.000000 0.000000 0.000000
vn -1.000000 0.000000 0.000000
vn 1.000000 -0.000000 -0.000000
vn 1.000000 -0.000000 -0.000000
vn 1.000000 -0.000000 -0.000000
vn 1.000000 -0.000000 -0.000000

vt -0.120748 -0.241495
vt -0.119853 -0.239706
vt -0.076026 -0.261620
vt -0.076921 -0.263409
vt 0.076026 -0.261620
vt 0.119853 -0.239706
vt 0.120748 -0.241495
vt 0.076921 -0.263409
vt -0.334049 -0.165276
vt -0.314273 -0.172339
vt -0.314945 -0.174222
vt -0.334722 -0.167159
vt 0.314945 -0.174222
vt 0.314273 -0.172339
vt 0.334049 -0.165276
vt 0.334722 -0.167159
vt 0.222149 0.098462
vt 0.193669 0.138335
vt 0.210757 0.150541
vt 0.239238 0.110668
vt -0.210757 0.150541
vt -0.193669 0.138335
vt -0.222149 0.098462
vt -0.239238 0.110668
s off
f 1/1/1 2/2/2 3/3/3
f 1/1/1 3/3/3 4/4/4
f 5/5/5 6/6/6 7/7/7
f 5/5/5 7/7/7 8/8/8
f 9/9/9 10/10/10 11/11/11
f 9/9/9 11/11/11 12/12/12
f 13/13/13 14/14/14 15/15/15
f 13/13/13 15/15/15 16/16/16
f 17/17/17 18/18/18 19/19/19
f 17/17/17 19/19/19 20/20/20
f 21/21/21 22/22/22 23/23/23
f 21/21/21 23/23/23 24/24/24
