# Exported using automatic converter by Erwin Coumans
mtllib model6.mtl
#object mesh96579878

v 1.918238 1.825489 -0.610148
v 1.938238 1.825489 -0.610148
v 1.938238 1.825489 -0.570148
v 1.918238 1.825489 -0.570148
v 1.938238 2.035489 -0.570148
v 1.938238 2.035489 -0.610148
v 1.918238 2.035489 -0.610148
v 1.918238 2.035489 -0.570148
v 1.938238 1.825489 -0.570148
v 1.938238 2.035489 -0.570148
v 1.918238 2.035489 -0.570148
v 1.918238 1.825489 -0.570148
v 1.918238 2.035489 -0.610148
v 1.938238 2.035489 -0.610148
v 1.938238 1.825489 -0.610148
v 1.918238 1.825489 -0.610148
v 1.918238 2.035489 -0.570148
v 1.918238 2.035489 -0.610148
v 1.918238 1.825489 -0.610148
v 1.918238 1.825489 -0.570148
v 1.938238 1.825489 -0.610148
v 1.938238 2.035489 -0.610148
v 1.938238 2.035489 -0.570148
v 1.938238 1.825489 -0.570148
usemtl mat23

vn -0.000000 -1.000000 0.000000
vn -0.000000 -1.000000 0.000000
vn -0.000000 -1.000000 0.000000
vn -0.000000 -1.000000 0.000000
vn 0.000000 1.000000 0.000000
vn 0.000000 1.000000 0.000000
vn 0.000000 1.000000 0.000000
vn 0.000000 1.000000 0.000000
vn 0.000000 0.000000 1.000000
vn 0.000000 0.000000 1.000000
vn 0.000000 0.000000 1.000000
vn 0.000000 0.000000 1.000000
vn 0.000000 -0.000000 -1.000000
vn 0.000000 -0.000000 -1.000000
vn 0.000000 -0.000000 -1.000000
vn 0.000000 -0.000000 -1.000000
vn -1.000000 0.000000 0.000000
vn -1.000000 0.000000 0.000000
vn -1.000000 0.000000 0.000000
vn -1.000000 0.000000 0.000000
vn 1.000000 -0.000000 -0.000000
vn 1.000000 -0.000000 -0.000000
vn 1.000000 -0.000000 -0.000000
vn 1.000000 -0.000000 -0.000000

vt 0.080519 0.142203
vt 0.081192 0.144086
vt 0.084959 0.142741
vt 0.084286 0.140858
vt -0.084959 0.142741
vt -0.081192 0.144086
vt -0.080519 0.142203
vt -0.084286 0.140858
vt 0.133717 0.249098
vt 0.152500 0.258489
vt 0.153394 0.256701
vt 0.134611 0.247309
vt -0.153394 0.256701
vt -0.152500 0.258489
vt -0.133717 0.249098
vt -0.134611 0.247309
vt -0.172512 0.186461
vt -0.169256 0.188786
vt -0.157051 0.171698
vt -0.160306 0.169373
vt 0.157051 0.171698
vt 0.169256 0.188786
vt 0.172512 0.186461
vt 0.160306 0.169373
s off
f 1/1/1 2/2/2 3/3/3
f 1/1/1 3/3/3 4/4/4
f 5/5/5 6/6/6 7/7/7
f 5/5/5 7/7/7 8/8/8
f 9/9/9 10/10/10 11/11/11
f 9/9/9 11/11/11 12/12/12
f 13/13/13 14/14/14 15/15/15
f 13/13/13 15/15/15 16/16/16
f 17/17/17 18/18/18 19/19/19
f 17/17/17 19/19/19 20/20/20
f 21/21/21 22/22/22 23/23/23
f 21/21/21 23/23/23 24/24/24
