# Exported using automatic converter by Erwin Coumans
mtllib botlab.mtl
#object mesh1060993419

v -2.761762 0.495489 -3.180148
v -2.601762 0.495489 -3.180148
v -2.601762 0.465489 -3.180148
v -2.761762 0.465489 -3.180148
v -2.601762 0.465489 -2.540148
v -2.601762 0.495489 -2.540148
v -2.761762 0.495489 -2.540148
v -2.761762 0.465489 -2.540148
v -2.601762 0.465489 -3.180148
v -2.601762 0.465489 -2.540148
v -2.761762 0.465489 -2.540148
v -2.761762 0.465489 -3.180148
v -2.761762 0.495489 -2.540148
v -2.601762 0.495489 -2.540148
v -2.601762 0.495489 -3.180148
v -2.761762 0.495489 -3.180148
v -2.761762 0.465489 -2.540148
v -2.761762 0.495489 -2.540148
v -2.761762 0.495489 -3.180148
v -2.761762 0.465489 -3.180148
v -2.601762 0.495489 -3.180148
v -2.601762 0.495489 -2.540148
v -2.601762 0.465489 -2.540148
v -2.601762 0.465489 -3.180148
usemtl mat17

vn -0.000000 -0.000000 -1.000000
vn -0.000000 -0.000000 -1.000000
vn -0.000000 -0.000000 -1.000000
vn -0.000000 -0.000000 -1.000000
vn 0.000000 0.000000 1.000000
vn 0.000000 0.000000 1.000000
vn 0.000000 0.000000 1.000000
vn 0.000000 0.000000 1.000000
vn -0.000000 -1.000000 0.000000
vn -0.000000 -1.000000 0.000000
vn -0.000000 -1.000000 0.000000
vn -0.000000 -1.000000 0.000000
vn 0.000000 1.000000 -0.000000
vn 0.000000 1.000000 -0.000000
vn 0.000000 1.000000 -0.000000
vn 0.000000 1.000000 -0.000000
vn -1.000000 0.000000 0.000000
vn -1.000000 0.000000 0.000000
vn -1.000000 0.000000 0.000000
vn -1.000000 0.000000 0.000000
vn 1.000000 -0.000000 -0.000000
vn 1.000000 -0.000000 -0.000000
vn 1.000000 -0.000000 -0.000000
vn 1.000000 -0.000000 -0.000000

vt -0.224948 -0.230762
vt -0.217793 -0.216451
vt -0.215110 -0.217793
vt -0.222265 -0.232104
vt 0.215110 -0.217793
vt 0.217793 -0.216451
vt 0.224948 -0.230762
vt 0.222265 -0.232104
vt -0.313533 -0.197026
vt -0.253261 -0.218551
vt -0.258643 -0.233619
vt -0.318914 -0.212094
vt 0.258643 -0.233619
vt 0.253261 -0.218551
vt 0.313533 -0.197026
vt 0.318914 -0.212094
vt 0.079048 0.173209
vt 0.077305 0.175650
vt 0.129384 0.212849
vt 0.131127 0.210408
vt -0.129384 0.212849
vt -0.077305 0.175650
vt -0.079048 0.173209
vt -0.131127 0.210408
s off
f 1/1/1 2/2/2 3/3/3
f 1/1/1 3/3/3 4/4/4
f 5/5/5 6/6/6 7/7/7
f 5/5/5 7/7/7 8/8/8
f 9/9/9 10/10/10 11/11/11
f 9/9/9 11/11/11 12/12/12
f 13/13/13 14/14/14 15/15/15
f 13/13/13 15/15/15 16/16/16
f 17/17/17 18/18/18 19/19/19
f 17/17/17 19/19/19 20/20/20
f 21/21/21 22/22/22 23/23/23
f 21/21/21 23/23/23 24/24/24
