# Exported using automatic converter by Erwin Coumans
mtllib botlab.mtl
#object mesh2005610713

v -2.041762 0.505489 -3.150148
v -2.011762 0.505489 -3.150148
v -2.011762 0.505489 -3.130148
v -2.041762 0.505489 -3.130148
v -2.011762 0.635489 -3.130148
v -2.011762 0.635489 -3.150148
v -2.041762 0.635489 -3.150148
v -2.041762 0.635489 -3.130148
v -2.011762 0.505489 -3.130148
v -2.011762 0.635489 -3.130148
v -2.041762 0.635489 -3.130148
v -2.041762 0.505489 -3.130148
v -2.041762 0.635489 -3.150148
v -2.011762 0.635489 -3.150148
v -2.011762 0.505489 -3.150148
v -2.041762 0.505489 -3.150148
v -2.041762 0.635489 -3.130148
v -2.041762 0.635489 -3.150148
v -2.041762 0.505489 -3.150148
v -2.041762 0.505489 -3.130148
v -2.011762 0.505489 -3.150148
v -2.011762 0.635489 -3.150148
v -2.011762 0.635489 -3.130148
v -2.011762 0.505489 -3.130148
usemtl mat22

vn -0.000000 -1.000000 0.000000
vn -0.000000 -1.000000 0.000000
vn -0.000000 -1.000000 0.000000
vn -0.000000 -1.000000 0.000000
vn 0.000000 1.000000 0.000000
vn 0.000000 1.000000 0.000000
vn 0.000000 1.000000 0.000000
vn 0.000000 1.000000 0.000000
vn 0.000000 0.000000 1.000000
vn 0.000000 0.000000 1.000000
vn 0.000000 0.000000 1.000000
vn 0.000000 0.000000 1.000000
vn 0.000000 -0.000000 -1.000000
vn 0.000000 -0.000000 -1.000000
vn 0.000000 -0.000000 -1.000000
vn 0.000000 -0.000000 -1.000000
vn -1.000000 0.000000 0.000000
vn -1.000000 0.000000 0.000000
vn -1.000000 0.000000 0.000000
vn -1.000000 0.000000 0.000000
vn 1.000000 -0.000000 -0.000000
vn 1.000000 -0.000000 -0.000000
vn 1.000000 -0.000000 -0.000000
vn 1.000000 -0.000000 -0.000000

vt -0.291873 -0.145297
vt -0.290864 -0.142472
vt -0.288980 -0.143145
vt -0.289989 -0.145970
vt 0.288980 -0.143145
vt 0.290864 -0.142472
vt 0.291873 -0.145297
vt 0.289989 -0.145970
vt 0.192302 -0.163233
vt 0.203929 -0.157419
vt 0.205271 -0.160102
vt 0.193643 -0.165916
vt -0.205271 -0.160102
vt -0.203929 -0.157419
vt -0.192302 -0.163233
vt -0.193643 -0.165916
vt 0.117178 0.221336
vt 0.118805 0.222498
vt 0.126361 0.211919
vt 0.124734 0.210757
vt -0.126361 0.211919
vt -0.118805 0.222498
vt -0.117178 0.221336
vt -0.124734 0.210757
s off
f 1/1/1 2/2/2 3/3/3
f 1/1/1 3/3/3 4/4/4
f 5/5/5 6/6/6 7/7/7
f 5/5/5 7/7/7 8/8/8
f 9/9/9 10/10/10 11/11/11
f 9/9/9 11/11/11 12/12/12
f 13/13/13 14/14/14 15/15/15
f 13/13/13 15/15/15 16/16/16
f 17/17/17 18/18/18 19/19/19
f 17/17/17 19/19/19 20/20/20
f 21/21/21 22/22/22 23/23/23
f 21/21/21 23/23/23 24/24/24
