# Exported using automatic converter by Erwin Coumans
mtllib botlab.mtl
#object mesh566559851

v -0.789728 0.440807 -2.731980
v -0.499962 0.444760 -2.745050
v -0.789813 0.440839 -2.737003
v -0.499433 0.379461 -2.745482
v -0.789199 0.368571 -2.732412
v -0.789284 0.375540 -2.737435
v -0.499962 0.444760 -2.745050
v -0.499433 0.379461 -2.745482
v -0.789284 0.375540 -2.737435
v -0.789813 0.440839 -2.737003
v -0.789199 0.368571 -2.732412
v -0.494287 0.374380 -2.735500
v -0.494816 0.439680 -2.735068
v -0.789284 0.375540 -2.737435
v -0.789199 0.368571 -2.732412
v -0.789813 0.440839 -2.737003
v -0.494816 0.439680 -2.735068
v -0.494287 0.374380 -2.735500
v -0.499433 0.379461 -2.745482
v -0.499962 0.444760 -2.745050
v -0.789728 0.440807 -2.731980
v -0.494816 0.439680 -2.735068
v -0.499962 0.444760 -2.745050
v -0.499433 0.379461 -2.745482
v -0.494287 0.374380 -2.735500
v -0.789199 0.368571 -2.732412
v -0.494816 0.439680 -2.735068
v -0.789728 0.440807 -2.731980
v -0.789199 0.368571 -2.732412
v -0.789199 0.368571 -2.732412
v -0.789728 0.440807 -2.731980
v -0.789813 0.440839 -2.737003
usemtl mat24

vn -0.013341 0.999889 0.006679
vn -0.013341 0.999889 0.006679
vn -0.013341 0.999889 0.006679
vn -0.014609 -0.584742 -0.811087
vn -0.014609 -0.584742 -0.811087
vn -0.014609 -0.584742 -0.811087
vn -0.027839 0.006389 -0.999592
vn -0.027839 0.006389 -0.999592
vn -0.027839 0.006389 -0.999592
vn -0.027839 0.006389 -0.999592
vn 0.010596 -0.006529 0.999923
vn 0.010596 -0.006529 0.999923
vn 0.010596 -0.006529 0.999923
vn -0.999951 -0.008143 0.005621
vn -0.999951 -0.008143 0.005621
vn -0.999951 -0.008143 0.005621
vn 0.890921 0.010226 -0.454044
vn 0.890921 0.010226 -0.454044
vn 0.890921 0.010226 -0.454044
vn 0.890921 0.010226 -0.454044
vn 0.008126 0.892869 0.450243
vn 0.008126 0.892869 0.450243
vn 0.008126 0.892869 0.450243
vn 0.012698 -0.888479 -0.458742
vn 0.012698 -0.888479 -0.458742
vn 0.012698 -0.888479 -0.458742
vn 0.010446 -0.005905 0.999928
vn 0.010446 -0.005905 0.999928
vn 0.010446 -0.005905 0.999928
vn -0.999830 -0.007427 0.016874
vn -0.999830 -0.007427 0.016874
vn -0.999830 -0.007427 0.016874

vt 0.210582 -0.039906
vt 0.202044 -0.012182
vt 0.211057 -0.039744
vt -0.193668 0.025941
vt -0.207438 0.000389
vt -0.208174 0.000831
vt -0.115715 -0.027253
vt -0.109835 -0.030093
vt -0.122308 -0.056272
vt -0.128189 -0.053433
vt 0.123226 -0.059205
vt 0.110644 -0.032524
vt 0.116518 -0.029671
vt 0.100266 0.178460
vt 0.100263 0.177601
vt 0.096434 0.183748
vt -0.218212 0.035179
vt -0.216479 0.028883
vt -0.217697 0.029072
vt -0.219430 0.035368
vt 0.233526 0.002290
vt 0.219604 0.028290
vt 0.220833 0.028374
vt -0.218259 0.026825
vt -0.217030 0.026741
vt -0.230665 0.000583
vt 0.116640 -0.029621
vt 0.129849 -0.055991
vt 0.123354 -0.059154
vt 0.104146 0.176584
vt 0.100005 0.182503
vt 0.100417 0.182792
s off
f 1/1/1 2/2/2 3/3/3
f 4/4/4 5/5/5 6/6/6
f 7/7/7 8/8/8 9/9/9
f 7/7/7 9/9/9 10/10/10
f 11/11/11 12/12/12 13/13/13
f 14/14/14 15/15/15 16/16/16
f 17/17/17 18/18/18 19/19/19
f 17/17/17 19/19/19 20/20/20
f 21/21/21 22/22/22 23/23/23
f 24/24/24 25/25/25 26/26/26
f 27/27/27 28/28/28 29/29/29
f 30/30/30 31/31/31 32/32/32
