# Exported using automatic converter by Erwin Coumans
mtllib model6.mtl
#object mesh1373670868

v 2.826095 -0.988496 -2.226048
v 2.889945 -0.986355 -2.224862
v 2.891038 -1.011984 -2.237454
v 2.827187 -1.014124 -2.238640
v 2.889838 -1.011561 -2.173569
v 2.888744 -0.985933 -2.160977
v 2.824894 -0.988073 -2.162163
v 2.825987 -1.013702 -2.174755
v 2.891038 -1.011984 -2.237454
v 2.889838 -1.011561 -2.173569
v 2.825987 -1.013702 -2.174755
v 2.827187 -1.014124 -2.238640
v 2.824894 -0.988073 -2.162163
v 2.888744 -0.985933 -2.160977
v 2.889945 -0.986355 -2.224862
v 2.826095 -0.988496 -2.226048
v 2.825987 -1.013702 -2.174755
v 2.824894 -0.988073 -2.162163
v 2.826095 -0.988496 -2.226048
v 2.827187 -1.014124 -2.238640
v 2.889945 -0.986355 -2.224862
v 2.888744 -0.985933 -2.160977
v 2.889838 -1.011561 -2.173569
v 2.891038 -1.011984 -2.237454
usemtl mat22

vn 0.001883 0.441039 -0.897486
vn 0.001883 0.441039 -0.897486
vn 0.001883 0.441039 -0.897486
vn 0.001883 0.441039 -0.897486
vn -0.001883 -0.441040 0.897486
vn -0.001883 -0.441040 0.897486
vn -0.001883 -0.441040 0.897486
vn -0.001883 -0.441040 0.897486
vn 0.033365 -0.999417 0.007235
vn 0.033365 -0.999417 0.007235
vn 0.033365 -0.999417 0.007235
vn 0.033365 -0.999417 0.007235
vn -0.033365 0.999417 -0.007235
vn -0.033365 0.999417 -0.007235
vn -0.033365 0.999417 -0.007235
vn -0.033365 0.999417 -0.007235
vn -0.999267 -0.033494 -0.018556
vn -0.999267 -0.033494 -0.018556
vn -0.999267 -0.033494 -0.018556
vn -0.999267 -0.033494 -0.018556
vn 0.999266 0.033511 0.018558
vn 0.999266 0.033511 0.018558
vn 0.999266 0.033511 0.018558
vn 0.999266 0.033511 0.018558

vt 0.170406 0.212397
vt 0.171958 0.218595
vt 0.174730 0.217901
vt 0.173177 0.211703
vt -0.171958 0.218595
vt -0.169186 0.219290
vt -0.167634 0.213091
vt -0.170406 0.212397
vt -0.043362 0.286565
vt -0.037367 0.284353
vt -0.039580 0.278358
vt -0.045574 0.280571
vt 0.038381 0.277916
vt 0.036169 0.283910
vt 0.042163 0.286123
vt 0.044376 0.280128
vt 0.142086 0.035794
vt 0.139495 0.037001
vt 0.144498 0.040975
vt 0.147088 0.039769
vt -0.144500 0.040975
vt -0.139497 0.037001
vt -0.142088 0.035794
vt -0.147091 0.039769
s off
f 1/1/1 2/2/2 3/3/3
f 1/1/1 3/3/3 4/4/4
f 5/5/5 6/6/6 7/7/7
f 5/5/5 7/7/7 8/8/8
f 9/9/9 10/10/10 11/11/11
f 9/9/9 11/11/11 12/12/12
f 13/13/13 14/14/14 15/15/15
f 13/13/13 15/15/15 16/16/16
f 17/17/17 18/18/18 19/19/19
f 17/17/17 19/19/19 20/20/20
f 21/21/21 22/22/22 23/23/23
f 21/21/21 23/23/23 24/24/24
