# Exported using automatic converter by Erwin Coumans
mtllib model6.mtl
#object mesh1525621485

v -0.347035 -1.024392 -0.616673
v -0.325302 -1.020215 -0.576212
v -0.328225 -0.969522 -0.579876
v -0.349957 -0.973699 -0.620336
v -0.325302 -1.020215 -0.576212
v -0.286187 -1.016219 -0.552113
v -0.289109 -0.965526 -0.555776
v -0.328225 -0.969522 -0.579876
v -0.286187 -1.016219 -0.552113
v -0.240170 -1.013474 -0.550831
v -0.243092 -0.962781 -0.554494
v -0.289109 -0.965526 -0.555776
v -0.240170 -1.013474 -0.550831
v -0.199581 -1.012715 -0.572711
v -0.202504 -0.962022 -0.576374
v -0.243092 -0.962781 -0.554494
v -0.199581 -1.012715 -0.572711
v -0.175296 -1.014146 -0.611889
v -0.178218 -0.963453 -0.615552
v -0.202504 -0.962022 -0.576374
v -0.175296 -1.014146 -0.611889
v -0.173822 -1.017384 -0.657869
v -0.176744 -0.966691 -0.661532
v -0.178218 -0.963453 -0.615552
v -0.173822 -1.017384 -0.657869
v -0.195555 -1.021560 -0.698329
v -0.198477 -0.970867 -0.701992
v -0.176744 -0.966691 -0.661532
v -0.195555 -1.021560 -0.698329
v -0.234670 -1.025557 -0.722429
v -0.237592 -0.974864 -0.726092
v -0.198477 -0.970867 -0.701992
v -0.280687 -1.028302 -0.723710
v -0.321276 -1.029061 -0.701831
v -0.324198 -0.978368 -0.705494
v -0.283609 -0.977609 -0.727373
v -0.321276 -1.029061 -0.701831
v -0.345561 -1.027629 -0.662652
v -0.348483 -0.976936 -0.666315
v -0.324198 -0.978368 -0.705494
v -0.345561 -1.027629 -0.662652
v -0.347035 -1.024392 -0.616673
v -0.349957 -0.973699 -0.620336
v -0.348483 -0.976936 -0.666315
v -0.355058 -0.862877 -0.674558
v -0.330772 -0.864308 -0.713737
v -0.326390 -0.940348 -0.708242
v -0.350675 -0.938917 -0.669063
v -0.330772 -0.864308 -0.713737
v -0.290184 -0.863550 -0.735617
v -0.285801 -0.939589 -0.730121
v -0.326390 -0.940348 -0.708242
v -0.244167 -0.860805 -0.734335
v -0.205051 -0.856808 -0.710235
v -0.200668 -0.932847 -0.704740
v -0.239784 -0.936844 -0.728840
v -0.205051 -0.856808 -0.710235
v -0.183319 -0.852632 -0.669775
v -0.178936 -0.928671 -0.664280
v -0.200668 -0.932847 -0.704740
v -0.183319 -0.852632 -0.669775
v -0.184793 -0.849394 -0.623795
v -0.180410 -0.925433 -0.618300
v -0.178936 -0.928671 -0.664280
v -0.184793 -0.849394 -0.623795
v -0.209078 -0.847963 -0.584617
v -0.204695 -0.924002 -0.579122
v -0.180410 -0.925433 -0.618300
v -0.209078 -0.847963 -0.584617
v -0.249667 -0.848722 -0.562737
v -0.245284 -0.924761 -0.557242
v -0.204695 -0.924002 -0.579122
v -0.249667 -0.848722 -0.562737
v -0.295684 -0.851467 -0.564019
v -0.291301 -0.927506 -0.558524
v -0.245284 -0.924761 -0.557242
v -0.295684 -0.851467 -0.564019
v -0.334799 -0.855463 -0.588119
v -0.330416 -0.931503 -0.582623
v -0.291301 -0.927506 -0.558524
v -0.334799 -0.855463 -0.588119
v -0.356532 -0.859640 -0.628579
v -0.352149 -0.935679 -0.623083
v -0.330416 -0.931503 -0.582623
v -0.356532 -0.859640 -0.628579
v -0.355058 -0.862877 -0.674558
v -0.350675 -0.938917 -0.669063
v -0.352149 -0.935679 -0.623083
v -0.360171 -0.774164 -0.680969
v -0.335886 -0.775596 -0.720148
v -0.330772 -0.864308 -0.713737
v -0.355058 -0.862877 -0.674558
v -0.335886 -0.775596 -0.720148
v -0.295298 -0.774837 -0.742027
v -0.290184 -0.863550 -0.735617
v -0.330772 -0.864308 -0.713737
v -0.249281 -0.772092 -0.740745
v -0.210165 -0.768095 -0.716646
v -0.205051 -0.856808 -0.710235
v -0.244167 -0.860805 -0.734335
v -0.210165 -0.768095 -0.716646
v -0.188433 -0.763919 -0.676186
v -0.183319 -0.852632 -0.669775
v -0.205051 -0.856808 -0.710235
v -0.188433 -0.763919 -0.676186
v -0.189907 -0.760681 -0.630206
v -0.184793 -0.849394 -0.623795
v -0.183319 -0.852632 -0.669775
v -0.189907 -0.760681 -0.630206
v -0.214192 -0.759250 -0.591028
v -0.209078 -0.847963 -0.584617
v -0.184793 -0.849394 -0.623795
v -0.254781 -0.760009 -0.569148
v -0.300798 -0.762754 -0.570430
v -0.295684 -0.851467 -0.564019
v -0.249667 -0.848722 -0.562737
v -0.300798 -0.762754 -0.570430
v -0.339913 -0.766750 -0.594529
v -0.334799 -0.855463 -0.588119
v -0.295684 -0.851467 -0.564019
v -0.339913 -0.766750 -0.594529
v -0.361646 -0.770927 -0.634990
v -0.356532 -0.859640 -0.628579
v -0.334799 -0.855463 -0.588119
v -0.361646 -0.770927 -0.634990
v -0.360171 -0.774164 -0.680969
v -0.355058 -0.862877 -0.674558
v -0.356532 -0.859640 -0.628579
v -0.264910 -0.763716 -0.612366
v -0.260253 -0.762821 -0.603696
v -0.262445 -0.724801 -0.606444
v -0.267102 -0.725696 -0.615114
v -0.260253 -0.762821 -0.603696
v -0.251871 -0.761965 -0.598532
v -0.254063 -0.723945 -0.601280
v -0.262445 -0.724801 -0.606444
v -0.251871 -0.761965 -0.598532
v -0.242010 -0.761376 -0.598257
v -0.244202 -0.723357 -0.601005
v -0.254063 -0.723945 -0.601280
v -0.242010 -0.761376 -0.598257
v -0.233313 -0.761214 -0.602946
v -0.235504 -0.723194 -0.605694
v -0.244202 -0.723357 -0.601005
v -0.233313 -0.761214 -0.602946
v -0.228109 -0.761520 -0.611341
v -0.230301 -0.723501 -0.614089
v -0.235504 -0.723194 -0.605694
v -0.228109 -0.761520 -0.611341
v -0.227793 -0.762214 -0.621194
v -0.229985 -0.724195 -0.623941
v -0.230301 -0.723501 -0.614089
v -0.227793 -0.762214 -0.621194
v -0.232450 -0.763109 -0.629864
v -0.234642 -0.725089 -0.632612
v -0.229985 -0.724195 -0.623941
v -0.232450 -0.763109 -0.629864
v -0.240832 -0.763965 -0.635028
v -0.243023 -0.725946 -0.637776
v -0.234642 -0.725089 -0.632612
v -0.240832 -0.763965 -0.635028
v -0.250693 -0.764554 -0.635303
v -0.252884 -0.726534 -0.638050
v -0.243023 -0.725946 -0.637776
v -0.250693 -0.764554 -0.635303
v -0.259390 -0.764716 -0.630615
v -0.261582 -0.726697 -0.633362
v -0.252884 -0.726534 -0.638050
v -0.259390 -0.764716 -0.630615
v -0.264594 -0.764410 -0.622219
v -0.266786 -0.726390 -0.624967
v -0.261582 -0.726697 -0.633362
v -0.264594 -0.764410 -0.622219
v -0.264910 -0.763716 -0.612366
v -0.267102 -0.725696 -0.615114
v -0.266786 -0.726390 -0.624967
v -0.267102 -0.725696 -0.615114
v -0.262445 -0.724801 -0.606444
v -0.254063 -0.723945 -0.601280
v -0.244202 -0.723357 -0.601005
v -0.235504 -0.723194 -0.605694
v -0.230301 -0.723501 -0.614089
v -0.229985 -0.724195 -0.623941
v -0.234642 -0.725089 -0.632612
v -0.243023 -0.725946 -0.637776
v -0.252884 -0.726534 -0.638050
v -0.261582 -0.726697 -0.633362
v -0.266786 -0.726390 -0.624967
v -0.264594 -0.764410 -0.622219
v -0.259390 -0.764716 -0.630615
v -0.250693 -0.764554 -0.635303
v -0.240832 -0.763965 -0.635028
v -0.232450 -0.763109 -0.629864
v -0.227793 -0.762214 -0.621194
v -0.228109 -0.761520 -0.611341
v -0.233313 -0.761214 -0.602946
v -0.242010 -0.761376 -0.598257
v -0.251871 -0.761965 -0.598532
v -0.260253 -0.762821 -0.603696
v -0.264910 -0.763716 -0.612366
usemtl mat13

vn -0.880131 -0.016450 0.474447
vn -0.880131 -0.016450 0.474447
vn -0.880131 -0.016450 0.474447
vn -0.880131 -0.016450 0.474447
vn -0.526595 0.031038 0.849550
vn -0.526595 0.031038 0.849550
vn -0.526595 0.031038 0.849550
vn -0.526595 0.031038 0.849550
vn -0.031961 0.070204 0.997020
vn -0.031961 0.070204 0.997020
vn -0.031961 0.070204 0.997020
vn -0.031961 0.070204 0.997020
vn 0.471247 0.090566 0.877339
vn 0.471247 0.090566 0.877339
vn 0.471247 0.090566 0.877339
vn 0.471247 0.090566 0.877339
vn 0.848174 0.086658 0.522581
vn 0.848174 0.086658 0.522581
vn 0.848174 0.086658 0.522581
vn 0.848174 0.086658 0.522581
vn 0.997840 0.059526 0.027799
vn 0.997840 0.059526 0.027799
vn 0.997840 0.059526 0.027799
vn 0.997840 0.059526 0.027799
vn 0.880131 0.016452 -0.474446
vn 0.880131 0.016452 -0.474446
vn 0.880131 0.016452 -0.474446
vn 0.880131 0.016452 -0.474446
vn 0.526594 -0.031032 -0.849550
vn 0.526594 -0.031032 -0.849550
vn 0.526594 -0.031032 -0.849550
vn 0.526594 -0.031032 -0.849550
vn -0.471247 -0.090562 -0.877340
vn -0.471247 -0.090562 -0.877340
vn -0.471247 -0.090562 -0.877340
vn -0.471247 -0.090562 -0.877340
vn -0.848174 -0.086655 -0.522581
vn -0.848174 -0.086655 -0.522581
vn -0.848174 -0.086655 -0.522581
vn -0.848174 -0.086655 -0.522581
vn -0.997839 -0.059534 -0.027798
vn -0.997839 -0.059534 -0.027798
vn -0.997839 -0.059534 -0.027798
vn -0.997839 -0.059534 -0.027798
vn -0.848175 -0.086655 -0.522580
vn -0.848175 -0.086655 -0.522580
vn -0.848175 -0.086655 -0.522580
vn -0.848175 -0.086655 -0.522580
vn -0.471246 -0.090566 -0.877339
vn -0.471246 -0.090566 -0.877339
vn -0.471246 -0.090566 -0.877339
vn -0.471246 -0.090566 -0.877339
vn 0.526598 -0.031044 -0.849548
vn 0.526598 -0.031044 -0.849548
vn 0.526598 -0.031044 -0.849548
vn 0.526598 -0.031044 -0.849548
vn 0.880131 0.016442 -0.474447
vn 0.880131 0.016442 -0.474447
vn 0.880131 0.016442 -0.474447
vn 0.880131 0.016442 -0.474447
vn 0.997840 0.059523 0.027797
vn 0.997840 0.059523 0.027797
vn 0.997840 0.059523 0.027797
vn 0.997840 0.059523 0.027797
vn 0.848172 0.086655 0.522584
vn 0.848172 0.086655 0.522584
vn 0.848172 0.086655 0.522584
vn 0.848172 0.086655 0.522584
vn 0.471246 0.090568 0.877339
vn 0.471246 0.090568 0.877339
vn 0.471246 0.090568 0.877339
vn 0.471246 0.090568 0.877339
vn -0.031962 0.070213 0.997020
vn -0.031962 0.070213 0.997020
vn -0.031962 0.070213 0.997020
vn -0.031962 0.070213 0.997020
vn -0.526594 0.031044 0.849550
vn -0.526594 0.031044 0.849550
vn -0.526594 0.031044 0.849550
vn -0.526594 0.031044 0.849550
vn -0.880131 -0.016442 0.474445
vn -0.880131 -0.016442 0.474445
vn -0.880131 -0.016442 0.474445
vn -0.880131 -0.016442 0.474445
vn -0.997840 -0.059524 -0.027799
vn -0.997840 -0.059524 -0.027799
vn -0.997840 -0.059524 -0.027799
vn -0.997840 -0.059524 -0.027799
vn -0.848173 -0.086658 -0.522582
vn -0.848173 -0.086658 -0.522582
vn -0.848173 -0.086658 -0.522582
vn -0.848173 -0.086658 -0.522582
vn -0.471246 -0.090566 -0.877339
vn -0.471246 -0.090566 -0.877339
vn -0.471246 -0.090566 -0.877339
vn -0.471246 -0.090566 -0.877339
vn 0.526594 -0.031037 -0.849550
vn 0.526594 -0.031037 -0.849550
vn 0.526594 -0.031037 -0.849550
vn 0.526594 -0.031037 -0.849550
vn 0.880131 0.016450 -0.474446
vn 0.880131 0.016450 -0.474446
vn 0.880131 0.016450 -0.474446
vn 0.880131 0.016450 -0.474446
vn 0.997840 0.059530 0.027797
vn 0.997840 0.059530 0.027797
vn 0.997840 0.059530 0.027797
vn 0.997840 0.059530 0.027797
vn 0.848170 0.086659 0.522587
vn 0.848170 0.086659 0.522587
vn 0.848170 0.086659 0.522587
vn 0.848170 0.086659 0.522587
vn -0.031962 0.070210 0.997020
vn -0.031962 0.070210 0.997020
vn -0.031962 0.070210 0.997020
vn -0.031962 0.070210 0.997020
vn -0.526591 0.031038 0.849552
vn -0.526591 0.031038 0.849552
vn -0.526591 0.031038 0.849552
vn -0.526591 0.031038 0.849552
vn -0.880131 -0.016450 0.474445
vn -0.880131 -0.016450 0.474445
vn -0.880131 -0.016450 0.474445
vn -0.880131 -0.016450 0.474445
vn -0.997839 -0.059531 -0.027799
vn -0.997839 -0.059531 -0.027799
vn -0.997839 -0.059531 -0.027799
vn -0.997839 -0.059531 -0.027799
vn -0.972110 -0.039331 0.231202
vn -0.972110 -0.039331 0.231202
vn -0.972110 -0.039331 0.231202
vn -0.972110 -0.039331 0.231202
vn -0.728177 0.007549 0.685348
vn -0.728177 0.007549 0.685348
vn -0.728177 0.007549 0.685348
vn -0.728177 0.007549 0.685348
vn -0.289129 0.052406 0.955855
vn -0.289129 0.052406 0.955855
vn -0.289129 0.052406 0.955855
vn -0.289129 0.052406 0.955855
vn 0.227391 0.083220 0.970241
vn 0.227391 0.083220 0.970241
vn 0.227391 0.083220 0.970241
vn 0.227391 0.083220 0.970241
vn 0.682981 0.091736 0.724652
vn 0.682981 0.091736 0.724652
vn 0.682981 0.091736 0.724652
vn 0.682981 0.091736 0.724652
vn 0.955568 0.075672 0.284894
vn 0.955568 0.075672 0.284894
vn 0.955568 0.075672 0.284894
vn 0.955568 0.075672 0.284894
vn 0.972110 0.039331 -0.231202
vn 0.972110 0.039331 -0.231202
vn 0.972110 0.039331 -0.231202
vn 0.972110 0.039331 -0.231202
vn 0.728177 -0.007549 -0.685348
vn 0.728177 -0.007549 -0.685348
vn 0.728177 -0.007549 -0.685348
vn 0.728177 -0.007549 -0.685348
vn 0.289129 -0.052406 -0.955855
vn 0.289129 -0.052406 -0.955855
vn 0.289129 -0.052406 -0.955855
vn 0.289129 -0.052406 -0.955855
vn -0.227391 -0.083220 -0.970241
vn -0.227391 -0.083220 -0.970241
vn -0.227391 -0.083220 -0.970241
vn -0.227391 -0.083220 -0.970241
vn -0.682981 -0.091736 -0.724652
vn -0.682981 -0.091736 -0.724652
vn -0.682981 -0.091736 -0.724652
vn -0.682981 -0.091736 -0.724652
vn -0.955568 -0.075672 -0.284893
vn -0.955568 -0.075672 -0.284893
vn -0.955568 -0.075672 -0.284893
vn -0.955568 -0.075672 -0.284893
vn -0.057401 0.995755 -0.071956
vn -0.057401 0.995755 -0.071956
vn -0.057401 0.995755 -0.071956
vn -0.057401 0.995755 -0.071956
vn -0.057401 0.995755 -0.071956
vn -0.057401 0.995755 -0.071956
vn -0.057401 0.995755 -0.071956
vn -0.057401 0.995755 -0.071956
vn -0.057401 0.995755 -0.071956
vn -0.057401 0.995755 -0.071956
vn -0.057401 0.995755 -0.071956
vn -0.057401 0.995755 -0.071956
vn 0.057401 -0.995755 0.071956
vn 0.057401 -0.995755 0.071956
vn 0.057401 -0.995755 0.071956
vn 0.057401 -0.995755 0.071956
vn 0.057401 -0.995755 0.071956
vn 0.057401 -0.995755 0.071956
vn 0.057401 -0.995755 0.071956
vn 0.057401 -0.995755 0.071956
vn 0.057401 -0.995755 0.071956
vn 0.057401 -0.995755 0.071956
vn 0.057401 -0.995755 0.071956
vn 0.057401 -0.995755 0.071956

vt -0.009969 -0.052342
vt -0.014196 -0.050500
vt -0.012162 -0.045833
vt -0.007935 -0.047675
vt -0.020190 -0.063674
vt -0.022734 -0.059828
vt -0.018488 -0.057019
vt -0.015944 -0.060866
vt -0.021615 -0.077591
vt -0.023536 -0.073398
vt -0.018908 -0.071278
vt -0.016987 -0.075470
vt -0.021244 -0.080652
vt -0.023104 -0.076432
vt -0.018445 -0.074379
vt -0.016586 -0.078599
vt -0.019235 -0.071005
vt -0.021526 -0.067003
vt -0.017108 -0.064474
vt -0.014817 -0.068476
vt -0.010980 -0.056866
vt -0.014657 -0.054082
vt -0.011584 -0.050023
vt -0.007908 -0.052807
vt 0.014196 -0.050499
vt 0.009969 -0.052342
vt 0.007935 -0.047675
vt 0.012162 -0.045832
vt 0.022734 -0.059827
vt 0.020190 -0.063674
vt 0.015944 -0.060866
vt 0.018488 -0.057019
vt 0.023104 -0.076432
vt 0.021244 -0.080652
vt 0.016586 -0.078599
vt 0.018445 -0.074379
vt 0.021526 -0.067003
vt 0.019235 -0.071005
vt 0.014817 -0.068476
vt 0.017108 -0.064474
vt 0.014657 -0.054081
vt 0.010981 -0.056865
vt 0.007908 -0.052806
vt 0.011584 -0.050023
vt 0.004875 -0.062786
vt 0.007166 -0.058784
vt 0.013794 -0.062577
vt 0.011503 -0.066580
vt 0.006104 -0.073980
vt 0.007964 -0.069760
vt 0.014952 -0.072840
vt 0.013092 -0.077060
vt 0.006390 -0.054547
vt 0.008934 -0.050701
vt 0.015303 -0.054913
vt 0.012759 -0.058760
vt 0.003358 -0.037175
vt 0.007585 -0.035333
vt 0.010637 -0.042333
vt 0.006409 -0.044176
vt -0.004670 -0.040891
vt -0.000993 -0.043674
vt -0.005603 -0.049763
vt -0.009280 -0.046979
vt -0.007166 -0.058784
vt -0.004875 -0.062786
vt -0.011503 -0.066580
vt -0.013794 -0.062577
vt -0.007964 -0.069760
vt -0.006104 -0.073980
vt -0.013092 -0.077060
vt -0.014952 -0.072840
vt -0.008494 -0.066507
vt -0.006573 -0.070700
vt -0.013516 -0.073880
vt -0.015436 -0.069688
vt -0.008934 -0.050701
vt -0.006390 -0.054548
vt -0.012759 -0.058760
vt -0.015303 -0.054914
vt -0.007585 -0.035333
vt -0.003358 -0.037175
vt -0.006409 -0.044176
vt -0.010636 -0.042333
vt 0.000993 -0.043674
vt 0.004670 -0.040891
vt 0.009280 -0.046979
vt 0.005603 -0.049763
vt -0.002857 -0.058361
vt -0.000566 -0.054358
vt 0.007166 -0.058784
vt 0.004875 -0.062786
vt -0.002049 -0.070387
vt -0.000189 -0.066167
vt 0.007964 -0.069760
vt 0.006104 -0.073980
vt -0.001041 -0.049633
vt 0.001503 -0.045786
vt 0.008934 -0.050701
vt 0.006390 -0.054547
vt -0.000202 -0.029008
vt 0.004025 -0.027165
vt 0.007585 -0.035332
vt 0.003358 -0.037175
vt 0.000707 -0.033787
vt 0.004384 -0.036571
vt -0.000993 -0.043674
vt -0.004670 -0.040890
vt 0.000566 -0.054358
vt 0.002857 -0.058361
vt -0.004876 -0.062786
vt -0.007166 -0.058784
vt -0.000394 -0.062797
vt 0.001527 -0.066990
vt -0.006573 -0.070700
vt -0.008494 -0.066507
vt -0.001503 -0.045786
vt 0.001041 -0.049633
vt -0.006390 -0.054547
vt -0.008934 -0.050701
vt -0.004025 -0.027165
vt 0.000202 -0.029008
vt -0.003358 -0.037175
vt -0.007585 -0.035332
vt -0.004384 -0.036571
vt -0.000707 -0.033787
vt 0.004670 -0.040890
vt 0.000993 -0.043674
vt -0.007090 -0.028054
vt -0.008031 -0.028210
vt -0.008658 -0.024444
vt -0.007716 -0.024287
vt -0.004302 -0.033311
vt -0.004974 -0.032633
vt -0.002263 -0.029944
vt -0.001591 -0.030622
vt -0.001572 -0.054212
vt -0.002015 -0.053366
vt 0.001369 -0.051597
vt 0.001811 -0.052443
vt 0.000092 -0.066812
vt -0.000288 -0.065937
vt 0.003215 -0.064417
vt 0.003595 -0.065293
vt 0.001644 -0.064579
vt 0.001231 -0.063718
vt 0.004671 -0.062063
vt 0.005085 -0.062923
vt 0.003872 -0.048423
vt 0.003289 -0.047667
vt 0.006312 -0.045335
vt 0.006895 -0.046091
vt 0.007090 -0.028054
vt 0.006148 -0.027897
vt 0.006774 -0.024131
vt 0.007716 -0.024287
vt 0.004302 -0.033311
vt 0.003629 -0.033988
vt 0.000918 -0.031300
vt 0.001591 -0.030622
vt 0.001572 -0.054212
vt 0.001130 -0.055058
vt -0.002254 -0.053289
vt -0.001811 -0.052443
vt -0.000092 -0.066812
vt -0.000472 -0.067688
vt -0.003974 -0.066168
vt -0.003595 -0.065293
vt -0.001644 -0.064579
vt -0.002058 -0.065439
vt -0.005499 -0.063784
vt -0.005085 -0.062923
vt -0.003872 -0.048423
vt -0.004455 -0.049179
vt -0.007478 -0.046846
vt -0.006895 -0.046091
vt -0.007014 -0.063907
vt -0.007985 -0.063721
vt -0.008732 -0.063074
vt -0.009056 -0.062141
vt -0.008869 -0.061170
vt -0.008223 -0.060423
vt -0.007289 -0.060099
vt -0.006319 -0.060285
vt -0.005571 -0.060932
vt -0.005248 -0.061866
vt -0.005434 -0.062836
vt -0.006081 -0.063583
vt 0.006081 -0.063583
vt 0.005434 -0.062836
vt 0.005248 -0.061866
vt 0.005571 -0.060932
vt 0.006319 -0.060285
vt 0.007289 -0.060099
vt 0.008223 -0.060423
vt 0.008869 -0.061170
vt 0.009056 -0.062141
vt 0.008732 -0.063074
vt 0.007985 -0.063721
vt 0.007014 -0.063907
s off
f 1/1/1 2/2/2 3/3/3
f 1/1/1 3/3/3 4/4/4
f 5/5/5 6/6/6 7/7/7
f 5/5/5 7/7/7 8/8/8
f 9/9/9 10/10/10 11/11/11
f 9/9/9 11/11/11 12/12/12
f 13/13/13 14/14/14 15/15/15
f 13/13/13 15/15/15 16/16/16
f 17/17/17 18/18/18 19/19/19
f 17/17/17 19/19/19 20/20/20
f 21/21/21 22/22/22 23/23/23
f 21/21/21 23/23/23 24/24/24
f 25/25/25 26/26/26 27/27/27
f 25/25/25 27/27/27 28/28/28
f 29/29/29 30/30/30 31/31/31
f 29/29/29 31/31/31 32/32/32
f 33/33/33 34/34/34 35/35/35
f 33/33/33 35/35/35 36/36/36
f 37/37/37 38/38/38 39/39/39
f 37/37/37 39/39/39 40/40/40
f 41/41/41 42/42/42 43/43/43
f 41/41/41 43/43/43 44/44/44
f 45/45/45 46/46/46 47/47/47
f 45/45/45 47/47/47 48/48/48
f 49/49/49 50/50/50 51/51/51
f 49/49/49 51/51/51 52/52/52
f 53/53/53 54/54/54 55/55/55
f 53/53/53 55/55/55 56/56/56
f 57/57/57 58/58/58 59/59/59
f 57/57/57 59/59/59 60/60/60
f 61/61/61 62/62/62 63/63/63
f 61/61/61 63/63/63 64/64/64
f 65/65/65 66/66/66 67/67/67
f 65/65/65 67/67/67 68/68/68
f 69/69/69 70/70/70 71/71/71
f 69/69/69 71/71/71 72/72/72
f 73/73/73 74/74/74 75/75/75
f 73/73/73 75/75/75 76/76/76
f 77/77/77 78/78/78 79/79/79
f 77/77/77 79/79/79 80/80/80
f 81/81/81 82/82/82 83/83/83
f 81/81/81 83/83/83 84/84/84
f 85/85/85 86/86/86 87/87/87
f 85/85/85 87/87/87 88/88/88
f 89/89/89 90/90/90 91/91/91
f 89/89/89 91/91/91 92/92/92
f 93/93/93 94/94/94 95/95/95
f 93/93/93 95/95/95 96/96/96
f 97/97/97 98/98/98 99/99/99
f 97/97/97 99/99/99 100/100/100
f 101/101/101 102/102/102 103/103/103
f 101/101/101 103/103/103 104/104/104
f 105/105/105 106/106/106 107/107/107
f 105/105/105 107/107/107 108/108/108
f 109/109/109 110/110/110 111/111/111
f 109/109/109 111/111/111 112/112/112
f 113/113/113 114/114/114 115/115/115
f 113/113/113 115/115/115 116/116/116
f 117/117/117 118/118/118 119/119/119
f 117/117/117 119/119/119 120/120/120
f 121/121/121 122/122/122 123/123/123
f 121/121/121 123/123/123 124/124/124
f 125/125/125 126/126/126 127/127/127
f 125/125/125 127/127/127 128/128/128
f 129/129/129 130/130/130 131/131/131
f 129/129/129 131/131/131 132/132/132
f 133/133/133 134/134/134 135/135/135
f 133/133/133 135/135/135 136/136/136
f 137/137/137 138/138/138 139/139/139
f 137/137/137 139/139/139 140/140/140
f 141/141/141 142/142/142 143/143/143
f 141/141/141 143/143/143 144/144/144
f 145/145/145 146/146/146 147/147/147
f 145/145/145 147/147/147 148/148/148
f 149/149/149 150/150/150 151/151/151
f 149/149/149 151/151/151 152/152/152
f 153/153/153 154/154/154 155/155/155
f 153/153/153 155/155/155 156/156/156
f 157/157/157 158/158/158 159/159/159
f 157/157/157 159/159/159 160/160/160
f 161/161/161 162/162/162 163/163/163
f 161/161/161 163/163/163 164/164/164
f 165/165/165 166/166/166 167/167/167
f 165/165/165 167/167/167 168/168/168
f 169/169/169 170/170/170 171/171/171
f 169/169/169 171/171/171 172/172/172
f 173/173/173 174/174/174 175/175/175
f 173/173/173 175/175/175 176/176/176
f 177/177/177 178/178/178 179/179/179
f 177/177/177 179/179/179 180/180/180
f 177/177/177 180/180/180 181/181/181
f 177/177/177 181/181/181 182/182/182
f 177/177/177 182/182/182 183/183/183
f 177/177/177 183/183/183 184/184/184
f 177/177/177 184/184/184 185/185/185
f 177/177/177 185/185/185 186/186/186
f 177/177/177 186/186/186 187/187/187
f 177/177/177 187/187/187 188/188/188
f 189/189/189 190/190/190 191/191/191
f 189/189/189 191/191/191 192/192/192
f 189/189/189 192/192/192 193/193/193
f 189/189/189 193/193/193 194/194/194
f 189/189/189 194/194/194 195/195/195
f 189/189/189 195/195/195 196/196/196
f 189/189/189 196/196/196 197/197/197
f 189/189/189 197/197/197 198/198/198
f 189/189/189 198/198/198 199/199/199
f 189/189/189 199/199/199 200/200/200
