# Exported using automatic converter by Erwin Coumans
mtllib model6.mtl
#object group306549940_4

v -2.269570 -0.710344 -0.737648
v -2.269570 -0.688678 -0.737648
v -2.269570 -0.688678 -0.759314
v -2.269570 -0.710344 -0.759314
v -2.247903 -0.688678 -0.759314
v -2.247903 -0.688678 -0.737648
v -2.247903 -0.710344 -0.737648
v -2.247903 -0.710344 -0.759314
v -2.269570 -0.688678 -0.759314
v -2.247903 -0.688678 -0.759314
v -2.247903 -0.710344 -0.759314
v -2.269570 -0.710344 -0.759314
v -2.247903 -0.710344 -0.737648
v -2.247903 -0.688678 -0.737648
v -2.269570 -0.688678 -0.737648
v -2.269570 -0.710344 -0.737648
v -2.247903 -0.710344 -0.759314
v -2.247903 -0.710344 -0.737648
v -2.269570 -0.710344 -0.737648
v -2.269570 -0.710344 -0.759314
v -2.269570 -0.688678 -0.737648
v -2.247903 -0.688678 -0.737648
v -2.247903 -0.688678 -0.759314
v -2.269570 -0.688678 -0.759314
usemtl mat21

vn -1.000000 0.000000 -0.000000
vn -1.000000 0.000000 -0.000000
vn -1.000000 0.000000 -0.000000
vn -1.000000 0.000000 -0.000000
vn 1.000000 0.000000 0.000000
vn 1.000000 0.000000 0.000000
vn 1.000000 0.000000 0.000000
vn 1.000000 0.000000 0.000000
vn 0.000000 0.000000 -1.000000
vn 0.000000 0.000000 -1.000000
vn 0.000000 0.000000 -1.000000
vn 0.000000 0.000000 -1.000000
vn -0.000000 -0.000000 1.000000
vn -0.000000 -0.000000 1.000000
vn -0.000000 -0.000000 1.000000
vn -0.000000 -0.000000 1.000000
vn 0.000000 -1.000000 0.000000
vn 0.000000 -1.000000 0.000000
vn 0.000000 -1.000000 0.000000
vn 0.000000 -1.000000 0.000000
vn 0.000000 1.000000 -0.000000
vn 0.000000 1.000000 -0.000000
vn 0.000000 1.000000 -0.000000
vn 0.000000 1.000000 -0.000000

vt 0.000717 -0.027241
vt -0.000543 -0.025478
vt 0.001221 -0.024218
vt 0.002480 -0.025981
vt -0.001221 -0.024218
vt 0.000543 -0.025478
vt -0.000717 -0.027241
vt -0.002480 -0.025981
vt -0.097022 -0.239697
vt -0.096053 -0.237759
vt -0.094115 -0.238728
vt -0.095084 -0.240666
vt 0.094115 -0.238728
vt 0.096053 -0.237759
vt 0.097022 -0.239697
vt 0.095084 -0.240666
vt -0.073651 -0.245123
vt -0.071611 -0.245852
vt -0.072339 -0.247892
vt -0.074380 -0.247163
vt 0.072339 -0.247892
vt 0.071611 -0.245852
vt 0.073651 -0.245123
vt 0.074380 -0.247163
s off
f 1/1/1 2/2/2 3/3/3
f 1/1/1 3/3/3 4/4/4
f 5/5/5 6/6/6 7/7/7
f 5/5/5 7/7/7 8/8/8
f 9/9/9 10/10/10 11/11/11
f 9/9/9 11/11/11 12/12/12
f 13/13/13 14/14/14 15/15/15
f 13/13/13 15/15/15 16/16/16
f 17/17/17 18/18/18 19/19/19
f 17/17/17 19/19/19 20/20/20
f 21/21/21 22/22/22 23/23/23
f 21/21/21 23/23/23 24/24/24
