# Exported using automatic converter by Erwin Coumans
mtllib model6.mtl
#object group1655629968_2

v 0.586799 0.451406 -0.400404
v 0.586917 0.465890 -0.400468
v 0.587320 0.468786 0.258552
v 0.587202 0.454302 0.258616
v 0.572836 0.468904 0.258560
v 0.572433 0.466007 -0.400459
v 0.572315 0.451524 -0.400396
v 0.572719 0.454420 0.258624
v 0.587320 0.468786 0.258552
v 0.572836 0.468904 0.258560
v 0.572719 0.454420 0.258624
v 0.587202 0.454302 0.258616
v 0.572315 0.451524 -0.400396
v 0.572433 0.466007 -0.400459
v 0.586917 0.465890 -0.400468
v 0.586799 0.451406 -0.400404
v 0.572719 0.454420 0.258624
v 0.572315 0.451524 -0.400396
v 0.586799 0.451406 -0.400404
v 0.587202 0.454302 0.258616
v 0.586917 0.465890 -0.400468
v 0.572433 0.466007 -0.400459
v 0.572836 0.468904 0.258560
v 0.587320 0.468786 0.258552
v -0.122651 0.454857 0.062064
v -0.122488 0.475122 0.059078
v 0.587209 0.469356 0.058670
v 0.587047 0.449092 0.061656
v 0.587277 0.476661 0.073122
v -0.122420 0.482427 0.073531
v -0.122642 0.454921 0.076548
v 0.587055 0.449155 0.076139
v 0.587209 0.469356 0.058670
v 0.587277 0.476661 0.073122
v 0.587055 0.449155 0.076139
v 0.587047 0.449092 0.061656
v -0.122642 0.454921 0.076548
v -0.122420 0.482427 0.073531
v -0.122488 0.475122 0.059078
v -0.122651 0.454857 0.062064
v 0.587055 0.449155 0.076139
v -0.122642 0.454921 0.076548
v -0.122651 0.454857 0.062064
v 0.587047 0.449092 0.061656
v -0.122488 0.475122 0.059078
v -0.122420 0.482427 0.073531
v 0.587277 0.476661 0.073122
v 0.587209 0.469356 0.058670
v -0.122673 0.458789 -0.032104
v -0.122510 0.479053 -0.035089
v 0.587187 0.473287 -0.035498
v 0.587024 0.453023 -0.032512
v 0.587255 0.480593 -0.021046
v -0.122442 0.486358 -0.020637
v -0.122664 0.458852 -0.017620
v 0.587033 0.453087 -0.018028
v 0.587187 0.473287 -0.035498
v 0.587255 0.480593 -0.021046
v 0.587033 0.453087 -0.018028
v 0.587024 0.453023 -0.032512
v -0.122664 0.458852 -0.017620
v -0.122442 0.486358 -0.020637
v -0.122510 0.479053 -0.035089
v -0.122673 0.458789 -0.032104
v 0.587033 0.453087 -0.018028
v -0.122664 0.458852 -0.017620
v -0.122673 0.458789 -0.032104
v 0.587024 0.453023 -0.032512
v -0.122510 0.479053 -0.035089
v -0.122442 0.486358 -0.020637
v 0.587255 0.480593 -0.021046
v 0.587187 0.473287 -0.035498
v -0.130011 0.454063 -0.132018
v -0.129848 0.474327 -0.135004
v 0.579849 0.468561 -0.135412
v 0.579686 0.448297 -0.132427
v 0.579917 0.475867 -0.120960
v -0.129781 0.481632 -0.120551
v -0.130002 0.454127 -0.117534
v 0.579695 0.448361 -0.117943
v 0.579849 0.468561 -0.135412
v 0.579917 0.475867 -0.120960
v 0.579695 0.448361 -0.117943
v 0.579686 0.448297 -0.132427
v -0.130002 0.454127 -0.117534
v -0.129781 0.481632 -0.120551
v -0.129848 0.474327 -0.135004
v -0.130011 0.454063 -0.132018
v 0.579695 0.448361 -0.117943
v -0.130002 0.454127 -0.117534
v -0.130011 0.454063 -0.132018
v 0.579686 0.448297 -0.132427
v -0.129848 0.474327 -0.135004
v -0.129781 0.481632 -0.120551
v 0.579917 0.475867 -0.120960
v 0.579849 0.468561 -0.135412
v -0.122846 0.450726 -0.218913
v -0.122611 0.479692 -0.219040
v 0.587086 0.473927 -0.219449
v 0.586851 0.444960 -0.219322
v 0.587095 0.473991 -0.204965
v -0.122602 0.479756 -0.204556
v -0.122837 0.450789 -0.204429
v 0.586860 0.445024 -0.204838
v 0.587086 0.473927 -0.219449
v 0.587095 0.473991 -0.204965
v 0.586860 0.445024 -0.204838
v 0.586851 0.444960 -0.219322
v -0.122837 0.450789 -0.204429
v -0.122602 0.479756 -0.204556
v -0.122611 0.479692 -0.219040
v -0.122846 0.450726 -0.218913
v 0.586860 0.445024 -0.204838
v -0.122837 0.450789 -0.204429
v -0.122846 0.450726 -0.218913
v 0.586851 0.444960 -0.219322
v -0.122611 0.479692 -0.219040
v -0.122602 0.479756 -0.204556
v 0.587095 0.473991 -0.204965
v 0.587086 0.473927 -0.219449
v -0.115598 0.457527 -0.305854
v -0.115481 0.472010 -0.305917
v 0.586974 0.466303 -0.306322
v 0.586857 0.451820 -0.306258
v 0.586983 0.466367 -0.291838
v -0.115472 0.472074 -0.291433
v -0.115590 0.457590 -0.291370
v 0.586865 0.451884 -0.291774
v 0.586974 0.466303 -0.306322
v 0.586983 0.466367 -0.291838
v 0.586865 0.451884 -0.291774
v 0.586857 0.451820 -0.306258
v -0.115590 0.457590 -0.291370
v -0.115472 0.472074 -0.291433
v -0.115481 0.472010 -0.305917
v -0.115598 0.457527 -0.305854
v 0.586865 0.451884 -0.291774
v -0.115590 0.457590 -0.291370
v -0.115598 0.457527 -0.305854
v 0.586857 0.451820 -0.306258
v -0.115481 0.472010 -0.305917
v -0.115472 0.472074 -0.291433
v 0.586983 0.466367 -0.291838
v 0.586974 0.466303 -0.306322
v -0.115629 0.460718 -0.403635
v -0.115511 0.475201 -0.403699
v 0.586944 0.469494 -0.404103
v 0.586826 0.455011 -0.404040
v 0.586953 0.469558 -0.389619
v -0.115502 0.475265 -0.389215
v -0.115620 0.460782 -0.389151
v 0.586835 0.455075 -0.389556
v 0.586944 0.469494 -0.404103
v 0.586953 0.469558 -0.389619
v 0.586835 0.455075 -0.389556
v 0.586826 0.455011 -0.404040
v -0.115620 0.460782 -0.389151
v -0.115502 0.475265 -0.389215
v -0.115511 0.475201 -0.403699
v -0.115629 0.460718 -0.403635
v 0.586835 0.455075 -0.389556
v -0.115620 0.460782 -0.389151
v -0.115629 0.460718 -0.403635
v 0.586826 0.455011 -0.404040
v -0.115511 0.475201 -0.403699
v -0.115502 0.475265 -0.389215
v 0.586953 0.469558 -0.389619
v 0.586944 0.469494 -0.404103
v -0.129803 0.459649 0.150399
v -0.129685 0.474132 0.150335
v 0.580012 0.468367 0.149926
v 0.579894 0.453883 0.149990
v 0.580020 0.468430 0.164410
v -0.129677 0.474196 0.164819
v -0.129794 0.459713 0.164883
v 0.579903 0.453947 0.164474
v 0.580012 0.468367 0.149926
v 0.580020 0.468430 0.164410
v 0.579903 0.453947 0.164474
v 0.579894 0.453883 0.149990
v -0.129794 0.459713 0.164883
v -0.129677 0.474196 0.164819
v -0.129685 0.474132 0.150335
v -0.129803 0.459649 0.150399
v 0.579903 0.453947 0.164474
v -0.129794 0.459713 0.164883
v -0.129803 0.459649 0.150399
v 0.579894 0.453883 0.149990
v -0.129685 0.474132 0.150335
v -0.129677 0.474196 0.164819
v 0.580020 0.468430 0.164410
v 0.580012 0.468367 0.149926
v -0.129748 0.460047 0.240924
v -0.129630 0.474530 0.240860
v 0.580067 0.468765 0.240451
v 0.579949 0.454281 0.240515
v 0.580076 0.468828 0.254935
v -0.129621 0.474594 0.255344
v -0.129739 0.460110 0.255408
v 0.579958 0.454345 0.254999
v 0.580067 0.468765 0.240451
v 0.580076 0.468828 0.254935
v 0.579958 0.454345 0.254999
v 0.579949 0.454281 0.240515
v -0.129739 0.460110 0.255408
v -0.129621 0.474594 0.255344
v -0.129630 0.474530 0.240860
v -0.129748 0.460047 0.240924
v 0.579958 0.454345 0.254999
v -0.129739 0.460110 0.255408
v -0.129748 0.460047 0.240924
v 0.579949 0.454281 0.240515
v -0.129630 0.474530 0.240860
v -0.129621 0.474594 0.255344
v 0.580076 0.468828 0.254935
v 0.580067 0.468765 0.240451
v -0.115661 0.457081 -0.407241
v -0.115543 0.471564 -0.407304
v -0.115140 0.474460 0.251715
v -0.115257 0.459977 0.251779
v -0.129623 0.474578 0.251724
v -0.130027 0.471682 -0.407296
v -0.130144 0.457198 -0.407232
v -0.129741 0.460095 0.251787
v -0.115140 0.474460 0.251715
v -0.129623 0.474578 0.251724
v -0.129741 0.460095 0.251787
v -0.115257 0.459977 0.251779
v -0.130144 0.457198 -0.407232
v -0.130027 0.471682 -0.407296
v -0.115543 0.471564 -0.407304
v -0.115661 0.457081 -0.407241
v -0.129741 0.460095 0.251787
v -0.130144 0.457198 -0.407232
v -0.115661 0.457081 -0.407241
v -0.115257 0.459977 0.251779
v -0.115543 0.471564 -0.407304
v -0.130027 0.471682 -0.407296
v -0.129623 0.474578 0.251724
v -0.115140 0.474460 0.251715
usemtl mat23

vn 0.999967 -0.008124 -0.000576
vn 0.999967 -0.008124 -0.000576
vn 0.999967 -0.008124 -0.000576
vn 0.999967 -0.008124 -0.000576
vn -0.999967 0.008124 0.000576
vn -0.999967 0.008124 0.000576
vn -0.999967 0.008124 0.000576
vn -0.999967 0.008124 0.000576
vn 0.000612 0.004395 0.999990
vn 0.000612 0.004395 0.999990
vn 0.000612 0.004395 0.999990
vn 0.000612 0.004395 0.999990
vn -0.000612 -0.004395 -0.999990
vn -0.000612 -0.004395 -0.999990
vn -0.000612 -0.004395 -0.999990
vn -0.000612 -0.004395 -0.999990
vn -0.008121 -0.999957 0.004400
vn -0.008121 -0.999957 0.004400
vn -0.008121 -0.999957 0.004400
vn -0.008121 -0.999957 0.004400
vn 0.008121 0.999957 -0.004400
vn 0.008121 0.999957 -0.004400
vn 0.008121 0.999957 -0.004400
vn 0.008121 0.999957 -0.004400
vn -0.001754 -0.145764 -0.989318
vn -0.001754 -0.145764 -0.989318
vn -0.001754 -0.145764 -0.989318
vn -0.001754 -0.145764 -0.989318
vn 0.001459 0.109050 0.994035
vn 0.001459 0.109050 0.994035
vn 0.001459 0.109050 0.994035
vn 0.001459 0.109050 0.994035
vn 0.999967 -0.008124 -0.000576
vn 0.999967 -0.008124 -0.000576
vn 0.999967 -0.008124 -0.000576
vn 0.999967 -0.008124 -0.000576
vn -0.999967 0.008124 0.000576
vn -0.999967 0.008124 0.000576
vn -0.999967 0.008124 0.000576
vn -0.999967 0.008124 0.000576
vn -0.008121 -0.999957 0.004400
vn -0.008121 -0.999957 0.004400
vn -0.008121 -0.999957 0.004400
vn -0.008121 -0.999957 0.004400
vn 0.006990 0.892425 -0.451142
vn 0.006990 0.892425 -0.451142
vn 0.006990 0.892425 -0.451142
vn 0.006990 0.892425 -0.451142
vn -0.001754 -0.145764 -0.989318
vn -0.001754 -0.145764 -0.989318
vn -0.001754 -0.145764 -0.989318
vn -0.001754 -0.145764 -0.989318
vn 0.001459 0.109050 0.994035
vn 0.001459 0.109050 0.994035
vn 0.001459 0.109050 0.994035
vn 0.001459 0.109050 0.994035
vn 0.999967 -0.008124 -0.000576
vn 0.999967 -0.008124 -0.000576
vn 0.999967 -0.008124 -0.000576
vn 0.999967 -0.008124 -0.000576
vn -0.999967 0.008124 0.000576
vn -0.999967 0.008124 0.000576
vn -0.999967 0.008124 0.000576
vn -0.999967 0.008124 0.000576
vn -0.008121 -0.999957 0.004400
vn -0.008121 -0.999957 0.004400
vn -0.008121 -0.999957 0.004400
vn -0.008121 -0.999957 0.004400
vn 0.006990 0.892425 -0.451142
vn 0.006990 0.892425 -0.451142
vn 0.006990 0.892425 -0.451142
vn 0.006990 0.892425 -0.451142
vn -0.001754 -0.145764 -0.989318
vn -0.001754 -0.145764 -0.989318
vn -0.001754 -0.145764 -0.989318
vn -0.001754 -0.145764 -0.989318
vn 0.001459 0.109050 0.994035
vn 0.001459 0.109050 0.994035
vn 0.001459 0.109050 0.994035
vn 0.001459 0.109050 0.994035
vn 0.999967 -0.008124 -0.000576
vn 0.999967 -0.008124 -0.000576
vn 0.999967 -0.008124 -0.000576
vn 0.999967 -0.008124 -0.000576
vn -0.999967 0.008124 0.000576
vn -0.999967 0.008124 0.000576
vn -0.999967 0.008124 0.000576
vn -0.999967 0.008124 0.000576
vn -0.008121 -0.999957 0.004400
vn -0.008121 -0.999957 0.004400
vn -0.008121 -0.999957 0.004400
vn -0.008121 -0.999957 0.004400
vn 0.006990 0.892425 -0.451142
vn 0.006990 0.892425 -0.451142
vn 0.006990 0.892425 -0.451142
vn 0.006990 0.892425 -0.451142
vn -0.000612 -0.004395 -0.999990
vn -0.000612 -0.004395 -0.999990
vn -0.000612 -0.004395 -0.999990
vn -0.000612 -0.004395 -0.999990
vn 0.000612 0.004395 0.999990
vn 0.000612 0.004395 0.999990
vn 0.000612 0.004395 0.999990
vn 0.000612 0.004395 0.999990
vn 0.999967 -0.008124 -0.000576
vn 0.999967 -0.008124 -0.000576
vn 0.999967 -0.008124 -0.000576
vn 0.999967 -0.008124 -0.000576
vn -0.999967 0.008124 0.000576
vn -0.999967 0.008124 0.000576
vn -0.999967 0.008124 0.000576
vn -0.999967 0.008124 0.000576
vn -0.008121 -0.999957 0.004400
vn -0.008121 -0.999957 0.004400
vn -0.008121 -0.999957 0.004400
vn -0.008121 -0.999957 0.004400
vn 0.008121 0.999957 -0.004400
vn 0.008121 0.999957 -0.004400
vn 0.008121 0.999957 -0.004400
vn 0.008121 0.999957 -0.004400
vn -0.000612 -0.004395 -0.999990
vn -0.000612 -0.004395 -0.999990
vn -0.000612 -0.004395 -0.999990
vn -0.000612 -0.004395 -0.999990
vn 0.000612 0.004395 0.999990
vn 0.000612 0.004395 0.999990
vn 0.000612 0.004395 0.999990
vn 0.000612 0.004395 0.999990
vn 0.999967 -0.008124 -0.000576
vn 0.999967 -0.008124 -0.000576
vn 0.999967 -0.008124 -0.000576
vn 0.999967 -0.008124 -0.000576
vn -0.999967 0.008124 0.000576
vn -0.999967 0.008124 0.000576
vn -0.999967 0.008124 0.000576
vn -0.999967 0.008124 0.000576
vn -0.008121 -0.999957 0.004400
vn -0.008121 -0.999957 0.004400
vn -0.008121 -0.999957 0.004400
vn -0.008121 -0.999957 0.004400
vn 0.008121 0.999957 -0.004400
vn 0.008121 0.999957 -0.004400
vn 0.008121 0.999957 -0.004400
vn 0.008121 0.999957 -0.004400
vn -0.000612 -0.004395 -0.999990
vn -0.000612 -0.004395 -0.999990
vn -0.000612 -0.004395 -0.999990
vn -0.000612 -0.004395 -0.999990
vn 0.000612 0.004395 0.999990
vn 0.000612 0.004395 0.999990
vn 0.000612 0.004395 0.999990
vn 0.000612 0.004395 0.999990
vn 0.999967 -0.008124 -0.000576
vn 0.999967 -0.008124 -0.000576
vn 0.999967 -0.008124 -0.000576
vn 0.999967 -0.008124 -0.000576
vn -0.999967 0.008124 0.000576
vn -0.999967 0.008124 0.000576
vn -0.999967 0.008124 0.000576
vn -0.999967 0.008124 0.000576
vn -0.008121 -0.999957 0.004400
vn -0.008121 -0.999957 0.004400
vn -0.008121 -0.999957 0.004400
vn -0.008121 -0.999957 0.004400
vn 0.008121 0.999957 -0.004400
vn 0.008121 0.999957 -0.004400
vn 0.008121 0.999957 -0.004400
vn 0.008121 0.999957 -0.004400
vn -0.000612 -0.004395 -0.999990
vn -0.000612 -0.004395 -0.999990
vn -0.000612 -0.004395 -0.999990
vn -0.000612 -0.004395 -0.999990
vn 0.000612 0.004395 0.999990
vn 0.000612 0.004395 0.999990
vn 0.000612 0.004395 0.999990
vn 0.000612 0.004395 0.999990
vn 0.999967 -0.008124 -0.000576
vn 0.999967 -0.008124 -0.000576
vn 0.999967 -0.008124 -0.000576
vn 0.999967 -0.008124 -0.000576
vn -0.999967 0.008124 0.000576
vn -0.999967 0.008124 0.000576
vn -0.999967 0.008124 0.000576
vn -0.999967 0.008124 0.000576
vn -0.008121 -0.999957 0.004400
vn -0.008121 -0.999957 0.004400
vn -0.008121 -0.999957 0.004400
vn -0.008121 -0.999957 0.004400
vn 0.008121 0.999957 -0.004400
vn 0.008121 0.999957 -0.004400
vn 0.008121 0.999957 -0.004400
vn 0.008121 0.999957 -0.004400
vn -0.000612 -0.004395 -0.999990
vn -0.000612 -0.004395 -0.999990
vn -0.000612 -0.004395 -0.999990
vn -0.000612 -0.004395 -0.999990
vn 0.000612 0.004395 0.999990
vn 0.000612 0.004395 0.999990
vn 0.000612 0.004395 0.999990
vn 0.000612 0.004395 0.999990
vn 0.999967 -0.008124 -0.000576
vn 0.999967 -0.008124 -0.000576
vn 0.999967 -0.008124 -0.000576
vn 0.999967 -0.008124 -0.000576
vn -0.999967 0.008124 0.000576
vn -0.999967 0.008124 0.000576
vn -0.999967 0.008124 0.000576
vn -0.999967 0.008124 0.000576
vn -0.008121 -0.999957 0.004400
vn -0.008121 -0.999957 0.004400
vn -0.008121 -0.999957 0.004400
vn -0.008121 -0.999957 0.004400
vn 0.008121 0.999957 -0.004400
vn 0.008121 0.999957 -0.004400
vn 0.008121 0.999957 -0.004400
vn 0.008121 0.999957 -0.004400
vn 0.999967 -0.008124 -0.000576
vn 0.999967 -0.008124 -0.000576
vn 0.999967 -0.008124 -0.000576
vn 0.999967 -0.008124 -0.000576
vn -0.999967 0.008124 0.000576
vn -0.999967 0.008124 0.000576
vn -0.999967 0.008124 0.000576
vn -0.999967 0.008124 0.000576
vn 0.000612 0.004395 0.999990
vn 0.000612 0.004395 0.999990
vn 0.000612 0.004395 0.999990
vn 0.000612 0.004395 0.999990
vn -0.000612 -0.004395 -0.999990
vn -0.000612 -0.004395 -0.999990
vn -0.000612 -0.004395 -0.999990
vn -0.000612 -0.004395 -0.999990
vn -0.008121 -0.999957 0.004400
vn -0.008121 -0.999957 0.004400
vn -0.008121 -0.999957 0.004400
vn -0.008121 -0.999957 0.004400
vn 0.008121 0.999957 -0.004400
vn 0.008121 0.999957 -0.004400
vn 0.008121 0.999957 -0.004400
vn 0.008121 0.999957 -0.004400

vt 0.093991 0.048651
vt 0.094818 0.049841
vt 0.148929 0.012222
vt 0.148102 0.011033
vt -0.148929 0.012222
vt -0.094818 0.049841
vt -0.093991 0.048651
vt -0.148102 0.011033
vt 0.072285 0.067390
vt 0.072945 0.066100
vt 0.071656 0.065440
vt 0.070996 0.066730
vt -0.071656 0.065440
vt -0.072945 0.066100
vt -0.072285 0.067390
vt -0.070996 0.066730
vt 0.117222 -0.014507
vt 0.055131 0.007580
vt 0.055616 0.008945
vt 0.117708 -0.013142
vt -0.055616 0.008945
vt -0.055131 0.007580
vt -0.117222 -0.014507
vt -0.117708 -0.013142
vt -0.090125 -0.000069
vt -0.091914 0.000927
vt -0.057387 0.062934
vt -0.055598 0.061938
vt 0.061856 0.064618
vt 0.095872 0.002329
vt 0.093443 0.001003
vt 0.059428 0.063292
vt 0.132600 0.023750
vt 0.134203 0.023518
vt 0.132869 0.021093
vt 0.131680 0.021920
vt -0.132869 0.021093
vt -0.134203 0.023518
vt -0.132600 0.023750
vt -0.131680 0.021920
vt 0.100514 -0.007026
vt 0.076728 -0.073894
vt 0.075363 -0.073408
vt 0.099149 -0.006541
vt -0.123411 -0.055106
vt -0.125024 -0.055250
vt -0.131340 0.015441
vt -0.129727 0.015585
vt -0.091664 0.000788
vt -0.093453 0.001784
vt -0.058926 0.063791
vt -0.057137 0.062795
vt 0.063101 0.065298
vt 0.097116 0.003008
vt 0.094687 0.001682
vt 0.060672 0.063972
vt 0.125118 0.029481
vt 0.126720 0.029249
vt 0.125387 0.026824
vt 0.124198 0.027651
vt -0.125387 0.026824
vt -0.126720 0.029249
vt -0.125118 0.029481
vt -0.124198 0.027651
vt 0.091643 -0.003871
vt 0.067857 -0.070738
vt 0.066493 -0.070253
vt 0.090278 -0.003385
vt -0.115217 -0.054374
vt -0.116830 -0.054518
vt -0.123145 0.016173
vt -0.121533 0.016317
vt -0.092875 0.000633
vt -0.094665 0.001630
vt -0.060138 0.063637
vt -0.058348 0.062640
vt 0.063987 0.064957
vt 0.098002 0.002667
vt 0.095573 0.001341
vt 0.061558 0.063630
vt 0.116664 0.034829
vt 0.118267 0.034597
vt 0.116933 0.032172
vt 0.115744 0.032999
vt -0.116933 0.032172
vt -0.118267 0.034597
vt -0.116664 0.034829
vt -0.115744 0.032999
vt 0.081984 -0.001204
vt 0.058199 -0.068071
vt 0.056834 -0.067586
vt 0.080620 -0.000718
vt -0.106056 -0.054282
vt -0.107669 -0.054426
vt -0.113984 0.016264
vt -0.112371 0.016408
vt -0.102679 0.003218
vt -0.105258 0.004537
vt -0.072930 0.067719
vt -0.070351 0.066400
vt 0.072930 0.067719
vt 0.105258 0.004537
vt 0.102679 0.003218
vt 0.070351 0.066400
vt 0.110097 0.040100
vt 0.111286 0.039274
vt 0.109633 0.036895
vt 0.108443 0.037722
vt -0.109633 0.036895
vt -0.111286 0.039274
vt -0.110097 0.040100
vt -0.108443 0.037722
vt 0.074039 0.002391
vt 0.050254 -0.064476
vt 0.048889 -0.063991
vt 0.072675 0.002877
vt -0.048889 -0.063991
vt -0.050254 -0.064476
vt -0.074039 0.002391
vt -0.072675 0.002877
vt -0.102994 0.004193
vt -0.104283 0.004852
vt -0.072285 0.067390
vt -0.070996 0.066730
vt 0.072285 0.067390
vt 0.104283 0.004852
vt 0.102994 0.004193
vt 0.070996 0.066730
vt 0.102548 0.044467
vt 0.103737 0.043640
vt 0.102910 0.042451
vt 0.101721 0.043277
vt -0.102910 0.042451
vt -0.103737 0.043640
vt -0.102548 0.044467
vt -0.101721 0.043277
vt 0.065851 0.005304
vt 0.042308 -0.060881
vt 0.040944 -0.060396
vt 0.064487 0.005789
vt -0.040944 -0.060396
vt -0.042308 -0.060881
vt -0.065851 0.005304
vt -0.064487 0.005789
vt -0.103316 0.004358
vt -0.104606 0.005017
vt -0.072608 0.067554
vt -0.071318 0.066895
vt 0.072608 0.067554
vt 0.104606 0.005017
vt 0.103316 0.004358
vt 0.071318 0.066895
vt 0.094727 0.050345
vt 0.095917 0.049518
vt 0.095090 0.048329
vt 0.093900 0.049155
vt -0.095090 0.048329
vt -0.095917 0.049518
vt -0.094727 0.050345
vt -0.093900 0.049155
vt 0.056640 0.008580
vt 0.033097 -0.057605
vt 0.031732 -0.057119
vt 0.055275 0.009066
vt -0.031732 -0.057119
vt -0.033097 -0.057605
vt -0.056640 0.008580
vt -0.055275 0.009066
vt -0.103653 0.002903
vt -0.104943 0.003563
vt -0.072615 0.066745
vt -0.071326 0.066085
vt 0.072615 0.066745
vt 0.104943 0.003563
vt 0.103653 0.002903
vt 0.071326 0.066085
vt 0.140009 0.018423
vt 0.141199 0.017596
vt 0.140372 0.016407
vt 0.139182 0.017234
vt -0.140372 0.016407
vt -0.141199 0.017596
vt -0.140009 0.018423
vt -0.139182 0.017234
vt 0.108595 -0.010669
vt 0.084809 -0.077537
vt 0.083445 -0.077051
vt 0.107230 -0.010184
vt -0.083445 -0.077051
vt -0.084809 -0.077537
vt -0.108595 -0.010669
vt -0.107230 -0.010184
vt -0.103653 0.002903
vt -0.104943 0.003563
vt -0.072615 0.066745
vt -0.071326 0.066085
vt 0.072615 0.066745
vt 0.104943 0.003563
vt 0.103653 0.002903
vt 0.071326 0.066085
vt 0.147442 0.013255
vt 0.148631 0.012429
vt 0.147805 0.011239
vt 0.146615 0.012066
vt -0.147805 0.011239
vt -0.148631 0.012429
vt -0.147442 0.013255
vt -0.146615 0.012066
vt 0.117124 -0.013703
vt 0.093338 -0.080571
vt 0.091974 -0.080085
vt 0.115759 -0.013218
vt -0.091974 -0.080085
vt -0.093338 -0.080571
vt -0.117124 -0.013703
vt -0.115759 -0.013218
vt 0.093396 0.049065
vt 0.094223 0.050254
vt 0.148334 0.012635
vt 0.147507 0.011446
vt -0.148334 0.012635
vt -0.094223 0.050254
vt -0.093396 0.049065
vt -0.147507 0.011446
vt 0.104283 0.004852
vt 0.104943 0.003563
vt 0.103653 0.002903
vt 0.102994 0.004193
vt -0.103653 0.002903
vt -0.104943 0.003563
vt -0.104283 0.004852
vt -0.102994 0.004193
vt 0.092997 -0.080449
vt 0.030906 -0.058363
vt 0.031391 -0.056998
vt 0.093483 -0.079085
vt -0.031391 -0.056998
vt -0.030906 -0.058363
vt -0.092997 -0.080449
vt -0.093483 -0.079085
s off
f 1/1/1 2/2/2 3/3/3
f 1/1/1 3/3/3 4/4/4
f 5/5/5 6/6/6 7/7/7
f 5/5/5 7/7/7 8/8/8
f 9/9/9 10/10/10 11/11/11
f 9/9/9 11/11/11 12/12/12
f 13/13/13 14/14/14 15/15/15
f 13/13/13 15/15/15 16/16/16
f 17/17/17 18/18/18 19/19/19
f 17/17/17 19/19/19 20/20/20
f 21/21/21 22/22/22 23/23/23
f 21/21/21 23/23/23 24/24/24
f 25/25/25 26/26/26 27/27/27
f 25/25/25 27/27/27 28/28/28
f 29/29/29 30/30/30 31/31/31
f 29/29/29 31/31/31 32/32/32
f 33/33/33 34/34/34 35/35/35
f 33/33/33 35/35/35 36/36/36
f 37/37/37 38/38/38 39/39/39
f 37/37/37 39/39/39 40/40/40
f 41/41/41 42/42/42 43/43/43
f 41/41/41 43/43/43 44/44/44
f 45/45/45 46/46/46 47/47/47
f 45/45/45 47/47/47 48/48/48
f 49/49/49 50/50/50 51/51/51
f 49/49/49 51/51/51 52/52/52
f 53/53/53 54/54/54 55/55/55
f 53/53/53 55/55/55 56/56/56
f 57/57/57 58/58/58 59/59/59
f 57/57/57 59/59/59 60/60/60
f 61/61/61 62/62/62 63/63/63
f 61/61/61 63/63/63 64/64/64
f 65/65/65 66/66/66 67/67/67
f 65/65/65 67/67/67 68/68/68
f 69/69/69 70/70/70 71/71/71
f 69/69/69 71/71/71 72/72/72
f 73/73/73 74/74/74 75/75/75
f 73/73/73 75/75/75 76/76/76
f 77/77/77 78/78/78 79/79/79
f 77/77/77 79/79/79 80/80/80
f 81/81/81 82/82/82 83/83/83
f 81/81/81 83/83/83 84/84/84
f 85/85/85 86/86/86 87/87/87
f 85/85/85 87/87/87 88/88/88
f 89/89/89 90/90/90 91/91/91
f 89/89/89 91/91/91 92/92/92
f 93/93/93 94/94/94 95/95/95
f 93/93/93 95/95/95 96/96/96
f 97/97/97 98/98/98 99/99/99
f 97/97/97 99/99/99 100/100/100
f 101/101/101 102/102/102 103/103/103
f 101/101/101 103/103/103 104/104/104
f 105/105/105 106/106/106 107/107/107
f 105/105/105 107/107/107 108/108/108
f 109/109/109 110/110/110 111/111/111
f 109/109/109 111/111/111 112/112/112
f 113/113/113 114/114/114 115/115/115
f 113/113/113 115/115/115 116/116/116
f 117/117/117 118/118/118 119/119/119
f 117/117/117 119/119/119 120/120/120
f 121/121/121 122/122/122 123/123/123
f 121/121/121 123/123/123 124/124/124
f 125/125/125 126/126/126 127/127/127
f 125/125/125 127/127/127 128/128/128
f 129/129/129 130/130/130 131/131/131
f 129/129/129 131/131/131 132/132/132
f 133/133/133 134/134/134 135/135/135
f 133/133/133 135/135/135 136/136/136
f 137/137/137 138/138/138 139/139/139
f 137/137/137 139/139/139 140/140/140
f 141/141/141 142/142/142 143/143/143
f 141/141/141 143/143/143 144/144/144
f 145/145/145 146/146/146 147/147/147
f 145/145/145 147/147/147 148/148/148
f 149/149/149 150/150/150 151/151/151
f 149/149/149 151/151/151 152/152/152
f 153/153/153 154/154/154 155/155/155
f 153/153/153 155/155/155 156/156/156
f 157/157/157 158/158/158 159/159/159
f 157/157/157 159/159/159 160/160/160
f 161/161/161 162/162/162 163/163/163
f 161/161/161 163/163/163 164/164/164
f 165/165/165 166/166/166 167/167/167
f 165/165/165 167/167/167 168/168/168
f 169/169/169 170/170/170 171/171/171
f 169/169/169 171/171/171 172/172/172
f 173/173/173 174/174/174 175/175/175
f 173/173/173 175/175/175 176/176/176
f 177/177/177 178/178/178 179/179/179
f 177/177/177 179/179/179 180/180/180
f 181/181/181 182/182/182 183/183/183
f 181/181/181 183/183/183 184/184/184
f 185/185/185 186/186/186 187/187/187
f 185/185/185 187/187/187 188/188/188
f 189/189/189 190/190/190 191/191/191
f 189/189/189 191/191/191 192/192/192
f 193/193/193 194/194/194 195/195/195
f 193/193/193 195/195/195 196/196/196
f 197/197/197 198/198/198 199/199/199
f 197/197/197 199/199/199 200/200/200
f 201/201/201 202/202/202 203/203/203
f 201/201/201 203/203/203 204/204/204
f 205/205/205 206/206/206 207/207/207
f 205/205/205 207/207/207 208/208/208
f 209/209/209 210/210/210 211/211/211
f 209/209/209 211/211/211 212/212/212
f 213/213/213 214/214/214 215/215/215
f 213/213/213 215/215/215 216/216/216
f 217/217/217 218/218/218 219/219/219
f 217/217/217 219/219/219 220/220/220
f 221/221/221 222/222/222 223/223/223
f 221/221/221 223/223/223 224/224/224
f 225/225/225 226/226/226 227/227/227
f 225/225/225 227/227/227 228/228/228
f 229/229/229 230/230/230 231/231/231
f 229/229/229 231/231/231 232/232/232
f 233/233/233 234/234/234 235/235/235
f 233/233/233 235/235/235 236/236/236
f 237/237/237 238/238/238 239/239/239
f 237/237/237 239/239/239 240/240/240
