# Exported using automatic converter by Erwin Coumans
mtllib model6.mtl
#object mesh30914395

v -1.831762 0.105489 2.299851
v -1.831762 0.105489 2.269852
v -1.831762 -0.104511 2.269852
v -1.831762 -0.104511 2.299852
v -1.121762 -0.104511 2.269852
v -1.121762 0.105489 2.269852
v -1.121762 0.105489 2.299852
v -1.121762 -0.104511 2.299852
v -1.831762 -0.104511 2.269852
v -1.121762 -0.104511 2.269852
v -1.121762 -0.104511 2.299852
v -1.831762 -0.104511 2.299852
v -1.121762 0.105489 2.299852
v -1.121762 0.105489 2.269852
v -1.831762 0.105489 2.269852
v -1.831762 0.105489 2.299851
v -1.121762 -0.104511 2.299852
v -1.121762 0.105489 2.299852
v -1.831762 0.105489 2.299851
v -1.831762 -0.104511 2.299852
v -1.831762 0.105489 2.269852
v -1.121762 0.105489 2.269852
v -1.121762 -0.104511 2.269852
v -1.831762 -0.104511 2.269852
usemtl mat24

vn -1.000000 0.000000 -0.000000
vn -1.000000 0.000000 -0.000000
vn -1.000000 0.000000 -0.000000
vn -1.000000 0.000000 -0.000000
vn 1.000000 0.000000 0.000000
vn 1.000000 0.000000 0.000000
vn 1.000000 0.000000 0.000000
vn 1.000000 0.000000 0.000000
vn -0.000000 -1.000000 0.000000
vn -0.000000 -1.000000 0.000000
vn -0.000000 -1.000000 0.000000
vn -0.000000 -1.000000 0.000000
vn 0.000000 1.000000 -0.000000
vn 0.000000 1.000000 -0.000000
vn 0.000000 1.000000 -0.000000
vn 0.000000 1.000000 -0.000000
vn -0.000000 0.000000 1.000000
vn -0.000000 0.000000 1.000000
vn -0.000000 0.000000 1.000000
vn -0.000000 0.000000 1.000000
vn 0.000000 -0.000000 -1.000000
vn 0.000000 -0.000000 -1.000000
vn 0.000000 -0.000000 -1.000000
vn 0.000000 -0.000000 -1.000000

vt -0.293874 -0.137405
vt -0.291433 -0.135661
vt -0.279227 -0.152749
vt -0.281668 -0.154493
vt 0.279227 -0.152749
vt 0.291433 -0.135661
vt 0.293874 -0.137405
vt 0.281668 -0.154493
vt 0.225615 -0.307815
vt 0.249494 -0.240951
vt 0.252320 -0.241960
vt 0.228440 -0.308824
vt -0.252320 -0.241960
vt -0.249494 -0.240951
vt -0.225615 -0.307815
vt -0.228440 -0.308824
vt 0.097940 -0.110909
vt 0.116723 -0.101517
vt 0.148475 -0.165022
vt 0.129692 -0.174413
vt -0.148475 -0.165022
vt -0.116723 -0.101517
vt -0.097940 -0.110909
vt -0.129692 -0.174413
s off
f 1/1/1 2/2/2 3/3/3
f 1/1/1 3/3/3 4/4/4
f 5/5/5 6/6/6 7/7/7
f 5/5/5 7/7/7 8/8/8
f 9/9/9 10/10/10 11/11/11
f 9/9/9 11/11/11 12/12/12
f 13/13/13 14/14/14 15/15/15
f 13/13/13 15/15/15 16/16/16
f 17/17/17 18/18/18 19/19/19
f 17/17/17 19/19/19 20/20/20
f 21/21/21 22/22/22 23/23/23
f 21/21/21 23/23/23 24/24/24
