# Exported using automatic converter by Erwin Coumans
mtllib model6.mtl
#object group1093795503_1

v -2.462400 -0.561931 1.514193
v -2.463261 -0.531945 1.514492
v -2.462533 -0.531626 1.484502
v -2.461672 -0.561612 1.484204
v -2.392582 -0.529635 1.486223
v -2.393310 -0.529955 1.516212
v -2.392450 -0.559941 1.515914
v -2.391721 -0.559622 1.485924
v -2.462533 -0.531626 1.484502
v -2.392582 -0.529635 1.486223
v -2.391721 -0.559622 1.485924
v -2.461672 -0.561612 1.484204
v -2.392450 -0.559941 1.515914
v -2.393310 -0.529955 1.516212
v -2.463261 -0.531945 1.514492
v -2.462400 -0.561931 1.514193
v -2.391721 -0.559622 1.485924
v -2.392450 -0.559941 1.515914
v -2.462400 -0.561931 1.514193
v -2.461672 -0.561612 1.484204
v -2.463261 -0.531945 1.514492
v -2.393310 -0.529955 1.516212
v -2.392582 -0.529635 1.486223
v -2.462533 -0.531626 1.484502
v -2.569210 -0.553573 1.371639
v -2.570071 -0.523587 1.371938
v -2.540092 -0.522734 1.372675
v -2.539232 -0.552720 1.372377
v -2.542277 -0.523692 1.462643
v -2.572256 -0.524545 1.461906
v -2.571395 -0.554531 1.461608
v -2.541416 -0.553678 1.462345
v -2.540092 -0.522734 1.372675
v -2.542277 -0.523692 1.462643
v -2.541416 -0.553678 1.462345
v -2.539232 -0.552720 1.372377
v -2.571395 -0.554531 1.461608
v -2.572256 -0.524545 1.461906
v -2.570071 -0.523587 1.371938
v -2.569210 -0.553573 1.371639
v -2.541416 -0.553678 1.462345
v -2.571395 -0.554531 1.461608
v -2.569210 -0.553573 1.371639
v -2.539232 -0.552720 1.372377
v -2.570071 -0.523587 1.371938
v -2.572256 -0.524545 1.461906
v -2.542277 -0.523692 1.462643
v -2.540092 -0.522734 1.372675
v -2.434022 -0.438047 1.498722
v -2.442383 -0.432700 1.497500
v -2.545550 -0.599243 1.480575
v -2.537189 -0.604590 1.481797
v -2.523263 -0.598293 1.332243
v -2.420095 -0.431750 1.349168
v -2.411734 -0.437097 1.350390
v -2.514902 -0.603640 1.333465
v -2.545550 -0.599243 1.480575
v -2.523263 -0.598293 1.332243
v -2.514902 -0.603640 1.333465
v -2.537189 -0.604590 1.481797
v -2.411734 -0.437097 1.350390
v -2.420095 -0.431750 1.349168
v -2.442383 -0.432700 1.497500
v -2.434022 -0.438047 1.498722
v -2.514902 -0.603640 1.333465
v -2.411734 -0.437097 1.350390
v -2.434022 -0.438047 1.498722
v -2.537189 -0.604590 1.481797
v -2.442383 -0.432700 1.497500
v -2.420095 -0.431750 1.349168
v -2.523263 -0.598293 1.332243
v -2.545550 -0.599243 1.480575
v -2.344451 -0.450404 1.477500
v -2.340783 -0.428165 1.477051
v -2.403901 -0.638754 1.468773
v -2.394575 -0.641635 1.470941
v -2.371135 -0.642823 1.322452
v -2.321011 -0.451592 1.329010
v -2.311684 -0.454473 1.331179
v -2.361808 -0.645704 1.324621
v -2.403901 -0.638754 1.468773
v -2.371135 -0.642823 1.322452
v -2.361808 -0.645704 1.324621
v -2.394575 -0.641635 1.470941
v -2.311684 -0.454473 1.331179
v -2.321011 -0.451592 1.329010
v -2.340783 -0.428165 1.477051
v -2.361808 -0.645704 1.324621
v -2.311684 -0.454473 1.331179
v -2.344451 -0.450404 1.477500
v -2.394575 -0.641635 1.470941
v -2.340783 -0.428165 1.477051
v -2.371135 -0.642823 1.322452
v -2.403901 -0.638754 1.468773
v -2.340783 -0.428165 1.477051
v -2.344451 -0.450404 1.477500
v -2.311684 -0.454473 1.331179
v -2.340783 -0.428165 1.477051
v -2.321011 -0.451592 1.329010
v -2.371135 -0.642823 1.322452
usemtl mat21

vn -0.999294 -0.028435 -0.024572
vn -0.999294 -0.028435 -0.024572
vn -0.999294 -0.028435 -0.024572
vn -0.999294 -0.028435 -0.024572
vn 0.999294 0.028435 0.024572
vn 0.999294 0.028435 0.024572
vn 0.999294 0.028435 0.024572
vn 0.999294 0.028435 0.024572
vn 0.024278 0.010649 -0.999649
vn 0.024278 0.010649 -0.999649
vn 0.024278 0.010649 -0.999649
vn 0.024278 0.010649 -0.999649
vn -0.024278 -0.010649 0.999649
vn -0.024278 -0.010649 0.999649
vn -0.024278 -0.010649 0.999649
vn -0.024278 -0.010649 0.999649
vn 0.028686 -0.999539 -0.009951
vn 0.028686 -0.999539 -0.009951
vn 0.028686 -0.999539 -0.009951
vn 0.028686 -0.999539 -0.009951
vn -0.028686 0.999539 0.009951
vn -0.028686 0.999539 0.009951
vn -0.028686 0.999539 0.009951
vn -0.028686 0.999539 0.009951
vn 0.024278 0.010649 -0.999649
vn 0.024278 0.010649 -0.999649
vn 0.024278 0.010649 -0.999649
vn 0.024278 0.010649 -0.999649
vn -0.024278 -0.010649 0.999649
vn -0.024278 -0.010649 0.999649
vn -0.024278 -0.010649 0.999649
vn -0.024278 -0.010649 0.999649
vn 0.999294 0.028435 0.024572
vn 0.999294 0.028435 0.024572
vn 0.999294 0.028435 0.024572
vn 0.999294 0.028435 0.024572
vn -0.999294 -0.028435 -0.024572
vn -0.999294 -0.028435 -0.024572
vn -0.999294 -0.028435 -0.024572
vn -0.999294 -0.028435 -0.024572
vn 0.028686 -0.999539 -0.009951
vn 0.028686 -0.999539 -0.009951
vn 0.028686 -0.999539 -0.009951
vn 0.028686 -0.999539 -0.009951
vn -0.028686 0.999539 0.009951
vn -0.028686 0.999539 0.009951
vn -0.028686 0.999539 0.009951
vn -0.028686 0.999539 0.009951
vn -0.149530 -0.007849 0.988726
vn -0.149530 -0.007849 0.988726
vn -0.149530 -0.007849 0.988726
vn -0.149530 -0.007849 0.988726
vn 0.149506 0.007863 -0.988730
vn 0.149506 0.007863 -0.988730
vn 0.149506 0.007863 -0.988730
vn 0.149506 0.007863 -0.988730
vn -0.528006 -0.845002 -0.084746
vn -0.528006 -0.845002 -0.084746
vn -0.528006 -0.845002 -0.084746
vn -0.528006 -0.845002 -0.084746
vn 0.528006 0.845002 0.084746
vn 0.528006 0.845002 0.084746
vn 0.528006 0.845002 0.084746
vn 0.528006 0.845002 0.084746
vn 0.838079 -0.531613 0.122520
vn 0.838079 -0.531613 0.122520
vn 0.838079 -0.531613 0.122520
vn 0.838079 -0.531613 0.122520
vn -0.838080 0.531612 -0.122520
vn -0.838080 0.531612 -0.122520
vn -0.838080 0.531612 -0.122520
vn -0.838080 0.531612 -0.122520
vn -0.218442 0.027128 0.975473
vn -0.218442 0.027128 0.975473
vn -0.218442 0.027128 0.975473
vn -0.218442 0.027128 0.975473
vn 0.219366 -0.024049 -0.975346
vn 0.219366 -0.024049 -0.975346
vn 0.219366 -0.024049 -0.975346
vn 0.219366 -0.024049 -0.975346
vn -0.286900 -0.957221 -0.037627
vn -0.286900 -0.957221 -0.037627
vn -0.286900 -0.957221 -0.037627
vn -0.286900 -0.957221 -0.037627
vn 0.316031 0.942699 -0.106971
vn 0.316031 0.942699 -0.106971
vn 0.316031 0.942699 -0.106971
vn 0.942184 -0.254436 0.218064
vn 0.942184 -0.254436 0.218064
vn 0.942184 -0.254436 0.218064
vn 0.942184 -0.254436 0.218064
vn -0.932723 0.288082 -0.216881
vn -0.932723 0.288082 -0.216881
vn -0.932723 0.288082 -0.216881
vn 0.963206 -0.154399 0.219989
vn 0.963206 -0.154399 0.219989
vn 0.963206 -0.154399 0.219989
vn -0.952218 0.255335 -0.167584
vn -0.952218 0.255335 -0.167584
vn -0.952218 0.255335 -0.167584

vt -0.192128 -0.155502
vt -0.194040 -0.153190
vt -0.191728 -0.151279
vt -0.189816 -0.153591
vt 0.191728 -0.151279
vt 0.194040 -0.153190
vt 0.192128 -0.155502
vt 0.189816 -0.153591
vt -0.119487 -0.243502
vt -0.116533 -0.237155
vt -0.113813 -0.238421
vt -0.116766 -0.244767
vt 0.113813 -0.238421
vt 0.116533 -0.237155
vt 0.119487 -0.243502
vt 0.116766 -0.244767
vt 0.132996 -0.334240
vt 0.135796 -0.335318
vt 0.133282 -0.341851
vt 0.130482 -0.340773
vt -0.133282 -0.341851
vt -0.135796 -0.335318
vt -0.132996 -0.334240
vt -0.130482 -0.340773
vt -0.122314 -0.254319
vt -0.125034 -0.253053
vt -0.123768 -0.250333
vt -0.121048 -0.251599
vt 0.123768 -0.250333
vt 0.125034 -0.253053
vt 0.122314 -0.254319
vt 0.121048 -0.251599
vt 0.183888 -0.143498
vt 0.190824 -0.149233
vt 0.188912 -0.151545
vt 0.181976 -0.145810
vt -0.188912 -0.151545
vt -0.190824 -0.149233
vt -0.183888 -0.143498
vt -0.181976 -0.145810
vt 0.125743 -0.347522
vt 0.124665 -0.350321
vt 0.116266 -0.347089
vt 0.117343 -0.344289
vt -0.116266 -0.347089
vt -0.124665 -0.350321
vt -0.125743 -0.347522
vt -0.117343 -0.344289
vt 0.116326 -0.204787
vt 0.117194 -0.205283
vt 0.107378 -0.222322
vt 0.106510 -0.221826
vt -0.107368 -0.222350
vt -0.117184 -0.205312
vt -0.116316 -0.204816
vt -0.106500 -0.221854
vt 0.058557 -0.338625
vt 0.047744 -0.328229
vt 0.048437 -0.327508
vt 0.059250 -0.337904
vt -0.048413 -0.327585
vt -0.047720 -0.328305
vt -0.058532 -0.338702
vt -0.059225 -0.337981
vt 0.162274 -0.248467
vt 0.171779 -0.231253
vt 0.184923 -0.238480
vt 0.175418 -0.255694
vt -0.184925 -0.238477
vt -0.171781 -0.231250
vt -0.162276 -0.248463
vt -0.175420 -0.255691
vt 0.099245 -0.181847
vt 0.101003 -0.180437
vt 0.085887 -0.196422
vt 0.085160 -0.195735
vt -0.086260 -0.195883
vt -0.100362 -0.182012
vt -0.099636 -0.181324
vt -0.085534 -0.195195
vt 0.106875 -0.333185
vt 0.095035 -0.323975
vt 0.095649 -0.323186
vt 0.107489 -0.332396
vt -0.119979 -0.304692
vt -0.119457 -0.305545
vt -0.132693 -0.312848
vt 0.171450 -0.227023
vt 0.183481 -0.211324
vt 0.195416 -0.220410
vt 0.183385 -0.236109
vt -0.196177 -0.220915
vt -0.171058 -0.229747
vt -0.183141 -0.238636
vt 0.197534 -0.213603
vt 0.196118 -0.215358
vt 0.184713 -0.205615
vt -0.195475 -0.205498
vt -0.181994 -0.198655
vt -0.170510 -0.214760
s off
f 1/1/1 2/2/2 3/3/3
f 1/1/1 3/3/3 4/4/4
f 5/5/5 6/6/6 7/7/7
f 5/5/5 7/7/7 8/8/8
f 9/9/9 10/10/10 11/11/11
f 9/9/9 11/11/11 12/12/12
f 13/13/13 14/14/14 15/15/15
f 13/13/13 15/15/15 16/16/16
f 17/17/17 18/18/18 19/19/19
f 17/17/17 19/19/19 20/20/20
f 21/21/21 22/22/22 23/23/23
f 21/21/21 23/23/23 24/24/24
f 25/25/25 26/26/26 27/27/27
f 25/25/25 27/27/27 28/28/28
f 29/29/29 30/30/30 31/31/31
f 29/29/29 31/31/31 32/32/32
f 33/33/33 34/34/34 35/35/35
f 33/33/33 35/35/35 36/36/36
f 37/37/37 38/38/38 39/39/39
f 37/37/37 39/39/39 40/40/40
f 41/41/41 42/42/42 43/43/43
f 41/41/41 43/43/43 44/44/44
f 45/45/45 46/46/46 47/47/47
f 45/45/45 47/47/47 48/48/48
f 49/49/49 50/50/50 51/51/51
f 49/49/49 51/51/51 52/52/52
f 53/53/53 54/54/54 55/55/55
f 53/53/53 55/55/55 56/56/56
f 57/57/57 58/58/58 59/59/59
f 57/57/57 59/59/59 60/60/60
f 61/61/61 62/62/62 63/63/63
f 61/61/61 63/63/63 64/64/64
f 65/65/65 66/66/66 67/67/67
f 65/65/65 67/67/67 68/68/68
f 69/69/69 70/70/70 71/71/71
f 69/69/69 71/71/71 72/72/72
f 73/73/73 74/74/74 75/75/75
f 73/73/73 75/75/75 76/76/76
f 77/77/77 78/78/78 79/79/79
f 77/77/77 79/79/79 80/80/80
f 81/81/81 82/82/82 83/83/83
f 81/81/81 83/83/83 84/84/84
f 85/85/85 86/86/86 87/87/87
f 88/88/88 89/89/89 90/90/90
f 88/88/88 90/90/90 91/91/91
f 92/92/92 93/93/93 94/94/94
f 95/95/95 96/96/96 97/97/97
f 98/98/98 99/99/99 100/100/100
