# Exported using automatic converter by Erwin Coumans
mtllib model6.mtl
#object group1695814969_2

v -2.350643 -0.626246 -1.460106
v -2.349885 -0.600645 -1.460299
v -2.373950 -0.599999 -1.469044
v -2.374708 -0.625599 -1.468850
v -2.353566 -0.601027 -1.525213
v -2.329502 -0.601674 -1.516469
v -2.330260 -0.627274 -1.516275
v -2.354325 -0.626628 -1.525020
v -2.373950 -0.599999 -1.469044
v -2.353566 -0.601027 -1.525213
v -2.354325 -0.626628 -1.525020
v -2.374708 -0.625599 -1.468850
v -2.330260 -0.627274 -1.516275
v -2.329502 -0.601674 -1.516469
v -2.349885 -0.600645 -1.460299
v -2.350643 -0.626246 -1.460106
v -2.354325 -0.626628 -1.525020
v -2.330260 -0.627274 -1.516275
v -2.350643 -0.626246 -1.460106
v -2.374708 -0.625599 -1.468850
v -2.349885 -0.600645 -1.460299
v -2.329502 -0.601674 -1.516469
v -2.353566 -0.601027 -1.525213
v -2.373950 -0.599999 -1.469044
v -2.494723 -0.613079 -1.412712
v -2.493964 -0.587479 -1.412906
v -2.485229 -0.587919 -1.436978
v -2.485987 -0.613520 -1.436785
v -2.413035 -0.589859 -1.410745
v -2.421770 -0.589419 -1.386672
v -2.422529 -0.615019 -1.386479
v -2.413793 -0.615460 -1.410551
v -2.485229 -0.587919 -1.436978
v -2.413035 -0.589859 -1.410745
v -2.413793 -0.615460 -1.410551
v -2.485987 -0.613520 -1.436785
v -2.422529 -0.615019 -1.386479
v -2.421770 -0.589419 -1.386672
v -2.493964 -0.587479 -1.412906
v -2.494723 -0.613079 -1.412712
v -2.413793 -0.615460 -1.410551
v -2.422529 -0.615019 -1.386479
v -2.494723 -0.613079 -1.412712
v -2.485987 -0.613520 -1.436785
v -2.493964 -0.587479 -1.412906
v -2.421770 -0.589419 -1.386672
v -2.413035 -0.589859 -1.410745
v -2.485229 -0.587919 -1.436978
usemtl mat21

vn -0.341069 0.017207 0.939881
vn -0.341069 0.017207 0.939881
vn -0.341069 0.017207 0.939881
vn -0.341069 0.017207 0.939881
vn 0.341069 -0.017207 -0.939881
vn 0.341069 -0.017207 -0.939881
vn 0.341069 -0.017207 -0.939881
vn 0.341069 -0.017207 -0.939881
vn -0.939572 0.025246 -0.341419
vn -0.939572 0.025246 -0.341419
vn -0.939572 0.025246 -0.341419
vn -0.939572 0.025246 -0.341419
vn 0.939572 -0.025246 0.341419
vn 0.939572 -0.025246 0.341419
vn 0.939572 -0.025246 0.341419
vn 0.939572 -0.025246 0.341419
vn -0.029602 -0.999533 0.007557
vn -0.029602 -0.999533 0.007557
vn -0.029602 -0.999533 0.007557
vn -0.029602 -0.999533 0.007557
vn 0.029602 0.999533 -0.007557
vn 0.029602 0.999533 -0.007557
vn 0.029602 0.999533 -0.007557
vn 0.029602 0.999533 -0.007557
vn -0.939572 0.025245 -0.341419
vn -0.939572 0.025245 -0.341419
vn -0.939572 0.025245 -0.341419
vn -0.939572 0.025245 -0.341419
vn 0.939572 -0.025245 0.341419
vn 0.939572 -0.025245 0.341419
vn 0.939572 -0.025245 0.341419
vn 0.939572 -0.025245 0.341419
vn 0.341069 -0.017206 -0.939881
vn 0.341069 -0.017206 -0.939881
vn 0.341069 -0.017206 -0.939881
vn 0.341069 -0.017206 -0.939881
vn -0.341069 0.017206 0.939881
vn -0.341069 0.017206 0.939881
vn -0.341069 0.017206 0.939881
vn -0.341069 0.017206 0.939881
vn -0.029602 -0.999533 0.007556
vn -0.029602 -0.999533 0.007556
vn -0.029602 -0.999533 0.007556
vn -0.029602 -0.999533 0.007556
vn 0.029602 0.999533 -0.007556
vn 0.029602 0.999533 -0.007556
vn 0.029602 0.999533 -0.007556
vn 0.029602 0.999533 -0.007556

vt 0.130255 -0.236262
vt 0.132392 -0.234850
vt 0.133804 -0.236987
vt 0.131668 -0.238399
vt -0.133804 -0.236987
vt -0.132392 -0.234850
vt -0.130255 -0.236262
vt -0.131668 -0.238399
vt -0.008071 -0.040709
vt -0.004348 -0.036034
vt -0.002345 -0.037629
vt -0.006068 -0.042304
vt 0.002345 -0.037629
vt 0.004348 -0.036034
vt 0.008071 -0.040709
vt 0.006068 -0.042304
vt -0.149610 -0.228637
vt -0.147974 -0.226666
vt -0.143375 -0.230483
vt -0.145011 -0.232454
vt 0.143375 -0.230483
vt 0.147974 -0.226666
vt 0.149610 -0.228637
vt 0.145011 -0.232454
vt -0.012586 -0.049119
vt -0.014589 -0.047523
vt -0.012994 -0.045520
vt -0.010990 -0.047115
vt 0.012994 -0.045520
vt 0.014589 -0.047523
vt 0.012586 -0.049119
vt 0.010990 -0.047115
vt -0.139695 -0.244350
vt -0.135458 -0.237940
vt -0.133321 -0.239352
vt -0.137558 -0.245763
vt 0.133321 -0.239352
vt 0.135458 -0.237940
vt 0.139695 -0.244350
vt 0.137558 -0.245763
vt -0.140846 -0.238130
vt -0.138875 -0.239766
vt -0.143782 -0.245678
vt -0.145753 -0.244043
vt 0.143782 -0.245678
vt 0.138875 -0.239766
vt 0.140846 -0.238130
vt 0.145753 -0.244043
s off
f 1/1/1 2/2/2 3/3/3
f 1/1/1 3/3/3 4/4/4
f 5/5/5 6/6/6 7/7/7
f 5/5/5 7/7/7 8/8/8
f 9/9/9 10/10/10 11/11/11
f 9/9/9 11/11/11 12/12/12
f 13/13/13 14/14/14 15/15/15
f 13/13/13 15/15/15 16/16/16
f 17/17/17 18/18/18 19/19/19
f 17/17/17 19/19/19 20/20/20
f 21/21/21 22/22/22 23/23/23
f 21/21/21 23/23/23 24/24/24
f 25/25/25 26/26/26 27/27/27
f 25/25/25 27/27/27 28/28/28
f 29/29/29 30/30/30 31/31/31
f 29/29/29 31/31/31 32/32/32
f 33/33/33 34/34/34 35/35/35
f 33/33/33 35/35/35 36/36/36
f 37/37/37 38/38/38 39/39/39
f 37/37/37 39/39/39 40/40/40
f 41/41/41 42/42/42 43/43/43
f 41/41/41 43/43/43 44/44/44
f 45/45/45 46/46/46 47/47/47
f 45/45/45 47/47/47 48/48/48
