# Exported using automatic converter by Erwin Coumans
mtllib model6.mtl
#object mesh1149969536

v -1.106762 -0.564511 2.279851
v -1.114262 -0.564511 2.281861
v -1.114262 -0.534511 2.281861
v -1.106762 -0.534511 2.279851
v -1.114262 -0.564511 2.281861
v -1.119753 -0.564511 2.287352
v -1.119753 -0.534511 2.287352
v -1.114262 -0.534511 2.281861
v -1.119753 -0.564511 2.287352
v -1.121762 -0.564511 2.294852
v -1.121762 -0.534511 2.294852
v -1.119753 -0.534511 2.287352
v -1.121762 -0.564511 2.294852
v -1.119753 -0.564511 2.302351
v -1.119753 -0.534511 2.302351
v -1.121762 -0.534511 2.294852
v -1.119753 -0.564511 2.302351
v -1.114262 -0.564511 2.307842
v -1.114262 -0.534511 2.307842
v -1.119753 -0.534511 2.302351
v -1.114262 -0.564511 2.307842
v -1.106762 -0.564511 2.309852
v -1.106762 -0.534511 2.309852
v -1.114262 -0.534511 2.307842
v -1.106762 -0.564511 2.309852
v -1.099262 -0.564511 2.307842
v -1.099262 -0.534511 2.307842
v -1.106762 -0.534511 2.309852
v -1.099262 -0.564511 2.307842
v -1.093772 -0.564511 2.302351
v -1.093772 -0.534511 2.302351
v -1.099262 -0.534511 2.307842
v -1.093772 -0.564511 2.302351
v -1.091762 -0.564511 2.294852
v -1.091762 -0.534511 2.294852
v -1.093772 -0.534511 2.302351
v -1.091762 -0.564511 2.294852
v -1.093772 -0.564511 2.287352
v -1.093772 -0.534511 2.287352
v -1.091762 -0.534511 2.294852
v -1.093772 -0.564511 2.287352
v -1.099262 -0.564511 2.281861
v -1.099262 -0.534511 2.281861
v -1.093772 -0.534511 2.287352
v -1.099262 -0.564511 2.281861
v -1.106762 -0.564511 2.279851
v -1.106762 -0.534511 2.279851
v -1.099262 -0.534511 2.281861
v -1.106762 -0.534511 2.279851
v -1.114262 -0.534511 2.281861
v -1.119753 -0.534511 2.287352
v -1.121762 -0.534511 2.294852
v -1.119753 -0.534511 2.302351
v -1.114262 -0.534511 2.307842
v -1.106762 -0.534511 2.309852
v -1.099262 -0.534511 2.307842
v -1.093772 -0.534511 2.302351
v -1.091762 -0.534511 2.294852
v -1.093772 -0.534511 2.287352
v -1.099262 -0.534511 2.281861
v -1.099262 -0.564511 2.281861
v -1.093772 -0.564511 2.287352
v -1.091762 -0.564511 2.294852
v -1.093772 -0.564511 2.302351
v -1.099262 -0.564511 2.307842
v -1.106762 -0.564511 2.309852
v -1.114262 -0.564511 2.307842
v -1.119753 -0.564511 2.302351
v -1.121762 -0.564511 2.294852
v -1.119753 -0.564511 2.287352
v -1.114262 -0.564511 2.281861
v -1.106762 -0.564511 2.279851
usemtl mat22

vn 0.000000 -0.000000 -1.000000
vn 0.000000 -0.000000 -1.000000
vn 0.000000 -0.000000 -1.000000
vn 0.000000 -0.000000 -1.000000
vn -0.500000 -0.000000 -0.866025
vn -0.500000 -0.000000 -0.866025
vn -0.500000 -0.000000 -0.866025
vn -0.500000 -0.000000 -0.866025
vn -0.866025 -0.000000 -0.500000
vn -0.866025 -0.000000 -0.500000
vn -0.866025 -0.000000 -0.500000
vn -0.866025 -0.000000 -0.500000
vn -1.000000 0.000000 -0.000000
vn -1.000000 0.000000 -0.000000
vn -1.000000 0.000000 -0.000000
vn -1.000000 0.000000 -0.000000
vn -0.866025 0.000000 0.500000
vn -0.866025 0.000000 0.500000
vn -0.866025 0.000000 0.500000
vn -0.866025 0.000000 0.500000
vn -0.500000 0.000000 0.866025
vn -0.500000 0.000000 0.866025
vn -0.500000 0.000000 0.866025
vn -0.500000 0.000000 0.866025
vn 0.000000 0.000000 1.000000
vn 0.000000 0.000000 1.000000
vn 0.000000 0.000000 1.000000
vn 0.000000 0.000000 1.000000
vn 0.500000 0.000000 0.866025
vn 0.500000 0.000000 0.866025
vn 0.500000 0.000000 0.866025
vn 0.500000 0.000000 0.866025
vn 0.866025 0.000000 0.500000
vn 0.866025 0.000000 0.500000
vn 0.866025 0.000000 0.500000
vn 0.866025 0.000000 0.500000
vn 1.000000 -0.000000 0.000000
vn 1.000000 -0.000000 0.000000
vn 1.000000 -0.000000 0.000000
vn 1.000000 -0.000000 0.000000
vn 0.866026 -0.000000 -0.500000
vn 0.866026 -0.000000 -0.500000
vn 0.866026 -0.000000 -0.500000
vn 0.866026 -0.000000 -0.500000
vn 0.500000 -0.000000 -0.866026
vn 0.500000 -0.000000 -0.866026
vn 0.500000 -0.000000 -0.866026
vn 0.500000 -0.000000 -0.866026
vn 0.000000 1.000000 -0.000000
vn 0.000000 1.000000 -0.000000
vn 0.000000 1.000000 -0.000000
vn 0.000000 1.000000 -0.000000
vn 0.000000 1.000000 -0.000000
vn 0.000000 1.000000 -0.000000
vn 0.000000 1.000000 -0.000000
vn 0.000000 1.000000 -0.000000
vn 0.000000 1.000000 -0.000000
vn 0.000000 1.000000 -0.000000
vn 0.000000 1.000000 -0.000000
vn 0.000000 1.000000 -0.000000
vn -0.000000 -1.000000 0.000000
vn -0.000000 -1.000000 0.000000
vn -0.000000 -1.000000 0.000000
vn -0.000000 -1.000000 0.000000
vn -0.000000 -1.000000 0.000000
vn -0.000000 -1.000000 0.000000
vn -0.000000 -1.000000 0.000000
vn -0.000000 -1.000000 0.000000
vn -0.000000 -1.000000 0.000000
vn -0.000000 -1.000000 0.000000
vn -0.000000 -1.000000 0.000000
vn -0.000000 -1.000000 0.000000

vt -0.056125 -0.130139
vt -0.056461 -0.130810
vt -0.059144 -0.129468
vt -0.058809 -0.128798
vt -0.114446 -0.257630
vt -0.114770 -0.258306
vt -0.117476 -0.257011
vt -0.117152 -0.256335
vt -0.175356 -0.299051
vt -0.175750 -0.299689
vt -0.178303 -0.298112
vt -0.177908 -0.297474
vt -0.254524 -0.191634
vt -0.255134 -0.192070
vt -0.256878 -0.189629
vt -0.256268 -0.189193
vt -0.194466 0.065609
vt -0.195166 0.065876
vt -0.194097 0.068679
vt -0.193397 0.068412
vt -0.028061 0.024980
vt -0.028502 0.025587
vt -0.026076 0.027351
vt -0.025635 0.026745
vt 0.056125 -0.130139
vt 0.055790 -0.129468
vt 0.058473 -0.128127
vt 0.058809 -0.128798
vt 0.114446 -0.257630
vt 0.114122 -0.256953
vt 0.116828 -0.255658
vt 0.117152 -0.256335
vt 0.175356 -0.299051
vt 0.174962 -0.298413
vt 0.177514 -0.296836
vt 0.177908 -0.297474
vt 0.254524 -0.191634
vt 0.253914 -0.191198
vt 0.255658 -0.188757
vt 0.256268 -0.189193
vt 0.194466 0.065609
vt 0.193765 0.065342
vt 0.192696 0.068145
vt 0.193397 0.068412
vt 0.028061 0.024980
vt 0.027620 0.024374
vt 0.025194 0.026138
vt 0.025635 0.026745
vt -0.250941 -0.239875
vt -0.250878 -0.240649
vt -0.251210 -0.241351
vt -0.251849 -0.241792
vt -0.252623 -0.241855
vt -0.253324 -0.241523
vt -0.253766 -0.240884
vt -0.253829 -0.240110
vt -0.253496 -0.239408
vt -0.252858 -0.238967
vt -0.252084 -0.238904
vt -0.251382 -0.239236
vt 0.251382 -0.239236
vt 0.252084 -0.238904
vt 0.252858 -0.238967
vt 0.253496 -0.239408
vt 0.253829 -0.240110
vt 0.253766 -0.240884
vt 0.253324 -0.241523
vt 0.252623 -0.241855
vt 0.251849 -0.241792
vt 0.251210 -0.241351
vt 0.250878 -0.240649
vt 0.250941 -0.239875
s off
f 1/1/1 2/2/2 3/3/3
f 1/1/1 3/3/3 4/4/4
f 5/5/5 6/6/6 7/7/7
f 5/5/5 7/7/7 8/8/8
f 9/9/9 10/10/10 11/11/11
f 9/9/9 11/11/11 12/12/12
f 13/13/13 14/14/14 15/15/15
f 13/13/13 15/15/15 16/16/16
f 17/17/17 18/18/18 19/19/19
f 17/17/17 19/19/19 20/20/20
f 21/21/21 22/22/22 23/23/23
f 21/21/21 23/23/23 24/24/24
f 25/25/25 26/26/26 27/27/27
f 25/25/25 27/27/27 28/28/28
f 29/29/29 30/30/30 31/31/31
f 29/29/29 31/31/31 32/32/32
f 33/33/33 34/34/34 35/35/35
f 33/33/33 35/35/35 36/36/36
f 37/37/37 38/38/38 39/39/39
f 37/37/37 39/39/39 40/40/40
f 41/41/41 42/42/42 43/43/43
f 41/41/41 43/43/43 44/44/44
f 45/45/45 46/46/46 47/47/47
f 45/45/45 47/47/47 48/48/48
f 49/49/49 50/50/50 51/51/51
f 49/49/49 51/51/51 52/52/52
f 49/49/49 52/52/52 53/53/53
f 49/49/49 53/53/53 54/54/54
f 49/49/49 54/54/54 55/55/55
f 49/49/49 55/55/55 56/56/56
f 49/49/49 56/56/56 57/57/57
f 49/49/49 57/57/57 58/58/58
f 49/49/49 58/58/58 59/59/59
f 49/49/49 59/59/59 60/60/60
f 61/61/61 62/62/62 63/63/63
f 61/61/61 63/63/63 64/64/64
f 61/61/61 64/64/64 65/65/65
f 61/61/61 65/65/65 66/66/66
f 61/61/61 66/66/66 67/67/67
f 61/61/61 67/67/67 68/68/68
f 61/61/61 68/68/68 69/69/69
f 61/61/61 69/69/69 70/70/70
f 61/61/61 70/70/70 71/71/71
f 61/61/61 71/71/71 72/72/72
