# Exported using automatic converter by Erwin Coumans
mtllib model6.mtl
#object mesh12691049

v 0.668238 0.485489 -2.370148
v -0.171762 0.485489 -2.370149
v -0.171762 0.445489 -2.370149
v 0.668238 0.445489 -2.370148
v -0.171762 0.445489 -2.680149
v -0.171762 0.485489 -2.680149
v 0.668238 0.485489 -2.680148
v 0.668238 0.445489 -2.680148
v -0.171762 0.445489 -2.370149
v -0.171762 0.445489 -2.680149
v 0.668238 0.445489 -2.680148
v 0.668238 0.445489 -2.370148
v 0.668238 0.485489 -2.680148
v -0.171762 0.485489 -2.680149
v -0.171762 0.485489 -2.370149
v 0.668238 0.485489 -2.370148
v 0.668238 0.445489 -2.680148
v 0.668238 0.485489 -2.680148
v 0.668238 0.485489 -2.370148
v 0.668238 0.445489 -2.370148
v -0.171762 0.485489 -2.370149
v -0.171762 0.485489 -2.680149
v -0.171762 0.445489 -2.680149
v -0.171762 0.445489 -2.370149
usemtl mat22

vn -0.000000 -0.000001 1.000000
vn -0.000000 -0.000001 1.000000
vn -0.000000 -0.000001 1.000000
vn -0.000000 -0.000001 1.000000
vn 0.000000 0.000001 -1.000000
vn 0.000000 0.000001 -1.000000
vn 0.000000 0.000001 -1.000000
vn 0.000000 0.000001 -1.000000
vn 0.000000 -1.000000 -0.000001
vn 0.000000 -1.000000 -0.000001
vn 0.000000 -1.000000 -0.000001
vn 0.000000 -1.000000 -0.000001
vn -0.000000 1.000000 0.000001
vn -0.000000 1.000000 0.000001
vn -0.000000 1.000000 0.000001
vn -0.000000 1.000000 0.000001
vn 1.000000 0.000000 0.000000
vn 1.000000 0.000000 0.000000
vn 1.000000 0.000000 0.000000
vn 1.000000 0.000000 0.000000
vn -1.000000 -0.000000 -0.000000
vn -1.000000 -0.000000 -0.000000
vn -1.000000 -0.000000 -0.000000
vn -1.000000 -0.000000 -0.000000

vt 0.070660 0.075579
vt 0.108226 0.000447
vt 0.104648 -0.001342
vt 0.067082 0.073790
vt -0.104648 -0.001342
vt -0.108226 0.000447
vt -0.070660 0.075579
vt -0.067082 0.073790
vt -0.155522 0.004574
vt -0.184716 0.015001
vt -0.156464 0.094107
vt -0.127270 0.083681
vt 0.156464 0.094107
vt 0.184716 0.015001
vt 0.155522 0.004574
vt 0.127270 0.083681
vt -0.091603 0.179719
vt -0.089278 0.182974
vt -0.064052 0.164955
vt -0.066377 0.161701
vt 0.064052 0.164955
vt 0.089278 0.182974
vt 0.091603 0.179719
vt 0.066377 0.161701
s off
f 1/1/1 2/2/2 3/3/3
f 1/1/1 3/3/3 4/4/4
f 5/5/5 6/6/6 7/7/7
f 5/5/5 7/7/7 8/8/8
f 9/9/9 10/10/10 11/11/11
f 9/9/9 11/11/11 12/12/12
f 13/13/13 14/14/14 15/15/15
f 13/13/13 15/15/15 16/16/16
f 17/17/17 18/18/18 19/19/19
f 17/17/17 19/19/19 20/20/20
f 21/21/21 22/22/22 23/23/23
f 21/21/21 23/23/23 24/24/24
