# Exported using automatic converter by Erwin Coumans
mtllib model6.mtl
#object mesh1888307163

v 2.752908 -1.007902 -0.470670
v 2.721488 -1.006511 -0.436942
v 2.723346 -0.955637 -0.437309
v 2.754765 -0.957028 -0.471038
v 2.721488 -1.006511 -0.436942
v 2.711136 -1.005808 -0.392007
v 2.712994 -0.954934 -0.392375
v 2.723346 -0.955637 -0.437309
v 2.711136 -1.005808 -0.392007
v 2.724625 -1.005982 -0.347908
v 2.726482 -0.955108 -0.348275
v 2.712994 -0.954934 -0.392375
v 2.724625 -1.005982 -0.347908
v 2.758340 -1.006986 -0.316459
v 2.760198 -0.956112 -0.316827
v 2.726482 -0.955108 -0.348275
v 2.758340 -1.006986 -0.316459
v 2.803249 -1.008550 -0.306088
v 2.805106 -0.957677 -0.306456
v 2.760198 -0.956112 -0.316827
v 2.803249 -1.008550 -0.306088
v 2.847317 -1.010257 -0.319574
v 2.849174 -0.959383 -0.319941
v 2.805106 -0.957677 -0.306456
v 2.847317 -1.010257 -0.319574
v 2.878736 -1.011648 -0.353303
v 2.880594 -0.960774 -0.353670
v 2.849174 -0.959383 -0.319941
v 2.878736 -1.011648 -0.353303
v 2.889089 -1.012351 -0.398237
v 2.890946 -0.961477 -0.398605
v 2.880594 -0.960774 -0.353670
v 2.875600 -1.012177 -0.442337
v 2.841884 -1.011173 -0.473785
v 2.843742 -0.960299 -0.474153
v 2.877457 -0.961303 -0.442704
v 2.841884 -1.011173 -0.473785
v 2.796976 -1.009609 -0.484156
v 2.798833 -0.958735 -0.484524
v 2.843742 -0.960299 -0.474153
v 2.796976 -1.009609 -0.484156
v 2.752908 -1.007902 -0.470670
v 2.754765 -0.957028 -0.471038
v 2.798833 -0.958735 -0.484524
v 2.803014 -0.844269 -0.485351
v 2.847922 -0.845833 -0.474980
v 2.845135 -0.922144 -0.474429
v 2.800227 -0.920579 -0.484800
v 2.847922 -0.845833 -0.474980
v 2.881638 -0.846837 -0.443532
v 2.878851 -0.923148 -0.442980
v 2.845135 -0.922144 -0.474429
v 2.895126 -0.847011 -0.399432
v 2.884774 -0.846308 -0.354498
v 2.881987 -0.922619 -0.353946
v 2.892339 -0.923321 -0.398881
v 2.884774 -0.846308 -0.354498
v 2.853354 -0.844917 -0.320769
v 2.850568 -0.921228 -0.320217
v 2.881987 -0.922619 -0.353946
v 2.853354 -0.844917 -0.320769
v 2.809286 -0.843211 -0.307283
v 2.806499 -0.919521 -0.306732
v 2.850568 -0.921228 -0.320217
v 2.809286 -0.843211 -0.307283
v 2.764378 -0.841646 -0.317654
v 2.761591 -0.917956 -0.317103
v 2.806499 -0.919521 -0.306732
v 2.764378 -0.841646 -0.317654
v 2.730662 -0.840642 -0.349102
v 2.727875 -0.916953 -0.348551
v 2.761591 -0.917956 -0.317103
v 2.730662 -0.840642 -0.349102
v 2.717174 -0.840468 -0.393202
v 2.714387 -0.916779 -0.392651
v 2.727875 -0.916953 -0.348551
v 2.717174 -0.840468 -0.393202
v 2.727526 -0.841171 -0.438136
v 2.724739 -0.917482 -0.437585
v 2.714387 -0.916779 -0.392651
v 2.727526 -0.841171 -0.438136
v 2.758945 -0.842562 -0.471866
v 2.756159 -0.918873 -0.471314
v 2.724739 -0.917482 -0.437585
v 2.758945 -0.842562 -0.471866
v 2.803014 -0.844269 -0.485351
v 2.800227 -0.920579 -0.484800
v 2.756159 -0.918873 -0.471314
v 2.806264 -0.755239 -0.485995
v 2.851173 -0.756804 -0.475624
v 2.847922 -0.845833 -0.474980
v 2.803014 -0.844269 -0.485351
v 2.851173 -0.756804 -0.475624
v 2.884888 -0.757808 -0.444175
v 2.881638 -0.846837 -0.443532
v 2.847922 -0.845833 -0.474980
v 2.898377 -0.757981 -0.400076
v 2.888025 -0.757278 -0.355141
v 2.884774 -0.846308 -0.354498
v 2.895126 -0.847011 -0.399432
v 2.888025 -0.757278 -0.355141
v 2.856605 -0.755888 -0.321412
v 2.853354 -0.844917 -0.320769
v 2.884774 -0.846308 -0.354498
v 2.856605 -0.755888 -0.321412
v 2.812537 -0.754181 -0.307927
v 2.809286 -0.843211 -0.307283
v 2.853354 -0.844917 -0.320769
v 2.812537 -0.754181 -0.307927
v 2.767629 -0.752616 -0.318298
v 2.764378 -0.841646 -0.317654
v 2.809286 -0.843211 -0.307283
v 2.733913 -0.751613 -0.349746
v 2.720425 -0.751439 -0.393846
v 2.717174 -0.840468 -0.393202
v 2.730662 -0.840642 -0.349102
v 2.720425 -0.751439 -0.393846
v 2.730777 -0.752142 -0.438780
v 2.727526 -0.841171 -0.438136
v 2.717174 -0.840468 -0.393202
v 2.730777 -0.752142 -0.438780
v 2.762197 -0.753533 -0.472509
v 2.758945 -0.842562 -0.471866
v 2.727526 -0.841171 -0.438136
v 2.762197 -0.753533 -0.472509
v 2.806264 -0.755239 -0.485995
v 2.803014 -0.844269 -0.485351
v 2.758945 -0.842562 -0.471866
v 2.771656 -0.753162 -0.373353
v 2.764923 -0.752864 -0.366125
v 2.766316 -0.714708 -0.366401
v 2.773049 -0.715006 -0.373629
v 2.764923 -0.752864 -0.366125
v 2.762704 -0.752713 -0.356497
v 2.764097 -0.714558 -0.356772
v 2.766316 -0.714708 -0.366401
v 2.762704 -0.752713 -0.356497
v 2.765595 -0.752750 -0.347047
v 2.766988 -0.714595 -0.347322
v 2.764097 -0.714558 -0.356772
v 2.765595 -0.752750 -0.347047
v 2.772820 -0.752965 -0.340308
v 2.774213 -0.714810 -0.340583
v 2.766988 -0.714595 -0.347322
v 2.772820 -0.752965 -0.340308
v 2.782443 -0.753300 -0.338085
v 2.783836 -0.715145 -0.338361
v 2.774213 -0.714810 -0.340583
v 2.782443 -0.753300 -0.338085
v 2.791886 -0.753666 -0.340975
v 2.793279 -0.715511 -0.341251
v 2.783836 -0.715145 -0.338361
v 2.791886 -0.753666 -0.340975
v 2.798619 -0.753964 -0.348203
v 2.800012 -0.715809 -0.348478
v 2.793279 -0.715511 -0.341251
v 2.798619 -0.753964 -0.348203
v 2.800837 -0.754115 -0.357832
v 2.802230 -0.715959 -0.358107
v 2.800012 -0.715809 -0.348478
v 2.800837 -0.754115 -0.357832
v 2.797947 -0.754078 -0.367281
v 2.799340 -0.715922 -0.367557
v 2.802230 -0.715959 -0.358107
v 2.797947 -0.754078 -0.367281
v 2.790722 -0.753863 -0.374020
v 2.792115 -0.715707 -0.374296
v 2.799340 -0.715922 -0.367557
v 2.790722 -0.753863 -0.374020
v 2.781099 -0.753527 -0.376243
v 2.782492 -0.715372 -0.376518
v 2.792115 -0.715707 -0.374296
v 2.781099 -0.753527 -0.376243
v 2.771656 -0.753162 -0.373353
v 2.773049 -0.715006 -0.373629
v 2.782492 -0.715372 -0.376518
v 2.773049 -0.715006 -0.373629
v 2.766316 -0.714708 -0.366401
v 2.764097 -0.714558 -0.356772
v 2.766988 -0.714595 -0.347322
v 2.774213 -0.714810 -0.340583
v 2.783836 -0.715145 -0.338361
v 2.793279 -0.715511 -0.341251
v 2.800012 -0.715809 -0.348478
v 2.802230 -0.715959 -0.358107
v 2.799340 -0.715922 -0.367557
v 2.792115 -0.715707 -0.374296
v 2.782492 -0.715372 -0.376518
v 2.781099 -0.753527 -0.376243
v 2.790722 -0.753863 -0.374020
v 2.797947 -0.754078 -0.367281
v 2.800837 -0.754115 -0.357832
v 2.798619 -0.753964 -0.348203
v 2.791886 -0.753666 -0.340975
v 2.782443 -0.753300 -0.338085
v 2.772820 -0.752965 -0.340308
v 2.765595 -0.752750 -0.347047
v 2.762704 -0.752713 -0.356497
v 2.764923 -0.752864 -0.366125
v 2.771656 -0.753162 -0.373353
usemtl mat13

vn -0.731094 0.021765 -0.681929
vn -0.731094 0.021765 -0.681929
vn -0.731094 0.021765 -0.681929
vn -0.731094 0.021765 -0.681929
vn -0.973795 0.033932 -0.224880
vn -0.973795 0.033932 -0.224880
vn -0.973795 0.033932 -0.224880
vn -0.973795 0.033932 -0.224880
vn -0.955573 0.037001 0.292422
vn -0.955573 0.037001 0.292422
vn -0.955573 0.037001 0.292422
vn -0.955573 0.037001 0.292422
vn -0.681302 0.030163 0.731381
vn -0.681302 0.030163 0.731381
vn -0.681302 0.030163 0.731381
vn -0.681302 0.030163 0.731381
vn -0.224484 0.015240 0.974359
vn -0.224484 0.015240 0.974359
vn -0.224484 0.015240 0.974359
vn -0.224484 0.015240 0.974359
vn 0.292485 -0.003771 0.956263
vn 0.292485 -0.003771 0.956263
vn 0.292485 -0.003771 0.956263
vn 0.292485 -0.003771 0.956263
vn 0.731094 -0.021763 0.681929
vn 0.731094 -0.021763 0.681929
vn 0.731094 -0.021763 0.681929
vn 0.731094 -0.021763 0.681929
vn 0.973796 -0.033925 0.224880
vn 0.973796 -0.033925 0.224880
vn 0.973796 -0.033925 0.224880
vn 0.973796 -0.033925 0.224880
vn 0.681302 -0.030160 -0.731381
vn 0.681302 -0.030160 -0.731381
vn 0.681302 -0.030160 -0.731381
vn 0.681302 -0.030160 -0.731381
vn 0.224484 -0.015238 -0.974359
vn 0.224484 -0.015238 -0.974359
vn 0.224484 -0.015238 -0.974359
vn 0.224484 -0.015238 -0.974359
vn -0.292485 0.003763 -0.956263
vn -0.292485 0.003763 -0.956263
vn -0.292485 0.003763 -0.956263
vn -0.292485 0.003763 -0.956263
vn 0.224483 -0.015237 -0.974359
vn 0.224483 -0.015237 -0.974359
vn 0.224483 -0.015237 -0.974359
vn 0.224483 -0.015237 -0.974359
vn 0.681302 -0.030163 -0.731381
vn 0.681302 -0.030163 -0.731381
vn 0.681302 -0.030163 -0.731381
vn 0.681302 -0.030163 -0.731381
vn 0.973795 -0.033938 0.224884
vn 0.973795 -0.033938 0.224884
vn 0.973795 -0.033938 0.224884
vn 0.973795 -0.033938 0.224884
vn 0.731095 -0.021773 0.681928
vn 0.731095 -0.021773 0.681928
vn 0.731095 -0.021773 0.681928
vn 0.731095 -0.021773 0.681928
vn 0.292486 -0.003773 0.956262
vn 0.292486 -0.003773 0.956262
vn 0.292486 -0.003773 0.956262
vn 0.292486 -0.003773 0.956262
vn -0.224488 0.015237 0.974358
vn -0.224488 0.015237 0.974358
vn -0.224488 0.015237 0.974358
vn -0.224488 0.015237 0.974358
vn -0.681302 0.030165 0.731381
vn -0.681302 0.030165 0.731381
vn -0.681302 0.030165 0.731381
vn -0.681302 0.030165 0.731381
vn -0.955573 0.037010 0.292422
vn -0.955573 0.037010 0.292422
vn -0.955573 0.037010 0.292422
vn -0.955573 0.037010 0.292422
vn -0.973795 0.033938 -0.224879
vn -0.973795 0.033938 -0.224879
vn -0.973795 0.033938 -0.224879
vn -0.973795 0.033938 -0.224879
vn -0.731094 0.021773 -0.681930
vn -0.731094 0.021773 -0.681930
vn -0.731094 0.021773 -0.681930
vn -0.731094 0.021773 -0.681930
vn -0.292485 0.003773 -0.956263
vn -0.292485 0.003773 -0.956263
vn -0.292485 0.003773 -0.956263
vn -0.292485 0.003773 -0.956263
vn 0.224485 -0.015241 -0.974358
vn 0.224485 -0.015241 -0.974358
vn 0.224485 -0.015241 -0.974358
vn 0.224485 -0.015241 -0.974358
vn 0.681302 -0.030163 -0.731381
vn 0.681302 -0.030163 -0.731381
vn 0.681302 -0.030163 -0.731381
vn 0.681302 -0.030163 -0.731381
vn 0.973795 -0.033931 0.224880
vn 0.973795 -0.033931 0.224880
vn 0.973795 -0.033931 0.224880
vn 0.973795 -0.033931 0.224880
vn 0.731094 -0.021765 0.681929
vn 0.731094 -0.021765 0.681929
vn 0.731094 -0.021765 0.681929
vn 0.731094 -0.021765 0.681929
vn 0.292487 -0.003766 0.956262
vn 0.292487 -0.003766 0.956262
vn 0.292487 -0.003766 0.956262
vn 0.292487 -0.003766 0.956262
vn -0.224491 0.015242 0.974357
vn -0.224491 0.015242 0.974357
vn -0.224491 0.015242 0.974357
vn -0.224491 0.015242 0.974357
vn -0.955573 0.037007 0.292422
vn -0.955573 0.037007 0.292422
vn -0.955573 0.037007 0.292422
vn -0.955573 0.037007 0.292422
vn -0.973796 0.033931 -0.224876
vn -0.973796 0.033931 -0.224876
vn -0.973796 0.033931 -0.224876
vn -0.973796 0.033931 -0.224876
vn -0.731093 0.021765 -0.681930
vn -0.731093 0.021765 -0.681930
vn -0.731093 0.021765 -0.681930
vn -0.731093 0.021765 -0.681930
vn -0.292485 0.003766 -0.956263
vn -0.292485 0.003766 -0.956263
vn -0.292485 0.003766 -0.956263
vn -0.292485 0.003766 -0.956263
vn -0.529844 0.013215 -0.847992
vn -0.529844 0.013215 -0.847992
vn -0.529844 0.013215 -0.847992
vn -0.529844 0.013215 -0.847992
vn -0.882514 0.028828 -0.469403
vn -0.882514 0.028828 -0.469403
vn -0.882514 0.028828 -0.469403
vn -0.882514 0.028828 -0.469403
vn -0.998714 0.036717 0.034963
vn -0.998714 0.036717 0.034963
vn -0.998714 0.036717 0.034963
vn -0.998714 0.036717 0.034963
vn -0.847310 0.034767 0.529960
vn -0.847310 0.034767 0.529960
vn -0.847310 0.034767 0.529960
vn -0.847310 0.034767 0.529960
vn -0.468870 0.023501 0.882955
vn -0.468870 0.023501 0.882955
vn -0.468870 0.023501 0.882955
vn -0.468870 0.023501 0.882955
vn 0.035204 0.005938 0.999363
vn 0.035204 0.005938 0.999363
vn 0.035204 0.005938 0.999363
vn 0.035204 0.005938 0.999363
vn 0.529844 -0.013215 0.847992
vn 0.529844 -0.013215 0.847992
vn 0.529844 -0.013215 0.847992
vn 0.529844 -0.013215 0.847992
vn 0.882514 -0.028828 0.469402
vn 0.882514 -0.028828 0.469402
vn 0.882514 -0.028828 0.469402
vn 0.882514 -0.028828 0.469402
vn 0.998714 -0.036717 -0.034963
vn 0.998714 -0.036717 -0.034963
vn 0.998714 -0.036717 -0.034963
vn 0.998714 -0.036717 -0.034963
vn 0.847310 -0.034767 -0.529960
vn 0.847310 -0.034767 -0.529960
vn 0.847310 -0.034767 -0.529960
vn 0.847310 -0.034767 -0.529960
vn 0.468870 -0.023501 -0.882955
vn 0.468870 -0.023501 -0.882955
vn 0.468870 -0.023501 -0.882955
vn 0.468870 -0.023501 -0.882955
vn -0.035204 -0.005938 -0.999363
vn -0.035204 -0.005938 -0.999363
vn -0.035204 -0.005938 -0.999363
vn -0.035204 -0.005938 -0.999363
vn 0.036486 0.999308 -0.007223
vn 0.036486 0.999308 -0.007223
vn 0.036486 0.999308 -0.007223
vn 0.036486 0.999308 -0.007223
vn 0.036486 0.999308 -0.007223
vn 0.036486 0.999308 -0.007223
vn 0.036486 0.999308 -0.007223
vn 0.036486 0.999308 -0.007223
vn 0.036486 0.999308 -0.007223
vn 0.036486 0.999308 -0.007223
vn 0.036486 0.999308 -0.007223
vn 0.036486 0.999308 -0.007223
vn -0.036486 -0.999308 0.007223
vn -0.036486 -0.999308 0.007223
vn -0.036486 -0.999308 0.007223
vn -0.036486 -0.999308 0.007223
vn -0.036486 -0.999308 0.007223
vn -0.036486 -0.999308 0.007223
vn -0.036486 -0.999308 0.007223
vn -0.036486 -0.999308 0.007223
vn -0.036486 -0.999308 0.007223
vn -0.036486 -0.999308 0.007223
vn -0.036486 -0.999308 0.007223
vn -0.036486 -0.999308 0.007223

vt 0.106817 0.096914
vt 0.104500 0.092926
vt 0.100098 0.095483
vt 0.102415 0.099471
vt 0.039073 -0.022328
vt 0.035890 -0.025666
vt 0.032206 -0.022152
vt 0.035389 -0.018815
vt -0.113478 -0.054607
vt -0.118070 -0.055041
vt -0.118549 -0.049973
vt -0.113958 -0.049539
vt -0.189797 0.109602
vt -0.193251 0.112658
vt -0.189877 0.116471
vt -0.186424 0.113415
vt -0.169833 0.192893
vt -0.172248 0.196822
vt -0.167911 0.199488
vt -0.165496 0.195559
vt -0.141382 0.178247
vt -0.143501 0.182343
vt -0.138979 0.184682
vt -0.136860 0.180586
vt -0.104501 0.092926
vt -0.106817 0.096914
vt -0.102415 0.099471
vt -0.100098 0.095483
vt -0.035892 -0.025667
vt -0.039074 -0.022330
vt -0.035390 -0.018816
vt -0.032208 -0.022153
vt 0.193251 0.112658
vt 0.189797 0.109602
vt 0.186424 0.113415
vt 0.189877 0.116471
vt 0.172248 0.196822
vt 0.169833 0.192893
vt 0.165496 0.195559
vt 0.167911 0.199488
vt 0.143502 0.182343
vt 0.141383 0.178247
vt 0.136861 0.180586
vt 0.138980 0.184682
vt 0.155737 0.201557
vt 0.158152 0.205486
vt 0.164658 0.201487
vt 0.162243 0.197558
vt 0.178833 0.121994
vt 0.182287 0.125050
vt 0.187347 0.119330
vt 0.183894 0.116274
vt -0.027100 -0.010908
vt -0.023917 -0.014245
vt -0.029443 -0.019515
vt -0.032626 -0.016178
vt -0.092508 0.105225
vt -0.090192 0.101237
vt -0.096795 0.097401
vt -0.099111 0.101389
vt -0.128805 0.189945
vt -0.126686 0.185849
vt -0.133468 0.182340
vt -0.135587 0.186436
vt -0.158152 0.205486
vt -0.155737 0.201557
vt -0.162243 0.197558
vt -0.164658 0.201487
vt -0.182287 0.125049
vt -0.178833 0.121993
vt -0.183894 0.116274
vt -0.187347 0.119330
vt -0.119627 -0.038567
vt -0.115036 -0.038133
vt -0.114317 -0.045735
vt -0.118908 -0.046169
vt 0.023916 -0.014246
vt 0.027099 -0.010909
vt 0.032625 -0.016179
vt 0.029442 -0.019516
vt 0.090192 0.101238
vt 0.092509 0.105225
vt 0.099112 0.101390
vt 0.096795 0.097402
vt 0.126686 0.185849
vt 0.128805 0.189945
vt 0.135587 0.186436
vt 0.133469 0.182340
vt 0.148147 0.206222
vt 0.150562 0.210150
vt 0.158152 0.205485
vt 0.155738 0.201556
vt 0.172930 0.128666
vt 0.176383 0.131722
vt 0.182287 0.125050
vt 0.178833 0.121994
vt -0.020653 -0.004761
vt -0.017470 -0.008098
vt -0.023917 -0.014247
vt -0.027100 -0.010909
vt -0.084806 0.109700
vt -0.082490 0.105712
vt -0.090193 0.101237
vt -0.092510 0.105224
vt -0.120892 0.194037
vt -0.118773 0.189941
vt -0.126687 0.185848
vt -0.128805 0.189944
vt -0.150563 0.210150
vt -0.148148 0.206221
vt -0.155738 0.201556
vt -0.158153 0.205485
vt -0.120465 -0.029698
vt -0.115874 -0.029264
vt -0.115036 -0.038134
vt -0.119627 -0.038568
vt 0.017470 -0.008099
vt 0.020652 -0.004761
vt 0.027099 -0.010910
vt 0.023917 -0.014248
vt 0.082490 0.105712
vt 0.084806 0.109700
vt 0.092510 0.105225
vt 0.090194 0.101237
vt 0.118774 0.189941
vt 0.120892 0.194038
vt 0.128806 0.189945
vt 0.126687 0.185848
vt 0.101297 0.152627
vt 0.100851 0.151783
vt 0.097475 0.153568
vt 0.097921 0.154412
vt 0.054738 0.046616
vt 0.054192 0.045833
vt 0.051061 0.048018
vt 0.051607 0.048800
vt -0.043915 -0.047167
vt -0.044736 -0.047653
vt -0.046680 -0.044367
vt -0.045859 -0.043881
vt -0.170365 0.049995
vt -0.171248 0.050357
vt -0.169803 0.053891
vt -0.168919 0.053529
vt -0.163258 0.182366
vt -0.163840 0.183123
vt -0.160813 0.185450
vt -0.160231 0.184694
vt -0.133423 0.207666
vt -0.133878 0.208505
vt -0.130522 0.210326
vt -0.130067 0.209487
vt -0.101297 0.152627
vt -0.101743 0.153471
vt -0.098367 0.155255
vt -0.097921 0.154412
vt -0.054738 0.046616
vt -0.055284 0.047399
vt -0.052153 0.049583
vt -0.051607 0.048800
vt 0.043915 -0.047167
vt 0.043093 -0.046681
vt 0.045037 -0.043395
vt 0.045859 -0.043881
vt 0.170365 0.049995
vt 0.169482 0.049634
vt 0.168036 0.053168
vt 0.168919 0.053529
vt 0.163258 0.182366
vt 0.162676 0.181609
vt 0.159649 0.183937
vt 0.160231 0.184694
vt 0.133423 0.207666
vt 0.132968 0.206827
vt 0.129612 0.208648
vt 0.130067 0.209487
vt -0.132232 0.215079
vt -0.132684 0.214200
vt -0.133515 0.213665
vt -0.134502 0.213617
vt -0.135381 0.214068
vt -0.135916 0.214899
vt -0.135964 0.215886
vt -0.135513 0.216765
vt -0.134682 0.217300
vt -0.133695 0.217349
vt -0.132816 0.216897
vt -0.132281 0.216066
vt 0.132281 0.216066
vt 0.132816 0.216897
vt 0.133695 0.217349
vt 0.134682 0.217300
vt 0.135513 0.216765
vt 0.135964 0.215886
vt 0.135916 0.214899
vt 0.135381 0.214068
vt 0.134502 0.213617
vt 0.133515 0.213665
vt 0.132684 0.214200
vt 0.132232 0.215079
s off
f 1/1/1 2/2/2 3/3/3
f 1/1/1 3/3/3 4/4/4
f 5/5/5 6/6/6 7/7/7
f 5/5/5 7/7/7 8/8/8
f 9/9/9 10/10/10 11/11/11
f 9/9/9 11/11/11 12/12/12
f 13/13/13 14/14/14 15/15/15
f 13/13/13 15/15/15 16/16/16
f 17/17/17 18/18/18 19/19/19
f 17/17/17 19/19/19 20/20/20
f 21/21/21 22/22/22 23/23/23
f 21/21/21 23/23/23 24/24/24
f 25/25/25 26/26/26 27/27/27
f 25/25/25 27/27/27 28/28/28
f 29/29/29 30/30/30 31/31/31
f 29/29/29 31/31/31 32/32/32
f 33/33/33 34/34/34 35/35/35
f 33/33/33 35/35/35 36/36/36
f 37/37/37 38/38/38 39/39/39
f 37/37/37 39/39/39 40/40/40
f 41/41/41 42/42/42 43/43/43
f 41/41/41 43/43/43 44/44/44
f 45/45/45 46/46/46 47/47/47
f 45/45/45 47/47/47 48/48/48
f 49/49/49 50/50/50 51/51/51
f 49/49/49 51/51/51 52/52/52
f 53/53/53 54/54/54 55/55/55
f 53/53/53 55/55/55 56/56/56
f 57/57/57 58/58/58 59/59/59
f 57/57/57 59/59/59 60/60/60
f 61/61/61 62/62/62 63/63/63
f 61/61/61 63/63/63 64/64/64
f 65/65/65 66/66/66 67/67/67
f 65/65/65 67/67/67 68/68/68
f 69/69/69 70/70/70 71/71/71
f 69/69/69 71/71/71 72/72/72
f 73/73/73 74/74/74 75/75/75
f 73/73/73 75/75/75 76/76/76
f 77/77/77 78/78/78 79/79/79
f 77/77/77 79/79/79 80/80/80
f 81/81/81 82/82/82 83/83/83
f 81/81/81 83/83/83 84/84/84
f 85/85/85 86/86/86 87/87/87
f 85/85/85 87/87/87 88/88/88
f 89/89/89 90/90/90 91/91/91
f 89/89/89 91/91/91 92/92/92
f 93/93/93 94/94/94 95/95/95
f 93/93/93 95/95/95 96/96/96
f 97/97/97 98/98/98 99/99/99
f 97/97/97 99/99/99 100/100/100
f 101/101/101 102/102/102 103/103/103
f 101/101/101 103/103/103 104/104/104
f 105/105/105 106/106/106 107/107/107
f 105/105/105 107/107/107 108/108/108
f 109/109/109 110/110/110 111/111/111
f 109/109/109 111/111/111 112/112/112
f 113/113/113 114/114/114 115/115/115
f 113/113/113 115/115/115 116/116/116
f 117/117/117 118/118/118 119/119/119
f 117/117/117 119/119/119 120/120/120
f 121/121/121 122/122/122 123/123/123
f 121/121/121 123/123/123 124/124/124
f 125/125/125 126/126/126 127/127/127
f 125/125/125 127/127/127 128/128/128
f 129/129/129 130/130/130 131/131/131
f 129/129/129 131/131/131 132/132/132
f 133/133/133 134/134/134 135/135/135
f 133/133/133 135/135/135 136/136/136
f 137/137/137 138/138/138 139/139/139
f 137/137/137 139/139/139 140/140/140
f 141/141/141 142/142/142 143/143/143
f 141/141/141 143/143/143 144/144/144
f 145/145/145 146/146/146 147/147/147
f 145/145/145 147/147/147 148/148/148
f 149/149/149 150/150/150 151/151/151
f 149/149/149 151/151/151 152/152/152
f 153/153/153 154/154/154 155/155/155
f 153/153/153 155/155/155 156/156/156
f 157/157/157 158/158/158 159/159/159
f 157/157/157 159/159/159 160/160/160
f 161/161/161 162/162/162 163/163/163
f 161/161/161 163/163/163 164/164/164
f 165/165/165 166/166/166 167/167/167
f 165/165/165 167/167/167 168/168/168
f 169/169/169 170/170/170 171/171/171
f 169/169/169 171/171/171 172/172/172
f 173/173/173 174/174/174 175/175/175
f 173/173/173 175/175/175 176/176/176
f 177/177/177 178/178/178 179/179/179
f 177/177/177 179/179/179 180/180/180
f 177/177/177 180/180/180 181/181/181
f 177/177/177 181/181/181 182/182/182
f 177/177/177 182/182/182 183/183/183
f 177/177/177 183/183/183 184/184/184
f 177/177/177 184/184/184 185/185/185
f 177/177/177 185/185/185 186/186/186
f 177/177/177 186/186/186 187/187/187
f 177/177/177 187/187/187 188/188/188
f 189/189/189 190/190/190 191/191/191
f 189/189/189 191/191/191 192/192/192
f 189/189/189 192/192/192 193/193/193
f 189/189/189 193/193/193 194/194/194
f 189/189/189 194/194/194 195/195/195
f 189/189/189 195/195/195 196/196/196
f 189/189/189 196/196/196 197/197/197
f 189/189/189 197/197/197 198/198/198
f 189/189/189 198/198/198 199/199/199
f 189/189/189 199/199/199 200/200/200
