# Exported using automatic converter by Erwin Coumans
mtllib botlab.mtl
#object mesh1748176161

v 0.817479 -1.024026 2.817605
v 0.800175 -1.024589 2.807591
v 0.801561 -1.044500 2.806317
v 0.818864 -1.043937 2.816331
v 0.811495 -1.042704 2.789052
v 0.810109 -1.022793 2.790326
v 0.827412 -1.022230 2.800340
v 0.828798 -1.042141 2.799066
v 0.801561 -1.044500 2.806317
v 0.811495 -1.042704 2.789052
v 0.828798 -1.042141 2.799066
v 0.818864 -1.043937 2.816331
v 0.827412 -1.022230 2.800340
v 0.810109 -1.022793 2.790326
v 0.800175 -1.024589 2.807591
v 0.817479 -1.024026 2.817605
v 0.828798 -1.042141 2.799066
v 0.827412 -1.022230 2.800340
v 0.817479 -1.024026 2.817605
v 0.818864 -1.043937 2.816331
v 0.800175 -1.024589 2.807591
v 0.810109 -1.022793 2.790326
v 0.811495 -1.042704 2.789052
v 0.801561 -1.044500 2.806317
usemtl mat6

vn -0.496685 -0.089796 0.863273
vn -0.496685 -0.089796 0.863273
vn -0.496685 -0.089796 0.863273
vn -0.496685 -0.089796 0.863273
vn 0.496685 0.089796 -0.863273
vn 0.496685 0.089796 -0.863273
vn 0.496685 0.089796 -0.863273
vn 0.496685 0.089796 -0.863273
vn 0.069266 -0.995562 -0.063704
vn 0.069266 -0.995562 -0.063704
vn 0.069266 -0.995562 -0.063704
vn 0.069266 -0.995562 -0.063704
vn -0.069266 0.995562 0.063704
vn -0.069266 0.995562 0.063704
vn -0.069266 0.995562 0.063704
vn -0.069266 0.995562 0.063704
vn 0.865163 0.028154 0.500700
vn 0.865163 0.028154 0.500700
vn 0.865163 0.028154 0.500700
vn 0.865163 0.028154 0.500700
vn -0.865163 -0.028154 -0.500700
vn -0.865163 -0.028154 -0.500700
vn -0.865163 -0.028154 -0.500700
vn -0.865163 -0.028154 -0.500700

vt -0.143475 0.180594
vt -0.142472 0.178863
vt -0.144203 0.177861
vt -0.145205 0.179591
vt 0.144203 0.177861
vt 0.142472 0.178863
vt 0.143475 0.180594
vt 0.145205 0.179591
vt 0.365109 -0.087378
vt 0.363837 -0.085834
vt 0.365380 -0.084562
vt 0.366652 -0.086106
vt -0.365380 -0.084562
vt -0.363837 -0.085834
vt -0.365109 -0.087378
vt -0.366652 -0.086106
vt 0.096089 -0.283937
vt 0.097894 -0.283076
vt 0.098756 -0.284880
vt 0.096951 -0.285742
vt -0.098756 -0.284880
vt -0.097894 -0.283076
vt -0.096089 -0.283937
vt -0.096951 -0.285742
s off
f 1/1/1 2/2/2 3/3/3
f 1/1/1 3/3/3 4/4/4
f 5/5/5 6/6/6 7/7/7
f 5/5/5 7/7/7 8/8/8
f 9/9/9 10/10/10 11/11/11
f 9/9/9 11/11/11 12/12/12
f 13/13/13 14/14/14 15/15/15
f 13/13/13 15/15/15 16/16/16
f 17/17/17 18/18/18 19/19/19
f 17/17/17 19/19/19 20/20/20
f 21/21/21 22/22/22 23/23/23
f 21/21/21 23/23/23 24/24/24
