# Exported using automatic converter by Erwin Coumans
mtllib model6.mtl
#object mesh1736190156

v 3.028139 -0.710833 -2.622081
v 3.026081 -0.659758 -2.622452
v 3.032982 -0.655342 -2.181705
v 3.035040 -0.706417 -2.181334
v 3.007452 -0.656375 -2.182312
v 3.000550 -0.660791 -2.623060
v 3.002608 -0.711866 -2.622689
v 3.009509 -0.707450 -2.181942
v 3.032982 -0.655342 -2.181705
v 3.007452 -0.656375 -2.182312
v 3.009509 -0.707450 -2.181942
v 3.035040 -0.706417 -2.181334
v 3.002608 -0.711866 -2.622689
v 3.000550 -0.660791 -2.623060
v 3.026081 -0.659758 -2.622452
v 3.028139 -0.710833 -2.622081
v 3.009509 -0.707450 -2.181942
v 3.002608 -0.711866 -2.622689
v 3.028139 -0.710833 -2.622081
v 3.035040 -0.706417 -2.181334
v 3.026081 -0.659758 -2.622452
v 3.000550 -0.660791 -2.623060
v 3.007452 -0.656375 -2.182312
v 3.032982 -0.655342 -2.181705
usemtl mat22

vn 0.999065 0.040135 -0.016045
vn 0.999065 0.040135 -0.016045
vn 0.999065 0.040135 -0.016045
vn 0.999065 0.040135 -0.016045
vn -0.999065 -0.040141 0.016045
vn -0.999065 -0.040141 0.016045
vn -0.999065 -0.040141 0.016045
vn -0.999065 -0.040141 0.016045
vn -0.024056 0.006282 0.999691
vn -0.024056 0.006282 0.999691
vn -0.024056 0.006282 0.999691
vn -0.024056 0.006282 0.999691
vn 0.024056 -0.006282 -0.999691
vn 0.024056 -0.006282 -0.999691
vn 0.024056 -0.006282 -0.999691
vn 0.024056 -0.006282 -0.999691
vn 0.040210 -0.999147 0.009380
vn 0.040210 -0.999147 0.009380
vn 0.040210 -0.999147 0.009380
vn 0.040210 -0.999147 0.009380
vn -0.040209 0.999147 -0.009381
vn -0.040209 0.999147 -0.009381
vn -0.040209 0.999147 -0.009381
vn -0.040209 0.999147 -0.009381

vt -0.155578 0.073633
vt -0.152562 0.077761
vt -0.116910 0.051835
vt -0.119925 0.047707
vt 0.116993 0.051895
vt 0.152645 0.077821
vt 0.155660 0.073693
vt 0.120008 0.047767
vt -0.136228 0.232856
vt -0.135165 0.230531
vt -0.139814 0.228406
vt -0.140877 0.230731
vt 0.139170 0.226771
vt 0.134521 0.228895
vt 0.135583 0.231220
vt 0.140233 0.229095
vt -0.034368 0.296568
vt -0.076252 0.310317
vt -0.075359 0.312712
vt -0.033475 0.298963
vt 0.075348 0.312708
vt 0.076242 0.310313
vt 0.034358 0.296564
vt 0.033465 0.298959
s off
f 1/1/1 2/2/2 3/3/3
f 1/1/1 3/3/3 4/4/4
f 5/5/5 6/6/6 7/7/7
f 5/5/5 7/7/7 8/8/8
f 9/9/9 10/10/10 11/11/11
f 9/9/9 11/11/11 12/12/12
f 13/13/13 14/14/14 15/15/15
f 13/13/13 15/15/15 16/16/16
f 17/17/17 18/18/18 19/19/19
f 17/17/17 19/19/19 20/20/20
f 21/21/21 22/22/22 23/23/23
f 21/21/21 23/23/23 24/24/24
