# Exported using automatic converter by Erwin Coumans
mtllib model6.mtl
#object mesh1517285378

v 0.918571 -0.652606 2.667032
v 0.914716 -0.641546 2.650820
v 0.926882 -0.653163 2.640002
v 0.930737 -0.664223 2.656214
v 0.942281 -0.641217 2.644490
v 0.930115 -0.629599 2.655308
v 0.933970 -0.640659 2.671520
v 0.946136 -0.652276 2.660702
v 0.926882 -0.653163 2.640002
v 0.942281 -0.641217 2.644490
v 0.946136 -0.652276 2.660702
v 0.930737 -0.664223 2.656214
v 0.933970 -0.640659 2.671520
v 0.930115 -0.629599 2.655308
v 0.914716 -0.641546 2.650820
v 0.918571 -0.652606 2.667032
v 0.946136 -0.652276 2.660702
v 0.933970 -0.640659 2.671520
v 0.918571 -0.652606 2.667032
v 0.930737 -0.664223 2.656214
v 0.914716 -0.641546 2.650820
v 0.930115 -0.629599 2.655308
v 0.942281 -0.641217 2.644490
v 0.926882 -0.653163 2.640002
usemtl mat6

vn -0.769951 -0.597339 -0.224413
vn -0.769951 -0.597339 -0.224413
vn -0.769951 -0.597339 -0.224413
vn -0.769951 -0.597339 -0.224413
vn 0.769951 0.597339 0.224413
vn 0.769951 0.597339 0.224413
vn 0.769951 0.597339 0.224413
vn 0.769951 0.597339 0.224413
vn 0.608296 -0.580865 -0.540899
vn 0.608296 -0.580865 -0.540899
vn 0.608296 -0.580865 -0.540899
vn 0.608296 -0.580865 -0.540899
vn -0.608296 0.580865 0.540899
vn -0.608296 0.580865 0.540899
vn -0.608296 0.580865 0.540899
vn -0.608296 0.580865 0.540899
vn 0.192746 -0.552975 0.810597
vn 0.192746 -0.552975 0.810597
vn 0.192746 -0.552975 0.810597
vn 0.192746 -0.552975 0.810597
vn -0.192746 0.552975 -0.810597
vn -0.192746 0.552975 -0.810597
vn -0.192746 0.552975 -0.810597
vn -0.192746 0.552975 -0.810597

vt 0.164033 -0.299998
vt 0.162418 -0.298818
vt 0.163598 -0.297203
vt 0.165213 -0.298382
vt -0.163598 -0.297203
vt -0.162418 -0.298818
vt -0.164033 -0.299998
vt -0.165213 -0.298382
vt 0.328837 0.000661
vt 0.329543 0.002532
vt 0.331414 0.001825
vt 0.330708 -0.000046
vt -0.331414 0.001825
vt -0.329543 0.002532
vt -0.328837 0.000661
vt -0.330708 -0.000046
vt 0.182037 0.039602
vt 0.183813 0.038683
vt 0.182895 0.036906
vt 0.181118 0.037825
vt -0.182895 0.036906
vt -0.183813 0.038683
vt -0.182037 0.039602
vt -0.181118 0.037825
s off
f 1/1/1 2/2/2 3/3/3
f 1/1/1 3/3/3 4/4/4
f 5/5/5 6/6/6 7/7/7
f 5/5/5 7/7/7 8/8/8
f 9/9/9 10/10/10 11/11/11
f 9/9/9 11/11/11 12/12/12
f 13/13/13 14/14/14 15/15/15
f 13/13/13 15/15/15 16/16/16
f 17/17/17 18/18/18 19/19/19
f 17/17/17 19/19/19 20/20/20
f 21/21/21 22/22/22 23/23/23
f 21/21/21 23/23/23 24/24/24
