# Exported using automatic converter by Erwin Coumans
mtllib model6.mtl
#object group1943978478_1

v -2.604496 -0.228579 0.748576
v -2.603805 -0.198616 0.749883
v -2.573856 -0.199235 0.748245
v -2.574547 -0.229199 0.746938
v -2.569028 -0.203263 0.838025
v -2.598977 -0.202644 0.839664
v -2.599668 -0.232607 0.838356
v -2.569720 -0.233227 0.836718
v -2.573856 -0.199235 0.748245
v -2.569028 -0.203263 0.838025
v -2.569720 -0.233227 0.836718
v -2.574547 -0.229199 0.746938
v -2.599668 -0.232607 0.838356
v -2.598977 -0.202644 0.839664
v -2.603805 -0.198616 0.749883
v -2.604496 -0.228579 0.748576
v -2.569720 -0.233227 0.836718
v -2.599668 -0.232607 0.838356
v -2.604496 -0.228579 0.748576
v -2.574547 -0.229199 0.746938
v -2.603805 -0.198616 0.749883
v -2.598977 -0.202644 0.839664
v -2.569028 -0.203263 0.838025
v -2.573856 -0.199235 0.748245
v -2.487405 -0.247104 0.881792
v -2.486713 -0.217140 0.883099
v -2.488323 -0.215797 0.853172
v -2.489014 -0.245761 0.851865
v -2.418442 -0.217242 0.849350
v -2.416833 -0.218585 0.879277
v -2.417524 -0.248548 0.877970
v -2.419133 -0.247206 0.848043
v -2.488323 -0.215797 0.853172
v -2.418442 -0.217242 0.849350
v -2.419133 -0.247206 0.848043
v -2.489014 -0.245761 0.851865
v -2.417524 -0.248548 0.877970
v -2.416833 -0.218585 0.879277
v -2.486713 -0.217140 0.883099
v -2.487405 -0.247104 0.881792
v -2.419133 -0.247206 0.848043
v -2.417524 -0.248548 0.877970
v -2.487405 -0.247104 0.881792
v -2.489014 -0.245761 0.851865
v -2.486713 -0.217140 0.883099
v -2.416833 -0.218585 0.879277
v -2.418442 -0.217242 0.849350
v -2.488323 -0.215797 0.853172
v -2.454065 -0.124262 0.867993
v -2.462213 -0.118478 0.867612
v -2.574722 -0.279154 0.853782
v -2.566574 -0.284938 0.854163
v -2.564110 -0.274042 0.704245
v -2.451601 -0.113367 0.718076
v -2.443453 -0.119150 0.718456
v -2.555962 -0.279826 0.704626
v -2.574722 -0.279154 0.853782
v -2.564110 -0.274042 0.704245
v -2.555962 -0.279826 0.704626
v -2.566574 -0.284938 0.854163
v -2.443453 -0.119150 0.718456
v -2.451601 -0.113367 0.718076
v -2.462213 -0.118478 0.867612
v -2.454065 -0.124262 0.867993
v -2.555962 -0.279826 0.704626
v -2.443453 -0.119150 0.718456
v -2.454065 -0.124262 0.867993
v -2.566574 -0.284938 0.854163
v -2.462213 -0.118478 0.867612
v -2.451601 -0.113367 0.718076
v -2.564110 -0.274042 0.704245
v -2.574722 -0.279154 0.853782
v -2.367177 -0.140164 0.839293
v -2.362431 -0.118126 0.839250
v -2.436627 -0.325004 0.829447
v -2.427318 -0.328406 0.830771
v -2.415680 -0.325479 0.680918
v -2.355539 -0.137237 0.689440
v -2.346230 -0.140638 0.690764
v -2.406370 -0.328880 0.682241
v -2.436627 -0.325004 0.829447
v -2.415680 -0.325479 0.680918
v -2.406370 -0.328880 0.682241
v -2.427318 -0.328406 0.830771
v -2.346230 -0.140638 0.690764
v -2.355539 -0.137237 0.689440
v -2.362431 -0.118126 0.839250
v -2.406370 -0.328880 0.682241
v -2.346230 -0.140638 0.690764
v -2.367177 -0.140164 0.839293
v -2.427318 -0.328406 0.830771
v -2.362431 -0.118126 0.839250
v -2.415680 -0.325479 0.680918
v -2.436627 -0.325004 0.829447
v -2.362431 -0.118126 0.839250
v -2.367177 -0.140164 0.839293
v -2.346230 -0.140638 0.690764
v -2.362431 -0.118126 0.839250
v -2.355539 -0.137237 0.689440
v -2.415680 -0.325479 0.680918
usemtl mat21

vn -0.053639 0.044756 -0.997557
vn -0.053639 0.044756 -0.997557
vn -0.053639 0.044756 -0.997557
vn -0.053639 0.044756 -0.997557
vn 0.053639 -0.044756 0.997557
vn 0.053639 -0.044756 0.997557
vn 0.053639 -0.044756 0.997557
vn 0.053639 -0.044756 0.997557
vn 0.998295 -0.020641 -0.054605
vn 0.998295 -0.020641 -0.054605
vn 0.998295 -0.020641 -0.054605
vn 0.998295 -0.020641 -0.054605
vn -0.998295 0.020641 0.054605
vn -0.998295 0.020641 0.054605
vn -0.998295 0.020641 0.054605
vn -0.998295 0.020641 0.054605
vn -0.023035 -0.998785 -0.043573
vn -0.023035 -0.998785 -0.043573
vn -0.023035 -0.998785 -0.043573
vn -0.023035 -0.998785 -0.043573
vn 0.023035 0.998785 0.043573
vn 0.023035 0.998785 0.043573
vn 0.023035 0.998785 0.043573
vn 0.023035 0.998785 0.043573
vn -0.998295 0.020641 0.054605
vn -0.998295 0.020641 0.054605
vn -0.998295 0.020641 0.054605
vn -0.998295 0.020641 0.054605
vn 0.998295 -0.020641 -0.054605
vn 0.998295 -0.020641 -0.054605
vn 0.998295 -0.020641 -0.054605
vn 0.998295 -0.020641 -0.054605
vn -0.053639 0.044756 -0.997557
vn -0.053639 0.044756 -0.997557
vn -0.053639 0.044756 -0.997557
vn -0.053639 0.044756 -0.997557
vn 0.053639 -0.044756 0.997557
vn 0.053639 -0.044756 0.997557
vn 0.053639 -0.044756 0.997557
vn 0.053639 -0.044756 0.997557
vn -0.023035 -0.998785 -0.043573
vn -0.023035 -0.998785 -0.043573
vn -0.023035 -0.998785 -0.043573
vn -0.023035 -0.998785 -0.043573
vn 0.023035 0.998785 0.043573
vn 0.023035 0.998785 0.043573
vn 0.023035 0.998785 0.043573
vn 0.023035 0.998785 0.043573
vn -0.071779 -0.035540 0.996787
vn -0.071779 -0.035540 0.996787
vn -0.071779 -0.035540 0.996787
vn -0.071779 -0.035540 0.996787
vn 0.071756 0.035555 -0.996788
vn 0.071756 0.035555 -0.996788
vn 0.071756 0.035555 -0.996788
vn 0.071756 0.035555 -0.996788
vn -0.575298 -0.815055 -0.068688
vn -0.575298 -0.815055 -0.068688
vn -0.575298 -0.815055 -0.068688
vn -0.575298 -0.815055 -0.068688
vn 0.575298 0.815055 0.068688
vn 0.575298 0.815055 0.068688
vn 0.575298 0.815055 0.068688
vn 0.575298 0.815055 0.068688
vn 0.816990 -0.575377 0.038310
vn 0.816990 -0.575377 0.038310
vn 0.816990 -0.575377 0.038310
vn 0.816990 -0.575377 0.038310
vn -0.816991 0.575377 -0.038311
vn -0.816991 0.575377 -0.038311
vn -0.816991 0.575377 -0.038311
vn -0.816991 0.575377 -0.038311
vn -0.139650 0.003163 0.990196
vn -0.139650 0.003163 0.990196
vn -0.139650 0.003163 0.990196
vn -0.139650 0.003163 0.990196
vn 0.140737 -0.000139 -0.990047
vn 0.140737 -0.000139 -0.990047
vn 0.140737 -0.000139 -0.990047
vn 0.140737 -0.000139 -0.990047
vn -0.337258 -0.940357 -0.044560
vn -0.337258 -0.940357 -0.044560
vn -0.337258 -0.940357 -0.044560
vn -0.337258 -0.940357 -0.044560
vn 0.354190 0.929562 -0.102289
vn 0.354190 0.929562 -0.102289
vn 0.354190 0.929562 -0.102289
vn 0.942220 -0.307087 0.133865
vn 0.942220 -0.307087 0.133865
vn 0.942220 -0.307087 0.133865
vn 0.942220 -0.307087 0.133865
vn -0.930997 0.340174 -0.132388
vn -0.930997 0.340174 -0.132388
vn -0.930997 0.340174 -0.132388
vn 0.968387 -0.208309 0.137240
vn 0.968387 -0.208309 0.137240
vn 0.968387 -0.208309 0.137240
vn -0.948208 0.306685 -0.082742
vn -0.948208 0.306685 -0.082742
vn -0.948208 0.306685 -0.082742

vt -0.158163 -0.256539
vt -0.160843 -0.255190
vt -0.159495 -0.252510
vt -0.156815 -0.253859
vt 0.159495 -0.252510
vt 0.160843 -0.255190
vt 0.158163 -0.256539
vt 0.156815 -0.253859
vt 0.139145 -0.054781
vt 0.146722 -0.059639
vt 0.145102 -0.062164
vt 0.137526 -0.057306
vt -0.145102 -0.062164
vt -0.146722 -0.059639
vt -0.139145 -0.054781
vt -0.137526 -0.057306
vt 0.056921 -0.330700
vt 0.056000 -0.333556
vt 0.047435 -0.330792
vt 0.048356 -0.327937
vt -0.047435 -0.330792
vt -0.056000 -0.333556
vt -0.056921 -0.330700
vt -0.048356 -0.327937
vt -0.148772 -0.065705
vt -0.150391 -0.063179
vt -0.147866 -0.061560
vt -0.146246 -0.064085
vt 0.147866 -0.061560
vt 0.150391 -0.063179
vt 0.148772 -0.065705
vt 0.146246 -0.064085
vt -0.155006 -0.245813
vt -0.151860 -0.239560
vt -0.149180 -0.240909
vt -0.152326 -0.247162
vt 0.149180 -0.240908
vt 0.151860 -0.239560
vt 0.155006 -0.245813
vt 0.152326 -0.247162
vt 0.063430 -0.317039
vt 0.066285 -0.317960
vt 0.064136 -0.324622
vt 0.061281 -0.323701
vt -0.064136 -0.324622
vt -0.066285 -0.317960
vt -0.063430 -0.317039
vt -0.061281 -0.323701
vt 0.155723 -0.216113
vt 0.156604 -0.216585
vt 0.147267 -0.233890
vt 0.146385 -0.233419
vt -0.147256 -0.233918
vt -0.156594 -0.216613
vt -0.155712 -0.216141
vt -0.146375 -0.233446
vt -0.011031 -0.308253
vt -0.022367 -0.298429
vt -0.021712 -0.297674
vt -0.010377 -0.307498
vt 0.021733 -0.297752
vt 0.022387 -0.298507
vt 0.011052 -0.308331
vt 0.010397 -0.307576
vt 0.104604 -0.198758
vt 0.112914 -0.180936
vt 0.126520 -0.187250
vt 0.118211 -0.205072
vt -0.126522 -0.187247
vt -0.112915 -0.180933
vt -0.104606 -0.198755
vt -0.118212 -0.205069
vt 0.143112 -0.196542
vt 0.144836 -0.195091
vt 0.130104 -0.211430
vt 0.129362 -0.210761
vt -0.130311 -0.211097
vt -0.144076 -0.196892
vt -0.143334 -0.196222
vt -0.129569 -0.210427
vt 0.036664 -0.314540
vt 0.024313 -0.306029
vt 0.024880 -0.305206
vt 0.037232 -0.313717
vt -0.054232 -0.295934
vt -0.053773 -0.296822
vt -0.067503 -0.303149
vt 0.129715 -0.156423
vt 0.140452 -0.139812
vt 0.153076 -0.147914
vt 0.142338 -0.164525
vt -0.151958 -0.150803
vt -0.127608 -0.161575
vt -0.140349 -0.169490
vt 0.160969 -0.133594
vt 0.159709 -0.135463
vt 0.147514 -0.126728
vt -0.148637 -0.133796
vt -0.134640 -0.128083
vt -0.124517 -0.145076
s off
f 1/1/1 2/2/2 3/3/3
f 1/1/1 3/3/3 4/4/4
f 5/5/5 6/6/6 7/7/7
f 5/5/5 7/7/7 8/8/8
f 9/9/9 10/10/10 11/11/11
f 9/9/9 11/11/11 12/12/12
f 13/13/13 14/14/14 15/15/15
f 13/13/13 15/15/15 16/16/16
f 17/17/17 18/18/18 19/19/19
f 17/17/17 19/19/19 20/20/20
f 21/21/21 22/22/22 23/23/23
f 21/21/21 23/23/23 24/24/24
f 25/25/25 26/26/26 27/27/27
f 25/25/25 27/27/27 28/28/28
f 29/29/29 30/30/30 31/31/31
f 29/29/29 31/31/31 32/32/32
f 33/33/33 34/34/34 35/35/35
f 33/33/33 35/35/35 36/36/36
f 37/37/37 38/38/38 39/39/39
f 37/37/37 39/39/39 40/40/40
f 41/41/41 42/42/42 43/43/43
f 41/41/41 43/43/43 44/44/44
f 45/45/45 46/46/46 47/47/47
f 45/45/45 47/47/47 48/48/48
f 49/49/49 50/50/50 51/51/51
f 49/49/49 51/51/51 52/52/52
f 53/53/53 54/54/54 55/55/55
f 53/53/53 55/55/55 56/56/56
f 57/57/57 58/58/58 59/59/59
f 57/57/57 59/59/59 60/60/60
f 61/61/61 62/62/62 63/63/63
f 61/61/61 63/63/63 64/64/64
f 65/65/65 66/66/66 67/67/67
f 65/65/65 67/67/67 68/68/68
f 69/69/69 70/70/70 71/71/71
f 69/69/69 71/71/71 72/72/72
f 73/73/73 74/74/74 75/75/75
f 73/73/73 75/75/75 76/76/76
f 77/77/77 78/78/78 79/79/79
f 77/77/77 79/79/79 80/80/80
f 81/81/81 82/82/82 83/83/83
f 81/81/81 83/83/83 84/84/84
f 85/85/85 86/86/86 87/87/87
f 88/88/88 89/89/89 90/90/90
f 88/88/88 90/90/90 91/91/91
f 92/92/92 93/93/93 94/94/94
f 95/95/95 96/96/96 97/97/97
f 98/98/98 99/99/99 100/100/100
