# Exported using automatic converter by Erwin Coumans
mtllib model6.mtl
#object mesh215039649

v -1.101762 -0.594511 2.329852
v -1.101762 -0.514511 2.329852
v -1.101762 -0.514511 2.299851
v -1.101762 -0.594511 2.299851
v -1.071762 -0.514511 2.299851
v -1.071762 -0.514511 2.329852
v -1.071762 -0.594511 2.329852
v -1.071762 -0.594511 2.299851
v -1.101762 -0.514511 2.299851
v -1.071762 -0.514511 2.299851
v -1.071762 -0.594511 2.299851
v -1.101762 -0.594511 2.299851
v -1.071762 -0.594511 2.329852
v -1.071762 -0.514511 2.329852
v -1.101762 -0.514511 2.329852
v -1.101762 -0.594511 2.329852
v -1.071762 -0.594511 2.299851
v -1.071762 -0.594511 2.329852
v -1.101762 -0.594511 2.329852
v -1.101762 -0.594511 2.299851
v -1.101762 -0.514511 2.329852
v -1.071762 -0.514511 2.329852
v -1.071762 -0.514511 2.299851
v -1.101762 -0.514511 2.299851
usemtl mat23

vn -1.000000 0.000000 -0.000000
vn -1.000000 0.000000 -0.000000
vn -1.000000 0.000000 -0.000000
vn -1.000000 0.000000 -0.000000
vn 1.000000 0.000000 0.000000
vn 1.000000 0.000000 0.000000
vn 1.000000 0.000000 0.000000
vn 1.000000 0.000000 0.000000
vn 0.000000 0.000000 -1.000000
vn 0.000000 0.000000 -1.000000
vn 0.000000 0.000000 -1.000000
vn 0.000000 0.000000 -1.000000
vn -0.000000 -0.000000 1.000000
vn -0.000000 -0.000000 1.000000
vn -0.000000 -0.000000 1.000000
vn -0.000000 -0.000000 1.000000
vn 0.000000 -1.000000 0.000000
vn 0.000000 -1.000000 0.000000
vn 0.000000 -1.000000 0.000000
vn 0.000000 -1.000000 0.000000
vn 0.000000 1.000000 -0.000000
vn 0.000000 1.000000 -0.000000
vn 0.000000 1.000000 -0.000000
vn 0.000000 1.000000 -0.000000

vt -0.255629 -0.196110
vt -0.260278 -0.189600
vt -0.257837 -0.187856
vt -0.253187 -0.194366
vt 0.257837 -0.187856
vt 0.260278 -0.189600
vt 0.255629 -0.196110
vt 0.253187 -0.194366
vt -0.060374 -0.127456
vt -0.059032 -0.124772
vt -0.051877 -0.128350
vt -0.053218 -0.131033
vt 0.051877 -0.128350
vt 0.059032 -0.124772
vt 0.060374 -0.127456
vt 0.053218 -0.131033
vt 0.254001 -0.237252
vt 0.256826 -0.238261
vt 0.255818 -0.241086
vt 0.252992 -0.240077
vt -0.255818 -0.241086
vt -0.256826 -0.238261
vt -0.254001 -0.237252
vt -0.252992 -0.240077
s off
f 1/1/1 2/2/2 3/3/3
f 1/1/1 3/3/3 4/4/4
f 5/5/5 6/6/6 7/7/7
f 5/5/5 7/7/7 8/8/8
f 9/9/9 10/10/10 11/11/11
f 9/9/9 11/11/11 12/12/12
f 13/13/13 14/14/14 15/15/15
f 13/13/13 15/15/15 16/16/16
f 17/17/17 18/18/18 19/19/19
f 17/17/17 19/19/19 20/20/20
f 21/21/21 22/22/22 23/23/23
f 21/21/21 23/23/23 24/24/24
