# Exported using automatic converter by Erwin Coumans
mtllib model6.mtl
#object group1487006333_7

v 1.518379 -0.667433 -2.188071
v 1.516390 -0.494654 -2.186358
v 1.517072 -0.494075 -2.243951
v 1.519061 -0.666855 -2.245664
v 1.574664 -0.493419 -2.243263
v 1.573982 -0.493998 -2.185670
v 1.575971 -0.666777 -2.187383
v 1.576653 -0.666198 -2.244976
v 1.517072 -0.494075 -2.243951
v 1.574664 -0.493419 -2.243263
v 1.576653 -0.666198 -2.244976
v 1.519061 -0.666855 -2.245664
v 1.575971 -0.666777 -2.187383
v 1.573982 -0.493998 -2.185670
v 1.516390 -0.494654 -2.186358
v 1.518379 -0.667433 -2.188071
v 1.576653 -0.666198 -2.244976
v 1.575971 -0.666777 -2.187383
v 1.518379 -0.667433 -2.188071
v 1.519061 -0.666855 -2.245664
v 1.516390 -0.494654 -2.186358
v 1.573982 -0.493998 -2.185670
v 1.574664 -0.493419 -2.243263
v 1.517072 -0.494075 -2.243951
v 1.299321 -0.745213 -1.860206
v 1.298492 -0.673222 -1.859492
v 1.302581 -0.669749 -2.205050
v 1.303410 -0.741741 -2.205763
v 1.331377 -0.669421 -2.204705
v 1.327288 -0.672894 -1.859148
v 1.328117 -0.744885 -1.859862
v 1.332206 -0.741413 -2.205419
v 1.302581 -0.669749 -2.205050
v 1.331377 -0.669421 -2.204705
v 1.332206 -0.741413 -2.205419
v 1.303410 -0.741741 -2.205763
v 1.328117 -0.744885 -1.859862
v 1.327288 -0.672894 -1.859148
v 1.298492 -0.673222 -1.859492
v 1.299321 -0.745213 -1.860206
v 1.332206 -0.741413 -2.205419
v 1.328117 -0.744885 -1.859862
v 1.299321 -0.745213 -1.860206
v 1.303410 -0.741741 -2.205763
v 1.298492 -0.673222 -1.859492
v 1.327288 -0.672894 -1.859148
v 1.331377 -0.669421 -2.204705
v 1.302581 -0.669749 -2.205050
v 1.486493 -0.743080 -1.857970
v 1.485664 -0.671089 -1.857256
v 1.489753 -0.667616 -2.202813
v 1.490582 -0.739608 -2.203527
v 1.532947 -0.667124 -2.202297
v 1.528858 -0.670596 -1.856740
v 1.529687 -0.742588 -1.857454
v 1.533776 -0.739116 -2.203011
v 1.489753 -0.667616 -2.202813
v 1.532947 -0.667124 -2.202297
v 1.533776 -0.739116 -2.203011
v 1.490582 -0.739608 -2.203527
v 1.529687 -0.742588 -1.857454
v 1.528858 -0.670596 -1.856740
v 1.485664 -0.671089 -1.857256
v 1.486493 -0.743080 -1.857970
v 1.533776 -0.739116 -2.203011
v 1.529687 -0.742588 -1.857454
v 1.486493 -0.743080 -1.857970
v 1.490582 -0.739608 -2.203527
v 1.485664 -0.671089 -1.857256
v 1.528858 -0.670596 -1.856740
v 1.532947 -0.667124 -2.202297
v 1.489753 -0.667616 -2.202813
v 1.574485 -0.522650 -2.200354
v 1.573822 -0.465056 -2.199783
v 1.271464 -0.468501 -2.203395
v 1.272127 -0.526095 -2.203966
v 1.272145 -0.467923 -2.260988
v 1.574503 -0.464478 -2.257376
v 1.575166 -0.522071 -2.257947
v 1.272808 -0.525516 -2.261559
v 1.271464 -0.468501 -2.203395
v 1.272145 -0.467923 -2.260988
v 1.272808 -0.525516 -2.261559
v 1.272127 -0.526095 -2.203966
v 1.575166 -0.522071 -2.257947
v 1.574503 -0.464478 -2.257376
v 1.573822 -0.465056 -2.199783
v 1.574485 -0.522650 -2.200354
v 1.272808 -0.525516 -2.261559
v 1.575166 -0.522071 -2.257947
v 1.574485 -0.522650 -2.200354
v 1.272127 -0.526095 -2.203966
v 1.573822 -0.465056 -2.199783
v 1.574503 -0.464478 -2.257376
v 1.272145 -0.467923 -2.260988
v 1.271464 -0.468501 -2.203395
v 1.332044 -0.712471 -2.219532
v 1.329391 -0.482099 -2.217248
v 1.271800 -0.482755 -2.217937
v 1.274452 -0.713128 -2.220220
v 1.272481 -0.482177 -2.275529
v 1.330073 -0.481520 -2.274841
v 1.332725 -0.711893 -2.277124
v 1.275133 -0.712549 -2.277812
v 1.271800 -0.482755 -2.217937
v 1.272481 -0.482177 -2.275529
v 1.275133 -0.712549 -2.277812
v 1.274452 -0.713128 -2.220220
v 1.332725 -0.711893 -2.277124
v 1.330073 -0.481520 -2.274841
v 1.329391 -0.482099 -2.217248
v 1.332044 -0.712471 -2.219532
v 1.275133 -0.712549 -2.277812
v 1.332725 -0.711893 -2.277124
v 1.332044 -0.712471 -2.219532
v 1.274452 -0.713128 -2.220220
v 1.329391 -0.482099 -2.217248
v 1.330073 -0.481520 -2.274841
v 1.272481 -0.482177 -2.275529
v 1.271800 -0.482755 -2.217937
v 1.576810 -0.709682 -2.216608
v 1.576147 -0.652089 -2.216037
v 1.302585 -0.655206 -2.219305
v 1.303248 -0.712799 -2.219876
v 1.303266 -0.654628 -2.276898
v 1.576828 -0.651510 -2.273630
v 1.577491 -0.709104 -2.274200
v 1.303929 -0.712221 -2.277469
v 1.302585 -0.655206 -2.219305
v 1.303266 -0.654628 -2.276898
v 1.303929 -0.712221 -2.277469
v 1.303248 -0.712799 -2.219876
v 1.577491 -0.709104 -2.274200
v 1.576828 -0.651510 -2.273630
v 1.576147 -0.652089 -2.216037
v 1.576810 -0.709682 -2.216608
v 1.303929 -0.712221 -2.277469
v 1.577491 -0.709104 -2.274200
v 1.576810 -0.709682 -2.216608
v 1.303248 -0.712799 -2.219876
v 1.576147 -0.652089 -2.216037
v 1.576828 -0.651510 -2.273630
v 1.303266 -0.654628 -2.276898
v 1.302585 -0.655206 -2.219305
v 1.590365 -0.681156 -2.172956
v 1.589702 -0.623563 -2.172385
v 1.532110 -0.624219 -2.173073
v 1.532773 -0.681812 -2.173644
v 1.532791 -0.623640 -2.230666
v 1.590383 -0.622984 -2.229978
v 1.591046 -0.680577 -2.230549
v 1.533455 -0.681233 -2.231236
v 1.532110 -0.624219 -2.173073
v 1.532791 -0.623640 -2.230666
v 1.533455 -0.681233 -2.231236
v 1.532773 -0.681812 -2.173644
v 1.591046 -0.680577 -2.230549
v 1.590383 -0.622984 -2.229978
v 1.589702 -0.623563 -2.172385
v 1.590365 -0.681156 -2.172956
v 1.533455 -0.681233 -2.231236
v 1.591046 -0.680577 -2.230549
v 1.590365 -0.681156 -2.172956
v 1.532773 -0.681812 -2.173644
v 1.589702 -0.623563 -2.172385
v 1.590383 -0.622984 -2.229978
v 1.532791 -0.623640 -2.230666
v 1.532110 -0.624219 -2.173073
usemtl mat16

vn -0.999864 -0.011393 -0.011945
vn -0.999864 -0.011393 -0.011945
vn -0.999864 -0.011393 -0.011945
vn -0.999864 -0.011393 -0.011945
vn 0.999864 0.011393 0.011945
vn 0.999864 0.011393 0.011945
vn 0.999864 0.011393 0.011945
vn 0.999864 0.011393 0.011945
vn 0.011830 0.010047 -0.999879
vn 0.011830 0.010047 -0.999879
vn 0.011830 0.010047 -0.999879
vn 0.011830 0.010047 -0.999879
vn -0.011830 -0.010047 0.999879
vn -0.011830 -0.010047 0.999879
vn -0.011830 -0.010047 0.999879
vn -0.011830 -0.010047 0.999879
vn 0.011511 -0.999885 -0.009911
vn 0.011511 -0.999885 -0.009911
vn 0.011511 -0.999885 -0.009911
vn 0.011511 -0.999885 -0.009911
vn -0.011511 0.999885 0.009911
vn -0.011511 0.999885 0.009911
vn -0.011511 0.999885 0.009911
vn -0.011511 0.999885 0.009911
vn -0.999864 -0.011393 -0.011945
vn -0.999864 -0.011393 -0.011945
vn -0.999864 -0.011393 -0.011945
vn -0.999864 -0.011393 -0.011945
vn 0.999864 0.011393 0.011945
vn 0.999864 0.011393 0.011945
vn 0.999864 0.011393 0.011945
vn 0.999864 0.011393 0.011945
vn 0.011830 0.010047 -0.999879
vn 0.011830 0.010047 -0.999879
vn 0.011830 0.010047 -0.999879
vn 0.011830 0.010047 -0.999879
vn -0.011830 -0.010047 0.999879
vn -0.011830 -0.010047 0.999879
vn -0.011830 -0.010047 0.999879
vn -0.011830 -0.010047 0.999879
vn 0.011511 -0.999885 -0.009911
vn 0.011511 -0.999885 -0.009911
vn 0.011511 -0.999885 -0.009911
vn 0.011511 -0.999885 -0.009911
vn -0.011511 0.999885 0.009911
vn -0.011511 0.999885 0.009911
vn -0.011511 0.999885 0.009911
vn -0.011511 0.999885 0.009911
vn -0.999864 -0.011393 -0.011945
vn -0.999864 -0.011393 -0.011945
vn -0.999864 -0.011393 -0.011945
vn -0.999864 -0.011393 -0.011945
vn 0.999864 0.011393 0.011945
vn 0.999864 0.011393 0.011945
vn 0.999864 0.011393 0.011945
vn 0.999864 0.011393 0.011945
vn 0.011830 0.010047 -0.999879
vn 0.011830 0.010047 -0.999879
vn 0.011830 0.010047 -0.999879
vn 0.011830 0.010047 -0.999879
vn -0.011830 -0.010047 0.999879
vn -0.011830 -0.010047 0.999879
vn -0.011830 -0.010047 0.999879
vn -0.011830 -0.010047 0.999879
vn 0.011511 -0.999885 -0.009911
vn 0.011511 -0.999885 -0.009911
vn 0.011511 -0.999885 -0.009911
vn 0.011511 -0.999885 -0.009911
vn -0.011511 0.999885 0.009911
vn -0.011511 0.999885 0.009911
vn -0.011511 0.999885 0.009911
vn -0.011511 0.999885 0.009911
vn -0.011830 -0.010047 0.999879
vn -0.011830 -0.010047 0.999879
vn -0.011830 -0.010047 0.999879
vn -0.011830 -0.010047 0.999879
vn 0.011830 0.010047 -0.999879
vn 0.011830 0.010047 -0.999879
vn 0.011830 0.010047 -0.999879
vn 0.011830 0.010047 -0.999879
vn -0.999864 -0.011393 -0.011945
vn -0.999864 -0.011393 -0.011945
vn -0.999864 -0.011393 -0.011945
vn -0.999864 -0.011393 -0.011945
vn 0.999864 0.011393 0.011945
vn 0.999864 0.011393 0.011945
vn 0.999864 0.011393 0.011945
vn 0.999864 0.011393 0.011945
vn 0.011511 -0.999885 -0.009911
vn 0.011511 -0.999885 -0.009911
vn 0.011511 -0.999885 -0.009911
vn 0.011511 -0.999885 -0.009911
vn -0.011511 0.999885 0.009911
vn -0.011511 0.999885 0.009911
vn -0.011511 0.999885 0.009911
vn -0.011511 0.999885 0.009911
vn -0.011830 -0.010047 0.999879
vn -0.011830 -0.010047 0.999879
vn -0.011830 -0.010047 0.999879
vn -0.011830 -0.010047 0.999879
vn 0.011830 0.010047 -0.999879
vn 0.011830 0.010047 -0.999879
vn 0.011830 0.010047 -0.999879
vn 0.011830 0.010047 -0.999879
vn -0.999864 -0.011393 -0.011945
vn -0.999864 -0.011393 -0.011945
vn -0.999864 -0.011393 -0.011945
vn -0.999864 -0.011393 -0.011945
vn 0.999864 0.011393 0.011945
vn 0.999864 0.011393 0.011945
vn 0.999864 0.011393 0.011945
vn 0.999864 0.011393 0.011945
vn 0.011511 -0.999885 -0.009911
vn 0.011511 -0.999885 -0.009911
vn 0.011511 -0.999885 -0.009911
vn 0.011511 -0.999885 -0.009911
vn -0.011511 0.999885 0.009911
vn -0.011511 0.999885 0.009911
vn -0.011511 0.999885 0.009911
vn -0.011511 0.999885 0.009911
vn -0.011830 -0.010047 0.999879
vn -0.011830 -0.010047 0.999879
vn -0.011830 -0.010047 0.999879
vn -0.011830 -0.010047 0.999879
vn 0.011830 0.010047 -0.999879
vn 0.011830 0.010047 -0.999879
vn 0.011830 0.010047 -0.999879
vn 0.011830 0.010047 -0.999879
vn -0.999864 -0.011393 -0.011945
vn -0.999864 -0.011393 -0.011945
vn -0.999864 -0.011393 -0.011945
vn -0.999864 -0.011393 -0.011945
vn 0.999864 0.011393 0.011945
vn 0.999864 0.011393 0.011945
vn 0.999864 0.011393 0.011945
vn 0.999864 0.011393 0.011945
vn 0.011511 -0.999885 -0.009911
vn 0.011511 -0.999885 -0.009911
vn 0.011511 -0.999885 -0.009911
vn 0.011511 -0.999885 -0.009911
vn -0.011511 0.999885 0.009911
vn -0.011511 0.999885 0.009911
vn -0.011511 0.999885 0.009911
vn -0.011511 0.999885 0.009911
vn -0.011830 -0.010047 0.999879
vn -0.011830 -0.010047 0.999879
vn -0.011830 -0.010047 0.999879
vn -0.011830 -0.010047 0.999879
vn 0.011830 0.010047 -0.999879
vn 0.011830 0.010047 -0.999879
vn 0.011830 0.010047 -0.999879
vn 0.011830 0.010047 -0.999879
vn -0.999864 -0.011393 -0.011945
vn -0.999864 -0.011393 -0.011945
vn -0.999864 -0.011393 -0.011945
vn -0.999864 -0.011393 -0.011945
vn 0.999864 0.011393 0.011945
vn 0.999864 0.011393 0.011945
vn 0.999864 0.011393 0.011945
vn 0.999864 0.011393 0.011945
vn 0.011511 -0.999885 -0.009911
vn 0.011511 -0.999885 -0.009911
vn 0.011511 -0.999885 -0.009911
vn 0.011511 -0.999885 -0.009911
vn -0.011511 0.999885 0.009911
vn -0.011511 0.999885 0.009911
vn -0.011511 0.999885 0.009911
vn -0.011511 0.999885 0.009911

vt 0.116560 0.063411
vt 0.106007 0.077094
vt 0.110568 0.080612
vt 0.121121 0.066929
vt -0.110568 0.080612
vt -0.106007 0.077094
vt -0.116560 0.063411
vt -0.121121 0.066929
vt 0.055291 0.105709
vt 0.057801 0.110894
vt 0.073353 0.103362
vt 0.070843 0.098178
vt -0.073353 0.103362
vt -0.057801 0.110894
vt -0.055291 0.105709
vt -0.070843 0.098178
vt -0.084407 0.164955
vt -0.079011 0.162940
vt -0.081026 0.157544
vt -0.086422 0.159559
vt 0.081026 0.157544
vt 0.079011 0.162940
vt 0.084407 0.164955
vt 0.086422 0.159559
vt 0.094730 0.037483
vt 0.090333 0.043185
vt 0.117700 0.064290
vt 0.122097 0.058589
vt -0.117700 0.064290
vt -0.090333 0.043185
vt -0.094730 0.037483
vt -0.122097 0.058589
vt 0.061429 0.078738
vt 0.062684 0.081330
vt 0.069164 0.078192
vt 0.067909 0.075600
vt -0.069164 0.078192
vt -0.062684 0.081330
vt -0.061429 0.078738
vt -0.067909 0.075600
vt -0.088924 0.140511
vt -0.056549 0.128420
vt -0.057556 0.125722
vt -0.089932 0.137813
vt 0.057556 0.125722
vt 0.056549 0.128420
vt 0.088924 0.140511
vt 0.089932 0.137813
vt 0.094730 0.037483
vt 0.090333 0.043185
vt 0.117700 0.064290
vt 0.122097 0.058589
vt -0.117700 0.064290
vt -0.090333 0.043185
vt -0.094730 0.037483
vt -0.122097 0.058589
vt 0.069588 0.095586
vt 0.071471 0.099474
vt 0.077951 0.096336
vt 0.076068 0.092448
vt -0.077951 0.096336
vt -0.071471 0.099474
vt -0.069588 0.095586
vt -0.076068 0.092448
vt -0.081871 0.159397
vt -0.049495 0.147306
vt -0.051007 0.143258
vt -0.083383 0.155350
vt 0.051007 0.143258
vt 0.049495 0.147306
vt 0.081871 0.159397
vt 0.083383 0.155350
vt -0.060393 0.109638
vt -0.055209 0.112149
vt -0.042029 0.084932
vt -0.047213 0.082422
vt 0.042029 0.084932
vt 0.055209 0.112149
vt 0.060393 0.109638
vt 0.047213 0.082422
vt 0.105388 0.080254
vt 0.109950 0.083772
vt 0.113467 0.079211
vt 0.108906 0.075693
vt -0.113467 0.079211
vt -0.109950 0.083772
vt -0.105388 0.080254
vt -0.108906 0.075693
vt -0.096336 0.137130
vt -0.085756 0.165459
vt -0.080360 0.163444
vt -0.090940 0.135115
vt 0.080360 0.163444
vt 0.085756 0.165459
vt 0.096336 0.137130
vt 0.090940 0.135115
vt -0.066572 0.079447
vt -0.045836 0.089489
vt -0.043325 0.084305
vt -0.064062 0.074263
vt 0.043325 0.084305
vt 0.045836 0.089489
vt 0.066572 0.079447
vt 0.064062 0.074263
vt 0.107408 0.079994
vt 0.111969 0.083511
vt 0.126040 0.065267
vt 0.121478 0.061749
vt -0.126040 0.065267
vt -0.111969 0.083511
vt -0.107408 0.079994
vt -0.121478 0.061749
vt -0.097685 0.137634
vt -0.095669 0.143030
vt -0.090273 0.141015
vt -0.092289 0.135619
vt 0.090273 0.141015
vt 0.095669 0.143030
vt 0.097685 0.137634
vt 0.092289 0.135619
vt -0.077242 0.101479
vt -0.072057 0.103990
vt -0.060133 0.079365
vt -0.065317 0.076855
vt 0.060133 0.079365
vt 0.072057 0.103990
vt 0.077242 0.101479
vt 0.065317 0.076855
vt 0.117961 0.066310
vt 0.122522 0.069828
vt 0.126040 0.065267
vt 0.121478 0.061749
vt -0.126040 0.065267
vt -0.122522 0.069828
vt -0.117961 0.066310
vt -0.121478 0.061749
vt -0.096677 0.140332
vt -0.087105 0.165963
vt -0.081709 0.163948
vt -0.091281 0.138317
vt 0.081709 0.163948
vt 0.087105 0.165963
vt 0.096677 0.140332
vt 0.091281 0.138317
vt -0.075277 0.104030
vt -0.070093 0.106541
vt -0.067583 0.101357
vt -0.072767 0.098846
vt 0.067583 0.101357
vt 0.070093 0.106541
vt 0.075277 0.104030
vt 0.072767 0.098846
vt 0.112781 0.065953
vt 0.117342 0.069470
vt 0.120860 0.064909
vt 0.116299 0.061391
vt -0.120860 0.064909
vt -0.117342 0.069470
vt -0.112781 0.065953
vt -0.116299 0.061391
vt -0.084569 0.160405
vt -0.082554 0.165800
vt -0.077158 0.163785
vt -0.079173 0.158389
vt 0.077158 0.163785
vt 0.082554 0.165800
vt 0.084569 0.160405
vt 0.079173 0.158389
s off
f 1/1/1 2/2/2 3/3/3
f 1/1/1 3/3/3 4/4/4
f 5/5/5 6/6/6 7/7/7
f 5/5/5 7/7/7 8/8/8
f 9/9/9 10/10/10 11/11/11
f 9/9/9 11/11/11 12/12/12
f 13/13/13 14/14/14 15/15/15
f 13/13/13 15/15/15 16/16/16
f 17/17/17 18/18/18 19/19/19
f 17/17/17 19/19/19 20/20/20
f 21/21/21 22/22/22 23/23/23
f 21/21/21 23/23/23 24/24/24
f 25/25/25 26/26/26 27/27/27
f 25/25/25 27/27/27 28/28/28
f 29/29/29 30/30/30 31/31/31
f 29/29/29 31/31/31 32/32/32
f 33/33/33 34/34/34 35/35/35
f 33/33/33 35/35/35 36/36/36
f 37/37/37 38/38/38 39/39/39
f 37/37/37 39/39/39 40/40/40
f 41/41/41 42/42/42 43/43/43
f 41/41/41 43/43/43 44/44/44
f 45/45/45 46/46/46 47/47/47
f 45/45/45 47/47/47 48/48/48
f 49/49/49 50/50/50 51/51/51
f 49/49/49 51/51/51 52/52/52
f 53/53/53 54/54/54 55/55/55
f 53/53/53 55/55/55 56/56/56
f 57/57/57 58/58/58 59/59/59
f 57/57/57 59/59/59 60/60/60
f 61/61/61 62/62/62 63/63/63
f 61/61/61 63/63/63 64/64/64
f 65/65/65 66/66/66 67/67/67
f 65/65/65 67/67/67 68/68/68
f 69/69/69 70/70/70 71/71/71
f 69/69/69 71/71/71 72/72/72
f 73/73/73 74/74/74 75/75/75
f 73/73/73 75/75/75 76/76/76
f 77/77/77 78/78/78 79/79/79
f 77/77/77 79/79/79 80/80/80
f 81/81/81 82/82/82 83/83/83
f 81/81/81 83/83/83 84/84/84
f 85/85/85 86/86/86 87/87/87
f 85/85/85 87/87/87 88/88/88
f 89/89/89 90/90/90 91/91/91
f 89/89/89 91/91/91 92/92/92
f 93/93/93 94/94/94 95/95/95
f 93/93/93 95/95/95 96/96/96
f 97/97/97 98/98/98 99/99/99
f 97/97/97 99/99/99 100/100/100
f 101/101/101 102/102/102 103/103/103
f 101/101/101 103/103/103 104/104/104
f 105/105/105 106/106/106 107/107/107
f 105/105/105 107/107/107 108/108/108
f 109/109/109 110/110/110 111/111/111
f 109/109/109 111/111/111 112/112/112
f 113/113/113 114/114/114 115/115/115
f 113/113/113 115/115/115 116/116/116
f 117/117/117 118/118/118 119/119/119
f 117/117/117 119/119/119 120/120/120
f 121/121/121 122/122/122 123/123/123
f 121/121/121 123/123/123 124/124/124
f 125/125/125 126/126/126 127/127/127
f 125/125/125 127/127/127 128/128/128
f 129/129/129 130/130/130 131/131/131
f 129/129/129 131/131/131 132/132/132
f 133/133/133 134/134/134 135/135/135
f 133/133/133 135/135/135 136/136/136
f 137/137/137 138/138/138 139/139/139
f 137/137/137 139/139/139 140/140/140
f 141/141/141 142/142/142 143/143/143
f 141/141/141 143/143/143 144/144/144
f 145/145/145 146/146/146 147/147/147
f 145/145/145 147/147/147 148/148/148
f 149/149/149 150/150/150 151/151/151
f 149/149/149 151/151/151 152/152/152
f 153/153/153 154/154/154 155/155/155
f 153/153/153 155/155/155 156/156/156
f 157/157/157 158/158/158 159/159/159
f 157/157/157 159/159/159 160/160/160
f 161/161/161 162/162/162 163/163/163
f 161/161/161 163/163/163 164/164/164
f 165/165/165 166/166/166 167/167/167
f 165/165/165 167/167/167 168/168/168
