# Exported using automatic converter by Erwin Coumans
mtllib botlab.mtl
#object mesh1140477852

v -1.871762 -1.024511 2.739851
v -1.871762 -0.984511 2.739851
v -1.871762 -0.984511 2.389852
v -1.871762 -1.024511 2.389852
v -1.131762 -0.984511 2.389852
v -1.131762 -0.984511 2.739852
v -1.131762 -1.024511 2.739852
v -1.131762 -1.024511 2.389852
v -1.871762 -0.984511 2.389852
v -1.131762 -0.984511 2.389852
v -1.131762 -1.024511 2.389852
v -1.871762 -1.024511 2.389852
v -1.131762 -1.024511 2.739852
v -1.131762 -0.984511 2.739852
v -1.871762 -0.984511 2.739851
v -1.871762 -1.024511 2.739851
v -1.131762 -1.024511 2.389852
v -1.131762 -1.024511 2.739852
v -1.871762 -1.024511 2.739851
v -1.871762 -1.024511 2.389852
v -1.871762 -0.984511 2.739851
v -1.131762 -0.984511 2.739852
v -1.131762 -0.984511 2.389852
v -1.871762 -0.984511 2.389852
usemtl mat15

vn -1.000000 0.000000 -0.000000
vn -1.000000 0.000000 -0.000000
vn -1.000000 0.000000 -0.000000
vn -1.000000 0.000000 -0.000000
vn 1.000000 0.000000 0.000000
vn 1.000000 0.000000 0.000000
vn 1.000000 0.000000 0.000000
vn 1.000000 0.000000 0.000000
vn 0.000000 0.000000 -1.000000
vn 0.000000 0.000000 -1.000000
vn 0.000000 0.000000 -1.000000
vn 0.000000 0.000000 -1.000000
vn -0.000000 -0.000000 1.000000
vn -0.000000 -0.000000 1.000000
vn -0.000000 -0.000000 1.000000
vn -0.000000 -0.000000 1.000000
vn 0.000000 -1.000000 0.000000
vn 0.000000 -1.000000 0.000000
vn 0.000000 -1.000000 0.000000
vn 0.000000 -1.000000 0.000000
vn 0.000000 1.000000 -0.000000
vn 0.000000 1.000000 -0.000000
vn 0.000000 1.000000 -0.000000
vn 0.000000 1.000000 -0.000000

vt -0.263998 -0.254931
vt -0.266323 -0.251676
vt -0.237843 -0.231333
vt -0.235518 -0.234588
vt 0.237843 -0.231333
vt 0.266323 -0.251676
vt 0.263998 -0.254931
vt 0.235518 -0.234588
vt -0.052771 -0.217346
vt -0.019677 -0.151158
vt -0.016100 -0.152947
vt -0.049194 -0.219135
vt 0.016100 -0.152947
vt 0.019677 -0.151158
vt 0.052771 -0.217346
vt 0.049193 -0.219135
vt 0.260459 -0.245929
vt 0.293420 -0.257701
vt 0.268531 -0.327390
vt 0.235570 -0.315618
vt -0.268531 -0.327390
vt -0.293420 -0.257701
vt -0.260459 -0.245929
vt -0.235570 -0.315618
s off
f 1/1/1 2/2/2 3/3/3
f 1/1/1 3/3/3 4/4/4
f 5/5/5 6/6/6 7/7/7
f 5/5/5 7/7/7 8/8/8
f 9/9/9 10/10/10 11/11/11
f 9/9/9 11/11/11 12/12/12
f 13/13/13 14/14/14 15/15/15
f 13/13/13 15/15/15 16/16/16
f 17/17/17 18/18/18 19/19/19
f 17/17/17 19/19/19 20/20/20
f 21/21/21 22/22/22 23/23/23
f 21/21/21 23/23/23 24/24/24
