# Exported using automatic converter by Erwin Coumans
mtllib model6.mtl
#object mesh1030660903

v 0.949091 -0.960341 2.478861
v 0.942237 -0.959960 2.460075
v 0.943548 -0.979898 2.459194
v 0.950401 -0.980278 2.477979
v 0.962291 -0.978365 2.452387
v 0.960981 -0.958427 2.453269
v 0.967834 -0.958808 2.472054
v 0.969145 -0.978745 2.471172
v 0.943548 -0.979898 2.459194
v 0.962291 -0.978365 2.452387
v 0.969145 -0.978745 2.471172
v 0.950401 -0.980278 2.477979
v 0.967834 -0.958808 2.472054
v 0.960981 -0.958427 2.453269
v 0.942237 -0.959960 2.460075
v 0.949091 -0.960341 2.478861
v 0.969145 -0.978745 2.471172
v 0.967834 -0.958808 2.472054
v 0.949091 -0.960341 2.478861
v 0.950401 -0.980278 2.477979
v 0.942237 -0.959960 2.460075
v 0.960981 -0.958427 2.453269
v 0.962291 -0.978365 2.452387
v 0.943548 -0.979898 2.459194
usemtl mat6

vn -0.937167 -0.076655 0.340356
vn -0.937167 -0.076655 0.340356
vn -0.937167 -0.076655 0.340356
vn -0.937167 -0.076655 0.340356
vn 0.937167 0.076655 -0.340356
vn 0.937167 0.076655 -0.340356
vn 0.937167 0.076655 -0.340356
vn 0.937167 0.076655 -0.340356
vn 0.065529 -0.996876 -0.044083
vn 0.065529 -0.996876 -0.044083
vn 0.065529 -0.996876 -0.044083
vn 0.065529 -0.996876 -0.044083
vn -0.065529 0.996876 0.044083
vn -0.065529 0.996876 0.044083
vn -0.065529 0.996876 0.044083
vn -0.065529 0.996876 0.044083
vn 0.342672 -0.019010 0.939263
vn 0.342672 -0.019010 0.939263
vn 0.342672 -0.019010 0.939263
vn 0.342672 -0.019010 0.939263
vn -0.342672 0.019010 -0.939263
vn -0.342672 0.019010 -0.939263
vn -0.342672 0.019010 -0.939263
vn -0.342672 0.019010 -0.939263

vt -0.339097 -0.038639
vt -0.337097 -0.038628
vt -0.337086 -0.040628
vt -0.339086 -0.040639
vt 0.337086 -0.040628
vt 0.337097 -0.038628
vt 0.339097 -0.038639
vt 0.339086 -0.040639
vt 0.337181 -0.058957
vt 0.337185 -0.056957
vt 0.339185 -0.056961
vt 0.339181 -0.058961
vt -0.339185 -0.056961
vt -0.337185 -0.056957
vt -0.337181 -0.058957
vt -0.339181 -0.058961
vt -0.016255 -0.066366
vt -0.014386 -0.065655
vt -0.013675 -0.067525
vt -0.015544 -0.068236
vt 0.013675 -0.067525
vt 0.014386 -0.065655
vt 0.016255 -0.066366
vt 0.015544 -0.068236
s off
f 1/1/1 2/2/2 3/3/3
f 1/1/1 3/3/3 4/4/4
f 5/5/5 6/6/6 7/7/7
f 5/5/5 7/7/7 8/8/8
f 9/9/9 10/10/10 11/11/11
f 9/9/9 11/11/11 12/12/12
f 13/13/13 14/14/14 15/15/15
f 13/13/13 15/15/15 16/16/16
f 17/17/17 18/18/18 19/19/19
f 17/17/17 19/19/19 20/20/20
f 21/21/21 22/22/22 23/23/23
f 21/21/21 23/23/23 24/24/24
