# Exported using automatic converter by Erwin Coumans
mtllib model6.mtl
#object mesh469390950

v 1.304570 1.231430 3.565507
v 1.302906 1.241069 3.567585
v 1.317622 1.236765 3.563813
v 1.319243 1.227118 3.561739
v 1.302906 1.241069 3.567585
v 1.303186 1.244263 3.577056
v 1.317877 1.239954 3.573287
v 1.317622 1.236765 3.563813
v 1.303186 1.244263 3.577056
v 1.305131 1.237818 3.584451
v 1.319753 1.233496 3.580688
v 1.317877 1.239954 3.573287
v 1.305131 1.237818 3.584451
v 1.306796 1.228179 3.582373
v 1.321375 1.223848 3.578614
v 1.319753 1.233496 3.580688
v 1.306796 1.228179 3.582373
v 1.306516 1.224985 3.572901
v 1.321120 1.220659 3.569139
v 1.321375 1.223848 3.578614
v 1.306516 1.224985 3.572901
v 1.304570 1.231430 3.565507
v 1.319243 1.227118 3.561739
v 1.321120 1.220659 3.569139
v 1.306516 1.224985 3.572901
v 1.306796 1.228179 3.582373
v 1.305131 1.237818 3.584451
v 1.303186 1.244263 3.577056
v 1.302906 1.241069 3.567585
v 1.304570 1.231430 3.565507
v 1.319243 1.227118 3.561739
v 1.317622 1.236765 3.563813
v 1.317877 1.239954 3.573287
v 1.319753 1.233496 3.580688
v 1.321375 1.223848 3.578614
v 1.321120 1.220659 3.569139
usemtl mat21

vn -0.196469 0.174218 -0.964908
vn -0.196469 0.174218 -0.964908
vn -0.196469 0.174218 -0.964908
vn -0.196469 0.174218 -0.964908
vn 0.190406 0.928690 -0.318245
vn 0.190406 0.928690 -0.318245
vn 0.190406 0.928690 -0.318245
vn 0.190406 0.928690 -0.318245
vn 0.363085 0.746642 0.557400
vn 0.363085 0.746642 0.557400
vn 0.363085 0.746642 0.557400
vn 0.363085 0.746642 0.557400
vn 0.196942 -0.174121 0.964829
vn 0.196942 -0.174121 0.964829
vn 0.196942 -0.174121 0.964829
vn 0.196942 -0.174121 0.964829
vn -0.193309 -0.928128 0.318137
vn -0.193309 -0.928128 0.318137
vn -0.193309 -0.928128 0.318137
vn -0.193309 -0.928128 0.318137
vn -0.363570 -0.746556 -0.557200
vn -0.363570 -0.746556 -0.557200
vn -0.363570 -0.746556 -0.557200
vn -0.363570 -0.746556 -0.557200
vn -0.977640 -0.188803 0.092598
vn -0.977640 -0.188803 0.092598
vn -0.977640 -0.188803 0.092598
vn -0.977640 -0.188803 0.092598
vn -0.977640 -0.188803 0.092598
vn -0.977640 -0.188803 0.092598
vn 0.979065 0.183502 -0.088089
vn 0.979065 0.183502 -0.088089
vn 0.979065 0.183502 -0.088089
vn 0.979065 0.183502 -0.088089
vn 0.979065 0.183502 -0.088089
vn 0.979065 0.183502 -0.088089

vt -0.223624 0.108719
vt -0.224602 0.108929
vt -0.223587 0.110139
vt -0.222610 0.109925
vt -0.486811 -0.002414
vt -0.487796 -0.002584
vt -0.487606 -0.001019
vt -0.486621 -0.000846
vt -0.180094 -0.188004
vt -0.181021 -0.188380
vt -0.181866 -0.187057
vt -0.180942 -0.186675
vt 0.224673 0.108604
vt 0.223696 0.108395
vt 0.222684 0.109591
vt 0.223661 0.109805
vt 0.487893 -0.002236
vt 0.486908 -0.002066
vt 0.486717 -0.000509
vt 0.487702 -0.000681
vt 0.181210 -0.187890
vt 0.180283 -0.187514
vt 0.181130 -0.186186
vt 0.182054 -0.186568
vt -0.444318 -0.181987
vt -0.445242 -0.182368
vt -0.446034 -0.181757
vt -0.445902 -0.180766
vt -0.444977 -0.180386
vt -0.444185 -0.180996
vt 0.443596 -0.180611
vt 0.444388 -0.180001
vt 0.445313 -0.180381
vt 0.445446 -0.181372
vt 0.444654 -0.181983
vt 0.443729 -0.181602
s off
f 1/1/1 2/2/2 3/3/3
f 1/1/1 3/3/3 4/4/4
f 5/5/5 6/6/6 7/7/7
f 5/5/5 7/7/7 8/8/8
f 9/9/9 10/10/10 11/11/11
f 9/9/9 11/11/11 12/12/12
f 13/13/13 14/14/14 15/15/15
f 13/13/13 15/15/15 16/16/16
f 17/17/17 18/18/18 19/19/19
f 17/17/17 19/19/19 20/20/20
f 21/21/21 22/22/22 23/23/23
f 21/21/21 23/23/23 24/24/24
f 25/25/25 26/26/26 27/27/27
f 25/25/25 27/27/27 28/28/28
f 25/25/25 28/28/28 29/29/29
f 25/25/25 29/29/29 30/30/30
f 31/31/31 32/32/32 33/33/33
f 31/31/31 33/33/33 34/34/34
f 31/31/31 34/34/34 35/35/35
f 31/31/31 35/35/35 36/36/36
