# Exported using automatic converter by Erwin Coumans
mtllib model6.mtl
#object group1269633123_3

v -0.880061 0.345627 -0.617018
v -0.871311 0.345627 -0.614673
v -0.871311 0.310627 -0.614673
v -0.880061 0.310627 -0.617018
v -0.871311 0.345627 -0.614673
v -0.864906 0.345627 -0.608267
v -0.864906 0.310627 -0.608267
v -0.871311 0.310627 -0.614673
v -0.864906 0.345627 -0.608267
v -0.862562 0.345627 -0.599518
v -0.862562 0.310627 -0.599518
v -0.864906 0.310627 -0.608267
v -0.862562 0.345627 -0.599518
v -0.864906 0.345627 -0.590768
v -0.864906 0.310627 -0.590768
v -0.862562 0.310627 -0.599518
v -0.864906 0.345627 -0.590768
v -0.871311 0.345627 -0.584362
v -0.871311 0.310627 -0.584362
v -0.864906 0.310627 -0.590768
v -0.871311 0.345627 -0.584362
v -0.880061 0.345627 -0.582018
v -0.880061 0.310627 -0.582018
v -0.871311 0.310627 -0.584362
v -0.880061 0.345627 -0.582018
v -0.888811 0.345627 -0.584362
v -0.888811 0.310627 -0.584362
v -0.880061 0.310627 -0.582018
v -0.888811 0.345627 -0.584362
v -0.895217 0.345627 -0.590768
v -0.895217 0.310627 -0.590768
v -0.888811 0.310627 -0.584362
v -0.895217 0.345627 -0.590768
v -0.897561 0.345627 -0.599518
v -0.897561 0.310627 -0.599518
v -0.895217 0.310627 -0.590768
v -0.897561 0.345627 -0.599518
v -0.895217 0.345627 -0.608267
v -0.895217 0.310627 -0.608267
v -0.897561 0.310627 -0.599518
v -0.895217 0.345627 -0.608267
v -0.888811 0.345627 -0.614673
v -0.888811 0.310627 -0.614673
v -0.895217 0.310627 -0.608267
v -0.888811 0.345627 -0.614673
v -0.880061 0.345627 -0.617018
v -0.880061 0.310627 -0.617018
v -0.888811 0.310627 -0.614673
v -0.880061 0.310627 -0.617018
v -0.871311 0.310627 -0.614673
v -0.864906 0.310627 -0.608267
v -0.862562 0.310627 -0.599518
v -0.864906 0.310627 -0.590768
v -0.871311 0.310627 -0.584362
v -0.880061 0.310627 -0.582018
v -0.888811 0.310627 -0.584362
v -0.895217 0.310627 -0.590768
v -0.897561 0.310627 -0.599518
v -0.895217 0.310627 -0.608267
v -0.888811 0.310627 -0.614673
v -0.888811 0.345627 -0.614673
v -0.895217 0.345627 -0.608267
v -0.897561 0.345627 -0.599518
v -0.895217 0.345627 -0.590768
v -0.888811 0.345627 -0.584362
v -0.880061 0.345627 -0.582018
v -0.871311 0.345627 -0.584362
v -0.864906 0.345627 -0.590768
v -0.862562 0.345627 -0.599518
v -0.864906 0.345627 -0.608267
v -0.871311 0.345627 -0.614673
v -0.880061 0.345627 -0.617018
usemtl mat19

vn 0.000000 0.000000 -1.000000
vn 0.000000 0.000000 -1.000000
vn 0.000000 0.000000 -1.000000
vn 0.000000 0.000000 -1.000000
vn 0.500000 0.000000 -0.866025
vn 0.500000 0.000000 -0.866025
vn 0.500000 0.000000 -0.866025
vn 0.500000 0.000000 -0.866025
vn 0.866026 0.000000 -0.500000
vn 0.866026 0.000000 -0.500000
vn 0.866026 0.000000 -0.500000
vn 0.866026 0.000000 -0.500000
vn 1.000000 0.000000 0.000000
vn 1.000000 0.000000 0.000000
vn 1.000000 0.000000 0.000000
vn 1.000000 0.000000 0.000000
vn 0.866025 0.000000 0.500000
vn 0.866025 0.000000 0.500000
vn 0.866025 0.000000 0.500000
vn 0.866025 0.000000 0.500000
vn 0.500000 -0.000000 0.866025
vn 0.500000 -0.000000 0.866025
vn 0.500000 -0.000000 0.866025
vn 0.500000 -0.000000 0.866025
vn -0.000000 -0.000000 1.000000
vn -0.000000 -0.000000 1.000000
vn -0.000000 -0.000000 1.000000
vn -0.000000 -0.000000 1.000000
vn -0.500000 -0.000000 0.866025
vn -0.500000 -0.000000 0.866025
vn -0.500000 -0.000000 0.866025
vn -0.500000 -0.000000 0.866025
vn -0.866026 -0.000000 0.500000
vn -0.866026 -0.000000 0.500000
vn -0.866026 -0.000000 0.500000
vn -0.866026 -0.000000 0.500000
vn -1.000000 -0.000000 -0.000000
vn -1.000000 -0.000000 -0.000000
vn -1.000000 -0.000000 -0.000000
vn -1.000000 -0.000000 -0.000000
vn -0.866025 -0.000000 -0.500000
vn -0.866025 -0.000000 -0.500000
vn -0.866025 -0.000000 -0.500000
vn -0.866025 -0.000000 -0.500000
vn -0.500000 0.000000 -0.866026
vn -0.500000 0.000000 -0.866026
vn -0.500000 0.000000 -0.866026
vn -0.500000 0.000000 -0.866026
vn 0.000000 -1.000000 -0.000000
vn 0.000000 -1.000000 -0.000000
vn 0.000000 -1.000000 -0.000000
vn 0.000000 -1.000000 -0.000000
vn 0.000000 -1.000000 -0.000000
vn 0.000000 -1.000000 -0.000000
vn 0.000000 -1.000000 -0.000000
vn 0.000000 -1.000000 -0.000000
vn 0.000000 -1.000000 -0.000000
vn 0.000000 -1.000000 -0.000000
vn 0.000000 -1.000000 -0.000000
vn 0.000000 -1.000000 -0.000000
vn -0.000000 1.000000 0.000000
vn -0.000000 1.000000 0.000000
vn -0.000000 1.000000 0.000000
vn -0.000000 1.000000 0.000000
vn -0.000000 1.000000 0.000000
vn -0.000000 1.000000 0.000000
vn -0.000000 1.000000 0.000000
vn -0.000000 1.000000 0.000000
vn -0.000000 1.000000 0.000000
vn -0.000000 1.000000 0.000000
vn -0.000000 1.000000 0.000000
vn -0.000000 1.000000 0.000000

vt -0.127392 -0.069160
vt -0.127001 -0.068377
vt -0.123870 -0.069942
vt -0.124262 -0.070725
vt -0.119118 -0.022644
vt -0.118604 -0.021937
vt -0.115773 -0.023996
vt -0.116288 -0.024703
vt -0.061581 0.065360
vt -0.060763 0.065671
vt -0.059516 0.062401
vt -0.060333 0.062089
vt 0.071900 0.050659
vt 0.072612 0.050150
vt 0.070578 0.047302
vt 0.069866 0.047810
vt 0.115080 -0.028326
vt 0.115540 -0.029071
vt 0.112562 -0.030910
vt 0.112103 -0.030166
vt 0.125583 -0.070091
vt 0.125960 -0.070880
vt 0.122803 -0.072391
vt 0.122426 -0.071602
vt 0.127392 -0.069160
vt 0.127784 -0.069942
vt 0.124653 -0.071508
vt 0.124262 -0.070725
vt 0.119118 -0.022644
vt 0.119633 -0.023352
vt 0.116803 -0.025411
vt 0.116288 -0.024703
vt 0.061581 0.065360
vt 0.062398 0.065048
vt 0.061151 0.061778
vt 0.060333 0.062089
vt -0.071900 0.050659
vt -0.071188 0.051167
vt -0.069154 0.048319
vt -0.069866 0.047810
vt -0.115080 -0.028326
vt -0.114620 -0.027582
vt -0.111643 -0.029422
vt -0.112103 -0.030166
vt -0.125583 -0.070091
vt -0.125205 -0.069302
vt -0.122048 -0.070813
vt -0.122426 -0.071602
vt -0.014245 -0.121093
vt -0.013730 -0.120348
vt -0.012911 -0.119961
vt -0.012008 -0.120034
vt -0.011263 -0.120549
vt -0.010875 -0.121368
vt -0.010949 -0.122271
vt -0.011464 -0.123016
vt -0.012283 -0.123404
vt -0.013186 -0.123330
vt -0.013931 -0.122815
vt -0.014318 -0.121996
vt 0.014318 -0.121996
vt 0.013931 -0.122815
vt 0.013186 -0.123330
vt 0.012283 -0.123404
vt 0.011464 -0.123016
vt 0.010949 -0.122271
vt 0.010875 -0.121368
vt 0.011263 -0.120549
vt 0.012008 -0.120034
vt 0.012911 -0.119961
vt 0.013730 -0.120348
vt 0.014245 -0.121093
s off
f 1/1/1 2/2/2 3/3/3
f 1/1/1 3/3/3 4/4/4
f 5/5/5 6/6/6 7/7/7
f 5/5/5 7/7/7 8/8/8
f 9/9/9 10/10/10 11/11/11
f 9/9/9 11/11/11 12/12/12
f 13/13/13 14/14/14 15/15/15
f 13/13/13 15/15/15 16/16/16
f 17/17/17 18/18/18 19/19/19
f 17/17/17 19/19/19 20/20/20
f 21/21/21 22/22/22 23/23/23
f 21/21/21 23/23/23 24/24/24
f 25/25/25 26/26/26 27/27/27
f 25/25/25 27/27/27 28/28/28
f 29/29/29 30/30/30 31/31/31
f 29/29/29 31/31/31 32/32/32
f 33/33/33 34/34/34 35/35/35
f 33/33/33 35/35/35 36/36/36
f 37/37/37 38/38/38 39/39/39
f 37/37/37 39/39/39 40/40/40
f 41/41/41 42/42/42 43/43/43
f 41/41/41 43/43/43 44/44/44
f 45/45/45 46/46/46 47/47/47
f 45/45/45 47/47/47 48/48/48
f 49/49/49 50/50/50 51/51/51
f 49/49/49 51/51/51 52/52/52
f 49/49/49 52/52/52 53/53/53
f 49/49/49 53/53/53 54/54/54
f 49/49/49 54/54/54 55/55/55
f 49/49/49 55/55/55 56/56/56
f 49/49/49 56/56/56 57/57/57
f 49/49/49 57/57/57 58/58/58
f 49/49/49 58/58/58 59/59/59
f 49/49/49 59/59/59 60/60/60
f 61/61/61 62/62/62 63/63/63
f 61/61/61 63/63/63 64/64/64
f 61/61/61 64/64/64 65/65/65
f 61/61/61 65/65/65 66/66/66
f 61/61/61 66/66/66 67/67/67
f 61/61/61 67/67/67 68/68/68
f 61/61/61 68/68/68 69/69/69
f 61/61/61 69/69/69 70/70/70
f 61/61/61 70/70/70 71/71/71
f 61/61/61 71/71/71 72/72/72
