# Exported using automatic converter by Erwin Coumans
mtllib model6.mtl
#object mesh884949872

v -0.334262 -0.384511 -0.220149
v -0.294262 -0.384511 -0.220149
v -0.294262 -0.474511 -0.220149
v -0.334262 -0.474511 -0.220149
v -0.294262 -0.474511 -0.135149
v -0.294262 -0.384511 -0.135149
v -0.334262 -0.384511 -0.135149
v -0.334262 -0.474511 -0.135149
v -0.294262 -0.474511 -0.220149
v -0.294262 -0.474511 -0.135149
v -0.334262 -0.474511 -0.135149
v -0.334262 -0.474511 -0.220149
v -0.334262 -0.384511 -0.135149
v -0.294262 -0.384511 -0.135149
v -0.294262 -0.384511 -0.220149
v -0.334262 -0.384511 -0.220149
v -0.334262 -0.474511 -0.135149
v -0.334262 -0.384511 -0.135149
v -0.334262 -0.384511 -0.220149
v -0.334262 -0.474511 -0.220149
v -0.294262 -0.384511 -0.220149
v -0.294262 -0.384511 -0.135149
v -0.294262 -0.474511 -0.135149
v -0.294262 -0.474511 -0.220149
v -0.304262 -0.389511 -0.170148
v -0.309262 -0.389511 -0.168809
v -0.309262 0.160489 -0.158808
v -0.304262 0.160489 -0.160148
v -0.309262 -0.389511 -0.168809
v -0.312922 -0.389511 -0.165148
v -0.312922 0.160489 -0.155148
v -0.309262 0.160489 -0.158808
v -0.312922 -0.389511 -0.165148
v -0.314262 -0.389511 -0.160148
v -0.314262 0.160489 -0.150148
v -0.312922 0.160489 -0.155148
v -0.314262 -0.389511 -0.160148
v -0.312922 -0.389511 -0.155148
v -0.312922 0.160489 -0.145148
v -0.314262 0.160489 -0.150148
v -0.312922 -0.389511 -0.155148
v -0.309262 -0.389511 -0.151488
v -0.312922 0.160489 -0.145148
v -0.309262 -0.389511 -0.151488
v -0.304262 -0.389511 -0.150148
v -0.312922 0.160489 -0.145148
v -0.304262 -0.389511 -0.150148
v -0.299262 -0.389511 -0.151488
v -0.299262 0.160489 -0.141488
v -0.299262 -0.389511 -0.151488
v -0.295602 -0.389511 -0.155148
v -0.295602 0.160489 -0.145148
v -0.299262 0.160489 -0.141488
v -0.295602 -0.389511 -0.155148
v -0.294262 -0.389511 -0.160148
v -0.294262 0.160489 -0.150148
v -0.295602 0.160489 -0.145148
v -0.294262 -0.389511 -0.160148
v -0.295602 -0.389511 -0.165148
v -0.295602 0.160489 -0.155148
v -0.294262 0.160489 -0.150148
v -0.295602 -0.389511 -0.165148
v -0.299262 -0.389511 -0.168809
v -0.299262 0.160489 -0.158808
v -0.295602 0.160489 -0.155148
v -0.299262 -0.389511 -0.168809
v -0.304262 -0.389511 -0.170148
v -0.304262 0.160489 -0.160148
v -0.299262 0.160489 -0.158808
v -0.304262 0.160489 -0.160148
v -0.309262 0.160489 -0.158808
v -0.312922 0.160489 -0.155148
v -0.314262 0.160489 -0.150148
v -0.312922 0.160489 -0.145148
v -0.299262 0.160489 -0.141488
v -0.295602 0.160489 -0.145148
v -0.294262 0.160489 -0.150148
v -0.295602 0.160489 -0.155148
v -0.299262 0.160489 -0.158808
v -0.299262 -0.389511 -0.168809
v -0.295602 -0.389511 -0.165148
v -0.294262 -0.389511 -0.160148
v -0.295602 -0.389511 -0.155148
v -0.299262 -0.389511 -0.151488
v -0.304262 -0.389511 -0.150148
v -0.309262 -0.389511 -0.151488
v -0.312922 -0.389511 -0.155148
v -0.314262 -0.389511 -0.160148
v -0.312922 -0.389511 -0.165148
v -0.309262 -0.389511 -0.168809
v -0.304262 -0.389511 -0.170148
v -0.299262 0.160489 -0.141488
v -0.312922 0.160489 -0.145148
v -0.304262 -0.389511 -0.150148
usemtl mat22

vn -0.000000 0.000000 -1.000000
vn -0.000000 0.000000 -1.000000
vn -0.000000 0.000000 -1.000000
vn -0.000000 0.000000 -1.000000
vn 0.000000 -0.000000 1.000000
vn 0.000000 -0.000000 1.000000
vn 0.000000 -0.000000 1.000000
vn 0.000000 -0.000000 1.000000
vn -0.000001 -1.000000 -0.000000
vn -0.000001 -1.000000 -0.000000
vn -0.000001 -1.000000 -0.000000
vn -0.000001 -1.000000 -0.000000
vn 0.000001 1.000000 0.000000
vn 0.000001 1.000000 0.000000
vn 0.000001 1.000000 0.000000
vn 0.000001 1.000000 0.000000
vn -1.000000 0.000001 0.000000
vn -1.000000 0.000001 0.000000
vn -1.000000 0.000001 0.000000
vn -1.000000 0.000001 0.000000
vn 1.000000 -0.000001 -0.000000
vn 1.000000 -0.000001 -0.000000
vn 1.000000 -0.000001 -0.000000
vn 1.000000 -0.000001 -0.000000
vn -0.258767 0.017560 -0.965780
vn -0.258767 0.017560 -0.965780
vn -0.258767 0.017560 -0.965780
vn -0.258767 0.017560 -0.965780
vn -0.707043 0.012856 -0.707054
vn -0.707043 0.012856 -0.707054
vn -0.707043 0.012856 -0.707054
vn -0.707043 0.012856 -0.707054
vn -0.965917 0.004706 -0.258808
vn -0.965917 0.004706 -0.258808
vn -0.965917 0.004706 -0.258808
vn -0.965917 0.004706 -0.258808
vn -0.965914 -0.004706 0.258820
vn -0.965914 -0.004706 0.258820
vn -0.965914 -0.004706 0.258820
vn -0.965914 -0.004706 0.258820
vn -0.707048 -0.012856 0.707048
vn -0.707048 -0.012856 0.707048
vn -0.707048 -0.012856 0.707048
vn -0.258797 -0.012856 0.965846
vn -0.258797 -0.012856 0.965846
vn -0.258797 -0.012856 0.965846
vn 0.258779 -0.017560 0.965777
vn 0.258779 -0.017560 0.965777
vn 0.258779 -0.017560 0.965777
vn 0.707043 -0.012856 0.707054
vn 0.707043 -0.012856 0.707054
vn 0.707043 -0.012856 0.707054
vn 0.707043 -0.012856 0.707054
vn 0.965914 -0.004706 0.258820
vn 0.965914 -0.004706 0.258820
vn 0.965914 -0.004706 0.258820
vn 0.965914 -0.004706 0.258820
vn 0.965917 0.004706 -0.258808
vn 0.965917 0.004706 -0.258808
vn 0.965917 0.004706 -0.258808
vn 0.965917 0.004706 -0.258808
vn 0.707043 0.012856 -0.707054
vn 0.707043 0.012856 -0.707054
vn 0.707043 0.012856 -0.707054
vn 0.707043 0.012856 -0.707054
vn 0.258766 0.017560 -0.965780
vn 0.258766 0.017560 -0.965780
vn 0.258766 0.017560 -0.965780
vn 0.258766 0.017560 -0.965780
vn 0.000000 1.000000 0.000000
vn 0.000000 1.000000 0.000000
vn 0.000000 1.000000 0.000000
vn 0.000000 1.000000 0.000000
vn 0.000000 1.000000 0.000000
vn 0.000000 1.000000 0.000000
vn 0.000000 1.000000 0.000000
vn 0.000000 1.000000 0.000000
vn 0.000000 1.000000 0.000000
vn 0.000000 1.000000 0.000000
vn -0.000000 -1.000000 -0.000000
vn -0.000000 -1.000000 -0.000000
vn -0.000000 -1.000000 -0.000000
vn -0.000000 -1.000000 -0.000000
vn -0.000000 -1.000000 -0.000000
vn -0.000000 -1.000000 -0.000000
vn -0.000000 -1.000000 -0.000000
vn -0.000000 -1.000000 -0.000000
vn -0.000000 -1.000000 -0.000000
vn -0.000000 -1.000000 -0.000000
vn -0.000000 -1.000000 -0.000000
vn -0.000000 -1.000000 -0.000000
vn -0.258794 -0.012856 0.965847
vn -0.258794 -0.012856 0.965847
vn -0.258794 -0.012856 0.965847

vt -0.037678 -0.052995
vt -0.035889 -0.049417
vt -0.027839 -0.053442
vt -0.029628 -0.057020
vt 0.027839 -0.053442
vt 0.035889 -0.049417
vt 0.037678 -0.052995
vt 0.029628 -0.057020
vt 0.042832 -0.079274
vt 0.050837 -0.082133
vt 0.049492 -0.085900
vt 0.041487 -0.083041
vt -0.049492 -0.085900
vt -0.050837 -0.082133
vt -0.042832 -0.079274
vt -0.041487 -0.083041
vt -0.062018 -0.043070
vt -0.067249 -0.035746
vt -0.060332 -0.030806
vt -0.055101 -0.038129
vt 0.060332 -0.030806
vt 0.067249 -0.035746
vt 0.062018 -0.043070
vt 0.055101 -0.038129
vt -0.042592 -0.065935
vt -0.042812 -0.066403
vt -0.092689 -0.043201
vt -0.092468 -0.042733
vt -0.052629 -0.079276
vt -0.052870 -0.079734
vt -0.101859 -0.054713
vt -0.101618 -0.054255
vt -0.062329 -0.060133
vt -0.062660 -0.060531
vt -0.105499 -0.026022
vt -0.105168 -0.025625
vt -0.055288 0.000398
vt -0.055798 0.000309
vt -0.066180 0.054330
vt -0.065670 0.054419
vt 0.001430 0.013339
vt 0.001051 0.013692
vt 0.038419 0.054055
vt 0.029150 -0.030094
vt 0.028895 -0.029643
vt 0.077163 -0.003257
vt 0.042843 -0.066389
vt 0.042623 -0.065921
vt 0.092499 -0.042719
vt 0.052892 -0.079722
vt 0.052651 -0.079265
vt 0.101640 -0.054243
vt 0.101881 -0.054701
vt 0.062667 -0.060526
vt 0.062335 -0.060128
vt 0.105175 -0.025620
vt 0.105506 -0.026018
vt 0.055797 0.000299
vt 0.055287 0.000388
vt 0.065670 0.054408
vt 0.066180 0.054319
vt -0.001035 0.013673
vt -0.001414 0.013320
vt -0.038403 0.054036
vt -0.038025 0.054389
vt -0.029150 -0.029532
vt -0.029403 -0.029984
vt -0.077268 -0.002874
vt -0.077015 -0.002423
vt -0.048147 -0.082234
vt -0.048105 -0.082750
vt -0.048326 -0.083218
vt -0.048752 -0.083512
vt -0.049268 -0.083554
vt -0.050072 -0.082391
vt -0.049850 -0.081923
vt -0.049425 -0.081629
vt -0.048909 -0.081587
vt -0.048441 -0.081808
vt 0.047499 -0.081472
vt 0.047967 -0.081251
vt 0.048483 -0.081293
vt 0.048909 -0.081587
vt 0.049130 -0.082055
vt 0.049088 -0.082571
vt 0.048794 -0.082996
vt 0.048326 -0.083218
vt 0.047810 -0.083176
vt 0.047384 -0.082882
vt 0.047163 -0.082414
vt 0.047205 -0.081898
vt 0.076469 -0.002025
vt 0.077163 -0.003257
vt 0.028896 -0.029643
s off
f 1/1/1 2/2/2 3/3/3
f 1/1/1 3/3/3 4/4/4
f 5/5/5 6/6/6 7/7/7
f 5/5/5 7/7/7 8/8/8
f 9/9/9 10/10/10 11/11/11
f 9/9/9 11/11/11 12/12/12
f 13/13/13 14/14/14 15/15/15
f 13/13/13 15/15/15 16/16/16
f 17/17/17 18/18/18 19/19/19
f 17/17/17 19/19/19 20/20/20
f 21/21/21 22/22/22 23/23/23
f 21/21/21 23/23/23 24/24/24
f 25/25/25 26/26/26 27/27/27
f 25/25/25 27/27/27 28/28/28
f 29/29/29 30/30/30 31/31/31
f 29/29/29 31/31/31 32/32/32
f 33/33/33 34/34/34 35/35/35
f 33/33/33 35/35/35 36/36/36
f 37/37/37 38/38/38 39/39/39
f 37/37/37 39/39/39 40/40/40
f 41/41/41 42/42/42 43/43/43
f 44/44/44 45/45/45 46/46/46
f 47/47/47 48/48/48 49/49/49
f 50/50/50 51/51/51 52/52/52
f 50/50/50 52/52/52 53/53/53
f 54/54/54 55/55/55 56/56/56
f 54/54/54 56/56/56 57/57/57
f 58/58/58 59/59/59 60/60/60
f 58/58/58 60/60/60 61/61/61
f 62/62/62 63/63/63 64/64/64
f 62/62/62 64/64/64 65/65/65
f 66/66/66 67/67/67 68/68/68
f 66/66/66 68/68/68 69/69/69
f 70/70/70 71/71/71 72/72/72
f 70/70/70 72/72/72 73/73/73
f 70/70/70 73/73/73 74/74/74
f 70/70/70 74/74/74 75/75/75
f 70/70/70 75/75/75 76/76/76
f 70/70/70 76/76/76 77/77/77
f 70/70/70 77/77/77 78/78/78
f 70/70/70 78/78/78 79/79/79
f 80/80/80 81/81/81 82/82/82
f 80/80/80 82/82/82 83/83/83
f 80/80/80 83/83/83 84/84/84
f 80/80/80 84/84/84 85/85/85
f 80/80/80 85/85/85 86/86/86
f 80/80/80 86/86/86 87/87/87
f 80/80/80 87/87/87 88/88/88
f 80/80/80 88/88/88 89/89/89
f 80/80/80 89/89/89 90/90/90
f 80/80/80 90/90/90 91/91/91
f 92/92/92 93/93/93 94/94/94
