# Exported using automatic converter by Erwin Coumans
mtllib model6.mtl
#object group113342344_1

v 2.544667 -1.014511 1.982118
v 2.517215 -1.014511 2.009570
v 2.479715 -1.014511 2.019619
v 2.442215 -1.014511 2.009570
v 2.414763 -1.014511 1.982118
v 2.404715 -1.014511 1.944618
v 2.414763 -1.014511 1.907118
v 2.442215 -1.014511 1.879666
v 2.479715 -1.014511 1.869618
v 2.517215 -1.014511 1.879666
v 2.544667 -1.014511 1.907118
v 2.554715 -1.014511 1.944618
v 2.475698 -0.811469 2.035187
v 2.430777 -0.811469 2.023150
v 2.430777 -0.851469 2.023151
v 2.475698 -0.851469 2.035187
v 2.385855 -0.811469 1.945344
v 2.397892 -0.811469 1.900423
v 2.397892 -0.851469 1.900424
v 2.385855 -0.851469 1.945345
v 2.475698 -0.811469 1.855502
v 2.520619 -0.811469 1.867539
v 2.520619 -0.851469 1.867539
v 2.475698 -0.851469 1.855502
v 2.547741 -0.731469 1.945344
v 2.538090 -0.731469 1.909321
v 2.511719 -0.731469 1.882951
v 2.475698 -0.731469 1.873299
v 2.439676 -0.731469 1.882952
v 2.413305 -0.731469 1.909322
v 2.403653 -0.731469 1.945343
v 2.413305 -0.731469 1.981366
v 2.439676 -0.731469 2.007736
v 2.475698 -0.731469 2.017388
v 2.511719 -0.731469 2.007736
v 2.538090 -0.731469 1.981366
usemtl mat21

vn 0.000000 -1.000000 0.000000
vn 0.000000 -1.000000 0.000000
vn 0.000000 -1.000000 0.000000
vn 0.000000 -1.000000 0.000000
vn 0.000000 -1.000000 0.000000
vn 0.000000 -1.000000 0.000000
vn 0.000000 -1.000000 0.000000
vn 0.000000 -1.000000 0.000000
vn 0.000000 -1.000000 0.000000
vn 0.000000 -1.000000 0.000000
vn 0.000000 -1.000000 0.000000
vn 0.000000 -1.000000 0.000000
vn -0.258811 0.000005 0.965928
vn -0.258811 0.000005 0.965928
vn -0.258811 0.000005 0.965928
vn -0.258811 0.000005 0.965928
vn -0.965924 -0.000002 -0.258825
vn -0.965924 -0.000002 -0.258825
vn -0.965924 -0.000002 -0.258825
vn -0.965924 -0.000002 -0.258825
vn 0.258816 -0.000006 -0.965927
vn 0.258816 -0.000006 -0.965927
vn 0.258816 -0.000006 -0.965927
vn 0.258816 -0.000006 -0.965927
vn -0.000000 1.000000 -0.000000
vn -0.000000 1.000000 -0.000000
vn -0.000000 1.000000 -0.000000
vn -0.000000 1.000000 -0.000000
vn -0.000000 1.000000 -0.000000
vn -0.000000 1.000000 -0.000000
vn -0.000000 1.000000 -0.000000
vn -0.000000 1.000000 -0.000000
vn -0.000000 1.000000 -0.000000
vn -0.000000 1.000000 -0.000000
vn -0.000000 1.000000 -0.000000
vn -0.000000 1.000000 -0.000000

vt 0.345713 0.114009
vt 0.347375 0.110500
vt 0.347060 0.106631
vt 0.344852 0.103437
vt 0.341343 0.101775
vt 0.337474 0.102091
vt 0.334280 0.104298
vt 0.332619 0.107807
vt 0.332933 0.111676
vt 0.335141 0.114870
vt 0.338650 0.116532
vt 0.342519 0.116217
vt -0.169996 0.231163
vt -0.167686 0.227127
vt -0.171158 0.225140
vt -0.173468 0.229176
vt -0.115205 -0.190386
vt -0.112239 -0.186804
vt -0.109158 -0.189355
vt -0.112124 -0.192937
vt 0.167687 0.227128
vt 0.169997 0.231164
vt 0.173469 0.229177
vt 0.171159 0.225140
vt -0.342353 0.115535
vt -0.338636 0.115838
vt -0.335265 0.114242
vt -0.333145 0.111174
vt -0.332842 0.107457
vt -0.334439 0.104087
vt -0.337507 0.101966
vt -0.341224 0.101664
vt -0.344594 0.103260
vt -0.346714 0.106328
vt -0.347017 0.110045
vt -0.345421 0.113415
s off
f 1/1/1 2/2/2 3/3/3
f 1/1/1 3/3/3 4/4/4
f 1/1/1 4/4/4 5/5/5
f 1/1/1 5/5/5 6/6/6
f 1/1/1 6/6/6 7/7/7
f 1/1/1 7/7/7 8/8/8
f 1/1/1 8/8/8 9/9/9
f 1/1/1 9/9/9 10/10/10
f 1/1/1 10/10/10 11/11/11
f 1/1/1 11/11/11 12/12/12
f 13/13/13 14/14/14 15/15/15
f 13/13/13 15/15/15 16/16/16
f 17/17/17 18/18/18 19/19/19
f 17/17/17 19/19/19 20/20/20
f 21/21/21 22/22/22 23/23/23
f 21/21/21 23/23/23 24/24/24
f 25/25/25 26/26/26 27/27/27
f 25/25/25 27/27/27 28/28/28
f 25/25/25 28/28/28 29/29/29
f 25/25/25 29/29/29 30/30/30
f 25/25/25 30/30/30 31/31/31
f 25/25/25 31/31/31 32/32/32
f 25/25/25 32/32/32 33/33/33
f 25/25/25 33/33/33 34/34/34
f 25/25/25 34/34/34 35/35/35
f 25/25/25 35/35/35 36/36/36
