# Exported using automatic converter by Erwin Coumans
mtllib model6.mtl
#object group1168598763_2

v 2.479939 0.365627 -0.560266
v 2.488689 0.365627 -0.557922
v 2.488689 0.330627 -0.557922
v 2.479939 0.330627 -0.560266
v 2.488689 0.365627 -0.557922
v 2.495094 0.365627 -0.551516
v 2.495094 0.330627 -0.551516
v 2.488689 0.330627 -0.557922
v 2.495094 0.365627 -0.551516
v 2.497439 0.365627 -0.542766
v 2.497439 0.330627 -0.542766
v 2.495094 0.330627 -0.551516
v 2.497439 0.365627 -0.542766
v 2.495094 0.365627 -0.534016
v 2.495094 0.330627 -0.534016
v 2.497439 0.330627 -0.542766
v 2.495094 0.365627 -0.534016
v 2.488689 0.365627 -0.527611
v 2.488689 0.330627 -0.527611
v 2.495094 0.330627 -0.534016
v 2.488689 0.365627 -0.527611
v 2.479939 0.365627 -0.525266
v 2.479939 0.330627 -0.525266
v 2.488689 0.330627 -0.527611
v 2.479939 0.365627 -0.525266
v 2.471189 0.365627 -0.527611
v 2.471189 0.330627 -0.527611
v 2.479939 0.330627 -0.525266
v 2.471189 0.365627 -0.527611
v 2.464783 0.365627 -0.534016
v 2.464783 0.330627 -0.534016
v 2.471189 0.330627 -0.527611
v 2.464783 0.365627 -0.534016
v 2.462439 0.365627 -0.542766
v 2.462439 0.330627 -0.542766
v 2.464783 0.330627 -0.534016
v 2.462439 0.365627 -0.542766
v 2.464783 0.365627 -0.551516
v 2.464783 0.330627 -0.551516
v 2.462439 0.330627 -0.542766
v 2.464783 0.365627 -0.551516
v 2.471189 0.365627 -0.557922
v 2.471189 0.330627 -0.557922
v 2.464783 0.330627 -0.551516
v 2.471189 0.365627 -0.557922
v 2.479939 0.365627 -0.560266
v 2.479939 0.330627 -0.560266
v 2.471189 0.330627 -0.557922
v 2.479939 0.330627 -0.560266
v 2.488689 0.330627 -0.557922
v 2.495094 0.330627 -0.551516
v 2.497439 0.330627 -0.542766
v 2.495094 0.330627 -0.534016
v 2.488689 0.330627 -0.527611
v 2.479939 0.330627 -0.525266
v 2.471189 0.330627 -0.527611
v 2.464783 0.330627 -0.534016
v 2.462439 0.330627 -0.542766
v 2.464783 0.330627 -0.551516
v 2.471189 0.330627 -0.557922
v 2.471189 0.365627 -0.557922
v 2.464783 0.365627 -0.551516
v 2.462439 0.365627 -0.542766
v 2.464783 0.365627 -0.534016
v 2.471189 0.365627 -0.527611
v 2.479939 0.365627 -0.525266
v 2.488689 0.365627 -0.527611
v 2.495094 0.365627 -0.534016
v 2.497439 0.365627 -0.542766
v 2.495094 0.365627 -0.551516
v 2.488689 0.365627 -0.557922
v 2.479939 0.365627 -0.560266
usemtl mat19

vn 0.000000 0.000000 -1.000000
vn 0.000000 0.000000 -1.000000
vn 0.000000 0.000000 -1.000000
vn 0.000000 0.000000 -1.000000
vn 0.500000 0.000000 -0.866025
vn 0.500000 0.000000 -0.866025
vn 0.500000 0.000000 -0.866025
vn 0.500000 0.000000 -0.866025
vn 0.866026 0.000000 -0.500000
vn 0.866026 0.000000 -0.500000
vn 0.866026 0.000000 -0.500000
vn 0.866026 0.000000 -0.500000
vn 1.000000 0.000000 0.000000
vn 1.000000 0.000000 0.000000
vn 1.000000 0.000000 0.000000
vn 1.000000 0.000000 0.000000
vn 0.866025 0.000000 0.500000
vn 0.866025 0.000000 0.500000
vn 0.866025 0.000000 0.500000
vn 0.866025 0.000000 0.500000
vn 0.500000 -0.000000 0.866025
vn 0.500000 -0.000000 0.866025
vn 0.500000 -0.000000 0.866025
vn 0.500000 -0.000000 0.866025
vn -0.000000 -0.000000 1.000000
vn -0.000000 -0.000000 1.000000
vn -0.000000 -0.000000 1.000000
vn -0.000000 -0.000000 1.000000
vn -0.500000 -0.000000 0.866025
vn -0.500000 -0.000000 0.866025
vn -0.500000 -0.000000 0.866025
vn -0.500000 -0.000000 0.866025
vn -0.866026 -0.000000 0.500000
vn -0.866026 -0.000000 0.500000
vn -0.866026 -0.000000 0.500000
vn -0.866026 -0.000000 0.500000
vn -1.000000 -0.000000 -0.000000
vn -1.000000 -0.000000 -0.000000
vn -1.000000 -0.000000 -0.000000
vn -1.000000 -0.000000 -0.000000
vn -0.866025 -0.000000 -0.500000
vn -0.866025 -0.000000 -0.500000
vn -0.866025 -0.000000 -0.500000
vn -0.866025 -0.000000 -0.500000
vn -0.500000 0.000000 -0.866026
vn -0.500000 0.000000 -0.866026
vn -0.500000 0.000000 -0.866026
vn -0.500000 0.000000 -0.866026
vn 0.000000 -1.000000 -0.000000
vn 0.000000 -1.000000 -0.000000
vn 0.000000 -1.000000 -0.000000
vn 0.000000 -1.000000 -0.000000
vn 0.000000 -1.000000 -0.000000
vn 0.000000 -1.000000 -0.000000
vn 0.000000 -1.000000 -0.000000
vn 0.000000 -1.000000 -0.000000
vn 0.000000 -1.000000 -0.000000
vn 0.000000 -1.000000 -0.000000
vn 0.000000 -1.000000 -0.000000
vn 0.000000 -1.000000 -0.000000
vn -0.000000 1.000000 0.000000
vn -0.000000 1.000000 0.000000
vn -0.000000 1.000000 0.000000
vn -0.000000 1.000000 0.000000
vn -0.000000 1.000000 0.000000
vn -0.000000 1.000000 0.000000
vn -0.000000 1.000000 0.000000
vn -0.000000 1.000000 0.000000
vn -0.000000 1.000000 0.000000
vn -0.000000 1.000000 0.000000
vn -0.000000 1.000000 0.000000
vn -0.000000 1.000000 0.000000

vt 0.021083 0.232262
vt 0.021474 0.233045
vt 0.024605 0.231480
vt 0.024213 0.230697
vt 0.052089 0.216151
vt 0.052604 0.216859
vt 0.055435 0.214800
vt 0.054920 0.214092
vt 0.099269 0.128850
vt 0.100086 0.129161
vt 0.101333 0.125891
vt 0.100516 0.125579
vt 0.077681 0.048987
vt 0.078393 0.048479
vt 0.076359 0.045631
vt 0.075647 0.046139
vt 0.031064 0.111466
vt 0.031524 0.110722
vt 0.028546 0.108883
vt 0.028086 0.109627
vt 0.002981 0.190680
vt 0.003359 0.189891
vt 0.000202 0.188380
vt -0.000176 0.189169
vt -0.021083 0.232262
vt -0.020691 0.231480
vt -0.023822 0.229914
vt -0.024213 0.230697
vt -0.052089 0.216151
vt -0.051575 0.215443
vt -0.054405 0.213385
vt -0.054920 0.214092
vt -0.099269 0.128850
vt -0.098451 0.128538
vt -0.099698 0.125268
vt -0.100516 0.125579
vt -0.077681 0.048987
vt -0.076969 0.049496
vt -0.074935 0.046648
vt -0.075647 0.046139
vt -0.031064 0.111466
vt -0.030604 0.112211
vt -0.027626 0.110371
vt -0.028086 0.109627
vt -0.002981 0.190680
vt -0.002603 0.191469
vt 0.000554 0.189958
vt 0.000176 0.189169
vt 0.104109 0.193423
vt 0.104624 0.194168
vt 0.105442 0.194556
vt 0.106345 0.194483
vt 0.107090 0.193967
vt 0.107478 0.193149
vt 0.107405 0.192246
vt 0.106890 0.191501
vt 0.106071 0.191113
vt 0.105168 0.191186
vt 0.104423 0.191702
vt 0.104035 0.192520
vt -0.104035 0.192520
vt -0.104423 0.191702
vt -0.105168 0.191186
vt -0.106071 0.191113
vt -0.106890 0.191501
vt -0.107405 0.192246
vt -0.107478 0.193149
vt -0.107090 0.193967
vt -0.106345 0.194483
vt -0.105442 0.194556
vt -0.104624 0.194168
vt -0.104109 0.193423
s off
f 1/1/1 2/2/2 3/3/3
f 1/1/1 3/3/3 4/4/4
f 5/5/5 6/6/6 7/7/7
f 5/5/5 7/7/7 8/8/8
f 9/9/9 10/10/10 11/11/11
f 9/9/9 11/11/11 12/12/12
f 13/13/13 14/14/14 15/15/15
f 13/13/13 15/15/15 16/16/16
f 17/17/17 18/18/18 19/19/19
f 17/17/17 19/19/19 20/20/20
f 21/21/21 22/22/22 23/23/23
f 21/21/21 23/23/23 24/24/24
f 25/25/25 26/26/26 27/27/27
f 25/25/25 27/27/27 28/28/28
f 29/29/29 30/30/30 31/31/31
f 29/29/29 31/31/31 32/32/32
f 33/33/33 34/34/34 35/35/35
f 33/33/33 35/35/35 36/36/36
f 37/37/37 38/38/38 39/39/39
f 37/37/37 39/39/39 40/40/40
f 41/41/41 42/42/42 43/43/43
f 41/41/41 43/43/43 44/44/44
f 45/45/45 46/46/46 47/47/47
f 45/45/45 47/47/47 48/48/48
f 49/49/49 50/50/50 51/51/51
f 49/49/49 51/51/51 52/52/52
f 49/49/49 52/52/52 53/53/53
f 49/49/49 53/53/53 54/54/54
f 49/49/49 54/54/54 55/55/55
f 49/49/49 55/55/55 56/56/56
f 49/49/49 56/56/56 57/57/57
f 49/49/49 57/57/57 58/58/58
f 49/49/49 58/58/58 59/59/59
f 49/49/49 59/59/59 60/60/60
f 61/61/61 62/62/62 63/63/63
f 61/61/61 63/63/63 64/64/64
f 61/61/61 64/64/64 65/65/65
f 61/61/61 65/65/65 66/66/66
f 61/61/61 66/66/66 67/67/67
f 61/61/61 67/67/67 68/68/68
f 61/61/61 68/68/68 69/69/69
f 61/61/61 69/69/69 70/70/70
f 61/61/61 70/70/70 71/71/71
f 61/61/61 71/71/71 72/72/72
