# Exported using automatic converter by Erwin Coumans
mtllib model6.mtl
#object mesh160924600

v 0.668816 0.475489 -0.415148
v -0.171184 0.475489 -0.415148
v -0.171184 0.435489 -0.415148
v 0.668816 0.435489 -0.415148
v -0.171184 0.435489 -0.725148
v -0.171184 0.475489 -0.725148
v 0.668816 0.475489 -0.725148
v 0.668816 0.435489 -0.725148
v -0.171184 0.435489 -0.415148
v -0.171184 0.435489 -0.725148
v 0.668816 0.435489 -0.725148
v 0.668816 0.435489 -0.415148
v 0.668816 0.475489 -0.725148
v -0.171184 0.475489 -0.725148
v -0.171184 0.475489 -0.415148
v 0.668816 0.475489 -0.415148
v 0.668816 0.435489 -0.725148
v 0.668816 0.475489 -0.725148
v 0.668816 0.475489 -0.415148
v 0.668816 0.435489 -0.415148
v -0.171184 0.475489 -0.415148
v -0.171184 0.475489 -0.725148
v -0.171184 0.435489 -0.725148
v -0.171184 0.435489 -0.415148
usemtl mat22

vn -0.000000 -0.000000 1.000000
vn -0.000000 -0.000000 1.000000
vn -0.000000 -0.000000 1.000000
vn -0.000000 -0.000000 1.000000
vn 0.000000 0.000000 -1.000000
vn 0.000000 0.000000 -1.000000
vn 0.000000 0.000000 -1.000000
vn 0.000000 0.000000 -1.000000
vn 0.000000 -1.000000 -0.000000
vn 0.000000 -1.000000 -0.000000
vn 0.000000 -1.000000 -0.000000
vn 0.000000 -1.000000 -0.000000
vn -0.000000 1.000000 0.000000
vn -0.000000 1.000000 0.000000
vn -0.000000 1.000000 0.000000
vn -0.000000 1.000000 0.000000
vn 1.000000 0.000000 0.000000
vn 1.000000 0.000000 0.000000
vn 1.000000 0.000000 0.000000
vn 1.000000 0.000000 0.000000
vn -1.000000 -0.000000 -0.000000
vn -1.000000 -0.000000 -0.000000
vn -1.000000 -0.000000 -0.000000
vn -1.000000 -0.000000 -0.000000

vt 0.069739 0.075184
vt 0.107305 0.000052
vt 0.103728 -0.001737
vt 0.066162 0.073395
vt -0.103728 -0.001737
vt -0.107305 0.000052
vt -0.069739 0.075184
vt -0.066162 0.073395
vt 0.028608 -0.061125
vt -0.000586 -0.050699
vt 0.027666 0.028408
vt 0.056860 0.017981
vt -0.027666 0.028408
vt 0.000586 -0.050699
vt -0.028608 -0.061125
vt -0.056860 0.017981
vt 0.066901 0.065273
vt 0.069226 0.068528
vt 0.094451 0.050510
vt 0.092126 0.047255
vt -0.094451 0.050510
vt -0.069226 0.068528
vt -0.066901 0.065273
vt -0.092126 0.047255
s off
f 1/1/1 2/2/2 3/3/3
f 1/1/1 3/3/3 4/4/4
f 5/5/5 6/6/6 7/7/7
f 5/5/5 7/7/7 8/8/8
f 9/9/9 10/10/10 11/11/11
f 9/9/9 11/11/11 12/12/12
f 13/13/13 14/14/14 15/15/15
f 13/13/13 15/15/15 16/16/16
f 17/17/17 18/18/18 19/19/19
f 17/17/17 19/19/19 20/20/20
f 21/21/21 22/22/22 23/23/23
f 21/21/21 23/23/23 24/24/24
