# Exported using automatic converter by Erwin Coumans
mtllib botlab.mtl
#object mesh560558264

v 3.248238 -0.344511 2.339852
v 3.228238 -0.344511 2.339852
v 3.228238 -0.364511 2.339852
v 3.248238 -0.364511 2.339852
v 3.228238 -0.364511 1.859852
v 3.228238 -0.344511 1.859852
v 3.248238 -0.344511 1.859852
v 3.248238 -0.364511 1.859852
v 3.228238 -0.364511 2.339852
v 3.228238 -0.364511 1.859852
v 3.248238 -0.364511 1.859852
v 3.248238 -0.364511 2.339852
v 3.248238 -0.344511 1.859852
v 3.228238 -0.344511 1.859852
v 3.228238 -0.344511 2.339852
v 3.248238 -0.344511 2.339852
v 3.248238 -0.364511 1.859852
v 3.248238 -0.344511 1.859852
v 3.248238 -0.344511 2.339852
v 3.248238 -0.364511 2.339852
v 3.228238 -0.344511 2.339852
v 3.228238 -0.344511 1.859852
v 3.228238 -0.364511 1.859852
v 3.228238 -0.364511 2.339852
usemtl mat12

vn -0.000000 0.000000 1.000000
vn -0.000000 0.000000 1.000000
vn -0.000000 0.000000 1.000000
vn -0.000000 0.000000 1.000000
vn 0.000000 0.000000 -1.000000
vn 0.000000 0.000000 -1.000000
vn 0.000000 0.000000 -1.000000
vn 0.000000 0.000000 -1.000000
vn 0.000000 -1.000000 0.000000
vn 0.000000 -1.000000 0.000000
vn 0.000000 -1.000000 0.000000
vn 0.000000 -1.000000 0.000000
vn -0.000000 1.000000 0.000000
vn -0.000000 1.000000 0.000000
vn -0.000000 1.000000 0.000000
vn -0.000000 1.000000 0.000000
vn 1.000000 0.000000 0.000000
vn 1.000000 0.000000 0.000000
vn 1.000000 0.000000 0.000000
vn 1.000000 0.000000 0.000000
vn -1.000000 -0.000000 -0.000000
vn -1.000000 -0.000000 -0.000000
vn -1.000000 -0.000000 -0.000000
vn -1.000000 -0.000000 -0.000000

vt -0.118959 0.269223
vt -0.118064 0.267434
vt -0.119853 0.266539
vt -0.120748 0.268328
vt 0.119853 0.266539
vt 0.118064 0.267434
vt 0.118959 0.269223
vt 0.120748 0.268328
vt 0.402393 0.166352
vt 0.357189 0.182496
vt 0.357862 0.184380
vt 0.403066 0.168235
vt -0.357862 0.184380
vt -0.357189 0.182496
vt -0.402393 0.166352
vt -0.403066 0.168235
vt 0.230751 -0.150076
vt 0.231914 -0.148448
vt 0.270973 -0.176348
vt 0.269811 -0.177975
vt -0.270973 -0.176348
vt -0.231914 -0.148448
vt -0.230751 -0.150076
vt -0.269811 -0.177975
s off
f 1/1/1 2/2/2 3/3/3
f 1/1/1 3/3/3 4/4/4
f 5/5/5 6/6/6 7/7/7
f 5/5/5 7/7/7 8/8/8
f 9/9/9 10/10/10 11/11/11
f 9/9/9 11/11/11 12/12/12
f 13/13/13 14/14/14 15/15/15
f 13/13/13 15/15/15 16/16/16
f 17/17/17 18/18/18 19/19/19
f 17/17/17 19/19/19 20/20/20
f 21/21/21 22/22/22 23/23/23
f 21/21/21 23/23/23 24/24/24
