# Exported using automatic converter by Erwin Coumans
mtllib botlab.mtl
#object mesh232087489

v 1.306127 1.234439 3.565227
v 1.304559 1.244070 3.567414
v 1.309461 1.244963 3.566994
v 1.311029 1.235332 3.564806
v 1.304559 1.244070 3.567414
v 1.304814 1.247143 3.576927
v 1.309716 1.248036 3.576507
v 1.309461 1.244963 3.566994
v 1.304814 1.247143 3.576927
v 1.306637 1.240585 3.584252
v 1.311539 1.241478 3.583832
v 1.309716 1.248036 3.576507
v 1.306637 1.240585 3.584252
v 1.308205 1.230953 3.582065
v 1.313107 1.231847 3.581645
v 1.311539 1.241478 3.583832
v 1.308205 1.230953 3.582065
v 1.307950 1.227881 3.572552
v 1.312852 1.228774 3.572132
v 1.313107 1.231847 3.581645
v 1.307950 1.227881 3.572552
v 1.306127 1.234439 3.565227
v 1.311029 1.235332 3.564806
v 1.312852 1.228774 3.572132
v 1.307950 1.227881 3.572552
v 1.308205 1.230953 3.582065
v 1.306637 1.240585 3.584252
v 1.304814 1.247143 3.576927
v 1.304559 1.244070 3.567414
v 1.306127 1.234439 3.565227
v 1.311029 1.235332 3.564806
v 1.309461 1.244963 3.566994
v 1.309716 1.248036 3.576507
v 1.311539 1.241478 3.583832
v 1.313107 1.231847 3.581645
v 1.312852 1.228774 3.572132
usemtl mat21

vn -0.119998 0.201230 -0.972166
vn -0.119998 0.201230 -0.972166
vn -0.119998 0.201230 -0.972166
vn -0.119998 0.201230 -0.972166
vn -0.195802 0.934690 -0.296674
vn -0.195802 0.934690 -0.296674
vn -0.195802 0.934690 -0.296674
vn -0.195802 0.934690 -0.296674
vn -0.075803 0.733460 0.675492
vn -0.075803 0.733460 0.675492
vn -0.075803 0.733460 0.675492
vn -0.075803 0.733460 0.675492
vn 0.119998 -0.201230 0.972166
vn 0.119998 -0.201230 0.972166
vn 0.119998 -0.201230 0.972166
vn 0.119998 -0.201230 0.972166
vn 0.195802 -0.934690 0.296674
vn 0.195802 -0.934690 0.296674
vn 0.195802 -0.934690 0.296674
vn 0.195802 -0.934690 0.296674
vn 0.075803 -0.733460 -0.675492
vn 0.075803 -0.733460 -0.675492
vn 0.075803 -0.733460 -0.675492
vn 0.075803 -0.733460 -0.675492
vn -0.980312 -0.178691 0.084016
vn -0.980312 -0.178691 0.084016
vn -0.980312 -0.178691 0.084016
vn -0.980312 -0.178691 0.084016
vn -0.980312 -0.178691 0.084016
vn -0.980312 -0.178691 0.084016
vn 0.980312 0.178691 -0.084016
vn 0.980312 0.178691 -0.084016
vn 0.980312 0.178691 -0.084016
vn 0.980312 0.178691 -0.084016
vn 0.980312 0.178691 -0.084016
vn 0.980312 0.178691 -0.084016

vt -0.221415 0.143030
vt -0.222391 0.143249
vt -0.222281 0.143737
vt -0.221306 0.143518
vt -0.487826 0.020837
vt -0.488816 0.020693
vt -0.488888 0.021187
vt -0.487898 0.021332
vt -0.249057 0.004926
vt -0.249995 0.004579
vt -0.250168 0.005048
vt -0.249230 0.005395
vt 0.222391 0.143249
vt 0.221415 0.143030
vt 0.221306 0.143518
vt 0.222282 0.143737
vt 0.488816 0.020693
vt 0.487826 0.020837
vt 0.487898 0.021332
vt 0.488888 0.021187
vt 0.249995 0.004579
vt 0.249057 0.004926
vt 0.249230 0.005395
vt 0.250168 0.005048
vt -0.444582 -0.180335
vt -0.445502 -0.180726
vt -0.446301 -0.180125
vt -0.446180 -0.179132
vt -0.445260 -0.178741
vt -0.444461 -0.179342
vt 0.444461 -0.179342
vt 0.445260 -0.178741
vt 0.446180 -0.179132
vt 0.446301 -0.180125
vt 0.445502 -0.180726
vt 0.444582 -0.180335
s off
f 1/1/1 2/2/2 3/3/3
f 1/1/1 3/3/3 4/4/4
f 5/5/5 6/6/6 7/7/7
f 5/5/5 7/7/7 8/8/8
f 9/9/9 10/10/10 11/11/11
f 9/9/9 11/11/11 12/12/12
f 13/13/13 14/14/14 15/15/15
f 13/13/13 15/15/15 16/16/16
f 17/17/17 18/18/18 19/19/19
f 17/17/17 19/19/19 20/20/20
f 21/21/21 22/22/22 23/23/23
f 21/21/21 23/23/23 24/24/24
f 25/25/25 26/26/26 27/27/27
f 25/25/25 27/27/27 28/28/28
f 25/25/25 28/28/28 29/29/29
f 25/25/25 29/29/29 30/30/30
f 31/31/31 32/32/32 33/33/33
f 31/31/31 33/33/33 34/34/34
f 31/31/31 34/34/34 35/35/35
f 31/31/31 35/35/35 36/36/36
