# Exported using automatic converter by Erwin Coumans
mtllib model6.mtl
#object mesh1712381554

v 3.288238 -1.004511 -3.270148
v 3.288238 -0.324511 -3.260149
v 3.288238 -0.324511 -3.170148
v 3.288238 -1.004511 -3.180148
v -2.701762 -0.324511 -3.180150
v -2.701762 -0.324511 -3.270149
v -2.711762 -1.004511 -3.270149
v -2.711762 -1.004511 -3.180149
v -2.701762 -0.324511 -3.180150
v -2.711762 -1.004511 -3.180149
v 3.288238 -1.004511 -3.180148
v -2.711762 -1.004511 -3.270149
v -2.701762 -0.324511 -3.270149
v 3.288238 -1.004511 -3.270148
v -2.711762 -1.004511 -3.180149
v -2.711762 -1.004511 -3.270149
v 3.288238 -1.004511 -3.270148
v 3.288238 -1.004511 -3.180148
v 3.288238 -0.324511 -3.260149
v -2.701762 -0.324511 -3.270149
v -2.701762 -0.324511 -3.180150
v 3.288238 -0.324511 -3.170148
v -2.701762 -0.324511 -3.270149
v 3.288238 -0.324511 -3.260149
v 3.288238 -1.004511 -3.270148
v 3.288238 -1.004511 -3.180148
v 3.288238 -0.324511 -3.170148
v -2.701762 -0.324511 -3.180150
usemtl mat22

vn 1.000000 0.000000 0.000001
vn 1.000000 0.000000 0.000001
vn 1.000000 0.000000 0.000001
vn 1.000000 0.000000 0.000001
vn -0.999892 0.014704 -0.000003
vn -0.999892 0.014704 -0.000003
vn -0.999892 0.014704 -0.000003
vn -0.999892 0.014704 -0.000003
vn -0.000000 0.000000 1.000000
vn -0.000000 0.000000 1.000000
vn -0.000000 0.000000 1.000000
vn 0.000000 -0.000000 -1.000000
vn 0.000000 -0.000000 -1.000000
vn 0.000000 -0.000000 -1.000000
vn 0.000000 -1.000000 0.000000
vn 0.000000 -1.000000 0.000000
vn 0.000000 -1.000000 0.000000
vn 0.000000 -1.000000 0.000000
vn -0.000000 1.000000 0.000000
vn -0.000000 1.000000 0.000000
vn -0.000000 1.000000 0.000000
vn -0.000000 1.000000 0.000000
vn 0.001669 0.014704 -0.999891
vn 0.001669 0.014704 -0.999891
vn 0.001669 0.014704 -0.999891
vn -0.001669 -0.014704 0.999891
vn -0.001669 -0.014704 0.999891
vn -0.001669 -0.014704 0.999891

vt -0.223893 0.096021
vt -0.183555 0.150774
vt -0.176232 0.145543
vt -0.216569 0.090790
vt 0.181538 0.140066
vt 0.188932 0.145197
vt 0.227705 0.089325
vt 0.220311 0.084194
vt 0.148922 -0.262067
vt 0.088548 -0.293372
vt -0.179780 0.243284
vt -0.088548 -0.293372
vt -0.148922 -0.262067
vt 0.179780 0.243284
vt -0.317232 -0.207385
vt -0.325708 -0.204358
vt -0.123906 0.360687
vt -0.115431 0.357660
vt 0.122965 0.360351
vt 0.325372 -0.203416
vt 0.316896 -0.206443
vt 0.114489 0.357324
vt -0.144908 -0.264572
vt 0.120809 0.272268
vt 0.181758 0.242098
vt -0.181646 0.242170
vt -0.120697 0.272340
vt 0.145020 -0.264499
s off
f 1/1/1 2/2/2 3/3/3
f 1/1/1 3/3/3 4/4/4
f 5/5/5 6/6/6 7/7/7
f 5/5/5 7/7/7 8/8/8
f 9/9/9 10/10/10 11/11/11
f 12/12/12 13/13/13 14/14/14
f 15/15/15 16/16/16 17/17/17
f 15/15/15 17/17/17 18/18/18
f 19/19/19 20/20/20 21/21/21
f 19/19/19 21/21/21 22/22/22
f 23/23/23 24/24/24 25/25/25
f 26/26/26 27/27/27 28/28/28
