# Exported using automatic converter by Erwin Coumans
mtllib botlab.mtl
#object mesh1357014680

v 2.488238 -0.584511 -2.770148
v 2.488238 -0.554511 -2.770148
v 2.488238 -0.554511 -2.800148
v 2.488238 -0.584511 -2.800148
v 2.518238 -0.554511 -2.800148
v 2.518238 -0.554511 -2.770148
v 2.518238 -0.584511 -2.770148
v 2.518238 -0.584511 -2.800148
v 2.488238 -0.554511 -2.800148
v 2.518238 -0.554511 -2.800148
v 2.518238 -0.584511 -2.800148
v 2.488238 -0.584511 -2.800148
v 2.518238 -0.584511 -2.770148
v 2.518238 -0.554511 -2.770148
v 2.488238 -0.554511 -2.770148
v 2.488238 -0.584511 -2.770148
v 2.518238 -0.584511 -2.800148
v 2.518238 -0.584511 -2.770148
v 2.488238 -0.584511 -2.770148
v 2.488238 -0.584511 -2.800148
v 2.488238 -0.554511 -2.770148
v 2.518238 -0.554511 -2.770148
v 2.518238 -0.554511 -2.800148
v 2.488238 -0.554511 -2.800148
usemtl mat23

vn -1.000000 0.000000 0.000000
vn -1.000000 0.000000 0.000000
vn -1.000000 0.000000 0.000000
vn -1.000000 0.000000 0.000000
vn 1.000000 0.000000 0.000000
vn 1.000000 0.000000 0.000000
vn 1.000000 0.000000 0.000000
vn 1.000000 0.000000 0.000000
vn 0.000000 0.000000 -1.000000
vn 0.000000 0.000000 -1.000000
vn 0.000000 0.000000 -1.000000
vn 0.000000 0.000000 -1.000000
vn 0.000000 -0.000000 1.000000
vn 0.000000 -0.000000 1.000000
vn 0.000000 -0.000000 1.000000
vn 0.000000 -0.000000 1.000000
vn 0.000000 -1.000000 0.000000
vn 0.000000 -1.000000 0.000000
vn 0.000000 -1.000000 0.000000
vn 0.000000 -1.000000 0.000000
vn 0.000000 1.000000 -0.000000
vn 0.000000 1.000000 -0.000000
vn 0.000000 1.000000 -0.000000
vn 0.000000 1.000000 -0.000000

vt 0.158794 0.101135
vt 0.157051 0.103577
vt 0.159492 0.105320
vt 0.161235 0.102879
vt -0.159492 0.105320
vt -0.157051 0.103577
vt -0.158794 0.101135
vt -0.161235 0.102879
vt 0.103754 0.191855
vt 0.105095 0.194538
vt 0.107778 0.193196
vt 0.106437 0.190513
vt -0.107778 0.193196
vt -0.105095 0.194538
vt -0.103754 0.191855
vt -0.106437 0.190513
vt -0.105542 0.272365
vt -0.102717 0.271356
vt -0.103726 0.268531
vt -0.106551 0.269540
vt 0.103726 0.268531
vt 0.102717 0.271356
vt 0.105542 0.272365
vt 0.106551 0.269540
s off
f 1/1/1 2/2/2 3/3/3
f 1/1/1 3/3/3 4/4/4
f 5/5/5 6/6/6 7/7/7
f 5/5/5 7/7/7 8/8/8
f 9/9/9 10/10/10 11/11/11
f 9/9/9 11/11/11 12/12/12
f 13/13/13 14/14/14 15/15/15
f 13/13/13 15/15/15 16/16/16
f 17/17/17 18/18/18 19/19/19
f 17/17/17 19/19/19 20/20/20
f 21/21/21 22/22/22 23/23/23
f 21/21/21 23/23/23 24/24/24
