# Exported using automatic converter by Erwin Coumans
mtllib model6.mtl
#object mesh1608640616

v 0.275606 0.444963 2.019325
v 0.289290 0.444963 2.019325
v 0.289290 0.458647 2.019325
v 0.275606 0.458647 2.019325
v 0.289290 0.448647 1.757746
v 0.289290 0.434963 1.757746
v 0.275606 0.434963 1.757746
v 0.275606 0.448647 1.757746
v 0.289290 0.458647 2.019325
v 0.289290 0.448647 1.757746
v 0.275606 0.448647 1.757746
v 0.275606 0.458647 2.019325
v 0.275606 0.434963 1.757746
v 0.289290 0.434963 1.757746
v 0.289290 0.444963 2.019325
v 0.275606 0.444963 2.019325
v 0.275606 0.448647 1.757746
v 0.275606 0.434963 1.757746
v 0.275606 0.444963 2.019325
v 0.275606 0.458647 2.019325
v 0.289290 0.444963 2.019325
v 0.289290 0.434963 1.757746
v 0.289290 0.448647 1.757746
v 0.289290 0.458647 2.019325
v 0.156133 0.424963 1.765115
v 0.279290 0.424963 1.765115
v 0.279290 0.445489 1.765115
v 0.156133 0.445489 1.765115
v 0.279290 0.445489 1.737746
v 0.279290 0.424963 1.737746
v 0.156133 0.424963 1.737746
v 0.156133 0.445489 1.737746
v 0.279290 0.445489 1.765115
v 0.279290 0.445489 1.737746
v 0.156133 0.445489 1.737746
v 0.156133 0.445489 1.765115
v 0.156133 0.424963 1.737746
v 0.279290 0.424963 1.737746
v 0.279290 0.424963 1.765115
v 0.156133 0.424963 1.765115
v 0.156133 0.445489 1.737746
v 0.156133 0.424963 1.737746
v 0.156133 0.424963 1.765115
v 0.156133 0.445489 1.765115
v 0.279290 0.424963 1.765115
v 0.279290 0.424963 1.737746
v 0.279290 0.445489 1.737746
v 0.279290 0.445489 1.765115
v 0.159290 0.444963 2.019326
v 0.289290 0.444963 2.019326
v 0.289290 0.458647 2.019326
v 0.159290 0.458647 2.019326
v 0.289290 0.458647 1.998799
v 0.289290 0.444963 1.998799
v 0.159290 0.444963 1.998799
v 0.159290 0.458647 1.998799
v 0.289290 0.458647 2.019326
v 0.289290 0.458647 1.998799
v 0.159290 0.458647 1.998799
v 0.159290 0.458647 2.019326
v 0.159290 0.444963 1.998799
v 0.289290 0.444963 1.998799
v 0.289290 0.444963 2.019326
v 0.159290 0.444963 2.019326
v 0.159290 0.458647 1.998799
v 0.159290 0.444963 1.998799
v 0.159290 0.444963 2.019326
v 0.159290 0.458647 2.019326
v 0.289290 0.444963 2.019326
v 0.289290 0.444963 1.998799
v 0.289290 0.458647 1.998799
v 0.289290 0.458647 2.019326
v 0.152448 0.444963 2.019325
v 0.166133 0.444963 2.019325
v 0.166133 0.465489 2.019325
v 0.152448 0.465489 2.019325
v 0.166132 0.455489 1.750904
v 0.166132 0.434963 1.750904
v 0.152448 0.434963 1.750904
v 0.152448 0.455489 1.750904
v 0.166133 0.465489 2.019325
v 0.166132 0.455489 1.750904
v 0.152448 0.455489 1.750904
v 0.152448 0.465489 2.019325
v 0.152448 0.434963 1.750904
v 0.166132 0.434963 1.750904
v 0.166133 0.444963 2.019325
v 0.152448 0.444963 2.019325
v 0.152448 0.455489 1.750904
v 0.152448 0.434963 1.750904
v 0.152448 0.444963 2.019325
v 0.152448 0.465489 2.019325
v 0.166133 0.444963 2.019325
v 0.166132 0.434963 1.750904
v 0.166132 0.455489 1.750904
v 0.166133 0.465489 2.019325
usemtl mat23

vn 0.000000 0.000000 1.000000
vn 0.000000 0.000000 1.000000
vn 0.000000 0.000000 1.000000
vn 0.000000 0.000000 1.000000
vn -0.000000 -0.000000 -1.000000
vn -0.000000 -0.000000 -1.000000
vn -0.000000 -0.000000 -1.000000
vn -0.000000 -0.000000 -1.000000
vn -0.000000 0.999270 -0.038201
vn -0.000000 0.999270 -0.038201
vn -0.000000 0.999270 -0.038201
vn -0.000000 0.999270 -0.038201
vn 0.000000 -0.999270 0.038201
vn 0.000000 -0.999270 0.038201
vn 0.000000 -0.999270 0.038201
vn 0.000000 -0.999270 0.038201
vn -1.000000 -0.000000 0.000000
vn -1.000000 -0.000000 0.000000
vn -1.000000 -0.000000 0.000000
vn -1.000000 -0.000000 0.000000
vn 1.000000 0.000000 -0.000000
vn 1.000000 0.000000 -0.000000
vn 1.000000 0.000000 -0.000000
vn 1.000000 0.000000 -0.000000
vn -0.000000 0.000000 1.000000
vn -0.000000 0.000000 1.000000
vn -0.000000 0.000000 1.000000
vn -0.000000 0.000000 1.000000
vn 0.000000 -0.000000 -1.000000
vn 0.000000 -0.000000 -1.000000
vn 0.000000 -0.000000 -1.000000
vn 0.000000 -0.000000 -1.000000
vn -0.000000 1.000000 -0.000000
vn -0.000000 1.000000 -0.000000
vn -0.000000 1.000000 -0.000000
vn -0.000000 1.000000 -0.000000
vn 0.000000 -1.000000 0.000000
vn 0.000000 -1.000000 0.000000
vn 0.000000 -1.000000 0.000000
vn 0.000000 -1.000000 0.000000
vn -1.000000 -0.000000 0.000000
vn -1.000000 -0.000000 0.000000
vn -1.000000 -0.000000 0.000000
vn -1.000000 -0.000000 0.000000
vn 1.000000 0.000000 -0.000000
vn 1.000000 0.000000 -0.000000
vn 1.000000 0.000000 -0.000000
vn 1.000000 0.000000 -0.000000
vn -0.000000 0.000000 1.000000
vn -0.000000 0.000000 1.000000
vn -0.000000 0.000000 1.000000
vn -0.000000 0.000000 1.000000
vn 0.000000 -0.000000 -1.000000
vn 0.000000 -0.000000 -1.000000
vn 0.000000 -0.000000 -1.000000
vn 0.000000 -0.000000 -1.000000
vn -0.000000 1.000000 -0.000000
vn -0.000000 1.000000 -0.000000
vn -0.000000 1.000000 -0.000000
vn -0.000000 1.000000 -0.000000
vn 0.000000 -1.000000 0.000000
vn 0.000000 -1.000000 0.000000
vn 0.000000 -1.000000 0.000000
vn 0.000000 -1.000000 0.000000
vn -1.000000 -0.000000 0.000000
vn -1.000000 -0.000000 0.000000
vn -1.000000 -0.000000 0.000000
vn -1.000000 -0.000000 0.000000
vn 1.000000 0.000000 -0.000000
vn 1.000000 0.000000 -0.000000
vn 1.000000 0.000000 -0.000000
vn 1.000000 0.000000 -0.000000
vn -0.000000 0.000000 1.000000
vn -0.000000 0.000000 1.000000
vn -0.000000 0.000000 1.000000
vn -0.000000 0.000000 1.000000
vn 0.000000 -0.000000 -1.000000
vn 0.000000 -0.000000 -1.000000
vn 0.000000 -0.000000 -1.000000
vn 0.000000 -0.000000 -1.000000
vn -0.000000 0.999307 -0.037229
vn -0.000000 0.999307 -0.037229
vn -0.000000 0.999307 -0.037229
vn -0.000000 0.999307 -0.037229
vn 0.000000 -0.999307 0.037229
vn 0.000000 -0.999307 0.037229
vn 0.000000 -0.999307 0.037229
vn 0.000000 -0.999307 0.037229
vn -1.000000 -0.000000 0.000000
vn -1.000000 -0.000000 0.000000
vn -1.000000 -0.000000 0.000000
vn -1.000000 -0.000000 0.000000
vn 1.000000 0.000000 -0.000000
vn 1.000000 0.000000 -0.000000
vn 1.000000 0.000000 -0.000000
vn 1.000000 0.000000 -0.000000

vt 0.084594 0.038649
vt 0.083982 0.039873
vt 0.085206 0.040485
vt 0.085818 0.039261
vt -0.084312 0.040037
vt -0.083088 0.039425
vt -0.083700 0.038201
vt -0.084923 0.038813
vt -0.278253 -0.095989
vt -0.253452 -0.087611
vt -0.253015 -0.088908
vt -0.277815 -0.097285
vt 0.252965 -0.088891
vt 0.253403 -0.087595
vt 0.278203 -0.095972
vt 0.277765 -0.097268
vt -0.269707 -0.077972
vt -0.268911 -0.079085
vt -0.290778 -0.093475
vt -0.291573 -0.092362
vt 0.290778 -0.093475
vt 0.268911 -0.079085
vt 0.269707 -0.077972
vt 0.291573 -0.092362
vt 0.088148 0.027068
vt 0.082640 0.038084
vt 0.084476 0.039002
vt 0.089984 0.027986
vt -0.084476 0.039002
vt -0.082640 0.038084
vt -0.088148 0.027068
vt -0.089984 0.027986
vt -0.249084 -0.092032
vt -0.246506 -0.091112
vt -0.242364 -0.102710
vt -0.244941 -0.103630
vt 0.242364 -0.102710
vt 0.246506 -0.091112
vt 0.249084 -0.092032
vt 0.244941 -0.103630
vt -0.267896 -0.077066
vt -0.266703 -0.078736
vt -0.268930 -0.080327
vt -0.270123 -0.078657
vt 0.268930 -0.080327
vt 0.266703 -0.078736
vt 0.267896 -0.077066
vt 0.270123 -0.078657
vt 0.089796 0.028245
vt 0.083982 0.039873
vt 0.085206 0.040485
vt 0.091020 0.028857
vt -0.085206 0.040485
vt -0.083982 0.039873
vt -0.089796 0.028245
vt -0.091020 0.028857
vt -0.273360 -0.099641
vt -0.271427 -0.098950
vt -0.267055 -0.111193
vt -0.268988 -0.111883
vt 0.267055 -0.111193
vt 0.271427 -0.098950
vt 0.273360 -0.099641
vt 0.268988 -0.111883
vt -0.289903 -0.091169
vt -0.289108 -0.092282
vt -0.290778 -0.093475
vt -0.291574 -0.092362
vt 0.290778 -0.093475
vt 0.289108 -0.092282
vt 0.289903 -0.091169
vt 0.291574 -0.092362
vt 0.090102 0.027633
vt 0.089490 0.028857
vt 0.091326 0.029775
vt 0.091938 0.028551
vt -0.090431 0.029328
vt -0.088595 0.028410
vt -0.089207 0.027186
vt -0.091043 0.028104
vt -0.274211 -0.107762
vt -0.248766 -0.099154
vt -0.248328 -0.100451
vt -0.273772 -0.109058
vt 0.248256 -0.100426
vt 0.248694 -0.099130
vt 0.274138 -0.107737
vt 0.273700 -0.109034
vt -0.269548 -0.077017
vt -0.268355 -0.078687
vt -0.290778 -0.093475
vt -0.291971 -0.091805
vt 0.290778 -0.093475
vt 0.268355 -0.078687
vt 0.269548 -0.077017
vt 0.291971 -0.091805
s off
f 1/1/1 2/2/2 3/3/3
f 1/1/1 3/3/3 4/4/4
f 5/5/5 6/6/6 7/7/7
f 5/5/5 7/7/7 8/8/8
f 9/9/9 10/10/10 11/11/11
f 9/9/9 11/11/11 12/12/12
f 13/13/13 14/14/14 15/15/15
f 13/13/13 15/15/15 16/16/16
f 17/17/17 18/18/18 19/19/19
f 17/17/17 19/19/19 20/20/20
f 21/21/21 22/22/22 23/23/23
f 21/21/21 23/23/23 24/24/24
f 25/25/25 26/26/26 27/27/27
f 25/25/25 27/27/27 28/28/28
f 29/29/29 30/30/30 31/31/31
f 29/29/29 31/31/31 32/32/32
f 33/33/33 34/34/34 35/35/35
f 33/33/33 35/35/35 36/36/36
f 37/37/37 38/38/38 39/39/39
f 37/37/37 39/39/39 40/40/40
f 41/41/41 42/42/42 43/43/43
f 41/41/41 43/43/43 44/44/44
f 45/45/45 46/46/46 47/47/47
f 45/45/45 47/47/47 48/48/48
f 49/49/49 50/50/50 51/51/51
f 49/49/49 51/51/51 52/52/52
f 53/53/53 54/54/54 55/55/55
f 53/53/53 55/55/55 56/56/56
f 57/57/57 58/58/58 59/59/59
f 57/57/57 59/59/59 60/60/60
f 61/61/61 62/62/62 63/63/63
f 61/61/61 63/63/63 64/64/64
f 65/65/65 66/66/66 67/67/67
f 65/65/65 67/67/67 68/68/68
f 69/69/69 70/70/70 71/71/71
f 69/69/69 71/71/71 72/72/72
f 73/73/73 74/74/74 75/75/75
f 73/73/73 75/75/75 76/76/76
f 77/77/77 78/78/78 79/79/79
f 77/77/77 79/79/79 80/80/80
f 81/81/81 82/82/82 83/83/83
f 81/81/81 83/83/83 84/84/84
f 85/85/85 86/86/86 87/87/87
f 85/85/85 87/87/87 88/88/88
f 89/89/89 90/90/90 91/91/91
f 89/89/89 91/91/91 92/92/92
f 93/93/93 94/94/94 95/95/95
f 93/93/93 95/95/95 96/96/96
