# Exported using automatic converter by Erwin Coumans
mtllib model6.mtl
#object mesh758464962

v 0.439487 -1.003909 0.175255
v 0.419951 -1.001623 0.178878
v 0.415859 -1.006594 0.159942
v 0.435394 -1.008880 0.156320
v 0.417122 -0.987357 0.154619
v 0.421215 -0.982386 0.173554
v 0.440751 -0.984672 0.169932
v 0.436658 -0.989643 0.150997
v 0.415859 -1.006594 0.159942
v 0.417122 -0.987357 0.154619
v 0.436658 -0.989643 0.150997
v 0.435394 -1.008880 0.156320
v 0.440751 -0.984672 0.169932
v 0.421215 -0.982386 0.173554
v 0.419951 -1.001623 0.178878
v 0.439487 -1.003909 0.175255
v 0.436658 -0.989643 0.150997
v 0.440751 -0.984672 0.169932
v 0.439487 -1.003909 0.175255
v 0.435394 -1.008880 0.156320
v 0.419951 -1.001623 0.178878
v 0.421215 -0.982386 0.173554
v 0.417122 -0.987357 0.154619
v 0.415859 -1.006594 0.159942
usemtl mat13

vn -0.063191 -0.961857 0.266156
vn -0.063191 -0.961857 0.266156
vn -0.063191 -0.961857 0.266156
vn -0.063191 -0.961857 0.266156
vn 0.063191 0.961857 -0.266156
vn 0.063191 0.961857 -0.266156
vn 0.063191 0.961857 -0.266156
vn 0.063191 0.961857 -0.266156
vn -0.204625 -0.248535 -0.946762
vn -0.204625 -0.248535 -0.946762
vn -0.204625 -0.248535 -0.946762
vn -0.204625 -0.248535 -0.946762
vn 0.204625 0.248535 0.946762
vn 0.204625 0.248535 0.946762
vn 0.204625 0.248535 0.946762
vn 0.204625 0.248535 0.946762
vn 0.976799 -0.114288 -0.181114
vn 0.976799 -0.114288 -0.181114
vn 0.976799 -0.114288 -0.181114
vn 0.976799 -0.114288 -0.181114
vn -0.976799 0.114288 0.181114
vn -0.976799 0.114288 0.181114
vn -0.976799 0.114288 0.181114
vn -0.976799 0.114288 0.181114

vt 0.090636 -0.001390
vt 0.090617 -0.003390
vt 0.088617 -0.003371
vt 0.088636 -0.001371
vt -0.088617 -0.003371
vt -0.090617 -0.003390
vt -0.090636 -0.001390
vt -0.088636 -0.001371
vt 0.063604 -0.044329
vt 0.061926 -0.043239
vt 0.063016 -0.041562
vt 0.064693 -0.042651
vt -0.063016 -0.041562
vt -0.061926 -0.043239
vt -0.063604 -0.044329
vt -0.064693 -0.042651
vt 0.087545 -0.076759
vt 0.089545 -0.076788
vt 0.089516 -0.078787
vt 0.087516 -0.078758
vt -0.089516 -0.078787
vt -0.089545 -0.076788
vt -0.087545 -0.076759
vt -0.087516 -0.078758
s off
f 1/1/1 2/2/2 3/3/3
f 1/1/1 3/3/3 4/4/4
f 5/5/5 6/6/6 7/7/7
f 5/5/5 7/7/7 8/8/8
f 9/9/9 10/10/10 11/11/11
f 9/9/9 11/11/11 12/12/12
f 13/13/13 14/14/14 15/15/15
f 13/13/13 15/15/15 16/16/16
f 17/17/17 18/18/18 19/19/19
f 17/17/17 19/19/19 20/20/20
f 21/21/21 22/22/22 23/23/23
f 21/21/21 23/23/23 24/24/24
