# Exported using automatic converter by Erwin Coumans
mtllib model6.mtl
#object group2014645610_4

v -1.867059 -0.931513 2.297342
v -1.868040 -0.851529 2.296040
v -1.828043 -0.851035 2.296286
v -1.827063 -0.931018 2.297588
v -1.828234 -0.850549 2.326281
v -1.868230 -0.851043 2.326035
v -1.867249 -0.931027 2.327337
v -1.827253 -0.930532 2.327583
v -1.828043 -0.851035 2.296286
v -1.828234 -0.850549 2.326281
v -1.827253 -0.930532 2.327583
v -1.827063 -0.931018 2.297588
v -1.867249 -0.931027 2.327337
v -1.868230 -0.851043 2.326035
v -1.868040 -0.851529 2.296040
v -1.867059 -0.931513 2.297342
v -1.827253 -0.930532 2.327583
v -1.867249 -0.931027 2.327337
v -1.867059 -0.931513 2.297342
v -1.827063 -0.931018 2.297588
v -1.868040 -0.851529 2.296040
v -1.868230 -0.851043 2.326035
v -1.828234 -0.850549 2.326281
v -1.828043 -0.851035 2.296286
v -1.871350 -0.581585 2.291646
v -1.872330 -0.501602 2.290344
v -1.832334 -0.501108 2.290589
v -1.831353 -0.581091 2.291892
v -1.832525 -0.500621 2.320585
v -1.872521 -0.501116 2.320339
v -1.871540 -0.581099 2.321641
v -1.831544 -0.580605 2.321887
v -1.832334 -0.501108 2.290589
v -1.832525 -0.500621 2.320585
v -1.831544 -0.580605 2.321887
v -1.831353 -0.581091 2.291892
v -1.871540 -0.581099 2.321641
v -1.872521 -0.501116 2.320339
v -1.872330 -0.501602 2.290344
v -1.871350 -0.581585 2.291646
v -1.831544 -0.580605 2.321887
v -1.871540 -0.581099 2.321641
v -1.871350 -0.581585 2.291646
v -1.831353 -0.581091 2.291892
v -1.872330 -0.501602 2.290344
v -1.872521 -0.501116 2.320339
v -1.832525 -0.500621 2.320585
v -1.832334 -0.501108 2.290589
v -1.865396 -0.251530 2.286336
v -1.866377 -0.171547 2.285034
v -1.826380 -0.171052 2.285280
v -1.825400 -0.251036 2.286582
v -1.826571 -0.170566 2.315275
v -1.866567 -0.171061 2.315030
v -1.865586 -0.251044 2.316331
v -1.825590 -0.250550 2.316577
v -1.826380 -0.171052 2.285280
v -1.826571 -0.170566 2.315275
v -1.825590 -0.250550 2.316577
v -1.825400 -0.251036 2.286582
v -1.865586 -0.251044 2.316331
v -1.866567 -0.171061 2.315030
v -1.866377 -0.171547 2.285034
v -1.865396 -0.251530 2.286336
v -1.825590 -0.250550 2.316577
v -1.865586 -0.251044 2.316331
v -1.865396 -0.251530 2.286336
v -1.825400 -0.251036 2.286582
v -1.866377 -0.171547 2.285034
v -1.866567 -0.171061 2.315030
v -1.826571 -0.170566 2.315275
v -1.826380 -0.171052 2.285280
v -1.875273 -0.261652 2.286438
v -1.876253 -0.181668 2.285136
v -1.836257 -0.181174 2.285382
v -1.835276 -0.261157 2.286684
v -1.836447 -0.180688 2.315377
v -1.876444 -0.181182 2.315131
v -1.875463 -0.261166 2.316433
v -1.835467 -0.260671 2.316679
v -1.836257 -0.181174 2.285382
v -1.836447 -0.180688 2.315377
v -1.835467 -0.260671 2.316679
v -1.835276 -0.261157 2.286684
v -1.875463 -0.261166 2.316433
v -1.876444 -0.181182 2.315131
v -1.876253 -0.181668 2.285136
v -1.875273 -0.261652 2.286438
v -1.835467 -0.260671 2.316679
v -1.875463 -0.261166 2.316433
v -1.875273 -0.261652 2.286438
v -1.835276 -0.261157 2.286684
v -1.876253 -0.181668 2.285136
v -1.876444 -0.181182 2.315131
v -1.836447 -0.180688 2.315377
v -1.836257 -0.181174 2.285382
usemtl mat23

vn 0.006345 -0.016199 -0.999849
vn 0.006345 -0.016199 -0.999849
vn 0.006345 -0.016199 -0.999849
vn 0.006345 -0.016199 -0.999849
vn -0.006345 0.016199 0.999849
vn -0.006345 0.016199 0.999849
vn -0.006345 0.016199 0.999849
vn -0.006345 0.016199 0.999849
vn 0.999905 0.012360 0.006145
vn 0.999905 0.012360 0.006145
vn 0.999905 0.012360 0.006145
vn 0.999905 0.012360 0.006145
vn -0.999905 -0.012360 -0.006145
vn -0.999905 -0.012360 -0.006145
vn -0.999905 -0.012360 -0.006145
vn -0.999905 -0.012360 -0.006145
vn 0.012259 -0.999793 0.016276
vn 0.012259 -0.999793 0.016276
vn 0.012259 -0.999793 0.016276
vn 0.012259 -0.999793 0.016276
vn -0.012259 0.999793 -0.016276
vn -0.012259 0.999793 -0.016276
vn -0.012259 0.999793 -0.016276
vn -0.012259 0.999793 -0.016276
vn 0.006345 -0.016199 -0.999849
vn 0.006345 -0.016199 -0.999849
vn 0.006345 -0.016199 -0.999849
vn 0.006345 -0.016199 -0.999849
vn -0.006345 0.016199 0.999849
vn -0.006345 0.016199 0.999849
vn -0.006345 0.016199 0.999849
vn -0.006345 0.016199 0.999849
vn 0.999905 0.012360 0.006145
vn 0.999905 0.012360 0.006145
vn 0.999905 0.012360 0.006145
vn 0.999905 0.012360 0.006145
vn -0.999905 -0.012360 -0.006145
vn -0.999905 -0.012360 -0.006145
vn -0.999905 -0.012360 -0.006145
vn -0.999905 -0.012360 -0.006145
vn 0.012259 -0.999793 0.016276
vn 0.012259 -0.999793 0.016276
vn 0.012259 -0.999793 0.016276
vn 0.012259 -0.999793 0.016276
vn -0.012259 0.999793 -0.016276
vn -0.012259 0.999793 -0.016276
vn -0.012259 0.999793 -0.016276
vn -0.012259 0.999793 -0.016276
vn 0.006345 -0.016199 -0.999849
vn 0.006345 -0.016199 -0.999849
vn 0.006345 -0.016199 -0.999849
vn 0.006345 -0.016199 -0.999849
vn -0.006345 0.016199 0.999849
vn -0.006345 0.016199 0.999849
vn -0.006345 0.016199 0.999849
vn -0.006345 0.016199 0.999849
vn 0.999905 0.012360 0.006145
vn 0.999905 0.012360 0.006145
vn 0.999905 0.012360 0.006145
vn 0.999905 0.012360 0.006145
vn -0.999905 -0.012360 -0.006145
vn -0.999905 -0.012360 -0.006145
vn -0.999905 -0.012360 -0.006145
vn -0.999905 -0.012360 -0.006145
vn 0.012259 -0.999793 0.016276
vn 0.012259 -0.999793 0.016276
vn 0.012259 -0.999793 0.016276
vn 0.012259 -0.999793 0.016276
vn -0.012259 0.999793 -0.016276
vn -0.012259 0.999793 -0.016276
vn -0.012259 0.999793 -0.016276
vn -0.012259 0.999793 -0.016276
vn 0.006345 -0.016199 -0.999849
vn 0.006345 -0.016199 -0.999849
vn 0.006345 -0.016199 -0.999849
vn 0.006345 -0.016199 -0.999849
vn -0.006345 0.016199 0.999849
vn -0.006345 0.016199 0.999849
vn -0.006345 0.016199 0.999849
vn -0.006345 0.016199 0.999849
vn 0.999905 0.012360 0.006145
vn 0.999905 0.012360 0.006145
vn 0.999905 0.012360 0.006145
vn 0.999905 0.012360 0.006145
vn -0.999905 -0.012360 -0.006145
vn -0.999905 -0.012360 -0.006145
vn -0.999905 -0.012360 -0.006145
vn -0.999905 -0.012360 -0.006145
vn 0.012259 -0.999793 0.016276
vn 0.012259 -0.999793 0.016276
vn 0.012259 -0.999793 0.016276
vn 0.012259 -0.999793 0.016276
vn -0.012259 0.999793 -0.016276
vn -0.012259 0.999793 -0.016276
vn -0.012259 0.999793 -0.016276
vn -0.012259 0.999793 -0.016276

vt -0.052959 -0.214767
vt -0.060138 -0.211238
vt -0.058374 -0.207648
vt -0.051194 -0.211177
vt 0.058374 -0.207648
vt 0.060138 -0.211238
vt 0.052959 -0.214767
vt 0.051194 -0.211177
vt 0.236243 -0.218440
vt 0.238677 -0.220193
vt 0.234002 -0.226685
vt 0.231568 -0.224932
vt -0.234002 -0.226685
vt -0.238677 -0.220193
vt -0.236243 -0.218440
vt -0.231568 -0.224932
vt 0.233110 -0.307508
vt 0.231775 -0.311279
vt 0.228947 -0.310278
vt 0.230282 -0.306507
vt -0.228947 -0.310278
vt -0.231775 -0.311279
vt -0.233110 -0.307508
vt -0.230282 -0.306507
vt -0.084369 -0.199327
vt -0.091549 -0.195798
vt -0.089784 -0.192208
vt -0.082605 -0.195737
vt 0.089784 -0.192208
vt 0.091549 -0.195798
vt 0.084369 -0.199327
vt 0.082605 -0.195737
vt 0.256695 -0.190037
vt 0.259130 -0.191790
vt 0.254455 -0.198282
vt 0.252020 -0.196529
vt -0.254455 -0.198282
vt -0.259130 -0.191790
vt -0.256695 -0.190037
vt -0.252020 -0.196529
vt 0.233110 -0.307508
vt 0.231775 -0.311279
vt 0.228947 -0.310278
vt 0.230282 -0.306507
vt -0.228947 -0.310278
vt -0.231775 -0.311279
vt -0.233110 -0.307508
vt -0.230282 -0.306507
vt -0.113544 -0.183873
vt -0.120723 -0.180344
vt -0.118959 -0.176754
vt -0.111779 -0.180283
vt 0.118959 -0.176754
vt 0.120723 -0.180344
vt 0.113544 -0.183873
vt 0.111779 -0.180283
vt 0.275979 -0.163258
vt 0.278414 -0.165011
vt 0.273739 -0.171503
vt 0.271304 -0.169750
vt -0.273739 -0.171503
vt -0.278414 -0.165011
vt -0.275979 -0.163258
vt -0.271304 -0.169750
vt 0.233443 -0.306566
vt 0.232109 -0.310337
vt 0.229281 -0.309336
vt 0.230615 -0.305565
vt -0.229281 -0.309336
vt -0.232109 -0.310337
vt -0.233443 -0.306566
vt -0.230615 -0.305565
vt -0.113088 -0.185211
vt -0.120267 -0.181682
vt -0.118503 -0.178092
vt -0.111323 -0.181621
vt 0.118503 -0.178092
vt 0.120267 -0.181682
vt 0.113088 -0.185211
vt 0.111323 -0.181621
vt 0.275395 -0.164069
vt 0.277829 -0.165823
vt 0.273154 -0.172314
vt 0.270720 -0.170561
vt -0.273154 -0.172314
vt -0.277829 -0.165823
vt -0.275395 -0.164070
vt -0.270720 -0.170561
vt 0.233110 -0.307508
vt 0.231775 -0.311279
vt 0.228947 -0.310278
vt 0.230282 -0.306507
vt -0.228947 -0.310278
vt -0.231775 -0.311279
vt -0.233110 -0.307508
vt -0.230282 -0.306507
s off
f 1/1/1 2/2/2 3/3/3
f 1/1/1 3/3/3 4/4/4
f 5/5/5 6/6/6 7/7/7
f 5/5/5 7/7/7 8/8/8
f 9/9/9 10/10/10 11/11/11
f 9/9/9 11/11/11 12/12/12
f 13/13/13 14/14/14 15/15/15
f 13/13/13 15/15/15 16/16/16
f 17/17/17 18/18/18 19/19/19
f 17/17/17 19/19/19 20/20/20
f 21/21/21 22/22/22 23/23/23
f 21/21/21 23/23/23 24/24/24
f 25/25/25 26/26/26 27/27/27
f 25/25/25 27/27/27 28/28/28
f 29/29/29 30/30/30 31/31/31
f 29/29/29 31/31/31 32/32/32
f 33/33/33 34/34/34 35/35/35
f 33/33/33 35/35/35 36/36/36
f 37/37/37 38/38/38 39/39/39
f 37/37/37 39/39/39 40/40/40
f 41/41/41 42/42/42 43/43/43
f 41/41/41 43/43/43 44/44/44
f 45/45/45 46/46/46 47/47/47
f 45/45/45 47/47/47 48/48/48
f 49/49/49 50/50/50 51/51/51
f 49/49/49 51/51/51 52/52/52
f 53/53/53 54/54/54 55/55/55
f 53/53/53 55/55/55 56/56/56
f 57/57/57 58/58/58 59/59/59
f 57/57/57 59/59/59 60/60/60
f 61/61/61 62/62/62 63/63/63
f 61/61/61 63/63/63 64/64/64
f 65/65/65 66/66/66 67/67/67
f 65/65/65 67/67/67 68/68/68
f 69/69/69 70/70/70 71/71/71
f 69/69/69 71/71/71 72/72/72
f 73/73/73 74/74/74 75/75/75
f 73/73/73 75/75/75 76/76/76
f 77/77/77 78/78/78 79/79/79
f 77/77/77 79/79/79 80/80/80
f 81/81/81 82/82/82 83/83/83
f 81/81/81 83/83/83 84/84/84
f 85/85/85 86/86/86 87/87/87
f 85/85/85 87/87/87 88/88/88
f 89/89/89 90/90/90 91/91/91
f 89/89/89 91/91/91 92/92/92
f 93/93/93 94/94/94 95/95/95
f 93/93/93 95/95/95 96/96/96
