# Exported using automatic converter by Erwin Coumans
mtllib model6.mtl
#object mesh1001393219

v 2.008238 2.465489 -0.330148
v 1.978238 2.465489 -0.330148
v 1.978238 2.365489 -0.330148
v 2.008238 2.365489 -0.330148
v 1.978238 2.365489 -0.360148
v 1.978238 2.465489 -0.360148
v 2.008238 2.465489 -0.360148
v 2.008238 2.365489 -0.360148
v 1.978238 2.365489 -0.330148
v 1.978238 2.365489 -0.360148
v 2.008238 2.365489 -0.360148
v 2.008238 2.365489 -0.330148
v 2.008238 2.465489 -0.360148
v 1.978238 2.465489 -0.360148
v 1.978238 2.465489 -0.330148
v 2.008238 2.465489 -0.330148
v 2.008238 2.365489 -0.360148
v 2.008238 2.465489 -0.360148
v 2.008238 2.465489 -0.330148
v 2.008238 2.365489 -0.330148
v 1.978238 2.465489 -0.330148
v 1.978238 2.465489 -0.360148
v 1.978238 2.365489 -0.360148
v 1.978238 2.365489 -0.330148
usemtl mat21

vn -0.000000 -0.000000 1.000000
vn -0.000000 -0.000000 1.000000
vn -0.000000 -0.000000 1.000000
vn -0.000000 -0.000000 1.000000
vn 0.000000 0.000000 -1.000000
vn 0.000000 0.000000 -1.000000
vn 0.000000 0.000000 -1.000000
vn 0.000000 0.000000 -1.000000
vn 0.000000 -1.000000 -0.000000
vn 0.000000 -1.000000 -0.000000
vn 0.000000 -1.000000 -0.000000
vn 0.000000 -1.000000 -0.000000
vn -0.000000 1.000000 0.000000
vn -0.000000 1.000000 0.000000
vn -0.000000 1.000000 0.000000
vn -0.000000 1.000000 0.000000
vn 1.000000 0.000000 0.000000
vn 1.000000 0.000000 0.000000
vn 1.000000 0.000000 0.000000
vn 1.000000 0.000000 0.000000
vn -1.000000 -0.000000 -0.000000
vn -1.000000 -0.000000 -0.000000
vn -1.000000 -0.000000 -0.000000
vn -1.000000 -0.000000 -0.000000

vt 0.187830 0.283981
vt 0.189171 0.281297
vt 0.180227 0.276825
vt 0.178885 0.279509
vt -0.180227 0.276825
vt -0.189171 0.281297
vt -0.187830 0.283981
vt -0.178885 0.279509
vt 0.108906 0.138436
vt 0.106081 0.139445
vt 0.107089 0.142270
vt 0.109915 0.141261
vt -0.107089 0.142270
vt -0.106081 0.139445
vt -0.108906 0.138436
vt -0.109915 0.141261
vt 0.208781 0.201108
vt 0.214593 0.209246
vt 0.217034 0.207502
vt 0.211222 0.199365
vt -0.217034 0.207502
vt -0.214593 0.209246
vt -0.208781 0.201108
vt -0.211222 0.199365
s off
f 1/1/1 2/2/2 3/3/3
f 1/1/1 3/3/3 4/4/4
f 5/5/5 6/6/6 7/7/7
f 5/5/5 7/7/7 8/8/8
f 9/9/9 10/10/10 11/11/11
f 9/9/9 11/11/11 12/12/12
f 13/13/13 14/14/14 15/15/15
f 13/13/13 15/15/15 16/16/16
f 17/17/17 18/18/18 19/19/19
f 17/17/17 19/19/19 20/20/20
f 21/21/21 22/22/22 23/23/23
f 21/21/21 23/23/23 24/24/24
