# Exported using automatic converter by Erwin Coumans
mtllib model6.mtl
#object mesh1222672252

v 3.134369 -0.670099 -1.083960
v 2.276630 -0.677066 -1.079316
v 2.276825 -0.701226 -1.079629
v 3.134563 -0.694259 -1.084273
v 2.274758 -0.696393 -1.454116
v 2.274563 -0.672233 -1.453803
v 3.132302 -0.665267 -1.458447
v 3.132496 -0.689426 -1.458760
v 2.276825 -0.701226 -1.079629
v 2.274758 -0.696393 -1.454116
v 3.132496 -0.689426 -1.458760
v 3.134563 -0.694259 -1.084273
v 3.132302 -0.665267 -1.458447
v 2.274563 -0.672233 -1.453803
v 2.276630 -0.677066 -1.079316
v 3.134369 -0.670099 -1.083960
v 3.132496 -0.689426 -1.458760
v 3.132302 -0.665267 -1.458447
v 3.134369 -0.670099 -1.083960
v 3.134563 -0.694259 -1.084273
v 2.276630 -0.677066 -1.079316
v 2.274563 -0.672233 -1.453803
v 2.274758 -0.696393 -1.454116
v 2.276825 -0.701226 -1.079629
usemtl mat18

vn 0.005519 -0.012903 0.999901
vn 0.005519 -0.012903 0.999901
vn 0.005519 -0.012903 0.999901
vn 0.005519 -0.012903 0.999901
vn -0.005519 0.012903 -0.999901
vn -0.005519 0.012903 -0.999901
vn -0.005519 0.012903 -0.999901
vn -0.005519 0.012903 -0.999901
vn 0.008051 -0.999884 -0.012947
vn 0.008051 -0.999884 -0.012947
vn 0.008051 -0.999884 -0.012947
vn 0.008051 -0.999884 -0.012947
vn -0.008051 0.999884 0.012947
vn -0.008051 0.999884 0.012947
vn -0.008051 0.999884 0.012947
vn -0.008051 0.999884 0.012947
vn 0.999952 0.008122 -0.005414
vn 0.999952 0.008122 -0.005414
vn 0.999952 0.008122 -0.005414
vn 0.999952 0.008122 -0.005414
vn -0.999952 -0.008122 0.005414
vn -0.999952 -0.008122 0.005414
vn -0.999952 -0.008122 0.005414
vn -0.999952 -0.008122 0.005414

vt -0.142150 0.245101
vt -0.104756 0.167903
vt -0.106931 0.166850
vt -0.144324 0.244048
vt 0.106931 0.166850
vt 0.104756 0.167903
vt 0.142150 0.245101
vt 0.144324 0.244048
vt 0.049420 0.191279
vt 0.014136 0.203837
vt 0.042899 0.284649
vt 0.078183 0.272090
vt -0.042899 0.284649
vt -0.014136 0.203837
vt -0.049420 0.191279
vt -0.078183 0.272090
vt -0.058262 0.013650
vt -0.056831 0.015597
vt -0.026651 -0.006580
vt -0.028081 -0.008527
vt 0.026651 -0.006580
vt 0.056831 0.015597
vt 0.058262 0.013650
vt 0.028081 -0.008527
s off
f 1/1/1 2/2/2 3/3/3
f 1/1/1 3/3/3 4/4/4
f 5/5/5 6/6/6 7/7/7
f 5/5/5 7/7/7 8/8/8
f 9/9/9 10/10/10 11/11/11
f 9/9/9 11/11/11 12/12/12
f 13/13/13 14/14/14 15/15/15
f 13/13/13 15/15/15 16/16/16
f 17/17/17 18/18/18 19/19/19
f 17/17/17 19/19/19 20/20/20
f 21/21/21 22/22/22 23/23/23
f 21/21/21 23/23/23 24/24/24
