# Exported using automatic converter by Erwin Coumans
mtllib model6.mtl
#object group1604366400_1

v 3.045478 -1.003402 -0.207485
v 3.017277 -1.003028 -0.243972
v 3.018107 -0.952126 -0.244092
v 3.046308 -0.952500 -0.207605
v 3.018730 -0.913949 -0.244182
v 3.046931 -0.914323 -0.207695
v 3.046308 -0.952500 -0.207605
v 3.018107 -0.952126 -0.244092
v 3.019976 -0.837596 -0.244362
v 3.048177 -0.837970 -0.207875
v 3.046931 -0.914323 -0.207695
v 3.018730 -0.913949 -0.244182
v 3.021428 -0.748517 -0.244571
v 3.049629 -0.748891 -0.208084
v 3.048177 -0.837970 -0.207875
v 3.019976 -0.837596 -0.244362
v 2.956143 -0.747078 -0.085331
v 2.913479 -0.746423 -0.102828
v 2.912026 -0.835502 -0.102618
v 2.954690 -0.836157 -0.085121
v 3.021843 -0.723066 -0.244631
v 3.050045 -0.723440 -0.208144
v 3.049629 -0.748891 -0.208084
v 3.021428 -0.748517 -0.244571
usemtl mat21

vn 0.791067 -0.014340 -0.611561
vn 0.791067 -0.014340 -0.611561
vn 0.791067 -0.014340 -0.611561
vn 0.791067 -0.014340 -0.611561
vn 0.791067 -0.014350 -0.611561
vn 0.791067 -0.014350 -0.611561
vn 0.791067 -0.014350 -0.611561
vn 0.791067 -0.014350 -0.611561
vn 0.791067 -0.014344 -0.611561
vn 0.791067 -0.014344 -0.611561
vn 0.791067 -0.014344 -0.611561
vn 0.791067 -0.014344 -0.611561
vn 0.791067 -0.014340 -0.611561
vn 0.791067 -0.014340 -0.611561
vn 0.791067 -0.014340 -0.611561
vn 0.791067 -0.014340 -0.611561
vn -0.379322 0.008368 0.925227
vn -0.379322 0.008368 0.925227
vn -0.379322 0.008368 0.925227
vn -0.379322 0.008368 0.925227
vn 0.791067 -0.014350 -0.611561
vn 0.791067 -0.014350 -0.611561
vn 0.791067 -0.014350 -0.611561
vn 0.791067 -0.014350 -0.611561

vt 0.213134 0.077724
vt 0.209229 0.075270
vt 0.206521 0.079581
vt 0.210426 0.082034
vt 0.204489 0.082813
vt 0.208394 0.085267
vt 0.210425 0.082034
vt 0.206521 0.079580
vt 0.200427 0.089280
vt 0.204332 0.091733
vt 0.208394 0.085267
vt 0.204489 0.082814
vt 0.195687 0.096823
vt 0.199592 0.099277
vt 0.204332 0.091733
vt 0.200427 0.089280
vt -0.170547 0.217964
vt -0.168004 0.214116
vt -0.175437 0.209205
vt -0.177980 0.213052
vt 0.194333 0.098978
vt 0.198238 0.101432
vt 0.199592 0.099276
vt 0.195687 0.096823
s off
f 1/1/1 2/2/2 3/3/3
f 1/1/1 3/3/3 4/4/4
f 5/5/5 6/6/6 7/7/7
f 5/5/5 7/7/7 8/8/8
f 9/9/9 10/10/10 11/11/11
f 9/9/9 11/11/11 12/12/12
f 13/13/13 14/14/14 15/15/15
f 13/13/13 15/15/15 16/16/16
f 17/17/17 18/18/18 19/19/19
f 17/17/17 19/19/19 20/20/20
f 21/21/21 22/22/22 23/23/23
f 21/21/21 23/23/23 24/24/24
