# Exported using automatic converter by Erwin Coumans
mtllib botlab.mtl
#object mesh1436331869

v -1.551762 -0.014511 2.349852
v -1.550422 -0.014511 2.354852
v -1.550423 0.005489 2.354852
v -1.551762 0.005489 2.349852
v -1.550422 -0.014511 2.354852
v -1.546762 -0.014511 2.358512
v -1.546762 0.005489 2.358512
v -1.550423 0.005489 2.354852
v -1.546762 -0.014511 2.358512
v -1.541762 -0.014511 2.359852
v -1.541762 0.005489 2.359852
v -1.546762 0.005489 2.358512
v -1.541762 -0.014511 2.359852
v -1.536762 -0.014511 2.358512
v -1.536762 0.005489 2.358512
v -1.541762 0.005489 2.359852
v -1.536762 -0.014511 2.358512
v -1.533102 -0.014511 2.354852
v -1.533102 0.005489 2.354852
v -1.536762 0.005489 2.358512
v -1.533102 -0.014511 2.354852
v -1.531762 -0.014511 2.349852
v -1.531762 0.005489 2.349852
v -1.533102 0.005489 2.354852
v -1.531762 -0.014511 2.349852
v -1.533102 -0.014511 2.344851
v -1.533102 0.005489 2.344851
v -1.531762 0.005489 2.349852
v -1.533102 -0.014511 2.344851
v -1.536762 -0.014511 2.341191
v -1.536762 0.005489 2.341191
v -1.533102 0.005489 2.344851
v -1.536762 -0.014511 2.341191
v -1.541762 -0.014511 2.339852
v -1.541762 0.005489 2.339852
v -1.536762 0.005489 2.341191
v -1.541762 -0.014511 2.339852
v -1.546762 -0.014511 2.341191
v -1.546762 0.005489 2.341191
v -1.541762 0.005489 2.339852
v -1.546762 -0.014511 2.341191
v -1.550422 -0.014511 2.344851
v -1.550423 0.005489 2.344851
v -1.546762 0.005489 2.341191
v -1.550422 -0.014511 2.344851
v -1.551762 -0.014511 2.349852
v -1.551762 0.005489 2.349852
v -1.550423 0.005489 2.344851
v -1.551762 0.005489 2.349852
v -1.550423 0.005489 2.354852
v -1.546762 0.005489 2.358512
v -1.541762 0.005489 2.359852
v -1.536762 0.005489 2.358512
v -1.533102 0.005489 2.354852
v -1.531762 0.005489 2.349852
v -1.533102 0.005489 2.344851
v -1.536762 0.005489 2.341191
v -1.541762 0.005489 2.339852
v -1.546762 0.005489 2.341191
v -1.550423 0.005489 2.344851
v -1.550422 -0.014511 2.344851
v -1.546762 -0.014511 2.341191
v -1.541762 -0.014511 2.339852
v -1.536762 -0.014511 2.341191
v -1.533102 -0.014511 2.344851
v -1.531762 -0.014511 2.349852
v -1.533102 -0.014511 2.354852
v -1.536762 -0.014511 2.358512
v -1.541762 -0.014511 2.359852
v -1.546762 -0.014511 2.358512
v -1.550422 -0.014511 2.354852
v -1.551762 -0.014511 2.349852
usemtl mat21

vn -1.000000 -0.000000 -0.000000
vn -1.000000 -0.000000 -0.000000
vn -1.000000 -0.000000 -0.000000
vn -1.000000 -0.000000 -0.000000
vn -0.866025 -0.000000 0.500000
vn -0.866025 -0.000000 0.500000
vn -0.866025 -0.000000 0.500000
vn -0.866025 -0.000000 0.500000
vn -0.500000 -0.000000 0.866025
vn -0.500000 -0.000000 0.866025
vn -0.500000 -0.000000 0.866025
vn -0.500000 -0.000000 0.866025
vn -0.000000 0.000000 1.000000
vn -0.000000 0.000000 1.000000
vn -0.000000 0.000000 1.000000
vn -0.000000 0.000000 1.000000
vn 0.500000 0.000000 0.866025
vn 0.500000 0.000000 0.866025
vn 0.500000 0.000000 0.866025
vn 0.500000 0.000000 0.866025
vn 0.866025 0.000000 0.500000
vn 0.866025 0.000000 0.500000
vn 0.866025 0.000000 0.500000
vn 0.866025 0.000000 0.500000
vn 1.000000 0.000000 0.000000
vn 1.000000 0.000000 0.000000
vn 1.000000 0.000000 0.000000
vn 1.000000 0.000000 0.000000
vn 0.866025 0.000000 -0.500000
vn 0.866025 0.000000 -0.500000
vn 0.866025 0.000000 -0.500000
vn 0.866025 0.000000 -0.500000
vn 0.500000 0.000000 -0.866025
vn 0.500000 0.000000 -0.866025
vn 0.500000 0.000000 -0.866025
vn 0.500000 0.000000 -0.866025
vn 0.000000 -0.000000 -1.000000
vn 0.000000 -0.000000 -1.000000
vn 0.000000 -0.000000 -1.000000
vn 0.000000 -0.000000 -1.000000
vn -0.500000 -0.000000 -0.866026
vn -0.500000 -0.000000 -0.866026
vn -0.500000 -0.000000 -0.866026
vn -0.500000 -0.000000 -0.866026
vn -0.866026 -0.000000 -0.500000
vn -0.866026 -0.000000 -0.500000
vn -0.866026 -0.000000 -0.500000
vn -0.866026 -0.000000 -0.500000
vn -0.000000 1.000000 0.000000
vn -0.000000 1.000000 0.000000
vn -0.000000 1.000000 0.000000
vn -0.000000 1.000000 0.000000
vn -0.000000 1.000000 0.000000
vn -0.000000 1.000000 0.000000
vn -0.000000 1.000000 0.000000
vn -0.000000 1.000000 0.000000
vn -0.000000 1.000000 0.000000
vn -0.000000 1.000000 0.000000
vn -0.000000 1.000000 0.000000
vn -0.000000 1.000000 0.000000
vn 0.000000 -1.000000 0.000000
vn 0.000000 -1.000000 0.000000
vn 0.000000 -1.000000 0.000000
vn 0.000000 -1.000000 0.000000
vn 0.000000 -1.000000 0.000000
vn 0.000000 -1.000000 0.000000
vn 0.000000 -1.000000 0.000000
vn 0.000000 -1.000000 0.000000
vn 0.000000 -1.000000 0.000000
vn 0.000000 -1.000000 0.000000
vn 0.000000 -1.000000 0.000000
vn 0.000000 -1.000000 0.000000

vt -0.290968 -0.150076
vt -0.291375 -0.150366
vt -0.292537 -0.148739
vt -0.292130 -0.148448
vt -0.158994 0.110945
vt -0.159461 0.111123
vt -0.158748 0.112991
vt -0.158281 0.112813
vt 0.036960 0.029089
vt 0.036666 0.029493
vt 0.038283 0.030670
vt 0.038577 0.030266
vt 0.124773 -0.144450
vt 0.124549 -0.144003
vt 0.126338 -0.143108
vt 0.126561 -0.143556
vt 0.181508 -0.270344
vt 0.181292 -0.269893
vt 0.183096 -0.269030
vt 0.183312 -0.269481
vt 0.236082 -0.292698
vt 0.235819 -0.292273
vt 0.237521 -0.291222
vt 0.237783 -0.291647
vt 0.290968 -0.150076
vt 0.290561 -0.149785
vt 0.291723 -0.148158
vt 0.292130 -0.148448
vt 0.158994 0.110945
vt 0.158526 0.110766
vt 0.157814 0.112635
vt 0.158281 0.112813
vt -0.036960 0.029089
vt -0.037254 0.028685
vt -0.038871 0.029861
vt -0.038577 0.030265
vt -0.124773 -0.144450
vt -0.124996 -0.144897
vt -0.126785 -0.144003
vt -0.126561 -0.143556
vt -0.181508 -0.270344
vt -0.181724 -0.270795
vt -0.183528 -0.269932
vt -0.183312 -0.269481
vt -0.236082 -0.292698
vt -0.236345 -0.293124
vt -0.238046 -0.292072
vt -0.237783 -0.291647
vt -0.242566 -0.284137
vt -0.243082 -0.284179
vt -0.243550 -0.283957
vt -0.243844 -0.283532
vt -0.243886 -0.283016
vt -0.243664 -0.282548
vt -0.243238 -0.282254
vt -0.242723 -0.282212
vt -0.242255 -0.282433
vt -0.241960 -0.282859
vt -0.241918 -0.283375
vt -0.242140 -0.283843
vt 0.242140 -0.283843
vt 0.241918 -0.283375
vt 0.241960 -0.282859
vt 0.242255 -0.282433
vt 0.242723 -0.282212
vt 0.243238 -0.282254
vt 0.243664 -0.282548
vt 0.243886 -0.283016
vt 0.243844 -0.283532
vt 0.243550 -0.283957
vt 0.243082 -0.284179
vt 0.242566 -0.284137
s off
f 1/1/1 2/2/2 3/3/3
f 1/1/1 3/3/3 4/4/4
f 5/5/5 6/6/6 7/7/7
f 5/5/5 7/7/7 8/8/8
f 9/9/9 10/10/10 11/11/11
f 9/9/9 11/11/11 12/12/12
f 13/13/13 14/14/14 15/15/15
f 13/13/13 15/15/15 16/16/16
f 17/17/17 18/18/18 19/19/19
f 17/17/17 19/19/19 20/20/20
f 21/21/21 22/22/22 23/23/23
f 21/21/21 23/23/23 24/24/24
f 25/25/25 26/26/26 27/27/27
f 25/25/25 27/27/27 28/28/28
f 29/29/29 30/30/30 31/31/31
f 29/29/29 31/31/31 32/32/32
f 33/33/33 34/34/34 35/35/35
f 33/33/33 35/35/35 36/36/36
f 37/37/37 38/38/38 39/39/39
f 37/37/37 39/39/39 40/40/40
f 41/41/41 42/42/42 43/43/43
f 41/41/41 43/43/43 44/44/44
f 45/45/45 46/46/46 47/47/47
f 45/45/45 47/47/47 48/48/48
f 49/49/49 50/50/50 51/51/51
f 49/49/49 51/51/51 52/52/52
f 49/49/49 52/52/52 53/53/53
f 49/49/49 53/53/53 54/54/54
f 49/49/49 54/54/54 55/55/55
f 49/49/49 55/55/55 56/56/56
f 49/49/49 56/56/56 57/57/57
f 49/49/49 57/57/57 58/58/58
f 49/49/49 58/58/58 59/59/59
f 49/49/49 59/59/59 60/60/60
f 61/61/61 62/62/62 63/63/63
f 61/61/61 63/63/63 64/64/64
f 61/61/61 64/64/64 65/65/65
f 61/61/61 65/65/65 66/66/66
f 61/61/61 66/66/66 67/67/67
f 61/61/61 67/67/67 68/68/68
f 61/61/61 68/68/68 69/69/69
f 61/61/61 69/69/69 70/70/70
f 61/61/61 70/70/70 71/71/71
f 61/61/61 71/71/71 72/72/72
