# Exported using automatic converter by Erwin Coumans
mtllib model6.mtl
#object mesh218367474

v 2.345597 0.550556 -3.122515
v 2.353843 0.556157 -3.053228
v 1.829375 0.549783 -2.990294
v 1.821129 0.544181 -3.059581
v 1.827872 0.619553 -2.995756
v 2.352340 0.625928 -3.058691
v 2.344094 0.620326 -3.127977
v 1.819626 0.613951 -3.065042
v 1.829375 0.549783 -2.990294
v 1.827872 0.619553 -2.995756
v 1.819626 0.613951 -3.065042
v 1.821129 0.544181 -3.059581
v 2.344094 0.620326 -3.127977
v 2.352340 0.625928 -3.058691
v 2.353843 0.556157 -3.053228
v 2.345597 0.550556 -3.122515
v 1.819626 0.613951 -3.065042
v 2.344094 0.620326 -3.127977
v 2.345597 0.550556 -3.122515
v 1.821129 0.544181 -3.059581
v 2.353843 0.556157 -3.053228
v 2.352340 0.625928 -3.058691
v 1.827872 0.619553 -2.995756
v 1.829375 0.549783 -2.990294
usemtl mat15

vn 0.021477 -0.996720 0.078027
vn 0.021477 -0.996720 0.078027
vn 0.021477 -0.996720 0.078027
vn 0.021477 -0.996720 0.078027
vn -0.021477 0.996720 -0.078027
vn -0.021477 0.996720 -0.078027
vn -0.021477 0.996720 -0.078027
vn -0.021477 0.996720 -0.078027
vn -0.992805 -0.012067 0.119134
vn -0.992805 -0.012067 0.119134
vn -0.992805 -0.012067 0.119134
vn -0.992805 -0.012067 0.119134
vn 0.992805 0.012067 -0.119134
vn 0.992805 0.012067 -0.119134
vn 0.992805 0.012067 -0.119134
vn 0.992805 0.012067 -0.119134
vn -0.117801 -0.080025 -0.989807
vn -0.117801 -0.080025 -0.989807
vn -0.117801 -0.080025 -0.989807
vn -0.117801 -0.080025 -0.989807
vn 0.117801 0.080025 0.989807
vn 0.117801 0.080025 0.989807
vn 0.117801 0.080025 0.989807
vn 0.117801 0.080025 0.989807

vt -0.142935 0.261001
vt -0.136055 0.259708
vt -0.145811 0.207790
vt -0.152691 0.209083
vt 0.145811 0.207790
vt 0.136055 0.259708
vt 0.142935 0.261001
vt 0.152691 0.209083
vt 0.127385 0.174025
vt 0.124855 0.180551
vt 0.131382 0.183082
vt 0.133912 0.176555
vt -0.131382 0.183082
vt -0.124855 0.180551
vt -0.127385 0.174025
vt -0.133912 0.176555
vt -0.033548 0.213274
vt -0.010507 0.260812
vt -0.004208 0.257759
vt -0.027249 0.210221
vt 0.004208 0.257759
vt 0.010507 0.260812
vt 0.033548 0.213274
vt 0.027249 0.210221
s off
f 1/1/1 2/2/2 3/3/3
f 1/1/1 3/3/3 4/4/4
f 5/5/5 6/6/6 7/7/7
f 5/5/5 7/7/7 8/8/8
f 9/9/9 10/10/10 11/11/11
f 9/9/9 11/11/11 12/12/12
f 13/13/13 14/14/14 15/15/15
f 13/13/13 15/15/15 16/16/16
f 17/17/17 18/18/18 19/19/19
f 17/17/17 19/19/19 20/20/20
f 21/21/21 22/22/22 23/23/23
f 21/21/21 23/23/23 24/24/24
