# Exported using automatic converter by Erwin Coumans
mtllib model6.mtl
#object mesh1487006333

v 1.677094 -0.679882 -2.200721
v 1.561910 -0.681194 -2.202097
v 1.562591 -0.680616 -2.259689
v 1.677775 -0.679304 -2.258313
v 1.674763 -0.501642 -3.091862
v 1.684990 -0.484169 -3.048360
v 1.687145 -0.671346 -3.050215
v 1.562591 -0.680616 -2.259689
v 1.571961 -0.672659 -3.051591
v 1.687145 -0.671346 -3.050215
v 1.677775 -0.679304 -2.258313
v 1.684990 -0.484169 -3.048360
v 1.569806 -0.485481 -3.049736
v 1.560436 -0.493438 -2.257834
v 1.675620 -0.492126 -2.256458
v 1.687145 -0.671346 -3.050215
v 1.684990 -0.484169 -3.048360
v 1.675620 -0.492126 -2.256458
v 1.677775 -0.679304 -2.258313
v 1.560436 -0.493438 -2.257834
v 1.569806 -0.485481 -3.049736
v 1.571961 -0.672659 -3.051591
v 1.562591 -0.680616 -2.259689
v 1.561910 -0.681194 -2.202097
v 1.559755 -0.494016 -2.200242
v 1.560436 -0.493438 -2.257834
v 1.562591 -0.680616 -2.259689
v 1.559755 -0.494016 -2.200242
v 1.674939 -0.492704 -2.198865
v 1.675620 -0.492126 -2.256458
v 1.560436 -0.493438 -2.257834
v 1.674939 -0.492704 -2.198865
v 1.677094 -0.679882 -2.200721
v 1.677775 -0.679304 -2.258313
v 1.675620 -0.492126 -2.256458
v 1.676583 -0.680316 -2.157526
v 1.561399 -0.681628 -2.158902
v 1.561910 -0.681194 -2.202097
v 1.677094 -0.679882 -2.200721
v 1.561399 -0.681628 -2.158902
v 1.559244 -0.494450 -2.157047
v 1.559755 -0.494016 -2.200242
v 1.561910 -0.681194 -2.202097
v 1.559244 -0.494450 -2.157047
v 1.674428 -0.493138 -2.155671
v 1.674939 -0.492704 -2.198865
v 1.559755 -0.494016 -2.200242
v 1.674428 -0.493138 -2.155671
v 1.676583 -0.680316 -2.157526
v 1.677094 -0.679882 -2.200721
v 1.674939 -0.492704 -2.198865
v 1.576535 -0.685318 -2.115555
v 1.561399 -0.681628 -2.158902
v 1.676583 -0.680316 -2.157526
v 1.576535 -0.685318 -2.115555
v 1.574632 -0.520069 -2.113917
v 1.559244 -0.494450 -2.157047
v 1.561399 -0.681628 -2.158902
v 1.574632 -0.520069 -2.113917
v 1.674428 -0.493138 -2.155671
v 1.559244 -0.494450 -2.157047
v 1.644374 -0.519132 -2.127485
v 1.646276 -0.684381 -2.129122
v 1.676583 -0.680316 -2.157526
v 1.674428 -0.493138 -2.155671
v 1.644374 -0.519132 -2.127485
v 1.574632 -0.520069 -2.113917
v 1.576535 -0.685318 -2.115555
v 1.646276 -0.684381 -2.129122
v 1.674763 -0.501642 -3.091862
v 1.581465 -0.502705 -3.092976
v 1.569806 -0.485481 -3.049736
v 1.684990 -0.484169 -3.048360
v 1.581465 -0.502705 -3.092976
v 1.571961 -0.672659 -3.051591
v 1.569806 -0.485481 -3.049736
v 1.555262 -0.668466 -3.152559
v 1.648560 -0.667403 -3.151444
v 1.687145 -0.671346 -3.050215
v 1.571961 -0.672659 -3.051591
v 1.555262 -0.668466 -3.152559
v 1.581465 -0.502705 -3.092976
v 1.674763 -0.501642 -3.091862
v 1.648560 -0.667403 -3.151444
v 1.676583 -0.680316 -2.157526
v 1.646276 -0.684381 -2.129122
v 1.576535 -0.685318 -2.115555
v 1.574632 -0.520069 -2.113917
v 1.644374 -0.519132 -2.127485
v 1.674428 -0.493138 -2.155671
v 1.687145 -0.671346 -3.050215
v 1.648560 -0.667403 -3.151444
v 1.674763 -0.501642 -3.091862
v 1.581465 -0.502705 -3.092976
v 1.555262 -0.668466 -3.152559
v 1.571961 -0.672659 -3.051591
v 1.616689 -0.421225 -2.213237
v 1.242341 -0.425490 -2.217710
v 1.243170 -0.497481 -2.218423
v 1.617518 -0.493216 -2.213951
v 1.249303 -0.492273 -2.736759
v 1.248474 -0.420282 -2.736045
v 1.622822 -0.416016 -2.731573
v 1.623651 -0.488008 -2.732287
v 1.243170 -0.497481 -2.218423
v 1.249303 -0.492273 -2.736759
v 1.623651 -0.488008 -2.732287
v 1.617518 -0.493216 -2.213951
v 1.581378 -0.392338 -2.262619
v 1.278156 -0.395793 -2.266241
v 1.242341 -0.425490 -2.217710
v 1.616689 -0.421225 -2.213237
v 1.623651 -0.488008 -2.732287
v 1.622822 -0.416016 -2.731573
v 1.616689 -0.421225 -2.213237
v 1.617518 -0.493216 -2.213951
v 1.242341 -0.425490 -2.217710
v 1.248474 -0.420282 -2.736045
v 1.249303 -0.492273 -2.736759
v 1.243170 -0.497481 -2.218423
v 1.278156 -0.395793 -2.266241
v 1.283124 -0.391575 -2.686093
v 1.248474 -0.420282 -2.736045
v 1.242341 -0.425490 -2.217710
v 1.283124 -0.391575 -2.686093
v 1.586346 -0.388120 -2.682471
v 1.622822 -0.416016 -2.731573
v 1.248474 -0.420282 -2.736045
v 1.586346 -0.388120 -2.682471
v 1.581378 -0.392338 -2.262619
v 1.616689 -0.421225 -2.213237
v 1.622822 -0.416016 -2.731573
v 1.586346 -0.388120 -2.682471
v 1.283124 -0.391575 -2.686093
v 1.278156 -0.395793 -2.266241
v 1.581378 -0.392338 -2.262619
usemtl mat10

vn 0.011511 -0.999885 -0.009908
vn 0.011511 -0.999885 -0.009908
vn 0.011511 -0.999885 -0.009908
vn 0.011511 -0.999885 -0.009908
vn 0.972148 0.013511 -0.233979
vn 0.972148 0.013511 -0.233979
vn 0.972148 0.013511 -0.233979
vn 0.011512 -0.999885 -0.009911
vn 0.011512 -0.999885 -0.009911
vn 0.011512 -0.999885 -0.009911
vn 0.011512 -0.999885 -0.009911
vn -0.011512 0.999885 0.009911
vn -0.011512 0.999885 0.009911
vn -0.011512 0.999885 0.009911
vn -0.011512 0.999885 0.009911
vn 0.999864 0.011393 0.011945
vn 0.999864 0.011393 0.011945
vn 0.999864 0.011393 0.011945
vn 0.999864 0.011393 0.011945
vn -0.999864 -0.011393 -0.011945
vn -0.999864 -0.011393 -0.011945
vn -0.999864 -0.011393 -0.011945
vn -0.999864 -0.011393 -0.011945
vn -0.999864 -0.011393 -0.011943
vn -0.999864 -0.011393 -0.011943
vn -0.999864 -0.011393 -0.011943
vn -0.999864 -0.011393 -0.011943
vn -0.011511 0.999885 0.009905
vn -0.011511 0.999885 0.009905
vn -0.011511 0.999885 0.009905
vn -0.011511 0.999885 0.009905
vn 0.999864 0.011393 0.011945
vn 0.999864 0.011393 0.011945
vn 0.999864 0.011393 0.011945
vn 0.999864 0.011393 0.011945
vn 0.011511 -0.999885 -0.009911
vn 0.011511 -0.999885 -0.009911
vn 0.011511 -0.999885 -0.009911
vn 0.011511 -0.999885 -0.009911
vn -0.999864 -0.011393 -0.011945
vn -0.999864 -0.011393 -0.011945
vn -0.999864 -0.011393 -0.011945
vn -0.999864 -0.011393 -0.011945
vn -0.011511 0.999885 0.009911
vn -0.011511 0.999885 0.009911
vn -0.011511 0.999885 0.009911
vn -0.011511 0.999885 0.009911
vn 0.999864 0.011393 0.011945
vn 0.999864 0.011393 0.011945
vn 0.999864 0.011393 0.011945
vn 0.999864 0.011393 0.011945
vn 0.012413 -0.995945 -0.089109
vn 0.012413 -0.995945 -0.089109
vn 0.012413 -0.995945 -0.089109
vn -0.944379 -0.014129 0.328555
vn -0.944379 -0.014129 0.328555
vn -0.944379 -0.014129 0.328555
vn -0.944379 -0.014129 0.328555
vn -0.015917 0.857151 0.514819
vn -0.015917 0.857151 0.514819
vn -0.015917 0.857151 0.514819
vn 0.683781 0.000640 0.729687
vn 0.683781 0.000640 0.729687
vn 0.683781 0.000640 0.729687
vn 0.683781 0.000640 0.729687
vn 0.191047 -0.007529 0.981552
vn 0.191047 -0.007529 0.981552
vn 0.191047 -0.007529 0.981552
vn 0.191047 -0.007529 0.981552
vn -0.006141 0.928424 -0.371471
vn -0.006141 0.928424 -0.371471
vn -0.006141 0.928424 -0.371471
vn -0.006141 0.928424 -0.371471
vn -0.966338 -0.008577 -0.257135
vn -0.966338 -0.008577 -0.257135
vn -0.966338 -0.008577 -0.257135
vn 0.011902 -0.998985 -0.043457
vn 0.011902 -0.998985 -0.043457
vn 0.011902 -0.998985 -0.043457
vn 0.011902 -0.998985 -0.043457
vn 0.007404 0.337213 -0.941399
vn 0.007404 0.337213 -0.941399
vn 0.007404 0.337213 -0.941399
vn 0.007404 0.337213 -0.941399
vn -0.017932 -0.986895 -0.160363
vn -0.017932 -0.986895 -0.160363
vn -0.017932 -0.986895 -0.160363
vn 0.136421 0.651502 0.746280
vn 0.136421 0.651502 0.746280
vn 0.136421 0.651502 0.746280
vn 0.933992 -0.019405 -0.356767
vn 0.933992 -0.019405 -0.356767
vn 0.933992 -0.019405 -0.356767
vn -0.981454 0.095375 0.166289
vn -0.981454 0.095375 0.166289
vn -0.981454 0.095375 0.166289
vn -0.011831 -0.010047 0.999880
vn -0.011831 -0.010047 0.999880
vn -0.011831 -0.010047 0.999880
vn -0.011831 -0.010047 0.999880
vn 0.011831 0.010047 -0.999880
vn 0.011831 0.010047 -0.999880
vn 0.011831 0.010047 -0.999880
vn 0.011831 0.010047 -0.999880
vn 0.011512 -0.999885 -0.009911
vn 0.011512 -0.999885 -0.009911
vn 0.011512 -0.999885 -0.009911
vn 0.011512 -0.999885 -0.009911
vn -0.015909 0.858058 0.513307
vn -0.015909 0.858058 0.513307
vn -0.015909 0.858058 0.513307
vn -0.015909 0.858058 0.513307
vn 0.999864 0.011393 0.011945
vn 0.999864 0.011393 0.011945
vn 0.999864 0.011393 0.011945
vn 0.999864 0.011393 0.011945
vn -0.999864 -0.011393 -0.011945
vn -0.999864 -0.011393 -0.011945
vn -0.999864 -0.011393 -0.011945
vn -0.999864 -0.011393 -0.011945
vn -0.638139 0.769921 0.000186
vn -0.638139 0.769921 0.000186
vn -0.638139 0.769921 0.000186
vn -0.638139 0.769921 0.000186
vn -0.003965 0.868203 -0.496194
vn -0.003965 0.868203 -0.496194
vn -0.003965 0.868203 -0.496194
vn -0.003965 0.868203 -0.496194
vn 0.620269 0.784241 0.015219
vn 0.620269 0.784241 0.015219
vn 0.620269 0.784241 0.015219
vn 0.620269 0.784241 0.015219
vn -0.011512 0.999885 0.009911
vn -0.011512 0.999885 0.009911
vn -0.011512 0.999885 0.009911
vn -0.011512 0.999885 0.009911

vt -0.076833 0.172887
vt -0.080864 0.162095
vt -0.086260 0.164110
vt -0.082229 0.174902
vt -0.178282 0.037245
vt -0.173533 0.037933
vt -0.177909 0.019731
vt -0.086259 0.164110
vt -0.160454 0.191820
vt -0.156423 0.202611
vt -0.082229 0.174902
vt 0.156423 0.202611
vt 0.160454 0.191820
vt 0.086259 0.164110
vt 0.082229 0.174902
vt -0.185856 0.115035
vt -0.174424 0.129858
vt -0.111708 0.081492
vt -0.123141 0.066668
vt 0.111708 0.081492
vt 0.174424 0.129858
vt 0.185856 0.115035
vt 0.123141 0.066668
vt 0.118579 0.063150
vt 0.107147 0.077974
vt 0.111708 0.081491
vt 0.123141 0.066667
vt 0.080864 0.162095
vt 0.076834 0.172887
vt 0.082230 0.174902
vt 0.086260 0.164110
vt -0.107147 0.077974
vt -0.118579 0.063150
vt -0.123141 0.066668
vt -0.111708 0.081492
vt -0.072786 0.171375
vt -0.076817 0.160583
vt -0.080864 0.162095
vt -0.076833 0.172887
vt 0.115159 0.060512
vt 0.103726 0.075336
vt 0.107147 0.077974
vt 0.118579 0.063150
vt 0.076817 0.160583
vt 0.072786 0.171375
vt 0.076833 0.172887
vt 0.080864 0.162095
vt -0.103726 0.075336
vt -0.115159 0.060512
vt -0.118579 0.063150
vt -0.107147 0.077974
vt -0.064983 0.161946
vt -0.069585 0.162149
vt -0.065209 0.172805
vt 0.074452 -0.021004
vt 0.074062 -0.004482
vt 0.078595 -0.001838
vt 0.079036 -0.020553
vt 0.028400 0.159959
vt 0.027844 0.171093
vt 0.033527 0.161073
vt -0.086216 0.160437
vt -0.101033 0.153116
vt -0.102568 0.156998
vt -0.085785 0.165290
vt -0.070207 0.138018
vt -0.067243 0.131561
vt -0.082263 0.124666
vt -0.085227 0.131123
vt 0.183199 0.165205
vt 0.184682 0.155992
vt 0.180244 0.154169
vt 0.178413 0.165543
vt 0.157327 0.188629
vt 0.167798 0.174585
vt 0.153159 0.186252
vt -0.166984 0.195727
vt -0.163597 0.204421
vt -0.152756 0.204464
vt -0.156938 0.193730
vt 0.129166 0.085145
vt 0.113418 0.093459
vt 0.116383 0.102307
vt 0.132131 0.093992
vt -0.056801 0.174814
vt -0.055383 0.170888
vt -0.056931 0.163953
vt -0.007056 0.158570
vt -0.009959 0.165056
vt -0.008326 0.169646
vt -0.151777 -0.021465
vt -0.162617 -0.021553
vt -0.156861 -0.004701
vt 0.183099 0.071032
vt 0.194056 0.056993
vt 0.184405 0.053563
vt -0.053204 0.117920
vt -0.036886 0.084223
vt -0.043366 0.081085
vt -0.059684 0.114782
vt 0.043366 0.081085
vt 0.036886 0.084223
vt 0.053204 0.117920
vt 0.059684 0.114782
vt -0.093296 0.132921
vt -0.141860 0.151058
vt -0.128761 0.186132
vt -0.080197 0.167995
vt 0.045045 0.170096
vt 0.060000 0.143714
vt 0.056791 0.137806
vt 0.038328 0.170377
vt -0.149338 0.110512
vt -0.144941 0.116213
vt -0.103891 0.084555
vt -0.108287 0.078853
vt 0.103891 0.084555
vt 0.144941 0.116213
vt 0.149338 0.110512
vt 0.108287 0.078853
vt 0.105716 0.119213
vt 0.145408 0.132914
vt 0.151557 0.130195
vt 0.102555 0.113279
vt 0.144986 0.107024
vt 0.142630 0.137259
vt 0.148042 0.141248
vt 0.150950 0.103921
vt 0.083727 0.185656
vt 0.050787 0.159615
vt 0.044086 0.160151
vt 0.084753 0.192300
vt 0.125392 0.181077
vt 0.136002 0.152667
vt 0.096665 0.137976
vt 0.086055 0.166386
s off
f 1/1/1 2/2/2 3/3/3
f 1/1/1 3/3/3 4/4/4
f 5/5/5 6/6/6 7/7/7
f 8/8/8 9/9/9 10/10/10
f 8/8/8 10/10/10 11/11/11
f 12/12/12 13/13/13 14/14/14
f 12/12/12 14/14/14 15/15/15
f 16/16/16 17/17/17 18/18/18
f 16/16/16 18/18/18 19/19/19
f 20/20/20 21/21/21 22/22/22
f 20/20/20 22/22/22 23/23/23
f 24/24/24 25/25/25 26/26/26
f 24/24/24 26/26/26 27/27/27
f 28/28/28 29/29/29 30/30/30
f 28/28/28 30/30/30 31/31/31
f 32/32/32 33/33/33 34/34/34
f 32/32/32 34/34/34 35/35/35
f 36/36/36 37/37/37 38/38/38
f 36/36/36 38/38/38 39/39/39
f 40/40/40 41/41/41 42/42/42
f 40/40/40 42/42/42 43/43/43
f 44/44/44 45/45/45 46/46/46
f 44/44/44 46/46/46 47/47/47
f 48/48/48 49/49/49 50/50/50
f 48/48/48 50/50/50 51/51/51
f 52/52/52 53/53/53 54/54/54
f 55/55/55 56/56/56 57/57/57
f 55/55/55 57/57/57 58/58/58
f 59/59/59 60/60/60 61/61/61
f 62/62/62 63/63/63 64/64/64
f 62/62/62 64/64/64 65/65/65
f 66/66/66 67/67/67 68/68/68
f 66/66/66 68/68/68 69/69/69
f 70/70/70 71/71/71 72/72/72
f 70/70/70 72/72/72 73/73/73
f 74/74/74 75/75/75 76/76/76
f 77/77/77 78/78/78 79/79/79
f 77/77/77 79/79/79 80/80/80
f 81/81/81 82/82/82 83/83/83
f 81/81/81 83/83/83 84/84/84
f 85/85/85 86/86/86 87/87/87
f 88/88/88 89/89/89 90/90/90
f 91/91/91 92/92/92 93/93/93
f 94/94/94 95/95/95 96/96/96
f 97/97/97 98/98/98 99/99/99
f 97/97/97 99/99/99 100/100/100
f 101/101/101 102/102/102 103/103/103
f 101/101/101 103/103/103 104/104/104
f 105/105/105 106/106/106 107/107/107
f 105/105/105 107/107/107 108/108/108
f 109/109/109 110/110/110 111/111/111
f 109/109/109 111/111/111 112/112/112
f 113/113/113 114/114/114 115/115/115
f 113/113/113 115/115/115 116/116/116
f 117/117/117 118/118/118 119/119/119
f 117/117/117 119/119/119 120/120/120
f 121/121/121 122/122/122 123/123/123
f 121/121/121 123/123/123 124/124/124
f 125/125/125 126/126/126 127/127/127
f 125/125/125 127/127/127 128/128/128
f 129/129/129 130/130/130 131/131/131
f 129/129/129 131/131/131 132/132/132
f 133/133/133 134/134/134 135/135/135
f 133/133/133 135/135/135 136/136/136
