# Exported using automatic converter by Erwin Coumans
mtllib model6.mtl
#object group1695814969_3

v -2.343879 -0.538141 -1.558358
v -2.346934 -0.535435 -1.550859
v -2.364807 -0.697591 -1.506727
v -2.361752 -0.700297 -1.514226
v -2.483331 -0.697028 -1.555221
v -2.465458 -0.534872 -1.599353
v -2.462403 -0.537578 -1.606852
v -2.480276 -0.699734 -1.562720
v -2.364807 -0.697591 -1.506727
v -2.483331 -0.697028 -1.555221
v -2.480276 -0.699734 -1.562720
v -2.361752 -0.700297 -1.514226
v -2.462403 -0.537578 -1.606852
v -2.465458 -0.534872 -1.599353
v -2.346934 -0.535435 -1.550859
v -2.343879 -0.538141 -1.558358
v -2.480276 -0.699734 -1.562720
v -2.462403 -0.537578 -1.606852
v -2.343879 -0.538141 -1.558358
v -2.361752 -0.700297 -1.514226
v -2.346934 -0.535435 -1.550859
v -2.465458 -0.534872 -1.599353
v -2.483331 -0.697028 -1.555221
v -2.364807 -0.697591 -1.506727
v -2.332608 -0.514167 -1.600379
v -2.381862 -0.685485 -1.540587
v -2.377585 -0.688624 -1.547275
v -2.488364 -0.679600 -1.611458
v -2.448780 -0.521127 -1.653893
v -2.444503 -0.524265 -1.660581
v -2.484087 -0.682739 -1.618146
v -2.381862 -0.685485 -1.540587
v -2.488364 -0.679600 -1.611458
v -2.484087 -0.682739 -1.618146
v -2.377585 -0.688624 -1.547275
v -2.444503 -0.524265 -1.660581
v -2.448780 -0.521127 -1.653893
v -2.332608 -0.514167 -1.600379
v -2.484087 -0.682739 -1.618146
v -2.332608 -0.514167 -1.600379
v -2.377585 -0.688624 -1.547275
v -2.342279 -0.527012 -1.583022
v -2.448780 -0.521127 -1.653893
v -2.488364 -0.679600 -1.611458
v -2.381862 -0.685485 -1.540587
v -2.332608 -0.514167 -1.600379
v -2.342279 -0.527012 -1.583022
v -2.381862 -0.685485 -1.540587
v -2.448780 -0.521127 -1.653893
v -2.342279 -0.527012 -1.583022
v -2.332608 -0.514167 -1.600379
v -2.484087 -0.682739 -1.618146
v -2.444503 -0.524265 -1.660581
v -2.332608 -0.514167 -1.600379
usemtl mat18

vn 0.926154 0.000560 0.377145
vn 0.926154 0.000560 0.377145
vn 0.926154 0.000560 0.377145
vn 0.926154 0.000560 0.377145
vn -0.926159 -0.000558 -0.377133
vn -0.926159 -0.000558 -0.377133
vn -0.926159 -0.000558 -0.377133
vn -0.926159 -0.000558 -0.377133
vn -0.123878 -0.948434 0.291766
vn -0.123878 -0.948434 0.291766
vn -0.123878 -0.948434 0.291766
vn -0.123878 -0.948434 0.291766
vn 0.123878 0.948434 -0.291766
vn 0.123878 0.948434 -0.291766
vn 0.123878 0.948434 -0.291766
vn 0.123878 0.948434 -0.291766
vn 0.362193 -0.281736 -0.888505
vn 0.362193 -0.281736 -0.888505
vn 0.362193 -0.281736 -0.888505
vn 0.362193 -0.281736 -0.888505
vn -0.362193 0.281736 0.888505
vn -0.362193 0.281736 0.888505
vn -0.362193 0.281736 0.888505
vn -0.362193 0.281736 0.888505
vn 0.831640 -0.045955 0.553411
vn 0.831640 -0.045955 0.553411
vn 0.831640 -0.045955 0.553411
vn -0.828522 0.057807 -0.556965
vn -0.828522 0.057807 -0.556965
vn -0.828522 0.057807 -0.556965
vn -0.828522 0.057807 -0.556965
vn -0.239466 -0.928827 0.282730
vn -0.239466 -0.928827 0.282730
vn -0.239466 -0.928827 0.282730
vn -0.239466 -0.928827 0.282730
vn 0.111673 0.925175 -0.362740
vn 0.111673 0.925175 -0.362740
vn 0.111673 0.925175 -0.362740
vn 0.501030 -0.367652 -0.783454
vn 0.501030 -0.367652 -0.783454
vn 0.501030 -0.367652 -0.783454
vn -0.508151 0.338941 0.791771
vn -0.508151 0.338941 0.791771
vn -0.508151 0.338941 0.791771
vn -0.508151 0.338941 0.791771
vn 0.901157 -0.113027 0.418498
vn 0.901157 -0.113027 0.418498
vn 0.901157 -0.113027 0.418498
vn -0.267831 0.839807 0.472220
vn -0.267831 0.839807 0.472220
vn -0.267831 0.839807 0.472220
vn 0.469598 -0.335927 -0.816475
vn 0.469598 -0.335927 -0.816475
vn 0.469598 -0.335927 -0.816475

vt 0.017731 -0.034164
vt 0.018419 -0.034670
vt 0.007915 -0.047909
vt 0.007227 -0.047404
vt -0.007952 -0.047853
vt -0.018456 -0.034613
vt -0.017768 -0.034108
vt -0.007264 -0.047347
vt -0.118549 -0.245775
vt -0.125536 -0.256507
vt -0.126251 -0.256041
vt -0.119264 -0.245309
vt 0.125777 -0.256455
vt 0.125061 -0.256921
vt 0.118074 -0.246189
vt 0.118790 -0.245723
vt -0.159887 -0.236524
vt -0.172717 -0.225523
vt -0.164331 -0.215845
vt -0.151501 -0.226846
vt 0.164354 -0.215824
vt 0.172741 -0.225503
vt 0.159911 -0.236503
vt 0.151525 -0.226825
vt 0.033351 -0.081904
vt 0.022846 -0.097498
vt 0.022161 -0.096989
vt -0.021241 -0.100179
vt -0.031646 -0.086892
vt -0.030958 -0.086387
vt -0.020553 -0.099674
vt -0.126189 -0.238520
vt -0.135139 -0.247680
vt -0.135750 -0.247083
vt -0.126800 -0.237923
vt 0.116358 -0.261048
vt 0.115699 -0.261591
vt 0.108663 -0.250887
vt -0.177204 -0.215754
vt -0.178361 -0.193051
vt -0.167004 -0.208010
vt 0.176274 -0.194562
vt 0.186385 -0.202421
vt 0.176199 -0.215877
vt 0.166088 -0.208018
vt 0.002511 -0.057454
vt 0.002713 -0.059811
vt -0.006458 -0.073979
vt 0.188123 -0.212752
vt 0.177189 -0.206085
vt 0.178600 -0.204185
vt -0.173967 -0.221743
vt -0.184446 -0.208514
vt -0.175864 -0.199090
s off
f 1/1/1 2/2/2 3/3/3
f 1/1/1 3/3/3 4/4/4
f 5/5/5 6/6/6 7/7/7
f 5/5/5 7/7/7 8/8/8
f 9/9/9 10/10/10 11/11/11
f 9/9/9 11/11/11 12/12/12
f 13/13/13 14/14/14 15/15/15
f 13/13/13 15/15/15 16/16/16
f 17/17/17 18/18/18 19/19/19
f 17/17/17 19/19/19 20/20/20
f 21/21/21 22/22/22 23/23/23
f 21/21/21 23/23/23 24/24/24
f 25/25/25 26/26/26 27/27/27
f 28/28/28 29/29/29 30/30/30
f 28/28/28 30/30/30 31/31/31
f 32/32/32 33/33/33 34/34/34
f 32/32/32 34/34/34 35/35/35
f 36/36/36 37/37/37 38/38/38
f 39/39/39 40/40/40 41/41/41
f 42/42/42 43/43/43 44/44/44
f 42/42/42 44/44/44 45/45/45
f 46/46/46 47/47/47 48/48/48
f 49/49/49 50/50/50 51/51/51
f 52/52/52 53/53/53 54/54/54
