# Exported using automatic converter by Erwin Coumans
mtllib botlab.mtl
#object mesh1700941652

v -2.011762 0.085489 -3.390148
v -2.011762 0.105489 -3.390148
v -2.011762 0.105489 -3.370148
v -2.011762 0.085489 -3.370148
v -2.121762 0.105489 -3.370148
v -2.121762 0.105489 -3.390148
v -2.121762 0.085489 -3.390148
v -2.121762 0.085489 -3.370148
v -2.011762 0.105489 -3.370148
v -2.121762 0.105489 -3.370148
v -2.121762 0.085489 -3.370148
v -2.011762 0.085489 -3.370148
v -2.121762 0.085489 -3.390148
v -2.121762 0.105489 -3.390148
v -2.011762 0.105489 -3.390148
v -2.011762 0.085489 -3.390148
v -2.121762 0.085489 -3.370148
v -2.121762 0.085489 -3.390148
v -2.011762 0.085489 -3.390148
v -2.011762 0.085489 -3.370148
v -2.011762 0.105489 -3.390148
v -2.121762 0.105489 -3.390148
v -2.121762 0.105489 -3.370148
v -2.011762 0.105489 -3.370148
usemtl mat23

vn 1.000000 0.000000 0.000000
vn 1.000000 0.000000 0.000000
vn 1.000000 0.000000 0.000000
vn 1.000000 0.000000 0.000000
vn -1.000000 0.000000 -0.000000
vn -1.000000 0.000000 -0.000000
vn -1.000000 0.000000 -0.000000
vn -1.000000 0.000000 -0.000000
vn -0.000000 0.000000 1.000000
vn -0.000000 0.000000 1.000000
vn -0.000000 0.000000 1.000000
vn -0.000000 0.000000 1.000000
vn 0.000000 -0.000000 -1.000000
vn 0.000000 -0.000000 -1.000000
vn 0.000000 -0.000000 -1.000000
vn 0.000000 -0.000000 -1.000000
vn 0.000000 -1.000000 0.000000
vn 0.000000 -1.000000 0.000000
vn 0.000000 -1.000000 0.000000
vn 0.000000 -1.000000 0.000000
vn 0.000000 1.000000 -0.000000
vn 0.000000 1.000000 -0.000000
vn 0.000000 1.000000 -0.000000
vn 0.000000 1.000000 -0.000000

vt -0.170303 0.191692
vt -0.169140 0.193320
vt -0.167513 0.192157
vt -0.168675 0.190530
vt 0.167513 0.192157
vt 0.169140 0.193320
vt 0.170303 0.191692
vt 0.168675 0.190530
vt 0.156525 -0.181121
vt 0.161444 -0.190960
vt 0.159655 -0.191855
vt 0.154736 -0.182016
vt -0.159655 -0.191855
vt -0.161444 -0.190960
vt -0.156525 -0.181121
vt -0.154736 -0.182016
vt -0.315282 -0.145432
vt -0.317165 -0.144759
vt -0.313466 -0.134400
vt -0.311582 -0.135073
vt 0.313466 -0.134400
vt 0.317165 -0.144759
vt 0.315282 -0.145432
vt 0.311582 -0.135073
s off
f 1/1/1 2/2/2 3/3/3
f 1/1/1 3/3/3 4/4/4
f 5/5/5 6/6/6 7/7/7
f 5/5/5 7/7/7 8/8/8
f 9/9/9 10/10/10 11/11/11
f 9/9/9 11/11/11 12/12/12
f 13/13/13 14/14/14 15/15/15
f 13/13/13 15/15/15 16/16/16
f 17/17/17 18/18/18 19/19/19
f 17/17/17 19/19/19 20/20/20
f 21/21/21 22/22/22 23/23/23
f 21/21/21 23/23/23 24/24/24
