# Exported using automatic converter by Erwin Coumans
mtllib model6.mtl
#object group974128616_4

v -2.032522 -0.544511 -2.900149
v -2.032522 -0.544511 -3.180150
v -2.032522 -0.584511 -3.180150
v -2.032522 -0.584511 -2.900149
v -1.312522 -0.584511 -3.180149
v -1.312522 -0.544511 -3.180149
v -1.312522 -0.544511 -2.900149
v -1.312522 -0.584511 -2.900149
v -2.032522 -0.584511 -3.180150
v -1.312522 -0.584511 -3.180149
v -1.312522 -0.584511 -2.900149
v -2.032522 -0.584511 -2.900149
v -1.312522 -0.544511 -2.900149
v -1.312522 -0.544511 -3.180149
v -2.032522 -0.544511 -3.180150
v -2.032522 -0.544511 -2.900149
v -1.312522 -0.584511 -2.900149
v -1.312522 -0.544511 -2.900149
v -2.032522 -0.544511 -2.900149
v -2.032522 -0.584511 -2.900149
v -2.032522 -0.544511 -3.180150
v -1.312522 -0.544511 -3.180149
v -1.312522 -0.584511 -3.180149
v -2.032522 -0.584511 -3.180150
v -1.335593 -0.450037 -2.930578
v -1.335551 -0.333436 -2.939295
v -1.468117 -0.341596 -3.049076
v -1.468158 -0.458197 -3.040359
v -1.772522 -0.354511 -3.140150
v -1.772522 -0.354511 -3.160150
v -1.772522 -0.514511 -3.160150
v -1.772522 -0.514511 -3.140150
v -1.552522 -0.514511 -3.160150
v -1.552522 -0.354511 -3.160150
v -1.552522 -0.354511 -3.140150
v -1.552522 -0.514511 -3.140150
v -1.772522 -0.514511 -3.160150
v -1.552522 -0.514511 -3.160150
v -1.552522 -0.514511 -3.140150
v -1.772522 -0.514511 -3.140150
v -1.552522 -0.354511 -3.140150
v -1.552522 -0.354511 -3.160150
v -1.772522 -0.354511 -3.160150
v -1.772522 -0.354511 -3.140150
v -1.552522 -0.514511 -3.140150
v -1.552522 -0.354511 -3.140150
v -1.772522 -0.354511 -3.140150
v -1.772522 -0.514511 -3.140150
v -1.772522 -0.354511 -3.160150
v -1.552522 -0.354511 -3.160150
v -1.552522 -0.514511 -3.160150
v -1.772522 -0.514511 -3.160150
v -1.832522 -0.754511 -2.950150
v -1.832522 -0.754511 -2.970150
v -1.832522 -0.774511 -2.970150
v -1.832522 -0.774511 -2.950150
v -1.812522 -0.774511 -2.970150
v -1.812522 -0.754511 -2.970150
v -1.812522 -0.754511 -2.950150
v -1.812522 -0.774511 -2.950150
v -1.832522 -0.774511 -2.970150
v -1.812522 -0.774511 -2.970150
v -1.812522 -0.774511 -2.950150
v -1.832522 -0.774511 -2.950150
v -1.812522 -0.754511 -2.950150
v -1.812522 -0.754511 -2.970150
v -1.832522 -0.754511 -2.970150
v -1.832522 -0.754511 -2.950150
v -1.812522 -0.774511 -2.950150
v -1.812522 -0.754511 -2.950150
v -1.832522 -0.754511 -2.950150
v -1.832522 -0.774511 -2.950150
v -1.832522 -0.754511 -2.970150
v -1.812522 -0.754511 -2.970150
v -1.812522 -0.774511 -2.970150
v -1.832522 -0.774511 -2.970150
v -1.602522 -0.754511 -2.950150
v -1.602522 -0.754511 -2.970150
v -1.602522 -0.774511 -2.970150
v -1.602522 -0.774511 -2.950150
v -1.582522 -0.774511 -2.970150
v -1.582522 -0.754511 -2.970150
v -1.582522 -0.754511 -2.950150
v -1.582522 -0.774511 -2.950150
v -1.602522 -0.774511 -2.970150
v -1.582522 -0.774511 -2.970150
v -1.582522 -0.774511 -2.950150
v -1.602522 -0.774511 -2.950150
v -1.582522 -0.754511 -2.950150
v -1.582522 -0.754511 -2.970150
v -1.602522 -0.754511 -2.970150
v -1.602522 -0.754511 -2.950150
v -1.582522 -0.774511 -2.950150
v -1.582522 -0.754511 -2.950150
v -1.602522 -0.754511 -2.950150
v -1.602522 -0.774511 -2.950150
v -1.602522 -0.754511 -2.970150
v -1.582522 -0.754511 -2.970150
v -1.582522 -0.774511 -2.970150
v -1.602522 -0.774511 -2.970150
v -1.392522 -0.744511 -2.950149
v -1.392522 -0.744511 -2.970149
v -1.392522 -0.764511 -2.970149
v -1.392522 -0.764511 -2.950149
v -1.372522 -0.764511 -2.970149
v -1.372522 -0.744511 -2.970149
v -1.372522 -0.744511 -2.950149
v -1.372522 -0.764511 -2.950149
v -1.392522 -0.764511 -2.970149
v -1.372522 -0.764511 -2.970149
v -1.372522 -0.764511 -2.950149
v -1.392522 -0.764511 -2.950149
v -1.372522 -0.744511 -2.950149
v -1.372522 -0.744511 -2.970149
v -1.392522 -0.744511 -2.970149
v -1.392522 -0.744511 -2.950149
v -1.372522 -0.764511 -2.950149
v -1.372522 -0.744511 -2.950149
v -1.392522 -0.744511 -2.950149
v -1.392522 -0.764511 -2.950149
v -1.392522 -0.744511 -2.970149
v -1.372522 -0.744511 -2.970149
v -1.372522 -0.764511 -2.970149
v -1.392522 -0.764511 -2.970149
usemtl mat21

vn -1.000000 0.000000 -0.000000
vn -1.000000 0.000000 -0.000000
vn -1.000000 0.000000 -0.000000
vn -1.000000 0.000000 -0.000000
vn 1.000000 0.000000 0.000000
vn 1.000000 0.000000 0.000000
vn 1.000000 0.000000 0.000000
vn 1.000000 0.000000 0.000000
vn -0.000000 -1.000000 0.000000
vn -0.000000 -1.000000 0.000000
vn -0.000000 -1.000000 0.000000
vn -0.000000 -1.000000 0.000000
vn 0.000000 1.000000 -0.000000
vn 0.000000 1.000000 -0.000000
vn 0.000000 1.000000 -0.000000
vn 0.000000 1.000000 -0.000000
vn -0.000000 0.000000 1.000000
vn -0.000000 0.000000 1.000000
vn -0.000000 0.000000 1.000000
vn -0.000000 0.000000 1.000000
vn 0.000000 -0.000000 -1.000000
vn 0.000000 -0.000000 -1.000000
vn 0.000000 -0.000000 -1.000000
vn 0.000000 -0.000000 -1.000000
vn -0.638855 0.057580 0.767169
vn -0.638855 0.057580 0.767169
vn -0.638855 0.057580 0.767169
vn -0.638855 0.057580 0.767169
vn -1.000000 -0.000000 -0.000000
vn -1.000000 -0.000000 -0.000000
vn -1.000000 -0.000000 -0.000000
vn -1.000000 -0.000000 -0.000000
vn 1.000000 0.000000 0.000000
vn 1.000000 0.000000 0.000000
vn 1.000000 0.000000 0.000000
vn 1.000000 0.000000 0.000000
vn 0.000000 -1.000000 0.000000
vn 0.000000 -1.000000 0.000000
vn 0.000000 -1.000000 0.000000
vn 0.000000 -1.000000 0.000000
vn -0.000000 1.000000 -0.000000
vn -0.000000 1.000000 -0.000000
vn -0.000000 1.000000 -0.000000
vn -0.000000 1.000000 -0.000000
vn -0.000000 0.000000 1.000000
vn -0.000000 0.000000 1.000000
vn -0.000000 0.000000 1.000000
vn -0.000000 0.000000 1.000000
vn 0.000000 0.000000 -1.000000
vn 0.000000 0.000000 -1.000000
vn 0.000000 0.000000 -1.000000
vn 0.000000 0.000000 -1.000000
vn -1.000000 0.000000 -0.000000
vn -1.000000 0.000000 -0.000000
vn -1.000000 0.000000 -0.000000
vn -1.000000 0.000000 -0.000000
vn 1.000000 0.000000 0.000000
vn 1.000000 0.000000 0.000000
vn 1.000000 0.000000 0.000000
vn 1.000000 0.000000 0.000000
vn -0.000000 -1.000000 0.000000
vn -0.000000 -1.000000 0.000000
vn -0.000000 -1.000000 0.000000
vn -0.000000 -1.000000 0.000000
vn 0.000000 1.000000 -0.000000
vn 0.000000 1.000000 -0.000000
vn 0.000000 1.000000 -0.000000
vn 0.000000 1.000000 -0.000000
vn -0.000000 0.000000 1.000000
vn -0.000000 0.000000 1.000000
vn -0.000000 0.000000 1.000000
vn -0.000000 0.000000 1.000000
vn 0.000000 -0.000000 -1.000000
vn 0.000000 -0.000000 -1.000000
vn 0.000000 -0.000000 -1.000000
vn 0.000000 -0.000000 -1.000000
vn -1.000000 0.000000 -0.000000
vn -1.000000 0.000000 -0.000000
vn -1.000000 0.000000 -0.000000
vn -1.000000 0.000000 -0.000000
vn 1.000000 0.000000 0.000000
vn 1.000000 0.000000 0.000000
vn 1.000000 0.000000 0.000000
vn 1.000000 0.000000 0.000000
vn -0.000000 -1.000000 0.000000
vn -0.000000 -1.000000 0.000000
vn -0.000000 -1.000000 0.000000
vn -0.000000 -1.000000 0.000000
vn 0.000000 1.000000 -0.000000
vn 0.000000 1.000000 -0.000000
vn 0.000000 1.000000 -0.000000
vn 0.000000 1.000000 -0.000000
vn -0.000000 0.000000 1.000000
vn -0.000000 0.000000 1.000000
vn -0.000000 0.000000 1.000000
vn -0.000000 0.000000 1.000000
vn 0.000000 -0.000000 -1.000000
vn 0.000000 -0.000000 -1.000000
vn 0.000000 -0.000000 -1.000000
vn 0.000000 -0.000000 -1.000000
vn -1.000000 0.000000 -0.000000
vn -1.000000 0.000000 -0.000000
vn -1.000000 0.000000 -0.000000
vn -1.000000 0.000000 -0.000000
vn 1.000000 0.000000 0.000000
vn 1.000000 0.000000 0.000000
vn 1.000000 0.000000 0.000000
vn 1.000000 0.000000 0.000000
vn -0.000000 -1.000000 0.000000
vn -0.000000 -1.000000 0.000000
vn -0.000000 -1.000000 0.000000
vn -0.000000 -1.000000 0.000000
vn 0.000000 1.000000 -0.000000
vn 0.000000 1.000000 -0.000000
vn 0.000000 1.000000 -0.000000
vn 0.000000 1.000000 -0.000000
vn -0.000000 0.000000 1.000000
vn -0.000000 0.000000 1.000000
vn -0.000000 0.000000 1.000000
vn -0.000000 0.000000 1.000000
vn 0.000000 -0.000000 -1.000000
vn 0.000000 -0.000000 -1.000000
vn 0.000000 -0.000000 -1.000000
vn 0.000000 -0.000000 -1.000000

vt 0.167048 0.111947
vt 0.189832 0.128221
vt 0.192157 0.124966
vt 0.169373 0.108692
vt -0.192157 0.124966
vt -0.189832 0.128221
vt -0.167048 0.111947
vt -0.169373 0.108692
vt -0.294387 -0.143418
vt -0.270171 -0.075613
vt -0.243802 -0.085030
vt -0.268019 -0.152836
vt 0.243802 -0.085030
vt 0.270171 -0.075613
vt 0.294387 -0.143418
vt 0.268019 -0.152836
vt 0.063538 -0.149437
vt 0.067116 -0.147648
vt 0.099315 -0.212047
vt 0.095738 -0.213836
vt -0.099315 -0.212047
vt -0.067116 -0.147648
vt -0.063538 -0.149437
vt -0.095738 -0.213836
vt 0.188105 -0.175071
vt 0.196670 -0.167111
vt 0.208401 -0.179732
vt 0.199837 -0.187692
vt 0.175534 0.141357
vt 0.177161 0.142520
vt 0.186461 0.129500
vt 0.184834 0.128338
vt -0.186461 0.129500
vt -0.177161 0.142520
vt -0.175534 0.141357
vt -0.184834 0.128338
vt -0.283759 -0.119605
vt -0.276360 -0.098887
vt -0.274476 -0.099560
vt -0.281876 -0.120278
vt 0.274476 -0.099560
vt 0.276360 -0.098887
vt 0.283759 -0.119605
vt 0.281876 -0.120278
vt 0.080532 -0.167773
vt 0.094843 -0.160618
vt 0.104682 -0.180295
vt 0.090371 -0.187450
vt -0.104682 -0.180295
vt -0.094843 -0.160618
vt -0.080532 -0.167773
vt -0.090371 -0.187450
vt 0.183323 0.097764
vt 0.184950 0.098927
vt 0.186112 0.097299
vt 0.184485 0.096137
vt -0.186112 0.097299
vt -0.184950 0.098927
vt -0.183323 0.097764
vt -0.184485 0.096137
vt -0.267884 -0.131646
vt -0.267211 -0.129763
vt -0.265328 -0.130435
vt -0.266001 -0.132319
vt 0.265328 -0.130435
vt 0.267211 -0.129763
vt 0.267884 -0.131646
vt 0.266001 -0.132319
vt 0.068905 -0.202656
vt 0.070694 -0.201761
vt 0.071588 -0.203550
vt 0.069799 -0.204445
vt -0.071588 -0.203550
vt -0.070694 -0.201761
vt -0.068905 -0.202656
vt -0.069799 -0.204445
vt 0.183323 0.097764
vt 0.184950 0.098927
vt 0.186112 0.097299
vt 0.184485 0.096137
vt -0.186112 0.097299
vt -0.184950 0.098927
vt -0.183323 0.097764
vt -0.184485 0.096137
vt -0.260148 -0.109986
vt -0.259476 -0.108103
vt -0.257592 -0.108775
vt -0.258265 -0.110659
vt 0.257592 -0.108775
vt 0.259476 -0.108103
vt 0.260148 -0.109986
vt 0.258265 -0.110659
vt 0.058619 -0.182084
vt 0.060408 -0.181190
vt 0.061302 -0.182978
vt 0.059513 -0.183873
vt -0.061302 -0.182978
vt -0.060408 -0.181190
vt -0.058619 -0.182084
vt -0.059513 -0.183873
vt 0.182741 0.098578
vt 0.184369 0.099741
vt 0.185531 0.098113
vt 0.183904 0.096951
vt -0.185531 0.098113
vt -0.184369 0.099741
vt -0.182741 0.098578
vt -0.183904 0.096951
vt -0.253085 -0.090210
vt -0.252412 -0.088326
vt -0.250529 -0.088999
vt -0.251202 -0.090882
vt 0.250529 -0.088999
vt 0.252412 -0.088326
vt 0.253085 -0.090210
vt 0.251202 -0.090882
vt 0.050122 -0.162854
vt 0.051911 -0.161959
vt 0.052805 -0.163748
vt 0.051016 -0.164643
vt -0.052805 -0.163748
vt -0.051911 -0.161959
vt -0.050122 -0.162854
vt -0.051016 -0.164643
s off
f 1/1/1 2/2/2 3/3/3
f 1/1/1 3/3/3 4/4/4
f 5/5/5 6/6/6 7/7/7
f 5/5/5 7/7/7 8/8/8
f 9/9/9 10/10/10 11/11/11
f 9/9/9 11/11/11 12/12/12
f 13/13/13 14/14/14 15/15/15
f 13/13/13 15/15/15 16/16/16
f 17/17/17 18/18/18 19/19/19
f 17/17/17 19/19/19 20/20/20
f 21/21/21 22/22/22 23/23/23
f 21/21/21 23/23/23 24/24/24
f 25/25/25 26/26/26 27/27/27
f 25/25/25 27/27/27 28/28/28
f 29/29/29 30/30/30 31/31/31
f 29/29/29 31/31/31 32/32/32
f 33/33/33 34/34/34 35/35/35
f 33/33/33 35/35/35 36/36/36
f 37/37/37 38/38/38 39/39/39
f 37/37/37 39/39/39 40/40/40
f 41/41/41 42/42/42 43/43/43
f 41/41/41 43/43/43 44/44/44
f 45/45/45 46/46/46 47/47/47
f 45/45/45 47/47/47 48/48/48
f 49/49/49 50/50/50 51/51/51
f 49/49/49 51/51/51 52/52/52
f 53/53/53 54/54/54 55/55/55
f 53/53/53 55/55/55 56/56/56
f 57/57/57 58/58/58 59/59/59
f 57/57/57 59/59/59 60/60/60
f 61/61/61 62/62/62 63/63/63
f 61/61/61 63/63/63 64/64/64
f 65/65/65 66/66/66 67/67/67
f 65/65/65 67/67/67 68/68/68
f 69/69/69 70/70/70 71/71/71
f 69/69/69 71/71/71 72/72/72
f 73/73/73 74/74/74 75/75/75
f 73/73/73 75/75/75 76/76/76
f 77/77/77 78/78/78 79/79/79
f 77/77/77 79/79/79 80/80/80
f 81/81/81 82/82/82 83/83/83
f 81/81/81 83/83/83 84/84/84
f 85/85/85 86/86/86 87/87/87
f 85/85/85 87/87/87 88/88/88
f 89/89/89 90/90/90 91/91/91
f 89/89/89 91/91/91 92/92/92
f 93/93/93 94/94/94 95/95/95
f 93/93/93 95/95/95 96/96/96
f 97/97/97 98/98/98 99/99/99
f 97/97/97 99/99/99 100/100/100
f 101/101/101 102/102/102 103/103/103
f 101/101/101 103/103/103 104/104/104
f 105/105/105 106/106/106 107/107/107
f 105/105/105 107/107/107 108/108/108
f 109/109/109 110/110/110 111/111/111
f 109/109/109 111/111/111 112/112/112
f 113/113/113 114/114/114 115/115/115
f 113/113/113 115/115/115 116/116/116
f 117/117/117 118/118/118 119/119/119
f 117/117/117 119/119/119 120/120/120
f 121/121/121 122/122/122 123/123/123
f 121/121/121 123/123/123 124/124/124
