# Exported using automatic converter by Erwin Coumans
mtllib model6.mtl
#object mesh250726847

v 0.818238 2.025489 -0.580148
v 0.818238 2.025489 -0.550148
v 0.818238 1.995489 -0.550148
v 0.818238 1.995489 -0.580148
v 0.788238 1.995489 -0.550148
v 0.788238 2.025489 -0.550148
v 0.788238 2.025489 -0.580148
v 0.788238 1.995489 -0.580148
v 0.818238 1.995489 -0.550148
v 0.788238 1.995489 -0.550148
v 0.788238 1.995489 -0.580148
v 0.818238 1.995489 -0.580148
v 0.788238 2.025489 -0.580148
v 0.788238 2.025489 -0.550148
v 0.818238 2.025489 -0.550148
v 0.818238 2.025489 -0.580148
v 0.788238 1.995489 -0.580148
v 0.788238 2.025489 -0.580148
v 0.818238 2.025489 -0.580148
v 0.818238 1.995489 -0.580148
v 0.818238 2.025489 -0.550148
v 0.788238 2.025489 -0.550148
v 0.788238 1.995489 -0.550148
v 0.818238 1.995489 -0.550148
usemtl mat23

vn 1.000000 0.000000 0.000000
vn 1.000000 0.000000 0.000000
vn 1.000000 0.000000 0.000000
vn 1.000000 0.000000 0.000000
vn -1.000000 0.000000 0.000000
vn -1.000000 0.000000 0.000000
vn -1.000000 0.000000 0.000000
vn -1.000000 0.000000 0.000000
vn 0.000000 -1.000000 0.000000
vn 0.000000 -1.000000 0.000000
vn 0.000000 -1.000000 0.000000
vn 0.000000 -1.000000 0.000000
vn 0.000000 1.000000 0.000000
vn 0.000000 1.000000 0.000000
vn 0.000000 1.000000 0.000000
vn 0.000000 1.000000 0.000000
vn 0.000000 0.000000 -1.000000
vn 0.000000 0.000000 -1.000000
vn 0.000000 0.000000 -1.000000
vn 0.000000 0.000000 -1.000000
vn 0.000000 0.000000 1.000000
vn 0.000000 0.000000 1.000000
vn 0.000000 0.000000 1.000000
vn 0.000000 0.000000 1.000000

vt 0.171117 0.186229
vt 0.173558 0.184485
vt 0.171814 0.182044
vt 0.169373 0.183787
vt -0.171814 0.182044
vt -0.173558 0.184485
vt -0.171117 0.186229
vt -0.169373 0.183787
vt 0.049172 0.036593
vt 0.048163 0.033768
vt 0.045338 0.034777
vt 0.046347 0.037602
vt -0.045338 0.034777
vt -0.048163 0.033768
vt -0.049172 0.036593
vt -0.046347 0.037602
vt -0.200352 0.153841
vt -0.203035 0.155183
vt -0.201693 0.157866
vt -0.199010 0.156525
vt 0.201693 0.157866
vt 0.203035 0.155183
vt 0.200352 0.153841
vt 0.199010 0.156525
s off
f 1/1/1 2/2/2 3/3/3
f 1/1/1 3/3/3 4/4/4
f 5/5/5 6/6/6 7/7/7
f 5/5/5 7/7/7 8/8/8
f 9/9/9 10/10/10 11/11/11
f 9/9/9 11/11/11 12/12/12
f 13/13/13 14/14/14 15/15/15
f 13/13/13 15/15/15 16/16/16
f 17/17/17 18/18/18 19/19/19
f 17/17/17 19/19/19 20/20/20
f 21/21/21 22/22/22 23/23/23
f 21/21/21 23/23/23 24/24/24
