# Exported using automatic converter by Erwin Coumans
mtllib model6.mtl
#object group1761773202_9

v 0.130346 -0.747425 -2.310542
v 0.129889 -0.719702 -2.310930
v 0.126970 -0.720135 -2.338501
v 0.127428 -0.747858 -2.338114
v 0.154542 -0.719721 -2.341426
v 0.157461 -0.719288 -2.313854
v 0.157918 -0.747011 -2.313467
v 0.154999 -0.747444 -2.341039
v 0.126970 -0.720135 -2.338501
v 0.154542 -0.719721 -2.341426
v 0.154999 -0.747444 -2.341039
v 0.127428 -0.747858 -2.338114
v 0.157918 -0.747011 -2.313467
v 0.157461 -0.719288 -2.313854
v 0.129889 -0.719702 -2.310930
v 0.130346 -0.747425 -2.310542
v 0.154999 -0.747444 -2.341039
v 0.157918 -0.747011 -2.313467
v 0.130346 -0.747425 -2.310542
v 0.127428 -0.747858 -2.338114
v 0.129889 -0.719702 -2.310930
v 0.157461 -0.719288 -2.313854
v 0.154542 -0.719721 -2.341426
v 0.126970 -0.720135 -2.338501
usemtl mat14

vn -0.994309 -0.014931 0.105482
vn -0.994309 -0.014931 0.105482
vn -0.994309 -0.014931 0.105482
vn -0.994309 -0.014931 0.105482
vn 0.994309 0.014931 -0.105482
vn 0.994309 0.014931 -0.105482
vn 0.994309 0.014931 -0.105482
vn 0.994309 0.014931 -0.105482
vn -0.105249 -0.015631 -0.994323
vn -0.105249 -0.015631 -0.994323
vn -0.105249 -0.015631 -0.994323
vn -0.105249 -0.015631 -0.994323
vn 0.105249 0.015631 0.994323
vn 0.105249 0.015631 0.994323
vn 0.105249 0.015631 0.994323
vn 0.105249 0.015631 0.994323
vn 0.016495 -0.999766 0.013971
vn 0.016495 -0.999766 0.013971
vn 0.016495 -0.999766 0.013971
vn 0.016495 -0.999766 0.013971
vn -0.016495 0.999766 -0.013971
vn -0.016495 0.999766 -0.013971
vn -0.016495 0.999766 -0.013971
vn -0.016495 0.999766 -0.013971

vt 0.139250 0.042221
vt 0.138019 0.044706
vt 0.140503 0.045937
vt 0.141735 0.043453
vt -0.140503 0.045937
vt -0.138019 0.044706
vt -0.139250 0.042221
vt -0.141735 0.043453
vt 0.017902 -0.011834
vt 0.019081 -0.009324
vt 0.021590 -0.010503
vt 0.020411 -0.013013
vt -0.021590 -0.010503
vt -0.019081 -0.009324
vt -0.017902 -0.011834
vt -0.020411 -0.013013
vt -0.142551 0.032862
vt -0.139850 0.032233
vt -0.140479 0.029532
vt -0.143180 0.030161
vt 0.140479 0.029532
vt 0.139850 0.032233
vt 0.142551 0.032862
vt 0.143180 0.030161
s off
f 1/1/1 2/2/2 3/3/3
f 1/1/1 3/3/3 4/4/4
f 5/5/5 6/6/6 7/7/7
f 5/5/5 7/7/7 8/8/8
f 9/9/9 10/10/10 11/11/11
f 9/9/9 11/11/11 12/12/12
f 13/13/13 14/14/14 15/15/15
f 13/13/13 15/15/15 16/16/16
f 17/17/17 18/18/18 19/19/19
f 17/17/17 19/19/19 20/20/20
f 21/21/21 22/22/22 23/23/23
f 21/21/21 23/23/23 24/24/24
