# Exported using automatic converter by Erwin Coumans
mtllib botlab.mtl
#object mesh1546500524

v -0.235951 0.333620 -0.277355
v -0.248565 0.331611 -0.283426
v -0.292495 0.325725 -0.212091
v -0.280430 0.327676 -0.204976
v -0.248565 0.331611 -0.283426
v -0.246527 0.317622 -0.283031
v -0.290418 0.311740 -0.211780
v -0.292495 0.325725 -0.212091
v -0.246527 0.317622 -0.283031
v -0.233913 0.319631 -0.276960
v -0.278352 0.313691 -0.204665
v -0.290418 0.311740 -0.211780
v -0.233913 0.319631 -0.276960
v -0.235951 0.333620 -0.277355
v -0.280430 0.327676 -0.204976
v -0.278352 0.313691 -0.204665
v -0.233913 0.319631 -0.276960
v -0.246527 0.317622 -0.283031
v -0.248565 0.331611 -0.283426
v -0.235951 0.333620 -0.277355
v -0.280430 0.327676 -0.204976
v -0.292495 0.325725 -0.212091
v -0.290418 0.311740 -0.211780
v -0.278352 0.313691 -0.204665
usemtl mat22

vn -0.152048 0.988298 -0.012189
vn -0.152048 0.988298 -0.012189
vn -0.152048 0.988298 -0.012189
vn -0.152048 0.988298 -0.012189
vn -0.838393 -0.136658 -0.527657
vn -0.838393 -0.136658 -0.527657
vn -0.838393 -0.136658 -0.527657
vn -0.838393 -0.136658 -0.527657
vn 0.152057 -0.988297 0.012177
vn 0.152057 -0.988297 0.012177
vn 0.152057 -0.988297 0.012177
vn 0.152057 -0.988297 0.012177
vn 0.838906 0.136713 0.526827
vn 0.838906 0.136713 0.526827
vn 0.838906 0.136713 0.526827
vn 0.838906 0.136713 0.526827
vn 0.428600 0.036920 -0.902740
vn 0.428600 0.036920 -0.902740
vn 0.428600 0.036920 -0.902740
vn 0.428600 0.036920 -0.902740
vn -0.500562 -0.055082 0.863947
vn -0.500562 -0.055082 0.863947
vn -0.500562 -0.055082 0.863947
vn -0.500562 -0.055082 0.863947

vt -0.046179 -0.058872
vt -0.045201 -0.059893
vt -0.050577 -0.066345
vt -0.051637 -0.065409
vt -0.109939 -0.036648
vt -0.108636 -0.037198
vt -0.111759 -0.044984
vt -0.113065 -0.044443
vt 0.045217 -0.059910
vt 0.046195 -0.058889
vt 0.051647 -0.065419
vt 0.050587 -0.066355
vt 0.108585 -0.037018
vt 0.109888 -0.036468
vt 0.113061 -0.044370
vt 0.111755 -0.044912
vt -0.082552 0.025141
vt -0.083127 0.023849
vt -0.084419 0.024424
vt -0.083844 0.025716
vt 0.080843 0.033662
vt 0.081454 0.032386
vt 0.080178 0.031776
vt 0.079568 0.033051
s off
f 1/1/1 2/2/2 3/3/3
f 1/1/1 3/3/3 4/4/4
f 5/5/5 6/6/6 7/7/7
f 5/5/5 7/7/7 8/8/8
f 9/9/9 10/10/10 11/11/11
f 9/9/9 11/11/11 12/12/12
f 13/13/13 14/14/14 15/15/15
f 13/13/13 15/15/15 16/16/16
f 17/17/17 18/18/18 19/19/19
f 17/17/17 19/19/19 20/20/20
f 21/21/21 22/22/22 23/23/23
f 21/21/21 23/23/23 24/24/24
