# Exported using automatic converter by Erwin Coumans
mtllib model6.mtl
#object mesh197400443

v 2.899509 -0.982004 -2.588940
v 2.835691 -0.983222 -2.591871
v 2.835524 -1.008137 -2.577878
v 2.899342 -1.006918 -2.574946
v 2.838511 -1.011189 -2.641632
v 2.838678 -0.986274 -2.655625
v 2.902496 -0.985056 -2.652694
v 2.902329 -1.009970 -2.638701
v 2.835524 -1.008137 -2.577878
v 2.838511 -1.011189 -2.641632
v 2.902329 -1.009970 -2.638701
v 2.899342 -1.006918 -2.574946
v 2.902496 -0.985056 -2.652694
v 2.838678 -0.986274 -2.655625
v 2.835691 -0.983222 -2.591871
v 2.899509 -0.982004 -2.588940
v 2.902329 -1.009970 -2.638701
v 2.902496 -0.985056 -2.652694
v 2.899509 -0.982004 -2.588940
v 2.899342 -1.006918 -2.574946
v 2.835691 -0.983222 -2.591871
v 2.838678 -0.986274 -2.655625
v 2.838511 -1.011189 -2.641632
v 2.835524 -1.008137 -2.577878
usemtl mat22

vn -0.049338 0.489349 0.870691
vn -0.049338 0.489349 0.870691
vn -0.049338 0.489349 0.870691
vn -0.049338 0.489349 0.870691
vn 0.049339 -0.489350 -0.870691
vn 0.049339 -0.489350 -0.870691
vn 0.049339 -0.489350 -0.870691
vn 0.049339 -0.489350 -0.870691
vn 0.016837 -0.998676 0.048604
vn 0.016837 -0.998676 0.048604
vn 0.016837 -0.998676 0.048604
vn 0.016837 -0.998676 0.048604
vn -0.016837 0.998676 -0.048604
vn -0.016837 0.998676 -0.048604
vn -0.016837 0.998676 -0.048604
vn -0.016837 0.998676 -0.048604
vn 0.998765 0.019072 0.045877
vn 0.998765 0.019072 0.045877
vn 0.998765 0.019072 0.045877
vn 0.998765 0.019072 0.045877
vn -0.998765 -0.019072 -0.045877
vn -0.998765 -0.019072 -0.045877
vn -0.998765 -0.019072 -0.045877
vn -0.998765 -0.019072 -0.045877

vt -0.096933 0.234189
vt -0.093559 0.228762
vt -0.095986 0.227253
vt -0.099359 0.232680
vt 0.093559 0.228762
vt 0.091132 0.230271
vt 0.094506 0.235697
vt 0.096932 0.234189
vt -0.083651 0.292853
vt -0.089620 0.295135
vt -0.087338 0.301104
vt -0.081369 0.298822
vt 0.088532 0.301560
vt 0.090813 0.295591
vt 0.084845 0.293310
vt 0.082563 0.299278
vt -0.179874 0.075773
vt -0.179347 0.078581
vt -0.174257 0.074720
vt -0.174783 0.071911
vt 0.174257 0.074720
vt 0.179347 0.078581
vt 0.179874 0.075773
vt 0.174783 0.071911
s off
f 1/1/1 2/2/2 3/3/3
f 1/1/1 3/3/3 4/4/4
f 5/5/5 6/6/6 7/7/7
f 5/5/5 7/7/7 8/8/8
f 9/9/9 10/10/10 11/11/11
f 9/9/9 11/11/11 12/12/12
f 13/13/13 14/14/14 15/15/15
f 13/13/13 15/15/15 16/16/16
f 17/17/17 18/18/18 19/19/19
f 17/17/17 19/19/19 20/20/20
f 21/21/21 22/22/22 23/23/23
f 21/21/21 23/23/23 24/24/24
