# Exported using automatic converter by Erwin Coumans
mtllib model6.mtl
#object mesh1945863255

v -0.379548 -0.926632 2.569463
v -0.375627 -0.929501 2.580167
v -0.382213 -0.923770 2.591348
v -0.386145 -0.920852 2.580660
v -0.375627 -0.929501 2.580167
v -0.364183 -0.926862 2.580673
v -0.370761 -0.921162 2.591842
v -0.382213 -0.923770 2.591348
v -0.364183 -0.926862 2.580673
v -0.361030 -0.922361 2.570281
v -0.367615 -0.916633 2.581460
v -0.370761 -0.921162 2.591842
v -0.361030 -0.922361 2.570281
v -0.370526 -0.922220 2.563352
v -0.377123 -0.916441 2.574549
v -0.367615 -0.916633 2.581460
v -0.370526 -0.922220 2.563352
v -0.379548 -0.926632 2.569463
v -0.386145 -0.920852 2.580660
v -0.377123 -0.916441 2.574549
v -0.407874 -0.950633 2.576330
v -0.413405 -0.955203 2.585642
v -0.405555 -0.956377 2.594314
v -0.395173 -0.952533 2.590361
v -0.396606 -0.948983 2.579247
v -0.386145 -0.920852 2.580660
v -0.382213 -0.923770 2.591348
v -0.370761 -0.921162 2.591842
v -0.367615 -0.916633 2.581460
v -0.377123 -0.916441 2.574549
v -0.377289 -0.939440 2.580914
v -0.373380 -0.942262 2.591636
v -0.375627 -0.929501 2.580167
v -0.379548 -0.926632 2.569463
v -0.373380 -0.942262 2.591636
v -0.361928 -0.939653 2.592130
v -0.364183 -0.926862 2.580673
v -0.375627 -0.929501 2.580167
v -0.361928 -0.939653 2.592130
v -0.358759 -0.935220 2.581714
v -0.361030 -0.922361 2.570281
v -0.364183 -0.926862 2.580673
v -0.358759 -0.935220 2.581714
v -0.368252 -0.935088 2.574782
v -0.370526 -0.922220 2.563352
v -0.361030 -0.922361 2.570281
v -0.368252 -0.935088 2.574782
v -0.377289 -0.939440 2.580914
v -0.379548 -0.926632 2.569463
v -0.370526 -0.922220 2.563352
v -0.387909 -0.952653 2.580985
v -0.384001 -0.955475 2.591706
v -0.373380 -0.942262 2.591636
v -0.377289 -0.939440 2.580914
v -0.384001 -0.955475 2.591706
v -0.372549 -0.952867 2.592201
v -0.361928 -0.939653 2.592130
v -0.373380 -0.942262 2.591636
v -0.372549 -0.952867 2.592201
v -0.369380 -0.948433 2.581785
v -0.358759 -0.935220 2.581714
v -0.361928 -0.939653 2.592130
v -0.369380 -0.948433 2.581785
v -0.378873 -0.948301 2.574852
v -0.368252 -0.935088 2.574782
v -0.358759 -0.935220 2.581714
v -0.378873 -0.948301 2.574852
v -0.387909 -0.952653 2.580985
v -0.377289 -0.939440 2.580914
v -0.368252 -0.935088 2.574782
v -0.382055 -0.950362 2.580221
v -0.380550 -0.954124 2.591256
v -0.384001 -0.955475 2.591706
v -0.387909 -0.952653 2.580985
v -0.380550 -0.954124 2.591256
v -0.390305 -0.959816 2.594516
v -0.372549 -0.952867 2.592201
v -0.384001 -0.955475 2.591706
v -0.390305 -0.959816 2.594516
v -0.397840 -0.959571 2.585496
v -0.369380 -0.948433 2.581785
v -0.372549 -0.952867 2.592201
v -0.397840 -0.959571 2.585496
v -0.392741 -0.953728 2.576661
v -0.378873 -0.948301 2.574852
v -0.369380 -0.948433 2.581785
v -0.392741 -0.953728 2.576661
v -0.382055 -0.950362 2.580221
v -0.387909 -0.952653 2.580985
v -0.378873 -0.948301 2.574852
v -0.396606 -0.948983 2.579247
v -0.395173 -0.952533 2.590361
v -0.380550 -0.954124 2.591256
v -0.382055 -0.950362 2.580221
v -0.395173 -0.952533 2.590361
v -0.405555 -0.956377 2.594314
v -0.390305 -0.959816 2.594516
v -0.380550 -0.954124 2.591256
v -0.405555 -0.956377 2.594314
v -0.413405 -0.955203 2.585642
v -0.397840 -0.959571 2.585496
v -0.390305 -0.959816 2.594516
v -0.413405 -0.955203 2.585642
v -0.407874 -0.950633 2.576330
v -0.392741 -0.953728 2.576661
v -0.397840 -0.959571 2.585496
v -0.407874 -0.950633 2.576330
v -0.396606 -0.948983 2.579247
v -0.382055 -0.950362 2.580221
v -0.392741 -0.953728 2.576661
usemtl mat15

vn -0.634305 -0.772716 0.023819
vn -0.634305 -0.772716 0.023819
vn -0.634305 -0.772716 0.023819
vn -0.634305 -0.772716 0.023819
vn 0.168163 -0.833955 0.525586
vn 0.168163 -0.833955 0.525586
vn 0.168163 -0.833955 0.525586
vn 0.168163 -0.833955 0.525586
vn 0.883861 0.267048 0.384024
vn 0.883861 0.267048 0.384024
vn 0.883861 0.267048 0.384024
vn 0.883861 0.267048 0.384024
vn 0.250477 0.913020 -0.321956
vn 0.250477 0.913020 -0.321956
vn 0.250477 0.913020 -0.321956
vn 0.250477 0.913020 -0.321956
vn -0.641084 0.459376 -0.614805
vn -0.641084 0.459376 -0.614805
vn -0.641084 0.459376 -0.614805
vn -0.641084 0.459376 -0.614805
vn -0.218280 0.921108 0.322356
vn -0.218280 0.921108 0.322356
vn -0.218280 0.921108 0.322356
vn -0.218280 0.921108 0.322356
vn -0.218280 0.921108 0.322356
vn -0.222995 0.916451 0.332251
vn -0.222995 0.916451 0.332251
vn -0.222995 0.916451 0.332251
vn -0.222995 0.916451 0.332251
vn -0.222995 0.916451 0.332251
vn -0.907486 0.180208 0.379466
vn -0.907486 0.180208 0.379466
vn -0.907486 0.180208 0.379466
vn -0.907486 0.180208 0.379466
vn -0.179201 0.639314 0.747773
vn -0.179201 0.639314 0.747773
vn -0.179201 0.639314 0.747773
vn -0.179201 0.639314 0.747773
vn 0.724510 0.525691 0.445795
vn 0.724510 0.525691 0.445795
vn 0.724510 0.525691 0.445795
vn 0.724510 0.525691 0.445795
vn 0.496450 -0.525998 -0.690553
vn 0.496450 -0.525998 -0.690553
vn 0.496450 -0.525998 -0.690553
vn 0.496450 -0.525998 -0.690553
vn -0.163229 -0.672293 -0.722066
vn -0.163229 -0.672293 -0.722066
vn -0.163229 -0.672293 -0.722066
vn -0.163229 -0.672293 -0.722066
vn -0.709962 0.572861 0.409614
vn -0.709962 0.572861 0.409614
vn -0.709962 0.572861 0.409614
vn -0.709962 0.572861 0.409614
vn -0.054224 0.048913 0.997330
vn -0.054224 0.048913 0.997330
vn -0.054224 0.048913 0.997330
vn -0.054224 0.048913 0.997330
vn 0.779000 -0.626324 -0.029610
vn 0.779000 -0.626324 -0.029610
vn 0.779000 -0.626324 -0.029610
vn 0.779000 -0.626324 -0.029610
vn 0.528799 -0.428964 -0.732367
vn 0.528799 -0.428964 -0.732367
vn 0.528799 -0.428964 -0.732367
vn 0.528799 -0.428964 -0.732367
vn -0.637559 0.509388 -0.577964
vn -0.637559 0.509388 -0.577964
vn -0.637559 0.509388 -0.577964
vn -0.637559 0.509388 -0.577964
vn 0.302892 -0.888655 -0.344308
vn 0.302892 -0.888655 -0.344308
vn 0.302892 -0.888655 -0.344308
vn 0.302892 -0.888655 -0.344308
vn -0.191742 0.714252 0.673111
vn -0.191742 0.714252 0.673111
vn -0.191742 0.714252 0.673111
vn -0.191742 0.714252 0.673111
vn 0.316068 -0.903789 -0.288559
vn 0.316068 -0.903789 -0.288559
vn 0.316068 -0.903789 -0.288559
vn 0.316068 -0.903789 -0.288559
vn 0.286026 -0.866912 -0.408231
vn 0.286026 -0.866912 -0.408231
vn 0.286026 -0.866912 -0.408231
vn 0.286026 -0.866912 -0.408231
vn -0.342819 0.926910 0.152686
vn -0.342819 0.926910 0.152686
vn -0.342819 0.926910 0.152686
vn -0.342819 0.926910 0.152686
vn 0.077233 0.949756 0.303314
vn 0.077233 0.949756 0.303314
vn 0.077233 0.949756 0.303314
vn 0.077233 0.949756 0.303314
vn 0.056849 0.523186 0.850321
vn 0.056849 0.523186 0.850321
vn 0.056849 0.523186 0.850321
vn 0.056849 0.523186 0.850321
vn -0.243574 -0.960481 0.134715
vn -0.243574 -0.960481 0.134715
vn -0.243574 -0.960481 0.134715
vn -0.243574 -0.960481 0.134715
vn -0.190823 -0.799006 -0.570243
vn -0.190823 -0.799006 -0.570243
vn -0.190823 -0.799006 -0.570243
vn -0.190823 -0.799006 -0.570243
vn 0.119021 0.548100 -0.827901
vn 0.119021 0.548100 -0.827901
vn 0.119021 0.548100 -0.827901
vn 0.119021 0.548100 -0.827901

vt 0.263026 -0.223138
vt 0.264176 -0.223378
vt 0.264565 -0.224742
vt 0.263413 -0.224507
vt 0.266298 -0.113609
vt 0.266519 -0.112455
vt 0.267745 -0.113163
vt 0.267527 -0.114318
vt 0.063208 -0.345108
vt 0.063263 -0.343934
vt 0.064275 -0.344928
vt 0.064217 -0.346102
vt -0.300042 -0.088554
vt -0.299208 -0.089382
vt -0.300291 -0.090304
vt -0.301123 -0.089473
vt -0.209120 -0.215336
vt -0.209322 -0.216494
vt -0.210579 -0.217160
vt -0.210377 -0.216001
vt -0.285764 -0.196657
vt -0.286450 -0.197612
vt -0.287570 -0.197255
vt -0.287577 -0.196080
vt -0.286461 -0.195710
vt -0.285593 -0.193339
vt -0.286763 -0.193455
vt -0.287234 -0.192377
vt -0.286355 -0.191597
vt -0.285341 -0.192191
vt -0.299392 -0.055873
vt -0.300551 -0.056065
vt -0.299304 -0.054866
vt -0.298145 -0.054669
vt -0.209149 -0.158200
vt -0.209618 -0.157122
vt -0.208037 -0.156416
vt -0.207569 -0.157495
vt -0.073897 -0.339876
vt -0.073473 -0.338780
vt -0.072047 -0.337790
vt -0.072477 -0.338885
vt 0.239373 -0.087408
vt 0.238393 -0.088058
vt 0.236837 -0.087288
vt 0.237817 -0.086639
vt 0.173398 -0.230166
vt 0.173536 -0.231333
vt 0.171959 -0.230616
vt 0.171817 -0.229449
vt -0.293223 -0.119961
vt -0.294391 -0.120091
vt -0.294607 -0.118410
vt -0.293439 -0.118280
vt -0.033201 -0.074465
vt -0.033508 -0.073330
vt -0.032836 -0.071774
vt -0.032529 -0.072909
vt 0.303795 -0.186140
vt 0.302981 -0.185291
vt 0.303517 -0.183682
vt 0.304330 -0.184531
vt 0.225629 -0.058034
vt 0.224670 -0.058713
vt 0.224503 -0.057026
vt 0.225462 -0.056347
vt -0.221442 -0.213234
vt -0.221661 -0.214389
vt -0.222475 -0.212902
vt -0.222256 -0.211747
vt 0.288154 -0.185840
vt 0.289270 -0.186208
vt 0.289194 -0.186573
vt 0.288024 -0.186460
vt -0.230241 -0.171300
vt -0.230267 -0.172476
vt -0.230645 -0.170592
vt -0.230167 -0.171666
vt 0.294684 -0.188098
vt 0.293564 -0.188455
vt 0.294195 -0.185442
vt 0.295078 -0.186218
vt 0.280552 -0.186326
vt 0.279863 -0.185373
vt 0.280173 -0.183905
vt 0.281188 -0.183313
vt -0.301776 -0.187387
vt -0.302472 -0.186440
vt -0.302346 -0.187061
vt -0.302074 -0.185917
vt -0.273232 -0.223018
vt -0.274336 -0.223420
vt -0.275121 -0.222172
vt -0.274013 -0.221779
vt -0.144768 -0.189156
vt -0.144678 -0.190325
vt -0.145737 -0.189178
vt -0.145686 -0.188006
vt 0.305737 -0.152441
vt 0.304676 -0.152945
vt 0.305124 -0.151392
vt 0.306213 -0.150952
vt 0.210649 -0.249607
vt 0.210080 -0.248581
vt 0.211058 -0.247386
vt 0.211693 -0.248374
vt -0.156136 0.002537
vt -0.156164 0.003712
vt -0.155766 0.005122
vt -0.155550 0.003966
s off
f 1/1/1 2/2/2 3/3/3
f 1/1/1 3/3/3 4/4/4
f 5/5/5 6/6/6 7/7/7
f 5/5/5 7/7/7 8/8/8
f 9/9/9 10/10/10 11/11/11
f 9/9/9 11/11/11 12/12/12
f 13/13/13 14/14/14 15/15/15
f 13/13/13 15/15/15 16/16/16
f 17/17/17 18/18/18 19/19/19
f 17/17/17 19/19/19 20/20/20
f 21/21/21 22/22/22 23/23/23
f 21/21/21 23/23/23 24/24/24
f 21/21/21 24/24/24 25/25/25
f 26/26/26 27/27/27 28/28/28
f 26/26/26 28/28/28 29/29/29
f 26/26/26 29/29/29 30/30/30
f 31/31/31 32/32/32 33/33/33
f 31/31/31 33/33/33 34/34/34
f 35/35/35 36/36/36 37/37/37
f 35/35/35 37/37/37 38/38/38
f 39/39/39 40/40/40 41/41/41
f 39/39/39 41/41/41 42/42/42
f 43/43/43 44/44/44 45/45/45
f 43/43/43 45/45/45 46/46/46
f 47/47/47 48/48/48 49/49/49
f 47/47/47 49/49/49 50/50/50
f 51/51/51 52/52/52 53/53/53
f 51/51/51 53/53/53 54/54/54
f 55/55/55 56/56/56 57/57/57
f 55/55/55 57/57/57 58/58/58
f 59/59/59 60/60/60 61/61/61
f 59/59/59 61/61/61 62/62/62
f 63/63/63 64/64/64 65/65/65
f 63/63/63 65/65/65 66/66/66
f 67/67/67 68/68/68 69/69/69
f 67/67/67 69/69/69 70/70/70
f 71/71/71 72/72/72 73/73/73
f 71/71/71 73/73/73 74/74/74
f 75/75/75 76/76/76 77/77/77
f 75/75/75 77/77/77 78/78/78
f 79/79/79 80/80/80 81/81/81
f 79/79/79 81/81/81 82/82/82
f 83/83/83 84/84/84 85/85/85
f 83/83/83 85/85/85 86/86/86
f 87/87/87 88/88/88 89/89/89
f 87/87/87 89/89/89 90/90/90
f 91/91/91 92/92/92 93/93/93
f 91/91/91 93/93/93 94/94/94
f 95/95/95 96/96/96 97/97/97
f 95/95/95 97/97/97 98/98/98
f 99/99/99 100/100/100 101/101/101
f 99/99/99 101/101/101 102/102/102
f 103/103/103 104/104/104 105/105/105
f 103/103/103 105/105/105 106/106/106
f 107/107/107 108/108/108 109/109/109
f 107/107/107 109/109/109 110/110/110
