# Exported using automatic converter by Erwin Coumans
mtllib model6.mtl
#object mesh1768158497

v 2.921235 -0.709671 -0.472791
v 2.885975 -0.709956 -0.443069
v 2.885908 -0.659048 -0.442661
v 2.921168 -0.658763 -0.472383
v 2.885975 -0.709956 -0.443069
v 2.870300 -0.710324 -0.399700
v 2.870233 -0.659417 -0.399291
v 2.885908 -0.659048 -0.442661
v 2.870300 -0.710324 -0.399700
v 2.878410 -0.710677 -0.354303
v 2.878343 -0.659770 -0.353895
v 2.870233 -0.659417 -0.399291
v 2.878410 -0.710677 -0.354303
v 2.908133 -0.710921 -0.319043
v 2.908066 -0.660013 -0.318635
v 2.878343 -0.659770 -0.353895
v 2.908133 -0.710921 -0.319043
v 2.951504 -0.710989 -0.303368
v 2.951437 -0.660082 -0.302960
v 2.908066 -0.660013 -0.318635
v 2.951504 -0.710989 -0.303368
v 2.996902 -0.710864 -0.311478
v 2.996835 -0.659957 -0.311069
v 2.951437 -0.660082 -0.302960
v 2.996902 -0.710864 -0.311478
v 3.032163 -0.710580 -0.341199
v 3.032095 -0.659672 -0.340791
v 2.996835 -0.659957 -0.311069
v 3.032163 -0.710580 -0.341199
v 3.047838 -0.710211 -0.384569
v 3.047771 -0.659304 -0.384161
v 3.032095 -0.659672 -0.340791
v 3.039727 -0.709858 -0.429966
v 3.010005 -0.709614 -0.465225
v 3.009937 -0.658707 -0.464817
v 3.039660 -0.658951 -0.429558
v 3.010005 -0.709614 -0.465225
v 2.966633 -0.709546 -0.480900
v 2.966566 -0.658639 -0.480492
v 3.009937 -0.658707 -0.464817
v 2.966633 -0.709546 -0.480900
v 2.921235 -0.709671 -0.472791
v 2.921168 -0.658763 -0.472383
v 2.966566 -0.658639 -0.480492
v 2.966416 -0.544097 -0.479574
v 3.009787 -0.544165 -0.463899
v 3.009887 -0.620526 -0.464511
v 2.966516 -0.620458 -0.480186
v 3.009787 -0.544165 -0.463899
v 3.039510 -0.544409 -0.428639
v 3.039610 -0.620770 -0.429252
v 3.009887 -0.620526 -0.464511
v 3.047621 -0.544762 -0.383242
v 3.031945 -0.545131 -0.339873
v 3.032045 -0.621492 -0.340485
v 3.047720 -0.621123 -0.383855
v 3.031945 -0.545131 -0.339873
v 2.996685 -0.545415 -0.310151
v 2.996785 -0.621776 -0.310764
v 3.032045 -0.621492 -0.340485
v 2.996685 -0.545415 -0.310151
v 2.951287 -0.545540 -0.302041
v 2.951387 -0.621901 -0.302654
v 2.996785 -0.621776 -0.310764
v 2.951287 -0.545540 -0.302041
v 2.907916 -0.545472 -0.317717
v 2.908016 -0.621833 -0.318329
v 2.951387 -0.621901 -0.302654
v 2.907916 -0.545472 -0.317717
v 2.878193 -0.545228 -0.352976
v 2.878293 -0.621589 -0.353589
v 2.908016 -0.621833 -0.318329
v 2.878193 -0.545228 -0.352976
v 2.870083 -0.544875 -0.398373
v 2.870183 -0.621236 -0.398986
v 2.878293 -0.621589 -0.353589
v 2.870083 -0.544875 -0.398373
v 2.885757 -0.544506 -0.441743
v 2.885858 -0.620868 -0.442355
v 2.870183 -0.621236 -0.398986
v 2.885757 -0.544506 -0.441743
v 2.921018 -0.544222 -0.471464
v 2.921118 -0.620583 -0.472077
v 2.885858 -0.620868 -0.442355
v 2.921018 -0.544222 -0.471464
v 2.966416 -0.544097 -0.479574
v 2.966516 -0.620458 -0.480186
v 2.921118 -0.620583 -0.472077
v 2.966299 -0.455009 -0.478860
v 3.009670 -0.455077 -0.463184
v 3.009787 -0.544165 -0.463899
v 2.966416 -0.544097 -0.479574
v 3.009670 -0.455077 -0.463184
v 3.039393 -0.455321 -0.427925
v 3.039510 -0.544409 -0.428639
v 3.009787 -0.544165 -0.463899
v 3.047503 -0.455674 -0.382528
v 3.031828 -0.456042 -0.339159
v 3.031945 -0.545131 -0.339873
v 3.047621 -0.544762 -0.383242
v 3.031828 -0.456042 -0.339159
v 2.996568 -0.456327 -0.309437
v 2.996685 -0.545415 -0.310151
v 3.031945 -0.545131 -0.339873
v 2.996568 -0.456327 -0.309437
v 2.951169 -0.456452 -0.301327
v 2.951287 -0.545540 -0.302041
v 2.996685 -0.545415 -0.310151
v 2.951169 -0.456452 -0.301327
v 2.907799 -0.456384 -0.317003
v 2.907916 -0.545472 -0.317717
v 2.951287 -0.545540 -0.302041
v 2.878076 -0.456140 -0.352262
v 2.869966 -0.455787 -0.397659
v 2.870083 -0.544875 -0.398373
v 2.878193 -0.545228 -0.352976
v 2.869966 -0.455787 -0.397659
v 2.885640 -0.455418 -0.441028
v 2.885757 -0.544506 -0.441743
v 2.870083 -0.544875 -0.398373
v 2.885640 -0.455418 -0.441028
v 2.920901 -0.455134 -0.470750
v 2.921018 -0.544222 -0.471464
v 2.885757 -0.544506 -0.441743
v 2.920901 -0.455134 -0.470750
v 2.966299 -0.455009 -0.478860
v 2.966416 -0.544097 -0.479574
v 2.921018 -0.544222 -0.471464
v 2.918404 -0.455936 -0.371177
v 2.910848 -0.455997 -0.364809
v 2.910797 -0.417816 -0.364502
v 2.918353 -0.417755 -0.370871
v 2.910848 -0.455997 -0.364809
v 2.907489 -0.456075 -0.355515
v 2.907439 -0.417895 -0.355209
v 2.910797 -0.417816 -0.364502
v 2.907489 -0.456075 -0.355515
v 2.909227 -0.456151 -0.345787
v 2.909176 -0.417971 -0.345481
v 2.907439 -0.417895 -0.355209
v 2.909227 -0.456151 -0.345787
v 2.915596 -0.456203 -0.338232
v 2.915545 -0.418023 -0.337925
v 2.909176 -0.417971 -0.345481
v 2.915596 -0.456203 -0.338232
v 2.924890 -0.456218 -0.334873
v 2.924839 -0.418038 -0.334567
v 2.915545 -0.418023 -0.337925
v 2.924890 -0.456218 -0.334873
v 2.934618 -0.456191 -0.336610
v 2.934567 -0.418011 -0.336304
v 2.924839 -0.418038 -0.334567
v 2.934618 -0.456191 -0.336610
v 2.942174 -0.456130 -0.342979
v 2.942123 -0.417950 -0.342673
v 2.934567 -0.418011 -0.336304
v 2.942174 -0.456130 -0.342979
v 2.945533 -0.456051 -0.352273
v 2.945482 -0.417871 -0.351967
v 2.942123 -0.417950 -0.342673
v 2.945533 -0.456051 -0.352273
v 2.943795 -0.455976 -0.362001
v 2.943744 -0.417795 -0.361695
v 2.945482 -0.417871 -0.351967
v 2.943795 -0.455976 -0.362001
v 2.937426 -0.455923 -0.369556
v 2.937375 -0.417743 -0.369250
v 2.943744 -0.417795 -0.361695
v 2.937426 -0.455923 -0.369556
v 2.928132 -0.455909 -0.372915
v 2.928081 -0.417728 -0.372609
v 2.937375 -0.417743 -0.369250
v 2.928132 -0.455909 -0.372915
v 2.918404 -0.455936 -0.371177
v 2.918353 -0.417755 -0.370871
v 2.928081 -0.417728 -0.372609
v 2.918353 -0.417755 -0.370871
v 2.910797 -0.417816 -0.364502
v 2.907439 -0.417895 -0.355209
v 2.909176 -0.417971 -0.345481
v 2.915545 -0.418023 -0.337925
v 2.924839 -0.418038 -0.334567
v 2.934567 -0.418011 -0.336304
v 2.942123 -0.417950 -0.342673
v 2.945482 -0.417871 -0.351967
v 2.943744 -0.417795 -0.361695
v 2.937375 -0.417743 -0.369250
v 2.928081 -0.417728 -0.372609
v 2.928132 -0.455909 -0.372915
v 2.937426 -0.455923 -0.369556
v 2.943795 -0.455976 -0.362001
v 2.945533 -0.456051 -0.352273
v 2.942174 -0.456130 -0.342979
v 2.934618 -0.456191 -0.336610
v 2.924890 -0.456218 -0.334873
v 2.915596 -0.456203 -0.338232
v 2.909227 -0.456151 -0.345787
v 2.907489 -0.456075 -0.355515
v 2.910848 -0.455997 -0.364809
v 2.918404 -0.455936 -0.371177
usemtl mat13

vn -0.644517 0.005281 -0.764572
vn -0.644517 0.005281 -0.764572
vn -0.644517 0.005281 -0.764572
vn -0.644517 0.005281 -0.764572
vn -0.940461 0.001489 -0.339898
vn -0.940461 0.001489 -0.339898
vn -0.940461 0.001489 -0.339898
vn -0.940461 0.001489 -0.339898
vn -0.984414 -0.002709 0.175848
vn -0.984414 -0.002709 0.175848
vn -0.984414 -0.002709 0.175848
vn -0.984414 -0.002709 0.175848
vn -0.764591 -0.006173 0.644487
vn -0.764591 -0.006173 0.644487
vn -0.764591 -0.006173 0.644487
vn -0.764591 -0.006173 0.644487
vn -0.339903 -0.007986 0.940427
vn -0.339903 -0.007986 0.940427
vn -0.339903 -0.007986 0.940427
vn -0.339903 -0.007986 0.940427
vn 0.175862 -0.007664 0.984385
vn 0.175862 -0.007664 0.984385
vn 0.175862 -0.007664 0.984385
vn 0.175862 -0.007664 0.984385
vn 0.644517 -0.005279 0.764572
vn 0.644517 -0.005279 0.764572
vn 0.644517 -0.005279 0.764572
vn 0.644517 -0.005279 0.764572
vn 0.940461 -0.001482 0.339898
vn 0.940461 -0.001482 0.339898
vn 0.940461 -0.001482 0.339898
vn 0.940461 -0.001482 0.339898
vn 0.764591 0.006177 -0.644487
vn 0.764591 0.006177 -0.644487
vn 0.764591 0.006177 -0.644487
vn 0.764591 0.006177 -0.644487
vn 0.339903 0.007989 -0.940427
vn 0.339903 0.007989 -0.940427
vn 0.339903 0.007989 -0.940427
vn 0.339903 0.007989 -0.940427
vn -0.175862 0.007656 -0.984385
vn -0.175862 0.007656 -0.984385
vn -0.175862 0.007656 -0.984385
vn -0.175862 0.007656 -0.984385
vn 0.339902 0.007990 -0.940427
vn 0.339902 0.007990 -0.940427
vn 0.339902 0.007990 -0.940427
vn 0.339902 0.007990 -0.940427
vn 0.764591 0.006173 -0.644487
vn 0.764591 0.006173 -0.644487
vn 0.764591 0.006173 -0.644487
vn 0.764591 0.006173 -0.644487
vn 0.940460 -0.001495 0.339901
vn 0.940460 -0.001495 0.339901
vn 0.940460 -0.001495 0.339901
vn 0.940460 -0.001495 0.339901
vn 0.644518 -0.005289 0.764571
vn 0.644518 -0.005289 0.764571
vn 0.644518 -0.005289 0.764571
vn 0.644518 -0.005289 0.764571
vn 0.175864 -0.007667 0.984385
vn 0.175864 -0.007667 0.984385
vn 0.175864 -0.007667 0.984385
vn 0.175864 -0.007667 0.984385
vn -0.339906 -0.007990 0.940425
vn -0.339906 -0.007990 0.940425
vn -0.339906 -0.007990 0.940425
vn -0.339906 -0.007990 0.940425
vn -0.764591 -0.006171 0.644487
vn -0.764591 -0.006171 0.644487
vn -0.764591 -0.006171 0.644487
vn -0.764591 -0.006171 0.644487
vn -0.984414 -0.002700 0.175848
vn -0.984414 -0.002700 0.175848
vn -0.984414 -0.002700 0.175848
vn -0.984414 -0.002700 0.175848
vn -0.940462 0.001494 -0.339897
vn -0.940462 0.001494 -0.339897
vn -0.940462 0.001494 -0.339897
vn -0.940462 0.001494 -0.339897
vn -0.644516 0.005289 -0.764572
vn -0.644516 0.005289 -0.764572
vn -0.644516 0.005289 -0.764572
vn -0.644516 0.005289 -0.764572
vn -0.175862 0.007666 -0.984385
vn -0.175862 0.007666 -0.984385
vn -0.175862 0.007666 -0.984385
vn -0.175862 0.007666 -0.984385
vn 0.339904 0.007986 -0.940426
vn 0.339904 0.007986 -0.940426
vn 0.339904 0.007986 -0.940426
vn 0.339904 0.007986 -0.940426
vn 0.764591 0.006173 -0.644487
vn 0.764591 0.006173 -0.644487
vn 0.764591 0.006173 -0.644487
vn 0.764591 0.006173 -0.644487
vn 0.940461 -0.001488 0.339898
vn 0.940461 -0.001488 0.339898
vn 0.940461 -0.001488 0.339898
vn 0.940461 -0.001488 0.339898
vn 0.644517 -0.005281 0.764572
vn 0.644517 -0.005281 0.764572
vn 0.644517 -0.005281 0.764572
vn 0.644517 -0.005281 0.764572
vn 0.175864 -0.007660 0.984385
vn 0.175864 -0.007660 0.984385
vn 0.175864 -0.007660 0.984385
vn 0.175864 -0.007660 0.984385
vn -0.339910 -0.007985 0.940424
vn -0.339910 -0.007985 0.940424
vn -0.339910 -0.007985 0.940424
vn -0.339910 -0.007985 0.940424
vn -0.984414 -0.002703 0.175848
vn -0.984414 -0.002703 0.175848
vn -0.984414 -0.002703 0.175848
vn -0.984414 -0.002703 0.175848
vn -0.940463 0.001488 -0.339893
vn -0.940463 0.001488 -0.339893
vn -0.940463 0.001488 -0.339893
vn -0.940463 0.001488 -0.339893
vn -0.644516 0.005281 -0.764573
vn -0.644516 0.005281 -0.764573
vn -0.644516 0.005281 -0.764573
vn -0.644516 0.005281 -0.764573
vn -0.175861 0.007659 -0.984385
vn -0.175861 0.007659 -0.984385
vn -0.175861 0.007659 -0.984385
vn -0.175861 0.007659 -0.984385
vn -0.424660 0.006698 -0.905328
vn -0.424660 0.006698 -0.905328
vn -0.424660 0.006698 -0.905328
vn -0.424660 0.006698 -0.905328
vn -0.820442 0.003502 -0.571719
vn -0.820442 0.003502 -0.571719
vn -0.820442 0.003502 -0.571719
vn -0.820442 0.003502 -0.571719
vn -0.996388 -0.000633 -0.084918
vn -0.996388 -0.000633 -0.084918
vn -0.996388 -0.000633 -0.084918
vn -0.996388 -0.000633 -0.084918
vn -0.905352 -0.004598 0.424637
vn -0.905352 -0.004598 0.424637
vn -0.905352 -0.004598 0.424637
vn -0.905352 -0.004598 0.424637
vn -0.571728 -0.007331 0.820410
vn -0.571728 -0.007331 0.820410
vn -0.571728 -0.007331 0.820410
vn -0.571728 -0.007331 0.820410
vn -0.084910 -0.008100 0.996356
vn -0.084910 -0.008100 0.996356
vn -0.084910 -0.008100 0.996356
vn -0.084910 -0.008100 0.996356
vn 0.424660 -0.006698 0.905328
vn 0.424660 -0.006698 0.905328
vn 0.424660 -0.006698 0.905328
vn 0.424660 -0.006698 0.905328
vn 0.820442 -0.003502 0.571719
vn 0.820442 -0.003502 0.571719
vn 0.820442 -0.003502 0.571719
vn 0.820442 -0.003502 0.571719
vn 0.996388 0.000633 0.084918
vn 0.996388 0.000633 0.084918
vn 0.996388 0.000633 0.084918
vn 0.996388 0.000633 0.084918
vn 0.905352 0.004598 -0.424637
vn 0.905352 0.004598 -0.424637
vn 0.905352 0.004598 -0.424637
vn 0.905352 0.004598 -0.424637
vn 0.571728 0.007331 -0.820410
vn 0.571728 0.007331 -0.820410
vn 0.571728 0.007331 -0.820410
vn 0.571728 0.007331 -0.820410
vn 0.084910 0.008100 -0.996356
vn 0.084910 0.008100 -0.996356
vn 0.084910 0.008100 -0.996356
vn 0.084910 0.008100 -0.996356
vn -0.001318 0.999967 0.008017
vn -0.001318 0.999967 0.008017
vn -0.001318 0.999967 0.008017
vn -0.001318 0.999967 0.008017
vn -0.001318 0.999967 0.008017
vn -0.001318 0.999967 0.008017
vn -0.001318 0.999967 0.008017
vn -0.001318 0.999967 0.008017
vn -0.001318 0.999967 0.008017
vn -0.001318 0.999967 0.008017
vn -0.001318 0.999967 0.008017
vn -0.001318 0.999967 0.008017
vn 0.001318 -0.999967 -0.008017
vn 0.001318 -0.999967 -0.008017
vn 0.001318 -0.999967 -0.008017
vn 0.001318 -0.999967 -0.008017
vn 0.001318 -0.999967 -0.008017
vn 0.001318 -0.999967 -0.008017
vn 0.001318 -0.999967 -0.008017
vn 0.001318 -0.999967 -0.008017
vn 0.001318 -0.999967 -0.008017
vn 0.001318 -0.999967 -0.008017
vn 0.001318 -0.999967 -0.008017
vn 0.001318 -0.999967 -0.008017

vt 0.097040 0.144682
vt 0.094988 0.140552
vt 0.090429 0.142818
vt 0.092481 0.146948
vt 0.044947 0.023400
vt 0.042229 0.019674
vt 0.038116 0.022674
vt 0.040834 0.026400
vt -0.080253 -0.053017
vt -0.084590 -0.054587
vt -0.086323 -0.049800
vt -0.081987 -0.048230
vt -0.179323 0.105319
vt -0.183023 0.108072
vt -0.179985 0.112157
vt -0.176284 0.109404
vt -0.156043 0.214080
vt -0.158433 0.218024
vt -0.154079 0.220663
vt -0.151689 0.216718
vt -0.127154 0.216224
vt -0.129125 0.220393
vt -0.124523 0.222569
vt -0.122552 0.218400
vt -0.094989 0.140552
vt -0.097041 0.144682
vt -0.092482 0.146947
vt -0.090430 0.142817
vt -0.042231 0.019674
vt -0.044948 0.023399
vt -0.040835 0.026399
vt -0.038118 0.022674
vt 0.183023 0.108072
vt 0.179323 0.105319
vt 0.176285 0.109404
vt 0.179985 0.112157
vt 0.158432 0.218025
vt 0.156043 0.214080
vt 0.151689 0.216718
vt 0.154078 0.220663
vt 0.129126 0.220392
vt 0.127155 0.216223
vt 0.122553 0.218400
vt 0.124524 0.222569
vt 0.141892 0.222654
vt 0.144282 0.226598
vt 0.150813 0.222641
vt 0.148423 0.218697
vt 0.169448 0.118595
vt 0.173148 0.121347
vt 0.177706 0.115220
vt 0.174006 0.112468
vt -0.031579 0.033152
vt -0.028861 0.029426
vt -0.035031 0.024926
vt -0.037748 0.028652
vt -0.082222 0.152045
vt -0.080170 0.147915
vt -0.087009 0.144517
vt -0.089061 0.148647
vt -0.114167 0.227466
vt -0.112196 0.223297
vt -0.119100 0.220032
vt -0.121071 0.224202
vt -0.144282 0.226598
vt -0.141892 0.222654
vt -0.148423 0.218697
vt -0.150813 0.222641
vt -0.173148 0.121347
vt -0.169448 0.118595
vt -0.174006 0.112467
vt -0.177706 0.115220
vt -0.090224 -0.039027
vt -0.085888 -0.037457
vt -0.083288 -0.044637
vt -0.087624 -0.046208
vt 0.028861 0.029425
vt 0.031578 0.033151
vt 0.037748 0.028651
vt 0.035030 0.024925
vt 0.080170 0.147915
vt 0.082222 0.152045
vt 0.089061 0.148647
vt 0.087009 0.144517
vt 0.112196 0.223297
vt 0.114168 0.227466
vt 0.121071 0.224201
vt 0.119100 0.220032
vt 0.134273 0.227270
vt 0.136662 0.231215
vt 0.144282 0.226598
vt 0.141892 0.222654
vt 0.164131 0.125743
vt 0.167831 0.128495
vt 0.173148 0.121347
vt 0.169448 0.118595
vt -0.024382 0.038400
vt -0.021664 0.034674
vt -0.028862 0.029424
vt -0.031580 0.033150
vt -0.074245 0.156009
vt -0.072193 0.151879
vt -0.080171 0.147914
vt -0.082223 0.152045
vt -0.106114 0.231274
vt -0.104143 0.227104
vt -0.112197 0.223296
vt -0.114168 0.227465
vt -0.136663 0.231214
vt -0.134273 0.227270
vt -0.141893 0.222653
vt -0.144283 0.226598
vt -0.093257 -0.030651
vt -0.088921 -0.029081
vt -0.085887 -0.037458
vt -0.090224 -0.039028
vt 0.021663 0.034673
vt 0.024381 0.038399
vt 0.031579 0.033149
vt 0.028861 0.029423
vt 0.072193 0.151879
vt 0.074245 0.156009
vt 0.082223 0.152045
vt 0.080171 0.147915
vt 0.104143 0.227104
vt 0.106114 0.231274
vt 0.114169 0.227465
vt 0.112197 0.223296
vt 0.088185 0.195323
vt 0.087781 0.194459
vt 0.084323 0.196077
vt 0.084727 0.196942
vt 0.049874 0.093262
vt 0.049401 0.092434
vt 0.046085 0.094327
vt 0.046558 0.095156
vt -0.025162 -0.018638
vt -0.025872 -0.019275
vt -0.028422 -0.016433
vt -0.027711 -0.015796
vt -0.156119 0.033838
vt -0.157055 0.034023
vt -0.156315 0.037769
vt -0.155379 0.037584
vt -0.151854 0.192876
vt -0.152453 0.193619
vt -0.149482 0.196016
vt -0.148882 0.195273
vt -0.118560 0.237505
vt -0.118996 0.238355
vt -0.115599 0.240098
vt -0.115163 0.239248
vt -0.088185 0.195323
vt -0.088590 0.196188
vt -0.085132 0.197806
vt -0.084727 0.196942
vt -0.049874 0.093262
vt -0.050347 0.094091
vt -0.047031 0.095985
vt -0.046558 0.095156
vt 0.025162 -0.018638
vt 0.024451 -0.018000
vt 0.027001 -0.015158
vt 0.027711 -0.015796
vt 0.156119 0.033838
vt 0.155182 0.033653
vt 0.154442 0.037399
vt 0.155379 0.037584
vt 0.151854 0.192876
vt 0.151255 0.192133
vt 0.148283 0.194530
vt 0.148882 0.195273
vt 0.118560 0.237505
vt 0.118125 0.236656
vt 0.114727 0.238399
vt 0.115163 0.239248
vt -0.137401 0.227911
vt -0.137744 0.226984
vt -0.138504 0.226353
vt -0.139478 0.226186
vt -0.140405 0.226528
vt -0.141036 0.227289
vt -0.141203 0.228263
vt -0.140861 0.229190
vt -0.140100 0.229821
vt -0.139126 0.229988
vt -0.138199 0.229645
vt -0.137568 0.228885
vt 0.137568 0.228885
vt 0.138199 0.229645
vt 0.139126 0.229988
vt 0.140100 0.229821
vt 0.140861 0.229190
vt 0.141203 0.228263
vt 0.141036 0.227289
vt 0.140405 0.226528
vt 0.139478 0.226186
vt 0.138504 0.226353
vt 0.137744 0.226984
vt 0.137401 0.227911
s off
f 1/1/1 2/2/2 3/3/3
f 1/1/1 3/3/3 4/4/4
f 5/5/5 6/6/6 7/7/7
f 5/5/5 7/7/7 8/8/8
f 9/9/9 10/10/10 11/11/11
f 9/9/9 11/11/11 12/12/12
f 13/13/13 14/14/14 15/15/15
f 13/13/13 15/15/15 16/16/16
f 17/17/17 18/18/18 19/19/19
f 17/17/17 19/19/19 20/20/20
f 21/21/21 22/22/22 23/23/23
f 21/21/21 23/23/23 24/24/24
f 25/25/25 26/26/26 27/27/27
f 25/25/25 27/27/27 28/28/28
f 29/29/29 30/30/30 31/31/31
f 29/29/29 31/31/31 32/32/32
f 33/33/33 34/34/34 35/35/35
f 33/33/33 35/35/35 36/36/36
f 37/37/37 38/38/38 39/39/39
f 37/37/37 39/39/39 40/40/40
f 41/41/41 42/42/42 43/43/43
f 41/41/41 43/43/43 44/44/44
f 45/45/45 46/46/46 47/47/47
f 45/45/45 47/47/47 48/48/48
f 49/49/49 50/50/50 51/51/51
f 49/49/49 51/51/51 52/52/52
f 53/53/53 54/54/54 55/55/55
f 53/53/53 55/55/55 56/56/56
f 57/57/57 58/58/58 59/59/59
f 57/57/57 59/59/59 60/60/60
f 61/61/61 62/62/62 63/63/63
f 61/61/61 63/63/63 64/64/64
f 65/65/65 66/66/66 67/67/67
f 65/65/65 67/67/67 68/68/68
f 69/69/69 70/70/70 71/71/71
f 69/69/69 71/71/71 72/72/72
f 73/73/73 74/74/74 75/75/75
f 73/73/73 75/75/75 76/76/76
f 77/77/77 78/78/78 79/79/79
f 77/77/77 79/79/79 80/80/80
f 81/81/81 82/82/82 83/83/83
f 81/81/81 83/83/83 84/84/84
f 85/85/85 86/86/86 87/87/87
f 85/85/85 87/87/87 88/88/88
f 89/89/89 90/90/90 91/91/91
f 89/89/89 91/91/91 92/92/92
f 93/93/93 94/94/94 95/95/95
f 93/93/93 95/95/95 96/96/96
f 97/97/97 98/98/98 99/99/99
f 97/97/97 99/99/99 100/100/100
f 101/101/101 102/102/102 103/103/103
f 101/101/101 103/103/103 104/104/104
f 105/105/105 106/106/106 107/107/107
f 105/105/105 107/107/107 108/108/108
f 109/109/109 110/110/110 111/111/111
f 109/109/109 111/111/111 112/112/112
f 113/113/113 114/114/114 115/115/115
f 113/113/113 115/115/115 116/116/116
f 117/117/117 118/118/118 119/119/119
f 117/117/117 119/119/119 120/120/120
f 121/121/121 122/122/122 123/123/123
f 121/121/121 123/123/123 124/124/124
f 125/125/125 126/126/126 127/127/127
f 125/125/125 127/127/127 128/128/128
f 129/129/129 130/130/130 131/131/131
f 129/129/129 131/131/131 132/132/132
f 133/133/133 134/134/134 135/135/135
f 133/133/133 135/135/135 136/136/136
f 137/137/137 138/138/138 139/139/139
f 137/137/137 139/139/139 140/140/140
f 141/141/141 142/142/142 143/143/143
f 141/141/141 143/143/143 144/144/144
f 145/145/145 146/146/146 147/147/147
f 145/145/145 147/147/147 148/148/148
f 149/149/149 150/150/150 151/151/151
f 149/149/149 151/151/151 152/152/152
f 153/153/153 154/154/154 155/155/155
f 153/153/153 155/155/155 156/156/156
f 157/157/157 158/158/158 159/159/159
f 157/157/157 159/159/159 160/160/160
f 161/161/161 162/162/162 163/163/163
f 161/161/161 163/163/163 164/164/164
f 165/165/165 166/166/166 167/167/167
f 165/165/165 167/167/167 168/168/168
f 169/169/169 170/170/170 171/171/171
f 169/169/169 171/171/171 172/172/172
f 173/173/173 174/174/174 175/175/175
f 173/173/173 175/175/175 176/176/176
f 177/177/177 178/178/178 179/179/179
f 177/177/177 179/179/179 180/180/180
f 177/177/177 180/180/180 181/181/181
f 177/177/177 181/181/181 182/182/182
f 177/177/177 182/182/182 183/183/183
f 177/177/177 183/183/183 184/184/184
f 177/177/177 184/184/184 185/185/185
f 177/177/177 185/185/185 186/186/186
f 177/177/177 186/186/186 187/187/187
f 177/177/177 187/187/187 188/188/188
f 189/189/189 190/190/190 191/191/191
f 189/189/189 191/191/191 192/192/192
f 189/189/189 192/192/192 193/193/193
f 189/189/189 193/193/193 194/194/194
f 189/189/189 194/194/194 195/195/195
f 189/189/189 195/195/195 196/196/196
f 189/189/189 196/196/196 197/197/197
f 189/189/189 197/197/197 198/198/198
f 189/189/189 198/198/198 199/199/199
f 189/189/189 199/199/199 200/200/200
