# Exported using automatic converter by Erwin Coumans
mtllib model6.mtl
#object group2061739718_6

v 2.404488 -1.034511 1.654852
v 2.393100 -1.034511 1.612352
v 2.393100 -0.966511 1.612352
v 2.404488 -0.966511 1.654852
v 2.393100 -1.034511 1.612352
v 2.361988 -1.034511 1.581239
v 2.361988 -0.966511 1.581239
v 2.393100 -0.966511 1.612352
v 2.361988 -1.034511 1.581239
v 2.319488 -1.034511 1.569852
v 2.319488 -0.966511 1.569852
v 2.361988 -0.966511 1.581239
v 2.319488 -1.034511 1.569852
v 2.276988 -1.034511 1.581239
v 2.276988 -0.966511 1.581239
v 2.319488 -0.966511 1.569852
v 2.276988 -1.034511 1.581239
v 2.245876 -1.034511 1.612352
v 2.245876 -0.966511 1.612352
v 2.276988 -0.966511 1.581239
v 2.245876 -1.034511 1.612352
v 2.234488 -1.034511 1.654852
v 2.234488 -0.966511 1.654852
v 2.245876 -0.966511 1.612352
v 2.234488 -1.034511 1.654852
v 2.245876 -1.034511 1.697352
v 2.245876 -0.966511 1.697352
v 2.234488 -0.966511 1.654852
v 2.245876 -1.034511 1.697352
v 2.276988 -1.034511 1.728464
v 2.276988 -0.966511 1.728464
v 2.245876 -0.966511 1.697352
v 2.276988 -1.034511 1.728464
v 2.319488 -1.034511 1.739852
v 2.319488 -0.966511 1.739852
v 2.276988 -0.966511 1.728464
v 2.319488 -1.034511 1.739852
v 2.361988 -1.034511 1.728464
v 2.361988 -0.966511 1.728464
v 2.319488 -0.966511 1.739852
v 2.361988 -1.034511 1.728464
v 2.393100 -1.034511 1.697352
v 2.393100 -0.966511 1.697352
v 2.361988 -0.966511 1.728464
v 2.393100 -1.034511 1.697352
v 2.404488 -1.034511 1.654852
v 2.404488 -0.966511 1.654852
v 2.393100 -0.966511 1.697352
v 2.404488 -0.966511 1.654852
v 2.393100 -0.966511 1.612352
v 2.361988 -0.966511 1.581239
v 2.319488 -0.966511 1.569852
v 2.276988 -0.966511 1.581239
v 2.245876 -0.966511 1.612352
v 2.234488 -0.966511 1.654852
v 2.245876 -0.966511 1.697352
v 2.276988 -0.966511 1.728464
v 2.319488 -0.966511 1.739852
v 2.361988 -0.966511 1.728464
v 2.393100 -0.966511 1.697352
v 2.393100 -1.034511 1.697352
v 2.361988 -1.034511 1.728464
v 2.319488 -1.034511 1.739852
v 2.276988 -1.034511 1.728464
v 2.245876 -1.034511 1.697352
v 2.234488 -1.034511 1.654852
v 2.245876 -1.034511 1.612352
v 2.276988 -1.034511 1.581239
v 2.319488 -1.034511 1.569852
v 2.361988 -1.034511 1.581239
v 2.393100 -1.034511 1.612352
v 2.404488 -1.034511 1.654852
usemtl mat22

vn 1.000000 0.000000 0.000000
vn 1.000000 0.000000 0.000000
vn 1.000000 0.000000 0.000000
vn 1.000000 0.000000 0.000000
vn 0.866025 0.000000 -0.500000
vn 0.866025 0.000000 -0.500000
vn 0.866025 0.000000 -0.500000
vn 0.866025 0.000000 -0.500000
vn 0.500000 0.000000 -0.866025
vn 0.500000 0.000000 -0.866025
vn 0.500000 0.000000 -0.866025
vn 0.500000 0.000000 -0.866025
vn 0.000000 0.000000 -1.000000
vn 0.000000 0.000000 -1.000000
vn 0.000000 0.000000 -1.000000
vn 0.000000 0.000000 -1.000000
vn -0.500000 -0.000000 -0.866025
vn -0.500000 -0.000000 -0.866025
vn -0.500000 -0.000000 -0.866025
vn -0.500000 -0.000000 -0.866025
vn -0.866025 -0.000000 -0.500000
vn -0.866025 -0.000000 -0.500000
vn -0.866025 -0.000000 -0.500000
vn -0.866025 -0.000000 -0.500000
vn -1.000000 -0.000000 0.000000
vn -1.000000 -0.000000 0.000000
vn -1.000000 -0.000000 0.000000
vn -1.000000 -0.000000 0.000000
vn -0.866025 -0.000000 0.500000
vn -0.866025 -0.000000 0.500000
vn -0.866025 -0.000000 0.500000
vn -0.866025 -0.000000 0.500000
vn -0.500000 -0.000000 0.866025
vn -0.500000 -0.000000 0.866025
vn -0.500000 -0.000000 0.866025
vn -0.500000 -0.000000 0.866025
vn -0.000000 -0.000000 1.000000
vn -0.000000 -0.000000 1.000000
vn -0.000000 -0.000000 1.000000
vn -0.000000 -0.000000 1.000000
vn 0.500000 0.000000 0.866025
vn 0.500000 0.000000 0.866025
vn 0.500000 0.000000 0.866025
vn 0.500000 0.000000 0.866025
vn 0.866026 0.000000 0.500000
vn 0.866026 0.000000 0.500000
vn 0.866026 0.000000 0.500000
vn 0.866026 0.000000 0.500000
vn -0.000000 1.000000 -0.000000
vn -0.000000 1.000000 -0.000000
vn -0.000000 1.000000 -0.000000
vn -0.000000 1.000000 -0.000000
vn -0.000000 1.000000 -0.000000
vn -0.000000 1.000000 -0.000000
vn -0.000000 1.000000 -0.000000
vn -0.000000 1.000000 -0.000000
vn -0.000000 1.000000 -0.000000
vn -0.000000 1.000000 -0.000000
vn -0.000000 1.000000 -0.000000
vn -0.000000 1.000000 -0.000000
vn 0.000000 -1.000000 0.000000
vn 0.000000 -1.000000 0.000000
vn 0.000000 -1.000000 0.000000
vn 0.000000 -1.000000 0.000000
vn 0.000000 -1.000000 0.000000
vn 0.000000 -1.000000 0.000000
vn 0.000000 -1.000000 0.000000
vn 0.000000 -1.000000 0.000000
vn 0.000000 -1.000000 0.000000
vn 0.000000 -1.000000 0.000000
vn 0.000000 -1.000000 0.000000
vn 0.000000 -1.000000 0.000000

vt 0.175127 -0.192680
vt 0.171669 -0.190210
vt 0.175621 -0.184677
vt 0.179079 -0.187147
vt 0.319493 0.062993
vt 0.315522 0.061479
vt 0.313099 0.067832
vt 0.317070 0.069347
vt 0.221779 0.211420
vt 0.219280 0.207983
vt 0.213780 0.211983
vt 0.216280 0.215420
vt 0.139139 0.155295
vt 0.137239 0.151494
vt 0.131157 0.154535
vt 0.133057 0.158336
vt 0.069871 0.018584
vt 0.068036 0.014751
vt 0.061903 0.017687
vt 0.063738 0.021520
vt -0.016198 -0.130860
vt -0.018432 -0.134476
vt -0.024217 -0.130902
vt -0.021983 -0.127286
vt -0.175127 -0.192680
vt -0.178585 -0.195151
vt -0.182538 -0.189617
vt -0.179079 -0.187147
vt -0.319493 0.062993
vt -0.323464 0.064508
vt -0.321041 0.070862
vt -0.317070 0.069347
vt -0.221779 0.211420
vt -0.224279 0.214857
vt -0.218780 0.218857
vt -0.216280 0.215420
vt -0.139139 0.155295
vt -0.141040 0.159096
vt -0.134958 0.162137
vt -0.133057 0.158336
vt -0.069871 0.018584
vt -0.071706 0.022418
vt -0.065573 0.025354
vt -0.063738 0.021520
vt 0.016198 -0.130861
vt 0.013964 -0.127245
vt 0.019749 -0.123671
vt 0.021983 -0.127286
vt -0.310178 0.111815
vt -0.305792 0.112172
vt -0.301816 0.110289
vt -0.299314 0.106669
vt -0.298957 0.102284
vt -0.300841 0.098307
vt -0.304460 0.095805
vt -0.308845 0.095448
vt -0.312822 0.097332
vt -0.315324 0.100951
vt -0.315681 0.105337
vt -0.313797 0.109313
vt 0.313797 0.109313
vt 0.315681 0.105337
vt 0.315324 0.100951
vt 0.312822 0.097332
vt 0.308845 0.095448
vt 0.304460 0.095805
vt 0.300841 0.098307
vt 0.298957 0.102284
vt 0.299314 0.106669
vt 0.301816 0.110289
vt 0.305792 0.112172
vt 0.310178 0.111815
s off
f 1/1/1 2/2/2 3/3/3
f 1/1/1 3/3/3 4/4/4
f 5/5/5 6/6/6 7/7/7
f 5/5/5 7/7/7 8/8/8
f 9/9/9 10/10/10 11/11/11
f 9/9/9 11/11/11 12/12/12
f 13/13/13 14/14/14 15/15/15
f 13/13/13 15/15/15 16/16/16
f 17/17/17 18/18/18 19/19/19
f 17/17/17 19/19/19 20/20/20
f 21/21/21 22/22/22 23/23/23
f 21/21/21 23/23/23 24/24/24
f 25/25/25 26/26/26 27/27/27
f 25/25/25 27/27/27 28/28/28
f 29/29/29 30/30/30 31/31/31
f 29/29/29 31/31/31 32/32/32
f 33/33/33 34/34/34 35/35/35
f 33/33/33 35/35/35 36/36/36
f 37/37/37 38/38/38 39/39/39
f 37/37/37 39/39/39 40/40/40
f 41/41/41 42/42/42 43/43/43
f 41/41/41 43/43/43 44/44/44
f 45/45/45 46/46/46 47/47/47
f 45/45/45 47/47/47 48/48/48
f 49/49/49 50/50/50 51/51/51
f 49/49/49 51/51/51 52/52/52
f 49/49/49 52/52/52 53/53/53
f 49/49/49 53/53/53 54/54/54
f 49/49/49 54/54/54 55/55/55
f 49/49/49 55/55/55 56/56/56
f 49/49/49 56/56/56 57/57/57
f 49/49/49 57/57/57 58/58/58
f 49/49/49 58/58/58 59/59/59
f 49/49/49 59/59/59 60/60/60
f 61/61/61 62/62/62 63/63/63
f 61/61/61 63/63/63 64/64/64
f 61/61/61 64/64/64 65/65/65
f 61/61/61 65/65/65 66/66/66
f 61/61/61 66/66/66 67/67/67
f 61/61/61 67/67/67 68/68/68
f 61/61/61 68/68/68 69/69/69
f 61/61/61 69/69/69 70/70/70
f 61/61/61 70/70/70 71/71/71
f 61/61/61 71/71/71 72/72/72
