# Exported using automatic converter by Erwin Coumans
mtllib botlab.mtl
#object mesh697430200

v 2.528238 1.295489 -1.540148
v 2.488238 1.295489 -1.540148
v 2.488238 1.315489 -1.540148
v 2.528238 1.315489 -1.540148
v 2.488238 1.315489 -1.510148
v 2.488238 1.295489 -1.510148
v 2.528238 1.295489 -1.510148
v 2.528238 1.315489 -1.510148
v 2.488238 1.315489 -1.540148
v 2.488238 1.315489 -1.510148
v 2.528238 1.315489 -1.510148
v 2.528238 1.315489 -1.540148
v 2.528238 1.295489 -1.510148
v 2.488238 1.295489 -1.510148
v 2.488238 1.295489 -1.540148
v 2.528238 1.295489 -1.540148
v 2.528238 1.315489 -1.510148
v 2.528238 1.295489 -1.510148
v 2.528238 1.295489 -1.540148
v 2.528238 1.315489 -1.540148
v 2.488238 1.295489 -1.540148
v 2.488238 1.295489 -1.510148
v 2.488238 1.315489 -1.510148
v 2.488238 1.315489 -1.540148
usemtl mat19

vn -0.000000 0.000000 -1.000000
vn -0.000000 0.000000 -1.000000
vn -0.000000 0.000000 -1.000000
vn -0.000000 0.000000 -1.000000
vn 0.000000 -0.000000 1.000000
vn 0.000000 -0.000000 1.000000
vn 0.000000 -0.000000 1.000000
vn 0.000000 -0.000000 1.000000
vn -0.000000 1.000000 0.000000
vn -0.000000 1.000000 0.000000
vn -0.000000 1.000000 0.000000
vn -0.000000 1.000000 0.000000
vn 0.000000 -1.000000 -0.000000
vn 0.000000 -1.000000 -0.000000
vn 0.000000 -1.000000 -0.000000
vn 0.000000 -1.000000 -0.000000
vn 1.000000 0.000000 0.000000
vn 1.000000 0.000000 0.000000
vn 1.000000 0.000000 0.000000
vn 1.000000 0.000000 0.000000
vn -1.000000 -0.000000 -0.000000
vn -1.000000 -0.000000 -0.000000
vn -1.000000 -0.000000 -0.000000
vn -1.000000 -0.000000 -0.000000

vt -0.059927 0.278167
vt -0.061715 0.274589
vt -0.063504 0.275484
vt -0.061715 0.279061
vt 0.063504 0.275484
vt 0.061715 0.274589
vt 0.059927 0.278167
vt 0.061715 0.279061
vt -0.012108 0.227162
vt -0.014933 0.226153
vt -0.016279 0.229920
vt -0.013453 0.230929
vt 0.016279 0.229920
vt 0.014933 0.226153
vt 0.012108 0.227162
vt 0.013453 0.230929
vt 0.054171 0.182509
vt 0.053009 0.180881
vt 0.050568 0.182625
vt 0.051730 0.184253
vt -0.050568 0.182625
vt -0.053009 0.180881
vt -0.054171 0.182509
vt -0.051730 0.184253
s off
f 1/1/1 2/2/2 3/3/3
f 1/1/1 3/3/3 4/4/4
f 5/5/5 6/6/6 7/7/7
f 5/5/5 7/7/7 8/8/8
f 9/9/9 10/10/10 11/11/11
f 9/9/9 11/11/11 12/12/12
f 13/13/13 14/14/14 15/15/15
f 13/13/13 15/15/15 16/16/16
f 17/17/17 18/18/18 19/19/19
f 17/17/17 19/19/19 20/20/20
f 21/21/21 22/22/22 23/23/23
f 21/21/21 23/23/23 24/24/24
