# Exported using automatic converter by Erwin Coumans
mtllib botlab.mtl
#object mesh1625720476

v -0.833978 -1.061194 1.605090
v -0.770345 -1.062638 1.533555
v -0.772384 -0.993036 1.526383
v -0.836016 -0.991592 1.597918
v -0.891456 -0.995004 1.541141
v -0.889418 -1.064605 1.548313
v -0.953050 -1.063161 1.619848
v -0.955089 -0.993559 1.612676
v -0.772384 -0.993036 1.526383
v -0.891456 -0.995004 1.541141
v -0.955089 -0.993559 1.612676
v -0.836016 -0.991592 1.597918
v -0.953050 -1.063161 1.619848
v -0.889418 -1.064605 1.548313
v -0.770345 -1.062638 1.533555
v -0.833978 -1.061194 1.605090
v -0.955089 -0.993559 1.612676
v -0.953050 -1.063161 1.619848
v -0.833978 -1.061194 1.605090
v -0.836016 -0.991592 1.597918
v -0.770345 -1.062638 1.533555
v -0.889418 -1.064605 1.548313
v -0.891456 -0.995004 1.541141
v -0.772384 -0.993036 1.526383
v -1.061051 -1.059579 1.893490
v -0.999264 -1.060199 1.820343
v -1.005099 -0.991076 1.810963
v -1.066885 -0.990457 1.884110
v -1.123496 -0.998623 1.828997
v -1.117661 -1.067745 1.838377
v -1.179448 -1.067126 1.911524
v -1.185282 -0.998003 1.902144
v -1.005099 -0.991076 1.810963
v -1.123496 -0.998623 1.828997
v -1.185282 -0.998003 1.902144
v -1.066885 -0.990457 1.884110
v -1.179448 -1.067126 1.911524
v -1.117661 -1.067745 1.838377
v -0.999264 -1.060199 1.820343
v -1.061051 -1.059579 1.893490
v -1.185282 -0.998003 1.902144
v -1.179448 -1.067126 1.911524
v -1.061051 -1.059579 1.893490
v -1.066885 -0.990457 1.884110
v -0.999264 -1.060199 1.820343
v -1.117661 -1.067745 1.838377
v -1.123496 -0.998623 1.828997
v -1.005099 -0.991076 1.810963
v -0.719331 -1.063699 1.458446
v -0.652912 -1.066504 1.389532
v -0.652085 -0.996780 1.383387
v -0.718504 -0.993974 1.452301
v -0.771655 -0.994489 1.393279
v -0.772482 -1.064214 1.399424
v -0.838901 -1.061409 1.468338
v -0.838073 -0.991684 1.462193
v -0.652085 -0.996780 1.383387
v -0.771655 -0.994489 1.393279
v -0.838073 -0.991684 1.462193
v -0.718504 -0.993974 1.452301
v -0.838901 -1.061409 1.468338
v -0.772482 -1.064214 1.399424
v -0.652912 -1.066504 1.389532
v -0.719331 -1.063699 1.458446
v -0.838073 -0.991684 1.462193
v -0.838901 -1.061409 1.468338
v -0.719331 -1.063699 1.458446
v -0.718504 -0.993974 1.452301
v -0.652912 -1.066504 1.389532
v -0.772482 -1.064214 1.399424
v -0.771655 -0.994489 1.393279
v -0.652085 -0.996780 1.383387
v -0.947488 -1.056718 1.748151
v -0.882742 -1.059449 1.677660
v -0.884980 -0.990035 1.668903
v -0.949726 -0.987304 1.739394
v -1.004258 -0.992247 1.681855
v -1.002020 -1.061661 1.690612
v -1.066767 -1.058929 1.761104
v -1.069005 -0.989515 1.752346
v -0.884980 -0.990035 1.668903
v -1.004258 -0.992247 1.681855
v -1.069005 -0.989515 1.752346
v -0.949726 -0.987304 1.739394
v -1.066767 -1.058929 1.761104
v -1.002020 -1.061661 1.690612
v -0.882742 -1.059449 1.677660
v -0.947488 -1.056718 1.748151
v -1.069005 -0.989515 1.752346
v -1.066767 -1.058929 1.761104
v -0.947488 -1.056718 1.748151
v -0.949726 -0.987304 1.739394
v -0.882742 -1.059449 1.677660
v -1.002020 -1.061661 1.690612
v -1.004258 -0.992247 1.681855
v -0.884980 -0.990035 1.668903
v -0.888714 -1.059901 1.678872
v -0.827593 -1.061304 1.605178
v -0.831609 -0.991936 1.596689
v -0.892730 -0.990534 1.670383
v -0.950010 -0.996467 1.615678
v -0.945994 -1.065834 1.624166
v -1.007115 -1.064432 1.697861
v -1.011131 -0.995065 1.689372
v -0.831609 -0.991936 1.596689
v -0.950010 -0.996467 1.615678
v -1.011131 -0.995065 1.689372
v -0.892730 -0.990534 1.670383
v -1.007115 -1.064432 1.697861
v -0.945994 -1.065834 1.624166
v -0.827593 -1.061304 1.605178
v -0.888714 -1.059901 1.678872
v -1.011131 -0.995065 1.689372
v -1.007115 -1.064432 1.697861
v -0.888714 -1.059901 1.678872
v -0.892730 -0.990534 1.670383
v -0.827593 -1.061304 1.605178
v -0.945994 -1.065834 1.624166
v -0.950010 -0.996467 1.615678
v -0.831609 -0.991936 1.596689
v -1.113891 -1.058580 1.968645
v -1.054669 -1.059360 1.893408
v -1.062499 -0.990617 1.882774
v -1.121721 -0.989837 1.958012
v -1.179985 -1.000544 1.905100
v -1.172155 -1.069287 1.915734
v -1.231377 -1.068508 1.990972
v -1.239207 -0.999765 1.980338
v -1.062499 -0.990617 1.882774
v -1.179985 -1.000544 1.905100
v -1.239207 -0.999765 1.980338
v -1.121721 -0.989837 1.958012
v -1.231377 -1.068508 1.990972
v -1.172155 -1.069287 1.915734
v -1.054669 -1.059360 1.893408
v -1.113891 -1.058580 1.968645
v -1.239207 -0.999765 1.980338
v -1.231377 -1.068508 1.990972
v -1.113891 -1.058580 1.968645
v -1.121721 -0.989837 1.958012
v -1.054669 -1.059360 1.893408
v -1.172155 -1.069287 1.915734
v -1.179985 -1.000544 1.905100
v -1.062499 -0.990617 1.882774
v -0.776964 -1.061411 1.529963
v -0.712963 -1.064050 1.458791
v -0.714065 -0.994466 1.451247
v -0.778066 -0.991828 1.522419
v -0.833232 -0.994823 1.465352
v -0.832131 -1.064407 1.472896
v -0.896132 -1.061768 1.544068
v -0.897233 -0.992185 1.536524
v -0.714065 -0.994466 1.451247
v -0.833232 -0.994823 1.465352
v -0.897233 -0.992185 1.536524
v -0.778066 -0.991828 1.522419
v -0.896132 -1.061768 1.544068
v -0.832131 -1.064407 1.472896
v -0.712963 -1.064050 1.458791
v -0.776964 -1.061411 1.529963
v -0.897233 -0.992185 1.536524
v -0.896132 -1.061768 1.544068
v -0.776964 -1.061411 1.529963
v -0.778066 -0.991828 1.522419
v -0.712963 -1.064050 1.458791
v -0.832131 -1.064407 1.472896
v -0.833232 -0.994823 1.465352
v -0.714065 -0.994466 1.451247
v -1.003374 -1.054045 1.821029
v -0.941105 -1.056795 1.748340
v -0.945298 -0.987654 1.738242
v -1.007566 -0.984904 1.810930
v -1.063960 -0.992331 1.755491
v -1.059767 -1.061471 1.765589
v -1.122035 -1.058721 1.838278
v -1.126228 -0.989581 1.828179
v -0.945298 -0.987654 1.738242
v -1.063960 -0.992331 1.755491
v -1.126228 -0.989581 1.828179
v -1.007566 -0.984904 1.810930
v -1.122035 -1.058721 1.838278
v -1.059767 -1.061471 1.765589
v -0.941105 -1.056795 1.748340
v -1.003374 -1.054045 1.821029
v -1.126228 -0.989581 1.828179
v -1.122035 -1.058721 1.838278
v -1.003374 -1.054045 1.821029
v -1.007566 -0.984904 1.810930
v -0.941105 -1.056795 1.748340
v -1.059767 -1.061471 1.765589
v -1.063960 -0.992331 1.755491
v -0.945298 -0.987654 1.738242
usemtl mat12

vn 0.745045 0.089930 0.660924
vn 0.745045 0.089930 0.660924
vn 0.745045 0.089930 0.660924
vn 0.745045 0.089930 0.660924
vn -0.745046 -0.089930 -0.660923
vn -0.745046 -0.089930 -0.660923
vn -0.745046 -0.089930 -0.660923
vn -0.745046 -0.089930 -0.660923
vn -0.021359 0.999004 -0.039166
vn -0.021359 0.999004 -0.039166
vn -0.021359 0.999004 -0.039166
vn -0.021359 0.999004 -0.039166
vn 0.021359 -0.999004 0.039166
vn 0.021359 -0.999004 0.039166
vn 0.021359 -0.999004 0.039166
vn 0.021359 -0.999004 0.039166
vn 0.120605 0.105250 0.987105
vn 0.120605 0.105250 0.987105
vn 0.120605 0.105250 0.987105
vn 0.120605 0.105250 0.987105
vn -0.120605 -0.105250 -0.987105
vn -0.120605 -0.105250 -0.987105
vn -0.120605 -0.105250 -0.987105
vn -0.120605 -0.105250 -0.987105
vn 0.755889 0.150278 0.637219
vn 0.755889 0.150278 0.637219
vn 0.755889 0.150278 0.637219
vn 0.755889 0.150278 0.637219
vn -0.755890 -0.150278 -0.637218
vn -0.755890 -0.150278 -0.637218
vn -0.755890 -0.150278 -0.637218
vn -0.755890 -0.150278 -0.637218
vn -0.074238 0.994701 -0.071129
vn -0.074238 0.994701 -0.071129
vn -0.074238 0.994701 -0.071129
vn -0.074238 0.994701 -0.071129
vn 0.074238 -0.994701 0.071129
vn 0.074238 -0.994701 0.071129
vn 0.074238 -0.994701 0.071129
vn 0.074238 -0.994701 0.071129
vn 0.139971 0.144739 0.979520
vn 0.139971 0.144739 0.979520
vn 0.139971 0.144739 0.979520
vn 0.139971 0.144739 0.979520
vn -0.139971 -0.144739 -0.979520
vn -0.139971 -0.144739 -0.979520
vn -0.139971 -0.144739 -0.979520
vn -0.139971 -0.144739 -0.979520
vn 0.720098 0.052434 0.691889
vn 0.720098 0.052434 0.691889
vn 0.720098 0.052434 0.691889
vn 0.720098 0.052434 0.691889
vn -0.720098 -0.052434 -0.691888
vn -0.720098 -0.052434 -0.691888
vn -0.720098 -0.052434 -0.691888
vn -0.720098 -0.052434 -0.691888
vn 0.017148 0.999561 -0.024163
vn 0.017148 0.999561 -0.024163
vn 0.017148 0.999561 -0.024163
vn 0.017148 0.999561 -0.024163
vn -0.017148 -0.999561 0.024163
vn -0.017148 -0.999561 0.024163
vn -0.017148 -0.999561 0.024163
vn -0.017148 -0.999561 0.024163
vn 0.083785 0.086497 0.992723
vn 0.083785 0.086497 0.992723
vn 0.083785 0.086497 0.992723
vn 0.083785 0.086497 0.992723
vn -0.083785 -0.086497 -0.992723
vn -0.083785 -0.086497 -0.992723
vn -0.083785 -0.086497 -0.992723
vn -0.083785 -0.086497 -0.992723
vn 0.734239 0.108225 0.670210
vn 0.734239 0.108225 0.670210
vn 0.734239 0.108225 0.670210
vn 0.734239 0.108225 0.670210
vn -0.734239 -0.108225 -0.670209
vn -0.734239 -0.108225 -0.670209
vn -0.734239 -0.108225 -0.670209
vn -0.734239 -0.108225 -0.670209
vn -0.025209 0.997769 -0.061820
vn -0.025209 0.997769 -0.061820
vn -0.025209 0.997769 -0.061820
vn -0.025209 0.997769 -0.061820
vn 0.025209 -0.997769 0.061821
vn 0.025209 -0.997769 0.061821
vn 0.025209 -0.997769 0.061821
vn 0.025209 -0.997769 0.061821
vn 0.104725 0.127804 0.986255
vn 0.104725 0.127804 0.986255
vn 0.104725 0.127804 0.986255
vn 0.104725 0.127804 0.986255
vn -0.104725 -0.127804 -0.986255
vn -0.104725 -0.127804 -0.986255
vn -0.104725 -0.127804 -0.986255
vn -0.104725 -0.127804 -0.986255
vn 0.765131 0.121663 0.632275
vn 0.765131 0.121663 0.632275
vn 0.765131 0.121663 0.632275
vn 0.765131 0.121663 0.632275
vn -0.765132 -0.121663 -0.632275
vn -0.765132 -0.121663 -0.632275
vn -0.765132 -0.121663 -0.632275
vn -0.765132 -0.121663 -0.632275
vn -0.047520 0.997162 -0.058388
vn -0.047520 0.997162 -0.058388
vn -0.047520 0.997162 -0.058388
vn -0.047520 0.997162 -0.058388
vn 0.047520 -0.997162 0.058388
vn 0.047520 -0.997162 0.058388
vn 0.047520 -0.997162 0.058388
vn 0.047520 -0.997162 0.058388
vn 0.152233 0.128724 0.979926
vn 0.152233 0.128724 0.979926
vn 0.152233 0.128724 0.979926
vn 0.152233 0.128724 0.979926
vn -0.152233 -0.128724 -0.979926
vn -0.152233 -0.128724 -0.979926
vn -0.152233 -0.128724 -0.979926
vn -0.152233 -0.128724 -0.979926
vn 0.773566 0.182005 0.607017
vn 0.773566 0.182005 0.607017
vn 0.773566 0.182005 0.607017
vn 0.773566 0.182005 0.607017
vn -0.773566 -0.182005 -0.607017
vn -0.773566 -0.182005 -0.607017
vn -0.773566 -0.182005 -0.607017
vn -0.773566 -0.182005 -0.607017
vn -0.100748 0.990872 -0.089566
vn -0.100748 0.990872 -0.089566
vn -0.100748 0.990872 -0.089566
vn -0.100748 0.990872 -0.089566
vn 0.100748 -0.990872 0.089566
vn 0.100748 -0.990872 0.089566
vn 0.100748 -0.990872 0.089566
vn 0.100748 -0.990872 0.089566
vn 0.170145 0.169541 0.970725
vn 0.170145 0.169541 0.970725
vn 0.170145 0.169541 0.970725
vn 0.170145 0.169541 0.970725
vn -0.170145 -0.169541 -0.970725
vn -0.170145 -0.169541 -0.970725
vn -0.170145 -0.169541 -0.970725
vn -0.170145 -0.169541 -0.970725
vn 0.742500 0.083798 0.664584
vn 0.742500 0.083798 0.664584
vn 0.742500 0.083798 0.664584
vn 0.742500 0.083798 0.664584
vn -0.742501 -0.083798 -0.664583
vn -0.742501 -0.083798 -0.664583
vn -0.742501 -0.083798 -0.664583
vn -0.742501 -0.083798 -0.664583
vn -0.008252 0.998977 -0.044455
vn -0.008252 0.998977 -0.044455
vn -0.008252 0.998977 -0.044455
vn -0.008252 0.998977 -0.044455
vn 0.008252 -0.998977 0.044455
vn 0.008252 -0.998977 0.044455
vn 0.008252 -0.998977 0.044455
vn 0.008252 -0.998977 0.044455
vn 0.116526 0.108868 0.987203
vn 0.116526 0.108868 0.987203
vn 0.116526 0.108868 0.987203
vn 0.116526 0.108868 0.987203
vn -0.116526 -0.108868 -0.987203
vn -0.116526 -0.108868 -0.987203
vn -0.116526 -0.108868 -0.987203
vn -0.116526 -0.108868 -0.987203
vn 0.754627 0.139409 0.641173
vn 0.754627 0.139409 0.641173
vn 0.754627 0.139409 0.641173
vn 0.754627 0.139409 0.641173
vn -0.754628 -0.139409 -0.641173
vn -0.754628 -0.139409 -0.641173
vn -0.754628 -0.139409 -0.641173
vn -0.754628 -0.139409 -0.641173
vn -0.051060 0.995373 -0.081400
vn -0.051060 0.995373 -0.081400
vn -0.051060 0.995373 -0.081400
vn -0.051060 0.995373 -0.081400
vn 0.051060 -0.995373 0.081400
vn 0.051060 -0.995373 0.081400
vn 0.051060 -0.995373 0.081400
vn 0.051060 -0.995373 0.081400
vn 0.136356 0.151265 0.979043
vn 0.136356 0.151265 0.979043
vn 0.136356 0.151265 0.979043
vn 0.136356 0.151265 0.979043
vn -0.136356 -0.151265 -0.979043
vn -0.136356 -0.151265 -0.979043
vn -0.136356 -0.151265 -0.979043
vn -0.136356 -0.151265 -0.979043

vt 0.056506 -0.264333
vt 0.052193 -0.255784
vt 0.058305 -0.252370
vt 0.062617 -0.260919
vt -0.062704 -0.260245
vt -0.056593 -0.263659
vt -0.060906 -0.272208
vt -0.067017 -0.268794
vt -0.192556 -0.179507
vt -0.190178 -0.191269
vt -0.194949 -0.199570
vt -0.197327 -0.187808
vt 0.195387 -0.199659
vt 0.190616 -0.191357
vt 0.192995 -0.179595
vt 0.197766 -0.187897
vt 0.002940 -0.172914
vt -0.003363 -0.175959
vt -0.008584 -0.165155
vt -0.002281 -0.162109
vt 0.011349 -0.158504
vt 0.006128 -0.169308
vt -0.000175 -0.166263
vt 0.005046 -0.155458
vt 0.061769 -0.302444
vt 0.057774 -0.293742
vt 0.064006 -0.290555
vt 0.068001 -0.299257
vt -0.068113 -0.298587
vt -0.061880 -0.301774
vt -0.065875 -0.310476
vt -0.072108 -0.307289
vt -0.213693 -0.208633
vt -0.211851 -0.220491
vt -0.216994 -0.228568
vt -0.218836 -0.216710
vt 0.217436 -0.228636
vt 0.212293 -0.220559
vt 0.214135 -0.208702
vt 0.219278 -0.216779
vt 0.006116 -0.206795
vt -0.000320 -0.209548
vt -0.005038 -0.198514
vt 0.001399 -0.195762
vt 0.007493 -0.191742
vt 0.002776 -0.202776
vt -0.003661 -0.200024
vt 0.001057 -0.188990
vt 0.051542 -0.243129
vt 0.047016 -0.234691
vt 0.053039 -0.231125
vt 0.057566 -0.239562
vt -0.057635 -0.238887
vt -0.051612 -0.242453
vt -0.056138 -0.250891
vt -0.062162 -0.247325
vt -0.182247 -0.164067
vt -0.179255 -0.175688
vt -0.183584 -0.184229
vt -0.186576 -0.172608
vt 0.184018 -0.184340
vt 0.179688 -0.175800
vt 0.182680 -0.164179
vt 0.187009 -0.172719
vt -0.001666 -0.151165
vt -0.007845 -0.154456
vt -0.013485 -0.143864
vt -0.007307 -0.140574
vt 0.016509 -0.137326
vt 0.010868 -0.147918
vt 0.004690 -0.144628
vt 0.010330 -0.134036
vt 0.059653 -0.280962
vt 0.055316 -0.272425
vt 0.061417 -0.268994
vt 0.065754 -0.277530
vt -0.065839 -0.276856
vt -0.059738 -0.280288
vt -0.064075 -0.288824
vt -0.070176 -0.285393
vt -0.203175 -0.192353
vt -0.200741 -0.204104
vt -0.205474 -0.212428
vt -0.207907 -0.200677
vt 0.205912 -0.212519
vt 0.201180 -0.204195
vt 0.203613 -0.192444
vt 0.208345 -0.200768
vt 0.002218 -0.184027
vt -0.004072 -0.187097
vt -0.009336 -0.176314
vt -0.003046 -0.173243
vt 0.012128 -0.169674
vt 0.006864 -0.180458
vt 0.000573 -0.177387
vt 0.005838 -0.166603
vt 0.057467 -0.276147
vt 0.053256 -0.267547
vt 0.059407 -0.264206
vt 0.063618 -0.272806
vt -0.063712 -0.272133
vt -0.057561 -0.275474
vt -0.061772 -0.284074
vt -0.067924 -0.280733
vt -0.198017 -0.186107
vt -0.196188 -0.197966
vt -0.201339 -0.206038
vt -0.203169 -0.194178
vt 0.201781 -0.206106
vt 0.196630 -0.198034
vt 0.198460 -0.186175
vt 0.203611 -0.194246
vt 0.003716 -0.188177
vt -0.002660 -0.191067
vt -0.007614 -0.180138
vt -0.001238 -0.177248
vt 0.010215 -0.173421
vt 0.005261 -0.184350
vt -0.001115 -0.181460
vt 0.003839 -0.170531
vt 0.061550 -0.314073
vt 0.057676 -0.305316
vt 0.063952 -0.302217
vt 0.067826 -0.310973
vt -0.067947 -0.310305
vt -0.061671 -0.313404
vt -0.065545 -0.322161
vt -0.071821 -0.319061
vt -0.219507 -0.215212
vt -0.218197 -0.227140
vt -0.223697 -0.234978
vt -0.225006 -0.223050
vt 0.224142 -0.235027
vt 0.218642 -0.227189
vt 0.219951 -0.215261
vt 0.225451 -0.223099
vt 0.006053 -0.222777
vt -0.000449 -0.225370
vt -0.004894 -0.214223
vt 0.001608 -0.211630
vt 0.007183 -0.207394
vt 0.002738 -0.218540
vt -0.003764 -0.215947
vt 0.000681 -0.204801
vt 0.053194 -0.255256
vt 0.048755 -0.246772
vt 0.054815 -0.243268
vt 0.059254 -0.251752
vt -0.059330 -0.251077
vt -0.053270 -0.254581
vt -0.057709 -0.263065
vt -0.063769 -0.259561
vt -0.187294 -0.170683
vt -0.184863 -0.182434
vt -0.189597 -0.190757
vt -0.192028 -0.179006
vt 0.190035 -0.190848
vt 0.185301 -0.182524
vt 0.187732 -0.170773
vt 0.192466 -0.179096
vt -0.000277 -0.166137
vt -0.006534 -0.169275
vt -0.011914 -0.158548
vt -0.005656 -0.155410
vt 0.014776 -0.151938
vt 0.009397 -0.162665
vt 0.003140 -0.159527
vt 0.008519 -0.148801
vt 0.060517 -0.292936
vt 0.056280 -0.284350
vt 0.062421 -0.280990
vt 0.066658 -0.289577
vt -0.066750 -0.288904
vt -0.060609 -0.292263
vt -0.064847 -0.300850
vt -0.070988 -0.297490
vt -0.208636 -0.198911
vt -0.206752 -0.210762
vt -0.211867 -0.218857
vt -0.213751 -0.207006
vt 0.212309 -0.218927
vt 0.207194 -0.210832
vt 0.209078 -0.198981
vt 0.214192 -0.207076
vt 0.002982 -0.199804
vt -0.003382 -0.202719
vt -0.008380 -0.191810
vt -0.002016 -0.188894
vt 0.011008 -0.185103
vt 0.006010 -0.196013
vt -0.000354 -0.193097
vt 0.004644 -0.182188
s off
f 1/1/1 2/2/2 3/3/3
f 1/1/1 3/3/3 4/4/4
f 5/5/5 6/6/6 7/7/7
f 5/5/5 7/7/7 8/8/8
f 9/9/9 10/10/10 11/11/11
f 9/9/9 11/11/11 12/12/12
f 13/13/13 14/14/14 15/15/15
f 13/13/13 15/15/15 16/16/16
f 17/17/17 18/18/18 19/19/19
f 17/17/17 19/19/19 20/20/20
f 21/21/21 22/22/22 23/23/23
f 21/21/21 23/23/23 24/24/24
f 25/25/25 26/26/26 27/27/27
f 25/25/25 27/27/27 28/28/28
f 29/29/29 30/30/30 31/31/31
f 29/29/29 31/31/31 32/32/32
f 33/33/33 34/34/34 35/35/35
f 33/33/33 35/35/35 36/36/36
f 37/37/37 38/38/38 39/39/39
f 37/37/37 39/39/39 40/40/40
f 41/41/41 42/42/42 43/43/43
f 41/41/41 43/43/43 44/44/44
f 45/45/45 46/46/46 47/47/47
f 45/45/45 47/47/47 48/48/48
f 49/49/49 50/50/50 51/51/51
f 49/49/49 51/51/51 52/52/52
f 53/53/53 54/54/54 55/55/55
f 53/53/53 55/55/55 56/56/56
f 57/57/57 58/58/58 59/59/59
f 57/57/57 59/59/59 60/60/60
f 61/61/61 62/62/62 63/63/63
f 61/61/61 63/63/63 64/64/64
f 65/65/65 66/66/66 67/67/67
f 65/65/65 67/67/67 68/68/68
f 69/69/69 70/70/70 71/71/71
f 69/69/69 71/71/71 72/72/72
f 73/73/73 74/74/74 75/75/75
f 73/73/73 75/75/75 76/76/76
f 77/77/77 78/78/78 79/79/79
f 77/77/77 79/79/79 80/80/80
f 81/81/81 82/82/82 83/83/83
f 81/81/81 83/83/83 84/84/84
f 85/85/85 86/86/86 87/87/87
f 85/85/85 87/87/87 88/88/88
f 89/89/89 90/90/90 91/91/91
f 89/89/89 91/91/91 92/92/92
f 93/93/93 94/94/94 95/95/95
f 93/93/93 95/95/95 96/96/96
f 97/97/97 98/98/98 99/99/99
f 97/97/97 99/99/99 100/100/100
f 101/101/101 102/102/102 103/103/103
f 101/101/101 103/103/103 104/104/104
f 105/105/105 106/106/106 107/107/107
f 105/105/105 107/107/107 108/108/108
f 109/109/109 110/110/110 111/111/111
f 109/109/109 111/111/111 112/112/112
f 113/113/113 114/114/114 115/115/115
f 113/113/113 115/115/115 116/116/116
f 117/117/117 118/118/118 119/119/119
f 117/117/117 119/119/119 120/120/120
f 121/121/121 122/122/122 123/123/123
f 121/121/121 123/123/123 124/124/124
f 125/125/125 126/126/126 127/127/127
f 125/125/125 127/127/127 128/128/128
f 129/129/129 130/130/130 131/131/131
f 129/129/129 131/131/131 132/132/132
f 133/133/133 134/134/134 135/135/135
f 133/133/133 135/135/135 136/136/136
f 137/137/137 138/138/138 139/139/139
f 137/137/137 139/139/139 140/140/140
f 141/141/141 142/142/142 143/143/143
f 141/141/141 143/143/143 144/144/144
f 145/145/145 146/146/146 147/147/147
f 145/145/145 147/147/147 148/148/148
f 149/149/149 150/150/150 151/151/151
f 149/149/149 151/151/151 152/152/152
f 153/153/153 154/154/154 155/155/155
f 153/153/153 155/155/155 156/156/156
f 157/157/157 158/158/158 159/159/159
f 157/157/157 159/159/159 160/160/160
f 161/161/161 162/162/162 163/163/163
f 161/161/161 163/163/163 164/164/164
f 165/165/165 166/166/166 167/167/167
f 165/165/165 167/167/167 168/168/168
f 169/169/169 170/170/170 171/171/171
f 169/169/169 171/171/171 172/172/172
f 173/173/173 174/174/174 175/175/175
f 173/173/173 175/175/175 176/176/176
f 177/177/177 178/178/178 179/179/179
f 177/177/177 179/179/179 180/180/180
f 181/181/181 182/182/182 183/183/183
f 181/181/181 183/183/183 184/184/184
f 185/185/185 186/186/186 187/187/187
f 185/185/185 187/187/187 188/188/188
f 189/189/189 190/190/190 191/191/191
f 189/189/189 191/191/191 192/192/192
