# Exported using automatic converter by Erwin Coumans
mtllib model6.mtl
#object mesh19645016

v -2.001762 -0.354511 -3.380148
v -2.001762 -0.334511 -3.380148
v -2.001762 -0.334511 -3.360148
v -2.001762 -0.354511 -3.360148
v -2.111762 -0.334511 -3.360148
v -2.111762 -0.334511 -3.380148
v -2.111762 -0.354511 -3.380148
v -2.111762 -0.354511 -3.360148
v -2.001762 -0.334511 -3.360148
v -2.111762 -0.334511 -3.360148
v -2.111762 -0.354511 -3.360148
v -2.001762 -0.354511 -3.360148
v -2.111762 -0.354511 -3.380148
v -2.111762 -0.334511 -3.380148
v -2.001762 -0.334511 -3.380148
v -2.001762 -0.354511 -3.380148
v -2.111762 -0.354511 -3.360148
v -2.111762 -0.354511 -3.380148
v -2.001762 -0.354511 -3.380148
v -2.001762 -0.354511 -3.360148
v -2.001762 -0.334511 -3.380148
v -2.111762 -0.334511 -3.380148
v -2.111762 -0.334511 -3.360148
v -2.001762 -0.334511 -3.360148
usemtl mat23

vn 1.000000 0.000000 0.000000
vn 1.000000 0.000000 0.000000
vn 1.000000 0.000000 0.000000
vn 1.000000 0.000000 0.000000
vn -1.000000 0.000000 -0.000000
vn -1.000000 0.000000 -0.000000
vn -1.000000 0.000000 -0.000000
vn -1.000000 0.000000 -0.000000
vn -0.000000 0.000000 1.000000
vn -0.000000 0.000000 1.000000
vn -0.000000 0.000000 1.000000
vn -0.000000 0.000000 1.000000
vn 0.000000 -0.000000 -1.000000
vn 0.000000 -0.000000 -1.000000
vn 0.000000 -0.000000 -1.000000
vn 0.000000 -0.000000 -1.000000
vn 0.000000 -1.000000 0.000000
vn 0.000000 -1.000000 0.000000
vn 0.000000 -1.000000 0.000000
vn 0.000000 -1.000000 0.000000
vn 0.000000 1.000000 -0.000000
vn 0.000000 1.000000 -0.000000
vn 0.000000 1.000000 -0.000000
vn 0.000000 1.000000 -0.000000

vt -0.195064 0.155307
vt -0.193901 0.156934
vt -0.192273 0.155772
vt -0.193436 0.154144
vt 0.192273 0.155772
vt 0.193901 0.156934
vt 0.195064 0.155307
vt 0.193436 0.154144
vt 0.116723 -0.199905
vt 0.121642 -0.209743
vt 0.119853 -0.210638
vt 0.114934 -0.200799
vt -0.119853 -0.210638
vt -0.121642 -0.209743
vt -0.116723 -0.199905
vt -0.114934 -0.200799
vt -0.314004 -0.144827
vt -0.315887 -0.144154
vt -0.312187 -0.133795
vt -0.310304 -0.134467
vt 0.312187 -0.133795
vt 0.315887 -0.144154
vt 0.314004 -0.144827
vt 0.310304 -0.134467
s off
f 1/1/1 2/2/2 3/3/3
f 1/1/1 3/3/3 4/4/4
f 5/5/5 6/6/6 7/7/7
f 5/5/5 7/7/7 8/8/8
f 9/9/9 10/10/10 11/11/11
f 9/9/9 11/11/11 12/12/12
f 13/13/13 14/14/14 15/15/15
f 13/13/13 15/15/15 16/16/16
f 17/17/17 18/18/18 19/19/19
f 17/17/17 19/19/19 20/20/20
f 21/21/21 22/22/22 23/23/23
f 21/21/21 23/23/23 24/24/24
