# Exported using automatic converter by Erwin Coumans
mtllib model6.mtl
#object mesh501734902

v 0.846324 -0.788288 2.494743
v 0.847068 -0.792936 2.505516
v 0.840754 -0.779539 2.506845
v 0.840028 -0.775011 2.496021
v 0.847068 -0.792936 2.505516
v 0.858327 -0.792533 2.508875
v 0.852040 -0.779313 2.510128
v 0.840754 -0.779539 2.506845
v 0.858327 -0.792533 2.508875
v 0.864540 -0.787637 2.500179
v 0.858289 -0.774646 2.501332
v 0.852040 -0.779313 2.510128
v 0.864540 -0.787637 2.500179
v 0.857121 -0.785013 2.491446
v 0.850865 -0.771988 2.492613
v 0.858289 -0.774646 2.501332
v 0.857121 -0.785013 2.491446
v 0.846324 -0.788288 2.494743
v 0.840028 -0.775011 2.496021
v 0.850865 -0.771988 2.492613
v 0.915493 -0.763443 2.511117
v 0.905096 -0.762587 2.505699
v 0.896851 -0.766728 2.512984
v 0.902152 -0.770142 2.522905
v 0.913674 -0.768112 2.521751
v 0.840028 -0.775011 2.496021
v 0.840754 -0.779539 2.506845
v 0.852040 -0.779313 2.510128
v 0.858289 -0.774646 2.501332
v 0.850865 -0.771988 2.492613
v 0.870414 -0.795144 2.512649
v 0.858824 -0.796281 2.514253
v 0.847068 -0.792936 2.505516
v 0.846324 -0.788288 2.494743
v 0.858824 -0.796281 2.514253
v 0.853381 -0.791125 2.505199
v 0.858327 -0.792533 2.508875
v 0.847068 -0.792936 2.505516
v 0.853381 -0.791125 2.505199
v 0.861606 -0.786802 2.497999
v 0.864540 -0.787637 2.500179
v 0.858327 -0.792533 2.508875
v 0.861606 -0.786802 2.497999
v 0.872134 -0.789286 2.502603
v 0.857121 -0.785013 2.491446
v 0.864540 -0.787637 2.500179
v 0.872134 -0.789286 2.502603
v 0.870414 -0.795144 2.512649
v 0.846324 -0.788288 2.494743
v 0.857121 -0.785013 2.491446
v 0.883758 -0.787964 2.514035
v 0.872248 -0.790077 2.515153
v 0.858824 -0.796281 2.514253
v 0.870414 -0.795144 2.512649
v 0.872248 -0.790077 2.515153
v 0.866947 -0.786661 2.505233
v 0.853381 -0.791125 2.505199
v 0.858824 -0.796281 2.514253
v 0.866947 -0.786661 2.505233
v 0.875181 -0.782437 2.497983
v 0.861606 -0.786802 2.497999
v 0.853381 -0.791125 2.505199
v 0.875181 -0.782437 2.497983
v 0.885571 -0.783242 2.503423
v 0.872134 -0.789286 2.502603
v 0.861606 -0.786802 2.497999
v 0.885571 -0.783242 2.503423
v 0.883758 -0.787964 2.514035
v 0.870414 -0.795144 2.512649
v 0.872134 -0.789286 2.502603
v 0.893723 -0.777911 2.506930
v 0.882209 -0.779997 2.508060
v 0.872248 -0.790077 2.515153
v 0.883758 -0.787964 2.514035
v 0.882209 -0.779997 2.508060
v 0.876903 -0.776542 2.498156
v 0.866947 -0.786661 2.505233
v 0.872248 -0.790077 2.515153
v 0.876903 -0.776542 2.498156
v 0.885137 -0.772322 2.490904
v 0.875181 -0.782437 2.497983
v 0.866947 -0.786661 2.505233
v 0.885137 -0.772322 2.490904
v 0.895532 -0.773168 2.496327
v 0.885571 -0.783242 2.503423
v 0.875181 -0.782437 2.497983
v 0.895532 -0.773168 2.496327
v 0.893723 -0.777911 2.506930
v 0.883758 -0.787964 2.514035
v 0.885571 -0.783242 2.503423
v 0.902862 -0.767413 2.511554
v 0.891346 -0.769482 2.512691
v 0.882209 -0.779997 2.508060
v 0.893723 -0.777911 2.506930
v 0.891346 -0.769482 2.512691
v 0.886026 -0.765935 2.502826
v 0.876903 -0.776542 2.498156
v 0.882209 -0.779997 2.508060
v 0.886026 -0.765935 2.502826
v 0.894255 -0.761674 2.495592
v 0.885137 -0.772322 2.490904
v 0.876903 -0.776542 2.498156
v 0.894255 -0.761674 2.495592
v 0.904660 -0.762588 2.500986
v 0.895532 -0.773168 2.496327
v 0.885137 -0.772322 2.490904
v 0.904660 -0.762588 2.500986
v 0.902862 -0.767413 2.511554
v 0.893723 -0.777911 2.506930
v 0.895532 -0.773168 2.496327
v 0.913674 -0.768112 2.521751
v 0.902152 -0.770142 2.522905
v 0.891346 -0.769482 2.512691
v 0.902862 -0.767413 2.511554
v 0.902152 -0.770142 2.522905
v 0.896851 -0.766728 2.512984
v 0.886026 -0.765935 2.502826
v 0.891346 -0.769482 2.512691
v 0.896851 -0.766728 2.512984
v 0.905096 -0.762587 2.505699
v 0.894255 -0.761674 2.495592
v 0.886026 -0.765935 2.502826
v 0.905096 -0.762587 2.505699
v 0.915493 -0.763443 2.511117
v 0.904660 -0.762588 2.500986
v 0.894255 -0.761674 2.495592
v 0.915493 -0.763443 2.511117
v 0.913674 -0.768112 2.521751
v 0.902862 -0.767413 2.511554
v 0.904660 -0.762588 2.500986
usemtl mat20

vn -0.902368 -0.415347 -0.114976
vn -0.902368 -0.415347 -0.114976
vn -0.902368 -0.415347 -0.114976
vn -0.902368 -0.415347 -0.114976
vn -0.270137 -0.218862 0.937617
vn -0.270137 -0.218862 0.937617
vn -0.270137 -0.218862 0.937617
vn -0.270137 -0.218862 0.937617
vn 0.704520 0.277037 0.653378
vn 0.704520 0.277037 0.653378
vn 0.704520 0.277037 0.653378
vn 0.704520 0.277037 0.653378
vn 0.752728 0.407961 -0.516690
vn 0.752728 0.407961 -0.516690
vn 0.752728 0.407961 -0.516690
vn 0.752728 0.407961 -0.516690
vn -0.283441 -0.046203 -0.957876
vn -0.283441 -0.046203 -0.957876
vn -0.283441 -0.046203 -0.957876
vn -0.283441 -0.046203 -0.957876
vn -0.123305 0.916233 0.381200
vn -0.123305 0.916233 0.381200
vn -0.123305 0.916233 0.381200
vn -0.123305 0.916233 0.381200
vn -0.123305 0.916233 0.381200
vn -0.131645 0.911354 0.390005
vn -0.131645 0.911354 0.390005
vn -0.131645 0.911354 0.390005
vn -0.131645 0.911354 0.390005
vn -0.131645 0.911354 0.390005
vn 0.034867 -0.916755 -0.397925
vn 0.034867 -0.916755 -0.397925
vn 0.034867 -0.916755 -0.397925
vn 0.034867 -0.916755 -0.397925
vn -0.199325 0.795196 0.572654
vn -0.199325 0.795196 0.572654
vn -0.199325 0.795196 0.572654
vn -0.199325 0.795196 0.572654
vn 0.077976 -0.891504 -0.446252
vn 0.077976 -0.891504 -0.446252
vn 0.077976 -0.891504 -0.446252
vn 0.077976 -0.891504 -0.446252
vn 0.162118 0.974519 0.155016
vn 0.162118 0.974519 0.155016
vn 0.162118 0.974519 0.155016
vn 0.162118 0.974519 0.155016
vn 0.114446 -0.866557 -0.485779
vn 0.114446 -0.866557 -0.485779
vn 0.114446 -0.866557 -0.485779
vn 0.114446 -0.866557 -0.485779
vn 0.169375 -0.485269 0.857803
vn 0.169375 -0.485269 0.857803
vn 0.169375 -0.485269 0.857803
vn 0.169375 -0.485269 0.857803
vn -0.326246 0.778389 0.536352
vn -0.326246 0.778389 0.536352
vn -0.326246 0.778389 0.536352
vn -0.326246 0.778389 0.536352
vn -0.302873 0.930611 0.205502
vn -0.302873 0.930611 0.205502
vn -0.302873 0.930611 0.205502
vn -0.302873 0.930611 0.205502
vn 0.259804 -0.616839 -0.742975
vn 0.259804 -0.616839 -0.742975
vn 0.259804 -0.616839 -0.742975
vn 0.259804 -0.616839 -0.742975
vn 0.437826 -0.828384 -0.349413
vn 0.437826 -0.828384 -0.349413
vn 0.437826 -0.828384 -0.349413
vn 0.437826 -0.828384 -0.349413
vn -0.030306 0.595927 0.802466
vn -0.030306 0.595927 0.802466
vn -0.030306 0.595927 0.802466
vn -0.030306 0.595927 0.802466
vn -0.423466 0.761628 0.490509
vn -0.423466 0.761628 0.490509
vn -0.423466 0.761628 0.490509
vn -0.423466 0.761628 0.490509
vn -0.706468 0.225981 -0.670698
vn -0.706468 0.225981 -0.670698
vn -0.706468 0.225981 -0.670698
vn -0.706468 0.225981 -0.670698
vn 0.275883 -0.719582 -0.637252
vn 0.275883 -0.719582 -0.637252
vn 0.275883 -0.719582 -0.637252
vn 0.275883 -0.719582 -0.637252
vn 0.601161 -0.762944 -0.237742
vn 0.601161 -0.762944 -0.237742
vn 0.601161 -0.762944 -0.237742
vn 0.601161 -0.762944 -0.237742
vn 0.176176 -0.521033 0.835157
vn 0.176176 -0.521033 0.835157
vn 0.176176 -0.521033 0.835157
vn 0.176176 -0.521033 0.835157
vn -0.739694 0.401743 0.539867
vn -0.739694 0.401743 0.539867
vn -0.739694 0.401743 0.539867
vn -0.739694 0.401743 0.539867
vn -0.642696 0.694241 -0.323993
vn -0.642696 0.694241 -0.323993
vn -0.642696 0.694241 -0.323993
vn -0.642696 0.694241 -0.323993
vn 0.461012 -0.005555 -0.887377
vn 0.461012 -0.005555 -0.887377
vn 0.461012 -0.005555 -0.887377
vn 0.461012 -0.005555 -0.887377
vn 0.778304 -0.611239 -0.143631
vn 0.778304 -0.611239 -0.143631
vn 0.778304 -0.611239 -0.143631
vn 0.778304 -0.611239 -0.143631
vn 0.149308 -0.963481 -0.222288
vn 0.149308 -0.963481 -0.222288
vn 0.149308 -0.963481 -0.222288
vn 0.149308 -0.963481 -0.222288
vn -0.410501 0.768547 0.490739
vn -0.410501 0.768547 0.490739
vn -0.410501 0.768547 0.490739
vn -0.410501 0.768547 0.490739
vn -0.208718 0.930345 0.301488
vn -0.208718 0.930345 0.301488
vn -0.208718 0.930345 0.301488
vn -0.208718 0.930345 0.301488
vn 0.089116 0.995985 -0.008457
vn 0.089116 0.995985 -0.008457
vn 0.089116 0.995985 -0.008457
vn 0.089116 0.995985 -0.008457
vn 0.269180 -0.895281 -0.354985
vn 0.269180 -0.895281 -0.354985
vn 0.269180 -0.895281 -0.354985
vn 0.269180 -0.895281 -0.354985

vt 0.025232 -0.334893
vt 0.025603 -0.336008
vt 0.024116 -0.336031
vt 0.023757 -0.334912
vt -0.019908 0.149349
vt -0.020314 0.150453
vt -0.018845 0.150438
vt -0.018421 0.149341
vt -0.025646 -0.234930
vt -0.025533 -0.233760
vt -0.024087 -0.233774
vt -0.024177 -0.234946
vt 0.011192 0.312430
vt 0.010750 0.311341
vt 0.009302 0.311282
vt 0.009747 0.312370
vt 0.022776 -0.058720
vt 0.022589 -0.059880
vt 0.021114 -0.059890
vt 0.021327 -0.058733
vt -0.322847 -0.081165
vt -0.321898 -0.081860
vt -0.322266 -0.082977
vt -0.323441 -0.082972
vt -0.323800 -0.081853
vt -0.317957 -0.086703
vt -0.319036 -0.087169
vt -0.319813 -0.086287
vt -0.319214 -0.085275
vt -0.318067 -0.085533
vt 0.315457 -0.096870
vt 0.315092 -0.097988
vt 0.313720 -0.098599
vt 0.312645 -0.098123
vt -0.299641 -0.069117
vt -0.298466 -0.069086
vt -0.299047 -0.068836
vt -0.298261 -0.069711
vt 0.310191 -0.092700
vt 0.309840 -0.091578
vt 0.310184 -0.091428
vt 0.310770 -0.092447
vt -0.328669 -0.098601
vt -0.329570 -0.097847
vt -0.327864 -0.098725
vt -0.329002 -0.098430
vt 0.307492 -0.085172
vt 0.308431 -0.085879
vt 0.305607 -0.087104
vt 0.305732 -0.085935
vt 0.136366 0.036867
vt 0.136513 0.035701
vt 0.136263 0.034241
vt 0.136008 0.035388
vt -0.312223 -0.053515
vt -0.311051 -0.053529
vt -0.310574 -0.054872
vt -0.311745 -0.054914
vt -0.337216 -0.070667
vt -0.336817 -0.069562
vt -0.336350 -0.070909
vt -0.336746 -0.072016
vt 0.265215 -0.027589
vt 0.266145 -0.026876
vt 0.265744 -0.028293
vt 0.264766 -0.028939
vt 0.333550 -0.058601
vt 0.334509 -0.059278
vt 0.333964 -0.060697
vt 0.333033 -0.059982
vt -0.227319 -0.061905
vt -0.226917 -0.063009
vt -0.227445 -0.064504
vt -0.227846 -0.063399
vt -0.321237 -0.045633
vt -0.320062 -0.045637
vt -0.320510 -0.047158
vt -0.321686 -0.047153
vt -0.138350 -0.157040
vt -0.138135 -0.155884
vt -0.137894 -0.157451
vt -0.138108 -0.158607
vt 0.290717 -0.044432
vt 0.291669 -0.043743
vt 0.292165 -0.045248
vt 0.291214 -0.045938
vt 0.338612 -0.061393
vt 0.339554 -0.062096
vt 0.339897 -0.063643
vt 0.338954 -0.062940
vt 0.151439 0.038009
vt 0.151574 0.036841
vt 0.150659 0.035693
vt 0.150526 0.036861
vt -0.320918 0.018530
vt -0.319742 0.018530
vt -0.319257 0.017137
vt -0.320433 0.017144
vt -0.287952 -0.092631
vt -0.287583 -0.091515
vt -0.286597 -0.092616
vt -0.286970 -0.093731
vt 0.143053 0.153924
vt 0.143799 0.154833
vt 0.144080 0.153387
vt 0.143340 0.152474
vt 0.335938 -0.079107
vt 0.336833 -0.079869
vt 0.336006 -0.081080
vt 0.335106 -0.080323
vt 0.337282 -0.074584
vt 0.336959 -0.075714
vt 0.335595 -0.076310
vt 0.335918 -0.075179
vt -0.322647 -0.045294
vt -0.321472 -0.045300
vt -0.320106 -0.045887
vt -0.321282 -0.045886
vt -0.332375 -0.074144
vt -0.331989 -0.073034
vt -0.330623 -0.073617
vt -0.331008 -0.074728
vt -0.339777 -0.059729
vt -0.340647 -0.058939
vt -0.339320 -0.059607
vt -0.338451 -0.060399
vt 0.330647 -0.067203
vt 0.331607 -0.067882
vt 0.330238 -0.068463
vt 0.329279 -0.067782
s off
f 1/1/1 2/2/2 3/3/3
f 1/1/1 3/3/3 4/4/4
f 5/5/5 6/6/6 7/7/7
f 5/5/5 7/7/7 8/8/8
f 9/9/9 10/10/10 11/11/11
f 9/9/9 11/11/11 12/12/12
f 13/13/13 14/14/14 15/15/15
f 13/13/13 15/15/15 16/16/16
f 17/17/17 18/18/18 19/19/19
f 17/17/17 19/19/19 20/20/20
f 21/21/21 22/22/22 23/23/23
f 21/21/21 23/23/23 24/24/24
f 21/21/21 24/24/24 25/25/25
f 26/26/26 27/27/27 28/28/28
f 26/26/26 28/28/28 29/29/29
f 26/26/26 29/29/29 30/30/30
f 31/31/31 32/32/32 33/33/33
f 31/31/31 33/33/33 34/34/34
f 35/35/35 36/36/36 37/37/37
f 35/35/35 37/37/37 38/38/38
f 39/39/39 40/40/40 41/41/41
f 39/39/39 41/41/41 42/42/42
f 43/43/43 44/44/44 45/45/45
f 43/43/43 45/45/45 46/46/46
f 47/47/47 48/48/48 49/49/49
f 47/47/47 49/49/49 50/50/50
f 51/51/51 52/52/52 53/53/53
f 51/51/51 53/53/53 54/54/54
f 55/55/55 56/56/56 57/57/57
f 55/55/55 57/57/57 58/58/58
f 59/59/59 60/60/60 61/61/61
f 59/59/59 61/61/61 62/62/62
f 63/63/63 64/64/64 65/65/65
f 63/63/63 65/65/65 66/66/66
f 67/67/67 68/68/68 69/69/69
f 67/67/67 69/69/69 70/70/70
f 71/71/71 72/72/72 73/73/73
f 71/71/71 73/73/73 74/74/74
f 75/75/75 76/76/76 77/77/77
f 75/75/75 77/77/77 78/78/78
f 79/79/79 80/80/80 81/81/81
f 79/79/79 81/81/81 82/82/82
f 83/83/83 84/84/84 85/85/85
f 83/83/83 85/85/85 86/86/86
f 87/87/87 88/88/88 89/89/89
f 87/87/87 89/89/89 90/90/90
f 91/91/91 92/92/92 93/93/93
f 91/91/91 93/93/93 94/94/94
f 95/95/95 96/96/96 97/97/97
f 95/95/95 97/97/97 98/98/98
f 99/99/99 100/100/100 101/101/101
f 99/99/99 101/101/101 102/102/102
f 103/103/103 104/104/104 105/105/105
f 103/103/103 105/105/105 106/106/106
f 107/107/107 108/108/108 109/109/109
f 107/107/107 109/109/109 110/110/110
f 111/111/111 112/112/112 113/113/113
f 111/111/111 113/113/113 114/114/114
f 115/115/115 116/116/116 117/117/117
f 115/115/115 117/117/117 118/118/118
f 119/119/119 120/120/120 121/121/121
f 119/119/119 121/121/121 122/122/122
f 123/123/123 124/124/124 125/125/125
f 123/123/123 125/125/125 126/126/126
f 127/127/127 128/128/128 129/129/129
f 127/127/127 129/129/129 130/130/130
