# Exported using automatic converter by Erwin Coumans
mtllib model6.mtl
#object group2136252452_3

v 0.273438 -0.654155 2.086158
v 0.323374 -0.653831 2.072527
v 0.323402 -0.643837 2.072870
v 0.273466 -0.644161 2.086500
v 0.323374 -0.653831 2.072527
v 0.359803 -0.652678 2.035770
v 0.359831 -0.642684 2.036112
v 0.323402 -0.643837 2.072870
v 0.359803 -0.652678 2.035770
v 0.372963 -0.651004 1.985735
v 0.372992 -0.641010 1.986077
v 0.359831 -0.642684 2.036112
v 0.372963 -0.651004 1.985735
v 0.359329 -0.649258 1.935830
v 0.359358 -0.639264 1.936171
v 0.372992 -0.641010 1.986077
v 0.359329 -0.649258 1.935830
v 0.322554 -0.647907 1.899426
v 0.322583 -0.637913 1.899768
v 0.359358 -0.639264 1.936171
v 0.322554 -0.647907 1.899426
v 0.272492 -0.647314 1.886278
v 0.272520 -0.637320 1.886620
v 0.322583 -0.637913 1.899768
v 0.272492 -0.647314 1.886278
v 0.222556 -0.647638 1.899908
v 0.222584 -0.637644 1.900250
v 0.272520 -0.637320 1.886620
v 0.222556 -0.647638 1.899908
v 0.186127 -0.648791 1.936666
v 0.186156 -0.638797 1.937008
v 0.222584 -0.637644 1.900250
v 0.186127 -0.648791 1.936666
v 0.172966 -0.650465 1.986701
v 0.172995 -0.640471 1.987043
v 0.186156 -0.638797 1.937008
v 0.172966 -0.650465 1.986701
v 0.186600 -0.652211 2.036606
v 0.186629 -0.642217 2.036948
v 0.172995 -0.640471 1.987043
v 0.186600 -0.652211 2.036606
v 0.223375 -0.653562 2.073010
v 0.223404 -0.643568 2.073352
v 0.186629 -0.642217 2.036948
v 0.223375 -0.653562 2.073010
v 0.273438 -0.654155 2.086158
v 0.273466 -0.644161 2.086500
v 0.223404 -0.643568 2.073352
v 0.273466 -0.644161 2.086500
v 0.323402 -0.643837 2.072870
v 0.359831 -0.642684 2.036112
v 0.372992 -0.641010 1.986077
v 0.359358 -0.639264 1.936171
v 0.322583 -0.637913 1.899768
v 0.272520 -0.637320 1.886620
v 0.222584 -0.637644 1.900250
v 0.186156 -0.638797 1.937008
v 0.172995 -0.640471 1.987043
v 0.186629 -0.642217 2.036948
v 0.223404 -0.643568 2.073352
v 0.223375 -0.653562 2.073010
v 0.186600 -0.652211 2.036606
v 0.172966 -0.650465 1.986701
v 0.186127 -0.648791 1.936666
v 0.222556 -0.647638 1.899908
v 0.272492 -0.647314 1.886278
v 0.322554 -0.647907 1.899426
v 0.359329 -0.649258 1.935830
v 0.372963 -0.651004 1.985735
v 0.359803 -0.652678 2.035770
v 0.323374 -0.653831 2.072527
v 0.273438 -0.654155 2.086158
v 0.287854 -0.439560 2.018476
v 0.295725 -0.438355 2.005763
v 0.276857 -0.438682 1.994442
v 0.268660 -0.439955 2.006939
v 0.295725 -0.438355 2.005763
v 0.301946 -0.450538 1.999610
v 0.283569 -0.450764 1.988611
v 0.276857 -0.438682 1.994442
v 0.301946 -0.450538 1.999610
v 0.300298 -0.463927 2.006170
v 0.282083 -0.464118 1.995278
v 0.283569 -0.450764 1.988611
v 0.300298 -0.463927 2.006170
v 0.292428 -0.465132 2.018882
v 0.273886 -0.465391 2.007775
v 0.282083 -0.464118 1.995278
v 0.292428 -0.465132 2.018882
v 0.286206 -0.452949 2.025035
v 0.267175 -0.453310 2.013606
v 0.273886 -0.465391 2.007775
v 0.286206 -0.452949 2.025035
v 0.287854 -0.439560 2.018476
v 0.268660 -0.439955 2.006939
v 0.267175 -0.453310 2.013606
v 0.286206 -0.452949 2.025035
v 0.292428 -0.465132 2.018882
v 0.300298 -0.463927 2.006170
v 0.301946 -0.450538 1.999610
v 0.295725 -0.438355 2.005763
v 0.287854 -0.439560 2.018476
v 0.268660 -0.439955 2.006939
v 0.276857 -0.438682 1.994442
v 0.283569 -0.450764 1.988611
v 0.282083 -0.464118 1.995278
v 0.273886 -0.465391 2.007775
v 0.267175 -0.453310 2.013606
v 0.441316 -0.699996 1.725036
v 0.440829 -0.660702 1.810924
v 0.447180 -0.680780 1.816922
v 0.447667 -0.720073 1.731035
v 0.334638 -0.671320 1.814242
v 0.340486 -0.663526 1.816570
v 0.340973 -0.702819 1.730682
v 0.335125 -0.710614 1.728355
v 0.447180 -0.680780 1.816922
v 0.334638 -0.671320 1.814242
v 0.335125 -0.710614 1.728355
v 0.447667 -0.720073 1.731035
v 0.335125 -0.710614 1.728355
v 0.441316 -0.699996 1.725036
v 0.447667 -0.720073 1.731035
v 0.440829 -0.660702 1.810924
v 0.334638 -0.671320 1.814242
v 0.447180 -0.680780 1.816922
v 0.335125 -0.710614 1.728355
v 0.340973 -0.702819 1.730682
v 0.441316 -0.699996 1.725036
v 0.440829 -0.660702 1.810924
v 0.340486 -0.663526 1.816570
v 0.334638 -0.671320 1.814242
v 0.453708 -0.238383 1.909420
v 0.454371 -0.243171 2.049336
v 0.454170 -0.313130 2.046943
v 0.453508 -0.308342 1.907027
v 0.354172 -0.312860 2.047426
v 0.354372 -0.242902 2.049819
v 0.353710 -0.238114 1.909903
v 0.353509 -0.308072 1.907509
v 0.454170 -0.313130 2.046943
v 0.354172 -0.312860 2.047426
v 0.353509 -0.308072 1.907509
v 0.453508 -0.308342 1.907027
v 0.435720 -0.228911 1.932539
v 0.432174 -0.230938 2.034517
v 0.454371 -0.243171 2.049336
v 0.453708 -0.238383 1.909420
v 0.353509 -0.308072 1.907509
v 0.353710 -0.238114 1.909903
v 0.453708 -0.238383 1.909420
v 0.453508 -0.308342 1.907027
v 0.454371 -0.243171 2.049336
v 0.354372 -0.242902 2.049819
v 0.354172 -0.312860 2.047426
v 0.454170 -0.313130 2.046943
v 0.432174 -0.230938 2.034517
v 0.359329 -0.229669 2.032010
v 0.354372 -0.242902 2.049819
v 0.454371 -0.243171 2.049336
v 0.362874 -0.227642 1.930031
v 0.353710 -0.238114 1.909903
v 0.354372 -0.242902 2.049819
v 0.362874 -0.227642 1.930031
v 0.453708 -0.238383 1.909420
v 0.353710 -0.238114 1.909903
v 0.362874 -0.227642 1.930031
v 0.359329 -0.229669 2.032010
v 0.432174 -0.230938 2.034517
v 0.435720 -0.228911 1.932539
v 0.362874 -0.227642 1.930031
v 0.435720 -0.228911 1.932539
v 0.453708 -0.238383 1.909420
v 0.354372 -0.242902 2.049819
v 0.359329 -0.229669 2.032010
v 0.362874 -0.227642 1.930031
v 0.402185 -1.017199 2.158175
v 0.392973 -1.018370 2.193200
v 0.393087 -0.978394 2.194567
v 0.402300 -0.977222 2.159543
v 0.393173 -0.948412 2.195593
v 0.402385 -0.947240 2.160569
v 0.402300 -0.977222 2.159543
v 0.393087 -0.978394 2.194567
v 0.393344 -0.888447 2.197644
v 0.402556 -0.887275 2.162620
v 0.402385 -0.947240 2.160569
v 0.393173 -0.948412 2.195593
v 0.393544 -0.818488 2.200037
v 0.402757 -0.817316 2.165013
v 0.402556 -0.887275 2.162620
v 0.393344 -0.888447 2.197644
v 0.523998 -0.817643 2.164428
v 0.533542 -0.818865 2.199361
v 0.533342 -0.888824 2.196968
v 0.523798 -0.887602 2.162035
v 0.393601 -0.798500 2.200721
v 0.402813 -0.797328 2.165697
v 0.402757 -0.817316 2.165013
v 0.393544 -0.818488 2.200037
usemtl mat21

vn 0.263381 -0.033749 0.964101
vn 0.263381 -0.033749 0.964101
vn 0.263381 -0.033749 0.964101
vn 0.263381 -0.033749 0.964101
vn 0.710442 -0.026099 0.703272
vn 0.710442 -0.026099 0.703272
vn 0.710442 -0.026099 0.703272
vn 0.710442 -0.026099 0.703272
vn 0.967136 -0.011447 0.254002
vn 0.967136 -0.011447 0.254002
vn 0.967136 -0.011447 0.254002
vn 0.967136 -0.011447 0.254002
vn 0.964687 0.006252 -0.263326
vn 0.964687 0.006252 -0.263326
vn 0.964687 0.006252 -0.263326
vn 0.964687 0.006252 -0.263326
vn 0.703750 0.022271 -0.710098
vn 0.703750 0.022271 -0.710098
vn 0.703750 0.022271 -0.710098
vn 0.703750 0.022271 -0.710098
vn 0.254241 0.032348 -0.966600
vn 0.254241 0.032348 -0.966600
vn 0.254241 0.032348 -0.966600
vn 0.254241 0.032348 -0.966600
vn -0.263381 0.033721 -0.964102
vn -0.263381 0.033721 -0.964102
vn -0.263381 0.033721 -0.964102
vn -0.263381 0.033721 -0.964102
vn -0.710441 0.026083 -0.703273
vn -0.710441 0.026083 -0.703273
vn -0.710441 0.026083 -0.703273
vn -0.710441 0.026083 -0.703273
vn -0.967136 0.011465 -0.254001
vn -0.967136 0.011465 -0.254001
vn -0.967136 0.011465 -0.254001
vn -0.967136 0.011465 -0.254001
vn -0.964687 -0.006243 0.263326
vn -0.964687 -0.006243 0.263326
vn -0.964687 -0.006243 0.263326
vn -0.964687 -0.006243 0.263326
vn -0.703751 -0.022285 0.710097
vn -0.703751 -0.022285 0.710097
vn -0.703751 -0.022285 0.710097
vn -0.703751 -0.022285 0.710097
vn -0.254240 -0.032330 0.966600
vn -0.254240 -0.032330 0.966600
vn -0.254240 -0.032330 0.966600
vn -0.254240 -0.032330 0.966600
vn 0.002860 0.999411 0.034188
vn 0.002860 0.999411 0.034188
vn 0.002860 0.999411 0.034188
vn 0.002860 0.999411 0.034188
vn 0.002860 0.999411 0.034188
vn 0.002860 0.999411 0.034188
vn 0.002860 0.999411 0.034188
vn 0.002860 0.999411 0.034188
vn 0.002860 0.999411 0.034188
vn 0.002860 0.999411 0.034188
vn 0.002860 0.999411 0.034188
vn 0.002860 0.999411 0.034188
vn -0.002860 -0.999411 -0.034188
vn -0.002860 -0.999411 -0.034188
vn -0.002860 -0.999411 -0.034188
vn -0.002860 -0.999411 -0.034188
vn -0.002860 -0.999411 -0.034188
vn -0.002860 -0.999411 -0.034188
vn -0.002860 -0.999411 -0.034188
vn -0.002860 -0.999411 -0.034188
vn -0.002860 -0.999411 -0.034188
vn -0.002860 -0.999411 -0.034188
vn -0.002860 -0.999411 -0.034188
vn -0.002860 -0.999411 -0.034188
vn -0.056236 0.996483 0.062126
vn -0.056236 0.996483 0.062126
vn -0.056236 0.996483 0.062126
vn -0.056236 0.996483 0.062126
vn 0.415698 0.571126 -0.707821
vn 0.415698 0.571126 -0.707821
vn 0.415698 0.571126 -0.707821
vn 0.415698 0.571126 -0.707821
vn 0.465784 -0.435539 -0.770293
vn 0.465784 -0.435539 -0.770293
vn 0.465784 -0.435539 -0.770293
vn 0.465784 -0.435539 -0.770293
vn 0.051304 -0.996548 -0.065275
vn 0.051304 -0.996548 -0.065275
vn 0.051304 -0.996548 -0.065275
vn 0.051304 -0.996548 -0.065275
vn -0.415292 -0.571055 0.708116
vn -0.415292 -0.571055 0.708116
vn -0.415292 -0.571055 0.708116
vn -0.415292 -0.571055 0.708116
vn -0.470048 0.434927 0.768045
vn -0.470048 0.434927 0.768045
vn -0.470048 0.434927 0.768045
vn -0.470048 0.434927 0.768045
vn 0.832895 0.157394 0.530578
vn 0.832895 0.157394 0.530578
vn 0.832895 0.157394 0.530578
vn 0.832895 0.157394 0.530578
vn 0.832895 0.157394 0.530578
vn 0.832895 0.157394 0.530578
vn -0.812974 -0.185157 -0.552078
vn -0.812974 -0.185157 -0.552078
vn -0.812974 -0.185157 -0.552078
vn -0.812974 -0.185157 -0.552078
vn -0.812974 -0.185157 -0.552078
vn -0.812974 -0.185157 -0.552078
vn 0.956404 0.267586 -0.116997
vn 0.956404 0.267586 -0.116997
vn 0.956404 0.267586 -0.116997
vn 0.956404 0.267586 -0.116997
vn -0.721335 0.628248 -0.291514
vn -0.721335 0.628248 -0.291514
vn -0.721335 0.628248 -0.291514
vn -0.721335 0.628248 -0.291514
vn -0.086024 -0.906165 0.414083
vn -0.086024 -0.906165 0.414083
vn -0.086024 -0.906165 0.414083
vn -0.086024 -0.906165 0.414083
vn -0.001277 -0.286615 -0.958045
vn -0.001277 -0.286615 -0.958045
vn -0.001277 -0.286615 -0.958045
vn 0.001277 0.286620 0.958044
vn 0.001277 0.286620 0.958044
vn 0.001277 0.286620 0.958044
vn -0.062272 0.328204 -0.942552
vn -0.062272 0.328204 -0.942552
vn -0.062272 0.328204 -0.942552
vn 0.062273 -0.328206 0.942551
vn 0.062273 -0.328206 0.942551
vn 0.062273 -0.328206 0.942551
vn 0.999985 -0.002696 -0.004826
vn 0.999985 -0.002696 -0.004826
vn 0.999985 -0.002696 -0.004826
vn 0.999985 -0.002696 -0.004826
vn -0.999985 0.002696 0.004826
vn -0.999985 0.002696 0.004826
vn -0.999985 0.002696 0.004826
vn -0.999985 0.002696 0.004826
vn -0.002860 -0.999411 -0.034188
vn -0.002860 -0.999411 -0.034188
vn -0.002860 -0.999411 -0.034188
vn -0.002860 -0.999411 -0.034188
vn 0.468090 0.883237 0.028010
vn 0.468090 0.883237 0.028010
vn 0.468090 0.883237 0.028010
vn 0.468090 0.883237 0.028010
vn -0.004731 0.034201 -0.999404
vn -0.004731 0.034201 -0.999404
vn -0.004731 0.034201 -0.999404
vn -0.004731 0.034201 -0.999404
vn 0.004731 -0.034201 0.999404
vn 0.004731 -0.034201 0.999404
vn 0.004731 -0.034201 0.999404
vn 0.004731 -0.034201 0.999404
vn 0.005045 0.801998 0.597305
vn 0.005045 0.801998 0.597305
vn 0.005045 0.801998 0.597305
vn 0.005045 0.801998 0.597305
vn -0.775827 0.630441 0.025247
vn -0.775827 0.630441 0.025247
vn -0.775827 0.630441 0.025247
vn 0.000164 0.887103 -0.461571
vn 0.000164 0.887103 -0.461571
vn 0.000164 0.887103 -0.461571
vn 0.016710 0.999651 0.020450
vn 0.016710 0.999651 0.020450
vn 0.016710 0.999651 0.020450
vn 0.016710 0.999651 0.020450
vn 0.028631 0.932582 -0.359820
vn 0.028631 0.932582 -0.359820
vn 0.028631 0.932582 -0.359820
vn -0.947365 0.319048 -0.026595
vn -0.947365 0.319048 -0.026595
vn -0.947365 0.319048 -0.026595
vn -0.967135 0.011455 -0.254006
vn -0.967135 0.011455 -0.254006
vn -0.967135 0.011455 -0.254006
vn -0.967135 0.011455 -0.254006
vn -0.967135 0.011445 -0.254007
vn -0.967135 0.011445 -0.254007
vn -0.967135 0.011445 -0.254007
vn -0.967135 0.011445 -0.254007
vn -0.967135 0.011451 -0.254006
vn -0.967135 0.011451 -0.254006
vn -0.967135 0.011451 -0.254006
vn -0.967135 0.011451 -0.254006
vn -0.967135 0.011455 -0.254006
vn -0.967135 0.011455 -0.254006
vn -0.967135 0.011455 -0.254006
vn -0.967135 0.011455 -0.254006
vn 0.964686 0.006252 -0.263330
vn 0.964686 0.006252 -0.263330
vn 0.964686 0.006252 -0.263330
vn 0.964686 0.006252 -0.263330
vn -0.967135 0.011445 -0.254007
vn -0.967135 0.011445 -0.254007
vn -0.967135 0.011445 -0.254007
vn -0.967135 0.011445 -0.254007

vt 0.028150 -0.077141
vt 0.025980 -0.072442
vt 0.026888 -0.072022
vt 0.029058 -0.076722
vt 0.088665 -0.190145
vt 0.086326 -0.185526
vt 0.087219 -0.185075
vt 0.089557 -0.189693
vt 0.170414 -0.224852
vt 0.167189 -0.220803
vt 0.167972 -0.220180
vt 0.171197 -0.224229
vt 0.272803 -0.061335
vt 0.267727 -0.060322
vt 0.267922 -0.059342
vt 0.272999 -0.060354
vt 0.154564 0.131472
vt 0.150736 0.127989
vt 0.150063 0.128728
vt 0.153891 0.132212
vt 0.041453 0.059777
vt 0.038913 0.055267
vt 0.038042 0.055757
vt 0.040582 0.060268
vt -0.025973 -0.072445
vt -0.028143 -0.077144
vt -0.029051 -0.076725
vt -0.026881 -0.072026
vt -0.086322 -0.185528
vt -0.088661 -0.190147
vt -0.089553 -0.189695
vt -0.087215 -0.185077
vt -0.167194 -0.220799
vt -0.170419 -0.224848
vt -0.171201 -0.224225
vt -0.167976 -0.220176
vt -0.267727 -0.060322
vt -0.272803 -0.061335
vt -0.272999 -0.060354
vt -0.267922 -0.059342
vt -0.150732 0.127993
vt -0.154561 0.131477
vt -0.153888 0.132216
vt -0.150059 0.128732
vt -0.038918 0.055264
vt -0.041458 0.059774
vt -0.040587 0.060265
vt -0.038046 0.055755
vt -0.277888 -0.107779
vt -0.278363 -0.102624
vt -0.276196 -0.097923
vt -0.271970 -0.094934
vt -0.266815 -0.094460
vt -0.262114 -0.096626
vt -0.259125 -0.100852
vt -0.258651 -0.106007
vt -0.260817 -0.110708
vt -0.265043 -0.113697
vt -0.270198 -0.114171
vt -0.274899 -0.112005
vt 0.274899 -0.112005
vt 0.270198 -0.114171
vt 0.265043 -0.113697
vt 0.260817 -0.110708
vt 0.258651 -0.106007
vt 0.259125 -0.100852
vt 0.262114 -0.096626
vt 0.266815 -0.094460
vt 0.271970 -0.094934
vt 0.276196 -0.097923
vt 0.278363 -0.102624
vt 0.277888 -0.107779
vt -0.271012 -0.103267
vt -0.270097 -0.102079
vt -0.268374 -0.103447
vt -0.269257 -0.104659
vt -0.157941 0.133369
vt -0.156481 0.133712
vt -0.156281 0.131579
vt -0.157726 0.131179
vt 0.181569 0.014501
vt 0.182671 0.013483
vt 0.181052 0.012111
vt 0.179937 0.013114
vt 0.270114 -0.102416
vt 0.271027 -0.103606
vt 0.269333 -0.104948
vt 0.268451 -0.103735
vt 0.156470 0.133791
vt 0.157931 0.133448
vt 0.157712 0.131239
vt 0.156266 0.131639
vt -0.183280 0.013825
vt -0.182179 0.014845
vt -0.180478 0.013388
vt -0.181592 0.012383
vt 0.085209 -0.232864
vt 0.083730 -0.232613
vt 0.083208 -0.231206
vt 0.084165 -0.230051
vt 0.085644 -0.230303
vt 0.086166 -0.231709
vt -0.073977 -0.231673
vt -0.073497 -0.230252
vt -0.072026 -0.229958
vt -0.071035 -0.231084
vt -0.071516 -0.232505
vt -0.072987 -0.232800
vt 0.160419 -0.206738
vt 0.169104 -0.210451
vt 0.167981 -0.212331
vt 0.159297 -0.208617
vt -0.227000 -0.115811
vt -0.227621 -0.115025
vt -0.218231 -0.114009
vt -0.217610 -0.114795
vt 0.239335 -0.004408
vt 0.238094 -0.015636
vt 0.228727 -0.014426
vt 0.229968 -0.003198
vt 0.084808 -0.046545
vt 0.089183 -0.036805
vt 0.091314 -0.037309
vt -0.088027 -0.036203
vt -0.083652 -0.045943
vt -0.090158 -0.036707
vt -0.065515 0.008640
vt -0.066092 0.009459
vt -0.062893 0.018991
vt 0.069226 0.020672
vt 0.072425 0.011141
vt 0.071848 0.010322
vt 0.243460 -0.140528
vt 0.254643 -0.148950
vt 0.250432 -0.154542
vt 0.239249 -0.146120
vt -0.250432 -0.154542
vt -0.254643 -0.148950
vt -0.243460 -0.140528
vt -0.239249 -0.146120
vt 0.279431 -0.089161
vt 0.275968 -0.098542
vt 0.262834 -0.093694
vt 0.266297 -0.084313
vt -0.242078 -0.143391
vt -0.250760 -0.148757
vt -0.253323 -0.147326
vt -0.241119 -0.140466
vt -0.023056 0.014787
vt -0.029342 0.017868
vt -0.024940 0.026847
vt -0.018655 0.023766
vt 0.024940 0.026847
vt 0.029342 0.017868
vt 0.023056 0.014787
vt 0.018655 0.023766
vt -0.195100 -0.101038
vt -0.191180 -0.107184
vt -0.192844 -0.108733
vt -0.197878 -0.100093
vt -0.274220 -0.068290
vt -0.271866 -0.068960
vt -0.285015 -0.073767
vt -0.261541 -0.017003
vt -0.260004 -0.007754
vt -0.259201 -0.017722
vt -0.265627 -0.093122
vt -0.275068 -0.096997
vt -0.277837 -0.090253
vt -0.268395 -0.086378
vt -0.270291 -0.034374
vt -0.271599 -0.027203
vt -0.269409 -0.025040
vt -0.275864 -0.104490
vt -0.274863 -0.102449
vt -0.265786 -0.097784
vt -0.149691 -0.256613
vt -0.151948 -0.259448
vt -0.155077 -0.256956
vt -0.152820 -0.254121
vt -0.157421 -0.255088
vt -0.155163 -0.252254
vt -0.152817 -0.254123
vt -0.155074 -0.256957
vt -0.162116 -0.251349
vt -0.159858 -0.248515
vt -0.155165 -0.252253
vt -0.157422 -0.255087
vt -0.167592 -0.246987
vt -0.165335 -0.244153
vt -0.159859 -0.248514
vt -0.162117 -0.251348
vt 0.291021 -0.081281
vt 0.294575 -0.081990
vt 0.293205 -0.088855
vt 0.289652 -0.088146
vt -0.169154 -0.245743
vt -0.166896 -0.242909
vt -0.165332 -0.244155
vt -0.167589 -0.246989
s off
f 1/1/1 2/2/2 3/3/3
f 1/1/1 3/3/3 4/4/4
f 5/5/5 6/6/6 7/7/7
f 5/5/5 7/7/7 8/8/8
f 9/9/9 10/10/10 11/11/11
f 9/9/9 11/11/11 12/12/12
f 13/13/13 14/14/14 15/15/15
f 13/13/13 15/15/15 16/16/16
f 17/17/17 18/18/18 19/19/19
f 17/17/17 19/19/19 20/20/20
f 21/21/21 22/22/22 23/23/23
f 21/21/21 23/23/23 24/24/24
f 25/25/25 26/26/26 27/27/27
f 25/25/25 27/27/27 28/28/28
f 29/29/29 30/30/30 31/31/31
f 29/29/29 31/31/31 32/32/32
f 33/33/33 34/34/34 35/35/35
f 33/33/33 35/35/35 36/36/36
f 37/37/37 38/38/38 39/39/39
f 37/37/37 39/39/39 40/40/40
f 41/41/41 42/42/42 43/43/43
f 41/41/41 43/43/43 44/44/44
f 45/45/45 46/46/46 47/47/47
f 45/45/45 47/47/47 48/48/48
f 49/49/49 50/50/50 51/51/51
f 49/49/49 51/51/51 52/52/52
f 49/49/49 52/52/52 53/53/53
f 49/49/49 53/53/53 54/54/54
f 49/49/49 54/54/54 55/55/55
f 49/49/49 55/55/55 56/56/56
f 49/49/49 56/56/56 57/57/57
f 49/49/49 57/57/57 58/58/58
f 49/49/49 58/58/58 59/59/59
f 49/49/49 59/59/59 60/60/60
f 61/61/61 62/62/62 63/63/63
f 61/61/61 63/63/63 64/64/64
f 61/61/61 64/64/64 65/65/65
f 61/61/61 65/65/65 66/66/66
f 61/61/61 66/66/66 67/67/67
f 61/61/61 67/67/67 68/68/68
f 61/61/61 68/68/68 69/69/69
f 61/61/61 69/69/69 70/70/70
f 61/61/61 70/70/70 71/71/71
f 61/61/61 71/71/71 72/72/72
f 73/73/73 74/74/74 75/75/75
f 73/73/73 75/75/75 76/76/76
f 77/77/77 78/78/78 79/79/79
f 77/77/77 79/79/79 80/80/80
f 81/81/81 82/82/82 83/83/83
f 81/81/81 83/83/83 84/84/84
f 85/85/85 86/86/86 87/87/87
f 85/85/85 87/87/87 88/88/88
f 89/89/89 90/90/90 91/91/91
f 89/89/89 91/91/91 92/92/92
f 93/93/93 94/94/94 95/95/95
f 93/93/93 95/95/95 96/96/96
f 97/97/97 98/98/98 99/99/99
f 97/97/97 99/99/99 100/100/100
f 97/97/97 100/100/100 101/101/101
f 97/97/97 101/101/101 102/102/102
f 103/103/103 104/104/104 105/105/105
f 103/103/103 105/105/105 106/106/106
f 103/103/103 106/106/106 107/107/107
f 103/103/103 107/107/107 108/108/108
f 109/109/109 110/110/110 111/111/111
f 109/109/109 111/111/111 112/112/112
f 113/113/113 114/114/114 115/115/115
f 113/113/113 115/115/115 116/116/116
f 117/117/117 118/118/118 119/119/119
f 117/117/117 119/119/119 120/120/120
f 121/121/121 122/122/122 123/123/123
f 124/124/124 125/125/125 126/126/126
f 127/127/127 128/128/128 129/129/129
f 130/130/130 131/131/131 132/132/132
f 133/133/133 134/134/134 135/135/135
f 133/133/133 135/135/135 136/136/136
f 137/137/137 138/138/138 139/139/139
f 137/137/137 139/139/139 140/140/140
f 141/141/141 142/142/142 143/143/143
f 141/141/141 143/143/143 144/144/144
f 145/145/145 146/146/146 147/147/147
f 145/145/145 147/147/147 148/148/148
f 149/149/149 150/150/150 151/151/151
f 149/149/149 151/151/151 152/152/152
f 153/153/153 154/154/154 155/155/155
f 153/153/153 155/155/155 156/156/156
f 157/157/157 158/158/158 159/159/159
f 157/157/157 159/159/159 160/160/160
f 161/161/161 162/162/162 163/163/163
f 164/164/164 165/165/165 166/166/166
f 167/167/167 168/168/168 169/169/169
f 167/167/167 169/169/169 170/170/170
f 171/171/171 172/172/172 173/173/173
f 174/174/174 175/175/175 176/176/176
f 177/177/177 178/178/178 179/179/179
f 177/177/177 179/179/179 180/180/180
f 181/181/181 182/182/182 183/183/183
f 181/181/181 183/183/183 184/184/184
f 185/185/185 186/186/186 187/187/187
f 185/185/185 187/187/187 188/188/188
f 189/189/189 190/190/190 191/191/191
f 189/189/189 191/191/191 192/192/192
f 193/193/193 194/194/194 195/195/195
f 193/193/193 195/195/195 196/196/196
f 197/197/197 198/198/198 199/199/199
f 197/197/197 199/199/199 200/200/200
