# Exported using automatic converter by Erwin Coumans
mtllib model6.mtl
#object mesh565309402

v 2.688237 -0.434511 -3.010148
v 2.448237 -0.434511 -3.010148
v 2.448237 -0.464511 -3.010148
v 2.688238 -0.464511 -3.010148
v 2.448238 -0.464511 -3.100148
v 2.448237 -0.434511 -3.100148
v 2.688238 -0.434511 -3.100148
v 2.688238 -0.464511 -3.100148
v 2.448237 -0.464511 -3.010148
v 2.448238 -0.464511 -3.100148
v 2.688238 -0.464511 -3.100148
v 2.688238 -0.464511 -3.010148
v 2.688238 -0.434511 -3.100148
v 2.448237 -0.434511 -3.100148
v 2.448237 -0.434511 -3.010148
v 2.688237 -0.434511 -3.010148
v 2.688238 -0.464511 -3.100148
v 2.688238 -0.434511 -3.100148
v 2.688237 -0.434511 -3.010148
v 2.688238 -0.464511 -3.010148
v 2.448237 -0.434511 -3.010148
v 2.448237 -0.434511 -3.100148
v 2.448238 -0.464511 -3.100148
v 2.448237 -0.464511 -3.010148
usemtl mat23

vn -0.000000 0.000000 1.000000
vn -0.000000 0.000000 1.000000
vn -0.000000 0.000000 1.000000
vn -0.000000 0.000000 1.000000
vn 0.000000 0.000000 -1.000000
vn 0.000000 0.000000 -1.000000
vn 0.000000 0.000000 -1.000000
vn 0.000000 0.000000 -1.000000
vn 0.000000 -1.000000 0.000000
vn 0.000000 -1.000000 0.000000
vn 0.000000 -1.000000 0.000000
vn 0.000000 -1.000000 0.000000
vn -0.000000 1.000000 0.000000
vn -0.000000 1.000000 0.000000
vn -0.000000 1.000000 0.000000
vn -0.000000 1.000000 0.000000
vn 1.000000 0.000000 0.000000
vn 1.000000 0.000000 0.000000
vn 1.000000 0.000000 0.000000
vn 1.000000 0.000000 0.000000
vn -1.000000 -0.000000 -0.000000
vn -1.000000 -0.000000 -0.000000
vn -1.000000 -0.000000 -0.000000
vn -1.000000 -0.000000 -0.000000

vt -0.101965 0.215110
vt -0.091232 0.193643
vt -0.093915 0.192302
vt -0.104648 0.213768
vt 0.093915 0.192302
vt 0.091232 0.193643
vt 0.101965 0.215110
vt 0.104648 0.213768
vt -0.127673 0.272836
vt -0.136149 0.275863
vt -0.128077 0.298465
vt -0.119601 0.295438
vt 0.128077 0.298465
vt 0.136149 0.275863
vt 0.127673 0.272836
vt 0.119601 0.295438
vt -0.178673 0.130081
vt -0.176929 0.132522
vt -0.169605 0.127291
vt -0.171349 0.124850
vt 0.169605 0.127291
vt 0.176929 0.132522
vt 0.178673 0.130081
vt 0.171349 0.124850
s off
f 1/1/1 2/2/2 3/3/3
f 1/1/1 3/3/3 4/4/4
f 5/5/5 6/6/6 7/7/7
f 5/5/5 7/7/7 8/8/8
f 9/9/9 10/10/10 11/11/11
f 9/9/9 11/11/11 12/12/12
f 13/13/13 14/14/14 15/15/15
f 13/13/13 15/15/15 16/16/16
f 17/17/17 18/18/18 19/19/19
f 17/17/17 19/19/19 20/20/20
f 21/21/21 22/22/22 23/23/23
f 21/21/21 23/23/23 24/24/24
