# Exported using automatic converter by Erwin Coumans
mtllib model6.mtl
#object mesh11705447

v -1.431762 0.485489 -2.815148
v -1.433102 0.485489 -2.822648
v -1.433102 0.655489 -2.822648
v -1.431762 0.655489 -2.815148
v -1.433102 0.485489 -2.822648
v -1.436762 0.485489 -2.828139
v -1.436762 0.655489 -2.828139
v -1.433102 0.655489 -2.822648
v -1.436762 0.485489 -2.828139
v -1.441762 0.485489 -2.830148
v -1.441762 0.655489 -2.830148
v -1.436762 0.655489 -2.828139
v -1.441762 0.485489 -2.830148
v -1.446762 0.485489 -2.828139
v -1.446762 0.655489 -2.828139
v -1.441762 0.655489 -2.830148
v -1.446762 0.485489 -2.828139
v -1.450423 0.485489 -2.822648
v -1.450422 0.655489 -2.822648
v -1.446762 0.655489 -2.828139
v -1.450423 0.485489 -2.822648
v -1.451762 0.485489 -2.815148
v -1.451762 0.655489 -2.815148
v -1.450422 0.655489 -2.822648
v -1.451762 0.485489 -2.815148
v -1.450423 0.485489 -2.807648
v -1.450422 0.655489 -2.807648
v -1.451762 0.655489 -2.815148
v -1.450423 0.485489 -2.807648
v -1.446762 0.485489 -2.802158
v -1.446762 0.655489 -2.802158
v -1.450422 0.655489 -2.807648
v -1.446762 0.485489 -2.802158
v -1.441762 0.485489 -2.800148
v -1.441762 0.655489 -2.800148
v -1.446762 0.655489 -2.802158
v -1.441762 0.485489 -2.800148
v -1.436762 0.485489 -2.802158
v -1.436762 0.655489 -2.802158
v -1.441762 0.655489 -2.800148
v -1.436762 0.485489 -2.802158
v -1.433102 0.485489 -2.807648
v -1.433102 0.655489 -2.807648
v -1.436762 0.655489 -2.802158
v -1.433102 0.485489 -2.807648
v -1.431762 0.485489 -2.815148
v -1.431762 0.655489 -2.815148
v -1.433102 0.655489 -2.807648
v -1.431762 0.655489 -2.815148
v -1.433102 0.655489 -2.822648
v -1.436762 0.655489 -2.828139
v -1.441762 0.655489 -2.830148
v -1.446762 0.655489 -2.828139
v -1.450422 0.655489 -2.822648
v -1.451762 0.655489 -2.815148
v -1.450422 0.655489 -2.807648
v -1.446762 0.655489 -2.802158
v -1.441762 0.655489 -2.800148
v -1.436762 0.655489 -2.802158
v -1.433102 0.655489 -2.807648
v -1.433102 0.485489 -2.807648
v -1.436762 0.485489 -2.802158
v -1.441762 0.485489 -2.800148
v -1.446762 0.485489 -2.802158
v -1.450423 0.485489 -2.807648
v -1.451762 0.485489 -2.815148
v -1.450423 0.485489 -2.822648
v -1.446762 0.485489 -2.828139
v -1.441762 0.485489 -2.830148
v -1.436762 0.485489 -2.828139
v -1.433102 0.485489 -2.822648
v -1.431762 0.485489 -2.815148
usemtl mat23

vn 1.000000 -0.000000 -0.000000
vn 1.000000 -0.000000 -0.000000
vn 1.000000 -0.000000 -0.000000
vn 1.000000 -0.000000 -0.000000
vn 0.866025 -0.000000 -0.500000
vn 0.866025 -0.000000 -0.500000
vn 0.866025 -0.000000 -0.500000
vn 0.866025 -0.000000 -0.500000
vn 0.500000 -0.000000 -0.866026
vn 0.500000 -0.000000 -0.866026
vn 0.500000 -0.000000 -0.866026
vn 0.500000 -0.000000 -0.866026
vn -0.000000 0.000000 -1.000000
vn -0.000000 0.000000 -1.000000
vn -0.000000 0.000000 -1.000000
vn -0.000000 0.000000 -1.000000
vn -0.500000 0.000000 -0.866025
vn -0.500000 0.000000 -0.866025
vn -0.500000 0.000000 -0.866025
vn -0.500000 0.000000 -0.866025
vn -0.866025 0.000000 -0.500000
vn -0.866025 0.000000 -0.500000
vn -0.866025 0.000000 -0.500000
vn -0.866025 0.000000 -0.500000
vn -1.000000 0.000000 0.000000
vn -1.000000 0.000000 0.000000
vn -1.000000 0.000000 0.000000
vn -1.000000 0.000000 0.000000
vn -0.866025 0.000000 0.500000
vn -0.866025 0.000000 0.500000
vn -0.866025 0.000000 0.500000
vn -0.866025 0.000000 0.500000
vn -0.500000 0.000000 0.866026
vn -0.500000 0.000000 0.866026
vn -0.500000 0.000000 0.866026
vn -0.500000 0.000000 0.866026
vn 0.000000 -0.000000 1.000000
vn 0.000000 -0.000000 1.000000
vn 0.000000 -0.000000 1.000000
vn 0.000000 -0.000000 1.000000
vn 0.500000 -0.000000 0.866025
vn 0.500000 -0.000000 0.866025
vn 0.500000 -0.000000 0.866025
vn 0.500000 -0.000000 0.866025
vn 0.866026 -0.000000 0.500000
vn 0.866026 -0.000000 0.500000
vn 0.866026 -0.000000 0.500000
vn 0.866026 -0.000000 0.500000
vn 0.000000 1.000000 0.000000
vn 0.000000 1.000000 0.000000
vn 0.000000 1.000000 0.000000
vn 0.000000 1.000000 0.000000
vn 0.000000 1.000000 0.000000
vn 0.000000 1.000000 0.000000
vn 0.000000 1.000000 0.000000
vn 0.000000 1.000000 0.000000
vn 0.000000 1.000000 0.000000
vn 0.000000 1.000000 0.000000
vn 0.000000 1.000000 0.000000
vn 0.000000 1.000000 0.000000
vn -0.000000 -1.000000 0.000000
vn -0.000000 -1.000000 0.000000
vn -0.000000 -1.000000 0.000000
vn -0.000000 -1.000000 0.000000
vn -0.000000 -1.000000 0.000000
vn -0.000000 -1.000000 0.000000
vn -0.000000 -1.000000 0.000000
vn -0.000000 -1.000000 0.000000
vn -0.000000 -1.000000 0.000000
vn -0.000000 -1.000000 0.000000
vn -0.000000 -1.000000 0.000000
vn -0.000000 -1.000000 0.000000

vt -0.100264 0.190821
vt -0.100874 0.191256
vt -0.090993 0.205090
vt -0.090383 0.204654
vt -0.272290 -0.000038
vt -0.272905 -0.000273
vt -0.278963 0.015611
vt -0.278348 0.015846
vt -0.224331 -0.143524
vt -0.224645 -0.143955
vt -0.238393 -0.133956
vt -0.238079 -0.133524
vt -0.165022 -0.113145
vt -0.165245 -0.113592
vt -0.180451 -0.105990
vt -0.180227 -0.105542
vt -0.111277 -0.007810
vt -0.111533 -0.008343
vt -0.126867 -0.001004
vt -0.126611 -0.000470
vt -0.040774 0.118554
vt -0.041151 0.117944
vt -0.055613 0.126879
vt -0.055237 0.127489
vt 0.100264 0.190820
vt 0.099653 0.190385
vt 0.089772 0.204218
vt 0.090383 0.204654
vt 0.271885 0.000116
vt 0.271270 0.000351
vt 0.277328 0.016234
vt 0.277944 0.016000
vt 0.224076 -0.143174
vt 0.223762 -0.142742
vt 0.237511 -0.132743
vt 0.237824 -0.133174
vt 0.165022 -0.113145
vt 0.164798 -0.112698
vt 0.180003 -0.105095
vt 0.180227 -0.105542
vt 0.111464 -0.008201
vt 0.111209 -0.007667
vt 0.126543 -0.000327
vt 0.126798 -0.000861
vt 0.041002 0.118185
vt 0.040625 0.118795
vt 0.055088 0.127730
vt 0.055464 0.127121
vt 0.239808 -0.099118
vt 0.240559 -0.098992
vt 0.241199 -0.099152
vt 0.241557 -0.099556
vt 0.241536 -0.100094
vt 0.241142 -0.100623
vt 0.240480 -0.101002
vt 0.239729 -0.101128
vt 0.239089 -0.100968
vt 0.238732 -0.100565
vt 0.238753 -0.100026
vt 0.239147 -0.099497
vt -0.239147 -0.099497
vt -0.238753 -0.100026
vt -0.238732 -0.100565
vt -0.239089 -0.100968
vt -0.239729 -0.101128
vt -0.240480 -0.101002
vt -0.241142 -0.100623
vt -0.241536 -0.100094
vt -0.241557 -0.099556
vt -0.241199 -0.099152
vt -0.240559 -0.098992
vt -0.239808 -0.099118
s off
f 1/1/1 2/2/2 3/3/3
f 1/1/1 3/3/3 4/4/4
f 5/5/5 6/6/6 7/7/7
f 5/5/5 7/7/7 8/8/8
f 9/9/9 10/10/10 11/11/11
f 9/9/9 11/11/11 12/12/12
f 13/13/13 14/14/14 15/15/15
f 13/13/13 15/15/15 16/16/16
f 17/17/17 18/18/18 19/19/19
f 17/17/17 19/19/19 20/20/20
f 21/21/21 22/22/22 23/23/23
f 21/21/21 23/23/23 24/24/24
f 25/25/25 26/26/26 27/27/27
f 25/25/25 27/27/27 28/28/28
f 29/29/29 30/30/30 31/31/31
f 29/29/29 31/31/31 32/32/32
f 33/33/33 34/34/34 35/35/35
f 33/33/33 35/35/35 36/36/36
f 37/37/37 38/38/38 39/39/39
f 37/37/37 39/39/39 40/40/40
f 41/41/41 42/42/42 43/43/43
f 41/41/41 43/43/43 44/44/44
f 45/45/45 46/46/46 47/47/47
f 45/45/45 47/47/47 48/48/48
f 49/49/49 50/50/50 51/51/51
f 49/49/49 51/51/51 52/52/52
f 49/49/49 52/52/52 53/53/53
f 49/49/49 53/53/53 54/54/54
f 49/49/49 54/54/54 55/55/55
f 49/49/49 55/55/55 56/56/56
f 49/49/49 56/56/56 57/57/57
f 49/49/49 57/57/57 58/58/58
f 49/49/49 58/58/58 59/59/59
f 49/49/49 59/59/59 60/60/60
f 61/61/61 62/62/62 63/63/63
f 61/61/61 63/63/63 64/64/64
f 61/61/61 64/64/64 65/65/65
f 61/61/61 65/65/65 66/66/66
f 61/61/61 66/66/66 67/67/67
f 61/61/61 67/67/67 68/68/68
f 61/61/61 68/68/68 69/69/69
f 61/61/61 69/69/69 70/70/70
f 61/61/61 70/70/70 71/71/71
f 61/61/61 71/71/71 72/72/72
