# Exported using automatic converter by Erwin Coumans
mtllib botlab.mtl
#object mesh969649925

v 0.848037 -0.996461 0.376245
v 0.752505 -0.994581 0.382462
v 0.747820 -1.064211 0.377012
v 0.843352 -1.066091 0.370795
v 0.832650 -1.063276 0.292141
v 0.837335 -0.993646 0.297591
v 0.932867 -0.995525 0.291373
v 0.928181 -1.065155 0.285923
v 0.747820 -1.064211 0.377012
v 0.832650 -1.063276 0.292141
v 0.928181 -1.065155 0.285923
v 0.843352 -1.066091 0.370795
v 0.932867 -0.995525 0.291373
v 0.837335 -0.993646 0.297591
v 0.752505 -0.994581 0.382462
v 0.848037 -0.996461 0.376245
v 0.928181 -1.065155 0.285923
v 0.932867 -0.995525 0.291373
v 0.848037 -0.996461 0.376245
v 0.843352 -1.066091 0.370795
v 0.752505 -0.994581 0.382462
v 0.837335 -0.993646 0.297591
v 0.832650 -1.063276 0.292141
v 0.747820 -1.064211 0.377012
v 1.215089 -0.999569 0.374387
v 1.119416 -0.998534 0.378165
v 1.115324 -1.067723 0.368360
v 1.210997 -1.068758 0.364582
v 1.202344 -1.061196 0.285989
v 1.206437 -0.992007 0.295794
v 1.302109 -0.993043 0.292017
v 1.298017 -1.062232 0.282212
v 1.115324 -1.067723 0.368360
v 1.202344 -1.061196 0.285989
v 1.298017 -1.062232 0.282212
v 1.210997 -1.068758 0.364582
v 1.302109 -0.993043 0.292017
v 1.206437 -0.992007 0.295794
v 1.119416 -0.998534 0.378165
v 1.215089 -0.999569 0.374387
v 1.298017 -1.062232 0.282212
v 1.302109 -0.993043 0.292017
v 1.215089 -0.999569 0.374387
v 1.210997 -1.068758 0.364582
v 1.119416 -0.998534 0.378165
v 1.206437 -0.992007 0.295794
v 1.202344 -1.061196 0.285989
v 1.115324 -1.067723 0.368360
v 0.661909 -0.993203 0.376533
v 0.566737 -0.989933 0.386548
v 0.561101 -1.059659 0.383991
v 0.656272 -1.062929 0.373976
v 0.642380 -1.062994 0.295772
v 0.648016 -0.993268 0.298329
v 0.743187 -0.996539 0.288314
v 0.737551 -1.066264 0.285757
v 0.561101 -1.059659 0.383991
v 0.642380 -1.062994 0.295772
v 0.737551 -1.066264 0.285757
v 0.656272 -1.062929 0.373976
v 0.743187 -0.996539 0.288314
v 0.648016 -0.993268 0.298329
v 0.566737 -0.989933 0.386548
v 0.661909 -0.993203 0.376533
v 0.737551 -1.066264 0.285757
v 0.743187 -0.996539 0.288314
v 0.661909 -0.993203 0.376533
v 0.656272 -1.062929 0.373976
v 0.566737 -0.989933 0.386548
v 0.648016 -0.993268 0.298329
v 0.642380 -1.062994 0.295772
v 0.561101 -1.059659 0.383991
v 1.030634 -1.001685 0.374666
v 0.935247 -0.998506 0.382394
v 0.929434 -1.067954 0.375811
v 1.024821 -1.071132 0.368083
v 1.012966 -1.066779 0.289665
v 1.018778 -0.997333 0.296248
v 1.114166 -1.000511 0.288521
v 1.108353 -1.069958 0.281938
v 0.929434 -1.067954 0.375811
v 1.012966 -1.066779 0.289665
v 1.108353 -1.069958 0.281938
v 1.024821 -1.071132 0.368083
v 1.114166 -1.000511 0.288521
v 1.018778 -0.997333 0.296248
v 0.935247 -0.998506 0.382394
v 1.030634 -1.001685 0.374666
v 1.108353 -1.069958 0.281938
v 1.114166 -1.000511 0.288521
v 1.030634 -1.001685 0.374666
v 1.024821 -1.071132 0.368083
v 0.935247 -0.998506 0.382394
v 1.018778 -0.997333 0.296248
v 1.012966 -1.066779 0.289665
v 0.929434 -1.067954 0.375811
v 0.939874 -0.998106 0.378424
v 0.844183 -0.996294 0.381334
v 0.839675 -1.065710 0.373513
v 0.935367 -1.067521 0.370603
v 0.927440 -1.062197 0.291751
v 0.931947 -0.992782 0.299571
v 1.027638 -0.994593 0.296661
v 1.023131 -1.064009 0.288841
v 0.839675 -1.065710 0.373513
v 0.927440 -1.062197 0.291751
v 1.023131 -1.064009 0.288841
v 0.935367 -1.067521 0.370603
v 1.027638 -0.994593 0.296661
v 0.931947 -0.992782 0.299571
v 0.844183 -0.996294 0.381334
v 0.939874 -0.998106 0.378424
v 1.023131 -1.064009 0.288841
v 1.027638 -0.994593 0.296661
v 0.939874 -0.998106 0.378424
v 0.935367 -1.067521 0.370603
v 0.844183 -0.996294 0.381334
v 0.931947 -0.992782 0.299571
v 0.927440 -1.062197 0.291751
v 0.839675 -1.065710 0.373513
v 1.306845 -1.000901 0.378904
v 1.211101 -0.999732 0.379373
v 1.207247 -1.068562 0.367220
v 1.302992 -1.069730 0.366752
v 1.297104 -1.059639 0.288187
v 1.300957 -0.990809 0.300339
v 1.396701 -0.991978 0.299871
v 1.392848 -1.060807 0.287718
v 1.207247 -1.068562 0.367220
v 1.297104 -1.059639 0.288187
v 1.392848 -1.060807 0.287718
v 1.302992 -1.069730 0.366752
v 1.396701 -0.991978 0.299871
v 1.300957 -0.990809 0.300339
v 1.211101 -0.999732 0.379373
v 1.306845 -1.000901 0.378904
v 1.392848 -1.060807 0.287718
v 1.396701 -0.991978 0.299871
v 1.306845 -1.000901 0.378904
v 1.302992 -1.069730 0.366752
v 1.211101 -0.999732 0.379373
v 1.300957 -0.990809 0.300339
v 1.297104 -1.059639 0.288187
v 1.207247 -1.068562 0.367220
v 0.753735 -0.995873 0.375043
v 0.658268 -0.992795 0.381765
v 0.652714 -1.062399 0.376826
v 0.748181 -1.065477 0.370104
v 0.737080 -1.063076 0.291492
v 0.742634 -0.993472 0.296430
v 0.838101 -0.996550 0.289709
v 0.832547 -1.066154 0.284770
v 0.652714 -1.062399 0.376826
v 0.737080 -1.063076 0.291492
v 0.832547 -1.066154 0.284770
v 0.748181 -1.065477 0.370104
v 0.838101 -0.996550 0.289709
v 0.742634 -0.993472 0.296430
v 0.658268 -0.992795 0.381765
v 0.753735 -0.995873 0.375043
v 0.832547 -1.066154 0.284770
v 0.838101 -0.996550 0.289709
v 0.753735 -0.995873 0.375043
v 0.748181 -1.065477 0.370104
v 0.658268 -0.992795 0.381765
v 0.742634 -0.993472 0.296430
v 0.737080 -1.063076 0.291492
v 0.652714 -1.062399 0.376826
v 1.122458 -1.004723 0.375394
v 1.026860 -1.001551 0.379817
v 1.021192 -1.070745 0.370865
v 1.116790 -1.073916 0.366443
v 1.107745 -1.067092 0.287827
v 1.113413 -0.997899 0.296778
v 1.209010 -1.001070 0.292356
v 1.203342 -1.070264 0.283405
v 1.021192 -1.070745 0.370865
v 1.107745 -1.067092 0.287827
v 1.203342 -1.070264 0.283405
v 1.116790 -1.073916 0.366443
v 1.209010 -1.001070 0.292356
v 1.113413 -0.997899 0.296778
v 1.026860 -1.001551 0.379817
v 1.122458 -1.004723 0.375394
v 1.203342 -1.070264 0.283405
v 1.209010 -1.001070 0.292356
v 1.122458 -1.004723 0.375394
v 1.116790 -1.073916 0.366443
v 1.026860 -1.001551 0.379817
v 1.113413 -0.997899 0.296778
v 1.107745 -1.067092 0.287827
v 1.021192 -1.070745 0.370865
usemtl mat12

vn 0.063118 -0.082098 0.994624
vn 0.063118 -0.082098 0.994624
vn 0.063118 -0.082098 0.994624
vn 0.063118 -0.082098 0.994624
vn -0.063118 0.082098 -0.994624
vn -0.063118 0.082098 -0.994624
vn -0.063118 0.082098 -0.994624
vn -0.063118 0.082098 -0.994624
vn -0.021794 -0.999224 -0.032794
vn -0.021794 -0.999224 -0.032794
vn -0.021794 -0.999224 -0.032794
vn -0.021794 -0.999224 -0.032794
vn 0.021794 0.999224 0.032794
vn 0.021794 0.999224 0.032794
vn 0.021794 0.999224 0.032794
vn 0.021794 0.999224 0.032794
vn 0.704130 -0.102376 0.702652
vn 0.704130 -0.102376 0.702652
vn 0.704130 -0.102376 0.702652
vn 0.704130 -0.102376 0.702652
vn -0.704130 0.102376 -0.702652
vn -0.704130 0.102376 -0.702652
vn -0.704130 0.102376 -0.702652
vn -0.704130 0.102376 -0.702652
vn 0.037512 -0.142391 0.989100
vn 0.037512 -0.142391 0.989100
vn 0.037512 -0.142391 0.989100
vn 0.037512 -0.142391 0.989100
vn -0.037511 0.142391 -0.989099
vn -0.037511 0.142391 -0.989099
vn -0.037511 0.142391 -0.989099
vn -0.037511 0.142391 -0.989099
vn -0.014492 -0.995449 -0.094185
vn -0.014492 -0.995449 -0.094185
vn -0.014492 -0.995449 -0.094185
vn -0.014492 -0.995449 -0.094185
vn 0.014492 0.995449 0.094185
vn 0.014492 0.995449 0.094185
vn 0.014492 0.995449 0.094185
vn 0.014492 0.995449 0.094185
vn 0.686085 -0.141705 0.713587
vn 0.686085 -0.141705 0.713587
vn 0.686085 -0.141705 0.713587
vn 0.686085 -0.141705 0.713587
vn -0.686085 0.141705 -0.713587
vn -0.686085 0.141705 -0.713587
vn -0.686085 0.141705 -0.713587
vn -0.686085 0.141705 -0.713587
vn 0.103029 -0.044769 0.993670
vn 0.103029 -0.044769 0.993670
vn 0.103029 -0.044769 0.993670
vn 0.103029 -0.044769 0.993670
vn -0.103028 0.044769 -0.993671
vn -0.103028 0.044769 -0.993671
vn -0.103028 0.044769 -0.993671
vn -0.103028 0.044769 -0.993671
vn -0.033626 -0.999411 0.006806
vn -0.033626 -0.999411 0.006806
vn -0.033626 -0.999411 0.006806
vn -0.033626 -0.999411 0.006806
vn 0.033627 0.999411 -0.006806
vn 0.033627 0.999411 -0.006806
vn 0.033627 0.999411 -0.006806
vn 0.033627 0.999411 -0.006806
vn 0.731266 -0.083941 0.676908
vn 0.731266 -0.083941 0.676908
vn 0.731266 -0.083941 0.676908
vn 0.731266 -0.083941 0.676908
vn -0.731266 0.083941 -0.676908
vn -0.731266 0.083941 -0.676908
vn -0.731266 0.083941 -0.676908
vn -0.731266 0.083941 -0.676908
vn 0.077012 -0.100472 0.991955
vn 0.077012 -0.100472 0.991955
vn 0.077012 -0.100472 0.991955
vn 0.077012 -0.100472 0.991955
vn -0.077011 0.100472 -0.991955
vn -0.077011 0.100472 -0.991955
vn -0.077011 0.100472 -0.991955
vn -0.077011 0.100472 -0.991955
vn -0.037293 -0.998065 -0.049765
vn -0.037293 -0.998065 -0.049765
vn -0.037293 -0.998065 -0.049765
vn -0.037293 -0.998065 -0.049765
vn 0.037293 0.998065 0.049765
vn 0.037293 0.998065 0.049765
vn 0.037293 0.998065 0.049765
vn 0.037293 0.998065 0.049765
vn 0.713128 -0.125072 0.689786
vn 0.713128 -0.125072 0.689786
vn 0.713128 -0.125072 0.689786
vn 0.713128 -0.125072 0.689786
vn -0.713128 0.125072 -0.689786
vn -0.713128 0.125072 -0.689786
vn -0.713128 0.125072 -0.689786
vn -0.713128 0.125072 -0.689786
vn 0.028047 -0.113704 0.993119
vn 0.028047 -0.113704 0.993119
vn 0.028047 -0.113704 0.993119
vn 0.028047 -0.113704 0.993119
vn -0.028046 0.113704 -0.993119
vn -0.028046 0.113704 -0.993119
vn -0.028046 0.113704 -0.993119
vn -0.028046 0.113704 -0.993119
vn -0.020872 -0.997650 -0.065259
vn -0.020872 -0.997650 -0.065259
vn -0.020872 -0.997650 -0.065259
vn -0.020872 -0.997650 -0.065259
vn 0.020872 0.997650 0.065259
vn 0.020872 0.997650 0.065259
vn 0.020872 0.997650 0.065259
vn 0.020872 0.997650 0.065259
vn 0.678935 -0.125581 0.723379
vn 0.678935 -0.125581 0.723379
vn 0.678935 -0.125581 0.723379
vn 0.678935 -0.125581 0.723379
vn -0.678935 0.125581 -0.723379
vn -0.678935 0.125581 -0.723379
vn -0.678935 0.125581 -0.723379
vn -0.678935 0.125581 -0.723379
vn 0.002696 -0.174015 0.984739
vn 0.002696 -0.174015 0.984739
vn 0.002696 -0.174015 0.984739
vn 0.002696 -0.174015 0.984739
vn -0.002695 0.174015 -0.984739
vn -0.002695 0.174015 -0.984739
vn -0.002695 0.174015 -0.984739
vn -0.002695 0.174015 -0.984739
vn -0.012728 -0.991890 -0.126458
vn -0.012728 -0.991890 -0.126458
vn -0.012728 -0.991890 -0.126458
vn -0.012728 -0.991890 -0.126458
vn 0.012728 0.991890 0.126458
vn 0.012728 0.991890 0.126458
vn 0.012728 0.991890 0.126458
vn 0.012728 0.991890 0.126458
vn 0.660504 -0.166254 0.732185
vn 0.660504 -0.166254 0.732185
vn 0.660504 -0.166254 0.732185
vn 0.660504 -0.166254 0.732185
vn -0.660504 0.166254 -0.732185
vn -0.660504 0.166254 -0.732185
vn -0.660504 0.166254 -0.732185
vn -0.660504 0.166254 -0.732185
vn 0.067595 -0.075983 0.994815
vn 0.067595 -0.075983 0.994815
vn 0.067595 -0.075983 0.994815
vn 0.067595 -0.075983 0.994815
vn -0.067594 0.075983 -0.994815
vn -0.067594 0.075983 -0.994815
vn -0.067594 0.075983 -0.994815
vn -0.067594 0.075983 -0.994815
vn -0.034021 -0.999090 -0.025707
vn -0.034021 -0.999090 -0.025707
vn -0.034021 -0.999090 -0.025707
vn -0.034021 -0.999090 -0.025707
vn 0.034021 0.999090 0.025707
vn 0.034021 0.999090 0.025707
vn 0.034021 0.999090 0.025707
vn 0.034021 0.999090 0.025707
vn 0.706700 -0.106030 0.699524
vn 0.706700 -0.106030 0.699524
vn 0.706700 -0.106030 0.699524
vn 0.706700 -0.106030 0.699524
vn -0.706700 0.106030 -0.699524
vn -0.706700 0.106030 -0.699524
vn -0.706700 0.106030 -0.699524
vn -0.706700 0.106030 -0.699524
vn 0.041451 -0.131526 0.990446
vn 0.041451 -0.131526 0.990446
vn 0.041451 -0.131526 0.990446
vn 0.041451 -0.131526 0.990446
vn -0.041450 0.131526 -0.990446
vn -0.041450 0.131526 -0.990446
vn -0.041450 0.131526 -0.990446
vn -0.041450 0.131526 -0.990446
vn -0.036842 -0.995934 -0.082208
vn -0.036842 -0.995934 -0.082208
vn -0.036842 -0.995934 -0.082208
vn -0.036842 -0.995934 -0.082208
vn 0.036842 0.995934 0.082208
vn 0.036842 0.995934 0.082208
vn 0.036842 0.995934 0.082208
vn 0.036842 0.995934 0.082208
vn 0.687905 -0.148264 0.710496
vn 0.687905 -0.148264 0.710496
vn 0.687905 -0.148264 0.710496
vn 0.687905 -0.148264 0.710496
vn -0.687905 0.148264 -0.710496
vn -0.687905 0.148264 -0.710496
vn -0.687905 0.148264 -0.710496
vn -0.687905 0.148264 -0.710496

vt -0.055928 0.024571
vt -0.051723 0.015969
vt -0.057876 0.012632
vt -0.062082 0.021234
vt 0.062177 0.020562
vt 0.056023 0.023899
vt 0.060228 0.032501
vt 0.066382 0.029164
vt 0.136201 -0.003183
vt 0.131258 0.007752
vt 0.134057 0.016909
vt 0.138999 0.005975
vt -0.134465 0.017094
vt -0.131666 0.007937
vt -0.136608 -0.002998
vt -0.139407 0.006159
vt -0.019469 -0.056405
vt -0.013354 -0.052999
vt -0.007515 -0.063483
vt -0.013631 -0.066889
vt 0.004370 -0.069963
vt 0.010208 -0.059479
vt 0.016323 -0.062884
vt 0.010485 -0.073368
vt -0.064520 0.065266
vt -0.060541 0.056557
vt -0.066779 0.053382
vt -0.070759 0.062091
vt 0.070871 0.061421
vt 0.064633 0.064596
vt 0.068612 0.073306
vt 0.074851 0.070130
vt 0.151775 0.026270
vt 0.147388 0.037439
vt 0.150644 0.046444
vt 0.155030 0.035275
vt -0.151060 0.046608
vt -0.147804 0.037603
vt -0.152191 0.026433
vt -0.155447 0.035438
vt -0.025834 -0.026275
vt -0.019583 -0.023126
vt -0.014183 -0.033842
vt -0.020435 -0.036992
vt 0.011308 -0.040446
vt 0.016708 -0.029730
vt 0.022959 -0.032880
vt 0.017559 -0.043596
vt -0.050148 0.000732
vt -0.045758 -0.007778
vt -0.051838 -0.011247
vt -0.056228 -0.002737
vt 0.056308 -0.003412
vt 0.050228 0.000057
vt 0.054618 0.008567
vt 0.060698 0.005098
vt 0.128736 -0.017400
vt 0.123188 -0.006760
vt 0.125469 0.002540
vt 0.131017 -0.008101
vt -0.125866 0.002747
vt -0.123585 -0.006553
vt -0.129132 -0.017194
vt -0.131414 -0.007894
vt -0.013779 -0.073743
vt -0.007805 -0.070095
vt -0.001550 -0.080336
vt -0.007524 -0.083984
vt -0.001853 -0.086684
vt 0.004402 -0.076443
vt 0.010376 -0.080091
vt 0.004121 -0.090332
vt -0.060673 0.040655
vt -0.056396 0.032088
vt -0.062521 0.028700
vt -0.066798 0.037267
vt 0.066888 0.036594
vt 0.060762 0.039982
vt 0.065039 0.048549
vt 0.071164 0.045161
vt 0.143751 0.012786
vt 0.138756 0.023697
vt 0.141511 0.032867
vt 0.146506 0.021956
vt -0.141918 0.033053
vt -0.139163 0.023883
vt -0.144158 0.012972
vt -0.146913 0.022142
vt -0.020750 -0.045221
vt -0.014668 -0.041756
vt -0.008727 -0.052182
vt -0.014809 -0.055648
vt 0.005518 -0.058631
vt 0.011458 -0.048204
vt 0.017540 -0.051670
vt 0.011600 -0.062096
vt -0.057801 0.039134
vt -0.053670 0.030496
vt -0.059852 0.027212
vt -0.063983 0.035851
vt 0.064084 0.035179
vt 0.057902 0.038462
vt 0.062032 0.047101
vt 0.068214 0.043817
vt 0.140704 0.002907
vt 0.136300 0.014069
vt 0.139541 0.023079
vt 0.143945 0.011916
vt -0.139958 0.023243
vt -0.136716 0.014233
vt -0.141120 0.003071
vt -0.144361 0.012081
vt -0.021285 -0.044799
vt -0.015090 -0.041540
vt -0.009504 -0.052161
vt -0.015699 -0.055419
vt 0.006514 -0.058714
vt 0.012100 -0.048093
vt 0.018295 -0.051352
vt 0.012710 -0.061972
vt -0.065714 0.080059
vt -0.061820 0.071311
vt -0.068090 0.068197
vt -0.071983 0.076945
vt 0.072102 0.076276
vt 0.065833 0.079390
vt 0.069726 0.088138
vt 0.075996 0.085024
vt 0.156822 0.032221
vt 0.152969 0.043586
vt 0.156647 0.052426
vt 0.160500 0.041062
vt -0.157071 0.052570
vt -0.153393 0.043729
vt -0.157246 0.032365
vt -0.160924 0.041205
vt -0.027048 -0.013552
vt -0.020724 -0.010550
vt -0.015579 -0.021391
vt -0.021903 -0.024393
vt 0.012860 -0.028061
vt 0.018006 -0.017220
vt 0.024330 -0.020222
vt 0.019184 -0.031063
vt -0.052471 0.015107
vt -0.048146 0.006564
vt -0.054253 0.003142
vt -0.058578 0.011684
vt 0.058663 0.011011
vt 0.052557 0.014433
vt 0.056882 0.022976
vt 0.062988 0.019553
vt 0.132709 -0.011183
vt 0.127700 -0.000278
vt 0.130444 0.008896
vt 0.135452 -0.002009
vt -0.130850 0.009083
vt -0.128107 -0.000091
vt -0.133116 -0.010996
vt -0.135859 -0.001822
vt -0.016104 -0.062848
vt -0.010043 -0.059346
vt -0.004040 -0.069736
vt -0.010101 -0.073238
vt 0.000792 -0.076165
vt 0.006795 -0.065775
vt 0.012856 -0.069277
vt 0.006853 -0.079667
vt -0.062569 0.055314
vt -0.058365 0.046711
vt -0.064519 0.043375
vt -0.068723 0.051978
vt 0.068818 0.051306
vt 0.062665 0.054642
vt 0.066869 0.063245
vt 0.073022 0.059909
vt 0.148352 0.018778
vt 0.143898 0.029921
vt 0.147100 0.038945
vt 0.151553 0.027802
vt -0.147515 0.039111
vt -0.144314 0.030087
vt -0.148767 0.018944
vt -0.151969 0.027968
vt -0.022650 -0.033125
vt -0.016487 -0.029806
vt -0.010798 -0.040373
vt -0.016962 -0.043691
vt 0.007745 -0.046896
vt 0.013433 -0.036330
vt 0.019597 -0.039648
vt 0.013909 -0.050215
s off
f 1/1/1 2/2/2 3/3/3
f 1/1/1 3/3/3 4/4/4
f 5/5/5 6/6/6 7/7/7
f 5/5/5 7/7/7 8/8/8
f 9/9/9 10/10/10 11/11/11
f 9/9/9 11/11/11 12/12/12
f 13/13/13 14/14/14 15/15/15
f 13/13/13 15/15/15 16/16/16
f 17/17/17 18/18/18 19/19/19
f 17/17/17 19/19/19 20/20/20
f 21/21/21 22/22/22 23/23/23
f 21/21/21 23/23/23 24/24/24
f 25/25/25 26/26/26 27/27/27
f 25/25/25 27/27/27 28/28/28
f 29/29/29 30/30/30 31/31/31
f 29/29/29 31/31/31 32/32/32
f 33/33/33 34/34/34 35/35/35
f 33/33/33 35/35/35 36/36/36
f 37/37/37 38/38/38 39/39/39
f 37/37/37 39/39/39 40/40/40
f 41/41/41 42/42/42 43/43/43
f 41/41/41 43/43/43 44/44/44
f 45/45/45 46/46/46 47/47/47
f 45/45/45 47/47/47 48/48/48
f 49/49/49 50/50/50 51/51/51
f 49/49/49 51/51/51 52/52/52
f 53/53/53 54/54/54 55/55/55
f 53/53/53 55/55/55 56/56/56
f 57/57/57 58/58/58 59/59/59
f 57/57/57 59/59/59 60/60/60
f 61/61/61 62/62/62 63/63/63
f 61/61/61 63/63/63 64/64/64
f 65/65/65 66/66/66 67/67/67
f 65/65/65 67/67/67 68/68/68
f 69/69/69 70/70/70 71/71/71
f 69/69/69 71/71/71 72/72/72
f 73/73/73 74/74/74 75/75/75
f 73/73/73 75/75/75 76/76/76
f 77/77/77 78/78/78 79/79/79
f 77/77/77 79/79/79 80/80/80
f 81/81/81 82/82/82 83/83/83
f 81/81/81 83/83/83 84/84/84
f 85/85/85 86/86/86 87/87/87
f 85/85/85 87/87/87 88/88/88
f 89/89/89 90/90/90 91/91/91
f 89/89/89 91/91/91 92/92/92
f 93/93/93 94/94/94 95/95/95
f 93/93/93 95/95/95 96/96/96
f 97/97/97 98/98/98 99/99/99
f 97/97/97 99/99/99 100/100/100
f 101/101/101 102/102/102 103/103/103
f 101/101/101 103/103/103 104/104/104
f 105/105/105 106/106/106 107/107/107
f 105/105/105 107/107/107 108/108/108
f 109/109/109 110/110/110 111/111/111
f 109/109/109 111/111/111 112/112/112
f 113/113/113 114/114/114 115/115/115
f 113/113/113 115/115/115 116/116/116
f 117/117/117 118/118/118 119/119/119
f 117/117/117 119/119/119 120/120/120
f 121/121/121 122/122/122 123/123/123
f 121/121/121 123/123/123 124/124/124
f 125/125/125 126/126/126 127/127/127
f 125/125/125 127/127/127 128/128/128
f 129/129/129 130/130/130 131/131/131
f 129/129/129 131/131/131 132/132/132
f 133/133/133 134/134/134 135/135/135
f 133/133/133 135/135/135 136/136/136
f 137/137/137 138/138/138 139/139/139
f 137/137/137 139/139/139 140/140/140
f 141/141/141 142/142/142 143/143/143
f 141/141/141 143/143/143 144/144/144
f 145/145/145 146/146/146 147/147/147
f 145/145/145 147/147/147 148/148/148
f 149/149/149 150/150/150 151/151/151
f 149/149/149 151/151/151 152/152/152
f 153/153/153 154/154/154 155/155/155
f 153/153/153 155/155/155 156/156/156
f 157/157/157 158/158/158 159/159/159
f 157/157/157 159/159/159 160/160/160
f 161/161/161 162/162/162 163/163/163
f 161/161/161 163/163/163 164/164/164
f 165/165/165 166/166/166 167/167/167
f 165/165/165 167/167/167 168/168/168
f 169/169/169 170/170/170 171/171/171
f 169/169/169 171/171/171 172/172/172
f 173/173/173 174/174/174 175/175/175
f 173/173/173 175/175/175 176/176/176
f 177/177/177 178/178/178 179/179/179
f 177/177/177 179/179/179 180/180/180
f 181/181/181 182/182/182 183/183/183
f 181/181/181 183/183/183 184/184/184
f 185/185/185 186/186/186 187/187/187
f 185/185/185 187/187/187 188/188/188
f 189/189/189 190/190/190 191/191/191
f 189/189/189 191/191/191 192/192/192
