# Exported using automatic converter by Erwin Coumans
mtllib botlab.mtl
#object mesh1158019801

v -0.232412 0.323291 -3.001657
v -0.246227 0.322147 -3.004458
v -0.333842 0.333805 -0.150135
v -0.320665 0.335081 -0.145161
v -0.246227 0.322147 -3.004458
v -0.245632 0.308283 -3.001732
v -0.332328 0.319750 -0.150541
v -0.333842 0.333805 -0.150135
v -0.245632 0.308283 -3.001732
v -0.231817 0.309427 -2.998931
v -0.319151 0.321026 -0.145567
v -0.332328 0.319750 -0.150541
v -0.231817 0.309427 -2.998931
v -0.232412 0.323291 -3.001657
v -0.320665 0.335081 -0.145161
v -0.319151 0.321026 -0.145567
v -0.231817 0.309427 -2.998931
v -0.245632 0.308283 -3.001732
v -0.246227 0.322147 -3.004458
v -0.232412 0.323291 -3.001657
v -0.320665 0.335081 -0.145161
v -0.333842 0.333805 -0.150135
v -0.332328 0.319750 -0.150541
v -0.319151 0.321026 -0.145567
usemtl mat22

vn -0.087349 0.996155 -0.006780
vn -0.087349 0.996155 -0.006780
vn -0.087349 0.996155 -0.006780
vn -0.087349 0.996155 -0.006780
vn -0.996514 -0.077800 -0.030129
vn -0.996514 -0.077800 -0.030129
vn -0.996514 -0.077800 -0.030129
vn -0.996514 -0.077800 -0.030129
vn 0.087373 -0.996153 0.006694
vn 0.087373 -0.996153 0.006694
vn 0.087373 -0.996153 0.006694
vn 0.087373 -0.996153 0.006694
vn 0.996507 0.077812 0.030325
vn 0.996507 0.077812 0.030325
vn 0.996507 0.077812 0.030325
vn 0.996507 0.077812 0.030325
vn 0.209754 -0.179963 -0.961050
vn 0.209754 -0.179963 -0.961050
vn 0.209754 -0.179963 -0.961050
vn 0.209754 -0.179963 -0.961050
vn -0.346944 -0.064445 0.935669
vn -0.346944 -0.064445 0.935669
vn -0.346944 -0.064445 0.935669
vn -0.346944 -0.064445 0.935669

vt 0.214410 0.023619
vt 0.215122 0.022398
vt -0.052278 -0.077837
vt -0.053176 -0.076745
vt 0.096755 0.204596
vt 0.097495 0.203391
vt -0.113363 0.011276
vt -0.114353 0.012286
vt -0.214899 0.022264
vt -0.214186 0.023486
vt 0.053129 -0.076699
vt 0.052231 -0.077792
vt -0.097252 0.203254
vt -0.096512 0.204458
vt 0.114717 0.011956
vt 0.113728 0.010946
vt -0.148207 -0.019443
vt -0.148885 -0.020684
vt -0.150126 -0.020006
vt -0.149448 -0.018765
vt 0.092682 0.013951
vt 0.093258 0.012660
vt 0.091966 0.012084
vt 0.091390 0.013375
s off
f 1/1/1 2/2/2 3/3/3
f 1/1/1 3/3/3 4/4/4
f 5/5/5 6/6/6 7/7/7
f 5/5/5 7/7/7 8/8/8
f 9/9/9 10/10/10 11/11/11
f 9/9/9 11/11/11 12/12/12
f 13/13/13 14/14/14 15/15/15
f 13/13/13 15/15/15 16/16/16
f 17/17/17 18/18/18 19/19/19
f 17/17/17 19/19/19 20/20/20
f 21/21/21 22/22/22 23/23/23
f 21/21/21 23/23/23 24/24/24
