# Exported using automatic converter by Erwin Coumans
mtllib model6.mtl
#object group1763975222_1

v -1.141451 0.748855 -2.540148
v -1.141451 0.988855 -2.540148
v -1.141451 0.988856 -2.570148
v -1.141451 0.748855 -2.570148
v -0.941451 0.988855 -2.570148
v -0.941451 0.988855 -2.540148
v -0.941451 0.748855 -2.540148
v -0.941451 0.748855 -2.570148
v -1.141451 0.988856 -2.570148
v -0.941451 0.988855 -2.570148
v -0.941451 0.748855 -2.570148
v -1.141451 0.748855 -2.570148
v -0.941451 0.748855 -2.540148
v -0.941451 0.988855 -2.540148
v -1.141451 0.988855 -2.540148
v -1.141451 0.748855 -2.540148
v -0.941451 0.748855 -2.570148
v -0.941451 0.748855 -2.540148
v -1.141451 0.748855 -2.540148
v -1.141451 0.748855 -2.570148
v -1.141451 0.988855 -2.540148
v -0.941451 0.988855 -2.540148
v -0.941451 0.988855 -2.570148
v -1.141451 0.988856 -2.570148
usemtl mat23

vn -1.000000 0.000000 0.000000
vn -1.000000 0.000000 0.000000
vn -1.000000 0.000000 0.000000
vn -1.000000 0.000000 0.000000
vn 1.000000 0.000000 0.000000
vn 1.000000 0.000000 0.000000
vn 1.000000 0.000000 0.000000
vn 1.000000 0.000000 0.000000
vn 0.000000 0.000000 -1.000000
vn 0.000000 0.000000 -1.000000
vn 0.000000 0.000000 -1.000000
vn 0.000000 0.000000 -1.000000
vn 0.000000 -0.000000 1.000000
vn 0.000000 -0.000000 1.000000
vn 0.000000 -0.000000 1.000000
vn 0.000000 -0.000000 1.000000
vn 0.000000 -1.000000 0.000000
vn 0.000000 -1.000000 0.000000
vn 0.000000 -1.000000 0.000000
vn 0.000000 -1.000000 0.000000
vn 0.000000 1.000000 -0.000000
vn 0.000000 1.000000 -0.000000
vn 0.000000 1.000000 -0.000000
vn 0.000000 1.000000 -0.000000

vt 0.062578 0.196268
vt 0.048628 0.215797
vt 0.051070 0.217541
vt 0.065019 0.198011
vt -0.051070 0.217541
vt -0.048628 0.215797
vt -0.062578 0.196268
vt -0.065019 0.198011
vt -0.196614 -0.063773
vt -0.187670 -0.045885
vt -0.166203 -0.056618
vt -0.175148 -0.074506
vt 0.166203 -0.056618
vt 0.187670 -0.045885
vt 0.196614 -0.063773
vt 0.175148 -0.074506
vt -0.200244 -0.061184
vt -0.197419 -0.062193
vt -0.204146 -0.081028
vt -0.206971 -0.080019
vt 0.204146 -0.081028
vt 0.197419 -0.062193
vt 0.200244 -0.061184
vt 0.206971 -0.080019
s off
f 1/1/1 2/2/2 3/3/3
f 1/1/1 3/3/3 4/4/4
f 5/5/5 6/6/6 7/7/7
f 5/5/5 7/7/7 8/8/8
f 9/9/9 10/10/10 11/11/11
f 9/9/9 11/11/11 12/12/12
f 13/13/13 14/14/14 15/15/15
f 13/13/13 15/15/15 16/16/16
f 17/17/17 18/18/18 19/19/19
f 17/17/17 19/19/19 20/20/20
f 21/21/21 22/22/22 23/23/23
f 21/21/21 23/23/23 24/24/24
