# Exported using automatic converter by Erwin Coumans
mtllib model6.mtl
#object group794988537_1

v 2.753854 -0.695113 0.252723
v 2.752315 -0.698120 0.248801
v 2.725042 -0.700224 0.261121
v 2.726581 -0.697216 0.265042
v 2.752315 -0.698120 0.248801
v 2.751736 -0.702823 0.246718
v 2.724463 -0.704927 0.259037
v 2.725042 -0.700224 0.261121
v 2.751736 -0.702823 0.246718
v 2.752274 -0.707962 0.247031
v 2.725002 -0.710066 0.259351
v 2.724463 -0.704927 0.259037
v 2.752274 -0.707962 0.247031
v 2.753784 -0.712160 0.249657
v 2.726512 -0.714263 0.261977
v 2.725002 -0.710066 0.259351
v 2.753784 -0.712160 0.249657
v 2.755862 -0.714291 0.253893
v 2.728589 -0.716395 0.266212
v 2.726512 -0.714263 0.261977
v 2.755862 -0.714291 0.253893
v 2.757950 -0.713785 0.258602
v 2.730677 -0.715889 0.270922
v 2.728589 -0.716395 0.266212
v 2.757950 -0.713785 0.258602
v 2.759490 -0.710777 0.262524
v 2.732217 -0.712881 0.274843
v 2.730677 -0.715889 0.270922
v 2.759490 -0.710777 0.262524
v 2.760068 -0.706074 0.264607
v 2.732795 -0.708178 0.276926
v 2.732217 -0.712881 0.274843
v 2.760068 -0.706074 0.264607
v 2.759530 -0.700935 0.264293
v 2.732257 -0.703039 0.276613
v 2.732795 -0.708178 0.276926
v 2.759530 -0.700935 0.264293
v 2.758020 -0.696738 0.261667
v 2.730747 -0.698842 0.273987
v 2.732257 -0.703039 0.276613
v 2.758020 -0.696738 0.261667
v 2.755942 -0.694607 0.257432
v 2.728670 -0.696711 0.269751
v 2.730747 -0.698842 0.273987
v 2.755942 -0.694607 0.257432
v 2.753854 -0.695113 0.252723
v 2.726581 -0.697216 0.265042
v 2.728670 -0.696711 0.269751
v 2.726581 -0.697216 0.265042
v 2.725042 -0.700224 0.261121
v 2.724463 -0.704927 0.259037
v 2.725002 -0.710066 0.259351
v 2.726512 -0.714263 0.261977
v 2.728589 -0.716395 0.266212
v 2.730677 -0.715889 0.270922
v 2.732217 -0.712881 0.274843
v 2.732795 -0.708178 0.276926
v 2.732257 -0.703039 0.276613
v 2.730747 -0.698842 0.273987
v 2.728670 -0.696711 0.269751
v 2.755942 -0.694607 0.257432
v 2.758020 -0.696738 0.261667
v 2.759530 -0.700935 0.264293
v 2.760068 -0.706074 0.264607
v 2.759490 -0.710777 0.262524
v 2.757950 -0.713785 0.258602
v 2.755862 -0.714291 0.253893
v 2.753784 -0.712160 0.249657
v 2.752274 -0.707962 0.247031
v 2.751736 -0.702823 0.246718
v 2.752315 -0.698120 0.248801
v 2.753854 -0.695113 0.252723
v 2.935672 -0.681087 0.170592
v 2.937761 -0.680581 0.175301
v 2.974124 -0.677776 0.158875
v 2.972036 -0.678282 0.154166
v 2.937761 -0.680581 0.175301
v 2.939838 -0.682712 0.179537
v 2.976202 -0.679907 0.163110
v 2.974124 -0.677776 0.158875
v 2.939838 -0.682712 0.179537
v 2.941348 -0.686910 0.182163
v 2.977712 -0.684105 0.165737
v 2.976202 -0.679907 0.163110
v 2.941348 -0.686910 0.182163
v 2.941886 -0.692049 0.182476
v 2.978250 -0.689244 0.166050
v 2.977712 -0.684105 0.165737
v 2.941886 -0.692049 0.182476
v 2.941308 -0.696752 0.180393
v 2.977671 -0.693947 0.163967
v 2.978250 -0.689244 0.166050
v 2.941308 -0.696752 0.180393
v 2.939768 -0.699759 0.176471
v 2.976132 -0.696954 0.160045
v 2.977671 -0.693947 0.163967
v 2.939768 -0.699759 0.176471
v 2.937680 -0.700265 0.171762
v 2.974044 -0.697460 0.155336
v 2.976132 -0.696954 0.160045
v 2.937680 -0.700265 0.171762
v 2.935603 -0.698134 0.167527
v 2.971966 -0.695329 0.151101
v 2.974044 -0.697460 0.155336
v 2.935603 -0.698134 0.167527
v 2.934093 -0.693937 0.164901
v 2.970456 -0.691132 0.148475
v 2.971966 -0.695329 0.151101
v 2.934093 -0.693937 0.164901
v 2.933554 -0.688798 0.164587
v 2.969918 -0.685993 0.148161
v 2.970456 -0.691132 0.148475
v 2.933554 -0.688798 0.164587
v 2.934133 -0.684095 0.166670
v 2.970496 -0.681290 0.150244
v 2.969918 -0.685993 0.148161
v 2.934133 -0.684095 0.166670
v 2.935672 -0.681087 0.170592
v 2.972036 -0.678282 0.154166
v 2.970496 -0.681290 0.150244
v 2.972036 -0.678282 0.154166
v 2.974124 -0.677776 0.158875
v 2.976202 -0.679907 0.163110
v 2.977712 -0.684105 0.165737
v 2.978250 -0.689244 0.166050
v 2.977671 -0.693947 0.163967
v 2.976132 -0.696954 0.160045
v 2.974044 -0.697460 0.155336
v 2.971966 -0.695329 0.151101
v 2.970456 -0.691132 0.148475
v 2.969918 -0.685993 0.148161
v 2.970496 -0.681290 0.150244
v 2.934133 -0.684095 0.166670
v 2.933554 -0.688798 0.164587
v 2.934093 -0.693937 0.164901
v 2.935603 -0.698134 0.167527
v 2.937680 -0.700265 0.171762
v 2.939768 -0.699759 0.176471
v 2.941308 -0.696752 0.180393
v 2.941886 -0.692049 0.182476
v 2.941348 -0.686910 0.182163
v 2.939838 -0.682712 0.179537
v 2.937761 -0.680581 0.175301
v 2.935672 -0.681087 0.170592
usemtl mat21

vn -0.204808 0.933616 -0.293965
vn -0.204808 0.933616 -0.293965
vn -0.204808 0.933616 -0.293965
vn -0.204808 0.933616 -0.293965
vn -0.358757 0.632862 -0.686133
vn -0.358757 0.632862 -0.686133
vn -0.358757 0.632862 -0.686133
vn -0.358757 0.632862 -0.686133
vn -0.416578 0.162534 -0.894453
vn -0.416578 0.162534 -0.894453
vn -0.416578 0.162534 -0.894453
vn -0.416578 0.162534 -0.894453
vn -0.362777 -0.351345 -0.863105
vn -0.362777 -0.351345 -0.863105
vn -0.362777 -0.351345 -0.863105
vn -0.362777 -0.351345 -0.863105
vn -0.211770 -0.771082 -0.600488
vn -0.211770 -0.771082 -0.600488
vn -0.211770 -0.771082 -0.600488
vn -0.211770 -0.771082 -0.600488
vn -0.004020 -0.984208 -0.176972
vn -0.004020 -0.984208 -0.176972
vn -0.004020 -0.984208 -0.176972
vn -0.004020 -0.984208 -0.176972
vn 0.204808 -0.933616 0.293965
vn 0.204808 -0.933616 0.293965
vn 0.204808 -0.933616 0.293965
vn 0.204808 -0.933616 0.293965
vn 0.358757 -0.632862 0.686133
vn 0.358757 -0.632862 0.686133
vn 0.358757 -0.632862 0.686133
vn 0.358757 -0.632862 0.686133
vn 0.416578 -0.162534 0.894453
vn 0.416578 -0.162534 0.894453
vn 0.416578 -0.162534 0.894453
vn 0.416578 -0.162534 0.894453
vn 0.362777 0.351345 0.863105
vn 0.362777 0.351345 0.863105
vn 0.362777 0.351345 0.863105
vn 0.362777 0.351345 0.863105
vn 0.211770 0.771082 0.600488
vn 0.211770 0.771082 0.600488
vn 0.211770 0.771082 0.600488
vn 0.211770 0.771082 0.600488
vn 0.004020 0.984208 0.176971
vn 0.004020 0.984208 0.176971
vn 0.004020 0.984208 0.176971
vn 0.004020 0.984208 0.176971
vn -0.909091 -0.070127 0.410652
vn -0.909091 -0.070127 0.410652
vn -0.909091 -0.070127 0.410652
vn -0.909091 -0.070127 0.410652
vn -0.909091 -0.070127 0.410652
vn -0.909091 -0.070127 0.410652
vn -0.909091 -0.070127 0.410652
vn -0.909091 -0.070127 0.410652
vn -0.909091 -0.070127 0.410652
vn -0.909091 -0.070127 0.410652
vn -0.909091 -0.070127 0.410652
vn -0.909091 -0.070127 0.410652
vn 0.909091 0.070127 -0.410652
vn 0.909091 0.070127 -0.410652
vn 0.909091 0.070127 -0.410652
vn 0.909091 0.070127 -0.410652
vn 0.909091 0.070127 -0.410652
vn 0.909091 0.070127 -0.410652
vn 0.909091 0.070127 -0.410652
vn 0.909091 0.070127 -0.410652
vn 0.909091 0.070127 -0.410652
vn 0.909091 0.070127 -0.410652
vn 0.909091 0.070127 -0.410652
vn 0.909091 0.070127 -0.410652
vn -0.204808 0.933616 -0.293965
vn -0.204808 0.933616 -0.293965
vn -0.204808 0.933616 -0.293965
vn -0.204808 0.933616 -0.293965
vn 0.004020 0.984208 0.176972
vn 0.004020 0.984208 0.176972
vn 0.004020 0.984208 0.176972
vn 0.004020 0.984208 0.176972
vn 0.211770 0.771082 0.600488
vn 0.211770 0.771082 0.600488
vn 0.211770 0.771082 0.600488
vn 0.211770 0.771082 0.600488
vn 0.362777 0.351345 0.863105
vn 0.362777 0.351345 0.863105
vn 0.362777 0.351345 0.863105
vn 0.362777 0.351345 0.863105
vn 0.416578 -0.162534 0.894453
vn 0.416578 -0.162534 0.894453
vn 0.416578 -0.162534 0.894453
vn 0.416578 -0.162534 0.894453
vn 0.358757 -0.632863 0.686133
vn 0.358757 -0.632863 0.686133
vn 0.358757 -0.632863 0.686133
vn 0.358757 -0.632863 0.686133
vn 0.204808 -0.933616 0.293964
vn 0.204808 -0.933616 0.293964
vn 0.204808 -0.933616 0.293964
vn 0.204808 -0.933616 0.293964
vn -0.004020 -0.984208 -0.176972
vn -0.004020 -0.984208 -0.176972
vn -0.004020 -0.984208 -0.176972
vn -0.004020 -0.984208 -0.176972
vn -0.211770 -0.771082 -0.600488
vn -0.211770 -0.771082 -0.600488
vn -0.211770 -0.771082 -0.600488
vn -0.211770 -0.771082 -0.600488
vn -0.362777 -0.351345 -0.863105
vn -0.362777 -0.351345 -0.863105
vn -0.362777 -0.351345 -0.863105
vn -0.362777 -0.351345 -0.863105
vn -0.416578 0.162534 -0.894453
vn -0.416578 0.162534 -0.894453
vn -0.416578 0.162534 -0.894453
vn -0.416578 0.162534 -0.894453
vn -0.358757 0.632863 -0.686133
vn -0.358757 0.632863 -0.686133
vn -0.358757 0.632863 -0.686133
vn -0.358757 0.632863 -0.686133
vn 0.909091 0.070127 -0.410652
vn 0.909091 0.070127 -0.410652
vn 0.909091 0.070127 -0.410652
vn 0.909091 0.070127 -0.410652
vn 0.909091 0.070127 -0.410652
vn 0.909091 0.070127 -0.410652
vn 0.909091 0.070127 -0.410652
vn 0.909091 0.070127 -0.410652
vn 0.909091 0.070127 -0.410652
vn 0.909091 0.070127 -0.410652
vn 0.909091 0.070127 -0.410652
vn 0.909091 0.070127 -0.410652
vn -0.909091 -0.070127 0.410652
vn -0.909091 -0.070127 0.410652
vn -0.909091 -0.070127 0.410652
vn -0.909091 -0.070127 0.410652
vn -0.909091 -0.070127 0.410652
vn -0.909091 -0.070127 0.410652
vn -0.909091 -0.070127 0.410652
vn -0.909091 -0.070127 0.410652
vn -0.909091 -0.070127 0.410652
vn -0.909091 -0.070127 0.410652
vn -0.909091 -0.070127 0.410652
vn -0.909091 -0.070127 0.410652

vt -0.140174 0.207331
vt -0.139684 0.207228
vt -0.140304 0.204293
vt -0.140793 0.204396
vt -0.040232 0.198441
vt -0.039760 0.198276
vt -0.040754 0.195445
vt -0.041226 0.195611
vt 0.064514 0.161512
vt 0.064979 0.161327
vt 0.063873 0.158539
vt 0.063408 0.158723
vt 0.154357 0.131567
vt 0.154831 0.131408
vt 0.153875 0.128565
vt 0.153401 0.128724
vt 0.209090 0.138039
vt 0.209582 0.137948
vt 0.209034 0.134999
vt 0.208542 0.135090
vt 0.205475 0.176926
vt 0.205975 0.176933
vt 0.206019 0.173934
vt 0.205519 0.173927
vt 0.140174 0.207331
vt 0.140663 0.207435
vt 0.141282 0.204499
vt 0.140793 0.204396
vt 0.040232 0.198441
vt 0.040704 0.198607
vt 0.041697 0.195776
vt 0.041225 0.195610
vt -0.064514 0.161512
vt -0.064050 0.161696
vt -0.062943 0.158908
vt -0.063408 0.158723
vt -0.154357 0.131568
vt -0.153884 0.131727
vt -0.152927 0.128884
vt -0.153401 0.128724
vt -0.209090 0.138039
vt -0.208599 0.138131
vt -0.208051 0.135181
vt -0.208542 0.135090
vt -0.205475 0.176926
vt -0.204975 0.176919
vt -0.205019 0.173919
vt -0.205519 0.173927
vt -0.207370 0.008080
vt -0.207017 0.007701
vt -0.206902 0.007196
vt -0.207054 0.006701
vt -0.207433 0.006349
vt -0.207937 0.006234
vt -0.208432 0.006386
vt -0.208785 0.006765
vt -0.208900 0.007269
vt -0.208748 0.007764
vt -0.208369 0.008117
vt -0.207864 0.008232
vt 0.207864 0.008232
vt 0.208369 0.008117
vt 0.208748 0.007764
vt 0.208900 0.007269
vt 0.208785 0.006765
vt 0.208432 0.006386
vt 0.207937 0.006234
vt 0.207433 0.006349
vt 0.207054 0.006701
vt 0.206902 0.007196
vt 0.207017 0.007701
vt 0.207370 0.008080
vt -0.136044 0.226900
vt -0.136533 0.227004
vt -0.135707 0.230917
vt -0.135218 0.230814
vt -0.205185 0.196924
vt -0.205684 0.196931
vt -0.205626 0.200931
vt -0.205126 0.200924
vt -0.212745 0.157703
vt -0.213236 0.157611
vt -0.213967 0.161544
vt -0.213475 0.161635
vt -0.160735 0.150523
vt -0.161209 0.150364
vt -0.162484 0.154155
vt -0.162010 0.154315
vt -0.071892 0.180101
vt -0.072357 0.179917
vt -0.073832 0.183635
vt -0.073368 0.183819
vt 0.033609 0.217313
vt 0.033137 0.217147
vt 0.031812 0.220921
vt 0.032284 0.221087
vt 0.136044 0.226900
vt 0.135555 0.226797
vt 0.134729 0.230711
vt 0.135218 0.230814
vt 0.205185 0.196924
vt 0.204685 0.196917
vt 0.204626 0.200916
vt 0.205126 0.200924
vt 0.212745 0.157703
vt 0.212253 0.157794
vt 0.212984 0.161727
vt 0.213475 0.161635
vt 0.160735 0.150523
vt 0.160261 0.150683
vt 0.161536 0.154474
vt 0.162010 0.154315
vt 0.071892 0.180101
vt 0.071427 0.180286
vt 0.072903 0.184004
vt 0.073368 0.183819
vt -0.033609 0.217313
vt -0.034080 0.217478
vt -0.032756 0.221253
vt -0.032284 0.221087
vt 0.207370 0.008080
vt 0.207864 0.008232
vt 0.208369 0.008117
vt 0.208748 0.007764
vt 0.208900 0.007270
vt 0.208785 0.006765
vt 0.208432 0.006386
vt 0.207937 0.006234
vt 0.207433 0.006349
vt 0.207054 0.006702
vt 0.206902 0.007196
vt 0.207017 0.007701
vt -0.207017 0.007701
vt -0.206902 0.007196
vt -0.207054 0.006702
vt -0.207433 0.006349
vt -0.207937 0.006234
vt -0.208432 0.006386
vt -0.208785 0.006765
vt -0.208900 0.007270
vt -0.208748 0.007764
vt -0.208369 0.008117
vt -0.207864 0.008232
vt -0.207370 0.008080
s off
f 1/1/1 2/2/2 3/3/3
f 1/1/1 3/3/3 4/4/4
f 5/5/5 6/6/6 7/7/7
f 5/5/5 7/7/7 8/8/8
f 9/9/9 10/10/10 11/11/11
f 9/9/9 11/11/11 12/12/12
f 13/13/13 14/14/14 15/15/15
f 13/13/13 15/15/15 16/16/16
f 17/17/17 18/18/18 19/19/19
f 17/17/17 19/19/19 20/20/20
f 21/21/21 22/22/22 23/23/23
f 21/21/21 23/23/23 24/24/24
f 25/25/25 26/26/26 27/27/27
f 25/25/25 27/27/27 28/28/28
f 29/29/29 30/30/30 31/31/31
f 29/29/29 31/31/31 32/32/32
f 33/33/33 34/34/34 35/35/35
f 33/33/33 35/35/35 36/36/36
f 37/37/37 38/38/38 39/39/39
f 37/37/37 39/39/39 40/40/40
f 41/41/41 42/42/42 43/43/43
f 41/41/41 43/43/43 44/44/44
f 45/45/45 46/46/46 47/47/47
f 45/45/45 47/47/47 48/48/48
f 49/49/49 50/50/50 51/51/51
f 49/49/49 51/51/51 52/52/52
f 49/49/49 52/52/52 53/53/53
f 49/49/49 53/53/53 54/54/54
f 49/49/49 54/54/54 55/55/55
f 49/49/49 55/55/55 56/56/56
f 49/49/49 56/56/56 57/57/57
f 49/49/49 57/57/57 58/58/58
f 49/49/49 58/58/58 59/59/59
f 49/49/49 59/59/59 60/60/60
f 61/61/61 62/62/62 63/63/63
f 61/61/61 63/63/63 64/64/64
f 61/61/61 64/64/64 65/65/65
f 61/61/61 65/65/65 66/66/66
f 61/61/61 66/66/66 67/67/67
f 61/61/61 67/67/67 68/68/68
f 61/61/61 68/68/68 69/69/69
f 61/61/61 69/69/69 70/70/70
f 61/61/61 70/70/70 71/71/71
f 61/61/61 71/71/71 72/72/72
f 73/73/73 74/74/74 75/75/75
f 73/73/73 75/75/75 76/76/76
f 77/77/77 78/78/78 79/79/79
f 77/77/77 79/79/79 80/80/80
f 81/81/81 82/82/82 83/83/83
f 81/81/81 83/83/83 84/84/84
f 85/85/85 86/86/86 87/87/87
f 85/85/85 87/87/87 88/88/88
f 89/89/89 90/90/90 91/91/91
f 89/89/89 91/91/91 92/92/92
f 93/93/93 94/94/94 95/95/95
f 93/93/93 95/95/95 96/96/96
f 97/97/97 98/98/98 99/99/99
f 97/97/97 99/99/99 100/100/100
f 101/101/101 102/102/102 103/103/103
f 101/101/101 103/103/103 104/104/104
f 105/105/105 106/106/106 107/107/107
f 105/105/105 107/107/107 108/108/108
f 109/109/109 110/110/110 111/111/111
f 109/109/109 111/111/111 112/112/112
f 113/113/113 114/114/114 115/115/115
f 113/113/113 115/115/115 116/116/116
f 117/117/117 118/118/118 119/119/119
f 117/117/117 119/119/119 120/120/120
f 121/121/121 122/122/122 123/123/123
f 121/121/121 123/123/123 124/124/124
f 121/121/121 124/124/124 125/125/125
f 121/121/121 125/125/125 126/126/126
f 121/121/121 126/126/126 127/127/127
f 121/121/121 127/127/127 128/128/128
f 121/121/121 128/128/128 129/129/129
f 121/121/121 129/129/129 130/130/130
f 121/121/121 130/130/130 131/131/131
f 121/121/121 131/131/131 132/132/132
f 133/133/133 134/134/134 135/135/135
f 133/133/133 135/135/135 136/136/136
f 133/133/133 136/136/136 137/137/137
f 133/133/133 137/137/137 138/138/138
f 133/133/133 138/138/138 139/139/139
f 133/133/133 139/139/139 140/140/140
f 133/133/133 140/140/140 141/141/141
f 133/133/133 141/141/141 142/142/142
f 133/133/133 142/142/142 143/143/143
f 133/133/133 143/143/143 144/144/144
