# Exported using automatic converter by Erwin Coumans
mtllib model6.mtl
#object mesh335363903

v 1.808238 -0.464511 -2.890148
v 1.808238 -0.434511 -2.890148
v 1.808238 -0.434511 -2.920148
v 1.808238 -0.464511 -2.920148
v 1.838238 -0.434511 -2.920148
v 1.838238 -0.434511 -2.890148
v 1.838238 -0.464511 -2.890148
v 1.838238 -0.464511 -2.920148
v 1.808238 -0.434511 -2.920148
v 1.838238 -0.434511 -2.920148
v 1.838238 -0.464511 -2.920148
v 1.808238 -0.464511 -2.920148
v 1.838238 -0.464511 -2.890148
v 1.838238 -0.434511 -2.890148
v 1.808238 -0.434511 -2.890148
v 1.808238 -0.464511 -2.890148
v 1.838238 -0.464511 -2.920148
v 1.838238 -0.464511 -2.890148
v 1.808238 -0.464511 -2.890148
v 1.808238 -0.464511 -2.920148
v 1.808238 -0.434511 -2.890148
v 1.838238 -0.434511 -2.890148
v 1.838238 -0.434511 -2.920148
v 1.808238 -0.434511 -2.920148
usemtl mat23

vn -1.000000 0.000000 -0.000000
vn -1.000000 0.000000 -0.000000
vn -1.000000 0.000000 -0.000000
vn -1.000000 0.000000 -0.000000
vn 1.000000 0.000000 0.000000
vn 1.000000 0.000000 0.000000
vn 1.000000 0.000000 0.000000
vn 1.000000 0.000000 0.000000
vn 0.000000 0.000000 -1.000000
vn 0.000000 0.000000 -1.000000
vn 0.000000 0.000000 -1.000000
vn 0.000000 0.000000 -1.000000
vn -0.000000 -0.000000 1.000000
vn -0.000000 -0.000000 1.000000
vn -0.000000 -0.000000 1.000000
vn -0.000000 -0.000000 1.000000
vn 0.000000 -1.000000 0.000000
vn 0.000000 -1.000000 0.000000
vn 0.000000 -1.000000 0.000000
vn 0.000000 -1.000000 0.000000
vn 0.000000 1.000000 -0.000000
vn 0.000000 1.000000 -0.000000
vn 0.000000 1.000000 -0.000000
vn 0.000000 1.000000 -0.000000

vt 0.161584 0.117875
vt 0.159840 0.120316
vt 0.162282 0.122060
vt 0.164025 0.119619
vt -0.162282 0.122060
vt -0.159840 0.120316
vt -0.161584 0.117875
vt -0.164025 0.119619
vt 0.062610 0.136400
vt 0.063952 0.139083
vt 0.066635 0.137742
vt 0.065293 0.135059
vt -0.066635 0.137742
vt -0.063952 0.139083
vt -0.062610 0.136400
vt -0.065293 0.135059
vt -0.139714 0.212363
vt -0.136889 0.211354
vt -0.137898 0.208529
vt -0.140723 0.209538
vt 0.137898 0.208529
vt 0.136889 0.211354
vt 0.139714 0.212363
vt 0.140723 0.209538
s off
f 1/1/1 2/2/2 3/3/3
f 1/1/1 3/3/3 4/4/4
f 5/5/5 6/6/6 7/7/7
f 5/5/5 7/7/7 8/8/8
f 9/9/9 10/10/10 11/11/11
f 9/9/9 11/11/11 12/12/12
f 13/13/13 14/14/14 15/15/15
f 13/13/13 15/15/15 16/16/16
f 17/17/17 18/18/18 19/19/19
f 17/17/17 19/19/19 20/20/20
f 21/21/21 22/22/22 23/23/23
f 21/21/21 23/23/23 24/24/24
