# Exported using automatic converter by Erwin Coumans
mtllib model6.mtl
#object mesh783557016

v 0.328281 0.480415 -1.503180
v 0.330079 0.482621 -1.512766
v 0.317619 1.864014 -0.456439
v 0.315763 1.862639 -0.446710
v 0.330079 0.482621 -1.512766
v 0.322464 0.483792 -1.519141
v 0.310085 1.864015 -0.463015
v 0.317619 1.864014 -0.456439
v 0.322464 0.483792 -1.519141
v 0.313051 0.482758 -1.515929
v 0.300696 1.862641 -0.459862
v 0.310085 1.864015 -0.463015
v 0.313051 0.482758 -1.515929
v 0.311252 0.480553 -1.506342
v 0.298840 1.861265 -0.450132
v 0.300696 1.862641 -0.459862
v 0.311252 0.480553 -1.506342
v 0.318868 0.479382 -1.499968
v 0.306373 1.861264 -0.443556
v 0.298840 1.861265 -0.450132
v 0.318868 0.479382 -1.499968
v 0.328281 0.480415 -1.503180
v 0.315763 1.862639 -0.446710
v 0.306373 1.861264 -0.443556
v 0.318868 0.479382 -1.499968
v 0.311252 0.480553 -1.506342
v 0.313051 0.482758 -1.515929
v 0.322464 0.483792 -1.519141
v 0.330079 0.482621 -1.512766
v 0.328281 0.480415 -1.503180
v 0.315763 1.862639 -0.446710
v 0.317619 1.864014 -0.456439
v 0.310085 1.864015 -0.463015
v 0.300696 1.862641 -0.459862
v 0.298840 1.861265 -0.450132
v 0.306373 1.861264 -0.443556
usemtl mat23

vn 0.979615 -0.116345 0.163765
vn 0.979615 -0.116345 0.163765
vn 0.979615 -0.116345 0.163765
vn 0.979615 -0.116345 0.163765
vn 0.586263 0.495519 -0.640902
vn 0.586263 0.495519 -0.640902
vn 0.586263 0.495519 -0.640902
vn 0.586263 0.495519 -0.640902
vn -0.327771 0.572300 -0.751691
vn -0.327771 0.572300 -0.751691
vn -0.327771 0.572300 -0.751691
vn -0.327771 0.572300 -0.751691
vn -0.979601 0.116496 -0.163738
vn -0.979601 0.116496 -0.163738
vn -0.979601 0.116496 -0.163738
vn -0.979601 0.116496 -0.163738
vn -0.586293 -0.495431 0.640944
vn -0.586293 -0.495431 0.640944
vn -0.586293 -0.495431 0.640944
vn -0.586293 -0.495431 0.640944
vn 0.327817 -0.571864 0.752003
vn 0.327817 -0.571864 0.752003
vn 0.327817 -0.571864 0.752003
vn 0.327817 -0.571864 0.752003
vn 0.032632 -0.975352 -0.218228
vn 0.032632 -0.975352 -0.218228
vn 0.032632 -0.975352 -0.218228
vn 0.032632 -0.975352 -0.218228
vn 0.032632 -0.975352 -0.218228
vn 0.032632 -0.975352 -0.218228
vn -0.104349 0.987311 0.119697
vn -0.104349 0.987311 0.119697
vn -0.104349 0.987311 0.119697
vn -0.104349 0.987311 0.119697
vn -0.104349 0.987311 0.119697
vn -0.104349 0.987311 0.119697

vt 0.015488 0.111626
vt 0.014891 0.112429
vt 0.184631 0.150255
vt 0.185292 0.149506
vt -0.057899 -0.044071
vt -0.057961 -0.045069
vt -0.220917 0.015354
vt -0.220967 0.016353
vt -0.032627 0.042648
vt -0.032895 0.041684
vt -0.204692 0.067774
vt -0.204454 0.068745
vt -0.014729 0.112306
vt -0.015326 0.111504
vt -0.185007 0.149309
vt -0.184345 0.150058
vt 0.058543 -0.045055
vt 0.058480 -0.044057
vt 0.221582 0.016403
vt 0.221532 0.015405
vt 0.033622 0.041877
vt 0.033354 0.042840
vt 0.205354 0.069001
vt 0.205592 0.068030
vt -0.071887 0.036543
vt -0.072791 0.036115
vt -0.073613 0.036684
vt -0.073531 0.037681
vt -0.072627 0.038108
vt -0.071805 0.037539
vt -0.024129 0.017970
vt -0.023286 0.018506
vt -0.022399 0.018044
vt -0.022356 0.017045
vt -0.023200 0.016508
vt -0.024086 0.016971
s off
f 1/1/1 2/2/2 3/3/3
f 1/1/1 3/3/3 4/4/4
f 5/5/5 6/6/6 7/7/7
f 5/5/5 7/7/7 8/8/8
f 9/9/9 10/10/10 11/11/11
f 9/9/9 11/11/11 12/12/12
f 13/13/13 14/14/14 15/15/15
f 13/13/13 15/15/15 16/16/16
f 17/17/17 18/18/18 19/19/19
f 17/17/17 19/19/19 20/20/20
f 21/21/21 22/22/22 23/23/23
f 21/21/21 23/23/23 24/24/24
f 25/25/25 26/26/26 27/27/27
f 25/25/25 27/27/27 28/28/28
f 25/25/25 28/28/28 29/29/29
f 25/25/25 29/29/29 30/30/30
f 31/31/31 32/32/32 33/33/33
f 31/31/31 33/33/33 34/34/34
f 31/31/31 34/34/34 35/35/35
f 31/31/31 35/35/35 36/36/36
