# Exported using automatic converter by Erwin Coumans
mtllib model6.mtl
#object group1678575937_4

v -2.502342 -0.480905 2.169320
v -2.501456 -0.480922 2.190515
v -2.496694 -0.479413 2.190317
v -2.497580 -0.479396 2.169122
v -2.501456 -0.480922 2.190515
v -2.495058 -0.501146 2.190231
v -2.490295 -0.499636 2.190033
v -2.496694 -0.479413 2.190317
v -2.495058 -0.501146 2.190231
v -2.495944 -0.501129 2.169036
v -2.491181 -0.499619 2.168839
v -2.490295 -0.499636 2.190033
v -2.495944 -0.501129 2.169036
v -2.502342 -0.480905 2.169320
v -2.497580 -0.479396 2.169122
v -2.491181 -0.499619 2.168839
v -2.495944 -0.501129 2.169036
v -2.495058 -0.501146 2.190231
v -2.501456 -0.480922 2.190515
v -2.502342 -0.480905 2.169320
v -2.497580 -0.479396 2.169122
v -2.496694 -0.479413 2.190317
v -2.490295 -0.499636 2.190033
v -2.491181 -0.499619 2.168839
usemtl mat13

vn -0.301627 0.953332 0.013376
vn -0.301627 0.953332 0.013376
vn -0.301627 0.953332 0.013376
vn -0.301627 0.953332 0.013376
vn 0.041756 -0.000807 0.999128
vn 0.041756 -0.000807 0.999128
vn 0.041756 -0.000807 0.999128
vn 0.041756 -0.000807 0.999128
vn 0.301627 -0.953332 -0.013376
vn 0.301627 -0.953332 -0.013376
vn 0.301627 -0.953332 -0.013376
vn 0.301627 -0.953332 -0.013376
vn -0.041756 0.000807 -0.999128
vn -0.041756 0.000807 -0.999128
vn -0.041756 0.000807 -0.999128
vn -0.041756 0.000807 -0.999128
vn -0.952511 -0.301923 0.039564
vn -0.952511 -0.301923 0.039564
vn -0.952511 -0.301923 0.039564
vn -0.952511 -0.301923 0.039564
vn 0.952511 0.301923 -0.039564
vn 0.952511 0.301923 -0.039564
vn 0.952511 0.301923 -0.039564
vn 0.952511 0.301923 -0.039564

vt -0.206902 -0.349042
vt -0.208944 -0.349618
vt -0.209080 -0.349137
vt -0.207038 -0.348560
vt 0.130319 -0.263080
vt 0.128222 -0.263400
vt 0.128147 -0.262905
vt 0.130244 -0.262586
vt 0.208944 -0.349618
vt 0.206902 -0.349042
vt 0.207038 -0.348560
vt 0.209080 -0.349137
vt -0.128222 -0.263400
vt -0.130319 -0.263080
vt -0.130244 -0.262586
vt -0.128147 -0.262905
vt -0.216246 -0.217313
vt -0.217253 -0.219180
vt -0.219120 -0.218173
vt -0.218113 -0.216306
vt 0.218113 -0.216306
vt 0.219120 -0.218173
vt 0.217254 -0.219180
vt 0.216246 -0.217313
s off
f 1/1/1 2/2/2 3/3/3
f 1/1/1 3/3/3 4/4/4
f 5/5/5 6/6/6 7/7/7
f 5/5/5 7/7/7 8/8/8
f 9/9/9 10/10/10 11/11/11
f 9/9/9 11/11/11 12/12/12
f 13/13/13 14/14/14 15/15/15
f 13/13/13 15/15/15 16/16/16
f 17/17/17 18/18/18 19/19/19
f 17/17/17 19/19/19 20/20/20
f 21/21/21 22/22/22 23/23/23
f 21/21/21 23/23/23 24/24/24
