# Exported using automatic converter by Erwin Coumans
mtllib model6.mtl
#object mesh386077005

v -1.441762 0.045489 2.349852
v -1.441762 0.044149 2.359852
v -1.381762 0.044149 2.359852
v -1.381762 0.045489 2.349852
v -1.441762 0.044149 2.359852
v -1.441762 0.040489 2.367172
v -1.381762 0.040489 2.367172
v -1.381762 0.044149 2.359852
v -1.441762 0.040489 2.367172
v -1.441762 0.035489 2.369852
v -1.381762 0.035489 2.369852
v -1.381762 0.040489 2.367172
v -1.441762 0.035489 2.369852
v -1.441762 0.030489 2.367172
v -1.381762 0.030489 2.367172
v -1.381762 0.035489 2.369852
v -1.441762 0.030489 2.367172
v -1.441762 0.026829 2.359852
v -1.381762 0.026829 2.359852
v -1.381762 0.030489 2.367172
v -1.441762 0.026829 2.359852
v -1.441762 0.025489 2.349852
v -1.381762 0.025489 2.349852
v -1.381762 0.026829 2.359852
v -1.441762 0.025489 2.349852
v -1.441762 0.026829 2.339852
v -1.381762 0.026829 2.339852
v -1.381762 0.025489 2.349852
v -1.441762 0.026829 2.339852
v -1.441762 0.030489 2.332531
v -1.381762 0.030489 2.332531
v -1.381762 0.026829 2.339852
v -1.441762 0.030489 2.332531
v -1.441762 0.035489 2.329852
v -1.381762 0.035489 2.329852
v -1.381762 0.030489 2.332531
v -1.441762 0.035489 2.329852
v -1.441762 0.040489 2.332531
v -1.381762 0.040489 2.332531
v -1.381762 0.035489 2.329852
v -1.441762 0.040489 2.332531
v -1.441762 0.044149 2.339852
v -1.381762 0.044149 2.339852
v -1.381762 0.040489 2.332531
v -1.441762 0.044149 2.339852
v -1.441762 0.045489 2.349852
v -1.381762 0.045489 2.349852
v -1.381762 0.044149 2.339852
v -1.381762 0.045489 2.349852
v -1.381762 0.044149 2.359852
v -1.381762 0.040489 2.367172
v -1.381762 0.035489 2.369852
v -1.381762 0.030489 2.367172
v -1.381762 0.026829 2.359852
v -1.381762 0.025489 2.349852
v -1.381762 0.026829 2.339852
v -1.381762 0.030489 2.332531
v -1.381762 0.035489 2.329852
v -1.381762 0.040489 2.332531
v -1.381762 0.044149 2.339852
v -1.441762 0.044149 2.339852
v -1.441762 0.040489 2.332531
v -1.441762 0.035489 2.329852
v -1.441762 0.030489 2.332531
v -1.441762 0.026829 2.339852
v -1.441762 0.025489 2.349852
v -1.441762 0.026829 2.359852
v -1.441762 0.030489 2.367172
v -1.441762 0.035489 2.369852
v -1.441762 0.040489 2.367172
v -1.441762 0.044149 2.359852
v -1.441762 0.045489 2.349852
usemtl mat21

vn 0.000000 1.000000 -0.000000
vn 0.000000 1.000000 -0.000000
vn 0.000000 1.000000 -0.000000
vn 0.000000 1.000000 -0.000000
vn -0.000000 0.866025 0.500000
vn -0.000000 0.866025 0.500000
vn -0.000000 0.866025 0.500000
vn -0.000000 0.866025 0.500000
vn -0.000000 0.500000 0.866025
vn -0.000000 0.500000 0.866025
vn -0.000000 0.500000 0.866025
vn -0.000000 0.500000 0.866025
vn -0.000000 -0.000000 1.000000
vn -0.000000 -0.000000 1.000000
vn -0.000000 -0.000000 1.000000
vn -0.000000 -0.000000 1.000000
vn -0.000000 -0.500000 0.866025
vn -0.000000 -0.500000 0.866025
vn -0.000000 -0.500000 0.866025
vn -0.000000 -0.500000 0.866025
vn -0.000000 -0.866025 0.500000
vn -0.000000 -0.866025 0.500000
vn -0.000000 -0.866025 0.500000
vn -0.000000 -0.866025 0.500000
vn 0.000000 -1.000000 -0.000000
vn 0.000000 -1.000000 -0.000000
vn 0.000000 -1.000000 -0.000000
vn 0.000000 -1.000000 -0.000000
vn 0.000000 -0.866025 -0.500000
vn 0.000000 -0.866025 -0.500000
vn 0.000000 -0.866025 -0.500000
vn 0.000000 -0.866025 -0.500000
vn 0.000000 -0.500000 -0.866025
vn 0.000000 -0.500000 -0.866025
vn 0.000000 -0.500000 -0.866025
vn 0.000000 -0.500000 -0.866025
vn 0.000000 0.000000 -1.000000
vn 0.000000 0.000000 -1.000000
vn 0.000000 0.000000 -1.000000
vn 0.000000 0.000000 -1.000000
vn 0.000000 0.500000 -0.866025
vn 0.000000 0.500000 -0.866025
vn 0.000000 0.500000 -0.866025
vn 0.000000 0.500000 -0.866025
vn 0.000000 0.866026 -0.500000
vn 0.000000 0.866026 -0.500000
vn 0.000000 0.866026 -0.500000
vn 0.000000 0.866026 -0.500000
vn 1.000000 -0.000000 0.000000
vn 1.000000 -0.000000 0.000000
vn 1.000000 -0.000000 0.000000
vn 1.000000 -0.000000 0.000000
vn 1.000000 -0.000000 0.000000
vn 1.000000 -0.000000 0.000000
vn 1.000000 -0.000000 0.000000
vn 1.000000 -0.000000 0.000000
vn 1.000000 -0.000000 0.000000
vn 1.000000 -0.000000 0.000000
vn 1.000000 -0.000000 0.000000
vn 1.000000 -0.000000 0.000000
vn -1.000000 0.000000 -0.000000
vn -1.000000 0.000000 -0.000000
vn -1.000000 0.000000 -0.000000
vn -1.000000 0.000000 -0.000000
vn -1.000000 0.000000 -0.000000
vn -1.000000 0.000000 -0.000000
vn -1.000000 0.000000 -0.000000
vn -1.000000 0.000000 -0.000000
vn -1.000000 0.000000 -0.000000
vn -1.000000 0.000000 -0.000000
vn -1.000000 0.000000 -0.000000
vn -1.000000 0.000000 -0.000000

vt -0.246266 -0.273778
vt -0.247207 -0.274114
vt -0.249225 -0.268464
vt -0.248284 -0.268127
vt -0.137154 -0.277221
vt -0.137867 -0.277620
vt -0.140796 -0.272383
vt -0.140083 -0.271984
vt -0.008849 -0.210545
vt -0.009333 -0.210841
vt -0.012463 -0.205723
vt -0.011979 -0.205427
vt 0.124773 -0.133270
vt 0.124325 -0.133493
vt 0.121642 -0.128127
vt 0.122089 -0.127903
vt 0.244212 -0.118438
vt 0.243550 -0.118607
vt 0.242071 -0.112792
vt 0.242733 -0.112623
vt 0.296129 -0.192866
vt 0.295197 -0.192811
vt 0.295552 -0.186822
vt 0.296484 -0.186877
vt 0.246266 -0.273778
vt 0.245324 -0.273441
vt 0.247342 -0.267791
vt 0.248284 -0.268127
vt 0.136398 -0.276798
vt 0.135686 -0.276400
vt 0.138614 -0.271163
vt 0.139327 -0.271562
vt 0.008110 -0.210094
vt 0.007626 -0.209798
vt 0.010757 -0.204679
vt 0.011240 -0.204975
vt -0.124773 -0.133270
vt -0.125220 -0.133046
vt -0.122537 -0.127679
vt -0.122089 -0.127903
vt -0.243373 -0.118652
vt -0.244035 -0.118483
vt -0.242555 -0.112669
vt -0.241894 -0.112837
vt -0.295264 -0.192815
vt -0.296195 -0.192870
vt -0.296551 -0.186881
vt -0.295619 -0.186825
vt 0.294455 -0.145193
vt 0.295191 -0.145884
vt 0.295574 -0.146607
vt 0.295502 -0.147170
vt 0.294993 -0.147421
vt 0.294184 -0.147293
vt 0.293293 -0.146821
vt 0.292557 -0.146131
vt 0.292174 -0.145407
vt 0.292247 -0.144845
vt 0.292755 -0.144594
vt 0.293564 -0.144721
vt -0.293564 -0.144721
vt -0.292755 -0.144594
vt -0.292247 -0.144845
vt -0.292174 -0.145407
vt -0.292557 -0.146131
vt -0.293293 -0.146821
vt -0.294184 -0.147293
vt -0.294993 -0.147421
vt -0.295502 -0.147170
vt -0.295574 -0.146607
vt -0.295191 -0.145884
vt -0.294455 -0.145193
s off
f 1/1/1 2/2/2 3/3/3
f 1/1/1 3/3/3 4/4/4
f 5/5/5 6/6/6 7/7/7
f 5/5/5 7/7/7 8/8/8
f 9/9/9 10/10/10 11/11/11
f 9/9/9 11/11/11 12/12/12
f 13/13/13 14/14/14 15/15/15
f 13/13/13 15/15/15 16/16/16
f 17/17/17 18/18/18 19/19/19
f 17/17/17 19/19/19 20/20/20
f 21/21/21 22/22/22 23/23/23
f 21/21/21 23/23/23 24/24/24
f 25/25/25 26/26/26 27/27/27
f 25/25/25 27/27/27 28/28/28
f 29/29/29 30/30/30 31/31/31
f 29/29/29 31/31/31 32/32/32
f 33/33/33 34/34/34 35/35/35
f 33/33/33 35/35/35 36/36/36
f 37/37/37 38/38/38 39/39/39
f 37/37/37 39/39/39 40/40/40
f 41/41/41 42/42/42 43/43/43
f 41/41/41 43/43/43 44/44/44
f 45/45/45 46/46/46 47/47/47
f 45/45/45 47/47/47 48/48/48
f 49/49/49 50/50/50 51/51/51
f 49/49/49 51/51/51 52/52/52
f 49/49/49 52/52/52 53/53/53
f 49/49/49 53/53/53 54/54/54
f 49/49/49 54/54/54 55/55/55
f 49/49/49 55/55/55 56/56/56
f 49/49/49 56/56/56 57/57/57
f 49/49/49 57/57/57 58/58/58
f 49/49/49 58/58/58 59/59/59
f 49/49/49 59/59/59 60/60/60
f 61/61/61 62/62/62 63/63/63
f 61/61/61 63/63/63 64/64/64
f 61/61/61 64/64/64 65/65/65
f 61/61/61 65/65/65 66/66/66
f 61/61/61 66/66/66 67/67/67
f 61/61/61 67/67/67 68/68/68
f 61/61/61 68/68/68 69/69/69
f 61/61/61 69/69/69 70/70/70
f 61/61/61 70/70/70 71/71/71
f 61/61/61 71/71/71 72/72/72
