# Exported using automatic converter by Erwin Coumans
mtllib model6.mtl
#object mesh619196243

v -1.553385 -0.397665 -3.016316
v -1.555415 -0.378425 -3.021385
v -1.550911 -0.382943 -3.040340
v -1.548881 -0.402183 -3.035272
v -1.531531 -0.379878 -3.036465
v -1.536035 -0.375360 -3.017510
v -1.534005 -0.394600 -3.012442
v -1.529501 -0.399118 -3.031397
v -1.550911 -0.382943 -3.040340
v -1.531531 -0.379878 -3.036465
v -1.529501 -0.399118 -3.031397
v -1.548881 -0.402183 -3.035272
v -1.534005 -0.394600 -3.012442
v -1.536035 -0.375360 -3.017510
v -1.555415 -0.378425 -3.021385
v -1.553385 -0.397665 -3.016316
v -1.529501 -0.399118 -3.031397
v -1.534005 -0.394600 -3.012442
v -1.553385 -0.397665 -3.016316
v -1.548881 -0.402183 -3.035272
v -1.555415 -0.378425 -3.021385
v -1.536035 -0.375360 -3.017510
v -1.531531 -0.379878 -3.036465
v -1.550911 -0.382943 -3.040340
usemtl mat12

vn -0.969008 -0.153272 -0.193731
vn -0.969008 -0.153272 -0.193731
vn -0.969008 -0.153272 -0.193731
vn -0.969008 -0.153272 -0.193731
vn 0.969008 0.153272 0.193731
vn 0.969008 0.153272 0.193731
vn 0.969008 0.153272 0.193731
vn 0.969008 0.153272 0.193731
vn 0.225214 -0.225901 -0.947759
vn 0.225214 -0.225901 -0.947759
vn 0.225214 -0.225901 -0.947759
vn 0.225214 -0.225901 -0.947759
vn -0.225214 0.225901 0.947759
vn -0.225214 0.225901 0.947759
vn -0.225214 0.225901 0.947759
vn -0.225214 0.225901 0.947759
vn 0.101501 -0.962017 0.253419
vn 0.101501 -0.962017 0.253419
vn 0.101501 -0.962017 0.253419
vn 0.101501 -0.962017 0.253419
vn -0.101501 0.962017 -0.253419
vn -0.101501 0.962017 -0.253419
vn -0.101501 0.962017 -0.253419
vn -0.101501 0.962017 -0.253419

vt 0.057606 0.167655
vt 0.056222 0.169099
vt 0.057665 0.170483
vt 0.059050 0.169040
vt -0.057665 0.170483
vt -0.056222 0.169099
vt -0.057606 0.167655
vt -0.059050 0.169040
vt -0.170433 -0.162402
vt -0.169565 -0.160600
vt -0.167763 -0.161467
vt -0.168631 -0.163270
vt 0.167763 -0.161467
vt 0.169565 -0.160600
vt 0.170433 -0.162402
vt 0.168631 -0.163270
vt -0.236399 -0.131258
vt -0.234583 -0.132096
vt -0.235421 -0.133912
vt -0.237237 -0.133074
vt 0.235421 -0.133912
vt 0.234583 -0.132096
vt 0.236399 -0.131258
vt 0.237237 -0.133074
s off
f 1/1/1 2/2/2 3/3/3
f 1/1/1 3/3/3 4/4/4
f 5/5/5 6/6/6 7/7/7
f 5/5/5 7/7/7 8/8/8
f 9/9/9 10/10/10 11/11/11
f 9/9/9 11/11/11 12/12/12
f 13/13/13 14/14/14 15/15/15
f 13/13/13 15/15/15 16/16/16
f 17/17/17 18/18/18 19/19/19
f 17/17/17 19/19/19 20/20/20
f 21/21/21 22/22/22 23/23/23
f 21/21/21 23/23/23 24/24/24
