# Exported using automatic converter by Erwin Coumans
mtllib model6.mtl
#object mesh1084661357

v -0.782210 0.330186 -1.558689
v -0.791854 0.330186 -1.594680
v -0.854191 0.376625 -1.558689
v -0.791854 0.330186 -1.594680
v -0.818201 0.330186 -1.621027
v -0.854191 0.376625 -1.558689
v -0.818201 0.330186 -1.621027
v -0.854191 0.330186 -1.630671
v -0.854191 0.376625 -1.558689
v -0.854191 0.330186 -1.630671
v -0.890182 0.330186 -1.621027
v -0.854191 0.376625 -1.558689
v -0.890182 0.330186 -1.621027
v -0.916529 0.330186 -1.594680
v -0.854191 0.376625 -1.558689
v -0.916529 0.330186 -1.594680
v -0.926173 0.330186 -1.558689
v -0.854191 0.376625 -1.558689
v -0.926173 0.330186 -1.558689
v -0.916529 0.330186 -1.522699
v -0.854191 0.376625 -1.558689
v -0.916529 0.330186 -1.522699
v -0.890182 0.330186 -1.496351
v -0.854191 0.376625 -1.558689
v -0.890182 0.330186 -1.496351
v -0.854191 0.330186 -1.486708
v -0.854191 0.376625 -1.558689
v -0.854191 0.330186 -1.486708
v -0.818201 0.330186 -1.496351
v -0.854191 0.376625 -1.558689
v -0.818201 0.330186 -1.496351
v -0.791854 0.330186 -1.522698
v -0.854191 0.376625 -1.558689
v -0.791854 0.330186 -1.522698
v -0.782210 0.330186 -1.558689
v -0.854191 0.376625 -1.558689
v -0.767094 0.297678 -1.558689
v -0.778763 0.297678 -1.602238
v -0.791854 0.330186 -1.594680
v -0.782210 0.330186 -1.558689
v -0.778763 0.297678 -1.602238
v -0.810643 0.297678 -1.634118
v -0.818201 0.330186 -1.621027
v -0.791854 0.330186 -1.594680
v -0.810643 0.297678 -1.634118
v -0.854191 0.297678 -1.645787
v -0.854191 0.330186 -1.630671
v -0.818201 0.330186 -1.621027
v -0.854191 0.297678 -1.645787
v -0.897740 0.297678 -1.634118
v -0.890182 0.330186 -1.621027
v -0.854191 0.330186 -1.630671
v -0.897740 0.297678 -1.634118
v -0.929620 0.297678 -1.602238
v -0.916529 0.330186 -1.594680
v -0.890182 0.330186 -1.621027
v -0.929620 0.297678 -1.602238
v -0.941289 0.297678 -1.558689
v -0.926173 0.330186 -1.558689
v -0.916529 0.330186 -1.594680
v -0.941289 0.297678 -1.558689
v -0.929620 0.297678 -1.515140
v -0.916529 0.330186 -1.522699
v -0.926173 0.330186 -1.558689
v -0.929620 0.297678 -1.515140
v -0.897740 0.297678 -1.483261
v -0.890182 0.330186 -1.496351
v -0.916529 0.330186 -1.522699
v -0.897740 0.297678 -1.483261
v -0.854191 0.297678 -1.471591
v -0.854191 0.330186 -1.486708
v -0.890182 0.330186 -1.496351
v -0.854191 0.297678 -1.471591
v -0.810643 0.297678 -1.483261
v -0.818201 0.330186 -1.496351
v -0.854191 0.330186 -1.486708
v -0.810643 0.297678 -1.483261
v -0.778763 0.297678 -1.515141
v -0.791854 0.330186 -1.522698
v -0.818201 0.330186 -1.496351
v -0.778763 0.297678 -1.515141
v -0.767094 0.297678 -1.558689
v -0.782210 0.330186 -1.558689
v -0.791854 0.330186 -1.522698
v -0.783642 0.297678 -1.558689
v -0.793094 0.297678 -1.593963
v -0.778763 0.297678 -1.602238
v -0.767094 0.297678 -1.558689
v -0.793094 0.297678 -1.593963
v -0.818917 0.297678 -1.619786
v -0.810643 0.297678 -1.634118
v -0.778763 0.297678 -1.602238
v -0.818917 0.297678 -1.619786
v -0.854191 0.297678 -1.629238
v -0.854191 0.297678 -1.645787
v -0.810643 0.297678 -1.634118
v -0.854191 0.297678 -1.629238
v -0.889466 0.297678 -1.619786
v -0.897740 0.297678 -1.634118
v -0.854191 0.297678 -1.645787
v -0.889466 0.297678 -1.619786
v -0.915289 0.297678 -1.593963
v -0.929620 0.297678 -1.602238
v -0.897740 0.297678 -1.634118
v -0.915289 0.297678 -1.593963
v -0.924740 0.297678 -1.558689
v -0.941289 0.297678 -1.558689
v -0.929620 0.297678 -1.602238
v -0.924740 0.297678 -1.558689
v -0.915289 0.297678 -1.523414
v -0.929620 0.297678 -1.515140
v -0.941289 0.297678 -1.558689
v -0.915289 0.297678 -1.523414
v -0.889466 0.297678 -1.497592
v -0.897740 0.297678 -1.483261
v -0.929620 0.297678 -1.515140
v -0.889466 0.297678 -1.497592
v -0.854191 0.297678 -1.488140
v -0.854191 0.297678 -1.471591
v -0.897740 0.297678 -1.483261
v -0.854191 0.297678 -1.488140
v -0.818917 0.297678 -1.497592
v -0.810643 0.297678 -1.483261
v -0.854191 0.297678 -1.471591
v -0.818917 0.297678 -1.497592
v -0.793094 0.297678 -1.523415
v -0.778763 0.297678 -1.515141
v -0.810643 0.297678 -1.483261
v -0.793094 0.297678 -1.523415
v -0.783642 0.297678 -1.558689
v -0.767094 0.297678 -1.558689
v -0.778763 0.297678 -1.515141
v -0.802761 0.339473 -1.558689
v -0.809651 0.339473 -1.584404
v -0.793094 0.297678 -1.593963
v -0.783642 0.297678 -1.558689
v -0.809651 0.339473 -1.584404
v -0.828476 0.339473 -1.603229
v -0.818917 0.297678 -1.619786
v -0.793094 0.297678 -1.593963
v -0.828476 0.339473 -1.603229
v -0.854191 0.339473 -1.610119
v -0.854191 0.297678 -1.629238
v -0.818917 0.297678 -1.619786
v -0.854191 0.339473 -1.610119
v -0.879906 0.339473 -1.603229
v -0.889466 0.297678 -1.619786
v -0.854191 0.297678 -1.629238
v -0.879906 0.339473 -1.603229
v -0.898731 0.339473 -1.584404
v -0.915289 0.297678 -1.593963
v -0.889466 0.297678 -1.619786
v -0.898731 0.339473 -1.584404
v -0.905621 0.339473 -1.558689
v -0.924740 0.297678 -1.558689
v -0.915289 0.297678 -1.593963
v -0.905621 0.339473 -1.558689
v -0.898731 0.339473 -1.532974
v -0.915289 0.297678 -1.523414
v -0.924740 0.297678 -1.558689
v -0.898731 0.339473 -1.532974
v -0.879906 0.339473 -1.514149
v -0.889466 0.297678 -1.497592
v -0.915289 0.297678 -1.523414
v -0.879906 0.339473 -1.514149
v -0.854191 0.339473 -1.507258
v -0.854191 0.297678 -1.488140
v -0.889466 0.297678 -1.497592
v -0.854191 0.339473 -1.507258
v -0.828476 0.339473 -1.514149
v -0.818917 0.297678 -1.497592
v -0.854191 0.297678 -1.488140
v -0.828476 0.339473 -1.514149
v -0.809651 0.339473 -1.532974
v -0.793094 0.297678 -1.523415
v -0.818917 0.297678 -1.497592
v -0.809651 0.339473 -1.532974
v -0.802761 0.339473 -1.558689
v -0.783642 0.297678 -1.558689
v -0.793094 0.297678 -1.523415
v -0.809651 0.339473 -1.532974
v -0.828476 0.339473 -1.514149
v -0.854191 0.339473 -1.507258
v -0.879906 0.339473 -1.514149
v -0.898731 0.339473 -1.532974
v -0.905621 0.339473 -1.558689
v -0.898731 0.339473 -1.584404
v -0.879906 0.339473 -1.603229
v -0.854191 0.339473 -1.610119
v -0.828476 0.339473 -1.603229
v -0.809651 0.339473 -1.584404
v -0.802761 0.339473 -1.558689
usemtl mat15

vn 0.536496 0.831569 -0.143754
vn 0.536496 0.831569 -0.143754
vn 0.536496 0.831569 -0.143754
vn 0.392742 0.831569 -0.392742
vn 0.392742 0.831569 -0.392742
vn 0.392742 0.831569 -0.392742
vn 0.143754 0.831569 -0.536496
vn 0.143754 0.831569 -0.536496
vn 0.143754 0.831569 -0.536496
vn -0.143754 0.831569 -0.536496
vn -0.143754 0.831569 -0.536496
vn -0.143754 0.831569 -0.536496
vn -0.392742 0.831569 -0.392742
vn -0.392742 0.831569 -0.392742
vn -0.392742 0.831569 -0.392742
vn -0.536496 0.831569 -0.143754
vn -0.536496 0.831569 -0.143754
vn -0.536496 0.831569 -0.143754
vn -0.536496 0.831569 0.143754
vn -0.536496 0.831569 0.143754
vn -0.536496 0.831569 0.143754
vn -0.392742 0.831569 0.392742
vn -0.392742 0.831569 0.392742
vn -0.392742 0.831569 0.392742
vn -0.143754 0.831569 0.536496
vn -0.143754 0.831569 0.536496
vn -0.143754 0.831569 0.536496
vn 0.143753 0.831569 0.536496
vn 0.143753 0.831569 0.536496
vn 0.143753 0.831569 0.536496
vn 0.392742 0.831569 0.392742
vn 0.392742 0.831569 0.392742
vn 0.392742 0.831569 0.392742
vn 0.536496 0.831569 0.143753
vn 0.536496 0.831569 0.143753
vn 0.536496 0.831569 0.143753
vn 0.881126 0.409725 -0.236097
vn 0.881126 0.409725 -0.236097
vn 0.881126 0.409725 -0.236097
vn 0.881126 0.409725 -0.236097
vn 0.645031 0.409722 -0.645029
vn 0.645031 0.409722 -0.645029
vn 0.645031 0.409722 -0.645029
vn 0.645031 0.409722 -0.645029
vn 0.236098 0.409721 -0.881128
vn 0.236098 0.409721 -0.881128
vn 0.236098 0.409721 -0.881128
vn 0.236098 0.409721 -0.881128
vn -0.236095 0.409723 -0.881128
vn -0.236095 0.409723 -0.881128
vn -0.236095 0.409723 -0.881128
vn -0.236095 0.409723 -0.881128
vn -0.645030 0.409724 -0.645029
vn -0.645030 0.409724 -0.645029
vn -0.645030 0.409724 -0.645029
vn -0.645030 0.409724 -0.645029
vn -0.881127 0.409723 -0.236097
vn -0.881127 0.409723 -0.236097
vn -0.881127 0.409723 -0.236097
vn -0.881127 0.409723 -0.236097
vn -0.881127 0.409723 0.236097
vn -0.881127 0.409723 0.236097
vn -0.881127 0.409723 0.236097
vn -0.881127 0.409723 0.236097
vn -0.645029 0.409725 0.645030
vn -0.645029 0.409725 0.645030
vn -0.645029 0.409725 0.645030
vn -0.645029 0.409725 0.645030
vn -0.236099 0.409727 0.881125
vn -0.236099 0.409727 0.881125
vn -0.236099 0.409727 0.881125
vn -0.236099 0.409727 0.881125
vn 0.236099 0.409727 0.881125
vn 0.236099 0.409727 0.881125
vn 0.236099 0.409727 0.881125
vn 0.236099 0.409727 0.881125
vn 0.645030 0.409724 0.645029
vn 0.645030 0.409724 0.645029
vn 0.645030 0.409724 0.645029
vn 0.645030 0.409724 0.645029
vn 0.881126 0.409726 0.236098
vn 0.881126 0.409726 0.236098
vn 0.881126 0.409726 0.236098
vn 0.881126 0.409726 0.236098
vn 0.000010 -1.000000 -0.000003
vn 0.000010 -1.000000 -0.000003
vn 0.000010 -1.000000 -0.000003
vn 0.000010 -1.000000 -0.000003
vn 0.000007 -1.000000 -0.000007
vn 0.000007 -1.000000 -0.000007
vn 0.000007 -1.000000 -0.000007
vn 0.000007 -1.000000 -0.000007
vn 0.000003 -1.000000 -0.000010
vn 0.000003 -1.000000 -0.000010
vn 0.000003 -1.000000 -0.000010
vn 0.000003 -1.000000 -0.000010
vn -0.000003 -1.000000 -0.000011
vn -0.000003 -1.000000 -0.000011
vn -0.000003 -1.000000 -0.000011
vn -0.000003 -1.000000 -0.000011
vn -0.000008 -1.000000 -0.000008
vn -0.000008 -1.000000 -0.000008
vn -0.000008 -1.000000 -0.000008
vn -0.000008 -1.000000 -0.000008
vn -0.000010 -1.000000 -0.000003
vn -0.000010 -1.000000 -0.000003
vn -0.000010 -1.000000 -0.000003
vn -0.000010 -1.000000 -0.000003
vn -0.000010 -1.000000 0.000002
vn -0.000010 -1.000000 0.000002
vn -0.000010 -1.000000 0.000002
vn -0.000010 -1.000000 0.000002
vn -0.000008 -1.000000 0.000007
vn -0.000008 -1.000000 0.000007
vn -0.000008 -1.000000 0.000007
vn -0.000008 -1.000000 0.000007
vn -0.000003 -1.000000 0.000010
vn -0.000003 -1.000000 0.000010
vn -0.000003 -1.000000 0.000010
vn -0.000003 -1.000000 0.000010
vn 0.000003 -1.000000 0.000010
vn 0.000003 -1.000000 0.000010
vn 0.000003 -1.000000 0.000010
vn 0.000003 -1.000000 0.000010
vn 0.000007 -1.000000 0.000007
vn 0.000007 -1.000000 0.000007
vn 0.000007 -1.000000 0.000007
vn 0.000007 -1.000000 0.000007
vn 0.000010 -1.000000 0.000003
vn 0.000010 -1.000000 0.000003
vn 0.000010 -1.000000 0.000003
vn 0.000010 -1.000000 0.000003
vn -0.883524 -0.404154 0.236739
vn -0.883524 -0.404154 0.236739
vn -0.883524 -0.404154 0.236739
vn -0.883524 -0.404154 0.236739
vn -0.646785 -0.404155 0.646783
vn -0.646785 -0.404155 0.646783
vn -0.646785 -0.404155 0.646783
vn -0.646785 -0.404155 0.646783
vn -0.236736 -0.404158 0.883523
vn -0.236736 -0.404158 0.883523
vn -0.236736 -0.404158 0.883523
vn -0.236736 -0.404158 0.883523
vn 0.236733 -0.404161 0.883522
vn 0.236733 -0.404161 0.883522
vn 0.236733 -0.404161 0.883522
vn 0.236733 -0.404161 0.883522
vn 0.646781 -0.404160 0.646783
vn 0.646781 -0.404160 0.646783
vn 0.646781 -0.404160 0.646783
vn 0.646781 -0.404160 0.646783
vn 0.883522 -0.404159 0.236738
vn 0.883522 -0.404159 0.236738
vn 0.883522 -0.404159 0.236738
vn 0.883522 -0.404159 0.236738
vn 0.883522 -0.404157 -0.236740
vn 0.883522 -0.404157 -0.236740
vn 0.883522 -0.404157 -0.236740
vn 0.883522 -0.404157 -0.236740
vn 0.646784 -0.404155 -0.646784
vn 0.646784 -0.404155 -0.646784
vn 0.646784 -0.404155 -0.646784
vn 0.646784 -0.404155 -0.646784
vn 0.236746 -0.404153 -0.883522
vn 0.236746 -0.404153 -0.883522
vn 0.236746 -0.404153 -0.883522
vn 0.236746 -0.404153 -0.883522
vn -0.236745 -0.404151 -0.883523
vn -0.236745 -0.404151 -0.883523
vn -0.236745 -0.404151 -0.883523
vn -0.236745 -0.404151 -0.883523
vn -0.646788 -0.404149 -0.646783
vn -0.646788 -0.404149 -0.646783
vn -0.646788 -0.404149 -0.646783
vn -0.646788 -0.404149 -0.646783
vn -0.883524 -0.404151 -0.236744
vn -0.883524 -0.404151 -0.236744
vn -0.883524 -0.404151 -0.236744
vn -0.883524 -0.404151 -0.236744
vn -0.000000 -1.000000 -0.000000
vn -0.000000 -1.000000 -0.000000
vn -0.000000 -1.000000 -0.000000
vn -0.000000 -1.000000 -0.000000
vn -0.000000 -1.000000 -0.000000
vn -0.000000 -1.000000 -0.000000
vn -0.000000 -1.000000 -0.000000
vn -0.000000 -1.000000 -0.000000
vn -0.000000 -1.000000 -0.000000
vn -0.000000 -1.000000 -0.000000
vn -0.000000 -1.000000 -0.000000
vn -0.000000 -1.000000 -0.000000

vt 0.108634 -0.104118
vt 0.112323 -0.103591
vt 0.111662 -0.112131
vt 0.051022 -0.135549
vt 0.053828 -0.138001
vt 0.046924 -0.143071
vt 0.021330 -0.126390
vt 0.022257 -0.129999
vt 0.013695 -0.130274
vt 0.020730 -0.098901
vt 0.020018 -0.102558
vt 0.012167 -0.099132
vt 0.037654 -0.065769
vt 0.035552 -0.068846
vt 0.029699 -0.062591
vt 0.066347 -0.039790
vt 0.063154 -0.041710
vt 0.060442 -0.033585
vt 0.099191 -0.032242
vt 0.095475 -0.032518
vt 0.096713 -0.024042
vt 0.125033 -0.041515
vt 0.121601 -0.040065
vt 0.126572 -0.033089
vt 0.138378 -0.052672
vt 0.135897 -0.049893
vt 0.143375 -0.045714
vt 0.142586 -0.054915
vt 0.141418 -0.051377
vt 0.149941 -0.050526
vt 0.142510 -0.051881
vt 0.142897 -0.048175
vt 0.151019 -0.050897
vt 0.137634 -0.061622
vt 0.139856 -0.058632
vt 0.145456 -0.065114
vt 0.080044 0.116373
vt 0.078907 0.120735
vt 0.082454 0.121256
vt 0.083394 0.117651
vt -0.098879 -0.114741
vt -0.099498 -0.119208
vt -0.102974 -0.118331
vt -0.102463 -0.114640
vt -0.081894 -0.111347
vt -0.082942 -0.115732
vt -0.086317 -0.114524
vt -0.085451 -0.110899
vt -0.061318 -0.075405
vt -0.062984 -0.079595
vt -0.066151 -0.077914
vt -0.064774 -0.074452
vt -0.030520 -0.018883
vt -0.033028 -0.022630
vt -0.035771 -0.020322
vt -0.033699 -0.017226
vt 0.020688 0.033786
vt 0.017067 0.031101
vt 0.015258 0.034196
vt 0.018251 0.036416
vt 0.093671 0.038196
vt 0.089183 0.037761
vt 0.089229 0.041346
vt 0.092938 0.041705
vt 0.141426 -0.014906
vt 0.137451 -0.012778
vt 0.139478 -0.009821
vt 0.142763 -0.011579
vt 0.146588 -0.051222
vt 0.143760 -0.047711
vt 0.146781 -0.045780
vt 0.149118 -0.048682
vt 0.137716 -0.043260
vt 0.135817 -0.039171
vt 0.139214 -0.038025
vt 0.140783 -0.041405
vt 0.126500 -0.003047
vt 0.125279 0.001293
vt 0.128816 0.001881
vt 0.129824 -0.001706
vt 0.114254 0.051244
vt 0.113531 0.055694
vt 0.117111 0.055880
vt 0.117709 0.052202
vt -0.099683 -0.080341
vt -0.103323 -0.080044
vt -0.103620 -0.078416
vt -0.099127 -0.078782
vt -0.103323 -0.080044
vt -0.106624 -0.081608
vt -0.107695 -0.080346
vt -0.103621 -0.078416
vt -0.106624 -0.081608
vt -0.108701 -0.084612
vt -0.110259 -0.084055
vt -0.107696 -0.080346
vt -0.108701 -0.084612
vt -0.108998 -0.088252
vt -0.110625 -0.088549
vt -0.110260 -0.084055
vt -0.108997 -0.088252
vt -0.107434 -0.091553
vt -0.108695 -0.092624
vt -0.110625 -0.088549
vt -0.107434 -0.091553
vt -0.104430 -0.093630
vt -0.104986 -0.095188
vt -0.108695 -0.092624
vt -0.104429 -0.093630
vt -0.100789 -0.093926
vt -0.100492 -0.095554
vt -0.104986 -0.095188
vt -0.100788 -0.093926
vt -0.097488 -0.092363
vt -0.096417 -0.093624
vt -0.100491 -0.095554
vt -0.097488 -0.092363
vt -0.095411 -0.089359
vt -0.093853 -0.089916
vt -0.096416 -0.093624
vt -0.095411 -0.089359
vt -0.095115 -0.085719
vt -0.093487 -0.085422
vt -0.093852 -0.089915
vt -0.095115 -0.085718
vt -0.096678 -0.082418
vt -0.095417 -0.081347
vt -0.093487 -0.085421
vt -0.096679 -0.082418
vt -0.099683 -0.080341
vt -0.099126 -0.078783
vt -0.095417 -0.081346
vt -0.075352 0.124580
vt -0.074487 0.127098
vt -0.070005 0.126081
vt -0.071192 0.122627
vt 0.105837 -0.113445
vt 0.106239 -0.116077
vt 0.101797 -0.117257
vt 0.101245 -0.113647
vt 0.088152 -0.110495
vt 0.088784 -0.113081
vt 0.084462 -0.114646
vt 0.083596 -0.111098
vt 0.067323 -0.073959
vt 0.068310 -0.076431
vt 0.064249 -0.078585
vt 0.062895 -0.075193
vt 0.036151 -0.016249
vt 0.037630 -0.018462
vt 0.034105 -0.021412
vt 0.032076 -0.018375
vt -0.016185 0.038232
vt -0.014050 0.036642
vt -0.016383 0.032682
vt -0.019312 0.034864
vt -0.092153 0.044110
vt -0.089503 0.043852
vt -0.089454 0.039257
vt -0.093088 0.039610
vt -0.143260 -0.009777
vt -0.140915 -0.008516
vt -0.138315 -0.012306
vt -0.141531 -0.014036
vt -0.150039 -0.047422
vt -0.148372 -0.045346
vt -0.144499 -0.047822
vt -0.146785 -0.050669
vt -0.141821 -0.040263
vt -0.140699 -0.037849
vt -0.136347 -0.039327
vt -0.137887 -0.042639
vt -0.130810 -0.000400
vt -0.130080 0.002160
vt -0.125550 0.001383
vt -0.126551 -0.002129
vt -0.118252 0.054082
vt -0.117799 0.056705
vt -0.113212 0.056415
vt -0.113834 0.052816
vt -0.098136 -0.083656
vt -0.096997 -0.086062
vt -0.097213 -0.088715
vt -0.098726 -0.090905
vt -0.101132 -0.092045
vt -0.103786 -0.091829
vt -0.105976 -0.090315
vt -0.107115 -0.087909
vt -0.106899 -0.085256
vt -0.105386 -0.083066
vt -0.102980 -0.081926
vt -0.100326 -0.082142
s off
f 1/1/1 2/2/2 3/3/3
f 4/4/4 5/5/5 6/6/6
f 7/7/7 8/8/8 9/9/9
f 10/10/10 11/11/11 12/12/12
f 13/13/13 14/14/14 15/15/15
f 16/16/16 17/17/17 18/18/18
f 19/19/19 20/20/20 21/21/21
f 22/22/22 23/23/23 24/24/24
f 25/25/25 26/26/26 27/27/27
f 28/28/28 29/29/29 30/30/30
f 31/31/31 32/32/32 33/33/33
f 34/34/34 35/35/35 36/36/36
f 37/37/37 38/38/38 39/39/39
f 37/37/37 39/39/39 40/40/40
f 41/41/41 42/42/42 43/43/43
f 41/41/41 43/43/43 44/44/44
f 45/45/45 46/46/46 47/47/47
f 45/45/45 47/47/47 48/48/48
f 49/49/49 50/50/50 51/51/51
f 49/49/49 51/51/51 52/52/52
f 53/53/53 54/54/54 55/55/55
f 53/53/53 55/55/55 56/56/56
f 57/57/57 58/58/58 59/59/59
f 57/57/57 59/59/59 60/60/60
f 61/61/61 62/62/62 63/63/63
f 61/61/61 63/63/63 64/64/64
f 65/65/65 66/66/66 67/67/67
f 65/65/65 67/67/67 68/68/68
f 69/69/69 70/70/70 71/71/71
f 69/69/69 71/71/71 72/72/72
f 73/73/73 74/74/74 75/75/75
f 73/73/73 75/75/75 76/76/76
f 77/77/77 78/78/78 79/79/79
f 77/77/77 79/79/79 80/80/80
f 81/81/81 82/82/82 83/83/83
f 81/81/81 83/83/83 84/84/84
f 85/85/85 86/86/86 87/87/87
f 85/85/85 87/87/87 88/88/88
f 89/89/89 90/90/90 91/91/91
f 89/89/89 91/91/91 92/92/92
f 93/93/93 94/94/94 95/95/95
f 93/93/93 95/95/95 96/96/96
f 97/97/97 98/98/98 99/99/99
f 97/97/97 99/99/99 100/100/100
f 101/101/101 102/102/102 103/103/103
f 101/101/101 103/103/103 104/104/104
f 105/105/105 106/106/106 107/107/107
f 105/105/105 107/107/107 108/108/108
f 109/109/109 110/110/110 111/111/111
f 109/109/109 111/111/111 112/112/112
f 113/113/113 114/114/114 115/115/115
f 113/113/113 115/115/115 116/116/116
f 117/117/117 118/118/118 119/119/119
f 117/117/117 119/119/119 120/120/120
f 121/121/121 122/122/122 123/123/123
f 121/121/121 123/123/123 124/124/124
f 125/125/125 126/126/126 127/127/127
f 125/125/125 127/127/127 128/128/128
f 129/129/129 130/130/130 131/131/131
f 129/129/129 131/131/131 132/132/132
f 133/133/133 134/134/134 135/135/135
f 133/133/133 135/135/135 136/136/136
f 137/137/137 138/138/138 139/139/139
f 137/137/137 139/139/139 140/140/140
f 141/141/141 142/142/142 143/143/143
f 141/141/141 143/143/143 144/144/144
f 145/145/145 146/146/146 147/147/147
f 145/145/145 147/147/147 148/148/148
f 149/149/149 150/150/150 151/151/151
f 149/149/149 151/151/151 152/152/152
f 153/153/153 154/154/154 155/155/155
f 153/153/153 155/155/155 156/156/156
f 157/157/157 158/158/158 159/159/159
f 157/157/157 159/159/159 160/160/160
f 161/161/161 162/162/162 163/163/163
f 161/161/161 163/163/163 164/164/164
f 165/165/165 166/166/166 167/167/167
f 165/165/165 167/167/167 168/168/168
f 169/169/169 170/170/170 171/171/171
f 169/169/169 171/171/171 172/172/172
f 173/173/173 174/174/174 175/175/175
f 173/173/173 175/175/175 176/176/176
f 177/177/177 178/178/178 179/179/179
f 177/177/177 179/179/179 180/180/180
f 181/181/181 182/182/182 183/183/183
f 181/181/181 183/183/183 184/184/184
f 181/181/181 184/184/184 185/185/185
f 181/181/181 185/185/185 186/186/186
f 181/181/181 186/186/186 187/187/187
f 181/181/181 187/187/187 188/188/188
f 181/181/181 188/188/188 189/189/189
f 181/181/181 189/189/189 190/190/190
f 181/181/181 190/190/190 191/191/191
f 181/181/181 191/191/191 192/192/192
