# Exported using automatic converter by Erwin Coumans
mtllib model6.mtl
#object group306549940_3

v -2.215403 -0.916178 -1.030148
v -2.285820 -0.916178 -1.011280
v -2.285820 -0.883678 -1.011280
v -2.215403 -0.883678 -1.030148
v -2.285820 -0.916178 -1.011280
v -2.337368 -0.916178 -0.959732
v -2.337368 -0.883678 -0.959732
v -2.285820 -0.883678 -1.011280
v -2.337368 -0.916178 -0.959732
v -2.356236 -0.916178 -0.889315
v -2.356236 -0.883678 -0.889315
v -2.337368 -0.883678 -0.959732
v -2.356236 -0.916178 -0.889315
v -2.337368 -0.916178 -0.818898
v -2.337368 -0.883677 -0.818898
v -2.356236 -0.883678 -0.889315
v -2.337368 -0.916178 -0.818898
v -2.285820 -0.916178 -0.767350
v -2.285820 -0.883677 -0.767350
v -2.337368 -0.883677 -0.818898
v -2.285820 -0.916178 -0.767350
v -2.215403 -0.916178 -0.748482
v -2.215403 -0.883677 -0.748482
v -2.285820 -0.883677 -0.767350
v -2.215403 -0.916178 -0.748482
v -2.144986 -0.916178 -0.767350
v -2.144986 -0.883677 -0.767350
v -2.215403 -0.883677 -0.748482
v -2.144986 -0.916178 -0.767350
v -2.093438 -0.916178 -0.818898
v -2.093438 -0.883677 -0.818898
v -2.144986 -0.883677 -0.767350
v -2.093438 -0.916178 -0.818898
v -2.074570 -0.916178 -0.889315
v -2.074570 -0.883678 -0.889315
v -2.093438 -0.883677 -0.818898
v -2.074570 -0.916178 -0.889315
v -2.093438 -0.916178 -0.959732
v -2.093438 -0.883678 -0.959732
v -2.074570 -0.883678 -0.889315
v -2.093438 -0.916178 -0.959732
v -2.144986 -0.916178 -1.011280
v -2.144986 -0.883678 -1.011280
v -2.093438 -0.883678 -0.959732
v -2.144986 -0.916178 -1.011280
v -2.215403 -0.916178 -1.030148
v -2.215403 -0.883678 -1.030148
v -2.144986 -0.883678 -1.011280
v -2.215403 -0.883678 -1.030148
v -2.285820 -0.883678 -1.011280
v -2.337368 -0.883678 -0.959732
v -2.356236 -0.883678 -0.889315
v -2.337368 -0.883677 -0.818898
v -2.285820 -0.883677 -0.767350
v -2.215403 -0.883677 -0.748482
v -2.144986 -0.883677 -0.767350
v -2.093438 -0.883677 -0.818898
v -2.074570 -0.883678 -0.889315
v -2.093438 -0.883678 -0.959732
v -2.144986 -0.883678 -1.011280
v -2.144986 -0.916178 -1.011280
v -2.093438 -0.916178 -0.959732
v -2.074570 -0.916178 -0.889315
v -2.093438 -0.916178 -0.818898
v -2.144986 -0.916178 -0.767350
v -2.215403 -0.916178 -0.748482
v -2.285820 -0.916178 -0.767350
v -2.337368 -0.916178 -0.818898
v -2.356236 -0.916178 -0.889315
v -2.337368 -0.916178 -0.959732
v -2.285820 -0.916178 -1.011280
v -2.215403 -0.916178 -1.030148
v -2.204570 -0.374511 -1.030148
v -2.274987 -0.374511 -1.011280
v -2.274987 -0.342011 -1.011280
v -2.204570 -0.342011 -1.030148
v -2.274987 -0.374511 -1.011280
v -2.326535 -0.374511 -0.959731
v -2.326535 -0.342011 -0.959731
v -2.274987 -0.342011 -1.011280
v -2.326535 -0.374511 -0.959731
v -2.345403 -0.374511 -0.889315
v -2.345403 -0.342011 -0.889315
v -2.326535 -0.342011 -0.959731
v -2.345403 -0.374511 -0.889315
v -2.326535 -0.374511 -0.818898
v -2.326535 -0.342011 -0.818898
v -2.345403 -0.342011 -0.889315
v -2.326535 -0.374511 -0.818898
v -2.274987 -0.374511 -0.767349
v -2.274987 -0.342011 -0.767349
v -2.326535 -0.342011 -0.818898
v -2.274987 -0.374511 -0.767349
v -2.204570 -0.374511 -0.748481
v -2.204570 -0.342011 -0.748481
v -2.274987 -0.342011 -0.767349
v -2.204570 -0.374511 -0.748481
v -2.134153 -0.374511 -0.767349
v -2.134153 -0.342011 -0.767349
v -2.204570 -0.342011 -0.748481
v -2.134153 -0.374511 -0.767349
v -2.082605 -0.374511 -0.818898
v -2.082605 -0.342011 -0.818898
v -2.134153 -0.342011 -0.767349
v -2.082605 -0.374511 -0.818898
v -2.063737 -0.374511 -0.889315
v -2.063737 -0.342011 -0.889315
v -2.082605 -0.342011 -0.818898
v -2.063737 -0.374511 -0.889315
v -2.082605 -0.374511 -0.959731
v -2.082605 -0.342011 -0.959731
v -2.063737 -0.342011 -0.889315
v -2.082605 -0.374511 -0.959731
v -2.134153 -0.374511 -1.011280
v -2.134153 -0.342011 -1.011280
v -2.082605 -0.342011 -0.959731
v -2.134153 -0.374511 -1.011280
v -2.204570 -0.374511 -1.030148
v -2.204570 -0.342011 -1.030148
v -2.134153 -0.342011 -1.011280
v -2.204570 -0.342011 -1.030148
v -2.274987 -0.342011 -1.011280
v -2.326535 -0.342011 -0.959731
v -2.345403 -0.342011 -0.889315
v -2.326535 -0.342011 -0.818898
v -2.274987 -0.342011 -0.767349
v -2.204570 -0.342011 -0.748481
v -2.134153 -0.342011 -0.767349
v -2.082605 -0.342011 -0.818898
v -2.063737 -0.342011 -0.889315
v -2.082605 -0.342011 -0.959731
v -2.134153 -0.342011 -1.011280
v -2.134153 -0.374511 -1.011280
v -2.082605 -0.374511 -0.959731
v -2.063737 -0.374511 -0.889315
v -2.082605 -0.374511 -0.818898
v -2.134153 -0.374511 -0.767349
v -2.204570 -0.374511 -0.748481
v -2.274987 -0.374511 -0.767349
v -2.326535 -0.374511 -0.818898
v -2.345403 -0.374511 -0.889315
v -2.326535 -0.374511 -0.959731
v -2.274987 -0.374511 -1.011280
v -2.204570 -0.374511 -1.030148
usemtl mat18

vn -0.258819 -0.000001 -0.965926
vn -0.258819 -0.000001 -0.965926
vn -0.258819 -0.000001 -0.965926
vn -0.258819 -0.000001 -0.965926
vn -0.707108 0.000002 -0.707106
vn -0.707108 0.000002 -0.707106
vn -0.707108 0.000002 -0.707106
vn -0.707108 0.000002 -0.707106
vn -0.965925 -0.000004 -0.258822
vn -0.965925 -0.000004 -0.258822
vn -0.965925 -0.000004 -0.258822
vn -0.965925 -0.000004 -0.258822
vn -0.965925 0.000004 0.258823
vn -0.965925 0.000004 0.258823
vn -0.965925 0.000004 0.258823
vn -0.965925 0.000004 0.258823
vn -0.707108 -0.000002 0.707106
vn -0.707108 -0.000002 0.707106
vn -0.707108 -0.000002 0.707106
vn -0.707108 -0.000002 0.707106
vn -0.258819 -0.000002 0.965926
vn -0.258819 -0.000002 0.965926
vn -0.258819 -0.000002 0.965926
vn -0.258819 -0.000002 0.965926
vn 0.258819 -0.000002 0.965926
vn 0.258819 -0.000002 0.965926
vn 0.258819 -0.000002 0.965926
vn 0.258819 -0.000002 0.965926
vn 0.707108 0.000001 0.707106
vn 0.707108 0.000001 0.707106
vn 0.707108 0.000001 0.707106
vn 0.707108 0.000001 0.707106
vn 0.965925 -0.000004 0.258822
vn 0.965925 -0.000004 0.258822
vn 0.965925 -0.000004 0.258822
vn 0.965925 -0.000004 0.258822
vn 0.965925 0.000004 -0.258823
vn 0.965925 0.000004 -0.258823
vn 0.965925 0.000004 -0.258823
vn 0.965925 0.000004 -0.258823
vn 0.707108 -0.000002 -0.707105
vn 0.707108 -0.000002 -0.707105
vn 0.707108 -0.000002 -0.707105
vn 0.707108 -0.000002 -0.707105
vn 0.258819 -0.000001 -0.965926
vn 0.258819 -0.000001 -0.965926
vn 0.258819 -0.000001 -0.965926
vn 0.258819 -0.000001 -0.965926
vn 0.000000 1.000000 -0.000000
vn 0.000000 1.000000 -0.000000
vn 0.000000 1.000000 -0.000000
vn 0.000000 1.000000 -0.000000
vn 0.000000 1.000000 -0.000000
vn 0.000000 1.000000 -0.000000
vn 0.000000 1.000000 -0.000000
vn 0.000000 1.000000 -0.000000
vn 0.000000 1.000000 -0.000000
vn 0.000000 1.000000 -0.000000
vn 0.000000 1.000000 -0.000000
vn 0.000000 1.000000 -0.000000
vn 0.000000 -1.000000 0.000000
vn 0.000000 -1.000000 0.000000
vn 0.000000 -1.000000 0.000000
vn 0.000000 -1.000000 0.000000
vn 0.000000 -1.000000 0.000000
vn 0.000000 -1.000000 0.000000
vn 0.000000 -1.000000 0.000000
vn 0.000000 -1.000000 0.000000
vn 0.000000 -1.000000 0.000000
vn 0.000000 -1.000000 0.000000
vn 0.000000 -1.000000 0.000000
vn 0.000000 -1.000000 0.000000
vn -0.258819 -0.000001 -0.965926
vn -0.258819 -0.000001 -0.965926
vn -0.258819 -0.000001 -0.965926
vn -0.258819 -0.000001 -0.965926
vn -0.707108 0.000002 -0.707106
vn -0.707108 0.000002 -0.707106
vn -0.707108 0.000002 -0.707106
vn -0.707108 0.000002 -0.707106
vn -0.965925 -0.000004 -0.258822
vn -0.965925 -0.000004 -0.258822
vn -0.965925 -0.000004 -0.258822
vn -0.965925 -0.000004 -0.258822
vn -0.965925 0.000004 0.258823
vn -0.965925 0.000004 0.258823
vn -0.965925 0.000004 0.258823
vn -0.965925 0.000004 0.258823
vn -0.707108 -0.000002 0.707106
vn -0.707108 -0.000002 0.707106
vn -0.707108 -0.000002 0.707106
vn -0.707108 -0.000002 0.707106
vn -0.258819 -0.000002 0.965926
vn -0.258819 -0.000002 0.965926
vn -0.258819 -0.000002 0.965926
vn -0.258819 -0.000002 0.965926
vn 0.258819 -0.000002 0.965926
vn 0.258819 -0.000002 0.965926
vn 0.258819 -0.000002 0.965926
vn 0.258819 -0.000002 0.965926
vn 0.707108 0.000001 0.707106
vn 0.707108 0.000001 0.707106
vn 0.707108 0.000001 0.707106
vn 0.707108 0.000001 0.707106
vn 0.965925 -0.000004 0.258822
vn 0.965925 -0.000004 0.258822
vn 0.965925 -0.000004 0.258822
vn 0.965925 -0.000004 0.258822
vn 0.965925 0.000004 -0.258823
vn 0.965925 0.000004 -0.258823
vn 0.965925 0.000004 -0.258823
vn 0.965925 0.000004 -0.258823
vn 0.707108 -0.000002 -0.707105
vn 0.707108 -0.000002 -0.707105
vn 0.707108 -0.000002 -0.707105
vn 0.707108 -0.000002 -0.707105
vn 0.258819 -0.000001 -0.965926
vn 0.258819 -0.000001 -0.965926
vn 0.258819 -0.000001 -0.965926
vn 0.258819 -0.000001 -0.965926
vn 0.000000 1.000000 -0.000000
vn 0.000000 1.000000 -0.000000
vn 0.000000 1.000000 -0.000000
vn 0.000000 1.000000 -0.000000
vn 0.000000 1.000000 -0.000000
vn 0.000000 1.000000 -0.000000
vn 0.000000 1.000000 -0.000000
vn 0.000000 1.000000 -0.000000
vn 0.000000 1.000000 -0.000000
vn 0.000000 1.000000 -0.000000
vn 0.000000 1.000000 -0.000000
vn 0.000000 1.000000 -0.000000
vn 0.000000 -1.000000 0.000000
vn 0.000000 -1.000000 0.000000
vn 0.000000 -1.000000 0.000000
vn 0.000000 -1.000000 0.000000
vn 0.000000 -1.000000 0.000000
vn 0.000000 -1.000000 0.000000
vn 0.000000 -1.000000 0.000000
vn 0.000000 -1.000000 0.000000
vn 0.000000 -1.000000 0.000000
vn 0.000000 -1.000000 0.000000
vn 0.000000 -1.000000 0.000000
vn 0.000000 -1.000000 0.000000

vt -0.063548 -0.235569
vt -0.066662 -0.242161
vt -0.069601 -0.240773
vt -0.066487 -0.234181
vt -0.042516 -0.175021
vt -0.045884 -0.181487
vt -0.048767 -0.179985
vt -0.045398 -0.173520
vt -0.006140 -0.075093
vt -0.010789 -0.080708
vt -0.013292 -0.078635
vt -0.008643 -0.073021
vt 0.075212 -0.030845
vt 0.068027 -0.032083
vt 0.067476 -0.028880
vt 0.074660 -0.027642
vt 0.105654 -0.154393
vt 0.100259 -0.149489
vt 0.102446 -0.147084
vt 0.107840 -0.151988
vt 0.085436 -0.236146
vt 0.081814 -0.229820
vt 0.084635 -0.228205
vt 0.088256 -0.234532
vt 0.066662 -0.242161
vt 0.063548 -0.235569
vt 0.066487 -0.234181
vt 0.069601 -0.240773
vt 0.045885 -0.181486
vt 0.042516 -0.175021
vt 0.045399 -0.173519
vt 0.048767 -0.179985
vt 0.010788 -0.080709
vt 0.006138 -0.075095
vt 0.008642 -0.073022
vt 0.013291 -0.078636
vt -0.068027 -0.032081
vt -0.075211 -0.030843
vt -0.074659 -0.027640
vt -0.067475 -0.028878
vt -0.100260 -0.149489
vt -0.105654 -0.154393
vt -0.107840 -0.151988
vt -0.102446 -0.147084
vt -0.081814 -0.229820
vt -0.085436 -0.236146
vt -0.088256 -0.234532
vt -0.084635 -0.228205
vt 0.098064 -0.232953
vt 0.098655 -0.240219
vt 0.095534 -0.246808
vt 0.089537 -0.250953
vt 0.082271 -0.251544
vt 0.075683 -0.248423
vt 0.071538 -0.242427
vt 0.070946 -0.235161
vt 0.074067 -0.228572
vt 0.080064 -0.224427
vt 0.087330 -0.223835
vt 0.093918 -0.226956
vt -0.093918 -0.226956
vt -0.087330 -0.223835
vt -0.080064 -0.224427
vt -0.074067 -0.228572
vt -0.070946 -0.235161
vt -0.071538 -0.242427
vt -0.075683 -0.248423
vt -0.082271 -0.251544
vt -0.089537 -0.250953
vt -0.095534 -0.246808
vt -0.098655 -0.240219
vt -0.098064 -0.232953
vt -0.112078 -0.211485
vt -0.115192 -0.218077
vt -0.118130 -0.216689
vt -0.115016 -0.210097
vt -0.090199 -0.149313
vt -0.093568 -0.155778
vt -0.096450 -0.154277
vt -0.093082 -0.147812
vt -0.047680 -0.040330
vt -0.052330 -0.045945
vt -0.054833 -0.043872
vt -0.050183 -0.038257
vt 0.065738 0.022488
vt 0.058554 0.021250
vt 0.058002 0.024453
vt 0.065186 0.025691
vt 0.141524 -0.113798
vt 0.136130 -0.108894
vt 0.138316 -0.106489
vt 0.143710 -0.111393
vt 0.131926 -0.208329
vt 0.128304 -0.202002
vt 0.131125 -0.200388
vt 0.134746 -0.206715
vt 0.115191 -0.218077
vt 0.112077 -0.211486
vt 0.115016 -0.210097
vt 0.118130 -0.216689
vt 0.093568 -0.155778
vt 0.090200 -0.149313
vt 0.093082 -0.147811
vt 0.096451 -0.154277
vt 0.052328 -0.045946
vt 0.047679 -0.040331
vt 0.050182 -0.038258
vt 0.054832 -0.043873
vt -0.058553 0.021252
vt -0.065737 0.022490
vt -0.065186 0.025693
vt -0.058001 0.024455
vt -0.136130 -0.108894
vt -0.141524 -0.113798
vt -0.143710 -0.111393
vt -0.138316 -0.106489
vt -0.128304 -0.202002
vt -0.131926 -0.208329
vt -0.134746 -0.206715
vt -0.131125 -0.200388
vt 0.097699 -0.231933
vt 0.098291 -0.239199
vt 0.095170 -0.245787
vt 0.089173 -0.249933
vt 0.081907 -0.250524
vt 0.075319 -0.247403
vt 0.071173 -0.241406
vt 0.070582 -0.234140
vt 0.073703 -0.227552
vt 0.079700 -0.223407
vt 0.086966 -0.222815
vt 0.093554 -0.225936
vt -0.093554 -0.225936
vt -0.086966 -0.222815
vt -0.079700 -0.223407
vt -0.073703 -0.227552
vt -0.070582 -0.234140
vt -0.071173 -0.241406
vt -0.075319 -0.247403
vt -0.081907 -0.250524
vt -0.089173 -0.249933
vt -0.095170 -0.245787
vt -0.098291 -0.239199
vt -0.097699 -0.231933
s off
f 1/1/1 2/2/2 3/3/3
f 1/1/1 3/3/3 4/4/4
f 5/5/5 6/6/6 7/7/7
f 5/5/5 7/7/7 8/8/8
f 9/9/9 10/10/10 11/11/11
f 9/9/9 11/11/11 12/12/12
f 13/13/13 14/14/14 15/15/15
f 13/13/13 15/15/15 16/16/16
f 17/17/17 18/18/18 19/19/19
f 17/17/17 19/19/19 20/20/20
f 21/21/21 22/22/22 23/23/23
f 21/21/21 23/23/23 24/24/24
f 25/25/25 26/26/26 27/27/27
f 25/25/25 27/27/27 28/28/28
f 29/29/29 30/30/30 31/31/31
f 29/29/29 31/31/31 32/32/32
f 33/33/33 34/34/34 35/35/35
f 33/33/33 35/35/35 36/36/36
f 37/37/37 38/38/38 39/39/39
f 37/37/37 39/39/39 40/40/40
f 41/41/41 42/42/42 43/43/43
f 41/41/41 43/43/43 44/44/44
f 45/45/45 46/46/46 47/47/47
f 45/45/45 47/47/47 48/48/48
f 49/49/49 50/50/50 51/51/51
f 49/49/49 51/51/51 52/52/52
f 49/49/49 52/52/52 53/53/53
f 49/49/49 53/53/53 54/54/54
f 49/49/49 54/54/54 55/55/55
f 49/49/49 55/55/55 56/56/56
f 49/49/49 56/56/56 57/57/57
f 49/49/49 57/57/57 58/58/58
f 49/49/49 58/58/58 59/59/59
f 49/49/49 59/59/59 60/60/60
f 61/61/61 62/62/62 63/63/63
f 61/61/61 63/63/63 64/64/64
f 61/61/61 64/64/64 65/65/65
f 61/61/61 65/65/65 66/66/66
f 61/61/61 66/66/66 67/67/67
f 61/61/61 67/67/67 68/68/68
f 61/61/61 68/68/68 69/69/69
f 61/61/61 69/69/69 70/70/70
f 61/61/61 70/70/70 71/71/71
f 61/61/61 71/71/71 72/72/72
f 73/73/73 74/74/74 75/75/75
f 73/73/73 75/75/75 76/76/76
f 77/77/77 78/78/78 79/79/79
f 77/77/77 79/79/79 80/80/80
f 81/81/81 82/82/82 83/83/83
f 81/81/81 83/83/83 84/84/84
f 85/85/85 86/86/86 87/87/87
f 85/85/85 87/87/87 88/88/88
f 89/89/89 90/90/90 91/91/91
f 89/89/89 91/91/91 92/92/92
f 93/93/93 94/94/94 95/95/95
f 93/93/93 95/95/95 96/96/96
f 97/97/97 98/98/98 99/99/99
f 97/97/97 99/99/99 100/100/100
f 101/101/101 102/102/102 103/103/103
f 101/101/101 103/103/103 104/104/104
f 105/105/105 106/106/106 107/107/107
f 105/105/105 107/107/107 108/108/108
f 109/109/109 110/110/110 111/111/111
f 109/109/109 111/111/111 112/112/112
f 113/113/113 114/114/114 115/115/115
f 113/113/113 115/115/115 116/116/116
f 117/117/117 118/118/118 119/119/119
f 117/117/117 119/119/119 120/120/120
f 121/121/121 122/122/122 123/123/123
f 121/121/121 123/123/123 124/124/124
f 121/121/121 124/124/124 125/125/125
f 121/121/121 125/125/125 126/126/126
f 121/121/121 126/126/126 127/127/127
f 121/121/121 127/127/127 128/128/128
f 121/121/121 128/128/128 129/129/129
f 121/121/121 129/129/129 130/130/130
f 121/121/121 130/130/130 131/131/131
f 121/121/121 131/131/131 132/132/132
f 133/133/133 134/134/134 135/135/135
f 133/133/133 135/135/135 136/136/136
f 133/133/133 136/136/136 137/137/137
f 133/133/133 137/137/137 138/138/138
f 133/133/133 138/138/138 139/139/139
f 133/133/133 139/139/139 140/140/140
f 133/133/133 140/140/140 141/141/141
f 133/133/133 141/141/141 142/142/142
f 133/133/133 142/142/142 143/143/143
f 133/133/133 143/143/143 144/144/144
