# Exported using automatic converter by Erwin Coumans
mtllib model6.mtl
#object mesh1709851247

v 3.036908 -0.685273 -1.814342
v 2.244169 -0.694870 -1.904743
v 2.244401 -0.717343 -1.904390
v 3.037139 -0.707746 -1.813988
v 2.283931 -0.722381 -2.250497
v 2.283699 -0.699908 -2.250851
v 3.076438 -0.690310 -2.160449
v 3.076669 -0.712784 -2.160096
v 2.244401 -0.717343 -1.904390
v 2.283931 -0.722381 -2.250497
v 3.076669 -0.712784 -2.160096
v 3.037139 -0.707746 -1.813988
v 3.076438 -0.690310 -2.160449
v 2.283699 -0.699908 -2.250851
v 2.244169 -0.694870 -1.904743
v 3.036908 -0.685273 -1.814342
v 3.076669 -0.712784 -2.160096
v 3.076438 -0.690310 -2.160449
v 3.036908 -0.685273 -1.814342
v 3.037139 -0.707746 -1.813988
v 2.244169 -0.694870 -1.904743
v 2.283699 -0.699908 -2.250851
v 2.283931 -0.722381 -2.250497
v 2.244401 -0.717343 -1.904390
usemtl mat18

vn -0.113464 0.014460 0.993437
vn -0.113464 0.014460 0.993437
vn -0.113464 0.014460 0.993437
vn -0.113464 0.014460 0.993437
vn 0.113464 -0.014460 -0.993437
vn 0.113464 -0.014460 -0.993437
vn 0.113464 -0.014460 -0.993437
vn 0.113464 -0.014460 -0.993437
vn 0.010310 -0.999823 0.015730
vn 0.010310 -0.999823 0.015730
vn 0.010310 -0.999823 0.015730
vn 0.010310 -0.999823 0.015730
vn -0.010310 0.999823 -0.015730
vn -0.010310 0.999823 -0.015730
vn -0.010310 0.999823 -0.015730
vn -0.010310 0.999823 -0.015730
vn 0.993489 0.012028 0.113295
vn 0.993489 0.012028 0.113295
vn 0.993489 0.012028 0.113295
vn 0.993489 0.012028 0.113295
vn -0.993489 -0.012028 -0.113295
vn -0.993489 -0.012028 -0.113295
vn -0.993489 -0.012028 -0.113295
vn -0.993489 -0.012028 -0.113295

vt -0.138508 0.221521
vt -0.101898 0.150622
vt -0.103895 0.149591
vt -0.140505 0.220490
vt 0.103895 0.149591
vt 0.101898 0.150622
vt 0.138508 0.221521
vt 0.140505 0.220490
vt -0.032673 0.216074
vt -0.064073 0.231168
vt -0.029501 0.303084
vt 0.001898 0.287989
vt 0.029501 0.303084
vt 0.064073 0.231168
vt 0.032673 0.216074
vt -0.001898 0.287989
vt -0.131708 0.090262
vt -0.130176 0.091907
vt -0.104676 0.068168
vt -0.106208 0.066523
vt 0.104676 0.068168
vt 0.130176 0.091907
vt 0.131708 0.090262
vt 0.106208 0.066523
s off
f 1/1/1 2/2/2 3/3/3
f 1/1/1 3/3/3 4/4/4
f 5/5/5 6/6/6 7/7/7
f 5/5/5 7/7/7 8/8/8
f 9/9/9 10/10/10 11/11/11
f 9/9/9 11/11/11 12/12/12
f 13/13/13 14/14/14 15/15/15
f 13/13/13 15/15/15 16/16/16
f 17/17/17 18/18/18 19/19/19
f 17/17/17 19/19/19 20/20/20
f 21/21/21 22/22/22 23/23/23
f 21/21/21 23/23/23 24/24/24
