# Exported using automatic converter by Erwin Coumans
mtllib model6.mtl
#object group75721577_1

v 1.565945 0.036871 1.914548
v 1.561488 0.037821 1.897574
v 1.563588 0.020438 1.896050
v 1.568045 0.019489 1.913024
v 1.580458 0.022853 1.891755
v 1.578358 0.040235 1.893279
v 1.582815 0.039286 1.910253
v 1.584915 0.021903 1.908729
v 1.563588 0.020438 1.896050
v 1.580458 0.022853 1.891755
v 1.584915 0.021903 1.908729
v 1.568045 0.019489 1.913024
v 1.582815 0.039286 1.910253
v 1.578358 0.040235 1.893279
v 1.561488 0.037821 1.897574
v 1.565945 0.036871 1.914548
v 1.584915 0.021903 1.908729
v 1.582815 0.039286 1.910253
v 1.565945 0.036871 1.914548
v 1.568045 0.019489 1.913024
v 1.561488 0.037821 1.897574
v 1.578358 0.040235 1.893279
v 1.580458 0.022853 1.891755
v 1.563588 0.020438 1.896050
v 1.553541 0.042725 1.816567
v 1.549267 0.044265 1.799589
v 1.551032 0.026896 1.797569
v 1.555306 0.025356 1.814546
v 1.567987 0.029092 1.793499
v 1.566223 0.046461 1.795519
v 1.570497 0.044921 1.812497
v 1.572262 0.027552 1.810476
v 1.551032 0.026896 1.797569
v 1.567987 0.029092 1.793499
v 1.572262 0.027552 1.810476
v 1.555306 0.025356 1.814546
v 1.570497 0.044921 1.812497
v 1.566223 0.046461 1.795519
v 1.549267 0.044265 1.799589
v 1.553541 0.042725 1.816567
v 1.572262 0.027552 1.810476
v 1.570497 0.044921 1.812497
v 1.553541 0.042725 1.816567
v 1.555306 0.025356 1.814546
v 1.549267 0.044265 1.799589
v 1.566223 0.046461 1.795519
v 1.567987 0.029092 1.793499
v 1.551032 0.026896 1.797569
v 1.579919 0.037605 2.020038
v 1.572032 0.038799 2.004378
v 1.574222 0.021530 2.001958
v 1.582109 0.020336 2.017619
v 1.589775 0.024567 1.994357
v 1.587585 0.041836 1.996776
v 1.595472 0.040642 2.012437
v 1.597662 0.023373 2.010017
v 1.574222 0.021530 2.001958
v 1.589775 0.024567 1.994357
v 1.597662 0.023373 2.010017
v 1.582109 0.020336 2.017619
v 1.595472 0.040642 2.012437
v 1.587585 0.041836 1.996776
v 1.572032 0.038799 2.004378
v 1.579919 0.037605 2.020038
v 1.597662 0.023373 2.010017
v 1.595472 0.040642 2.012437
v 1.579919 0.037605 2.020038
v 1.582109 0.020336 2.017619
v 1.572032 0.038799 2.004378
v 1.587585 0.041836 1.996776
v 1.589775 0.024567 1.994357
v 1.574222 0.021530 2.001958
v 1.594155 0.052006 2.111942
v 1.586224 0.053088 2.096295
v 1.588503 0.035820 2.093946
v 1.596434 0.034739 2.109593
v 1.604021 0.038909 2.086295
v 1.601742 0.056177 2.088644
v 1.609672 0.055095 2.104290
v 1.611951 0.037827 2.101942
v 1.588503 0.035820 2.093946
v 1.604021 0.038909 2.086295
v 1.611951 0.037827 2.101942
v 1.596434 0.034739 2.109593
v 1.609672 0.055095 2.104290
v 1.601742 0.056177 2.088644
v 1.586224 0.053088 2.096295
v 1.594155 0.052006 2.111942
v 1.611951 0.037827 2.101942
v 1.609672 0.055095 2.104290
v 1.594155 0.052006 2.111942
v 1.596434 0.034739 2.109593
v 1.586224 0.053088 2.096295
v 1.601742 0.056177 2.088644
v 1.604021 0.038909 2.086295
v 1.588503 0.035820 2.093946
v 1.714467 0.068690 1.416682
v 1.696967 0.070170 1.417343
v 1.695438 0.052717 1.415957
v 1.712938 0.051236 1.415297
v 1.694899 0.054154 1.398449
v 1.696428 0.071607 1.399835
v 1.713928 0.070127 1.399174
v 1.712399 0.052673 1.397789
v 1.695438 0.052717 1.415957
v 1.694899 0.054154 1.398449
v 1.712399 0.052673 1.397789
v 1.712938 0.051236 1.415297
v 1.713928 0.070127 1.399174
v 1.696428 0.071607 1.399835
v 1.696967 0.070170 1.417343
v 1.714467 0.068690 1.416682
v 1.712399 0.052673 1.397789
v 1.713928 0.070127 1.399174
v 1.714467 0.068690 1.416682
v 1.712938 0.051236 1.415297
v 1.696967 0.070170 1.417343
v 1.696428 0.071607 1.399835
v 1.694899 0.054154 1.398449
v 1.695438 0.052717 1.415957
v 1.812948 0.063685 1.424737
v 1.795417 0.064583 1.425602
v 1.794443 0.047109 1.423990
v 1.811973 0.046212 1.423125
v 1.793665 0.048765 1.406510
v 1.794639 0.066239 1.408122
v 1.812170 0.065341 1.407257
v 1.811195 0.047867 1.405645
v 1.794443 0.047109 1.423990
v 1.793665 0.048765 1.406510
v 1.811195 0.047867 1.405645
v 1.811973 0.046212 1.423125
v 1.812170 0.065341 1.407257
v 1.794639 0.066239 1.408122
v 1.795417 0.064583 1.425602
v 1.812948 0.063685 1.424737
v 1.811195 0.047867 1.405645
v 1.812170 0.065341 1.407257
v 1.812948 0.063685 1.424737
v 1.811973 0.046212 1.423125
v 1.795417 0.064583 1.425602
v 1.794639 0.066239 1.408122
v 1.793665 0.048765 1.406510
v 1.794443 0.047109 1.423990
v 1.919064 0.065302 1.432496
v 1.902119 0.066604 1.436973
v 1.900285 0.049227 1.435086
v 1.917231 0.047925 1.430609
v 1.895999 0.051514 1.418196
v 1.897832 0.068891 1.420083
v 1.914778 0.067589 1.415606
v 1.912944 0.050212 1.413719
v 1.900285 0.049227 1.435086
v 1.895999 0.051514 1.418196
v 1.912944 0.050212 1.413719
v 1.917231 0.047925 1.430609
v 1.914778 0.067589 1.415606
v 1.897832 0.068891 1.420083
v 1.902119 0.066604 1.436973
v 1.919064 0.065302 1.432496
v 1.912944 0.050212 1.413719
v 1.914778 0.067589 1.415606
v 1.919064 0.065302 1.432496
v 1.917231 0.047925 1.430609
v 1.902119 0.066604 1.436973
v 1.897832 0.068891 1.420083
v 1.895999 0.051514 1.418196
v 1.900285 0.049227 1.435086
usemtl mat21

vn -0.959898 -0.137393 0.244373
vn -0.959898 -0.137393 0.244373
vn -0.959898 -0.137393 0.244373
vn -0.959898 -0.137393 0.244373
vn 0.959898 0.137393 -0.244373
vn 0.959898 0.137393 -0.244373
vn 0.959898 0.137393 -0.244373
vn 0.959898 0.137393 -0.244373
vn 0.119491 -0.989042 -0.086704
vn 0.119491 -0.989042 -0.086704
vn 0.119491 -0.989042 -0.086704
vn 0.119491 -0.989042 -0.086704
vn -0.119491 0.989042 0.086704
vn -0.119491 0.989042 0.086704
vn -0.119491 0.989042 0.086704
vn -0.119491 0.989042 0.086704
vn 0.253607 -0.054026 0.965797
vn 0.253607 -0.054026 0.965797
vn 0.253607 -0.054026 0.965797
vn 0.253607 -0.054026 0.965797
vn -0.253607 0.054026 -0.965797
vn -0.253607 0.054026 -0.965797
vn -0.253607 0.054026 -0.965797
vn -0.253607 0.054026 -0.965797
vn -0.964762 -0.124955 0.231561
vn -0.964762 -0.124955 0.231561
vn -0.964762 -0.124955 0.231561
vn -0.964762 -0.124955 0.231561
vn 0.964762 0.124955 -0.231561
vn 0.964762 0.124955 -0.231561
vn 0.964762 0.124955 -0.231561
vn 0.964762 0.124955 -0.231561
vn 0.100408 -0.988282 -0.114963
vn 0.100408 -0.988282 -0.114963
vn 0.100408 -0.988282 -0.114963
vn 0.100408 -0.988282 -0.114963
vn -0.100408 0.988282 0.114963
vn -0.100408 0.988282 0.114963
vn -0.100408 0.988282 0.114963
vn -0.100408 0.988282 0.114963
vn 0.243213 -0.087661 0.966004
vn 0.243213 -0.087661 0.966004
vn 0.243213 -0.087661 0.966004
vn 0.243213 -0.087661 0.966004
vn -0.243213 0.087661 -0.966004
vn -0.243213 0.087661 -0.966004
vn -0.243213 0.087661 -0.966004
vn -0.243213 0.087661 -0.966004
vn -0.884919 -0.172826 0.432492
vn -0.884919 -0.172826 0.432492
vn -0.884919 -0.172826 0.432492
vn -0.884919 -0.172826 0.432492
vn 0.884919 0.172826 -0.432492
vn 0.884919 0.172826 -0.432492
vn 0.884919 0.172826 -0.432492
vn 0.884919 0.172826 -0.432492
vn 0.124616 -0.982607 -0.137677
vn 0.124616 -0.982607 -0.137677
vn 0.124616 -0.982607 -0.137677
vn 0.124616 -0.982607 -0.137677
vn -0.124616 0.982607 0.137677
vn -0.124616 0.982607 0.137677
vn -0.124616 0.982607 0.137677
vn -0.124616 0.982607 0.137677
vn 0.448764 -0.067937 0.891064
vn 0.448764 -0.067937 0.891064
vn 0.448764 -0.067937 0.891064
vn 0.448764 -0.067937 0.891064
vn -0.448764 0.067937 -0.891064
vn -0.448764 0.067937 -0.891064
vn -0.448764 0.067937 -0.891064
vn -0.448764 0.067937 -0.891064
vn -0.882933 -0.175746 0.435365
vn -0.882933 -0.175746 0.435365
vn -0.882933 -0.175746 0.435365
vn -0.882933 -0.175746 0.435365
vn 0.882933 0.175746 -0.435365
vn 0.882933 0.175746 -0.435365
vn 0.882933 0.175746 -0.435365
vn 0.882933 0.175746 -0.435365
vn 0.129670 -0.982510 -0.133641
vn 0.129670 -0.982510 -0.133641
vn 0.129670 -0.982510 -0.133641
vn 0.129670 -0.982510 -0.133641
vn -0.129670 0.982510 0.133641
vn -0.129670 0.982510 0.133641
vn -0.129670 0.982510 0.133641
vn -0.129670 0.982510 0.133641
vn 0.451237 -0.061542 0.890279
vn 0.451237 -0.061542 0.890279
vn 0.451237 -0.061542 0.890279
vn 0.451237 -0.061542 0.890279
vn -0.451237 0.061542 -0.890279
vn -0.451237 0.061542 -0.890279
vn -0.451237 0.061542 -0.890279
vn -0.451237 0.061542 -0.890279
vn 0.030668 -0.081766 0.996180
vn 0.030668 -0.081766 0.996180
vn 0.030668 -0.081766 0.996180
vn 0.030668 -0.081766 0.996180
vn -0.030668 0.081766 -0.996180
vn -0.030668 0.081766 -0.996180
vn -0.030668 0.081766 -0.996180
vn -0.030668 0.081766 -0.996180
vn -0.087003 -0.993084 -0.078834
vn -0.087003 -0.993084 -0.078834
vn -0.087003 -0.993084 -0.078834
vn -0.087003 -0.993084 -0.078834
vn 0.087003 0.993084 0.078834
vn 0.087003 0.993084 0.078834
vn 0.087003 0.993084 0.078834
vn 0.087003 0.993084 0.078834
vn 0.995736 -0.084253 -0.037570
vn 0.995736 -0.084253 -0.037570
vn 0.995736 -0.084253 -0.037570
vn 0.995736 -0.084253 -0.037570
vn -0.995736 0.084253 0.037570
vn -0.995736 0.084253 0.037570
vn -0.995736 0.084253 0.037570
vn -0.995736 0.084253 0.037570
vn 0.044266 -0.094216 0.994567
vn 0.044266 -0.094216 0.994567
vn 0.044266 -0.094216 0.994567
vn 0.044266 -0.094216 0.994567
vn -0.044266 0.094216 -0.994567
vn -0.044266 0.094216 -0.994567
vn -0.044266 0.094216 -0.994567
vn -0.044266 0.094216 -0.994567
vn -0.055444 -0.994240 -0.091717
vn -0.055444 -0.994240 -0.091717
vn -0.055444 -0.994240 -0.091717
vn -0.055444 -0.994240 -0.091717
vn 0.055444 0.994240 0.091717
vn 0.055444 0.994240 0.091717
vn 0.055444 0.994240 0.091717
vn 0.055444 0.994240 0.091717
vn 0.997480 -0.051082 -0.049235
vn 0.997480 -0.051082 -0.049235
vn 0.997480 -0.051082 -0.049235
vn 0.997480 -0.051082 -0.049235
vn -0.997480 0.051082 0.049235
vn -0.997480 0.051082 0.049235
vn -0.997480 0.051082 0.049235
vn -0.997480 0.051082 0.049235
vn 0.243900 -0.130108 0.961033
vn 0.243900 -0.130108 0.961033
vn 0.243900 -0.130108 0.961033
vn 0.243900 -0.130108 0.961033
vn -0.243900 0.130108 -0.961033
vn -0.243900 0.130108 -0.961033
vn -0.243900 0.130108 -0.961033
vn -0.243900 0.130108 -0.961033
vn -0.104334 -0.988729 -0.107379
vn -0.104334 -0.988729 -0.107379
vn -0.104334 -0.988729 -0.107379
vn -0.104334 -0.988729 -0.107379
vn 0.104334 0.988729 0.107379
vn 0.104334 0.988729 0.107379
vn 0.104334 0.988729 0.107379
vn 0.104334 0.988729 0.107379
vn 0.964172 -0.074078 -0.254726
vn 0.964172 -0.074078 -0.254726
vn 0.964172 -0.074078 -0.254726
vn 0.964172 -0.074078 -0.254726
vn -0.964172 0.074078 0.254726
vn -0.964172 0.074078 0.254726
vn -0.964172 0.074078 0.254726
vn -0.964172 0.074078 0.254726

vt -0.303441 -0.040007
vt -0.301780 -0.039436
vt -0.301208 -0.041098
vt -0.302870 -0.041669
vt 0.301208 -0.041098
vt 0.301780 -0.039436
vt 0.303441 -0.040007
vt 0.302870 -0.041669
vt 0.302795 0.027574
vt 0.302980 0.029322
vt 0.304728 0.029136
vt 0.304543 0.027389
vt -0.304728 0.029136
vt -0.302980 0.029322
vt -0.302795 0.027574
vt -0.304543 0.027389
vt 0.038469 0.075809
vt 0.040149 0.076327
vt 0.040667 0.074648
vt 0.038987 0.074130
vt -0.040667 0.074648
vt -0.040149 0.076327
vt -0.038469 0.075809
vt -0.038987 0.074130
vt -0.292391 -0.044218
vt -0.290767 -0.043547
vt -0.290096 -0.045172
vt -0.291720 -0.045842
vt 0.290096 -0.045172
vt 0.290767 -0.043547
vt 0.292391 -0.044218
vt 0.291720 -0.045842
vt 0.291285 0.026387
vt 0.291514 0.028129
vt 0.293256 0.027901
vt 0.293028 0.026158
vt -0.293256 0.027901
vt -0.291514 0.028129
vt -0.291285 0.026387
vt -0.293028 0.026158
vt 0.045795 0.083604
vt 0.047470 0.084136
vt 0.048002 0.082461
vt 0.046327 0.081929
vt -0.048002 0.082461
vt -0.047470 0.084136
vt -0.045795 0.083604
vt -0.046327 0.081929
vt -0.277331 0.163275
vt -0.275649 0.162764
vt -0.276161 0.161082
vt -0.277842 0.161594
vt 0.276161 0.161082
vt 0.275649 0.162764
vt 0.277331 0.163275
vt 0.277842 0.161594
vt 0.310310 0.022293
vt 0.310160 0.024044
vt 0.311911 0.024194
vt 0.312061 0.022443
vt -0.311911 0.024194
vt -0.310160 0.024044
vt -0.310310 0.022293
vt -0.312061 0.022443
vt 0.071687 0.017570
vt 0.073379 0.018047
vt 0.073856 0.016356
vt 0.072165 0.015879
vt -0.073856 0.016356
vt -0.073379 0.018047
vt -0.071687 0.017570
vt -0.072164 0.015879
vt -0.282436 0.172365
vt -0.280766 0.171819
vt -0.281311 0.170149
vt -0.282982 0.170695
vt 0.281311 0.170149
vt 0.280766 0.171819
vt 0.282436 0.172365
vt 0.282982 0.170695
vt 0.319619 0.021324
vt 0.319459 0.023075
vt 0.321210 0.023234
vt 0.321369 0.021484
vt -0.321210 0.023234
vt -0.319459 0.023075
vt -0.319619 0.021324
vt -0.321369 0.021484
vt 0.073275 0.014215
vt 0.074968 0.014687
vt 0.075440 0.012994
vt 0.073747 0.012522
vt -0.075440 0.012994
vt -0.074968 0.014687
vt -0.073275 0.014215
vt -0.073747 0.012522
vt 0.010920 0.152376
vt 0.011795 0.150852
vt 0.010271 0.149977
vt 0.009396 0.151501
vt -0.010271 0.149977
vt -0.011795 0.150852
vt -0.010920 0.152376
vt -0.009396 0.151501
vt 0.258951 0.035581
vt 0.257307 0.036203
vt 0.257929 0.037847
vt 0.259573 0.037225
vt -0.257929 0.037847
vt -0.257307 0.036203
vt -0.258951 0.035581
vt -0.259573 0.037225
vt 0.236242 -0.055560
vt 0.237209 -0.054092
vt 0.238677 -0.055059
vt 0.237710 -0.056527
vt -0.238677 -0.055059
vt -0.237209 -0.054092
vt -0.236242 -0.055560
vt -0.237710 -0.056527
vt 0.011235 0.159405
vt 0.012053 0.157850
vt 0.010497 0.157032
vt 0.009680 0.158588
vt -0.010497 0.157032
vt -0.012053 0.157850
vt -0.011235 0.159405
vt -0.009680 0.158588
vt 0.263541 0.047289
vt 0.261888 0.047887
vt 0.262486 0.049540
vt 0.264139 0.048942
vt -0.262486 0.049540
vt -0.261888 0.047887
vt -0.263541 0.047289
vt -0.264139 0.048942
vt 0.236086 -0.062657
vt 0.237083 -0.061210
vt 0.238530 -0.062207
vt 0.237533 -0.063654
vt -0.238530 -0.062207
vt -0.237083 -0.061210
vt -0.236086 -0.062657
vt -0.237533 -0.063654
vt 0.039802 0.127005
vt 0.040649 0.125466
vt 0.039110 0.124618
vt 0.038262 0.126158
vt -0.039110 0.124618
vt -0.040649 0.125466
vt -0.039802 0.127005
vt -0.038262 0.126158
vt 0.266480 0.048462
vt 0.264745 0.048742
vt 0.265025 0.050477
vt 0.266760 0.050197
vt -0.265025 0.050477
vt -0.264745 0.048742
vt -0.266480 0.048462
vt -0.266760 0.050197
vt 0.269896 0.019152
vt 0.270390 0.020838
vt 0.272077 0.020344
vt 0.271582 0.018657
vt -0.272077 0.020344
vt -0.270390 0.020838
vt -0.269895 0.019152
vt -0.271582 0.018657
s off
f 1/1/1 2/2/2 3/3/3
f 1/1/1 3/3/3 4/4/4
f 5/5/5 6/6/6 7/7/7
f 5/5/5 7/7/7 8/8/8
f 9/9/9 10/10/10 11/11/11
f 9/9/9 11/11/11 12/12/12
f 13/13/13 14/14/14 15/15/15
f 13/13/13 15/15/15 16/16/16
f 17/17/17 18/18/18 19/19/19
f 17/17/17 19/19/19 20/20/20
f 21/21/21 22/22/22 23/23/23
f 21/21/21 23/23/23 24/24/24
f 25/25/25 26/26/26 27/27/27
f 25/25/25 27/27/27 28/28/28
f 29/29/29 30/30/30 31/31/31
f 29/29/29 31/31/31 32/32/32
f 33/33/33 34/34/34 35/35/35
f 33/33/33 35/35/35 36/36/36
f 37/37/37 38/38/38 39/39/39
f 37/37/37 39/39/39 40/40/40
f 41/41/41 42/42/42 43/43/43
f 41/41/41 43/43/43 44/44/44
f 45/45/45 46/46/46 47/47/47
f 45/45/45 47/47/47 48/48/48
f 49/49/49 50/50/50 51/51/51
f 49/49/49 51/51/51 52/52/52
f 53/53/53 54/54/54 55/55/55
f 53/53/53 55/55/55 56/56/56
f 57/57/57 58/58/58 59/59/59
f 57/57/57 59/59/59 60/60/60
f 61/61/61 62/62/62 63/63/63
f 61/61/61 63/63/63 64/64/64
f 65/65/65 66/66/66 67/67/67
f 65/65/65 67/67/67 68/68/68
f 69/69/69 70/70/70 71/71/71
f 69/69/69 71/71/71 72/72/72
f 73/73/73 74/74/74 75/75/75
f 73/73/73 75/75/75 76/76/76
f 77/77/77 78/78/78 79/79/79
f 77/77/77 79/79/79 80/80/80
f 81/81/81 82/82/82 83/83/83
f 81/81/81 83/83/83 84/84/84
f 85/85/85 86/86/86 87/87/87
f 85/85/85 87/87/87 88/88/88
f 89/89/89 90/90/90 91/91/91
f 89/89/89 91/91/91 92/92/92
f 93/93/93 94/94/94 95/95/95
f 93/93/93 95/95/95 96/96/96
f 97/97/97 98/98/98 99/99/99
f 97/97/97 99/99/99 100/100/100
f 101/101/101 102/102/102 103/103/103
f 101/101/101 103/103/103 104/104/104
f 105/105/105 106/106/106 107/107/107
f 105/105/105 107/107/107 108/108/108
f 109/109/109 110/110/110 111/111/111
f 109/109/109 111/111/111 112/112/112
f 113/113/113 114/114/114 115/115/115
f 113/113/113 115/115/115 116/116/116
f 117/117/117 118/118/118 119/119/119
f 117/117/117 119/119/119 120/120/120
f 121/121/121 122/122/122 123/123/123
f 121/121/121 123/123/123 124/124/124
f 125/125/125 126/126/126 127/127/127
f 125/125/125 127/127/127 128/128/128
f 129/129/129 130/130/130 131/131/131
f 129/129/129 131/131/131 132/132/132
f 133/133/133 134/134/134 135/135/135
f 133/133/133 135/135/135 136/136/136
f 137/137/137 138/138/138 139/139/139
f 137/137/137 139/139/139 140/140/140
f 141/141/141 142/142/142 143/143/143
f 141/141/141 143/143/143 144/144/144
f 145/145/145 146/146/146 147/147/147
f 145/145/145 147/147/147 148/148/148
f 149/149/149 150/150/150 151/151/151
f 149/149/149 151/151/151 152/152/152
f 153/153/153 154/154/154 155/155/155
f 153/153/153 155/155/155 156/156/156
f 157/157/157 158/158/158 159/159/159
f 157/157/157 159/159/159 160/160/160
f 161/161/161 162/162/162 163/163/163
f 161/161/161 163/163/163 164/164/164
f 165/165/165 166/166/166 167/167/167
f 165/165/165 167/167/167 168/168/168
