# Exported using automatic converter by Erwin Coumans
mtllib model6.mtl
#object mesh1881139923

v 0.704800 1.677399 -0.403146
v 0.713077 1.677799 -0.414606
v 0.711754 1.665224 -0.407257
v 0.703472 1.664885 -0.395798
v 0.713077 1.677799 -0.414606
v 0.724509 1.678616 -0.406320
v 0.723184 1.666062 -0.398971
v 0.711754 1.665224 -0.407257
v 0.724509 1.678616 -0.406320
v 0.716231 1.678216 -0.394861
v 0.714902 1.665723 -0.387513
v 0.723184 1.666062 -0.398971
v 0.716231 1.678216 -0.394861
v 0.704800 1.677399 -0.403146
v 0.703472 1.664885 -0.395798
v 0.714902 1.665723 -0.387513
v 0.716231 1.678216 -0.394861
v 0.724509 1.678616 -0.406320
v 0.713077 1.677799 -0.414606
v 0.704800 1.677399 -0.403146
v 0.703472 1.664885 -0.395798
v 0.711754 1.665224 -0.407257
v 0.723184 1.666062 -0.398971
v 0.714902 1.665723 -0.387513
usemtl mat23

vn -0.780383 -0.252612 -0.572005
vn -0.780383 -0.252612 -0.572005
vn -0.780383 -0.252612 -0.572005
vn -0.780383 -0.252612 -0.572005
vn 0.541057 -0.466357 -0.699835
vn 0.541057 -0.466357 -0.699835
vn 0.541057 -0.466357 -0.699835
vn 0.541057 -0.466357 -0.699835
vn 0.780310 0.252928 0.571965
vn 0.780310 0.252928 0.571965
vn 0.780310 0.252928 0.571965
vn 0.780310 0.252928 0.571965
vn -0.540565 0.468215 0.698973
vn -0.540565 0.468215 0.698973
vn -0.540565 0.468215 0.698973
vn -0.540565 0.468215 0.698973
vn -0.063400 0.997928 -0.010937
vn -0.063400 0.997928 -0.010937
vn -0.063400 0.997928 -0.010937
vn -0.063400 0.997928 -0.010937
vn 0.062057 -0.997955 0.015345
vn 0.062057 -0.997955 0.015345
vn 0.062057 -0.997955 0.015345
vn 0.062057 -0.997955 0.015345

vt -0.186850 0.053913
vt -0.186387 0.055250
vt -0.185410 0.054161
vt -0.185879 0.052827
vt -0.051897 0.188070
vt -0.050774 0.188930
vt -0.049700 0.187940
vt -0.050822 0.187079
vt 0.186103 0.055103
vt 0.186565 0.053766
vt 0.185595 0.052681
vt 0.185127 0.054016
vt 0.050075 0.188222
vt 0.051199 0.187363
vt 0.050127 0.186375
vt 0.049005 0.187235
vt -0.066687 0.034708
vt -0.065871 0.035863
vt -0.064716 0.035047
vt -0.065532 0.033892
vt 0.066886 0.032989
vt 0.066068 0.034143
vt 0.067222 0.034961
vt 0.068040 0.033807
s off
f 1/1/1 2/2/2 3/3/3
f 1/1/1 3/3/3 4/4/4
f 5/5/5 6/6/6 7/7/7
f 5/5/5 7/7/7 8/8/8
f 9/9/9 10/10/10 11/11/11
f 9/9/9 11/11/11 12/12/12
f 13/13/13 14/14/14 15/15/15
f 13/13/13 15/15/15 16/16/16
f 17/17/17 18/18/18 19/19/19
f 17/17/17 19/19/19 20/20/20
f 21/21/21 22/22/22 23/23/23
f 21/21/21 23/23/23 24/24/24
