# Exported using automatic converter by Erwin Coumans
mtllib model6.mtl
#object group1240181859_1

v 2.870434 -0.722604 0.545827
v 2.854744 -0.723446 0.502286
v 2.863694 -1.001029 0.504429
v 2.879385 -1.000187 0.547970
v 2.896337 -1.000067 0.492648
v 2.887387 -0.722485 0.490505
v 2.903077 -0.721642 0.534046
v 2.912027 -0.999225 0.536188
v 2.863694 -1.001029 0.504429
v 2.896337 -1.000067 0.492648
v 2.912027 -0.999225 0.536188
v 2.879385 -1.000187 0.547970
v 2.903077 -0.721642 0.534046
v 2.887387 -0.722485 0.490505
v 2.854744 -0.723446 0.502286
v 2.870434 -0.722604 0.545827
v 2.912027 -0.999225 0.536188
v 2.903077 -0.721642 0.534046
v 2.870434 -0.722604 0.545827
v 2.879385 -1.000187 0.547970
v 2.854744 -0.723446 0.502286
v 2.887387 -0.722485 0.490505
v 2.896337 -1.000067 0.492648
v 2.863694 -1.001029 0.504429
v 3.007425 -0.719527 0.477232
v 2.991735 -0.720369 0.433691
v 3.000685 -0.997952 0.435833
v 3.016376 -0.997110 0.479374
v 3.033328 -0.996990 0.424052
v 3.024378 -0.719408 0.421910
v 3.040068 -0.718566 0.465450
v 3.049018 -0.996148 0.467593
v 3.000685 -0.997952 0.435833
v 3.033328 -0.996990 0.424052
v 3.049018 -0.996148 0.467593
v 3.016376 -0.997110 0.479374
v 3.040068 -0.718566 0.465450
v 3.024378 -0.719408 0.421910
v 2.991735 -0.720369 0.433691
v 3.007425 -0.719527 0.477232
v 3.049018 -0.996148 0.467593
v 3.040068 -0.718566 0.465450
v 3.007425 -0.719527 0.477232
v 3.016376 -0.997110 0.479374
v 2.991735 -0.720369 0.433691
v 3.024378 -0.719408 0.421910
v 3.033328 -0.996990 0.424052
v 3.000685 -0.997952 0.435833
v 2.872555 -0.727386 0.132699
v 2.856865 -0.728229 0.089158
v 2.865816 -1.005811 0.091300
v 2.881506 -1.004969 0.134841
v 2.898458 -1.004849 0.079519
v 2.889508 -0.727267 0.077376
v 2.905198 -0.726425 0.120917
v 2.914148 -1.004007 0.123060
v 2.865816 -1.005811 0.091300
v 2.898458 -1.004849 0.079519
v 2.914148 -1.004007 0.123060
v 2.881506 -1.004969 0.134841
v 2.905198 -0.726425 0.120917
v 2.889508 -0.727267 0.077376
v 2.856865 -0.728229 0.089158
v 2.872555 -0.727386 0.132699
v 2.914148 -1.004007 0.123060
v 2.905198 -0.726425 0.120917
v 2.872555 -0.727386 0.132699
v 2.881506 -1.004969 0.134841
v 2.856865 -0.728229 0.089158
v 2.889508 -0.727267 0.077376
v 2.898458 -1.004849 0.079519
v 2.865816 -1.005811 0.091300
v 2.735028 -0.731343 0.194635
v 2.719338 -0.732185 0.151094
v 2.728288 -1.009768 0.153237
v 2.743978 -1.008926 0.196778
v 2.760931 -1.008806 0.141456
v 2.751980 -0.731224 0.139313
v 2.767670 -0.730381 0.182854
v 2.776621 -1.007964 0.184997
v 2.728288 -1.009768 0.153237
v 2.760931 -1.008806 0.141456
v 2.776621 -1.007964 0.184997
v 2.743978 -1.008926 0.196778
v 2.767670 -0.730381 0.182854
v 2.751980 -0.731224 0.139313
v 2.719338 -0.732185 0.151094
v 2.735028 -0.731343 0.194635
v 2.776621 -1.007964 0.184997
v 2.767670 -0.730381 0.182854
v 2.735028 -0.731343 0.194635
v 2.743978 -1.008926 0.196778
v 2.719338 -0.732185 0.151094
v 2.751980 -0.731224 0.139313
v 2.760931 -1.008806 0.141456
v 2.728288 -1.009768 0.153237
usemtl mat23

vn -0.940251 -0.027699 0.339352
vn -0.940251 -0.027699 0.339352
vn -0.940251 -0.027699 0.339352
vn -0.940251 -0.027699 0.339352
vn 0.940251 0.027699 -0.339352
vn 0.940251 0.027699 -0.339352
vn 0.940251 0.027699 -0.339352
vn 0.940251 0.027699 -0.339352
vn 0.032227 -0.999451 0.007714
vn 0.032227 -0.999451 0.007714
vn 0.032227 -0.999451 0.007714
vn 0.032227 -0.999451 0.007714
vn -0.032227 0.999451 -0.007714
vn -0.032227 0.999451 -0.007714
vn -0.032227 0.999451 -0.007714
vn -0.032227 0.999451 -0.007714
vn 0.338953 0.018190 0.940628
vn 0.338953 0.018190 0.940628
vn 0.338953 0.018190 0.940628
vn 0.338953 0.018190 0.940628
vn -0.338953 -0.018190 -0.940628
vn -0.338953 -0.018190 -0.940628
vn -0.338953 -0.018190 -0.940628
vn -0.338953 -0.018190 -0.940628
vn -0.940251 -0.027699 0.339352
vn -0.940251 -0.027699 0.339352
vn -0.940251 -0.027699 0.339352
vn -0.940251 -0.027699 0.339352
vn 0.940251 0.027699 -0.339352
vn 0.940251 0.027699 -0.339352
vn 0.940251 0.027699 -0.339352
vn 0.940251 0.027699 -0.339352
vn 0.032227 -0.999451 0.007714
vn 0.032227 -0.999451 0.007714
vn 0.032227 -0.999451 0.007714
vn 0.032227 -0.999451 0.007714
vn -0.032227 0.999451 -0.007714
vn -0.032227 0.999451 -0.007714
vn -0.032227 0.999451 -0.007714
vn -0.032227 0.999451 -0.007714
vn 0.338953 0.018190 0.940628
vn 0.338953 0.018190 0.940628
vn 0.338953 0.018190 0.940628
vn 0.338953 0.018190 0.940628
vn -0.338953 -0.018190 -0.940628
vn -0.338953 -0.018190 -0.940628
vn -0.338953 -0.018190 -0.940628
vn -0.338953 -0.018190 -0.940628
vn -0.940251 -0.027699 0.339352
vn -0.940251 -0.027699 0.339352
vn -0.940251 -0.027699 0.339352
vn -0.940251 -0.027699 0.339352
vn 0.940251 0.027699 -0.339352
vn 0.940251 0.027699 -0.339352
vn 0.940251 0.027699 -0.339352
vn 0.940251 0.027699 -0.339352
vn 0.032227 -0.999451 0.007714
vn 0.032227 -0.999451 0.007714
vn 0.032227 -0.999451 0.007714
vn 0.032227 -0.999451 0.007714
vn -0.032227 0.999451 -0.007714
vn -0.032227 0.999451 -0.007714
vn -0.032227 0.999451 -0.007714
vn -0.032227 0.999451 -0.007714
vn 0.338953 0.018190 0.940628
vn 0.338953 0.018190 0.940628
vn 0.338953 0.018190 0.940628
vn 0.338953 0.018190 0.940628
vn -0.338953 -0.018190 -0.940628
vn -0.338953 -0.018190 -0.940628
vn -0.338953 -0.018190 -0.940628
vn -0.338953 -0.018190 -0.940628
vn -0.940251 -0.027699 0.339352
vn -0.940251 -0.027699 0.339352
vn -0.940251 -0.027699 0.339352
vn -0.940251 -0.027699 0.339352
vn 0.940251 0.027699 -0.339352
vn 0.940251 0.027699 -0.339352
vn 0.940251 0.027699 -0.339352
vn 0.940251 0.027699 -0.339352
vn 0.032227 -0.999451 0.007714
vn 0.032227 -0.999451 0.007714
vn 0.032227 -0.999451 0.007714
vn 0.032227 -0.999451 0.007714
vn -0.032227 0.999451 -0.007714
vn -0.032227 0.999451 -0.007714
vn -0.032227 0.999451 -0.007714
vn -0.032227 0.999451 -0.007714
vn 0.338953 0.018190 0.940628
vn 0.338953 0.018190 0.940628
vn 0.338953 0.018190 0.940628
vn 0.338953 0.018190 0.940628
vn -0.338953 -0.018190 -0.940628
vn -0.338953 -0.018190 -0.940628
vn -0.338953 -0.018190 -0.940628
vn -0.338953 -0.018190 -0.940628

vt -0.222265 -0.027449
vt -0.217638 -0.027568
vt -0.218353 -0.055332
vt -0.222980 -0.055213
vt 0.218353 -0.055332
vt 0.217638 -0.027568
vt 0.222265 -0.027449
vt 0.222980 -0.055213
vt 0.214686 0.193951
vt 0.214647 0.197422
vt 0.219275 0.197474
vt 0.219314 0.194003
vt -0.219275 0.197474
vt -0.214647 0.197422
vt -0.214686 0.193951
vt -0.219314 0.194003
vt -0.133960 0.154240
vt -0.108513 0.165369
vt -0.107122 0.162188
vt -0.132569 0.151059
vt 0.107122 0.162188
vt 0.108513 0.165369
vt 0.133960 0.154240
vt 0.132569 0.151059
vt -0.220465 -0.027576
vt -0.215837 -0.027695
vt -0.216552 -0.055460
vt -0.221180 -0.055341
vt 0.216552 -0.055460
vt 0.215837 -0.027695
vt 0.220465 -0.027576
vt 0.221180 -0.055341
vt 0.212711 0.209146
vt 0.212672 0.212618
vt 0.217301 0.212670
vt 0.217340 0.209199
vt -0.217301 0.212670
vt -0.212672 0.212618
vt -0.212711 0.209146
vt -0.217340 0.209199
vt -0.140131 0.168150
vt -0.114685 0.179278
vt -0.113294 0.176097
vt -0.138740 0.164969
vt 0.113294 0.176097
vt 0.114685 0.179278
vt 0.140131 0.168150
vt 0.138740 0.164969
vt -0.183485 -0.028614
vt -0.178858 -0.028733
vt -0.179573 -0.056497
vt -0.184200 -0.056378
vt 0.179573 -0.056497
vt 0.178858 -0.028733
vt 0.183485 -0.028614
vt 0.184200 -0.056378
vt 0.175731 0.207719
vt 0.175692 0.211190
vt 0.180321 0.211242
vt 0.180360 0.207771
vt -0.180321 0.211242
vt -0.175692 0.211190
vt -0.175731 0.207719
vt -0.180360 0.207771
vt -0.139804 0.167189
vt -0.114357 0.178318
vt -0.112966 0.175137
vt -0.138413 0.164008
vt 0.112966 0.175137
vt 0.114357 0.178318
vt 0.139804 0.167189
vt 0.138413 0.164008
vt -0.184642 -0.028584
vt -0.180015 -0.028703
vt -0.180730 -0.056467
vt -0.185357 -0.056348
vt 0.180730 -0.056467
vt 0.180015 -0.028703
vt 0.184642 -0.028584
vt 0.185357 -0.056348
vt 0.177058 0.192689
vt 0.177019 0.196160
vt 0.181647 0.196213
vt 0.181687 0.192741
vt -0.181647 0.196213
vt -0.177019 0.196160
vt -0.177058 0.192689
vt -0.181687 0.192741
vt -0.133776 0.153406
vt -0.108330 0.164534
vt -0.106939 0.161353
vt -0.132385 0.150225
vt 0.106939 0.161353
vt 0.108330 0.164534
vt 0.133776 0.153406
vt 0.132385 0.150225
s off
f 1/1/1 2/2/2 3/3/3
f 1/1/1 3/3/3 4/4/4
f 5/5/5 6/6/6 7/7/7
f 5/5/5 7/7/7 8/8/8
f 9/9/9 10/10/10 11/11/11
f 9/9/9 11/11/11 12/12/12
f 13/13/13 14/14/14 15/15/15
f 13/13/13 15/15/15 16/16/16
f 17/17/17 18/18/18 19/19/19
f 17/17/17 19/19/19 20/20/20
f 21/21/21 22/22/22 23/23/23
f 21/21/21 23/23/23 24/24/24
f 25/25/25 26/26/26 27/27/27
f 25/25/25 27/27/27 28/28/28
f 29/29/29 30/30/30 31/31/31
f 29/29/29 31/31/31 32/32/32
f 33/33/33 34/34/34 35/35/35
f 33/33/33 35/35/35 36/36/36
f 37/37/37 38/38/38 39/39/39
f 37/37/37 39/39/39 40/40/40
f 41/41/41 42/42/42 43/43/43
f 41/41/41 43/43/43 44/44/44
f 45/45/45 46/46/46 47/47/47
f 45/45/45 47/47/47 48/48/48
f 49/49/49 50/50/50 51/51/51
f 49/49/49 51/51/51 52/52/52
f 53/53/53 54/54/54 55/55/55
f 53/53/53 55/55/55 56/56/56
f 57/57/57 58/58/58 59/59/59
f 57/57/57 59/59/59 60/60/60
f 61/61/61 62/62/62 63/63/63
f 61/61/61 63/63/63 64/64/64
f 65/65/65 66/66/66 67/67/67
f 65/65/65 67/67/67 68/68/68
f 69/69/69 70/70/70 71/71/71
f 69/69/69 71/71/71 72/72/72
f 73/73/73 74/74/74 75/75/75
f 73/73/73 75/75/75 76/76/76
f 77/77/77 78/78/78 79/79/79
f 77/77/77 79/79/79 80/80/80
f 81/81/81 82/82/82 83/83/83
f 81/81/81 83/83/83 84/84/84
f 85/85/85 86/86/86 87/87/87
f 85/85/85 87/87/87 88/88/88
f 89/89/89 90/90/90 91/91/91
f 89/89/89 91/91/91 92/92/92
f 93/93/93 94/94/94 95/95/95
f 93/93/93 95/95/95 96/96/96
