# Exported using automatic converter by Erwin Coumans
mtllib model6.mtl
#object group48881927_1

v 2.246271 -0.994376 -0.804701
v 2.303160 -0.993571 -1.109435
v 2.295445 -1.023633 -1.121128
v 2.231216 -1.024543 -0.777073
v 2.924548 -1.017874 -1.003669
v 2.853787 -0.978823 -0.681074
v 2.860319 -1.018784 -0.659614
v 2.295445 -1.023633 -1.121128
v 2.924548 -1.017874 -1.003669
v 2.860319 -1.018784 -0.659614
v 2.231216 -1.024543 -0.777073
v 2.853787 -0.978823 -0.681074
v 2.303160 -0.993571 -1.109435
v 2.246271 -0.994376 -0.804701
v 2.860319 -1.018784 -0.659614
v 2.853787 -0.978823 -0.681074
v 2.231216 -1.024543 -0.777073
v 2.904609 -0.988056 -1.007313
v 2.924548 -1.017874 -1.003669
v 2.295445 -1.023633 -1.121128
v 2.853787 -0.978823 -0.681074
v 2.246271 -0.994376 -0.804701
v 2.231216 -1.024543 -0.777073
v 2.295445 -1.023633 -1.121128
v 2.303160 -0.993571 -1.109435
v 2.904609 -0.988056 -1.007313
v 2.924548 -1.017874 -1.003669
v 2.904609 -0.988056 -1.007313
v 2.853787 -0.978823 -0.681074
v 2.853787 -0.978823 -0.681074
v 2.904609 -0.988056 -1.007313
v 2.303160 -0.993571 -1.109435
usemtl mat23

vn -0.935478 0.307677 -0.173826
vn -0.935478 0.307677 -0.173826
vn -0.935478 0.307677 -0.173826
vn -0.935478 0.307677 -0.173826
vn 0.951363 0.251256 0.178268
vn 0.951363 0.251256 0.178268
vn 0.951363 0.251256 0.178268
vn 0.009322 -0.999956 -0.000902
vn 0.009322 -0.999956 -0.000902
vn 0.009322 -0.999956 -0.000902
vn 0.009322 -0.999956 -0.000902
vn -0.025173 0.999681 -0.002058
vn -0.025173 0.999681 -0.002058
vn -0.025173 0.999681 -0.002058
vn -0.168308 0.444871 0.879637
vn -0.168308 0.444871 0.879637
vn -0.168308 0.444871 0.879637
vn 0.183513 0.002598 -0.983014
vn 0.183513 0.002598 -0.983014
vn 0.183513 0.002598 -0.983014
vn -0.158071 0.708651 0.687625
vn -0.158071 0.708651 0.687625
vn -0.158071 0.708651 0.687625
vn 0.155536 0.323151 -0.933478
vn 0.155536 0.323151 -0.933478
vn 0.155536 0.323151 -0.933478
vn 0.819700 0.561777 0.111798
vn 0.819700 0.561777 0.111798
vn 0.819700 0.561777 0.111798
vn -0.004250 0.999572 -0.028950
vn -0.004250 0.999572 -0.028950
vn -0.004250 0.999572 -0.028950

vt 0.015982 0.024208
vt 0.041281 0.042124
vt 0.043925 0.040121
vt 0.015362 0.019893
vt -0.129978 0.004095
vt -0.112199 -0.024011
vt -0.115079 -0.027576
vt 0.044753 0.194462
vt 0.076915 0.249793
vt 0.107175 0.232204
vt 0.075012 0.176873
vt -0.103662 0.231974
vt -0.044972 0.194232
vt -0.071829 0.178751
vt -0.182411 0.181896
vt -0.178217 0.183741
vt -0.144486 0.130343
vt 0.165222 0.198245
vt 0.168810 0.198602
vt 0.138757 0.142097
vt -0.170223 0.187070
vt -0.131832 0.138366
vt -0.134545 0.134954
vt 0.125715 0.160927
vt 0.122997 0.162828
vt 0.141566 0.220941
vt -0.173059 0.088899
vt -0.169530 0.088157
vt -0.176056 0.055778
vt -0.100678 0.234375
vt -0.071439 0.249740
vt -0.042313 0.196133
s off
f 1/1/1 2/2/2 3/3/3
f 1/1/1 3/3/3 4/4/4
f 5/5/5 6/6/6 7/7/7
f 8/8/8 9/9/9 10/10/10
f 8/8/8 10/10/10 11/11/11
f 12/12/12 13/13/13 14/14/14
f 15/15/15 16/16/16 17/17/17
f 18/18/18 19/19/19 20/20/20
f 21/21/21 22/22/22 23/23/23
f 24/24/24 25/25/25 26/26/26
f 27/27/27 28/28/28 29/29/29
f 30/30/30 31/31/31 32/32/32
