# Exported using automatic converter by Erwin Coumans
mtllib model6.mtl
#object mesh1688279338

v -2.670322 0.273979 1.250350
v -2.677674 -0.275868 1.250871
v -2.687201 -0.275790 1.250829
v -2.679849 0.274057 1.250308
v -2.687746 -0.275714 1.374679
v -2.678219 -0.275792 1.374721
v -2.670866 0.274055 1.374200
v -2.680393 0.274132 1.374158
v -2.687201 -0.275790 1.250829
v -2.687746 -0.275714 1.374679
v -2.680393 0.274132 1.374158
v -2.679849 0.274057 1.250308
v -2.670866 0.274055 1.374200
v -2.678219 -0.275792 1.374721
v -2.677674 -0.275868 1.250871
v -2.670322 0.273979 1.250350
v -2.680393 0.274132 1.374158
v -2.670866 0.274055 1.374200
v -2.670322 0.273979 1.250350
v -2.679849 0.274057 1.250308
v -2.677674 -0.275868 1.250871
v -2.678219 -0.275792 1.374721
v -2.687746 -0.275714 1.374679
v -2.687201 -0.275790 1.250829
v -2.669779 0.273903 1.126500
v -2.677131 -0.275943 1.127021
v -2.686658 -0.275866 1.126979
v -2.679306 0.273981 1.126459
v -2.687203 -0.275790 1.250829
v -2.677676 -0.275868 1.250871
v -2.670323 0.273979 1.250350
v -2.679850 0.274057 1.250308
v -2.686658 -0.275866 1.126979
v -2.687203 -0.275790 1.250829
v -2.679850 0.274057 1.250308
v -2.679306 0.273981 1.126459
v -2.670323 0.273979 1.250350
v -2.677676 -0.275868 1.250871
v -2.677131 -0.275943 1.127021
v -2.669779 0.273903 1.126500
v -2.679850 0.274057 1.250308
v -2.670323 0.273979 1.250350
v -2.669779 0.273903 1.126500
v -2.679306 0.273981 1.126459
v -2.677131 -0.275943 1.127021
v -2.677676 -0.275868 1.250871
v -2.687203 -0.275790 1.250829
v -2.686658 -0.275866 1.126979
v -2.668187 0.273683 0.764478
v -2.675539 -0.276164 0.764999
v -2.685066 -0.276087 0.764957
v -2.677714 0.273760 0.764436
v -2.685611 -0.276011 0.888807
v -2.676084 -0.276089 0.888849
v -2.668731 0.273758 0.888328
v -2.678258 0.273836 0.888286
v -2.685066 -0.276087 0.764957
v -2.685611 -0.276011 0.888807
v -2.678258 0.273836 0.888286
v -2.677714 0.273760 0.764436
v -2.668731 0.273758 0.888328
v -2.676084 -0.276089 0.888849
v -2.675539 -0.276164 0.764999
v -2.668187 0.273683 0.764478
v -2.678258 0.273836 0.888286
v -2.668731 0.273758 0.888328
v -2.668187 0.273683 0.764478
v -2.677714 0.273760 0.764436
v -2.675539 -0.276164 0.764999
v -2.676084 -0.276089 0.888849
v -2.685611 -0.276011 0.888807
v -2.685066 -0.276087 0.764957
v -2.659165 0.273675 0.891997
v -2.666517 -0.276172 0.879363
v -2.685570 -0.276017 0.879279
v -2.686115 -0.275942 1.003129
v -2.676588 -0.276019 1.003171
v -2.669235 0.273828 1.015805
v -2.685570 -0.276017 0.879279
v -2.686115 -0.275942 1.003129
v -2.678762 0.273905 1.002608
v -2.678218 0.273829 0.878758
v -2.669235 0.273828 1.015805
v -2.676588 -0.276019 1.003171
v -2.666517 -0.276172 0.879363
v -2.659165 0.273675 0.891997
v -2.678762 0.273905 1.002608
v -2.669235 0.273828 1.015805
v -2.659165 0.273675 0.891997
v -2.666517 -0.276172 0.879363
v -2.676588 -0.276019 1.003171
v -2.686115 -0.275942 1.003129
v -2.685570 -0.276017 0.879279
v -2.685570 -0.276017 0.879279
v -2.678218 0.273829 0.878758
v -2.659165 0.273675 0.891997
v -2.659165 0.273675 0.891997
v -2.678218 0.273829 0.878758
v -2.678762 0.273905 1.002608
v -2.669235 0.273828 1.015805
v -2.678762 0.273905 1.002608
v -2.686115 -0.275942 1.003129
v -2.667644 0.273606 0.640626
v -2.674996 -0.276241 0.641147
v -2.684523 -0.276163 0.641105
v -2.677171 0.273683 0.640584
v -2.685068 -0.276088 0.764955
v -2.675541 -0.276165 0.764997
v -2.668188 0.273682 0.764476
v -2.677715 0.273759 0.764433
v -2.684523 -0.276163 0.641105
v -2.685068 -0.276088 0.764955
v -2.677715 0.273759 0.764433
v -2.677171 0.273683 0.640584
v -2.668188 0.273682 0.764476
v -2.675541 -0.276165 0.764997
v -2.674996 -0.276241 0.641147
v -2.667644 0.273606 0.640626
v -2.677715 0.273759 0.764433
v -2.668188 0.273682 0.764476
v -2.667644 0.273606 0.640626
v -2.677171 0.273683 0.640584
v -2.674996 -0.276241 0.641147
v -2.675541 -0.276165 0.764997
v -2.685068 -0.276088 0.764955
v -2.684523 -0.276163 0.641105
v -2.670826 0.274049 1.364671
v -2.678179 -0.275797 1.365192
v -2.687706 -0.275720 1.365150
v -2.680353 0.274127 1.364629
v -2.688250 -0.275644 1.489000
v -2.678723 -0.275721 1.489042
v -2.671371 0.274125 1.488521
v -2.680897 0.274203 1.488479
v -2.687706 -0.275720 1.365150
v -2.688250 -0.275644 1.489000
v -2.680897 0.274203 1.488479
v -2.680353 0.274127 1.364629
v -2.671371 0.274125 1.488521
v -2.678723 -0.275721 1.489042
v -2.678179 -0.275797 1.365192
v -2.670826 0.274049 1.364671
v -2.680897 0.274203 1.488479
v -2.671371 0.274125 1.488521
v -2.670826 0.274049 1.364671
v -2.680353 0.274127 1.364629
v -2.678179 -0.275797 1.365192
v -2.678723 -0.275721 1.489042
v -2.688250 -0.275644 1.489000
v -2.687706 -0.275720 1.365150
v -2.674714 0.281043 0.997204
v -2.699502 -0.268514 0.989706
v -2.684239 0.281204 0.997143
v -2.700321 -0.269518 1.113550
v -2.675533 0.280039 1.134203
v -2.685059 0.280200 1.120986
v -2.699502 -0.268514 0.989706
v -2.700321 -0.269518 1.113550
v -2.685059 0.280200 1.120986
v -2.684239 0.281204 0.997143
v -2.675533 0.280039 1.134203
v -2.681388 -0.279277 1.123186
v -2.680569 -0.278273 0.999342
v -2.685059 0.280200 1.120986
v -2.675533 0.280039 1.134203
v -2.684239 0.281204 0.997143
v -2.680569 -0.278273 0.999342
v -2.681388 -0.279277 1.123186
v -2.700321 -0.269518 1.113550
v -2.699502 -0.268514 0.989706
v -2.674714 0.281043 0.997204
v -2.680569 -0.278273 0.999342
v -2.699502 -0.268514 0.989706
v -2.700321 -0.269518 1.113550
v -2.681388 -0.279277 1.123186
v -2.675533 0.280039 1.134203
v -2.680569 -0.278273 0.999342
v -2.674714 0.281043 0.997204
v -2.675533 0.280039 1.134203
v -2.675533 0.280039 1.134203
v -2.674714 0.281043 0.997204
v -2.684239 0.281204 0.997143
usemtl mat24

vn 0.004392 -0.001006 -0.999990
vn 0.004392 -0.001006 -0.999990
vn 0.004392 -0.001006 -0.999990
vn 0.004392 -0.001006 -0.999990
vn -0.004403 0.001007 0.999990
vn -0.004403 0.001007 0.999990
vn -0.004403 0.001007 0.999990
vn -0.004403 0.001007 0.999990
vn -0.999901 0.013366 -0.004402
vn -0.999901 0.013366 -0.004402
vn -0.999901 0.013366 -0.004402
vn -0.999901 0.013366 -0.004402
vn 0.999901 -0.013366 0.004403
vn 0.999901 -0.013366 0.004403
vn 0.999901 -0.013366 0.004403
vn 0.999901 -0.013366 0.004403
vn 0.008124 0.999967 -0.000576
vn 0.008124 0.999967 -0.000576
vn 0.008124 0.999967 -0.000576
vn 0.008124 0.999967 -0.000576
vn -0.008124 -0.999967 0.000576
vn -0.008124 -0.999967 0.000576
vn -0.008124 -0.999967 0.000576
vn -0.008124 -0.999967 0.000576
vn 0.004392 -0.001006 -0.999990
vn 0.004392 -0.001006 -0.999990
vn 0.004392 -0.001006 -0.999990
vn 0.004392 -0.001006 -0.999990
vn -0.004403 0.001007 0.999990
vn -0.004403 0.001007 0.999990
vn -0.004403 0.001007 0.999990
vn -0.004403 0.001007 0.999990
vn -0.999901 0.013366 -0.004402
vn -0.999901 0.013366 -0.004402
vn -0.999901 0.013366 -0.004402
vn -0.999901 0.013366 -0.004402
vn 0.999901 -0.013366 0.004403
vn 0.999901 -0.013366 0.004403
vn 0.999901 -0.013366 0.004403
vn 0.999901 -0.013366 0.004403
vn 0.008124 0.999967 -0.000576
vn 0.008124 0.999967 -0.000576
vn 0.008124 0.999967 -0.000576
vn 0.008124 0.999967 -0.000576
vn -0.008124 -0.999967 0.000576
vn -0.008124 -0.999967 0.000576
vn -0.008124 -0.999967 0.000576
vn -0.008124 -0.999967 0.000576
vn 0.004391 -0.001007 -0.999990
vn 0.004391 -0.001007 -0.999990
vn 0.004391 -0.001007 -0.999990
vn 0.004391 -0.001007 -0.999990
vn -0.004403 0.001007 0.999990
vn -0.004403 0.001007 0.999990
vn -0.004403 0.001007 0.999990
vn -0.004403 0.001007 0.999990
vn -0.999901 0.013366 -0.004402
vn -0.999901 0.013366 -0.004402
vn -0.999901 0.013366 -0.004402
vn -0.999901 0.013366 -0.004402
vn 0.999901 -0.013366 0.004403
vn 0.999901 -0.013366 0.004403
vn 0.999901 -0.013366 0.004403
vn 0.999901 -0.013366 0.004403
vn 0.008124 0.999967 -0.000576
vn 0.008124 0.999967 -0.000576
vn 0.008124 0.999967 -0.000576
vn 0.008124 0.999967 -0.000576
vn -0.008124 -0.999967 0.000576
vn -0.008124 -0.999967 0.000576
vn -0.008124 -0.999967 0.000576
vn -0.008124 -0.999967 0.000576
vn 0.004585 0.022909 -0.999727
vn 0.004585 0.022909 -0.999727
vn 0.004585 0.022909 -0.999727
vn -0.004585 -0.022909 0.999727
vn -0.004585 -0.022909 0.999727
vn -0.004585 -0.022909 0.999727
vn -0.999901 0.013366 -0.004402
vn -0.999901 0.013366 -0.004402
vn -0.999901 0.013366 -0.004402
vn -0.999901 0.013366 -0.004402
vn 0.996592 -0.015189 0.081084
vn 0.996592 -0.015189 0.081084
vn 0.996592 -0.015189 0.081084
vn 0.996592 -0.015189 0.081084
vn 0.008840 0.999961 -0.000518
vn 0.008840 0.999961 -0.000518
vn 0.008840 0.999961 -0.000518
vn -0.008124 -0.999967 0.000576
vn -0.008124 -0.999967 0.000576
vn -0.008124 -0.999967 0.000576
vn -0.008124 -0.999967 0.000576
vn 0.570541 -0.008408 -0.821226
vn 0.570541 -0.008408 -0.821226
vn 0.570541 -0.008408 -0.821226
vn 0.008521 0.999964 -0.000574
vn 0.008521 0.999964 -0.000574
vn 0.008521 0.999964 -0.000574
vn -0.810716 0.011396 0.585329
vn -0.810716 0.011396 0.585329
vn -0.810716 0.011396 0.585329
vn 0.004391 -0.001007 -0.999990
vn 0.004391 -0.001007 -0.999990
vn 0.004391 -0.001007 -0.999990
vn 0.004391 -0.001007 -0.999990
vn -0.004403 0.001007 0.999990
vn -0.004403 0.001007 0.999990
vn -0.004403 0.001007 0.999990
vn -0.004403 0.001007 0.999990
vn -0.999901 0.013366 -0.004402
vn -0.999901 0.013366 -0.004402
vn -0.999901 0.013366 -0.004402
vn -0.999901 0.013366 -0.004402
vn 0.999901 -0.013366 0.004403
vn 0.999901 -0.013366 0.004403
vn 0.999901 -0.013366 0.004403
vn 0.999901 -0.013366 0.004403
vn 0.008124 0.999967 -0.000576
vn 0.008124 0.999967 -0.000576
vn 0.008124 0.999967 -0.000576
vn 0.008124 0.999967 -0.000576
vn -0.008124 -0.999967 0.000576
vn -0.008124 -0.999967 0.000576
vn -0.008124 -0.999967 0.000576
vn -0.008124 -0.999967 0.000576
vn 0.004392 -0.001006 -0.999990
vn 0.004392 -0.001006 -0.999990
vn 0.004392 -0.001006 -0.999990
vn 0.004392 -0.001006 -0.999990
vn -0.004403 0.001007 0.999990
vn -0.004403 0.001007 0.999990
vn -0.004403 0.001007 0.999990
vn -0.004403 0.001007 0.999990
vn -0.999901 0.013366 -0.004402
vn -0.999901 0.013366 -0.004402
vn -0.999901 0.013366 -0.004402
vn -0.999901 0.013366 -0.004402
vn 0.999901 -0.013366 0.004403
vn 0.999901 -0.013366 0.004403
vn 0.999901 -0.013366 0.004403
vn 0.999901 -0.013366 0.004403
vn 0.008124 0.999967 -0.000576
vn 0.008124 0.999967 -0.000576
vn 0.008124 0.999967 -0.000576
vn 0.008124 0.999967 -0.000576
vn -0.008124 -0.999967 0.000576
vn -0.008124 -0.999967 0.000576
vn -0.008124 -0.999967 0.000576
vn -0.008124 -0.999967 0.000576
vn 0.006679 0.013341 -0.999889
vn 0.006679 0.013341 -0.999889
vn 0.006679 0.013341 -0.999889
vn -0.811087 0.014609 0.584743
vn -0.811087 0.014609 0.584743
vn -0.811087 0.014609 0.584743
vn -0.999592 0.027839 -0.006389
vn -0.999592 0.027839 -0.006389
vn -0.999592 0.027839 -0.006389
vn -0.999592 0.027839 -0.006389
vn 0.999923 -0.010596 0.006529
vn 0.999923 -0.010596 0.006529
vn 0.999923 -0.010596 0.006529
vn 0.005621 0.999951 0.008143
vn 0.005621 0.999951 0.008143
vn 0.005621 0.999951 0.008143
vn -0.454044 -0.890921 -0.010226
vn -0.454044 -0.890921 -0.010226
vn -0.454044 -0.890921 -0.010226
vn -0.454044 -0.890921 -0.010226
vn 0.450243 -0.008127 -0.892869
vn 0.450243 -0.008127 -0.892869
vn 0.450243 -0.008127 -0.892869
vn -0.458742 -0.012698 0.888479
vn -0.458742 -0.012698 0.888479
vn -0.458742 -0.012698 0.888479
vn 0.999928 -0.010446 0.005905
vn 0.999928 -0.010446 0.005905
vn 0.999928 -0.010446 0.005905
vn 0.016874 0.999830 0.007427
vn 0.016874 0.999830 0.007427
vn 0.016874 0.999830 0.007427

vt -0.200645 -0.231558
vt -0.151817 -0.256851
vt -0.152251 -0.257699
vt -0.201079 -0.232406
vt 0.152246 -0.257699
vt 0.151812 -0.256850
vt 0.200640 -0.231558
vt 0.201074 -0.232406
vt -0.185834 -0.110246
vt -0.195964 -0.117371
vt -0.227584 -0.072382
vt -0.217454 -0.065256
vt 0.227587 -0.072379
vt 0.195966 -0.117368
vt 0.185837 -0.110242
vt 0.217457 -0.065253
vt -0.112183 -0.358311
vt -0.112509 -0.357416
vt -0.100868 -0.353187
vt -0.100543 -0.354082
vt 0.100790 -0.353465
vt 0.112431 -0.357694
vt 0.112105 -0.358590
vt 0.100465 -0.354361
vt -0.200649 -0.231556
vt -0.151822 -0.256849
vt -0.152255 -0.257697
vt -0.201083 -0.232404
vt 0.152250 -0.257697
vt 0.151817 -0.256848
vt 0.200644 -0.231556
vt 0.201078 -0.232404
vt -0.175704 -0.103120
vt -0.185834 -0.110246
vt -0.217454 -0.065256
vt -0.207324 -0.058131
vt 0.217457 -0.065253
vt 0.185837 -0.110242
vt 0.175707 -0.103116
vt 0.207327 -0.058127
vt -0.100543 -0.354082
vt -0.100868 -0.353187
vt -0.089227 -0.348958
vt -0.088902 -0.349853
vt 0.089149 -0.349236
vt 0.100790 -0.353465
vt 0.100465 -0.354361
vt 0.088824 -0.350132
vt -0.200662 -0.231550
vt -0.151834 -0.256842
vt -0.152268 -0.257690
vt -0.201096 -0.232398
vt 0.152263 -0.257690
vt 0.151829 -0.256842
vt 0.200657 -0.231550
vt 0.201091 -0.232398
vt -0.146093 -0.082291
vt -0.156223 -0.089417
vt -0.187843 -0.044427
vt -0.177713 -0.037302
vt 0.187846 -0.044424
vt 0.156226 -0.089413
vt 0.146096 -0.082287
vt 0.177717 -0.037298
vt -0.066516 -0.341721
vt -0.066841 -0.340825
vt -0.055201 -0.336596
vt -0.054875 -0.337492
vt 0.055122 -0.336875
vt 0.066763 -0.341104
vt 0.066438 -0.341999
vt 0.054797 -0.337770
vt -0.202414 -0.230181
vt -0.153400 -0.255141
vt -0.154255 -0.256844
vt 0.154516 -0.256713
vt 0.154088 -0.255861
vt 0.203102 -0.230901
vt -0.155444 -0.088868
vt -0.165574 -0.095994
vt -0.197194 -0.051005
vt -0.187064 -0.043879
vt 0.209518 -0.084060
vt 0.173007 -0.125199
vt 0.163529 -0.117170
vt 0.200040 -0.076031
vt -0.077190 -0.345683
vt -0.078754 -0.345232
vt -0.067439 -0.340106
vt 0.066193 -0.339883
vt 0.077508 -0.345007
vt 0.077183 -0.345903
vt 0.065542 -0.341674
vt -0.106040 -0.100428
vt -0.148164 -0.065081
vt -0.146680 -0.063298
vt -0.067477 -0.340080
vt -0.065588 -0.341427
vt -0.077229 -0.345657
vt 0.053052 0.052271
vt 0.054465 0.051463
vt 0.027276 0.003665
vt -0.200666 -0.231548
vt -0.151839 -0.256840
vt -0.152272 -0.257688
vt -0.201100 -0.232396
vt 0.152268 -0.257688
vt 0.151834 -0.256840
vt 0.200662 -0.231548
vt 0.201095 -0.232396
vt -0.135963 -0.075165
vt -0.146093 -0.082291
vt -0.177713 -0.037302
vt -0.167583 -0.030176
vt 0.177716 -0.037298
vt 0.146096 -0.082287
vt 0.135966 -0.075161
vt 0.167586 -0.030172
vt -0.054875 -0.337492
vt -0.055200 -0.336596
vt -0.043559 -0.332367
vt -0.043234 -0.333263
vt 0.043481 -0.332646
vt 0.055122 -0.336875
vt 0.054797 -0.337770
vt 0.043156 -0.333541
vt -0.200641 -0.231560
vt -0.151813 -0.256853
vt -0.152247 -0.257701
vt -0.201075 -0.232409
vt 0.152242 -0.257701
vt 0.151808 -0.256852
vt 0.200636 -0.231560
vt 0.201070 -0.232408
vt -0.195184 -0.116823
vt -0.205314 -0.123949
vt -0.236934 -0.078960
vt -0.226804 -0.071834
vt 0.236937 -0.078956
vt 0.205317 -0.123945
vt 0.195187 -0.116819
vt 0.226807 -0.071830
vt -0.122929 -0.362215
vt -0.123254 -0.361319
vt -0.111613 -0.357090
vt -0.111288 -0.357986
vt 0.111535 -0.357369
vt 0.123176 -0.361598
vt 0.122850 -0.362493
vt 0.111210 -0.358264
vt -0.202894 -0.230901
vt -0.154767 -0.257559
vt -0.203332 -0.231747
vt 0.019698 0.007405
vt 0.044318 0.056643
vt 0.045740 0.055847
vt -0.163895 -0.096838
vt -0.174036 -0.103948
vt -0.205843 -0.059080
vt -0.195702 -0.051971
vt 0.208994 -0.058870
vt 0.175648 -0.103791
vt 0.165619 -0.096525
vt -0.086409 -0.350123
vt -0.087977 -0.349677
vt -0.074793 -0.345827
vt 0.033312 -0.333212
vt 0.044143 -0.339219
vt 0.042270 -0.340619
vt 0.031439 -0.334611
vt -0.164095 -0.107036
vt -0.118332 -0.139199
vt -0.120343 -0.140392
vt 0.119392 -0.131002
vt 0.117394 -0.129789
vt 0.163154 -0.097604
vt 0.165558 -0.096270
vt 0.197802 -0.050564
vt 0.208908 -0.058586
vt -0.087207 -0.350618
vt -0.074361 -0.345856
vt -0.074029 -0.346749
s off
f 1/1/1 2/2/2 3/3/3
f 1/1/1 3/3/3 4/4/4
f 5/5/5 6/6/6 7/7/7
f 5/5/5 7/7/7 8/8/8
f 9/9/9 10/10/10 11/11/11
f 9/9/9 11/11/11 12/12/12
f 13/13/13 14/14/14 15/15/15
f 13/13/13 15/15/15 16/16/16
f 17/17/17 18/18/18 19/19/19
f 17/17/17 19/19/19 20/20/20
f 21/21/21 22/22/22 23/23/23
f 21/21/21 23/23/23 24/24/24
f 25/25/25 26/26/26 27/27/27
f 25/25/25 27/27/27 28/28/28
f 29/29/29 30/30/30 31/31/31
f 29/29/29 31/31/31 32/32/32
f 33/33/33 34/34/34 35/35/35
f 33/33/33 35/35/35 36/36/36
f 37/37/37 38/38/38 39/39/39
f 37/37/37 39/39/39 40/40/40
f 41/41/41 42/42/42 43/43/43
f 41/41/41 43/43/43 44/44/44
f 45/45/45 46/46/46 47/47/47
f 45/45/45 47/47/47 48/48/48
f 49/49/49 50/50/50 51/51/51
f 49/49/49 51/51/51 52/52/52
f 53/53/53 54/54/54 55/55/55
f 53/53/53 55/55/55 56/56/56
f 57/57/57 58/58/58 59/59/59
f 57/57/57 59/59/59 60/60/60
f 61/61/61 62/62/62 63/63/63
f 61/61/61 63/63/63 64/64/64
f 65/65/65 66/66/66 67/67/67
f 65/65/65 67/67/67 68/68/68
f 69/69/69 70/70/70 71/71/71
f 69/69/69 71/71/71 72/72/72
f 73/73/73 74/74/74 75/75/75
f 76/76/76 77/77/77 78/78/78
f 79/79/79 80/80/80 81/81/81
f 79/79/79 81/81/81 82/82/82
f 83/83/83 84/84/84 85/85/85
f 83/83/83 85/85/85 86/86/86
f 87/87/87 88/88/88 89/89/89
f 90/90/90 91/91/91 92/92/92
f 90/90/90 92/92/92 93/93/93
f 94/94/94 95/95/95 96/96/96
f 97/97/97 98/98/98 99/99/99
f 100/100/100 101/101/101 102/102/102
f 103/103/103 104/104/104 105/105/105
f 103/103/103 105/105/105 106/106/106
f 107/107/107 108/108/108 109/109/109
f 107/107/107 109/109/109 110/110/110
f 111/111/111 112/112/112 113/113/113
f 111/111/111 113/113/113 114/114/114
f 115/115/115 116/116/116 117/117/117
f 115/115/115 117/117/117 118/118/118
f 119/119/119 120/120/120 121/121/121
f 119/119/119 121/121/121 122/122/122
f 123/123/123 124/124/124 125/125/125
f 123/123/123 125/125/125 126/126/126
f 127/127/127 128/128/128 129/129/129
f 127/127/127 129/129/129 130/130/130
f 131/131/131 132/132/132 133/133/133
f 131/131/131 133/133/133 134/134/134
f 135/135/135 136/136/136 137/137/137
f 135/135/135 137/137/137 138/138/138
f 139/139/139 140/140/140 141/141/141
f 139/139/139 141/141/141 142/142/142
f 143/143/143 144/144/144 145/145/145
f 143/143/143 145/145/145 146/146/146
f 147/147/147 148/148/148 149/149/149
f 147/147/147 149/149/149 150/150/150
f 151/151/151 152/152/152 153/153/153
f 154/154/154 155/155/155 156/156/156
f 157/157/157 158/158/158 159/159/159
f 157/157/157 159/159/159 160/160/160
f 161/161/161 162/162/162 163/163/163
f 164/164/164 165/165/165 166/166/166
f 167/167/167 168/168/168 169/169/169
f 167/167/167 169/169/169 170/170/170
f 171/171/171 172/172/172 173/173/173
f 174/174/174 175/175/175 176/176/176
f 177/177/177 178/178/178 179/179/179
f 180/180/180 181/181/181 182/182/182
