# Exported using automatic converter by Erwin Coumans
mtllib botlab.mtl
#object mesh1684923180

v -2.302036 -0.134737 -2.039008
v -2.557525 -0.136925 -2.038629
v -2.550190 -0.994050 -2.040255
v -2.294700 -0.991863 -2.040634
v -2.550239 -0.993988 -2.073222
v -2.557575 -0.136862 -2.071597
v -2.302085 -0.134675 -2.071976
v -2.294750 -0.991801 -2.073601
v -2.550190 -0.994050 -2.040255
v -2.550239 -0.993988 -2.073222
v -2.294750 -0.991801 -2.073601
v -2.294700 -0.991863 -2.040634
v -2.302085 -0.134675 -2.071976
v -2.557575 -0.136862 -2.071597
v -2.557525 -0.136925 -2.038629
v -2.302036 -0.134737 -2.039008
v -2.294750 -0.991801 -2.073601
v -2.302085 -0.134675 -2.071976
v -2.302036 -0.134737 -2.039008
v -2.294700 -0.991863 -2.040634
v -2.557525 -0.136925 -2.038629
v -2.557575 -0.136862 -2.071597
v -2.550239 -0.993988 -2.073222
v -2.550190 -0.994050 -2.040255
v -2.295508 -0.999002 -2.625824
v -2.550997 -1.001189 -2.625445
v -2.558333 -0.144064 -2.623820
v -2.302843 -0.141877 -2.624199
v -2.558283 -0.144126 -2.590852
v -2.550948 -1.001251 -2.592478
v -2.295459 -0.999064 -2.592857
v -2.302794 -0.141939 -2.591231
v -2.558333 -0.144064 -2.623820
v -2.558283 -0.144126 -2.590852
v -2.302794 -0.141939 -2.591231
v -2.302843 -0.141877 -2.624199
v -2.295459 -0.999064 -2.592857
v -2.550948 -1.001251 -2.592478
v -2.550997 -1.001189 -2.625445
v -2.295508 -0.999002 -2.625824
v -2.302794 -0.141939 -2.591231
v -2.295459 -0.999064 -2.592857
v -2.295508 -0.999002 -2.625824
v -2.302843 -0.141877 -2.624199
v -2.550997 -1.001189 -2.625445
v -2.550948 -1.001251 -2.592478
v -2.558283 -0.144126 -2.590852
v -2.558333 -0.144064 -2.623820
v -2.294909 -1.016060 -2.320905
v -2.550399 -1.018247 -2.320526
v -2.557734 -0.161121 -2.318901
v -2.302244 -0.158934 -2.319280
v -2.557684 -0.161183 -2.285933
v -2.550349 -1.018309 -2.287559
v -2.294860 -1.016122 -2.287938
v -2.302195 -0.158996 -2.286312
v -2.557734 -0.161121 -2.318901
v -2.557684 -0.161183 -2.285933
v -2.302195 -0.158996 -2.286312
v -2.302244 -0.158934 -2.319280
v -2.294860 -1.016122 -2.287938
v -2.550349 -1.018309 -2.287559
v -2.550399 -1.018247 -2.320526
v -2.294909 -1.016060 -2.320905
v -2.302195 -0.158996 -2.286312
v -2.294860 -1.016122 -2.287938
v -2.294909 -1.016060 -2.320905
v -2.302244 -0.158934 -2.319280
v -2.550399 -1.018247 -2.320526
v -2.550349 -1.018309 -2.287559
v -2.557684 -0.161183 -2.285933
v -2.557734 -0.161121 -2.318901
v -2.303285 -0.133169 -2.871440
v -2.558774 -0.135356 -2.871061
v -2.551439 -0.992482 -2.872687
v -2.295949 -0.990295 -2.873066
v -2.551488 -0.992420 -2.905654
v -2.558824 -0.135294 -2.904028
v -2.303334 -0.133107 -2.904408
v -2.295999 -0.990233 -2.906034
v -2.551439 -0.992482 -2.872687
v -2.551488 -0.992420 -2.905654
v -2.295999 -0.990233 -2.906034
v -2.295949 -0.990295 -2.873066
v -2.303334 -0.133107 -2.904408
v -2.558824 -0.135294 -2.904028
v -2.558774 -0.135356 -2.871061
v -2.303285 -0.133169 -2.871440
v -2.295999 -0.990233 -2.906034
v -2.303334 -0.133107 -2.904408
v -2.303285 -0.133169 -2.871440
v -2.295949 -0.990295 -2.873066
v -2.558774 -0.135356 -2.871061
v -2.558824 -0.135294 -2.904028
v -2.551488 -0.992420 -2.905654
v -2.551439 -0.992482 -2.872687
v -2.297065 -0.719844 -2.064845
v -2.552555 -0.722031 -2.064466
v -2.553840 -0.720416 -2.921622
v -2.298351 -0.718229 -2.922001
v -2.554122 -0.687450 -2.921559
v -2.552837 -0.689065 -2.064403
v -2.297347 -0.686877 -2.064782
v -2.298633 -0.685262 -2.921938
v -2.553840 -0.720416 -2.921622
v -2.554122 -0.687450 -2.921559
v -2.298633 -0.685262 -2.921938
v -2.298351 -0.718229 -2.922001
v -2.297347 -0.686877 -2.064782
v -2.552837 -0.689065 -2.064403
v -2.552555 -0.722031 -2.064466
v -2.297065 -0.719844 -2.064845
v -2.298633 -0.685262 -2.921938
v -2.297347 -0.686877 -2.064782
v -2.297065 -0.719844 -2.064845
v -2.298351 -0.718229 -2.922001
v -2.552555 -0.722031 -2.064466
v -2.552837 -0.689065 -2.064403
v -2.554122 -0.687450 -2.921559
v -2.553840 -0.720416 -2.921622
v -2.315804 -0.456254 -2.064320
v -2.571294 -0.458441 -2.063941
v -2.572579 -0.456826 -2.921097
v -2.317090 -0.454639 -2.921476
v -2.572861 -0.423860 -2.921034
v -2.571576 -0.425475 -2.063878
v -2.316086 -0.423288 -2.064257
v -2.317372 -0.421673 -2.921413
v -2.572579 -0.456826 -2.921097
v -2.572861 -0.423860 -2.921034
v -2.317372 -0.421673 -2.921413
v -2.317090 -0.454639 -2.921476
v -2.316086 -0.423288 -2.064257
v -2.571576 -0.425475 -2.063878
v -2.571294 -0.458441 -2.063941
v -2.315804 -0.456254 -2.064320
v -2.317372 -0.421673 -2.921413
v -2.316086 -0.423288 -2.064257
v -2.315804 -0.456254 -2.064320
v -2.317090 -0.454639 -2.921476
v -2.571294 -0.458441 -2.063941
v -2.571576 -0.425475 -2.063878
v -2.572861 -0.423860 -2.921034
v -2.572579 -0.456826 -2.921097
v -2.301696 -0.175930 -2.047329
v -2.557185 -0.178117 -2.046950
v -2.558471 -0.176502 -2.904106
v -2.302981 -0.174315 -2.904485
v -2.558753 -0.143536 -2.904043
v -2.557467 -0.145151 -2.046887
v -2.301978 -0.142964 -2.047266
v -2.303263 -0.141348 -2.904422
v -2.558471 -0.176502 -2.904106
v -2.558753 -0.143536 -2.904043
v -2.303263 -0.141348 -2.904422
v -2.302981 -0.174315 -2.904485
v -2.301978 -0.142964 -2.047266
v -2.557467 -0.145151 -2.046887
v -2.557185 -0.178117 -2.046950
v -2.301696 -0.175930 -2.047329
v -2.303263 -0.141348 -2.904422
v -2.301978 -0.142964 -2.047266
v -2.301696 -0.175930 -2.047329
v -2.302981 -0.174315 -2.904485
v -2.557185 -0.178117 -2.046950
v -2.557467 -0.145151 -2.046887
v -2.558753 -0.143536 -2.904043
v -2.558471 -0.176502 -2.904106
usemtl mat21

vn 0.001500 -0.001884 0.999997
vn 0.001500 -0.001884 0.999997
vn 0.001500 -0.001884 0.999997
vn 0.001500 -0.001884 0.999997
vn -0.001500 0.001884 -0.999997
vn -0.001500 0.001884 -0.999997
vn -0.001500 0.001884 -0.999997
vn -0.001500 0.001884 -0.999997
vn 0.008558 -0.999962 -0.001897
vn 0.008558 -0.999962 -0.001897
vn 0.008558 -0.999962 -0.001897
vn 0.008558 -0.999962 -0.001897
vn -0.008558 0.999962 0.001897
vn -0.008558 0.999962 0.001897
vn -0.008558 0.999962 0.001897
vn -0.008558 0.999962 0.001897
vn 0.999962 0.008561 -0.001484
vn 0.999962 0.008561 -0.001484
vn 0.999962 0.008561 -0.001484
vn 0.999962 0.008561 -0.001484
vn -0.999962 -0.008561 0.001484
vn -0.999962 -0.008561 0.001484
vn -0.999962 -0.008561 0.001484
vn -0.999962 -0.008561 0.001484
vn -0.001500 0.001884 -0.999997
vn -0.001500 0.001884 -0.999997
vn -0.001500 0.001884 -0.999997
vn -0.001500 0.001884 -0.999997
vn 0.001500 -0.001884 0.999997
vn 0.001500 -0.001884 0.999997
vn 0.001500 -0.001884 0.999997
vn 0.001500 -0.001884 0.999997
vn -0.008557 0.999962 0.001897
vn -0.008557 0.999962 0.001897
vn -0.008557 0.999962 0.001897
vn -0.008557 0.999962 0.001897
vn 0.008557 -0.999962 -0.001897
vn 0.008557 -0.999962 -0.001897
vn 0.008557 -0.999962 -0.001897
vn 0.008557 -0.999962 -0.001897
vn 0.999962 0.008560 -0.001484
vn 0.999962 0.008560 -0.001484
vn 0.999962 0.008560 -0.001484
vn 0.999962 0.008560 -0.001484
vn -0.999962 -0.008560 0.001484
vn -0.999962 -0.008560 0.001484
vn -0.999962 -0.008560 0.001484
vn -0.999962 -0.008560 0.001484
vn -0.001500 0.001884 -0.999997
vn -0.001500 0.001884 -0.999997
vn -0.001500 0.001884 -0.999997
vn -0.001500 0.001884 -0.999997
vn 0.001500 -0.001884 0.999997
vn 0.001500 -0.001884 0.999997
vn 0.001500 -0.001884 0.999997
vn 0.001500 -0.001884 0.999997
vn -0.008557 0.999962 0.001897
vn -0.008557 0.999962 0.001897
vn -0.008557 0.999962 0.001897
vn -0.008557 0.999962 0.001897
vn 0.008557 -0.999962 -0.001897
vn 0.008557 -0.999962 -0.001897
vn 0.008557 -0.999962 -0.001897
vn 0.008557 -0.999962 -0.001897
vn 0.999962 0.008560 -0.001484
vn 0.999962 0.008560 -0.001484
vn 0.999962 0.008560 -0.001484
vn 0.999962 0.008560 -0.001484
vn -0.999962 -0.008560 0.001484
vn -0.999962 -0.008560 0.001484
vn -0.999962 -0.008560 0.001484
vn -0.999962 -0.008560 0.001484
vn 0.001500 -0.001884 0.999997
vn 0.001500 -0.001884 0.999997
vn 0.001500 -0.001884 0.999997
vn 0.001500 -0.001884 0.999997
vn -0.001500 0.001884 -0.999997
vn -0.001500 0.001884 -0.999997
vn -0.001500 0.001884 -0.999997
vn -0.001500 0.001884 -0.999997
vn 0.008558 -0.999962 -0.001897
vn 0.008558 -0.999962 -0.001897
vn 0.008558 -0.999962 -0.001897
vn 0.008558 -0.999962 -0.001897
vn -0.008558 0.999962 0.001897
vn -0.008558 0.999962 0.001897
vn -0.008558 0.999962 0.001897
vn -0.008558 0.999962 0.001897
vn 0.999962 0.008561 -0.001484
vn 0.999962 0.008561 -0.001484
vn 0.999962 0.008561 -0.001484
vn 0.999962 0.008561 -0.001484
vn -0.999962 -0.008561 0.001484
vn -0.999962 -0.008561 0.001484
vn -0.999962 -0.008561 0.001484
vn -0.999962 -0.008561 0.001484
vn 0.008558 -0.999962 -0.001897
vn 0.008558 -0.999962 -0.001897
vn 0.008558 -0.999962 -0.001897
vn 0.008558 -0.999962 -0.001897
vn -0.008558 0.999962 0.001897
vn -0.008558 0.999962 0.001897
vn -0.008558 0.999962 0.001897
vn -0.008558 0.999962 0.001897
vn -0.001500 0.001884 -0.999997
vn -0.001500 0.001884 -0.999997
vn -0.001500 0.001884 -0.999997
vn -0.001500 0.001884 -0.999997
vn 0.001500 -0.001884 0.999997
vn 0.001500 -0.001884 0.999997
vn 0.001500 -0.001884 0.999997
vn 0.001500 -0.001884 0.999997
vn 0.999962 0.008561 -0.001484
vn 0.999962 0.008561 -0.001484
vn 0.999962 0.008561 -0.001484
vn 0.999962 0.008561 -0.001484
vn -0.999962 -0.008561 0.001484
vn -0.999962 -0.008561 0.001484
vn -0.999962 -0.008561 0.001484
vn -0.999962 -0.008561 0.001484
vn 0.008558 -0.999962 -0.001897
vn 0.008558 -0.999962 -0.001897
vn 0.008558 -0.999962 -0.001897
vn 0.008558 -0.999962 -0.001897
vn -0.008558 0.999962 0.001897
vn -0.008558 0.999962 0.001897
vn -0.008558 0.999962 0.001897
vn -0.008558 0.999962 0.001897
vn -0.001500 0.001884 -0.999997
vn -0.001500 0.001884 -0.999997
vn -0.001500 0.001884 -0.999997
vn -0.001500 0.001884 -0.999997
vn 0.001500 -0.001884 0.999997
vn 0.001500 -0.001884 0.999997
vn 0.001500 -0.001884 0.999997
vn 0.001500 -0.001884 0.999997
vn 0.999962 0.008561 -0.001484
vn 0.999962 0.008561 -0.001484
vn 0.999962 0.008561 -0.001484
vn 0.999962 0.008561 -0.001484
vn -0.999962 -0.008561 0.001484
vn -0.999962 -0.008561 0.001484
vn -0.999962 -0.008561 0.001484
vn -0.999962 -0.008561 0.001484
vn 0.008558 -0.999962 -0.001897
vn 0.008558 -0.999962 -0.001897
vn 0.008558 -0.999962 -0.001897
vn 0.008558 -0.999962 -0.001897
vn -0.008558 0.999962 0.001897
vn -0.008558 0.999962 0.001897
vn -0.008558 0.999962 0.001897
vn -0.008558 0.999962 0.001897
vn -0.001500 0.001884 -0.999997
vn -0.001500 0.001884 -0.999997
vn -0.001500 0.001884 -0.999997
vn -0.001500 0.001884 -0.999997
vn 0.001500 -0.001884 0.999997
vn 0.001500 -0.001884 0.999997
vn 0.001500 -0.001884 0.999997
vn 0.001500 -0.001884 0.999997
vn 0.999962 0.008561 -0.001484
vn 0.999962 0.008561 -0.001484
vn 0.999962 0.008561 -0.001484
vn 0.999962 0.008561 -0.001484
vn -0.999962 -0.008561 0.001484
vn -0.999962 -0.008561 0.001484
vn -0.999962 -0.008561 0.001484
vn -0.999962 -0.008561 0.001484

vt 0.147585 -0.217881
vt 0.158798 -0.240839
vt 0.081778 -0.278457
vt 0.070565 -0.255499
vt -0.081778 -0.278457
vt -0.158798 -0.240839
vt -0.147585 -0.217881
vt -0.070565 -0.255499
vt -0.204387 -0.231045
vt -0.207494 -0.229942
vt -0.198949 -0.205864
vt -0.195842 -0.206967
vt 0.198949 -0.205864
vt 0.207494 -0.229943
vt 0.204387 -0.231045
vt 0.195842 -0.206967
vt -0.124619 0.030322
vt -0.074233 0.099666
vt -0.071566 0.097728
vt -0.121952 0.028384
vt 0.071566 0.097728
vt 0.074233 0.099666
vt 0.124619 0.030322
vt 0.121952 0.028384
vt -0.069824 -0.255861
vt -0.081037 -0.278819
vt -0.158057 -0.241201
vt -0.146844 -0.218243
vt 0.158057 -0.241201
vt 0.081037 -0.278819
vt 0.069824 -0.255861
vt 0.146844 -0.218243
vt 0.259535 -0.211474
vt 0.256428 -0.212576
vt 0.247883 -0.188498
vt 0.250989 -0.187395
vt -0.247883 -0.188498
vt -0.256428 -0.212576
vt -0.259535 -0.211474
vt -0.250989 -0.187395
vt -0.116724 0.129521
vt -0.167110 0.060178
vt -0.169777 0.062116
vt -0.119391 0.131459
vt 0.169777 0.062116
vt 0.167110 0.060178
vt 0.116724 0.129521
vt 0.119391 0.131459
vt -0.068343 -0.256584
vt -0.079556 -0.279542
vt -0.156576 -0.241924
vt -0.145363 -0.218966
vt 0.156576 -0.241924
vt 0.079556 -0.279542
vt 0.068343 -0.256584
vt 0.145363 -0.218966
vt 0.230796 -0.221673
vt 0.227689 -0.222775
vt 0.219143 -0.198697
vt 0.222250 -0.197594
vt -0.219143 -0.198697
vt -0.227689 -0.222775
vt -0.230796 -0.221673
vt -0.222250 -0.197594
vt -0.093023 0.110262
vt -0.143409 0.040918
vt -0.146076 0.042856
vt -0.095690 0.112200
vt 0.146076 0.042856
vt 0.143409 0.040918
vt 0.093023 0.110262
vt 0.095690 0.112200
vt 0.147585 -0.217881
vt 0.158798 -0.240839
vt 0.081778 -0.278457
vt 0.070565 -0.255499
vt -0.081778 -0.278457
vt -0.158798 -0.240839
vt -0.147585 -0.217881
vt -0.070565 -0.255499
vt -0.282837 -0.203204
vt -0.285943 -0.202101
vt -0.277398 -0.178023
vt -0.274291 -0.179126
vt 0.277398 -0.178023
vt 0.285944 -0.202101
vt 0.282837 -0.203204
vt 0.274291 -0.179126
vt -0.191962 0.079255
vt -0.141576 0.148598
vt -0.138909 0.146660
vt -0.189295 0.077317
vt 0.138909 0.146660
vt 0.141576 0.148598
vt 0.191962 0.079255
vt 0.189295 0.077317
vt -0.198172 -0.206140
vt -0.206717 -0.230218
vt -0.287497 -0.201550
vt -0.278952 -0.177472
vt 0.287497 -0.201550
vt 0.206717 -0.230218
vt 0.198172 -0.206140
vt 0.278952 -0.177472
vt -0.106217 -0.266521
vt -0.109179 -0.265074
vt -0.097966 -0.242116
vt -0.095004 -0.243563
vt 0.097966 -0.242116
vt 0.109179 -0.265074
vt 0.106217 -0.266521
vt 0.095004 -0.243563
vt -0.175370 0.104894
vt -0.106027 0.054508
vt -0.107965 0.051841
vt -0.177308 0.102227
vt 0.107965 0.051841
vt 0.106027 0.054508
vt 0.175370 0.104894
vt 0.177308 0.102227
vt -0.198723 -0.207693
vt -0.207268 -0.231771
vt -0.288048 -0.203103
vt -0.279503 -0.179025
vt 0.288048 -0.203103
vt 0.207268 -0.231771
vt 0.198723 -0.207693
vt 0.279503 -0.179025
vt -0.130638 -0.256427
vt -0.133601 -0.254980
vt -0.122388 -0.232022
vt -0.119425 -0.233469
vt 0.122388 -0.232022
vt 0.133601 -0.254980
vt 0.130638 -0.256427
vt 0.119425 -0.233469
vt -0.159867 0.126230
vt -0.090524 0.075844
vt -0.092461 0.073177
vt -0.161805 0.123563
vt 0.092461 0.073177
vt 0.090524 0.075844
vt 0.159867 0.126230
vt 0.161805 0.123563
vt -0.196618 -0.206691
vt -0.205164 -0.230769
vt -0.285943 -0.202101
vt -0.277398 -0.178023
vt 0.285943 -0.202101
vt 0.205164 -0.230769
vt 0.196618 -0.206691
vt 0.277398 -0.178023
vt -0.155095 -0.242648
vt -0.158057 -0.241201
vt -0.146844 -0.218243
vt -0.143882 -0.219690
vt 0.146844 -0.218243
vt 0.158057 -0.241201
vt 0.155095 -0.242648
vt 0.143882 -0.219690
vt -0.142061 0.147931
vt -0.072718 0.097545
vt -0.074656 0.094878
vt -0.143999 0.145264
vt 0.074656 0.094878
vt 0.072718 0.097545
vt 0.142061 0.147931
vt 0.143999 0.145264
s off
f 1/1/1 2/2/2 3/3/3
f 1/1/1 3/3/3 4/4/4
f 5/5/5 6/6/6 7/7/7
f 5/5/5 7/7/7 8/8/8
f 9/9/9 10/10/10 11/11/11
f 9/9/9 11/11/11 12/12/12
f 13/13/13 14/14/14 15/15/15
f 13/13/13 15/15/15 16/16/16
f 17/17/17 18/18/18 19/19/19
f 17/17/17 19/19/19 20/20/20
f 21/21/21 22/22/22 23/23/23
f 21/21/21 23/23/23 24/24/24
f 25/25/25 26/26/26 27/27/27
f 25/25/25 27/27/27 28/28/28
f 29/29/29 30/30/30 31/31/31
f 29/29/29 31/31/31 32/32/32
f 33/33/33 34/34/34 35/35/35
f 33/33/33 35/35/35 36/36/36
f 37/37/37 38/38/38 39/39/39
f 37/37/37 39/39/39 40/40/40
f 41/41/41 42/42/42 43/43/43
f 41/41/41 43/43/43 44/44/44
f 45/45/45 46/46/46 47/47/47
f 45/45/45 47/47/47 48/48/48
f 49/49/49 50/50/50 51/51/51
f 49/49/49 51/51/51 52/52/52
f 53/53/53 54/54/54 55/55/55
f 53/53/53 55/55/55 56/56/56
f 57/57/57 58/58/58 59/59/59
f 57/57/57 59/59/59 60/60/60
f 61/61/61 62/62/62 63/63/63
f 61/61/61 63/63/63 64/64/64
f 65/65/65 66/66/66 67/67/67
f 65/65/65 67/67/67 68/68/68
f 69/69/69 70/70/70 71/71/71
f 69/69/69 71/71/71 72/72/72
f 73/73/73 74/74/74 75/75/75
f 73/73/73 75/75/75 76/76/76
f 77/77/77 78/78/78 79/79/79
f 77/77/77 79/79/79 80/80/80
f 81/81/81 82/82/82 83/83/83
f 81/81/81 83/83/83 84/84/84
f 85/85/85 86/86/86 87/87/87
f 85/85/85 87/87/87 88/88/88
f 89/89/89 90/90/90 91/91/91
f 89/89/89 91/91/91 92/92/92
f 93/93/93 94/94/94 95/95/95
f 93/93/93 95/95/95 96/96/96
f 97/97/97 98/98/98 99/99/99
f 97/97/97 99/99/99 100/100/100
f 101/101/101 102/102/102 103/103/103
f 101/101/101 103/103/103 104/104/104
f 105/105/105 106/106/106 107/107/107
f 105/105/105 107/107/107 108/108/108
f 109/109/109 110/110/110 111/111/111
f 109/109/109 111/111/111 112/112/112
f 113/113/113 114/114/114 115/115/115
f 113/113/113 115/115/115 116/116/116
f 117/117/117 118/118/118 119/119/119
f 117/117/117 119/119/119 120/120/120
f 121/121/121 122/122/122 123/123/123
f 121/121/121 123/123/123 124/124/124
f 125/125/125 126/126/126 127/127/127
f 125/125/125 127/127/127 128/128/128
f 129/129/129 130/130/130 131/131/131
f 129/129/129 131/131/131 132/132/132
f 133/133/133 134/134/134 135/135/135
f 133/133/133 135/135/135 136/136/136
f 137/137/137 138/138/138 139/139/139
f 137/137/137 139/139/139 140/140/140
f 141/141/141 142/142/142 143/143/143
f 141/141/141 143/143/143 144/144/144
f 145/145/145 146/146/146 147/147/147
f 145/145/145 147/147/147 148/148/148
f 149/149/149 150/150/150 151/151/151
f 149/149/149 151/151/151 152/152/152
f 153/153/153 154/154/154 155/155/155
f 153/153/153 155/155/155 156/156/156
f 157/157/157 158/158/158 159/159/159
f 157/157/157 159/159/159 160/160/160
f 161/161/161 162/162/162 163/163/163
f 161/161/161 163/163/163 164/164/164
f 165/165/165 166/166/166 167/167/167
f 165/165/165 167/167/167 168/168/168
