# Exported using automatic converter by Erwin Coumans
mtllib model6.mtl
#object group135980460_3

v 3.345460 -0.934141 1.202864
v 3.322868 -0.934141 1.202864
v 3.322868 -0.945437 1.202864
v 3.345460 -0.945437 1.202864
v 3.322868 -0.945437 0.852680
v 3.322868 -0.934141 0.852680
v 3.345460 -0.934141 0.852680
v 3.345460 -0.945437 0.852680
v 3.322868 -0.945437 1.202864
v 3.322868 -0.945437 0.852680
v 3.345460 -0.945437 0.852680
v 3.345460 -0.945437 1.202864
v 3.345460 -0.934141 0.852680
v 3.322868 -0.934141 0.852680
v 3.322868 -0.934141 1.202864
v 3.345460 -0.934141 1.202864
v 3.345460 -0.945437 0.852680
v 3.345460 -0.934141 0.852680
v 3.345460 -0.934141 1.202864
v 3.345460 -0.945437 1.202864
v 3.322868 -0.934141 1.202864
v 3.322868 -0.934141 0.852680
v 3.322868 -0.945437 0.852680
v 3.322868 -0.945437 1.202864
v 3.204256 -0.934141 0.796197
v 3.226849 -0.934141 0.796197
v 3.226849 -0.945437 0.796197
v 3.204256 -0.945437 0.796197
v 3.226849 -0.945437 1.146382
v 3.226849 -0.934141 1.146382
v 3.204256 -0.934141 1.146382
v 3.204256 -0.945437 1.146382
v 3.226849 -0.945437 0.796197
v 3.226849 -0.945437 1.146382
v 3.204256 -0.945437 1.146382
v 3.204256 -0.945437 0.796197
v 3.204256 -0.934141 1.146382
v 3.226849 -0.934141 1.146382
v 3.226849 -0.934141 0.796197
v 3.204256 -0.934141 0.796197
v 3.204256 -0.945437 1.146382
v 3.204256 -0.934141 1.146382
v 3.204256 -0.934141 0.796197
v 3.204256 -0.945437 0.796197
v 3.226849 -0.934141 0.796197
v 3.226849 -0.934141 1.146382
v 3.226849 -0.945437 1.146382
v 3.226849 -0.945437 0.796197
v 3.091293 0.195487 0.317949
v 3.065876 0.188676 0.317949
v 3.065876 0.188676 1.628317
v 3.091292 0.195487 1.628317
v 3.065876 0.188676 0.317949
v 3.047270 0.170070 0.317949
v 3.047270 0.170070 1.628317
v 3.065876 0.188676 1.628317
v 3.047270 0.170070 0.317949
v 3.040460 0.144653 0.317949
v 3.040459 0.144653 1.628317
v 3.047270 0.170070 1.628317
v 3.040460 0.144653 0.317949
v 3.047270 0.119237 0.317949
v 3.047270 0.119237 1.628317
v 3.040459 0.144653 1.628317
v 3.047270 0.119237 0.317949
v 3.065876 0.100631 0.317949
v 3.065876 0.100630 1.628317
v 3.047270 0.119237 1.628317
v 3.065876 0.100631 0.317949
v 3.091293 0.093820 0.317949
v 3.091292 0.093820 1.628317
v 3.065876 0.100630 1.628317
v 3.091293 0.093820 0.317949
v 3.116709 0.100631 0.317949
v 3.116709 0.100630 1.628317
v 3.091292 0.093820 1.628317
v 3.116709 0.100631 0.317949
v 3.135316 0.119237 0.317949
v 3.135315 0.119237 1.628317
v 3.116709 0.100630 1.628317
v 3.135316 0.119237 0.317949
v 3.142126 0.144653 0.317949
v 3.142126 0.144653 1.628317
v 3.135315 0.119237 1.628317
v 3.142126 0.144653 0.317949
v 3.135316 0.170070 0.317949
v 3.135315 0.170070 1.628317
v 3.142126 0.144653 1.628317
v 3.135316 0.170070 0.317949
v 3.116709 0.188676 0.317949
v 3.116709 0.188676 1.628317
v 3.135315 0.170070 1.628317
v 3.116709 0.188676 0.317949
v 3.091293 0.195487 0.317949
v 3.091292 0.195487 1.628317
v 3.116709 0.188676 1.628317
usemtl mat15

vn -0.000000 0.000000 1.000000
vn -0.000000 0.000000 1.000000
vn -0.000000 0.000000 1.000000
vn -0.000000 0.000000 1.000000
vn 0.000000 0.000000 -1.000000
vn 0.000000 0.000000 -1.000000
vn 0.000000 0.000000 -1.000000
vn 0.000000 0.000000 -1.000000
vn 0.000000 -1.000000 0.000000
vn 0.000000 -1.000000 0.000000
vn 0.000000 -1.000000 0.000000
vn 0.000000 -1.000000 0.000000
vn -0.000000 1.000000 0.000000
vn -0.000000 1.000000 0.000000
vn -0.000000 1.000000 0.000000
vn -0.000000 1.000000 0.000000
vn 1.000000 0.000000 0.000000
vn 1.000000 0.000000 0.000000
vn 1.000000 0.000000 0.000000
vn 1.000000 0.000000 0.000000
vn -1.000000 -0.000000 -0.000000
vn -1.000000 -0.000000 -0.000000
vn -1.000000 -0.000000 -0.000000
vn -1.000000 -0.000000 -0.000000
vn 0.000000 -0.000000 -1.000000
vn 0.000000 -0.000000 -1.000000
vn 0.000000 -0.000000 -1.000000
vn 0.000000 -0.000000 -1.000000
vn -0.000000 0.000000 1.000000
vn -0.000000 0.000000 1.000000
vn -0.000000 0.000000 1.000000
vn -0.000000 0.000000 1.000000
vn -0.000000 -1.000000 0.000000
vn -0.000000 -1.000000 0.000000
vn -0.000000 -1.000000 0.000000
vn -0.000000 -1.000000 0.000000
vn 0.000000 1.000000 -0.000000
vn 0.000000 1.000000 -0.000000
vn 0.000000 1.000000 -0.000000
vn 0.000000 1.000000 -0.000000
vn -1.000000 0.000000 -0.000000
vn -1.000000 0.000000 -0.000000
vn -1.000000 0.000000 -0.000000
vn -1.000000 0.000000 -0.000000
vn 1.000000 -0.000000 0.000000
vn 1.000000 -0.000000 0.000000
vn 1.000000 -0.000000 0.000000
vn 1.000000 -0.000000 0.000000
vn 0.000000 1.000000 -0.000000
vn 0.000000 1.000000 -0.000000
vn 0.000000 1.000000 -0.000000
vn 0.000000 1.000000 -0.000000
vn -0.500000 0.866025 -0.000000
vn -0.500000 0.866025 -0.000000
vn -0.500000 0.866025 -0.000000
vn -0.500000 0.866025 -0.000000
vn -0.866025 0.500000 -0.000000
vn -0.866025 0.500000 -0.000000
vn -0.866025 0.500000 -0.000000
vn -0.866025 0.500000 -0.000000
vn -1.000000 -0.000000 -0.000000
vn -1.000000 -0.000000 -0.000000
vn -1.000000 -0.000000 -0.000000
vn -1.000000 -0.000000 -0.000000
vn -0.866025 -0.500000 -0.000000
vn -0.866025 -0.500000 -0.000000
vn -0.866025 -0.500000 -0.000000
vn -0.866025 -0.500000 -0.000000
vn -0.500000 -0.866025 -0.000000
vn -0.500000 -0.866025 -0.000000
vn -0.500000 -0.866025 -0.000000
vn -0.500000 -0.866025 -0.000000
vn 0.000000 -1.000000 0.000000
vn 0.000000 -1.000000 0.000000
vn 0.000000 -1.000000 0.000000
vn 0.000000 -1.000000 0.000000
vn 0.500000 -0.866025 0.000000
vn 0.500000 -0.866025 0.000000
vn 0.500000 -0.866025 0.000000
vn 0.500000 -0.866025 0.000000
vn 0.866026 -0.500000 0.000000
vn 0.866026 -0.500000 0.000000
vn 0.866026 -0.500000 0.000000
vn 0.866026 -0.500000 0.000000
vn 1.000000 0.000000 0.000000
vn 1.000000 0.000000 0.000000
vn 1.000000 0.000000 0.000000
vn 1.000000 0.000000 0.000000
vn 0.866026 0.500000 0.000000
vn 0.866026 0.500000 0.000000
vn 0.866026 0.500000 0.000000
vn 0.866026 0.500000 0.000000
vn 0.500000 0.866026 0.000000
vn 0.500000 0.866026 0.000000
vn 0.500000 0.866026 0.000000
vn 0.500000 0.866026 0.000000

vt -0.176045 0.251549
vt -0.175034 0.249529
vt -0.176045 0.249023
vt -0.177055 0.251044
vt 0.176045 0.249023
vt 0.175034 0.249529
vt 0.176045 0.251549
vt 0.177055 0.251044
vt 0.298501 0.213505
vt 0.265522 0.225283
vt 0.266282 0.227410
vt 0.299261 0.215632
vt -0.266282 0.227410
vt -0.265522 0.225283
vt -0.298501 0.213505
vt -0.299261 0.215632
vt 0.115029 -0.138807
vt 0.115685 -0.137888
vt 0.144181 -0.158242
vt 0.143525 -0.159161
vt -0.144181 -0.158242
vt -0.115685 -0.137888
vt -0.115029 -0.138807
vt -0.143525 -0.159161
vt 0.169730 0.238920
vt 0.170740 0.240940
vt 0.171751 0.240435
vt 0.170740 0.238414
vt -0.171751 0.240435
vt -0.170740 0.240940
vt -0.169730 0.238920
vt -0.170740 0.238414
vt 0.256974 0.218140
vt 0.289952 0.206362
vt 0.289192 0.204234
vt 0.256214 0.216012
vt -0.289192 0.204234
vt -0.289952 0.206362
vt -0.256974 0.218140
vt -0.256214 0.216012
vt -0.138929 -0.155878
vt -0.139585 -0.154959
vt -0.111089 -0.134605
vt -0.110433 -0.135524
vt 0.111089 -0.134605
vt 0.139585 -0.154959
vt 0.138929 -0.155878
vt 0.110433 -0.135524
vt -0.207376 0.221459
vt -0.206521 0.219066
vt -0.329924 0.174993
vt -0.330779 0.177387
vt -0.198109 0.222692
vt -0.197335 0.220271
vt -0.322137 0.180333
vt -0.322912 0.182754
vt -0.182050 0.137655
vt -0.181142 0.135282
vt -0.303519 0.088438
vt -0.304428 0.090811
vt -0.134876 -0.019022
vt -0.133399 -0.021090
vt -0.240028 -0.097254
vt -0.241505 -0.095186
vt 0.105486 -0.103131
vt 0.107984 -0.102663
vt 0.132140 -0.231453
vt 0.129642 -0.231922
vt 0.209623 0.120703
vt 0.210898 0.122902
vt 0.324261 0.057180
vt 0.322986 0.054981
vt 0.207376 0.221459
vt 0.208231 0.223853
vt 0.331634 0.179780
vt 0.330779 0.177387
vt 0.198109 0.222692
vt 0.198884 0.225113
vt 0.323686 0.185175
vt 0.322912 0.182754
vt 0.182050 0.137655
vt 0.182959 0.140029
vt 0.305337 0.093185
vt 0.304428 0.090811
vt 0.134876 -0.019022
vt 0.136354 -0.016954
vt 0.242983 -0.093117
vt 0.241505 -0.095186
vt -0.105485 -0.103131
vt -0.102987 -0.103600
vt -0.127144 -0.232391
vt -0.129642 -0.231922
vt -0.209623 0.120704
vt -0.208348 0.118505
vt -0.321711 0.052782
vt -0.322986 0.054981
s off
f 1/1/1 2/2/2 3/3/3
f 1/1/1 3/3/3 4/4/4
f 5/5/5 6/6/6 7/7/7
f 5/5/5 7/7/7 8/8/8
f 9/9/9 10/10/10 11/11/11
f 9/9/9 11/11/11 12/12/12
f 13/13/13 14/14/14 15/15/15
f 13/13/13 15/15/15 16/16/16
f 17/17/17 18/18/18 19/19/19
f 17/17/17 19/19/19 20/20/20
f 21/21/21 22/22/22 23/23/23
f 21/21/21 23/23/23 24/24/24
f 25/25/25 26/26/26 27/27/27
f 25/25/25 27/27/27 28/28/28
f 29/29/29 30/30/30 31/31/31
f 29/29/29 31/31/31 32/32/32
f 33/33/33 34/34/34 35/35/35
f 33/33/33 35/35/35 36/36/36
f 37/37/37 38/38/38 39/39/39
f 37/37/37 39/39/39 40/40/40
f 41/41/41 42/42/42 43/43/43
f 41/41/41 43/43/43 44/44/44
f 45/45/45 46/46/46 47/47/47
f 45/45/45 47/47/47 48/48/48
f 49/49/49 50/50/50 51/51/51
f 49/49/49 51/51/51 52/52/52
f 53/53/53 54/54/54 55/55/55
f 53/53/53 55/55/55 56/56/56
f 57/57/57 58/58/58 59/59/59
f 57/57/57 59/59/59 60/60/60
f 61/61/61 62/62/62 63/63/63
f 61/61/61 63/63/63 64/64/64
f 65/65/65 66/66/66 67/67/67
f 65/65/65 67/67/67 68/68/68
f 69/69/69 70/70/70 71/71/71
f 69/69/69 71/71/71 72/72/72
f 73/73/73 74/74/74 75/75/75
f 73/73/73 75/75/75 76/76/76
f 77/77/77 78/78/78 79/79/79
f 77/77/77 79/79/79 80/80/80
f 81/81/81 82/82/82 83/83/83
f 81/81/81 83/83/83 84/84/84
f 85/85/85 86/86/86 87/87/87
f 85/85/85 87/87/87 88/88/88
f 89/89/89 90/90/90 91/91/91
f 89/89/89 91/91/91 92/92/92
f 93/93/93 94/94/94 95/95/95
f 93/93/93 95/95/95 96/96/96
