# Exported using automatic converter by Erwin Coumans
mtllib botlab.mtl
#object mesh188405574

v -2.561763 -0.384511 -3.170148
v -2.561763 -0.364511 -3.170148
v -2.561763 -0.364511 -3.190148
v -2.561763 -0.384511 -3.190148
v 3.208239 -0.364511 -3.190148
v 3.208239 -0.364511 -3.170148
v 3.208239 -0.384511 -3.170148
v 3.208239 -0.384511 -3.190148
v -2.561763 -0.364511 -3.190148
v 3.208239 -0.364511 -3.190148
v 3.208239 -0.384511 -3.190148
v -2.561763 -0.384511 -3.190148
v 3.208239 -0.384511 -3.170148
v 3.208239 -0.364511 -3.170148
v -2.561763 -0.364511 -3.170148
v -2.561763 -0.384511 -3.170148
v 3.208239 -0.384511 -3.190148
v 3.208239 -0.384511 -3.170148
v -2.561763 -0.384511 -3.170148
v -2.561763 -0.384511 -3.190148
v -2.561763 -0.364511 -3.170148
v 3.208239 -0.364511 -3.170148
v 3.208239 -0.364511 -3.190148
v -2.561763 -0.364511 -3.190148
usemtl mat12

vn -1.000000 0.000000 -0.000000
vn -1.000000 0.000000 -0.000000
vn -1.000000 0.000000 -0.000000
vn -1.000000 0.000000 -0.000000
vn 1.000000 0.000000 0.000000
vn 1.000000 0.000000 0.000000
vn 1.000000 0.000000 0.000000
vn 1.000000 0.000000 0.000000
vn 0.000000 0.000000 -1.000000
vn 0.000000 0.000000 -1.000000
vn 0.000000 0.000000 -1.000000
vn 0.000000 0.000000 -1.000000
vn -0.000000 -0.000000 1.000000
vn -0.000000 -0.000000 1.000000
vn -0.000000 -0.000000 1.000000
vn -0.000000 -0.000000 1.000000
vn 0.000000 -1.000000 0.000000
vn 0.000000 -1.000000 0.000000
vn 0.000000 -1.000000 0.000000
vn 0.000000 -1.000000 0.000000
vn 0.000000 1.000000 -0.000000
vn 0.000000 1.000000 -0.000000
vn 0.000000 1.000000 -0.000000
vn 0.000000 1.000000 -0.000000

vt 0.179719 0.140660
vt 0.178556 0.142287
vt 0.180184 0.143450
vt 0.181346 0.141822
vt -0.180184 0.143450
vt -0.178556 0.142287
vt -0.179719 0.140660
vt -0.181346 0.141822
vt -0.139083 -0.251334
vt 0.118959 0.264751
vt 0.120748 0.263856
vt -0.137295 -0.252229
vt -0.120748 0.263856
vt -0.118959 0.264751
vt 0.139083 -0.251334
vt 0.137295 -0.252229
vt -0.119063 0.350463
vt -0.117180 0.349790
vt -0.311246 -0.193595
vt -0.313129 -0.192923
vt 0.311246 -0.193595
vt 0.117180 0.349790
vt 0.119063 0.350463
vt 0.313129 -0.192923
s off
f 1/1/1 2/2/2 3/3/3
f 1/1/1 3/3/3 4/4/4
f 5/5/5 6/6/6 7/7/7
f 5/5/5 7/7/7 8/8/8
f 9/9/9 10/10/10 11/11/11
f 9/9/9 11/11/11 12/12/12
f 13/13/13 14/14/14 15/15/15
f 13/13/13 15/15/15 16/16/16
f 17/17/17 18/18/18 19/19/19
f 17/17/17 19/19/19 20/20/20
f 21/21/21 22/22/22 23/23/23
f 21/21/21 23/23/23 24/24/24
