# Exported using automatic converter by Erwin Coumans
mtllib model6.mtl
#object mesh90545862

v 0.432898 -0.996224 1.393135
v 0.337310 -0.994420 1.398453
v 0.332543 -1.063674 1.389448
v 0.428131 -1.065479 1.384130
v 0.418255 -1.058673 1.305612
v 0.423022 -0.989419 1.314617
v 0.518609 -0.991223 1.309299
v 0.513843 -1.060477 1.300294
v 0.332543 -1.063674 1.389448
v 0.418255 -1.058673 1.305612
v 0.513843 -1.060477 1.300294
v 0.428131 -1.065479 1.384130
v 0.518609 -0.991223 1.309299
v 0.423022 -0.989419 1.314617
v 0.337310 -0.994420 1.398453
v 0.432898 -0.996224 1.393135
v 0.513843 -1.060477 1.300294
v 0.518609 -0.991223 1.309299
v 0.432898 -0.996224 1.393135
v 0.428131 -1.065479 1.384130
v 0.337310 -0.994420 1.398453
v 0.423022 -0.989419 1.314617
v 0.418255 -1.058673 1.305612
v 0.332543 -1.063674 1.389448
v 0.064170 -0.992127 1.385588
v -0.031262 -0.990305 1.393201
v -0.035954 -1.059969 1.388213
v 0.059478 -1.061791 1.380601
v 0.047616 -1.059432 1.302099
v 0.052308 -0.989768 1.307086
v 0.147740 -0.991590 1.299474
v 0.143048 -1.061255 1.294486
v -0.035954 -1.059969 1.388213
v 0.047616 -1.059432 1.302099
v 0.143048 -1.061255 1.294486
v 0.059478 -1.061791 1.380601
v 0.147740 -0.991590 1.299474
v 0.052308 -0.989768 1.307086
v -0.031262 -0.990305 1.393201
v 0.064170 -0.992127 1.385588
v 0.143048 -1.061255 1.294486
v 0.147740 -0.991590 1.299474
v 0.064170 -0.992127 1.385588
v 0.059478 -1.061791 1.380601
v -0.031262 -0.990305 1.393201
v 0.052308 -0.989768 1.307086
v 0.047616 -1.059432 1.302099
v -0.035954 -1.059969 1.388213
v 0.250270 -0.993193 1.390085
v 0.154593 -0.992639 1.393848
v 0.150926 -1.062101 1.385998
v 0.246603 -1.062655 1.382235
v 0.237905 -1.057365 1.303462
v 0.241572 -0.987904 1.311312
v 0.337249 -0.988458 1.307549
v 0.333582 -1.057919 1.299699
v 0.150926 -1.062101 1.385998
v 0.237905 -1.057365 1.303462
v 0.333582 -1.057919 1.299699
v 0.246603 -1.062655 1.382235
v 0.337249 -0.988458 1.307549
v 0.241572 -0.987904 1.311312
v 0.154593 -0.992639 1.393848
v 0.250270 -0.993193 1.390085
v 0.333582 -1.057919 1.299699
v 0.337249 -0.988458 1.307549
v 0.250270 -0.993193 1.390085
v 0.246603 -1.062655 1.382235
v 0.154593 -0.992639 1.393848
v 0.241572 -0.987904 1.311312
v 0.237905 -1.057365 1.303462
v 0.150926 -1.062101 1.385998
v 0.617257 -0.991940 1.397773
v 0.521513 -0.992150 1.399067
v 0.518546 -1.061020 1.386896
v 0.614290 -1.060810 1.385602
v 0.607580 -1.050754 1.307099
v 0.610547 -0.981884 1.319270
v 0.706290 -0.981673 1.317976
v 0.703323 -1.050543 1.305805
v 0.518546 -1.061020 1.386896
v 0.607580 -1.050754 1.307099
v 0.703323 -1.050543 1.305805
v 0.614290 -1.060810 1.385602
v 0.706290 -0.981673 1.317976
v 0.610547 -0.981884 1.319270
v 0.521513 -0.992150 1.399067
v 0.617257 -0.991940 1.397773
v 0.703323 -1.050543 1.305805
v 0.706290 -0.981673 1.317976
v 0.617257 -0.991940 1.397773
v 0.614290 -1.060810 1.385602
v 0.521513 -0.992150 1.399067
v 0.610547 -0.981884 1.319270
v 0.607580 -1.050754 1.307099
v 0.518546 -1.061020 1.386896
usemtl mat23

vn 0.052571 -0.132324 0.989811
vn 0.052571 -0.132324 0.989811
vn 0.052571 -0.132324 0.989811
vn 0.052571 -0.132324 0.989811
vn -0.052570 0.132323 -0.989812
vn -0.052570 0.132323 -0.989812
vn -0.052570 0.132323 -0.989812
vn -0.052570 0.132323 -0.989812
vn -0.023444 -0.996240 -0.083402
vn -0.023444 -0.996240 -0.083402
vn -0.023444 -0.996240 -0.083402
vn -0.023444 -0.996240 -0.083402
vn 0.023444 0.996240 0.083402
vn 0.023444 0.996240 0.083402
vn 0.023444 0.996240 0.083402
vn 0.023444 0.996240 0.083402
vn 0.696554 -0.139462 0.703821
vn 0.696554 -0.139462 0.703821
vn 0.696554 -0.139462 0.703821
vn 0.696554 -0.139462 0.703821
vn -0.696554 0.139462 -0.703821
vn -0.696554 0.139462 -0.703821
vn -0.696554 0.139462 -0.703821
vn -0.696554 0.139462 -0.703821
vn 0.077833 -0.076407 0.994034
vn 0.077833 -0.076407 0.994034
vn 0.077833 -0.076407 0.994034
vn 0.077833 -0.076407 0.994034
vn -0.077832 0.076407 -0.994034
vn -0.077832 0.076407 -0.994034
vn -0.077832 0.076407 -0.994034
vn -0.077832 0.076407 -0.994034
vn -0.021225 -0.999415 -0.026829
vn -0.021225 -0.999415 -0.026829
vn -0.021225 -0.999415 -0.026829
vn -0.021225 -0.999415 -0.026829
vn 0.021225 0.999415 0.026829
vn 0.021225 0.999415 0.026829
vn 0.021225 0.999415 0.026829
vn 0.021225 0.999415 0.026829
vn 0.714500 -0.097718 0.692778
vn 0.714500 -0.097718 0.692778
vn 0.714500 -0.097718 0.692778
vn 0.714500 -0.097718 0.692778
vn -0.714500 0.097718 -0.692778
vn -0.714500 0.097718 -0.692778
vn -0.714500 0.097718 -0.692778
vn -0.714500 0.097718 -0.692778
vn 0.038384 -0.114212 0.992715
vn 0.038384 -0.114212 0.992715
vn 0.038384 -0.114212 0.992715
vn 0.038384 -0.114212 0.992715
vn -0.038383 0.114212 -0.992715
vn -0.038383 0.114212 -0.992715
vn -0.038383 0.114212 -0.992715
vn -0.038383 0.114212 -0.992715
vn -0.008375 -0.997779 -0.066077
vn -0.008375 -0.997779 -0.066077
vn -0.008375 -0.997779 -0.066077
vn -0.008375 -0.997779 -0.066077
vn 0.008375 0.997779 0.066077
vn 0.008375 0.997779 0.066077
vn 0.008375 0.997779 0.066077
vn 0.008375 0.997779 0.066077
vn 0.686941 -0.117311 0.717182
vn 0.686941 -0.117311 0.717182
vn 0.686941 -0.117311 0.717182
vn 0.686941 -0.117311 0.717182
vn -0.686941 0.117311 -0.717182
vn -0.686941 0.117311 -0.717182
vn -0.686941 0.117311 -0.717182
vn -0.686941 0.117311 -0.717182
vn 0.013688 -0.174585 0.984547
vn 0.013688 -0.174585 0.984547
vn 0.013688 -0.174585 0.984547
vn 0.013688 -0.174585 0.984547
vn -0.013687 0.174585 -0.984547
vn -0.013687 0.174585 -0.984547
vn -0.013687 0.174585 -0.984547
vn -0.013687 0.174585 -0.984547
vn 0.000465 -0.991890 -0.127098
vn 0.000465 -0.991890 -0.127098
vn 0.000465 -0.991890 -0.127098
vn 0.000465 -0.991890 -0.127098
vn -0.000465 0.991890 0.127098
vn -0.000465 0.991890 0.127098
vn -0.000465 0.991890 0.127098
vn -0.000465 0.991890 0.127098
vn 0.669115 -0.157189 0.726345
vn 0.669115 -0.157189 0.726345
vn 0.669115 -0.157189 0.726345
vn 0.669115 -0.157189 0.726345
vn -0.669115 0.157189 -0.726345
vn -0.669115 0.157189 -0.726345
vn -0.669115 0.157189 -0.726345
vn -0.669115 0.157189 -0.726345

vt -0.018816 -0.008051
vt -0.014739 -0.016715
vt -0.020941 -0.019960
vt -0.025018 -0.011296
vt 0.025123 -0.011967
vt 0.018921 -0.008722
vt 0.022998 -0.000058
vt 0.029200 -0.003303
vt 0.216489 -0.083462
vt 0.211899 -0.072375
vt 0.214988 -0.063312
vt 0.219579 -0.074399
vt -0.215401 -0.063140
vt -0.212312 -0.072204
vt -0.216903 -0.083291
vt -0.219992 -0.074228
vt 0.041150 -0.137358
vt 0.047348 -0.134105
vt 0.052925 -0.144730
vt 0.046727 -0.147983
vt -0.055910 -0.151285
vt -0.050332 -0.140660
vt -0.044134 -0.143913
vt -0.049711 -0.154539
vt -0.012526 -0.052272
vt -0.008318 -0.060874
vt -0.014471 -0.064212
vt -0.018678 -0.055611
vt 0.018773 -0.056283
vt 0.012621 -0.052945
vt 0.016828 -0.044344
vt 0.022981 -0.047682
vt 0.203057 -0.111606
vt 0.197925 -0.100759
vt 0.200564 -0.091554
vt 0.205696 -0.102402
vt -0.200968 -0.091363
vt -0.198329 -0.100568
vt -0.203461 -0.111415
vt -0.206100 -0.102210
vt 0.045472 -0.167871
vt 0.051567 -0.164430
vt 0.057467 -0.174879
vt 0.051372 -0.178320
vt -0.060651 -0.181340
vt -0.054751 -0.170890
vt -0.048656 -0.174332
vt -0.054556 -0.184781
vt -0.016297 -0.023446
vt -0.012285 -0.032140
vt -0.018512 -0.035339
vt -0.022524 -0.026645
vt 0.022634 -0.027315
vt 0.016407 -0.024116
vt 0.020420 -0.015422
vt 0.026646 -0.018621
vt 0.209482 -0.098409
vt 0.204949 -0.087297
vt 0.208087 -0.078251
vt 0.212619 -0.089362
vt -0.208502 -0.078082
vt -0.205364 -0.087128
vt -0.209896 -0.098240
vt -0.213034 -0.089193
vt 0.040346 -0.149078
vt 0.046573 -0.145880
vt 0.052054 -0.156555
vt 0.045827 -0.159753
vt -0.054980 -0.163137
vt -0.049498 -0.152462
vt -0.043271 -0.155660
vt -0.048753 -0.166334
vt -0.020095 0.021529
vt -0.016330 0.012725
vt -0.022644 0.009703
vt -0.026409 0.018507
vt 0.026538 0.017840
vt 0.020224 0.020862
vt 0.023989 0.029666
vt 0.030303 0.026644
vt 0.223269 -0.070484
vt 0.219277 -0.059167
vt 0.222846 -0.050282
vt 0.226838 -0.061599
vt -0.223268 -0.050133
vt -0.219699 -0.059018
vt -0.223691 -0.070335
vt -0.227260 -0.061450
vt 0.036602 -0.116989
vt 0.042957 -0.114054
vt 0.047989 -0.124948
vt 0.041635 -0.127883
vt -0.050639 -0.131646
vt -0.045606 -0.120752
vt -0.039251 -0.123687
vt -0.044284 -0.134581
s off
f 1/1/1 2/2/2 3/3/3
f 1/1/1 3/3/3 4/4/4
f 5/5/5 6/6/6 7/7/7
f 5/5/5 7/7/7 8/8/8
f 9/9/9 10/10/10 11/11/11
f 9/9/9 11/11/11 12/12/12
f 13/13/13 14/14/14 15/15/15
f 13/13/13 15/15/15 16/16/16
f 17/17/17 18/18/18 19/19/19
f 17/17/17 19/19/19 20/20/20
f 21/21/21 22/22/22 23/23/23
f 21/21/21 23/23/23 24/24/24
f 25/25/25 26/26/26 27/27/27
f 25/25/25 27/27/27 28/28/28
f 29/29/29 30/30/30 31/31/31
f 29/29/29 31/31/31 32/32/32
f 33/33/33 34/34/34 35/35/35
f 33/33/33 35/35/35 36/36/36
f 37/37/37 38/38/38 39/39/39
f 37/37/37 39/39/39 40/40/40
f 41/41/41 42/42/42 43/43/43
f 41/41/41 43/43/43 44/44/44
f 45/45/45 46/46/46 47/47/47
f 45/45/45 47/47/47 48/48/48
f 49/49/49 50/50/50 51/51/51
f 49/49/49 51/51/51 52/52/52
f 53/53/53 54/54/54 55/55/55
f 53/53/53 55/55/55 56/56/56
f 57/57/57 58/58/58 59/59/59
f 57/57/57 59/59/59 60/60/60
f 61/61/61 62/62/62 63/63/63
f 61/61/61 63/63/63 64/64/64
f 65/65/65 66/66/66 67/67/67
f 65/65/65 67/67/67 68/68/68
f 69/69/69 70/70/70 71/71/71
f 69/69/69 71/71/71 72/72/72
f 73/73/73 74/74/74 75/75/75
f 73/73/73 75/75/75 76/76/76
f 77/77/77 78/78/78 79/79/79
f 77/77/77 79/79/79 80/80/80
f 81/81/81 82/82/82 83/83/83
f 81/81/81 83/83/83 84/84/84
f 85/85/85 86/86/86 87/87/87
f 85/85/85 87/87/87 88/88/88
f 89/89/89 90/90/90 91/91/91
f 89/89/89 91/91/91 92/92/92
f 93/93/93 94/94/94 95/95/95
f 93/93/93 95/95/95 96/96/96
