# Exported using automatic converter by Erwin Coumans
mtllib model6.mtl
#object group150619073_1

v -2.432518 1.115489 -0.021780
v -2.400131 1.115489 0.010608
v -2.400131 1.485489 0.010608
v -2.432519 1.485489 -0.021780
v -2.400131 1.115489 0.010608
v -2.388276 1.115489 0.054850
v -2.388277 1.485489 0.054850
v -2.400131 1.485489 0.010608
v -2.388276 1.115489 0.054850
v -2.400131 1.115489 0.099093
v -2.400131 1.485489 0.099093
v -2.388277 1.485489 0.054850
v -2.400131 1.115489 0.099093
v -2.432519 1.115489 0.131481
v -2.432519 1.485489 0.131481
v -2.400131 1.485489 0.099093
v -2.432519 1.115489 0.131481
v -2.476761 1.115489 0.143335
v -2.476761 1.485489 0.143335
v -2.432519 1.485489 0.131481
v -2.476761 1.115489 0.143335
v -2.521003 1.115489 0.131480
v -2.521004 1.485489 0.131481
v -2.476761 1.485489 0.143335
v -2.521003 1.115489 0.131480
v -2.553391 1.115489 0.099093
v -2.553391 1.485489 0.099093
v -2.521004 1.485489 0.131481
v -2.553391 1.115489 0.099093
v -2.565246 1.115489 0.054850
v -2.565246 1.485489 0.054851
v -2.553391 1.485489 0.099093
v -2.565246 1.115489 0.054850
v -2.553391 1.115489 0.010608
v -2.553391 1.485489 0.010608
v -2.565246 1.485489 0.054851
v -2.553391 1.115489 0.010608
v -2.521003 1.115489 -0.021780
v -2.521003 1.485489 -0.021780
v -2.553391 1.485489 0.010608
v -2.521003 1.115489 -0.021780
v -2.476761 1.115489 -0.033635
v -2.476761 1.485489 -0.033635
v -2.521003 1.485489 -0.021780
v -2.476761 1.115489 -0.033635
v -2.432518 1.115489 -0.021780
v -2.432519 1.485489 -0.021780
v -2.476761 1.485489 -0.033635
v -2.476761 1.115489 -0.033635
v -2.521003 1.115489 -0.021780
v -2.553391 1.115489 0.010608
v -2.565246 1.115489 0.054850
v -2.553391 1.115489 0.099093
v -2.521003 1.115489 0.131480
v -2.476761 1.115489 0.143335
v -2.432519 1.115489 0.131481
v -2.400131 1.115489 0.099093
v -2.388276 1.115489 0.054850
v -2.400131 1.115489 0.010608
v -2.432518 1.115489 -0.021780
usemtl mat23

vn -0.707106 -0.000001 0.707108
vn -0.707106 -0.000001 0.707108
vn -0.707106 -0.000001 0.707108
vn -0.707106 -0.000001 0.707108
vn -0.965928 -0.000001 0.258812
vn -0.965928 -0.000001 0.258812
vn -0.965928 -0.000001 0.258812
vn -0.965928 -0.000001 0.258812
vn -0.965927 -0.000001 -0.258813
vn -0.965927 -0.000001 -0.258813
vn -0.965927 -0.000001 -0.258813
vn -0.965927 -0.000001 -0.258813
vn -0.707103 -0.000001 -0.707110
vn -0.707103 -0.000001 -0.707110
vn -0.707103 -0.000001 -0.707110
vn -0.707103 -0.000001 -0.707110
vn -0.258817 -0.000000 -0.965926
vn -0.258817 -0.000000 -0.965926
vn -0.258817 -0.000000 -0.965926
vn -0.258817 -0.000000 -0.965926
vn 0.258818 0.000001 -0.965926
vn 0.258818 0.000001 -0.965926
vn 0.258818 0.000001 -0.965926
vn 0.258818 0.000001 -0.965926
vn 0.707105 0.000001 -0.707109
vn 0.707105 0.000001 -0.707109
vn 0.707105 0.000001 -0.707109
vn 0.707105 0.000001 -0.707109
vn 0.965924 0.000001 -0.258826
vn 0.965924 0.000001 -0.258826
vn 0.965924 0.000001 -0.258826
vn 0.965924 0.000001 -0.258826
vn 0.965925 0.000001 0.258824
vn 0.965925 0.000001 0.258824
vn 0.965925 0.000001 0.258824
vn 0.965925 0.000001 0.258824
vn 0.707107 0.000001 0.707106
vn 0.707107 0.000001 0.707106
vn 0.707107 0.000001 0.707106
vn 0.707107 0.000001 0.707106
vn 0.258816 -0.000000 0.965927
vn 0.258816 -0.000000 0.965927
vn 0.258816 -0.000000 0.965927
vn 0.258816 -0.000000 0.965927
vn -0.258821 -0.000001 0.965926
vn -0.258821 -0.000001 0.965926
vn -0.258821 -0.000001 0.965926
vn -0.258821 -0.000001 0.965926
vn 0.000000 1.000000 0.000000
vn 0.000000 1.000000 0.000000
vn 0.000000 1.000000 0.000000
vn 0.000000 1.000000 0.000000
vn 0.000000 1.000000 0.000000
vn 0.000000 1.000000 0.000000
vn 0.000000 1.000000 0.000000
vn 0.000000 1.000000 0.000000
vn 0.000000 1.000000 0.000000
vn 0.000000 1.000000 0.000000
vn 0.000000 1.000000 0.000000
vn 0.000000 1.000000 0.000000

vt 0.205595 0.029324
vt 0.202206 0.032405
vt 0.227096 0.059782
vt 0.230485 0.056701
vt -0.043837 0.154804
vt -0.048350 0.154027
vt -0.054634 0.190489
vt -0.050120 0.191267
vt -0.225963 -0.022006
vt -0.228884 -0.025534
vt -0.257381 -0.001935
vt -0.254460 0.001592
vt -0.262708 -0.157945
vt -0.264824 -0.162007
vt -0.297638 -0.144910
vt -0.295521 -0.140848
vt -0.269048 -0.194931
vt -0.271004 -0.199073
vt -0.304459 -0.183268
vt -0.302502 -0.179126
vt -0.259212 -0.130767
vt -0.261487 -0.134742
vt -0.293599 -0.116361
vt -0.291323 -0.112386
vt -0.202207 0.032405
vt -0.205596 0.029324
vt -0.230485 0.056701
vt -0.227096 0.059782
vt 0.048342 0.154029
vt 0.043828 0.154806
vt 0.050110 0.191269
vt 0.054624 0.190491
vt 0.228886 -0.025538
vt 0.225964 -0.022010
vt 0.254462 0.001588
vt 0.257383 -0.001939
vt 0.264824 -0.162005
vt 0.262708 -0.157944
vt 0.295521 -0.140847
vt 0.297637 -0.144909
vt 0.271004 -0.199073
vt 0.269048 -0.194931
vt 0.302502 -0.179126
vt 0.304459 -0.183268
vt 0.261487 -0.134742
vt 0.259212 -0.130767
vt 0.291323 -0.112386
vt 0.293599 -0.116361
vt 0.013008 -0.291083
vt 0.013380 -0.295648
vt 0.011419 -0.299787
vt 0.007651 -0.302392
vt 0.003086 -0.302763
vt -0.001053 -0.300803
vt -0.003658 -0.297035
vt -0.004029 -0.292470
vt -0.002069 -0.288330
vt 0.001699 -0.285726
vt 0.006264 -0.285354
vt 0.010404 -0.287315
s off
f 1/1/1 2/2/2 3/3/3
f 1/1/1 3/3/3 4/4/4
f 5/5/5 6/6/6 7/7/7
f 5/5/5 7/7/7 8/8/8
f 9/9/9 10/10/10 11/11/11
f 9/9/9 11/11/11 12/12/12
f 13/13/13 14/14/14 15/15/15
f 13/13/13 15/15/15 16/16/16
f 17/17/17 18/18/18 19/19/19
f 17/17/17 19/19/19 20/20/20
f 21/21/21 22/22/22 23/23/23
f 21/21/21 23/23/23 24/24/24
f 25/25/25 26/26/26 27/27/27
f 25/25/25 27/27/27 28/28/28
f 29/29/29 30/30/30 31/31/31
f 29/29/29 31/31/31 32/32/32
f 33/33/33 34/34/34 35/35/35
f 33/33/33 35/35/35 36/36/36
f 37/37/37 38/38/38 39/39/39
f 37/37/37 39/39/39 40/40/40
f 41/41/41 42/42/42 43/43/43
f 41/41/41 43/43/43 44/44/44
f 45/45/45 46/46/46 47/47/47
f 45/45/45 47/47/47 48/48/48
f 49/49/49 50/50/50 51/51/51
f 49/49/49 51/51/51 52/52/52
f 49/49/49 52/52/52 53/53/53
f 49/49/49 53/53/53 54/54/54
f 49/49/49 54/54/54 55/55/55
f 49/49/49 55/55/55 56/56/56
f 49/49/49 56/56/56 57/57/57
f 49/49/49 57/57/57 58/58/58
f 49/49/49 58/58/58 59/59/59
f 49/49/49 59/59/59 60/60/60
