# Exported using automatic converter by Erwin Coumans
mtllib model6.mtl
#object mesh1843948657

v 0.308238 0.515489 -1.510148
v 0.338238 0.515489 -1.510148
v 0.338238 0.485489 -1.510148
v 0.308238 0.485489 -1.510148
v 0.338238 0.485489 -1.480148
v 0.338238 0.515489 -1.480148
v 0.308238 0.515489 -1.480148
v 0.308238 0.485489 -1.480148
v 0.338238 0.485489 -1.510148
v 0.338238 0.485489 -1.480148
v 0.308238 0.485489 -1.480148
v 0.308238 0.485489 -1.510148
v 0.308238 0.515489 -1.480148
v 0.338238 0.515489 -1.480148
v 0.338238 0.515489 -1.510148
v 0.308238 0.515489 -1.510148
v 0.308238 0.485489 -1.480148
v 0.308238 0.515489 -1.480148
v 0.308238 0.515489 -1.510148
v 0.308238 0.485489 -1.510148
v 0.338238 0.515489 -1.510148
v 0.338238 0.515489 -1.480148
v 0.338238 0.485489 -1.480148
v 0.338238 0.485489 -1.510148
usemtl mat21

vn -0.000000 0.000000 -1.000000
vn -0.000000 0.000000 -1.000000
vn -0.000000 0.000000 -1.000000
vn -0.000000 0.000000 -1.000000
vn 0.000000 0.000000 1.000000
vn 0.000000 0.000000 1.000000
vn 0.000000 0.000000 1.000000
vn 0.000000 0.000000 1.000000
vn -0.000000 -1.000000 0.000000
vn -0.000000 -1.000000 0.000000
vn -0.000000 -1.000000 0.000000
vn -0.000000 -1.000000 0.000000
vn 0.000000 1.000000 0.000000
vn 0.000000 1.000000 0.000000
vn 0.000000 1.000000 0.000000
vn 0.000000 1.000000 0.000000
vn -1.000000 0.000000 0.000000
vn -1.000000 0.000000 0.000000
vn -1.000000 0.000000 0.000000
vn -1.000000 0.000000 0.000000
vn 1.000000 -0.000000 -0.000000
vn 1.000000 -0.000000 -0.000000
vn 1.000000 -0.000000 -0.000000
vn 1.000000 -0.000000 -0.000000

vt -0.089443 0.044721
vt -0.088101 0.047405
vt -0.085418 0.046063
vt -0.086759 0.043380
vt 0.085418 0.046063
vt 0.088101 0.047405
vt 0.089443 0.044721
vt 0.086759 0.043380
vt -0.057379 0.023678
vt -0.054554 0.022669
vt -0.055563 0.019844
vt -0.058388 0.020853
vt 0.055563 0.019844
vt 0.054554 0.022669
vt 0.057379 0.023678
vt 0.058388 0.020853
vt -0.008370 0.113225
vt -0.010114 0.115666
vt -0.007672 0.117410
vt -0.005929 0.114969
vt 0.007672 0.117410
vt 0.010114 0.115666
vt 0.008370 0.113225
vt 0.005929 0.114969
s off
f 1/1/1 2/2/2 3/3/3
f 1/1/1 3/3/3 4/4/4
f 5/5/5 6/6/6 7/7/7
f 5/5/5 7/7/7 8/8/8
f 9/9/9 10/10/10 11/11/11
f 9/9/9 11/11/11 12/12/12
f 13/13/13 14/14/14 15/15/15
f 13/13/13 15/15/15 16/16/16
f 17/17/17 18/18/18 19/19/19
f 17/17/17 19/19/19 20/20/20
f 21/21/21 22/22/22 23/23/23
f 21/21/21 23/23/23 24/24/24
