# Exported using automatic converter by Erwin Coumans
mtllib model6.mtl
#object group1487006333_5

v 1.581155 -0.429749 -2.847418
v 1.580304 -0.430473 -2.775426
v 1.581132 -0.502464 -2.776140
v 1.581984 -0.501741 -2.848131
v 1.509143 -0.503284 -2.777000
v 1.508314 -0.431293 -2.776287
v 1.509166 -0.430570 -2.848278
v 1.509994 -0.502561 -2.848991
v 1.581132 -0.502464 -2.776140
v 1.509143 -0.503284 -2.777000
v 1.509994 -0.502561 -2.848991
v 1.581984 -0.501741 -2.848131
v 1.509166 -0.430570 -2.848278
v 1.508314 -0.431293 -2.776287
v 1.580304 -0.430473 -2.775426
v 1.581155 -0.429749 -2.847418
v 1.509994 -0.502561 -2.848991
v 1.509166 -0.430570 -2.848278
v 1.581155 -0.429749 -2.847418
v 1.581984 -0.501741 -2.848131
v 1.580304 -0.430473 -2.775426
v 1.508314 -0.431293 -2.776287
v 1.509143 -0.503284 -2.777000
v 1.581132 -0.502464 -2.776140
usemtl mat12

vn 0.999864 0.011393 0.011944
vn 0.999864 0.011393 0.011944
vn 0.999864 0.011393 0.011944
vn 0.999864 0.011393 0.011944
vn -0.999864 -0.011393 -0.011944
vn -0.999864 -0.011393 -0.011944
vn -0.999864 -0.011393 -0.011944
vn -0.999864 -0.011393 -0.011944
vn 0.011511 -0.999885 -0.009911
vn 0.011511 -0.999885 -0.009911
vn 0.011511 -0.999885 -0.009911
vn 0.011511 -0.999885 -0.009911
vn -0.011511 0.999885 0.009911
vn -0.011511 0.999885 0.009911
vn -0.011511 0.999885 0.009911
vn -0.011511 0.999885 0.009911
vn 0.011830 0.010047 -0.999879
vn 0.011830 0.010047 -0.999879
vn 0.011830 0.010047 -0.999879
vn 0.011830 0.010047 -0.999879
vn -0.011830 -0.010047 0.999879
vn -0.011830 -0.010047 0.999879
vn -0.011830 -0.010047 0.999879
vn -0.011830 -0.010047 0.999879

vt -0.154942 0.122108
vt -0.149241 0.117711
vt -0.153638 0.112009
vt -0.159339 0.116406
vt 0.153638 0.112009
vt 0.149241 0.117711
vt 0.154942 0.122108
vt 0.159339 0.116406
vt -0.134319 0.183596
vt -0.136838 0.176851
vt -0.143583 0.179370
vt -0.141064 0.186115
vt 0.143583 0.179370
vt 0.136838 0.176851
vt 0.134319 0.183596
vt 0.141064 0.186115
vt 0.055959 0.103786
vt 0.049479 0.106924
vt 0.052617 0.113404
vt 0.059097 0.110266
vt -0.052617 0.113404
vt -0.049479 0.106924
vt -0.055959 0.103786
vt -0.059097 0.110266
s off
f 1/1/1 2/2/2 3/3/3
f 1/1/1 3/3/3 4/4/4
f 5/5/5 6/6/6 7/7/7
f 5/5/5 7/7/7 8/8/8
f 9/9/9 10/10/10 11/11/11
f 9/9/9 11/11/11 12/12/12
f 13/13/13 14/14/14 15/15/15
f 13/13/13 15/15/15 16/16/16
f 17/17/17 18/18/18 19/19/19
f 17/17/17 19/19/19 20/20/20
f 21/21/21 22/22/22 23/23/23
f 21/21/21 23/23/23 24/24/24
