# Exported using automatic converter by Erwin Coumans
mtllib model6.mtl
#object mesh1460085640

v 1.301078 1.224275 3.554713
v 1.299626 1.233947 3.556798
v 1.309322 1.243199 3.558782
v 1.310921 1.233553 3.556681
v 1.299626 1.233947 3.556798
v 1.300197 1.237166 3.566248
v 1.309718 1.246385 3.568252
v 1.309322 1.243199 3.558782
v 1.300197 1.237166 3.566248
v 1.302221 1.230713 3.573614
v 1.311713 1.239927 3.575622
v 1.309718 1.246385 3.568252
v 1.302221 1.230713 3.573614
v 1.303672 1.221041 3.571530
v 1.313311 1.230282 3.573521
v 1.311713 1.239927 3.575622
v 1.303672 1.221041 3.571530
v 1.303101 1.217822 3.562079
v 1.312915 1.227095 3.564050
v 1.313311 1.230282 3.573521
v 1.303101 1.217822 3.562079
v 1.301078 1.224275 3.554713
v 1.310921 1.233553 3.556681
v 1.312915 1.227095 3.564050
v 1.303101 1.217822 3.562079
v 1.303672 1.221041 3.571530
v 1.302221 1.230713 3.573614
v 1.300197 1.237166 3.566248
v 1.299626 1.233947 3.556798
v 1.301078 1.224275 3.554713
v 1.310921 1.233553 3.556681
v 1.309322 1.243199 3.558782
v 1.309718 1.246385 3.568252
v 1.311713 1.239927 3.575622
v 1.313311 1.230282 3.573521
v 1.312915 1.227095 3.564050
usemtl mat21

vn -0.002733 0.211333 -0.977410
vn -0.002733 0.211333 -0.977410
vn -0.002733 0.211333 -0.977410
vn -0.002733 0.211333 -0.977410
vn -0.653875 0.726174 -0.212411
vn -0.653875 0.726174 -0.212411
vn -0.653875 0.726174 -0.212411
vn -0.653875 0.726174 -0.212411
vn -0.615142 0.502217 0.607765
vn -0.615142 0.502217 0.607765
vn -0.615142 0.502217 0.607765
vn -0.615142 0.502217 0.607765
vn 0.000015 -0.211745 0.977325
vn 0.000015 -0.211745 0.977325
vn 0.000015 -0.211745 0.977325
vn 0.000015 -0.211745 0.977325
vn 0.650326 -0.729020 0.213556
vn 0.650326 -0.729020 0.213556
vn 0.650326 -0.729020 0.213556
vn 0.650326 -0.729020 0.213556
vn 0.604225 -0.510357 -0.611922
vn 0.604225 -0.510357 -0.611922
vn 0.604225 -0.510357 -0.611922
vn 0.604225 -0.510357 -0.611922
vn -0.978000 -0.172177 0.117777
vn -0.978000 -0.172177 0.117777
vn -0.978000 -0.172177 0.117777
vn -0.978000 -0.172177 0.117777
vn -0.978000 -0.172177 0.117777
vn -0.978000 -0.172177 0.117777
vn 0.977447 0.184415 -0.102898
vn 0.977447 0.184415 -0.102898
vn 0.977447 0.184415 -0.102898
vn 0.977447 0.184415 -0.102898
vn 0.977447 0.184415 -0.102898
vn 0.977447 0.184415 -0.102898

vt -0.203755 0.190323
vt -0.204725 0.190567
vt -0.205230 0.191824
vt -0.204257 0.191595
vt -0.485445 0.016318
vt -0.486439 0.016214
vt -0.487105 0.017378
vt -0.486112 0.017497
vt -0.335374 0.194455
vt -0.336300 0.194079
vt -0.336559 0.195391
vt -0.335633 0.195770
vt 0.204353 0.191942
vt 0.203383 0.191698
vt 0.203889 0.192950
vt 0.204862 0.193179
vt 0.486362 0.015586
vt 0.485367 0.015690
vt 0.486036 0.016880
vt 0.487028 0.016760
vt 0.333749 0.190225
vt 0.332821 0.190599
vt 0.333087 0.191940
vt 0.334014 0.191564
vt -0.459244 -0.143855
vt -0.460196 -0.144159
vt -0.460936 -0.143487
vt -0.460723 -0.142510
vt -0.459771 -0.142205
vt -0.459031 -0.142878
vt 0.449776 -0.167245
vt 0.450551 -0.166613
vt 0.451486 -0.166969
vt 0.451645 -0.167956
vt 0.450870 -0.168588
vt 0.449935 -0.168232
s off
f 1/1/1 2/2/2 3/3/3
f 1/1/1 3/3/3 4/4/4
f 5/5/5 6/6/6 7/7/7
f 5/5/5 7/7/7 8/8/8
f 9/9/9 10/10/10 11/11/11
f 9/9/9 11/11/11 12/12/12
f 13/13/13 14/14/14 15/15/15
f 13/13/13 15/15/15 16/16/16
f 17/17/17 18/18/18 19/19/19
f 17/17/17 19/19/19 20/20/20
f 21/21/21 22/22/22 23/23/23
f 21/21/21 23/23/23 24/24/24
f 25/25/25 26/26/26 27/27/27
f 25/25/25 27/27/27 28/28/28
f 25/25/25 28/28/28 29/29/29
f 25/25/25 29/29/29 30/30/30
f 31/31/31 32/32/32 33/33/33
f 31/31/31 33/33/33 34/34/34
f 31/31/31 34/34/34 35/35/35
f 31/31/31 35/35/35 36/36/36
