# Exported using automatic converter by Erwin Coumans
mtllib model6.mtl
#object mesh1326567218

v -2.471762 0.275489 0.769852
v -2.471762 0.375489 0.769852
v -2.501762 0.375489 0.769852
v -2.501762 0.275489 0.769852
v -2.501762 0.375489 0.739852
v -2.471762 0.375489 0.739852
v -2.471762 0.275489 0.739852
v -2.501762 0.275489 0.739852
v -2.501762 0.375489 0.769852
v -2.501762 0.375489 0.739852
v -2.501762 0.275489 0.739852
v -2.501762 0.275489 0.769852
v -2.471762 0.275489 0.739852
v -2.471762 0.375489 0.739852
v -2.471762 0.375489 0.769852
v -2.471762 0.275489 0.769852
v -2.501762 0.275489 0.739852
v -2.471762 0.275489 0.739852
v -2.471762 0.275489 0.769852
v -2.501762 0.275489 0.769852
v -2.471762 0.375489 0.769852
v -2.471762 0.375489 0.739852
v -2.501762 0.375489 0.739852
v -2.501762 0.375489 0.769852
usemtl mat15

vn 0.000000 0.000000 1.000000
vn 0.000000 0.000000 1.000000
vn 0.000000 0.000000 1.000000
vn 0.000000 0.000000 1.000000
vn 0.000000 0.000000 -1.000000
vn 0.000000 0.000000 -1.000000
vn 0.000000 0.000000 -1.000000
vn 0.000000 0.000000 -1.000000
vn -1.000000 0.000000 0.000000
vn -1.000000 0.000000 0.000000
vn -1.000000 0.000000 0.000000
vn -1.000000 0.000000 0.000000
vn 1.000000 0.000000 0.000000
vn 1.000000 0.000000 0.000000
vn 1.000000 0.000000 0.000000
vn 1.000000 0.000000 0.000000
vn 0.000000 -1.000000 0.000000
vn 0.000000 -1.000000 0.000000
vn 0.000000 -1.000000 0.000000
vn 0.000000 -1.000000 0.000000
vn 0.000000 1.000000 0.000000
vn 0.000000 1.000000 0.000000
vn 0.000000 1.000000 0.000000
vn 0.000000 1.000000 0.000000

vt 0.192302 -0.214663
vt 0.201246 -0.210190
vt 0.202588 -0.212874
vt 0.193643 -0.217346
vt -0.202588 -0.212874
vt -0.201246 -0.210190
vt -0.192302 -0.214663
vt -0.193643 -0.217346
vt -0.185066 -0.026504
vt -0.182625 -0.024761
vt -0.176813 -0.032898
vt -0.179254 -0.034642
vt 0.176813 -0.032898
vt 0.182625 -0.024761
vt 0.185066 -0.026504
vt 0.179254 -0.034642
vt 0.058993 -0.319452
vt 0.060002 -0.316627
vt 0.062828 -0.317636
vt 0.061819 -0.320461
vt -0.062828 -0.317636
vt -0.060002 -0.316627
vt -0.058993 -0.319452
vt -0.061819 -0.320461
s off
f 1/1/1 2/2/2 3/3/3
f 1/1/1 3/3/3 4/4/4
f 5/5/5 6/6/6 7/7/7
f 5/5/5 7/7/7 8/8/8
f 9/9/9 10/10/10 11/11/11
f 9/9/9 11/11/11 12/12/12
f 13/13/13 14/14/14 15/15/15
f 13/13/13 15/15/15 16/16/16
f 17/17/17 18/18/18 19/19/19
f 17/17/17 19/19/19 20/20/20
f 21/21/21 22/22/22 23/23/23
f 21/21/21 23/23/23 24/24/24
