# Exported using automatic converter by Erwin Coumans
mtllib botlab.mtl
#object mesh51557616

v 0.849789 -0.812773 2.466374
v 0.850145 -0.816680 2.477456
v 0.844258 -0.804171 2.481463
v 0.843901 -0.800235 2.470393
v 0.850145 -0.816680 2.477456
v 0.861416 -0.817245 2.480748
v 0.855534 -0.804845 2.484718
v 0.844258 -0.804171 2.481463
v 0.861416 -0.817245 2.480748
v 0.868026 -0.813688 2.471702
v 0.862147 -0.801326 2.475657
v 0.855534 -0.804845 2.484718
v 0.868026 -0.813688 2.471702
v 0.860840 -0.810924 2.462818
v 0.854957 -0.798476 2.466804
v 0.862147 -0.801326 2.475657
v 0.860840 -0.810924 2.462818
v 0.849789 -0.812773 2.466374
v 0.843901 -0.800235 2.470393
v 0.854957 -0.798476 2.466804
v 0.860840 -0.810924 2.462818
v 0.868026 -0.813688 2.471702
v 0.861416 -0.817245 2.480748
v 0.850145 -0.816680 2.477456
v 0.849789 -0.812773 2.466374
v 0.899138 -0.735071 2.460163
v 0.890010 -0.732718 2.453138
v 0.880163 -0.735528 2.458913
v 0.883206 -0.739616 2.469507
v 0.894932 -0.739334 2.470279
v 0.857902 -0.779366 2.460525
v 0.865098 -0.782354 2.469328
v 0.862147 -0.801326 2.475657
v 0.854957 -0.798476 2.466804
v 0.865098 -0.782354 2.469328
v 0.858489 -0.785949 2.478361
v 0.855534 -0.804845 2.484718
v 0.862147 -0.801326 2.475657
v 0.858489 -0.785949 2.478361
v 0.847209 -0.785184 2.475140
v 0.844258 -0.804171 2.481463
v 0.855534 -0.804845 2.484718
v 0.847209 -0.785184 2.475140
v 0.846846 -0.781115 2.464117
v 0.843901 -0.800235 2.470393
v 0.844258 -0.804171 2.481463
v 0.846846 -0.781115 2.464117
v 0.857902 -0.779366 2.460525
v 0.854957 -0.798476 2.466804
v 0.843901 -0.800235 2.470393
v 0.856686 -0.764183 2.459750
v 0.863884 -0.767227 2.468533
v 0.865098 -0.782354 2.469328
v 0.857902 -0.779366 2.460525
v 0.863884 -0.767227 2.468533
v 0.857272 -0.770758 2.477589
v 0.858489 -0.785949 2.478361
v 0.865098 -0.782354 2.469328
v 0.857272 -0.770758 2.477589
v 0.845989 -0.769896 2.474404
v 0.847209 -0.785184 2.475140
v 0.858489 -0.785949 2.478361
v 0.845989 -0.769896 2.474404
v 0.845627 -0.765833 2.463379
v 0.846846 -0.781115 2.464117
v 0.847209 -0.785184 2.475140
v 0.845627 -0.765833 2.463379
v 0.856686 -0.764183 2.459750
v 0.857902 -0.779366 2.460525
v 0.846846 -0.781115 2.464117
v 0.861228 -0.747195 2.454860
v 0.868428 -0.750333 2.463606
v 0.863884 -0.767227 2.468533
v 0.856686 -0.764183 2.459750
v 0.868428 -0.750333 2.463606
v 0.861822 -0.754018 2.472605
v 0.857272 -0.770758 2.477589
v 0.863884 -0.767227 2.468533
v 0.861822 -0.754018 2.472605
v 0.850539 -0.753157 2.469419
v 0.845989 -0.769896 2.474404
v 0.857272 -0.770758 2.477589
v 0.850539 -0.753157 2.469419
v 0.850172 -0.748940 2.458452
v 0.845627 -0.765833 2.463379
v 0.845989 -0.769896 2.474404
v 0.850172 -0.748940 2.458452
v 0.861228 -0.747195 2.454860
v 0.856686 -0.764183 2.459750
v 0.845627 -0.765833 2.463379
v 0.869985 -0.739932 2.445719
v 0.877186 -0.743099 2.454455
v 0.868428 -0.750333 2.463606
v 0.861228 -0.747195 2.454860
v 0.877186 -0.743099 2.454455
v 0.870583 -0.746887 2.463413
v 0.861822 -0.754018 2.472605
v 0.868428 -0.750333 2.463606
v 0.870583 -0.746887 2.463413
v 0.859301 -0.746062 2.460213
v 0.850539 -0.753157 2.469419
v 0.861822 -0.754018 2.472605
v 0.859301 -0.746062 2.460213
v 0.858931 -0.741763 2.449278
v 0.850172 -0.748940 2.458452
v 0.850539 -0.753157 2.469419
v 0.858931 -0.741763 2.449278
v 0.869985 -0.739932 2.445719
v 0.861228 -0.747195 2.454860
v 0.850172 -0.748940 2.458452
v 0.884082 -0.743789 2.462100
v 0.876258 -0.742845 2.453377
v 0.877186 -0.743099 2.454455
v 0.869985 -0.739932 2.445719
v 0.876258 -0.742845 2.453377
v 0.865662 -0.745541 2.457694
v 0.870583 -0.746887 2.463413
v 0.877186 -0.743099 2.454455
v 0.865662 -0.745541 2.457694
v 0.866937 -0.748151 2.469085
v 0.859301 -0.746062 2.460213
v 0.870583 -0.746887 2.463413
v 0.866937 -0.748151 2.469085
v 0.878321 -0.747069 2.471808
v 0.858931 -0.741763 2.449278
v 0.859301 -0.746062 2.460213
v 0.878321 -0.747069 2.471808
v 0.884082 -0.743789 2.462100
v 0.869985 -0.739932 2.445719
v 0.858931 -0.741763 2.449278
v 0.887421 -0.752670 2.473518
v 0.879416 -0.749850 2.465384
v 0.876258 -0.742845 2.453377
v 0.884082 -0.743789 2.462100
v 0.879416 -0.749850 2.465384
v 0.868764 -0.751972 2.469881
v 0.865662 -0.745541 2.457694
v 0.876258 -0.742845 2.453377
v 0.868764 -0.751972 2.469881
v 0.870186 -0.756103 2.480795
v 0.866937 -0.748151 2.469085
v 0.865662 -0.745541 2.457694
v 0.870186 -0.756103 2.480795
v 0.881716 -0.756534 2.483043
v 0.878321 -0.747069 2.471808
v 0.866937 -0.748151 2.469085
v 0.881716 -0.756534 2.483043
v 0.887421 -0.752670 2.473518
v 0.884082 -0.743789 2.462100
v 0.878321 -0.747069 2.471808
v 0.887603 -0.752559 2.473146
v 0.875873 -0.751983 2.472634
v 0.879416 -0.749850 2.465384
v 0.887421 -0.752670 2.473518
v 0.875873 -0.751983 2.472634
v 0.872836 -0.749521 2.461547
v 0.868764 -0.751972 2.469881
v 0.879416 -0.749850 2.465384
v 0.872836 -0.749521 2.461547
v 0.882691 -0.748577 2.455207
v 0.870186 -0.756103 2.480795
v 0.868764 -0.751972 2.469881
v 0.882691 -0.748577 2.455207
v 0.891817 -0.750455 2.462375
v 0.881716 -0.756534 2.483043
v 0.870186 -0.756103 2.480795
v 0.891817 -0.750455 2.462375
v 0.887603 -0.752559 2.473146
v 0.887421 -0.752670 2.473518
v 0.881716 -0.756534 2.483043
v 0.894932 -0.739334 2.470279
v 0.883206 -0.739616 2.469507
v 0.875873 -0.751983 2.472634
v 0.887603 -0.752559 2.473146
v 0.883206 -0.739616 2.469507
v 0.880163 -0.735528 2.458913
v 0.872836 -0.749521 2.461547
v 0.875873 -0.751983 2.472634
v 0.880163 -0.735528 2.458913
v 0.890010 -0.732718 2.453138
v 0.882691 -0.748577 2.455207
v 0.872836 -0.749521 2.461547
v 0.890010 -0.732718 2.453138
v 0.899138 -0.735071 2.460163
v 0.891817 -0.750455 2.462375
v 0.882691 -0.748577 2.455207
v 0.899138 -0.735071 2.460163
v 0.894932 -0.739334 2.470279
v 0.887603 -0.752559 2.473146
v 0.891817 -0.750455 2.462375
usemtl mat20

vn -0.912617 -0.393725 -0.110049
vn -0.912617 -0.393725 -0.110049
vn -0.912617 -0.393725 -0.110049
vn -0.912617 -0.393725 -0.110049
vn -0.275150 -0.408681 0.870214
vn -0.275150 -0.408681 0.870214
vn -0.275150 -0.408681 0.870214
vn -0.275150 -0.408681 0.870214
vn 0.765031 0.164003 0.622760
vn 0.765031 0.164003 0.622760
vn 0.765031 0.164003 0.622760
vn 0.765031 0.164003 0.622760
vn 0.744690 0.496011 -0.446552
vn 0.744690 0.496011 -0.446552
vn 0.744690 0.496011 -0.446552
vn 0.744690 0.496011 -0.446552
vn -0.325709 0.145855 -0.934152
vn -0.325709 0.145855 -0.934152
vn -0.325709 0.145855 -0.934152
vn -0.325709 0.145855 -0.934152
vn 0.050189 -0.941413 -0.333501
vn 0.050189 -0.941413 -0.333501
vn 0.050189 -0.941413 -0.333501
vn 0.050189 -0.941413 -0.333501
vn 0.050189 -0.941413 -0.333501
vn -0.046786 0.927319 0.371335
vn -0.046786 0.927319 0.371335
vn -0.046786 0.927319 0.371335
vn -0.046786 0.927319 0.371335
vn -0.046786 0.927319 0.371335
vn 0.678420 -0.323456 -0.659639
vn 0.678420 -0.323456 -0.659639
vn 0.678420 -0.323456 -0.659639
vn 0.678420 -0.323456 -0.659639
vn 0.789351 0.080805 0.608602
vn 0.789351 0.080805 0.608602
vn 0.789351 0.080805 0.608602
vn 0.789351 0.080805 0.608602
vn -0.239132 0.341537 0.908938
vn -0.239132 0.341537 0.908938
vn -0.239132 0.341537 0.908938
vn -0.239132 0.341537 0.908938
vn -0.978008 0.183866 0.098458
vn -0.978008 0.183866 0.098458
vn -0.978008 0.183866 0.098458
vn -0.978008 0.183866 0.098458
vn -0.259517 -0.265015 -0.928664
vn -0.259517 -0.265015 -0.928664
vn -0.259517 -0.265015 -0.928664
vn -0.259517 -0.265015 -0.928664
vn 0.778532 0.029950 -0.626890
vn 0.778532 0.029950 -0.626890
vn 0.778532 0.029950 -0.626890
vn 0.778532 0.029950 -0.626890
vn 0.785626 0.094568 0.611431
vn 0.785626 0.094568 0.611431
vn 0.785626 0.094568 0.611431
vn 0.785626 0.094568 0.611431
vn -0.271324 0.025892 0.962140
vn -0.271324 0.025892 0.962140
vn -0.271324 0.025892 0.962140
vn -0.271324 0.025892 0.962140
vn -0.996841 -0.079350 0.003490
vn -0.996841 -0.079350 0.003490
vn -0.996841 -0.079350 0.003490
vn -0.996841 -0.079350 0.003490
vn -0.299670 -0.071171 -0.951384
vn -0.299670 -0.071171 -0.951384
vn -0.299670 -0.071171 -0.951384
vn -0.299670 -0.071171 -0.951384
vn 0.651136 -0.367099 -0.664274
vn 0.651136 -0.367099 -0.664274
vn 0.651136 -0.367099 -0.664274
vn 0.651136 -0.367099 -0.664274
vn 0.815372 -0.050521 0.576729
vn 0.815372 -0.050521 0.576729
vn 0.815372 -0.050521 0.576729
vn 0.815372 -0.050521 0.576729
vn -0.232233 0.335042 0.913134
vn -0.232233 0.335042 0.913134
vn -0.232233 0.335042 0.913134
vn -0.232233 0.335042 0.913134
vn -0.943916 0.297470 0.143298
vn -0.943916 0.297470 0.143298
vn -0.943916 0.297470 0.143298
vn -0.943916 0.297470 0.143298
vn -0.276578 -0.198288 -0.940312
vn -0.276578 -0.198288 -0.940312
vn -0.276578 -0.198288 -0.940312
vn -0.276578 -0.198288 -0.940312
vn 0.206937 -0.853460 -0.478313
vn 0.206937 -0.853460 -0.478313
vn 0.206937 -0.853460 -0.478313
vn 0.206937 -0.853460 -0.478313
vn 0.791939 -0.473546 0.385471
vn 0.791939 -0.473546 0.385471
vn 0.791939 -0.473546 0.385471
vn 0.791939 -0.473546 0.385471
vn -0.094072 0.828931 0.551384
vn -0.094072 0.828931 0.551384
vn -0.094072 0.828931 0.551384
vn -0.094072 0.828931 0.551384
vn -0.342405 0.871735 0.350480
vn -0.342405 0.871735 0.350480
vn -0.342405 0.871735 0.350480
vn -0.342405 0.871735 0.350480
vn -0.098979 -0.733208 -0.672762
vn -0.098979 -0.733208 -0.672762
vn -0.098979 -0.733208 -0.672762
vn -0.098979 -0.733208 -0.672762
vn 0.717519 -0.204846 -0.665736
vn 0.717519 -0.204846 -0.665736
vn 0.717519 -0.204846 -0.665736
vn 0.717519 -0.204846 -0.665736
vn -0.110524 0.941972 0.316976
vn -0.110524 0.941972 0.316976
vn -0.110524 0.941972 0.316976
vn -0.110524 0.941972 0.316976
vn -0.008225 -0.974899 -0.222495
vn -0.008225 -0.974899 -0.222495
vn -0.008225 -0.974899 -0.222495
vn -0.008225 -0.974899 -0.222495
vn -0.174348 0.914389 0.365370
vn -0.174348 0.914389 0.365370
vn -0.174348 0.914389 0.365370
vn -0.174348 0.914389 0.365370
vn -0.067334 0.956684 0.283236
vn -0.067334 0.956684 0.283236
vn -0.067334 0.956684 0.283236
vn -0.067334 0.956684 0.283236
vn 0.460613 -0.670048 -0.582127
vn 0.460613 -0.670048 -0.582127
vn 0.460613 -0.670048 -0.582127
vn 0.460613 -0.670048 -0.582127
vn -0.002842 -0.874530 -0.484964
vn -0.002842 -0.874530 -0.484964
vn -0.002842 -0.874530 -0.484964
vn -0.002842 -0.874530 -0.484964
vn -0.900109 -0.435075 -0.022645
vn -0.900109 -0.435075 -0.022645
vn -0.900109 -0.435075 -0.022645
vn -0.900109 -0.435075 -0.022645
vn -0.157440 0.764091 0.625602
vn -0.157440 0.764091 0.625602
vn -0.157440 0.764091 0.625602
vn -0.157440 0.764091 0.625602
vn 0.378400 0.771132 0.512025
vn 0.378400 0.771132 0.512025
vn 0.378400 0.771132 0.512025
vn 0.378400 0.771132 0.512025
vn -0.034013 -0.954202 -0.297224
vn -0.034013 -0.954202 -0.297224
vn -0.034013 -0.954202 -0.297224
vn -0.034013 -0.954202 -0.297224
vn 0.000000 0.000000 0.000000
vn 0.000000 0.000000 0.000000
vn 0.000000 0.000000 0.000000
vn 0.000000 0.000000 0.000000
vn -0.127194 -0.933026 -0.336578
vn -0.127194 -0.933026 -0.336578
vn -0.127194 -0.933026 -0.336578
vn -0.127194 -0.933026 -0.336578
vn 0.017534 -0.961507 -0.274221
vn 0.017534 -0.961507 -0.274221
vn 0.017534 -0.961507 -0.274221
vn 0.017534 -0.961507 -0.274221
vn 0.704617 -0.695695 0.139726
vn 0.704617 -0.695695 0.139726
vn 0.704617 -0.695695 0.139726
vn 0.704617 -0.695695 0.139726
vn -0.049654 0.254651 0.965757
vn -0.049654 0.254651 0.965757
vn -0.049654 0.254651 0.965757
vn -0.049654 0.254651 0.965757
vn -0.774394 0.511924 0.371818
vn -0.774394 0.511924 0.371818
vn -0.774394 0.511924 0.371818
vn -0.774394 0.511924 0.371818
vn -0.537402 0.132441 -0.832862
vn -0.537402 0.132441 -0.832862
vn -0.537402 0.132441 -0.832862
vn -0.537402 0.132441 -0.832862
vn 0.522586 -0.351300 -0.776848
vn 0.522586 -0.351300 -0.776848
vn 0.522586 -0.351300 -0.776848
vn 0.522586 -0.351300 -0.776848
vn 0.882145 -0.410812 0.230333
vn 0.882145 -0.410812 0.230333
vn 0.882145 -0.410812 0.230333
vn 0.882145 -0.410812 0.230333

vt 0.008093 -0.333488
vt 0.008317 -0.334642
vt 0.006894 -0.334861
vt 0.006668 -0.333708
vt 0.057605 0.170381
vt 0.057282 0.171512
vt 0.058705 0.171385
vt 0.059039 0.170258
vt 0.023530 -0.237357
vt 0.023405 -0.236188
vt 0.024826 -0.236299
vt 0.024954 -0.237468
vt -0.147743 0.282565
vt -0.147624 0.281396
vt -0.148970 0.280905
vt -0.149081 0.282075
vt -0.039532 -0.045817
vt -0.039852 -0.046948
vt -0.041291 -0.047038
vt -0.040963 -0.045910
vt 0.319274 -0.092050
vt 0.320426 -0.091818
vt 0.321003 -0.092843
vt 0.320207 -0.093708
vt 0.319138 -0.093218
vt -0.314331 -0.088751
vt -0.313257 -0.089229
vt -0.313380 -0.090398
vt -0.314530 -0.090643
vt -0.315118 -0.089625
vt 0.287291 0.057276
vt 0.288433 0.057556
vt 0.289631 0.055928
vt 0.288493 0.055636
vt 0.060293 -0.229552
vt 0.060476 -0.230713
vt 0.059093 -0.232179
vt 0.058902 -0.231019
vt -0.191571 0.027809
vt -0.190791 0.026929
vt -0.192315 0.025598
vt -0.193089 0.026483
vt -0.309516 -0.143632
vt -0.308631 -0.142859
vt -0.308505 -0.144888
vt -0.309399 -0.145652
vt 0.090236 -0.085259
vt 0.090570 -0.084132
vt 0.092167 -0.085390
vt 0.091834 -0.086517
vt 0.250732 0.157704
vt 0.251825 0.158137
vt 0.252838 0.157004
vt 0.251747 0.156566
vt 0.056092 -0.229923
vt 0.056272 -0.231085
vt 0.054898 -0.231750
vt 0.054725 -0.230587
vt -0.105300 0.105169
vt -0.104626 0.104206
vt -0.106009 0.103541
vt -0.106676 0.104510
vt -0.236211 -0.242066
vt -0.235632 -0.241043
vt -0.234699 -0.242263
vt -0.235279 -0.243286
vt 0.025837 -0.066959
vt 0.026185 -0.065836
vt 0.027601 -0.066403
vt 0.027262 -0.067529
vt 0.286262 0.050227
vt 0.287408 0.050492
vt 0.288324 0.048922
vt 0.287181 0.048649
vt 0.113415 -0.213652
vt 0.113681 -0.214797
vt 0.112599 -0.216242
vt 0.112317 -0.215100
vt -0.186126 0.030036
vt -0.185344 0.029159
vt -0.186566 0.027830
vt -0.187348 0.028708
vt -0.323350 -0.108870
vt -0.322404 -0.108171
vt -0.322368 -0.109989
vt -0.323323 -0.110675
vt 0.065545 -0.078066
vt 0.065882 -0.076939
vt 0.067202 -0.078200
vt 0.066857 -0.079323
vt 0.307081 -0.069850
vt 0.308238 -0.069637
vt 0.308828 -0.070971
vt 0.307672 -0.071185
vt 0.248142 -0.139694
vt 0.248635 -0.140761
vt 0.248948 -0.142183
vt 0.248445 -0.141121
vt -0.290870 -0.082375
vt -0.290041 -0.083208
vt -0.290617 -0.084545
vt -0.291447 -0.083713
vt -0.325761 -0.064116
vt -0.324690 -0.063631
vt -0.325282 -0.064963
vt -0.326354 -0.065445
vt 0.242637 -0.108221
vt 0.242887 -0.107073
vt 0.243421 -0.108431
vt 0.243168 -0.109579
vt 0.276475 0.093587
vt 0.275423 0.093061
vt 0.275558 0.093113
vt 0.274424 0.092803
vt -0.321356 -0.082069
vt -0.321339 -0.083244
vt -0.322081 -0.083052
vt -0.321496 -0.082033
vt 0.324853 -0.088824
vt 0.325967 -0.089198
vt 0.324820 -0.089509
vt 0.325592 -0.088623
vt -0.320419 -0.078047
vt -0.321124 -0.077105
vt -0.318198 -0.077852
vt -0.319267 -0.078341
vt -0.324462 -0.085439
vt -0.323784 -0.084479
vt -0.321661 -0.085038
vt -0.321542 -0.086207
vt 0.306373 -0.022402
vt 0.305240 -0.022705
vt 0.303871 -0.022318
vt 0.304972 -0.021917
vt 0.295343 -0.099107
vt 0.295260 -0.100279
vt 0.293905 -0.099882
vt 0.293974 -0.098708
vt 0.035318 -0.336679
vt 0.035709 -0.337787
vt 0.034898 -0.336583
vt 0.034653 -0.335433
vt -0.283280 -0.066447
vt -0.284038 -0.065552
vt -0.282602 -0.065096
vt -0.281891 -0.066029
vt -0.239646 -0.174074
vt -0.239154 -0.173006
vt -0.237765 -0.172483
vt -0.238227 -0.173564
vt 0.319397 -0.096682
vt 0.318817 -0.097704
vt 0.318297 -0.097050
vt 0.319424 -0.096715
vt 0.000000 0.000000
vt 0.000000 0.000000
vt 0.000000 0.000000
vt 0.000000 0.000000
vt 0.307135 -0.113230
vt 0.307048 -0.112058
vt 0.308804 -0.114424
vt 0.307707 -0.114001
vt 0.322099 -0.088849
vt 0.323161 -0.088345
vt 0.324670 -0.090184
vt 0.323967 -0.091127
vt 0.310152 -0.094754
vt 0.311009 -0.095558
vt 0.311037 -0.095591
vt 0.311694 -0.096565
vt -0.132772 0.008864
vt -0.132188 0.007844
vt -0.132922 0.006569
vt -0.133572 0.007549
vt -0.333559 -0.032154
vt -0.332429 -0.031835
vt -0.332532 -0.033432
vt -0.333691 -0.033619
vt -0.075390 -0.111430
vt -0.075125 -0.110285
vt -0.074029 -0.111660
vt -0.074478 -0.112747
vt 0.250901 0.064500
vt 0.251946 0.065039
vt 0.252617 0.063458
vt 0.251592 0.062883
vt 0.270362 -0.154223
vt 0.270971 -0.155228
vt 0.270477 -0.156685
vt 0.269697 -0.155806
s off
f 1/1/1 2/2/2 3/3/3
f 1/1/1 3/3/3 4/4/4
f 5/5/5 6/6/6 7/7/7
f 5/5/5 7/7/7 8/8/8
f 9/9/9 10/10/10 11/11/11
f 9/9/9 11/11/11 12/12/12
f 13/13/13 14/14/14 15/15/15
f 13/13/13 15/15/15 16/16/16
f 17/17/17 18/18/18 19/19/19
f 17/17/17 19/19/19 20/20/20
f 21/21/21 22/22/22 23/23/23
f 21/21/21 23/23/23 24/24/24
f 21/21/21 24/24/24 25/25/25
f 26/26/26 27/27/27 28/28/28
f 26/26/26 28/28/28 29/29/29
f 26/26/26 29/29/29 30/30/30
f 31/31/31 32/32/32 33/33/33
f 31/31/31 33/33/33 34/34/34
f 35/35/35 36/36/36 37/37/37
f 35/35/35 37/37/37 38/38/38
f 39/39/39 40/40/40 41/41/41
f 39/39/39 41/41/41 42/42/42
f 43/43/43 44/44/44 45/45/45
f 43/43/43 45/45/45 46/46/46
f 47/47/47 48/48/48 49/49/49
f 47/47/47 49/49/49 50/50/50
f 51/51/51 52/52/52 53/53/53
f 51/51/51 53/53/53 54/54/54
f 55/55/55 56/56/56 57/57/57
f 55/55/55 57/57/57 58/58/58
f 59/59/59 60/60/60 61/61/61
f 59/59/59 61/61/61 62/62/62
f 63/63/63 64/64/64 65/65/65
f 63/63/63 65/65/65 66/66/66
f 67/67/67 68/68/68 69/69/69
f 67/67/67 69/69/69 70/70/70
f 71/71/71 72/72/72 73/73/73
f 71/71/71 73/73/73 74/74/74
f 75/75/75 76/76/76 77/77/77
f 75/75/75 77/77/77 78/78/78
f 79/79/79 80/80/80 81/81/81
f 79/79/79 81/81/81 82/82/82
f 83/83/83 84/84/84 85/85/85
f 83/83/83 85/85/85 86/86/86
f 87/87/87 88/88/88 89/89/89
f 87/87/87 89/89/89 90/90/90
f 91/91/91 92/92/92 93/93/93
f 91/91/91 93/93/93 94/94/94
f 95/95/95 96/96/96 97/97/97
f 95/95/95 97/97/97 98/98/98
f 99/99/99 100/100/100 101/101/101
f 99/99/99 101/101/101 102/102/102
f 103/103/103 104/104/104 105/105/105
f 103/103/103 105/105/105 106/106/106
f 107/107/107 108/108/108 109/109/109
f 107/107/107 109/109/109 110/110/110
f 111/111/111 112/112/112 113/113/113
f 111/111/111 113/113/113 114/114/114
f 115/115/115 116/116/116 117/117/117
f 115/115/115 117/117/117 118/118/118
f 119/119/119 120/120/120 121/121/121
f 119/119/119 121/121/121 122/122/122
f 123/123/123 124/124/124 125/125/125
f 123/123/123 125/125/125 126/126/126
f 127/127/127 128/128/128 129/129/129
f 127/127/127 129/129/129 130/130/130
f 131/131/131 132/132/132 133/133/133
f 131/131/131 133/133/133 134/134/134
f 135/135/135 136/136/136 137/137/137
f 135/135/135 137/137/137 138/138/138
f 139/139/139 140/140/140 141/141/141
f 139/139/139 141/141/141 142/142/142
f 143/143/143 144/144/144 145/145/145
f 143/143/143 145/145/145 146/146/146
f 147/147/147 148/148/148 149/149/149
f 147/147/147 149/149/149 150/150/150
f 151/151/151 152/152/152 153/153/153
f 151/151/151 153/153/153 154/154/154
f 155/155/155 156/156/156 157/157/157
f 155/155/155 157/157/157 158/158/158
f 159/159/159 160/160/160 161/161/161
f 159/159/159 161/161/161 162/162/162
f 163/163/163 164/164/164 165/165/165
f 163/163/163 165/165/165 166/166/166
f 167/167/167 168/168/168 169/169/169
f 167/167/167 169/169/169 170/170/170
f 171/171/171 172/172/172 173/173/173
f 171/171/171 173/173/173 174/174/174
f 175/175/175 176/176/176 177/177/177
f 175/175/175 177/177/177 178/178/178
f 179/179/179 180/180/180 181/181/181
f 179/179/179 181/181/181 182/182/182
f 183/183/183 184/184/184 185/185/185
f 183/183/183 185/185/185 186/186/186
f 187/187/187 188/188/188 189/189/189
f 187/187/187 189/189/189 190/190/190
