# Exported using automatic converter by Erwin Coumans
mtllib botlab.mtl
#object mesh1907123138

v -0.390341 -0.929175 2.548002
v -0.386881 -0.931791 2.558928
v -0.403154 -0.929618 2.574783
v -0.406595 -0.927081 2.563832
v -0.386881 -0.931791 2.558928
v -0.375437 -0.929257 2.559819
v -0.391695 -0.927142 2.575656
v -0.403154 -0.929618 2.574783
v -0.375437 -0.929257 2.559819
v -0.371823 -0.925074 2.549444
v -0.388054 -0.923074 2.565245
v -0.391695 -0.927142 2.575656
v -0.371823 -0.925074 2.549444
v -0.381035 -0.925024 2.542140
v -0.397263 -0.923036 2.557937
v -0.388054 -0.923074 2.565245
v -0.381035 -0.925024 2.542140
v -0.390341 -0.929175 2.548002
v -0.406595 -0.927081 2.563832
v -0.397263 -0.923036 2.557937
v -0.381035 -0.925024 2.542140
v -0.371823 -0.925074 2.549444
v -0.375437 -0.929257 2.559819
v -0.386881 -0.931791 2.558928
v -0.390341 -0.929175 2.548002
v -0.464054 -0.955516 2.582502
v -0.454224 -0.955153 2.588938
v -0.445597 -0.950932 2.582159
v -0.450096 -0.948687 2.571533
v -0.461504 -0.951519 2.571745
v -0.408280 -0.924489 2.557465
v -0.417747 -0.926990 2.563971
v -0.388054 -0.923074 2.565245
v -0.397263 -0.923036 2.557937
v -0.417747 -0.926990 2.563971
v -0.414067 -0.930093 2.574696
v -0.391695 -0.927142 2.575656
v -0.388054 -0.923074 2.565245
v -0.414067 -0.930093 2.574696
v -0.402326 -0.929509 2.574818
v -0.403154 -0.929618 2.574783
v -0.391695 -0.927142 2.575656
v -0.402326 -0.929509 2.574818
v -0.398750 -0.926046 2.564169
v -0.406595 -0.927081 2.563832
v -0.403154 -0.929618 2.574783
v -0.398750 -0.926046 2.564169
v -0.408280 -0.924489 2.557465
v -0.397263 -0.923036 2.557937
v -0.406595 -0.927081 2.563832
v -0.420454 -0.936997 2.558172
v -0.429693 -0.941059 2.564200
v -0.417747 -0.926990 2.563971
v -0.408280 -0.924489 2.557465
v -0.429693 -0.941059 2.564200
v -0.426106 -0.943524 2.575120
v -0.414067 -0.930093 2.574696
v -0.417747 -0.926990 2.563971
v -0.426106 -0.943524 2.575120
v -0.414650 -0.940987 2.575841
v -0.402326 -0.929509 2.574818
v -0.414067 -0.930093 2.574696
v -0.414650 -0.940987 2.575841
v -0.411157 -0.936953 2.565367
v -0.398750 -0.926046 2.564169
v -0.402326 -0.929509 2.574818
v -0.411157 -0.936953 2.565367
v -0.420454 -0.936997 2.558172
v -0.408280 -0.924489 2.557465
v -0.398750 -0.926046 2.564169
v -0.432752 -0.944079 2.559633
v -0.441989 -0.948152 2.565658
v -0.429693 -0.941059 2.564200
v -0.420454 -0.936997 2.558172
v -0.441989 -0.948152 2.565658
v -0.438398 -0.950633 2.576573
v -0.426106 -0.943524 2.575120
v -0.429693 -0.941059 2.564200
v -0.438398 -0.950633 2.576573
v -0.426943 -0.948093 2.577295
v -0.414650 -0.940987 2.575841
v -0.426106 -0.943524 2.575120
v -0.426943 -0.948093 2.577295
v -0.423454 -0.944042 2.566826
v -0.411157 -0.936953 2.565367
v -0.414650 -0.940987 2.575841
v -0.423454 -0.944042 2.566826
v -0.432752 -0.944079 2.559633
v -0.420454 -0.936997 2.558172
v -0.411157 -0.936953 2.565367
v -0.448683 -0.950967 2.564104
v -0.437870 -0.946372 2.564502
v -0.441989 -0.948152 2.565658
v -0.432752 -0.944079 2.559633
v -0.437870 -0.946372 2.564502
v -0.433417 -0.948480 2.575176
v -0.438398 -0.950633 2.576573
v -0.441989 -0.948152 2.565658
v -0.433417 -0.948480 2.575176
v -0.441479 -0.954378 2.581375
v -0.426943 -0.948093 2.577295
v -0.438398 -0.950633 2.576573
v -0.441479 -0.954378 2.581375
v -0.450913 -0.955915 2.574532
v -0.423454 -0.944042 2.566826
v -0.426943 -0.948093 2.577295
v -0.450913 -0.955915 2.574532
v -0.448683 -0.950967 2.564104
v -0.432752 -0.944079 2.559633
v -0.423454 -0.944042 2.566826
v -0.461504 -0.951519 2.571745
v -0.450096 -0.948687 2.571533
v -0.437870 -0.946372 2.564502
v -0.448683 -0.950967 2.564104
v -0.450096 -0.948687 2.571533
v -0.445597 -0.950932 2.582159
v -0.433417 -0.948480 2.575176
v -0.437870 -0.946372 2.564502
v -0.445597 -0.950932 2.582159
v -0.454224 -0.955153 2.588938
v -0.441479 -0.954378 2.581375
v -0.433417 -0.948480 2.575176
v -0.454224 -0.955153 2.588938
v -0.464054 -0.955516 2.582502
v -0.450913 -0.955915 2.574532
v -0.441479 -0.954378 2.581375
v -0.464054 -0.955516 2.582502
v -0.461504 -0.951519 2.571745
v -0.448683 -0.950967 2.564104
v -0.450913 -0.955915 2.574532
usemtl mat15

vn -0.263280 -0.954246 -0.141766
vn -0.263280 -0.954246 -0.141766
vn -0.263280 -0.954246 -0.141766
vn -0.263280 -0.954246 -0.141766
vn 0.180178 -0.933115 0.311177
vn 0.180178 -0.933115 0.311177
vn 0.180178 -0.933115 0.311177
vn 0.180178 -0.933115 0.311177
vn 0.542830 0.698291 0.466611
vn 0.542830 0.698291 0.466611
vn 0.542830 0.698291 0.466611
vn 0.542830 0.698291 0.466611
vn 0.057595 0.996118 -0.066571
vn 0.057595 0.996118 -0.066571
vn 0.057595 0.996118 -0.066571
vn 0.057595 0.996118 -0.066571
vn -0.608792 0.411401 -0.678322
vn -0.608792 0.411401 -0.678322
vn -0.608792 0.411401 -0.678322
vn -0.608792 0.411401 -0.678322
vn 0.228422 -0.927944 -0.294524
vn 0.228422 -0.927944 -0.294524
vn 0.228422 -0.927944 -0.294524
vn 0.228422 -0.927944 -0.294524
vn 0.228422 -0.927944 -0.294524
vn -0.225401 0.929516 0.291880
vn -0.225401 0.929516 0.291880
vn -0.225401 0.929516 0.291880
vn -0.225401 0.929516 0.291880
vn -0.225401 0.929516 0.291880
vn -0.136156 0.974809 0.176664
vn -0.136156 0.974809 0.176664
vn -0.136156 0.974809 0.176664
vn -0.136156 0.974809 0.176664
vn -0.137380 0.937923 0.318476
vn -0.137380 0.937923 0.318476
vn -0.137380 0.937923 0.318476
vn -0.137380 0.937923 0.318476
vn 0.008561 -0.367507 0.929982
vn 0.008561 -0.367507 0.929982
vn 0.008561 -0.367507 0.929982
vn 0.008561 -0.367507 0.929982
vn -0.137288 0.954600 0.264370
vn -0.137288 0.954600 0.264370
vn -0.137288 0.954600 0.264370
vn -0.137288 0.954600 0.264370
vn 0.136567 -0.904393 -0.404256
vn 0.136567 -0.904393 -0.404256
vn 0.136567 -0.904393 -0.404256
vn 0.136567 -0.904393 -0.404256
vn -0.594167 0.517535 -0.615730
vn -0.594167 0.517535 -0.615730
vn -0.594167 0.517535 -0.615730
vn -0.594167 0.517535 -0.615730
vn -0.689755 0.610866 0.388691
vn -0.689755 0.610866 0.388691
vn -0.689755 0.610866 0.388691
vn -0.689755 0.610866 0.388691
vn -0.050512 0.107125 0.992962
vn -0.050512 0.107125 0.992962
vn -0.050512 0.107125 0.992962
vn -0.050512 0.107125 0.992962
vn 0.668571 -0.742584 -0.039787
vn 0.668571 -0.742584 -0.039787
vn 0.668571 -0.742584 -0.039787
vn 0.668571 -0.742584 -0.039787
vn 0.468009 -0.547700 -0.693537
vn 0.468009 -0.547700 -0.693537
vn 0.468009 -0.547700 -0.693537
vn 0.468009 -0.547700 -0.693537
vn -0.506756 0.835375 -0.212948
vn -0.506756 0.835375 -0.212948
vn -0.506756 0.835375 -0.212948
vn -0.506756 0.835375 -0.212948
vn -0.441567 0.832829 0.333787
vn -0.441567 0.832829 0.333787
vn -0.441567 0.832829 0.333787
vn -0.441567 0.832829 0.333787
vn -0.154647 0.447565 0.880778
vn -0.154647 0.447565 0.880778
vn -0.154647 0.447565 0.880778
vn -0.154647 0.447565 0.880778
vn 0.476857 -0.861664 -0.173616
vn 0.476857 -0.861664 -0.173616
vn 0.476857 -0.861664 -0.173616
vn 0.476857 -0.861664 -0.173616
vn 0.388056 -0.776022 -0.497195
vn 0.388056 -0.776022 -0.497195
vn 0.388056 -0.776022 -0.497195
vn 0.388056 -0.776022 -0.497195
vn -0.391681 0.919850 0.021504
vn -0.391681 0.919850 0.021504
vn -0.391681 0.919850 0.021504
vn -0.391681 0.919850 0.021504
vn 0.304475 -0.902297 -0.305214
vn 0.304475 -0.902297 -0.305214
vn 0.304475 -0.902297 -0.305214
vn 0.304475 -0.902297 -0.305214
vn -0.216728 0.832362 0.510100
vn -0.216728 0.832362 0.510100
vn -0.216728 0.832362 0.510100
vn -0.216728 0.832362 0.510100
vn 0.326156 -0.913123 -0.244599
vn 0.326156 -0.913123 -0.244599
vn 0.326156 -0.913123 -0.244599
vn 0.326156 -0.913123 -0.244599
vn 0.282845 -0.888586 -0.361129
vn 0.282845 -0.888586 -0.361129
vn 0.282845 -0.888586 -0.361129
vn 0.282845 -0.888586 -0.361129
vn -0.296634 0.895672 -0.331331
vn -0.296634 0.895672 -0.331331
vn -0.296634 0.895672 -0.331331
vn -0.296634 0.895672 -0.331331
vn -0.061090 0.972564 0.224470
vn -0.061090 0.972564 0.224470
vn -0.061090 0.972564 0.224470
vn -0.061090 0.972564 0.224470
vn 0.441285 0.338262 0.831171
vn 0.441285 0.338262 0.831171
vn 0.441285 0.338262 0.831171
vn 0.441285 0.338262 0.831171
vn 0.053485 -0.996453 0.064966
vn 0.053485 -0.996453 0.064966
vn 0.053485 -0.996453 0.064966
vn 0.053485 -0.996453 0.064966
vn -0.249741 -0.870590 -0.423913
vn -0.249741 -0.870590 -0.423913
vn -0.249741 -0.870590 -0.423913
vn -0.249741 -0.870590 -0.423913

vt 0.278587 -0.217507
vt 0.279748 -0.217689
vt 0.280362 -0.219887
vt 0.279202 -0.219701
vt 0.293179 -0.145592
vt 0.293532 -0.144471
vt 0.294809 -0.146358
vt 0.294460 -0.147481
vt -0.155672 -0.304675
vt -0.155081 -0.303659
vt -0.154820 -0.305918
vt -0.155403 -0.306939
vt -0.302503 -0.168426
vt -0.301520 -0.169071
vt -0.302513 -0.171116
vt -0.303496 -0.170472
vt -0.188775 -0.212577
vt -0.188970 -0.213736
vt -0.190375 -0.215530
vt -0.190169 -0.214372
vt 0.286417 -0.191556
vt 0.287448 -0.190992
vt 0.288303 -0.191799
vt 0.287800 -0.192861
vt 0.286634 -0.192711
vt -0.287311 -0.201507
vt -0.288283 -0.200845
vt -0.287954 -0.199717
vt -0.286779 -0.199681
vt -0.286382 -0.200787
vt -0.293474 -0.197564
vt -0.293735 -0.198711
vt -0.294947 -0.195969
vt -0.293924 -0.196547
vt -0.280706 -0.203919
vt -0.281873 -0.204067
vt -0.282846 -0.202029
vt -0.281998 -0.201214
vt 0.105208 -0.044206
vt 0.104893 -0.043073
vt 0.104909 -0.043155
vt 0.104796 -0.041985
vt -0.287979 -0.201720
vt -0.287111 -0.200926
vt -0.286777 -0.201644
vt -0.287943 -0.201796
vt 0.270911 -0.202280
vt 0.269871 -0.202827
vt 0.270364 -0.201830
vt 0.270560 -0.202990
vt -0.216104 -0.206229
vt -0.216334 -0.207381
vt -0.217190 -0.205746
vt -0.216814 -0.204633
vt -0.291443 -0.131072
vt -0.292610 -0.131206
vt -0.292862 -0.129420
vt -0.291700 -0.129245
vt -0.045861 -0.088941
vt -0.046196 -0.087814
vt -0.045773 -0.086182
vt -0.045262 -0.087239
vt 0.303595 -0.185672
vt 0.302757 -0.184848
vt 0.303147 -0.183238
vt 0.304009 -0.184037
vt 0.234440 -0.099467
vt 0.233461 -0.100115
vt 0.233412 -0.098370
vt 0.234444 -0.097812
vt -0.292492 -0.188520
vt -0.292763 -0.189664
vt -0.293067 -0.188270
vt -0.292795 -0.187126
vt -0.289700 -0.176657
vt -0.290868 -0.176790
vt -0.291119 -0.175385
vt -0.289951 -0.175252
vt -0.153021 -0.129932
vt -0.153471 -0.128845
vt -0.153536 -0.127420
vt -0.153086 -0.128506
vt 0.301699 -0.183586
vt 0.300830 -0.182794
vt 0.301106 -0.181395
vt 0.301975 -0.182186
vt 0.270092 -0.164089
vt 0.269071 -0.164670
vt 0.269287 -0.163260
vt 0.270308 -0.162678
vt -0.302173 -0.189423
vt -0.302570 -0.188316
vt -0.302543 -0.188779
vt -0.302278 -0.187634
vt 0.288086 -0.191241
vt 0.289261 -0.191276
vt 0.289221 -0.191835
vt 0.288053 -0.191703
vt -0.259981 -0.190692
vt -0.260316 -0.191819
vt -0.260442 -0.190189
vt -0.259938 -0.191251
vt 0.295001 -0.192095
vt 0.294029 -0.192757
vt 0.294242 -0.189675
vt 0.295114 -0.190464
vt 0.282403 -0.193160
vt 0.281473 -0.192442
vt 0.281604 -0.190655
vt 0.282629 -0.190079
vt -0.288120 -0.164513
vt -0.288363 -0.163366
vt -0.287974 -0.161993
vt -0.287616 -0.163109
vt -0.286852 -0.209930
vt -0.288027 -0.209965
vt -0.287857 -0.208550
vt -0.286682 -0.208511
vt -0.041135 -0.263332
vt -0.041165 -0.264506
vt -0.041623 -0.263095
vt -0.041425 -0.261937
vt 0.304137 -0.179694
vt 0.303227 -0.180436
vt 0.302861 -0.178944
vt 0.303807 -0.178248
vt 0.232214 -0.259418
vt 0.231379 -0.258592
vt 0.231448 -0.257101
vt 0.232323 -0.257885
s off
f 1/1/1 2/2/2 3/3/3
f 1/1/1 3/3/3 4/4/4
f 5/5/5 6/6/6 7/7/7
f 5/5/5 7/7/7 8/8/8
f 9/9/9 10/10/10 11/11/11
f 9/9/9 11/11/11 12/12/12
f 13/13/13 14/14/14 15/15/15
f 13/13/13 15/15/15 16/16/16
f 17/17/17 18/18/18 19/19/19
f 17/17/17 19/19/19 20/20/20
f 21/21/21 22/22/22 23/23/23
f 21/21/21 23/23/23 24/24/24
f 21/21/21 24/24/24 25/25/25
f 26/26/26 27/27/27 28/28/28
f 26/26/26 28/28/28 29/29/29
f 26/26/26 29/29/29 30/30/30
f 31/31/31 32/32/32 33/33/33
f 31/31/31 33/33/33 34/34/34
f 35/35/35 36/36/36 37/37/37
f 35/35/35 37/37/37 38/38/38
f 39/39/39 40/40/40 41/41/41
f 39/39/39 41/41/41 42/42/42
f 43/43/43 44/44/44 45/45/45
f 43/43/43 45/45/45 46/46/46
f 47/47/47 48/48/48 49/49/49
f 47/47/47 49/49/49 50/50/50
f 51/51/51 52/52/52 53/53/53
f 51/51/51 53/53/53 54/54/54
f 55/55/55 56/56/56 57/57/57
f 55/55/55 57/57/57 58/58/58
f 59/59/59 60/60/60 61/61/61
f 59/59/59 61/61/61 62/62/62
f 63/63/63 64/64/64 65/65/65
f 63/63/63 65/65/65 66/66/66
f 67/67/67 68/68/68 69/69/69
f 67/67/67 69/69/69 70/70/70
f 71/71/71 72/72/72 73/73/73
f 71/71/71 73/73/73 74/74/74
f 75/75/75 76/76/76 77/77/77
f 75/75/75 77/77/77 78/78/78
f 79/79/79 80/80/80 81/81/81
f 79/79/79 81/81/81 82/82/82
f 83/83/83 84/84/84 85/85/85
f 83/83/83 85/85/85 86/86/86
f 87/87/87 88/88/88 89/89/89
f 87/87/87 89/89/89 90/90/90
f 91/91/91 92/92/92 93/93/93
f 91/91/91 93/93/93 94/94/94
f 95/95/95 96/96/96 97/97/97
f 95/95/95 97/97/97 98/98/98
f 99/99/99 100/100/100 101/101/101
f 99/99/99 101/101/101 102/102/102
f 103/103/103 104/104/104 105/105/105
f 103/103/103 105/105/105 106/106/106
f 107/107/107 108/108/108 109/109/109
f 107/107/107 109/109/109 110/110/110
f 111/111/111 112/112/112 113/113/113
f 111/111/111 113/113/113 114/114/114
f 115/115/115 116/116/116 117/117/117
f 115/115/115 117/117/117 118/118/118
f 119/119/119 120/120/120 121/121/121
f 119/119/119 121/121/121 122/122/122
f 123/123/123 124/124/124 125/125/125
f 123/123/123 125/125/125 126/126/126
f 127/127/127 128/128/128 129/129/129
f 127/127/127 129/129/129 130/130/130
