# Exported using automatic converter by Erwin Coumans
mtllib model6.mtl
#object group473545677_2

v 2.904171 -0.630687 -0.295634
v 2.925684 -0.631621 -0.254853
v 2.925609 -0.669794 -0.255689
v 2.904096 -0.668859 -0.296470
v 2.903996 -0.719756 -0.297584
v 2.925510 -0.720691 -0.256803
v 2.923745 -0.721696 -0.210731
v 2.899176 -0.722502 -0.171713
v 2.858385 -0.722894 -0.150203
v 2.812302 -0.722765 -0.151965
v 2.773275 -0.722151 -0.176527
v 2.751761 -0.721216 -0.217307
v 2.753526 -0.720211 -0.263380
v 2.778095 -0.719405 -0.302398
v 2.818887 -0.719014 -0.323908
v 2.864970 -0.719142 -0.322146
v 2.925684 -0.631621 -0.254853
v 2.923920 -0.632626 -0.208781
v 2.923845 -0.670799 -0.209617
v 2.925609 -0.669794 -0.255689
v 2.899350 -0.633433 -0.169763
v 2.858559 -0.633824 -0.148253
v 2.858484 -0.671997 -0.149088
v 2.899275 -0.671606 -0.170599
v 2.858559 -0.633824 -0.148253
v 2.812476 -0.633696 -0.150014
v 2.812401 -0.671868 -0.150850
v 2.858484 -0.671997 -0.149088
v 2.812476 -0.633696 -0.150014
v 2.773449 -0.633082 -0.174577
v 2.773374 -0.671255 -0.175413
v 2.812401 -0.671868 -0.150850
v 2.773449 -0.633082 -0.174577
v 2.751936 -0.632147 -0.215357
v 2.751861 -0.670320 -0.216193
v 2.773374 -0.671255 -0.175413
v 2.751936 -0.632147 -0.215357
v 2.753700 -0.631142 -0.261429
v 2.753625 -0.669314 -0.262265
v 2.751861 -0.670320 -0.216193
v 2.753700 -0.631142 -0.261429
v 2.778270 -0.630336 -0.300448
v 2.778195 -0.668508 -0.301284
v 2.753625 -0.669314 -0.262265
v 2.778270 -0.630336 -0.300448
v 2.819061 -0.629944 -0.321958
v 2.818986 -0.668117 -0.322794
v 2.778195 -0.668508 -0.301284
v 2.819061 -0.629944 -0.321958
v 2.865144 -0.630073 -0.320196
v 2.865069 -0.668245 -0.321032
v 2.818986 -0.668117 -0.322794
v 2.865144 -0.630073 -0.320196
v 2.904171 -0.630687 -0.295634
v 2.904096 -0.668859 -0.296470
v 2.865069 -0.668245 -0.321032
v 2.904544 -0.439824 -0.291454
v 2.926057 -0.440758 -0.250674
v 2.926007 -0.466207 -0.251231
v 2.904494 -0.465272 -0.292011
v 2.926057 -0.440758 -0.250674
v 2.924293 -0.441764 -0.204601
v 2.924243 -0.467212 -0.205159
v 2.926007 -0.466207 -0.251231
v 2.899723 -0.442570 -0.165583
v 2.858932 -0.442961 -0.144073
v 2.858882 -0.468410 -0.144630
v 2.899673 -0.468018 -0.166140
v 2.858932 -0.442961 -0.144073
v 2.812849 -0.442833 -0.145835
v 2.812799 -0.468281 -0.146392
v 2.858882 -0.468410 -0.144630
v 2.812849 -0.442833 -0.145835
v 2.773822 -0.442219 -0.170397
v 2.773772 -0.467667 -0.170954
v 2.812799 -0.468281 -0.146392
v 2.773822 -0.442219 -0.170397
v 2.752309 -0.441284 -0.211178
v 2.752259 -0.466732 -0.211735
v 2.773772 -0.467667 -0.170954
v 2.752309 -0.441284 -0.211178
v 2.754073 -0.440279 -0.257250
v 2.754023 -0.465727 -0.257807
v 2.752259 -0.466732 -0.211735
v 2.754073 -0.440279 -0.257250
v 2.778643 -0.439472 -0.296268
v 2.778593 -0.464921 -0.296825
v 2.754023 -0.465727 -0.257807
v 2.778643 -0.439472 -0.296268
v 2.819434 -0.439081 -0.317778
v 2.819384 -0.464530 -0.318336
v 2.778593 -0.464921 -0.296825
v 2.819434 -0.439081 -0.317778
v 2.865517 -0.439210 -0.316016
v 2.865467 -0.464658 -0.316574
v 2.819384 -0.464530 -0.318336
v 2.865517 -0.439210 -0.316016
v 2.904544 -0.439824 -0.291454
v 2.904494 -0.465272 -0.292011
v 2.865467 -0.464658 -0.316574
v 2.865517 -0.439210 -0.316016
v 2.819434 -0.439081 -0.317778
v 2.778643 -0.439472 -0.296268
v 2.754073 -0.440279 -0.257250
v 2.752309 -0.441284 -0.211178
v 2.773822 -0.442219 -0.170397
v 2.812849 -0.442833 -0.145835
v 2.858932 -0.442961 -0.144073
v 2.899723 -0.442570 -0.165583
v 2.924293 -0.441764 -0.204601
v 2.926057 -0.440758 -0.250674
v 2.904544 -0.439824 -0.291454
usemtl mat23

vn 0.884521 0.008479 -0.466424
vn 0.884521 0.008479 -0.466424
vn 0.884521 0.008479 -0.466424
vn 0.884521 0.008479 -0.466424
vn -0.001950 -0.999758 -0.021888
vn -0.001950 -0.999758 -0.021888
vn -0.001950 -0.999758 -0.021888
vn -0.001950 -0.999758 -0.021888
vn -0.001950 -0.999758 -0.021888
vn -0.001950 -0.999758 -0.021888
vn -0.001950 -0.999758 -0.021888
vn -0.001950 -0.999758 -0.021888
vn -0.001950 -0.999758 -0.021888
vn -0.001950 -0.999758 -0.021888
vn -0.001950 -0.999758 -0.021888
vn -0.001950 -0.999758 -0.021888
vn 0.999266 -0.002797 0.038205
vn 0.999266 -0.002797 0.038205
vn 0.999266 -0.002797 0.038205
vn 0.999266 -0.002797 0.038205
vn 0.466498 -0.020276 0.884290
vn 0.466498 -0.020276 0.884290
vn 0.466498 -0.020276 0.884290
vn 0.466498 -0.020276 0.884290
vn -0.038254 -0.021800 0.999030
vn -0.038254 -0.021800 0.999030
vn -0.038254 -0.021800 0.999030
vn -0.038254 -0.021800 0.999030
vn -0.532772 -0.017482 0.846078
vn -0.532772 -0.017482 0.846078
vn -0.532772 -0.017482 0.846078
vn -0.532772 -0.017482 0.846078
vn -0.884522 -0.008482 0.466422
vn -0.884522 -0.008482 0.466422
vn -0.884522 -0.008482 0.466422
vn -0.884522 -0.008482 0.466422
vn -0.999266 0.002793 -0.038205
vn -0.999266 0.002793 -0.038205
vn -0.999266 0.002793 -0.038205
vn -0.999266 0.002793 -0.038205
vn -0.846257 0.013319 -0.532608
vn -0.846257 0.013319 -0.532608
vn -0.846257 0.013319 -0.532608
vn -0.846257 0.013319 -0.532608
vn -0.466500 0.020276 -0.884289
vn -0.466500 0.020276 -0.884289
vn -0.466500 0.020276 -0.884289
vn -0.466500 0.020276 -0.884289
vn 0.038255 0.021800 -0.999030
vn 0.038255 0.021800 -0.999030
vn 0.038255 0.021800 -0.999030
vn 0.038255 0.021800 -0.999030
vn 0.532773 0.017482 -0.846078
vn 0.532773 0.017482 -0.846078
vn 0.532773 0.017482 -0.846078
vn 0.532773 0.017482 -0.846078
vn 0.884523 0.008476 -0.466420
vn 0.884523 0.008476 -0.466420
vn 0.884523 0.008476 -0.466420
vn 0.884523 0.008476 -0.466420
vn 0.999266 -0.002797 0.038205
vn 0.999266 -0.002797 0.038205
vn 0.999266 -0.002797 0.038205
vn 0.999266 -0.002797 0.038205
vn 0.466502 -0.020279 0.884287
vn 0.466502 -0.020279 0.884287
vn 0.466502 -0.020279 0.884287
vn 0.466502 -0.020279 0.884287
vn -0.038256 -0.021801 0.999030
vn -0.038256 -0.021801 0.999030
vn -0.038256 -0.021801 0.999030
vn -0.038256 -0.021801 0.999030
vn -0.532771 -0.017481 0.846079
vn -0.532771 -0.017481 0.846079
vn -0.532771 -0.017481 0.846079
vn -0.532771 -0.017481 0.846079
vn -0.884525 -0.008478 0.466415
vn -0.884525 -0.008478 0.466415
vn -0.884525 -0.008478 0.466415
vn -0.884525 -0.008478 0.466415
vn -0.999266 0.002797 -0.038205
vn -0.999266 0.002797 -0.038205
vn -0.999266 0.002797 -0.038205
vn -0.999266 0.002797 -0.038205
vn -0.846257 0.013323 -0.532608
vn -0.846257 0.013323 -0.532608
vn -0.846257 0.013323 -0.532608
vn -0.846257 0.013323 -0.532608
vn -0.466506 0.020279 -0.884285
vn -0.466506 0.020279 -0.884285
vn -0.466506 0.020279 -0.884285
vn -0.466506 0.020279 -0.884285
vn 0.038257 0.021801 -0.999030
vn 0.038257 0.021801 -0.999030
vn 0.038257 0.021801 -0.999030
vn 0.038257 0.021801 -0.999030
vn 0.532773 0.017481 -0.846078
vn 0.532773 0.017481 -0.846078
vn 0.532773 0.017481 -0.846078
vn 0.532773 0.017481 -0.846078
vn 0.001950 0.999758 0.021888
vn 0.001950 0.999758 0.021888
vn 0.001950 0.999758 0.021888
vn 0.001950 0.999758 0.021888
vn 0.001950 0.999758 0.021888
vn 0.001950 0.999758 0.021888
vn 0.001950 0.999758 0.021888
vn 0.001950 0.999758 0.021888
vn 0.001950 0.999758 0.021888
vn 0.001950 0.999758 0.021888
vn 0.001950 0.999758 0.021888
vn 0.001950 0.999758 0.021888

vt 0.170832 0.035287
vt 0.175268 0.036549
vt 0.176313 0.032877
vt 0.171877 0.031615
vt 0.145811 0.222962
vt 0.150383 0.223570
vt 0.154646 0.221812
vt 0.157459 0.218157
vt 0.158068 0.213586
vt 0.156309 0.209323
vt 0.152655 0.206510
vt 0.148083 0.205901
vt 0.143820 0.207659
vt 0.141007 0.211314
vt 0.140399 0.215885
vt 0.142157 0.220149
vt 0.033419 -0.044033
vt 0.036982 -0.046960
vt 0.034558 -0.049910
vt 0.030995 -0.046983
vt -0.094465 0.171598
vt -0.092510 0.167421
vt -0.095968 0.165802
vt -0.097923 0.169979
vt -0.127057 0.224590
vt -0.124988 0.220468
vt -0.128400 0.218755
vt -0.130469 0.222877
vt -0.162490 0.192443
vt -0.159698 0.188772
vt -0.162737 0.186460
vt -0.165529 0.190131
vt -0.175268 0.036548
vt -0.170832 0.035286
vt -0.171877 0.031613
vt -0.176313 0.032875
vt -0.036981 -0.046961
vt -0.033418 -0.044034
vt -0.030994 -0.046984
vt -0.034557 -0.049911
vt 0.049875 0.059835
vt 0.052205 0.063815
vt 0.055500 0.061886
vt 0.053170 0.057906
vt 0.092510 0.167421
vt 0.094465 0.171597
vt 0.097923 0.169979
vt 0.095968 0.165802
vt 0.124988 0.220468
vt 0.127057 0.224590
vt 0.130469 0.222877
vt 0.128401 0.218755
vt 0.159698 0.188772
vt 0.162490 0.192442
vt 0.165529 0.190131
vt 0.162737 0.186460
vt 0.165608 0.053648
vt 0.170044 0.054910
vt 0.170740 0.052462
vt 0.166305 0.051200
vt 0.045539 -0.029283
vt 0.049102 -0.032211
vt 0.047486 -0.034177
vt 0.043923 -0.031249
vt -0.077174 0.179691
vt -0.075219 0.175514
vt -0.077524 0.174435
vt -0.079479 0.178612
vt -0.109994 0.233154
vt -0.107926 0.229032
vt -0.110201 0.227891
vt -0.112269 0.232012
vt -0.147296 0.204001
vt -0.144504 0.200331
vt -0.146530 0.198790
vt -0.149322 0.202460
vt -0.170044 0.054907
vt -0.165608 0.053645
vt -0.166304 0.051197
vt -0.170740 0.052459
vt -0.049102 -0.032211
vt -0.045539 -0.029283
vt -0.043923 -0.031250
vt -0.047486 -0.034177
vt 0.033400 0.069482
vt 0.035730 0.073462
vt 0.037926 0.072176
vt 0.035596 0.068196
vt 0.075219 0.175513
vt 0.077174 0.179690
vt 0.079479 0.178611
vt 0.077524 0.174434
vt 0.107926 0.229033
vt 0.109995 0.233154
vt 0.112270 0.232012
vt 0.110201 0.227891
vt 0.144504 0.200331
vt 0.147296 0.204001
vt 0.149322 0.202460
vt 0.146530 0.198789
vt -0.142157 0.220149
vt -0.140399 0.215885
vt -0.141007 0.211314
vt -0.143820 0.207660
vt -0.148084 0.205901
vt -0.152655 0.206510
vt -0.156309 0.209323
vt -0.158068 0.213586
vt -0.157459 0.218157
vt -0.154646 0.221812
vt -0.150383 0.223570
vt -0.145812 0.222962
s off
f 1/1/1 2/2/2 3/3/3
f 1/1/1 3/3/3 4/4/4
f 5/5/5 6/6/6 7/7/7
f 5/5/5 7/7/7 8/8/8
f 5/5/5 8/8/8 9/9/9
f 5/5/5 9/9/9 10/10/10
f 5/5/5 10/10/10 11/11/11
f 5/5/5 11/11/11 12/12/12
f 5/5/5 12/12/12 13/13/13
f 5/5/5 13/13/13 14/14/14
f 5/5/5 14/14/14 15/15/15
f 5/5/5 15/15/15 16/16/16
f 17/17/17 18/18/18 19/19/19
f 17/17/17 19/19/19 20/20/20
f 21/21/21 22/22/22 23/23/23
f 21/21/21 23/23/23 24/24/24
f 25/25/25 26/26/26 27/27/27
f 25/25/25 27/27/27 28/28/28
f 29/29/29 30/30/30 31/31/31
f 29/29/29 31/31/31 32/32/32
f 33/33/33 34/34/34 35/35/35
f 33/33/33 35/35/35 36/36/36
f 37/37/37 38/38/38 39/39/39
f 37/37/37 39/39/39 40/40/40
f 41/41/41 42/42/42 43/43/43
f 41/41/41 43/43/43 44/44/44
f 45/45/45 46/46/46 47/47/47
f 45/45/45 47/47/47 48/48/48
f 49/49/49 50/50/50 51/51/51
f 49/49/49 51/51/51 52/52/52
f 53/53/53 54/54/54 55/55/55
f 53/53/53 55/55/55 56/56/56
f 57/57/57 58/58/58 59/59/59
f 57/57/57 59/59/59 60/60/60
f 61/61/61 62/62/62 63/63/63
f 61/61/61 63/63/63 64/64/64
f 65/65/65 66/66/66 67/67/67
f 65/65/65 67/67/67 68/68/68
f 69/69/69 70/70/70 71/71/71
f 69/69/69 71/71/71 72/72/72
f 73/73/73 74/74/74 75/75/75
f 73/73/73 75/75/75 76/76/76
f 77/77/77 78/78/78 79/79/79
f 77/77/77 79/79/79 80/80/80
f 81/81/81 82/82/82 83/83/83
f 81/81/81 83/83/83 84/84/84
f 85/85/85 86/86/86 87/87/87
f 85/85/85 87/87/87 88/88/88
f 89/89/89 90/90/90 91/91/91
f 89/89/89 91/91/91 92/92/92
f 93/93/93 94/94/94 95/95/95
f 93/93/93 95/95/95 96/96/96
f 97/97/97 98/98/98 99/99/99
f 97/97/97 99/99/99 100/100/100
f 101/101/101 102/102/102 103/103/103
f 101/101/101 103/103/103 104/104/104
f 101/101/101 104/104/104 105/105/105
f 101/101/101 105/105/105 106/106/106
f 101/101/101 106/106/106 107/107/107
f 101/101/101 107/107/107 108/108/108
f 101/101/101 108/108/108 109/109/109
f 101/101/101 109/109/109 110/110/110
f 101/101/101 110/110/110 111/111/111
f 101/101/101 111/111/111 112/112/112
