# Exported using automatic converter by Erwin Coumans
mtllib model6.mtl
#object mesh1763463869

v 2.108238 -0.994511 -2.160148
v 1.818238 -0.994511 -2.160149
v 1.818238 -1.054511 -2.160149
v 2.108238 -1.054511 -2.160148
v 1.818238 -1.054511 -2.740149
v 1.818238 -0.994511 -2.740149
v 2.108238 -0.994511 -2.740149
v 2.108238 -1.054511 -2.740149
v 1.818238 -1.054511 -2.160149
v 1.818238 -1.054511 -2.740149
v 2.108238 -1.054511 -2.740149
v 2.108238 -1.054511 -2.160148
v 2.108238 -0.994511 -2.740149
v 1.818238 -0.994511 -2.740149
v 1.818238 -0.994511 -2.160149
v 2.108238 -0.994511 -2.160148
v 2.108238 -1.054511 -2.740149
v 2.108238 -0.994511 -2.740149
v 2.108238 -0.994511 -2.160148
v 2.108238 -1.054511 -2.160148
v 1.818238 -0.994511 -2.160149
v 1.818238 -0.994511 -2.740149
v 1.818238 -1.054511 -2.740149
v 1.818238 -1.054511 -2.160149
usemtl mat8

vn -0.000000 0.000000 1.000000
vn -0.000000 0.000000 1.000000
vn -0.000000 0.000000 1.000000
vn -0.000000 0.000000 1.000000
vn 0.000000 -0.000000 -1.000000
vn 0.000000 -0.000000 -1.000000
vn 0.000000 -0.000000 -1.000000
vn 0.000000 -0.000000 -1.000000
vn -0.000000 -1.000000 0.000000
vn -0.000000 -1.000000 0.000000
vn -0.000000 -1.000000 0.000000
vn -0.000000 -1.000000 0.000000
vn 0.000000 1.000000 -0.000000
vn 0.000000 1.000000 -0.000000
vn 0.000000 1.000000 -0.000000
vn 0.000000 1.000000 -0.000000
vn 1.000000 0.000000 0.000000
vn 1.000000 0.000000 0.000000
vn 1.000000 0.000000 0.000000
vn 1.000000 0.000000 0.000000
vn -1.000000 -0.000000 -0.000000
vn -1.000000 -0.000000 -0.000000
vn -1.000000 -0.000000 -0.000000
vn -1.000000 -0.000000 -0.000000

vt -0.126114 0.138189
vt -0.113145 0.112251
vt -0.118512 0.109567
vt -0.131481 0.135506
vt 0.118512 0.109567
vt 0.113145 0.112251
vt 0.126114 0.138189
vt 0.131481 0.135506
vt -0.068814 0.184918
vt -0.123435 0.204425
vt -0.113682 0.231736
vt -0.059061 0.212228
vt 0.113682 0.231736
vt 0.123435 0.204425
vt 0.068814 0.184918
vt 0.059061 0.212228
vt -0.183671 0.061146
vt -0.180184 0.066029
vt -0.132987 0.032317
vt -0.136475 0.027435
vt 0.132987 0.032317
vt 0.180184 0.066029
vt 0.183671 0.061146
vt 0.136475 0.027435
s off
f 1/1/1 2/2/2 3/3/3
f 1/1/1 3/3/3 4/4/4
f 5/5/5 6/6/6 7/7/7
f 5/5/5 7/7/7 8/8/8
f 9/9/9 10/10/10 11/11/11
f 9/9/9 11/11/11 12/12/12
f 13/13/13 14/14/14 15/15/15
f 13/13/13 15/15/15 16/16/16
f 17/17/17 18/18/18 19/19/19
f 17/17/17 19/19/19 20/20/20
f 21/21/21 22/22/22 23/23/23
f 21/21/21 23/23/23 24/24/24
