# Exported using automatic converter by Erwin Coumans
mtllib botlab.mtl
#object mesh1081888422

v 2.518238 1.285489 -0.560148
v 2.458238 1.285489 -0.560148
v 2.458238 1.305489 -0.560148
v 2.518238 1.305489 -0.560148
v 2.458238 1.305489 -0.520148
v 2.458238 1.285489 -0.520148
v 2.518238 1.285489 -0.520148
v 2.518238 1.305489 -0.520148
v 2.458238 1.305489 -0.560148
v 2.458238 1.305489 -0.520148
v 2.518238 1.305489 -0.520148
v 2.518238 1.305489 -0.560148
v 2.518238 1.285489 -0.520148
v 2.458238 1.285489 -0.520148
v 2.458238 1.285489 -0.560148
v 2.518238 1.285489 -0.560148
v 2.518238 1.305489 -0.520148
v 2.518238 1.285489 -0.520148
v 2.518238 1.285489 -0.560148
v 2.518238 1.305489 -0.560148
v 2.458238 1.285489 -0.560148
v 2.458238 1.285489 -0.520148
v 2.458238 1.305489 -0.520148
v 2.458238 1.305489 -0.560148
usemtl mat19

vn -0.000000 0.000000 -1.000000
vn -0.000000 0.000000 -1.000000
vn -0.000000 0.000000 -1.000000
vn -0.000000 0.000000 -1.000000
vn 0.000000 -0.000000 1.000000
vn 0.000000 -0.000000 1.000000
vn 0.000000 -0.000000 1.000000
vn 0.000000 -0.000000 1.000000
vn -0.000000 1.000000 0.000000
vn -0.000000 1.000000 0.000000
vn -0.000000 1.000000 0.000000
vn -0.000000 1.000000 0.000000
vn 0.000000 -1.000000 -0.000000
vn 0.000000 -1.000000 -0.000000
vn 0.000000 -1.000000 -0.000000
vn 0.000000 -1.000000 -0.000000
vn 1.000000 0.000000 0.000000
vn 1.000000 0.000000 0.000000
vn 1.000000 0.000000 0.000000
vn 1.000000 0.000000 0.000000
vn -1.000000 -0.000000 -0.000000
vn -1.000000 -0.000000 -0.000000
vn -1.000000 -0.000000 -0.000000
vn -1.000000 -0.000000 -0.000000

vt -0.059479 0.276825
vt -0.062163 0.271459
vt -0.063952 0.272353
vt -0.061268 0.277720
vt 0.063952 0.272353
vt 0.062163 0.271459
vt 0.059479 0.276825
vt 0.061268 0.277720
vt -0.103390 0.191375
vt -0.107157 0.190030
vt -0.109175 0.195681
vt -0.105408 0.197026
vt 0.109175 0.195681
vt 0.107157 0.190030
vt 0.103390 0.191375
vt 0.105408 0.197026
vt 0.134150 0.124152
vt 0.132987 0.122525
vt 0.129732 0.124850
vt 0.130895 0.126477
vt -0.129732 0.124850
vt -0.132987 0.122525
vt -0.134150 0.124152
vt -0.130895 0.126477
s off
f 1/1/1 2/2/2 3/3/3
f 1/1/1 3/3/3 4/4/4
f 5/5/5 6/6/6 7/7/7
f 5/5/5 7/7/7 8/8/8
f 9/9/9 10/10/10 11/11/11
f 9/9/9 11/11/11 12/12/12
f 13/13/13 14/14/14 15/15/15
f 13/13/13 15/15/15 16/16/16
f 17/17/17 18/18/18 19/19/19
f 17/17/17 19/19/19 20/20/20
f 21/21/21 22/22/22 23/23/23
f 21/21/21 23/23/23 24/24/24
