# Exported using automatic converter by Erwin Coumans
mtllib model6.mtl
#object mesh1678575937

v -2.510007 -0.511134 2.172464
v -2.509259 -0.510947 2.187445
v -2.495557 -0.490002 2.187334
v -2.496514 -0.490209 2.172366
v -2.509259 -0.510947 2.187445
v -2.507551 -0.523775 2.195029
v -2.493887 -0.502834 2.194921
v -2.495557 -0.490002 2.187334
v -2.507551 -0.523775 2.195029
v -2.506590 -0.536790 2.187634
v -2.493173 -0.515873 2.187539
v -2.493887 -0.502834 2.194921
v -2.506590 -0.536790 2.187634
v -2.507338 -0.536977 2.172654
v -2.494130 -0.516080 2.172571
v -2.493173 -0.515873 2.187539
v -2.507338 -0.536977 2.172654
v -2.509046 -0.524149 2.165070
v -2.495800 -0.503248 2.164984
v -2.494130 -0.516080 2.172571
v -2.509046 -0.524149 2.165070
v -2.510007 -0.511134 2.172464
v -2.496514 -0.490209 2.172366
v -2.495800 -0.503248 2.164984
v -2.509046 -0.524149 2.165070
v -2.507338 -0.536977 2.172654
v -2.506590 -0.536790 2.187634
v -2.507551 -0.523775 2.195029
v -2.509259 -0.510947 2.187445
v -2.510007 -0.511134 2.172464
v -2.496514 -0.490209 2.172366
v -2.495557 -0.490002 2.187334
v -2.493887 -0.502834 2.194921
v -2.493173 -0.515873 2.187539
v -2.494130 -0.516080 2.172571
v -2.495800 -0.503248 2.164984
usemtl mat21

vn -0.837841 0.544408 0.040525
vn -0.837841 0.544408 0.040525
vn -0.837841 0.544408 0.040525
vn -0.837841 0.544408 0.040525
vn -0.556367 0.367413 0.745294
vn -0.556367 0.367413 0.745294
vn -0.556367 0.367413 0.745294
vn -0.556367 0.367413 0.745294
vn 0.581576 -0.372739 0.723073
vn 0.581576 -0.372739 0.723073
vn 0.581576 -0.372739 0.723073
vn 0.581576 -0.372739 0.723073
vn 0.842739 -0.536767 -0.040900
vn 0.842739 -0.536767 -0.040900
vn 0.842739 -0.536767 -0.040900
vn 0.842739 -0.536767 -0.040900
vn 0.567751 -0.362292 -0.739191
vn 0.567751 -0.362292 -0.739191
vn 0.567751 -0.362292 -0.739191
vn 0.567751 -0.362292 -0.739191
vn -0.585497 0.371140 -0.720728
vn -0.585497 0.371140 -0.720728
vn -0.585497 0.371140 -0.720728
vn -0.585497 0.371140 -0.720728
vn -0.993459 -0.102238 0.050861
vn -0.993459 -0.102238 0.050861
vn -0.993459 -0.102238 0.050861
vn -0.993459 -0.102238 0.050861
vn -0.993459 -0.102238 0.050861
vn -0.993459 -0.102238 0.050861
vn 0.993738 0.091037 -0.064779
vn 0.993738 0.091037 -0.064779
vn 0.993738 0.091037 -0.064779
vn 0.993738 0.091037 -0.064779
vn 0.993738 0.091037 -0.064779
vn 0.993738 0.091037 -0.064779

vt -0.229182 -0.244238
vt -0.230617 -0.244675
vt -0.231426 -0.242307
vt -0.229987 -0.241882
vt -0.059079 -0.149231
vt -0.060376 -0.149985
vt -0.059905 -0.147529
vt -0.058610 -0.146773
vt 0.227656 -0.344910
vt 0.226177 -0.345160
vt 0.227579 -0.343109
vt 0.229054 -0.342837
vt 0.230311 -0.244818
vt 0.228877 -0.244379
vt 0.229680 -0.242041
vt 0.231118 -0.242468
vt 0.061656 -0.146904
vt 0.060362 -0.146144
vt 0.059886 -0.143716
vt 0.061177 -0.144479
vt -0.226032 -0.344126
vt -0.227511 -0.343876
vt -0.228911 -0.341817
vt -0.227436 -0.342089
vt -0.245808 -0.157458
vt -0.245622 -0.158947
vt -0.246818 -0.159852
vt -0.248200 -0.159269
vt -0.248386 -0.157780
vt -0.247190 -0.156875
vt 0.248873 -0.146120
vt 0.250103 -0.146979
vt 0.249974 -0.148474
vt 0.248615 -0.149109
vt 0.247385 -0.148250
vt 0.247515 -0.146756
s off
f 1/1/1 2/2/2 3/3/3
f 1/1/1 3/3/3 4/4/4
f 5/5/5 6/6/6 7/7/7
f 5/5/5 7/7/7 8/8/8
f 9/9/9 10/10/10 11/11/11
f 9/9/9 11/11/11 12/12/12
f 13/13/13 14/14/14 15/15/15
f 13/13/13 15/15/15 16/16/16
f 17/17/17 18/18/18 19/19/19
f 17/17/17 19/19/19 20/20/20
f 21/21/21 22/22/22 23/23/23
f 21/21/21 23/23/23 24/24/24
f 25/25/25 26/26/26 27/27/27
f 25/25/25 27/27/27 28/28/28
f 25/25/25 28/28/28 29/29/29
f 25/25/25 29/29/29 30/30/30
f 31/31/31 32/32/32 33/33/33
f 31/31/31 33/33/33 34/34/34
f 31/31/31 34/34/34 35/35/35
f 31/31/31 35/35/35 36/36/36
