# Exported using automatic converter by Erwin Coumans
mtllib model6.mtl
#object group1836231465_1

v -0.125491 -0.892568 0.416324
v -0.112392 -0.894913 0.450026
v -0.113681 -0.924844 0.448444
v -0.126780 -0.922499 0.414742
v -0.112392 -0.894913 0.450026
v -0.117922 -0.896566 0.485798
v -0.119210 -0.926496 0.484216
v -0.113681 -0.924844 0.448444
v -0.117922 -0.896566 0.485798
v -0.140599 -0.897083 0.514054
v -0.141888 -0.927013 0.512473
v -0.119210 -0.926496 0.484216
v -0.140599 -0.897083 0.514054
v -0.174348 -0.896326 0.527224
v -0.175636 -0.926257 0.525642
v -0.141888 -0.927013 0.512473
v -0.174348 -0.896326 0.527224
v -0.210124 -0.894498 0.521778
v -0.211413 -0.924429 0.520196
v -0.175636 -0.926257 0.525642
v -0.210124 -0.894498 0.521778
v -0.238342 -0.892089 0.499175
v -0.239631 -0.922020 0.497593
v -0.211413 -0.924429 0.520196
v -0.238342 -0.892089 0.499175
v -0.251441 -0.889744 0.465472
v -0.252730 -0.919675 0.463891
v -0.239631 -0.922020 0.497593
v -0.251441 -0.889744 0.465472
v -0.245911 -0.888092 0.429700
v -0.247200 -0.918022 0.428119
v -0.252730 -0.919675 0.463891
v -0.245911 -0.888092 0.429700
v -0.223234 -0.887575 0.401444
v -0.224523 -0.917505 0.399862
v -0.247200 -0.918022 0.428119
v -0.223234 -0.887575 0.401444
v -0.189486 -0.888331 0.388275
v -0.190774 -0.918262 0.386693
v -0.224523 -0.917505 0.399862
v -0.189486 -0.888331 0.388275
v -0.153709 -0.890159 0.393721
v -0.154998 -0.920090 0.392139
v -0.190774 -0.918262 0.386693
v -0.153709 -0.890159 0.393721
v -0.125491 -0.892568 0.416324
v -0.126780 -0.922499 0.414742
v -0.154998 -0.920090 0.392139
v -0.122914 -0.832707 0.419488
v -0.109815 -0.835052 0.453190
v -0.112392 -0.894913 0.450026
v -0.125491 -0.892568 0.416324
v -0.109815 -0.835052 0.453190
v -0.115345 -0.836705 0.488962
v -0.117922 -0.896566 0.485798
v -0.112392 -0.894913 0.450026
v -0.115345 -0.836705 0.488962
v -0.138022 -0.837222 0.517219
v -0.140599 -0.897083 0.514054
v -0.117922 -0.896566 0.485798
v -0.138022 -0.837222 0.517219
v -0.171771 -0.836465 0.530388
v -0.174348 -0.896326 0.527224
v -0.140599 -0.897083 0.514054
v -0.171771 -0.836465 0.530388
v -0.207547 -0.834637 0.524942
v -0.210124 -0.894498 0.521778
v -0.174348 -0.896326 0.527224
v -0.207547 -0.834637 0.524942
v -0.235766 -0.832228 0.502339
v -0.238342 -0.892089 0.499175
v -0.210124 -0.894498 0.521778
v -0.235766 -0.832228 0.502339
v -0.248864 -0.829883 0.468637
v -0.251441 -0.889744 0.465472
v -0.238342 -0.892089 0.499175
v -0.248864 -0.829883 0.468637
v -0.243335 -0.828231 0.432864
v -0.245911 -0.888092 0.429700
v -0.251441 -0.889744 0.465472
v -0.243335 -0.828231 0.432864
v -0.220657 -0.827714 0.404608
v -0.223234 -0.887575 0.401444
v -0.245911 -0.888092 0.429700
v -0.220657 -0.827714 0.404608
v -0.186909 -0.828470 0.391439
v -0.189486 -0.888331 0.388275
v -0.223234 -0.887575 0.401444
v -0.186909 -0.828470 0.391439
v -0.151132 -0.830298 0.396885
v -0.153709 -0.890159 0.393721
v -0.189486 -0.888331 0.388275
v -0.151132 -0.830298 0.396885
v -0.122914 -0.832707 0.419488
v -0.125491 -0.892568 0.416324
v -0.153709 -0.890159 0.393721
v -0.119908 -0.762869 0.423179
v -0.106809 -0.765214 0.456881
v -0.109815 -0.835052 0.453190
v -0.122914 -0.832707 0.419488
v -0.106809 -0.765214 0.456881
v -0.112339 -0.766867 0.492653
v -0.115345 -0.836705 0.488962
v -0.109815 -0.835052 0.453190
v -0.112339 -0.766867 0.492653
v -0.135016 -0.767384 0.520909
v -0.138022 -0.837222 0.517219
v -0.115345 -0.836705 0.488962
v -0.135016 -0.767384 0.520909
v -0.168764 -0.766627 0.534079
v -0.171771 -0.836465 0.530388
v -0.138022 -0.837222 0.517219
v -0.168764 -0.766627 0.534079
v -0.204541 -0.764799 0.528633
v -0.207547 -0.834637 0.524942
v -0.171771 -0.836465 0.530388
v -0.204541 -0.764799 0.528633
v -0.232759 -0.762390 0.506030
v -0.235766 -0.832228 0.502339
v -0.207547 -0.834637 0.524942
v -0.232759 -0.762390 0.506030
v -0.245858 -0.760045 0.472328
v -0.248864 -0.829883 0.468637
v -0.235766 -0.832228 0.502339
v -0.245858 -0.760045 0.472328
v -0.240328 -0.758393 0.436556
v -0.243335 -0.828231 0.432864
v -0.248864 -0.829883 0.468637
v -0.240328 -0.758393 0.436556
v -0.217651 -0.757875 0.408299
v -0.220657 -0.827714 0.404608
v -0.243335 -0.828231 0.432864
v -0.217651 -0.757875 0.408299
v -0.183903 -0.758632 0.395130
v -0.186909 -0.828470 0.391439
v -0.220657 -0.827714 0.404608
v -0.183903 -0.758632 0.395130
v -0.148126 -0.760460 0.400576
v -0.151132 -0.830298 0.396885
v -0.186909 -0.828470 0.391439
v -0.148126 -0.760460 0.400576
v -0.119908 -0.762869 0.423179
v -0.122914 -0.832707 0.419488
v -0.151132 -0.830298 0.396885
usemtl mat22

vn 0.931380 -0.020890 -0.363448
vn 0.931380 -0.020890 -0.363448
vn 0.931380 -0.020890 -0.363448
vn 0.931380 -0.020890 -0.363448
vn 0.987352 -0.050454 0.150301
vn 0.987352 -0.050454 0.150301
vn 0.987352 -0.050454 0.150301
vn 0.987352 -0.050454 0.150301
vn 0.778761 -0.066499 0.623786
vn 0.778761 -0.066499 0.623786
vn 0.778761 -0.066499 0.623786
vn 0.778761 -0.066499 0.623786
vn 0.361506 -0.064722 0.930121
vn 0.361506 -0.064722 0.930121
vn 0.361506 -0.064722 0.930121
vn 0.361506 -0.064722 0.930121
vn -0.152610 -0.045607 0.987234
vn -0.152610 -0.045607 0.987234
vn -0.152610 -0.045607 0.987234
vn -0.152610 -0.045607 0.987234
vn -0.625849 -0.014270 0.779813
vn -0.625849 -0.014270 0.779813
vn -0.625849 -0.014270 0.779813
vn -0.625849 -0.014270 0.779813
vn -0.931381 0.020887 0.363446
vn -0.931381 0.020887 0.363446
vn -0.931381 0.020887 0.363446
vn -0.931381 0.020887 0.363446
vn -0.987352 0.050451 -0.150301
vn -0.987352 0.050451 -0.150301
vn -0.987352 0.050451 -0.150301
vn -0.987352 0.050451 -0.150301
vn -0.778761 0.066495 -0.623786
vn -0.778761 0.066495 -0.623786
vn -0.778761 0.066495 -0.623786
vn -0.778761 0.066495 -0.623786
vn -0.361508 0.064722 -0.930120
vn -0.361508 0.064722 -0.930120
vn -0.361508 0.064722 -0.930120
vn -0.361508 0.064722 -0.930120
vn 0.152611 0.045607 -0.987234
vn 0.152611 0.045607 -0.987234
vn 0.152611 0.045607 -0.987234
vn 0.152611 0.045607 -0.987234
vn 0.625850 0.014270 -0.779813
vn 0.625850 0.014270 -0.779813
vn 0.625850 0.014270 -0.779813
vn 0.625850 0.014270 -0.779813
vn 0.931381 -0.020881 -0.363447
vn 0.931381 -0.020881 -0.363447
vn 0.931381 -0.020881 -0.363447
vn 0.931381 -0.020881 -0.363447
vn 0.987352 -0.050445 0.150301
vn 0.987352 -0.050445 0.150301
vn 0.987352 -0.050445 0.150301
vn 0.987352 -0.050445 0.150301
vn 0.778761 -0.066493 0.623787
vn 0.778761 -0.066493 0.623787
vn 0.778761 -0.066493 0.623787
vn 0.778761 -0.066493 0.623787
vn 0.361505 -0.064725 0.930121
vn 0.361505 -0.064725 0.930121
vn 0.361505 -0.064725 0.930121
vn 0.361505 -0.064725 0.930121
vn -0.152610 -0.045614 0.987233
vn -0.152610 -0.045614 0.987233
vn -0.152610 -0.045614 0.987233
vn -0.152610 -0.045614 0.987233
vn -0.625849 -0.014279 0.779813
vn -0.625849 -0.014279 0.779813
vn -0.625849 -0.014279 0.779813
vn -0.625849 -0.014279 0.779813
vn -0.931382 0.020881 0.363443
vn -0.931382 0.020881 0.363443
vn -0.931382 0.020881 0.363443
vn -0.931382 0.020881 0.363443
vn -0.987352 0.050447 -0.150301
vn -0.987352 0.050447 -0.150301
vn -0.987352 0.050447 -0.150301
vn -0.987352 0.050447 -0.150301
vn -0.778761 0.066495 -0.623786
vn -0.778761 0.066495 -0.623786
vn -0.778761 0.066495 -0.623786
vn -0.778761 0.066495 -0.623786
vn -0.361509 0.064725 -0.930119
vn -0.361509 0.064725 -0.930119
vn -0.361509 0.064725 -0.930119
vn -0.361509 0.064725 -0.930119
vn 0.152611 0.045613 -0.987233
vn 0.152611 0.045613 -0.987233
vn 0.152611 0.045613 -0.987233
vn 0.152611 0.045613 -0.987233
vn 0.625850 0.014279 -0.779812
vn 0.625850 0.014279 -0.779812
vn 0.625850 0.014279 -0.779812
vn 0.625850 0.014279 -0.779812
vn 0.931381 -0.020885 -0.363445
vn 0.931381 -0.020885 -0.363445
vn 0.931381 -0.020885 -0.363445
vn 0.931381 -0.020885 -0.363445
vn 0.987352 -0.050445 0.150301
vn 0.987352 -0.050445 0.150301
vn 0.987352 -0.050445 0.150301
vn 0.987352 -0.050445 0.150301
vn 0.778761 -0.066489 0.623787
vn 0.778761 -0.066489 0.623787
vn 0.778761 -0.066489 0.623787
vn 0.778761 -0.066489 0.623787
vn 0.361508 -0.064718 0.930120
vn 0.361508 -0.064718 0.930120
vn 0.361508 -0.064718 0.930120
vn 0.361508 -0.064718 0.930120
vn -0.152611 -0.045605 0.987234
vn -0.152611 -0.045605 0.987234
vn -0.152611 -0.045605 0.987234
vn -0.152611 -0.045605 0.987234
vn -0.625849 -0.014272 0.779814
vn -0.625849 -0.014272 0.779814
vn -0.625849 -0.014272 0.779814
vn -0.625849 -0.014272 0.779814
vn -0.931383 0.020886 0.363440
vn -0.931383 0.020886 0.363440
vn -0.931383 0.020886 0.363440
vn -0.931383 0.020886 0.363440
vn -0.987352 0.050448 -0.150301
vn -0.987352 0.050448 -0.150301
vn -0.987352 0.050448 -0.150301
vn -0.987352 0.050448 -0.150301
vn -0.778761 0.066492 -0.623787
vn -0.778761 0.066492 -0.623787
vn -0.778761 0.066492 -0.623787
vn -0.778761 0.066492 -0.623787
vn -0.361513 0.064719 -0.930118
vn -0.361513 0.064719 -0.930118
vn -0.361513 0.064719 -0.930118
vn -0.361513 0.064719 -0.930118
vn 0.152612 0.045605 -0.987233
vn 0.152612 0.045605 -0.987233
vn 0.152612 0.045605 -0.987233
vn 0.152612 0.045605 -0.987233
vn 0.625850 0.014271 -0.779813
vn 0.625850 0.014271 -0.779813
vn 0.625850 0.014271 -0.779813
vn 0.625850 0.014271 -0.779813

vt 0.108270 -0.036316
vt 0.111893 -0.036337
vt 0.111876 -0.039337
vt 0.108252 -0.039316
vt 0.073586 -0.125005
vt 0.076136 -0.127579
vt 0.074005 -0.129690
vt 0.071455 -0.127116
vt 0.036011 -0.134471
vt 0.037814 -0.137614
vt 0.035212 -0.139106
vt 0.033409 -0.135964
vt 0.009036 -0.098243
vt 0.010650 -0.101487
vt 0.007964 -0.102824
vt 0.006350 -0.099580
vt -0.018820 -0.038835
vt -0.017012 -0.041976
vt -0.019612 -0.043472
vt -0.021420 -0.040332
vt -0.060897 0.010414
vt -0.058334 0.007853
vt -0.060455 0.005731
vt -0.063018 0.008293
vt -0.111893 -0.036337
vt -0.108270 -0.036316
vt -0.108252 -0.039316
vt -0.111876 -0.039337
vt -0.076136 -0.127579
vt -0.073586 -0.125005
vt -0.071454 -0.127116
vt -0.074004 -0.129690
vt -0.037814 -0.137614
vt -0.036010 -0.134471
vt -0.033408 -0.135964
vt -0.035211 -0.139107
vt -0.010650 -0.101487
vt -0.009036 -0.098243
vt -0.006350 -0.099580
vt -0.007964 -0.102824
vt 0.017012 -0.041976
vt 0.018820 -0.038835
vt 0.021420 -0.040332
vt 0.019612 -0.043472
vt 0.058334 0.007853
vt 0.060897 0.010414
vt 0.063018 0.008293
vt 0.060455 0.005731
vt 0.108305 -0.030315
vt 0.111928 -0.030336
vt 0.111893 -0.036336
vt 0.108270 -0.036315
vt 0.077848 -0.120783
vt 0.080398 -0.123357
vt 0.076135 -0.127580
vt 0.073585 -0.125005
vt 0.041214 -0.131485
vt 0.043018 -0.134628
vt 0.037813 -0.137614
vt 0.036010 -0.134471
vt 0.014407 -0.095569
vt 0.016022 -0.098813
vt 0.010650 -0.101486
vt 0.009036 -0.098243
vt -0.013619 -0.035842
vt -0.011811 -0.038982
vt -0.017011 -0.041975
vt -0.018819 -0.038835
vt -0.056654 0.014659
vt -0.054091 0.012098
vt -0.058333 0.007854
vt -0.060896 0.010416
vt -0.111928 -0.030337
vt -0.108305 -0.030316
vt -0.108270 -0.036316
vt -0.111893 -0.036337
vt -0.080398 -0.123357
vt -0.077848 -0.120783
vt -0.073585 -0.125005
vt -0.076135 -0.127579
vt -0.043018 -0.134628
vt -0.041215 -0.131485
vt -0.036010 -0.134471
vt -0.037814 -0.137614
vt -0.016022 -0.098814
vt -0.014407 -0.095570
vt -0.009036 -0.098243
vt -0.010650 -0.101487
vt 0.011811 -0.038982
vt 0.013619 -0.035841
vt 0.018819 -0.038835
vt 0.017011 -0.041975
vt 0.054092 0.012097
vt 0.056654 0.014659
vt 0.060896 0.010416
vt 0.058333 0.007854
vt 0.108346 -0.023316
vt 0.111969 -0.023337
vt 0.111928 -0.030337
vt 0.108305 -0.030316
vt 0.082822 -0.115857
vt 0.085372 -0.118431
vt 0.080398 -0.123357
vt 0.077848 -0.120783
vt 0.047286 -0.128002
vt 0.049089 -0.131144
vt 0.043017 -0.134628
vt 0.041214 -0.131485
vt 0.020674 -0.092451
vt 0.022288 -0.095695
vt 0.016021 -0.098814
vt 0.014407 -0.095570
vt -0.007553 -0.032350
vt -0.005745 -0.035490
vt -0.011812 -0.038982
vt -0.013620 -0.035842
vt -0.051706 0.019609
vt -0.049143 0.017047
vt -0.054092 0.012096
vt -0.056655 0.014658
vt -0.111969 -0.023339
vt -0.108346 -0.023317
vt -0.108305 -0.030317
vt -0.111928 -0.030338
vt -0.085372 -0.118431
vt -0.082822 -0.115857
vt -0.077849 -0.120783
vt -0.080398 -0.123357
vt -0.049089 -0.131144
vt -0.047286 -0.128002
vt -0.041214 -0.131485
vt -0.043018 -0.134628
vt -0.022288 -0.095695
vt -0.020674 -0.092451
vt -0.014407 -0.095570
vt -0.016022 -0.098814
vt 0.005746 -0.035490
vt 0.007553 -0.032349
vt 0.013620 -0.035842
vt 0.011812 -0.038982
vt 0.049144 0.017047
vt 0.051706 0.019609
vt 0.056655 0.014658
vt 0.054092 0.012096
s off
f 1/1/1 2/2/2 3/3/3
f 1/1/1 3/3/3 4/4/4
f 5/5/5 6/6/6 7/7/7
f 5/5/5 7/7/7 8/8/8
f 9/9/9 10/10/10 11/11/11
f 9/9/9 11/11/11 12/12/12
f 13/13/13 14/14/14 15/15/15
f 13/13/13 15/15/15 16/16/16
f 17/17/17 18/18/18 19/19/19
f 17/17/17 19/19/19 20/20/20
f 21/21/21 22/22/22 23/23/23
f 21/21/21 23/23/23 24/24/24
f 25/25/25 26/26/26 27/27/27
f 25/25/25 27/27/27 28/28/28
f 29/29/29 30/30/30 31/31/31
f 29/29/29 31/31/31 32/32/32
f 33/33/33 34/34/34 35/35/35
f 33/33/33 35/35/35 36/36/36
f 37/37/37 38/38/38 39/39/39
f 37/37/37 39/39/39 40/40/40
f 41/41/41 42/42/42 43/43/43
f 41/41/41 43/43/43 44/44/44
f 45/45/45 46/46/46 47/47/47
f 45/45/45 47/47/47 48/48/48
f 49/49/49 50/50/50 51/51/51
f 49/49/49 51/51/51 52/52/52
f 53/53/53 54/54/54 55/55/55
f 53/53/53 55/55/55 56/56/56
f 57/57/57 58/58/58 59/59/59
f 57/57/57 59/59/59 60/60/60
f 61/61/61 62/62/62 63/63/63
f 61/61/61 63/63/63 64/64/64
f 65/65/65 66/66/66 67/67/67
f 65/65/65 67/67/67 68/68/68
f 69/69/69 70/70/70 71/71/71
f 69/69/69 71/71/71 72/72/72
f 73/73/73 74/74/74 75/75/75
f 73/73/73 75/75/75 76/76/76
f 77/77/77 78/78/78 79/79/79
f 77/77/77 79/79/79 80/80/80
f 81/81/81 82/82/82 83/83/83
f 81/81/81 83/83/83 84/84/84
f 85/85/85 86/86/86 87/87/87
f 85/85/85 87/87/87 88/88/88
f 89/89/89 90/90/90 91/91/91
f 89/89/89 91/91/91 92/92/92
f 93/93/93 94/94/94 95/95/95
f 93/93/93 95/95/95 96/96/96
f 97/97/97 98/98/98 99/99/99
f 97/97/97 99/99/99 100/100/100
f 101/101/101 102/102/102 103/103/103
f 101/101/101 103/103/103 104/104/104
f 105/105/105 106/106/106 107/107/107
f 105/105/105 107/107/107 108/108/108
f 109/109/109 110/110/110 111/111/111
f 109/109/109 111/111/111 112/112/112
f 113/113/113 114/114/114 115/115/115
f 113/113/113 115/115/115 116/116/116
f 117/117/117 118/118/118 119/119/119
f 117/117/117 119/119/119 120/120/120
f 121/121/121 122/122/122 123/123/123
f 121/121/121 123/123/123 124/124/124
f 125/125/125 126/126/126 127/127/127
f 125/125/125 127/127/127 128/128/128
f 129/129/129 130/130/130 131/131/131
f 129/129/129 131/131/131 132/132/132
f 133/133/133 134/134/134 135/135/135
f 133/133/133 135/135/135 136/136/136
f 137/137/137 138/138/138 139/139/139
f 137/137/137 139/139/139 140/140/140
f 141/141/141 142/142/142 143/143/143
f 141/141/141 143/143/143 144/144/144
