# Exported using automatic converter by Erwin Coumans
mtllib model6.mtl
#object mesh838120278

v -1.911762 -0.994511 2.359852
v -1.911762 0.135489 2.359851
v -1.911762 0.135489 2.249852
v -1.911762 -0.994511 2.249852
v -1.871763 0.135489 2.249852
v -1.871763 0.135489 2.359851
v -1.871763 -0.994511 2.359852
v -1.871763 -0.994511 2.249852
v -1.911762 0.135489 2.249852
v -1.871763 0.135489 2.249852
v -1.871763 -0.994511 2.249852
v -1.911762 -0.994511 2.249852
v -1.871763 -0.994511 2.359852
v -1.871763 0.135489 2.359851
v -1.911762 0.135489 2.359851
v -1.911762 -0.994511 2.359852
v -1.871763 -0.994511 2.249852
v -1.871763 -0.994511 2.359852
v -1.911762 -0.994511 2.359852
v -1.911762 -0.994511 2.249852
v -1.911762 0.135489 2.359851
v -1.871763 0.135489 2.359851
v -1.871763 0.135489 2.249852
v -1.911762 0.135489 2.249852
usemtl mat21

vn -1.000000 0.000000 0.000000
vn -1.000000 0.000000 0.000000
vn -1.000000 0.000000 0.000000
vn -1.000000 0.000000 0.000000
vn 1.000000 0.000000 0.000000
vn 1.000000 0.000000 0.000000
vn 1.000000 0.000000 0.000000
vn 1.000000 0.000000 0.000000
vn 0.000000 0.000000 -1.000000
vn 0.000000 0.000000 -1.000000
vn 0.000000 0.000000 -1.000000
vn 0.000000 0.000000 -1.000000
vn 0.000000 -0.000000 1.000000
vn 0.000000 -0.000000 1.000000
vn 0.000000 -0.000000 1.000000
vn 0.000000 -0.000000 1.000000
vn 0.000000 -1.000000 0.000000
vn 0.000000 -1.000000 0.000000
vn 0.000000 -1.000000 0.000000
vn 0.000000 -1.000000 0.000000
vn 0.000000 1.000000 -0.000000
vn 0.000000 1.000000 -0.000000
vn 0.000000 1.000000 -0.000000
vn 0.000000 1.000000 -0.000000

vt -0.234820 -0.230403
vt -0.300500 -0.138451
vt -0.291549 -0.132057
vt -0.225869 -0.224009
vt 0.291549 -0.132057
vt 0.300500 -0.138451
vt 0.234820 -0.230403
vt 0.225869 -0.224009
vt -0.154736 -0.170836
vt -0.152947 -0.167258
vt -0.051877 -0.217793
vt -0.053666 -0.221371
vt 0.051877 -0.217793
vt 0.152947 -0.167258
vt 0.154736 -0.170836
vt 0.053666 -0.221371
vt 0.222386 -0.310909
vt 0.232745 -0.314609
vt 0.231399 -0.318376
vt 0.221040 -0.314676
vt -0.231399 -0.318376
vt -0.232745 -0.314609
vt -0.222386 -0.310909
vt -0.221040 -0.314676
s off
f 1/1/1 2/2/2 3/3/3
f 1/1/1 3/3/3 4/4/4
f 5/5/5 6/6/6 7/7/7
f 5/5/5 7/7/7 8/8/8
f 9/9/9 10/10/10 11/11/11
f 9/9/9 11/11/11 12/12/12
f 13/13/13 14/14/14 15/15/15
f 13/13/13 15/15/15 16/16/16
f 17/17/17 18/18/18 19/19/19
f 17/17/17 19/19/19 20/20/20
f 21/21/21 22/22/22 23/23/23
f 21/21/21 23/23/23 24/24/24
