# Exported using automatic converter by Erwin Coumans
mtllib model6.mtl
#object mesh800834175

v -0.231012 -0.697941 2.547212
v -0.238226 -0.691295 2.558560
v -0.220030 -0.684982 2.544904
v -0.213199 -0.691964 2.533520
v -0.238226 -0.691295 2.558560
v -0.235754 -0.695765 2.572663
v -0.217421 -0.689333 2.559021
v -0.220030 -0.684982 2.544904
v -0.235754 -0.695765 2.572663
v -0.226068 -0.706882 2.575418
v -0.207980 -0.700665 2.561753
v -0.217421 -0.689333 2.559021
v -0.226068 -0.706882 2.575418
v -0.218854 -0.713528 2.564070
v -0.201149 -0.707646 2.550369
v -0.207980 -0.700665 2.561753
v -0.218854 -0.713528 2.564070
v -0.221326 -0.709058 2.549967
v -0.203758 -0.703296 2.536252
v -0.201149 -0.707646 2.550369
v -0.221326 -0.709058 2.549967
v -0.231012 -0.697941 2.547212
v -0.213199 -0.691964 2.533520
v -0.203758 -0.703296 2.536252
v -0.221326 -0.709058 2.549967
v -0.218854 -0.713528 2.564070
v -0.226068 -0.706882 2.575418
v -0.235754 -0.695765 2.572663
v -0.238226 -0.691295 2.558560
v -0.231012 -0.697941 2.547212
v -0.094764 -0.668107 2.514662
v -0.100619 -0.660337 2.526079
v -0.097573 -0.664330 2.540214
v -0.088671 -0.676094 2.542931
v -0.082816 -0.683864 2.531513
v -0.085863 -0.679870 2.517379
v -0.184269 -0.702889 2.529713
v -0.181552 -0.707149 2.543836
v -0.201149 -0.707646 2.550369
v -0.203758 -0.703296 2.536252
v -0.181552 -0.707149 2.543836
v -0.188110 -0.699939 2.555238
v -0.207980 -0.700665 2.561753
v -0.201149 -0.707646 2.550369
v -0.188110 -0.699939 2.555238
v -0.197386 -0.688469 2.552517
v -0.217421 -0.689333 2.559021
v -0.207980 -0.700665 2.561753
v -0.197386 -0.688469 2.552517
v -0.200102 -0.684209 2.538393
v -0.220030 -0.684982 2.544904
v -0.217421 -0.689333 2.559021
v -0.200102 -0.684209 2.538393
v -0.193544 -0.691419 2.526991
v -0.213199 -0.691964 2.533520
v -0.220030 -0.684982 2.544904
v -0.193544 -0.691419 2.526991
v -0.184269 -0.702889 2.529713
v -0.203758 -0.703296 2.536252
v -0.213199 -0.691964 2.533520
v -0.165412 -0.694739 2.515327
v -0.162464 -0.698812 2.529459
v -0.181552 -0.707149 2.543836
v -0.184269 -0.702889 2.529713
v -0.162464 -0.698812 2.529459
v -0.168698 -0.691339 2.540874
v -0.188110 -0.699939 2.555238
v -0.181552 -0.707149 2.543836
v -0.168698 -0.691339 2.540874
v -0.177879 -0.679793 2.538157
v -0.197386 -0.688469 2.552517
v -0.188110 -0.699939 2.555238
v -0.177879 -0.679793 2.538157
v -0.180827 -0.675720 2.524024
v -0.200102 -0.684209 2.538393
v -0.197386 -0.688469 2.552517
v -0.180827 -0.675720 2.524024
v -0.174594 -0.683193 2.512609
v -0.193544 -0.691419 2.526991
v -0.200102 -0.684209 2.538393
v -0.174594 -0.683193 2.512609
v -0.165412 -0.694739 2.515327
v -0.184269 -0.702889 2.529713
v -0.193544 -0.691419 2.526991
v -0.142103 -0.698538 2.514456
v -0.138982 -0.702474 2.528590
v -0.162464 -0.698812 2.529459
v -0.165412 -0.694739 2.515327
v -0.138982 -0.702474 2.528590
v -0.144933 -0.694777 2.540007
v -0.168698 -0.691339 2.540874
v -0.162464 -0.698812 2.529459
v -0.144933 -0.694777 2.540007
v -0.154004 -0.683144 2.537290
v -0.177879 -0.679793 2.538157
v -0.168698 -0.691339 2.540874
v -0.154004 -0.683144 2.537290
v -0.157125 -0.679208 2.523156
v -0.180827 -0.675720 2.524024
v -0.177879 -0.679793 2.538157
v -0.157125 -0.679208 2.523156
v -0.151175 -0.686905 2.511739
v -0.174594 -0.683193 2.512609
v -0.180827 -0.675720 2.524024
v -0.151175 -0.686905 2.511739
v -0.142103 -0.698538 2.514456
v -0.165412 -0.694739 2.515327
v -0.174594 -0.683193 2.512609
v -0.122617 -0.701380 2.518827
v -0.119518 -0.705333 2.532961
v -0.138982 -0.702474 2.528590
v -0.142103 -0.698538 2.514456
v -0.119518 -0.705333 2.532961
v -0.125363 -0.697555 2.544378
v -0.144933 -0.694777 2.540007
v -0.138982 -0.702474 2.528590
v -0.125363 -0.697555 2.544378
v -0.134308 -0.685825 2.541661
v -0.154004 -0.683144 2.537290
v -0.144933 -0.694777 2.540007
v -0.134308 -0.685825 2.541661
v -0.137407 -0.681872 2.527526
v -0.157125 -0.679208 2.523156
v -0.154004 -0.683144 2.537290
v -0.137407 -0.681872 2.527526
v -0.131562 -0.689650 2.516109
v -0.151175 -0.686905 2.511739
v -0.157125 -0.679208 2.523156
v -0.131562 -0.689650 2.516109
v -0.122617 -0.701380 2.518827
v -0.142103 -0.698538 2.514456
v -0.151175 -0.686905 2.511739
v -0.108428 -0.688190 2.528913
v -0.105468 -0.692250 2.543046
v -0.119518 -0.705333 2.532961
v -0.122617 -0.701380 2.518827
v -0.105468 -0.692250 2.543046
v -0.111464 -0.684587 2.554463
v -0.125363 -0.697555 2.544378
v -0.119518 -0.705333 2.532961
v -0.111464 -0.684587 2.554463
v -0.120419 -0.672865 2.551745
v -0.134308 -0.685825 2.541661
v -0.125363 -0.697555 2.544378
v -0.120419 -0.672865 2.551745
v -0.123379 -0.668805 2.537611
v -0.137407 -0.681872 2.527526
v -0.134308 -0.685825 2.541661
v -0.123379 -0.668805 2.537611
v -0.117383 -0.676468 2.526195
v -0.131562 -0.689650 2.516109
v -0.137407 -0.681872 2.527526
v -0.117383 -0.676468 2.526195
v -0.108428 -0.688190 2.528913
v -0.122617 -0.701380 2.518827
v -0.131562 -0.689650 2.516109
v -0.085863 -0.679870 2.517379
v -0.082816 -0.683864 2.531513
v -0.105468 -0.692250 2.543046
v -0.108428 -0.688190 2.528913
v -0.082816 -0.683864 2.531513
v -0.088671 -0.676094 2.542931
v -0.111464 -0.684587 2.554463
v -0.105468 -0.692250 2.543046
v -0.088671 -0.676094 2.542931
v -0.097573 -0.664330 2.540214
v -0.120419 -0.672865 2.551745
v -0.111464 -0.684587 2.554463
v -0.097573 -0.664330 2.540214
v -0.100619 -0.660337 2.526079
v -0.123379 -0.668805 2.537611
v -0.120419 -0.672865 2.551745
v -0.100619 -0.660337 2.526079
v -0.094764 -0.668107 2.514662
v -0.117383 -0.676468 2.526195
v -0.123379 -0.668805 2.537611
v -0.094764 -0.668107 2.514662
v -0.085863 -0.679870 2.517379
v -0.108428 -0.688190 2.528913
v -0.117383 -0.676468 2.526195
usemtl mat15

vn -0.635136 0.423209 -0.646140
vn -0.635136 0.423209 -0.646140
vn -0.635136 0.423209 -0.646140
vn -0.635136 0.423209 -0.646140
vn -0.096036 0.944993 0.312674
vn -0.096036 0.944993 0.312674
vn -0.096036 0.944993 0.312674
vn -0.096036 0.944993 0.312674
vn 0.390338 0.518531 0.760764
vn 0.390338 0.518531 0.760764
vn 0.390338 0.518531 0.760764
vn 0.390338 0.518531 0.760764
vn 0.636417 -0.421570 0.645951
vn 0.636417 -0.421570 0.645951
vn 0.636417 -0.421570 0.645951
vn 0.636417 -0.421570 0.645951
vn 0.072500 -0.948155 -0.309427
vn 0.072500 -0.948155 -0.309427
vn 0.072500 -0.948155 -0.309427
vn 0.072500 -0.948155 -0.309427
vn -0.404157 -0.527084 -0.747556
vn -0.404157 -0.527084 -0.747556
vn -0.404157 -0.527084 -0.747556
vn -0.404157 -0.527084 -0.747556
vn -0.741412 -0.666123 -0.081167
vn -0.741412 -0.666123 -0.081167
vn -0.741412 -0.666123 -0.081167
vn -0.741412 -0.666123 -0.081167
vn -0.741412 -0.666123 -0.081167
vn -0.741412 -0.666123 -0.081167
vn 0.797597 0.603189 -0.001472
vn 0.797597 0.603189 -0.001472
vn 0.797597 0.603189 -0.001472
vn 0.797597 0.603189 -0.001472
vn 0.797597 0.603189 -0.001472
vn 0.797597 0.603189 -0.001472
vn -0.071031 -0.957763 -0.278649
vn -0.071031 -0.957763 -0.278649
vn -0.071031 -0.957763 -0.278649
vn -0.071031 -0.957763 -0.278649
vn 0.224187 -0.762648 0.606720
vn 0.224187 -0.762648 0.606720
vn 0.224187 -0.762648 0.606720
vn 0.224187 -0.762648 0.606720
vn 0.265419 0.424847 0.865481
vn 0.265419 0.424847 0.865481
vn 0.265419 0.424847 0.865481
vn 0.265419 0.424847 0.865481
vn 0.052662 0.957922 0.282156
vn 0.052662 0.957922 0.282156
vn 0.052662 0.957922 0.282156
vn 0.052662 0.957922 0.282156
vn -0.225344 0.762059 -0.607031
vn -0.225344 0.762059 -0.607031
vn -0.225344 0.762059 -0.607031
vn -0.225344 0.762059 -0.607031
vn -0.276124 -0.431998 -0.858565
vn -0.276124 -0.431998 -0.858565
vn -0.276124 -0.431998 -0.858565
vn -0.276124 -0.431998 -0.858565
vn 0.171244 -0.935144 -0.310130
vn 0.171244 -0.935144 -0.310130
vn 0.171244 -0.935144 -0.310130
vn 0.171244 -0.935144 -0.310130
vn 0.654466 -0.413490 0.633009
vn 0.654466 -0.413490 0.633009
vn 0.654466 -0.413490 0.633009
vn 0.654466 -0.413490 0.633009
vn 0.370180 0.484196 0.792793
vn 0.370180 0.484196 0.792793
vn 0.370180 0.484196 0.792793
vn 0.370180 0.484196 0.792793
vn -0.182028 0.932634 0.311544
vn -0.182028 0.932634 0.311544
vn -0.182028 0.932634 0.311544
vn -0.182028 0.932634 0.311544
vn -0.655908 0.411719 -0.632670
vn -0.655908 0.411719 -0.632670
vn -0.655908 0.411719 -0.632670
vn -0.655908 0.411719 -0.632670
vn -0.382413 -0.491565 -0.782384
vn -0.382413 -0.491565 -0.782384
vn -0.382413 -0.491565 -0.782384
vn -0.382413 -0.491565 -0.782384
vn -0.161578 -0.958036 -0.236768
vn -0.161578 -0.958036 -0.236768
vn -0.161578 -0.958036 -0.236768
vn -0.161578 -0.958036 -0.236768
vn -0.109620 -0.853863 0.508824
vn -0.109620 -0.853863 0.508824
vn -0.109620 -0.853863 0.508824
vn -0.109620 -0.853863 0.508824
vn 0.075183 0.283357 0.956063
vn 0.075183 0.283357 0.956063
vn 0.075183 0.283357 0.956063
vn 0.075183 0.283357 0.956063
vn 0.146714 0.959528 0.240378
vn 0.146714 0.959528 0.240378
vn 0.146714 0.959528 0.240378
vn 0.146714 0.959528 0.240378
vn 0.111778 0.854153 -0.507866
vn 0.111778 0.854153 -0.507866
vn 0.111778 0.854153 -0.507866
vn 0.111778 0.854153 -0.507866
vn -0.081898 -0.288197 -0.954063
vn -0.081898 -0.288197 -0.954063
vn -0.081898 -0.288197 -0.954063
vn -0.081898 -0.288197 -0.954063
vn -0.084933 -0.964394 -0.250460
vn -0.084933 -0.964394 -0.250460
vn -0.084933 -0.964394 -0.250460
vn -0.084933 -0.964394 -0.250460
vn -0.227419 -0.856653 0.463062
vn -0.227419 -0.856653 0.463062
vn -0.227419 -0.856653 0.463062
vn -0.227419 -0.856653 0.463062
vn -0.207991 0.066584 0.975862
vn -0.207991 0.066584 0.975862
vn -0.207991 0.066584 0.975862
vn -0.207991 0.066584 0.975862
vn 0.074749 0.964636 0.252763
vn 0.074749 0.964636 0.252763
vn 0.074749 0.964636 0.252763
vn 0.074749 0.964636 0.252763
vn 0.221390 0.856571 -0.466124
vn 0.221390 0.856571 -0.466124
vn 0.221390 0.856571 -0.466124
vn 0.221390 0.856571 -0.466124
vn 0.208740 -0.065998 -0.975742
vn 0.208740 -0.065998 -0.975742
vn 0.208740 -0.065998 -0.975742
vn 0.208740 -0.065998 -0.975742
vn 0.757968 -0.566658 -0.323085
vn 0.757968 -0.566658 -0.323085
vn 0.757968 -0.566658 -0.323085
vn 0.757968 -0.566658 -0.323085
vn 0.239760 -0.741976 0.626088
vn 0.239760 -0.741976 0.626088
vn 0.239760 -0.741976 0.626088
vn 0.239760 -0.741976 0.626088
vn -0.475639 -0.162712 0.864461
vn -0.475639 -0.162712 0.864461
vn -0.475639 -0.162712 0.864461
vn -0.475639 -0.162712 0.864461
vn -0.759610 0.564595 0.322840
vn -0.759610 0.564595 0.322840
vn -0.759610 0.564595 0.322840
vn -0.759610 0.564595 0.322840
vn -0.241643 0.741064 -0.626444
vn -0.241643 0.741064 -0.626444
vn -0.241643 0.741064 -0.626444
vn -0.241643 0.741064 -0.626444
vn 0.470491 0.157911 -0.868160
vn 0.470491 0.157911 -0.868160
vn 0.470491 0.157911 -0.868160
vn 0.470491 0.157911 -0.868160
vn 0.188701 -0.933162 -0.305943
vn 0.188701 -0.933162 -0.305943
vn 0.188701 -0.933162 -0.305943
vn 0.188701 -0.933162 -0.305943
vn 0.531420 -0.547857 0.646101
vn 0.531420 -0.547857 0.646101
vn 0.531420 -0.547857 0.646101
vn 0.531420 -0.547857 0.646101
vn 0.282364 0.414824 0.864981
vn 0.282364 0.414824 0.864981
vn 0.282364 0.414824 0.864981
vn 0.282364 0.414824 0.864981
vn -0.192542 0.932202 0.306475
vn -0.192542 0.932202 0.306475
vn -0.192542 0.932202 0.306475
vn -0.192542 0.932202 0.306475
vn -0.531546 0.547751 -0.646087
vn -0.531546 0.547751 -0.646087
vn -0.531546 0.547751 -0.646087
vn -0.531546 0.547751 -0.646087
vn -0.286281 -0.417253 -0.862521
vn -0.286281 -0.417253 -0.862521
vn -0.286281 -0.417253 -0.862521
vn -0.286281 -0.417253 -0.862521

vt -0.211851 -0.194612
vt -0.213185 -0.195297
vt -0.212517 -0.193032
vt -0.211161 -0.192391
vt -0.280935 -0.186213
vt -0.282376 -0.186632
vt -0.281826 -0.184322
vt -0.280382 -0.183918
vt -0.090195 -0.248404
vt -0.091669 -0.248125
vt -0.091688 -0.245774
vt -0.090210 -0.246030
vt 0.212693 -0.196266
vt 0.211359 -0.195580
vt 0.210663 -0.193373
vt 0.212019 -0.194014
vt 0.281897 -0.187706
vt 0.280458 -0.187285
vt 0.279889 -0.185055
vt 0.281333 -0.185462
vt 0.092525 -0.250893
vt 0.091051 -0.251173
vt 0.091072 -0.248849
vt 0.092550 -0.248591
vt 0.177444 -0.299123
vt 0.178644 -0.300023
vt 0.178464 -0.301512
vt 0.177085 -0.302102
vt 0.175885 -0.301202
vt 0.176064 -0.299713
vt -0.161287 -0.299940
vt -0.161012 -0.301414
vt -0.162152 -0.302389
vt -0.163567 -0.301890
vt -0.163841 -0.300415
vt -0.162701 -0.299440
vt 0.275251 -0.197661
vt 0.276693 -0.198074
vt 0.276392 -0.200118
vt 0.274953 -0.199695
vt 0.257613 -0.092243
vt 0.258973 -0.092876
vt 0.259495 -0.094902
vt 0.258150 -0.094238
vt -0.079492 -0.198025
vt -0.078008 -0.198247
vt -0.077235 -0.200208
vt -0.078716 -0.199968
vt -0.277007 -0.197847
vt -0.275565 -0.197437
vt -0.275259 -0.199512
vt -0.276699 -0.199933
vt -0.258549 -0.093748
vt -0.257189 -0.093115
vt -0.257724 -0.095116
vt -0.259069 -0.095780
vt 0.078489 -0.200836
vt 0.079973 -0.200613
vt 0.079191 -0.202515
vt 0.077710 -0.202755
vt 0.284478 -0.169947
vt 0.285935 -0.170305
vt 0.286575 -0.172753
vt 0.285125 -0.172370
vt 0.210547 -0.193505
vt 0.211934 -0.194077
vt 0.212495 -0.196578
vt 0.211123 -0.195969
vt -0.083972 -0.231665
vt -0.082488 -0.231882
vt -0.082596 -0.234453
vt -0.084078 -0.234226
vt -0.285982 -0.170282
vt -0.284526 -0.169925
vt -0.285161 -0.172394
vt -0.286612 -0.172777
vt -0.211996 -0.193892
vt -0.210609 -0.193320
vt -0.211192 -0.195769
vt -0.212563 -0.196378
vt 0.083074 -0.234458
vt 0.084558 -0.234239
vt 0.084658 -0.236745
vt 0.083175 -0.236973
vt 0.274985 -0.199980
vt 0.276436 -0.200361
vt 0.275359 -0.202481
vt 0.273912 -0.202085
vt 0.280830 -0.038656
vt 0.282170 -0.039331
vt 0.282289 -0.041731
vt 0.280962 -0.041031
vt -0.067451 -0.118798
vt -0.065964 -0.118993
vt -0.064515 -0.120922
vt -0.066001 -0.120713
vt -0.276597 -0.200751
vt -0.275146 -0.200373
vt -0.274068 -0.202515
vt -0.275516 -0.202908
vt -0.281619 -0.040571
vt -0.280279 -0.039895
vt -0.280413 -0.042264
vt -0.281739 -0.042965
vt 0.066236 -0.121069
vt 0.067723 -0.120874
vt 0.066265 -0.122733
vt 0.064779 -0.122942
vt 0.279956 -0.190959
vt 0.281410 -0.191324
vt 0.280107 -0.192861
vt 0.278652 -0.192498
vt 0.289403 -0.026701
vt 0.290716 -0.027425
vt 0.290282 -0.029402
vt 0.288973 -0.028670
vt -0.052927 0.002538
vt -0.051441 0.002337
vt -0.050180 0.000739
vt -0.051664 0.000956
vt -0.281375 -0.192007
vt -0.279920 -0.191643
vt -0.278612 -0.193205
vt -0.280068 -0.193567
vt -0.289315 -0.029195
vt -0.287999 -0.028475
vt -0.287569 -0.030457
vt -0.288881 -0.031185
vt 0.051447 0.002329
vt 0.052934 0.002530
vt 0.051670 0.000958
vt 0.050185 0.000741
vt 0.304774 -0.095563
vt 0.306218 -0.095968
vt 0.304842 -0.097643
vt 0.303393 -0.097255
vt 0.253041 -0.085944
vt 0.254434 -0.086501
vt 0.252892 -0.088002
vt 0.251492 -0.087462
vt -0.030368 0.129837
vt -0.028892 0.129570
vt -0.029277 0.127453
vt -0.030753 0.127720
vt -0.306448 -0.095119
vt -0.305003 -0.094713
vt -0.303627 -0.096386
vt -0.305076 -0.096775
vt -0.254044 -0.087488
vt -0.252651 -0.086931
vt -0.251097 -0.088464
vt -0.252496 -0.089004
vt 0.029759 0.125827
vt 0.031235 0.126093
vt 0.031622 0.123943
vt 0.030146 0.123679
vt 0.288954 -0.160681
vt 0.290414 -0.161026
vt 0.290658 -0.163691
vt 0.289201 -0.163337
vt 0.227285 -0.150780
vt 0.228693 -0.151296
vt 0.229135 -0.153951
vt 0.227733 -0.153419
vt -0.077091 -0.191538
vt -0.075602 -0.191715
vt -0.075441 -0.194408
vt -0.076930 -0.194225
vt -0.290277 -0.161655
vt -0.288817 -0.161310
vt -0.289059 -0.163988
vt -0.290516 -0.164342
vt -0.228766 -0.151103
vt -0.227357 -0.150588
vt -0.227807 -0.153223
vt -0.229210 -0.153755
vt 0.075650 -0.191910
vt 0.077140 -0.191733
vt 0.076975 -0.194395
vt 0.075486 -0.194578
s off
f 1/1/1 2/2/2 3/3/3
f 1/1/1 3/3/3 4/4/4
f 5/5/5 6/6/6 7/7/7
f 5/5/5 7/7/7 8/8/8
f 9/9/9 10/10/10 11/11/11
f 9/9/9 11/11/11 12/12/12
f 13/13/13 14/14/14 15/15/15
f 13/13/13 15/15/15 16/16/16
f 17/17/17 18/18/18 19/19/19
f 17/17/17 19/19/19 20/20/20
f 21/21/21 22/22/22 23/23/23
f 21/21/21 23/23/23 24/24/24
f 25/25/25 26/26/26 27/27/27
f 25/25/25 27/27/27 28/28/28
f 25/25/25 28/28/28 29/29/29
f 25/25/25 29/29/29 30/30/30
f 31/31/31 32/32/32 33/33/33
f 31/31/31 33/33/33 34/34/34
f 31/31/31 34/34/34 35/35/35
f 31/31/31 35/35/35 36/36/36
f 37/37/37 38/38/38 39/39/39
f 37/37/37 39/39/39 40/40/40
f 41/41/41 42/42/42 43/43/43
f 41/41/41 43/43/43 44/44/44
f 45/45/45 46/46/46 47/47/47
f 45/45/45 47/47/47 48/48/48
f 49/49/49 50/50/50 51/51/51
f 49/49/49 51/51/51 52/52/52
f 53/53/53 54/54/54 55/55/55
f 53/53/53 55/55/55 56/56/56
f 57/57/57 58/58/58 59/59/59
f 57/57/57 59/59/59 60/60/60
f 61/61/61 62/62/62 63/63/63
f 61/61/61 63/63/63 64/64/64
f 65/65/65 66/66/66 67/67/67
f 65/65/65 67/67/67 68/68/68
f 69/69/69 70/70/70 71/71/71
f 69/69/69 71/71/71 72/72/72
f 73/73/73 74/74/74 75/75/75
f 73/73/73 75/75/75 76/76/76
f 77/77/77 78/78/78 79/79/79
f 77/77/77 79/79/79 80/80/80
f 81/81/81 82/82/82 83/83/83
f 81/81/81 83/83/83 84/84/84
f 85/85/85 86/86/86 87/87/87
f 85/85/85 87/87/87 88/88/88
f 89/89/89 90/90/90 91/91/91
f 89/89/89 91/91/91 92/92/92
f 93/93/93 94/94/94 95/95/95
f 93/93/93 95/95/95 96/96/96
f 97/97/97 98/98/98 99/99/99
f 97/97/97 99/99/99 100/100/100
f 101/101/101 102/102/102 103/103/103
f 101/101/101 103/103/103 104/104/104
f 105/105/105 106/106/106 107/107/107
f 105/105/105 107/107/107 108/108/108
f 109/109/109 110/110/110 111/111/111
f 109/109/109 111/111/111 112/112/112
f 113/113/113 114/114/114 115/115/115
f 113/113/113 115/115/115 116/116/116
f 117/117/117 118/118/118 119/119/119
f 117/117/117 119/119/119 120/120/120
f 121/121/121 122/122/122 123/123/123
f 121/121/121 123/123/123 124/124/124
f 125/125/125 126/126/126 127/127/127
f 125/125/125 127/127/127 128/128/128
f 129/129/129 130/130/130 131/131/131
f 129/129/129 131/131/131 132/132/132
f 133/133/133 134/134/134 135/135/135
f 133/133/133 135/135/135 136/136/136
f 137/137/137 138/138/138 139/139/139
f 137/137/137 139/139/139 140/140/140
f 141/141/141 142/142/142 143/143/143
f 141/141/141 143/143/143 144/144/144
f 145/145/145 146/146/146 147/147/147
f 145/145/145 147/147/147 148/148/148
f 149/149/149 150/150/150 151/151/151
f 149/149/149 151/151/151 152/152/152
f 153/153/153 154/154/154 155/155/155
f 153/153/153 155/155/155 156/156/156
f 157/157/157 158/158/158 159/159/159
f 157/157/157 159/159/159 160/160/160
f 161/161/161 162/162/162 163/163/163
f 161/161/161 163/163/163 164/164/164
f 165/165/165 166/166/166 167/167/167
f 165/165/165 167/167/167 168/168/168
f 169/169/169 170/170/170 171/171/171
f 169/169/169 171/171/171 172/172/172
f 173/173/173 174/174/174 175/175/175
f 173/173/173 175/175/175 176/176/176
f 177/177/177 178/178/178 179/179/179
f 177/177/177 179/179/179 180/180/180
