# Exported using automatic converter by Erwin Coumans
mtllib botlab.mtl
#object mesh928968919

v -1.116762 -0.914511 2.299851
v -1.124262 -0.914511 2.301861
v -1.124262 -0.884511 2.301861
v -1.116762 -0.884511 2.299851
v -1.124262 -0.914511 2.301861
v -1.129753 -0.914511 2.307352
v -1.129753 -0.884511 2.307352
v -1.124262 -0.884511 2.301861
v -1.129753 -0.914511 2.307352
v -1.131762 -0.914511 2.314852
v -1.131762 -0.884511 2.314852
v -1.129753 -0.884511 2.307352
v -1.131762 -0.914511 2.314852
v -1.129753 -0.914511 2.322351
v -1.129753 -0.884511 2.322351
v -1.131762 -0.884511 2.314852
v -1.129753 -0.914511 2.322351
v -1.124262 -0.914511 2.327842
v -1.124262 -0.884511 2.327842
v -1.129753 -0.884511 2.322351
v -1.124262 -0.914511 2.327842
v -1.116762 -0.914511 2.329852
v -1.116762 -0.884511 2.329852
v -1.124262 -0.884511 2.327842
v -1.116762 -0.914511 2.329852
v -1.109262 -0.914511 2.327842
v -1.109262 -0.884511 2.327842
v -1.116762 -0.884511 2.329852
v -1.109262 -0.914511 2.327842
v -1.103772 -0.914511 2.322351
v -1.103772 -0.884511 2.322351
v -1.109262 -0.884511 2.327842
v -1.103772 -0.914511 2.322351
v -1.101762 -0.914511 2.314852
v -1.101762 -0.884511 2.314852
v -1.103772 -0.884511 2.322351
v -1.101762 -0.914511 2.314852
v -1.103772 -0.914511 2.307352
v -1.103772 -0.884511 2.307352
v -1.101762 -0.884511 2.314852
v -1.103772 -0.914511 2.307352
v -1.109262 -0.914511 2.301861
v -1.109262 -0.884511 2.301861
v -1.103772 -0.884511 2.307352
v -1.109262 -0.914511 2.301861
v -1.116762 -0.914511 2.299851
v -1.116762 -0.884511 2.299851
v -1.109262 -0.884511 2.301861
v -1.116762 -0.884511 2.299851
v -1.124262 -0.884511 2.301861
v -1.129753 -0.884511 2.307352
v -1.131762 -0.884511 2.314852
v -1.129753 -0.884511 2.322351
v -1.124262 -0.884511 2.327842
v -1.116762 -0.884511 2.329852
v -1.109262 -0.884511 2.327842
v -1.103772 -0.884511 2.322351
v -1.101762 -0.884511 2.314852
v -1.103772 -0.884511 2.307352
v -1.109262 -0.884511 2.301861
v -1.109262 -0.914511 2.301861
v -1.103772 -0.914511 2.307352
v -1.101762 -0.914511 2.314852
v -1.103772 -0.914511 2.322351
v -1.109262 -0.914511 2.327842
v -1.116762 -0.914511 2.329852
v -1.124262 -0.914511 2.327842
v -1.129753 -0.914511 2.322351
v -1.131762 -0.914511 2.314852
v -1.129753 -0.914511 2.307352
v -1.124262 -0.914511 2.301861
v -1.116762 -0.914511 2.299851
usemtl mat22

vn 0.000000 -0.000000 -1.000000
vn 0.000000 -0.000000 -1.000000
vn 0.000000 -0.000000 -1.000000
vn 0.000000 -0.000000 -1.000000
vn -0.500000 -0.000000 -0.866025
vn -0.500000 -0.000000 -0.866025
vn -0.500000 -0.000000 -0.866025
vn -0.500000 -0.000000 -0.866025
vn -0.866025 -0.000000 -0.500000
vn -0.866025 -0.000000 -0.500000
vn -0.866025 -0.000000 -0.500000
vn -0.866025 -0.000000 -0.500000
vn -1.000000 0.000000 -0.000000
vn -1.000000 0.000000 -0.000000
vn -1.000000 0.000000 -0.000000
vn -1.000000 0.000000 -0.000000
vn -0.866025 0.000000 0.500000
vn -0.866025 0.000000 0.500000
vn -0.866025 0.000000 0.500000
vn -0.866025 0.000000 0.500000
vn -0.500000 0.000000 0.866025
vn -0.500000 0.000000 0.866025
vn -0.500000 0.000000 0.866025
vn -0.500000 0.000000 0.866025
vn 0.000000 0.000000 1.000000
vn 0.000000 0.000000 1.000000
vn 0.000000 0.000000 1.000000
vn 0.000000 0.000000 1.000000
vn 0.500000 0.000000 0.866025
vn 0.500000 0.000000 0.866025
vn 0.500000 0.000000 0.866025
vn 0.500000 0.000000 0.866025
vn 0.866025 0.000000 0.500000
vn 0.866025 0.000000 0.500000
vn 0.866025 0.000000 0.500000
vn 0.866025 0.000000 0.500000
vn 1.000000 -0.000000 0.000000
vn 1.000000 -0.000000 0.000000
vn 1.000000 -0.000000 0.000000
vn 1.000000 -0.000000 0.000000
vn 0.866026 -0.000000 -0.500000
vn 0.866026 -0.000000 -0.500000
vn 0.866026 -0.000000 -0.500000
vn 0.866026 -0.000000 -0.500000
vn 0.500000 -0.000000 -0.866026
vn 0.500000 -0.000000 -0.866026
vn 0.500000 -0.000000 -0.866026
vn 0.500000 -0.000000 -0.866026
vn 0.000000 1.000000 -0.000000
vn 0.000000 1.000000 -0.000000
vn 0.000000 1.000000 -0.000000
vn 0.000000 1.000000 -0.000000
vn 0.000000 1.000000 -0.000000
vn 0.000000 1.000000 -0.000000
vn 0.000000 1.000000 -0.000000
vn 0.000000 1.000000 -0.000000
vn 0.000000 1.000000 -0.000000
vn 0.000000 1.000000 -0.000000
vn 0.000000 1.000000 -0.000000
vn 0.000000 1.000000 -0.000000
vn -0.000000 -1.000000 0.000000
vn -0.000000 -1.000000 0.000000
vn -0.000000 -1.000000 0.000000
vn -0.000000 -1.000000 0.000000
vn -0.000000 -1.000000 0.000000
vn -0.000000 -1.000000 0.000000
vn -0.000000 -1.000000 0.000000
vn -0.000000 -1.000000 0.000000
vn -0.000000 -1.000000 0.000000
vn -0.000000 -1.000000 0.000000
vn -0.000000 -1.000000 0.000000
vn -0.000000 -1.000000 0.000000

vt -0.025268 -0.146686
vt -0.025603 -0.147357
vt -0.028286 -0.146015
vt -0.027951 -0.145344
vt -0.083682 -0.274424
vt -0.084006 -0.275100
vt -0.086712 -0.273805
vt -0.086388 -0.273129
vt -0.146754 -0.319345
vt -0.147148 -0.319984
vt -0.149700 -0.318407
vt -0.149306 -0.317769
vt -0.235808 -0.221277
vt -0.236419 -0.221713
vt -0.238162 -0.219272
vt -0.237552 -0.218836
vt -0.208090 0.033346
vt -0.208790 0.033613
vt -0.207721 0.036416
vt -0.207021 0.036149
vt -0.056445 0.004502
vt -0.056886 0.005108
vt -0.054460 0.006873
vt -0.054019 0.006266
vt 0.025268 -0.146686
vt 0.024932 -0.146015
vt 0.027615 -0.144674
vt 0.027951 -0.145344
vt 0.083682 -0.274424
vt 0.083358 -0.273748
vt 0.086064 -0.272452
vt 0.086388 -0.273129
vt 0.146754 -0.319346
vt 0.146360 -0.318707
vt 0.148912 -0.317131
vt 0.149306 -0.317769
vt 0.235808 -0.221277
vt 0.235198 -0.220841
vt 0.236942 -0.218400
vt 0.237552 -0.218836
vt 0.208090 0.033346
vt 0.207389 0.033079
vt 0.206320 0.035882
vt 0.207021 0.036149
vt 0.056445 0.004502
vt 0.056004 0.003895
vt 0.053578 0.005660
vt 0.054019 0.006266
vt -0.252488 -0.241489
vt -0.252425 -0.242263
vt -0.252757 -0.242965
vt -0.253396 -0.243407
vt -0.254170 -0.243470
vt -0.254871 -0.243137
vt -0.255313 -0.242499
vt -0.255376 -0.241725
vt -0.255044 -0.241023
vt -0.254405 -0.240581
vt -0.253631 -0.240518
vt -0.252929 -0.240851
vt 0.252929 -0.240851
vt 0.253631 -0.240518
vt 0.254405 -0.240581
vt 0.255044 -0.241023
vt 0.255376 -0.241725
vt 0.255313 -0.242499
vt 0.254871 -0.243137
vt 0.254170 -0.243470
vt 0.253396 -0.243407
vt 0.252757 -0.242965
vt 0.252425 -0.242263
vt 0.252488 -0.241489
s off
f 1/1/1 2/2/2 3/3/3
f 1/1/1 3/3/3 4/4/4
f 5/5/5 6/6/6 7/7/7
f 5/5/5 7/7/7 8/8/8
f 9/9/9 10/10/10 11/11/11
f 9/9/9 11/11/11 12/12/12
f 13/13/13 14/14/14 15/15/15
f 13/13/13 15/15/15 16/16/16
f 17/17/17 18/18/18 19/19/19
f 17/17/17 19/19/19 20/20/20
f 21/21/21 22/22/22 23/23/23
f 21/21/21 23/23/23 24/24/24
f 25/25/25 26/26/26 27/27/27
f 25/25/25 27/27/27 28/28/28
f 29/29/29 30/30/30 31/31/31
f 29/29/29 31/31/31 32/32/32
f 33/33/33 34/34/34 35/35/35
f 33/33/33 35/35/35 36/36/36
f 37/37/37 38/38/38 39/39/39
f 37/37/37 39/39/39 40/40/40
f 41/41/41 42/42/42 43/43/43
f 41/41/41 43/43/43 44/44/44
f 45/45/45 46/46/46 47/47/47
f 45/45/45 47/47/47 48/48/48
f 49/49/49 50/50/50 51/51/51
f 49/49/49 51/51/51 52/52/52
f 49/49/49 52/52/52 53/53/53
f 49/49/49 53/53/53 54/54/54
f 49/49/49 54/54/54 55/55/55
f 49/49/49 55/55/55 56/56/56
f 49/49/49 56/56/56 57/57/57
f 49/49/49 57/57/57 58/58/58
f 49/49/49 58/58/58 59/59/59
f 49/49/49 59/59/59 60/60/60
f 61/61/61 62/62/62 63/63/63
f 61/61/61 63/63/63 64/64/64
f 61/61/61 64/64/64 65/65/65
f 61/61/61 65/65/65 66/66/66
f 61/61/61 66/66/66 67/67/67
f 61/61/61 67/67/67 68/68/68
f 61/61/61 68/68/68 69/69/69
f 61/61/61 69/69/69 70/70/70
f 61/61/61 70/70/70 71/71/71
f 61/61/61 71/71/71 72/72/72
