# Exported using automatic converter by Erwin Coumans
mtllib model6.mtl
#object mesh962681721

v -0.701762 0.615489 -2.695148
v -0.705112 0.615489 -2.707648
v -0.705112 0.665489 -2.707648
v -0.701762 0.665489 -2.695148
v -0.705112 0.615489 -2.707648
v -0.714262 0.615489 -2.716799
v -0.714262 0.665489 -2.716799
v -0.705112 0.665489 -2.707648
v -0.714262 0.615489 -2.716799
v -0.726762 0.615489 -2.720148
v -0.726762 0.665489 -2.720148
v -0.714262 0.665489 -2.716799
v -0.726762 0.615489 -2.720148
v -0.739262 0.615489 -2.716799
v -0.739262 0.665489 -2.716799
v -0.726762 0.665489 -2.720148
v -0.739262 0.615489 -2.716799
v -0.748413 0.615489 -2.707648
v -0.748413 0.665489 -2.707648
v -0.739262 0.665489 -2.716799
v -0.748413 0.615489 -2.707648
v -0.751762 0.615489 -2.695148
v -0.751762 0.665489 -2.695148
v -0.748413 0.665489 -2.707648
v -0.751762 0.615489 -2.695148
v -0.748413 0.615489 -2.682648
v -0.748413 0.665489 -2.682648
v -0.751762 0.665489 -2.695148
v -0.748413 0.615489 -2.682648
v -0.739262 0.615489 -2.673498
v -0.739262 0.665489 -2.673498
v -0.748413 0.665489 -2.682648
v -0.739262 0.615489 -2.673498
v -0.726762 0.615489 -2.670148
v -0.726762 0.665489 -2.670148
v -0.739262 0.665489 -2.673498
v -0.726762 0.615489 -2.670148
v -0.714262 0.615489 -2.673498
v -0.714262 0.665489 -2.673498
v -0.726762 0.665489 -2.670148
v -0.714262 0.615489 -2.673498
v -0.705112 0.615489 -2.682648
v -0.705112 0.665489 -2.682648
v -0.714262 0.665489 -2.673498
v -0.705112 0.615489 -2.682648
v -0.701762 0.615489 -2.695148
v -0.701762 0.665489 -2.695148
v -0.705112 0.665489 -2.682648
v -0.701762 0.665489 -2.695148
v -0.705112 0.665489 -2.707648
v -0.714262 0.665489 -2.716799
v -0.726762 0.665489 -2.720148
v -0.739262 0.665489 -2.716799
v -0.748413 0.665489 -2.707648
v -0.751762 0.665489 -2.695148
v -0.748413 0.665489 -2.682648
v -0.739262 0.665489 -2.673498
v -0.726762 0.665489 -2.670148
v -0.714262 0.665489 -2.673498
v -0.705112 0.665489 -2.682648
v -0.705112 0.615489 -2.682648
v -0.714262 0.615489 -2.673498
v -0.726762 0.615489 -2.670148
v -0.739262 0.615489 -2.673498
v -0.748413 0.615489 -2.682648
v -0.751762 0.615489 -2.695148
v -0.748413 0.615489 -2.707648
v -0.739262 0.615489 -2.716799
v -0.726762 0.615489 -2.720148
v -0.714262 0.615489 -2.716799
v -0.705112 0.615489 -2.707648
v -0.701762 0.615489 -2.695148
usemtl mat15

vn 1.000000 -0.000000 -0.000000
vn 1.000000 -0.000000 -0.000000
vn 1.000000 -0.000000 -0.000000
vn 1.000000 -0.000000 -0.000000
vn 0.866025 -0.000000 -0.500000
vn 0.866025 -0.000000 -0.500000
vn 0.866025 -0.000000 -0.500000
vn 0.866025 -0.000000 -0.500000
vn 0.500000 -0.000000 -0.866026
vn 0.500000 -0.000000 -0.866026
vn 0.500000 -0.000000 -0.866026
vn 0.500000 -0.000000 -0.866026
vn -0.000000 0.000000 -1.000000
vn -0.000000 0.000000 -1.000000
vn -0.000000 0.000000 -1.000000
vn -0.000000 0.000000 -1.000000
vn -0.500000 0.000000 -0.866025
vn -0.500000 0.000000 -0.866025
vn -0.500000 0.000000 -0.866025
vn -0.500000 0.000000 -0.866025
vn -0.866025 0.000000 -0.500000
vn -0.866025 0.000000 -0.500000
vn -0.866025 0.000000 -0.500000
vn -0.866025 0.000000 -0.500000
vn -1.000000 0.000000 0.000000
vn -1.000000 0.000000 0.000000
vn -1.000000 0.000000 0.000000
vn -1.000000 0.000000 0.000000
vn -0.866025 0.000000 0.500000
vn -0.866025 0.000000 0.500000
vn -0.866025 0.000000 0.500000
vn -0.866025 0.000000 0.500000
vn -0.500000 0.000000 0.866026
vn -0.500000 0.000000 0.866026
vn -0.500000 0.000000 0.866026
vn -0.500000 0.000000 0.866026
vn 0.000000 -0.000000 1.000000
vn 0.000000 -0.000000 1.000000
vn 0.000000 -0.000000 1.000000
vn 0.000000 -0.000000 1.000000
vn 0.500000 -0.000000 0.866025
vn 0.500000 -0.000000 0.866025
vn 0.500000 -0.000000 0.866025
vn 0.500000 -0.000000 0.866025
vn 0.866026 -0.000000 0.500000
vn 0.866026 -0.000000 0.500000
vn 0.866026 -0.000000 0.500000
vn 0.866026 -0.000000 0.500000
vn 0.000000 1.000000 0.000000
vn 0.000000 1.000000 0.000000
vn 0.000000 1.000000 0.000000
vn 0.000000 1.000000 0.000000
vn 0.000000 1.000000 0.000000
vn 0.000000 1.000000 0.000000
vn 0.000000 1.000000 0.000000
vn 0.000000 1.000000 0.000000
vn 0.000000 1.000000 0.000000
vn 0.000000 1.000000 0.000000
vn 0.000000 1.000000 0.000000
vn 0.000000 1.000000 0.000000
vn -0.000000 -1.000000 0.000000
vn -0.000000 -1.000000 0.000000
vn -0.000000 -1.000000 0.000000
vn -0.000000 -1.000000 0.000000
vn -0.000000 -1.000000 0.000000
vn -0.000000 -1.000000 0.000000
vn -0.000000 -1.000000 0.000000
vn -0.000000 -1.000000 0.000000
vn -0.000000 -1.000000 0.000000
vn -0.000000 -1.000000 0.000000
vn -0.000000 -1.000000 0.000000
vn -0.000000 -1.000000 0.000000

vt -0.082943 0.194424
vt -0.083960 0.195151
vt -0.081054 0.199219
vt -0.080037 0.198493
vt -0.233608 0.028629
vt -0.234775 0.028184
vt -0.236557 0.032855
vt -0.235389 0.033301
vt -0.194766 -0.080773
vt -0.195501 -0.081784
vt -0.199545 -0.078843
vt -0.198810 -0.077832
vt -0.144674 -0.043380
vt -0.145233 -0.044498
vt -0.149705 -0.042262
vt -0.149146 -0.041144
vt -0.098953 0.048048
vt -0.099493 0.046920
vt -0.104003 0.049079
vt -0.103463 0.050207
vt -0.038620 0.146775
vt -0.039277 0.145712
vt -0.043530 0.148340
vt -0.042873 0.149403
vt 0.082943 0.194424
vt 0.081926 0.193698
vt 0.079019 0.197766
vt 0.080037 0.198493
vt 0.233608 0.028629
vt 0.232440 0.029074
vt 0.234222 0.033746
vt 0.235389 0.033301
vt 0.194766 -0.080773
vt 0.194031 -0.079762
vt 0.198074 -0.076821
vt 0.198810 -0.077832
vt 0.144674 -0.043380
vt 0.144115 -0.042262
vt 0.148587 -0.040026
vt 0.149146 -0.041144
vt 0.098953 0.048048
vt 0.098414 0.049175
vt 0.102924 0.051334
vt 0.103463 0.050207
vt 0.038620 0.146775
vt 0.037963 0.147839
vt 0.042216 0.150467
vt 0.042873 0.149403
vt 0.203954 -0.034407
vt 0.205244 -0.034302
vt 0.206414 -0.034856
vt 0.207150 -0.035921
vt 0.207255 -0.037211
vt 0.206701 -0.038380
vt 0.205636 -0.039116
vt 0.204346 -0.039221
vt 0.203177 -0.038667
vt 0.202441 -0.037602
vt 0.202336 -0.036313
vt 0.202890 -0.035143
vt -0.202890 -0.035143
vt -0.202336 -0.036313
vt -0.202441 -0.037602
vt -0.203177 -0.038667
vt -0.204346 -0.039221
vt -0.205636 -0.039116
vt -0.206701 -0.038380
vt -0.207255 -0.037211
vt -0.207150 -0.035921
vt -0.206414 -0.034856
vt -0.205244 -0.034302
vt -0.203954 -0.034407
s off
f 1/1/1 2/2/2 3/3/3
f 1/1/1 3/3/3 4/4/4
f 5/5/5 6/6/6 7/7/7
f 5/5/5 7/7/7 8/8/8
f 9/9/9 10/10/10 11/11/11
f 9/9/9 11/11/11 12/12/12
f 13/13/13 14/14/14 15/15/15
f 13/13/13 15/15/15 16/16/16
f 17/17/17 18/18/18 19/19/19
f 17/17/17 19/19/19 20/20/20
f 21/21/21 22/22/22 23/23/23
f 21/21/21 23/23/23 24/24/24
f 25/25/25 26/26/26 27/27/27
f 25/25/25 27/27/27 28/28/28
f 29/29/29 30/30/30 31/31/31
f 29/29/29 31/31/31 32/32/32
f 33/33/33 34/34/34 35/35/35
f 33/33/33 35/35/35 36/36/36
f 37/37/37 38/38/38 39/39/39
f 37/37/37 39/39/39 40/40/40
f 41/41/41 42/42/42 43/43/43
f 41/41/41 43/43/43 44/44/44
f 45/45/45 46/46/46 47/47/47
f 45/45/45 47/47/47 48/48/48
f 49/49/49 50/50/50 51/51/51
f 49/49/49 51/51/51 52/52/52
f 49/49/49 52/52/52 53/53/53
f 49/49/49 53/53/53 54/54/54
f 49/49/49 54/54/54 55/55/55
f 49/49/49 55/55/55 56/56/56
f 49/49/49 56/56/56 57/57/57
f 49/49/49 57/57/57 58/58/58
f 49/49/49 58/58/58 59/59/59
f 49/49/49 59/59/59 60/60/60
f 61/61/61 62/62/62 63/63/63
f 61/61/61 63/63/63 64/64/64
f 61/61/61 64/64/64 65/65/65
f 61/61/61 65/65/65 66/66/66
f 61/61/61 66/66/66 67/67/67
f 61/61/61 67/67/67 68/68/68
f 61/61/61 68/68/68 69/69/69
f 61/61/61 69/69/69 70/70/70
f 61/61/61 70/70/70 71/71/71
f 61/61/61 71/71/71 72/72/72
