# Exported using automatic converter by Erwin Coumans
mtllib botlab.mtl
#object mesh1511452353

v -1.851762 -1.034511 1.999851
v -1.851762 -1.034511 1.979851
v -1.841762 -1.034511 1.979851
v -1.841762 -1.034511 1.999851
v -1.131763 -1.034511 2.219851
v -1.131763 -0.994511 2.219851
v -1.131762 -0.994511 1.999852
v -1.131762 -1.034511 1.999852
v -1.841762 -1.034511 1.979851
v -1.131762 -1.034511 1.979852
v -1.131762 -1.034511 1.999852
v -1.841762 -1.034511 1.999851
v -1.131762 -0.994511 1.999852
v -1.131762 -0.994511 1.979852
v -1.841762 -0.994511 1.979851
v -1.841762 -0.994511 1.999851
v -1.131762 -1.034511 1.999852
v -1.131762 -0.994511 1.999852
v -1.841762 -0.994511 1.999851
v -1.841762 -1.034511 1.999851
v -1.841762 -0.994511 1.979851
v -1.131762 -0.994511 1.979852
v -1.131762 -1.034511 1.979852
v -1.841762 -1.034511 1.979851
v -1.851762 -1.034511 1.979851
v -1.851762 -0.994511 1.979851
v -1.841762 -0.994511 1.979851
v -1.841762 -1.034511 1.979851
v -1.851762 -0.994511 1.979851
v -1.851762 -0.994511 1.999851
v -1.841762 -0.994511 1.999851
v -1.841762 -0.994511 1.979851
v -1.841762 -0.994511 2.209851
v -1.841762 -1.034511 2.209851
v -1.841762 -1.034511 1.999851
v -1.841762 -0.994511 1.999851
v -1.851762 -0.994511 1.999851
v -1.851762 -0.994511 1.979851
v -1.851762 -1.034511 1.979851
v -1.851762 -1.034511 1.999851
v -1.111763 -0.994511 1.999852
v -1.111763 -0.994511 1.979852
v -1.131762 -0.994511 1.979852
v -1.131762 -0.994511 1.999852
v -1.111763 -0.994511 1.979852
v -1.111763 -1.034511 1.979852
v -1.131762 -1.034511 1.979852
v -1.131762 -0.994511 1.979852
v -1.111763 -1.034511 1.979852
v -1.111763 -1.034511 1.999852
v -1.131762 -1.034511 1.999852
v -1.131762 -1.034511 1.979852
v -1.111763 -1.034511 1.979852
v -1.111763 -0.994511 1.979852
v -1.111763 -0.994511 1.999852
v -1.111763 -1.034511 1.999852
v -1.131763 -0.994511 2.219851
v -1.111763 -0.994511 2.219851
v -1.111763 -0.994511 1.999852
v -1.131762 -0.994511 1.999852
v -1.111763 -0.994511 2.219851
v -1.111763 -1.034511 2.219851
v -1.111763 -1.034511 1.999852
v -1.111763 -0.994511 1.999852
v -1.111763 -1.034511 2.219851
v -1.131763 -1.034511 2.219851
v -1.131762 -1.034511 1.999852
v -1.111763 -1.034511 1.999852
v -1.111763 -1.034511 2.219851
v -1.111763 -0.994511 2.219851
v -1.131763 -0.994511 2.219851
v -1.131763 -1.034511 2.219851
v -1.841762 -1.034511 2.209851
v -1.851762 -1.034511 2.209851
v -1.851762 -1.034511 1.999851
v -1.841762 -1.034511 1.999851
v -1.851762 -1.034511 2.209851
v -1.851762 -0.994511 2.209851
v -1.851762 -0.994511 1.999851
v -1.851762 -1.034511 1.999851
v -1.851762 -0.994511 2.209851
v -1.841762 -0.994511 2.209851
v -1.841762 -0.994511 1.999851
v -1.851762 -0.994511 1.999851
v -1.851762 -0.994511 2.209851
v -1.851762 -1.034511 2.209851
v -1.841762 -1.034511 2.209851
v -1.841762 -0.994511 2.209851
usemtl mat23

vn -0.000003 -1.000000 -0.000000
vn -0.000003 -1.000000 -0.000000
vn -0.000003 -1.000000 -0.000000
vn -0.000003 -1.000000 -0.000000
vn -1.000000 0.000000 -0.000001
vn -1.000000 0.000000 -0.000001
vn -1.000000 0.000000 -0.000001
vn -1.000000 0.000000 -0.000001
vn -0.000000 -1.000000 0.000000
vn -0.000000 -1.000000 0.000000
vn -0.000000 -1.000000 0.000000
vn -0.000000 -1.000000 0.000000
vn 0.000000 1.000000 -0.000000
vn 0.000000 1.000000 -0.000000
vn 0.000000 1.000000 -0.000000
vn 0.000000 1.000000 -0.000000
vn -0.000000 0.000000 1.000000
vn -0.000000 0.000000 1.000000
vn -0.000000 0.000000 1.000000
vn -0.000000 0.000000 1.000000
vn 0.000000 -0.000000 -1.000000
vn 0.000000 -0.000000 -1.000000
vn 0.000000 -0.000000 -1.000000
vn 0.000000 -0.000000 -1.000000
vn 0.000010 -0.000000 -1.000000
vn 0.000010 -0.000000 -1.000000
vn 0.000010 -0.000000 -1.000000
vn 0.000010 -0.000000 -1.000000
vn 0.000004 1.000000 -0.000000
vn 0.000004 1.000000 -0.000000
vn 0.000004 1.000000 -0.000000
vn 0.000004 1.000000 -0.000000
vn 1.000000 -0.000000 -0.000002
vn 1.000000 -0.000000 -0.000002
vn 1.000000 -0.000000 -0.000002
vn 1.000000 -0.000000 -0.000002
vn -1.000000 0.000000 -0.000000
vn -1.000000 0.000000 -0.000000
vn -1.000000 0.000000 -0.000000
vn -1.000000 0.000000 -0.000000
vn -0.000005 1.000000 -0.000000
vn -0.000005 1.000000 -0.000000
vn -0.000005 1.000000 -0.000000
vn -0.000005 1.000000 -0.000000
vn 0.000004 -0.000000 -1.000000
vn 0.000004 -0.000000 -1.000000
vn 0.000004 -0.000000 -1.000000
vn 0.000004 -0.000000 -1.000000
vn 0.000004 -1.000000 -0.000000
vn 0.000004 -1.000000 -0.000000
vn 0.000004 -1.000000 -0.000000
vn 0.000004 -1.000000 -0.000000
vn 1.000000 0.000000 0.000000
vn 1.000000 0.000000 0.000000
vn 1.000000 0.000000 0.000000
vn 1.000000 0.000000 0.000000
vn -0.000002 1.000000 -0.000000
vn -0.000002 1.000000 -0.000000
vn -0.000002 1.000000 -0.000000
vn -0.000002 1.000000 -0.000000
vn 1.000000 0.000000 0.000001
vn 1.000000 0.000000 0.000001
vn 1.000000 0.000000 0.000001
vn 1.000000 0.000000 0.000001
vn 0.000002 -1.000000 0.000000
vn 0.000002 -1.000000 0.000000
vn 0.000002 -1.000000 0.000000
vn 0.000002 -1.000000 0.000000
vn 0.000000 -0.000000 1.000000
vn 0.000000 -0.000000 1.000000
vn 0.000000 -0.000000 1.000000
vn 0.000000 -0.000000 1.000000
vn -0.000001 -1.000000 0.000000
vn -0.000001 -1.000000 0.000000
vn -0.000001 -1.000000 0.000000
vn -0.000001 -1.000000 0.000000
vn -1.000000 -0.000000 0.000002
vn -1.000000 -0.000000 0.000002
vn -1.000000 -0.000000 0.000002
vn -1.000000 -0.000000 0.000002
vn 0.000002 1.000000 -0.000000
vn 0.000002 1.000000 -0.000000
vn 0.000002 1.000000 -0.000000
vn 0.000002 1.000000 -0.000000
vn -0.000000 -0.000000 1.000000
vn -0.000000 -0.000000 1.000000
vn -0.000000 -0.000000 1.000000
vn -0.000000 -0.000000 1.000000

vt 0.199515 -0.300617
vt 0.197631 -0.299945
vt 0.197967 -0.299003
vt 0.199851 -0.299676
vt -0.221103 -0.225521
vt -0.223428 -0.222266
vt -0.205526 -0.209478
vt -0.203201 -0.212733
vt 0.197968 -0.299003
vt 0.221848 -0.232139
vt 0.223731 -0.232812
vt 0.199851 -0.299676
vt -0.223731 -0.232812
vt -0.221848 -0.232139
vt -0.197968 -0.299003
vt -0.199851 -0.299676
vt 0.015205 -0.153394
vt 0.018783 -0.151605
vt 0.050535 -0.215110
vt 0.046957 -0.216899
vt -0.050535 -0.215110
vt -0.018783 -0.151605
vt -0.015205 -0.153394
vt -0.046957 -0.216899
vt -0.047404 -0.217790
vt -0.050981 -0.216002
vt -0.050534 -0.215107
vt -0.046956 -0.216896
vt -0.197631 -0.299945
vt -0.199515 -0.300617
vt -0.199851 -0.299676
vt -0.197967 -0.299003
vt 0.222614 -0.221683
vt 0.220289 -0.224938
vt 0.203201 -0.212732
vt 0.205526 -0.209477
vt -0.205526 -0.209478
vt -0.203898 -0.208316
vt -0.201573 -0.211571
vt -0.203201 -0.212733
vt -0.224404 -0.230929
vt -0.222520 -0.230256
vt -0.221848 -0.232139
vt -0.223731 -0.232812
vt -0.017888 -0.149815
vt -0.014310 -0.151604
vt -0.015205 -0.153393
vt -0.018782 -0.151604
vt 0.222520 -0.230256
vt 0.224404 -0.230929
vt 0.223731 -0.232812
vt 0.221848 -0.232139
vt 0.201573 -0.211571
vt 0.203898 -0.208316
vt 0.205526 -0.209478
vt 0.203201 -0.212733
vt -0.244449 -0.240212
vt -0.245122 -0.238328
vt -0.224404 -0.230929
vt -0.223731 -0.232812
vt 0.223428 -0.222266
vt 0.221103 -0.225521
vt 0.203201 -0.212734
vt 0.205526 -0.209479
vt 0.245122 -0.238328
vt 0.244449 -0.240212
vt 0.223731 -0.232812
vt 0.224404 -0.230929
vt 0.014311 -0.151606
vt 0.017889 -0.149817
vt 0.018783 -0.151606
vt 0.015205 -0.153394
vt 0.219628 -0.306739
vt 0.219291 -0.307680
vt 0.199515 -0.300617
vt 0.199851 -0.299676
vt -0.220289 -0.224938
vt -0.222614 -0.221683
vt -0.205526 -0.209477
vt -0.203201 -0.212732
vt -0.219291 -0.307680
vt -0.219628 -0.306739
vt -0.199851 -0.299676
vt -0.199515 -0.300617
vt 0.050982 -0.216004
vt 0.047405 -0.217793
vt 0.046957 -0.216899
vt 0.050535 -0.215110
s off
f 1/1/1 2/2/2 3/3/3
f 1/1/1 3/3/3 4/4/4
f 5/5/5 6/6/6 7/7/7
f 5/5/5 7/7/7 8/8/8
f 9/9/9 10/10/10 11/11/11
f 9/9/9 11/11/11 12/12/12
f 13/13/13 14/14/14 15/15/15
f 13/13/13 15/15/15 16/16/16
f 17/17/17 18/18/18 19/19/19
f 17/17/17 19/19/19 20/20/20
f 21/21/21 22/22/22 23/23/23
f 21/21/21 23/23/23 24/24/24
f 25/25/25 26/26/26 27/27/27
f 25/25/25 27/27/27 28/28/28
f 29/29/29 30/30/30 31/31/31
f 29/29/29 31/31/31 32/32/32
f 33/33/33 34/34/34 35/35/35
f 33/33/33 35/35/35 36/36/36
f 37/37/37 38/38/38 39/39/39
f 37/37/37 39/39/39 40/40/40
f 41/41/41 42/42/42 43/43/43
f 41/41/41 43/43/43 44/44/44
f 45/45/45 46/46/46 47/47/47
f 45/45/45 47/47/47 48/48/48
f 49/49/49 50/50/50 51/51/51
f 49/49/49 51/51/51 52/52/52
f 53/53/53 54/54/54 55/55/55
f 53/53/53 55/55/55 56/56/56
f 57/57/57 58/58/58 59/59/59
f 57/57/57 59/59/59 60/60/60
f 61/61/61 62/62/62 63/63/63
f 61/61/61 63/63/63 64/64/64
f 65/65/65 66/66/66 67/67/67
f 65/65/65 67/67/67 68/68/68
f 69/69/69 70/70/70 71/71/71
f 69/69/69 71/71/71 72/72/72
f 73/73/73 74/74/74 75/75/75
f 73/73/73 75/75/75 76/76/76
f 77/77/77 78/78/78 79/79/79
f 77/77/77 79/79/79 80/80/80
f 81/81/81 82/82/82 83/83/83
f 81/81/81 83/83/83 84/84/84
f 85/85/85 86/86/86 87/87/87
f 85/85/85 87/87/87 88/88/88
