# Exported using automatic converter by Erwin Coumans
mtllib model6.mtl
#object group690063755_1

v 2.738325 -0.585320 -1.178414
v 2.738427 -0.555320 -1.178544
v 2.761653 -0.555482 -1.197532
v 2.761550 -0.585481 -1.197402
v 2.805960 -0.555398 -1.143339
v 2.782734 -0.555237 -1.124351
v 2.782632 -0.585237 -1.124221
v 2.805857 -0.585398 -1.143209
v 2.761653 -0.555482 -1.197532
v 2.805960 -0.555398 -1.143339
v 2.805857 -0.585398 -1.143209
v 2.761550 -0.585481 -1.197402
v 2.782632 -0.585237 -1.124221
v 2.782734 -0.555237 -1.124351
v 2.738427 -0.555320 -1.178544
v 2.738325 -0.585320 -1.178414
v 2.805857 -0.585398 -1.143209
v 2.782632 -0.585237 -1.124221
v 2.738325 -0.585320 -1.178414
v 2.761550 -0.585481 -1.197402
v 2.738427 -0.555320 -1.178544
v 2.782734 -0.555237 -1.124351
v 2.805960 -0.555398 -1.143339
v 2.761653 -0.555482 -1.197532
v 2.777118 -0.576203 -1.352230
v 2.777220 -0.546204 -1.352359
v 2.796209 -0.546168 -1.329134
v 2.796107 -0.576168 -1.329004
v 2.726533 -0.545684 -1.272169
v 2.707545 -0.545720 -1.295394
v 2.707442 -0.575719 -1.295264
v 2.726431 -0.575684 -1.272039
v 2.796209 -0.546168 -1.329134
v 2.726533 -0.545684 -1.272169
v 2.726431 -0.575684 -1.272039
v 2.796107 -0.576168 -1.329004
v 2.707442 -0.575719 -1.295264
v 2.707545 -0.545720 -1.295394
v 2.777220 -0.546204 -1.352359
v 2.777118 -0.576203 -1.352230
v 2.726431 -0.575684 -1.272039
v 2.707442 -0.575719 -1.295264
v 2.777118 -0.576203 -1.352230
v 2.796107 -0.576168 -1.329004
v 2.777220 -0.546204 -1.352359
v 2.707545 -0.545720 -1.295394
v 2.726533 -0.545684 -1.272169
v 2.796209 -0.546168 -1.329134
usemtl mat21

vn -0.632960 -0.001189 -0.774184
vn -0.632960 -0.001189 -0.774184
vn -0.632960 -0.001189 -0.774184
vn -0.632960 -0.001189 -0.774184
vn 0.632960 0.001189 0.774184
vn 0.632960 0.001189 0.774184
vn 0.632960 0.001189 0.774184
vn 0.632960 0.001189 0.774184
vn 0.774177 -0.005375 -0.632946
vn 0.774177 -0.005375 -0.632946
vn 0.774177 -0.005375 -0.632946
vn 0.774177 -0.005375 -0.632946
vn -0.774177 0.005375 0.632946
vn -0.774177 0.005375 0.632946
vn -0.774177 0.005375 0.632946
vn -0.774177 0.005375 0.632946
vn -0.003409 -0.999985 0.004322
vn -0.003409 -0.999985 0.004322
vn -0.003409 -0.999985 0.004322
vn -0.003409 -0.999985 0.004322
vn 0.003409 0.999985 -0.004322
vn 0.003409 0.999985 -0.004322
vn 0.003409 0.999985 -0.004322
vn 0.003409 0.999985 -0.004322
vn 0.774177 -0.005375 -0.632946
vn 0.774177 -0.005375 -0.632946
vn 0.774177 -0.005375 -0.632946
vn 0.774177 -0.005375 -0.632946
vn -0.774177 0.005375 0.632946
vn -0.774177 0.005375 0.632946
vn -0.774177 0.005375 0.632946
vn -0.774177 0.005375 0.632946
vn 0.632960 0.001189 0.774184
vn 0.632960 0.001189 0.774184
vn 0.632960 0.001189 0.774184
vn 0.632960 0.001189 0.774184
vn -0.632960 -0.001189 -0.774184
vn -0.632960 -0.001189 -0.774184
vn -0.632960 -0.001189 -0.774184
vn -0.632960 -0.001189 -0.774184
vn -0.003409 -0.999985 0.004322
vn -0.003409 -0.999985 0.004322
vn -0.003409 -0.999985 0.004322
vn -0.003409 -0.999985 0.004322
vn 0.003409 0.999985 -0.004322
vn 0.003409 0.999985 -0.004322
vn 0.003409 0.999985 -0.004322
vn 0.003409 0.999985 -0.004322

vt 0.101374 0.180057
vt 0.098697 0.181412
vt 0.100052 0.184089
vt 0.102729 0.182734
vt -0.100052 0.184089
vt -0.098697 0.181412
vt -0.101374 0.180057
vt -0.102729 0.182734
vt 0.110895 0.070911
vt 0.116610 0.074953
vt 0.118342 0.072504
vt 0.112627 0.068462
vt -0.118342 0.072504
vt -0.116610 0.074953
vt -0.110895 0.070911
vt -0.112627 0.068462
vt 0.059806 0.243851
vt 0.060817 0.241026
vt 0.054227 0.238667
vt 0.053215 0.241492
vt -0.054227 0.238667
vt -0.060817 0.241026
vt -0.059806 0.243851
vt -0.053215 0.241492
vt 0.103068 0.062928
vt 0.101336 0.065377
vt 0.103785 0.067109
vt 0.105517 0.064660
vt -0.103785 0.067109
vt -0.101336 0.065377
vt -0.103068 0.062928
vt -0.105517 0.064660
vt -0.104128 0.194355
vt -0.100063 0.186325
vt -0.102740 0.184970
vt -0.106804 0.193000
vt 0.102740 0.184970
vt 0.100063 0.186325
vt 0.104128 0.194355
vt 0.106804 0.193000
vt 0.045009 0.240679
vt 0.042185 0.239668
vt 0.039152 0.248141
vt 0.041976 0.249152
vt -0.039152 0.248141
vt -0.042185 0.239668
vt -0.045009 0.240679
vt -0.041976 0.249152
s off
f 1/1/1 2/2/2 3/3/3
f 1/1/1 3/3/3 4/4/4
f 5/5/5 6/6/6 7/7/7
f 5/5/5 7/7/7 8/8/8
f 9/9/9 10/10/10 11/11/11
f 9/9/9 11/11/11 12/12/12
f 13/13/13 14/14/14 15/15/15
f 13/13/13 15/15/15 16/16/16
f 17/17/17 18/18/18 19/19/19
f 17/17/17 19/19/19 20/20/20
f 21/21/21 22/22/22 23/23/23
f 21/21/21 23/23/23 24/24/24
f 25/25/25 26/26/26 27/27/27
f 25/25/25 27/27/27 28/28/28
f 29/29/29 30/30/30 31/31/31
f 29/29/29 31/31/31 32/32/32
f 33/33/33 34/34/34 35/35/35
f 33/33/33 35/35/35 36/36/36
f 37/37/37 38/38/38 39/39/39
f 37/37/37 39/39/39 40/40/40
f 41/41/41 42/42/42 43/43/43
f 41/41/41 43/43/43 44/44/44
f 45/45/45 46/46/46 47/47/47
f 45/45/45 47/47/47 48/48/48
