# Exported using automatic converter by Erwin Coumans
mtllib model6.mtl
#object group1647841829_6

v 2.353238 -1.034511 1.967556
v 2.310738 -1.034511 1.978944
v 2.310738 -0.966511 1.978944
v 2.353238 -0.966511 1.967556
v 2.310738 -1.034511 1.978944
v 2.279625 -1.034511 2.010056
v 2.279625 -0.966511 2.010056
v 2.310738 -0.966511 1.978944
v 2.279625 -1.034511 2.010056
v 2.268238 -1.034511 2.052557
v 2.268238 -0.966511 2.052557
v 2.279625 -0.966511 2.010056
v 2.268238 -1.034511 2.052557
v 2.279625 -1.034511 2.095057
v 2.279625 -0.966511 2.095057
v 2.268238 -0.966511 2.052557
v 2.279625 -1.034511 2.095057
v 2.310738 -1.034511 2.126169
v 2.310738 -0.966511 2.126169
v 2.279625 -0.966511 2.095057
v 2.310738 -1.034511 2.126169
v 2.353238 -1.034511 2.137557
v 2.353238 -0.966511 2.137557
v 2.310738 -0.966511 2.126169
v 2.353238 -1.034511 2.137557
v 2.395738 -1.034511 2.126169
v 2.395738 -0.966511 2.126169
v 2.353238 -0.966511 2.137557
v 2.395738 -1.034511 2.126169
v 2.426850 -1.034511 2.095057
v 2.426850 -0.966511 2.095057
v 2.395738 -0.966511 2.126169
v 2.426850 -1.034511 2.095057
v 2.438238 -1.034511 2.052557
v 2.438238 -0.966511 2.052557
v 2.426850 -0.966511 2.095057
v 2.438238 -1.034511 2.052557
v 2.426850 -1.034511 2.010056
v 2.426850 -0.966511 2.010056
v 2.438238 -0.966511 2.052557
v 2.426850 -1.034511 2.010056
v 2.395738 -1.034511 1.978944
v 2.395738 -0.966511 1.978944
v 2.426850 -0.966511 2.010056
v 2.395738 -1.034511 1.978944
v 2.353238 -1.034511 1.967556
v 2.353238 -0.966511 1.967556
v 2.395738 -0.966511 1.978944
v 2.353238 -0.966511 1.967556
v 2.310738 -0.966511 1.978944
v 2.279625 -0.966511 2.010056
v 2.268238 -0.966511 2.052557
v 2.279625 -0.966511 2.095057
v 2.310738 -0.966511 2.126169
v 2.353238 -0.966511 2.137557
v 2.395738 -0.966511 2.126169
v 2.426850 -0.966511 2.095057
v 2.438238 -0.966511 2.052557
v 2.426850 -0.966511 2.010056
v 2.395738 -0.966511 1.978944
v 2.395738 -1.034511 1.978944
v 2.426850 -1.034511 2.010056
v 2.438238 -1.034511 2.052557
v 2.426850 -1.034511 2.095057
v 2.395738 -1.034511 2.126169
v 2.353238 -1.034511 2.137557
v 2.310738 -1.034511 2.126169
v 2.279625 -1.034511 2.095057
v 2.268238 -1.034511 2.052557
v 2.279625 -1.034511 2.010056
v 2.310738 -1.034511 1.978944
v 2.353238 -1.034511 1.967556
usemtl mat22

vn 0.000000 0.000000 -1.000000
vn 0.000000 0.000000 -1.000000
vn 0.000000 0.000000 -1.000000
vn 0.000000 0.000000 -1.000000
vn -0.500000 0.000000 -0.866026
vn -0.500000 0.000000 -0.866026
vn -0.500000 0.000000 -0.866026
vn -0.500000 0.000000 -0.866026
vn -0.866025 0.000000 -0.500000
vn -0.866025 0.000000 -0.500000
vn -0.866025 0.000000 -0.500000
vn -0.866025 0.000000 -0.500000
vn -1.000000 0.000000 -0.000000
vn -1.000000 0.000000 -0.000000
vn -1.000000 0.000000 -0.000000
vn -1.000000 0.000000 -0.000000
vn -0.866025 0.000000 0.500000
vn -0.866025 0.000000 0.500000
vn -0.866025 0.000000 0.500000
vn -0.866025 0.000000 0.500000
vn -0.500000 -0.000000 0.866025
vn -0.500000 -0.000000 0.866025
vn -0.500000 -0.000000 0.866025
vn -0.500000 -0.000000 0.866025
vn -0.000000 -0.000000 1.000000
vn -0.000000 -0.000000 1.000000
vn -0.000000 -0.000000 1.000000
vn -0.000000 -0.000000 1.000000
vn 0.500000 -0.000000 0.866025
vn 0.500000 -0.000000 0.866025
vn 0.500000 -0.000000 0.866025
vn 0.500000 -0.000000 0.866025
vn 0.866025 -0.000000 0.500000
vn 0.866025 -0.000000 0.500000
vn 0.866025 -0.000000 0.500000
vn 0.866025 -0.000000 0.500000
vn 1.000000 -0.000000 0.000000
vn 1.000000 -0.000000 0.000000
vn 1.000000 -0.000000 0.000000
vn 1.000000 -0.000000 0.000000
vn 0.866026 -0.000000 -0.500000
vn 0.866026 -0.000000 -0.500000
vn 0.866026 -0.000000 -0.500000
vn 0.866026 -0.000000 -0.500000
vn 0.500000 0.000000 -0.866026
vn 0.500000 0.000000 -0.866026
vn 0.500000 0.000000 -0.866026
vn 0.500000 0.000000 -0.866026
vn 0.000000 1.000000 0.000000
vn 0.000000 1.000000 0.000000
vn 0.000000 1.000000 0.000000
vn 0.000000 1.000000 0.000000
vn 0.000000 1.000000 0.000000
vn 0.000000 1.000000 0.000000
vn 0.000000 1.000000 0.000000
vn 0.000000 1.000000 0.000000
vn 0.000000 1.000000 0.000000
vn 0.000000 1.000000 0.000000
vn 0.000000 1.000000 0.000000
vn 0.000000 1.000000 0.000000
vn -0.000000 -1.000000 -0.000000
vn -0.000000 -1.000000 -0.000000
vn -0.000000 -1.000000 -0.000000
vn -0.000000 -1.000000 -0.000000
vn -0.000000 -1.000000 -0.000000
vn -0.000000 -1.000000 -0.000000
vn -0.000000 -1.000000 -0.000000
vn -0.000000 -1.000000 -0.000000
vn -0.000000 -1.000000 -0.000000
vn -0.000000 -1.000000 -0.000000
vn -0.000000 -1.000000 -0.000000
vn -0.000000 -1.000000 -0.000000

vt 0.140649 0.158314
vt 0.138748 0.154512
vt 0.132666 0.157553
vt 0.134567 0.161355
vt 0.062548 0.003284
vt 0.060713 -0.000549
vt 0.054579 0.002387
vt 0.056414 0.006220
vt -0.033414 -0.158726
vt -0.035648 -0.162342
vt -0.041433 -0.158768
vt -0.039199 -0.155152
vt -0.207490 -0.215797
vt -0.210948 -0.218267
vt -0.214900 -0.212733
vt -0.211442 -0.210263
vt -0.353251 0.075869
vt -0.357222 0.077383
vt -0.354799 0.083737
vt -0.350828 0.082222
vt -0.235195 0.229866
vt -0.237695 0.233303
vt -0.232196 0.237302
vt -0.229696 0.233865
vt -0.140649 0.158314
vt -0.142549 0.162115
vt -0.136467 0.165156
vt -0.134567 0.161355
vt -0.062548 0.003284
vt -0.064383 0.007118
vt -0.058249 0.010054
vt -0.056414 0.006220
vt 0.033414 -0.158726
vt 0.031180 -0.155110
vt 0.036965 -0.151536
vt 0.039199 -0.155152
vt 0.207490 -0.215797
vt 0.204031 -0.213326
vt 0.207984 -0.207793
vt 0.211442 -0.210263
vt 0.353251 0.075869
vt 0.349280 0.074354
vt 0.346857 0.080708
vt 0.350828 0.082222
vt 0.235195 0.229866
vt 0.232695 0.226429
vt 0.227196 0.230428
vt 0.229696 0.233865
vt -0.337903 0.096471
vt -0.337546 0.092086
vt -0.339429 0.088109
vt -0.343049 0.085607
vt -0.347434 0.085251
vt -0.351411 0.087134
vt -0.353912 0.090753
vt -0.354269 0.095139
vt -0.352386 0.099115
vt -0.348767 0.101617
vt -0.344381 0.101974
vt -0.340405 0.100091
vt 0.340405 0.100091
vt 0.344381 0.101974
vt 0.348767 0.101617
vt 0.352386 0.099115
vt 0.354269 0.095139
vt 0.353912 0.090753
vt 0.351411 0.087134
vt 0.347434 0.085251
vt 0.343049 0.085607
vt 0.339429 0.088109
vt 0.337546 0.092086
vt 0.337903 0.096471
s off
f 1/1/1 2/2/2 3/3/3
f 1/1/1 3/3/3 4/4/4
f 5/5/5 6/6/6 7/7/7
f 5/5/5 7/7/7 8/8/8
f 9/9/9 10/10/10 11/11/11
f 9/9/9 11/11/11 12/12/12
f 13/13/13 14/14/14 15/15/15
f 13/13/13 15/15/15 16/16/16
f 17/17/17 18/18/18 19/19/19
f 17/17/17 19/19/19 20/20/20
f 21/21/21 22/22/22 23/23/23
f 21/21/21 23/23/23 24/24/24
f 25/25/25 26/26/26 27/27/27
f 25/25/25 27/27/27 28/28/28
f 29/29/29 30/30/30 31/31/31
f 29/29/29 31/31/31 32/32/32
f 33/33/33 34/34/34 35/35/35
f 33/33/33 35/35/35 36/36/36
f 37/37/37 38/38/38 39/39/39
f 37/37/37 39/39/39 40/40/40
f 41/41/41 42/42/42 43/43/43
f 41/41/41 43/43/43 44/44/44
f 45/45/45 46/46/46 47/47/47
f 45/45/45 47/47/47 48/48/48
f 49/49/49 50/50/50 51/51/51
f 49/49/49 51/51/51 52/52/52
f 49/49/49 52/52/52 53/53/53
f 49/49/49 53/53/53 54/54/54
f 49/49/49 54/54/54 55/55/55
f 49/49/49 55/55/55 56/56/56
f 49/49/49 56/56/56 57/57/57
f 49/49/49 57/57/57 58/58/58
f 49/49/49 58/58/58 59/59/59
f 49/49/49 59/59/59 60/60/60
f 61/61/61 62/62/62 63/63/63
f 61/61/61 63/63/63 64/64/64
f 61/61/61 64/64/64 65/65/65
f 61/61/61 65/65/65 66/66/66
f 61/61/61 66/66/66 67/67/67
f 61/61/61 67/67/67 68/68/68
f 61/61/61 68/68/68 69/69/69
f 61/61/61 69/69/69 70/70/70
f 61/61/61 70/70/70 71/71/71
f 61/61/61 71/71/71 72/72/72
