# Exported using automatic converter by Erwin Coumans
mtllib model6.mtl
#object group850715002_1

v -2.023532 -0.984164 1.642265
v -2.033416 -0.980474 1.547096
v -2.032515 -1.050230 1.541325
v -2.022630 -1.053920 1.636495
v -1.944443 -1.055818 1.622640
v -1.945344 -0.986062 1.628410
v -1.935460 -0.989752 1.723580
v -1.934558 -1.059508 1.717810
v -2.032515 -1.050230 1.541325
v -1.944443 -1.055818 1.622640
v -1.934558 -1.059508 1.717810
v -2.022630 -1.053920 1.636495
v -1.935460 -0.989752 1.723580
v -1.945344 -0.986062 1.628410
v -2.033416 -0.980474 1.547096
v -2.023532 -0.984164 1.642265
v -1.934558 -1.059508 1.717810
v -1.935460 -0.989752 1.723580
v -2.023532 -0.984164 1.642265
v -2.022630 -1.053920 1.636495
v -2.033416 -0.980474 1.547096
v -1.945344 -0.986062 1.628410
v -1.944443 -1.055818 1.622640
v -2.032515 -1.050230 1.541325
v -2.020504 -0.986690 1.828407
v -2.026662 -0.984473 1.732878
v -2.022838 -1.054202 1.728053
v -2.016680 -1.056419 1.823581
v -1.937981 -1.055419 1.812892
v -1.941804 -0.985691 1.817717
v -1.935647 -0.987908 1.913246
v -1.931823 -1.057636 1.908420
v -2.022838 -1.054202 1.728053
v -1.937981 -1.055419 1.812892
v -1.931823 -1.057636 1.908420
v -2.016680 -1.056419 1.823581
v -1.935647 -0.987908 1.913246
v -1.941804 -0.985691 1.817717
v -2.026662 -0.984473 1.732878
v -2.020504 -0.986690 1.828407
v -1.931823 -1.057636 1.908420
v -1.935647 -0.987908 1.913246
v -2.020504 -0.986690 1.828407
v -2.016680 -1.056419 1.823581
v -2.026662 -0.984473 1.732878
v -1.941804 -0.985691 1.817717
v -1.937981 -1.055419 1.812892
v -2.022838 -1.054202 1.728053
v -2.008275 -0.990407 2.195166
v -2.012034 -0.988966 2.099498
v -2.003832 -1.058349 2.095175
v -2.000072 -1.059790 2.190843
v -1.921326 -1.054019 2.182204
v -1.929528 -0.984636 2.186528
v -1.925769 -0.986077 2.282196
v -1.917567 -1.055460 2.277872
v -2.003832 -1.058349 2.095175
v -1.921326 -1.054019 2.182204
v -1.917567 -1.055460 2.277872
v -2.000072 -1.059790 2.190843
v -1.925769 -0.986077 2.282196
v -1.929528 -0.984636 2.186528
v -2.012034 -0.988966 2.099498
v -2.008275 -0.990407 2.195166
v -1.917567 -1.055460 2.277872
v -1.925769 -0.986077 2.282196
v -2.008275 -0.990407 2.195166
v -2.000072 -1.059790 2.190843
v -2.012034 -0.988966 2.099498
v -1.929528 -0.984636 2.186528
v -1.921326 -1.054019 2.182204
v -2.003832 -1.058349 2.095175
v -2.011446 -0.993937 2.010767
v -2.019035 -0.990280 1.915386
v -2.014111 -1.059846 1.909361
v -2.006522 -1.063504 2.004742
v -1.928015 -1.060990 1.992944
v -1.932939 -0.991424 1.998969
v -1.925350 -0.995081 2.094350
v -1.920426 -1.064648 2.088326
v -2.014111 -1.059846 1.909361
v -1.928015 -1.060990 1.992944
v -1.920426 -1.064648 2.088326
v -2.006522 -1.063504 2.004742
v -1.925350 -0.995081 2.094350
v -1.932939 -0.991424 1.998969
v -2.019035 -0.990280 1.915386
v -2.011446 -0.993937 2.010767
v -1.920426 -1.064648 2.088326
v -1.925350 -0.995081 2.094350
v -2.011446 -0.993937 2.010767
v -2.006522 -1.063504 2.004742
v -2.019035 -0.990280 1.915386
v -1.932939 -0.991424 1.998969
v -1.928015 -1.060990 1.992944
v -2.014111 -1.059846 1.909361
usemtl mat12

vn -0.994508 -0.021332 0.102462
vn -0.994508 -0.021332 0.102462
vn -0.994508 -0.021332 0.102462
vn -0.994508 -0.021332 0.102462
vn 0.994508 0.021332 -0.102461
vn 0.994508 0.021332 -0.102461
vn 0.994508 0.021332 -0.102461
vn 0.994508 0.021332 -0.102461
vn -0.030545 -0.998901 -0.035563
vn -0.030545 -0.998901 -0.035563
vn -0.030545 -0.998901 -0.035563
vn -0.030545 -0.998901 -0.035563
vn 0.030545 0.998901 0.035563
vn 0.030545 0.998901 0.035563
vn 0.030545 0.998901 0.035563
vn 0.030545 0.998901 0.035563
vn -0.679099 -0.069230 0.730775
vn -0.679099 -0.069230 0.730775
vn -0.679099 -0.069230 0.730775
vn -0.679099 -0.069230 0.730775
vn 0.679099 0.069230 -0.730775
vn 0.679099 0.069230 -0.730775
vn 0.679099 0.069230 -0.730775
vn 0.679099 0.069230 -0.730775
vn -0.996278 -0.058986 0.062854
vn -0.996278 -0.058986 0.062854
vn -0.996278 -0.058986 0.062854
vn -0.996278 -0.058986 0.062854
vn 0.996278 0.058986 -0.062853
vn 0.996278 0.058986 -0.062853
vn 0.996278 0.058986 -0.062853
vn 0.996278 0.058986 -0.062853
vn 0.009464 -0.999672 -0.023810
vn 0.009464 -0.999672 -0.023810
vn 0.009464 -0.999672 -0.023810
vn 0.009464 -0.999672 -0.023810
vn -0.009464 0.999672 0.023810
vn -0.009464 0.999672 0.023810
vn -0.009464 0.999672 0.023810
vn -0.009464 0.999672 0.023810
vn -0.704953 -0.087367 0.703852
vn -0.704953 -0.087367 0.703852
vn -0.704953 -0.087367 0.703852
vn -0.704953 -0.087367 0.703852
vn 0.704953 0.087367 -0.703852
vn 0.704953 0.087367 -0.703852
vn 0.704953 0.087367 -0.703852
vn 0.704953 0.087367 -0.703852
vn -0.992126 -0.119600 0.037184
vn -0.992126 -0.119600 0.037184
vn -0.992126 -0.119600 0.037184
vn -0.992126 -0.119600 0.037184
vn 0.992126 0.119600 -0.037183
vn 0.992126 0.119600 -0.037183
vn 0.992126 0.119600 -0.037183
vn 0.992126 0.119600 -0.037183
vn 0.071135 -0.997307 -0.017819
vn 0.071135 -0.997307 -0.017819
vn 0.071135 -0.997307 -0.017819
vn 0.071135 -0.997307 -0.017819
vn -0.071135 0.997307 0.017819
vn -0.071135 0.997307 0.017819
vn -0.071135 0.997307 0.017819
vn -0.071135 0.997307 0.017819
vn -0.716625 -0.127447 0.685716
vn -0.716625 -0.127447 0.685716
vn -0.716625 -0.127447 0.685716
vn -0.716625 -0.127447 0.685716
vn 0.716625 0.127447 -0.685716
vn 0.716625 0.127447 -0.685716
vn 0.716625 0.127447 -0.685716
vn 0.716625 0.127447 -0.685716
vn -0.994122 -0.076963 0.076144
vn -0.994122 -0.076963 0.076144
vn -0.994122 -0.076963 0.076144
vn -0.994122 -0.076963 0.076144
vn 0.994122 0.076963 -0.076143
vn 0.994122 0.076963 -0.076143
vn 0.994122 0.076963 -0.076143
vn 0.994122 0.076963 -0.076143
vn 0.025912 -0.998849 -0.040365
vn 0.025912 -0.998849 -0.040365
vn 0.025912 -0.998849 -0.040365
vn 0.025912 -0.998849 -0.040365
vn -0.025912 0.998849 0.040365
vn -0.025912 0.998849 0.040365
vn -0.025912 0.998849 0.040365
vn -0.025912 0.998849 0.040365
vn -0.693032 -0.110747 0.712350
vn -0.693032 -0.110747 0.712350
vn -0.693032 -0.110747 0.712350
vn -0.693032 -0.110747 0.712350
vn 0.693032 0.110747 -0.712350
vn 0.693032 0.110747 -0.712350
vn 0.693032 0.110747 -0.712350
vn 0.693032 0.110747 -0.712350

vt -0.180767 -0.145905
vt -0.172482 -0.141105
vt -0.168720 -0.147008
vt -0.177006 -0.151808
vt 0.176328 -0.151856
vt 0.180090 -0.145952
vt 0.188375 -0.150752
vt 0.184613 -0.156656
vt 0.146294 -0.304440
vt 0.157041 -0.299103
vt 0.166294 -0.301566
vt 0.155547 -0.306904
vt -0.166493 -0.301966
vt -0.157240 -0.299503
vt -0.146493 -0.304841
vt -0.155746 -0.307304
vt -0.033905 -0.012348
vt -0.028887 -0.007466
vt -0.020520 -0.016067
vt -0.025537 -0.020949
vt 0.015794 -0.021504
vt 0.024162 -0.012903
vt 0.029180 -0.017784
vt 0.020812 -0.026385
vt -0.193676 -0.172089
vt -0.185842 -0.166584
vt -0.181579 -0.172136
vt -0.189413 -0.177642
vt 0.188734 -0.177630
vt 0.192997 -0.172078
vt 0.200831 -0.177583
vt 0.196568 -0.183135
vt 0.166450 -0.309961
vt 0.177339 -0.304920
vt 0.186521 -0.307636
vt 0.175632 -0.312677
vt -0.186709 -0.308042
vt -0.177527 -0.305326
vt -0.166638 -0.310367
vt -0.175820 -0.313083
vt -0.045992 0.011868
vt -0.040870 0.016640
vt -0.032690 0.007859
vt -0.037812 0.003088
vt 0.028084 0.002322
vt 0.036263 0.011102
vt 0.041385 0.006331
vt 0.033206 -0.002449
vt -0.214461 -0.210328
vt -0.207264 -0.204011
vt -0.202429 -0.209073
vt -0.209626 -0.215389
vt 0.208952 -0.215305
vt 0.213787 -0.210243
vt 0.220984 -0.216559
vt 0.216148 -0.221621
vt 0.204011 -0.320925
vt 0.214969 -0.316034
vt 0.224113 -0.318875
vt 0.213155 -0.323766
vt -0.224295 -0.319283
vt -0.215151 -0.316442
vt -0.204194 -0.321334
vt -0.213337 -0.324175
vt -0.055125 0.051534
vt -0.049653 0.055900
vt -0.042169 0.046521
vt -0.047640 0.042155
vt 0.037999 0.040648
vt 0.045484 0.050027
vt 0.050955 0.045661
vt 0.043470 0.036282
vt -0.208588 -0.176629
vt -0.200830 -0.171017
vt -0.196491 -0.176510
vt -0.204250 -0.182122
vt 0.203571 -0.182101
vt 0.207909 -0.176608
vt 0.215667 -0.182220
vt 0.211329 -0.187713
vt 0.182853 -0.317126
vt 0.193689 -0.311971
vt 0.202899 -0.314592
vt 0.192062 -0.319746
vt -0.203091 -0.314996
vt -0.193881 -0.312375
vt -0.183045 -0.317530
vt -0.192254 -0.320150
vt -0.043660 0.025995
vt -0.038334 0.030538
vt -0.030546 0.021410
vt -0.035871 0.016866
vt 0.026185 0.015676
vt 0.033974 0.024805
vt 0.039299 0.020262
vt 0.031511 0.011133
s off
f 1/1/1 2/2/2 3/3/3
f 1/1/1 3/3/3 4/4/4
f 5/5/5 6/6/6 7/7/7
f 5/5/5 7/7/7 8/8/8
f 9/9/9 10/10/10 11/11/11
f 9/9/9 11/11/11 12/12/12
f 13/13/13 14/14/14 15/15/15
f 13/13/13 15/15/15 16/16/16
f 17/17/17 18/18/18 19/19/19
f 17/17/17 19/19/19 20/20/20
f 21/21/21 22/22/22 23/23/23
f 21/21/21 23/23/23 24/24/24
f 25/25/25 26/26/26 27/27/27
f 25/25/25 27/27/27 28/28/28
f 29/29/29 30/30/30 31/31/31
f 29/29/29 31/31/31 32/32/32
f 33/33/33 34/34/34 35/35/35
f 33/33/33 35/35/35 36/36/36
f 37/37/37 38/38/38 39/39/39
f 37/37/37 39/39/39 40/40/40
f 41/41/41 42/42/42 43/43/43
f 41/41/41 43/43/43 44/44/44
f 45/45/45 46/46/46 47/47/47
f 45/45/45 47/47/47 48/48/48
f 49/49/49 50/50/50 51/51/51
f 49/49/49 51/51/51 52/52/52
f 53/53/53 54/54/54 55/55/55
f 53/53/53 55/55/55 56/56/56
f 57/57/57 58/58/58 59/59/59
f 57/57/57 59/59/59 60/60/60
f 61/61/61 62/62/62 63/63/63
f 61/61/61 63/63/63 64/64/64
f 65/65/65 66/66/66 67/67/67
f 65/65/65 67/67/67 68/68/68
f 69/69/69 70/70/70 71/71/71
f 69/69/69 71/71/71 72/72/72
f 73/73/73 74/74/74 75/75/75
f 73/73/73 75/75/75 76/76/76
f 77/77/77 78/78/78 79/79/79
f 77/77/77 79/79/79 80/80/80
f 81/81/81 82/82/82 83/83/83
f 81/81/81 83/83/83 84/84/84
f 85/85/85 86/86/86 87/87/87
f 85/85/85 87/87/87 88/88/88
f 89/89/89 90/90/90 91/91/91
f 89/89/89 91/91/91 92/92/92
f 93/93/93 94/94/94 95/95/95
f 93/93/93 95/95/95 96/96/96
