# Exported using automatic converter by Erwin Coumans
mtllib model6.mtl
#object mesh1624754713

v 2.288238 -0.716511 1.922212
v 2.288238 -0.716511 1.882213
v 2.288238 -0.986511 1.882213
v 2.288238 -0.986511 1.922212
v 2.318238 -0.986511 1.882213
v 2.318238 -0.716511 1.882213
v 2.318238 -0.716511 1.922212
v 2.318238 -0.986511 1.922212
v 2.288238 -0.986511 1.882213
v 2.318238 -0.986511 1.882213
v 2.318238 -0.986511 1.922212
v 2.288238 -0.986511 1.922212
v 2.281958 -0.683161 1.879917
v 2.281958 -0.683161 1.839917
v 2.288238 -0.716511 1.882213
v 2.288238 -0.716511 1.922212
v 2.318238 -0.986511 1.922212
v 2.318238 -0.716511 1.922212
v 2.288238 -0.716511 1.922212
v 2.288238 -0.986511 1.922212
v 2.288238 -0.716511 1.882213
v 2.318238 -0.716511 1.882213
v 2.318238 -0.986511 1.882213
v 2.288238 -0.986511 1.882213
v 2.281958 -0.683161 1.839917
v 2.311958 -0.683161 1.839917
v 2.318238 -0.716511 1.882213
v 2.288238 -0.716511 1.882213
v 2.311958 -0.683161 1.839917
v 2.311958 -0.683161 1.879917
v 2.318238 -0.716511 1.922212
v 2.318238 -0.716511 1.882213
v 2.311958 -0.683161 1.879917
v 2.281958 -0.683161 1.879917
v 2.288238 -0.716511 1.922212
v 2.318238 -0.716511 1.922212
v 2.311958 -0.683161 1.879917
v 2.311958 -0.683161 1.839917
v 2.281958 -0.683161 1.839917
v 2.281958 -0.683161 1.879917
usemtl mat15

vn -1.000000 0.000000 -0.000000
vn -1.000000 0.000000 -0.000000
vn -1.000000 0.000000 -0.000000
vn -1.000000 0.000000 -0.000000
vn 1.000000 -0.000000 0.000000
vn 1.000000 -0.000000 0.000000
vn 1.000000 -0.000000 0.000000
vn 1.000000 -0.000000 0.000000
vn -0.000000 -1.000000 -0.000000
vn -0.000000 -1.000000 -0.000000
vn -0.000000 -1.000000 -0.000000
vn -0.000000 -1.000000 -0.000000
vn -0.982728 -0.185057 -0.000000
vn -0.982728 -0.185057 -0.000000
vn -0.982728 -0.185057 -0.000000
vn -0.982728 -0.185057 -0.000000
vn -0.000000 0.000000 1.000000
vn -0.000000 0.000000 1.000000
vn -0.000000 0.000000 1.000000
vn -0.000000 0.000000 1.000000
vn 0.000000 -0.000000 -1.000000
vn 0.000000 -0.000000 -1.000000
vn 0.000000 -0.000000 -1.000000
vn 0.000000 -0.000000 -1.000000
vn -0.000000 -0.785255 -0.619173
vn -0.000000 -0.785255 -0.619173
vn -0.000000 -0.785255 -0.619173
vn -0.000000 -0.785255 -0.619173
vn 0.982728 0.185056 0.000000
vn 0.982728 0.185056 0.000000
vn 0.982728 0.185056 0.000000
vn 0.982728 0.185056 0.000000
vn 0.000000 0.785255 0.619172
vn 0.000000 0.785255 0.619172
vn 0.000000 0.785255 0.619172
vn 0.000000 0.785255 0.619172
vn 0.000000 1.000000 0.000000
vn 0.000000 1.000000 0.000000
vn 0.000000 1.000000 0.000000
vn 0.000000 1.000000 0.000000

vt -0.215366 -0.182344
vt -0.212112 -0.180019
vt -0.196418 -0.201990
vt -0.199673 -0.204315
vt 0.196418 -0.201990
vt 0.212112 -0.180019
vt 0.215366 -0.182344
vt 0.199673 -0.204315
vt 0.327680 0.093220
vt 0.328688 0.096046
vt 0.332455 0.094700
vt 0.331446 0.091875
vt -0.137793 -0.246753
vt -0.135189 -0.243717
vt -0.135366 -0.249136
vt -0.137970 -0.252173
vt -0.134790 0.157330
vt -0.110641 0.169405
vt -0.109299 0.166721
vt -0.133449 0.154647
vt 0.109299 0.166721
vt 0.110641 0.169405
vt 0.134790 0.157330
vt 0.133449 0.154647
vt 0.295528 0.054796
vt 0.297052 0.057380
vt 0.302011 0.055183
vt 0.300486 0.052600
vt 0.134768 -0.244078
vt 0.137372 -0.247114
vt 0.137549 -0.252534
vt 0.134945 -0.249498
vt -0.299758 0.055783
vt -0.298233 0.053200
vt -0.303191 0.051003
vt -0.304716 0.053587
vt -0.328261 0.095531
vt -0.324494 0.096877
vt -0.323485 0.094051
vt -0.327252 0.092706
s off
f 1/1/1 2/2/2 3/3/3
f 1/1/1 3/3/3 4/4/4
f 5/5/5 6/6/6 7/7/7
f 5/5/5 7/7/7 8/8/8
f 9/9/9 10/10/10 11/11/11
f 9/9/9 11/11/11 12/12/12
f 13/13/13 14/14/14 15/15/15
f 13/13/13 15/15/15 16/16/16
f 17/17/17 18/18/18 19/19/19
f 17/17/17 19/19/19 20/20/20
f 21/21/21 22/22/22 23/23/23
f 21/21/21 23/23/23 24/24/24
f 25/25/25 26/26/26 27/27/27
f 25/25/25 27/27/27 28/28/28
f 29/29/29 30/30/30 31/31/31
f 29/29/29 31/31/31 32/32/32
f 33/33/33 34/34/34 35/35/35
f 33/33/33 35/35/35 36/36/36
f 37/37/37 38/38/38 39/39/39
f 37/37/37 39/39/39 40/40/40
