# Exported using automatic converter by Erwin Coumans
mtllib model6.mtl
#object group671240245_1

v -1.751762 0.220489 -1.995148
v -1.751762 0.270489 -1.995148
v -1.751762 0.270489 -2.235148
v -1.751762 0.220489 -2.235148
v -1.161762 0.270489 -2.235148
v -1.161762 0.270489 -1.995148
v -1.161762 0.220489 -1.995148
v -1.161762 0.220489 -2.235148
v -1.751762 0.270489 -2.235148
v -1.161762 0.270489 -2.235148
v -1.161762 0.220489 -2.235148
v -1.751762 0.220489 -2.235148
v -1.161762 0.220489 -1.995148
v -1.161762 0.270489 -1.995148
v -1.751762 0.270489 -1.995148
v -1.751762 0.220489 -1.995148
v -1.161762 0.220489 -2.235148
v -1.161762 0.220489 -1.995148
v -1.751762 0.220489 -1.995148
v -1.751762 0.220489 -2.235148
v -1.751762 0.270489 -1.995148
v -1.161762 0.270489 -1.995148
v -1.161762 0.270489 -2.235148
v -1.751762 0.270489 -2.235148
usemtl mat23

vn -1.000000 0.000000 0.000000
vn -1.000000 0.000000 0.000000
vn -1.000000 0.000000 0.000000
vn -1.000000 0.000000 0.000000
vn 1.000000 0.000000 0.000000
vn 1.000000 0.000000 0.000000
vn 1.000000 0.000000 0.000000
vn 1.000000 0.000000 0.000000
vn 0.000000 0.000000 -1.000000
vn 0.000000 0.000000 -1.000000
vn 0.000000 0.000000 -1.000000
vn 0.000000 0.000000 -1.000000
vn 0.000000 -0.000000 1.000000
vn 0.000000 -0.000000 1.000000
vn 0.000000 -0.000000 1.000000
vn 0.000000 -0.000000 1.000000
vn 0.000000 -1.000000 0.000000
vn 0.000000 -1.000000 0.000000
vn 0.000000 -1.000000 0.000000
vn 0.000000 -1.000000 0.000000
vn 0.000000 1.000000 -0.000000
vn 0.000000 1.000000 -0.000000
vn 0.000000 1.000000 -0.000000
vn 0.000000 1.000000 -0.000000

vt 0.048940 0.121595
vt 0.046034 0.125664
vt 0.065564 0.139613
vt 0.068470 0.135545
vt -0.065564 0.139613
vt -0.046034 0.125664
vt -0.048940 0.121595
vt -0.068470 0.135545
vt -0.159655 -0.150487
vt -0.133270 -0.097716
vt -0.128798 -0.099952
vt -0.155183 -0.152724
vt 0.128798 -0.099952
vt 0.133270 -0.097716
vt 0.159655 -0.150487
vt 0.155183 -0.152724
vt -0.176106 -0.093199
vt -0.153504 -0.101271
vt -0.173348 -0.156834
vt -0.195950 -0.148762
vt 0.173348 -0.156834
vt 0.153504 -0.101271
vt 0.176106 -0.093199
vt 0.195950 -0.148762
s off
f 1/1/1 2/2/2 3/3/3
f 1/1/1 3/3/3 4/4/4
f 5/5/5 6/6/6 7/7/7
f 5/5/5 7/7/7 8/8/8
f 9/9/9 10/10/10 11/11/11
f 9/9/9 11/11/11 12/12/12
f 13/13/13 14/14/14 15/15/15
f 13/13/13 15/15/15 16/16/16
f 17/17/17 18/18/18 19/19/19
f 17/17/17 19/19/19 20/20/20
f 21/21/21 22/22/22 23/23/23
f 21/21/21 23/23/23 24/24/24
