# Exported using automatic converter by Erwin Coumans
mtllib model6.mtl
#object group739441923_1

v 2.834610 -0.706220 0.432275
v 2.833164 -0.709221 0.428313
v 2.805502 -0.711033 0.439781
v 2.806948 -0.708032 0.443743
v 2.833164 -0.709221 0.428313
v 2.832605 -0.713923 0.426221
v 2.804943 -0.715735 0.437689
v 2.805502 -0.711033 0.439781
v 2.832605 -0.713923 0.426221
v 2.833083 -0.719066 0.426560
v 2.805420 -0.720878 0.438028
v 2.804943 -0.715735 0.437689
v 2.833083 -0.719066 0.426560
v 2.834469 -0.723272 0.429240
v 2.806807 -0.725084 0.440708
v 2.805420 -0.720878 0.438028
v 2.834469 -0.723272 0.429240
v 2.836393 -0.725414 0.433542
v 2.808730 -0.727227 0.445009
v 2.806807 -0.725084 0.440708
v 2.836393 -0.725414 0.433542
v 2.838338 -0.724919 0.438313
v 2.810676 -0.726731 0.449781
v 2.808730 -0.727227 0.445009
v 2.838338 -0.724919 0.438313
v 2.839784 -0.721918 0.442275
v 2.812122 -0.723730 0.453743
v 2.810676 -0.726731 0.449781
v 2.839784 -0.721918 0.442275
v 2.840343 -0.717216 0.444367
v 2.812681 -0.719029 0.455835
v 2.812122 -0.723730 0.453743
v 2.840343 -0.717216 0.444367
v 2.839866 -0.712073 0.444027
v 2.812203 -0.713885 0.455495
v 2.812681 -0.719029 0.455835
v 2.839866 -0.712073 0.444027
v 2.838479 -0.707867 0.441348
v 2.810817 -0.709679 0.452816
v 2.812203 -0.713885 0.455495
v 2.838479 -0.707867 0.441348
v 2.836556 -0.705724 0.437046
v 2.808893 -0.707537 0.448514
v 2.810817 -0.709679 0.452816
v 2.836556 -0.705724 0.437046
v 2.834610 -0.706220 0.432275
v 2.806948 -0.708032 0.443743
v 2.808893 -0.707537 0.448514
v 2.806948 -0.708032 0.443743
v 2.805502 -0.711033 0.439781
v 2.804943 -0.715735 0.437689
v 2.805420 -0.720878 0.438028
v 2.806807 -0.725084 0.440708
v 2.808730 -0.727227 0.445009
v 2.810676 -0.726731 0.449781
v 2.812122 -0.723730 0.453743
v 2.812681 -0.719029 0.455835
v 2.812203 -0.713885 0.455495
v 2.810817 -0.709679 0.452816
v 2.808893 -0.707537 0.448514
v 2.836556 -0.705724 0.437046
v 2.838479 -0.707867 0.441348
v 2.839866 -0.712073 0.444027
v 2.840343 -0.717216 0.444367
v 2.839784 -0.721918 0.442275
v 2.838338 -0.724919 0.438313
v 2.836393 -0.725414 0.433542
v 2.834469 -0.723272 0.429240
v 2.833083 -0.719066 0.426560
v 2.832605 -0.713923 0.426221
v 2.833164 -0.709221 0.428313
v 2.834610 -0.706220 0.432275
v 3.019026 -0.694139 0.355823
v 3.020972 -0.693643 0.360595
v 3.057855 -0.691227 0.345304
v 3.055909 -0.691723 0.340533
v 3.020972 -0.693643 0.360595
v 3.022895 -0.695786 0.364896
v 3.059778 -0.693370 0.349606
v 3.057855 -0.691227 0.345304
v 3.022895 -0.695786 0.364896
v 3.024282 -0.699992 0.367576
v 3.061165 -0.697576 0.352286
v 3.059778 -0.693370 0.349606
v 3.024282 -0.699992 0.367576
v 3.024759 -0.705135 0.367915
v 3.061642 -0.702719 0.352625
v 3.061165 -0.697576 0.352286
v 3.024759 -0.705135 0.367915
v 3.024200 -0.709837 0.365824
v 3.061083 -0.707421 0.350533
v 3.061642 -0.702719 0.352625
v 3.024200 -0.709837 0.365824
v 3.022754 -0.712838 0.361861
v 3.059637 -0.710421 0.346571
v 3.061083 -0.707421 0.350533
v 3.022754 -0.712838 0.361861
v 3.020809 -0.713333 0.357090
v 3.057692 -0.710917 0.341800
v 3.059637 -0.710421 0.346571
v 3.020809 -0.713333 0.357090
v 3.018885 -0.711191 0.352788
v 3.055768 -0.708775 0.337498
v 3.057692 -0.710917 0.341800
v 3.018885 -0.711191 0.352788
v 3.017498 -0.706985 0.350109
v 3.054382 -0.704568 0.334819
v 3.055768 -0.708775 0.337498
v 3.017498 -0.706985 0.350109
v 3.017021 -0.701841 0.349769
v 3.053904 -0.699425 0.334479
v 3.054382 -0.704568 0.334819
v 3.017021 -0.701841 0.349769
v 3.017580 -0.697140 0.351861
v 3.054463 -0.694723 0.336571
v 3.053904 -0.699425 0.334479
v 3.017580 -0.697140 0.351861
v 3.019026 -0.694139 0.355823
v 3.055909 -0.691723 0.340533
v 3.054463 -0.694723 0.336571
v 3.055909 -0.691723 0.340533
v 3.057855 -0.691227 0.345304
v 3.059778 -0.693370 0.349606
v 3.061165 -0.697576 0.352286
v 3.061642 -0.702719 0.352625
v 3.061083 -0.707421 0.350533
v 3.059637 -0.710421 0.346571
v 3.057692 -0.710917 0.341800
v 3.055768 -0.708775 0.337498
v 3.054382 -0.704568 0.334819
v 3.053904 -0.699425 0.334479
v 3.054463 -0.694723 0.336571
v 3.017580 -0.697140 0.351861
v 3.017021 -0.701841 0.349769
v 3.017498 -0.706985 0.350109
v 3.018885 -0.711191 0.352788
v 3.020809 -0.713333 0.357090
v 3.022754 -0.712838 0.361861
v 3.024200 -0.709837 0.365824
v 3.024759 -0.705135 0.367915
v 3.024282 -0.699992 0.367576
v 3.022895 -0.695786 0.364896
v 3.020972 -0.693643 0.360595
v 3.019026 -0.694139 0.355823
usemtl mat21

vn -0.186401 0.934942 -0.301891
vn -0.186401 0.934942 -0.301891
vn -0.186401 0.934942 -0.301891
vn -0.186401 0.934942 -0.301891
vn -0.331004 0.634873 -0.698120
vn -0.331004 0.634873 -0.698120
vn -0.331004 0.634873 -0.698120
vn -0.331004 0.634873 -0.698120
vn -0.386915 0.164691 -0.907289
vn -0.386915 0.164691 -0.907289
vn -0.386915 0.164691 -0.907289
vn -0.386915 0.164691 -0.907289
vn -0.339152 -0.349620 -0.873351
vn -0.339152 -0.349620 -0.873351
vn -0.339152 -0.349620 -0.873351
vn -0.339152 -0.349620 -0.873351
vn -0.200514 -0.770251 -0.605398
vn -0.200514 -0.770251 -0.605398
vn -0.200514 -0.770251 -0.605398
vn -0.200514 -0.770251 -0.605398
vn -0.008149 -0.984494 -0.175230
vn -0.008149 -0.984494 -0.175230
vn -0.008149 -0.984494 -0.175230
vn -0.008149 -0.984494 -0.175230
vn 0.186401 -0.934942 0.301891
vn 0.186401 -0.934942 0.301891
vn 0.186401 -0.934942 0.301891
vn 0.186401 -0.934942 0.301891
vn 0.331004 -0.634873 0.698121
vn 0.331004 -0.634873 0.698121
vn 0.331004 -0.634873 0.698121
vn 0.331004 -0.634873 0.698121
vn 0.386915 -0.164691 0.907289
vn 0.386915 -0.164691 0.907289
vn 0.386915 -0.164691 0.907289
vn 0.386915 -0.164691 0.907289
vn 0.339152 0.349620 0.873351
vn 0.339152 0.349620 0.873351
vn 0.339152 0.349620 0.873351
vn 0.339152 0.349620 0.873351
vn 0.200514 0.770251 0.605398
vn 0.200514 0.770251 0.605398
vn 0.200514 0.770251 0.605398
vn 0.200514 0.770251 0.605398
vn 0.008148 0.984494 0.175230
vn 0.008148 0.984494 0.175230
vn 0.008148 0.984494 0.175230
vn 0.008148 0.984494 0.175230
vn -0.922079 -0.060406 0.382257
vn -0.922079 -0.060406 0.382257
vn -0.922079 -0.060406 0.382257
vn -0.922079 -0.060406 0.382257
vn -0.922079 -0.060406 0.382257
vn -0.922079 -0.060406 0.382257
vn -0.922079 -0.060406 0.382257
vn -0.922079 -0.060406 0.382257
vn -0.922079 -0.060406 0.382257
vn -0.922079 -0.060406 0.382257
vn -0.922079 -0.060406 0.382257
vn -0.922079 -0.060406 0.382257
vn 0.922079 0.060406 -0.382257
vn 0.922079 0.060406 -0.382257
vn 0.922079 0.060406 -0.382257
vn 0.922079 0.060406 -0.382257
vn 0.922079 0.060406 -0.382257
vn 0.922079 0.060406 -0.382257
vn 0.922079 0.060406 -0.382257
vn 0.922079 0.060406 -0.382257
vn 0.922079 0.060406 -0.382257
vn 0.922079 0.060406 -0.382257
vn 0.922079 0.060406 -0.382257
vn 0.922079 0.060406 -0.382257
vn -0.186401 0.934942 -0.301891
vn -0.186401 0.934942 -0.301891
vn -0.186401 0.934942 -0.301891
vn -0.186401 0.934942 -0.301891
vn 0.008148 0.984494 0.175230
vn 0.008148 0.984494 0.175230
vn 0.008148 0.984494 0.175230
vn 0.008148 0.984494 0.175230
vn 0.200514 0.770251 0.605398
vn 0.200514 0.770251 0.605398
vn 0.200514 0.770251 0.605398
vn 0.200514 0.770251 0.605398
vn 0.339152 0.349620 0.873351
vn 0.339152 0.349620 0.873351
vn 0.339152 0.349620 0.873351
vn 0.339152 0.349620 0.873351
vn 0.386915 -0.164691 0.907289
vn 0.386915 -0.164691 0.907289
vn 0.386915 -0.164691 0.907289
vn 0.386915 -0.164691 0.907289
vn 0.331004 -0.634873 0.698120
vn 0.331004 -0.634873 0.698120
vn 0.331004 -0.634873 0.698120
vn 0.331004 -0.634873 0.698120
vn 0.186401 -0.934942 0.301891
vn 0.186401 -0.934942 0.301891
vn 0.186401 -0.934942 0.301891
vn 0.186401 -0.934942 0.301891
vn -0.008149 -0.984494 -0.175230
vn -0.008149 -0.984494 -0.175230
vn -0.008149 -0.984494 -0.175230
vn -0.008149 -0.984494 -0.175230
vn -0.200514 -0.770251 -0.605398
vn -0.200514 -0.770251 -0.605398
vn -0.200514 -0.770251 -0.605398
vn -0.200514 -0.770251 -0.605398
vn -0.339152 -0.349620 -0.873351
vn -0.339152 -0.349620 -0.873351
vn -0.339152 -0.349620 -0.873351
vn -0.339152 -0.349620 -0.873351
vn -0.386915 0.164691 -0.907289
vn -0.386915 0.164691 -0.907289
vn -0.386915 0.164691 -0.907289
vn -0.386915 0.164691 -0.907289
vn -0.331004 0.634874 -0.698120
vn -0.331004 0.634874 -0.698120
vn -0.331004 0.634874 -0.698120
vn -0.331004 0.634874 -0.698120
vn 0.922079 0.060406 -0.382257
vn 0.922079 0.060406 -0.382257
vn 0.922079 0.060406 -0.382257
vn 0.922079 0.060406 -0.382257
vn 0.922079 0.060406 -0.382257
vn 0.922079 0.060406 -0.382257
vn 0.922079 0.060406 -0.382257
vn 0.922079 0.060406 -0.382257
vn 0.922079 0.060406 -0.382257
vn 0.922079 0.060406 -0.382257
vn 0.922079 0.060406 -0.382257
vn 0.922079 0.060406 -0.382257
vn -0.922079 -0.060406 0.382257
vn -0.922079 -0.060406 0.382257
vn -0.922079 -0.060406 0.382257
vn -0.922079 -0.060406 0.382257
vn -0.922079 -0.060406 0.382257
vn -0.922079 -0.060406 0.382257
vn -0.922079 -0.060406 0.382257
vn -0.922079 -0.060406 0.382257
vn -0.922079 -0.060406 0.382257
vn -0.922079 -0.060406 0.382257
vn -0.922079 -0.060406 0.382257
vn -0.922079 -0.060406 0.382257

vt -0.157142 0.213314
vt -0.156650 0.213223
vt -0.157198 0.210273
vt -0.157689 0.210365
vt -0.048964 0.207813
vt -0.048491 0.207653
vt -0.049455 0.204812
vt -0.049928 0.204972
vt 0.065194 0.168936
vt 0.065658 0.168750
vt 0.064539 0.165966
vt 0.064075 0.166153
vt 0.163309 0.133935
vt 0.163780 0.133767
vt 0.162771 0.130942
vt 0.162300 0.131110
vt 0.224881 0.136564
vt 0.225370 0.136458
vt 0.224735 0.133526
vt 0.224246 0.133632
vt 0.225083 0.177067
vt 0.225583 0.177058
vt 0.225529 0.174059
vt 0.225029 0.174068
vt 0.157142 0.213314
vt 0.157634 0.213406
vt 0.158181 0.210456
vt 0.157689 0.210365
vt 0.048964 0.207813
vt 0.049438 0.207974
vt 0.050402 0.205133
vt 0.049928 0.204972
vt -0.065194 0.168936
vt -0.064730 0.169123
vt -0.063611 0.166340
vt -0.064075 0.166153
vt -0.163309 0.133935
vt -0.162838 0.134103
vt -0.161829 0.131278
vt -0.162300 0.131110
vt -0.224881 0.136564
vt -0.224392 0.136670
vt -0.223757 0.133738
vt -0.224246 0.133632
vt -0.225083 0.177067
vt -0.224583 0.177076
vt -0.224530 0.174077
vt -0.225029 0.174068
vt -0.221315 -0.006431
vt -0.220933 -0.006780
vt -0.220777 -0.007274
vt -0.220889 -0.007779
vt -0.221238 -0.008161
vt -0.221732 -0.008317
vt -0.222237 -0.008205
vt -0.222619 -0.007856
vt -0.222775 -0.007362
vt -0.222664 -0.006857
vt -0.222314 -0.006475
vt -0.221821 -0.006319
vt 0.221821 -0.006319
vt 0.222314 -0.006475
vt 0.222664 -0.006857
vt 0.222775 -0.007362
vt 0.222619 -0.007856
vt 0.222237 -0.008205
vt 0.221732 -0.008317
vt 0.221238 -0.008161
vt 0.220889 -0.007779
vt 0.220777 -0.007274
vt 0.220933 -0.006780
vt 0.221315 -0.006431
vt -0.153493 0.232978
vt -0.153985 0.233070
vt -0.153255 0.237003
vt -0.152763 0.236911
vt -0.225441 0.197064
vt -0.225940 0.197055
vt -0.226012 0.201054
vt -0.225512 0.201063
vt -0.229114 0.156111
vt -0.229602 0.156005
vt -0.230449 0.159914
vt -0.229960 0.160020
vt -0.170036 0.152770
vt -0.170507 0.152602
vt -0.171852 0.156369
vt -0.171381 0.156537
vt -0.072656 0.187493
vt -0.073120 0.187306
vt -0.074612 0.191017
vt -0.074148 0.191204
vt 0.042538 0.226753
vt 0.042065 0.226592
vt 0.040780 0.230380
vt 0.041253 0.230541
vt 0.153493 0.232978
vt 0.153001 0.232887
vt 0.152272 0.236820
vt 0.152763 0.236911
vt 0.225441 0.197064
vt 0.224941 0.197073
vt 0.225012 0.201072
vt 0.225512 0.201063
vt 0.229114 0.156111
vt 0.228625 0.156217
vt 0.229471 0.160126
vt 0.229960 0.160020
vt 0.170036 0.152770
vt 0.169565 0.152938
vt 0.170911 0.156705
vt 0.171381 0.156537
vt 0.072656 0.187492
vt 0.072192 0.187679
vt 0.073684 0.191390
vt 0.074148 0.191204
vt -0.042538 0.226753
vt -0.043012 0.226914
vt -0.041727 0.230702
vt -0.041253 0.230541
vt 0.221315 -0.006431
vt 0.221821 -0.006319
vt 0.222314 -0.006475
vt 0.222664 -0.006857
vt 0.222775 -0.007362
vt 0.222619 -0.007856
vt 0.222237 -0.008205
vt 0.221732 -0.008317
vt 0.221238 -0.008161
vt 0.220889 -0.007779
vt 0.220777 -0.007274
vt 0.220933 -0.006780
vt -0.220933 -0.006780
vt -0.220777 -0.007274
vt -0.220889 -0.007779
vt -0.221238 -0.008161
vt -0.221732 -0.008317
vt -0.222237 -0.008205
vt -0.222619 -0.007856
vt -0.222775 -0.007362
vt -0.222664 -0.006857
vt -0.222314 -0.006475
vt -0.221821 -0.006319
vt -0.221315 -0.006431
s off
f 1/1/1 2/2/2 3/3/3
f 1/1/1 3/3/3 4/4/4
f 5/5/5 6/6/6 7/7/7
f 5/5/5 7/7/7 8/8/8
f 9/9/9 10/10/10 11/11/11
f 9/9/9 11/11/11 12/12/12
f 13/13/13 14/14/14 15/15/15
f 13/13/13 15/15/15 16/16/16
f 17/17/17 18/18/18 19/19/19
f 17/17/17 19/19/19 20/20/20
f 21/21/21 22/22/22 23/23/23
f 21/21/21 23/23/23 24/24/24
f 25/25/25 26/26/26 27/27/27
f 25/25/25 27/27/27 28/28/28
f 29/29/29 30/30/30 31/31/31
f 29/29/29 31/31/31 32/32/32
f 33/33/33 34/34/34 35/35/35
f 33/33/33 35/35/35 36/36/36
f 37/37/37 38/38/38 39/39/39
f 37/37/37 39/39/39 40/40/40
f 41/41/41 42/42/42 43/43/43
f 41/41/41 43/43/43 44/44/44
f 45/45/45 46/46/46 47/47/47
f 45/45/45 47/47/47 48/48/48
f 49/49/49 50/50/50 51/51/51
f 49/49/49 51/51/51 52/52/52
f 49/49/49 52/52/52 53/53/53
f 49/49/49 53/53/53 54/54/54
f 49/49/49 54/54/54 55/55/55
f 49/49/49 55/55/55 56/56/56
f 49/49/49 56/56/56 57/57/57
f 49/49/49 57/57/57 58/58/58
f 49/49/49 58/58/58 59/59/59
f 49/49/49 59/59/59 60/60/60
f 61/61/61 62/62/62 63/63/63
f 61/61/61 63/63/63 64/64/64
f 61/61/61 64/64/64 65/65/65
f 61/61/61 65/65/65 66/66/66
f 61/61/61 66/66/66 67/67/67
f 61/61/61 67/67/67 68/68/68
f 61/61/61 68/68/68 69/69/69
f 61/61/61 69/69/69 70/70/70
f 61/61/61 70/70/70 71/71/71
f 61/61/61 71/71/71 72/72/72
f 73/73/73 74/74/74 75/75/75
f 73/73/73 75/75/75 76/76/76
f 77/77/77 78/78/78 79/79/79
f 77/77/77 79/79/79 80/80/80
f 81/81/81 82/82/82 83/83/83
f 81/81/81 83/83/83 84/84/84
f 85/85/85 86/86/86 87/87/87
f 85/85/85 87/87/87 88/88/88
f 89/89/89 90/90/90 91/91/91
f 89/89/89 91/91/91 92/92/92
f 93/93/93 94/94/94 95/95/95
f 93/93/93 95/95/95 96/96/96
f 97/97/97 98/98/98 99/99/99
f 97/97/97 99/99/99 100/100/100
f 101/101/101 102/102/102 103/103/103
f 101/101/101 103/103/103 104/104/104
f 105/105/105 106/106/106 107/107/107
f 105/105/105 107/107/107 108/108/108
f 109/109/109 110/110/110 111/111/111
f 109/109/109 111/111/111 112/112/112
f 113/113/113 114/114/114 115/115/115
f 113/113/113 115/115/115 116/116/116
f 117/117/117 118/118/118 119/119/119
f 117/117/117 119/119/119 120/120/120
f 121/121/121 122/122/122 123/123/123
f 121/121/121 123/123/123 124/124/124
f 121/121/121 124/124/124 125/125/125
f 121/121/121 125/125/125 126/126/126
f 121/121/121 126/126/126 127/127/127
f 121/121/121 127/127/127 128/128/128
f 121/121/121 128/128/128 129/129/129
f 121/121/121 129/129/129 130/130/130
f 121/121/121 130/130/130 131/131/131
f 121/121/121 131/131/131 132/132/132
f 133/133/133 134/134/134 135/135/135
f 133/133/133 135/135/135 136/136/136
f 133/133/133 136/136/136 137/137/137
f 133/133/133 137/137/137 138/138/138
f 133/133/133 138/138/138 139/139/139
f 133/133/133 139/139/139 140/140/140
f 133/133/133 140/140/140 141/141/141
f 133/133/133 141/141/141 142/142/142
f 133/133/133 142/142/142 143/143/143
f 133/133/133 143/143/143 144/144/144
