# Exported using automatic converter by Erwin Coumans
mtllib model6.mtl
#object group2014645610_3

v -1.817013 -0.960078 2.348130
v -1.818729 -0.820107 2.345852
v -1.818285 -0.821241 2.275862
v -1.816569 -0.961212 2.278141
v -1.538312 -0.817780 2.277583
v -1.538756 -0.816647 2.347572
v -1.537040 -0.956617 2.349851
v -1.536596 -0.957751 2.279861
v -1.818285 -0.821241 2.275862
v -1.538312 -0.817780 2.277583
v -1.536596 -0.957751 2.279861
v -1.816569 -0.961212 2.278141
v -1.537040 -0.956617 2.349851
v -1.538756 -0.816647 2.347572
v -1.818729 -0.820107 2.345852
v -1.817013 -0.960078 2.348130
v -1.536596 -0.957751 2.279861
v -1.537040 -0.956617 2.349851
v -1.817013 -0.960078 2.348130
v -1.816569 -0.961212 2.278141
v -1.818729 -0.820107 2.345852
v -1.538756 -0.816647 2.347572
v -1.538312 -0.817780 2.277583
v -1.818285 -0.821241 2.275862
usemtl mat22

vn -0.999905 -0.012360 -0.006145
vn -0.999905 -0.012360 -0.006145
vn -0.999905 -0.012360 -0.006145
vn -0.999905 -0.012360 -0.006145
vn 0.999905 0.012360 0.006145
vn 0.999905 0.012360 0.006145
vn 0.999905 0.012360 0.006145
vn 0.999905 0.012360 0.006145
vn 0.006345 -0.016199 -0.999849
vn 0.006345 -0.016199 -0.999849
vn 0.006345 -0.016199 -0.999849
vn 0.006345 -0.016199 -0.999849
vn -0.006345 0.016199 0.999849
vn -0.006345 0.016199 0.999849
vn -0.006345 0.016199 0.999849
vn -0.006345 0.016199 0.999849
vn 0.012259 -0.999792 0.016275
vn 0.012259 -0.999792 0.016275
vn 0.012259 -0.999792 0.016275
vn 0.012259 -0.999792 0.016275
vn -0.012259 0.999792 -0.016275
vn -0.012259 0.999792 -0.016275
vn -0.012259 0.999792 -0.016275
vn -0.012259 0.999792 -0.016275

vt -0.233872 -0.230288
vt -0.242053 -0.218927
vt -0.236373 -0.214836
vt -0.228192 -0.226197
vt 0.236373 -0.214836
vt 0.242053 -0.218927
vt 0.233872 -0.230288
vt 0.228192 -0.226197
vt -0.060625 -0.205427
vt -0.048273 -0.180299
vt -0.035709 -0.186474
vt -0.048061 -0.211603
vt 0.035709 -0.186474
vt 0.048273 -0.180299
vt 0.060625 -0.205427
vt 0.048061 -0.211603
vt 0.238073 -0.278502
vt 0.244672 -0.280838
vt 0.235329 -0.307233
vt 0.228730 -0.304897
vt -0.235329 -0.307233
vt -0.244672 -0.280838
vt -0.238073 -0.278502
vt -0.228730 -0.304897
s off
f 1/1/1 2/2/2 3/3/3
f 1/1/1 3/3/3 4/4/4
f 5/5/5 6/6/6 7/7/7
f 5/5/5 7/7/7 8/8/8
f 9/9/9 10/10/10 11/11/11
f 9/9/9 11/11/11 12/12/12
f 13/13/13 14/14/14 15/15/15
f 13/13/13 15/15/15 16/16/16
f 17/17/17 18/18/18 19/19/19
f 17/17/17 19/19/19 20/20/20
f 21/21/21 22/22/22 23/23/23
f 21/21/21 23/23/23 24/24/24
