# Exported using automatic converter by Erwin Coumans
mtllib model6.mtl
#object mesh1985477391

v 0.741920 -0.528139 -0.146547
v 0.727720 -0.528415 -0.140267
v 0.723254 -0.388542 -0.144216
v 0.737454 -0.388266 -0.150495
v 0.727720 -0.528415 -0.140267
v 0.718556 -0.528354 -0.127731
v 0.714089 -0.388481 -0.131679
v 0.723254 -0.388542 -0.144216
v 0.718556 -0.528354 -0.127731
v 0.716883 -0.527971 -0.112297
v 0.712416 -0.388098 -0.116245
v 0.714089 -0.388481 -0.131679
v 0.716883 -0.527971 -0.112297
v 0.723149 -0.527371 -0.098101
v 0.718683 -0.387498 -0.102049
v 0.712416 -0.388098 -0.116245
v 0.723149 -0.527371 -0.098101
v 0.735676 -0.526712 -0.088947
v 0.731210 -0.386839 -0.092895
v 0.718683 -0.387498 -0.102049
v 0.735676 -0.526712 -0.088947
v 0.751107 -0.526173 -0.087287
v 0.746640 -0.386300 -0.091236
v 0.731210 -0.386839 -0.092895
v 0.751107 -0.526173 -0.087287
v 0.765307 -0.525896 -0.093567
v 0.760840 -0.386023 -0.097515
v 0.746640 -0.386300 -0.091236
v 0.765307 -0.525896 -0.093567
v 0.774471 -0.525958 -0.106104
v 0.770005 -0.386085 -0.110052
v 0.760840 -0.386023 -0.097515
v 0.774471 -0.525958 -0.106104
v 0.776144 -0.526340 -0.121538
v 0.771678 -0.386467 -0.125486
v 0.770005 -0.386085 -0.110052
v 0.776144 -0.526340 -0.121538
v 0.769878 -0.526941 -0.135734
v 0.765411 -0.387068 -0.139682
v 0.771678 -0.386467 -0.125486
v 0.769878 -0.526941 -0.135734
v 0.757351 -0.527599 -0.144888
v 0.752885 -0.387726 -0.148836
v 0.765411 -0.387068 -0.139682
v 0.757351 -0.527599 -0.144888
v 0.741920 -0.528139 -0.146547
v 0.737454 -0.388266 -0.150495
v 0.752885 -0.387726 -0.148836
v 0.750507 -0.377651 -0.143803
v 0.760654 -0.377117 -0.136388
v 0.765411 -0.387068 -0.139682
v 0.752885 -0.387726 -0.148836
v 0.757351 -0.527599 -0.144888
v 0.769878 -0.526941 -0.135734
v 0.776144 -0.526340 -0.121538
v 0.774471 -0.525958 -0.106104
v 0.765307 -0.525896 -0.093567
v 0.751107 -0.526173 -0.087287
v 0.735676 -0.526712 -0.088947
v 0.723149 -0.527371 -0.098101
v 0.716883 -0.527971 -0.112297
v 0.718556 -0.528354 -0.127731
v 0.727720 -0.528415 -0.140267
v 0.741920 -0.528139 -0.146547
v 0.760654 -0.377117 -0.136388
v 0.765730 -0.376631 -0.124890
v 0.771678 -0.386467 -0.125486
v 0.765411 -0.387068 -0.139682
v 0.765730 -0.376631 -0.124890
v 0.764375 -0.376321 -0.112388
v 0.770005 -0.386085 -0.110052
v 0.771678 -0.386467 -0.125486
v 0.764375 -0.376321 -0.112388
v 0.756951 -0.376271 -0.102233
v 0.760840 -0.386023 -0.097515
v 0.770005 -0.386085 -0.110052
v 0.756951 -0.376271 -0.102233
v 0.745449 -0.376495 -0.097147
v 0.746640 -0.386300 -0.091236
v 0.760840 -0.386023 -0.097515
v 0.745449 -0.376495 -0.097147
v 0.732950 -0.376932 -0.098491
v 0.731210 -0.386839 -0.092895
v 0.746640 -0.386300 -0.091236
v 0.732950 -0.376932 -0.098491
v 0.722803 -0.377466 -0.105906
v 0.718683 -0.387498 -0.102049
v 0.731210 -0.386839 -0.092895
v 0.722803 -0.377466 -0.105906
v 0.717727 -0.377952 -0.117405
v 0.712416 -0.388098 -0.116245
v 0.718683 -0.387498 -0.102049
v 0.717727 -0.377952 -0.117405
v 0.719083 -0.378262 -0.129906
v 0.714089 -0.388481 -0.131679
v 0.712416 -0.388098 -0.116245
v 0.719083 -0.378262 -0.129906
v 0.726506 -0.378312 -0.140061
v 0.723254 -0.388542 -0.144216
v 0.714089 -0.388481 -0.131679
v 0.726506 -0.378312 -0.140061
v 0.738008 -0.378088 -0.145148
v 0.737454 -0.388266 -0.150495
v 0.723254 -0.388542 -0.144216
v 0.738008 -0.378088 -0.145148
v 0.750507 -0.377651 -0.143803
v 0.752885 -0.387726 -0.148836
v 0.737454 -0.388266 -0.150495
v 0.750497 -0.367361 -0.133862
v 0.760654 -0.377117 -0.136388
v 0.750507 -0.377651 -0.143803
v 0.750497 -0.367361 -0.133862
v 0.756712 -0.366765 -0.119784
v 0.765730 -0.376631 -0.124890
v 0.760654 -0.377117 -0.136388
v 0.756712 -0.366765 -0.119784
v 0.764375 -0.376321 -0.112388
v 0.765730 -0.376631 -0.124890
v 0.756712 -0.366765 -0.119784
v 0.747623 -0.366705 -0.107351
v 0.756951 -0.376271 -0.102233
v 0.764375 -0.376321 -0.112388
v 0.747623 -0.366705 -0.107351
v 0.745449 -0.376495 -0.097147
v 0.756951 -0.376271 -0.102233
v 0.747623 -0.366705 -0.107351
v 0.732321 -0.367240 -0.108997
v 0.732950 -0.376932 -0.098491
v 0.745449 -0.376495 -0.097147
v 0.732321 -0.367240 -0.108997
v 0.722803 -0.377466 -0.105906
v 0.732950 -0.376932 -0.098491
v 0.732321 -0.367240 -0.108997
v 0.726107 -0.367836 -0.123075
v 0.717727 -0.377952 -0.117405
v 0.722803 -0.377466 -0.105906
v 0.726107 -0.367836 -0.123075
v 0.719083 -0.378262 -0.129906
v 0.717727 -0.377952 -0.117405
v 0.726107 -0.367836 -0.123075
v 0.735195 -0.367896 -0.135507
v 0.726506 -0.378312 -0.140061
v 0.719083 -0.378262 -0.129906
v 0.735195 -0.367896 -0.135507
v 0.738008 -0.378088 -0.145148
v 0.726506 -0.378312 -0.140061
v 0.735195 -0.367896 -0.135507
v 0.750497 -0.367361 -0.133862
v 0.750507 -0.377651 -0.143803
v 0.738008 -0.378088 -0.145148
v 0.735195 -0.367896 -0.135507
v 0.726107 -0.367836 -0.123075
v 0.732321 -0.367240 -0.108997
v 0.747623 -0.366705 -0.107351
v 0.756712 -0.366765 -0.119784
v 0.750497 -0.367361 -0.133862
usemtl mat14

vn -0.153108 -0.032769 -0.987666
vn -0.153108 -0.032769 -0.987666
vn -0.153108 -0.032769 -0.987666
vn -0.153108 -0.032769 -0.987666
vn -0.626442 -0.041974 -0.778337
vn -0.626442 -0.041974 -0.778337
vn -0.626442 -0.041974 -0.778337
vn -0.626442 -0.041974 -0.778337
vn -0.931922 -0.039933 -0.360453
vn -0.931922 -0.039933 -0.360453
vn -0.931922 -0.039933 -0.360453
vn -0.931922 -0.039933 -0.360453
vn -0.987695 -0.027191 0.154014
vn -0.987695 -0.027191 0.154014
vn -0.987695 -0.027191 0.154014
vn -0.987695 -0.027191 0.154014
vn -0.778815 -0.007164 0.627213
vn -0.778815 -0.007164 0.627213
vn -0.778815 -0.007164 0.627213
vn -0.778815 -0.007164 0.627213
vn -0.361252 0.014783 0.932351
vn -0.361252 0.014783 0.932351
vn -0.361252 0.014783 0.932351
vn -0.361252 0.014783 0.932351
vn 0.153108 0.032769 0.987666
vn 0.153108 0.032769 0.987666
vn 0.153108 0.032769 0.987666
vn 0.153108 0.032769 0.987666
vn 0.626442 0.041974 0.778337
vn 0.626442 0.041974 0.778337
vn 0.626442 0.041974 0.778337
vn 0.626442 0.041974 0.778337
vn 0.931922 0.039933 0.360453
vn 0.931922 0.039933 0.360453
vn 0.931922 0.039933 0.360453
vn 0.931922 0.039933 0.360453
vn 0.987695 0.027191 -0.154014
vn 0.987695 0.027191 -0.154014
vn 0.987695 0.027191 -0.154014
vn 0.987695 0.027191 -0.154014
vn 0.778815 0.007164 -0.627213
vn 0.778815 0.007164 -0.627213
vn 0.778815 0.007164 -0.627213
vn 0.778815 0.007164 -0.627213
vn 0.361252 -0.014783 -0.932351
vn 0.361252 -0.014783 -0.932351
vn 0.361252 -0.014783 -0.932351
vn 0.361252 -0.014783 -0.932351
vn 0.501586 0.478394 -0.720798
vn 0.501586 0.478394 -0.720798
vn 0.501586 0.478394 -0.720798
vn 0.501586 0.478394 -0.720798
vn 0.031903 -0.999093 0.028202
vn 0.031903 -0.999093 0.028202
vn 0.031903 -0.999093 0.028202
vn 0.031903 -0.999093 0.028202
vn 0.031903 -0.999093 0.028202
vn 0.031903 -0.999093 0.028202
vn 0.031903 -0.999093 0.028202
vn 0.031903 -0.999093 0.028202
vn 0.031903 -0.999093 0.028202
vn 0.031903 -0.999093 0.028202
vn 0.031903 -0.999093 0.028202
vn 0.031903 -0.999093 0.028202
vn 0.785659 0.497413 -0.367858
vn 0.785659 0.497413 -0.367858
vn 0.785659 0.497413 -0.367858
vn 0.785659 0.497413 -0.367858
vn 0.855102 0.512249 0.080007
vn 0.855102 0.512249 0.080007
vn 0.855102 0.512249 0.080007
vn 0.855102 0.512249 0.080007
vn 0.691278 0.518967 0.502800
vn 0.691278 0.518967 0.502800
vn 0.691278 0.518967 0.502800
vn 0.691278 0.518967 0.502800
vn 0.338114 0.515719 0.787219
vn 0.338114 0.515719 0.787219
vn 0.338114 0.515719 0.787219
vn 0.338114 0.515719 0.787219
vn -0.109771 0.503405 0.857049
vn -0.109771 0.503405 0.857049
vn -0.109771 0.503405 0.857049
vn -0.109771 0.503405 0.857049
vn -0.532352 0.485327 0.693585
vn -0.532352 0.485327 0.693585
vn -0.532352 0.485327 0.693585
vn -0.532352 0.485327 0.693585
vn -0.816409 0.466302 0.340644
vn -0.816409 0.466302 0.340644
vn -0.816409 0.466302 0.340644
vn -0.816409 0.466302 0.340644
vn -0.885818 0.451477 -0.107211
vn -0.885818 0.451477 -0.107211
vn -0.885818 0.451477 -0.107211
vn -0.885818 0.451477 -0.107211
vn -0.722009 0.444779 -0.529977
vn -0.722009 0.444779 -0.529977
vn -0.722009 0.444779 -0.529977
vn -0.722009 0.444779 -0.529977
vn -0.368872 0.448014 -0.814381
vn -0.368872 0.448014 -0.814381
vn -0.368872 0.448014 -0.814381
vn -0.368872 0.448014 -0.814381
vn 0.078997 0.460324 -0.884229
vn 0.078997 0.460324 -0.884229
vn 0.078997 0.460324 -0.884229
vn 0.078997 0.460324 -0.884229
vn 0.439149 0.624470 -0.645899
vn 0.439149 0.624470 -0.645899
vn 0.439149 0.624470 -0.645899
vn 0.619535 0.723674 -0.304091
vn 0.619535 0.723674 -0.304091
vn 0.619535 0.723674 -0.304091
vn 0.619535 0.723674 -0.304091
vn 0.753163 0.654573 0.065425
vn 0.753163 0.654573 0.065425
vn 0.753163 0.654573 0.065425
vn 0.543833 0.740977 0.393952
vn 0.543833 0.740977 0.393952
vn 0.543833 0.740977 0.393952
vn 0.543833 0.740977 0.393952
vn 0.293953 0.657652 0.693604
vn 0.293953 0.657652 0.693604
vn 0.293953 0.657652 0.693604
vn -0.098385 0.728483 0.677963
vn -0.098385 0.728483 0.677963
vn -0.098385 0.728483 0.677963
vn -0.098385 0.728483 0.677963
vn -0.479246 0.630601 0.610464
vn -0.479246 0.630601 0.610464
vn -0.479246 0.630601 0.610464
vn -0.664943 0.698697 0.263957
vn -0.664943 0.698697 0.263957
vn -0.664943 0.698697 0.263957
vn -0.664943 0.698697 0.263957
vn -0.793248 0.600483 -0.100881
vn -0.793248 0.600483 -0.100881
vn -0.793248 0.600483 -0.100881
vn -0.589278 0.681399 -0.434106
vn -0.589278 0.681399 -0.434106
vn -0.589278 0.681399 -0.434106
vn -0.589278 0.681399 -0.434106
vn -0.334044 0.597414 -0.729048
vn -0.334044 0.597414 -0.729048
vn -0.334044 0.597414 -0.729048
vn 0.052969 0.693897 -0.718124
vn 0.052969 0.693897 -0.718124
vn 0.052969 0.693897 -0.718124
vn 0.052969 0.693897 -0.718124
vn -0.031903 0.999093 -0.028202
vn -0.031903 0.999093 -0.028202
vn -0.031903 0.999093 -0.028202
vn -0.031903 0.999093 -0.028202
vn -0.031903 0.999093 -0.028202
vn -0.031903 0.999093 -0.028202

vt 0.020026 0.025255
vt 0.019408 0.023889
vt 0.006652 0.029658
vt 0.007270 0.031024
vt 0.000909 -0.016366
vt 0.000266 -0.017721
vt -0.012381 -0.011718
vt -0.011738 -0.010363
vt -0.025652 -0.050611
vt -0.026508 -0.051842
vt -0.038002 -0.043849
vt -0.037145 -0.042617
vt -0.074631 -0.037024
vt -0.076031 -0.037561
vt -0.081045 -0.024490
vt -0.079645 -0.023952
vt -0.073980 0.047304
vt -0.075167 0.048221
vt -0.066602 0.059296
vt -0.065415 0.058378
vt -0.041186 0.055350
vt -0.041939 0.056647
vt -0.029830 0.063674
vt -0.029077 0.062377
vt -0.020026 0.025255
vt -0.020644 0.026622
vt -0.007888 0.032391
vt -0.007270 0.031024
vt -0.000909 -0.016366
vt -0.001552 -0.015011
vt 0.011095 -0.009008
vt 0.011738 -0.010363
vt 0.025652 -0.050611
vt 0.024795 -0.049380
vt 0.036289 -0.041386
vt 0.037145 -0.042617
vt 0.074631 -0.037024
vt 0.073230 -0.036487
vt 0.078244 -0.023415
vt 0.079645 -0.023953
vt 0.073980 0.047304
vt 0.072794 0.046386
vt 0.064229 0.057461
vt 0.065415 0.058378
vt 0.041186 0.055350
vt 0.040433 0.054052
vt 0.028324 0.061079
vt 0.029077 0.062377
vt -0.023313 0.079967
vt -0.023321 0.081225
vt -0.022181 0.081380
vt -0.022170 0.079827
vt 0.084760 0.018549
vt 0.086029 0.019443
vt 0.087576 0.019583
vt 0.088985 0.018930
vt 0.089879 0.017661
vt 0.090019 0.016114
vt 0.089367 0.014705
vt 0.088097 0.013810
vt 0.086550 0.013671
vt 0.085141 0.014323
vt 0.084247 0.015593
vt 0.084107 0.017139
vt -0.062602 0.061250
vt -0.063492 0.062139
vt -0.062789 0.063050
vt -0.061691 0.061953
vt -0.027632 -0.068735
vt -0.027773 -0.069985
vt -0.028924 -0.070004
vt -0.028750 -0.068461
vt -0.028585 -0.040190
vt -0.028414 -0.041436
vt -0.029524 -0.041738
vt -0.029736 -0.040200
vt -0.038395 -0.003465
vt -0.037981 -0.004653
vt -0.039011 -0.005168
vt -0.039522 -0.003701
vt -0.053379 0.027588
vt -0.052691 0.026535
vt -0.053566 0.025788
vt -0.054415 0.027087
vt -0.072997 0.038085
vt -0.071983 0.037341
vt -0.072539 0.036334
vt -0.073791 0.037252
vt -0.087404 0.018427
vt -0.086153 0.018298
vt -0.086123 0.017147
vt -0.087668 0.017306
vt -0.078391 -0.006063
vt -0.077269 -0.005494
vt -0.076621 -0.006445
vt -0.078006 -0.007148
vt -0.057662 -0.000881
vt -0.056866 0.000093
vt -0.055889 -0.000516
vt -0.056872 -0.001718
vt -0.040485 0.026467
vt -0.039983 0.027621
vt -0.038877 0.027300
vt -0.039497 0.025876
vt -0.028714 0.058056
vt -0.028459 0.059288
vt -0.027311 0.059201
vt -0.027626 0.057680
vt -0.049681 0.069683
vt -0.048622 0.070645
vt -0.048272 0.069437
vt -0.084948 0.020755
vt -0.086450 0.021096
vt -0.085997 0.022453
vt -0.084771 0.022175
vt -0.057701 -0.050897
vt -0.059131 -0.050850
vt -0.058541 -0.049739
vt -0.056548 -0.029315
vt -0.056729 -0.030844
vt -0.058126 -0.030537
vt -0.057978 -0.029288
vt -0.050466 -0.005613
vt -0.051524 -0.006576
vt -0.051876 -0.005369
vt -0.067859 0.017480
vt -0.066998 0.016203
vt -0.068257 0.015524
vt -0.068961 0.016567
vt -0.076880 0.030321
vt -0.077072 0.028903
vt -0.078117 0.029603
vt -0.087669 0.018754
vt -0.086135 0.018619
vt -0.086400 0.017213
vt -0.087654 0.017323
vt -0.081236 0.004387
vt -0.080128 0.003481
vt -0.081272 0.002957
vt -0.071361 0.013292
vt -0.070340 0.014445
vt -0.069367 0.013397
vt -0.070200 0.012454
vt -0.053065 0.030903
vt -0.051638 0.031004
vt -0.052110 0.029838
vt -0.055263 0.051748
vt -0.055239 0.053288
vt -0.053818 0.053125
vt -0.053837 0.051868
vt -0.085529 0.016488
vt -0.086416 0.015229
vt -0.087950 0.015368
vt -0.088597 0.016765
vt -0.087710 0.018024
vt -0.086176 0.017886
s off
f 1/1/1 2/2/2 3/3/3
f 1/1/1 3/3/3 4/4/4
f 5/5/5 6/6/6 7/7/7
f 5/5/5 7/7/7 8/8/8
f 9/9/9 10/10/10 11/11/11
f 9/9/9 11/11/11 12/12/12
f 13/13/13 14/14/14 15/15/15
f 13/13/13 15/15/15 16/16/16
f 17/17/17 18/18/18 19/19/19
f 17/17/17 19/19/19 20/20/20
f 21/21/21 22/22/22 23/23/23
f 21/21/21 23/23/23 24/24/24
f 25/25/25 26/26/26 27/27/27
f 25/25/25 27/27/27 28/28/28
f 29/29/29 30/30/30 31/31/31
f 29/29/29 31/31/31 32/32/32
f 33/33/33 34/34/34 35/35/35
f 33/33/33 35/35/35 36/36/36
f 37/37/37 38/38/38 39/39/39
f 37/37/37 39/39/39 40/40/40
f 41/41/41 42/42/42 43/43/43
f 41/41/41 43/43/43 44/44/44
f 45/45/45 46/46/46 47/47/47
f 45/45/45 47/47/47 48/48/48
f 49/49/49 50/50/50 51/51/51
f 49/49/49 51/51/51 52/52/52
f 53/53/53 54/54/54 55/55/55
f 53/53/53 55/55/55 56/56/56
f 53/53/53 56/56/56 57/57/57
f 53/53/53 57/57/57 58/58/58
f 53/53/53 58/58/58 59/59/59
f 53/53/53 59/59/59 60/60/60
f 53/53/53 60/60/60 61/61/61
f 53/53/53 61/61/61 62/62/62
f 53/53/53 62/62/62 63/63/63
f 53/53/53 63/63/63 64/64/64
f 65/65/65 66/66/66 67/67/67
f 65/65/65 67/67/67 68/68/68
f 69/69/69 70/70/70 71/71/71
f 69/69/69 71/71/71 72/72/72
f 73/73/73 74/74/74 75/75/75
f 73/73/73 75/75/75 76/76/76
f 77/77/77 78/78/78 79/79/79
f 77/77/77 79/79/79 80/80/80
f 81/81/81 82/82/82 83/83/83
f 81/81/81 83/83/83 84/84/84
f 85/85/85 86/86/86 87/87/87
f 85/85/85 87/87/87 88/88/88
f 89/89/89 90/90/90 91/91/91
f 89/89/89 91/91/91 92/92/92
f 93/93/93 94/94/94 95/95/95
f 93/93/93 95/95/95 96/96/96
f 97/97/97 98/98/98 99/99/99
f 97/97/97 99/99/99 100/100/100
f 101/101/101 102/102/102 103/103/103
f 101/101/101 103/103/103 104/104/104
f 105/105/105 106/106/106 107/107/107
f 105/105/105 107/107/107 108/108/108
f 109/109/109 110/110/110 111/111/111
f 112/112/112 113/113/113 114/114/114
f 112/112/112 114/114/114 115/115/115
f 116/116/116 117/117/117 118/118/118
f 119/119/119 120/120/120 121/121/121
f 119/119/119 121/121/121 122/122/122
f 123/123/123 124/124/124 125/125/125
f 126/126/126 127/127/127 128/128/128
f 126/126/126 128/128/128 129/129/129
f 130/130/130 131/131/131 132/132/132
f 133/133/133 134/134/134 135/135/135
f 133/133/133 135/135/135 136/136/136
f 137/137/137 138/138/138 139/139/139
f 140/140/140 141/141/141 142/142/142
f 140/140/140 142/142/142 143/143/143
f 144/144/144 145/145/145 146/146/146
f 147/147/147 148/148/148 149/149/149
f 147/147/147 149/149/149 150/150/150
f 151/151/151 152/152/152 153/153/153
f 151/151/151 153/153/153 154/154/154
f 151/151/151 154/154/154 155/155/155
f 151/151/151 155/155/155 156/156/156
