# Exported using automatic converter by Erwin Coumans
mtllib botlab.mtl
#object mesh783468846

v 1.498238 1.095489 0.934852
v 1.488190 1.095489 0.897352
v 1.413238 1.145489 0.934852
v 1.488190 1.095489 0.897352
v 1.460738 1.095489 0.869900
v 1.413238 1.145489 0.934852
v 1.460738 1.095489 0.869900
v 1.423238 1.095489 0.859852
v 1.413238 1.145489 0.934852
v 1.423238 1.095489 0.859852
v 1.385738 1.095489 0.869900
v 1.413238 1.145489 0.934852
v 1.385738 1.095489 0.869900
v 1.358286 1.095489 0.897352
v 1.413238 1.145489 0.934852
v 1.358286 1.095489 0.897352
v 1.348238 1.095489 0.934852
v 1.413238 1.145489 0.934852
v 1.348238 1.095489 0.934852
v 1.358286 1.095489 0.972352
v 1.413238 1.145489 0.934852
v 1.358286 1.095489 0.972352
v 1.385738 1.095489 0.999804
v 1.413238 1.145489 0.934852
v 1.385738 1.095489 0.999804
v 1.423238 1.095489 1.009852
v 1.413238 1.145489 0.934852
v 1.423238 1.095489 1.009852
v 1.460738 1.095489 0.999804
v 1.413238 1.145489 0.934852
v 1.460738 1.095489 0.999804
v 1.488190 1.095489 0.972352
v 1.413238 1.145489 0.934852
v 1.488190 1.095489 0.972352
v 1.498238 1.095489 0.934852
v 1.413238 1.145489 0.934852
v 1.488190 1.095489 0.972352
v 1.460738 1.095489 0.999804
v 1.423238 1.095489 1.009852
v 1.385738 1.095489 0.999804
v 1.358286 1.095489 0.972352
v 1.348238 1.095489 0.934852
v 1.358286 1.095489 0.897352
v 1.385738 1.095489 0.869900
v 1.423238 1.095489 0.859852
v 1.460738 1.095489 0.869900
v 1.488190 1.095489 0.897352
v 1.498238 1.095489 0.934852
usemtl mat21

vn 0.502405 0.854088 -0.134619
vn 0.502405 0.854088 -0.134619
vn 0.502405 0.854088 -0.134619
vn 0.376404 0.846546 -0.376404
vn 0.376404 0.846546 -0.376404
vn 0.376404 0.846546 -0.376404
vn 0.143524 0.832161 -0.535638
vn 0.143524 0.832161 -0.535638
vn 0.143524 0.832161 -0.535638
vn -0.150640 0.813168 -0.562197
vn -0.150640 0.813168 -0.562197
vn -0.150640 0.813168 -0.562197
vn -0.429579 0.794307 -0.429579
vn -0.429579 0.794307 -0.429579
vn -0.429579 0.794307 -0.429579
vn -0.601734 0.782253 -0.161234
vn -0.601734 0.782253 -0.161234
vn -0.601734 0.782253 -0.161234
vn -0.601734 0.782253 0.161234
vn -0.601734 0.782253 0.161234
vn -0.601734 0.782253 0.161234
vn -0.429579 0.794307 0.429579
vn -0.429579 0.794307 0.429579
vn -0.429579 0.794307 0.429579
vn -0.150640 0.813168 0.562197
vn -0.150640 0.813168 0.562197
vn -0.150640 0.813168 0.562197
vn 0.143524 0.832161 0.535638
vn 0.143524 0.832161 0.535638
vn 0.143524 0.832161 0.535638
vn 0.376404 0.846546 0.376404
vn 0.376404 0.846546 0.376404
vn 0.376404 0.846546 0.376404
vn 0.502405 0.854088 0.134619
vn 0.502405 0.854088 0.134619
vn 0.502405 0.854088 0.134619
vn 0.000000 -1.000000 0.000000
vn 0.000000 -1.000000 0.000000
vn 0.000000 -1.000000 0.000000
vn 0.000000 -1.000000 0.000000
vn 0.000000 -1.000000 0.000000
vn 0.000000 -1.000000 0.000000
vn 0.000000 -1.000000 0.000000
vn 0.000000 -1.000000 0.000000
vn 0.000000 -1.000000 0.000000
vn 0.000000 -1.000000 0.000000
vn 0.000000 -1.000000 0.000000
vn 0.000000 -1.000000 0.000000

vt -0.202022 -0.051598
vt -0.198174 -0.051083
vt -0.198567 -0.060835
vt -0.238349 0.041620
vt -0.235365 0.039137
vt -0.242322 0.032706
vt -0.236963 0.100916
vt -0.235994 0.097157
vt -0.244968 0.095851
vt -0.234792 0.112771
vt -0.235585 0.108971
vt -0.243795 0.111681
vt -0.237394 0.105749
vt -0.239605 0.102557
vt -0.245668 0.108259
vt -0.235383 0.107418
vt -0.238701 0.105404
vt -0.241428 0.113138
vt -0.213181 0.124341
vt -0.217052 0.124048
vt -0.215463 0.132217
vt -0.169692 0.127102
vt -0.173263 0.128625
vt -0.167599 0.135157
vt -0.127239 0.091436
vt -0.129828 0.094329
vt -0.121489 0.097893
vt -0.102966 0.027675
vt -0.104182 0.031362
vt -0.094708 0.031424
vt -0.103673 -0.039724
vt -0.103197 -0.035871
vt -0.094200 -0.039652
vt -0.137538 -0.081034
vt -0.135104 -0.078010
vt -0.128995 -0.085751
vt 0.215086 0.048478
vt 0.216747 0.044970
vt 0.216432 0.041100
vt 0.214225 0.037907
vt 0.210716 0.036245
vt 0.206847 0.036560
vt 0.203653 0.038767
vt 0.201991 0.042276
vt 0.202306 0.046145
vt 0.204514 0.049339
vt 0.208022 0.051001
vt 0.211892 0.050686
s off
f 1/1/1 2/2/2 3/3/3
f 4/4/4 5/5/5 6/6/6
f 7/7/7 8/8/8 9/9/9
f 10/10/10 11/11/11 12/12/12
f 13/13/13 14/14/14 15/15/15
f 16/16/16 17/17/17 18/18/18
f 19/19/19 20/20/20 21/21/21
f 22/22/22 23/23/23 24/24/24
f 25/25/25 26/26/26 27/27/27
f 28/28/28 29/29/29 30/30/30
f 31/31/31 32/32/32 33/33/33
f 34/34/34 35/35/35 36/36/36
f 37/37/37 38/38/38 39/39/39
f 37/37/37 39/39/39 40/40/40
f 37/37/37 40/40/40 41/41/41
f 37/37/37 41/41/41 42/42/42
f 37/37/37 42/42/42 43/43/43
f 37/37/37 43/43/43 44/44/44
f 37/37/37 44/44/44 45/45/45
f 37/37/37 45/45/45 46/46/46
f 37/37/37 46/46/46 47/47/47
f 37/37/37 47/47/47 48/48/48
