# Exported using automatic converter by Erwin Coumans
mtllib model6.mtl
#object mesh1793296027

v 2.543875 1.380084 -2.610611
v 2.523876 1.380084 -2.610610
v 2.523876 1.440084 -2.610610
v 2.543875 1.440084 -2.610611
v 2.503417 1.414504 2.335031
v 2.503417 1.354504 2.335031
v 2.525921 1.354677 2.329068
v 2.525921 1.414677 2.329068
v 2.523876 1.440084 -2.610610
v 2.503417 1.414504 2.335031
v 2.525921 1.414677 2.329068
v 2.543875 1.440084 -2.610611
v 2.525921 1.354677 2.329068
v 2.503417 1.354504 2.335031
v 2.523876 1.380084 -2.610610
v 2.543875 1.380084 -2.610611
v 2.525921 1.414677 2.329068
v 2.525921 1.354677 2.329068
v 2.543875 1.380084 -2.610611
v 2.543875 1.440084 -2.610611
v 2.523876 1.380084 -2.610610
v 2.503417 1.354504 2.335031
v 2.503417 1.414504 2.335031
v 2.523876 1.440084 -2.610610
usemtl mat21

vn -0.000048 -0.000003 -1.000000
vn -0.000048 -0.000003 -1.000000
vn -0.000048 -0.000003 -1.000000
vn -0.000048 -0.000003 -1.000000
vn 0.256155 -0.000001 0.966636
vn 0.256155 -0.000001 0.966636
vn 0.256155 -0.000001 0.966636
vn 0.256155 -0.000001 0.966636
vn -0.006345 0.999967 0.005120
vn -0.006345 0.999967 0.005120
vn -0.006345 0.999967 0.005120
vn -0.006345 0.999967 0.005120
vn -0.000000 -0.999987 -0.005172
vn -0.000000 -0.999987 -0.005172
vn -0.000000 -0.999987 -0.005172
vn -0.000000 -0.999987 -0.005172
vn 0.999993 -0.000000 0.003635
vn 0.999993 -0.000000 0.003635
vn 0.999993 -0.000000 0.003635
vn 0.999993 -0.000000 0.003635
vn -0.999991 0.000000 -0.004137
vn -0.999991 0.000000 -0.004137
vn -0.999991 0.000000 -0.004137
vn -0.999991 0.000000 -0.004137

vt -0.066792 0.283356
vt -0.067687 0.281567
vt -0.073053 0.284250
vt -0.072159 0.286039
vt 0.116336 0.198291
vt 0.110912 0.195728
vt 0.109932 0.197840
vt 0.115357 0.200403
vt 0.087682 0.268104
vt -0.377174 0.099246
vt -0.377372 0.101566
vt 0.087007 0.269987
vt 0.377086 0.100034
vt 0.376885 0.097714
vt -0.087799 0.267047
vt -0.087122 0.268928
vt 0.371531 -0.033882
vt 0.368020 -0.038747
vt -0.031073 0.252352
vt -0.027563 0.257217
vt 0.030991 0.252433
vt -0.368384 -0.039293
vt -0.371898 -0.034430
vt 0.027477 0.257296
s off
f 1/1/1 2/2/2 3/3/3
f 1/1/1 3/3/3 4/4/4
f 5/5/5 6/6/6 7/7/7
f 5/5/5 7/7/7 8/8/8
f 9/9/9 10/10/10 11/11/11
f 9/9/9 11/11/11 12/12/12
f 13/13/13 14/14/14 15/15/15
f 13/13/13 15/15/15 16/16/16
f 17/17/17 18/18/18 19/19/19
f 17/17/17 19/19/19 20/20/20
f 21/21/21 22/22/22 23/23/23
f 21/21/21 23/23/23 24/24/24
