# Exported using automatic converter by Erwin Coumans
mtllib model6.mtl
#object mesh1131028408

v 0.297185 0.445489 -0.239622
v 0.167185 0.445489 -0.239622
v 0.167185 0.459173 -0.239622
v 0.297185 0.459173 -0.239622
v 0.167185 0.459173 -0.219096
v 0.167185 0.445489 -0.219096
v 0.297185 0.445489 -0.219096
v 0.297185 0.459173 -0.219096
v 0.167185 0.459173 -0.239622
v 0.167185 0.459173 -0.219096
v 0.297185 0.459173 -0.219096
v 0.297185 0.459173 -0.239622
v 0.297185 0.445489 -0.219096
v 0.167185 0.445489 -0.219096
v 0.167185 0.445489 -0.239622
v 0.297185 0.445489 -0.239622
v 0.297185 0.459173 -0.219096
v 0.297185 0.445489 -0.219096
v 0.297185 0.445489 -0.239622
v 0.297185 0.459173 -0.239622
v 0.167185 0.445489 -0.239622
v 0.167185 0.445489 -0.219096
v 0.167185 0.459173 -0.219096
v 0.167185 0.459173 -0.239622
v 0.300343 0.425489 0.014589
v 0.177185 0.425489 0.014589
v 0.177185 0.446015 0.014589
v 0.300343 0.446015 0.014589
v 0.177185 0.446015 0.041957
v 0.177185 0.425489 0.041957
v 0.300343 0.425489 0.041957
v 0.300343 0.446015 0.041957
v 0.177185 0.446015 0.014589
v 0.177185 0.446015 0.041957
v 0.300343 0.446015 0.041957
v 0.300343 0.446015 0.014589
v 0.300343 0.425489 0.041957
v 0.177185 0.425489 0.041957
v 0.177185 0.425489 0.014589
v 0.300343 0.425489 0.014589
v 0.300343 0.446015 0.041957
v 0.300343 0.425489 0.041957
v 0.300343 0.425489 0.014589
v 0.300343 0.446015 0.014589
v 0.177185 0.425489 0.014589
v 0.177185 0.425489 0.041957
v 0.177185 0.446015 0.041957
v 0.177185 0.446015 0.014589
v 0.180869 0.445489 -0.239622
v 0.167185 0.445489 -0.239622
v 0.167185 0.459173 -0.239622
v 0.180869 0.459173 -0.239622
v 0.167185 0.449173 0.021957
v 0.167185 0.435489 0.021957
v 0.180869 0.435489 0.021957
v 0.180869 0.449173 0.021957
v 0.167185 0.459173 -0.239622
v 0.167185 0.449173 0.021957
v 0.180869 0.449173 0.021957
v 0.180869 0.459173 -0.239622
v 0.180869 0.435489 0.021957
v 0.167185 0.435489 0.021957
v 0.167185 0.445489 -0.239622
v 0.180869 0.445489 -0.239622
v 0.180869 0.449173 0.021957
v 0.180869 0.435489 0.021957
v 0.180869 0.445489 -0.239622
v 0.180869 0.459173 -0.239622
v 0.167185 0.445489 -0.239622
v 0.167185 0.435489 0.021957
v 0.167185 0.449173 0.021957
v 0.167185 0.459173 -0.239622
v 0.304027 0.445489 -0.239622
v 0.290343 0.445489 -0.239622
v 0.290343 0.466015 -0.239622
v 0.304027 0.466015 -0.239622
v 0.290343 0.456015 0.028799
v 0.290343 0.435489 0.028799
v 0.304027 0.435489 0.028799
v 0.304027 0.456015 0.028799
v 0.290343 0.466015 -0.239622
v 0.290343 0.456015 0.028799
v 0.304027 0.456015 0.028799
v 0.304027 0.466015 -0.239622
v 0.304027 0.435489 0.028799
v 0.290343 0.435489 0.028799
v 0.290343 0.445489 -0.239622
v 0.304027 0.445489 -0.239622
v 0.304027 0.456015 0.028799
v 0.304027 0.435489 0.028799
v 0.304027 0.445489 -0.239622
v 0.304027 0.466015 -0.239622
v 0.290343 0.445489 -0.239622
v 0.290343 0.435489 0.028799
v 0.290343 0.456015 0.028799
v 0.290343 0.466015 -0.239622
usemtl mat23

vn -0.000000 0.000000 -1.000000
vn -0.000000 0.000000 -1.000000
vn -0.000000 0.000000 -1.000000
vn -0.000000 0.000000 -1.000000
vn 0.000000 -0.000000 1.000000
vn 0.000000 -0.000000 1.000000
vn 0.000000 -0.000000 1.000000
vn 0.000000 -0.000000 1.000000
vn 0.000000 1.000000 0.000000
vn 0.000000 1.000000 0.000000
vn 0.000000 1.000000 0.000000
vn 0.000000 1.000000 0.000000
vn -0.000000 -1.000000 -0.000000
vn -0.000000 -1.000000 -0.000000
vn -0.000000 -1.000000 -0.000000
vn -0.000000 -1.000000 -0.000000
vn 1.000000 -0.000000 -0.000000
vn 1.000000 -0.000000 -0.000000
vn 1.000000 -0.000000 -0.000000
vn 1.000000 -0.000000 -0.000000
vn -1.000000 0.000000 0.000000
vn -1.000000 0.000000 0.000000
vn -1.000000 0.000000 0.000000
vn -1.000000 0.000000 0.000000
vn -0.000000 0.000000 -1.000000
vn -0.000000 0.000000 -1.000000
vn -0.000000 0.000000 -1.000000
vn -0.000000 0.000000 -1.000000
vn 0.000000 -0.000000 1.000000
vn 0.000000 -0.000000 1.000000
vn 0.000000 -0.000000 1.000000
vn 0.000000 -0.000000 1.000000
vn 0.000000 1.000000 0.000000
vn 0.000000 1.000000 0.000000
vn 0.000000 1.000000 0.000000
vn 0.000000 1.000000 0.000000
vn -0.000000 -1.000000 -0.000000
vn -0.000000 -1.000000 -0.000000
vn -0.000000 -1.000000 -0.000000
vn -0.000000 -1.000000 -0.000000
vn 1.000000 -0.000000 -0.000000
vn 1.000000 -0.000000 -0.000000
vn 1.000000 -0.000000 -0.000000
vn 1.000000 -0.000000 -0.000000
vn -1.000000 0.000000 0.000000
vn -1.000000 0.000000 0.000000
vn -1.000000 0.000000 0.000000
vn -1.000000 0.000000 0.000000
vn -0.000000 0.000000 -1.000000
vn -0.000000 0.000000 -1.000000
vn -0.000000 0.000000 -1.000000
vn -0.000000 0.000000 -1.000000
vn 0.000000 -0.000000 1.000000
vn 0.000000 -0.000000 1.000000
vn 0.000000 -0.000000 1.000000
vn 0.000000 -0.000000 1.000000
vn -0.000000 0.999270 0.038201
vn -0.000000 0.999270 0.038201
vn -0.000000 0.999270 0.038201
vn -0.000000 0.999270 0.038201
vn -0.000000 -0.999270 -0.038201
vn -0.000000 -0.999270 -0.038201
vn -0.000000 -0.999270 -0.038201
vn -0.000000 -0.999270 -0.038201
vn 1.000000 -0.000000 -0.000000
vn 1.000000 -0.000000 -0.000000
vn 1.000000 -0.000000 -0.000000
vn 1.000000 -0.000000 -0.000000
vn -1.000000 0.000000 0.000000
vn -1.000000 0.000000 0.000000
vn -1.000000 0.000000 0.000000
vn -1.000000 0.000000 0.000000
vn -0.000000 0.000000 -1.000000
vn -0.000000 0.000000 -1.000000
vn -0.000000 0.000000 -1.000000
vn -0.000000 0.000000 -1.000000
vn 0.000000 -0.000000 1.000000
vn 0.000000 -0.000000 1.000000
vn 0.000000 -0.000000 1.000000
vn 0.000000 -0.000000 1.000000
vn -0.000000 0.999307 0.037229
vn -0.000000 0.999307 0.037229
vn -0.000000 0.999307 0.037229
vn -0.000000 0.999307 0.037229
vn 0.000000 -0.999307 -0.037229
vn 0.000000 -0.999307 -0.037229
vn 0.000000 -0.999307 -0.037229
vn 0.000000 -0.999307 -0.037229
vn 1.000000 -0.000000 -0.000000
vn 1.000000 -0.000000 -0.000000
vn 1.000000 -0.000000 -0.000000
vn 1.000000 -0.000000 -0.000000
vn -1.000000 0.000000 0.000000
vn -1.000000 0.000000 0.000000
vn -1.000000 0.000000 0.000000
vn -1.000000 0.000000 0.000000

vt -0.083676 0.040602
vt -0.089490 0.028975
vt -0.090714 0.029587
vt -0.084900 0.041214
vt 0.090714 0.029587
vt 0.089490 0.028975
vt 0.083676 0.040602
vt 0.084900 0.041214
vt -0.056519 -0.035163
vt -0.058452 -0.035853
vt -0.062824 -0.023611
vt -0.060891 -0.022920
vt 0.062824 -0.023611
vt 0.058452 -0.035853
vt 0.056519 -0.035163
vt 0.060891 -0.022920
vt 0.109456 0.037787
vt 0.108661 0.036673
vt 0.106991 0.037866
vt 0.107786 0.038980
vt -0.106991 0.037866
vt -0.108661 0.036673
vt -0.109456 0.037787
vt -0.107786 0.038980
vt -0.081746 0.039990
vt -0.087254 0.028975
vt -0.089090 0.029893
vt -0.083582 0.040908
vt 0.089090 0.029893
vt 0.087254 0.028975
vt 0.081746 0.039990
vt 0.083582 0.040908
vt -0.080795 -0.042771
vt -0.083372 -0.043692
vt -0.087515 -0.032094
vt -0.084937 -0.031173
vt 0.087515 -0.032094
vt 0.083372 -0.043692
vt 0.080795 -0.042771
vt 0.084937 -0.031173
vt 0.129934 0.021543
vt 0.128741 0.019872
vt 0.126514 0.021463
vt 0.127707 0.023133
vt -0.126514 0.021463
vt -0.128741 0.019872
vt -0.129934 0.021543
vt -0.127707 0.023133
vt -0.088878 0.030199
vt -0.089490 0.028975
vt -0.090714 0.029587
vt -0.090102 0.030811
vt 0.089819 0.029139
vt 0.088595 0.028527
vt 0.087983 0.029751
vt 0.089207 0.030363
vt -0.052508 -0.034811
vt -0.077010 -0.044024
vt -0.077492 -0.042743
vt -0.052990 -0.033531
vt 0.077541 -0.042761
vt 0.077059 -0.044042
vt 0.052557 -0.034830
vt 0.053039 -0.033549
vt 0.128490 0.022962
vt 0.127695 0.021848
vt 0.106991 0.037866
vt 0.107786 0.038980
vt -0.106991 0.037866
vt -0.127695 0.021848
vt -0.128490 0.022962
vt -0.107786 0.038980
vt -0.083370 0.041214
vt -0.083982 0.039990
vt -0.085818 0.040908
vt -0.085206 0.042132
vt 0.084924 0.040461
vt 0.083088 0.039543
vt 0.082476 0.040767
vt 0.084312 0.041685
vt -0.056916 -0.023284
vt -0.082063 -0.032727
vt -0.082544 -0.031446
vt -0.057397 -0.022003
vt 0.082615 -0.031473
vt 0.082134 -0.032754
vt 0.056988 -0.023311
vt 0.057469 -0.022030
vt 0.129445 0.023121
vt 0.128252 0.021451
vt 0.106991 0.037866
vt 0.108184 0.039536
vt -0.106991 0.037866
vt -0.128252 0.021451
vt -0.129445 0.023121
vt -0.108184 0.039536
s off
f 1/1/1 2/2/2 3/3/3
f 1/1/1 3/3/3 4/4/4
f 5/5/5 6/6/6 7/7/7
f 5/5/5 7/7/7 8/8/8
f 9/9/9 10/10/10 11/11/11
f 9/9/9 11/11/11 12/12/12
f 13/13/13 14/14/14 15/15/15
f 13/13/13 15/15/15 16/16/16
f 17/17/17 18/18/18 19/19/19
f 17/17/17 19/19/19 20/20/20
f 21/21/21 22/22/22 23/23/23
f 21/21/21 23/23/23 24/24/24
f 25/25/25 26/26/26 27/27/27
f 25/25/25 27/27/27 28/28/28
f 29/29/29 30/30/30 31/31/31
f 29/29/29 31/31/31 32/32/32
f 33/33/33 34/34/34 35/35/35
f 33/33/33 35/35/35 36/36/36
f 37/37/37 38/38/38 39/39/39
f 37/37/37 39/39/39 40/40/40
f 41/41/41 42/42/42 43/43/43
f 41/41/41 43/43/43 44/44/44
f 45/45/45 46/46/46 47/47/47
f 45/45/45 47/47/47 48/48/48
f 49/49/49 50/50/50 51/51/51
f 49/49/49 51/51/51 52/52/52
f 53/53/53 54/54/54 55/55/55
f 53/53/53 55/55/55 56/56/56
f 57/57/57 58/58/58 59/59/59
f 57/57/57 59/59/59 60/60/60
f 61/61/61 62/62/62 63/63/63
f 61/61/61 63/63/63 64/64/64
f 65/65/65 66/66/66 67/67/67
f 65/65/65 67/67/67 68/68/68
f 69/69/69 70/70/70 71/71/71
f 69/69/69 71/71/71 72/72/72
f 73/73/73 74/74/74 75/75/75
f 73/73/73 75/75/75 76/76/76
f 77/77/77 78/78/78 79/79/79
f 77/77/77 79/79/79 80/80/80
f 81/81/81 82/82/82 83/83/83
f 81/81/81 83/83/83 84/84/84
f 85/85/85 86/86/86 87/87/87
f 85/85/85 87/87/87 88/88/88
f 89/89/89 90/90/90 91/91/91
f 89/89/89 91/91/91 92/92/92
f 93/93/93 94/94/94 95/95/95
f 93/93/93 95/95/95 96/96/96
