# Exported using automatic converter by Erwin Coumans
mtllib model6.mtl
#object mesh1264339061

v -0.786041 0.247052 -2.729930
v -0.496121 0.246777 -2.733807
v -0.496162 0.246799 -2.738830
v -0.786082 0.247074 -2.734954
v -0.496202 0.181496 -2.739117
v -0.496161 0.181474 -2.734094
v -0.786081 0.181749 -2.730217
v -0.786121 0.181771 -2.735240
v -0.496162 0.246799 -2.738830
v -0.496202 0.181496 -2.739117
v -0.786121 0.181771 -2.735240
v -0.786082 0.247074 -2.734954
v -0.786081 0.181749 -2.730217
v -0.496161 0.181474 -2.734094
v -0.496121 0.246777 -2.733807
v -0.786041 0.247052 -2.729930
v -0.786121 0.181771 -2.735240
v -0.786081 0.181749 -2.730217
v -0.786041 0.247052 -2.729930
v -0.786082 0.247074 -2.734954
v -0.496121 0.246777 -2.733807
v -0.496161 0.181474 -2.734094
v -0.496202 0.181496 -2.739117
v -0.496162 0.246799 -2.738830
usemtl mat24

vn 0.001006 0.999990 0.004392
vn 0.001006 0.999990 0.004392
vn 0.001006 0.999990 0.004392
vn 0.001006 0.999990 0.004392
vn -0.001006 -0.999990 -0.004403
vn -0.001006 -0.999990 -0.004403
vn -0.001006 -0.999990 -0.004403
vn -0.001006 -0.999990 -0.004403
vn -0.013366 0.004402 -0.999901
vn -0.013366 0.004402 -0.999901
vn -0.013366 0.004402 -0.999901
vn -0.013366 0.004402 -0.999901
vn 0.013366 -0.004403 0.999901
vn 0.013366 -0.004403 0.999901
vn 0.013366 -0.004403 0.999901
vn 0.013366 -0.004403 0.999901
vn -0.999967 0.000576 0.008124
vn -0.999967 0.000576 0.008124
vn -0.999967 0.000576 0.008124
vn -0.999967 0.000576 0.008124
vn 0.999967 -0.000576 -0.008124
vn 0.999967 -0.000576 -0.008124
vn 0.999967 -0.000576 -0.008124
vn 0.999967 -0.000576 -0.008124

vt 0.210476 -0.040693
vt 0.201032 -0.013279
vt 0.201506 -0.013113
vt 0.210950 -0.040527
vt -0.201506 -0.013109
vt -0.201032 -0.013276
vt -0.210476 -0.040689
vt -0.210950 -0.040523
vt -0.099428 -0.037699
vt -0.093579 -0.040604
vt -0.106491 -0.066565
vt -0.112339 -0.063660
vt 0.106492 -0.066568
vt 0.093580 -0.040607
vt 0.099429 -0.037701
vt 0.112340 -0.063662
vt 0.114007 0.160635
vt 0.113597 0.160346
vt 0.109838 0.165686
vt 0.110249 0.165975
vt -0.109969 0.165764
vt -0.113728 0.160424
vt -0.114138 0.160713
vt -0.110380 0.166054
s off
f 1/1/1 2/2/2 3/3/3
f 1/1/1 3/3/3 4/4/4
f 5/5/5 6/6/6 7/7/7
f 5/5/5 7/7/7 8/8/8
f 9/9/9 10/10/10 11/11/11
f 9/9/9 11/11/11 12/12/12
f 13/13/13 14/14/14 15/15/15
f 13/13/13 15/15/15 16/16/16
f 17/17/17 18/18/18 19/19/19
f 17/17/17 19/19/19 20/20/20
f 21/21/21 22/22/22 23/23/23
f 21/21/21 23/23/23 24/24/24
