# Exported using automatic converter by Erwin Coumans
mtllib model6.mtl
#object group288095768_1

v 1.170619 -1.004511 -2.437549
v 1.138613 -1.004511 -2.405543
v 1.094891 -1.004511 -2.393828
v 1.051170 -1.004511 -2.405543
v 1.019164 -1.004511 -2.437549
v 1.007449 -1.004511 -2.481271
v 1.019164 -1.004511 -2.524992
v 1.051170 -1.004511 -2.556998
v 1.094891 -1.004511 -2.568713
v 1.138613 -1.004511 -2.556998
v 1.170619 -1.004511 -2.524992
v 1.182334 -1.004511 -2.481271
v 1.090208 -0.767784 -2.375676
v 1.037835 -0.767784 -2.389709
v 1.037835 -0.814420 -2.389709
v 1.090208 -0.814420 -2.375676
v 0.985460 -0.767784 -2.480424
v 0.999494 -0.767784 -2.532798
v 0.999494 -0.814420 -2.532797
v 0.985460 -0.814420 -2.480424
v 1.090208 -0.767784 -2.585172
v 1.142582 -0.767784 -2.571138
v 1.142582 -0.814420 -2.571138
v 1.090208 -0.814420 -2.585171
v 1.174204 -0.674511 -2.480425
v 1.162952 -0.674511 -2.522423
v 1.132205 -0.674511 -2.553169
v 1.090208 -0.674511 -2.564422
v 1.048210 -0.674511 -2.553168
v 1.017464 -0.674511 -2.522423
v 1.006210 -0.674511 -2.480425
v 1.017464 -0.674511 -2.438426
v 1.048210 -0.674511 -2.407681
v 1.090208 -0.674511 -2.396428
v 1.132205 -0.674511 -2.407681
v 1.162952 -0.674511 -2.438426
usemtl mat21

vn 0.000000 -1.000000 0.000000
vn 0.000000 -1.000000 0.000000
vn 0.000000 -1.000000 0.000000
vn 0.000000 -1.000000 0.000000
vn 0.000000 -1.000000 0.000000
vn 0.000000 -1.000000 0.000000
vn 0.000000 -1.000000 0.000000
vn 0.000000 -1.000000 0.000000
vn 0.000000 -1.000000 0.000000
vn 0.000000 -1.000000 0.000000
vn 0.000000 -1.000000 0.000000
vn 0.000000 -1.000000 0.000000
vn -0.258811 0.000005 0.965928
vn -0.258811 0.000005 0.965928
vn -0.258811 0.000005 0.965928
vn -0.258811 0.000005 0.965928
vn -0.965924 -0.000002 -0.258825
vn -0.965924 -0.000002 -0.258825
vn -0.965924 -0.000002 -0.258825
vn -0.965924 -0.000002 -0.258825
vn 0.258816 -0.000006 -0.965927
vn 0.258816 -0.000006 -0.965927
vn 0.258816 -0.000006 -0.965927
vn 0.258816 -0.000006 -0.965927
vn 0.000000 1.000000 0.000000
vn 0.000000 1.000000 0.000000
vn 0.000000 1.000000 0.000000
vn 0.000000 1.000000 0.000000
vn 0.000000 1.000000 0.000000
vn 0.000000 1.000000 0.000000
vn 0.000000 1.000000 0.000000
vn 0.000000 1.000000 0.000000
vn 0.000000 1.000000 0.000000
vn 0.000000 1.000000 0.000000
vn 0.000000 1.000000 0.000000
vn 0.000000 1.000000 0.000000

vt -0.116720 0.133259
vt -0.114782 0.129168
vt -0.115150 0.124657
vt -0.117724 0.120933
vt -0.121814 0.118996
vt -0.126326 0.119363
vt -0.130049 0.121937
vt -0.131987 0.126027
vt -0.131619 0.130539
vt -0.129046 0.134262
vt -0.124955 0.136200
vt -0.120444 0.135833
vt -0.043007 0.018113
vt -0.040314 0.013408
vt -0.044361 0.011091
vt -0.047055 0.015797
vt 0.130968 0.113743
vt 0.134427 0.117919
vt 0.138019 0.114945
vt 0.134560 0.110769
vt 0.040313 0.013407
vt 0.043007 0.018113
vt 0.047054 0.015796
vt 0.044361 0.011090
vt 0.120637 0.135038
vt 0.124971 0.135391
vt 0.128901 0.133530
vt 0.131373 0.129953
vt 0.131726 0.125620
vt 0.129864 0.121690
vt 0.126288 0.119218
vt 0.121954 0.118865
vt 0.118024 0.120726
vt 0.115552 0.124303
vt 0.115199 0.128637
vt 0.117061 0.132566
s off
f 1/1/1 2/2/2 3/3/3
f 1/1/1 3/3/3 4/4/4
f 1/1/1 4/4/4 5/5/5
f 1/1/1 5/5/5 6/6/6
f 1/1/1 6/6/6 7/7/7
f 1/1/1 7/7/7 8/8/8
f 1/1/1 8/8/8 9/9/9
f 1/1/1 9/9/9 10/10/10
f 1/1/1 10/10/10 11/11/11
f 1/1/1 11/11/11 12/12/12
f 13/13/13 14/14/14 15/15/15
f 13/13/13 15/15/15 16/16/16
f 17/17/17 18/18/18 19/19/19
f 17/17/17 19/19/19 20/20/20
f 21/21/21 22/22/22 23/23/23
f 21/21/21 23/23/23 24/24/24
f 25/25/25 26/26/26 27/27/27
f 25/25/25 27/27/27 28/28/28
f 25/25/25 28/28/28 29/29/29
f 25/25/25 29/29/29 30/30/30
f 25/25/25 30/30/30 31/31/31
f 25/25/25 31/31/31 32/32/32
f 25/25/25 32/32/32 33/33/33
f 25/25/25 33/33/33 34/34/34
f 25/25/25 34/34/34 35/35/35
f 25/25/25 35/35/35 36/36/36
