# Exported using automatic converter by Erwin Coumans
mtllib model6.mtl
#object group1150172892_1

v -0.883805 -0.730898 -0.644628
v -0.922934 -0.732019 -0.658138
v -0.923318 -0.716787 -0.658289
v -0.884189 -0.715666 -0.644779
v -0.922934 -0.732019 -0.658138
v -0.963579 -0.732966 -0.650267
v -0.963963 -0.717734 -0.650418
v -0.923318 -0.716787 -0.658289
v -0.963579 -0.732966 -0.650267
v -0.994849 -0.733486 -0.623124
v -0.995233 -0.718253 -0.623275
v -0.963963 -0.717734 -0.650418
v -0.994849 -0.733486 -0.623124
v -1.008365 -0.733438 -0.583981
v -1.008749 -0.718206 -0.584132
v -0.995233 -0.718253 -0.623275
v -1.008365 -0.733438 -0.583981
v -1.000507 -0.732837 -0.543327
v -1.000891 -0.717604 -0.543478
v -1.008749 -0.718206 -0.584132
v -1.000507 -0.732837 -0.543327
v -0.973378 -0.731843 -0.512055
v -0.973762 -0.716610 -0.512206
v -1.000891 -0.717604 -0.543478
v -0.973378 -0.731843 -0.512055
v -0.934249 -0.730722 -0.498544
v -0.934633 -0.715489 -0.498695
v -0.973762 -0.716610 -0.512206
v -0.934249 -0.730722 -0.498544
v -0.893604 -0.729775 -0.506415
v -0.893988 -0.714543 -0.506567
v -0.934633 -0.715489 -0.498695
v -0.893604 -0.729775 -0.506415
v -0.862334 -0.729256 -0.533559
v -0.862718 -0.714023 -0.533710
v -0.893988 -0.714543 -0.506567
v -0.862334 -0.729256 -0.533559
v -0.848818 -0.729303 -0.572702
v -0.849202 -0.714070 -0.572853
v -0.862718 -0.714023 -0.533710
v -0.848818 -0.729303 -0.572702
v -0.856676 -0.729904 -0.613356
v -0.857060 -0.714672 -0.613507
v -0.849202 -0.714070 -0.572853
v -0.856676 -0.729904 -0.613356
v -0.883805 -0.730898 -0.644628
v -0.884189 -0.715666 -0.644779
v -0.857060 -0.714672 -0.613507
v -0.884189 -0.715666 -0.644779
v -0.923318 -0.716787 -0.658289
v -0.963963 -0.717734 -0.650418
v -0.995233 -0.718253 -0.623275
v -1.008749 -0.718206 -0.584132
v -1.000891 -0.717604 -0.543478
v -0.973762 -0.716610 -0.512206
v -0.934633 -0.715489 -0.498695
v -0.893988 -0.714543 -0.506567
v -0.862718 -0.714023 -0.533710
v -0.849202 -0.714070 -0.572853
v -0.857060 -0.714672 -0.613507
v -0.856676 -0.729904 -0.613356
v -0.848818 -0.729303 -0.572702
v -0.862334 -0.729256 -0.533559
v -0.893604 -0.729775 -0.506415
v -0.934249 -0.730722 -0.498544
v -0.973378 -0.731843 -0.512055
v -1.000507 -0.732837 -0.543327
v -1.008365 -0.733438 -0.583981
v -0.994849 -0.733486 -0.623124
v -0.963579 -0.732966 -0.650267
v -0.922934 -0.732019 -0.658138
v -0.883805 -0.730898 -0.644628
usemtl mat18

vn 0.326404 -0.001152 -0.945230
vn 0.326404 -0.001152 -0.945230
vn 0.326404 -0.001152 -0.945230
vn 0.326404 -0.001152 -0.945230
vn -0.189776 -0.014529 -0.981720
vn -0.189776 -0.014529 -0.981720
vn -0.189776 -0.014529 -0.981720
vn -0.189776 -0.014529 -0.981720
vn -0.655103 -0.024010 -0.755158
vn -0.655103 -0.024010 -0.755158
vn -0.655103 -0.024010 -0.755158
vn -0.655103 -0.024010 -0.755158
vn -0.944896 -0.027057 -0.326250
vn -0.944896 -0.027057 -0.326250
vn -0.944896 -0.027057 -0.326250
vn -0.944896 -0.027057 -0.326250
vn -0.981505 -0.022873 0.190067
vn -0.981505 -0.022873 0.190067
vn -0.981505 -0.022873 0.190067
vn -0.981505 -0.022873 0.190067
vn -0.755117 -0.012542 0.655470
vn -0.755117 -0.012542 0.655470
vn -0.755117 -0.012542 0.655470
vn -0.755117 -0.012542 0.655470
vn -0.326403 0.001134 0.945230
vn -0.326403 0.001134 0.945230
vn -0.326403 0.001134 0.945230
vn -0.326403 0.001134 0.945230
vn 0.189782 0.014532 0.981719
vn 0.189782 0.014532 0.981719
vn 0.189782 0.014532 0.981719
vn 0.189782 0.014532 0.981719
vn 0.655101 0.024008 0.755160
vn 0.655101 0.024008 0.755160
vn 0.655101 0.024008 0.755160
vn 0.655101 0.024008 0.755160
vn 0.944896 0.027069 0.326250
vn 0.944896 0.027069 0.326250
vn 0.944896 0.027069 0.326250
vn 0.944896 0.027069 0.326250
vn 0.981505 0.022859 -0.190067
vn 0.981505 0.022859 -0.190067
vn 0.981505 0.022859 -0.190067
vn 0.981505 0.022859 -0.190067
vn 0.755117 0.012540 -0.655470
vn 0.755117 0.012540 -0.655470
vn 0.755117 0.012540 -0.655470
vn 0.755117 0.012540 -0.655470
vn -0.025208 0.999633 -0.009913
vn -0.025208 0.999633 -0.009913
vn -0.025208 0.999633 -0.009913
vn -0.025208 0.999633 -0.009913
vn -0.025208 0.999633 -0.009913
vn -0.025208 0.999633 -0.009913
vn -0.025208 0.999633 -0.009913
vn -0.025208 0.999633 -0.009913
vn -0.025208 0.999633 -0.009913
vn -0.025208 0.999633 -0.009913
vn -0.025208 0.999633 -0.009913
vn -0.025208 0.999633 -0.009913
vn 0.025208 -0.999633 0.009913
vn 0.025208 -0.999633 0.009913
vn 0.025208 -0.999633 0.009913
vn 0.025208 -0.999633 0.009913
vn 0.025208 -0.999633 0.009913
vn 0.025208 -0.999633 0.009913
vn 0.025208 -0.999633 0.009913
vn 0.025208 -0.999633 0.009913
vn 0.025208 -0.999633 0.009913
vn 0.025208 -0.999633 0.009913
vn 0.025208 -0.999633 0.009913
vn 0.025208 -0.999633 0.009913

vt -0.032983 -0.102356
vt -0.035028 -0.105957
vt -0.036353 -0.105205
vt -0.034308 -0.101604
vt -0.031764 -0.123689
vt -0.033466 -0.127464
vt -0.034855 -0.126838
vt -0.033153 -0.123062
vt -0.028811 -0.110491
vt -0.030604 -0.114224
vt -0.031978 -0.113564
vt -0.030185 -0.109832
vt -0.021869 -0.067744
vt -0.024291 -0.071103
vt -0.025527 -0.070212
vt -0.023106 -0.066853
vt 0.002203 -0.022260
vt -0.001740 -0.023527
vt -0.002206 -0.022076
vt 0.001737 -0.020809
vt 0.032274 -0.055260
vt 0.029090 -0.052613
vt 0.030064 -0.051441
vt 0.033248 -0.054088
vt 0.035028 -0.105957
vt 0.032983 -0.102356
vt 0.034308 -0.101603
vt 0.036353 -0.105204
vt 0.033466 -0.127464
vt 0.031764 -0.123689
vt 0.033153 -0.123063
vt 0.034855 -0.126838
vt 0.030604 -0.114224
vt 0.028811 -0.110491
vt 0.030185 -0.109832
vt 0.031978 -0.113565
vt 0.024291 -0.071103
vt 0.021870 -0.067743
vt 0.023106 -0.066853
vt 0.025527 -0.070212
vt 0.001740 -0.023528
vt -0.002203 -0.022262
vt -0.001737 -0.020811
vt 0.002206 -0.022077
vt -0.029090 -0.052613
vt -0.032274 -0.055260
vt -0.033248 -0.054088
vt -0.030064 -0.051441
vt 0.016401 -0.121129
vt 0.018964 -0.124382
vt 0.019558 -0.128480
vt 0.018022 -0.132326
vt 0.014770 -0.134889
vt 0.010671 -0.135483
vt 0.006825 -0.133947
vt 0.004262 -0.130695
vt 0.003669 -0.126596
vt 0.005204 -0.122750
vt 0.008457 -0.120187
vt 0.012555 -0.119594
vt -0.012555 -0.119594
vt -0.008457 -0.120187
vt -0.005204 -0.122750
vt -0.003669 -0.126596
vt -0.004262 -0.130695
vt -0.006825 -0.133947
vt -0.010671 -0.135483
vt -0.014770 -0.134889
vt -0.018022 -0.132326
vt -0.019557 -0.128480
vt -0.018964 -0.124382
vt -0.016401 -0.121129
s off
f 1/1/1 2/2/2 3/3/3
f 1/1/1 3/3/3 4/4/4
f 5/5/5 6/6/6 7/7/7
f 5/5/5 7/7/7 8/8/8
f 9/9/9 10/10/10 11/11/11
f 9/9/9 11/11/11 12/12/12
f 13/13/13 14/14/14 15/15/15
f 13/13/13 15/15/15 16/16/16
f 17/17/17 18/18/18 19/19/19
f 17/17/17 19/19/19 20/20/20
f 21/21/21 22/22/22 23/23/23
f 21/21/21 23/23/23 24/24/24
f 25/25/25 26/26/26 27/27/27
f 25/25/25 27/27/27 28/28/28
f 29/29/29 30/30/30 31/31/31
f 29/29/29 31/31/31 32/32/32
f 33/33/33 34/34/34 35/35/35
f 33/33/33 35/35/35 36/36/36
f 37/37/37 38/38/38 39/39/39
f 37/37/37 39/39/39 40/40/40
f 41/41/41 42/42/42 43/43/43
f 41/41/41 43/43/43 44/44/44
f 45/45/45 46/46/46 47/47/47
f 45/45/45 47/47/47 48/48/48
f 49/49/49 50/50/50 51/51/51
f 49/49/49 51/51/51 52/52/52
f 49/49/49 52/52/52 53/53/53
f 49/49/49 53/53/53 54/54/54
f 49/49/49 54/54/54 55/55/55
f 49/49/49 55/55/55 56/56/56
f 49/49/49 56/56/56 57/57/57
f 49/49/49 57/57/57 58/58/58
f 49/49/49 58/58/58 59/59/59
f 49/49/49 59/59/59 60/60/60
f 61/61/61 62/62/62 63/63/63
f 61/61/61 63/63/63 64/64/64
f 61/61/61 64/64/64 65/65/65
f 61/61/61 65/65/65 66/66/66
f 61/61/61 66/66/66 67/67/67
f 61/61/61 67/67/67 68/68/68
f 61/61/61 68/68/68 69/69/69
f 61/61/61 69/69/69 70/70/70
f 61/61/61 70/70/70 71/71/71
f 61/61/61 71/71/71 72/72/72
