# Exported using automatic converter by Erwin Coumans
mtllib model6.mtl
#object group1647841829_3

v 2.333431 -0.644941 2.085062
v 2.307890 -0.646541 2.042107
v 2.309597 -0.704636 2.043256
v 2.335138 -0.703036 2.086211
v 2.352557 -0.703879 2.017685
v 2.350850 -0.645785 2.016536
v 2.376390 -0.644185 2.059491
v 2.378098 -0.702279 2.060639
v 2.309597 -0.704636 2.043256
v 2.352557 -0.703879 2.017685
v 2.378098 -0.702279 2.060639
v 2.335138 -0.703036 2.086211
v 2.376390 -0.644185 2.059491
v 2.350850 -0.645785 2.016536
v 2.307890 -0.646541 2.042107
v 2.333431 -0.644941 2.085062
v 2.378098 -0.702279 2.060639
v 2.376390 -0.644185 2.059491
v 2.333431 -0.644941 2.085062
v 2.335138 -0.703036 2.086211
v 2.307890 -0.646541 2.042107
v 2.350850 -0.645785 2.016536
v 2.352557 -0.703879 2.017685
v 2.309597 -0.704636 2.043256
usemtl mat23

vn -0.859192 -0.015134 0.511430
vn -0.859192 -0.015134 0.511430
vn -0.859192 -0.015134 0.511430
vn -0.859192 -0.015134 0.511430
vn 0.859192 0.015134 -0.511430
vn 0.859192 0.015134 -0.511430
vn 0.859192 0.015134 -0.511430
vn 0.859192 0.015134 -0.511430
vn 0.029370 -0.999373 0.019767
vn 0.029370 -0.999373 0.019767
vn 0.029370 -0.999373 0.019767
vn 0.029370 -0.999373 0.019767
vn -0.029370 0.999373 -0.019767
vn -0.029370 0.999373 -0.019767
vn -0.029370 0.999373 -0.019767
vn -0.029370 0.999373 -0.019767
vn 0.510810 0.032004 0.859098
vn 0.510810 0.032004 0.859098
vn 0.510810 0.032004 0.859098
vn 0.510810 0.032004 0.859098
vn -0.510810 -0.032004 -0.859098
vn -0.510810 -0.032004 -0.859098
vn -0.510810 -0.032004 -0.859098
vn -0.510810 -0.032004 -0.859098

vt -0.337284 0.124754
vt -0.332743 0.122661
vt -0.335176 0.117381
vt -0.339717 0.119474
vt 0.335176 0.117381
vt 0.332743 0.122661
vt 0.337284 0.124754
vt 0.339716 0.119474
vt 0.341582 0.093675
vt 0.340556 0.098569
vt 0.345450 0.099595
vt 0.346476 0.094701
vt -0.345450 0.099595
vt -0.340556 0.098569
vt -0.341582 0.093675
vt -0.346476 0.094701
vt -0.041666 0.010268
vt -0.036375 0.012675
vt -0.034305 0.008124
vt -0.039596 0.005717
vt 0.034305 0.008124
vt 0.036375 0.012675
vt 0.041666 0.010268
vt 0.039596 0.005717
s off
f 1/1/1 2/2/2 3/3/3
f 1/1/1 3/3/3 4/4/4
f 5/5/5 6/6/6 7/7/7
f 5/5/5 7/7/7 8/8/8
f 9/9/9 10/10/10 11/11/11
f 9/9/9 11/11/11 12/12/12
f 13/13/13 14/14/14 15/15/15
f 13/13/13 15/15/15 16/16/16
f 17/17/17 18/18/18 19/19/19
f 17/17/17 19/19/19 20/20/20
f 21/21/21 22/22/22 23/23/23
f 21/21/21 23/23/23 24/24/24
