# Exported using automatic converter by Erwin Coumans
mtllib model6.mtl
#object group1487006333_6

v 1.738143 -0.516360 -2.644807
v 1.737646 -0.473165 -2.644379
v 1.694452 -0.473657 -2.644895
v 1.694949 -0.516852 -2.645323
v 1.694793 -0.473368 -2.673691
v 1.737987 -0.472876 -2.673175
v 1.738484 -0.516071 -2.673604
v 1.695290 -0.516563 -2.674119
v 1.694452 -0.473657 -2.644895
v 1.694793 -0.473368 -2.673691
v 1.695290 -0.516563 -2.674119
v 1.694949 -0.516852 -2.645323
v 1.738484 -0.516071 -2.673604
v 1.737987 -0.472876 -2.673175
v 1.737646 -0.473165 -2.644379
v 1.738143 -0.516360 -2.644807
v 1.695290 -0.516563 -2.674119
v 1.738484 -0.516071 -2.673604
v 1.738143 -0.516360 -2.644807
v 1.694949 -0.516852 -2.645323
v 1.737646 -0.473165 -2.644379
v 1.737987 -0.472876 -2.673175
v 1.694793 -0.473368 -2.673691
v 1.694452 -0.473657 -2.644895
v 1.738991 -0.530180 -2.702543
v 1.738328 -0.472587 -2.701972
v 1.709532 -0.472915 -2.702316
v 1.710195 -0.530508 -2.702887
v 1.709873 -0.472625 -2.731112
v 1.738669 -0.472297 -2.730768
v 1.739332 -0.529890 -2.731339
v 1.710536 -0.530218 -2.731683
v 1.709532 -0.472915 -2.702316
v 1.709873 -0.472625 -2.731112
v 1.710536 -0.530218 -2.731683
v 1.710195 -0.530508 -2.702887
v 1.739332 -0.529890 -2.731339
v 1.738669 -0.472297 -2.730768
v 1.738328 -0.472587 -2.701972
v 1.738991 -0.530180 -2.702543
v 1.710536 -0.530218 -2.731683
v 1.739332 -0.529890 -2.731339
v 1.738991 -0.530180 -2.702543
v 1.710195 -0.530508 -2.702887
v 1.738328 -0.472587 -2.701972
v 1.738669 -0.472297 -2.730768
v 1.709873 -0.472625 -2.731112
v 1.709532 -0.472915 -2.702316
v 1.752026 -0.531173 -2.587185
v 1.751363 -0.473580 -2.586614
v 1.693771 -0.474236 -2.587302
v 1.694434 -0.531829 -2.587873
v 1.694112 -0.473947 -2.616098
v 1.751704 -0.473291 -2.615410
v 1.752367 -0.530884 -2.615981
v 1.694775 -0.531540 -2.616669
v 1.693771 -0.474236 -2.587302
v 1.694112 -0.473947 -2.616098
v 1.694775 -0.531540 -2.616669
v 1.694434 -0.531829 -2.587873
v 1.752367 -0.530884 -2.615981
v 1.751704 -0.473291 -2.615410
v 1.751363 -0.473580 -2.586614
v 1.752026 -0.531173 -2.587185
v 1.694775 -0.531540 -2.616669
v 1.752367 -0.530884 -2.615981
v 1.752026 -0.531173 -2.587185
v 1.694434 -0.531829 -2.587873
v 1.751363 -0.473580 -2.586614
v 1.751704 -0.473291 -2.615410
v 1.694112 -0.473947 -2.616098
v 1.693771 -0.474236 -2.587302
usemtl mat3

vn -0.011830 -0.010047 0.999879
vn -0.011830 -0.010047 0.999879
vn -0.011830 -0.010047 0.999879
vn -0.011830 -0.010047 0.999879
vn 0.011830 0.010047 -0.999879
vn 0.011830 0.010047 -0.999879
vn 0.011830 0.010047 -0.999879
vn 0.011830 0.010047 -0.999879
vn -0.999864 -0.011393 -0.011945
vn -0.999864 -0.011393 -0.011945
vn -0.999864 -0.011393 -0.011945
vn -0.999864 -0.011393 -0.011945
vn 0.999864 0.011393 0.011945
vn 0.999864 0.011393 0.011945
vn 0.999864 0.011393 0.011945
vn 0.999864 0.011393 0.011945
vn 0.011511 -0.999885 -0.009911
vn 0.011511 -0.999885 -0.009911
vn 0.011511 -0.999885 -0.009911
vn 0.011511 -0.999885 -0.009911
vn -0.011511 0.999885 0.009911
vn -0.011511 0.999885 0.009911
vn -0.011511 0.999885 0.009911
vn -0.011511 0.999885 0.009911
vn -0.011830 -0.010047 0.999879
vn -0.011830 -0.010047 0.999879
vn -0.011830 -0.010047 0.999879
vn -0.011830 -0.010047 0.999879
vn 0.011830 0.010047 -0.999879
vn 0.011830 0.010047 -0.999879
vn 0.011830 0.010047 -0.999879
vn 0.011830 0.010047 -0.999879
vn -0.999864 -0.011393 -0.011945
vn -0.999864 -0.011393 -0.011945
vn -0.999864 -0.011393 -0.011945
vn -0.999864 -0.011393 -0.011945
vn 0.999864 0.011393 0.011945
vn 0.999864 0.011393 0.011945
vn 0.999864 0.011393 0.011945
vn 0.999864 0.011393 0.011945
vn 0.011511 -0.999885 -0.009911
vn 0.011511 -0.999885 -0.009911
vn 0.011511 -0.999885 -0.009911
vn 0.011511 -0.999885 -0.009911
vn -0.011511 0.999885 0.009911
vn -0.011511 0.999885 0.009911
vn -0.011511 0.999885 0.009911
vn -0.011511 0.999885 0.009911
vn -0.011830 -0.010047 0.999879
vn -0.011830 -0.010047 0.999879
vn -0.011830 -0.010047 0.999879
vn -0.011830 -0.010047 0.999879
vn 0.011830 0.010047 -0.999879
vn 0.011830 0.010047 -0.999879
vn 0.011830 0.010047 -0.999879
vn 0.011830 0.010047 -0.999879
vn -0.999864 -0.011393 -0.011945
vn -0.999864 -0.011393 -0.011945
vn -0.999864 -0.011393 -0.011945
vn -0.999864 -0.011393 -0.011945
vn 0.999864 0.011393 0.011945
vn 0.999864 0.011393 0.011945
vn 0.999864 0.011393 0.011945
vn 0.999864 0.011393 0.011945
vn 0.011511 -0.999885 -0.009911
vn 0.011511 -0.999885 -0.009911
vn 0.011511 -0.999885 -0.009911
vn 0.011511 -0.999885 -0.009911
vn -0.011511 0.999885 0.009911
vn -0.011511 0.999885 0.009911
vn -0.011511 0.999885 0.009911
vn -0.011511 0.999885 0.009911

vt -0.067297 0.123895
vt -0.063409 0.125777
vt -0.061526 0.121889
vt -0.065414 0.120007
vt 0.061526 0.121889
vt 0.063409 0.125777
vt 0.067297 0.123895
vt 0.065414 0.120007
vt 0.141617 0.106376
vt 0.143897 0.108134
vt 0.146535 0.104713
vt 0.144255 0.102955
vt -0.146535 0.104713
vt -0.143897 0.108134
vt -0.141617 0.106376
vt -0.144255 0.102955
vt -0.120846 0.190861
vt -0.119334 0.194908
vt -0.116636 0.193901
vt -0.118148 0.189854
vt 0.116636 0.193901
vt 0.119334 0.194908
vt 0.120846 0.190861
vt 0.118148 0.189854
vt -0.068593 0.123267
vt -0.063409 0.125777
vt -0.062154 0.123185
vt -0.067338 0.120675
vt 0.062154 0.123185
vt 0.063409 0.125777
vt 0.068593 0.123267
vt 0.067338 0.120675
vt 0.146178 0.109893
vt 0.148458 0.111652
vt 0.151976 0.107091
vt 0.149695 0.105332
vt -0.151976 0.107091
vt -0.148458 0.111652
vt -0.146178 0.109893
vt -0.149695 0.105332
vt -0.125738 0.194226
vt -0.124730 0.196924
vt -0.122032 0.195916
vt -0.123040 0.193218
vt 0.122032 0.195916
vt 0.124730 0.196924
vt 0.125738 0.194226
vt 0.123040 0.193218
vt -0.069221 0.124563
vt -0.064037 0.127073
vt -0.061526 0.121889
vt -0.066710 0.119379
vt 0.061526 0.121889
vt 0.064037 0.127073
vt 0.069221 0.124563
vt 0.066710 0.119379
vt 0.137056 0.102858
vt 0.139336 0.104617
vt 0.142854 0.100056
vt 0.140573 0.098297
vt -0.142854 0.100056
vt -0.139336 0.104617
vt -0.137056 0.102858
vt -0.140573 0.098297
vt -0.115450 0.188846
vt -0.113435 0.194242
vt -0.110737 0.193235
vt -0.112752 0.187839
vt 0.110737 0.193235
vt 0.113435 0.194242
vt 0.115450 0.188846
vt 0.112752 0.187839
s off
f 1/1/1 2/2/2 3/3/3
f 1/1/1 3/3/3 4/4/4
f 5/5/5 6/6/6 7/7/7
f 5/5/5 7/7/7 8/8/8
f 9/9/9 10/10/10 11/11/11
f 9/9/9 11/11/11 12/12/12
f 13/13/13 14/14/14 15/15/15
f 13/13/13 15/15/15 16/16/16
f 17/17/17 18/18/18 19/19/19
f 17/17/17 19/19/19 20/20/20
f 21/21/21 22/22/22 23/23/23
f 21/21/21 23/23/23 24/24/24
f 25/25/25 26/26/26 27/27/27
f 25/25/25 27/27/27 28/28/28
f 29/29/29 30/30/30 31/31/31
f 29/29/29 31/31/31 32/32/32
f 33/33/33 34/34/34 35/35/35
f 33/33/33 35/35/35 36/36/36
f 37/37/37 38/38/38 39/39/39
f 37/37/37 39/39/39 40/40/40
f 41/41/41 42/42/42 43/43/43
f 41/41/41 43/43/43 44/44/44
f 45/45/45 46/46/46 47/47/47
f 45/45/45 47/47/47 48/48/48
f 49/49/49 50/50/50 51/51/51
f 49/49/49 51/51/51 52/52/52
f 53/53/53 54/54/54 55/55/55
f 53/53/53 55/55/55 56/56/56
f 57/57/57 58/58/58 59/59/59
f 57/57/57 59/59/59 60/60/60
f 61/61/61 62/62/62 63/63/63
f 61/61/61 63/63/63 64/64/64
f 65/65/65 66/66/66 67/67/67
f 65/65/65 67/67/67 68/68/68
f 69/69/69 70/70/70 71/71/71
f 69/69/69 71/71/71 72/72/72
