# Exported using automatic converter by Erwin Coumans
mtllib model6.mtl
#object mesh690063755

v 2.683043 -0.505494 -1.262507
v 2.840810 -0.508137 -1.386397
v 2.840264 -0.668134 -1.385705
v 2.682498 -0.665491 -1.261816
v 3.017493 -0.667801 -1.168934
v 3.018039 -0.507804 -1.169626
v 2.860272 -0.505161 -1.045736
v 2.859727 -0.665158 -1.045044
v 2.840264 -0.668134 -1.385705
v 3.017493 -0.667801 -1.168934
v 2.859727 -0.665158 -1.045044
v 2.682498 -0.665491 -1.261816
v 2.698872 -0.505525 -1.257365
v 2.824290 -0.506396 -1.359903
v 2.683043 -0.505494 -1.262507
v 2.859727 -0.665158 -1.045044
v 2.860272 -0.505161 -1.045736
v 2.683043 -0.505494 -1.262507
v 2.682498 -0.665491 -1.261816
v 2.840810 -0.508137 -1.386397
v 3.018039 -0.507804 -1.169626
v 3.017493 -0.667801 -1.168934
v 2.840264 -0.668134 -1.385705
v 2.824290 -0.506396 -1.359903
v 2.983795 -0.506096 -1.164809
v 3.018039 -0.507804 -1.169626
v 2.840810 -0.508137 -1.386397
v 2.983795 -0.506096 -1.164809
v 2.858378 -0.505226 -1.062271
v 2.860272 -0.505161 -1.045736
v 2.858378 -0.505226 -1.062271
v 2.698872 -0.505525 -1.257365
v 2.683043 -0.505494 -1.262507
v 2.860272 -0.505161 -1.045736
v 2.698497 -0.615524 -1.256890
v 2.823915 -0.616395 -1.359427
v 2.824290 -0.506396 -1.359903
v 2.698872 -0.505525 -1.257365
v 2.823915 -0.616395 -1.359427
v 2.983420 -0.616095 -1.164333
v 2.983795 -0.506096 -1.164809
v 2.824290 -0.506396 -1.359903
v 2.983420 -0.616095 -1.164333
v 2.858003 -0.615224 -1.061795
v 2.858378 -0.505226 -1.062271
v 2.983795 -0.506096 -1.164809
v 2.858003 -0.615224 -1.061795
v 2.698497 -0.615524 -1.256890
v 2.698872 -0.505525 -1.257365
v 2.858378 -0.505226 -1.062271
v 2.858003 -0.615224 -1.061795
v 2.983420 -0.616095 -1.164333
v 2.823915 -0.616395 -1.359427
v 2.698497 -0.615524 -1.256890
v 2.860272 -0.505161 -1.045736
v 3.018039 -0.507804 -1.169626
v 2.983795 -0.506096 -1.164809
v 2.824290 -0.506396 -1.359903
v 2.840810 -0.508137 -1.386397
v 2.683043 -0.505494 -1.262507
usemtl mat20

vn -0.617620 -0.001294 -0.786476
vn -0.617620 -0.001294 -0.786476
vn -0.617620 -0.001294 -0.786476
vn -0.617620 -0.001294 -0.786476
vn 0.617620 0.001294 0.786476
vn 0.617620 0.001294 0.786476
vn 0.617620 0.001294 0.786476
vn 0.617620 0.001294 0.786476
vn -0.009467 -0.999912 0.009276
vn -0.009467 -0.999912 0.009276
vn -0.009467 -0.999912 0.009276
vn -0.009467 -0.999912 0.009276
vn 0.003404 0.999985 -0.004328
vn 0.003404 0.999985 -0.004328
vn 0.003404 0.999985 -0.004328
vn -0.774177 0.005375 0.632946
vn -0.774177 0.005375 0.632946
vn -0.774177 0.005375 0.632946
vn -0.774177 0.005375 0.632946
vn 0.774177 -0.005375 -0.632946
vn 0.774177 -0.005375 -0.632946
vn 0.774177 -0.005375 -0.632946
vn 0.774177 -0.005375 -0.632946
vn 0.044449 0.998294 -0.037874
vn 0.044449 0.998294 -0.037874
vn 0.044449 0.998294 -0.037874
vn 0.044449 0.998294 -0.037874
vn 0.003413 0.999985 -0.004317
vn 0.003413 0.999985 -0.004317
vn 0.003413 0.999985 -0.004317
vn 0.003399 0.999985 -0.004315
vn 0.003399 0.999985 -0.004315
vn 0.003399 0.999985 -0.004315
vn 0.003399 0.999985 -0.004315
vn 0.632960 0.001189 0.774184
vn 0.632960 0.001189 0.774184
vn 0.632960 0.001189 0.774184
vn 0.632960 0.001189 0.774184
vn -0.774177 0.005375 0.632946
vn -0.774177 0.005375 0.632946
vn -0.774177 0.005375 0.632946
vn -0.774177 0.005375 0.632946
vn -0.632961 -0.001189 -0.774183
vn -0.632961 -0.001189 -0.774183
vn -0.632961 -0.001189 -0.774183
vn -0.632961 -0.001189 -0.774183
vn 0.774177 -0.005375 -0.632946
vn 0.774177 -0.005375 -0.632946
vn 0.774177 -0.005375 -0.632946
vn 0.774177 -0.005375 -0.632946
vn 0.003409 0.999985 -0.004322
vn 0.003409 0.999985 -0.004322
vn 0.003409 0.999985 -0.004322
vn 0.003409 0.999985 -0.004322
vn 0.056920 0.997064 0.051212
vn 0.056920 0.997064 0.051212
vn 0.056920 0.997064 0.051212
vn -0.067717 0.991908 -0.107395
vn -0.067717 0.991908 -0.107395
vn -0.067717 0.991908 -0.107395

vt 0.095236 0.186919
vt 0.104387 0.204772
vt 0.118682 0.197585
vt 0.109531 0.179733
vt -0.118929 0.198077
vt -0.104634 0.205264
vt -0.095483 0.187411
vt -0.109778 0.180224
vt 0.037719 0.255424
vt 0.064069 0.264894
vt 0.070481 0.245885
vt 0.044131 0.236415
vt -0.045488 0.237558
vt -0.040029 0.252810
vt -0.044474 0.236239
vt -0.131942 0.072323
vt -0.122705 0.085386
vt -0.099843 0.069220
vt -0.109081 0.056157
vt 0.100255 0.069320
vt 0.123117 0.085486
vt 0.132355 0.072422
vt 0.109493 0.056256
vt -0.037793 0.252927
vt -0.061440 0.261637
vt -0.062100 0.265036
vt -0.035826 0.255358
vt -0.063757 0.261302
vt -0.069216 0.246050
vt -0.070837 0.245674
vt -0.069216 0.246050
vt -0.045490 0.237558
vt -0.044475 0.236238
vt -0.070837 0.245675
vt -0.104908 0.180398
vt -0.112225 0.194852
vt -0.102411 0.199820
vt -0.095094 0.185366
vt -0.107337 0.061047
vt -0.127913 0.075597
vt -0.121561 0.084578
vt -0.100986 0.070029
vt 0.112225 0.194852
vt 0.104908 0.180398
vt 0.095094 0.185366
vt 0.102411 0.199819
vt 0.127913 0.075597
vt 0.107337 0.061047
vt 0.100986 0.070029
vt 0.121561 0.084578
vt -0.069215 0.246050
vt -0.063756 0.261303
vt -0.040030 0.252810
vt -0.045489 0.237558
vt -0.079046 0.242880
vt -0.073335 0.262112
vt -0.072518 0.258747
vt -0.025208 0.254324
vt -0.023124 0.256656
vt -0.030553 0.238021
s off
f 1/1/1 2/2/2 3/3/3
f 1/1/1 3/3/3 4/4/4
f 5/5/5 6/6/6 7/7/7
f 5/5/5 7/7/7 8/8/8
f 9/9/9 10/10/10 11/11/11
f 9/9/9 11/11/11 12/12/12
f 13/13/13 14/14/14 15/15/15
f 16/16/16 17/17/17 18/18/18
f 16/16/16 18/18/18 19/19/19
f 20/20/20 21/21/21 22/22/22
f 20/20/20 22/22/22 23/23/23
f 24/24/24 25/25/25 26/26/26
f 24/24/24 26/26/26 27/27/27
f 28/28/28 29/29/29 30/30/30
f 31/31/31 32/32/32 33/33/33
f 31/31/31 33/33/33 34/34/34
f 35/35/35 36/36/36 37/37/37
f 35/35/35 37/37/37 38/38/38
f 39/39/39 40/40/40 41/41/41
f 39/39/39 41/41/41 42/42/42
f 43/43/43 44/44/44 45/45/45
f 43/43/43 45/45/45 46/46/46
f 47/47/47 48/48/48 49/49/49
f 47/47/47 49/49/49 50/50/50
f 51/51/51 52/52/52 53/53/53
f 51/51/51 53/53/53 54/54/54
f 55/55/55 56/56/56 57/57/57
f 58/58/58 59/59/59 60/60/60
