# Exported using automatic converter by Erwin Coumans
mtllib model6.mtl
#object mesh1384404568

v 2.319151 0.876890 -2.522207
v 2.317537 0.905531 -2.546779
v 2.316979 0.896297 -2.557505
v 2.318592 0.867657 -2.532933
v 2.526381 0.898310 -2.565948
v 2.526940 0.907544 -2.555223
v 2.528553 0.878904 -2.530651
v 2.527995 0.869670 -2.541377
v 2.316979 0.896297 -2.557505
v 2.526381 0.898310 -2.565948
v 2.527995 0.869670 -2.541377
v 2.318592 0.867657 -2.532933
v 2.528553 0.878904 -2.530651
v 2.526940 0.907544 -2.555223
v 2.317537 0.905531 -2.546779
v 2.319151 0.876890 -2.522207
v 2.527995 0.869670 -2.541377
v 2.528553 0.878904 -2.530651
v 2.319151 0.876890 -2.522207
v 2.318592 0.867657 -2.532933
v 2.317537 0.905531 -2.546779
v 2.526940 0.907544 -2.555223
v 2.526381 0.898310 -2.565948
v 2.316979 0.896297 -2.557505
v 2.297079 0.782280 -2.513051
v 2.295526 0.781524 -2.550782
v 2.296468 0.739050 -2.549969
v 2.298022 0.739806 -2.512238
v 2.541710 0.744297 -2.560169
v 2.540768 0.786771 -2.560982
v 2.542321 0.787527 -2.523251
v 2.543263 0.745053 -2.522438
v 2.296468 0.739050 -2.549969
v 2.541710 0.744297 -2.560169
v 2.543263 0.745053 -2.522438
v 2.298022 0.739806 -2.512238
v 2.542321 0.787527 -2.523251
v 2.540768 0.786771 -2.560982
v 2.295526 0.781524 -2.550782
v 2.297079 0.782280 -2.513051
v 2.543263 0.745053 -2.522438
v 2.542321 0.787527 -2.523251
v 2.297079 0.782280 -2.513051
v 2.298022 0.739806 -2.512238
v 2.295526 0.781524 -2.550782
v 2.540768 0.786771 -2.560982
v 2.541710 0.744297 -2.560169
v 2.296468 0.739050 -2.549969
v 2.324724 0.795709 -2.521244
v 2.322450 0.823036 -2.547219
v 2.322089 0.813265 -2.557467
v 2.324364 0.785938 -2.531492
v 2.531387 0.819528 -2.566405
v 2.531748 0.829298 -2.556157
v 2.534022 0.801971 -2.530182
v 2.533662 0.792200 -2.540430
v 2.322089 0.813265 -2.557467
v 2.531387 0.819528 -2.566405
v 2.533662 0.792200 -2.540430
v 2.324364 0.785938 -2.531492
v 2.534022 0.801971 -2.530182
v 2.531748 0.829298 -2.556157
v 2.322450 0.823036 -2.547219
v 2.324724 0.795709 -2.521244
v 2.533662 0.792200 -2.540430
v 2.534022 0.801971 -2.530182
v 2.324724 0.795709 -2.521244
v 2.324364 0.785938 -2.531492
v 2.322450 0.823036 -2.547219
v 2.531748 0.829298 -2.556157
v 2.531387 0.819528 -2.566405
v 2.322089 0.813265 -2.557467
v 2.496646 1.025259 -2.531207
v 2.495675 1.024787 -2.554789
v 2.503845 0.767275 -2.549619
v 2.504816 0.767748 -2.526037
v 2.536859 0.767981 -2.550992
v 2.528688 1.025493 -2.556162
v 2.529659 1.025966 -2.532580
v 2.537829 0.768454 -2.527410
v 2.503845 0.767275 -2.549619
v 2.536859 0.767981 -2.550992
v 2.537829 0.768454 -2.527410
v 2.504816 0.767748 -2.526037
v 2.529659 1.025966 -2.532580
v 2.528688 1.025493 -2.556162
v 2.495675 1.024787 -2.554789
v 2.496646 1.025259 -2.531207
v 2.537829 0.768454 -2.527410
v 2.529659 1.025966 -2.532580
v 2.496646 1.025259 -2.531207
v 2.504816 0.767748 -2.526037
v 2.495675 1.024787 -2.554789
v 2.528688 1.025493 -2.556162
v 2.536859 0.767981 -2.550992
v 2.503845 0.767275 -2.549619
v 2.298566 1.013334 -2.520485
v 2.297595 1.012861 -2.544067
v 2.301050 0.762936 -2.541184
v 2.302020 0.763409 -2.517602
v 2.334063 0.763642 -2.542557
v 2.330608 1.013568 -2.545440
v 2.331579 1.014040 -2.521858
v 2.335034 0.764115 -2.518975
v 2.301050 0.762936 -2.541184
v 2.334063 0.763642 -2.542557
v 2.335034 0.764115 -2.518975
v 2.302020 0.763409 -2.517602
v 2.331579 1.014040 -2.521858
v 2.330608 1.013568 -2.545440
v 2.297595 1.012861 -2.544067
v 2.298566 1.013334 -2.520485
v 2.335034 0.764115 -2.518975
v 2.331579 1.014040 -2.521858
v 2.298566 1.013334 -2.520485
v 2.302020 0.763409 -2.517602
v 2.297595 1.012861 -2.544067
v 2.330608 1.013568 -2.545440
v 2.334063 0.763642 -2.542557
v 2.301050 0.762936 -2.541184
v 2.311402 0.945924 -2.524930
v 2.309137 0.977710 -2.545206
v 2.308582 0.970070 -2.557121
v 2.310847 0.938284 -2.536844
v 2.517833 0.976330 -2.567095
v 2.518388 0.983969 -2.555181
v 2.520653 0.952183 -2.534905
v 2.520098 0.944543 -2.546819
v 2.308582 0.970070 -2.557121
v 2.517833 0.976330 -2.567095
v 2.520098 0.944543 -2.546819
v 2.310847 0.938284 -2.536844
v 2.520653 0.952183 -2.534905
v 2.518388 0.983969 -2.555181
v 2.309137 0.977710 -2.545206
v 2.311402 0.945924 -2.524930
v 2.520098 0.944543 -2.546819
v 2.520653 0.952183 -2.534905
v 2.311402 0.945924 -2.524930
v 2.310847 0.938284 -2.536844
v 2.309137 0.977710 -2.545206
v 2.518388 0.983969 -2.555181
v 2.517833 0.976330 -2.567095
v 2.308582 0.970070 -2.557121
v 2.293604 1.021155 -2.512201
v 2.290985 1.019899 -2.549860
v 2.292348 0.977449 -2.548539
v 2.294966 0.978705 -2.510880
v 2.537140 0.984769 -2.565805
v 2.535778 1.027218 -2.567126
v 2.538397 1.028474 -2.529467
v 2.539759 0.986024 -2.528146
v 2.292348 0.977449 -2.548539
v 2.537140 0.984769 -2.565805
v 2.539759 0.986024 -2.528146
v 2.294966 0.978705 -2.510880
v 2.538397 1.028474 -2.529467
v 2.535778 1.027218 -2.567126
v 2.290985 1.019899 -2.549860
v 2.293604 1.021155 -2.512201
v 2.539759 0.986024 -2.528146
v 2.538397 1.028474 -2.529467
v 2.293604 1.021155 -2.512201
v 2.294966 0.978705 -2.510880
v 2.290985 1.019899 -2.549860
v 2.535778 1.027218 -2.567126
v 2.537140 0.984769 -2.565805
v 2.292348 0.977449 -2.548539
v 2.319819 0.914932 -2.527583
v 2.318276 0.945279 -2.550018
v 2.317678 0.936846 -2.561383
v 2.319221 0.906500 -2.538948
v 2.527079 0.938811 -2.569885
v 2.527676 0.947243 -2.558520
v 2.529219 0.916896 -2.536086
v 2.528622 0.908464 -2.547451
v 2.317678 0.936846 -2.561383
v 2.527079 0.938811 -2.569885
v 2.528622 0.908464 -2.547451
v 2.319221 0.906500 -2.538948
v 2.529219 0.916896 -2.536086
v 2.527676 0.947243 -2.558520
v 2.318276 0.945279 -2.550018
v 2.319819 0.914932 -2.527583
v 2.528622 0.908464 -2.547451
v 2.529219 0.916896 -2.536086
v 2.319819 0.914932 -2.527583
v 2.319221 0.906500 -2.538948
v 2.318276 0.945279 -2.550018
v 2.527676 0.947243 -2.558520
v 2.527079 0.938811 -2.569885
v 2.317678 0.936846 -2.561383
v 2.324535 0.833438 -2.528524
v 2.322295 0.862578 -2.552451
v 2.324118 0.824434 -2.539451
v 2.531592 0.868788 -2.561445
v 2.533832 0.839648 -2.537519
v 2.533415 0.830644 -2.548445
v 2.311877 0.853574 -2.573377
v 2.521174 0.859785 -2.582371
v 2.533415 0.830644 -2.548445
v 2.324118 0.824434 -2.539451
v 2.533832 0.839648 -2.537519
v 2.531592 0.868788 -2.561445
v 2.322295 0.862578 -2.552451
v 2.324535 0.833438 -2.528524
v 2.533415 0.830644 -2.548445
v 2.533832 0.839648 -2.537519
v 2.324535 0.833438 -2.528524
v 2.324118 0.824434 -2.539451
v 2.322295 0.862578 -2.552451
v 2.531592 0.868788 -2.561445
v 2.521174 0.859785 -2.582371
v 2.311877 0.853574 -2.573377
v 2.322295 0.862578 -2.552451
v 2.311877 0.853574 -2.573377
v 2.324118 0.824434 -2.539451
v 2.533415 0.830644 -2.548445
v 2.521174 0.859785 -2.582371
v 2.531592 0.868788 -2.561445
usemtl mat16

vn -0.998308 -0.006691 0.057759
vn -0.998308 -0.006691 0.057759
vn -0.998308 -0.006691 0.057759
vn -0.998308 -0.006691 0.057759
vn 0.998308 0.006691 -0.057759
vn 0.998308 0.006691 -0.057759
vn 0.998308 0.006691 -0.057759
vn 0.998308 0.006691 -0.057759
vn -0.024300 -0.651736 -0.758056
vn -0.024300 -0.651736 -0.758056
vn -0.024300 -0.651736 -0.758056
vn -0.024300 -0.651736 -0.758056
vn 0.024300 0.651736 0.758057
vn 0.024300 0.651736 0.758057
vn 0.024300 0.651736 0.758057
vn 0.024300 0.651736 0.758057
vn 0.033543 -0.758294 0.651050
vn 0.033543 -0.758294 0.651050
vn 0.033543 -0.758294 0.651050
vn 0.033543 -0.758294 0.651050
vn -0.033543 0.758301 -0.651041
vn -0.033543 0.758301 -0.651041
vn -0.033543 0.758301 -0.651041
vn -0.033543 0.758301 -0.651041
vn -0.998908 -0.021372 0.041549
vn -0.998908 -0.021372 0.041549
vn -0.998908 -0.021372 0.041549
vn -0.998908 -0.021372 0.041549
vn 0.998908 0.021372 -0.041549
vn 0.998908 0.021372 -0.041549
vn 0.998908 0.021372 -0.041549
vn 0.998908 0.021372 -0.041549
vn 0.022182 -0.999571 0.019130
vn 0.022182 -0.999571 0.019130
vn 0.022182 -0.999571 0.019130
vn 0.022182 -0.999571 0.019130
vn -0.022182 0.999571 -0.019130
vn -0.022182 0.999571 -0.019130
vn -0.022182 0.999571 -0.019130
vn -0.022182 0.999571 -0.019130
vn 0.041122 0.020031 0.998953
vn 0.041122 0.020031 0.998953
vn 0.041122 0.020031 0.998953
vn 0.041122 0.020031 0.998953
vn -0.041122 -0.020031 -0.998953
vn -0.041122 -0.020031 -0.998953
vn -0.041122 -0.020031 -0.998953
vn -0.041122 -0.020031 -0.998953
vn -0.997861 -0.026073 0.059948
vn -0.997861 -0.026073 0.059948
vn -0.997861 -0.026073 0.059948
vn -0.997861 -0.026073 0.059948
vn 0.997861 0.026073 -0.059948
vn 0.997861 0.026073 -0.059948
vn 0.997861 0.026073 -0.059948
vn 0.997861 0.026073 -0.059948
vn -0.010307 -0.689359 -0.724347
vn -0.010307 -0.689359 -0.724347
vn -0.010307 -0.689359 -0.724347
vn -0.010307 -0.689359 -0.724347
vn 0.010307 0.689359 0.724347
vn 0.010307 0.689359 0.724347
vn 0.010307 0.689359 0.724347
vn 0.010307 0.689359 0.724347
vn 0.051044 -0.723707 0.688217
vn 0.051044 -0.723707 0.688217
vn 0.051044 -0.723707 0.688217
vn 0.051044 -0.723707 0.688217
vn -0.051044 0.723715 -0.688208
vn -0.051044 0.723715 -0.688208
vn -0.051044 0.723715 -0.688208
vn -0.051044 0.723715 -0.688208
vn -0.998653 -0.030848 0.041728
vn -0.998653 -0.030848 0.041728
vn -0.998653 -0.030848 0.041728
vn -0.998653 -0.030848 0.041728
vn 0.998653 0.030848 -0.041728
vn 0.998653 0.030848 -0.041728
vn 0.998653 0.030848 -0.041728
vn 0.998653 0.030848 -0.041728
vn 0.022182 -0.999571 0.019130
vn 0.022182 -0.999571 0.019130
vn 0.022182 -0.999571 0.019130
vn 0.022182 -0.999571 0.019130
vn -0.022182 0.999571 -0.019130
vn -0.022182 0.999571 -0.019130
vn -0.022182 0.999571 -0.019130
vn -0.022182 0.999571 -0.019130
vn 0.041093 0.021358 0.998927
vn 0.041093 0.021358 0.998927
vn 0.041093 0.021358 0.998927
vn 0.041093 0.021358 0.998927
vn -0.041093 -0.021358 -0.998927
vn -0.041093 -0.021358 -0.998927
vn -0.041093 -0.021358 -0.998927
vn -0.041093 -0.021358 -0.998927
vn -0.999054 -0.013331 0.041394
vn -0.999054 -0.013331 0.041394
vn -0.999054 -0.013331 0.041394
vn -0.999054 -0.013331 0.041394
vn 0.999054 0.013331 -0.041394
vn 0.999054 0.013331 -0.041394
vn 0.999054 0.013331 -0.041394
vn 0.999054 0.013331 -0.041394
vn 0.022182 -0.999571 0.019130
vn 0.022182 -0.999571 0.019130
vn 0.022182 -0.999571 0.019130
vn 0.022182 -0.999571 0.019130
vn -0.022182 0.999571 -0.019130
vn -0.022182 0.999571 -0.019130
vn -0.022182 0.999571 -0.019130
vn -0.022182 0.999571 -0.019130
vn 0.041297 0.012095 0.999074
vn 0.041297 0.012095 0.999074
vn 0.041297 0.012095 0.999074
vn 0.041297 0.012095 0.999074
vn -0.041297 -0.012095 -0.999074
vn -0.041297 -0.012095 -0.999074
vn -0.041297 -0.012095 -0.999074
vn -0.041297 -0.012095 -0.999074
vn -0.997432 -0.029425 0.065292
vn -0.997432 -0.029425 0.065292
vn -0.997432 -0.029425 0.065292
vn -0.997432 -0.029425 0.065292
vn 0.997432 0.029425 -0.065292
vn 0.997432 0.029425 -0.065292
vn 0.997432 0.029425 -0.065292
vn 0.997432 0.029425 -0.065292
vn -0.024022 -0.538850 -0.842059
vn -0.024022 -0.538850 -0.842059
vn -0.024022 -0.538850 -0.842059
vn -0.024022 -0.538850 -0.842059
vn 0.024022 0.538850 0.842059
vn 0.024022 0.538850 0.842059
vn 0.024022 0.538850 0.842059
vn 0.024022 0.538850 0.842059
vn 0.050797 -0.841797 0.537399
vn 0.050797 -0.841797 0.537399
vn 0.050797 -0.841797 0.537399
vn 0.050797 -0.841797 0.537399
vn -0.050796 0.841803 -0.537390
vn -0.050796 0.841803 -0.537390
vn -0.050796 0.841803 -0.537390
vn -0.050796 0.841803 -0.537390
vn -0.997078 -0.029813 0.070329
vn -0.997078 -0.029813 0.070329
vn -0.997078 -0.029813 0.070329
vn -0.997078 -0.029813 0.070329
vn 0.997078 0.029813 -0.070329
vn 0.997078 0.029813 -0.070329
vn 0.997078 0.029813 -0.070329
vn 0.997078 0.029813 -0.070329
vn 0.032063 -0.999002 0.031088
vn 0.032063 -0.999002 0.031088
vn 0.032063 -0.999002 0.031088
vn 0.032063 -0.999002 0.031088
vn -0.032063 0.999002 -0.031088
vn -0.032063 0.999002 -0.031088
vn -0.032063 0.999002 -0.031088
vn -0.032063 0.999002 -0.031088
vn 0.069332 0.033252 0.997039
vn 0.069332 0.033252 0.997039
vn 0.069332 0.033252 0.997039
vn 0.069332 0.033252 0.997039
vn -0.069332 -0.033252 -0.997039
vn -0.069332 -0.033252 -0.997039
vn -0.069332 -0.033252 -0.997039
vn -0.069332 -0.033252 -0.997039
vn -0.998275 -0.007730 0.058203
vn -0.998275 -0.007730 0.058203
vn -0.998275 -0.007730 0.058203
vn -0.998275 -0.007730 0.058203
vn 0.998275 0.007730 -0.058203
vn 0.998275 0.007730 -0.058203
vn 0.998275 0.007730 -0.058203
vn 0.998275 0.007730 -0.058203
vn -0.027029 -0.595136 -0.803171
vn -0.027029 -0.595136 -0.803171
vn -0.027029 -0.595136 -0.803171
vn -0.027029 -0.595136 -0.803171
vn 0.027029 0.595136 0.803171
vn 0.027029 0.595136 0.803171
vn 0.027029 0.595136 0.803171
vn 0.027029 0.595136 0.803171
vn 0.031674 -0.803487 0.594479
vn 0.031674 -0.803487 0.594479
vn 0.031674 -0.803487 0.594479
vn 0.031674 -0.803487 0.594479
vn -0.031674 0.803494 -0.594469
vn -0.031674 0.803494 -0.594469
vn -0.031674 0.803494 -0.594469
vn -0.031674 0.803494 -0.594469
vn -0.997804 -0.027088 0.060444
vn -0.997804 -0.027088 0.060444
vn -0.997804 -0.027088 0.060444
vn 0.997804 0.027088 -0.060444
vn 0.997804 0.027088 -0.060444
vn 0.997804 0.027088 -0.060444
vn -0.005414 -0.759542 -0.650436
vn -0.005414 -0.759542 -0.650436
vn -0.005414 -0.759542 -0.650436
vn -0.005414 -0.759542 -0.650436
vn 0.014339 0.635170 0.772240
vn 0.014339 0.635170 0.772240
vn 0.014339 0.635170 0.772240
vn 0.014339 0.635170 0.772240
vn 0.050143 -0.771715 0.633989
vn 0.050143 -0.771715 0.633989
vn 0.050143 -0.771715 0.633989
vn 0.050143 -0.771715 0.633989
vn -0.043635 0.925418 -0.376426
vn -0.043635 0.925418 -0.376426
vn -0.043635 0.925418 -0.376426
vn -0.043635 0.925418 -0.376426
vn -0.906964 0.096398 0.410029
vn -0.906964 0.096398 0.410029
vn -0.906964 0.096398 0.410029
vn 0.906965 -0.096397 -0.410027
vn 0.906965 -0.096397 -0.410027
vn 0.906965 -0.096397 -0.410027

vt 0.059606 0.193641
vt 0.060228 0.197366
vt 0.061625 0.197133
vt 0.061003 0.193408
vt -0.061280 0.196995
vt -0.059883 0.197229
vt -0.059261 0.193503
vt -0.060658 0.193270
vt -0.076533 0.283490
vt -0.066186 0.301716
vt -0.062884 0.299881
vt -0.073231 0.281655
vt 0.062874 0.299900
vt 0.066175 0.301735
vt 0.076523 0.283509
vt 0.073221 0.281674
vt -0.049282 0.226590
vt -0.047872 0.226721
vt -0.046240 0.205827
vt -0.047650 0.205695
vt 0.046238 0.205792
vt 0.047869 0.226687
vt 0.049280 0.226555
vt 0.047648 0.205661
vt 0.061182 0.186774
vt 0.064377 0.188789
vt 0.066644 0.185196
vt 0.063450 0.183180
vt -0.066644 0.185196
vt -0.064377 0.188789
vt -0.061182 0.186774
vt -0.063450 0.183180
vt -0.089206 0.243796
vt -0.082187 0.267322
vt -0.078568 0.266242
vt -0.085586 0.242716
vt 0.078568 0.266242
vt 0.082187 0.267322
vt 0.089206 0.243796
vt 0.085586 0.242716
vt 0.009984 0.262092
vt 0.013825 0.263909
vt 0.024321 0.241714
vt 0.020479 0.239898
vt -0.024321 0.241714
vt -0.013825 0.263909
vt -0.009984 0.262092
vt -0.020479 0.239898
vt 0.062691 0.183814
vt 0.063448 0.187514
vt 0.064836 0.187230
vt 0.064079 0.183530
vt -0.064486 0.187105
vt -0.063098 0.187389
vt -0.062341 0.183689
vt -0.063729 0.183405
vt -0.073558 0.280949
vt -0.063585 0.299382
vt -0.060247 0.297616
vt -0.070219 0.279182
vt 0.060237 0.297635
vt 0.063575 0.299401
vt 0.073548 0.280968
vt 0.070209 0.279201
vt -0.050817 0.229354
vt -0.049409 0.229507
vt -0.047454 0.208640
vt -0.048862 0.208487
vt 0.047451 0.208606
vt 0.049406 0.229473
vt 0.050814 0.229319
vt 0.048859 0.208452
vt 0.048137 0.205853
vt 0.050122 0.207131
vt 0.064043 0.185445
vt 0.062058 0.184167
vt -0.064060 0.185419
vt -0.050139 0.207104
vt -0.048154 0.205826
vt -0.062075 0.184141
vt -0.082362 0.263433
vt -0.081417 0.266600
vt -0.079155 0.265925
vt -0.080100 0.262758
vt 0.079258 0.265700
vt 0.081520 0.266375
vt 0.082465 0.263208
vt 0.080202 0.262533
vt 0.012417 0.262765
vt 0.035813 0.273567
vt 0.037227 0.270580
vt 0.013831 0.259778
vt -0.037230 0.270582
vt -0.035816 0.273569
vt -0.012420 0.262766
vt -0.013834 0.259779
vt 0.049763 0.207508
vt 0.051769 0.208752
vt 0.065115 0.187616
vt 0.063109 0.186372
vt -0.065101 0.187639
vt -0.051755 0.208775
vt -0.049749 0.207530
vt -0.063095 0.186394
vt -0.088166 0.243978
vt -0.087221 0.247145
vt -0.084959 0.246470
vt -0.085904 0.243303
vt 0.084711 0.246606
vt 0.086974 0.247281
vt 0.087918 0.244114
vt 0.085656 0.243439
vt 0.020380 0.243765
vt 0.042912 0.254589
vt 0.044319 0.251598
vt 0.021787 0.240775
vt -0.044302 0.251590
vt -0.042895 0.254581
vt -0.020364 0.243757
vt -0.021771 0.240767
vt 0.055498 0.195304
vt 0.055556 0.199080
vt 0.056972 0.199059
vt 0.056914 0.195282
vt -0.056651 0.198871
vt -0.055235 0.198893
vt -0.055177 0.195116
vt -0.056594 0.195094
vt -0.075693 0.282773
vt -0.065657 0.301172
vt -0.062325 0.299394
vt -0.072361 0.280995
vt 0.062314 0.299412
vt 0.065647 0.301191
vt 0.075683 0.282792
vt 0.072351 0.281013
vt -0.055524 0.233383
vt -0.054108 0.233395
vt -0.054254 0.212437
vt -0.055671 0.212426
vt 0.054255 0.212403
vt 0.054108 0.233360
vt 0.055525 0.233349
vt 0.055672 0.212391
vt 0.051199 0.200108
vt 0.054488 0.201964
vt 0.056577 0.198264
vt 0.053288 0.196407
vt -0.056577 0.198264
vt -0.054488 0.201964
vt -0.051199 0.200108
vt -0.053288 0.196407
vt -0.088090 0.243933
vt -0.081902 0.267691
vt -0.078247 0.266739
vt -0.084435 0.242980
vt 0.078247 0.266739
vt 0.081902 0.267691
vt 0.088090 0.243933
vt 0.084435 0.242980
vt 0.031634 0.277156
vt 0.035492 0.278937
vt 0.045779 0.256644
vt 0.041920 0.254864
vt -0.045779 0.256644
vt -0.035492 0.278937
vt -0.031634 0.277156
vt -0.041920 0.254864
vt 0.058069 0.196950
vt 0.058419 0.200710
vt 0.059829 0.200579
vt 0.059479 0.196818
vt -0.059495 0.200417
vt -0.058084 0.200548
vt -0.057735 0.196787
vt -0.059145 0.196656
vt -0.076147 0.284181
vt -0.065743 0.302374
vt -0.062447 0.300529
vt -0.072852 0.282336
vt 0.062436 0.300547
vt 0.065732 0.302392
vt 0.076137 0.284199
vt 0.072841 0.282354
vt -0.052683 0.228076
vt -0.051268 0.228150
vt -0.050490 0.207206
vt -0.051905 0.207132
vt 0.050489 0.207172
vt 0.051267 0.228116
vt 0.052682 0.228042
vt 0.051904 0.207098
vt 0.061290 0.187168
vt 0.061777 0.190913
vt 0.062695 0.186985
vt -0.061437 0.190763
vt -0.060950 0.187018
vt -0.062355 0.186835
vt -0.081784 0.282221
vt -0.071989 0.300749
vt -0.067522 0.299508
vt -0.077317 0.280980
vt 0.059682 0.298412
vt 0.063013 0.300192
vt 0.073063 0.281801
vt 0.069732 0.280020
vt -0.053968 0.230628
vt -0.052555 0.230727
vt -0.051412 0.209800
vt -0.052825 0.209701
vt 0.073425 0.221605
vt 0.071136 0.242437
vt 0.073535 0.241718
vt 0.075825 0.220885
vt 0.090414 0.146970
vt 0.092597 0.145741
vt 0.088620 0.143357
vt -0.081253 0.146938
vt -0.085230 0.149322
vt -0.083047 0.150551
s off
f 1/1/1 2/2/2 3/3/3
f 1/1/1 3/3/3 4/4/4
f 5/5/5 6/6/6 7/7/7
f 5/5/5 7/7/7 8/8/8
f 9/9/9 10/10/10 11/11/11
f 9/9/9 11/11/11 12/12/12
f 13/13/13 14/14/14 15/15/15
f 13/13/13 15/15/15 16/16/16
f 17/17/17 18/18/18 19/19/19
f 17/17/17 19/19/19 20/20/20
f 21/21/21 22/22/22 23/23/23
f 21/21/21 23/23/23 24/24/24
f 25/25/25 26/26/26 27/27/27
f 25/25/25 27/27/27 28/28/28
f 29/29/29 30/30/30 31/31/31
f 29/29/29 31/31/31 32/32/32
f 33/33/33 34/34/34 35/35/35
f 33/33/33 35/35/35 36/36/36
f 37/37/37 38/38/38 39/39/39
f 37/37/37 39/39/39 40/40/40
f 41/41/41 42/42/42 43/43/43
f 41/41/41 43/43/43 44/44/44
f 45/45/45 46/46/46 47/47/47
f 45/45/45 47/47/47 48/48/48
f 49/49/49 50/50/50 51/51/51
f 49/49/49 51/51/51 52/52/52
f 53/53/53 54/54/54 55/55/55
f 53/53/53 55/55/55 56/56/56
f 57/57/57 58/58/58 59/59/59
f 57/57/57 59/59/59 60/60/60
f 61/61/61 62/62/62 63/63/63
f 61/61/61 63/63/63 64/64/64
f 65/65/65 66/66/66 67/67/67
f 65/65/65 67/67/67 68/68/68
f 69/69/69 70/70/70 71/71/71
f 69/69/69 71/71/71 72/72/72
f 73/73/73 74/74/74 75/75/75
f 73/73/73 75/75/75 76/76/76
f 77/77/77 78/78/78 79/79/79
f 77/77/77 79/79/79 80/80/80
f 81/81/81 82/82/82 83/83/83
f 81/81/81 83/83/83 84/84/84
f 85/85/85 86/86/86 87/87/87
f 85/85/85 87/87/87 88/88/88
f 89/89/89 90/90/90 91/91/91
f 89/89/89 91/91/91 92/92/92
f 93/93/93 94/94/94 95/95/95
f 93/93/93 95/95/95 96/96/96
f 97/97/97 98/98/98 99/99/99
f 97/97/97 99/99/99 100/100/100
f 101/101/101 102/102/102 103/103/103
f 101/101/101 103/103/103 104/104/104
f 105/105/105 106/106/106 107/107/107
f 105/105/105 107/107/107 108/108/108
f 109/109/109 110/110/110 111/111/111
f 109/109/109 111/111/111 112/112/112
f 113/113/113 114/114/114 115/115/115
f 113/113/113 115/115/115 116/116/116
f 117/117/117 118/118/118 119/119/119
f 117/117/117 119/119/119 120/120/120
f 121/121/121 122/122/122 123/123/123
f 121/121/121 123/123/123 124/124/124
f 125/125/125 126/126/126 127/127/127
f 125/125/125 127/127/127 128/128/128
f 129/129/129 130/130/130 131/131/131
f 129/129/129 131/131/131 132/132/132
f 133/133/133 134/134/134 135/135/135
f 133/133/133 135/135/135 136/136/136
f 137/137/137 138/138/138 139/139/139
f 137/137/137 139/139/139 140/140/140
f 141/141/141 142/142/142 143/143/143
f 141/141/141 143/143/143 144/144/144
f 145/145/145 146/146/146 147/147/147
f 145/145/145 147/147/147 148/148/148
f 149/149/149 150/150/150 151/151/151
f 149/149/149 151/151/151 152/152/152
f 153/153/153 154/154/154 155/155/155
f 153/153/153 155/155/155 156/156/156
f 157/157/157 158/158/158 159/159/159
f 157/157/157 159/159/159 160/160/160
f 161/161/161 162/162/162 163/163/163
f 161/161/161 163/163/163 164/164/164
f 165/165/165 166/166/166 167/167/167
f 165/165/165 167/167/167 168/168/168
f 169/169/169 170/170/170 171/171/171
f 169/169/169 171/171/171 172/172/172
f 173/173/173 174/174/174 175/175/175
f 173/173/173 175/175/175 176/176/176
f 177/177/177 178/178/178 179/179/179
f 177/177/177 179/179/179 180/180/180
f 181/181/181 182/182/182 183/183/183
f 181/181/181 183/183/183 184/184/184
f 185/185/185 186/186/186 187/187/187
f 185/185/185 187/187/187 188/188/188
f 189/189/189 190/190/190 191/191/191
f 189/189/189 191/191/191 192/192/192
f 193/193/193 194/194/194 195/195/195
f 196/196/196 197/197/197 198/198/198
f 199/199/199 200/200/200 201/201/201
f 199/199/199 201/201/201 202/202/202
f 203/203/203 204/204/204 205/205/205
f 203/203/203 205/205/205 206/206/206
f 207/207/207 208/208/208 209/209/209
f 207/207/207 209/209/209 210/210/210
f 211/211/211 212/212/212 213/213/213
f 211/211/211 213/213/213 214/214/214
f 215/215/215 216/216/216 217/217/217
f 218/218/218 219/219/219 220/220/220
