# Exported using automatic converter by Erwin Coumans
mtllib model6.mtl
#object mesh356800185

v 2.217398 2.020687 -0.571983
v 2.221773 2.027355 -0.583661
v 2.209510 2.030324 -0.579187
v 2.205229 2.023636 -0.567484
v 2.221773 2.027355 -0.583661
v 2.220873 2.015247 -0.590913
v 2.208971 2.018141 -0.586347
v 2.209510 2.030324 -0.579187
v 2.220873 2.015247 -0.590913
v 2.216498 2.008578 -0.579234
v 2.204690 2.011453 -0.574645
v 2.208971 2.018141 -0.586347
v 2.216498 2.008578 -0.579234
v 2.217398 2.020687 -0.571983
v 2.205229 2.023636 -0.567484
v 2.204690 2.011453 -0.574645
v 2.216498 2.008578 -0.579234
v 2.220873 2.015247 -0.590913
v 2.221773 2.027355 -0.583661
v 2.217398 2.020687 -0.571983
v 2.205229 2.023636 -0.567484
v 2.209510 2.030324 -0.579187
v 2.208971 2.018141 -0.586347
v 2.204690 2.011453 -0.574645
usemtl mat23

vn 0.383741 0.733451 0.561063
vn 0.383741 0.733451 0.561063
vn 0.383741 0.733451 0.561063
vn 0.383741 0.733451 0.561063
vn -0.190443 0.509229 -0.839296
vn -0.190443 0.509229 -0.839296
vn -0.190443 0.509229 -0.839296
vn -0.190443 0.509229 -0.839296
vn -0.393867 -0.727706 -0.561527
vn -0.393867 -0.727706 -0.561527
vn -0.393867 -0.727706 -0.561527
vn -0.393867 -0.727706 -0.561527
vn 0.194217 -0.509015 0.838560
vn 0.194217 -0.509015 0.838560
vn 0.194217 -0.509015 0.838560
vn 0.194217 -0.509015 0.838560
vn 0.948805 -0.211219 0.234852
vn 0.948805 -0.211219 0.234852
vn 0.948805 -0.211219 0.234852
vn 0.948805 -0.211219 0.234852
vn -0.952330 0.184793 -0.242734
vn -0.952330 0.184793 -0.242734
vn -0.952330 0.184793 -0.242734
vn -0.952330 0.184793 -0.242734

vt 0.052172 0.148165
vt 0.053002 0.149310
vt 0.053610 0.148117
vt 0.052773 0.146977
vt -0.180070 0.252790
vt -0.178711 0.252396
vt -0.179448 0.251315
vt -0.180815 0.251678
vt -0.054444 0.147989
vt -0.053619 0.146840
vt -0.054197 0.145676
vt -0.055029 0.146820
vt 0.178913 0.251913
vt 0.180271 0.252306
vt 0.181014 0.251202
vt 0.179647 0.250841
vt 0.174681 0.224963
vt 0.174193 0.226290
vt 0.175520 0.226778
vt 0.176008 0.225451
vt -0.177820 0.219343
vt -0.177359 0.220680
vt -0.176022 0.220218
vt -0.176483 0.218881
s off
f 1/1/1 2/2/2 3/3/3
f 1/1/1 3/3/3 4/4/4
f 5/5/5 6/6/6 7/7/7
f 5/5/5 7/7/7 8/8/8
f 9/9/9 10/10/10 11/11/11
f 9/9/9 11/11/11 12/12/12
f 13/13/13 14/14/14 15/15/15
f 13/13/13 15/15/15 16/16/16
f 17/17/17 18/18/18 19/19/19
f 17/17/17 19/19/19 20/20/20
f 21/21/21 22/22/22 23/23/23
f 21/21/21 23/23/23 24/24/24
