# Exported using automatic converter by Erwin Coumans
mtllib model6.mtl
#object mesh1423762584

v 1.166965 1.647499 3.577239
v 1.157137 1.645817 3.578000
v 1.162090 1.659251 3.580135
v 1.171910 1.660984 3.579387
v 1.157137 1.645817 3.578000
v 1.153191 1.643120 3.586783
v 1.158158 1.656463 3.588897
v 1.162090 1.659251 3.580135
v 1.153191 1.643120 3.586783
v 1.159073 1.642105 3.594807
v 1.164046 1.655408 3.596910
v 1.158158 1.656463 3.588897
v 1.159073 1.642105 3.594807
v 1.168901 1.643786 3.594046
v 1.173866 1.657141 3.596162
v 1.164046 1.655408 3.596910
v 1.168901 1.643786 3.594046
v 1.172847 1.646483 3.585262
v 1.177798 1.659929 3.587400
v 1.173866 1.657141 3.596162
v 1.172847 1.646483 3.585262
v 1.166965 1.647499 3.577239
v 1.171910 1.660984 3.579387
v 1.177798 1.659929 3.587400
v 1.172847 1.646483 3.585262
v 1.168901 1.643786 3.594046
v 1.159073 1.642105 3.594807
v 1.153191 1.643120 3.586783
v 1.157137 1.645817 3.578000
v 1.166965 1.647499 3.577239
v 1.171910 1.660984 3.579387
v 1.162090 1.659251 3.580135
v 1.158158 1.656463 3.588897
v 1.164046 1.655408 3.596910
v 1.173866 1.657141 3.596162
v 1.177798 1.659929 3.587400
usemtl mat21

vn -0.108746 0.195084 -0.974739
vn -0.108746 0.195084 -0.974739
vn -0.108746 0.195084 -0.974739
vn -0.108746 0.195084 -0.974739
vn -0.884614 0.372287 -0.280820
vn -0.884614 0.372287 -0.280820
vn -0.884614 0.372287 -0.280820
vn -0.884614 0.372287 -0.280820
vn -0.778299 0.195936 0.596540
vn -0.778299 0.195936 0.596540
vn -0.778299 0.195936 0.596540
vn -0.778299 0.195936 0.596540
vn 0.108703 -0.194813 0.974798
vn 0.108703 -0.194813 0.974798
vn 0.108703 -0.194813 0.974798
vn 0.108703 -0.194813 0.974798
vn 0.884715 -0.371928 0.280977
vn 0.884715 -0.371928 0.280977
vn 0.884715 -0.371928 0.280977
vn 0.884715 -0.371928 0.280977
vn 0.779310 -0.191392 -0.596695
vn 0.779310 -0.191392 -0.596695
vn 0.779310 -0.191392 -0.596695
vn 0.779310 -0.191392 -0.596695
vn 0.146844 -0.962178 -0.229458
vn 0.146844 -0.962178 -0.229458
vn 0.146844 -0.962178 -0.229458
vn 0.146844 -0.962178 -0.229458
vn 0.146844 -0.962178 -0.229458
vn 0.146844 -0.962178 -0.229458
vn -0.151250 0.959551 0.237457
vn -0.151250 0.959551 0.237457
vn -0.151250 0.959551 0.237457
vn -0.151250 0.959551 0.237457
vn -0.151250 0.959551 0.237457
vn -0.151250 0.959551 0.237457

vt -0.259424 0.150111
vt -0.259655 0.149138
vt -0.260729 0.150108
vt -0.260504 0.151082
vt -0.485699 -0.040310
vt -0.486252 -0.041143
vt -0.487207 -0.040067
vt -0.486662 -0.039228
vt -0.295945 0.325896
vt -0.296889 0.326227
vt -0.296734 0.327654
vt -0.295789 0.327327
vt 0.259498 0.149125
vt 0.259267 0.150098
vt 0.260334 0.151067
vt 0.260559 0.150092
vt 0.486815 -0.040866
vt 0.486263 -0.040032
vt 0.487227 -0.038950
vt 0.487772 -0.039789
vt 0.295675 0.328541
vt 0.294732 0.328209
vt 0.294569 0.329652
vt 0.295513 0.329981
vt 0.406003 -0.035997
vt 0.406680 -0.036732
vt 0.406382 -0.037687
vt 0.405406 -0.037906
vt 0.404729 -0.037170
vt 0.405027 -0.036216
vt -0.403421 -0.033831
vt -0.403121 -0.034785
vt -0.403798 -0.035522
vt -0.404774 -0.035304
vt -0.405073 -0.034350
vt -0.404397 -0.033613
s off
f 1/1/1 2/2/2 3/3/3
f 1/1/1 3/3/3 4/4/4
f 5/5/5 6/6/6 7/7/7
f 5/5/5 7/7/7 8/8/8
f 9/9/9 10/10/10 11/11/11
f 9/9/9 11/11/11 12/12/12
f 13/13/13 14/14/14 15/15/15
f 13/13/13 15/15/15 16/16/16
f 17/17/17 18/18/18 19/19/19
f 17/17/17 19/19/19 20/20/20
f 21/21/21 22/22/22 23/23/23
f 21/21/21 23/23/23 24/24/24
f 25/25/25 26/26/26 27/27/27
f 25/25/25 27/27/27 28/28/28
f 25/25/25 28/28/28 29/29/29
f 25/25/25 29/29/29 30/30/30
f 31/31/31 32/32/32 33/33/33
f 31/31/31 33/33/33 34/34/34
f 31/31/31 34/34/34 35/35/35
f 31/31/31 35/35/35 36/36/36
