# Exported using automatic converter by Erwin Coumans
mtllib model6.mtl
#object group1047426834_2

v 2.747270 -0.922891 -0.228400
v 2.791372 -0.924325 -0.241809
v 2.790512 -0.962477 -0.240553
v 2.746411 -0.961043 -0.227144
v 2.745266 -1.011911 -0.225469
v 2.789367 -1.013345 -0.238879
v 2.834282 -1.014014 -0.228443
v 2.867977 -1.013736 -0.196958
v 2.881423 -1.012587 -0.152860
v 2.871018 -1.010875 -0.107965
v 2.839549 -1.009059 -0.074303
v 2.795448 -1.007624 -0.060893
v 2.750532 -1.006957 -0.071329
v 2.716837 -1.007234 -0.102814
v 2.703391 -1.008383 -0.146913
v 2.713796 -1.010095 -0.191807
v 2.791372 -0.924325 -0.241809
v 2.836287 -0.924993 -0.231374
v 2.835428 -0.963145 -0.230118
v 2.790512 -0.962477 -0.240553
v 2.869982 -0.924716 -0.199888
v 2.883428 -0.923567 -0.155790
v 2.882569 -0.961719 -0.154534
v 2.869123 -0.962867 -0.198632
v 2.883428 -0.923567 -0.155790
v 2.873023 -0.921855 -0.110895
v 2.872164 -0.960007 -0.109639
v 2.882569 -0.961719 -0.154534
v 2.873023 -0.921855 -0.110895
v 2.841553 -0.920039 -0.077233
v 2.840694 -0.958190 -0.075977
v 2.872164 -0.960007 -0.109639
v 2.841553 -0.920039 -0.077233
v 2.797452 -0.918604 -0.063824
v 2.796593 -0.956756 -0.062568
v 2.840694 -0.958190 -0.075977
v 2.797452 -0.918604 -0.063824
v 2.752537 -0.917936 -0.074259
v 2.751678 -0.956088 -0.073003
v 2.796593 -0.956756 -0.062568
v 2.752537 -0.917936 -0.074259
v 2.718842 -0.918214 -0.105745
v 2.717983 -0.956366 -0.104489
v 2.751678 -0.956088 -0.073003
v 2.718842 -0.918214 -0.105745
v 2.705395 -0.919362 -0.149843
v 2.704536 -0.957514 -0.148587
v 2.717983 -0.956366 -0.104489
v 2.705395 -0.919362 -0.149843
v 2.715801 -0.921075 -0.194738
v 2.714942 -0.959226 -0.193482
v 2.704536 -0.957514 -0.148587
v 2.715801 -0.921075 -0.194738
v 2.747270 -0.922891 -0.228400
v 2.746411 -0.961043 -0.227144
v 2.714942 -0.959226 -0.193482
v 2.751567 -0.732134 -0.234679
v 2.795668 -0.733568 -0.248088
v 2.795095 -0.759002 -0.247251
v 2.750994 -0.757568 -0.233841
v 2.795668 -0.733568 -0.248088
v 2.840583 -0.734236 -0.237652
v 2.840010 -0.759670 -0.236815
v 2.795095 -0.759002 -0.247251
v 2.874278 -0.733958 -0.206167
v 2.887725 -0.732810 -0.162069
v 2.887152 -0.758244 -0.161232
v 2.873705 -0.759393 -0.205330
v 2.887725 -0.732810 -0.162069
v 2.877319 -0.731098 -0.117174
v 2.876746 -0.756532 -0.116337
v 2.887152 -0.758244 -0.161232
v 2.877319 -0.731098 -0.117174
v 2.845849 -0.729281 -0.083512
v 2.845277 -0.754716 -0.082674
v 2.876746 -0.756532 -0.116337
v 2.845849 -0.729281 -0.083512
v 2.801749 -0.727847 -0.070103
v 2.801176 -0.753281 -0.069265
v 2.845277 -0.754716 -0.082674
v 2.801749 -0.727847 -0.070103
v 2.756833 -0.727179 -0.080538
v 2.756260 -0.752613 -0.079701
v 2.801176 -0.753281 -0.069265
v 2.756833 -0.727179 -0.080538
v 2.723138 -0.727457 -0.112024
v 2.722565 -0.752891 -0.111186
v 2.756260 -0.752613 -0.079701
v 2.723138 -0.727457 -0.112024
v 2.709692 -0.728605 -0.156121
v 2.709119 -0.754039 -0.155284
v 2.722565 -0.752891 -0.111186
v 2.709692 -0.728605 -0.156121
v 2.720097 -0.730317 -0.201017
v 2.719525 -0.755751 -0.200179
v 2.709119 -0.754039 -0.155284
v 2.720097 -0.730317 -0.201017
v 2.751567 -0.732134 -0.234679
v 2.750994 -0.757568 -0.233841
v 2.719525 -0.755751 -0.200179
v 2.720097 -0.730317 -0.201017
v 2.709692 -0.728605 -0.156121
v 2.723138 -0.727457 -0.112024
v 2.756833 -0.727179 -0.080538
v 2.801749 -0.727847 -0.070103
v 2.845849 -0.729281 -0.083512
v 2.877319 -0.731098 -0.117174
v 2.887725 -0.732810 -0.162069
v 2.874278 -0.733958 -0.206167
v 2.840583 -0.734236 -0.237652
v 2.795668 -0.733568 -0.248088
v 2.751567 -0.732134 -0.234679
usemtl mat23

vn -0.291567 -0.024914 -0.956226
vn -0.291567 -0.024914 -0.956226
vn -0.291567 -0.024914 -0.956226
vn -0.291567 -0.024914 -0.956226
vn -0.022500 -0.999206 0.032887
vn -0.022500 -0.999206 0.032887
vn -0.022500 -0.999206 0.032887
vn -0.022500 -0.999206 0.032887
vn -0.022500 -0.999206 0.032887
vn -0.022500 -0.999206 0.032887
vn -0.022500 -0.999206 0.032887
vn -0.022500 -0.999206 0.032887
vn -0.022500 -0.999206 0.032887
vn -0.022500 -0.999206 0.032887
vn -0.022500 -0.999206 0.032887
vn -0.022500 -0.999206 0.032887
vn 0.225633 -0.037133 -0.973504
vn 0.225633 -0.037133 -0.973504
vn 0.225633 -0.037133 -0.973504
vn 0.225633 -0.037133 -0.973504
vn 0.956285 -0.031109 -0.290776
vn 0.956285 -0.031109 -0.290776
vn 0.956285 -0.031109 -0.290776
vn 0.956285 -0.031109 -0.290776
vn 0.973953 -0.014485 0.226286
vn 0.973953 -0.014485 0.226286
vn 0.973953 -0.014485 0.226286
vn 0.973953 -0.014485 0.226286
vn 0.730645 0.006020 0.682731
vn 0.730645 0.006020 0.682731
vn 0.730645 0.006020 0.682731
vn 0.730645 0.006020 0.682731
vn 0.291565 0.024911 0.956227
vn 0.291565 0.024911 0.956227
vn 0.291565 0.024911 0.956227
vn 0.291565 0.024911 0.956227
vn -0.225633 0.037129 0.973504
vn -0.225633 0.037129 0.973504
vn -0.225633 0.037129 0.973504
vn -0.225633 0.037129 0.973504
vn -0.682386 0.039398 0.729930
vn -0.682386 0.039398 0.729930
vn -0.682386 0.039398 0.729930
vn -0.682386 0.039398 0.729930
vn -0.956285 0.031109 0.290778
vn -0.956285 0.031109 0.290778
vn -0.956285 0.031109 0.290778
vn -0.956285 0.031109 0.290778
vn -0.973953 0.014485 -0.226287
vn -0.973953 0.014485 -0.226287
vn -0.973953 0.014485 -0.226287
vn -0.973953 0.014485 -0.226287
vn -0.730644 -0.006020 -0.682732
vn -0.730644 -0.006020 -0.682732
vn -0.730644 -0.006020 -0.682732
vn -0.730644 -0.006020 -0.682732
vn -0.291563 -0.024917 -0.956227
vn -0.291563 -0.024917 -0.956227
vn -0.291563 -0.024917 -0.956227
vn -0.291563 -0.024917 -0.956227
vn 0.225633 -0.037133 -0.973504
vn 0.225633 -0.037133 -0.973504
vn 0.225633 -0.037133 -0.973504
vn 0.225633 -0.037133 -0.973504
vn 0.956284 -0.031112 -0.290781
vn 0.956284 -0.031112 -0.290781
vn 0.956284 -0.031112 -0.290781
vn 0.956284 -0.031112 -0.290781
vn 0.973953 -0.014486 0.226288
vn 0.973953 -0.014486 0.226288
vn 0.973953 -0.014486 0.226288
vn 0.973953 -0.014486 0.226288
vn 0.730646 0.006021 0.682730
vn 0.730646 0.006021 0.682730
vn 0.730646 0.006021 0.682730
vn 0.730646 0.006021 0.682730
vn 0.291557 0.024916 0.956229
vn 0.291557 0.024916 0.956229
vn 0.291557 0.024916 0.956229
vn 0.291557 0.024916 0.956229
vn -0.225633 0.037133 0.973504
vn -0.225633 0.037133 0.973504
vn -0.225633 0.037133 0.973504
vn -0.225633 0.037133 0.973504
vn -0.682386 0.039401 0.729930
vn -0.682386 0.039401 0.729930
vn -0.682386 0.039401 0.729930
vn -0.682386 0.039401 0.729930
vn -0.956282 0.031112 0.290785
vn -0.956282 0.031112 0.290785
vn -0.956282 0.031112 0.290785
vn -0.956282 0.031112 0.290785
vn -0.973952 0.014486 -0.226290
vn -0.973952 0.014486 -0.226290
vn -0.973952 0.014486 -0.226290
vn -0.973952 0.014486 -0.226290
vn -0.730644 -0.006022 -0.682732
vn -0.730644 -0.006022 -0.682732
vn -0.730644 -0.006022 -0.682732
vn -0.730644 -0.006022 -0.682732
vn 0.022500 0.999206 -0.032887
vn 0.022500 0.999206 -0.032887
vn 0.022500 0.999206 -0.032887
vn 0.022500 0.999206 -0.032887
vn 0.022500 0.999206 -0.032887
vn 0.022500 0.999206 -0.032887
vn 0.022500 0.999206 -0.032887
vn 0.022500 0.999206 -0.032887
vn 0.022500 0.999206 -0.032887
vn 0.022500 0.999206 -0.032887
vn 0.022500 0.999206 -0.032887
vn 0.022500 0.999206 -0.032887

vt 0.134063 0.173343
vt 0.136162 0.177449
vt 0.139562 0.175712
vt 0.137463 0.171605
vt 0.140939 0.210443
vt 0.141104 0.215052
vt 0.143552 0.218960
vt 0.147626 0.221122
vt 0.152234 0.220956
vt 0.156143 0.218509
vt 0.158304 0.214435
vt 0.158139 0.209826
vt 0.155691 0.205917
vt 0.151617 0.203756
vt 0.147008 0.203922
vt 0.143100 0.206369
vt 0.167409 0.199353
vt 0.169790 0.203303
vt 0.173060 0.201332
vt 0.170680 0.197382
vt 0.136421 -0.050170
vt 0.141022 -0.050493
vt 0.140754 -0.054302
vt 0.136154 -0.053979
vt -0.021024 -0.036548
vt -0.017826 -0.039871
vt -0.020578 -0.042518
vt -0.023775 -0.039195
vt -0.095047 0.083499
vt -0.092739 0.079507
vt -0.096044 0.077596
vt -0.098353 0.081588
vt -0.136162 0.177450
vt -0.134063 0.173343
vt -0.137463 0.171606
vt -0.139562 0.175712
vt -0.169789 0.203303
vt -0.167409 0.199353
vt -0.170679 0.197383
vt -0.173060 0.201332
vt -0.199820 0.128387
vt -0.196422 0.125269
vt -0.199004 0.122456
vt -0.202402 0.125574
vt -0.141022 -0.050492
vt -0.136422 -0.050169
vt -0.136155 -0.053978
vt -0.140755 -0.054301
vt 0.017827 -0.039870
vt 0.021024 -0.036547
vt 0.023776 -0.039195
vt 0.020578 -0.042518
vt 0.092739 0.079507
vt 0.095047 0.083500
vt 0.098353 0.081588
vt 0.096044 0.077596
vt 0.117065 0.182031
vt 0.119163 0.186138
vt 0.121430 0.184979
vt 0.119331 0.180873
vt 0.151058 0.209207
vt 0.153438 0.213157
vt 0.155619 0.211843
vt 0.153238 0.207893
vt 0.137760 -0.031124
vt 0.142360 -0.031447
vt 0.142182 -0.033986
vt 0.137582 -0.033663
vt -0.007268 -0.023309
vt -0.004071 -0.026632
vt -0.005905 -0.028397
vt -0.009102 -0.025074
vt -0.078520 0.093055
vt -0.076211 0.089062
vt -0.078415 0.087788
vt -0.080723 0.091780
vt -0.119164 0.186138
vt -0.117065 0.182032
vt -0.119332 0.180874
vt -0.121430 0.184980
vt -0.153438 0.213157
vt -0.151058 0.209207
vt -0.153238 0.207893
vt -0.155619 0.211843
vt -0.186914 0.142454
vt -0.183516 0.139336
vt -0.185237 0.137461
vt -0.188635 0.140578
vt -0.142361 -0.031446
vt -0.137761 -0.031123
vt -0.137583 -0.033662
vt -0.142183 -0.033985
vt 0.004071 -0.026632
vt 0.007269 -0.023309
vt 0.009103 -0.025074
vt 0.005905 -0.028397
vt 0.076212 0.089062
vt 0.078520 0.093055
vt 0.080724 0.091781
vt 0.078415 0.087788
vt -0.143100 0.206369
vt -0.147008 0.203922
vt -0.151617 0.203756
vt -0.155691 0.205918
vt -0.158139 0.209826
vt -0.158304 0.214435
vt -0.156143 0.218509
vt -0.152234 0.220956
vt -0.147626 0.221122
vt -0.143552 0.218961
vt -0.141104 0.215052
vt -0.140939 0.210443
s off
f 1/1/1 2/2/2 3/3/3
f 1/1/1 3/3/3 4/4/4
f 5/5/5 6/6/6 7/7/7
f 5/5/5 7/7/7 8/8/8
f 5/5/5 8/8/8 9/9/9
f 5/5/5 9/9/9 10/10/10
f 5/5/5 10/10/10 11/11/11
f 5/5/5 11/11/11 12/12/12
f 5/5/5 12/12/12 13/13/13
f 5/5/5 13/13/13 14/14/14
f 5/5/5 14/14/14 15/15/15
f 5/5/5 15/15/15 16/16/16
f 17/17/17 18/18/18 19/19/19
f 17/17/17 19/19/19 20/20/20
f 21/21/21 22/22/22 23/23/23
f 21/21/21 23/23/23 24/24/24
f 25/25/25 26/26/26 27/27/27
f 25/25/25 27/27/27 28/28/28
f 29/29/29 30/30/30 31/31/31
f 29/29/29 31/31/31 32/32/32
f 33/33/33 34/34/34 35/35/35
f 33/33/33 35/35/35 36/36/36
f 37/37/37 38/38/38 39/39/39
f 37/37/37 39/39/39 40/40/40
f 41/41/41 42/42/42 43/43/43
f 41/41/41 43/43/43 44/44/44
f 45/45/45 46/46/46 47/47/47
f 45/45/45 47/47/47 48/48/48
f 49/49/49 50/50/50 51/51/51
f 49/49/49 51/51/51 52/52/52
f 53/53/53 54/54/54 55/55/55
f 53/53/53 55/55/55 56/56/56
f 57/57/57 58/58/58 59/59/59
f 57/57/57 59/59/59 60/60/60
f 61/61/61 62/62/62 63/63/63
f 61/61/61 63/63/63 64/64/64
f 65/65/65 66/66/66 67/67/67
f 65/65/65 67/67/67 68/68/68
f 69/69/69 70/70/70 71/71/71
f 69/69/69 71/71/71 72/72/72
f 73/73/73 74/74/74 75/75/75
f 73/73/73 75/75/75 76/76/76
f 77/77/77 78/78/78 79/79/79
f 77/77/77 79/79/79 80/80/80
f 81/81/81 82/82/82 83/83/83
f 81/81/81 83/83/83 84/84/84
f 85/85/85 86/86/86 87/87/87
f 85/85/85 87/87/87 88/88/88
f 89/89/89 90/90/90 91/91/91
f 89/89/89 91/91/91 92/92/92
f 93/93/93 94/94/94 95/95/95
f 93/93/93 95/95/95 96/96/96
f 97/97/97 98/98/98 99/99/99
f 97/97/97 99/99/99 100/100/100
f 101/101/101 102/102/102 103/103/103
f 101/101/101 103/103/103 104/104/104
f 101/101/101 104/104/104 105/105/105
f 101/101/101 105/105/105 106/106/106
f 101/101/101 106/106/106 107/107/107
f 101/101/101 107/107/107 108/108/108
f 101/101/101 108/108/108 109/109/109
f 101/101/101 109/109/109 110/110/110
f 101/101/101 110/110/110 111/111/111
f 101/101/101 111/111/111 112/112/112
