# Exported using automatic converter by Erwin Coumans
mtllib model6.mtl
#object mesh673867108

v -1.441762 0.005489 2.359852
v -1.441762 0.004149 2.364851
v -1.391762 0.004149 2.364852
v -1.391762 0.005489 2.359852
v -1.441762 0.004149 2.364851
v -1.441762 0.000489 2.368512
v -1.391762 0.000489 2.368512
v -1.391762 0.004149 2.364852
v -1.441762 0.000489 2.368512
v -1.441762 -0.004511 2.369852
v -1.391762 -0.004511 2.369852
v -1.391762 0.000489 2.368512
v -1.441762 -0.004511 2.369852
v -1.441762 -0.009511 2.368512
v -1.391762 -0.009511 2.368512
v -1.391762 -0.004511 2.369852
v -1.441762 -0.009511 2.368512
v -1.441762 -0.013171 2.364852
v -1.391762 -0.013171 2.364852
v -1.391762 -0.009511 2.368512
v -1.441762 -0.013171 2.364852
v -1.441762 -0.014511 2.359852
v -1.391762 -0.014511 2.359852
v -1.391762 -0.013171 2.364852
v -1.441762 -0.014511 2.359852
v -1.441762 -0.013171 2.354852
v -1.391762 -0.013171 2.354852
v -1.391762 -0.014511 2.359852
v -1.441762 -0.013171 2.354852
v -1.441762 -0.009511 2.351192
v -1.391762 -0.009511 2.351192
v -1.391762 -0.013171 2.354852
v -1.441762 -0.009511 2.351192
v -1.441762 -0.004511 2.349852
v -1.391762 -0.004511 2.349852
v -1.391762 -0.009511 2.351192
v -1.441762 -0.004511 2.349852
v -1.441762 0.000489 2.351192
v -1.391762 0.000489 2.351192
v -1.391762 -0.004511 2.349852
v -1.441762 0.000489 2.351192
v -1.441762 0.004149 2.354852
v -1.391762 0.004149 2.354852
v -1.391762 0.000489 2.351192
v -1.441762 0.004149 2.354852
v -1.441762 0.005489 2.359852
v -1.391762 0.005489 2.359852
v -1.391762 0.004149 2.354852
v -1.391762 0.005489 2.359852
v -1.391762 0.004149 2.364852
v -1.391762 0.000489 2.368512
v -1.391762 -0.004511 2.369852
v -1.391762 -0.009511 2.368512
v -1.391762 -0.013171 2.364852
v -1.391762 -0.014511 2.359852
v -1.391762 -0.013171 2.354852
v -1.391762 -0.009511 2.351192
v -1.391762 -0.004511 2.349852
v -1.391762 0.000489 2.351192
v -1.391762 0.004149 2.354852
v -1.441762 0.004149 2.354852
v -1.441762 0.000489 2.351192
v -1.441762 -0.004511 2.349852
v -1.441762 -0.009511 2.351192
v -1.441762 -0.013171 2.354852
v -1.441762 -0.014511 2.359852
v -1.441762 -0.013171 2.364852
v -1.441762 -0.009511 2.368512
v -1.441762 -0.004511 2.369852
v -1.441762 0.000489 2.368512
v -1.441762 0.004149 2.364851
v -1.441762 0.005489 2.359852
usemtl mat21

vn 0.000000 1.000000 -0.000000
vn 0.000000 1.000000 -0.000000
vn 0.000000 1.000000 -0.000000
vn 0.000000 1.000000 -0.000000
vn -0.000000 0.866025 0.500000
vn -0.000000 0.866025 0.500000
vn -0.000000 0.866025 0.500000
vn -0.000000 0.866025 0.500000
vn -0.000000 0.500000 0.866025
vn -0.000000 0.500000 0.866025
vn -0.000000 0.500000 0.866025
vn -0.000000 0.500000 0.866025
vn -0.000000 -0.000000 1.000000
vn -0.000000 -0.000000 1.000000
vn -0.000000 -0.000000 1.000000
vn -0.000000 -0.000000 1.000000
vn -0.000000 -0.500000 0.866025
vn -0.000000 -0.500000 0.866025
vn -0.000000 -0.500000 0.866025
vn -0.000000 -0.500000 0.866025
vn -0.000000 -0.866025 0.500000
vn -0.000000 -0.866025 0.500000
vn -0.000000 -0.866025 0.500000
vn -0.000000 -0.866025 0.500000
vn 0.000000 -1.000000 -0.000000
vn 0.000000 -1.000000 -0.000000
vn 0.000000 -1.000000 -0.000000
vn 0.000000 -1.000000 -0.000000
vn 0.000000 -0.866025 -0.500000
vn 0.000000 -0.866025 -0.500000
vn 0.000000 -0.866025 -0.500000
vn 0.000000 -0.866025 -0.500000
vn 0.000000 -0.500000 -0.866025
vn 0.000000 -0.500000 -0.866025
vn 0.000000 -0.500000 -0.866025
vn 0.000000 -0.500000 -0.866025
vn 0.000000 0.000000 -1.000000
vn 0.000000 0.000000 -1.000000
vn 0.000000 0.000000 -1.000000
vn 0.000000 0.000000 -1.000000
vn 0.000000 0.500000 -0.866025
vn 0.000000 0.500000 -0.866025
vn 0.000000 0.500000 -0.866025
vn 0.000000 0.500000 -0.866025
vn 0.000000 0.866026 -0.500000
vn 0.000000 0.866026 -0.500000
vn 0.000000 0.866026 -0.500000
vn 0.000000 0.866026 -0.500000
vn 1.000000 -0.000000 0.000000
vn 1.000000 -0.000000 0.000000
vn 1.000000 -0.000000 0.000000
vn 1.000000 -0.000000 0.000000
vn 1.000000 -0.000000 0.000000
vn 1.000000 -0.000000 0.000000
vn 1.000000 -0.000000 0.000000
vn 1.000000 -0.000000 0.000000
vn 1.000000 -0.000000 0.000000
vn 1.000000 -0.000000 0.000000
vn 1.000000 -0.000000 0.000000
vn 1.000000 -0.000000 0.000000
vn -1.000000 0.000000 -0.000000
vn -1.000000 0.000000 -0.000000
vn -1.000000 0.000000 -0.000000
vn -1.000000 0.000000 -0.000000
vn -1.000000 0.000000 -0.000000
vn -1.000000 0.000000 -0.000000
vn -1.000000 0.000000 -0.000000
vn -1.000000 0.000000 -0.000000
vn -1.000000 0.000000 -0.000000
vn -1.000000 0.000000 -0.000000
vn -1.000000 0.000000 -0.000000
vn -1.000000 0.000000 -0.000000

vt -0.247207 -0.274114
vt -0.247678 -0.274282
vt -0.249360 -0.269574
vt -0.248889 -0.269406
vt -0.139278 -0.278409
vt -0.139714 -0.278653
vt -0.142155 -0.274289
vt -0.141719 -0.274045
vt -0.011861 -0.212388
vt -0.012288 -0.212649
vt -0.014896 -0.208383
vt -0.014470 -0.208122
vt 0.121195 -0.135058
vt 0.120748 -0.135282
vt 0.118512 -0.130810
vt 0.118959 -0.130586
vt 0.240920 -0.119276
vt 0.240436 -0.119399
vt 0.239203 -0.114554
vt 0.239687 -0.114430
vt 0.294564 -0.192774
vt 0.294065 -0.192744
vt 0.294361 -0.187753
vt 0.294860 -0.187782
vt 0.247207 -0.274114
vt 0.246736 -0.273946
vt 0.248418 -0.269237
vt 0.248889 -0.269406
vt 0.139278 -0.278409
vt 0.138841 -0.278165
vt 0.141282 -0.273801
vt 0.141719 -0.274045
vt 0.011861 -0.212388
vt 0.011435 -0.212127
vt 0.014043 -0.207861
vt 0.014470 -0.208122
vt -0.121195 -0.135058
vt -0.121642 -0.134835
vt -0.119406 -0.130363
vt -0.118959 -0.130586
vt -0.240920 -0.119276
vt -0.241405 -0.119153
vt -0.240172 -0.114307
vt -0.239687 -0.114430
vt -0.294564 -0.192774
vt -0.295063 -0.192803
vt -0.295359 -0.187812
vt -0.294860 -0.187782
vt 0.292944 -0.149030
vt 0.293273 -0.149429
vt 0.293358 -0.149940
vt 0.293177 -0.150424
vt 0.292777 -0.150753
vt 0.292266 -0.150839
vt 0.291782 -0.150657
vt 0.291453 -0.150257
vt 0.291368 -0.149747
vt 0.291549 -0.149262
vt 0.291949 -0.148933
vt 0.292459 -0.148848
vt -0.292459 -0.148848
vt -0.291949 -0.148933
vt -0.291549 -0.149262
vt -0.291368 -0.149747
vt -0.291453 -0.150257
vt -0.291782 -0.150657
vt -0.292266 -0.150839
vt -0.292777 -0.150753
vt -0.293177 -0.150424
vt -0.293358 -0.149940
vt -0.293273 -0.149429
vt -0.292944 -0.149030
s off
f 1/1/1 2/2/2 3/3/3
f 1/1/1 3/3/3 4/4/4
f 5/5/5 6/6/6 7/7/7
f 5/5/5 7/7/7 8/8/8
f 9/9/9 10/10/10 11/11/11
f 9/9/9 11/11/11 12/12/12
f 13/13/13 14/14/14 15/15/15
f 13/13/13 15/15/15 16/16/16
f 17/17/17 18/18/18 19/19/19
f 17/17/17 19/19/19 20/20/20
f 21/21/21 22/22/22 23/23/23
f 21/21/21 23/23/23 24/24/24
f 25/25/25 26/26/26 27/27/27
f 25/25/25 27/27/27 28/28/28
f 29/29/29 30/30/30 31/31/31
f 29/29/29 31/31/31 32/32/32
f 33/33/33 34/34/34 35/35/35
f 33/33/33 35/35/35 36/36/36
f 37/37/37 38/38/38 39/39/39
f 37/37/37 39/39/39 40/40/40
f 41/41/41 42/42/42 43/43/43
f 41/41/41 43/43/43 44/44/44
f 45/45/45 46/46/46 47/47/47
f 45/45/45 47/47/47 48/48/48
f 49/49/49 50/50/50 51/51/51
f 49/49/49 51/51/51 52/52/52
f 49/49/49 52/52/52 53/53/53
f 49/49/49 53/53/53 54/54/54
f 49/49/49 54/54/54 55/55/55
f 49/49/49 55/55/55 56/56/56
f 49/49/49 56/56/56 57/57/57
f 49/49/49 57/57/57 58/58/58
f 49/49/49 58/58/58 59/59/59
f 49/49/49 59/59/59 60/60/60
f 61/61/61 62/62/62 63/63/63
f 61/61/61 63/63/63 64/64/64
f 61/61/61 64/64/64 65/65/65
f 61/61/61 65/65/65 66/66/66
f 61/61/61 66/66/66 67/67/67
f 61/61/61 67/67/67 68/68/68
f 61/61/61 68/68/68 69/69/69
f 61/61/61 69/69/69 70/70/70
f 61/61/61 70/70/70 71/71/71
f 61/61/61 71/71/71 72/72/72
