# Exported using automatic converter by Erwin Coumans
mtllib model6.mtl
#object mesh2064499472

v -2.656164 -0.324052 -1.586846
v -2.684743 -0.323820 -1.586971
v -2.684434 -0.285713 -1.586993
v -2.655854 -0.285945 -1.586868
v -2.688412 -0.285159 -0.681937
v -2.688721 -0.323266 -0.681915
v -2.660141 -0.323498 -0.681790
v -2.659832 -0.285392 -0.681812
v -2.684434 -0.285713 -1.586993
v -2.688412 -0.285159 -0.681937
v -2.659832 -0.285392 -0.681812
v -2.655854 -0.285945 -1.586868
v -2.660141 -0.323498 -0.681790
v -2.688721 -0.323266 -0.681915
v -2.684743 -0.323820 -1.586971
v -2.656164 -0.324052 -1.586846
v -2.659832 -0.285392 -0.681812
v -2.660141 -0.323498 -0.681790
v -2.656164 -0.324052 -1.586846
v -2.655854 -0.285945 -1.586868
v -2.684743 -0.323820 -1.586971
v -2.688721 -0.323266 -0.681915
v -2.688412 -0.285159 -0.681937
v -2.684434 -0.285713 -1.586993
v -2.660680 -0.285897 -1.572600
v -2.708313 -0.285511 -1.572809
v -2.700728 0.292916 -1.573347
v -2.653095 0.292529 -1.573137
v -2.700812 0.292927 -1.554293
v -2.708396 -0.285499 -1.553755
v -2.660763 -0.285886 -1.553546
v -2.653179 0.292540 -1.554083
v -2.700728 0.292916 -1.573347
v -2.700812 0.292927 -1.554293
v -2.653179 0.292540 -1.554083
v -2.653095 0.292529 -1.573137
v -2.660763 -0.285886 -1.553546
v -2.708396 -0.285499 -1.553755
v -2.708313 -0.285511 -1.572809
v -2.660680 -0.285897 -1.572600
v -2.653179 0.292540 -1.554083
v -2.660763 -0.285886 -1.553546
v -2.660680 -0.285897 -1.572600
v -2.653095 0.292529 -1.573137
v -2.708313 -0.285511 -1.572809
v -2.708396 -0.285499 -1.553755
v -2.700812 0.292927 -1.554293
v -2.700728 0.292916 -1.573347
v -2.659823 -0.294930 -0.700863
v -2.707456 -0.294543 -0.701073
v -2.699872 0.283884 -0.701611
v -2.652239 0.283497 -0.701401
v -2.699955 0.283895 -0.682557
v -2.707540 -0.294531 -0.682019
v -2.659907 -0.294918 -0.681810
v -2.652323 0.283508 -0.682347
v -2.699872 0.283884 -0.701611
v -2.699955 0.283895 -0.682557
v -2.652323 0.283508 -0.682347
v -2.652239 0.283497 -0.701401
v -2.659907 -0.294918 -0.681810
v -2.707540 -0.294531 -0.682019
v -2.707456 -0.294543 -0.701073
v -2.659823 -0.294930 -0.700863
v -2.652323 0.283508 -0.682347
v -2.659907 -0.294918 -0.681810
v -2.659823 -0.294930 -0.700863
v -2.652239 0.283497 -0.701401
v -2.707456 -0.294543 -0.701073
v -2.707540 -0.294531 -0.682019
v -2.699955 0.283895 -0.682557
v -2.699872 0.283884 -0.701611
v -2.648388 0.282960 -1.577873
v -2.676969 0.283192 -1.577999
v -2.676659 0.321299 -1.578021
v -2.648079 0.321067 -1.577895
v -2.680636 0.321853 -0.672964
v -2.680945 0.283746 -0.672942
v -2.652365 0.283514 -0.672817
v -2.652056 0.321620 -0.672838
v -2.676659 0.321299 -1.578021
v -2.680636 0.321853 -0.672964
v -2.652056 0.321620 -0.672838
v -2.648079 0.321067 -1.577895
v -2.652365 0.283514 -0.672817
v -2.680945 0.283746 -0.672942
v -2.676969 0.283192 -1.577999
v -2.648388 0.282960 -1.577873
v -2.652056 0.321620 -0.672838
v -2.652365 0.283514 -0.672817
v -2.648388 0.282960 -1.577873
v -2.648079 0.321067 -1.577895
v -2.676969 0.283192 -1.577999
v -2.680945 0.283746 -0.672942
v -2.680636 0.321853 -0.672964
v -2.676659 0.321299 -1.578021
usemtl mat20

vn 0.004395 -0.000612 -0.999990
vn 0.004395 -0.000612 -0.999990
vn 0.004395 -0.000612 -0.999990
vn 0.004395 -0.000612 -0.999990
vn -0.004395 0.000612 0.999990
vn -0.004395 0.000612 0.999990
vn -0.004395 0.000612 0.999990
vn -0.004395 0.000612 0.999990
vn 0.008124 0.999967 -0.000576
vn 0.008124 0.999967 -0.000576
vn 0.008124 0.999967 -0.000576
vn 0.008124 0.999967 -0.000576
vn -0.008124 -0.999967 0.000576
vn -0.008124 -0.999967 0.000576
vn -0.008124 -0.999967 0.000576
vn -0.008124 -0.999967 0.000576
vn 0.999957 -0.008121 0.004400
vn 0.999957 -0.008121 0.004400
vn 0.999957 -0.008121 0.004400
vn 0.999957 -0.008121 0.004400
vn -0.999957 0.008121 -0.004400
vn -0.999957 0.008121 -0.004400
vn -0.999957 0.008121 -0.004400
vn -0.999957 0.008121 -0.004400
vn 0.004390 -0.000987 -0.999990
vn 0.004390 -0.000987 -0.999990
vn 0.004390 -0.000987 -0.999990
vn 0.004390 -0.000987 -0.999990
vn -0.004392 0.000987 0.999990
vn -0.004392 0.000987 0.999990
vn -0.004392 0.000987 0.999990
vn -0.004392 0.000987 0.999990
vn 0.008124 0.999967 -0.000576
vn 0.008124 0.999967 -0.000576
vn 0.008124 0.999967 -0.000576
vn 0.008124 0.999967 -0.000576
vn -0.008124 -0.999967 0.000576
vn -0.008124 -0.999967 0.000576
vn -0.008124 -0.999967 0.000576
vn -0.008124 -0.999967 0.000576
vn 0.999904 -0.013107 0.004402
vn 0.999904 -0.013107 0.004402
vn 0.999904 -0.013107 0.004402
vn 0.999904 -0.013107 0.004402
vn -0.999904 0.013107 -0.004403
vn -0.999904 0.013107 -0.004403
vn -0.999904 0.013107 -0.004403
vn -0.999904 0.013107 -0.004403
vn 0.004390 -0.000987 -0.999990
vn 0.004390 -0.000987 -0.999990
vn 0.004390 -0.000987 -0.999990
vn 0.004390 -0.000987 -0.999990
vn -0.004392 0.000987 0.999990
vn -0.004392 0.000987 0.999990
vn -0.004392 0.000987 0.999990
vn -0.004392 0.000987 0.999990
vn 0.008124 0.999967 -0.000576
vn 0.008124 0.999967 -0.000576
vn 0.008124 0.999967 -0.000576
vn 0.008124 0.999967 -0.000576
vn -0.008124 -0.999967 0.000576
vn -0.008124 -0.999967 0.000576
vn -0.008124 -0.999967 0.000576
vn -0.008124 -0.999967 0.000576
vn 0.999904 -0.013107 0.004402
vn 0.999904 -0.013107 0.004402
vn 0.999904 -0.013107 0.004402
vn 0.999904 -0.013107 0.004402
vn -0.999904 0.013107 -0.004403
vn -0.999904 0.013107 -0.004403
vn -0.999904 0.013107 -0.004403
vn -0.999904 0.013107 -0.004403
vn 0.004384 -0.000612 -0.999990
vn 0.004384 -0.000612 -0.999990
vn 0.004384 -0.000612 -0.999990
vn 0.004384 -0.000612 -0.999990
vn -0.004395 0.000612 0.999990
vn -0.004395 0.000612 0.999990
vn -0.004395 0.000612 0.999990
vn -0.004395 0.000612 0.999990
vn 0.008124 0.999967 -0.000576
vn 0.008124 0.999967 -0.000576
vn 0.008124 0.999967 -0.000576
vn 0.008124 0.999967 -0.000576
vn -0.008124 -0.999967 0.000576
vn -0.008124 -0.999967 0.000576
vn -0.008124 -0.999967 0.000576
vn -0.008124 -0.999967 0.000576
vn 0.999957 -0.008121 0.004400
vn 0.999957 -0.008121 0.004400
vn 0.999957 -0.008121 0.004400
vn 0.999957 -0.008121 0.004400
vn -0.999957 0.008121 -0.004400
vn -0.999957 0.008121 -0.004400
vn -0.999957 0.008121 -0.004400
vn -0.999957 0.008121 -0.004400

vt -0.147306 -0.258102
vt -0.148607 -0.260646
vt -0.152000 -0.258912
vt -0.150699 -0.256367
vt 0.152000 -0.258912
vt 0.148607 -0.260646
vt 0.147306 -0.258102
vt 0.150699 -0.256367
vt 0.166590 -0.258368
vt 0.081523 -0.289272
vt 0.080547 -0.286586
vt 0.165614 -0.255682
vt -0.080547 -0.286586
vt -0.081523 -0.289272
vt -0.166590 -0.258368
vt -0.165614 -0.255682
vt 0.028186 0.001424
vt 0.025978 -0.001682
vt -0.047797 0.050746
vt -0.045589 0.053852
vt 0.047797 0.050746
vt -0.025978 -0.001682
vt -0.028186 0.001424
vt 0.045589 0.053852
vt -0.150966 -0.256763
vt -0.153135 -0.261005
vt -0.204507 -0.234411
vt -0.202339 -0.230170
vt 0.204507 -0.234411
vt 0.153134 -0.261005
vt 0.150965 -0.256764
vt 0.202338 -0.230170
vt 0.165982 -0.260816
vt 0.164191 -0.261466
vt 0.162565 -0.256989
vt 0.164356 -0.256339
vt -0.162643 -0.257268
vt -0.164269 -0.261745
vt -0.166060 -0.261094
vt -0.164434 -0.256617
vt -0.010686 0.097830
vt -0.043962 0.050511
vt -0.045520 0.051608
vt -0.012244 0.098927
vt 0.045534 0.051589
vt 0.043975 0.050492
vt 0.010700 0.097811
vt 0.012258 0.098907
vt -0.149872 -0.256788
vt -0.152040 -0.261029
vt -0.203413 -0.234436
vt -0.201244 -0.230194
vt 0.203413 -0.234436
vt 0.152040 -0.261029
vt 0.149871 -0.256788
vt 0.201244 -0.230195
vt 0.083887 -0.290133
vt 0.082096 -0.290784
vt 0.080469 -0.286307
vt 0.082260 -0.285656
vt -0.080547 -0.286585
vt -0.082174 -0.291062
vt -0.083965 -0.290412
vt -0.082338 -0.285935
vt 0.060054 0.046882
vt 0.026778 -0.000436
vt 0.025220 0.000660
vt 0.058496 0.047979
vt -0.025206 0.000641
vt -0.026765 -0.000456
vt -0.060040 0.046863
vt -0.058482 0.047959
vt -0.201226 -0.230212
vt -0.202527 -0.232757
vt -0.205920 -0.231023
vt -0.204619 -0.228478
vt 0.205920 -0.231023
vt 0.202527 -0.232758
vt 0.201226 -0.230213
vt 0.204619 -0.228478
vt 0.165616 -0.258415
vt 0.080549 -0.289319
vt 0.079574 -0.286632
vt 0.164641 -0.255728
vt -0.079574 -0.286632
vt -0.080549 -0.289319
vt -0.165616 -0.258415
vt -0.164641 -0.255728
vt 0.064109 0.050368
vt 0.061902 0.047261
vt -0.011873 0.099689
vt -0.009666 0.102795
vt 0.011873 0.099689
vt -0.061902 0.047261
vt -0.064109 0.050368
vt 0.009666 0.102795
s off
f 1/1/1 2/2/2 3/3/3
f 1/1/1 3/3/3 4/4/4
f 5/5/5 6/6/6 7/7/7
f 5/5/5 7/7/7 8/8/8
f 9/9/9 10/10/10 11/11/11
f 9/9/9 11/11/11 12/12/12
f 13/13/13 14/14/14 15/15/15
f 13/13/13 15/15/15 16/16/16
f 17/17/17 18/18/18 19/19/19
f 17/17/17 19/19/19 20/20/20
f 21/21/21 22/22/22 23/23/23
f 21/21/21 23/23/23 24/24/24
f 25/25/25 26/26/26 27/27/27
f 25/25/25 27/27/27 28/28/28
f 29/29/29 30/30/30 31/31/31
f 29/29/29 31/31/31 32/32/32
f 33/33/33 34/34/34 35/35/35
f 33/33/33 35/35/35 36/36/36
f 37/37/37 38/38/38 39/39/39
f 37/37/37 39/39/39 40/40/40
f 41/41/41 42/42/42 43/43/43
f 41/41/41 43/43/43 44/44/44
f 45/45/45 46/46/46 47/47/47
f 45/45/45 47/47/47 48/48/48
f 49/49/49 50/50/50 51/51/51
f 49/49/49 51/51/51 52/52/52
f 53/53/53 54/54/54 55/55/55
f 53/53/53 55/55/55 56/56/56
f 57/57/57 58/58/58 59/59/59
f 57/57/57 59/59/59 60/60/60
f 61/61/61 62/62/62 63/63/63
f 61/61/61 63/63/63 64/64/64
f 65/65/65 66/66/66 67/67/67
f 65/65/65 67/67/67 68/68/68
f 69/69/69 70/70/70 71/71/71
f 69/69/69 71/71/71 72/72/72
f 73/73/73 74/74/74 75/75/75
f 73/73/73 75/75/75 76/76/76
f 77/77/77 78/78/78 79/79/79
f 77/77/77 79/79/79 80/80/80
f 81/81/81 82/82/82 83/83/83
f 81/81/81 83/83/83 84/84/84
f 85/85/85 86/86/86 87/87/87
f 85/85/85 87/87/87 88/88/88
f 89/89/89 90/90/90 91/91/91
f 89/89/89 91/91/91 92/92/92
f 93/93/93 94/94/94 95/95/95
f 93/93/93 95/95/95 96/96/96
