# Exported using automatic converter by Erwin Coumans
mtllib botlab.mtl
#object mesh1328654137

v 1.890233 0.742062 -3.070940
v 1.890554 0.739709 -2.950963
v 1.867746 0.462882 -2.956331
v 1.867424 0.465235 -3.076307
v 1.748151 0.472726 -2.955818
v 1.770959 0.749553 -2.950450
v 1.770638 0.751906 -3.070427
v 1.747830 0.475079 -3.075794
v 1.867746 0.462882 -2.956331
v 1.748151 0.472726 -2.955818
v 1.747830 0.475079 -3.075794
v 1.867424 0.465235 -3.076307
v 1.770638 0.751906 -3.070427
v 1.770959 0.749553 -2.950450
v 1.890554 0.739709 -2.950963
v 1.890233 0.742062 -3.070940
v 1.747830 0.475079 -3.075794
v 1.770638 0.751906 -3.070427
v 1.890233 0.742062 -3.070940
v 1.867424 0.465235 -3.076307
v 1.890554 0.739709 -2.950963
v 1.770959 0.749553 -2.950450
v 1.748151 0.472726 -2.955818
v 1.867746 0.462882 -2.956331
usemtl mat22

vn 0.996621 -0.082030 -0.004276
vn 0.996621 -0.082030 -0.004276
vn 0.996621 -0.082030 -0.004276
vn 0.996621 -0.082030 -0.004276
vn -0.996621 0.082030 0.004276
vn -0.996621 0.082030 0.004276
vn -0.996621 0.082030 0.004276
vn -0.996621 0.082030 0.004276
vn -0.082098 -0.996437 -0.019320
vn -0.082098 -0.996437 -0.019320
vn -0.082098 -0.996437 -0.019320
vn -0.082098 -0.996437 -0.019320
vn 0.082098 0.996437 0.019320
vn 0.082098 0.996437 0.019320
vn 0.082098 0.996437 0.019320
vn 0.082098 0.996437 0.019320
vn -0.002676 0.019605 -0.999804
vn -0.002676 0.019605 -0.999804
vn -0.002676 0.019605 -0.999804
vn -0.002676 0.019605 -0.999804
vn 0.002676 -0.019605 0.999804
vn 0.002676 -0.019605 0.999804
vn 0.002676 -0.019605 0.999804
vn 0.002676 -0.019605 0.999804

vt -0.115492 0.228537
vt -0.105362 0.222103
vt -0.120257 0.198652
vt -0.130387 0.205086
vt 0.120257 0.198652
vt 0.105362 0.222103
vt 0.115492 0.228537
vt 0.130387 0.205086
vt -0.141594 0.212804
vt -0.145862 0.201588
vt -0.157077 0.205856
vt -0.152810 0.217071
vt 0.157077 0.205856
vt 0.145862 0.201588
vt 0.141594 0.212804
vt 0.152810 0.217071
vt -0.018370 0.170169
vt -0.042202 0.184447
vt -0.036035 0.194741
vt -0.012203 0.180463
vt 0.036035 0.194741
vt 0.042203 0.184447
vt 0.018370 0.170169
vt 0.012203 0.180463
s off
f 1/1/1 2/2/2 3/3/3
f 1/1/1 3/3/3 4/4/4
f 5/5/5 6/6/6 7/7/7
f 5/5/5 7/7/7 8/8/8
f 9/9/9 10/10/10 11/11/11
f 9/9/9 11/11/11 12/12/12
f 13/13/13 14/14/14 15/15/15
f 13/13/13 15/15/15 16/16/16
f 17/17/17 18/18/18 19/19/19
f 17/17/17 19/19/19 20/20/20
f 21/21/21 22/22/22 23/23/23
f 21/21/21 23/23/23 24/24/24
