# Exported using automatic converter by Erwin Coumans
mtllib botlab.mtl
#object mesh1843771532

v -2.043839 -0.989834 0.931828
v -2.053723 -0.986143 0.836659
v -2.052821 -1.055899 0.830888
v -2.042937 -1.059590 0.926058
v -1.964749 -1.061487 0.912203
v -1.965651 -0.991731 0.917974
v -1.955767 -0.995422 1.013143
v -1.954865 -1.065178 1.007372
v -2.052821 -1.055899 0.830888
v -1.964749 -1.061487 0.912203
v -1.954865 -1.065178 1.007372
v -2.042937 -1.059590 0.926058
v -1.955767 -0.995422 1.013143
v -1.965651 -0.991731 0.917974
v -2.053723 -0.986143 0.836659
v -2.043839 -0.989834 0.931828
v -1.954865 -1.065178 1.007372
v -1.955767 -0.995422 1.013143
v -2.043839 -0.989834 0.931828
v -2.042937 -1.059590 0.926058
v -2.053723 -0.986143 0.836659
v -1.965651 -0.991731 0.917974
v -1.964749 -1.061487 0.912203
v -2.052821 -1.055899 0.830888
v -2.031753 -0.999606 1.300330
v -2.039342 -0.995949 1.204949
v -2.034417 -1.065515 1.198924
v -2.026829 -1.069173 1.294305
v -1.948321 -1.066659 1.282507
v -1.953246 -0.997093 1.288532
v -1.945657 -1.000751 1.383913
v -1.940733 -1.070317 1.377889
v -2.034417 -1.065515 1.198924
v -1.948321 -1.066659 1.282507
v -1.940733 -1.070317 1.377889
v -2.026829 -1.069173 1.294305
v -1.945657 -1.000751 1.383913
v -1.953246 -0.997093 1.288532
v -2.039342 -0.995949 1.204949
v -2.031753 -0.999606 1.300330
v -1.940733 -1.070317 1.377889
v -1.945657 -1.000751 1.383913
v -2.031753 -0.999606 1.300330
v -2.026829 -1.069173 1.294305
v -2.039342 -0.995949 1.204949
v -1.953246 -0.997093 1.288532
v -1.948321 -1.066659 1.282507
v -2.034417 -1.065515 1.198924
v -2.040811 -0.992360 1.117970
v -2.046969 -0.990143 1.022441
v -2.043145 -1.059871 1.017616
v -2.036987 -1.062088 1.113144
v -1.958287 -1.061089 1.102455
v -1.962111 -0.991360 1.107280
v -1.955953 -0.993577 1.202809
v -1.952129 -1.063306 1.197983
v -2.043145 -1.059871 1.017616
v -1.958287 -1.061089 1.102455
v -1.952129 -1.063306 1.197983
v -2.036987 -1.062088 1.113144
v -1.955953 -0.993577 1.202809
v -1.962111 -0.991360 1.107280
v -2.046969 -0.990143 1.022441
v -2.040811 -0.992360 1.117970
v -1.952129 -1.063306 1.197983
v -1.955953 -0.993577 1.202809
v -2.040811 -0.992360 1.117970
v -2.036987 -1.062088 1.113144
v -2.046969 -0.990143 1.022441
v -1.962111 -0.991360 1.107280
v -1.958287 -1.061089 1.102455
v -2.043145 -1.059871 1.017616
v -2.028581 -0.996076 1.484729
v -2.032341 -0.994635 1.389061
v -2.024139 -1.064018 1.384738
v -2.020379 -1.065459 1.480405
v -1.941633 -1.059688 1.471767
v -1.949835 -0.990305 1.476091
v -1.946076 -0.991746 1.571759
v -1.937874 -1.061129 1.567435
v -2.024139 -1.064018 1.384738
v -1.941633 -1.059688 1.471767
v -1.937874 -1.061129 1.567435
v -2.020379 -1.065459 1.480405
v -1.946076 -0.991746 1.571759
v -1.949835 -0.990305 1.476091
v -2.032341 -0.994635 1.389061
v -2.028581 -0.996076 1.484729
v -1.937874 -1.061129 1.567435
v -1.946076 -0.991746 1.571759
v -2.028581 -0.996076 1.484729
v -2.020379 -1.065459 1.480405
v -2.032341 -0.994635 1.389061
v -1.949835 -0.990305 1.476091
v -1.941633 -1.059688 1.471767
v -2.024139 -1.064018 1.384738
v -2.034078 -0.996376 1.208539
v -2.044957 -0.992530 1.113485
v -2.042415 -1.062218 1.107398
v -2.031536 -1.066065 1.202453
v -1.953461 -1.066000 1.187852
v -1.956003 -0.996312 1.193938
v -1.945123 -1.000158 1.288993
v -1.942582 -1.069847 1.282907
v -2.042415 -1.062218 1.107398
v -1.953461 -1.066000 1.187852
v -1.942582 -1.069847 1.282907
v -2.031536 -1.066065 1.202453
v -1.945123 -1.000158 1.288993
v -1.956003 -0.996312 1.193938
v -2.044957 -0.992530 1.113485
v -2.034078 -0.996376 1.208539
v -1.942582 -1.069847 1.282907
v -1.945123 -1.000158 1.288993
v -2.034078 -0.996376 1.208539
v -2.031536 -1.066065 1.202453
v -2.044957 -0.992530 1.113485
v -1.956003 -0.996312 1.193938
v -1.953461 -1.066000 1.187852
v -2.042415 -1.062218 1.107398
v -2.048398 -0.986848 0.840113
v -2.051547 -0.992785 0.795355
v -2.053032 -1.062531 0.789585
v -2.049882 -1.056594 0.834344
v -1.972335 -1.060924 0.817712
v -1.970851 -0.991178 0.823481
v -1.957701 -0.995241 0.918239
v -1.959186 -1.064987 0.912470
v -1.972335 -1.060924 0.817712
v -1.959186 -1.064987 0.912470
v -2.049882 -1.056594 0.834344
v -1.957701 -0.995241 0.918239
v -1.970851 -0.991178 0.823481
v -2.048398 -0.986848 0.840113
v -1.959186 -1.064987 0.912470
v -1.957701 -0.995241 0.918239
v -2.048398 -0.986848 0.840113
v -2.049882 -1.056594 0.834344
v -2.051547 -0.992785 0.795355
v -1.970851 -0.991178 0.823481
v -1.972335 -1.060924 0.817712
v -2.053032 -1.062531 0.789585
v -1.970851 -0.991178 0.823481
v -2.051547 -0.992785 0.795355
v -2.048398 -0.986848 0.840113
v -2.049882 -1.056594 0.834344
v -2.053032 -1.062531 0.789585
v -1.972335 -1.060924 0.817712
v -2.027217 -0.994757 1.392871
v -2.034283 -0.993267 1.297392
v -2.028451 -1.062880 1.292912
v -2.021385 -1.064369 1.388392
v -1.942847 -1.061119 1.376988
v -1.948679 -0.991506 1.381468
v -1.941613 -0.992996 1.476948
v -1.935781 -1.062608 1.472468
v -2.028451 -1.062880 1.292912
v -1.942847 -1.061119 1.376988
v -1.935781 -1.062608 1.472468
v -2.021385 -1.064369 1.388392
v -1.941613 -0.992996 1.476948
v -1.948679 -0.991506 1.381468
v -2.034283 -0.993267 1.297392
v -2.027217 -0.994757 1.392871
v -1.935781 -1.062608 1.472468
v -1.941613 -0.992996 1.476948
v -2.027217 -0.994757 1.392871
v -2.021385 -1.064369 1.388392
v -2.034283 -0.993267 1.297392
v -1.948679 -0.991506 1.381468
v -1.942847 -1.061119 1.376988
v -2.028451 -1.062880 1.292912
v -2.041765 -0.990599 1.026114
v -2.051214 -0.988132 0.930861
v -2.049774 -1.057944 0.925942
v -2.040324 -1.060411 1.021195
v -1.962058 -1.061898 1.007736
v -1.963499 -0.992086 1.012656
v -1.954050 -0.994553 1.107909
v -1.952609 -1.064365 1.102990
v -2.049774 -1.057944 0.925942
v -1.962058 -1.061898 1.007736
v -1.952609 -1.064365 1.102990
v -2.040324 -1.060411 1.021195
v -1.954050 -0.994553 1.107909
v -1.963499 -0.992086 1.012656
v -2.051214 -0.988132 0.930861
v -2.041765 -0.990599 1.026114
v -1.952609 -1.064365 1.102990
v -1.954050 -0.994553 1.107909
v -2.041765 -0.990599 1.026114
v -2.040324 -1.060411 1.021195
v -2.051214 -0.988132 0.930861
v -1.963499 -0.992086 1.012656
v -1.962058 -1.061898 1.007736
v -2.049774 -1.057944 0.925942
usemtl mat23

vn -0.994508 -0.021332 0.102462
vn -0.994508 -0.021332 0.102462
vn -0.994508 -0.021332 0.102462
vn -0.994508 -0.021332 0.102462
vn 0.994508 0.021332 -0.102461
vn 0.994508 0.021332 -0.102461
vn 0.994508 0.021332 -0.102461
vn 0.994508 0.021332 -0.102461
vn -0.030545 -0.998901 -0.035563
vn -0.030545 -0.998901 -0.035563
vn -0.030545 -0.998901 -0.035563
vn -0.030545 -0.998901 -0.035563
vn 0.030545 0.998901 0.035563
vn 0.030545 0.998901 0.035563
vn 0.030545 0.998901 0.035563
vn 0.030545 0.998901 0.035563
vn -0.679099 -0.069230 0.730775
vn -0.679099 -0.069230 0.730775
vn -0.679099 -0.069230 0.730775
vn -0.679099 -0.069230 0.730775
vn 0.679099 0.069230 -0.730775
vn 0.679099 0.069230 -0.730775
vn 0.679099 0.069230 -0.730775
vn 0.679099 0.069230 -0.730775
vn -0.994122 -0.076963 0.076144
vn -0.994122 -0.076963 0.076144
vn -0.994122 -0.076963 0.076144
vn -0.994122 -0.076963 0.076144
vn 0.994122 0.076963 -0.076143
vn 0.994122 0.076963 -0.076143
vn 0.994122 0.076963 -0.076143
vn 0.994122 0.076963 -0.076143
vn 0.025912 -0.998849 -0.040365
vn 0.025912 -0.998849 -0.040365
vn 0.025912 -0.998849 -0.040365
vn 0.025912 -0.998849 -0.040365
vn -0.025912 0.998849 0.040365
vn -0.025912 0.998849 0.040365
vn -0.025912 0.998849 0.040365
vn -0.025912 0.998849 0.040365
vn -0.693032 -0.110747 0.712350
vn -0.693032 -0.110747 0.712350
vn -0.693032 -0.110747 0.712350
vn -0.693032 -0.110747 0.712350
vn 0.693032 0.110747 -0.712350
vn 0.693032 0.110747 -0.712350
vn 0.693032 0.110747 -0.712350
vn 0.693032 0.110747 -0.712350
vn -0.996278 -0.058986 0.062854
vn -0.996278 -0.058986 0.062854
vn -0.996278 -0.058986 0.062854
vn -0.996278 -0.058986 0.062854
vn 0.996278 0.058986 -0.062853
vn 0.996278 0.058986 -0.062853
vn 0.996278 0.058986 -0.062853
vn 0.996278 0.058986 -0.062853
vn 0.009464 -0.999672 -0.023810
vn 0.009464 -0.999672 -0.023810
vn 0.009464 -0.999672 -0.023810
vn 0.009464 -0.999672 -0.023810
vn -0.009464 0.999672 0.023810
vn -0.009464 0.999672 0.023810
vn -0.009464 0.999672 0.023810
vn -0.009464 0.999672 0.023810
vn -0.704953 -0.087367 0.703852
vn -0.704953 -0.087367 0.703852
vn -0.704953 -0.087367 0.703852
vn -0.704953 -0.087367 0.703852
vn 0.704953 0.087367 -0.703852
vn 0.704953 0.087367 -0.703852
vn 0.704953 0.087367 -0.703852
vn 0.704953 0.087367 -0.703852
vn -0.992126 -0.119600 0.037184
vn -0.992126 -0.119600 0.037184
vn -0.992126 -0.119600 0.037184
vn -0.992126 -0.119600 0.037184
vn 0.992126 0.119600 -0.037183
vn 0.992126 0.119600 -0.037183
vn 0.992126 0.119600 -0.037183
vn 0.992126 0.119600 -0.037183
vn 0.071135 -0.997307 -0.017819
vn 0.071135 -0.997307 -0.017819
vn 0.071135 -0.997307 -0.017819
vn 0.071135 -0.997307 -0.017819
vn -0.071135 0.997307 0.017819
vn -0.071135 0.997307 0.017819
vn -0.071135 0.997307 0.017819
vn -0.071135 0.997307 0.017819
vn -0.716625 -0.127447 0.685716
vn -0.716625 -0.127447 0.685716
vn -0.716625 -0.127447 0.685716
vn -0.716625 -0.127447 0.685716
vn 0.716625 0.127447 -0.685716
vn 0.716625 0.127447 -0.685716
vn 0.716625 0.127447 -0.685716
vn 0.716625 0.127447 -0.685716
vn -0.992672 -0.045965 0.111756
vn -0.992672 -0.045965 0.111756
vn -0.992672 -0.045965 0.111756
vn -0.992672 -0.045965 0.111756
vn 0.992672 0.045965 -0.111755
vn 0.992672 0.045965 -0.111755
vn 0.992672 0.045965 -0.111755
vn 0.992672 0.045965 -0.111755
vn -0.006596 -0.999191 -0.039677
vn -0.006596 -0.999191 -0.039677
vn -0.006596 -0.999191 -0.039677
vn -0.006596 -0.999191 -0.039677
vn 0.006596 0.999191 0.039678
vn 0.006596 0.999191 0.039678
vn 0.006596 0.999191 0.039678
vn 0.006596 0.999191 0.039678
vn -0.670205 -0.088796 0.736845
vn -0.670205 -0.088796 0.736845
vn -0.670205 -0.088796 0.736845
vn -0.670205 -0.088796 0.736845
vn 0.670205 0.088796 -0.736845
vn 0.670205 0.088796 -0.736845
vn 0.670205 0.088796 -0.736845
vn 0.670205 0.088796 -0.736845
vn -0.997554 0.015600 0.068130
vn -0.997554 0.015600 0.068130
vn -0.997554 0.015600 0.068130
vn -0.997554 0.015600 0.068130
vn 0.990405 -0.009680 -0.137853
vn 0.990405 -0.009680 -0.137853
vn 0.990405 -0.009680 -0.137853
vn 0.990405 -0.009680 -0.137853
vn -0.062992 -0.997434 -0.034026
vn -0.062992 -0.997434 -0.034026
vn -0.062992 -0.997434 -0.034026
vn 0.062992 0.997434 0.034026
vn 0.062992 0.997434 0.034026
vn 0.062992 0.997434 0.034026
vn -0.654454 -0.048482 0.754546
vn -0.654454 -0.048482 0.754546
vn -0.654454 -0.048482 0.754546
vn -0.654454 -0.048482 0.754546
vn 0.327033 0.070985 -0.942343
vn 0.327033 0.070985 -0.942343
vn 0.327033 0.070985 -0.942343
vn 0.327033 0.070985 -0.942343
vn 0.026730 0.990716 -0.133296
vn 0.026730 0.990716 -0.133296
vn 0.026730 0.990716 -0.133296
vn -0.026730 -0.990716 0.133295
vn -0.026730 -0.990716 0.133295
vn -0.026730 -0.990716 0.133295
vn -0.993515 -0.087875 0.072153
vn -0.993515 -0.087875 0.072153
vn -0.993515 -0.087875 0.072153
vn -0.993515 -0.087875 0.072153
vn 0.993515 0.087875 -0.072152
vn 0.993515 0.087875 -0.072152
vn 0.993515 0.087875 -0.072152
vn 0.993515 0.087875 -0.072152
vn 0.038673 -0.999082 -0.018450
vn 0.038673 -0.999082 -0.018450
vn 0.038673 -0.999082 -0.018450
vn 0.038673 -0.999082 -0.018450
vn -0.038673 0.999082 0.018450
vn -0.038673 0.999082 0.018450
vn -0.038673 0.999082 0.018450
vn -0.038673 0.999082 0.018450
vn -0.695819 -0.104024 0.710644
vn -0.695819 -0.104024 0.710644
vn -0.695819 -0.104024 0.710644
vn -0.695819 -0.104024 0.710644
vn 0.695819 0.104024 -0.710644
vn 0.695819 0.104024 -0.710644
vn 0.695819 0.104024 -0.710644
vn 0.695819 0.104024 -0.710644
vn -0.994810 -0.027436 0.097977
vn -0.994810 -0.027436 0.097977
vn -0.994810 -0.027436 0.097977
vn -0.994810 -0.027436 0.097977
vn 0.994811 0.027436 -0.097977
vn 0.994811 0.027436 -0.097977
vn 0.994811 0.027436 -0.097977
vn 0.994811 0.027436 -0.097977
vn -0.023051 -0.999456 -0.023592
vn -0.023051 -0.999456 -0.023592
vn -0.023051 -0.999456 -0.023592
vn -0.023051 -0.999456 -0.023592
vn 0.023051 0.999456 0.023592
vn 0.023051 0.999456 0.023592
vn 0.023051 0.999456 0.023592
vn 0.023051 0.999456 0.023592
vn -0.682109 -0.065403 0.728320
vn -0.682109 -0.065403 0.728320
vn -0.682109 -0.065403 0.728320
vn -0.682109 -0.065403 0.728320
vn 0.682109 0.065403 -0.728320
vn 0.682109 0.065403 -0.728320
vn 0.682109 0.065403 -0.728320
vn 0.682109 0.065403 -0.728320

vt -0.117797 -0.113365
vt -0.109512 -0.108565
vt -0.105750 -0.114468
vt -0.114035 -0.119268
vt 0.113358 -0.119316
vt 0.117119 -0.113412
vt 0.125404 -0.118212
vt 0.121643 -0.124116
vt 0.079268 -0.281005
vt 0.090015 -0.275667
vt 0.099268 -0.278130
vt 0.088521 -0.283468
vt -0.099467 -0.278531
vt -0.090214 -0.276068
vt -0.079467 -0.281406
vt -0.088720 -0.283869
vt -0.003898 -0.052362
vt 0.001119 -0.047480
vt 0.009487 -0.056082
vt 0.004470 -0.060963
vt -0.014212 -0.061518
vt -0.005844 -0.052917
vt -0.000827 -0.057798
vt -0.009195 -0.066399
vt -0.149057 -0.137944
vt -0.141299 -0.132332
vt -0.136961 -0.137825
vt -0.144719 -0.143437
vt 0.144040 -0.143416
vt 0.148378 -0.137923
vt 0.156137 -0.143535
vt 0.151798 -0.149028
vt 0.115613 -0.294341
vt 0.126450 -0.289187
vt 0.135660 -0.291808
vt 0.124823 -0.296962
vt -0.135852 -0.292212
vt -0.126642 -0.289591
vt -0.115805 -0.294745
vt -0.125015 -0.297366
vt -0.015572 -0.016995
vt -0.010246 -0.012452
vt -0.002458 -0.021581
vt -0.007783 -0.026124
vt -0.001902 -0.027314
vt 0.005886 -0.018185
vt 0.011211 -0.022729
vt 0.003423 -0.031858
vt -0.134233 -0.133200
vt -0.126398 -0.127695
vt -0.122136 -0.133247
vt -0.129970 -0.138752
vt 0.129291 -0.138741
vt 0.133554 -0.133188
vt 0.141388 -0.138693
vt 0.137125 -0.144246
vt 0.099085 -0.287407
vt 0.109975 -0.282366
vt 0.119157 -0.285082
vt 0.108267 -0.290123
vt -0.119345 -0.285488
vt -0.110163 -0.282772
vt -0.099273 -0.287813
vt -0.108455 -0.290529
vt -0.014695 -0.029577
vt -0.009574 -0.024805
vt -0.001394 -0.033586
vt -0.006516 -0.038357
vt -0.003212 -0.039123
vt 0.004967 -0.030343
vt 0.010089 -0.035114
vt 0.001909 -0.043895
vt -0.159927 -0.164749
vt -0.152731 -0.158432
vt -0.147896 -0.163494
vt -0.155092 -0.169810
vt 0.154418 -0.169726
vt 0.159253 -0.164664
vt 0.166450 -0.170980
vt 0.161615 -0.176042
vt 0.136350 -0.299229
vt 0.147308 -0.294337
vt 0.156451 -0.297179
vt 0.145494 -0.302070
vt -0.156634 -0.297587
vt -0.147490 -0.294746
vt -0.136532 -0.299637
vt -0.145676 -0.302479
vt -0.025787 0.007215
vt -0.020315 0.011581
vt -0.012831 0.002202
vt -0.018302 -0.002165
vt 0.008661 -0.003672
vt 0.016146 0.005708
vt 0.021617 0.001342
vt 0.014132 -0.008038
vt -0.141963 -0.121019
vt -0.133719 -0.116149
vt -0.129907 -0.122020
vt -0.138151 -0.126890
vt 0.137473 -0.126932
vt 0.141285 -0.121061
vt 0.149529 -0.125931
vt 0.145718 -0.131802
vt 0.105872 -0.290946
vt 0.116550 -0.285472
vt 0.125834 -0.287817
vt 0.115155 -0.293291
vt -0.126038 -0.288215
vt -0.116755 -0.285870
vt -0.106076 -0.291344
vt -0.115359 -0.293689
vt -0.010560 -0.035148
vt -0.005319 -0.030507
vt 0.002636 -0.039491
vt -0.002605 -0.044132
vt -0.007101 -0.045143
vt 0.000854 -0.036159
vt 0.006095 -0.040800
vt -0.001860 -0.049784
vt -0.110313 -0.123566
vt -0.106106 -0.121896
vt -0.102193 -0.127701
vt -0.106400 -0.129370
vt 0.103417 -0.108981
vt 0.106680 -0.102789
vt 0.115332 -0.106892
vt 0.112068 -0.113084
vt 0.080135 -0.271508
vt 0.089456 -0.273699
vt 0.078870 -0.279349
vt -0.089667 -0.274094
vt -0.080346 -0.271903
vt -0.079081 -0.279744
vt 0.001646 -0.069112
vt 0.006588 -0.064154
vt 0.015087 -0.072625
vt 0.010146 -0.077583
vt -0.050539 -0.163432
vt -0.046588 -0.155852
vt -0.040607 -0.159490
vt -0.044559 -0.167070
vt -0.093320 -0.262497
vt -0.088363 -0.269460
vt -0.092786 -0.270422
vt 0.091354 -0.269969
vt 0.086931 -0.269007
vt 0.091888 -0.262044
vt -0.156566 -0.144060
vt -0.148791 -0.138472
vt -0.144469 -0.143979
vt -0.152245 -0.149567
vt 0.151566 -0.149548
vt 0.155887 -0.144041
vt 0.163662 -0.149629
vt 0.159341 -0.155136
vt 0.126651 -0.295911
vt 0.137457 -0.290695
vt 0.146682 -0.293261
vt 0.135875 -0.298478
vt -0.146877 -0.293664
vt -0.137652 -0.291097
vt -0.126845 -0.296314
vt -0.136070 -0.298881
vt -0.021149 -0.011593
vt -0.015766 -0.007119
vt -0.008095 -0.016347
vt -0.013478 -0.020821
vt 0.003809 -0.022136
vt 0.011480 -0.012907
vt 0.016863 -0.017382
vt 0.009192 -0.026610
vt -0.126252 -0.118658
vt -0.117969 -0.113855
vt -0.114205 -0.119757
vt -0.122489 -0.124560
vt 0.121811 -0.124607
vt 0.125575 -0.118705
vt 0.133858 -0.123508
vt 0.130094 -0.129410
vt 0.089377 -0.283665
vt 0.100115 -0.278307
vt 0.109372 -0.280753
vt 0.098635 -0.286111
vt -0.109572 -0.281154
vt -0.100314 -0.278708
vt -0.089577 -0.284066
vt -0.098835 -0.286512
vt -0.009177 -0.046965
vt -0.004131 -0.042113
vt 0.004186 -0.050763
vt -0.000859 -0.055615
vt -0.008880 -0.056226
vt -0.000562 -0.047577
vt 0.004483 -0.052429
vt -0.003834 -0.061078
s off
f 1/1/1 2/2/2 3/3/3
f 1/1/1 3/3/3 4/4/4
f 5/5/5 6/6/6 7/7/7
f 5/5/5 7/7/7 8/8/8
f 9/9/9 10/10/10 11/11/11
f 9/9/9 11/11/11 12/12/12
f 13/13/13 14/14/14 15/15/15
f 13/13/13 15/15/15 16/16/16
f 17/17/17 18/18/18 19/19/19
f 17/17/17 19/19/19 20/20/20
f 21/21/21 22/22/22 23/23/23
f 21/21/21 23/23/23 24/24/24
f 25/25/25 26/26/26 27/27/27
f 25/25/25 27/27/27 28/28/28
f 29/29/29 30/30/30 31/31/31
f 29/29/29 31/31/31 32/32/32
f 33/33/33 34/34/34 35/35/35
f 33/33/33 35/35/35 36/36/36
f 37/37/37 38/38/38 39/39/39
f 37/37/37 39/39/39 40/40/40
f 41/41/41 42/42/42 43/43/43
f 41/41/41 43/43/43 44/44/44
f 45/45/45 46/46/46 47/47/47
f 45/45/45 47/47/47 48/48/48
f 49/49/49 50/50/50 51/51/51
f 49/49/49 51/51/51 52/52/52
f 53/53/53 54/54/54 55/55/55
f 53/53/53 55/55/55 56/56/56
f 57/57/57 58/58/58 59/59/59
f 57/57/57 59/59/59 60/60/60
f 61/61/61 62/62/62 63/63/63
f 61/61/61 63/63/63 64/64/64
f 65/65/65 66/66/66 67/67/67
f 65/65/65 67/67/67 68/68/68
f 69/69/69 70/70/70 71/71/71
f 69/69/69 71/71/71 72/72/72
f 73/73/73 74/74/74 75/75/75
f 73/73/73 75/75/75 76/76/76
f 77/77/77 78/78/78 79/79/79
f 77/77/77 79/79/79 80/80/80
f 81/81/81 82/82/82 83/83/83
f 81/81/81 83/83/83 84/84/84
f 85/85/85 86/86/86 87/87/87
f 85/85/85 87/87/87 88/88/88
f 89/89/89 90/90/90 91/91/91
f 89/89/89 91/91/91 92/92/92
f 93/93/93 94/94/94 95/95/95
f 93/93/93 95/95/95 96/96/96
f 97/97/97 98/98/98 99/99/99
f 97/97/97 99/99/99 100/100/100
f 101/101/101 102/102/102 103/103/103
f 101/101/101 103/103/103 104/104/104
f 105/105/105 106/106/106 107/107/107
f 105/105/105 107/107/107 108/108/108
f 109/109/109 110/110/110 111/111/111
f 109/109/109 111/111/111 112/112/112
f 113/113/113 114/114/114 115/115/115
f 113/113/113 115/115/115 116/116/116
f 117/117/117 118/118/118 119/119/119
f 117/117/117 119/119/119 120/120/120
f 121/121/121 122/122/122 123/123/123
f 121/121/121 123/123/123 124/124/124
f 125/125/125 126/126/126 127/127/127
f 125/125/125 127/127/127 128/128/128
f 129/129/129 130/130/130 131/131/131
f 132/132/132 133/133/133 134/134/134
f 135/135/135 136/136/136 137/137/137
f 135/135/135 137/137/137 138/138/138
f 139/139/139 140/140/140 141/141/141
f 139/139/139 141/141/141 142/142/142
f 143/143/143 144/144/144 145/145/145
f 146/146/146 147/147/147 148/148/148
f 149/149/149 150/150/150 151/151/151
f 149/149/149 151/151/151 152/152/152
f 153/153/153 154/154/154 155/155/155
f 153/153/153 155/155/155 156/156/156
f 157/157/157 158/158/158 159/159/159
f 157/157/157 159/159/159 160/160/160
f 161/161/161 162/162/162 163/163/163
f 161/161/161 163/163/163 164/164/164
f 165/165/165 166/166/166 167/167/167
f 165/165/165 167/167/167 168/168/168
f 169/169/169 170/170/170 171/171/171
f 169/169/169 171/171/171 172/172/172
f 173/173/173 174/174/174 175/175/175
f 173/173/173 175/175/175 176/176/176
f 177/177/177 178/178/178 179/179/179
f 177/177/177 179/179/179 180/180/180
f 181/181/181 182/182/182 183/183/183
f 181/181/181 183/183/183 184/184/184
f 185/185/185 186/186/186 187/187/187
f 185/185/185 187/187/187 188/188/188
f 189/189/189 190/190/190 191/191/191
f 189/189/189 191/191/191 192/192/192
f 193/193/193 194/194/194 195/195/195
f 193/193/193 195/195/195 196/196/196
