# Exported using automatic converter by Erwin Coumans
mtllib botlab.mtl
#object mesh1641533269

v 0.180892 -0.992255 0.379313
v 0.085201 -0.990444 0.382223
v 0.080693 -1.059859 0.374403
v 0.176384 -1.061671 0.371493
v 0.168458 -1.056347 0.292641
v 0.172965 -0.986932 0.300461
v 0.268656 -0.988743 0.297551
v 0.264149 -1.058159 0.289731
v 0.080693 -1.059859 0.374403
v 0.168458 -1.056347 0.292641
v 0.264149 -1.058159 0.289731
v 0.176384 -1.061671 0.371493
v 0.268656 -0.988743 0.297551
v 0.172965 -0.986932 0.300461
v 0.085201 -0.990444 0.382223
v 0.180892 -0.992255 0.379313
v 0.264149 -1.058159 0.289731
v 0.268656 -0.988743 0.297551
v 0.180892 -0.992255 0.379313
v 0.176384 -1.061671 0.371493
v 0.085201 -0.990444 0.382223
v 0.172965 -0.986932 0.300461
v 0.168458 -1.056347 0.292641
v 0.080693 -1.059859 0.374403
v 0.547863 -0.995051 0.379794
v 0.452119 -0.993882 0.380262
v 0.448265 -1.062711 0.368110
v 0.544010 -1.063880 0.367641
v 0.538122 -1.053788 0.289077
v 0.541975 -0.984959 0.301229
v 0.637719 -0.986128 0.300761
v 0.633866 -1.054957 0.288608
v 0.448265 -1.062711 0.368110
v 0.538122 -1.053788 0.289077
v 0.633866 -1.054957 0.288608
v 0.544010 -1.063880 0.367641
v 0.637719 -0.986128 0.300761
v 0.541975 -0.984959 0.301229
v 0.452119 -0.993882 0.380262
v 0.547863 -0.995051 0.379794
v 0.633866 -1.054957 0.288608
v 0.637719 -0.986128 0.300761
v 0.547863 -0.995051 0.379794
v 0.544010 -1.063880 0.367641
v 0.452119 -0.993882 0.380262
v 0.541975 -0.984959 0.301229
v 0.538122 -1.053788 0.289077
v 0.448265 -1.062711 0.368110
v -0.005247 -0.990023 0.375933
v -0.100714 -0.986945 0.382654
v -0.106268 -1.056549 0.377715
v -0.010801 -1.059627 0.370994
v -0.021902 -1.057226 0.292381
v -0.016348 -0.987622 0.297320
v 0.079119 -0.990700 0.290599
v 0.073564 -1.060304 0.285660
v -0.106268 -1.056549 0.377715
v -0.021902 -1.057226 0.292381
v 0.073564 -1.060304 0.285660
v -0.010801 -1.059627 0.370994
v 0.079119 -0.990700 0.290599
v -0.016348 -0.987622 0.297320
v -0.100714 -0.986945 0.382654
v -0.005247 -0.990023 0.375933
v 0.073564 -1.060304 0.285660
v 0.079119 -0.990700 0.290599
v -0.005247 -0.990023 0.375933
v -0.010801 -1.059627 0.370994
v -0.100714 -0.986945 0.382654
v -0.016348 -0.987622 0.297320
v -0.021902 -1.057226 0.292381
v -0.106268 -1.056549 0.377715
v 0.363476 -0.998872 0.376284
v 0.267878 -0.995701 0.380706
v 0.262210 -1.064895 0.371755
v 0.357808 -1.068066 0.367333
v 0.348763 -1.061242 0.288717
v 0.354430 -0.992049 0.297668
v 0.450028 -0.995220 0.293246
v 0.444360 -1.064413 0.284295
v 0.262210 -1.064895 0.371755
v 0.348763 -1.061242 0.288717
v 0.444360 -1.064413 0.284295
v 0.357808 -1.068066 0.367333
v 0.450028 -0.995220 0.293246
v 0.354430 -0.992049 0.297668
v 0.267878 -0.995701 0.380706
v 0.363476 -0.998872 0.376284
v 0.444360 -1.064413 0.284295
v 0.450028 -0.995220 0.293246
v 0.363476 -0.998872 0.376284
v 0.357808 -1.068066 0.367333
v 0.267878 -0.995701 0.380706
v 0.354430 -0.992049 0.297668
v 0.348763 -1.061242 0.288717
v 0.262210 -1.064895 0.371755
v 0.456107 -0.993719 0.375277
v 0.360434 -0.992683 0.379054
v 0.356342 -1.061872 0.369249
v 0.452014 -1.062908 0.365472
v 0.443362 -1.055346 0.286879
v 0.447454 -0.986157 0.296684
v 0.543127 -0.987192 0.292907
v 0.539035 -1.056381 0.283101
v 0.356342 -1.061872 0.369249
v 0.443362 -1.055346 0.286879
v 0.539035 -1.056381 0.283101
v 0.452014 -1.062908 0.365472
v 0.543127 -0.987192 0.292907
v 0.447454 -0.986157 0.296684
v 0.360434 -0.992683 0.379054
v 0.456107 -0.993719 0.375277
v 0.539035 -1.056381 0.283101
v 0.543127 -0.987192 0.292907
v 0.456107 -0.993719 0.375277
v 0.452014 -1.062908 0.365472
v 0.360434 -0.992683 0.379054
v 0.447454 -0.986157 0.296684
v 0.443362 -1.055346 0.286879
v 0.356342 -1.061872 0.369249
v 0.089055 -0.990610 0.377134
v -0.006477 -0.988731 0.383352
v -0.011162 -1.058361 0.377902
v 0.084370 -1.060241 0.371684
v 0.073667 -1.057426 0.293031
v 0.078352 -0.987796 0.298481
v 0.173884 -0.989675 0.292263
v 0.169199 -1.059305 0.286813
v -0.011162 -1.058361 0.377902
v 0.073667 -1.057426 0.293031
v 0.169199 -1.059305 0.286813
v 0.084370 -1.060241 0.371684
v 0.173884 -0.989675 0.292263
v 0.078352 -0.987796 0.298481
v -0.006477 -0.988731 0.383352
v 0.089055 -0.990610 0.377134
v 0.169199 -1.059305 0.286813
v 0.173884 -0.989675 0.292263
v 0.089055 -0.990610 0.377134
v 0.084370 -1.060241 0.371684
v -0.006477 -0.988731 0.383352
v 0.078352 -0.987796 0.298481
v 0.073667 -1.057426 0.293031
v -0.011162 -1.058361 0.377902
v -0.097073 -0.987353 0.377423
v -0.192244 -0.984083 0.387438
v -0.197881 -1.053808 0.384881
v -0.102710 -1.057079 0.374866
v -0.116603 -1.057144 0.296661
v -0.110966 -0.987418 0.299218
v -0.015795 -0.990689 0.289203
v -0.021431 -1.060414 0.286646
v -0.197881 -1.053808 0.384881
v -0.116603 -1.057144 0.296661
v -0.021431 -1.060414 0.286646
v -0.102710 -1.057079 0.374866
v -0.015795 -0.990689 0.289203
v -0.110966 -0.987418 0.299218
v -0.192244 -0.984083 0.387438
v -0.097073 -0.987353 0.377423
v -0.021431 -1.060414 0.286646
v -0.015795 -0.990689 0.289203
v -0.097073 -0.987353 0.377423
v -0.102710 -1.057079 0.374866
v -0.192244 -0.984083 0.387438
v -0.110966 -0.987418 0.299218
v -0.116603 -1.057144 0.296661
v -0.197881 -1.053808 0.384881
v 0.271652 -0.995835 0.375556
v 0.176264 -0.992656 0.383283
v 0.170452 -1.062103 0.376700
v 0.265839 -1.065282 0.368973
v 0.253984 -1.060929 0.290555
v 0.259796 -0.991482 0.297138
v 0.355184 -0.994661 0.289410
v 0.349371 -1.064108 0.282828
v 0.170452 -1.062103 0.376700
v 0.253984 -1.060929 0.290555
v 0.349371 -1.064108 0.282828
v 0.265839 -1.065282 0.368973
v 0.355184 -0.994661 0.289410
v 0.259796 -0.991482 0.297138
v 0.176264 -0.992656 0.383283
v 0.271652 -0.995835 0.375556
v 0.349371 -1.064108 0.282828
v 0.355184 -0.994661 0.289410
v 0.271652 -0.995835 0.375556
v 0.265839 -1.065282 0.368973
v 0.176264 -0.992656 0.383283
v 0.259796 -0.991482 0.297138
v 0.253984 -1.060929 0.290555
v 0.170452 -1.062103 0.376700
usemtl mat23

vn 0.028047 -0.113704 0.993119
vn 0.028047 -0.113704 0.993119
vn 0.028047 -0.113704 0.993119
vn 0.028047 -0.113704 0.993119
vn -0.028046 0.113704 -0.993119
vn -0.028046 0.113704 -0.993119
vn -0.028046 0.113704 -0.993119
vn -0.028046 0.113704 -0.993119
vn -0.020872 -0.997650 -0.065259
vn -0.020872 -0.997650 -0.065259
vn -0.020872 -0.997650 -0.065259
vn -0.020872 -0.997650 -0.065259
vn 0.020872 0.997650 0.065259
vn 0.020872 0.997650 0.065259
vn 0.020872 0.997650 0.065259
vn 0.020872 0.997650 0.065259
vn 0.678935 -0.125581 0.723379
vn 0.678935 -0.125581 0.723379
vn 0.678935 -0.125581 0.723379
vn 0.678935 -0.125581 0.723379
vn -0.678935 0.125581 -0.723379
vn -0.678935 0.125581 -0.723379
vn -0.678935 0.125581 -0.723379
vn -0.678935 0.125581 -0.723379
vn 0.002695 -0.174015 0.984739
vn 0.002695 -0.174015 0.984739
vn 0.002695 -0.174015 0.984739
vn 0.002695 -0.174015 0.984739
vn -0.002695 0.174015 -0.984739
vn -0.002695 0.174015 -0.984739
vn -0.002695 0.174015 -0.984739
vn -0.002695 0.174015 -0.984739
vn -0.012728 -0.991890 -0.126458
vn -0.012728 -0.991890 -0.126458
vn -0.012728 -0.991890 -0.126458
vn -0.012728 -0.991890 -0.126458
vn 0.012728 0.991890 0.126458
vn 0.012728 0.991890 0.126458
vn 0.012728 0.991890 0.126458
vn 0.012728 0.991890 0.126458
vn 0.660503 -0.166254 0.732185
vn 0.660503 -0.166254 0.732185
vn 0.660503 -0.166254 0.732185
vn 0.660503 -0.166254 0.732185
vn -0.660503 0.166254 -0.732185
vn -0.660503 0.166254 -0.732185
vn -0.660503 0.166254 -0.732185
vn -0.660503 0.166254 -0.732185
vn 0.067594 -0.075983 0.994815
vn 0.067594 -0.075983 0.994815
vn 0.067594 -0.075983 0.994815
vn 0.067594 -0.075983 0.994815
vn -0.067594 0.075983 -0.994815
vn -0.067594 0.075983 -0.994815
vn -0.067594 0.075983 -0.994815
vn -0.067594 0.075983 -0.994815
vn -0.034021 -0.999090 -0.025707
vn -0.034021 -0.999090 -0.025707
vn -0.034021 -0.999090 -0.025707
vn -0.034021 -0.999090 -0.025707
vn 0.034021 0.999090 0.025707
vn 0.034021 0.999090 0.025707
vn 0.034021 0.999090 0.025707
vn 0.034021 0.999090 0.025707
vn 0.706700 -0.106030 0.699524
vn 0.706700 -0.106030 0.699524
vn 0.706700 -0.106030 0.699524
vn 0.706700 -0.106030 0.699524
vn -0.706700 0.106030 -0.699524
vn -0.706700 0.106030 -0.699524
vn -0.706700 0.106030 -0.699524
vn -0.706700 0.106030 -0.699524
vn 0.041450 -0.131526 0.990446
vn 0.041450 -0.131526 0.990446
vn 0.041450 -0.131526 0.990446
vn 0.041450 -0.131526 0.990446
vn -0.041450 0.131526 -0.990446
vn -0.041450 0.131526 -0.990446
vn -0.041450 0.131526 -0.990446
vn -0.041450 0.131526 -0.990446
vn -0.036842 -0.995934 -0.082208
vn -0.036842 -0.995934 -0.082208
vn -0.036842 -0.995934 -0.082208
vn -0.036842 -0.995934 -0.082208
vn 0.036842 0.995934 0.082208
vn 0.036842 0.995934 0.082208
vn 0.036842 0.995934 0.082208
vn 0.036842 0.995934 0.082208
vn 0.687905 -0.148264 0.710496
vn 0.687905 -0.148264 0.710496
vn 0.687905 -0.148264 0.710496
vn 0.687905 -0.148264 0.710496
vn -0.687905 0.148264 -0.710496
vn -0.687905 0.148264 -0.710496
vn -0.687905 0.148264 -0.710496
vn -0.687905 0.148264 -0.710496
vn 0.037512 -0.142391 0.989099
vn 0.037512 -0.142391 0.989099
vn 0.037512 -0.142391 0.989099
vn 0.037512 -0.142391 0.989099
vn -0.037511 0.142391 -0.989100
vn -0.037511 0.142391 -0.989100
vn -0.037511 0.142391 -0.989100
vn -0.037511 0.142391 -0.989100
vn -0.014492 -0.995449 -0.094185
vn -0.014492 -0.995449 -0.094185
vn -0.014492 -0.995449 -0.094185
vn -0.014492 -0.995449 -0.094185
vn 0.014492 0.995449 0.094185
vn 0.014492 0.995449 0.094185
vn 0.014492 0.995449 0.094185
vn 0.014492 0.995449 0.094185
vn 0.686085 -0.141705 0.713587
vn 0.686085 -0.141705 0.713587
vn 0.686085 -0.141705 0.713587
vn 0.686085 -0.141705 0.713587
vn -0.686085 0.141705 -0.713587
vn -0.686085 0.141705 -0.713587
vn -0.686085 0.141705 -0.713587
vn -0.686085 0.141705 -0.713587
vn 0.063118 -0.082098 0.994624
vn 0.063118 -0.082098 0.994624
vn 0.063118 -0.082098 0.994624
vn 0.063118 -0.082098 0.994624
vn -0.063117 0.082098 -0.994624
vn -0.063117 0.082098 -0.994624
vn -0.063117 0.082098 -0.994624
vn -0.063117 0.082098 -0.994624
vn -0.021794 -0.999224 -0.032794
vn -0.021794 -0.999224 -0.032794
vn -0.021794 -0.999224 -0.032794
vn -0.021794 -0.999224 -0.032794
vn 0.021794 0.999224 0.032794
vn 0.021794 0.999224 0.032794
vn 0.021794 0.999224 0.032794
vn 0.021794 0.999224 0.032794
vn 0.704130 -0.102376 0.702652
vn 0.704130 -0.102376 0.702652
vn 0.704130 -0.102376 0.702652
vn 0.704130 -0.102376 0.702652
vn -0.704130 0.102376 -0.702652
vn -0.704130 0.102376 -0.702652
vn -0.704130 0.102376 -0.702652
vn -0.704130 0.102376 -0.702652
vn 0.103028 -0.044769 0.993670
vn 0.103028 -0.044769 0.993670
vn 0.103028 -0.044769 0.993670
vn 0.103028 -0.044769 0.993670
vn -0.103028 0.044769 -0.993671
vn -0.103028 0.044769 -0.993671
vn -0.103028 0.044769 -0.993671
vn -0.103028 0.044769 -0.993671
vn -0.033626 -0.999411 0.006806
vn -0.033626 -0.999411 0.006806
vn -0.033626 -0.999411 0.006806
vn -0.033626 -0.999411 0.006806
vn 0.033627 0.999411 -0.006806
vn 0.033627 0.999411 -0.006806
vn 0.033627 0.999411 -0.006806
vn 0.033627 0.999411 -0.006806
vn 0.731266 -0.083941 0.676908
vn 0.731266 -0.083941 0.676908
vn 0.731266 -0.083941 0.676908
vn 0.731266 -0.083941 0.676908
vn -0.731266 0.083941 -0.676908
vn -0.731266 0.083941 -0.676908
vn -0.731266 0.083941 -0.676908
vn -0.731266 0.083941 -0.676908
vn 0.077012 -0.100472 0.991955
vn 0.077012 -0.100472 0.991955
vn 0.077012 -0.100472 0.991955
vn 0.077012 -0.100472 0.991955
vn -0.077011 0.100472 -0.991955
vn -0.077011 0.100472 -0.991955
vn -0.077011 0.100472 -0.991955
vn -0.077011 0.100472 -0.991955
vn -0.037293 -0.998065 -0.049765
vn -0.037293 -0.998065 -0.049765
vn -0.037293 -0.998065 -0.049765
vn -0.037293 -0.998065 -0.049765
vn 0.037293 0.998065 0.049765
vn 0.037293 0.998065 0.049765
vn 0.037293 0.998065 0.049765
vn 0.037293 0.998065 0.049765
vn 0.713128 -0.125072 0.689786
vn 0.713128 -0.125072 0.689786
vn 0.713128 -0.125072 0.689786
vn 0.713128 -0.125072 0.689786
vn -0.713128 0.125072 -0.689786
vn -0.713128 0.125072 -0.689786
vn -0.713128 0.125072 -0.689786
vn -0.713128 0.125072 -0.689786

vt -0.026065 -0.029781
vt -0.021934 -0.038419
vt -0.028116 -0.041703
vt -0.032247 -0.033064
vt 0.032348 -0.033736
vt 0.026165 -0.030452
vt 0.030296 -0.021814
vt 0.036478 -0.025097
vt 0.112991 -0.067747
vt 0.108587 -0.056584
vt 0.111829 -0.047574
vt 0.116232 -0.058737
vt -0.112245 -0.047410
vt -0.109003 -0.056420
vt -0.113407 -0.067583
vt -0.116649 -0.058573
vt 0.000770 -0.095967
vt 0.006966 -0.092708
vt 0.012551 -0.103329
vt 0.006356 -0.106587
vt -0.015541 -0.109882
vt -0.009955 -0.099261
vt -0.003760 -0.102520
vt -0.009346 -0.113141
vt -0.035205 0.010560
vt -0.031312 0.001812
vt -0.037581 -0.001302
vt -0.041475 0.007446
vt 0.041594 0.006778
vt 0.035324 0.009891
vt 0.039218 0.018639
vt 0.045487 0.015526
vt 0.127447 -0.037764
vt 0.123594 -0.026399
vt 0.127273 -0.017558
vt 0.131125 -0.028923
vt -0.127696 -0.017415
vt -0.124018 -0.026255
vt -0.127871 -0.037620
vt -0.131549 -0.028779
vt -0.005914 -0.066447
vt 0.000410 -0.063445
vt 0.005555 -0.074286
vt -0.000769 -0.077288
vt -0.008274 -0.080956
vt -0.003128 -0.070115
vt 0.003196 -0.073117
vt -0.001950 -0.083958
vt -0.020280 -0.053440
vt -0.015955 -0.061983
vt -0.022061 -0.065406
vt -0.026387 -0.056863
vt 0.026472 -0.057537
vt 0.020366 -0.054114
vt 0.024691 -0.045571
vt 0.030797 -0.048994
vt 0.106051 -0.082220
vt 0.101042 -0.071315
vt 0.103785 -0.062141
vt 0.108794 -0.073046
vt -0.104192 -0.061954
vt -0.101449 -0.071128
vt -0.106457 -0.082033
vt -0.109201 -0.072859
vt 0.005919 -0.111827
vt 0.011980 -0.108325
vt 0.017983 -0.118715
vt 0.011922 -0.122217
vt -0.021231 -0.125144
vt -0.015228 -0.114754
vt -0.009167 -0.118256
vt -0.015170 -0.128646
vt -0.031410 -0.013824
vt -0.027206 -0.022427
vt -0.033360 -0.025763
vt -0.037564 -0.017160
vt 0.037659 -0.017833
vt 0.031505 -0.014497
vt 0.035709 -0.005894
vt 0.041863 -0.009230
vt 0.119951 -0.051574
vt 0.115497 -0.040431
vt 0.118699 -0.031407
vt 0.123152 -0.042550
vt -0.119114 -0.031241
vt -0.115912 -0.040265
vt -0.120366 -0.051408
vt -0.123567 -0.042384
vt -0.001572 -0.083999
vt 0.004592 -0.080680
vt 0.010280 -0.091247
vt 0.004117 -0.094565
vt -0.013333 -0.097770
vt -0.007645 -0.087204
vt -0.001481 -0.090522
vt -0.007170 -0.101089
vt -0.033587 -0.003986
vt -0.029607 -0.012696
vt -0.035846 -0.015871
vt -0.039825 -0.007162
vt 0.039938 -0.007832
vt 0.033699 -0.004656
vt 0.037679 0.004053
vt 0.043917 0.000878
vt 0.123289 -0.044081
vt 0.118902 -0.032911
vt 0.122158 -0.023906
vt 0.126545 -0.035076
vt -0.122574 -0.023743
vt -0.119319 -0.032748
vt -0.123706 -0.043917
vt -0.126961 -0.034912
vt -0.004489 -0.077184
vt 0.001762 -0.074034
vt 0.007162 -0.084750
vt 0.000911 -0.087900
vt -0.010038 -0.091354
vt -0.004638 -0.080638
vt 0.001614 -0.083788
vt -0.003786 -0.094504
vt -0.023829 -0.044043
vt -0.019624 -0.052646
vt -0.025777 -0.055983
vt -0.029982 -0.047380
vt 0.030077 -0.048053
vt 0.023924 -0.044716
vt 0.028129 -0.036113
vt 0.034283 -0.039450
vt 0.109465 -0.074211
vt 0.104523 -0.063276
vt 0.107322 -0.054119
vt 0.112264 -0.065053
vt -0.107729 -0.053934
vt -0.104930 -0.063091
vt -0.109873 -0.074026
vt -0.112672 -0.064869
vt 0.002738 -0.105516
vt 0.008854 -0.102110
vt 0.014692 -0.112594
vt 0.008577 -0.116000
vt -0.017838 -0.119074
vt -0.012000 -0.108590
vt -0.005884 -0.111996
vt -0.011722 -0.122480
vt -0.017633 -0.067411
vt -0.013243 -0.075921
vt -0.019323 -0.079390
vt -0.023713 -0.070880
vt 0.023793 -0.071554
vt 0.017713 -0.068086
vt 0.022103 -0.059576
vt 0.028183 -0.063045
vt 0.103122 -0.088821
vt 0.097574 -0.078181
vt 0.099855 -0.068881
vt 0.105403 -0.079522
vt -0.100252 -0.068674
vt -0.097971 -0.077974
vt -0.103519 -0.088615
vt -0.105800 -0.079315
vt 0.008342 -0.120565
vt 0.014316 -0.116917
vt 0.020570 -0.127158
vt 0.014596 -0.130807
vt -0.023974 -0.133506
vt -0.017719 -0.123265
vt -0.011745 -0.126914
vt -0.018000 -0.137155
vt -0.029149 -0.028144
vt -0.024873 -0.036711
vt -0.030998 -0.040099
vt -0.035275 -0.031532
vt 0.035364 -0.032206
vt 0.029239 -0.028818
vt 0.033515 -0.020251
vt 0.039641 -0.023639
vt 0.116311 -0.057945
vt 0.111316 -0.047034
vt 0.114071 -0.037864
vt 0.119066 -0.048775
vt -0.114478 -0.037678
vt -0.111723 -0.046848
vt -0.116718 -0.057759
vt -0.119473 -0.048589
vt 0.000470 -0.094005
vt 0.006552 -0.090539
vt 0.012493 -0.100965
vt 0.006411 -0.104431
vt -0.015702 -0.107414
vt -0.009762 -0.096988
vt -0.003680 -0.100453
vt -0.009620 -0.110879
s off
f 1/1/1 2/2/2 3/3/3
f 1/1/1 3/3/3 4/4/4
f 5/5/5 6/6/6 7/7/7
f 5/5/5 7/7/7 8/8/8
f 9/9/9 10/10/10 11/11/11
f 9/9/9 11/11/11 12/12/12
f 13/13/13 14/14/14 15/15/15
f 13/13/13 15/15/15 16/16/16
f 17/17/17 18/18/18 19/19/19
f 17/17/17 19/19/19 20/20/20
f 21/21/21 22/22/22 23/23/23
f 21/21/21 23/23/23 24/24/24
f 25/25/25 26/26/26 27/27/27
f 25/25/25 27/27/27 28/28/28
f 29/29/29 30/30/30 31/31/31
f 29/29/29 31/31/31 32/32/32
f 33/33/33 34/34/34 35/35/35
f 33/33/33 35/35/35 36/36/36
f 37/37/37 38/38/38 39/39/39
f 37/37/37 39/39/39 40/40/40
f 41/41/41 42/42/42 43/43/43
f 41/41/41 43/43/43 44/44/44
f 45/45/45 46/46/46 47/47/47
f 45/45/45 47/47/47 48/48/48
f 49/49/49 50/50/50 51/51/51
f 49/49/49 51/51/51 52/52/52
f 53/53/53 54/54/54 55/55/55
f 53/53/53 55/55/55 56/56/56
f 57/57/57 58/58/58 59/59/59
f 57/57/57 59/59/59 60/60/60
f 61/61/61 62/62/62 63/63/63
f 61/61/61 63/63/63 64/64/64
f 65/65/65 66/66/66 67/67/67
f 65/65/65 67/67/67 68/68/68
f 69/69/69 70/70/70 71/71/71
f 69/69/69 71/71/71 72/72/72
f 73/73/73 74/74/74 75/75/75
f 73/73/73 75/75/75 76/76/76
f 77/77/77 78/78/78 79/79/79
f 77/77/77 79/79/79 80/80/80
f 81/81/81 82/82/82 83/83/83
f 81/81/81 83/83/83 84/84/84
f 85/85/85 86/86/86 87/87/87
f 85/85/85 87/87/87 88/88/88
f 89/89/89 90/90/90 91/91/91
f 89/89/89 91/91/91 92/92/92
f 93/93/93 94/94/94 95/95/95
f 93/93/93 95/95/95 96/96/96
f 97/97/97 98/98/98 99/99/99
f 97/97/97 99/99/99 100/100/100
f 101/101/101 102/102/102 103/103/103
f 101/101/101 103/103/103 104/104/104
f 105/105/105 106/106/106 107/107/107
f 105/105/105 107/107/107 108/108/108
f 109/109/109 110/110/110 111/111/111
f 109/109/109 111/111/111 112/112/112
f 113/113/113 114/114/114 115/115/115
f 113/113/113 115/115/115 116/116/116
f 117/117/117 118/118/118 119/119/119
f 117/117/117 119/119/119 120/120/120
f 121/121/121 122/122/122 123/123/123
f 121/121/121 123/123/123 124/124/124
f 125/125/125 126/126/126 127/127/127
f 125/125/125 127/127/127 128/128/128
f 129/129/129 130/130/130 131/131/131
f 129/129/129 131/131/131 132/132/132
f 133/133/133 134/134/134 135/135/135
f 133/133/133 135/135/135 136/136/136
f 137/137/137 138/138/138 139/139/139
f 137/137/137 139/139/139 140/140/140
f 141/141/141 142/142/142 143/143/143
f 141/141/141 143/143/143 144/144/144
f 145/145/145 146/146/146 147/147/147
f 145/145/145 147/147/147 148/148/148
f 149/149/149 150/150/150 151/151/151
f 149/149/149 151/151/151 152/152/152
f 153/153/153 154/154/154 155/155/155
f 153/153/153 155/155/155 156/156/156
f 157/157/157 158/158/158 159/159/159
f 157/157/157 159/159/159 160/160/160
f 161/161/161 162/162/162 163/163/163
f 161/161/161 163/163/163 164/164/164
f 165/165/165 166/166/166 167/167/167
f 165/165/165 167/167/167 168/168/168
f 169/169/169 170/170/170 171/171/171
f 169/169/169 171/171/171 172/172/172
f 173/173/173 174/174/174 175/175/175
f 173/173/173 175/175/175 176/176/176
f 177/177/177 178/178/178 179/179/179
f 177/177/177 179/179/179 180/180/180
f 181/181/181 182/182/182 183/183/183
f 181/181/181 183/183/183 184/184/184
f 185/185/185 186/186/186 187/187/187
f 185/185/185 187/187/187 188/188/188
f 189/189/189 190/190/190 191/191/191
f 189/189/189 191/191/191 192/192/192
