# Exported using automatic converter by Erwin Coumans
mtllib model6.mtl
#object mesh1505145855

v -2.301970 -0.595394 -2.275326
v -2.300705 -0.639364 -2.261479
v -2.351481 -0.641713 -2.264300
v -2.352746 -0.597742 -2.278147
v -2.300705 -0.639364 -2.261479
v -2.301147 -0.670574 -2.227530
v -2.351924 -0.672923 -2.230351
v -2.351481 -0.641713 -2.264300
v -2.301147 -0.670574 -2.227530
v -2.303178 -0.680660 -2.182576
v -2.353954 -0.683008 -2.185396
v -2.351924 -0.672923 -2.230351
v -2.303178 -0.680660 -2.182576
v -2.306253 -0.666919 -2.138661
v -2.357029 -0.669268 -2.141482
v -2.353954 -0.683008 -2.185396
v -2.306253 -0.666919 -2.138661
v -2.309548 -0.633034 -2.107553
v -2.360325 -0.635383 -2.110374
v -2.357029 -0.669268 -2.141482
v -2.309548 -0.633034 -2.107553
v -2.312181 -0.588084 -2.097587
v -2.362957 -0.590433 -2.100408
v -2.360325 -0.635383 -2.110374
v -2.312181 -0.588084 -2.097587
v -2.313445 -0.544113 -2.111434
v -2.364222 -0.546462 -2.114254
v -2.362957 -0.590433 -2.100408
v -2.313445 -0.544113 -2.111434
v -2.313003 -0.512904 -2.145383
v -2.363780 -0.515252 -2.148204
v -2.364222 -0.546462 -2.114254
v -2.310972 -0.502818 -2.190338
v -2.307898 -0.516558 -2.234252
v -2.358674 -0.518907 -2.237072
v -2.361749 -0.505166 -2.193158
v -2.307898 -0.516558 -2.234252
v -2.304602 -0.550443 -2.265360
v -2.355379 -0.552792 -2.268181
v -2.358674 -0.518907 -2.237072
v -2.304602 -0.550443 -2.265360
v -2.301970 -0.595394 -2.275326
v -2.352746 -0.597742 -2.278147
v -2.355379 -0.552792 -2.268181
v -2.469626 -0.558076 -2.274526
v -2.472922 -0.524191 -2.243418
v -2.396757 -0.520668 -2.239188
v -2.393461 -0.554553 -2.270296
v -2.472922 -0.524191 -2.243418
v -2.475996 -0.510450 -2.199504
v -2.399832 -0.506927 -2.195273
v -2.396757 -0.520668 -2.239188
v -2.478027 -0.520536 -2.154549
v -2.478469 -0.551746 -2.120600
v -2.402304 -0.548223 -2.116370
v -2.401862 -0.517013 -2.150319
v -2.478469 -0.551746 -2.120600
v -2.477205 -0.595716 -2.106753
v -2.401040 -0.592194 -2.102523
v -2.402304 -0.548223 -2.116370
v -2.477205 -0.595716 -2.106753
v -2.474572 -0.640667 -2.116719
v -2.398407 -0.637144 -2.112489
v -2.401040 -0.592194 -2.102523
v -2.474572 -0.640667 -2.116719
v -2.471277 -0.674551 -2.147828
v -2.395112 -0.671029 -2.143597
v -2.398407 -0.637144 -2.112489
v -2.471277 -0.674551 -2.147828
v -2.468202 -0.688292 -2.191742
v -2.392037 -0.684770 -2.187512
v -2.395112 -0.671029 -2.143597
v -2.468202 -0.688292 -2.191742
v -2.466171 -0.678206 -2.236696
v -2.390006 -0.674684 -2.232466
v -2.392037 -0.684770 -2.187512
v -2.466171 -0.678206 -2.236696
v -2.465729 -0.646997 -2.270646
v -2.389564 -0.643474 -2.266415
v -2.390006 -0.674684 -2.232466
v -2.465729 -0.646997 -2.270646
v -2.466993 -0.603026 -2.284492
v -2.390829 -0.599503 -2.280262
v -2.389564 -0.643474 -2.266415
v -2.466993 -0.603026 -2.284492
v -2.469626 -0.558076 -2.274526
v -2.393461 -0.554553 -2.270296
v -2.390829 -0.599503 -2.280262
v -2.558485 -0.562186 -2.279462
v -2.561781 -0.528301 -2.248354
v -2.472922 -0.524191 -2.243418
v -2.469626 -0.558076 -2.274526
v -2.561781 -0.528301 -2.248354
v -2.564856 -0.514560 -2.204440
v -2.475996 -0.510450 -2.199504
v -2.472922 -0.524191 -2.243418
v -2.566886 -0.524646 -2.159485
v -2.567328 -0.555855 -2.125536
v -2.478469 -0.551746 -2.120600
v -2.478027 -0.520536 -2.154549
v -2.567328 -0.555855 -2.125536
v -2.566064 -0.599826 -2.111689
v -2.477205 -0.595716 -2.106753
v -2.478469 -0.551746 -2.120600
v -2.566064 -0.599826 -2.111689
v -2.563431 -0.644777 -2.121655
v -2.474572 -0.640667 -2.116719
v -2.477205 -0.595716 -2.106753
v -2.563431 -0.644777 -2.121655
v -2.560136 -0.678661 -2.152764
v -2.471277 -0.674551 -2.147828
v -2.474572 -0.640667 -2.116719
v -2.557061 -0.692402 -2.196678
v -2.555030 -0.682316 -2.241632
v -2.466171 -0.678206 -2.236696
v -2.468202 -0.688292 -2.191742
v -2.555030 -0.682316 -2.241632
v -2.554588 -0.651107 -2.275581
v -2.465729 -0.646997 -2.270646
v -2.466171 -0.678206 -2.236696
v -2.554588 -0.651107 -2.275581
v -2.555853 -0.607135 -2.289428
v -2.466993 -0.603026 -2.284492
v -2.465729 -0.646997 -2.270646
v -2.555853 -0.607135 -2.289428
v -2.558485 -0.562186 -2.279462
v -2.469626 -0.558076 -2.274526
v -2.466993 -0.603026 -2.284492
v -2.559010 -0.647943 -2.198619
v -2.558738 -0.657365 -2.195652
v -2.596821 -0.659127 -2.197767
v -2.597092 -0.649705 -2.200734
v -2.558738 -0.657365 -2.195652
v -2.558833 -0.664053 -2.188377
v -2.596916 -0.665815 -2.190492
v -2.596821 -0.659127 -2.197767
v -2.558833 -0.664053 -2.188377
v -2.559268 -0.666214 -2.178744
v -2.597351 -0.667976 -2.180859
v -2.596916 -0.665815 -2.190492
v -2.559268 -0.666214 -2.178744
v -2.559927 -0.663270 -2.169333
v -2.598010 -0.665031 -2.171449
v -2.597351 -0.667976 -2.180859
v -2.559927 -0.663270 -2.169333
v -2.560633 -0.656009 -2.162667
v -2.598716 -0.657770 -2.164783
v -2.598010 -0.665031 -2.171449
v -2.560633 -0.656009 -2.162667
v -2.561198 -0.646377 -2.160532
v -2.599280 -0.648138 -2.162647
v -2.598716 -0.657770 -2.164783
v -2.561198 -0.646377 -2.160532
v -2.561469 -0.636954 -2.163499
v -2.599551 -0.638716 -2.165614
v -2.599280 -0.648138 -2.162647
v -2.561469 -0.636954 -2.163499
v -2.561374 -0.630266 -2.170774
v -2.599456 -0.632028 -2.172889
v -2.599551 -0.638716 -2.165614
v -2.561374 -0.630266 -2.170774
v -2.560939 -0.628105 -2.180407
v -2.599021 -0.629867 -2.182522
v -2.599456 -0.632028 -2.172889
v -2.560939 -0.628105 -2.180407
v -2.560280 -0.631050 -2.189817
v -2.598362 -0.632811 -2.191933
v -2.599021 -0.629867 -2.182522
v -2.560280 -0.631050 -2.189817
v -2.559574 -0.638311 -2.196483
v -2.597656 -0.640072 -2.198598
v -2.598362 -0.632811 -2.191933
v -2.559574 -0.638311 -2.196483
v -2.559010 -0.647943 -2.198619
v -2.597092 -0.649705 -2.200734
v -2.597656 -0.640072 -2.198598
v -2.597092 -0.649705 -2.200734
v -2.596821 -0.659127 -2.197767
v -2.596916 -0.665815 -2.190492
v -2.597351 -0.667976 -2.180859
v -2.598010 -0.665031 -2.171449
v -2.598716 -0.657770 -2.164783
v -2.599280 -0.648138 -2.162647
v -2.599551 -0.638716 -2.165614
v -2.599456 -0.632028 -2.172889
v -2.599021 -0.629867 -2.182522
v -2.598362 -0.632811 -2.191933
v -2.597656 -0.640072 -2.198598
v -2.559574 -0.638311 -2.196483
v -2.560280 -0.631050 -2.189817
v -2.560939 -0.628105 -2.180407
v -2.561374 -0.630266 -2.170774
v -2.561469 -0.636954 -2.163499
v -2.561198 -0.646377 -2.160532
v -2.560633 -0.656009 -2.162667
v -2.559927 -0.663270 -2.169333
v -2.559268 -0.666214 -2.178744
v -2.558833 -0.664053 -2.188377
v -2.558738 -0.657365 -2.195652
v -2.559010 -0.647943 -2.198619
usemtl mat13

vn 0.066676 -0.297956 -0.952248
vn 0.066676 -0.297956 -0.952248
vn 0.066676 -0.297956 -0.952248
vn 0.066676 -0.297956 -0.952248
vn 0.071452 -0.734767 -0.674546
vn 0.071452 -0.734767 -0.674546
vn 0.071452 -0.734767 -0.674546
vn 0.071452 -0.734767 -0.674546
vn 0.057089 -0.974700 -0.216103
vn 0.057089 -0.974700 -0.216103
vn 0.057089 -0.974700 -0.216103
vn 0.057089 -0.974700 -0.216103
vn 0.027421 -0.953465 0.300255
vn 0.027421 -0.953465 0.300255
vn 0.027421 -0.953465 0.300255
vn 0.027421 -0.953465 0.300255
vn -0.009590 -0.676752 0.736148
vn -0.009590 -0.676752 0.736148
vn -0.009590 -0.676752 0.736148
vn -0.009590 -0.676752 0.736148
vn -0.044028 -0.218706 0.974797
vn -0.044028 -0.218706 0.974797
vn -0.044028 -0.218706 0.974797
vn -0.044028 -0.218706 0.974797
vn -0.066678 0.297956 0.952248
vn -0.066678 0.297956 0.952248
vn -0.066678 0.297956 0.952248
vn -0.066678 0.297956 0.952248
vn -0.071459 0.734767 0.674545
vn -0.071459 0.734767 0.674545
vn -0.071459 0.734767 0.674545
vn -0.071459 0.734767 0.674545
vn -0.027425 0.953465 -0.300255
vn -0.027425 0.953465 -0.300255
vn -0.027425 0.953465 -0.300255
vn -0.027425 0.953465 -0.300255
vn 0.009588 0.676752 -0.736149
vn 0.009588 0.676752 -0.736149
vn 0.009588 0.676752 -0.736149
vn 0.009588 0.676752 -0.736149
vn 0.044036 0.218706 -0.974797
vn 0.044036 0.218706 -0.974797
vn 0.044036 0.218706 -0.974797
vn 0.044036 0.218706 -0.974797
vn 0.009587 0.676751 -0.736149
vn 0.009587 0.676751 -0.736149
vn 0.009587 0.676751 -0.736149
vn 0.009587 0.676751 -0.736149
vn -0.027421 0.953465 -0.300255
vn -0.027421 0.953465 -0.300255
vn -0.027421 0.953465 -0.300255
vn -0.027421 0.953465 -0.300255
vn -0.071447 0.734765 0.674548
vn -0.071447 0.734765 0.674548
vn -0.071447 0.734765 0.674548
vn -0.071447 0.734765 0.674548
vn -0.066669 0.297958 0.952248
vn -0.066669 0.297958 0.952248
vn -0.066669 0.297958 0.952248
vn -0.066669 0.297958 0.952248
vn -0.044026 -0.218704 0.974798
vn -0.044026 -0.218704 0.974798
vn -0.044026 -0.218704 0.974798
vn -0.044026 -0.218704 0.974798
vn -0.009587 -0.676755 0.736146
vn -0.009587 -0.676755 0.736146
vn -0.009587 -0.676755 0.736146
vn -0.009587 -0.676755 0.736146
vn 0.027419 -0.953465 0.300254
vn 0.027419 -0.953465 0.300254
vn 0.027419 -0.953465 0.300254
vn 0.027419 -0.953465 0.300254
vn 0.057080 -0.974701 -0.216104
vn 0.057080 -0.974701 -0.216104
vn 0.057080 -0.974701 -0.216104
vn 0.057080 -0.974701 -0.216104
vn 0.071447 -0.734768 -0.674545
vn 0.071447 -0.734768 -0.674545
vn 0.071447 -0.734768 -0.674545
vn 0.071447 -0.734768 -0.674545
vn 0.066668 -0.297956 -0.952249
vn 0.066668 -0.297956 -0.952249
vn 0.066668 -0.297956 -0.952249
vn 0.066668 -0.297956 -0.952249
vn 0.044026 0.218706 -0.974797
vn 0.044026 0.218706 -0.974797
vn 0.044026 0.218706 -0.974797
vn 0.044026 0.218706 -0.974797
vn 0.009591 0.676753 -0.736148
vn 0.009591 0.676753 -0.736148
vn 0.009591 0.676753 -0.736148
vn 0.009591 0.676753 -0.736148
vn -0.027421 0.953465 -0.300255
vn -0.027421 0.953465 -0.300255
vn -0.027421 0.953465 -0.300255
vn -0.027421 0.953465 -0.300255
vn -0.071453 0.734767 0.674545
vn -0.071453 0.734767 0.674545
vn -0.071453 0.734767 0.674545
vn -0.071453 0.734767 0.674545
vn -0.066677 0.297956 0.952248
vn -0.066677 0.297956 0.952248
vn -0.066677 0.297956 0.952248
vn -0.066677 0.297956 0.952248
vn -0.044033 -0.218704 0.974797
vn -0.044033 -0.218704 0.974797
vn -0.044033 -0.218704 0.974797
vn -0.044033 -0.218704 0.974797
vn -0.009591 -0.676757 0.736144
vn -0.009591 -0.676757 0.736144
vn -0.009591 -0.676757 0.736144
vn -0.009591 -0.676757 0.736144
vn 0.057083 -0.974700 -0.216103
vn 0.057083 -0.974700 -0.216103
vn 0.057083 -0.974700 -0.216103
vn 0.057083 -0.974700 -0.216103
vn 0.071453 -0.734770 -0.674542
vn 0.071453 -0.734770 -0.674542
vn 0.071453 -0.734770 -0.674542
vn 0.071453 -0.734770 -0.674542
vn 0.066676 -0.297955 -0.952249
vn 0.066676 -0.297955 -0.952249
vn 0.066676 -0.297955 -0.952249
vn 0.066676 -0.297955 -0.952249
vn 0.044033 0.218706 -0.974797
vn 0.044033 0.218706 -0.974797
vn 0.044033 0.218706 -0.974797
vn 0.044033 0.218706 -0.974797
vn 0.057308 -0.041023 -0.997513
vn 0.057308 -0.041023 -0.997513
vn 0.057308 -0.041023 -0.997513
vn 0.057308 -0.041023 -0.997513
vn 0.071503 -0.534573 -0.842092
vn 0.071503 -0.534573 -0.842092
vn 0.071503 -0.534573 -0.842092
vn 0.071503 -0.534573 -0.842092
vn 0.066539 -0.884885 -0.461033
vn 0.066539 -0.884885 -0.461033
vn 0.066539 -0.884885 -0.461033
vn 0.066539 -0.884885 -0.461033
vn 0.043746 -0.998093 0.043560
vn 0.043746 -0.998093 0.043560
vn 0.043746 -0.998093 0.043560
vn 0.043746 -0.998093 0.043560
vn 0.009232 -0.843862 0.536481
vn 0.009232 -0.843862 0.536481
vn 0.009232 -0.843862 0.536481
vn 0.009232 -0.843862 0.536481
vn -0.027757 -0.463520 0.885652
vn -0.027757 -0.463520 0.885652
vn -0.027757 -0.463520 0.885652
vn -0.027757 -0.463520 0.885652
vn -0.057308 0.041023 0.997513
vn -0.057308 0.041023 0.997513
vn -0.057308 0.041023 0.997513
vn -0.057308 0.041023 0.997513
vn -0.071503 0.534573 0.842092
vn -0.071503 0.534573 0.842092
vn -0.071503 0.534573 0.842092
vn -0.071503 0.534573 0.842092
vn -0.066539 0.884885 0.461033
vn -0.066539 0.884885 0.461033
vn -0.066539 0.884885 0.461033
vn -0.066539 0.884885 0.461033
vn -0.043746 0.998093 -0.043560
vn -0.043746 0.998093 -0.043560
vn -0.043746 0.998093 -0.043560
vn -0.043746 0.998093 -0.043560
vn -0.009232 0.843862 -0.536481
vn -0.009232 0.843862 -0.536481
vn -0.009232 0.843862 -0.536481
vn -0.009232 0.843862 -0.536481
vn 0.027757 0.463519 -0.885652
vn 0.027757 0.463519 -0.885652
vn 0.027757 0.463519 -0.885652
vn 0.027757 0.463519 -0.885652
vn -0.997398 -0.046134 -0.055404
vn -0.997398 -0.046134 -0.055404
vn -0.997398 -0.046134 -0.055404
vn -0.997398 -0.046134 -0.055404
vn -0.997398 -0.046134 -0.055404
vn -0.997398 -0.046134 -0.055404
vn -0.997398 -0.046134 -0.055404
vn -0.997398 -0.046134 -0.055404
vn -0.997398 -0.046134 -0.055404
vn -0.997398 -0.046134 -0.055404
vn -0.997398 -0.046134 -0.055404
vn -0.997398 -0.046134 -0.055404
vn 0.997398 0.046134 0.055404
vn 0.997398 0.046134 0.055404
vn 0.997398 0.046134 0.055404
vn 0.997398 0.046134 0.055404
vn 0.997398 0.046134 0.055404
vn 0.997398 0.046134 0.055404
vn 0.997398 0.046134 0.055404
vn 0.997398 0.046134 0.055404
vn 0.997398 0.046134 0.055404
vn 0.997398 0.046134 0.055404
vn 0.997398 0.046134 0.055404
vn 0.997398 0.046134 0.055404

vt -0.163882 -0.216118
vt -0.159851 -0.218360
vt -0.162326 -0.222809
vt -0.166356 -0.220567
vt -0.214999 -0.183360
vt -0.211063 -0.185762
vt -0.213716 -0.190108
vt -0.217652 -0.187705
vt -0.222956 -0.188623
vt -0.218833 -0.190689
vt -0.221114 -0.195240
vt -0.225237 -0.193174
vt -0.174967 -0.232221
vt -0.170502 -0.233371
vt -0.171772 -0.238301
vt -0.176237 -0.237151
vt -0.064079 -0.272456
vt -0.059474 -0.272203
vt -0.059195 -0.277286
vt -0.063799 -0.277539
vt 0.064980 -0.261824
vt 0.069329 -0.260290
vt 0.071023 -0.265091
vt 0.066674 -0.266625
vt 0.159851 -0.218360
vt 0.163882 -0.216119
vt 0.166356 -0.220568
vt 0.162326 -0.222809
vt 0.211063 -0.185763
vt 0.214999 -0.183360
vt 0.217652 -0.187705
vt 0.213716 -0.190108
vt 0.170501 -0.233371
vt 0.174967 -0.232221
vt 0.176237 -0.237151
vt 0.171771 -0.238301
vt 0.059474 -0.272203
vt 0.064079 -0.272456
vt 0.063799 -0.277539
vt 0.059195 -0.277286
vt -0.069330 -0.260291
vt -0.064981 -0.261825
vt -0.066675 -0.266626
vt -0.071024 -0.265092
vt 0.063170 -0.288976
vt 0.058565 -0.288723
vt 0.058985 -0.281098
vt 0.063589 -0.281351
vt 0.179095 -0.248243
vt 0.174629 -0.249393
vt 0.172724 -0.241998
vt 0.177190 -0.240848
vt 0.223620 -0.197481
vt 0.219684 -0.199884
vt 0.215705 -0.193366
vt 0.219641 -0.190963
vt 0.171923 -0.230577
vt 0.167893 -0.232819
vt 0.164181 -0.226145
vt 0.168212 -0.223904
vt 0.074835 -0.275892
vt 0.070486 -0.277427
vt 0.067945 -0.270226
vt 0.072294 -0.268691
vt -0.058567 -0.288723
vt -0.063171 -0.288976
vt -0.063591 -0.281351
vt -0.058986 -0.281098
vt -0.174629 -0.249393
vt -0.179095 -0.248243
vt -0.177190 -0.240848
vt -0.172724 -0.241998
vt -0.226247 -0.205480
vt -0.230370 -0.203414
vt -0.226948 -0.196587
vt -0.222825 -0.198653
vt -0.219684 -0.199884
vt -0.223620 -0.197481
vt -0.219641 -0.190963
vt -0.215705 -0.193366
vt -0.167893 -0.232819
vt -0.171923 -0.230577
vt -0.168211 -0.223904
vt -0.164181 -0.226145
vt -0.070485 -0.277427
vt -0.074834 -0.275892
vt -0.072293 -0.268691
vt -0.067944 -0.270226
vt 0.062682 -0.297872
vt 0.058077 -0.297619
vt 0.058566 -0.288723
vt 0.063171 -0.288977
vt 0.181317 -0.256870
vt 0.176851 -0.258021
vt 0.174629 -0.249393
vt 0.179095 -0.248243
vt 0.228262 -0.205086
vt 0.224326 -0.207489
vt 0.219684 -0.199885
vt 0.223620 -0.197482
vt 0.176254 -0.238364
vt 0.172224 -0.240606
vt 0.167893 -0.232819
vt 0.171924 -0.230578
vt 0.077800 -0.284294
vt 0.073451 -0.285829
vt 0.070486 -0.277427
vt 0.074835 -0.275893
vt -0.058078 -0.297619
vt -0.062683 -0.297872
vt -0.063172 -0.288976
vt -0.058567 -0.288723
vt -0.230239 -0.213445
vt -0.234361 -0.211379
vt -0.230370 -0.203414
vt -0.226247 -0.205481
vt -0.224327 -0.207489
vt -0.228263 -0.205086
vt -0.223621 -0.197481
vt -0.219684 -0.199884
vt -0.172223 -0.240606
vt -0.176254 -0.238364
vt -0.171923 -0.230578
vt -0.167893 -0.232820
vt -0.073450 -0.285829
vt -0.077799 -0.284295
vt -0.074835 -0.275893
vt -0.070486 -0.277428
vt -0.126913 -0.265183
vt -0.126049 -0.265590
vt -0.127675 -0.269045
vt -0.128539 -0.268638
vt -0.201705 -0.221621
vt -0.200888 -0.222115
vt -0.202861 -0.225383
vt -0.203679 -0.224890
vt -0.232170 -0.205582
vt -0.231342 -0.206058
vt -0.233247 -0.209367
vt -0.234074 -0.208891
vt -0.212517 -0.232373
vt -0.211629 -0.232722
vt -0.213025 -0.236276
vt -0.213913 -0.235927
vt -0.126907 -0.282283
vt -0.125958 -0.282383
vt -0.126356 -0.286180
vt -0.127305 -0.286081
vt 0.007150 -0.298952
vt 0.008084 -0.298755
vt 0.008873 -0.302491
vt 0.007939 -0.302688
vt 0.126913 -0.265183
vt 0.127777 -0.264777
vt 0.129402 -0.268232
vt 0.128539 -0.268638
vt 0.201705 -0.221621
vt 0.202522 -0.221128
vt 0.204496 -0.224396
vt 0.203679 -0.224890
vt 0.232170 -0.205582
vt 0.232997 -0.205106
vt 0.234901 -0.208415
vt 0.234074 -0.208891
vt 0.212517 -0.232373
vt 0.213406 -0.232024
vt 0.214802 -0.235578
vt 0.213913 -0.235927
vt 0.126907 -0.282283
vt 0.127856 -0.282184
vt 0.128255 -0.285981
vt 0.127305 -0.286081
vt -0.007150 -0.298952
vt -0.006216 -0.299149
vt -0.007005 -0.302885
vt -0.007939 -0.302688
vt 0.086862 0.075024
vt 0.087278 0.074128
vt 0.087189 0.073143
vt 0.086620 0.072335
vt 0.085724 0.071920
vt 0.084739 0.072009
vt 0.083931 0.072577
vt 0.083516 0.073474
vt 0.083605 0.074458
vt 0.084174 0.075266
vt 0.085070 0.075682
vt 0.086054 0.075593
vt -0.086054 0.075593
vt -0.085070 0.075682
vt -0.084174 0.075266
vt -0.083605 0.074458
vt -0.083516 0.073474
vt -0.083931 0.072577
vt -0.084739 0.072009
vt -0.085724 0.071920
vt -0.086620 0.072335
vt -0.087189 0.073143
vt -0.087278 0.074128
vt -0.086862 0.075024
s off
f 1/1/1 2/2/2 3/3/3
f 1/1/1 3/3/3 4/4/4
f 5/5/5 6/6/6 7/7/7
f 5/5/5 7/7/7 8/8/8
f 9/9/9 10/10/10 11/11/11
f 9/9/9 11/11/11 12/12/12
f 13/13/13 14/14/14 15/15/15
f 13/13/13 15/15/15 16/16/16
f 17/17/17 18/18/18 19/19/19
f 17/17/17 19/19/19 20/20/20
f 21/21/21 22/22/22 23/23/23
f 21/21/21 23/23/23 24/24/24
f 25/25/25 26/26/26 27/27/27
f 25/25/25 27/27/27 28/28/28
f 29/29/29 30/30/30 31/31/31
f 29/29/29 31/31/31 32/32/32
f 33/33/33 34/34/34 35/35/35
f 33/33/33 35/35/35 36/36/36
f 37/37/37 38/38/38 39/39/39
f 37/37/37 39/39/39 40/40/40
f 41/41/41 42/42/42 43/43/43
f 41/41/41 43/43/43 44/44/44
f 45/45/45 46/46/46 47/47/47
f 45/45/45 47/47/47 48/48/48
f 49/49/49 50/50/50 51/51/51
f 49/49/49 51/51/51 52/52/52
f 53/53/53 54/54/54 55/55/55
f 53/53/53 55/55/55 56/56/56
f 57/57/57 58/58/58 59/59/59
f 57/57/57 59/59/59 60/60/60
f 61/61/61 62/62/62 63/63/63
f 61/61/61 63/63/63 64/64/64
f 65/65/65 66/66/66 67/67/67
f 65/65/65 67/67/67 68/68/68
f 69/69/69 70/70/70 71/71/71
f 69/69/69 71/71/71 72/72/72
f 73/73/73 74/74/74 75/75/75
f 73/73/73 75/75/75 76/76/76
f 77/77/77 78/78/78 79/79/79
f 77/77/77 79/79/79 80/80/80
f 81/81/81 82/82/82 83/83/83
f 81/81/81 83/83/83 84/84/84
f 85/85/85 86/86/86 87/87/87
f 85/85/85 87/87/87 88/88/88
f 89/89/89 90/90/90 91/91/91
f 89/89/89 91/91/91 92/92/92
f 93/93/93 94/94/94 95/95/95
f 93/93/93 95/95/95 96/96/96
f 97/97/97 98/98/98 99/99/99
f 97/97/97 99/99/99 100/100/100
f 101/101/101 102/102/102 103/103/103
f 101/101/101 103/103/103 104/104/104
f 105/105/105 106/106/106 107/107/107
f 105/105/105 107/107/107 108/108/108
f 109/109/109 110/110/110 111/111/111
f 109/109/109 111/111/111 112/112/112
f 113/113/113 114/114/114 115/115/115
f 113/113/113 115/115/115 116/116/116
f 117/117/117 118/118/118 119/119/119
f 117/117/117 119/119/119 120/120/120
f 121/121/121 122/122/122 123/123/123
f 121/121/121 123/123/123 124/124/124
f 125/125/125 126/126/126 127/127/127
f 125/125/125 127/127/127 128/128/128
f 129/129/129 130/130/130 131/131/131
f 129/129/129 131/131/131 132/132/132
f 133/133/133 134/134/134 135/135/135
f 133/133/133 135/135/135 136/136/136
f 137/137/137 138/138/138 139/139/139
f 137/137/137 139/139/139 140/140/140
f 141/141/141 142/142/142 143/143/143
f 141/141/141 143/143/143 144/144/144
f 145/145/145 146/146/146 147/147/147
f 145/145/145 147/147/147 148/148/148
f 149/149/149 150/150/150 151/151/151
f 149/149/149 151/151/151 152/152/152
f 153/153/153 154/154/154 155/155/155
f 153/153/153 155/155/155 156/156/156
f 157/157/157 158/158/158 159/159/159
f 157/157/157 159/159/159 160/160/160
f 161/161/161 162/162/162 163/163/163
f 161/161/161 163/163/163 164/164/164
f 165/165/165 166/166/166 167/167/167
f 165/165/165 167/167/167 168/168/168
f 169/169/169 170/170/170 171/171/171
f 169/169/169 171/171/171 172/172/172
f 173/173/173 174/174/174 175/175/175
f 173/173/173 175/175/175 176/176/176
f 177/177/177 178/178/178 179/179/179
f 177/177/177 179/179/179 180/180/180
f 177/177/177 180/180/180 181/181/181
f 177/177/177 181/181/181 182/182/182
f 177/177/177 182/182/182 183/183/183
f 177/177/177 183/183/183 184/184/184
f 177/177/177 184/184/184 185/185/185
f 177/177/177 185/185/185 186/186/186
f 177/177/177 186/186/186 187/187/187
f 177/177/177 187/187/187 188/188/188
f 189/189/189 190/190/190 191/191/191
f 189/189/189 191/191/191 192/192/192
f 189/189/189 192/192/192 193/193/193
f 189/189/189 193/193/193 194/194/194
f 189/189/189 194/194/194 195/195/195
f 189/189/189 195/195/195 196/196/196
f 189/189/189 196/196/196 197/197/197
f 189/189/189 197/197/197 198/198/198
f 189/189/189 198/198/198 199/199/199
f 189/189/189 199/199/199 200/200/200
