# Exported using automatic converter by Erwin Coumans
mtllib model6.mtl
#object mesh1763968502

v 2.553238 -0.534511 -2.830148
v 2.545738 -0.536521 -2.830148
v 2.545738 -0.536521 -2.800148
v 2.553238 -0.534511 -2.800148
v 2.545738 -0.536521 -2.830148
v 2.540247 -0.542011 -2.830148
v 2.540247 -0.542011 -2.800148
v 2.545738 -0.536521 -2.800148
v 2.540247 -0.542011 -2.830148
v 2.538238 -0.549511 -2.830148
v 2.538238 -0.549511 -2.800148
v 2.540247 -0.542011 -2.800148
v 2.538238 -0.549511 -2.830148
v 2.540247 -0.557011 -2.830148
v 2.540247 -0.557011 -2.800148
v 2.538238 -0.549511 -2.800148
v 2.540247 -0.557011 -2.830148
v 2.545738 -0.562501 -2.830148
v 2.545738 -0.562501 -2.800148
v 2.540247 -0.557011 -2.800148
v 2.545738 -0.562501 -2.830148
v 2.553238 -0.564511 -2.830148
v 2.553238 -0.564511 -2.800148
v 2.545738 -0.562501 -2.800148
v 2.553238 -0.564511 -2.830148
v 2.560738 -0.562501 -2.830148
v 2.560738 -0.562501 -2.800148
v 2.553238 -0.564511 -2.800148
v 2.560738 -0.562501 -2.830148
v 2.566228 -0.557011 -2.830148
v 2.566228 -0.557011 -2.800148
v 2.560738 -0.562501 -2.800148
v 2.566228 -0.557011 -2.830148
v 2.568238 -0.549511 -2.830148
v 2.568238 -0.549511 -2.800148
v 2.566228 -0.557011 -2.800148
v 2.568238 -0.549511 -2.830148
v 2.566228 -0.542011 -2.830148
v 2.566228 -0.542011 -2.800148
v 2.568238 -0.549511 -2.800148
v 2.566228 -0.542011 -2.830148
v 2.560738 -0.536521 -2.830148
v 2.560738 -0.536521 -2.800148
v 2.566228 -0.542011 -2.800148
v 2.560738 -0.536521 -2.830148
v 2.553238 -0.534511 -2.830148
v 2.553238 -0.534511 -2.800148
v 2.560738 -0.536521 -2.800148
v 2.553238 -0.534511 -2.800148
v 2.545738 -0.536521 -2.800148
v 2.540247 -0.542011 -2.800148
v 2.538238 -0.549511 -2.800148
v 2.540247 -0.557011 -2.800148
v 2.545738 -0.562501 -2.800148
v 2.553238 -0.564511 -2.800148
v 2.560738 -0.562501 -2.800148
v 2.566228 -0.557011 -2.800148
v 2.568238 -0.549511 -2.800148
v 2.566228 -0.542011 -2.800148
v 2.560738 -0.536521 -2.800148
v 2.560738 -0.536521 -2.830148
v 2.566228 -0.542011 -2.830148
v 2.568238 -0.549511 -2.830148
v 2.566228 -0.557011 -2.830148
v 2.560738 -0.562501 -2.830148
v 2.553238 -0.564511 -2.830148
v 2.545738 -0.562501 -2.830148
v 2.540247 -0.557011 -2.830148
v 2.538238 -0.549511 -2.830148
v 2.540247 -0.542011 -2.830148
v 2.545738 -0.536521 -2.830148
v 2.553238 -0.534511 -2.830148
usemtl mat21

vn 0.000000 1.000000 -0.000000
vn 0.000000 1.000000 -0.000000
vn 0.000000 1.000000 -0.000000
vn 0.000000 1.000000 -0.000000
vn -0.500000 0.866025 -0.000000
vn -0.500000 0.866025 -0.000000
vn -0.500000 0.866025 -0.000000
vn -0.500000 0.866025 -0.000000
vn -0.866026 0.500000 -0.000000
vn -0.866026 0.500000 -0.000000
vn -0.866026 0.500000 -0.000000
vn -0.866026 0.500000 -0.000000
vn -1.000000 -0.000000 -0.000000
vn -1.000000 -0.000000 -0.000000
vn -1.000000 -0.000000 -0.000000
vn -1.000000 -0.000000 -0.000000
vn -0.866025 -0.500000 -0.000000
vn -0.866025 -0.500000 -0.000000
vn -0.866025 -0.500000 -0.000000
vn -0.866025 -0.500000 -0.000000
vn -0.500000 -0.866025 0.000000
vn -0.500000 -0.866025 0.000000
vn -0.500000 -0.866025 0.000000
vn -0.500000 -0.866025 0.000000
vn 0.000000 -1.000000 0.000000
vn 0.000000 -1.000000 0.000000
vn 0.000000 -1.000000 0.000000
vn 0.000000 -1.000000 0.000000
vn 0.500000 -0.866025 0.000000
vn 0.500000 -0.866025 0.000000
vn 0.500000 -0.866025 0.000000
vn 0.500000 -0.866025 0.000000
vn 0.866026 -0.500000 0.000000
vn 0.866026 -0.500000 0.000000
vn 0.866026 -0.500000 0.000000
vn 0.866026 -0.500000 0.000000
vn 1.000000 0.000000 0.000000
vn 1.000000 0.000000 0.000000
vn 1.000000 0.000000 0.000000
vn 1.000000 0.000000 0.000000
vn 0.866026 0.500000 0.000000
vn 0.866026 0.500000 0.000000
vn 0.866026 0.500000 0.000000
vn 0.866026 0.500000 0.000000
vn 0.500000 0.866026 -0.000000
vn 0.500000 0.866026 -0.000000
vn 0.500000 0.866026 -0.000000
vn 0.500000 0.866026 -0.000000
vn -0.000000 -0.000000 1.000000
vn -0.000000 -0.000000 1.000000
vn -0.000000 -0.000000 1.000000
vn -0.000000 -0.000000 1.000000
vn -0.000000 -0.000000 1.000000
vn -0.000000 -0.000000 1.000000
vn -0.000000 -0.000000 1.000000
vn -0.000000 -0.000000 1.000000
vn -0.000000 -0.000000 1.000000
vn -0.000000 -0.000000 1.000000
vn -0.000000 -0.000000 1.000000
vn -0.000000 -0.000000 1.000000
vn 0.000000 0.000000 -1.000000
vn 0.000000 0.000000 -1.000000
vn 0.000000 0.000000 -1.000000
vn 0.000000 0.000000 -1.000000
vn 0.000000 0.000000 -1.000000
vn 0.000000 0.000000 -1.000000
vn 0.000000 0.000000 -1.000000
vn 0.000000 0.000000 -1.000000
vn 0.000000 0.000000 -1.000000
vn 0.000000 0.000000 -1.000000
vn 0.000000 0.000000 -1.000000
vn 0.000000 0.000000 -1.000000

vt 0.107190 0.276670
vt 0.107443 0.275964
vt 0.104617 0.274955
vt 0.104365 0.275661
vt 0.126503 0.241205
vt 0.126731 0.240491
vt 0.123874 0.239577
vt 0.123645 0.240291
vt 0.143064 0.168928
vt 0.143332 0.168227
vt 0.140530 0.167155
vt 0.140262 0.167856
vt 0.161642 0.107471
vt 0.162078 0.106861
vt 0.159637 0.105117
vt 0.159201 0.105727
vt 0.080095 0.212406
vt 0.080832 0.212544
vt 0.081385 0.209596
vt 0.080648 0.209457
vt -0.068690 0.268314
vt -0.068313 0.268963
vt -0.065718 0.267458
vt -0.066094 0.266809
vt -0.107190 0.276670
vt -0.106938 0.277377
vt -0.104113 0.276368
vt -0.104365 0.275661
vt -0.126503 0.241205
vt -0.126274 0.241920
vt -0.123417 0.241005
vt -0.123645 0.240291
vt -0.143064 0.168928
vt -0.142796 0.169628
vt -0.139994 0.168556
vt -0.140262 0.167856
vt -0.161642 0.107471
vt -0.161206 0.108081
vt -0.158765 0.106338
vt -0.159201 0.105727
vt -0.080095 0.212406
vt -0.079358 0.212268
vt -0.079911 0.209319
vt -0.080648 0.209457
vt 0.068690 0.268314
vt 0.069066 0.267665
vt 0.066470 0.266160
vt 0.066094 0.266809
vt -0.104872 0.198563
vt -0.104716 0.197802
vt -0.104961 0.197066
vt -0.105542 0.196550
vt -0.106303 0.196395
vt -0.107040 0.196640
vt -0.107555 0.197221
vt -0.107711 0.197982
vt -0.107465 0.198719
vt -0.106884 0.199234
vt -0.106123 0.199389
vt -0.105387 0.199144
vt 0.105387 0.199144
vt 0.106123 0.199389
vt 0.106884 0.199234
vt 0.107465 0.198719
vt 0.107711 0.197982
vt 0.107555 0.197221
vt 0.107040 0.196640
vt 0.106303 0.196395
vt 0.105542 0.196550
vt 0.104961 0.197066
vt 0.104716 0.197802
vt 0.104872 0.198563
s off
f 1/1/1 2/2/2 3/3/3
f 1/1/1 3/3/3 4/4/4
f 5/5/5 6/6/6 7/7/7
f 5/5/5 7/7/7 8/8/8
f 9/9/9 10/10/10 11/11/11
f 9/9/9 11/11/11 12/12/12
f 13/13/13 14/14/14 15/15/15
f 13/13/13 15/15/15 16/16/16
f 17/17/17 18/18/18 19/19/19
f 17/17/17 19/19/19 20/20/20
f 21/21/21 22/22/22 23/23/23
f 21/21/21 23/23/23 24/24/24
f 25/25/25 26/26/26 27/27/27
f 25/25/25 27/27/27 28/28/28
f 29/29/29 30/30/30 31/31/31
f 29/29/29 31/31/31 32/32/32
f 33/33/33 34/34/34 35/35/35
f 33/33/33 35/35/35 36/36/36
f 37/37/37 38/38/38 39/39/39
f 37/37/37 39/39/39 40/40/40
f 41/41/41 42/42/42 43/43/43
f 41/41/41 43/43/43 44/44/44
f 45/45/45 46/46/46 47/47/47
f 45/45/45 47/47/47 48/48/48
f 49/49/49 50/50/50 51/51/51
f 49/49/49 51/51/51 52/52/52
f 49/49/49 52/52/52 53/53/53
f 49/49/49 53/53/53 54/54/54
f 49/49/49 54/54/54 55/55/55
f 49/49/49 55/55/55 56/56/56
f 49/49/49 56/56/56 57/57/57
f 49/49/49 57/57/57 58/58/58
f 49/49/49 58/58/58 59/59/59
f 49/49/49 59/59/59 60/60/60
f 61/61/61 62/62/62 63/63/63
f 61/61/61 63/63/63 64/64/64
f 61/61/61 64/64/64 65/65/65
f 61/61/61 65/65/65 66/66/66
f 61/61/61 66/66/66 67/67/67
f 61/61/61 67/67/67 68/68/68
f 61/61/61 68/68/68 69/69/69
f 61/61/61 69/69/69 70/70/70
f 61/61/61 70/70/70 71/71/71
f 61/61/61 71/71/71 72/72/72
