# Exported using automatic converter by Erwin Coumans
mtllib model6.mtl
#object group1487006333_1

v 1.687408 -0.918288 -2.836668
v 1.687076 -0.889491 -2.836382
v 1.291610 -0.907472 -2.941840
v 1.291942 -0.936269 -2.942125
v 1.292632 -0.906604 -3.028229
v 1.688098 -0.888623 -2.922771
v 1.688430 -0.917419 -2.923057
v 1.292964 -0.935401 -3.028514
v 1.291610 -0.907472 -2.941840
v 1.292632 -0.906604 -3.028229
v 1.292964 -0.935401 -3.028514
v 1.291942 -0.936269 -2.942125
v 1.688430 -0.917419 -2.923057
v 1.688098 -0.888623 -2.922771
v 1.687076 -0.889491 -2.836382
v 1.687408 -0.918288 -2.836668
v 1.292964 -0.935401 -3.028514
v 1.688430 -0.917419 -2.923057
v 1.687408 -0.918288 -2.836668
v 1.291942 -0.936269 -2.942125
v 1.687076 -0.889491 -2.836382
v 1.688098 -0.888623 -2.922771
v 1.292632 -0.906604 -3.028229
v 1.291610 -0.907472 -2.941840
v 1.765849 -0.735044 -2.344241
v 1.765517 -0.706248 -2.343955
v 1.736721 -0.706576 -2.344299
v 1.737053 -0.735372 -2.344585
v 1.737062 -0.706286 -2.373096
v 1.765858 -0.705958 -2.372752
v 1.766189 -0.734755 -2.373037
v 1.737393 -0.735083 -2.373381
v 1.736721 -0.706576 -2.344299
v 1.737062 -0.706286 -2.373096
v 1.737393 -0.735083 -2.373381
v 1.737053 -0.735372 -2.344585
v 1.766189 -0.734755 -2.373037
v 1.765858 -0.705958 -2.372752
v 1.765517 -0.706248 -2.343955
v 1.765849 -0.735044 -2.344241
v 1.737393 -0.735083 -2.373381
v 1.766189 -0.734755 -2.373037
v 1.765849 -0.735044 -2.344241
v 1.737053 -0.735372 -2.344585
v 1.765517 -0.706248 -2.343955
v 1.765858 -0.705958 -2.372752
v 1.737062 -0.706286 -2.373096
v 1.736721 -0.706576 -2.344299
v 1.765005 -0.706682 -2.300761
v 1.736209 -0.707010 -2.301105
v 1.736541 -0.735807 -2.301390
v 1.765337 -0.735478 -2.301046
v 1.736882 -0.735517 -2.330186
v 1.736550 -0.706721 -2.329901
v 1.765346 -0.706393 -2.329557
v 1.765678 -0.735189 -2.329843
v 1.736541 -0.735807 -2.301390
v 1.736882 -0.735517 -2.330186
v 1.765678 -0.735189 -2.329843
v 1.765337 -0.735478 -2.301046
v 1.765346 -0.706393 -2.329557
v 1.736550 -0.706721 -2.329901
v 1.736209 -0.707010 -2.301105
v 1.765005 -0.706682 -2.300761
v 1.765678 -0.735189 -2.329843
v 1.765346 -0.706393 -2.329557
v 1.765005 -0.706682 -2.300761
v 1.765337 -0.735478 -2.301046
v 1.736209 -0.707010 -2.301105
v 1.736550 -0.706721 -2.329901
v 1.736882 -0.735517 -2.330186
v 1.736541 -0.735807 -2.301390
v 1.635871 -0.911326 -2.145926
v 1.635540 -0.882529 -2.145641
v 1.261192 -0.886795 -2.150113
v 1.261523 -0.915591 -2.150399
v 1.261532 -0.886505 -2.178910
v 1.635880 -0.882240 -2.174438
v 1.636212 -0.911036 -2.174723
v 1.261864 -0.915302 -2.179195
v 1.261192 -0.886795 -2.150113
v 1.261532 -0.886505 -2.178910
v 1.261864 -0.915302 -2.179195
v 1.261523 -0.915591 -2.150399
v 1.636212 -0.911036 -2.174723
v 1.635880 -0.882240 -2.174438
v 1.635540 -0.882529 -2.145641
v 1.635871 -0.911326 -2.145926
v 1.261864 -0.915302 -2.179195
v 1.636212 -0.911036 -2.174723
v 1.635871 -0.911326 -2.145926
v 1.261523 -0.915591 -2.150399
v 1.635540 -0.882529 -2.145641
v 1.635880 -0.882240 -2.174438
v 1.261532 -0.886505 -2.178910
v 1.261192 -0.886795 -2.150113
usemtl mat17

vn -0.257110 -0.012538 0.966301
vn -0.257110 -0.012538 0.966301
vn -0.257110 -0.012538 0.966301
vn -0.257110 -0.012538 0.966301
vn 0.257110 0.012538 -0.966301
vn 0.257110 0.012538 -0.966301
vn 0.257110 0.012538 -0.966301
vn 0.257110 0.012538 -0.966301
vn -0.999864 -0.011393 -0.011945
vn -0.999864 -0.011393 -0.011945
vn -0.999864 -0.011393 -0.011945
vn -0.999864 -0.011393 -0.011945
vn 0.999864 0.011393 0.011945
vn 0.999864 0.011393 0.011945
vn 0.999864 0.011393 0.011945
vn 0.999864 0.011393 0.011945
vn 0.047940 -0.998805 -0.009469
vn 0.047940 -0.998805 -0.009469
vn 0.047940 -0.998805 -0.009469
vn 0.047940 -0.998805 -0.009469
vn -0.047940 0.998805 0.009469
vn -0.047940 0.998805 0.009469
vn -0.047940 0.998805 0.009469
vn -0.047940 0.998805 0.009469
vn -0.011830 -0.010047 0.999879
vn -0.011830 -0.010047 0.999879
vn -0.011830 -0.010047 0.999879
vn -0.011830 -0.010047 0.999879
vn 0.011830 0.010047 -0.999879
vn 0.011830 0.010047 -0.999879
vn 0.011830 0.010047 -0.999879
vn 0.011830 0.010047 -0.999879
vn -0.999864 -0.011393 -0.011945
vn -0.999864 -0.011393 -0.011945
vn -0.999864 -0.011393 -0.011945
vn -0.999864 -0.011393 -0.011945
vn 0.999864 0.011393 0.011945
vn 0.999864 0.011393 0.011945
vn 0.999864 0.011393 0.011945
vn 0.999864 0.011393 0.011945
vn 0.011511 -0.999885 -0.009911
vn 0.011511 -0.999885 -0.009911
vn 0.011511 -0.999885 -0.009911
vn 0.011511 -0.999885 -0.009911
vn -0.011511 0.999885 0.009911
vn -0.011511 0.999885 0.009911
vn -0.011511 0.999885 0.009911
vn -0.011511 0.999885 0.009911
vn -0.011831 -0.010047 0.999879
vn -0.011831 -0.010047 0.999879
vn -0.011831 -0.010047 0.999879
vn -0.011831 -0.010047 0.999879
vn 0.011831 0.010047 -0.999879
vn 0.011831 0.010047 -0.999879
vn 0.011831 0.010047 -0.999879
vn 0.011831 0.010047 -0.999879
vn 0.011512 -0.999885 -0.009911
vn 0.011512 -0.999885 -0.009911
vn 0.011512 -0.999885 -0.009911
vn 0.011512 -0.999885 -0.009911
vn -0.011512 0.999885 0.009911
vn -0.011512 0.999885 0.009911
vn -0.011512 0.999885 0.009911
vn -0.011512 0.999885 0.009911
vn 0.999864 0.011393 0.011945
vn 0.999864 0.011393 0.011945
vn 0.999864 0.011393 0.011945
vn 0.999864 0.011393 0.011945
vn -0.999864 -0.011393 -0.011945
vn -0.999864 -0.011393 -0.011945
vn -0.999864 -0.011393 -0.011945
vn -0.999864 -0.011393 -0.011945
vn -0.011830 -0.010047 0.999879
vn -0.011830 -0.010047 0.999879
vn -0.011830 -0.010047 0.999879
vn -0.011830 -0.010047 0.999879
vn 0.011830 0.010047 -0.999879
vn 0.011830 0.010047 -0.999879
vn 0.011830 0.010047 -0.999879
vn 0.011830 0.010047 -0.999879
vn -0.999864 -0.011393 -0.011945
vn -0.999864 -0.011393 -0.011945
vn -0.999864 -0.011393 -0.011945
vn -0.999864 -0.011393 -0.011945
vn 0.999864 0.011393 0.011945
vn 0.999864 0.011393 0.011945
vn 0.999864 0.011393 0.011945
vn 0.999864 0.011393 0.011945
vn 0.011511 -0.999885 -0.009911
vn 0.011511 -0.999885 -0.009911
vn 0.011511 -0.999885 -0.009911
vn 0.011511 -0.999885 -0.009911
vn -0.011511 0.999885 0.009911
vn -0.011511 0.999885 0.009911
vn -0.011511 0.999885 0.009911
vn -0.011511 0.999885 0.009911

vt -0.081072 0.049868
vt -0.078550 0.051259
vt -0.060037 0.014713
vt -0.062558 0.013321
vt 0.059011 0.012854
vt 0.077525 0.049401
vt 0.080046 0.048009
vt 0.061533 0.011463
vt 0.190792 0.089736
vt 0.197633 0.095013
vt 0.199392 0.092732
vt 0.192550 0.087456
vt -0.190543 0.087735
vt -0.188784 0.090016
vt -0.181943 0.084739
vt -0.183702 0.082459
vt -0.169119 0.161782
vt -0.145986 0.195595
vt -0.137876 0.192616
vt -0.161009 0.158804
vt 0.137840 0.192715
vt 0.145950 0.195693
vt 0.169083 0.161881
vt 0.160972 0.158902
vt -0.087993 0.117072
vt -0.085401 0.118328
vt -0.084145 0.115736
vt -0.086737 0.114480
vt 0.084145 0.115736
vt 0.085401 0.118328
vt 0.087993 0.117072
vt 0.086737 0.114480
vt 0.131741 0.069664
vt 0.134022 0.071422
vt 0.135780 0.069142
vt 0.133500 0.067383
vt -0.135780 0.069142
vt -0.134022 0.071422
vt -0.131741 0.069664
vt -0.133500 0.067383
vt -0.091006 0.184328
vt -0.089998 0.187026
vt -0.087300 0.186019
vt -0.088308 0.183321
vt 0.087300 0.186019
vt 0.089998 0.187026
vt 0.091006 0.184328
vt 0.088308 0.183321
vt -0.085401 0.118327
vt -0.084145 0.115736
vt -0.086737 0.114480
vt -0.087993 0.117072
vt 0.086737 0.114480
vt 0.084145 0.115736
vt 0.085401 0.118327
vt 0.087993 0.117072
vt -0.084261 0.181809
vt -0.086959 0.182817
vt -0.085951 0.185515
vt -0.083253 0.184507
vt 0.085951 0.185515
vt 0.086959 0.182817
vt 0.084261 0.181809
vt 0.083253 0.184507
vt -0.132360 0.066504
vt -0.130601 0.068784
vt -0.128320 0.067025
vt -0.130079 0.064745
vt 0.128320 0.067025
vt 0.130601 0.068784
vt 0.132360 0.066504
vt 0.130079 0.064745
vt -0.097896 0.097877
vt -0.095304 0.099132
vt -0.078986 0.065435
vt -0.081578 0.064180
vt 0.078986 0.065435
vt 0.095304 0.099132
vt 0.097896 0.097877
vt 0.081578 0.064180
vt 0.126330 0.043669
vt 0.128611 0.045427
vt 0.130369 0.043147
vt 0.128089 0.041388
vt -0.130369 0.043147
vt -0.128611 0.045427
vt -0.126330 0.043669
vt -0.128089 0.041388
vt -0.088745 0.132759
vt -0.075646 0.167832
vt -0.072949 0.166825
vt -0.086047 0.131751
vt 0.072949 0.166825
vt 0.075646 0.167832
vt 0.088745 0.132759
vt 0.086047 0.131751
s off
f 1/1/1 2/2/2 3/3/3
f 1/1/1 3/3/3 4/4/4
f 5/5/5 6/6/6 7/7/7
f 5/5/5 7/7/7 8/8/8
f 9/9/9 10/10/10 11/11/11
f 9/9/9 11/11/11 12/12/12
f 13/13/13 14/14/14 15/15/15
f 13/13/13 15/15/15 16/16/16
f 17/17/17 18/18/18 19/19/19
f 17/17/17 19/19/19 20/20/20
f 21/21/21 22/22/22 23/23/23
f 21/21/21 23/23/23 24/24/24
f 25/25/25 26/26/26 27/27/27
f 25/25/25 27/27/27 28/28/28
f 29/29/29 30/30/30 31/31/31
f 29/29/29 31/31/31 32/32/32
f 33/33/33 34/34/34 35/35/35
f 33/33/33 35/35/35 36/36/36
f 37/37/37 38/38/38 39/39/39
f 37/37/37 39/39/39 40/40/40
f 41/41/41 42/42/42 43/43/43
f 41/41/41 43/43/43 44/44/44
f 45/45/45 46/46/46 47/47/47
f 45/45/45 47/47/47 48/48/48
f 49/49/49 50/50/50 51/51/51
f 49/49/49 51/51/51 52/52/52
f 53/53/53 54/54/54 55/55/55
f 53/53/53 55/55/55 56/56/56
f 57/57/57 58/58/58 59/59/59
f 57/57/57 59/59/59 60/60/60
f 61/61/61 62/62/62 63/63/63
f 61/61/61 63/63/63 64/64/64
f 65/65/65 66/66/66 67/67/67
f 65/65/65 67/67/67 68/68/68
f 69/69/69 70/70/70 71/71/71
f 69/69/69 71/71/71 72/72/72
f 73/73/73 74/74/74 75/75/75
f 73/73/73 75/75/75 76/76/76
f 77/77/77 78/78/78 79/79/79
f 77/77/77 79/79/79 80/80/80
f 81/81/81 82/82/82 83/83/83
f 81/81/81 83/83/83 84/84/84
f 85/85/85 86/86/86 87/87/87
f 85/85/85 87/87/87 88/88/88
f 89/89/89 90/90/90 91/91/91
f 89/89/89 91/91/91 92/92/92
f 93/93/93 94/94/94 95/95/95
f 93/93/93 95/95/95 96/96/96
