# Exported using automatic converter by Erwin Coumans
mtllib botlab.mtl
#object mesh1758517735

v 1.663905 0.560752 -3.114130
v 1.713813 0.558200 -3.115765
v 1.709385 0.474059 -3.119597
v 1.659477 0.476611 -3.117962
v 1.714696 0.465813 -2.944644
v 1.719123 0.549954 -2.940813
v 1.669215 0.552505 -2.939177
v 1.664788 0.468364 -2.943009
v 1.709385 0.474059 -3.119597
v 1.714696 0.465813 -2.944644
v 1.664788 0.468364 -2.943009
v 1.659477 0.476611 -3.117962
v 1.669215 0.552505 -2.939177
v 1.719123 0.549954 -2.940813
v 1.713813 0.558200 -3.115765
v 1.663905 0.560752 -3.114130
v 1.664788 0.468364 -2.943009
v 1.669215 0.552505 -2.939177
v 1.663905 0.560752 -3.114130
v 1.659477 0.476611 -3.117962
v 1.713813 0.558200 -3.115765
v 1.719123 0.549954 -2.940813
v 1.714696 0.465813 -2.944644
v 1.709385 0.474059 -3.119597
usemtl mat21

vn -0.030306 0.047064 -0.998432
vn -0.030306 0.047064 -0.998432
vn -0.030306 0.047064 -0.998432
vn -0.030306 0.047064 -0.998432
vn 0.030306 -0.047064 0.998432
vn 0.030306 -0.047064 0.998432
vn 0.030306 -0.047064 0.998432
vn 0.030306 -0.047064 0.998432
vn -0.052495 -0.997587 -0.045430
vn -0.052495 -0.997587 -0.045430
vn -0.052495 -0.997587 -0.045430
vn -0.052495 -0.997587 -0.045430
vn 0.052495 0.997587 0.045430
vn 0.052495 0.997587 0.045430
vn 0.052495 0.997587 0.045430
vn 0.052495 0.997587 0.045430
vn -0.998161 0.051036 0.032704
vn -0.998161 0.051036 0.032704
vn -0.998161 0.051036 0.032704
vn -0.998161 0.051036 0.032704
vn 0.998161 -0.051036 -0.032704
vn 0.998161 -0.051036 -0.032704
vn 0.998161 -0.051036 -0.032704
vn 0.998161 -0.051036 -0.032704

vt -0.023438 0.168964
vt -0.021050 0.173357
vt -0.013639 0.169329
vt -0.016027 0.164936
vt 0.013639 0.169329
vt 0.021050 0.173357
vt 0.023438 0.168964
vt 0.016027 0.164936
vt -0.162358 0.208671
vt -0.145847 0.202803
vt -0.147521 0.198092
vt -0.164032 0.203959
vt 0.147521 0.198092
vt 0.145847 0.202803
vt 0.162358 0.208671
vt 0.164032 0.203959
vt 0.121058 0.190079
vt 0.116443 0.197139
vt 0.131109 0.206727
vt 0.135724 0.199668
vt -0.131109 0.206727
vt -0.116443 0.197139
vt -0.121058 0.190079
vt -0.135724 0.199668
s off
f 1/1/1 2/2/2 3/3/3
f 1/1/1 3/3/3 4/4/4
f 5/5/5 6/6/6 7/7/7
f 5/5/5 7/7/7 8/8/8
f 9/9/9 10/10/10 11/11/11
f 9/9/9 11/11/11 12/12/12
f 13/13/13 14/14/14 15/15/15
f 13/13/13 15/15/15 16/16/16
f 17/17/17 18/18/18 19/19/19
f 17/17/17 19/19/19 20/20/20
f 21/21/21 22/22/22 23/23/23
f 21/21/21 23/23/23 24/24/24
