# Exported using automatic converter by Erwin Coumans
mtllib model6.mtl
#object mesh1520859736

v 3.013833 -0.691995 -2.590587
v 3.015062 -0.692316 -2.641688
v 3.027411 -0.998766 -2.639466
v 3.026181 -0.998445 -2.588364
v 3.065707 -0.997216 -2.638554
v 3.053358 -0.690767 -2.640777
v 3.052129 -0.690446 -2.589675
v 3.064477 -0.996895 -2.587452
v 3.027411 -0.998766 -2.639466
v 3.065707 -0.997216 -2.638554
v 3.064477 -0.996895 -2.587452
v 3.026181 -0.998445 -2.588364
v 3.052129 -0.690446 -2.589675
v 3.053358 -0.690767 -2.640777
v 3.015062 -0.692316 -2.641688
v 3.013833 -0.691995 -2.590587
v 3.064477 -0.996895 -2.587452
v 3.052129 -0.690446 -2.589675
v 3.013833 -0.691995 -2.590587
v 3.026181 -0.998445 -2.588364
v 3.015062 -0.692316 -2.641688
v 3.053358 -0.690767 -2.640777
v 3.065707 -0.997216 -2.638554
v 3.027411 -0.998766 -2.639466
usemtl mat23

vn -0.998900 -0.040423 -0.023783
vn -0.998900 -0.040423 -0.023783
vn -0.998900 -0.040423 -0.023783
vn -0.998900 -0.040423 -0.023783
vn 0.998900 0.040423 0.023783
vn 0.998900 0.040423 0.023783
vn 0.998900 0.040423 0.023783
vn 0.998900 0.040423 0.023783
vn 0.040262 -0.999163 0.007248
vn 0.040262 -0.999163 0.007248
vn 0.040262 -0.999163 0.007248
vn 0.040262 -0.999163 0.007248
vn -0.040262 0.999163 -0.007248
vn -0.040262 0.999163 -0.007248
vn -0.040262 0.999163 -0.007248
vn -0.040262 0.999163 -0.007248
vn -0.024056 0.006282 0.999691
vn -0.024056 0.006282 0.999691
vn -0.024056 0.006282 0.999691
vn -0.024056 0.006282 0.999691
vn 0.024056 -0.006282 -0.999691
vn 0.024056 -0.006282 -0.999691
vn 0.024056 -0.006282 -0.999691
vn 0.024056 -0.006282 -0.999691

vt 0.155947 0.088332
vt 0.159903 0.091569
vt 0.179326 0.067831
vt 0.175369 0.064594
vt -0.179326 0.067831
vt -0.159903 0.091569
vt -0.155947 0.088332
vt -0.175369 0.064594
vt -0.077270 0.312227
vt -0.075927 0.315818
vt -0.071139 0.314027
vt -0.072482 0.310436
vt 0.071139 0.314027
vt 0.075927 0.315818
vt 0.077270 0.312227
vt 0.072482 0.310436
vt -0.167447 0.219467
vt -0.139552 0.232216
vt -0.137958 0.228730
vt -0.165853 0.215980
vt 0.137958 0.228730
vt 0.139552 0.232216
vt 0.167447 0.219467
vt 0.165853 0.215980
s off
f 1/1/1 2/2/2 3/3/3
f 1/1/1 3/3/3 4/4/4
f 5/5/5 6/6/6 7/7/7
f 5/5/5 7/7/7 8/8/8
f 9/9/9 10/10/10 11/11/11
f 9/9/9 11/11/11 12/12/12
f 13/13/13 14/14/14 15/15/15
f 13/13/13 15/15/15 16/16/16
f 17/17/17 18/18/18 19/19/19
f 17/17/17 19/19/19 20/20/20
f 21/21/21 22/22/22 23/23/23
f 21/21/21 23/23/23 24/24/24
