# Exported using automatic converter by Erwin Coumans
mtllib model6.mtl
#object mesh1231879013

v 1.028238 0.475489 -0.880148
v 1.028238 0.625489 -0.880148
v 1.008238 0.625489 -0.880148
v 1.008238 0.475489 -0.880148
v 1.008238 0.625489 -0.900148
v 1.028238 0.625489 -0.900148
v 1.028238 0.475489 -0.900148
v 1.008238 0.475489 -0.900148
v 1.008238 0.625489 -0.880148
v 1.008238 0.625489 -0.900148
v 1.008238 0.475489 -0.900148
v 1.008238 0.475489 -0.880148
v 1.028238 0.475489 -0.900148
v 1.028238 0.625489 -0.900148
v 1.028238 0.625489 -0.880148
v 1.028238 0.475489 -0.880148
v 1.008238 0.475489 -0.900148
v 1.028238 0.475489 -0.900148
v 1.028238 0.475489 -0.880148
v 1.008238 0.475489 -0.880148
v 1.028238 0.625489 -0.880148
v 1.028238 0.625489 -0.900148
v 1.008238 0.625489 -0.900148
v 1.008238 0.625489 -0.880148
usemtl mat23

vn 0.000000 0.000000 1.000000
vn 0.000000 0.000000 1.000000
vn 0.000000 0.000000 1.000000
vn 0.000000 0.000000 1.000000
vn 0.000000 0.000000 -1.000000
vn 0.000000 0.000000 -1.000000
vn 0.000000 0.000000 -1.000000
vn 0.000000 0.000000 -1.000000
vn -1.000000 0.000000 0.000000
vn -1.000000 0.000000 0.000000
vn -1.000000 0.000000 0.000000
vn -1.000000 0.000000 0.000000
vn 1.000000 0.000000 0.000000
vn 1.000000 0.000000 0.000000
vn 1.000000 0.000000 0.000000
vn 1.000000 0.000000 0.000000
vn 0.000000 -1.000000 0.000000
vn 0.000000 -1.000000 0.000000
vn 0.000000 -1.000000 0.000000
vn 0.000000 -1.000000 0.000000
vn 0.000000 1.000000 0.000000
vn 0.000000 1.000000 0.000000
vn 0.000000 1.000000 0.000000
vn 0.000000 1.000000 0.000000

vt 0.053666 0.107331
vt 0.067082 0.114040
vt 0.067976 0.112251
vt 0.054560 0.105542
vt -0.067976 0.112251
vt -0.067082 0.114040
vt -0.053666 0.107331
vt -0.054560 0.105542
vt -0.065331 0.089743
vt -0.063704 0.090906
vt -0.054985 0.078700
vt -0.056613 0.077537
vt 0.054985 0.078700
vt 0.063704 0.090906
vt 0.065331 0.089743
vt 0.056613 0.077537
vt 0.022602 0.066258
vt 0.023274 0.068142
vt 0.025158 0.067469
vt 0.024485 0.065586
vt -0.025158 0.067469
vt -0.023274 0.068142
vt -0.022602 0.066258
vt -0.024485 0.065586
s off
f 1/1/1 2/2/2 3/3/3
f 1/1/1 3/3/3 4/4/4
f 5/5/5 6/6/6 7/7/7
f 5/5/5 7/7/7 8/8/8
f 9/9/9 10/10/10 11/11/11
f 9/9/9 11/11/11 12/12/12
f 13/13/13 14/14/14 15/15/15
f 13/13/13 15/15/15 16/16/16
f 17/17/17 18/18/18 19/19/19
f 17/17/17 19/19/19 20/20/20
f 21/21/21 22/22/22 23/23/23
f 21/21/21 23/23/23 24/24/24
