# Exported using automatic converter by Erwin Coumans
mtllib model6.mtl
#object group2091990164_2

v -0.112965 0.475376 -1.394446
v -0.112671 0.511584 -1.394605
v 0.597026 0.505819 -1.395014
v 0.596732 0.469610 -1.394855
v 0.597035 0.505883 -1.380530
v -0.112663 0.511648 -1.380121
v -0.112957 0.475439 -1.379962
v 0.596740 0.469674 -1.380371
v 0.597026 0.505819 -1.395014
v 0.597035 0.505883 -1.380530
v 0.596740 0.469674 -1.380371
v 0.596732 0.469610 -1.394855
v -0.112957 0.475439 -1.379962
v -0.112663 0.511648 -1.380121
v -0.112671 0.511584 -1.394605
v -0.112965 0.475376 -1.394446
v 0.596740 0.469674 -1.380371
v -0.112957 0.475439 -1.379962
v -0.112965 0.475376 -1.394446
v 0.596732 0.469610 -1.394855
v -0.112671 0.511584 -1.394605
v -0.112663 0.511648 -1.380121
v 0.597035 0.505883 -1.380530
v 0.597026 0.505819 -1.395014
v 0.589458 0.466032 -1.398455
v 0.589635 0.487758 -1.398551
v 0.618602 0.487522 -1.398567
v 0.618425 0.465797 -1.398472
v 0.619023 0.490546 -0.710580
v 0.590056 0.490781 -0.710563
v 0.589879 0.469056 -0.710467
v 0.618846 0.468821 -0.710484
v 0.618602 0.487522 -1.398567
v 0.619023 0.490546 -0.710580
v 0.618846 0.468821 -0.710484
v 0.618425 0.465797 -1.398472
v 0.589879 0.469056 -0.710467
v 0.590056 0.490781 -0.710563
v 0.589635 0.487758 -1.398551
v 0.589458 0.466032 -1.398455
v 0.618846 0.468821 -0.710484
v 0.589879 0.469056 -0.710467
v 0.589458 0.466032 -1.398455
v 0.618425 0.465797 -1.398472
v 0.589635 0.487758 -1.398551
v 0.590056 0.490781 -0.710563
v 0.619023 0.490546 -0.710580
v 0.618602 0.487522 -1.398567
v -0.119831 0.474726 -0.731787
v -0.119537 0.510935 -0.731946
v 0.590160 0.505170 -0.732355
v 0.589866 0.468961 -0.732195
v 0.590169 0.505233 -0.717871
v -0.119528 0.510999 -0.717462
v -0.119822 0.474790 -0.717303
v 0.589875 0.469025 -0.717711
v 0.590160 0.505170 -0.732355
v 0.590169 0.505233 -0.717871
v 0.589875 0.469025 -0.717711
v 0.589866 0.468961 -0.732195
v -0.119822 0.474790 -0.717303
v -0.119528 0.510999 -0.717462
v -0.119537 0.510935 -0.731946
v -0.119831 0.474726 -0.731787
v 0.589875 0.469025 -0.717711
v -0.119822 0.474790 -0.717303
v -0.119831 0.474726 -0.731787
v 0.589866 0.468961 -0.732195
v -0.119537 0.510935 -0.731946
v -0.119528 0.510999 -0.717462
v 0.590169 0.505233 -0.717871
v 0.590160 0.505170 -0.732355
v -0.141969 0.471943 -1.405275
v -0.141792 0.493668 -1.405371
v -0.112825 0.493432 -1.405388
v -0.113002 0.471707 -1.405292
v -0.112404 0.496456 -0.717400
v -0.141371 0.496692 -0.717383
v -0.141548 0.474966 -0.717287
v -0.112581 0.474731 -0.717304
v -0.112825 0.493432 -1.405388
v -0.112404 0.496456 -0.717400
v -0.112581 0.474731 -0.717304
v -0.113002 0.471707 -1.405292
v -0.141548 0.474966 -0.717287
v -0.141371 0.496692 -0.717383
v -0.141792 0.493668 -1.405371
v -0.141969 0.471943 -1.405275
v -0.112581 0.474731 -0.717304
v -0.141548 0.474966 -0.717287
v -0.141969 0.471943 -1.405275
v -0.113002 0.471707 -1.405292
v -0.141792 0.493668 -1.405371
v -0.141371 0.496692 -0.717383
v -0.112404 0.496456 -0.717400
v -0.112825 0.493432 -1.405388
usemtl mat20

vn -0.000612 -0.004395 -0.999990
vn -0.000612 -0.004395 -0.999990
vn -0.000612 -0.004395 -0.999990
vn -0.000612 -0.004395 -0.999990
vn 0.000612 0.004395 0.999990
vn 0.000612 0.004395 0.999990
vn 0.000612 0.004395 0.999990
vn 0.000612 0.004395 0.999990
vn 0.999967 -0.008124 -0.000576
vn 0.999967 -0.008124 -0.000576
vn 0.999967 -0.008124 -0.000576
vn 0.999967 -0.008124 -0.000576
vn -0.999967 0.008124 0.000576
vn -0.999967 0.008124 0.000576
vn -0.999967 0.008124 0.000576
vn -0.999967 0.008124 0.000576
vn -0.008121 -0.999957 0.004400
vn -0.008121 -0.999957 0.004400
vn -0.008121 -0.999957 0.004400
vn -0.008121 -0.999957 0.004400
vn 0.008121 0.999957 -0.004400
vn 0.008121 0.999957 -0.004400
vn 0.008121 0.999957 -0.004400
vn 0.008121 0.999957 -0.004400
vn -0.000612 -0.004395 -0.999990
vn -0.000612 -0.004395 -0.999990
vn -0.000612 -0.004395 -0.999990
vn -0.000612 -0.004395 -0.999990
vn 0.000612 0.004395 0.999990
vn 0.000612 0.004395 0.999990
vn 0.000612 0.004395 0.999990
vn 0.000612 0.004395 0.999990
vn 0.999967 -0.008124 -0.000576
vn 0.999967 -0.008124 -0.000576
vn 0.999967 -0.008124 -0.000576
vn 0.999967 -0.008124 -0.000576
vn -0.999967 0.008124 0.000576
vn -0.999967 0.008124 0.000576
vn -0.999967 0.008124 0.000576
vn -0.999967 0.008124 0.000576
vn -0.008121 -0.999957 0.004400
vn -0.008121 -0.999957 0.004400
vn -0.008121 -0.999957 0.004400
vn -0.008121 -0.999957 0.004400
vn 0.008121 0.999957 -0.004400
vn 0.008121 0.999957 -0.004400
vn 0.008121 0.999957 -0.004400
vn 0.008121 0.999957 -0.004400
vn -0.000612 -0.004395 -0.999990
vn -0.000612 -0.004395 -0.999990
vn -0.000612 -0.004395 -0.999990
vn -0.000612 -0.004395 -0.999990
vn 0.000612 0.004395 0.999990
vn 0.000612 0.004395 0.999990
vn 0.000612 0.004395 0.999990
vn 0.000612 0.004395 0.999990
vn 0.999967 -0.008124 -0.000576
vn 0.999967 -0.008124 -0.000576
vn 0.999967 -0.008124 -0.000576
vn 0.999967 -0.008124 -0.000576
vn -0.999967 0.008124 0.000576
vn -0.999967 0.008124 0.000576
vn -0.999967 0.008124 0.000576
vn -0.999967 0.008124 0.000576
vn -0.008121 -0.999957 0.004400
vn -0.008121 -0.999957 0.004400
vn -0.008121 -0.999957 0.004400
vn -0.008121 -0.999957 0.004400
vn 0.008121 0.999957 -0.004400
vn 0.008121 0.999957 -0.004400
vn 0.008121 0.999957 -0.004400
vn 0.008121 0.999957 -0.004400
vn -0.000612 -0.004395 -0.999990
vn -0.000612 -0.004395 -0.999990
vn -0.000612 -0.004395 -0.999990
vn -0.000612 -0.004395 -0.999990
vn 0.000612 0.004395 0.999990
vn 0.000612 0.004395 0.999990
vn 0.000612 0.004395 0.999990
vn 0.000612 0.004395 0.999990
vn 0.999967 -0.008124 -0.000576
vn 0.999967 -0.008124 -0.000576
vn 0.999967 -0.008124 -0.000576
vn 0.999967 -0.008124 -0.000576
vn -0.999967 0.008124 0.000576
vn -0.999967 0.008124 0.000576
vn -0.999967 0.008124 0.000576
vn -0.999967 0.008124 0.000576
vn -0.008121 -0.999957 0.004400
vn -0.008121 -0.999957 0.004400
vn -0.008121 -0.999957 0.004400
vn -0.008121 -0.999957 0.004400
vn 0.008121 0.999957 -0.004400
vn 0.008121 0.999957 -0.004400
vn 0.008121 0.999957 -0.004400
vn 0.008121 0.999957 -0.004400

vt -0.104869 0.005502
vt -0.108093 0.007151
vt -0.075765 0.070333
vt -0.072541 0.068684
vt 0.075765 0.070333
vt 0.108093 0.007151
vt 0.104869 0.005502
vt 0.072541 0.068684
vt 0.015708 0.110245
vt 0.016897 0.109418
vt 0.014830 0.106445
vt 0.013641 0.107272
vt -0.014830 0.106445
vt -0.016897 0.109418
vt -0.015708 0.110245
vt -0.013641 0.107272
vt -0.036357 0.042760
vt -0.060142 -0.024108
vt -0.061507 -0.023622
vt -0.037721 0.043245
vt 0.061507 -0.023622
vt 0.060142 -0.024108
vt 0.036357 0.042760
vt 0.037721 0.043245
vt -0.072549 0.067874
vt -0.074483 0.068864
vt -0.073163 0.071443
vt -0.071229 0.070453
vt 0.073164 0.071443
vt 0.074483 0.068864
vt 0.072549 0.067874
vt 0.071229 0.070453
vt 0.014377 0.108965
vt 0.070866 0.069693
vt 0.069626 0.067909
vt 0.013137 0.107181
vt -0.069626 0.067909
vt -0.070866 0.069693
vt -0.014377 0.108965
vt -0.013137 0.107181
vt 0.027486 0.022356
vt 0.026516 0.019627
vt -0.038305 0.042684
vt -0.037334 0.045414
vt 0.038305 0.042684
vt -0.026516 0.019627
vt -0.027486 0.022356
vt 0.037334 0.045414
vt -0.104877 0.004692
vt -0.108100 0.006342
vt -0.075772 0.069524
vt -0.072549 0.067874
vt 0.075772 0.069524
vt 0.108100 0.006342
vt 0.104877 0.004692
vt 0.072549 0.067874
vt 0.069909 0.072122
vt 0.071098 0.071296
vt 0.069031 0.068322
vt 0.067842 0.069149
vt -0.069031 0.068322
vt -0.071098 0.071296
vt -0.069909 0.072122
vt -0.067842 0.069149
vt 0.025833 0.019870
vt 0.002047 -0.046998
vt 0.000683 -0.046513
vt 0.024468 0.020355
vt -0.000683 -0.046513
vt -0.002047 -0.046998
vt -0.025833 0.019870
vt -0.024468 0.020355
vt -0.105866 0.002758
vt -0.107800 0.003748
vt -0.106481 0.006327
vt -0.104547 0.005337
vt 0.106481 0.006327
vt 0.107800 0.003748
vt 0.105866 0.002758
vt 0.104547 0.005337
vt 0.013782 0.109378
vt 0.070272 0.070106
vt 0.069031 0.068322
vt 0.012542 0.107594
vt -0.069031 0.068322
vt -0.070272 0.070106
vt -0.013782 0.109378
vt -0.012542 0.107594
vt 0.002290 -0.046316
vt 0.001319 -0.049045
vt -0.063501 -0.025987
vt -0.062530 -0.023258
vt 0.063501 -0.025988
vt -0.001319 -0.049045
vt -0.002290 -0.046316
vt 0.062530 -0.023258
s off
f 1/1/1 2/2/2 3/3/3
f 1/1/1 3/3/3 4/4/4
f 5/5/5 6/6/6 7/7/7
f 5/5/5 7/7/7 8/8/8
f 9/9/9 10/10/10 11/11/11
f 9/9/9 11/11/11 12/12/12
f 13/13/13 14/14/14 15/15/15
f 13/13/13 15/15/15 16/16/16
f 17/17/17 18/18/18 19/19/19
f 17/17/17 19/19/19 20/20/20
f 21/21/21 22/22/22 23/23/23
f 21/21/21 23/23/23 24/24/24
f 25/25/25 26/26/26 27/27/27
f 25/25/25 27/27/27 28/28/28
f 29/29/29 30/30/30 31/31/31
f 29/29/29 31/31/31 32/32/32
f 33/33/33 34/34/34 35/35/35
f 33/33/33 35/35/35 36/36/36
f 37/37/37 38/38/38 39/39/39
f 37/37/37 39/39/39 40/40/40
f 41/41/41 42/42/42 43/43/43
f 41/41/41 43/43/43 44/44/44
f 45/45/45 46/46/46 47/47/47
f 45/45/45 47/47/47 48/48/48
f 49/49/49 50/50/50 51/51/51
f 49/49/49 51/51/51 52/52/52
f 53/53/53 54/54/54 55/55/55
f 53/53/53 55/55/55 56/56/56
f 57/57/57 58/58/58 59/59/59
f 57/57/57 59/59/59 60/60/60
f 61/61/61 62/62/62 63/63/63
f 61/61/61 63/63/63 64/64/64
f 65/65/65 66/66/66 67/67/67
f 65/65/65 67/67/67 68/68/68
f 69/69/69 70/70/70 71/71/71
f 69/69/69 71/71/71 72/72/72
f 73/73/73 74/74/74 75/75/75
f 73/73/73 75/75/75 76/76/76
f 77/77/77 78/78/78 79/79/79
f 77/77/77 79/79/79 80/80/80
f 81/81/81 82/82/82 83/83/83
f 81/81/81 83/83/83 84/84/84
f 85/85/85 86/86/86 87/87/87
f 85/85/85 87/87/87 88/88/88
f 89/89/89 90/90/90 91/91/91
f 89/89/89 91/91/91 92/92/92
f 93/93/93 94/94/94 95/95/95
f 93/93/93 95/95/95 96/96/96
