# Exported using automatic converter by Erwin Coumans
mtllib model6.mtl
#object group739441923_2

v 2.834946 -0.728415 0.429579
v 2.831218 -0.709716 0.423541
v 3.024855 -0.697031 0.343268
v 3.028583 -0.715730 0.349305
v 3.031638 -0.690039 0.360735
v 2.838001 -0.702724 0.441009
v 2.841730 -0.721423 0.447046
v 3.035366 -0.708737 0.366772
v 3.024855 -0.697031 0.343268
v 3.031638 -0.690039 0.360735
v 3.035366 -0.708737 0.366772
v 3.028583 -0.715730 0.349305
v 2.841730 -0.721423 0.447046
v 2.838001 -0.702724 0.441009
v 2.831218 -0.709716 0.423541
v 2.834946 -0.728415 0.429579
v 3.035366 -0.708737 0.366772
v 2.841730 -0.721423 0.447046
v 2.834946 -0.728415 0.429579
v 3.028583 -0.715730 0.349305
v 2.831218 -0.709716 0.423541
v 2.838001 -0.702724 0.441009
v 3.031638 -0.690039 0.360735
v 3.024855 -0.697031 0.343268
usemtl mat22

vn -0.339152 -0.349620 -0.873351
vn -0.339152 -0.349620 -0.873351
vn -0.339152 -0.349620 -0.873351
vn -0.339152 -0.349620 -0.873351
vn 0.339152 0.349620 0.873351
vn 0.339152 0.349620 0.873351
vn 0.339152 0.349620 0.873351
vn 0.339152 0.349620 0.873351
vn 0.922080 0.060406 -0.382257
vn 0.922080 0.060406 -0.382257
vn 0.922080 0.060406 -0.382257
vn 0.922080 0.060406 -0.382257
vn -0.922080 -0.060406 0.382257
vn -0.922080 -0.060406 0.382257
vn -0.922080 -0.060406 0.382257
vn -0.922080 -0.060406 0.382257
vn 0.186401 -0.934942 0.301891
vn 0.186401 -0.934942 0.301891
vn 0.186401 -0.934942 0.301891
vn 0.186401 -0.934942 0.301891
vn -0.186401 0.934942 -0.301891
vn -0.186401 0.934942 -0.301891
vn -0.186401 0.934942 -0.301891
vn -0.186401 0.934942 -0.301891

vt 0.164250 0.133599
vt 0.162367 0.134272
vt 0.169431 0.154048
vt 0.171314 0.153375
vt -0.169431 0.154048
vt -0.162367 0.134272
vt -0.164251 0.133599
vt -0.171314 0.153375
vt 0.220428 -0.006892
vt 0.222203 -0.005970
vt 0.223125 -0.007745
vt 0.221350 -0.008667
vt -0.223125 -0.007745
vt -0.222203 -0.005970
vt -0.220428 -0.006892
vt -0.221350 -0.008667
vt 0.154294 0.234144
vt 0.158125 0.213497
vt 0.156159 0.213132
vt 0.152327 0.233779
vt -0.156159 0.213132
vt -0.158125 0.213497
vt -0.154294 0.234144
vt -0.152327 0.233779
s off
f 1/1/1 2/2/2 3/3/3
f 1/1/1 3/3/3 4/4/4
f 5/5/5 6/6/6 7/7/7
f 5/5/5 7/7/7 8/8/8
f 9/9/9 10/10/10 11/11/11
f 9/9/9 11/11/11 12/12/12
f 13/13/13 14/14/14 15/15/15
f 13/13/13 15/15/15 16/16/16
f 17/17/17 18/18/18 19/19/19
f 17/17/17 19/19/19 20/20/20
f 21/21/21 22/22/22 23/23/23
f 21/21/21 23/23/23 24/24/24
