# Exported using automatic converter by Erwin Coumans
mtllib model6.mtl
#object mesh433369088

v 1.070892 -0.988106 1.409314
v 0.975201 -0.986294 1.412223
v 0.970694 -1.055710 1.404403
v 1.066385 -1.057521 1.401493
v 1.058458 -1.052197 1.322641
v 1.062965 -0.982782 1.330461
v 1.158656 -0.984594 1.327551
v 1.154149 -1.054009 1.319731
v 0.970694 -1.055710 1.404403
v 1.058458 -1.052197 1.322641
v 1.154149 -1.054009 1.319731
v 1.066385 -1.057521 1.401493
v 1.158656 -0.984594 1.327551
v 1.062965 -0.982782 1.330461
v 0.975201 -0.986294 1.412223
v 1.070892 -0.988106 1.409314
v 1.154149 -1.054009 1.319731
v 1.158656 -0.984594 1.327551
v 1.070892 -0.988106 1.409314
v 1.066385 -1.057521 1.401493
v 0.975201 -0.986294 1.412223
v 1.062965 -0.982782 1.330461
v 1.058458 -1.052197 1.322641
v 0.970694 -1.055710 1.404403
v 1.437863 -0.990901 1.409794
v 1.342119 -0.989732 1.410262
v 1.338265 -1.058562 1.398110
v 1.434010 -1.059731 1.397641
v 1.428121 -1.049639 1.319077
v 1.431975 -0.980809 1.331229
v 1.527719 -0.981978 1.330761
v 1.523866 -1.050807 1.318608
v 1.338265 -1.058562 1.398110
v 1.428121 -1.049639 1.319077
v 1.523866 -1.050807 1.318608
v 1.434010 -1.059731 1.397641
v 1.527719 -0.981978 1.330761
v 1.431975 -0.980809 1.331229
v 1.342119 -0.989732 1.410262
v 1.437863 -0.990901 1.409794
v 1.523866 -1.050807 1.318608
v 1.527719 -0.981978 1.330761
v 1.437863 -0.990901 1.409794
v 1.434010 -1.059731 1.397641
v 1.342119 -0.989732 1.410262
v 1.431975 -0.980809 1.331229
v 1.428121 -1.049639 1.319077
v 1.338265 -1.058562 1.398110
v 0.884753 -0.985873 1.405933
v 0.789286 -0.982795 1.412655
v 0.783732 -1.052399 1.407715
v 0.879199 -1.055477 1.400994
v 0.868098 -1.053077 1.322381
v 0.873652 -0.983472 1.327320
v 0.969119 -0.986550 1.320599
v 0.963565 -1.056154 1.315660
v 0.783732 -1.052399 1.407715
v 0.868098 -1.053077 1.322381
v 0.963565 -1.056154 1.315660
v 0.879199 -1.055477 1.400994
v 0.969119 -0.986550 1.320599
v 0.873652 -0.983472 1.327320
v 0.789286 -0.982795 1.412655
v 0.884753 -0.985873 1.405933
v 0.963565 -1.056154 1.315660
v 0.969119 -0.986550 1.320599
v 0.884753 -0.985873 1.405933
v 0.879199 -1.055477 1.400994
v 0.789286 -0.982795 1.412655
v 0.873652 -0.983472 1.327320
v 0.868098 -1.053077 1.322381
v 0.783732 -1.052399 1.407715
v 1.253476 -0.994723 1.406284
v 1.157878 -0.991551 1.410706
v 1.152210 -1.060745 1.401755
v 1.247808 -1.063916 1.397333
v 1.238763 -1.057092 1.318717
v 1.244431 -0.987899 1.327668
v 1.340028 -0.991070 1.323246
v 1.334360 -1.060264 1.314295
v 1.152210 -1.060745 1.401755
v 1.238763 -1.057092 1.318717
v 1.334360 -1.060264 1.314295
v 1.247808 -1.063916 1.397333
v 1.340028 -0.991070 1.323246
v 1.244431 -0.987899 1.327668
v 1.157878 -0.991551 1.410706
v 1.253476 -0.994723 1.406284
v 1.334360 -1.060264 1.314295
v 1.340028 -0.991070 1.323246
v 1.253476 -0.994723 1.406284
v 1.247808 -1.063916 1.397333
v 1.157878 -0.991551 1.410706
v 1.244431 -0.987899 1.327668
v 1.238763 -1.057092 1.318717
v 1.152210 -1.060745 1.401755
usemtl mat12

vn 0.028047 -0.113704 0.993119
vn 0.028047 -0.113704 0.993119
vn 0.028047 -0.113704 0.993119
vn 0.028047 -0.113704 0.993119
vn -0.028046 0.113704 -0.993119
vn -0.028046 0.113704 -0.993119
vn -0.028046 0.113704 -0.993119
vn -0.028046 0.113704 -0.993119
vn -0.020871 -0.997650 -0.065259
vn -0.020871 -0.997650 -0.065259
vn -0.020871 -0.997650 -0.065259
vn -0.020871 -0.997650 -0.065259
vn 0.020872 0.997650 0.065259
vn 0.020872 0.997650 0.065259
vn 0.020872 0.997650 0.065259
vn 0.020872 0.997650 0.065259
vn 0.678935 -0.125581 0.723379
vn 0.678935 -0.125581 0.723379
vn 0.678935 -0.125581 0.723379
vn 0.678935 -0.125581 0.723379
vn -0.678935 0.125581 -0.723379
vn -0.678935 0.125581 -0.723379
vn -0.678935 0.125581 -0.723379
vn -0.678935 0.125581 -0.723379
vn 0.002696 -0.174015 0.984739
vn 0.002696 -0.174015 0.984739
vn 0.002696 -0.174015 0.984739
vn 0.002696 -0.174015 0.984739
vn -0.002695 0.174015 -0.984739
vn -0.002695 0.174015 -0.984739
vn -0.002695 0.174015 -0.984739
vn -0.002695 0.174015 -0.984739
vn -0.012728 -0.991890 -0.126458
vn -0.012728 -0.991890 -0.126458
vn -0.012728 -0.991890 -0.126458
vn -0.012728 -0.991890 -0.126458
vn 0.012728 0.991890 0.126458
vn 0.012728 0.991890 0.126458
vn 0.012728 0.991890 0.126458
vn 0.012728 0.991890 0.126458
vn 0.660504 -0.166254 0.732185
vn 0.660504 -0.166254 0.732185
vn 0.660504 -0.166254 0.732185
vn 0.660504 -0.166254 0.732185
vn -0.660504 0.166254 -0.732185
vn -0.660504 0.166254 -0.732185
vn -0.660504 0.166254 -0.732185
vn -0.660504 0.166254 -0.732185
vn 0.067595 -0.075983 0.994815
vn 0.067595 -0.075983 0.994815
vn 0.067595 -0.075983 0.994815
vn 0.067595 -0.075983 0.994815
vn -0.067594 0.075983 -0.994815
vn -0.067594 0.075983 -0.994815
vn -0.067594 0.075983 -0.994815
vn -0.067594 0.075983 -0.994815
vn -0.034021 -0.999090 -0.025707
vn -0.034021 -0.999090 -0.025707
vn -0.034021 -0.999090 -0.025707
vn -0.034021 -0.999090 -0.025707
vn 0.034021 0.999090 0.025707
vn 0.034021 0.999090 0.025707
vn 0.034021 0.999090 0.025707
vn 0.034021 0.999090 0.025707
vn 0.706700 -0.106030 0.699524
vn 0.706700 -0.106030 0.699524
vn 0.706700 -0.106030 0.699524
vn 0.706700 -0.106030 0.699524
vn -0.706700 0.106030 -0.699524
vn -0.706700 0.106030 -0.699524
vn -0.706700 0.106030 -0.699524
vn -0.706700 0.106030 -0.699524
vn 0.041451 -0.131526 0.990446
vn 0.041451 -0.131526 0.990446
vn 0.041451 -0.131526 0.990446
vn 0.041451 -0.131526 0.990446
vn -0.041450 0.131526 -0.990446
vn -0.041450 0.131526 -0.990446
vn -0.041450 0.131526 -0.990446
vn -0.041450 0.131526 -0.990446
vn -0.036842 -0.995934 -0.082208
vn -0.036842 -0.995934 -0.082208
vn -0.036842 -0.995934 -0.082208
vn -0.036842 -0.995934 -0.082208
vn 0.036842 0.995934 0.082208
vn 0.036842 0.995934 0.082208
vn 0.036842 0.995934 0.082208
vn 0.036842 0.995934 0.082208
vn 0.687905 -0.148263 0.710496
vn 0.687905 -0.148263 0.710496
vn 0.687905 -0.148263 0.710496
vn 0.687905 -0.148263 0.710496
vn -0.687905 0.148263 -0.710496
vn -0.687905 0.148263 -0.710496
vn -0.687905 0.148263 -0.710496
vn -0.687905 0.148263 -0.710496

vt -0.050412 0.053687
vt -0.046281 0.045049
vt -0.052463 0.041765
vt -0.056594 0.050404
vt 0.056695 0.049732
vt 0.050512 0.053015
vt 0.054643 0.061654
vt 0.060825 0.058370
vt 0.241116 -0.022655
vt 0.236712 -0.011492
vt 0.239954 -0.002483
vt 0.244357 -0.013645
vt -0.240370 -0.002318
vt -0.237128 -0.011328
vt -0.241532 -0.022491
vt -0.244774 -0.013481
vt 0.018753 -0.092243
vt 0.024949 -0.088985
vt 0.030534 -0.099606
vt 0.024339 -0.102864
vt -0.033524 -0.106159
vt -0.027939 -0.095538
vt -0.021743 -0.098796
vt -0.027329 -0.109417
vt -0.053392 0.099316
vt -0.049499 0.090568
vt -0.055768 0.087455
vt -0.059662 0.096203
vt 0.059781 0.095534
vt 0.053511 0.098648
vt 0.057404 0.107396
vt 0.063674 0.104282
vt 0.255993 0.004589
vt 0.252141 0.015954
vt 0.255819 0.024794
vt 0.259672 0.013430
vt -0.256243 0.024938
vt -0.252564 0.016098
vt -0.256417 0.004733
vt -0.260095 0.013573
vt 0.015534 -0.057554
vt 0.021857 -0.054553
vt 0.027003 -0.065393
vt 0.020679 -0.068395
vt -0.029721 -0.072064
vt -0.024576 -0.061223
vt -0.018252 -0.064224
vt -0.023397 -0.075065
vt -0.046995 0.024373
vt -0.042670 0.015831
vt -0.048777 0.012408
vt -0.053102 0.020951
vt 0.053187 0.020277
vt 0.047081 0.023700
vt 0.051406 0.032242
vt 0.057512 0.028820
vt 0.233703 -0.035337
vt 0.228694 -0.024432
vt 0.231438 -0.015259
vt 0.236446 -0.026163
vt -0.231844 -0.015072
vt -0.229101 -0.024246
vt -0.234110 -0.035151
vt -0.236853 -0.025977
vt 0.024024 -0.113696
vt 0.030085 -0.110193
vt 0.036089 -0.120584
vt 0.030028 -0.124086
vt -0.039337 -0.127013
vt -0.033333 -0.116623
vt -0.027272 -0.120124
vt -0.033276 -0.130515
vt -0.052825 0.069299
vt -0.048621 0.060696
vt -0.054775 0.057360
vt -0.058979 0.065963
vt 0.059074 0.065291
vt 0.052920 0.068627
vt 0.057124 0.077230
vt 0.063278 0.073894
vt 0.248301 -0.007888
vt 0.243848 0.003255
vt 0.247049 0.012279
vt 0.251503 0.001136
vt -0.247464 0.012445
vt -0.244263 0.003421
vt -0.248717 -0.007722
vt -0.251918 0.001302
vt 0.020083 -0.080369
vt 0.026246 -0.077051
vt 0.031935 -0.087617
vt 0.025771 -0.090935
vt -0.034988 -0.094141
vt -0.029300 -0.083574
vt -0.023136 -0.086893
vt -0.028824 -0.097459
s off
f 1/1/1 2/2/2 3/3/3
f 1/1/1 3/3/3 4/4/4
f 5/5/5 6/6/6 7/7/7
f 5/5/5 7/7/7 8/8/8
f 9/9/9 10/10/10 11/11/11
f 9/9/9 11/11/11 12/12/12
f 13/13/13 14/14/14 15/15/15
f 13/13/13 15/15/15 16/16/16
f 17/17/17 18/18/18 19/19/19
f 17/17/17 19/19/19 20/20/20
f 21/21/21 22/22/22 23/23/23
f 21/21/21 23/23/23 24/24/24
f 25/25/25 26/26/26 27/27/27
f 25/25/25 27/27/27 28/28/28
f 29/29/29 30/30/30 31/31/31
f 29/29/29 31/31/31 32/32/32
f 33/33/33 34/34/34 35/35/35
f 33/33/33 35/35/35 36/36/36
f 37/37/37 38/38/38 39/39/39
f 37/37/37 39/39/39 40/40/40
f 41/41/41 42/42/42 43/43/43
f 41/41/41 43/43/43 44/44/44
f 45/45/45 46/46/46 47/47/47
f 45/45/45 47/47/47 48/48/48
f 49/49/49 50/50/50 51/51/51
f 49/49/49 51/51/51 52/52/52
f 53/53/53 54/54/54 55/55/55
f 53/53/53 55/55/55 56/56/56
f 57/57/57 58/58/58 59/59/59
f 57/57/57 59/59/59 60/60/60
f 61/61/61 62/62/62 63/63/63
f 61/61/61 63/63/63 64/64/64
f 65/65/65 66/66/66 67/67/67
f 65/65/65 67/67/67 68/68/68
f 69/69/69 70/70/70 71/71/71
f 69/69/69 71/71/71 72/72/72
f 73/73/73 74/74/74 75/75/75
f 73/73/73 75/75/75 76/76/76
f 77/77/77 78/78/78 79/79/79
f 77/77/77 79/79/79 80/80/80
f 81/81/81 82/82/82 83/83/83
f 81/81/81 83/83/83 84/84/84
f 85/85/85 86/86/86 87/87/87
f 85/85/85 87/87/87 88/88/88
f 89/89/89 90/90/90 91/91/91
f 89/89/89 91/91/91 92/92/92
f 93/93/93 94/94/94 95/95/95
f 93/93/93 95/95/95 96/96/96
