# Exported using automatic converter by Erwin Coumans
mtllib model6.mtl
#object group827414911_1

v -2.502672 -0.160178 0.925686
v -2.302310 -0.152850 0.918828
v -2.295339 -0.312656 0.915142
v -2.495701 -0.319983 0.922000
v -2.280049 -0.318435 1.194665
v -2.287021 -0.158630 1.198350
v -2.487383 -0.165957 1.205208
v -2.480411 -0.325763 1.201523
v -2.295339 -0.312656 0.915142
v -2.280049 -0.318435 1.194665
v -2.480411 -0.325763 1.201523
v -2.495701 -0.319983 0.922000
v -2.492930 -0.160064 0.939179
v -2.331325 -0.152813 0.930490
v -2.502672 -0.160178 0.925686
v -2.480411 -0.325763 1.201523
v -2.487383 -0.165957 1.205208
v -2.502672 -0.160178 0.925686
v -2.495701 -0.319983 0.922000
v -2.302310 -0.152850 0.918828
v -2.287021 -0.158630 1.198350
v -2.280049 -0.318435 1.194665
v -2.295339 -0.312656 0.915142
v -2.331325 -0.152813 0.930490
v -2.317565 -0.158015 1.182060
v -2.287021 -0.158630 1.198350
v -2.302310 -0.152850 0.918828
v -2.317565 -0.158015 1.182060
v -2.479170 -0.165265 1.190750
v -2.487383 -0.165957 1.205208
v -2.479170 -0.165265 1.190750
v -2.492930 -0.160064 0.939179
v -2.502672 -0.160178 0.925686
v -2.487383 -0.165957 1.205208
v -2.488137 -0.269930 0.936645
v -2.326532 -0.262679 0.927956
v -2.331325 -0.152813 0.930490
v -2.492930 -0.160064 0.939179
v -2.326532 -0.262679 0.927956
v -2.312772 -0.267881 1.179526
v -2.317565 -0.158015 1.182060
v -2.331325 -0.152813 0.930490
v -2.312772 -0.267881 1.179526
v -2.474377 -0.275132 1.188216
v -2.479170 -0.165265 1.190750
v -2.317565 -0.158015 1.182060
v -2.474377 -0.275132 1.188216
v -2.488137 -0.269930 0.936645
v -2.492930 -0.160064 0.939179
v -2.479170 -0.165265 1.190750
v -2.474377 -0.275132 1.188216
v -2.312772 -0.267881 1.179526
v -2.326532 -0.262679 0.927956
v -2.488137 -0.269930 0.936645
v -2.487383 -0.165957 1.205208
v -2.287021 -0.158630 1.198350
v -2.317565 -0.158015 1.182060
v -2.331325 -0.152813 0.930490
v -2.302310 -0.152850 0.918828
v -2.502672 -0.160178 0.925686
usemtl mat13

vn -0.034986 0.021517 -0.999156
vn -0.034986 0.021517 -0.999156
vn -0.034986 0.021517 -0.999156
vn -0.034986 0.021517 -0.999156
vn 0.034986 -0.021517 0.999156
vn 0.034986 -0.021517 0.999156
vn 0.034986 -0.021517 0.999156
vn 0.034986 -0.021517 0.999156
vn 0.035765 -0.999104 -0.022614
vn 0.035765 -0.999104 -0.022614
vn 0.035765 -0.999104 -0.022614
vn 0.035765 -0.999104 -0.022614
vn -0.043573 0.998785 0.023027
vn -0.043573 0.998785 0.023027
vn -0.043573 0.998785 0.023027
vn -0.997557 -0.044756 0.053639
vn -0.997557 -0.044756 0.053639
vn -0.997557 -0.044756 0.053639
vn -0.997557 -0.044756 0.053639
vn 0.997557 0.044756 -0.053639
vn 0.997557 0.044756 -0.053639
vn 0.997557 0.044756 -0.053639
vn 0.997557 0.044756 -0.053639
vn 0.009377 0.999753 0.020158
vn 0.009377 0.999753 0.020158
vn 0.009377 0.999753 0.020158
vn 0.009377 0.999753 0.020158
vn -0.043573 0.998784 0.023042
vn -0.043573 0.998784 0.023042
vn -0.043573 0.998784 0.023042
vn -0.043585 0.998784 0.023035
vn -0.043585 0.998784 0.023035
vn -0.043585 0.998784 0.023035
vn -0.043585 0.998784 0.023035
vn 0.054605 -0.020641 0.998295
vn 0.054605 -0.020641 0.998295
vn 0.054605 -0.020641 0.998295
vn 0.054605 -0.020641 0.998295
vn -0.997557 -0.044756 0.053639
vn -0.997557 -0.044756 0.053639
vn -0.997557 -0.044756 0.053639
vn -0.997557 -0.044756 0.053639
vn -0.054606 0.020641 -0.998295
vn -0.054606 0.020641 -0.998295
vn -0.054606 0.020641 -0.998295
vn -0.054606 0.020641 -0.998295
vn 0.997557 0.044756 -0.053639
vn 0.997557 0.044756 -0.053639
vn 0.997557 0.044756 -0.053639
vn 0.997557 0.044756 -0.053639
vn -0.043573 0.998785 0.023035
vn -0.043573 0.998785 0.023035
vn -0.043573 0.998785 0.023035
vn -0.043573 0.998785 0.023035
vn -0.032969 0.994505 0.099358
vn -0.032969 0.994505 0.099358
vn -0.032969 0.994505 0.099358
vn -0.039852 0.993954 -0.102308
vn -0.039852 0.993954 -0.102308
vn -0.039852 0.993954 -0.102308

vt -0.158285 -0.242438
vt -0.150164 -0.224094
vt -0.135483 -0.230457
vt -0.143604 -0.248801
vt 0.135264 -0.229952
vt 0.149945 -0.223589
vt 0.158066 -0.241933
vt 0.143386 -0.248296
vt 0.080973 -0.305256
vt 0.107781 -0.313340
vt 0.101613 -0.332429
vt 0.074805 -0.324346
vt -0.076782 -0.323579
vt -0.081445 -0.308064
vt -0.075183 -0.324038
vt -0.177279 -0.083650
vt -0.186433 -0.070528
vt -0.163469 -0.054508
vt -0.154314 -0.067630
vt 0.163703 -0.054862
vt 0.186667 -0.070882
vt 0.177512 -0.084005
vt 0.154548 -0.067984
vt -0.078687 -0.310722
vt -0.102770 -0.318139
vt -0.105357 -0.315838
vt -0.078597 -0.307597
vt -0.105576 -0.315317
vt -0.100914 -0.330831
vt -0.101995 -0.332096
vt -0.100916 -0.330831
vt -0.076782 -0.323578
vt -0.075182 -0.324037
vt -0.101997 -0.332095
vt 0.148593 -0.249350
vt 0.142184 -0.234472
vt 0.152287 -0.230120
vt 0.158696 -0.244998
vt -0.158323 -0.064330
vt -0.178991 -0.078748
vt -0.185285 -0.069727
vt -0.164617 -0.055309
vt -0.142184 -0.234472
vt -0.148593 -0.249350
vt -0.158696 -0.244998
vt -0.152287 -0.230120
vt 0.178991 -0.078748
vt 0.158323 -0.064330
vt 0.164617 -0.055309
vt 0.185285 -0.069727
vt -0.100915 -0.330831
vt -0.105577 -0.315316
vt -0.081443 -0.308064
vt -0.076781 -0.323579
vt -0.087744 -0.334017
vt -0.094475 -0.315118
vt -0.091831 -0.317353
vt -0.101668 -0.304903
vt -0.101385 -0.301789
vt -0.096241 -0.321179
s off
f 1/1/1 2/2/2 3/3/3
f 1/1/1 3/3/3 4/4/4
f 5/5/5 6/6/6 7/7/7
f 5/5/5 7/7/7 8/8/8
f 9/9/9 10/10/10 11/11/11
f 9/9/9 11/11/11 12/12/12
f 13/13/13 14/14/14 15/15/15
f 16/16/16 17/17/17 18/18/18
f 16/16/16 18/18/18 19/19/19
f 20/20/20 21/21/21 22/22/22
f 20/20/20 22/22/22 23/23/23
f 24/24/24 25/25/25 26/26/26
f 24/24/24 26/26/26 27/27/27
f 28/28/28 29/29/29 30/30/30
f 31/31/31 32/32/32 33/33/33
f 31/31/31 33/33/33 34/34/34
f 35/35/35 36/36/36 37/37/37
f 35/35/35 37/37/37 38/38/38
f 39/39/39 40/40/40 41/41/41
f 39/39/39 41/41/41 42/42/42
f 43/43/43 44/44/44 45/45/45
f 43/43/43 45/45/45 46/46/46
f 47/47/47 48/48/48 49/49/49
f 47/47/47 49/49/49 50/50/50
f 51/51/51 52/52/52 53/53/53
f 51/51/51 53/53/53 54/54/54
f 55/55/55 56/56/56 57/57/57
f 58/58/58 59/59/59 60/60/60
