# Exported using automatic converter by Erwin Coumans
mtllib model6.mtl
#object mesh1984057865

v 0.743238 0.565489 -2.635148
v 3.043238 0.565489 -2.635149
v 3.043238 0.475489 -2.635149
v 0.743238 0.475489 -2.635148
v 3.043238 0.475489 -2.545148
v 3.043238 0.565489 -2.545148
v 0.743238 0.565489 -2.545148
v 0.743238 0.475489 -2.545148
v 3.043238 0.475489 -2.635149
v 3.043238 0.475489 -2.545148
v 0.743238 0.475489 -2.545148
v 0.743238 0.475489 -2.635148
v 2.491197 1.425489 -2.607272
v 2.525280 1.425489 -2.607272
v 3.043238 0.565489 -2.635149
v 0.743238 0.565489 -2.635148
v 0.743238 0.475489 -2.545148
v 0.743238 0.565489 -2.545148
v 0.743238 0.565489 -2.635148
v 0.743238 0.475489 -2.635148
v 3.043238 0.565489 -2.635149
v 3.043238 0.565489 -2.545148
v 3.043238 0.475489 -2.545148
v 3.043238 0.475489 -2.635149
v 2.525280 1.445489 -2.573025
v 2.491197 1.435489 -2.573025
v 0.743238 0.565489 -2.545148
v 3.043238 0.565489 -2.545148
v 2.491197 1.435489 -2.573025
v 2.525280 1.425489 -2.607272
v 2.491197 1.425489 -2.607272
v 2.525280 1.425489 -2.607272
v 2.525280 1.445489 -2.573025
v 3.043238 0.565489 -2.545148
v 2.491197 1.435489 -2.573025
v 2.525280 1.445489 -2.573025
v 2.525280 1.425489 -2.607272
usemtl mat21

vn -0.000000 0.000000 -1.000000
vn -0.000000 0.000000 -1.000000
vn -0.000000 0.000000 -1.000000
vn -0.000000 0.000000 -1.000000
vn 0.000000 0.000000 1.000000
vn 0.000000 0.000000 1.000000
vn 0.000000 0.000000 1.000000
vn 0.000000 0.000000 1.000000
vn -0.000000 -1.000000 0.000000
vn -0.000000 -1.000000 0.000000
vn -0.000000 -1.000000 0.000000
vn -0.000000 -1.000000 0.000000
vn -0.000000 0.032398 -0.999475
vn -0.000000 0.032398 -0.999475
vn -0.000000 0.032398 -0.999475
vn -0.000000 0.032398 -0.999475
vn -1.000000 0.000000 0.000000
vn -1.000000 0.000000 0.000000
vn -1.000000 0.000000 0.000000
vn -1.000000 0.000000 0.000000
vn 1.000000 -0.000000 -0.000000
vn 1.000000 -0.000000 -0.000000
vn 1.000000 -0.000000 -0.000000
vn 1.000000 -0.000000 -0.000000
vn 0.000000 0.032026 0.999487
vn 0.000000 0.032026 0.999487
vn 0.000000 0.032026 0.999487
vn 0.000000 0.032026 0.999487
vn -0.000002 0.959914 -0.280294
vn -0.000002 0.959914 -0.280294
vn -0.000002 0.959914 -0.280294
vn 0.831067 0.480272 -0.280476
vn 0.831067 0.480272 -0.280476
vn 0.831067 0.480272 -0.280476
vn -0.245602 0.837080 -0.488853
vn -0.245602 0.837080 -0.488853
vn -0.245602 0.837080 -0.488853

vt -0.074461 0.085865
vt 0.028398 0.291583
vt 0.036448 0.287558
vt -0.066411 0.081840
vt -0.036448 0.287558
vt -0.028398 0.291583
vt 0.074461 0.085865
vt 0.066411 0.081840
vt -0.072346 0.316257
vt -0.063870 0.313230
vt -0.141228 0.096629
vt -0.149703 0.099656
vt -0.070788 0.277474
vt -0.069292 0.280537
vt 0.030753 0.289336
vt -0.070144 0.082649
vt 0.078874 0.174313
vt 0.073643 0.181637
vt 0.080966 0.186868
vt 0.086198 0.179544
vt -0.080966 0.186868
vt -0.073643 0.181637
vt -0.078874 0.174313
vt -0.086198 0.179544
vt 0.075649 0.287661
vt 0.076310 0.284172
vt 0.078365 0.088913
vt -0.026322 0.293707
vt 0.062216 0.235345
vt 0.065036 0.239394
vt 0.065713 0.236053
vt 0.098997 -0.015781
vt 0.096433 -0.018807
vt 0.052514 0.073419
vt 0.034727 0.275263
vt 0.034047 0.278749
vt 0.038008 0.278948
s off
f 1/1/1 2/2/2 3/3/3
f 1/1/1 3/3/3 4/4/4
f 5/5/5 6/6/6 7/7/7
f 5/5/5 7/7/7 8/8/8
f 9/9/9 10/10/10 11/11/11
f 9/9/9 11/11/11 12/12/12
f 13/13/13 14/14/14 15/15/15
f 13/13/13 15/15/15 16/16/16
f 17/17/17 18/18/18 19/19/19
f 17/17/17 19/19/19 20/20/20
f 21/21/21 22/22/22 23/23/23
f 21/21/21 23/23/23 24/24/24
f 25/25/25 26/26/26 27/27/27
f 25/25/25 27/27/27 28/28/28
f 29/29/29 30/30/30 31/31/31
f 32/32/32 33/33/33 34/34/34
f 35/35/35 36/36/36 37/37/37
