# Exported using automatic converter by Erwin Coumans
mtllib model6.mtl
#object group1716856801_2

v -0.285399 -0.915420 -0.333902
v -0.318008 -0.915420 -0.366511
v -0.318008 -0.953602 -0.366511
v -0.285399 -0.953602 -0.333902
v -0.285399 -1.004511 -0.333902
v -0.318008 -1.004511 -0.366511
v -0.329944 -1.004511 -0.411057
v -0.318008 -1.004511 -0.455602
v -0.285399 -1.004511 -0.488212
v -0.240853 -1.004511 -0.500148
v -0.196308 -1.004511 -0.488212
v -0.163698 -1.004511 -0.455602
v -0.151762 -1.004511 -0.411057
v -0.163698 -1.004511 -0.366511
v -0.196308 -1.004511 -0.333902
v -0.240853 -1.004511 -0.321966
v -0.318008 -0.915420 -0.366511
v -0.329944 -0.915420 -0.411057
v -0.329944 -0.953602 -0.411057
v -0.318008 -0.953602 -0.366511
v -0.318008 -0.915420 -0.455602
v -0.285399 -0.915420 -0.488212
v -0.285398 -0.953602 -0.488212
v -0.318008 -0.953602 -0.455602
v -0.285399 -0.915420 -0.488212
v -0.240854 -0.915420 -0.500148
v -0.240853 -0.953602 -0.500148
v -0.285398 -0.953602 -0.488212
v -0.240854 -0.915420 -0.500148
v -0.196308 -0.915420 -0.488212
v -0.196308 -0.953602 -0.488212
v -0.240853 -0.953602 -0.500148
v -0.196308 -0.915420 -0.488212
v -0.163698 -0.915420 -0.455602
v -0.163698 -0.953602 -0.455602
v -0.196308 -0.953602 -0.488212
v -0.163698 -0.915420 -0.455602
v -0.151762 -0.915420 -0.411057
v -0.151762 -0.953602 -0.411057
v -0.163698 -0.953602 -0.455602
v -0.151762 -0.915420 -0.411057
v -0.163698 -0.915420 -0.366511
v -0.163698 -0.953602 -0.366511
v -0.151762 -0.953602 -0.411057
v -0.163698 -0.915420 -0.366511
v -0.196308 -0.915420 -0.333902
v -0.196308 -0.953602 -0.333902
v -0.163698 -0.953602 -0.366511
v -0.196308 -0.915420 -0.333902
v -0.240853 -0.915420 -0.321966
v -0.240853 -0.953602 -0.321966
v -0.196308 -0.953602 -0.333902
v -0.240853 -0.915420 -0.321966
v -0.285399 -0.915420 -0.333902
v -0.285399 -0.953602 -0.333902
v -0.240853 -0.953602 -0.321966
v -0.285400 -0.724511 -0.333902
v -0.318009 -0.724511 -0.366512
v -0.318009 -0.749965 -0.366512
v -0.285399 -0.749965 -0.333902
v -0.318009 -0.724511 -0.366512
v -0.329945 -0.724511 -0.411057
v -0.329945 -0.749965 -0.411057
v -0.318009 -0.749965 -0.366512
v -0.318009 -0.724511 -0.455602
v -0.285400 -0.724511 -0.488212
v -0.285399 -0.749965 -0.488212
v -0.318009 -0.749965 -0.455602
v -0.285400 -0.724511 -0.488212
v -0.240854 -0.724511 -0.500148
v -0.240854 -0.749965 -0.500148
v -0.285399 -0.749965 -0.488212
v -0.240854 -0.724511 -0.500148
v -0.196309 -0.724511 -0.488212
v -0.196308 -0.749965 -0.488212
v -0.240854 -0.749965 -0.500148
v -0.196309 -0.724511 -0.488212
v -0.163700 -0.724511 -0.455602
v -0.163699 -0.749965 -0.455602
v -0.196308 -0.749965 -0.488212
v -0.163700 -0.724511 -0.455602
v -0.151764 -0.724511 -0.411057
v -0.151763 -0.749965 -0.411057
v -0.163699 -0.749965 -0.455602
v -0.151764 -0.724511 -0.411057
v -0.163700 -0.724511 -0.366512
v -0.163699 -0.749965 -0.366512
v -0.151763 -0.749965 -0.411057
v -0.163700 -0.724511 -0.366512
v -0.196309 -0.724511 -0.333902
v -0.196308 -0.749965 -0.333902
v -0.163699 -0.749965 -0.366512
v -0.196309 -0.724511 -0.333902
v -0.240855 -0.724511 -0.321966
v -0.240854 -0.749965 -0.321966
v -0.196308 -0.749965 -0.333902
v -0.240855 -0.724511 -0.321966
v -0.285400 -0.724511 -0.333902
v -0.285399 -0.749965 -0.333902
v -0.240854 -0.749965 -0.321966
v -0.240855 -0.724511 -0.321966
v -0.196309 -0.724511 -0.333902
v -0.163700 -0.724511 -0.366512
v -0.151764 -0.724511 -0.411057
v -0.163700 -0.724511 -0.455602
v -0.196309 -0.724511 -0.488212
v -0.240854 -0.724511 -0.500148
v -0.285400 -0.724511 -0.488212
v -0.318009 -0.724511 -0.455602
v -0.329945 -0.724511 -0.411057
v -0.318009 -0.724511 -0.366512
v -0.285400 -0.724511 -0.333902
usemtl mat23

vn -0.707108 -0.000007 0.707106
vn -0.707108 -0.000007 0.707106
vn -0.707108 -0.000007 0.707106
vn -0.707108 -0.000007 0.707106
vn 0.000000 -1.000000 0.000000
vn 0.000000 -1.000000 0.000000
vn 0.000000 -1.000000 0.000000
vn 0.000000 -1.000000 0.000000
vn 0.000000 -1.000000 0.000000
vn 0.000000 -1.000000 0.000000
vn 0.000000 -1.000000 0.000000
vn 0.000000 -1.000000 0.000000
vn 0.000000 -1.000000 0.000000
vn 0.000000 -1.000000 0.000000
vn 0.000000 -1.000000 0.000000
vn 0.000000 -1.000000 0.000000
vn -0.965925 -0.000012 0.258822
vn -0.965925 -0.000012 0.258822
vn -0.965925 -0.000012 0.258822
vn -0.965925 -0.000012 0.258822
vn -0.707107 -0.000006 -0.707107
vn -0.707107 -0.000006 -0.707107
vn -0.707107 -0.000006 -0.707107
vn -0.707107 -0.000006 -0.707107
vn -0.258826 -0.000002 -0.965924
vn -0.258826 -0.000002 -0.965924
vn -0.258826 -0.000002 -0.965924
vn -0.258826 -0.000002 -0.965924
vn 0.258824 0.000002 -0.965925
vn 0.258824 0.000002 -0.965925
vn 0.258824 0.000002 -0.965925
vn 0.258824 0.000002 -0.965925
vn 0.707109 0.000004 -0.707104
vn 0.707109 0.000004 -0.707104
vn 0.707109 0.000004 -0.707104
vn 0.707109 0.000004 -0.707104
vn 0.965925 0.000008 -0.258822
vn 0.965925 0.000008 -0.258822
vn 0.965925 0.000008 -0.258822
vn 0.965925 0.000008 -0.258822
vn 0.965925 0.000008 0.258823
vn 0.965925 0.000008 0.258823
vn 0.965925 0.000008 0.258823
vn 0.965925 0.000008 0.258823
vn 0.707108 0.000006 0.707105
vn 0.707108 0.000006 0.707105
vn 0.707108 0.000006 0.707105
vn 0.707108 0.000006 0.707105
vn 0.258825 0.000002 0.965924
vn 0.258825 0.000002 0.965924
vn 0.258825 0.000002 0.965924
vn 0.258825 0.000002 0.965924
vn -0.258825 -0.000002 0.965924
vn -0.258825 -0.000002 0.965924
vn -0.258825 -0.000002 0.965924
vn -0.258825 -0.000002 0.965924
vn -0.707111 -0.000011 0.707103
vn -0.707111 -0.000011 0.707103
vn -0.707111 -0.000011 0.707103
vn -0.707111 -0.000011 0.707103
vn -0.965925 -0.000012 0.258822
vn -0.965925 -0.000012 0.258822
vn -0.965925 -0.000012 0.258822
vn -0.965925 -0.000012 0.258822
vn -0.707110 -0.000009 -0.707104
vn -0.707110 -0.000009 -0.707104
vn -0.707110 -0.000009 -0.707104
vn -0.707110 -0.000009 -0.707104
vn -0.258824 -0.000003 -0.965925
vn -0.258824 -0.000003 -0.965925
vn -0.258824 -0.000003 -0.965925
vn -0.258824 -0.000003 -0.965925
vn 0.258823 0.000003 -0.965925
vn 0.258823 0.000003 -0.965925
vn 0.258823 0.000003 -0.965925
vn 0.258823 0.000003 -0.965925
vn 0.707115 0.000009 -0.707098
vn 0.707115 0.000009 -0.707098
vn 0.707115 0.000009 -0.707098
vn 0.707115 0.000009 -0.707098
vn 0.965925 0.000012 -0.258822
vn 0.965925 0.000012 -0.258822
vn 0.965925 0.000012 -0.258822
vn 0.965925 0.000012 -0.258822
vn 0.965925 0.000012 0.258823
vn 0.965925 0.000012 0.258823
vn 0.965925 0.000012 0.258823
vn 0.965925 0.000012 0.258823
vn 0.707113 0.000008 0.707100
vn 0.707113 0.000008 0.707100
vn 0.707113 0.000008 0.707100
vn 0.707113 0.000008 0.707100
vn 0.258822 0.000003 0.965925
vn 0.258822 0.000003 0.965925
vn 0.258822 0.000003 0.965925
vn 0.258822 0.000003 0.965925
vn -0.258825 -0.000004 0.965924
vn -0.258825 -0.000004 0.965924
vn -0.258825 -0.000004 0.965924
vn -0.258825 -0.000004 0.965924
vn -0.000000 1.000000 -0.000000
vn -0.000000 1.000000 -0.000000
vn -0.000000 1.000000 -0.000000
vn -0.000000 1.000000 -0.000000
vn -0.000000 1.000000 -0.000000
vn -0.000000 1.000000 -0.000000
vn -0.000000 1.000000 -0.000000
vn -0.000000 1.000000 -0.000000
vn -0.000000 1.000000 -0.000000
vn -0.000000 1.000000 -0.000000
vn -0.000000 1.000000 -0.000000
vn -0.000000 1.000000 -0.000000

vt -0.027030 -0.033662
vt -0.023618 -0.036764
vt -0.026187 -0.039589
vt -0.029599 -0.036487
vt 0.032418 -0.074614
vt 0.028250 -0.076588
vt 0.023654 -0.076214
vt 0.019860 -0.073592
vt 0.017886 -0.069424
vt 0.018260 -0.064827
vt 0.020882 -0.061034
vt 0.025050 -0.059060
vt 0.029647 -0.059434
vt 0.033440 -0.062056
vt 0.035414 -0.066224
vt 0.035040 -0.070820
vt -0.026555 -0.048301
vt -0.022010 -0.047517
vt -0.021362 -0.051280
vt -0.025906 -0.052063
vt 0.003556 -0.086433
vt 0.005686 -0.082343
vt 0.009073 -0.084107
vt 0.006942 -0.088197
vt 0.010024 -0.079659
vt 0.011994 -0.075489
vt 0.015447 -0.077120
vt 0.013477 -0.081290
vt 0.016063 -0.058677
vt 0.018354 -0.054674
vt 0.021668 -0.056571
vt 0.019377 -0.060574
vt 0.023618 -0.036764
vt 0.027031 -0.033662
vt 0.029599 -0.036487
vt 0.026187 -0.039589
vt 0.022010 -0.047518
vt 0.026555 -0.048301
vt 0.025907 -0.052064
vt 0.021362 -0.051281
vt 0.003920 -0.072296
vt 0.006861 -0.075847
vt 0.003920 -0.078283
vt 0.000979 -0.074731
vt -0.005687 -0.082343
vt -0.003556 -0.086433
vt -0.006942 -0.088197
vt -0.009073 -0.084107
vt -0.011994 -0.075489
vt -0.010024 -0.079659
vt -0.013477 -0.081290
vt -0.015447 -0.077120
vt -0.018355 -0.054674
vt -0.016063 -0.058677
vt -0.019377 -0.060573
vt -0.021668 -0.056571
vt -0.014188 -0.019536
vt -0.010776 -0.022638
vt -0.012488 -0.024521
vt -0.015900 -0.021419
vt -0.029796 -0.029487
vt -0.025252 -0.028704
vt -0.024819 -0.031212
vt -0.029364 -0.031995
vt -0.013375 -0.077611
vt -0.011244 -0.073521
vt -0.008987 -0.074698
vt -0.011118 -0.078787
vt -0.007237 -0.071504
vt -0.005267 -0.067335
vt -0.002966 -0.068422
vt -0.004936 -0.072592
vt -0.000505 -0.049193
vt 0.001786 -0.045190
vt 0.003995 -0.046455
vt 0.001704 -0.050457
vt 0.010776 -0.022638
vt 0.014188 -0.019536
vt 0.015901 -0.021419
vt 0.012488 -0.024522
vt 0.025252 -0.028704
vt 0.029796 -0.029487
vt 0.029364 -0.031996
vt 0.024820 -0.031212
vt 0.018624 -0.060119
vt 0.021565 -0.063671
vt 0.019604 -0.065295
vt 0.016663 -0.061743
vt 0.011244 -0.073521
vt 0.013375 -0.077611
vt 0.011118 -0.078787
vt 0.008987 -0.074698
vt 0.005267 -0.067335
vt 0.007237 -0.071504
vt 0.004936 -0.072592
vt 0.002966 -0.068422
vt -0.001786 -0.045190
vt 0.000505 -0.049193
vt -0.001704 -0.050457
vt -0.003995 -0.046455
vt -0.035040 -0.070820
vt -0.035414 -0.066224
vt -0.033440 -0.062056
vt -0.029646 -0.059434
vt -0.025050 -0.059060
vt -0.020882 -0.061034
vt -0.018260 -0.064827
vt -0.017886 -0.069424
vt -0.019860 -0.073592
vt -0.023654 -0.076214
vt -0.028250 -0.076588
vt -0.032418 -0.074614
s off
f 1/1/1 2/2/2 3/3/3
f 1/1/1 3/3/3 4/4/4
f 5/5/5 6/6/6 7/7/7
f 5/5/5 7/7/7 8/8/8
f 5/5/5 8/8/8 9/9/9
f 5/5/5 9/9/9 10/10/10
f 5/5/5 10/10/10 11/11/11
f 5/5/5 11/11/11 12/12/12
f 5/5/5 12/12/12 13/13/13
f 5/5/5 13/13/13 14/14/14
f 5/5/5 14/14/14 15/15/15
f 5/5/5 15/15/15 16/16/16
f 17/17/17 18/18/18 19/19/19
f 17/17/17 19/19/19 20/20/20
f 21/21/21 22/22/22 23/23/23
f 21/21/21 23/23/23 24/24/24
f 25/25/25 26/26/26 27/27/27
f 25/25/25 27/27/27 28/28/28
f 29/29/29 30/30/30 31/31/31
f 29/29/29 31/31/31 32/32/32
f 33/33/33 34/34/34 35/35/35
f 33/33/33 35/35/35 36/36/36
f 37/37/37 38/38/38 39/39/39
f 37/37/37 39/39/39 40/40/40
f 41/41/41 42/42/42 43/43/43
f 41/41/41 43/43/43 44/44/44
f 45/45/45 46/46/46 47/47/47
f 45/45/45 47/47/47 48/48/48
f 49/49/49 50/50/50 51/51/51
f 49/49/49 51/51/51 52/52/52
f 53/53/53 54/54/54 55/55/55
f 53/53/53 55/55/55 56/56/56
f 57/57/57 58/58/58 59/59/59
f 57/57/57 59/59/59 60/60/60
f 61/61/61 62/62/62 63/63/63
f 61/61/61 63/63/63 64/64/64
f 65/65/65 66/66/66 67/67/67
f 65/65/65 67/67/67 68/68/68
f 69/69/69 70/70/70 71/71/71
f 69/69/69 71/71/71 72/72/72
f 73/73/73 74/74/74 75/75/75
f 73/73/73 75/75/75 76/76/76
f 77/77/77 78/78/78 79/79/79
f 77/77/77 79/79/79 80/80/80
f 81/81/81 82/82/82 83/83/83
f 81/81/81 83/83/83 84/84/84
f 85/85/85 86/86/86 87/87/87
f 85/85/85 87/87/87 88/88/88
f 89/89/89 90/90/90 91/91/91
f 89/89/89 91/91/91 92/92/92
f 93/93/93 94/94/94 95/95/95
f 93/93/93 95/95/95 96/96/96
f 97/97/97 98/98/98 99/99/99
f 97/97/97 99/99/99 100/100/100
f 101/101/101 102/102/102 103/103/103
f 101/101/101 103/103/103 104/104/104
f 101/101/101 104/104/104 105/105/105
f 101/101/101 105/105/105 106/106/106
f 101/101/101 106/106/106 107/107/107
f 101/101/101 107/107/107 108/108/108
f 101/101/101 108/108/108 109/109/109
f 101/101/101 109/109/109 110/110/110
f 101/101/101 110/110/110 111/111/111
f 101/101/101 111/111/111 112/112/112
