# Exported using automatic converter by Erwin Coumans
mtllib model6.mtl
#object group974128616_10

v -1.862522 -0.394511 -3.100149
v -1.892522 -0.394511 -3.100149
v -1.892522 -0.424511 -3.100149
v -1.862522 -0.424511 -3.100149
v -1.892522 -0.424511 -3.140149
v -1.892522 -0.394511 -3.140149
v -1.862522 -0.394511 -3.140149
v -1.862522 -0.424511 -3.140149
v -1.892522 -0.424511 -3.100149
v -1.892522 -0.424511 -3.140149
v -1.862522 -0.424511 -3.140149
v -1.862522 -0.424511 -3.100149
v -1.862522 -0.394511 -3.140149
v -1.892522 -0.394511 -3.140149
v -1.892522 -0.394511 -3.100149
v -1.862522 -0.394511 -3.100149
v -1.862522 -0.424511 -3.140149
v -1.862522 -0.394511 -3.140149
v -1.862522 -0.394511 -3.100149
v -1.862522 -0.424511 -3.100149
v -1.892522 -0.394511 -3.100149
v -1.892522 -0.394511 -3.140149
v -1.892522 -0.424511 -3.140149
v -1.892522 -0.424511 -3.100149
v -1.902522 -0.384511 -3.100149
v -1.932522 -0.384511 -3.100149
v -1.932522 -0.424511 -3.100149
v -1.902522 -0.424511 -3.100149
v -1.932522 -0.424511 -3.150149
v -1.932522 -0.384511 -3.150149
v -1.902522 -0.384511 -3.150149
v -1.902522 -0.424511 -3.150149
v -1.932522 -0.424511 -3.100149
v -1.932522 -0.424511 -3.150149
v -1.902522 -0.424511 -3.150149
v -1.902522 -0.424511 -3.100149
v -1.902522 -0.384511 -3.150149
v -1.932522 -0.384511 -3.150149
v -1.932522 -0.384511 -3.100149
v -1.902522 -0.384511 -3.100149
v -1.902522 -0.424511 -3.150149
v -1.902522 -0.384511 -3.150149
v -1.902522 -0.384511 -3.100149
v -1.902522 -0.424511 -3.100149
v -1.932522 -0.384511 -3.100149
v -1.932522 -0.384511 -3.150149
v -1.932522 -0.424511 -3.150149
v -1.932522 -0.424511 -3.100149
v -1.822522 -0.384511 -3.100149
v -1.852522 -0.384511 -3.100149
v -1.852522 -0.434511 -3.100149
v -1.822522 -0.434511 -3.100149
v -1.852522 -0.434511 -3.160149
v -1.852522 -0.384511 -3.160149
v -1.822522 -0.384511 -3.160149
v -1.822522 -0.434511 -3.160149
v -1.852522 -0.434511 -3.100149
v -1.852522 -0.434511 -3.160149
v -1.822522 -0.434511 -3.160149
v -1.822522 -0.434511 -3.100149
v -1.822522 -0.384511 -3.160149
v -1.852522 -0.384511 -3.160149
v -1.852522 -0.384511 -3.100149
v -1.822522 -0.384511 -3.100149
v -1.822522 -0.434511 -3.160149
v -1.822522 -0.384511 -3.160149
v -1.822522 -0.384511 -3.100149
v -1.822522 -0.434511 -3.100149
v -1.852522 -0.384511 -3.100149
v -1.852522 -0.384511 -3.160149
v -1.852522 -0.434511 -3.160149
v -1.852522 -0.434511 -3.100149
v -1.942522 -0.384511 -3.100149
v -1.982522 -0.384511 -3.100149
v -1.982522 -0.424511 -3.100149
v -1.942522 -0.424511 -3.100149
v -1.982522 -0.424511 -3.140149
v -1.982522 -0.384511 -3.140149
v -1.942522 -0.384511 -3.140149
v -1.942522 -0.424511 -3.140149
v -1.982522 -0.424511 -3.100149
v -1.982522 -0.424511 -3.140149
v -1.942522 -0.424511 -3.140149
v -1.942522 -0.424511 -3.100149
v -1.942522 -0.384511 -3.140149
v -1.982522 -0.384511 -3.140149
v -1.982522 -0.384511 -3.100149
v -1.942522 -0.384511 -3.100149
v -1.942522 -0.424511 -3.140149
v -1.942522 -0.384511 -3.140149
v -1.942522 -0.384511 -3.100149
v -1.942522 -0.424511 -3.100149
v -1.982522 -0.384511 -3.100149
v -1.982522 -0.384511 -3.140149
v -1.982522 -0.424511 -3.140149
v -1.982522 -0.424511 -3.100149
usemtl mat8

vn -0.000000 0.000000 1.000000
vn -0.000000 0.000000 1.000000
vn -0.000000 0.000000 1.000000
vn -0.000000 0.000000 1.000000
vn 0.000000 0.000000 -1.000000
vn 0.000000 0.000000 -1.000000
vn 0.000000 0.000000 -1.000000
vn 0.000000 0.000000 -1.000000
vn 0.000000 -1.000000 0.000000
vn 0.000000 -1.000000 0.000000
vn 0.000000 -1.000000 0.000000
vn 0.000000 -1.000000 0.000000
vn -0.000000 1.000000 0.000000
vn -0.000000 1.000000 0.000000
vn -0.000000 1.000000 0.000000
vn -0.000000 1.000000 0.000000
vn 1.000000 0.000000 0.000000
vn 1.000000 0.000000 0.000000
vn 1.000000 0.000000 0.000000
vn 1.000000 0.000000 0.000000
vn -1.000000 -0.000000 -0.000000
vn -1.000000 -0.000000 -0.000000
vn -1.000000 -0.000000 -0.000000
vn -1.000000 -0.000000 -0.000000
vn -0.000000 0.000000 1.000000
vn -0.000000 0.000000 1.000000
vn -0.000000 0.000000 1.000000
vn -0.000000 0.000000 1.000000
vn 0.000000 0.000000 -1.000000
vn 0.000000 0.000000 -1.000000
vn 0.000000 0.000000 -1.000000
vn 0.000000 0.000000 -1.000000
vn 0.000000 -1.000000 0.000000
vn 0.000000 -1.000000 0.000000
vn 0.000000 -1.000000 0.000000
vn 0.000000 -1.000000 0.000000
vn -0.000000 1.000000 0.000000
vn -0.000000 1.000000 0.000000
vn -0.000000 1.000000 0.000000
vn -0.000000 1.000000 0.000000
vn 1.000000 0.000000 0.000000
vn 1.000000 0.000000 0.000000
vn 1.000000 0.000000 0.000000
vn 1.000000 0.000000 0.000000
vn -1.000000 -0.000000 -0.000000
vn -1.000000 -0.000000 -0.000000
vn -1.000000 -0.000000 -0.000000
vn -1.000000 -0.000000 -0.000000
vn -0.000000 0.000000 1.000000
vn -0.000000 0.000000 1.000000
vn -0.000000 0.000000 1.000000
vn -0.000000 0.000000 1.000000
vn 0.000000 0.000000 -1.000000
vn 0.000000 0.000000 -1.000000
vn 0.000000 0.000000 -1.000000
vn 0.000000 0.000000 -1.000000
vn 0.000000 -1.000000 0.000000
vn 0.000000 -1.000000 0.000000
vn 0.000000 -1.000000 0.000000
vn 0.000000 -1.000000 0.000000
vn -0.000000 1.000000 0.000000
vn -0.000000 1.000000 0.000000
vn -0.000000 1.000000 0.000000
vn -0.000000 1.000000 0.000000
vn 1.000000 0.000000 0.000000
vn 1.000000 0.000000 0.000000
vn 1.000000 0.000000 0.000000
vn 1.000000 0.000000 0.000000
vn -1.000000 -0.000000 -0.000000
vn -1.000000 -0.000000 -0.000000
vn -1.000000 -0.000000 -0.000000
vn -1.000000 -0.000000 -0.000000
vn -0.000000 0.000000 1.000000
vn -0.000000 0.000000 1.000000
vn -0.000000 0.000000 1.000000
vn -0.000000 0.000000 1.000000
vn 0.000000 0.000000 -1.000000
vn 0.000000 0.000000 -1.000000
vn 0.000000 0.000000 -1.000000
vn 0.000000 0.000000 -1.000000
vn 0.000000 -1.000000 0.000000
vn 0.000000 -1.000000 0.000000
vn 0.000000 -1.000000 0.000000
vn 0.000000 -1.000000 0.000000
vn -0.000000 1.000000 0.000000
vn -0.000000 1.000000 0.000000
vn -0.000000 1.000000 0.000000
vn -0.000000 1.000000 0.000000
vn 1.000000 0.000000 0.000000
vn 1.000000 0.000000 0.000000
vn 1.000000 0.000000 0.000000
vn 1.000000 0.000000 0.000000
vn -1.000000 -0.000000 -0.000000
vn -1.000000 -0.000000 -0.000000
vn -1.000000 -0.000000 -0.000000
vn -1.000000 -0.000000 -0.000000

vt 0.105129 -0.190134
vt 0.106471 -0.192817
vt 0.103787 -0.194159
vt 0.102446 -0.191475
vt -0.103787 -0.194159
vt -0.106471 -0.192817
vt -0.105129 -0.190134
vt -0.102446 -0.191475
vt -0.282145 -0.132924
vt -0.285912 -0.131579
vt -0.284903 -0.128754
vt -0.281136 -0.130099
vt 0.284903 -0.128754
vt 0.285912 -0.131579
vt 0.282145 -0.132924
vt 0.281136 -0.130099
vt -0.179603 0.135661
vt -0.177859 0.138102
vt -0.174604 0.135777
vt -0.176348 0.133336
vt 0.174604 0.135777
vt 0.177859 0.138102
vt 0.179603 0.135661
vt 0.176348 0.133336
vt 0.107813 -0.193264
vt 0.109154 -0.195947
vt 0.105576 -0.197736
vt 0.104235 -0.195053
vt -0.105576 -0.197736
vt -0.109154 -0.195947
vt -0.107813 -0.193264
vt -0.104235 -0.195053
vt -0.283490 -0.136691
vt -0.288199 -0.135010
vt -0.287190 -0.132185
vt -0.282481 -0.133866
vt 0.287190 -0.132185
vt 0.288199 -0.135010
vt 0.283490 -0.136691
vt 0.282481 -0.133866
vt -0.180416 0.136242
vt -0.178091 0.139497
vt -0.174023 0.136591
vt -0.176348 0.133336
vt 0.174023 0.136591
vt 0.178091 0.139497
vt 0.180416 0.136242
vt 0.176348 0.133336
vt 0.104235 -0.186109
vt 0.105576 -0.188792
vt 0.101104 -0.191028
vt 0.099763 -0.188345
vt -0.101104 -0.191028
vt -0.105576 -0.188792
vt -0.104235 -0.186109
vt -0.099763 -0.188345
vt -0.280799 -0.129157
vt -0.286450 -0.127139
vt -0.285441 -0.124314
vt -0.279790 -0.126332
vt 0.285441 -0.124314
vt 0.286450 -0.127139
vt 0.280799 -0.129157
vt 0.279790 -0.126332
vt -0.181811 0.136010
vt -0.178905 0.140078
vt -0.174023 0.136591
vt -0.176929 0.132522
vt 0.174023 0.136591
vt 0.178905 0.140078
vt 0.181811 0.136010
vt 0.176929 0.132522
vt 0.109601 -0.196842
vt 0.111390 -0.200420
vt 0.107813 -0.202209
vt 0.106024 -0.198631
vt -0.107813 -0.202209
vt -0.111390 -0.200420
vt -0.109601 -0.196842
vt -0.106024 -0.198631
vt -0.285172 -0.141400
vt -0.288939 -0.140055
vt -0.287593 -0.136288
vt -0.283826 -0.137633
vt 0.287593 -0.136288
vt 0.288939 -0.140055
vt 0.285172 -0.141400
vt 0.283826 -0.137633
vt -0.179603 0.135661
vt -0.177278 0.138916
vt -0.174023 0.136591
vt -0.176348 0.133336
vt 0.174023 0.136591
vt 0.177278 0.138916
vt 0.179603 0.135661
vt 0.176348 0.133336
s off
f 1/1/1 2/2/2 3/3/3
f 1/1/1 3/3/3 4/4/4
f 5/5/5 6/6/6 7/7/7
f 5/5/5 7/7/7 8/8/8
f 9/9/9 10/10/10 11/11/11
f 9/9/9 11/11/11 12/12/12
f 13/13/13 14/14/14 15/15/15
f 13/13/13 15/15/15 16/16/16
f 17/17/17 18/18/18 19/19/19
f 17/17/17 19/19/19 20/20/20
f 21/21/21 22/22/22 23/23/23
f 21/21/21 23/23/23 24/24/24
f 25/25/25 26/26/26 27/27/27
f 25/25/25 27/27/27 28/28/28
f 29/29/29 30/30/30 31/31/31
f 29/29/29 31/31/31 32/32/32
f 33/33/33 34/34/34 35/35/35
f 33/33/33 35/35/35 36/36/36
f 37/37/37 38/38/38 39/39/39
f 37/37/37 39/39/39 40/40/40
f 41/41/41 42/42/42 43/43/43
f 41/41/41 43/43/43 44/44/44
f 45/45/45 46/46/46 47/47/47
f 45/45/45 47/47/47 48/48/48
f 49/49/49 50/50/50 51/51/51
f 49/49/49 51/51/51 52/52/52
f 53/53/53 54/54/54 55/55/55
f 53/53/53 55/55/55 56/56/56
f 57/57/57 58/58/58 59/59/59
f 57/57/57 59/59/59 60/60/60
f 61/61/61 62/62/62 63/63/63
f 61/61/61 63/63/63 64/64/64
f 65/65/65 66/66/66 67/67/67
f 65/65/65 67/67/67 68/68/68
f 69/69/69 70/70/70 71/71/71
f 69/69/69 71/71/71 72/72/72
f 73/73/73 74/74/74 75/75/75
f 73/73/73 75/75/75 76/76/76
f 77/77/77 78/78/78 79/79/79
f 77/77/77 79/79/79 80/80/80
f 81/81/81 82/82/82 83/83/83
f 81/81/81 83/83/83 84/84/84
f 85/85/85 86/86/86 87/87/87
f 85/85/85 87/87/87 88/88/88
f 89/89/89 90/90/90 91/91/91
f 89/89/89 91/91/91 92/92/92
f 93/93/93 94/94/94 95/95/95
f 93/93/93 95/95/95 96/96/96
