# Exported using automatic converter by Erwin Coumans
mtllib model6.mtl
#object group1458277294_1

v -0.113544 0.465375 0.560554
v -0.113250 0.501584 0.560395
v 0.596447 0.495819 0.559986
v 0.596153 0.459610 0.560145
v 0.596456 0.495882 0.574470
v -0.113241 0.501648 0.574879
v -0.113535 0.465439 0.575038
v 0.596162 0.459673 0.574629
v 0.596447 0.495819 0.559986
v 0.596456 0.495882 0.574470
v 0.596162 0.459673 0.574629
v 0.596153 0.459610 0.560145
v -0.113535 0.465439 0.575038
v -0.113241 0.501648 0.574879
v -0.113250 0.501584 0.560395
v -0.113544 0.465375 0.560554
v 0.596162 0.459673 0.574629
v -0.113535 0.465439 0.575038
v -0.113544 0.465375 0.560554
v 0.596153 0.459610 0.560145
v -0.113250 0.501584 0.560395
v -0.113241 0.501648 0.574879
v 0.596456 0.495882 0.574470
v 0.596447 0.495819 0.559986
v 0.588880 0.456032 0.556545
v 0.589056 0.477757 0.556449
v 0.618023 0.477522 0.556432
v 0.617847 0.455797 0.556528
v 0.618445 0.480546 1.244420
v 0.589477 0.480781 1.244437
v 0.589301 0.459056 1.244532
v 0.618268 0.458821 1.244516
v 0.618023 0.477522 0.556432
v 0.618445 0.480546 1.244420
v 0.618268 0.458821 1.244516
v 0.617847 0.455797 0.556528
v 0.589301 0.459056 1.244532
v 0.589477 0.480781 1.244437
v 0.589056 0.477757 0.556449
v 0.588880 0.456032 0.556545
v 0.618268 0.458821 1.244516
v 0.589301 0.459056 1.244532
v 0.588880 0.456032 0.556545
v 0.617847 0.455797 0.556528
v 0.589056 0.477757 0.556449
v 0.589477 0.480781 1.244437
v 0.618445 0.480546 1.244420
v 0.618023 0.477522 0.556432
v -0.120410 0.464726 1.223213
v -0.120116 0.500935 1.223054
v 0.589581 0.495169 1.222645
v 0.589287 0.458961 1.222804
v 0.589590 0.495233 1.237129
v -0.120107 0.500999 1.237538
v -0.120401 0.464790 1.237697
v 0.589296 0.459024 1.237288
v 0.589581 0.495169 1.222645
v 0.589590 0.495233 1.237129
v 0.589296 0.459024 1.237288
v 0.589287 0.458961 1.222804
v -0.120401 0.464790 1.237697
v -0.120107 0.500999 1.237538
v -0.120116 0.500935 1.223054
v -0.120410 0.464726 1.223213
v 0.589296 0.459024 1.237288
v -0.120401 0.464790 1.237697
v -0.120410 0.464726 1.223213
v 0.589287 0.458961 1.222804
v -0.120116 0.500935 1.223054
v -0.120107 0.500999 1.237538
v 0.589590 0.495233 1.237129
v 0.589581 0.495169 1.222645
v -0.142547 0.461942 0.549725
v -0.142371 0.483668 0.549629
v -0.113404 0.483432 0.549612
v -0.113580 0.461707 0.549708
v -0.112982 0.486456 1.237600
v -0.141950 0.486692 1.237617
v -0.142126 0.464966 1.237712
v -0.113159 0.464731 1.237696
v -0.113404 0.483432 0.549612
v -0.112982 0.486456 1.237600
v -0.113159 0.464731 1.237696
v -0.113580 0.461707 0.549708
v -0.142126 0.464966 1.237712
v -0.141950 0.486692 1.237617
v -0.142371 0.483668 0.549629
v -0.142547 0.461942 0.549725
v -0.113159 0.464731 1.237696
v -0.142126 0.464966 1.237712
v -0.142547 0.461942 0.549725
v -0.113580 0.461707 0.549708
v -0.142371 0.483668 0.549629
v -0.141950 0.486692 1.237617
v -0.112982 0.486456 1.237600
v -0.113404 0.483432 0.549612
usemtl mat20

vn -0.000612 -0.004395 -0.999990
vn -0.000612 -0.004395 -0.999990
vn -0.000612 -0.004395 -0.999990
vn -0.000612 -0.004395 -0.999990
vn 0.000612 0.004395 0.999990
vn 0.000612 0.004395 0.999990
vn 0.000612 0.004395 0.999990
vn 0.000612 0.004395 0.999990
vn 0.999967 -0.008124 -0.000576
vn 0.999967 -0.008124 -0.000576
vn 0.999967 -0.008124 -0.000576
vn 0.999967 -0.008124 -0.000576
vn -0.999967 0.008124 0.000576
vn -0.999967 0.008124 0.000576
vn -0.999967 0.008124 0.000576
vn -0.999967 0.008124 0.000576
vn -0.008121 -0.999957 0.004400
vn -0.008121 -0.999957 0.004400
vn -0.008121 -0.999957 0.004400
vn -0.008121 -0.999957 0.004400
vn 0.008121 0.999957 -0.004400
vn 0.008121 0.999957 -0.004400
vn 0.008121 0.999957 -0.004400
vn 0.008121 0.999957 -0.004400
vn -0.000612 -0.004395 -0.999990
vn -0.000612 -0.004395 -0.999990
vn -0.000612 -0.004395 -0.999990
vn -0.000612 -0.004395 -0.999990
vn 0.000612 0.004395 0.999990
vn 0.000612 0.004395 0.999990
vn 0.000612 0.004395 0.999990
vn 0.000612 0.004395 0.999990
vn 0.999967 -0.008124 -0.000576
vn 0.999967 -0.008124 -0.000576
vn 0.999967 -0.008124 -0.000576
vn 0.999967 -0.008124 -0.000576
vn -0.999967 0.008124 0.000576
vn -0.999967 0.008124 0.000576
vn -0.999967 0.008124 0.000576
vn -0.999967 0.008124 0.000576
vn -0.008121 -0.999957 0.004400
vn -0.008121 -0.999957 0.004400
vn -0.008121 -0.999957 0.004400
vn -0.008121 -0.999957 0.004400
vn 0.008121 0.999957 -0.004400
vn 0.008121 0.999957 -0.004400
vn 0.008121 0.999957 -0.004400
vn 0.008121 0.999957 -0.004400
vn -0.000612 -0.004395 -0.999990
vn -0.000612 -0.004395 -0.999990
vn -0.000612 -0.004395 -0.999990
vn -0.000612 -0.004395 -0.999990
vn 0.000612 0.004395 0.999990
vn 0.000612 0.004395 0.999990
vn 0.000612 0.004395 0.999990
vn 0.000612 0.004395 0.999990
vn 0.999967 -0.008124 -0.000576
vn 0.999967 -0.008124 -0.000576
vn 0.999967 -0.008124 -0.000576
vn 0.999967 -0.008124 -0.000576
vn -0.999967 0.008124 0.000576
vn -0.999967 0.008124 0.000576
vn -0.999967 0.008124 0.000576
vn -0.999967 0.008124 0.000576
vn -0.008121 -0.999957 0.004400
vn -0.008121 -0.999957 0.004400
vn -0.008121 -0.999957 0.004400
vn -0.008121 -0.999957 0.004400
vn 0.008121 0.999957 -0.004400
vn 0.008121 0.999957 -0.004400
vn 0.008121 0.999957 -0.004400
vn 0.008121 0.999957 -0.004400
vn -0.000612 -0.004395 -0.999990
vn -0.000612 -0.004395 -0.999990
vn -0.000612 -0.004395 -0.999990
vn -0.000612 -0.004395 -0.999990
vn 0.000612 0.004395 0.999990
vn 0.000612 0.004395 0.999990
vn 0.000612 0.004395 0.999990
vn 0.000612 0.004395 0.999990
vn 0.999967 -0.008124 -0.000576
vn 0.999967 -0.008124 -0.000576
vn 0.999967 -0.008124 -0.000576
vn 0.999967 -0.008124 -0.000576
vn -0.999967 0.008124 0.000576
vn -0.999967 0.008124 0.000576
vn -0.999967 0.008124 0.000576
vn -0.999967 0.008124 0.000576
vn -0.008121 -0.999957 0.004400
vn -0.008121 -0.999957 0.004400
vn -0.008121 -0.999957 0.004400
vn -0.008121 -0.999957 0.004400
vn 0.008121 0.999957 -0.004400
vn 0.008121 0.999957 -0.004400
vn 0.008121 0.999957 -0.004400
vn 0.008121 0.999957 -0.004400

vt -0.103287 0.004510
vt -0.106510 0.006159
vt -0.074182 0.069341
vt -0.070959 0.067692
vt 0.074182 0.069341
vt 0.106510 0.006159
vt 0.103287 0.004510
vt 0.070959 0.067692
vt 0.175160 -0.002875
vt 0.176349 -0.003702
vt 0.174283 -0.006675
vt 0.173093 -0.005848
vt -0.174283 -0.006675
vt -0.176349 -0.003702
vt -0.175160 -0.002875
vt -0.173093 -0.005848
vt 0.147777 -0.022911
vt 0.123991 -0.089779
vt 0.122626 -0.089293
vt 0.146412 -0.022426
vt -0.122626 -0.089293
vt -0.123991 -0.089779
vt -0.147777 -0.022911
vt -0.146412 -0.022426
vt -0.070966 0.066882
vt -0.072901 0.067872
vt -0.071581 0.070451
vt -0.069647 0.069461
vt 0.071581 0.070451
vt 0.072901 0.067872
vt 0.070966 0.066882
vt 0.069647 0.069461
vt 0.173829 -0.004155
vt 0.230319 -0.043427
vt 0.229079 -0.045211
vt 0.172589 -0.005938
vt -0.229079 -0.045211
vt -0.230319 -0.043427
vt -0.173829 -0.004155
vt -0.172589 -0.005938
vt 0.211620 -0.043315
vt 0.210649 -0.046044
vt 0.145828 -0.022987
vt 0.146799 -0.020257
vt -0.145828 -0.022987
vt -0.210649 -0.046044
vt -0.211620 -0.043315
vt -0.146799 -0.020257
vt -0.103294 0.003700
vt -0.106518 0.005350
vt -0.074190 0.068532
vt -0.070966 0.066882
vt 0.074190 0.068532
vt 0.106518 0.005350
vt 0.103294 0.003700
vt 0.070966 0.066882
vt 0.229362 -0.040997
vt 0.230551 -0.041824
vt 0.228484 -0.044797
vt 0.227295 -0.043970
vt -0.228484 -0.044797
vt -0.230551 -0.041824
vt -0.229362 -0.040997
vt -0.227295 -0.043970
vt 0.209966 -0.045801
vt 0.186181 -0.112669
vt 0.184816 -0.112184
vt 0.208602 -0.045316
vt -0.184816 -0.112184
vt -0.186181 -0.112669
vt -0.209966 -0.045801
vt -0.208602 -0.045316
vt -0.104284 0.001766
vt -0.106218 0.002756
vt -0.104898 0.005335
vt -0.102964 0.004345
vt 0.104898 0.005335
vt 0.106218 0.002756
vt 0.104284 0.001766
vt 0.102964 0.004345
vt 0.173235 -0.003741
vt 0.229724 -0.043013
vt 0.228484 -0.044797
vt 0.171995 -0.005525
vt -0.228484 -0.044797
vt -0.229724 -0.043013
vt -0.173235 -0.003741
vt -0.171995 -0.005525
vt 0.186424 -0.111987
vt 0.185453 -0.114716
vt 0.120632 -0.091659
vt 0.121603 -0.088929
vt -0.120632 -0.091659
vt -0.185453 -0.114716
vt -0.186424 -0.111987
vt -0.121603 -0.088929
s off
f 1/1/1 2/2/2 3/3/3
f 1/1/1 3/3/3 4/4/4
f 5/5/5 6/6/6 7/7/7
f 5/5/5 7/7/7 8/8/8
f 9/9/9 10/10/10 11/11/11
f 9/9/9 11/11/11 12/12/12
f 13/13/13 14/14/14 15/15/15
f 13/13/13 15/15/15 16/16/16
f 17/17/17 18/18/18 19/19/19
f 17/17/17 19/19/19 20/20/20
f 21/21/21 22/22/22 23/23/23
f 21/21/21 23/23/23 24/24/24
f 25/25/25 26/26/26 27/27/27
f 25/25/25 27/27/27 28/28/28
f 29/29/29 30/30/30 31/31/31
f 29/29/29 31/31/31 32/32/32
f 33/33/33 34/34/34 35/35/35
f 33/33/33 35/35/35 36/36/36
f 37/37/37 38/38/38 39/39/39
f 37/37/37 39/39/39 40/40/40
f 41/41/41 42/42/42 43/43/43
f 41/41/41 43/43/43 44/44/44
f 45/45/45 46/46/46 47/47/47
f 45/45/45 47/47/47 48/48/48
f 49/49/49 50/50/50 51/51/51
f 49/49/49 51/51/51 52/52/52
f 53/53/53 54/54/54 55/55/55
f 53/53/53 55/55/55 56/56/56
f 57/57/57 58/58/58 59/59/59
f 57/57/57 59/59/59 60/60/60
f 61/61/61 62/62/62 63/63/63
f 61/61/61 63/63/63 64/64/64
f 65/65/65 66/66/66 67/67/67
f 65/65/65 67/67/67 68/68/68
f 69/69/69 70/70/70 71/71/71
f 69/69/69 71/71/71 72/72/72
f 73/73/73 74/74/74 75/75/75
f 73/73/73 75/75/75 76/76/76
f 77/77/77 78/78/78 79/79/79
f 77/77/77 79/79/79 80/80/80
f 81/81/81 82/82/82 83/83/83
f 81/81/81 83/83/83 84/84/84
f 85/85/85 86/86/86 87/87/87
f 85/85/85 87/87/87 88/88/88
f 89/89/89 90/90/90 91/91/91
f 89/89/89 91/91/91 92/92/92
f 93/93/93 94/94/94 95/95/95
f 93/93/93 95/95/95 96/96/96
