# Exported using automatic converter by Erwin Coumans
mtllib model6.mtl
#object mesh1132137421

v 2.248238 1.725489 -0.530148
v 2.248238 2.055489 -0.530148
v 2.248238 2.055489 -0.480148
v 2.248238 1.725489 -0.480148
v 2.208238 2.055489 -0.480148
v 2.208238 2.055489 -0.530148
v 2.208238 1.725489 -0.530148
v 2.208238 1.725489 -0.480148
v 2.248238 2.055489 -0.480148
v 2.208238 2.055489 -0.480148
v 2.208238 1.725489 -0.480148
v 2.248238 1.725489 -0.480148
v 2.208238 1.725489 -0.530148
v 2.208238 2.055489 -0.530148
v 2.248238 2.055489 -0.530148
v 2.248238 1.725489 -0.530148
v 2.208238 1.725489 -0.480148
v 2.208238 1.725489 -0.530148
v 2.248238 1.725489 -0.530148
v 2.248238 1.725489 -0.480148
v 2.248238 2.055489 -0.530148
v 2.208238 2.055489 -0.530148
v 2.208238 2.055489 -0.480148
v 2.248238 2.055489 -0.480148
usemtl mat23

vn 1.000000 0.000000 0.000000
vn 1.000000 0.000000 0.000000
vn 1.000000 0.000000 0.000000
vn 1.000000 0.000000 0.000000
vn -1.000000 0.000000 -0.000000
vn -1.000000 0.000000 -0.000000
vn -1.000000 0.000000 -0.000000
vn -1.000000 0.000000 -0.000000
vn -0.000000 0.000000 1.000000
vn -0.000000 0.000000 1.000000
vn -0.000000 0.000000 1.000000
vn -0.000000 0.000000 1.000000
vn 0.000000 -0.000000 -1.000000
vn 0.000000 -0.000000 -1.000000
vn 0.000000 -0.000000 -1.000000
vn 0.000000 -0.000000 -1.000000
vn 0.000000 -1.000000 0.000000
vn 0.000000 -1.000000 0.000000
vn 0.000000 -1.000000 0.000000
vn 0.000000 -1.000000 0.000000
vn 0.000000 1.000000 -0.000000
vn 0.000000 1.000000 -0.000000
vn 0.000000 1.000000 -0.000000
vn 0.000000 1.000000 -0.000000

vt 0.157748 0.158910
vt 0.176929 0.185764
vt 0.180998 0.182857
vt 0.161817 0.156004
vt -0.180998 0.182857
vt -0.176929 0.185764
vt -0.157748 0.158910
vt -0.161817 0.156004
vt 0.140425 0.287111
vt 0.142214 0.283533
vt 0.112698 0.268775
vt 0.110909 0.272353
vt -0.112698 0.268775
vt -0.142214 0.283533
vt -0.140425 0.287111
vt -0.110909 0.272353
vt 0.102515 0.165141
vt 0.097807 0.166823
vt 0.099152 0.170590
vt 0.103861 0.168908
vt -0.099152 0.170590
vt -0.097807 0.166823
vt -0.102515 0.165141
vt -0.103861 0.168908
s off
f 1/1/1 2/2/2 3/3/3
f 1/1/1 3/3/3 4/4/4
f 5/5/5 6/6/6 7/7/7
f 5/5/5 7/7/7 8/8/8
f 9/9/9 10/10/10 11/11/11
f 9/9/9 11/11/11 12/12/12
f 13/13/13 14/14/14 15/15/15
f 13/13/13 15/15/15 16/16/16
f 17/17/17 18/18/18 19/19/19
f 17/17/17 19/19/19 20/20/20
f 21/21/21 22/22/22 23/23/23
f 21/21/21 23/23/23 24/24/24
