# Exported using automatic converter by Erwin Coumans
mtllib model6.mtl
#object group576903952_1

v 3.048169 -1.002908 -0.318685
v 3.041938 -1.002071 -0.364372
v 3.042746 -0.951175 -0.363550
v 3.048977 -0.952012 -0.317863
v 3.043353 -0.913003 -0.362933
v 3.049584 -0.913840 -0.317247
v 3.048977 -0.952012 -0.317863
v 3.042746 -0.951175 -0.363550
v 3.044566 -0.836659 -0.361699
v 3.050797 -0.837496 -0.316013
v 3.049584 -0.913840 -0.317247
v 3.043353 -0.913003 -0.362933
v 3.045981 -0.747591 -0.360260
v 3.052212 -0.748428 -0.314574
v 3.050797 -0.837496 -0.316013
v 3.044566 -0.836659 -0.361699
v 2.909943 -0.747133 -0.254832
v 2.881702 -0.746096 -0.291276
v 2.880287 -0.835164 -0.292714
v 2.908528 -0.836201 -0.256270
v 3.046386 -0.722143 -0.359849
v 3.052617 -0.722980 -0.314163
v 3.052212 -0.748428 -0.314574
v 3.045981 -0.747591 -0.360260
usemtl mat21

vn 0.990703 -0.013551 -0.135367
vn 0.990703 -0.013551 -0.135367
vn 0.990703 -0.013551 -0.135367
vn 0.990703 -0.013551 -0.135367
vn 0.990703 -0.013561 -0.135367
vn 0.990703 -0.013561 -0.135367
vn 0.990703 -0.013561 -0.135367
vn 0.990703 -0.013561 -0.135367
vn 0.990703 -0.013555 -0.135367
vn 0.990703 -0.013555 -0.135367
vn 0.990703 -0.013555 -0.135367
vn 0.990703 -0.013555 -0.135367
vn 0.990703 -0.013551 -0.135367
vn 0.990703 -0.013551 -0.135367
vn 0.990703 -0.013551 -0.135367
vn 0.990703 -0.013551 -0.135367
vn -0.790413 0.002664 0.612569
vn -0.790413 0.002664 0.612569
vn -0.790413 0.002664 0.612569
vn -0.790413 0.002664 0.612569
vn 0.990703 -0.013561 -0.135367
vn 0.990703 -0.013561 -0.135367
vn 0.990703 -0.013561 -0.135367
vn 0.990703 -0.013561 -0.135367

vt 0.067369 -0.081072
vt 0.063158 -0.079192
vt 0.065234 -0.074543
vt 0.069445 -0.076424
vt 0.066793 -0.071054
vt 0.071004 -0.072935
vt 0.069447 -0.076421
vt 0.065236 -0.074540
vt 0.069906 -0.064083
vt 0.074117 -0.065964
vt 0.071003 -0.072936
vt 0.066792 -0.071056
vt 0.073538 -0.055950
vt 0.077749 -0.057830
vt 0.074116 -0.065965
vt 0.069905 -0.064084
vt -0.189341 0.093511
vt -0.185431 0.091066
vt -0.190154 0.083512
vt -0.194064 0.085957
vt 0.074578 -0.053623
vt 0.078789 -0.055503
vt 0.077751 -0.057827
vt 0.073540 -0.055947
s off
f 1/1/1 2/2/2 3/3/3
f 1/1/1 3/3/3 4/4/4
f 5/5/5 6/6/6 7/7/7
f 5/5/5 7/7/7 8/8/8
f 9/9/9 10/10/10 11/11/11
f 9/9/9 11/11/11 12/12/12
f 13/13/13 14/14/14 15/15/15
f 13/13/13 15/15/15 16/16/16
f 17/17/17 18/18/18 19/19/19
f 17/17/17 19/19/19 20/20/20
f 21/21/21 22/22/22 23/23/23
f 21/21/21 23/23/23 24/24/24
