# Exported using automatic converter by Erwin Coumans
mtllib model6.mtl
#object mesh526771014

v -2.596762 0.555489 -2.615149
v -0.296762 0.555489 -2.615149
v -0.296762 0.445489 -2.615149
v -2.596762 0.445489 -2.615149
v -0.296762 0.445489 -2.525149
v -0.296762 0.555489 -2.525149
v -2.596762 0.555489 -2.525148
v -2.596762 0.445489 -2.525148
v -0.296762 0.445489 -2.615149
v -0.296762 0.445489 -2.525149
v -2.596762 0.445489 -2.525148
v -2.596762 0.445489 -2.615149
v -2.596762 0.555489 -2.525148
v -0.296762 0.555489 -2.525149
v -0.296762 0.555489 -2.615149
v -2.596762 0.555489 -2.615149
v -2.596762 0.445489 -2.525148
v -2.596762 0.555489 -2.525148
v -2.596762 0.555489 -2.615149
v -2.596762 0.445489 -2.615149
v -0.296762 0.555489 -2.615149
v -0.296762 0.555489 -2.525149
v -0.296762 0.445489 -2.525149
v -0.296762 0.445489 -2.615149
usemtl mat21

vn -0.000000 0.000000 -1.000000
vn -0.000000 0.000000 -1.000000
vn -0.000000 0.000000 -1.000000
vn -0.000000 0.000000 -1.000000
vn 0.000000 0.000000 1.000000
vn 0.000000 0.000000 1.000000
vn 0.000000 0.000000 1.000000
vn 0.000000 0.000000 1.000000
vn -0.000000 -1.000000 0.000000
vn -0.000000 -1.000000 0.000000
vn -0.000000 -1.000000 0.000000
vn -0.000000 -1.000000 0.000000
vn 0.000000 1.000000 0.000000
vn 0.000000 1.000000 0.000000
vn 0.000000 1.000000 0.000000
vn 0.000000 1.000000 0.000000
vn -1.000000 0.000000 0.000000
vn -1.000000 0.000000 0.000000
vn -1.000000 0.000000 0.000000
vn -1.000000 0.000000 0.000000
vn 1.000000 -0.000000 -0.000000
vn 1.000000 -0.000000 -0.000000
vn 1.000000 -0.000000 -0.000000
vn 1.000000 -0.000000 -0.000000

vt -0.222936 -0.213321
vt -0.120077 -0.007603
vt -0.110238 -0.012522
vt -0.213097 -0.218240
vt 0.110238 -0.012522
vt 0.120077 -0.007603
vt 0.222936 -0.213321
vt 0.213097 -0.218240
vt -0.182799 0.001043
vt -0.174323 -0.001984
vt -0.251681 -0.218585
vt -0.260156 -0.215558
vt 0.251681 -0.218585
vt 0.174323 -0.001984
vt 0.182799 0.001043
vt 0.260156 -0.215558
vt 0.078990 0.170710
vt 0.072597 0.179661
vt 0.079920 0.184892
vt 0.086314 0.175941
vt -0.079920 0.184892
vt -0.072597 0.179661
vt -0.078990 0.170710
vt -0.086314 0.175941
s off
f 1/1/1 2/2/2 3/3/3
f 1/1/1 3/3/3 4/4/4
f 5/5/5 6/6/6 7/7/7
f 5/5/5 7/7/7 8/8/8
f 9/9/9 10/10/10 11/11/11
f 9/9/9 11/11/11 12/12/12
f 13/13/13 14/14/14 15/15/15
f 13/13/13 15/15/15 16/16/16
f 17/17/17 18/18/18 19/19/19
f 17/17/17 19/19/19 20/20/20
f 21/21/21 22/22/22 23/23/23
f 21/21/21 23/23/23 24/24/24
