# Exported using automatic converter by Erwin Coumans
mtllib model6.mtl
#object mesh52010734

v 3.018238 0.265489 1.009852
v 2.988238 0.265489 1.009852
v 2.988238 0.265489 0.979852
v 3.018238 0.265489 0.979852
v 2.988238 0.365489 0.979852
v 2.988238 0.365489 1.009852
v 3.018238 0.365489 1.009852
v 3.018238 0.365489 0.979852
v 2.988238 0.265489 0.979852
v 2.988238 0.365489 0.979852
v 3.018238 0.365489 0.979852
v 3.018238 0.265489 0.979852
v 3.018238 0.365489 1.009852
v 2.988238 0.365489 1.009852
v 2.988238 0.265489 1.009852
v 3.018238 0.265489 1.009852
v 3.018238 0.365489 0.979852
v 3.018238 0.365489 1.009852
v 3.018238 0.265489 1.009852
v 3.018238 0.265489 0.979852
v 2.988238 0.265489 1.009852
v 2.988238 0.365489 1.009852
v 2.988238 0.365489 0.979852
v 2.988238 0.265489 0.979852
usemtl mat15

vn 0.000000 -1.000000 0.000000
vn 0.000000 -1.000000 0.000000
vn 0.000000 -1.000000 0.000000
vn 0.000000 -1.000000 0.000000
vn -0.000000 1.000000 0.000000
vn -0.000000 1.000000 0.000000
vn -0.000000 1.000000 0.000000
vn -0.000000 1.000000 0.000000
vn 0.000000 0.000000 -1.000000
vn 0.000000 0.000000 -1.000000
vn 0.000000 0.000000 -1.000000
vn 0.000000 0.000000 -1.000000
vn 0.000000 -0.000000 1.000000
vn 0.000000 -0.000000 1.000000
vn 0.000000 -0.000000 1.000000
vn 0.000000 -0.000000 1.000000
vn 1.000000 0.000000 0.000000
vn 1.000000 0.000000 0.000000
vn 1.000000 0.000000 0.000000
vn 1.000000 0.000000 0.000000
vn -1.000000 -0.000000 -0.000000
vn -1.000000 -0.000000 -0.000000
vn -1.000000 -0.000000 -0.000000
vn -1.000000 -0.000000 -0.000000

vt 0.270078 0.191308
vt 0.269069 0.188483
vt 0.266244 0.189492
vt 0.267253 0.192317
vt -0.266244 0.189492
vt -0.269069 0.188483
vt -0.270078 0.191308
vt -0.267253 0.192317
vt 0.052771 0.273248
vt 0.043827 0.277720
vt 0.045169 0.280403
vt 0.054113 0.275931
vt -0.045169 0.280403
vt -0.043827 0.277720
vt -0.052771 0.273248
vt -0.054113 0.275931
vt 0.201573 -0.039524
vt 0.204015 -0.041268
vt 0.198202 -0.049405
vt 0.195761 -0.047662
vt -0.198202 -0.049405
vt -0.204015 -0.041268
vt -0.201573 -0.039524
vt -0.195761 -0.047662
s off
f 1/1/1 2/2/2 3/3/3
f 1/1/1 3/3/3 4/4/4
f 5/5/5 6/6/6 7/7/7
f 5/5/5 7/7/7 8/8/8
f 9/9/9 10/10/10 11/11/11
f 9/9/9 11/11/11 12/12/12
f 13/13/13 14/14/14 15/15/15
f 13/13/13 15/15/15 16/16/16
f 17/17/17 18/18/18 19/19/19
f 17/17/17 19/19/19 20/20/20
f 21/21/21 22/22/22 23/23/23
f 21/21/21 23/23/23 24/24/24
