# Exported using automatic converter by Erwin Coumans
mtllib botlab.mtl
#object mesh106075133

v 0.488238 2.765489 -0.340148
v 0.633238 2.726636 -0.340148
v 0.633238 2.726636 -0.390148
v 0.488238 2.765489 -0.390148
v 0.633238 2.726636 -0.340148
v 0.739385 2.620489 -0.340148
v 0.739385 2.620489 -0.390148
v 0.633238 2.726636 -0.390148
v 0.739385 2.620489 -0.340148
v 0.778238 2.475489 -0.340148
v 0.778238 2.475489 -0.390148
v 0.739385 2.620489 -0.390148
v 0.778238 2.475489 -0.340148
v 0.739385 2.330489 -0.340148
v 0.739385 2.330489 -0.390148
v 0.778238 2.475489 -0.390148
v 0.739385 2.330489 -0.340148
v 0.633238 2.224341 -0.340148
v 0.633238 2.224341 -0.390148
v 0.739385 2.330489 -0.390148
v 0.633238 2.224341 -0.340148
v 0.488238 2.185489 -0.340148
v 0.488238 2.185489 -0.390148
v 0.633238 2.224341 -0.390148
v 0.488238 2.185489 -0.340148
v 0.343238 2.224341 -0.340148
v 0.343238 2.224341 -0.390148
v 0.488238 2.185489 -0.390148
v 0.343238 2.224341 -0.340148
v 0.237090 2.330489 -0.340148
v 0.237090 2.330489 -0.390148
v 0.343238 2.224341 -0.390148
v 0.237090 2.330489 -0.340148
v 0.198238 2.475489 -0.340148
v 0.198238 2.475489 -0.390148
v 0.237090 2.330489 -0.390148
v 0.198238 2.475489 -0.340148
v 0.237090 2.620489 -0.340148
v 0.237090 2.620489 -0.390148
v 0.198238 2.475489 -0.390148
v 0.237090 2.620489 -0.340148
v 0.343238 2.726636 -0.340148
v 0.343238 2.726636 -0.390148
v 0.237090 2.620489 -0.390148
v 0.343238 2.726636 -0.340148
v 0.488238 2.765489 -0.340148
v 0.488238 2.765489 -0.390148
v 0.343238 2.726636 -0.390148
v 0.488238 2.765489 -0.390148
v 0.633238 2.726636 -0.390148
v 0.739385 2.620489 -0.390148
v 0.778238 2.475489 -0.390148
v 0.739385 2.330489 -0.390148
v 0.633238 2.224341 -0.390148
v 0.488238 2.185489 -0.390148
v 0.343238 2.224341 -0.390148
v 0.237090 2.330489 -0.390148
v 0.198238 2.475489 -0.390148
v 0.237090 2.620489 -0.390148
v 0.343238 2.726636 -0.390148
v 0.343238 2.726636 -0.340148
v 0.237090 2.620489 -0.340148
v 0.198238 2.475489 -0.340148
v 0.237090 2.330489 -0.340148
v 0.343238 2.224341 -0.340148
v 0.488238 2.185489 -0.340148
v 0.633238 2.224341 -0.340148
v 0.739385 2.330489 -0.340148
v 0.778238 2.475489 -0.340148
v 0.739385 2.620489 -0.340148
v 0.633238 2.726636 -0.340148
v 0.488238 2.765489 -0.340148
usemtl mat23

vn 0.258819 0.965926 -0.000002
vn 0.258819 0.965926 -0.000002
vn 0.258819 0.965926 -0.000002
vn 0.258819 0.965926 -0.000002
vn 0.707107 0.707107 -0.000000
vn 0.707107 0.707107 -0.000000
vn 0.707107 0.707107 -0.000000
vn 0.707107 0.707107 -0.000000
vn 0.965926 0.258819 0.000000
vn 0.965926 0.258819 0.000000
vn 0.965926 0.258819 0.000000
vn 0.965926 0.258819 0.000000
vn 0.965926 -0.258819 0.000000
vn 0.965926 -0.258819 0.000000
vn 0.965926 -0.258819 0.000000
vn 0.965926 -0.258819 0.000000
vn 0.707107 -0.707106 0.000003
vn 0.707107 -0.707106 0.000003
vn 0.707107 -0.707106 0.000003
vn 0.707107 -0.707106 0.000003
vn 0.258818 -0.965926 0.000001
vn 0.258818 -0.965926 0.000001
vn 0.258818 -0.965926 0.000001
vn 0.258818 -0.965926 0.000001
vn -0.258818 -0.965926 0.000005
vn -0.258818 -0.965926 0.000005
vn -0.258818 -0.965926 0.000005
vn -0.258818 -0.965926 0.000005
vn -0.707108 -0.707106 0.000001
vn -0.707108 -0.707106 0.000001
vn -0.707108 -0.707106 0.000001
vn -0.707108 -0.707106 0.000001
vn -0.965926 -0.258819 -0.000001
vn -0.965926 -0.258819 -0.000001
vn -0.965926 -0.258819 -0.000001
vn -0.965926 -0.258819 -0.000001
vn -0.965926 0.258819 -0.000000
vn -0.965926 0.258819 -0.000000
vn -0.965926 0.258819 -0.000000
vn -0.965926 0.258819 -0.000000
vn -0.707107 0.707106 0.000001
vn -0.707107 0.707106 0.000001
vn -0.707107 0.707106 0.000001
vn -0.707107 0.707106 0.000001
vn -0.258818 0.965926 -0.000001
vn -0.258818 0.965926 -0.000001
vn -0.258818 0.965926 -0.000001
vn -0.258818 0.965926 -0.000001
vn 0.000000 -0.000000 -1.000000
vn 0.000000 -0.000000 -1.000000
vn 0.000000 -0.000000 -1.000000
vn 0.000000 -0.000000 -1.000000
vn 0.000000 -0.000000 -1.000000
vn 0.000000 -0.000000 -1.000000
vn 0.000000 -0.000000 -1.000000
vn 0.000000 -0.000000 -1.000000
vn 0.000000 -0.000000 -1.000000
vn 0.000000 -0.000000 -1.000000
vn 0.000000 -0.000000 -1.000000
vn 0.000000 -0.000000 -1.000000
vn -0.000000 0.000000 1.000000
vn -0.000000 0.000000 1.000000
vn -0.000000 0.000000 1.000000
vn -0.000000 0.000000 1.000000
vn -0.000000 0.000000 1.000000
vn -0.000000 0.000000 1.000000
vn -0.000000 0.000000 1.000000
vn -0.000000 0.000000 1.000000
vn -0.000000 0.000000 1.000000
vn -0.000000 0.000000 1.000000
vn -0.000000 0.000000 1.000000
vn -0.000000 0.000000 1.000000

vt -0.024382 -0.082966
vt -0.030276 -0.069161
vt -0.025678 -0.067197
vt -0.019783 -0.081003
vt 0.106340 -0.182664
vt 0.095672 -0.172102
vt 0.099190 -0.168549
vt 0.109858 -0.179110
vt 0.273819 0.106915
vt 0.261105 0.098935
vt 0.258447 0.103170
vt 0.271161 0.111150
vt 0.178863 0.244712
vt 0.172351 0.231186
vt 0.167846 0.233355
vt 0.174358 0.246881
vt 0.125373 0.199985
vt 0.120583 0.185758
vt 0.115845 0.187354
vt 0.120635 0.201580
vt 0.083756 0.079452
vt 0.079103 0.065180
vt 0.074349 0.066730
vt 0.079002 0.081002
vt 0.030277 -0.069160
vt 0.024383 -0.082966
vt 0.019784 -0.081003
vt 0.025679 -0.067197
vt -0.095672 -0.172103
vt -0.106340 -0.182664
vt -0.109858 -0.179110
vt -0.099190 -0.168549
vt -0.261105 0.098935
vt -0.273820 0.106915
vt -0.271162 0.111150
vt -0.258447 0.103170
vt -0.172351 0.231186
vt -0.178863 0.244712
vt -0.174358 0.246881
vt -0.167846 0.233355
vt -0.120582 0.185759
vt -0.125372 0.199985
vt -0.120634 0.201581
vt -0.115843 0.187354
vt -0.079103 0.065180
vt -0.083756 0.079452
vt -0.079002 0.081002
vt -0.074349 0.066730
vt -0.282639 0.161444
vt -0.272679 0.172676
vt -0.258438 0.177423
vt -0.243731 0.174413
vt -0.232500 0.164454
vt -0.227753 0.150212
vt -0.230762 0.135506
vt -0.240722 0.124274
vt -0.254963 0.119527
vt -0.269670 0.122537
vt -0.280901 0.132496
vt -0.285648 0.146737
vt 0.285648 0.146737
vt 0.280901 0.132496
vt 0.269670 0.122537
vt 0.254963 0.119527
vt 0.240722 0.124274
vt 0.230762 0.135506
vt 0.227753 0.150212
vt 0.232500 0.164454
vt 0.243731 0.174413
vt 0.258438 0.177423
vt 0.272679 0.172676
vt 0.282639 0.161444
s off
f 1/1/1 2/2/2 3/3/3
f 1/1/1 3/3/3 4/4/4
f 5/5/5 6/6/6 7/7/7
f 5/5/5 7/7/7 8/8/8
f 9/9/9 10/10/10 11/11/11
f 9/9/9 11/11/11 12/12/12
f 13/13/13 14/14/14 15/15/15
f 13/13/13 15/15/15 16/16/16
f 17/17/17 18/18/18 19/19/19
f 17/17/17 19/19/19 20/20/20
f 21/21/21 22/22/22 23/23/23
f 21/21/21 23/23/23 24/24/24
f 25/25/25 26/26/26 27/27/27
f 25/25/25 27/27/27 28/28/28
f 29/29/29 30/30/30 31/31/31
f 29/29/29 31/31/31 32/32/32
f 33/33/33 34/34/34 35/35/35
f 33/33/33 35/35/35 36/36/36
f 37/37/37 38/38/38 39/39/39
f 37/37/37 39/39/39 40/40/40
f 41/41/41 42/42/42 43/43/43
f 41/41/41 43/43/43 44/44/44
f 45/45/45 46/46/46 47/47/47
f 45/45/45 47/47/47 48/48/48
f 49/49/49 50/50/50 51/51/51
f 49/49/49 51/51/51 52/52/52
f 49/49/49 52/52/52 53/53/53
f 49/49/49 53/53/53 54/54/54
f 49/49/49 54/54/54 55/55/55
f 49/49/49 55/55/55 56/56/56
f 49/49/49 56/56/56 57/57/57
f 49/49/49 57/57/57 58/58/58
f 49/49/49 58/58/58 59/59/59
f 49/49/49 59/59/59 60/60/60
f 61/61/61 62/62/62 63/63/63
f 61/61/61 63/63/63 64/64/64
f 61/61/61 64/64/64 65/65/65
f 61/61/61 65/65/65 66/66/66
f 61/61/61 66/66/66 67/67/67
f 61/61/61 67/67/67 68/68/68
f 61/61/61 68/68/68 69/69/69
f 61/61/61 69/69/69 70/70/70
f 61/61/61 70/70/70 71/71/71
f 61/61/61 71/71/71 72/72/72
