# Exported using automatic converter by Erwin Coumans
mtllib model6.mtl
#object group2014645610_5

v -1.763026 -0.469439 2.340524
v -1.763393 -0.439445 2.340036
v -1.763203 -0.439931 2.310040
v -1.762835 -0.469925 2.310529
v -1.663213 -0.438695 2.310655
v -1.663403 -0.438209 2.340651
v -1.663035 -0.468203 2.341139
v -1.662845 -0.468688 2.311143
v -1.763203 -0.439931 2.310040
v -1.663213 -0.438695 2.310655
v -1.662845 -0.468688 2.311143
v -1.762835 -0.469925 2.310529
v -1.663035 -0.468203 2.341139
v -1.663403 -0.438209 2.340651
v -1.763393 -0.439445 2.340036
v -1.763026 -0.469439 2.340524
v -1.662845 -0.468688 2.311143
v -1.663035 -0.468203 2.341139
v -1.763026 -0.469439 2.340524
v -1.762835 -0.469925 2.310529
v -1.763393 -0.439445 2.340036
v -1.663403 -0.438209 2.340651
v -1.663213 -0.438695 2.310655
v -1.763203 -0.439931 2.310040
v -1.643037 -0.467955 2.341261
v -1.643405 -0.437962 2.340773
v -1.643278 -0.438286 2.320776
v -1.642910 -0.468279 2.321264
v -1.593283 -0.437667 2.321083
v -1.593410 -0.437344 2.341080
v -1.593042 -0.467337 2.341568
v -1.592915 -0.467661 2.321571
v -1.643278 -0.438286 2.320776
v -1.593283 -0.437667 2.321083
v -1.592915 -0.467661 2.321571
v -1.642910 -0.468279 2.321264
v -1.593042 -0.467337 2.341568
v -1.593410 -0.437344 2.341080
v -1.643405 -0.437962 2.340773
v -1.643037 -0.467955 2.341261
v -1.592915 -0.467661 2.321571
v -1.593042 -0.467337 2.341568
v -1.643037 -0.467955 2.341261
v -1.642910 -0.468279 2.321264
v -1.643405 -0.437962 2.340773
v -1.593410 -0.437344 2.341080
v -1.593283 -0.437667 2.321083
v -1.643278 -0.438286 2.320776
usemtl mat12

vn -0.999905 -0.012360 -0.006145
vn -0.999905 -0.012360 -0.006145
vn -0.999905 -0.012360 -0.006145
vn -0.999905 -0.012360 -0.006145
vn 0.999905 0.012360 0.006145
vn 0.999905 0.012360 0.006145
vn 0.999905 0.012360 0.006145
vn 0.999905 0.012360 0.006145
vn 0.006345 -0.016199 -0.999849
vn 0.006345 -0.016199 -0.999849
vn 0.006345 -0.016199 -0.999849
vn 0.006345 -0.016199 -0.999849
vn -0.006345 0.016199 0.999849
vn -0.006345 0.016199 0.999849
vn -0.006345 0.016199 0.999849
vn -0.006345 0.016199 0.999849
vn 0.012259 -0.999792 0.016275
vn 0.012259 -0.999792 0.016275
vn 0.012259 -0.999792 0.016275
vn 0.012259 -0.999792 0.016275
vn -0.012259 0.999792 -0.016275
vn -0.012259 0.999792 -0.016275
vn -0.012259 0.999792 -0.016275
vn -0.012259 0.999792 -0.016275
vn -0.999905 -0.012360 -0.006145
vn -0.999905 -0.012360 -0.006145
vn -0.999905 -0.012360 -0.006145
vn -0.999905 -0.012360 -0.006145
vn 0.999905 0.012360 0.006145
vn 0.999905 0.012360 0.006145
vn 0.999905 0.012360 0.006145
vn 0.999905 0.012360 0.006145
vn 0.006345 -0.016199 -0.999849
vn 0.006345 -0.016199 -0.999849
vn 0.006345 -0.016199 -0.999849
vn 0.006345 -0.016199 -0.999849
vn -0.006345 0.016199 0.999849
vn -0.006345 0.016199 0.999849
vn -0.006345 0.016199 0.999849
vn -0.006345 0.016199 0.999849
vn 0.012259 -0.999792 0.016274
vn 0.012259 -0.999792 0.016274
vn 0.012259 -0.999792 0.016274
vn 0.012259 -0.999792 0.016274
vn -0.012259 0.999792 -0.016275
vn -0.012259 0.999792 -0.016275
vn -0.012259 0.999792 -0.016275
vn -0.012259 0.999792 -0.016275

vt -0.262506 -0.190525
vt -0.264259 -0.188090
vt -0.261824 -0.186337
vt -0.260071 -0.188772
vt 0.261824 -0.186337
vt 0.264259 -0.188090
vt 0.262506 -0.190525
vt 0.260071 -0.188772
vt -0.092081 -0.183279
vt -0.087670 -0.174305
vt -0.084978 -0.175628
vt -0.089389 -0.184603
vt 0.084978 -0.175628
vt 0.087670 -0.174305
vt 0.092081 -0.183279
vt 0.089389 -0.184603
vt 0.237840 -0.291149
vt 0.240668 -0.292150
vt 0.237331 -0.301577
vt 0.234503 -0.300576
vt -0.237331 -0.301577
vt -0.240668 -0.292150
vt -0.237840 -0.291149
vt -0.234503 -0.300576
vt -0.262506 -0.190525
vt -0.264259 -0.188090
vt -0.262636 -0.186921
vt -0.260883 -0.189356
vt 0.262636 -0.186921
vt 0.264259 -0.188090
vt 0.262506 -0.190525
vt 0.260883 -0.189356
vt -0.086788 -0.172510
vt -0.084582 -0.168023
vt -0.081890 -0.169346
vt -0.084095 -0.173834
vt 0.081890 -0.169346
vt 0.084582 -0.168023
vt 0.086788 -0.172510
vt 0.084095 -0.173834
vt 0.241118 -0.284884
vt 0.243003 -0.285551
vt 0.241335 -0.290265
vt 0.239449 -0.289597
vt -0.241335 -0.290265
vt -0.243003 -0.285551
vt -0.241118 -0.284884
vt -0.239449 -0.289597
s off
f 1/1/1 2/2/2 3/3/3
f 1/1/1 3/3/3 4/4/4
f 5/5/5 6/6/6 7/7/7
f 5/5/5 7/7/7 8/8/8
f 9/9/9 10/10/10 11/11/11
f 9/9/9 11/11/11 12/12/12
f 13/13/13 14/14/14 15/15/15
f 13/13/13 15/15/15 16/16/16
f 17/17/17 18/18/18 19/19/19
f 17/17/17 19/19/19 20/20/20
f 21/21/21 22/22/22 23/23/23
f 21/21/21 23/23/23 24/24/24
f 25/25/25 26/26/26 27/27/27
f 25/25/25 27/27/27 28/28/28
f 29/29/29 30/30/30 31/31/31
f 29/29/29 31/31/31 32/32/32
f 33/33/33 34/34/34 35/35/35
f 33/33/33 35/35/35 36/36/36
f 37/37/37 38/38/38 39/39/39
f 37/37/37 39/39/39 40/40/40
f 41/41/41 42/42/42 43/43/43
f 41/41/41 43/43/43 44/44/44
f 45/45/45 46/46/46 47/47/47
f 45/45/45 47/47/47 48/48/48
