# Exported using automatic converter by Erwin Coumans
mtllib botlab.mtl
#object mesh732802059

v 1.523238 2.545489 -0.320148
v 1.463238 2.545489 -0.320148
v 1.463238 2.515489 -0.320148
v 1.523238 2.515489 -0.320148
v 1.463238 2.515489 -0.360148
v 1.463238 2.545489 -0.360148
v 1.523238 2.545489 -0.360148
v 1.523238 2.515489 -0.360148
v 1.463238 2.515489 -0.320148
v 1.463238 2.515489 -0.360148
v 1.523238 2.515489 -0.360148
v 1.523238 2.515489 -0.320148
v 1.523238 2.545489 -0.360148
v 1.463238 2.545489 -0.360148
v 1.463238 2.545489 -0.320148
v 1.523238 2.545489 -0.320148
v 1.523238 2.515489 -0.360148
v 1.523238 2.545489 -0.360148
v 1.523238 2.545489 -0.320148
v 1.523238 2.515489 -0.320148
v 1.463238 2.545489 -0.320148
v 1.463238 2.545489 -0.360148
v 1.463238 2.515489 -0.360148
v 1.463238 2.515489 -0.320148
usemtl mat21

vn -0.000000 -0.000000 1.000000
vn -0.000000 -0.000000 1.000000
vn -0.000000 -0.000000 1.000000
vn -0.000000 -0.000000 1.000000
vn 0.000000 0.000000 -1.000000
vn 0.000000 0.000000 -1.000000
vn 0.000000 0.000000 -1.000000
vn 0.000000 0.000000 -1.000000
vn 0.000000 -1.000000 -0.000000
vn 0.000000 -1.000000 -0.000000
vn 0.000000 -1.000000 -0.000000
vn 0.000000 -1.000000 -0.000000
vn -0.000000 1.000000 0.000000
vn -0.000000 1.000000 0.000000
vn -0.000000 1.000000 0.000000
vn -0.000000 1.000000 0.000000
vn 1.000000 0.000000 0.000000
vn 1.000000 0.000000 0.000000
vn 1.000000 0.000000 0.000000
vn 1.000000 0.000000 0.000000
vn -1.000000 -0.000000 -0.000000
vn -1.000000 -0.000000 -0.000000
vn -1.000000 -0.000000 -0.000000
vn -1.000000 -0.000000 -0.000000

vt 0.216675 0.244179
vt 0.219358 0.238812
vt 0.216675 0.237470
vt 0.213992 0.242837
vt -0.216675 0.237470
vt -0.219358 0.238812
vt -0.216675 0.244179
vt -0.213992 0.242837
vt 0.092526 0.089600
vt 0.088759 0.090945
vt 0.090777 0.096596
vt 0.094544 0.095251
vt -0.090777 0.096596
vt -0.088759 0.090945
vt -0.092526 0.089600
vt -0.094544 0.095251
vt 0.217499 0.213314
vt 0.219243 0.215756
vt 0.222498 0.213431
vt 0.220754 0.210989
vt -0.222498 0.213431
vt -0.219243 0.215756
vt -0.217499 0.213314
vt -0.220754 0.210989
s off
f 1/1/1 2/2/2 3/3/3
f 1/1/1 3/3/3 4/4/4
f 5/5/5 6/6/6 7/7/7
f 5/5/5 7/7/7 8/8/8
f 9/9/9 10/10/10 11/11/11
f 9/9/9 11/11/11 12/12/12
f 13/13/13 14/14/14 15/15/15
f 13/13/13 15/15/15 16/16/16
f 17/17/17 18/18/18 19/19/19
f 17/17/17 19/19/19 20/20/20
f 21/21/21 22/22/22 23/23/23
f 21/21/21 23/23/23 24/24/24
