# Exported using automatic converter by Erwin Coumans
mtllib model6.mtl
#object group235702301_5

v 2.488121 0.383631 -1.485098
v 2.490465 0.383631 -1.493848
v 2.490465 0.348630 -1.493848
v 2.488121 0.348630 -1.485098
v 2.490465 0.383631 -1.493848
v 2.496871 0.383631 -1.500253
v 2.496871 0.348630 -1.500253
v 2.490465 0.348630 -1.493848
v 2.496871 0.383631 -1.500253
v 2.505620 0.383631 -1.502598
v 2.505620 0.348630 -1.502598
v 2.496871 0.348630 -1.500253
v 2.505620 0.383631 -1.502598
v 2.514370 0.383631 -1.500253
v 2.514370 0.348630 -1.500253
v 2.505620 0.348630 -1.502598
v 2.514370 0.383631 -1.500253
v 2.520776 0.383631 -1.493848
v 2.520776 0.348630 -1.493848
v 2.514370 0.348630 -1.500253
v 2.520776 0.383631 -1.493848
v 2.523120 0.383631 -1.485098
v 2.523120 0.348630 -1.485098
v 2.520776 0.348630 -1.493848
v 2.523120 0.383631 -1.485098
v 2.520776 0.383631 -1.476348
v 2.520776 0.348630 -1.476348
v 2.523120 0.348630 -1.485098
v 2.520776 0.383631 -1.476348
v 2.514370 0.383631 -1.469943
v 2.514370 0.348630 -1.469943
v 2.520776 0.348630 -1.476348
v 2.514370 0.383631 -1.469943
v 2.505620 0.383631 -1.467598
v 2.505620 0.348630 -1.467598
v 2.514370 0.348630 -1.469943
v 2.505620 0.383631 -1.467598
v 2.496871 0.383631 -1.469943
v 2.496871 0.348630 -1.469943
v 2.505620 0.348630 -1.467598
v 2.496871 0.383631 -1.469943
v 2.490465 0.383631 -1.476348
v 2.490465 0.348630 -1.476348
v 2.496871 0.348630 -1.469943
v 2.490465 0.383631 -1.476348
v 2.488121 0.383631 -1.485098
v 2.488121 0.348630 -1.485098
v 2.490465 0.348630 -1.476348
v 2.488121 0.348630 -1.485098
v 2.490465 0.348630 -1.493848
v 2.496871 0.348630 -1.500253
v 2.505620 0.348630 -1.502598
v 2.514370 0.348630 -1.500253
v 2.520776 0.348630 -1.493848
v 2.523120 0.348630 -1.485098
v 2.520776 0.348630 -1.476348
v 2.514370 0.348630 -1.469943
v 2.505620 0.348630 -1.467598
v 2.496871 0.348630 -1.469943
v 2.490465 0.348630 -1.476348
v 2.490465 0.383631 -1.476348
v 2.496871 0.383631 -1.469943
v 2.505620 0.383631 -1.467598
v 2.514370 0.383631 -1.469943
v 2.520776 0.383631 -1.476348
v 2.523120 0.383631 -1.485098
v 2.520776 0.383631 -1.493848
v 2.514370 0.383631 -1.500253
v 2.505620 0.383631 -1.502598
v 2.496871 0.383631 -1.500253
v 2.490465 0.383631 -1.493848
v 2.488121 0.383631 -1.485098
usemtl mat19

vn -1.000000 -0.000000 -0.000000
vn -1.000000 -0.000000 -0.000000
vn -1.000000 -0.000000 -0.000000
vn -1.000000 -0.000000 -0.000000
vn -0.866025 0.000000 -0.500000
vn -0.866025 0.000000 -0.500000
vn -0.866025 0.000000 -0.500000
vn -0.866025 0.000000 -0.500000
vn -0.500000 0.000000 -0.866026
vn -0.500000 0.000000 -0.866026
vn -0.500000 0.000000 -0.866026
vn -0.500000 0.000000 -0.866026
vn 0.000000 0.000000 -1.000000
vn 0.000000 0.000000 -1.000000
vn 0.000000 0.000000 -1.000000
vn 0.000000 0.000000 -1.000000
vn 0.500000 0.000000 -0.866025
vn 0.500000 0.000000 -0.866025
vn 0.500000 0.000000 -0.866025
vn 0.500000 0.000000 -0.866025
vn 0.866026 0.000000 -0.500000
vn 0.866026 0.000000 -0.500000
vn 0.866026 0.000000 -0.500000
vn 0.866026 0.000000 -0.500000
vn 1.000000 0.000000 0.000000
vn 1.000000 0.000000 0.000000
vn 1.000000 0.000000 0.000000
vn 1.000000 0.000000 0.000000
vn 0.866025 -0.000000 0.500000
vn 0.866025 -0.000000 0.500000
vn 0.866025 -0.000000 0.500000
vn 0.866025 -0.000000 0.500000
vn 0.500000 -0.000000 0.866026
vn 0.500000 -0.000000 0.866026
vn 0.500000 -0.000000 0.866026
vn 0.500000 -0.000000 0.866026
vn -0.000000 -0.000000 1.000000
vn -0.000000 -0.000000 1.000000
vn -0.000000 -0.000000 1.000000
vn -0.000000 -0.000000 1.000000
vn -0.500000 -0.000000 0.866025
vn -0.500000 -0.000000 0.866025
vn -0.500000 -0.000000 0.866025
vn -0.500000 -0.000000 0.866025
vn -0.866026 -0.000000 0.499999
vn -0.866026 -0.000000 0.499999
vn -0.866026 -0.000000 0.499999
vn -0.866026 -0.000000 0.499999
vn 0.000000 -1.000000 -0.000000
vn 0.000000 -1.000000 -0.000000
vn 0.000000 -1.000000 -0.000000
vn 0.000000 -1.000000 -0.000000
vn 0.000000 -1.000000 -0.000000
vn 0.000000 -1.000000 -0.000000
vn 0.000000 -1.000000 -0.000000
vn 0.000000 -1.000000 -0.000000
vn 0.000000 -1.000000 -0.000000
vn 0.000000 -1.000000 -0.000000
vn 0.000000 -1.000000 -0.000000
vn 0.000000 -1.000000 -0.000000
vn -0.000000 1.000000 0.000000
vn -0.000000 1.000000 0.000000
vn -0.000000 1.000000 0.000000
vn -0.000000 1.000000 0.000000
vn -0.000000 1.000000 0.000000
vn -0.000000 1.000000 0.000000
vn -0.000000 1.000000 0.000000
vn -0.000000 1.000000 0.000000
vn -0.000000 1.000000 0.000000
vn -0.000000 1.000000 0.000000
vn -0.000000 1.000000 0.000000
vn -0.000000 1.000000 0.000000

vt -0.002047 0.105224
vt -0.001335 0.105733
vt 0.000700 0.102885
vt -0.000012 0.102376
vt 0.010973 0.182932
vt 0.011433 0.183676
vt 0.014410 0.181837
vt 0.013950 0.181092
vt 0.016698 0.235962
vt 0.017075 0.236752
vt 0.020232 0.235241
vt 0.019855 0.234451
vt 0.020621 0.235364
vt 0.021012 0.236147
vt 0.024143 0.234582
vt 0.023751 0.233799
vt 0.024228 0.180905
vt 0.024743 0.181612
vt 0.027573 0.179553
vt 0.027058 0.178846
vt 0.023576 0.101907
vt 0.024394 0.102219
vt 0.025641 0.098948
vt 0.024824 0.098636
vt 0.002047 0.105224
vt 0.002759 0.104716
vt 0.000724 0.101868
vt 0.000012 0.102376
vt -0.010973 0.182932
vt -0.010513 0.182188
vt -0.013491 0.180348
vt -0.013950 0.181092
vt -0.016698 0.235963
vt -0.016320 0.235173
vt -0.019477 0.233662
vt -0.019855 0.234451
vt -0.020621 0.235364
vt -0.020230 0.234582
vt -0.023360 0.233017
vt -0.023751 0.233799
vt -0.024228 0.180905
vt -0.023713 0.180197
vt -0.026544 0.178138
vt -0.027058 0.178846
vt -0.023576 0.101907
vt -0.022759 0.101595
vt -0.024006 0.098325
vt -0.024824 0.098636
vt 0.017288 0.225299
vt 0.016543 0.225814
vt 0.016156 0.226633
vt 0.016229 0.227536
vt 0.016744 0.228281
vt 0.017563 0.228669
vt 0.018466 0.228595
vt 0.019211 0.228080
vt 0.019599 0.227261
vt 0.019525 0.226359
vt 0.019010 0.225613
vt 0.018191 0.225225
vt -0.018191 0.225225
vt -0.019010 0.225613
vt -0.019525 0.226359
vt -0.019599 0.227261
vt -0.019211 0.228080
vt -0.018466 0.228595
vt -0.017563 0.228669
vt -0.016744 0.228281
vt -0.016229 0.227536
vt -0.016156 0.226633
vt -0.016543 0.225814
vt -0.017288 0.225299
s off
f 1/1/1 2/2/2 3/3/3
f 1/1/1 3/3/3 4/4/4
f 5/5/5 6/6/6 7/7/7
f 5/5/5 7/7/7 8/8/8
f 9/9/9 10/10/10 11/11/11
f 9/9/9 11/11/11 12/12/12
f 13/13/13 14/14/14 15/15/15
f 13/13/13 15/15/15 16/16/16
f 17/17/17 18/18/18 19/19/19
f 17/17/17 19/19/19 20/20/20
f 21/21/21 22/22/22 23/23/23
f 21/21/21 23/23/23 24/24/24
f 25/25/25 26/26/26 27/27/27
f 25/25/25 27/27/27 28/28/28
f 29/29/29 30/30/30 31/31/31
f 29/29/29 31/31/31 32/32/32
f 33/33/33 34/34/34 35/35/35
f 33/33/33 35/35/35 36/36/36
f 37/37/37 38/38/38 39/39/39
f 37/37/37 39/39/39 40/40/40
f 41/41/41 42/42/42 43/43/43
f 41/41/41 43/43/43 44/44/44
f 45/45/45 46/46/46 47/47/47
f 45/45/45 47/47/47 48/48/48
f 49/49/49 50/50/50 51/51/51
f 49/49/49 51/51/51 52/52/52
f 49/49/49 52/52/52 53/53/53
f 49/49/49 53/53/53 54/54/54
f 49/49/49 54/54/54 55/55/55
f 49/49/49 55/55/55 56/56/56
f 49/49/49 56/56/56 57/57/57
f 49/49/49 57/57/57 58/58/58
f 49/49/49 58/58/58 59/59/59
f 49/49/49 59/59/59 60/60/60
f 61/61/61 62/62/62 63/63/63
f 61/61/61 63/63/63 64/64/64
f 61/61/61 64/64/64 65/65/65
f 61/61/61 65/65/65 66/66/66
f 61/61/61 66/66/66 67/67/67
f 61/61/61 67/67/67 68/68/68
f 61/61/61 68/68/68 69/69/69
f 61/61/61 69/69/69 70/70/70
f 61/61/61 70/70/70 71/71/71
f 61/61/61 71/71/71 72/72/72
