# Exported using automatic converter by Erwin Coumans
mtllib botlab.mtl
#object mesh1136103160

v 2.238238 1.825489 -0.630148
v 2.238238 1.825489 -0.510148
v 2.238238 1.785489 -0.510148
v 2.238238 1.785489 -0.630148
v 2.198238 1.785489 -0.510148
v 2.198238 1.825489 -0.510148
v 2.198238 1.825489 -0.630148
v 2.198238 1.785489 -0.630148
v 2.238238 1.785489 -0.510148
v 2.198238 1.785489 -0.510148
v 2.198238 1.785489 -0.630148
v 2.238238 1.785489 -0.630148
v 2.198238 1.825489 -0.630148
v 2.198238 1.825489 -0.510148
v 2.238238 1.825489 -0.510148
v 2.238238 1.825489 -0.630148
v 2.198238 1.785489 -0.630148
v 2.198238 1.825489 -0.630148
v 2.238238 1.825489 -0.630148
v 2.238238 1.785489 -0.630148
v 2.238238 1.825489 -0.510148
v 2.198238 1.825489 -0.510148
v 2.198238 1.785489 -0.510148
v 2.238238 1.785489 -0.510148
usemtl mat23

vn 1.000000 0.000000 0.000000
vn 1.000000 0.000000 0.000000
vn 1.000000 0.000000 0.000000
vn 1.000000 0.000000 0.000000
vn -1.000000 0.000000 -0.000000
vn -1.000000 0.000000 -0.000000
vn -1.000000 0.000000 -0.000000
vn -1.000000 0.000000 -0.000000
vn 0.000000 -1.000000 -0.000000
vn 0.000000 -1.000000 -0.000000
vn 0.000000 -1.000000 -0.000000
vn 0.000000 -1.000000 -0.000000
vn -0.000000 1.000000 0.000000
vn -0.000000 1.000000 0.000000
vn -0.000000 1.000000 0.000000
vn -0.000000 1.000000 0.000000
vn 0.000000 0.000000 -1.000000
vn 0.000000 0.000000 -1.000000
vn 0.000000 0.000000 -1.000000
vn 0.000000 0.000000 -1.000000
vn -0.000000 -0.000000 1.000000
vn -0.000000 -0.000000 1.000000
vn -0.000000 -0.000000 1.000000
vn -0.000000 -0.000000 1.000000

vt 0.155423 0.172860
vt 0.165188 0.165885
vt 0.162863 0.162630
vt 0.153098 0.169605
vt -0.162863 0.162630
vt -0.165188 0.165885
vt -0.155423 0.172860
vt -0.153098 0.169605
vt 0.100699 0.168975
vt 0.099354 0.165208
vt 0.088053 0.169244
vt 0.089398 0.173011
vt -0.088053 0.169244
vt -0.099354 0.165208
vt -0.100699 0.168975
vt -0.089398 0.173011
vt -0.118512 0.270564
vt -0.122089 0.272353
vt -0.120300 0.275931
vt -0.116723 0.274142
vt 0.120300 0.275931
vt 0.122089 0.272353
vt 0.118512 0.270564
vt 0.116723 0.274142
s off
f 1/1/1 2/2/2 3/3/3
f 1/1/1 3/3/3 4/4/4
f 5/5/5 6/6/6 7/7/7
f 5/5/5 7/7/7 8/8/8
f 9/9/9 10/10/10 11/11/11
f 9/9/9 11/11/11 12/12/12
f 13/13/13 14/14/14 15/15/15
f 13/13/13 15/15/15 16/16/16
f 17/17/17 18/18/18 19/19/19
f 17/17/17 19/19/19 20/20/20
f 21/21/21 22/22/22 23/23/23
f 21/21/21 23/23/23 24/24/24
