# Exported using automatic converter by Erwin Coumans
mtllib botlab.mtl
#object mesh1247583134

v 0.653137 -0.596339 2.472265
v 0.664988 -0.616332 2.473678
v 0.641242 -0.605498 2.504768
v 0.664988 -0.616332 2.473678
v 0.650895 -0.628038 2.479325
v 0.641242 -0.605498 2.504768
v 0.650895 -0.628038 2.479325
v 0.658157 -0.641348 2.485882
v 0.641242 -0.605498 2.504768
v 0.658157 -0.641348 2.485882
v 0.659777 -0.632343 2.508666
v 0.641242 -0.605498 2.504768
v 0.659777 -0.632343 2.508666
v 0.664877 -0.651071 2.527509
v 0.641242 -0.605498 2.504768
v 0.664877 -0.651071 2.527509
v 0.682749 -0.636898 2.533387
v 0.641242 -0.605498 2.504768
v 0.682749 -0.636898 2.533387
v 0.681039 -0.623806 2.533567
v 0.641242 -0.605498 2.504768
v 0.681039 -0.623806 2.533567
v 0.669121 -0.597068 2.521629
v 0.641242 -0.605498 2.504768
v 0.669121 -0.597068 2.521629
v 0.712226 -0.601850 2.505203
v 0.641242 -0.605498 2.504768
v 0.677298 -0.564462 2.477254
v 0.650028 -0.589681 2.477577
v 0.641242 -0.605498 2.504768
v 0.650028 -0.589681 2.477577
v 0.657281 -0.585900 2.484333
v 0.641242 -0.605498 2.504768
v 0.657281 -0.585900 2.484333
v 0.653137 -0.596339 2.472265
v 0.641242 -0.605498 2.504768
v 0.712226 -0.601850 2.505203
v 0.650895 -0.628038 2.479325
v 0.664988 -0.616332 2.473678
v 0.712226 -0.601850 2.505203
v 0.669121 -0.597068 2.521629
v 0.681039 -0.623806 2.533567
v 0.712226 -0.601850 2.505203
v 0.681039 -0.623806 2.533567
v 0.682749 -0.636898 2.533387
v 0.657281 -0.585900 2.484333
v 0.650028 -0.589681 2.477577
v 0.712226 -0.601850 2.505203
v 0.653137 -0.596339 2.472265
v 0.657281 -0.585900 2.484333
v 0.712226 -0.601850 2.505203
v 0.664988 -0.616332 2.473678
v 0.653137 -0.596339 2.472265
v 0.712226 -0.601850 2.505203
v 0.682749 -0.636898 2.533387
v 0.664877 -0.651071 2.527509
v 0.659777 -0.632343 2.508666
v 0.682749 -0.636898 2.533387
v 0.659777 -0.632343 2.508666
v 0.658157 -0.641348 2.485882
v 0.712226 -0.601850 2.505203
v 0.682749 -0.636898 2.533387
v 0.658157 -0.641348 2.485882
v 0.712226 -0.601850 2.505203
v 0.658157 -0.641348 2.485882
v 0.650895 -0.628038 2.479325
v 0.689658 -0.569299 2.500612
v 0.712226 -0.601850 2.505203
v 0.650028 -0.589681 2.477577
v 0.689658 -0.569299 2.500612
v 0.641242 -0.605498 2.504768
v 0.712226 -0.601850 2.505203
v 0.689658 -0.569299 2.500612
v 0.677298 -0.564462 2.477254
v 0.671843 -0.565322 2.499454
v 0.641242 -0.605498 2.504768
v 0.671843 -0.565322 2.499454
v 0.677298 -0.564462 2.477254
v 0.689658 -0.569299 2.500612
v 0.671843 -0.565322 2.499454
v 0.641242 -0.605498 2.504768
v 0.650028 -0.589681 2.477577
v 0.677298 -0.564462 2.477254
v 0.689658 -0.569299 2.500612
usemtl mat6

vn -0.768304 -0.484917 -0.417808
vn -0.768304 -0.484917 -0.417808
vn -0.768304 -0.484917 -0.417808
vn -0.627759 0.448936 -0.635905
vn -0.627759 0.448936 -0.635905
vn -0.627759 0.448936 -0.635905
vn -0.889021 -0.453328 0.064308
vn -0.889021 -0.453328 0.064308
vn -0.889021 -0.453328 0.064308
vn -0.811222 -0.521784 0.263934
vn -0.811222 -0.521784 0.263934
vn -0.811222 -0.521784 0.263934
vn -0.742293 -0.564840 -0.360495
vn -0.742293 -0.564840 -0.360495
vn -0.742293 -0.564840 -0.360495
vn -0.447283 0.202702 0.871120
vn -0.447283 0.202702 0.871120
vn -0.447283 0.202702 0.871120
vn -0.610859 -0.090618 0.786537
vn -0.610859 -0.090618 0.786537
vn -0.610859 -0.090618 0.786537
vn -0.541517 0.129516 0.830653
vn -0.541517 0.129516 0.830653
vn -0.541517 0.129516 0.830653
vn -0.044978 0.921309 -0.386222
vn -0.044978 0.921309 -0.386222
vn -0.044978 0.921309 -0.386222
vn -0.663313 0.719884 0.204411
vn -0.663313 0.719884 0.204411
vn -0.663313 0.719884 0.204411
vn 0.614441 -0.751939 -0.238850
vn 0.614441 -0.751939 -0.238850
vn 0.614441 -0.751939 -0.238850
vn -0.839370 0.519206 -0.160883
vn -0.839370 0.519206 -0.160883
vn -0.839370 0.519206 -0.160883
vn 0.494677 -0.780230 -0.382800
vn 0.494677 -0.780230 -0.382800
vn 0.494677 -0.780230 -0.382800
vn 0.355286 0.508574 0.784299
vn 0.355286 0.508574 0.784299
vn 0.355286 0.508574 0.784299
vn 0.642276 0.073349 0.762956
vn 0.642276 0.073349 0.762956
vn 0.642276 0.073349 0.762956
vn -0.430775 -0.507319 0.746365
vn -0.430775 -0.507319 0.746365
vn -0.430775 -0.507319 0.746365
vn 0.430165 0.604411 -0.670556
vn 0.430165 0.604411 -0.670556
vn 0.430165 0.604411 -0.670556
vn 0.490075 0.231082 -0.840492
vn 0.490075 0.231082 -0.840492
vn 0.490075 0.231082 -0.840492
vn 0.594859 -0.483860 -0.641889
vn 0.594859 -0.483860 -0.641889
vn 0.594859 -0.483860 -0.641889
vn -0.525311 -0.777909 0.344827
vn -0.525311 -0.777909 0.344827
vn -0.525311 -0.777909 0.344827
vn 0.628232 -0.734564 -0.256400
vn 0.628232 -0.734564 -0.256400
vn 0.628232 -0.734564 -0.256400
vn 0.448347 -0.186081 -0.874276
vn 0.448347 -0.186081 -0.874276
vn 0.448347 -0.186081 -0.874276
vn 0.427739 0.171392 -0.887505
vn 0.427739 0.171392 -0.887505
vn 0.427739 0.171392 -0.887505
vn -0.012799 0.130929 0.991309
vn -0.012799 0.130929 0.991309
vn -0.012799 0.130929 0.991309
vn 0.211401 0.973278 0.089663
vn 0.211401 0.973278 0.089663
vn 0.211401 0.973278 0.089663
vn -0.794445 0.582276 -0.172665
vn -0.794445 0.582276 -0.172665
vn -0.794445 0.582276 -0.172665
vn -0.029954 0.153458 0.987701
vn -0.029954 0.153458 0.987701
vn -0.029954 0.153458 0.987701
vn 0.601892 -0.656664 -0.454443
vn 0.601892 -0.656664 -0.454443
vn 0.601892 -0.656664 -0.454443

vt 0.068754 -0.289040
vt 0.071076 -0.288870
vt 0.069390 -0.292563
vt -0.206514 -0.115244
vt -0.206209 -0.117136
vt -0.209683 -0.117780
vt 0.038823 -0.336751
vt 0.040359 -0.337361
vt 0.036457 -0.339375
vt 0.317396 -0.099793
vt 0.319309 -0.101332
vt 0.317663 -0.104176
vt 0.116743 -0.289256
vt 0.119027 -0.290706
vt 0.113495 -0.289747
vt -0.180633 0.090682
vt -0.180788 0.093033
vt -0.175069 0.091430
vt -0.135443 0.197744
vt -0.134308 0.198419
vt -0.129928 0.195538
vt -0.184779 0.125717
vt -0.181685 0.126364
vt -0.180071 0.123411
vt -0.311502 -0.011401
vt -0.310384 -0.006900
vt -0.309270 -0.013920
vt -0.330210 -0.065511
vt -0.329285 -0.069108
vt -0.331527 -0.071484
vt 0.328113 -0.066189
vt 0.328990 -0.065593
vt 0.330391 -0.068530
vt -0.300476 -0.130429
vt -0.298899 -0.130910
vt -0.301282 -0.133582
vt 0.322389 -0.054327
vt 0.318034 -0.060002
vt 0.317896 -0.058090
vt -0.129813 -0.157327
vt -0.127713 -0.161462
vt -0.130834 -0.161970
vt 0.050878 -0.183662
vt 0.050692 -0.188411
vt 0.049445 -0.188845
vt 0.124737 0.202694
vt 0.124327 0.201716
vt 0.122715 0.208439
vt -0.183886 0.182482
vt -0.185345 0.183250
vt -0.184330 0.189255
vt 0.034184 0.203597
vt 0.031863 0.203416
vt 0.035089 0.209388
vt 0.287023 0.017893
vt 0.286303 0.015650
vt 0.283823 0.016729
vt 0.324183 0.039934
vt 0.321552 0.037773
vt 0.319124 0.038140
vt 0.332485 -0.060765
vt 0.334197 -0.065863
vt 0.328902 -0.066743
vt 0.174048 0.101392
vt 0.173329 0.094460
vt 0.171687 0.094640
vt 0.042466 0.181273
vt 0.046414 0.181834
vt 0.042326 0.176259
vt -0.066664 0.012010
vt -0.067548 0.006015
vt -0.070631 0.012420
vt -0.321333 -0.111048
vt -0.318651 -0.111213
vt -0.320438 -0.112642
vt -0.304442 -0.123851
vt -0.305992 -0.119015
vt -0.304089 -0.117745
vt -0.076183 0.012822
vt -0.074960 0.011462
vt -0.077021 0.006821
vt 0.312727 -0.033609
vt 0.313300 -0.029939
vt 0.315982 -0.029793
s off
f 1/1/1 2/2/2 3/3/3
f 4/4/4 5/5/5 6/6/6
f 7/7/7 8/8/8 9/9/9
f 10/10/10 11/11/11 12/12/12
f 13/13/13 14/14/14 15/15/15
f 16/16/16 17/17/17 18/18/18
f 19/19/19 20/20/20 21/21/21
f 22/22/22 23/23/23 24/24/24
f 25/25/25 26/26/26 27/27/27
f 28/28/28 29/29/29 30/30/30
f 31/31/31 32/32/32 33/33/33
f 34/34/34 35/35/35 36/36/36
f 37/37/37 38/38/38 39/39/39
f 40/40/40 41/41/41 42/42/42
f 43/43/43 44/44/44 45/45/45
f 46/46/46 47/47/47 48/48/48
f 49/49/49 50/50/50 51/51/51
f 52/52/52 53/53/53 54/54/54
f 55/55/55 56/56/56 57/57/57
f 58/58/58 59/59/59 60/60/60
f 61/61/61 62/62/62 63/63/63
f 64/64/64 65/65/65 66/66/66
f 67/67/67 68/68/68 69/69/69
f 70/70/70 71/71/71 72/72/72
f 73/73/73 74/74/74 75/75/75
f 76/76/76 77/77/77 78/78/78
f 79/79/79 80/80/80 81/81/81
f 82/82/82 83/83/83 84/84/84
