# Exported using automatic converter by Erwin Coumans
mtllib model6.mtl
#object mesh387332297

v -1.351762 0.465489 -2.815148
v -1.355111 0.465489 -2.827648
v -1.355111 0.645489 -2.827648
v -1.351762 0.645489 -2.815148
v -1.355111 0.465489 -2.827648
v -1.364262 0.465489 -2.836799
v -1.364262 0.645489 -2.836799
v -1.355111 0.645489 -2.827648
v -1.364262 0.465489 -2.836799
v -1.376762 0.465489 -2.840148
v -1.376762 0.645489 -2.840148
v -1.364262 0.645489 -2.836799
v -1.376762 0.465489 -2.840148
v -1.389262 0.465489 -2.836799
v -1.389262 0.645489 -2.836799
v -1.376762 0.645489 -2.840148
v -1.389262 0.465489 -2.836799
v -1.398413 0.465489 -2.827648
v -1.398413 0.645489 -2.827648
v -1.389262 0.645489 -2.836799
v -1.398413 0.465489 -2.827648
v -1.401762 0.465489 -2.815148
v -1.401762 0.645489 -2.815148
v -1.398413 0.645489 -2.827648
v -1.401762 0.465489 -2.815148
v -1.398413 0.465489 -2.802648
v -1.398413 0.645489 -2.802648
v -1.401762 0.645489 -2.815148
v -1.398413 0.465489 -2.802648
v -1.389262 0.465489 -2.793498
v -1.389262 0.645489 -2.793498
v -1.398413 0.645489 -2.802648
v -1.389262 0.465489 -2.793498
v -1.376762 0.465489 -2.790148
v -1.376762 0.645489 -2.790148
v -1.389262 0.645489 -2.793498
v -1.376762 0.465489 -2.790148
v -1.364262 0.465489 -2.793498
v -1.364262 0.645489 -2.793498
v -1.376762 0.645489 -2.790148
v -1.364262 0.465489 -2.793498
v -1.355111 0.465489 -2.802648
v -1.355111 0.645489 -2.802648
v -1.364262 0.645489 -2.793498
v -1.355111 0.465489 -2.802648
v -1.351762 0.465489 -2.815148
v -1.351762 0.645489 -2.815148
v -1.355111 0.645489 -2.802648
v -1.351762 0.645489 -2.815148
v -1.355111 0.645489 -2.827648
v -1.364262 0.645489 -2.836799
v -1.376762 0.645489 -2.840148
v -1.389262 0.645489 -2.836799
v -1.398413 0.645489 -2.827648
v -1.401762 0.645489 -2.815148
v -1.398413 0.645489 -2.802648
v -1.389262 0.645489 -2.793498
v -1.376762 0.645489 -2.790148
v -1.364262 0.645489 -2.793498
v -1.355111 0.645489 -2.802648
v -1.355111 0.465489 -2.802648
v -1.364262 0.465489 -2.793498
v -1.376762 0.465489 -2.790148
v -1.389262 0.465489 -2.793498
v -1.398413 0.465489 -2.802648
v -1.401762 0.465489 -2.815148
v -1.398413 0.465489 -2.827648
v -1.389262 0.465489 -2.836799
v -1.376762 0.465489 -2.840148
v -1.364262 0.465489 -2.836799
v -1.355111 0.465489 -2.827648
v -1.351762 0.465489 -2.815148
usemtl mat23

vn 1.000000 -0.000000 -0.000000
vn 1.000000 -0.000000 -0.000000
vn 1.000000 -0.000000 -0.000000
vn 1.000000 -0.000000 -0.000000
vn 0.866025 -0.000000 -0.500000
vn 0.866025 -0.000000 -0.500000
vn 0.866025 -0.000000 -0.500000
vn 0.866025 -0.000000 -0.500000
vn 0.500000 -0.000000 -0.866026
vn 0.500000 -0.000000 -0.866026
vn 0.500000 -0.000000 -0.866026
vn 0.500000 -0.000000 -0.866026
vn -0.000000 0.000000 -1.000000
vn -0.000000 0.000000 -1.000000
vn -0.000000 0.000000 -1.000000
vn -0.000000 0.000000 -1.000000
vn -0.500000 0.000000 -0.866025
vn -0.500000 0.000000 -0.866025
vn -0.500000 0.000000 -0.866025
vn -0.500000 0.000000 -0.866025
vn -0.866025 0.000000 -0.500000
vn -0.866025 0.000000 -0.500000
vn -0.866025 0.000000 -0.500000
vn -0.866025 0.000000 -0.500000
vn -1.000000 0.000000 0.000000
vn -1.000000 0.000000 0.000000
vn -1.000000 0.000000 0.000000
vn -1.000000 0.000000 0.000000
vn -0.866025 0.000000 0.500000
vn -0.866025 0.000000 0.500000
vn -0.866025 0.000000 0.500000
vn -0.866025 0.000000 0.500000
vn -0.500000 0.000000 0.866026
vn -0.500000 0.000000 0.866026
vn -0.500000 0.000000 0.866026
vn -0.500000 0.000000 0.866026
vn 0.000000 -0.000000 1.000000
vn 0.000000 -0.000000 1.000000
vn 0.000000 -0.000000 1.000000
vn 0.000000 -0.000000 1.000000
vn 0.500000 -0.000000 0.866025
vn 0.500000 -0.000000 0.866025
vn 0.500000 -0.000000 0.866025
vn 0.500000 -0.000000 0.866025
vn 0.866026 -0.000000 0.500000
vn 0.866026 -0.000000 0.500000
vn 0.866026 -0.000000 0.500000
vn 0.866026 -0.000000 0.500000
vn 0.000000 1.000000 0.000000
vn 0.000000 1.000000 0.000000
vn 0.000000 1.000000 0.000000
vn 0.000000 1.000000 0.000000
vn 0.000000 1.000000 0.000000
vn 0.000000 1.000000 0.000000
vn 0.000000 1.000000 0.000000
vn 0.000000 1.000000 0.000000
vn 0.000000 1.000000 0.000000
vn 0.000000 1.000000 0.000000
vn 0.000000 1.000000 0.000000
vn 0.000000 1.000000 0.000000
vn -0.000000 -1.000000 0.000000
vn -0.000000 -1.000000 0.000000
vn -0.000000 -1.000000 0.000000
vn -0.000000 -1.000000 0.000000
vn -0.000000 -1.000000 0.000000
vn -0.000000 -1.000000 0.000000
vn -0.000000 -1.000000 0.000000
vn -0.000000 -1.000000 0.000000
vn -0.000000 -1.000000 0.000000
vn -0.000000 -1.000000 0.000000
vn -0.000000 -1.000000 0.000000
vn -0.000000 -1.000000 0.000000

vt -0.101426 0.189193
vt -0.102443 0.189920
vt -0.091981 0.204567
vt -0.090964 0.203840
vt -0.268338 -0.000672
vt -0.269506 -0.001117
vt -0.275921 0.015701
vt -0.274753 0.016147
vt -0.219275 -0.139973
vt -0.220010 -0.140984
vt -0.234567 -0.130396
vt -0.233832 -0.129385
vt -0.160326 -0.108226
vt -0.160885 -0.109344
vt -0.176985 -0.101294
vt -0.176426 -0.100176
vt -0.107137 -0.003791
vt -0.107676 -0.004919
vt -0.123912 0.002853
vt -0.123373 0.003980
vt -0.037478 0.120083
vt -0.038135 0.119020
vt -0.053449 0.128481
vt -0.052792 0.129544
vt 0.101426 0.189193
vt 0.100409 0.188466
vt 0.089947 0.203114
vt 0.090964 0.203840
vt 0.268338 -0.000672
vt 0.267170 -0.000226
vt 0.273585 0.016592
vt 0.274753 0.016147
vt 0.219275 -0.139973
vt 0.218540 -0.138962
vt 0.233097 -0.128374
vt 0.233832 -0.129385
vt 0.160326 -0.108226
vt 0.159767 -0.107108
vt 0.175867 -0.099058
vt 0.176426 -0.100176
vt 0.107137 -0.003791
vt 0.106597 -0.002664
vt 0.122833 0.005108
vt 0.123373 0.003980
vt 0.037478 0.120083
vt 0.036821 0.121147
vt 0.052135 0.130608
vt 0.052792 0.129544
vt 0.237117 -0.091584
vt 0.238407 -0.091479
vt 0.239577 -0.092033
vt 0.240312 -0.093098
vt 0.240417 -0.094388
vt 0.239863 -0.095557
vt 0.238799 -0.096293
vt 0.237509 -0.096398
vt 0.236339 -0.095844
vt 0.235604 -0.094780
vt 0.235499 -0.093490
vt 0.236053 -0.092320
vt -0.236053 -0.092320
vt -0.235499 -0.093490
vt -0.235604 -0.094780
vt -0.236339 -0.095844
vt -0.237509 -0.096398
vt -0.238799 -0.096293
vt -0.239863 -0.095557
vt -0.240417 -0.094388
vt -0.240312 -0.093098
vt -0.239577 -0.092033
vt -0.238407 -0.091479
vt -0.237117 -0.091584
s off
f 1/1/1 2/2/2 3/3/3
f 1/1/1 3/3/3 4/4/4
f 5/5/5 6/6/6 7/7/7
f 5/5/5 7/7/7 8/8/8
f 9/9/9 10/10/10 11/11/11
f 9/9/9 11/11/11 12/12/12
f 13/13/13 14/14/14 15/15/15
f 13/13/13 15/15/15 16/16/16
f 17/17/17 18/18/18 19/19/19
f 17/17/17 19/19/19 20/20/20
f 21/21/21 22/22/22 23/23/23
f 21/21/21 23/23/23 24/24/24
f 25/25/25 26/26/26 27/27/27
f 25/25/25 27/27/27 28/28/28
f 29/29/29 30/30/30 31/31/31
f 29/29/29 31/31/31 32/32/32
f 33/33/33 34/34/34 35/35/35
f 33/33/33 35/35/35 36/36/36
f 37/37/37 38/38/38 39/39/39
f 37/37/37 39/39/39 40/40/40
f 41/41/41 42/42/42 43/43/43
f 41/41/41 43/43/43 44/44/44
f 45/45/45 46/46/46 47/47/47
f 45/45/45 47/47/47 48/48/48
f 49/49/49 50/50/50 51/51/51
f 49/49/49 51/51/51 52/52/52
f 49/49/49 52/52/52 53/53/53
f 49/49/49 53/53/53 54/54/54
f 49/49/49 54/54/54 55/55/55
f 49/49/49 55/55/55 56/56/56
f 49/49/49 56/56/56 57/57/57
f 49/49/49 57/57/57 58/58/58
f 49/49/49 58/58/58 59/59/59
f 49/49/49 59/59/59 60/60/60
f 61/61/61 62/62/62 63/63/63
f 61/61/61 63/63/63 64/64/64
f 61/61/61 64/64/64 65/65/65
f 61/61/61 65/65/65 66/66/66
f 61/61/61 66/66/66 67/67/67
f 61/61/61 67/67/67 68/68/68
f 61/61/61 68/68/68 69/69/69
f 61/61/61 69/69/69 70/70/70
f 61/61/61 70/70/70 71/71/71
f 61/61/61 71/71/71 72/72/72
