# Exported using automatic converter by Erwin Coumans
mtllib model6.mtl
#object mesh539225368

v -2.701762 -0.314511 2.299851
v -2.701762 -0.314511 2.179852
v -2.701762 -0.334511 2.179852
v -2.701762 -0.334511 2.299851
v -2.681762 -0.334511 2.179852
v -2.681762 -0.314511 2.179852
v -2.681762 -0.314511 2.299851
v -2.681762 -0.334511 2.299851
v -2.701762 -0.334511 2.179852
v -2.681762 -0.334511 2.179852
v -2.681762 -0.334511 2.299851
v -2.701762 -0.334511 2.299851
v -2.681762 -0.314511 2.299851
v -2.681762 -0.314511 2.179852
v -2.701762 -0.314511 2.179852
v -2.701762 -0.314511 2.299851
v -2.681762 -0.334511 2.299851
v -2.681762 -0.314511 2.299851
v -2.701762 -0.314511 2.299851
v -2.701762 -0.334511 2.299851
v -2.701762 -0.314511 2.179852
v -2.681762 -0.314511 2.179852
v -2.681762 -0.334511 2.179852
v -2.701762 -0.334511 2.179852
usemtl mat12

vn -1.000000 0.000000 -0.000000
vn -1.000000 0.000000 -0.000000
vn -1.000000 0.000000 -0.000000
vn -1.000000 0.000000 -0.000000
vn 1.000000 0.000000 0.000000
vn 1.000000 0.000000 0.000000
vn 1.000000 0.000000 0.000000
vn 1.000000 0.000000 0.000000
vn -0.000000 -1.000000 0.000000
vn -0.000000 -1.000000 0.000000
vn -0.000000 -1.000000 0.000000
vn -0.000000 -1.000000 0.000000
vn 0.000000 1.000000 -0.000000
vn 0.000000 1.000000 -0.000000
vn 0.000000 1.000000 -0.000000
vn 0.000000 1.000000 -0.000000
vn -0.000000 0.000000 1.000000
vn -0.000000 0.000000 1.000000
vn -0.000000 0.000000 1.000000
vn -0.000000 0.000000 1.000000
vn 0.000000 -0.000000 -1.000000
vn 0.000000 -0.000000 -1.000000
vn 0.000000 -0.000000 -1.000000
vn 0.000000 -0.000000 -1.000000

vt -0.269462 -0.171582
vt -0.259697 -0.164607
vt -0.258535 -0.166234
vt -0.268299 -0.173209
vt 0.258535 -0.166234
vt 0.259697 -0.164607
vt 0.269462 -0.171582
vt 0.268299 -0.173209
vt 0.187878 -0.386720
vt 0.188550 -0.384836
vt 0.199851 -0.388872
vt 0.199178 -0.390756
vt -0.199851 -0.388872
vt -0.188550 -0.384836
vt -0.187878 -0.386720
vt -0.199178 -0.390756
vt 0.147133 -0.260725
vt 0.148922 -0.259831
vt 0.149816 -0.261620
vt 0.148028 -0.262514
vt -0.149816 -0.261620
vt -0.148922 -0.259831
vt -0.147133 -0.260725
vt -0.148028 -0.262514
s off
f 1/1/1 2/2/2 3/3/3
f 1/1/1 3/3/3 4/4/4
f 5/5/5 6/6/6 7/7/7
f 5/5/5 7/7/7 8/8/8
f 9/9/9 10/10/10 11/11/11
f 9/9/9 11/11/11 12/12/12
f 13/13/13 14/14/14 15/15/15
f 13/13/13 15/15/15 16/16/16
f 17/17/17 18/18/18 19/19/19
f 17/17/17 19/19/19 20/20/20
f 21/21/21 22/22/22 23/23/23
f 21/21/21 23/23/23 24/24/24
