# Exported using automatic converter by Erwin Coumans
mtllib model6.mtl
#object group484448288_3

v 0.620045 1.645507 -0.433632
v 0.585500 2.187579 -0.447877
v 0.589325 2.191116 -0.304706
v 0.623869 1.649044 -0.290461
v 0.585500 2.187579 -0.447877
v 0.620045 1.645507 -0.433632
v 0.133325 1.624880 -0.430499
v 0.133325 1.624880 -0.430499
v 0.059873 2.231511 -0.447709
v 0.585500 2.187579 -0.447877
v 0.513006 2.233065 -0.442875
v 0.988831 2.238426 -0.426186
v 0.979411 1.684559 -0.443034
v 0.503585 1.679198 -0.459724
v 0.901428 2.173732 -0.506593
v 1.232122 2.191616 -0.488188
v 1.260319 1.674759 -0.492587
v 0.929625 1.656874 -0.510992
v 1.178460 2.184569 -0.441337
v 1.625971 2.210892 -0.429312
v 1.658995 1.641580 -0.412081
v 1.211483 1.615258 -0.424106
v 1.585127 2.223082 -0.353945
v 1.967466 2.268763 -0.382227
v 2.049136 1.655348 -0.410476
v 1.666797 1.609667 -0.382194
v 2.007275 2.201925 -0.492130
v 2.448238 2.169978 -0.486894
v 2.420318 1.555489 -0.481741
v 1.979356 1.587436 -0.486977
usemtl mat16

vn 0.997626 0.062834 -0.028201
vn 0.997626 0.062834 -0.028201
vn 0.997626 0.062834 -0.028201
vn 0.997626 0.062834 -0.028201
vn -0.005307 -0.026608 -0.999632
vn -0.005307 -0.026608 -0.999632
vn -0.005307 -0.026608 -0.999632
vn -0.002719 -0.028686 -0.999585
vn -0.002719 -0.028686 -0.999585
vn -0.002719 -0.028686 -0.999585
vn 0.034702 0.029797 -0.998954
vn 0.034702 0.029797 -0.998954
vn 0.034702 0.029797 -0.998954
vn 0.034702 0.029797 -0.998954
vn 0.054946 0.011495 -0.998423
vn 0.054946 0.011495 -0.998423
vn 0.054946 0.011495 -0.998423
vn 0.054946 0.011495 -0.998423
vn 0.028531 -0.028587 -0.999184
vn 0.028531 -0.028587 -0.999184
vn 0.028531 -0.028587 -0.999184
vn 0.028531 -0.028587 -0.999184
vn -0.077942 0.035505 -0.996325
vn -0.077942 0.035505 -0.996325
vn -0.077942 0.035505 -0.996325
vn -0.077942 0.035505 -0.996325
vn 0.011227 -0.008895 -0.999897
vn 0.011227 -0.008895 -0.999897
vn 0.011227 -0.008895 -0.999897
vn 0.011227 -0.008895 -0.999897

vt 0.164059 0.140158
vt 0.195565 0.184427
vt 0.207210 0.176082
vt 0.175704 0.131813
vt -0.224617 0.144995
vt -0.174714 0.123499
vt -0.194927 0.079173
vt -0.194698 0.079422
vt -0.252105 0.100431
vt -0.224328 0.145270
vt -0.234904 0.140731
vt -0.214279 0.183647
vt -0.165053 0.158188
vt -0.185678 0.115272
vt -0.209849 0.174909
vt -0.196493 0.205270
vt -0.149110 0.184426
vt -0.162466 0.154065
vt -0.195498 0.200271
vt -0.177300 0.241258
vt -0.125156 0.218106
vt -0.143353 0.177120
vt -0.193075 0.228739
vt -0.180667 0.265301
vt -0.121681 0.246377
vt -0.134090 0.209815
vt -0.162636 0.273035
vt -0.139895 0.310953
vt -0.086305 0.280752
vt -0.109046 0.242833
s off
f 1/1/1 2/2/2 3/3/3
f 1/1/1 3/3/3 4/4/4
f 5/5/5 6/6/6 7/7/7
f 8/8/8 9/9/9 10/10/10
f 11/11/11 12/12/12 13/13/13
f 11/11/11 13/13/13 14/14/14
f 15/15/15 16/16/16 17/17/17
f 15/15/15 17/17/17 18/18/18
f 19/19/19 20/20/20 21/21/21
f 19/19/19 21/21/21 22/22/22
f 23/23/23 24/24/24 25/25/25
f 23/23/23 25/25/25 26/26/26
f 27/27/27 28/28/28 29/29/29
f 27/27/27 29/29/29 30/30/30
