# Exported using automatic converter by Erwin Coumans
mtllib model6.mtl
#object mesh26058733

v -2.256762 -1.014511 0.874852
v -2.566762 -1.014511 0.874852
v -2.566762 0.025489 0.874852
v -2.256762 0.025489 0.874852
v -2.566762 0.025489 0.914852
v -2.566762 -1.014511 0.914852
v -2.256762 -1.014511 0.914852
v -2.256762 0.025489 0.914852
v -2.566762 0.025489 0.874852
v -2.566762 0.025489 0.914852
v -2.256762 0.025489 0.914852
v -2.256762 0.025489 0.874852
v -2.256762 -1.014511 0.914852
v -2.566762 -1.014511 0.914852
v -2.566762 -1.014511 0.874852
v -2.256762 -1.014511 0.874852
v -2.256762 0.025489 0.914852
v -2.256762 -1.014511 0.914852
v -2.256762 -1.014511 0.874852
v -2.256762 0.025489 0.874852
v -2.566762 -1.014511 0.874852
v -2.566762 -1.014511 0.914852
v -2.566762 0.025489 0.914852
v -2.566762 0.025489 0.874852
v -2.256762 0.035489 0.574852
v -2.566762 0.035489 0.574852
v -2.566762 -1.004511 0.574852
v -2.256762 -1.004511 0.574852
v -2.566762 -1.004511 0.534852
v -2.566762 0.035489 0.534852
v -2.256762 0.035489 0.534852
v -2.256762 -1.004511 0.534852
v -2.566762 -1.004511 0.574852
v -2.566762 -1.004511 0.534852
v -2.256762 -1.004511 0.534852
v -2.256762 -1.004511 0.574852
v -2.256762 0.035489 0.534852
v -2.566762 0.035489 0.534852
v -2.566762 0.035489 0.574852
v -2.256762 0.035489 0.574852
v -2.256762 -1.004511 0.534852
v -2.256762 0.035489 0.534852
v -2.256762 0.035489 0.574852
v -2.256762 -1.004511 0.574852
v -2.566762 0.035489 0.574852
v -2.566762 0.035489 0.534852
v -2.566762 -1.004511 0.534852
v -2.566762 -1.004511 0.574852
v -2.256762 -1.034511 1.244852
v -2.566762 -1.034511 1.244852
v -2.566761 0.005489 1.244852
v -2.256762 0.005489 1.244852
v -2.566761 0.005489 1.284852
v -2.566762 -1.034511 1.284852
v -2.256762 -1.034511 1.284852
v -2.256762 0.005489 1.284852
v -2.566761 0.005489 1.244852
v -2.566761 0.005489 1.284852
v -2.256762 0.005489 1.284852
v -2.256762 0.005489 1.244852
v -2.256762 -1.034511 1.284852
v -2.566762 -1.034511 1.284852
v -2.566762 -1.034511 1.244852
v -2.256762 -1.034511 1.244852
v -2.256762 0.005489 1.284852
v -2.256762 -1.034511 1.284852
v -2.256762 -1.034511 1.244852
v -2.256762 0.005489 1.244852
v -2.566762 -1.034511 1.244852
v -2.566762 -1.034511 1.284852
v -2.566761 0.005489 1.284852
v -2.566761 0.005489 1.244852
v -2.256762 0.035489 1.584852
v -2.566762 0.035489 1.584852
v -2.566762 -1.004511 1.584852
v -2.256762 -1.004511 1.584852
v -2.566762 -1.004511 1.544852
v -2.566762 0.035489 1.544852
v -2.256762 0.035489 1.544852
v -2.256762 -1.004511 1.544852
v -2.566762 -1.004511 1.584852
v -2.566762 -1.004511 1.544852
v -2.256762 -1.004511 1.544852
v -2.256762 -1.004511 1.584852
v -2.256762 0.035489 1.544852
v -2.566762 0.035489 1.544852
v -2.566762 0.035489 1.584852
v -2.256762 0.035489 1.584852
v -2.256762 -1.004511 1.544852
v -2.256762 0.035489 1.544852
v -2.256762 0.035489 1.584852
v -2.256762 -1.004511 1.584852
v -2.566762 0.035489 1.584852
v -2.566762 0.035489 1.544852
v -2.566762 -1.004511 1.544852
v -2.566762 -1.004511 1.584852
v -2.256762 -0.674511 1.554852
v -2.566762 -0.674511 1.554852
v -2.566762 -0.674511 0.514852
v -2.256762 -0.674511 0.514852
v -2.566762 -0.634511 0.514852
v -2.566762 -0.634511 1.554852
v -2.256762 -0.634511 1.554852
v -2.256762 -0.634511 0.514852
v -2.566762 -0.674511 0.514852
v -2.566762 -0.634511 0.514852
v -2.256762 -0.634511 0.514852
v -2.256762 -0.674511 0.514852
v -2.256762 -0.634511 1.554852
v -2.566762 -0.634511 1.554852
v -2.566762 -0.674511 1.554852
v -2.256762 -0.674511 1.554852
v -2.256762 -0.634511 0.514852
v -2.256762 -0.634511 1.554852
v -2.256762 -0.674511 1.554852
v -2.256762 -0.674511 0.514852
v -2.566762 -0.674511 1.554852
v -2.566762 -0.634511 1.554852
v -2.566762 -0.634511 0.514852
v -2.566762 -0.674511 0.514852
v -2.276762 -0.354511 1.554852
v -2.586762 -0.354511 1.554852
v -2.586762 -0.354511 0.514852
v -2.276762 -0.354511 0.514852
v -2.586762 -0.314511 0.514852
v -2.586762 -0.314511 1.554852
v -2.276762 -0.314511 1.554852
v -2.276762 -0.314511 0.514852
v -2.586762 -0.354511 0.514852
v -2.586762 -0.314511 0.514852
v -2.276762 -0.314511 0.514852
v -2.276762 -0.354511 0.514852
v -2.276762 -0.314511 1.554852
v -2.586762 -0.314511 1.554852
v -2.586762 -0.354511 1.554852
v -2.276762 -0.354511 1.554852
v -2.276762 -0.314511 0.514852
v -2.276762 -0.314511 1.554852
v -2.276762 -0.354511 1.554852
v -2.276762 -0.354511 0.514852
v -2.586762 -0.354511 1.554852
v -2.586762 -0.314511 1.554852
v -2.586762 -0.314511 0.514852
v -2.586762 -0.354511 0.514852
v -2.256762 -0.014511 1.574852
v -2.566762 -0.014511 1.574852
v -2.566762 -0.014511 0.534852
v -2.256762 -0.014511 0.534852
v -2.566762 0.025489 0.534852
v -2.566762 0.025489 1.574852
v -2.256762 0.025489 1.574852
v -2.256762 0.025489 0.534852
v -2.566762 -0.014511 0.534852
v -2.566762 0.025489 0.534852
v -2.256762 0.025489 0.534852
v -2.256762 -0.014511 0.534852
v -2.256762 0.025489 1.574852
v -2.566762 0.025489 1.574852
v -2.566762 -0.014511 1.574852
v -2.256762 -0.014511 1.574852
v -2.256762 0.025489 0.534852
v -2.256762 0.025489 1.574852
v -2.256762 -0.014511 1.574852
v -2.256762 -0.014511 0.534852
v -2.566762 -0.014511 1.574852
v -2.566762 0.025489 1.574852
v -2.566762 0.025489 0.534852
v -2.566762 -0.014511 0.534852
usemtl mat21

vn 0.000000 -0.000000 -1.000000
vn 0.000000 -0.000000 -1.000000
vn 0.000000 -0.000000 -1.000000
vn 0.000000 -0.000000 -1.000000
vn -0.000000 0.000000 1.000000
vn -0.000000 0.000000 1.000000
vn -0.000000 0.000000 1.000000
vn -0.000000 0.000000 1.000000
vn 0.000000 1.000000 0.000000
vn 0.000000 1.000000 0.000000
vn 0.000000 1.000000 0.000000
vn 0.000000 1.000000 0.000000
vn -0.000000 -1.000000 -0.000000
vn -0.000000 -1.000000 -0.000000
vn -0.000000 -1.000000 -0.000000
vn -0.000000 -1.000000 -0.000000
vn 1.000000 -0.000000 0.000000
vn 1.000000 -0.000000 0.000000
vn 1.000000 -0.000000 0.000000
vn 1.000000 -0.000000 0.000000
vn -1.000000 0.000000 -0.000000
vn -1.000000 0.000000 -0.000000
vn -1.000000 0.000000 -0.000000
vn -1.000000 0.000000 -0.000000
vn -0.000000 -0.000000 1.000000
vn -0.000000 -0.000000 1.000000
vn -0.000000 -0.000000 1.000000
vn -0.000000 -0.000000 1.000000
vn 0.000000 0.000000 -1.000000
vn 0.000000 0.000000 -1.000000
vn 0.000000 0.000000 -1.000000
vn 0.000000 0.000000 -1.000000
vn 0.000000 -1.000000 0.000000
vn 0.000000 -1.000000 0.000000
vn 0.000000 -1.000000 0.000000
vn 0.000000 -1.000000 0.000000
vn -0.000000 1.000000 -0.000000
vn -0.000000 1.000000 -0.000000
vn -0.000000 1.000000 -0.000000
vn -0.000000 1.000000 -0.000000
vn 1.000000 0.000000 0.000000
vn 1.000000 0.000000 0.000000
vn 1.000000 0.000000 0.000000
vn 1.000000 0.000000 0.000000
vn -1.000000 -0.000000 -0.000000
vn -1.000000 -0.000000 -0.000000
vn -1.000000 -0.000000 -0.000000
vn -1.000000 -0.000000 -0.000000
vn 0.000000 -0.000000 -1.000000
vn 0.000000 -0.000000 -1.000000
vn 0.000000 -0.000000 -1.000000
vn 0.000000 -0.000000 -1.000000
vn -0.000000 0.000000 1.000000
vn -0.000000 0.000000 1.000000
vn -0.000000 0.000000 1.000000
vn -0.000000 0.000000 1.000000
vn 0.000000 1.000000 0.000000
vn 0.000000 1.000000 0.000000
vn 0.000000 1.000000 0.000000
vn 0.000000 1.000000 0.000000
vn -0.000000 -1.000000 -0.000000
vn -0.000000 -1.000000 -0.000000
vn -0.000000 -1.000000 -0.000000
vn -0.000000 -1.000000 -0.000000
vn 1.000000 -0.000000 0.000000
vn 1.000000 -0.000000 0.000000
vn 1.000000 -0.000000 0.000000
vn 1.000000 -0.000000 0.000000
vn -1.000000 0.000000 -0.000000
vn -1.000000 0.000000 -0.000000
vn -1.000000 0.000000 -0.000000
vn -1.000000 0.000000 -0.000000
vn -0.000000 -0.000000 1.000000
vn -0.000000 -0.000000 1.000000
vn -0.000000 -0.000000 1.000000
vn -0.000000 -0.000000 1.000000
vn 0.000000 0.000000 -1.000000
vn 0.000000 0.000000 -1.000000
vn 0.000000 0.000000 -1.000000
vn 0.000000 0.000000 -1.000000
vn 0.000000 -1.000000 0.000000
vn 0.000000 -1.000000 0.000000
vn 0.000000 -1.000000 0.000000
vn 0.000000 -1.000000 0.000000
vn -0.000000 1.000000 -0.000000
vn -0.000000 1.000000 -0.000000
vn -0.000000 1.000000 -0.000000
vn -0.000000 1.000000 -0.000000
vn 1.000000 0.000000 0.000000
vn 1.000000 0.000000 0.000000
vn 1.000000 0.000000 0.000000
vn 1.000000 0.000000 0.000000
vn -1.000000 -0.000000 -0.000000
vn -1.000000 -0.000000 -0.000000
vn -1.000000 -0.000000 -0.000000
vn -1.000000 -0.000000 -0.000000
vn -0.000000 -1.000000 0.000000
vn -0.000000 -1.000000 0.000000
vn -0.000000 -1.000000 0.000000
vn -0.000000 -1.000000 0.000000
vn 0.000000 1.000000 0.000000
vn 0.000000 1.000000 0.000000
vn 0.000000 1.000000 0.000000
vn 0.000000 1.000000 0.000000
vn 0.000000 0.000000 -1.000000
vn 0.000000 0.000000 -1.000000
vn 0.000000 0.000000 -1.000000
vn 0.000000 0.000000 -1.000000
vn -0.000000 -0.000000 1.000000
vn -0.000000 -0.000000 1.000000
vn -0.000000 -0.000000 1.000000
vn -0.000000 -0.000000 1.000000
vn 1.000000 -0.000000 0.000000
vn 1.000000 -0.000000 0.000000
vn 1.000000 -0.000000 0.000000
vn 1.000000 -0.000000 0.000000
vn -1.000000 0.000000 -0.000000
vn -1.000000 0.000000 -0.000000
vn -1.000000 0.000000 -0.000000
vn -1.000000 0.000000 -0.000000
vn -0.000000 -1.000000 0.000000
vn -0.000000 -1.000000 0.000000
vn -0.000000 -1.000000 0.000000
vn -0.000000 -1.000000 0.000000
vn 0.000000 1.000000 0.000000
vn 0.000000 1.000000 0.000000
vn 0.000000 1.000000 0.000000
vn 0.000000 1.000000 0.000000
vn 0.000000 0.000000 -1.000000
vn 0.000000 0.000000 -1.000000
vn 0.000000 0.000000 -1.000000
vn 0.000000 0.000000 -1.000000
vn -0.000000 -0.000000 1.000000
vn -0.000000 -0.000000 1.000000
vn -0.000000 -0.000000 1.000000
vn -0.000000 -0.000000 1.000000
vn 1.000000 -0.000000 0.000000
vn 1.000000 -0.000000 0.000000
vn 1.000000 -0.000000 0.000000
vn 1.000000 -0.000000 0.000000
vn -1.000000 0.000000 -0.000000
vn -1.000000 0.000000 -0.000000
vn -1.000000 0.000000 -0.000000
vn -1.000000 0.000000 -0.000000
vn -0.000000 -1.000000 0.000000
vn -0.000000 -1.000000 0.000000
vn -0.000000 -1.000000 0.000000
vn -0.000000 -1.000000 0.000000
vn 0.000000 1.000000 0.000000
vn 0.000000 1.000000 0.000000
vn 0.000000 1.000000 0.000000
vn 0.000000 1.000000 0.000000
vn 0.000000 0.000000 -1.000000
vn 0.000000 0.000000 -1.000000
vn 0.000000 0.000000 -1.000000
vn 0.000000 0.000000 -1.000000
vn -0.000000 -0.000000 1.000000
vn -0.000000 -0.000000 1.000000
vn -0.000000 -0.000000 1.000000
vn -0.000000 -0.000000 1.000000
vn 1.000000 -0.000000 0.000000
vn 1.000000 -0.000000 0.000000
vn 1.000000 -0.000000 0.000000
vn 1.000000 -0.000000 0.000000
vn -1.000000 0.000000 -0.000000
vn -1.000000 0.000000 -0.000000
vn -1.000000 0.000000 -0.000000
vn -1.000000 0.000000 -0.000000

vt -0.067306 -0.253123
vt -0.081169 -0.280850
vt -0.174190 -0.234340
vt -0.160326 -0.206613
vt 0.174190 -0.234340
vt 0.081169 -0.280850
vt 0.067306 -0.253123
vt 0.160326 -0.206613
vt -0.069521 -0.330114
vt -0.073288 -0.331459
vt -0.083714 -0.302265
vt -0.079947 -0.300920
vt 0.083714 -0.302266
vt 0.073288 -0.331459
vt 0.069521 -0.330114
vt 0.079947 -0.300920
vt 0.176522 -0.063413
vt 0.116073 -0.148042
vt 0.112818 -0.145717
vt 0.173267 -0.061088
vt -0.112818 -0.145717
vt -0.116073 -0.148042
vt -0.176522 -0.063413
vt -0.173267 -0.061088
vt 0.161221 -0.206165
vt 0.175084 -0.233893
vt 0.082064 -0.280403
vt 0.068200 -0.252676
vt -0.082064 -0.280403
vt -0.175084 -0.233893
vt -0.161221 -0.206165
vt -0.068200 -0.252676
vt 0.041268 -0.320024
vt 0.037502 -0.318679
vt 0.047928 -0.289485
vt 0.051695 -0.290830
vt -0.047928 -0.289485
vt -0.037502 -0.318679
vt -0.041268 -0.320024
vt -0.051695 -0.290830
vt 0.085733 -0.125141
vt 0.146181 -0.040512
vt 0.149436 -0.042837
vt 0.088988 -0.127466
vt -0.149436 -0.042837
vt -0.146181 -0.040512
vt -0.085733 -0.125141
vt -0.088988 -0.127466
vt -0.065517 -0.254017
vt -0.079380 -0.281745
vt -0.172401 -0.235234
vt -0.158537 -0.207507
vt 0.172401 -0.235234
vt 0.079380 -0.281745
vt 0.065517 -0.254017
vt 0.158537 -0.207507
vt -0.104365 -0.342559
vt -0.108132 -0.343904
vt -0.118559 -0.314710
vt -0.114792 -0.313365
vt 0.118559 -0.314710
vt 0.108132 -0.343904
vt 0.104365 -0.342559
vt 0.114792 -0.313365
vt 0.205468 -0.086547
vt 0.145019 -0.171175
vt 0.141764 -0.168850
vt 0.202213 -0.084222
vt -0.141764 -0.168850
vt -0.145019 -0.171175
vt -0.205468 -0.086547
vt -0.202213 -0.084222
vt 0.161221 -0.206165
vt 0.175084 -0.233893
vt 0.082064 -0.280403
vt 0.068200 -0.252676
vt -0.082064 -0.280403
vt -0.175084 -0.233893
vt -0.161221 -0.206165
vt -0.068200 -0.252676
vt 0.136384 -0.353994
vt 0.132618 -0.352649
vt 0.143044 -0.323455
vt 0.146811 -0.324800
vt -0.143044 -0.323455
vt -0.132618 -0.352649
vt -0.136384 -0.353994
vt -0.146811 -0.324800
vt 0.167920 -0.183846
vt 0.228369 -0.099218
vt 0.231624 -0.101543
vt 0.171175 -0.186171
vt -0.231624 -0.101543
vt -0.228369 -0.099218
vt -0.167920 -0.183846
vt -0.171175 -0.186171
vt 0.143986 -0.323791
vt 0.133559 -0.352985
vt 0.035618 -0.318006
vt 0.046044 -0.288812
vt -0.035618 -0.318006
vt -0.133559 -0.352985
vt -0.143986 -0.323791
vt -0.046044 -0.288812
vt -0.111580 -0.265645
vt -0.115157 -0.263856
vt -0.101294 -0.236129
vt -0.097716 -0.237918
vt 0.101294 -0.236129
vt 0.115157 -0.263856
vt 0.111580 -0.265645
vt 0.097716 -0.237918
vt 0.105611 -0.093870
vt 0.190239 -0.154319
vt 0.187914 -0.157574
vt 0.103286 -0.097125
vt -0.187914 -0.157574
vt -0.190239 -0.154319
vt -0.105611 -0.093870
vt -0.103286 -0.097125
vt 0.143313 -0.325675
vt 0.132886 -0.354869
vt 0.034945 -0.319889
vt 0.045372 -0.290695
vt -0.034945 -0.319889
vt -0.132886 -0.354869
vt -0.143313 -0.325675
vt -0.045372 -0.290695
vt -0.141096 -0.253123
vt -0.144674 -0.251334
vt -0.130810 -0.223607
vt -0.127232 -0.225396
vt 0.130810 -0.223607
vt 0.144674 -0.251334
vt 0.141096 -0.253123
vt 0.127232 -0.225396
vt 0.124211 -0.067831
vt 0.208839 -0.128280
vt 0.206514 -0.131534
vt 0.121886 -0.071086
vt -0.206514 -0.131534
vt -0.208839 -0.128280
vt -0.124211 -0.067831
vt -0.121886 -0.071086
vt 0.145869 -0.324464
vt 0.135443 -0.353658
vt 0.037501 -0.318679
vt 0.047928 -0.289485
vt -0.037501 -0.318679
vt -0.135443 -0.353658
vt -0.145869 -0.324464
vt -0.047928 -0.289485
vt -0.170612 -0.236129
vt -0.174190 -0.234340
vt -0.160326 -0.206613
vt -0.156748 -0.208402
vt 0.160326 -0.206613
vt 0.174190 -0.234340
vt 0.170612 -0.236129
vt 0.156748 -0.208402
vt 0.145600 -0.041326
vt 0.230228 -0.101775
vt 0.227904 -0.105030
vt 0.143275 -0.044581
vt -0.227904 -0.105030
vt -0.230228 -0.101775
vt -0.145600 -0.041326
vt -0.143275 -0.044581
s off
f 1/1/1 2/2/2 3/3/3
f 1/1/1 3/3/3 4/4/4
f 5/5/5 6/6/6 7/7/7
f 5/5/5 7/7/7 8/8/8
f 9/9/9 10/10/10 11/11/11
f 9/9/9 11/11/11 12/12/12
f 13/13/13 14/14/14 15/15/15
f 13/13/13 15/15/15 16/16/16
f 17/17/17 18/18/18 19/19/19
f 17/17/17 19/19/19 20/20/20
f 21/21/21 22/22/22 23/23/23
f 21/21/21 23/23/23 24/24/24
f 25/25/25 26/26/26 27/27/27
f 25/25/25 27/27/27 28/28/28
f 29/29/29 30/30/30 31/31/31
f 29/29/29 31/31/31 32/32/32
f 33/33/33 34/34/34 35/35/35
f 33/33/33 35/35/35 36/36/36
f 37/37/37 38/38/38 39/39/39
f 37/37/37 39/39/39 40/40/40
f 41/41/41 42/42/42 43/43/43
f 41/41/41 43/43/43 44/44/44
f 45/45/45 46/46/46 47/47/47
f 45/45/45 47/47/47 48/48/48
f 49/49/49 50/50/50 51/51/51
f 49/49/49 51/51/51 52/52/52
f 53/53/53 54/54/54 55/55/55
f 53/53/53 55/55/55 56/56/56
f 57/57/57 58/58/58 59/59/59
f 57/57/57 59/59/59 60/60/60
f 61/61/61 62/62/62 63/63/63
f 61/61/61 63/63/63 64/64/64
f 65/65/65 66/66/66 67/67/67
f 65/65/65 67/67/67 68/68/68
f 69/69/69 70/70/70 71/71/71
f 69/69/69 71/71/71 72/72/72
f 73/73/73 74/74/74 75/75/75
f 73/73/73 75/75/75 76/76/76
f 77/77/77 78/78/78 79/79/79
f 77/77/77 79/79/79 80/80/80
f 81/81/81 82/82/82 83/83/83
f 81/81/81 83/83/83 84/84/84
f 85/85/85 86/86/86 87/87/87
f 85/85/85 87/87/87 88/88/88
f 89/89/89 90/90/90 91/91/91
f 89/89/89 91/91/91 92/92/92
f 93/93/93 94/94/94 95/95/95
f 93/93/93 95/95/95 96/96/96
f 97/97/97 98/98/98 99/99/99
f 97/97/97 99/99/99 100/100/100
f 101/101/101 102/102/102 103/103/103
f 101/101/101 103/103/103 104/104/104
f 105/105/105 106/106/106 107/107/107
f 105/105/105 107/107/107 108/108/108
f 109/109/109 110/110/110 111/111/111
f 109/109/109 111/111/111 112/112/112
f 113/113/113 114/114/114 115/115/115
f 113/113/113 115/115/115 116/116/116
f 117/117/117 118/118/118 119/119/119
f 117/117/117 119/119/119 120/120/120
f 121/121/121 122/122/122 123/123/123
f 121/121/121 123/123/123 124/124/124
f 125/125/125 126/126/126 127/127/127
f 125/125/125 127/127/127 128/128/128
f 129/129/129 130/130/130 131/131/131
f 129/129/129 131/131/131 132/132/132
f 133/133/133 134/134/134 135/135/135
f 133/133/133 135/135/135 136/136/136
f 137/137/137 138/138/138 139/139/139
f 137/137/137 139/139/139 140/140/140
f 141/141/141 142/142/142 143/143/143
f 141/141/141 143/143/143 144/144/144
f 145/145/145 146/146/146 147/147/147
f 145/145/145 147/147/147 148/148/148
f 149/149/149 150/150/150 151/151/151
f 149/149/149 151/151/151 152/152/152
f 153/153/153 154/154/154 155/155/155
f 153/153/153 155/155/155 156/156/156
f 157/157/157 158/158/158 159/159/159
f 157/157/157 159/159/159 160/160/160
f 161/161/161 162/162/162 163/163/163
f 161/161/161 163/163/163 164/164/164
f 165/165/165 166/166/166 167/167/167
f 165/165/165 167/167/167 168/168/168
