# Exported using automatic converter by Erwin Coumans
mtllib model6.mtl
#object mesh708064211

v 3.258238 -1.014511 2.349852
v 3.258238 -0.354511 2.349852
v -0.311762 -0.354511 2.349852
v -0.311762 -1.014511 2.349852
v -0.311762 -0.354511 2.329852
v 3.258238 -0.354511 2.329852
v 3.258238 -1.014511 2.329852
v -0.311762 -1.014511 2.329852
v -0.311762 -0.354511 2.349852
v -0.311762 -0.354511 2.329852
v -0.311762 -1.014511 2.329852
v -0.311762 -1.014511 2.349852
v 3.258238 -1.014511 2.329852
v 3.258238 -0.354511 2.329852
v 3.258238 -0.354511 2.349852
v 3.258238 -1.014511 2.349852
v -0.311762 -1.014511 2.329852
v 3.258238 -1.014511 2.329852
v 3.258238 -1.014511 2.349852
v -0.311762 -1.014511 2.349852
v 3.258238 -0.354511 2.349852
v 3.258238 -0.354511 2.329852
v -0.311762 -0.354511 2.329852
v -0.311762 -0.354511 2.349852
usemtl mat22

vn 0.000000 0.000000 1.000000
vn 0.000000 0.000000 1.000000
vn 0.000000 0.000000 1.000000
vn 0.000000 0.000000 1.000000
vn 0.000000 0.000000 -1.000000
vn 0.000000 0.000000 -1.000000
vn 0.000000 0.000000 -1.000000
vn 0.000000 0.000000 -1.000000
vn -1.000000 0.000000 0.000000
vn -1.000000 0.000000 0.000000
vn -1.000000 0.000000 0.000000
vn -1.000000 0.000000 0.000000
vn 1.000000 0.000000 0.000000
vn 1.000000 0.000000 0.000000
vn 1.000000 0.000000 0.000000
vn 1.000000 0.000000 0.000000
vn 0.000000 -1.000000 0.000000
vn 0.000000 -1.000000 0.000000
vn 0.000000 -1.000000 0.000000
vn 0.000000 -1.000000 0.000000
vn 0.000000 1.000000 0.000000
vn 0.000000 1.000000 0.000000
vn 0.000000 1.000000 0.000000
vn 0.000000 1.000000 0.000000

vt -0.179333 0.240154
vt -0.120300 0.269670
vt 0.039355 -0.049641
vt -0.019677 -0.079157
vt -0.039355 -0.049641
vt 0.120300 0.269670
vt 0.179333 0.240154
vt 0.019677 -0.079157
vt -0.271206 -0.177743
vt -0.269578 -0.176580
vt -0.231217 -0.230287
vt -0.232844 -0.231449
vt 0.231217 -0.230287
vt 0.269578 -0.176580
vt 0.271206 -0.177743
vt 0.232844 -0.231449
vt 0.282388 -0.166688
vt 0.402460 0.169513
vt 0.404344 0.168841
vt 0.284272 -0.167361
vt -0.404344 0.168841
vt -0.402460 0.169513
vt -0.282388 -0.166688
vt -0.284272 -0.167361
s off
f 1/1/1 2/2/2 3/3/3
f 1/1/1 3/3/3 4/4/4
f 5/5/5 6/6/6 7/7/7
f 5/5/5 7/7/7 8/8/8
f 9/9/9 10/10/10 11/11/11
f 9/9/9 11/11/11 12/12/12
f 13/13/13 14/14/14 15/15/15
f 13/13/13 15/15/15 16/16/16
f 17/17/17 18/18/18 19/19/19
f 17/17/17 19/19/19 20/20/20
f 21/21/21 22/22/22 23/23/23
f 21/21/21 23/23/23 24/24/24
