# Exported using automatic converter by Erwin Coumans
mtllib botlab.mtl
#object mesh508676549

v -2.391762 -0.474511 -3.530148
v -2.391762 -0.454511 -3.530148
v -1.761762 -0.454511 -3.530148
v -1.761762 -0.474511 -3.530148
v -1.761762 -0.454511 -3.510148
v -2.391762 -0.454511 -3.510148
v -2.391762 -0.474511 -3.510148
v -1.761762 -0.474511 -3.510148
v -1.761762 -0.454511 -3.530148
v -1.761762 -0.454511 -3.510148
v -1.761762 -0.474511 -3.510148
v -1.761762 -0.474511 -3.530148
v -2.391762 -0.474511 -3.510148
v -2.391762 -0.454511 -3.510148
v -2.391762 -0.454511 -3.530148
v -2.391762 -0.474511 -3.530148
v -1.761762 -0.474511 -3.510148
v -2.391762 -0.474511 -3.510148
v -2.391762 -0.474511 -3.530148
v -1.761762 -0.474511 -3.530148
v -2.391762 -0.454511 -3.530148
v -2.391762 -0.454511 -3.510148
v -1.761762 -0.454511 -3.510148
v -1.761762 -0.454511 -3.530148
usemtl mat23

vn 0.000000 0.000000 -1.000000
vn 0.000000 0.000000 -1.000000
vn 0.000000 0.000000 -1.000000
vn 0.000000 0.000000 -1.000000
vn 0.000000 0.000000 1.000000
vn 0.000000 0.000000 1.000000
vn 0.000000 0.000000 1.000000
vn 0.000000 0.000000 1.000000
vn 1.000000 0.000000 0.000000
vn 1.000000 0.000000 0.000000
vn 1.000000 0.000000 0.000000
vn 1.000000 0.000000 0.000000
vn -1.000000 0.000000 0.000000
vn -1.000000 0.000000 0.000000
vn -1.000000 0.000000 0.000000
vn -1.000000 0.000000 0.000000
vn 0.000000 -1.000000 0.000000
vn 0.000000 -1.000000 0.000000
vn 0.000000 -1.000000 0.000000
vn 0.000000 -1.000000 0.000000
vn 0.000000 1.000000 0.000000
vn 0.000000 1.000000 0.000000
vn 0.000000 1.000000 0.000000
vn 0.000000 1.000000 0.000000

vt -0.121642 -0.241048
vt -0.123431 -0.240154
vt -0.095256 -0.183805
vt -0.093468 -0.184699
vt 0.095256 -0.183805
vt 0.123431 -0.240154
vt 0.121642 -0.241048
vt 0.093468 -0.184699
vt -0.213082 0.155888
vt -0.211454 0.154726
vt -0.212617 0.153098
vt -0.214244 0.154261
vt 0.212617 0.153098
vt 0.211454 0.154726
vt 0.213082 0.155888
vt 0.214244 0.154261
vt -0.316358 -0.106820
vt -0.337547 -0.166150
vt -0.339431 -0.165477
vt -0.318242 -0.106148
vt 0.339431 -0.165477
vt 0.337547 -0.166150
vt 0.316358 -0.106820
vt 0.318242 -0.106148
s off
f 1/1/1 2/2/2 3/3/3
f 1/1/1 3/3/3 4/4/4
f 5/5/5 6/6/6 7/7/7
f 5/5/5 7/7/7 8/8/8
f 9/9/9 10/10/10 11/11/11
f 9/9/9 11/11/11 12/12/12
f 13/13/13 14/14/14 15/15/15
f 13/13/13 15/15/15 16/16/16
f 17/17/17 18/18/18 19/19/19
f 17/17/17 19/19/19 20/20/20
f 21/21/21 22/22/22 23/23/23
f 21/21/21 23/23/23 24/24/24
