# Exported using automatic converter by Erwin Coumans
mtllib botlab.mtl
#object mesh900278823

v -2.131762 0.645489 -3.390148
v -2.111762 0.645489 -3.390148
v -2.111762 -0.914511 -3.390148
v -2.131762 -0.914511 -3.390148
v -2.111762 -0.914511 -3.370148
v -2.111762 0.645489 -3.370148
v -2.131762 0.645489 -3.370148
v -2.131762 -0.914511 -3.370148
v -2.111762 -0.914511 -3.390148
v -2.111762 -0.914511 -3.370148
v -2.131762 -0.914511 -3.370148
v -2.131762 -0.914511 -3.390148
v -2.131762 0.645489 -3.370148
v -2.111762 0.645489 -3.370148
v -2.111762 0.645489 -3.390148
v -2.131762 0.645489 -3.390148
v -2.131762 -0.914511 -3.370148
v -2.131762 0.645489 -3.370148
v -2.131762 0.645489 -3.390148
v -2.131762 -0.914511 -3.390148
v -2.111762 0.645489 -3.390148
v -2.111762 0.645489 -3.370148
v -2.111762 -0.914511 -3.370148
v -2.111762 -0.914511 -3.390148
usemtl mat22

vn -0.000000 0.000000 -1.000000
vn -0.000000 0.000000 -1.000000
vn -0.000000 0.000000 -1.000000
vn -0.000000 0.000000 -1.000000
vn 0.000000 0.000000 1.000000
vn 0.000000 0.000000 1.000000
vn 0.000000 0.000000 1.000000
vn 0.000000 0.000000 1.000000
vn -0.000000 -1.000000 0.000000
vn -0.000000 -1.000000 0.000000
vn -0.000000 -1.000000 0.000000
vn -0.000000 -1.000000 0.000000
vn 0.000000 1.000000 0.000000
vn 0.000000 1.000000 0.000000
vn 0.000000 1.000000 0.000000
vn 0.000000 1.000000 0.000000
vn -1.000000 0.000000 0.000000
vn -1.000000 0.000000 0.000000
vn -1.000000 0.000000 0.000000
vn -1.000000 0.000000 0.000000
vn 1.000000 -0.000000 -0.000000
vn 1.000000 -0.000000 -0.000000
vn 1.000000 -0.000000 -0.000000
vn 1.000000 -0.000000 -0.000000

vt -0.210190 -0.167705
vt -0.209296 -0.165916
vt -0.069765 -0.235682
vt -0.070660 -0.237470
vt 0.069765 -0.235682
vt 0.209296 -0.165916
vt 0.210190 -0.167705
vt 0.070660 -0.237470
vt -0.316829 -0.143817
vt -0.314945 -0.144490
vt -0.315618 -0.146374
vt -0.317501 -0.145701
vt 0.315618 -0.146374
vt 0.314945 -0.144490
vt 0.316829 -0.143817
vt 0.317501 -0.145701
vt 0.226799 0.109156
vt 0.136126 0.236099
vt 0.137754 0.237261
vt 0.228427 0.110319
vt -0.137754 0.237261
vt -0.136126 0.236099
vt -0.226799 0.109156
vt -0.228427 0.110319
s off
f 1/1/1 2/2/2 3/3/3
f 1/1/1 3/3/3 4/4/4
f 5/5/5 6/6/6 7/7/7
f 5/5/5 7/7/7 8/8/8
f 9/9/9 10/10/10 11/11/11
f 9/9/9 11/11/11 12/12/12
f 13/13/13 14/14/14 15/15/15
f 13/13/13 15/15/15 16/16/16
f 17/17/17 18/18/18 19/19/19
f 17/17/17 19/19/19 20/20/20
f 21/21/21 22/22/22 23/23/23
f 21/21/21 23/23/23 24/24/24
