# Exported using automatic converter by Erwin Coumans
mtllib model6.mtl
#object group1148105982_2

v 2.548355 0.375627 0.361553
v 2.546011 0.375627 0.370303
v 2.546011 0.340627 0.370303
v 2.548355 0.340627 0.361553
v 2.546011 0.375627 0.370303
v 2.539605 0.375627 0.376708
v 2.539605 0.340627 0.376708
v 2.546011 0.340627 0.370303
v 2.539605 0.375627 0.376708
v 2.530855 0.375627 0.379053
v 2.530855 0.340627 0.379053
v 2.539605 0.340627 0.376708
v 2.530855 0.375627 0.379053
v 2.522105 0.375627 0.376708
v 2.522105 0.340627 0.376708
v 2.530855 0.340627 0.379053
v 2.522105 0.375627 0.376708
v 2.515700 0.375627 0.370303
v 2.515700 0.340627 0.370303
v 2.522105 0.340627 0.376708
v 2.515700 0.375627 0.370303
v 2.513355 0.375627 0.361553
v 2.513355 0.340627 0.361553
v 2.515700 0.340627 0.370303
v 2.513355 0.375627 0.361553
v 2.515700 0.375627 0.352803
v 2.515700 0.340627 0.352803
v 2.513355 0.340627 0.361553
v 2.515700 0.375627 0.352803
v 2.522105 0.375627 0.346397
v 2.522105 0.340627 0.346397
v 2.515700 0.340627 0.352803
v 2.522105 0.375627 0.346397
v 2.530855 0.375627 0.344053
v 2.530855 0.340627 0.344053
v 2.522105 0.340627 0.346397
v 2.530855 0.375627 0.344053
v 2.539605 0.375627 0.346397
v 2.539605 0.340627 0.346397
v 2.530855 0.340627 0.344053
v 2.539605 0.375627 0.346397
v 2.546011 0.375627 0.352803
v 2.546011 0.340627 0.352803
v 2.539605 0.340627 0.346397
v 2.546011 0.375627 0.352803
v 2.548355 0.375627 0.361553
v 2.548355 0.340627 0.361553
v 2.546011 0.340627 0.352803
v 2.548355 0.340627 0.361553
v 2.546011 0.340627 0.370303
v 2.539605 0.340627 0.376708
v 2.530855 0.340627 0.379053
v 2.522105 0.340627 0.376708
v 2.515700 0.340627 0.370303
v 2.513355 0.340627 0.361553
v 2.515700 0.340627 0.352803
v 2.522105 0.340627 0.346397
v 2.530855 0.340627 0.344053
v 2.539605 0.340627 0.346397
v 2.546011 0.340627 0.352803
v 2.546011 0.375627 0.352803
v 2.539605 0.375627 0.346397
v 2.530855 0.375627 0.344053
v 2.522105 0.375627 0.346397
v 2.515700 0.375627 0.352803
v 2.513355 0.375627 0.361553
v 2.515700 0.375627 0.370303
v 2.522105 0.375627 0.376708
v 2.530855 0.375627 0.379053
v 2.539605 0.375627 0.376708
v 2.546011 0.375627 0.370303
v 2.548355 0.375627 0.361553
usemtl mat19

vn 1.000000 -0.000000 0.000000
vn 1.000000 -0.000000 0.000000
vn 1.000000 -0.000000 0.000000
vn 1.000000 -0.000000 0.000000
vn 0.866025 0.000000 0.500000
vn 0.866025 0.000000 0.500000
vn 0.866025 0.000000 0.500000
vn 0.866025 0.000000 0.500000
vn 0.500000 0.000000 0.866026
vn 0.500000 0.000000 0.866026
vn 0.500000 0.000000 0.866026
vn 0.500000 0.000000 0.866026
vn -0.000001 0.000000 1.000000
vn -0.000001 0.000000 1.000000
vn -0.000001 0.000000 1.000000
vn -0.000001 0.000000 1.000000
vn -0.500000 0.000000 0.866025
vn -0.500000 0.000000 0.866025
vn -0.500000 0.000000 0.866025
vn -0.500000 0.000000 0.866025
vn -0.866026 0.000000 0.500000
vn -0.866026 0.000000 0.500000
vn -0.866026 0.000000 0.500000
vn -0.866026 0.000000 0.500000
vn -1.000000 0.000000 -0.000000
vn -1.000000 0.000000 -0.000000
vn -1.000000 0.000000 -0.000000
vn -1.000000 0.000000 -0.000000
vn -0.866025 -0.000000 -0.500000
vn -0.866025 -0.000000 -0.500000
vn -0.866025 -0.000000 -0.500000
vn -0.866025 -0.000000 -0.500000
vn -0.500000 -0.000000 -0.866026
vn -0.500000 -0.000000 -0.866026
vn -0.500000 -0.000000 -0.866026
vn -0.500000 -0.000000 -0.866026
vn 0.000000 -0.000000 -1.000000
vn 0.000000 -0.000000 -1.000000
vn 0.000000 -0.000000 -1.000000
vn 0.000000 -0.000000 -1.000000
vn 0.500000 -0.000000 -0.866025
vn 0.500000 -0.000000 -0.866025
vn 0.500000 -0.000000 -0.866025
vn 0.500000 -0.000000 -0.866025
vn 0.866026 -0.000000 -0.500000
vn 0.866026 -0.000000 -0.500000
vn 0.866026 -0.000000 -0.500000
vn 0.866026 -0.000000 -0.500000
vn -0.000000 -1.000000 0.000000
vn -0.000000 -1.000000 0.000000
vn -0.000000 -1.000000 0.000000
vn -0.000000 -1.000000 0.000000
vn -0.000000 -1.000000 0.000000
vn -0.000000 -1.000000 0.000000
vn -0.000000 -1.000000 0.000000
vn -0.000000 -1.000000 0.000000
vn -0.000000 -1.000000 0.000000
vn -0.000000 -1.000000 0.000000
vn -0.000000 -1.000000 0.000000
vn -0.000000 -1.000000 0.000000
vn 0.000000 1.000000 -0.000000
vn 0.000000 1.000000 -0.000000
vn 0.000000 1.000000 -0.000000
vn 0.000000 1.000000 -0.000000
vn 0.000000 1.000000 -0.000000
vn 0.000000 1.000000 -0.000000
vn 0.000000 1.000000 -0.000000
vn 0.000000 1.000000 -0.000000
vn 0.000000 1.000000 -0.000000
vn 0.000000 1.000000 -0.000000
vn 0.000000 1.000000 -0.000000
vn 0.000000 1.000000 -0.000000

vt 0.151850 -0.002761
vt 0.152562 -0.003270
vt 0.150527 -0.006118
vt 0.149815 -0.005609
vt 0.071740 0.047532
vt 0.072199 0.046787
vt 0.069222 0.044948
vt 0.068762 0.045692
vt 0.021501 0.154305
vt 0.021879 0.153515
vt 0.018722 0.152004
vt 0.018344 0.152794
vt -0.022465 0.237264
vt -0.022074 0.236481
vt -0.025205 0.234916
vt -0.025596 0.235698
vt -0.080470 0.256872
vt -0.079956 0.256164
vt -0.082786 0.254106
vt -0.083301 0.254813
vt -0.174466 0.158601
vt -0.173648 0.158289
vt -0.174895 0.155019
vt -0.175713 0.155330
vt -0.151850 -0.002761
vt -0.151138 -0.002253
vt -0.149103 -0.005101
vt -0.149815 -0.005609
vt -0.071739 0.047532
vt -0.071280 0.048276
vt -0.068302 0.046437
vt -0.068762 0.045692
vt -0.021501 0.154305
vt -0.021123 0.155094
vt -0.017966 0.153583
vt -0.018344 0.152794
vt 0.022465 0.237264
vt 0.022857 0.238046
vt 0.025987 0.236481
vt 0.025596 0.235698
vt 0.080470 0.256872
vt 0.080985 0.257580
vt 0.083816 0.255521
vt 0.083301 0.254813
vt 0.174466 0.158601
vt 0.175283 0.158912
vt 0.176530 0.155642
vt 0.175713 0.155330
vt 0.193221 0.168862
vt 0.193966 0.168347
vt 0.194354 0.167528
vt 0.194281 0.166625
vt 0.193766 0.165880
vt 0.192947 0.165492
vt 0.192044 0.165566
vt 0.191299 0.166081
vt 0.190911 0.166900
vt 0.190985 0.167802
vt 0.191500 0.168548
vt 0.192318 0.168935
vt -0.192318 0.168935
vt -0.191500 0.168548
vt -0.190985 0.167803
vt -0.190911 0.166900
vt -0.191299 0.166081
vt -0.192044 0.165566
vt -0.192947 0.165492
vt -0.193766 0.165880
vt -0.194281 0.166625
vt -0.194354 0.167528
vt -0.193966 0.168347
vt -0.193221 0.168862
s off
f 1/1/1 2/2/2 3/3/3
f 1/1/1 3/3/3 4/4/4
f 5/5/5 6/6/6 7/7/7
f 5/5/5 7/7/7 8/8/8
f 9/9/9 10/10/10 11/11/11
f 9/9/9 11/11/11 12/12/12
f 13/13/13 14/14/14 15/15/15
f 13/13/13 15/15/15 16/16/16
f 17/17/17 18/18/18 19/19/19
f 17/17/17 19/19/19 20/20/20
f 21/21/21 22/22/22 23/23/23
f 21/21/21 23/23/23 24/24/24
f 25/25/25 26/26/26 27/27/27
f 25/25/25 27/27/27 28/28/28
f 29/29/29 30/30/30 31/31/31
f 29/29/29 31/31/31 32/32/32
f 33/33/33 34/34/34 35/35/35
f 33/33/33 35/35/35 36/36/36
f 37/37/37 38/38/38 39/39/39
f 37/37/37 39/39/39 40/40/40
f 41/41/41 42/42/42 43/43/43
f 41/41/41 43/43/43 44/44/44
f 45/45/45 46/46/46 47/47/47
f 45/45/45 47/47/47 48/48/48
f 49/49/49 50/50/50 51/51/51
f 49/49/49 51/51/51 52/52/52
f 49/49/49 52/52/52 53/53/53
f 49/49/49 53/53/53 54/54/54
f 49/49/49 54/54/54 55/55/55
f 49/49/49 55/55/55 56/56/56
f 49/49/49 56/56/56 57/57/57
f 49/49/49 57/57/57 58/58/58
f 49/49/49 58/58/58 59/59/59
f 49/49/49 59/59/59 60/60/60
f 61/61/61 62/62/62 63/63/63
f 61/61/61 63/63/63 64/64/64
f 61/61/61 64/64/64 65/65/65
f 61/61/61 65/65/65 66/66/66
f 61/61/61 66/66/66 67/67/67
f 61/61/61 67/67/67 68/68/68
f 61/61/61 68/68/68 69/69/69
f 61/61/61 69/69/69 70/70/70
f 61/61/61 70/70/70 71/71/71
f 61/61/61 71/71/71 72/72/72
