# Exported using automatic converter by Erwin Coumans
mtllib model6.mtl
#object group2061739718_2

v 2.224488 -0.696511 1.629851
v 2.264488 -0.696511 1.629851
v 2.264488 -0.966511 1.629851
v 2.224488 -0.966511 1.629851
v 2.264488 -0.966511 1.659852
v 2.264488 -0.696511 1.659852
v 2.224488 -0.696511 1.659852
v 2.224488 -0.966511 1.659852
v 2.264488 -0.966511 1.629851
v 2.264488 -0.966511 1.659852
v 2.224488 -0.966511 1.659852
v 2.224488 -0.966511 1.629851
v 2.266783 -0.663161 1.623572
v 2.306783 -0.663161 1.623572
v 2.264488 -0.696511 1.629851
v 2.224488 -0.696511 1.629851
v 2.224488 -0.966511 1.659852
v 2.224488 -0.696511 1.659852
v 2.224488 -0.696511 1.629851
v 2.224488 -0.966511 1.629851
v 2.264488 -0.696511 1.629851
v 2.264488 -0.696511 1.659852
v 2.264488 -0.966511 1.659852
v 2.264488 -0.966511 1.629851
v 2.306783 -0.663161 1.623572
v 2.306783 -0.663161 1.653571
v 2.264488 -0.696511 1.659852
v 2.264488 -0.696511 1.629851
v 2.306783 -0.663161 1.653571
v 2.266783 -0.663161 1.653571
v 2.224488 -0.696511 1.659852
v 2.264488 -0.696511 1.659852
v 2.266783 -0.663161 1.653571
v 2.266783 -0.663161 1.623572
v 2.224488 -0.696511 1.629851
v 2.224488 -0.696511 1.659852
v 2.266783 -0.663161 1.653571
v 2.306783 -0.663161 1.653571
v 2.306783 -0.663161 1.623572
v 2.266783 -0.663161 1.623572
usemtl mat15

vn 0.000000 0.000000 -1.000000
vn 0.000000 0.000000 -1.000000
vn 0.000000 0.000000 -1.000000
vn 0.000000 0.000000 -1.000000
vn -0.000000 -0.000000 1.000000
vn -0.000000 -0.000000 1.000000
vn -0.000000 -0.000000 1.000000
vn -0.000000 -0.000000 1.000000
vn 0.000000 -1.000000 -0.000000
vn 0.000000 -1.000000 -0.000000
vn 0.000000 -1.000000 -0.000000
vn 0.000000 -1.000000 -0.000000
vn 0.000000 -0.185057 -0.982728
vn 0.000000 -0.185057 -0.982728
vn 0.000000 -0.185057 -0.982728
vn 0.000000 -0.185057 -0.982728
vn -1.000000 -0.000000 -0.000000
vn -1.000000 -0.000000 -0.000000
vn -1.000000 -0.000000 -0.000000
vn -1.000000 -0.000000 -0.000000
vn 1.000000 0.000000 0.000000
vn 1.000000 0.000000 0.000000
vn 1.000000 0.000000 0.000000
vn 1.000000 0.000000 0.000000
vn 0.619173 -0.785255 0.000000
vn 0.619173 -0.785255 0.000000
vn 0.619173 -0.785255 0.000000
vn 0.619173 -0.785255 0.000000
vn -0.000000 0.185056 0.982728
vn -0.000000 0.185056 0.982728
vn -0.000000 0.185056 0.982728
vn -0.000000 0.185056 0.982728
vn -0.619172 0.785255 -0.000000
vn -0.619172 0.785255 -0.000000
vn -0.619172 0.785255 -0.000000
vn -0.619172 0.785255 -0.000000
vn -0.000000 1.000000 0.000000
vn -0.000000 1.000000 0.000000
vn -0.000000 1.000000 0.000000
vn -0.000000 1.000000 0.000000

vt 0.104659 0.161914
vt 0.106448 0.165491
vt 0.130598 0.153417
vt 0.128809 0.149839
vt -0.130598 0.153417
vt -0.106448 0.165491
vt -0.104659 0.161914
vt -0.128809 0.149839
vt 0.303115 0.099472
vt 0.305940 0.098463
vt 0.304595 0.094696
vt 0.301769 0.095705
vt 0.151330 0.139871
vt 0.153278 0.143365
vt 0.154182 0.138018
vt 0.152235 0.134524
vt -0.179486 -0.187438
vt -0.195180 -0.165467
vt -0.192739 -0.163723
vt -0.177045 -0.185694
vt 0.192739 -0.163723
vt 0.195180 -0.165467
vt 0.179486 -0.187438
vt 0.177045 -0.185694
vt 0.284218 0.060727
vt 0.287070 0.059797
vt 0.285996 0.054481
vt 0.283144 0.055412
vt -0.153762 0.143094
vt -0.151815 0.139601
vt -0.152719 0.134254
vt -0.154667 0.137748
vt -0.286096 0.056811
vt -0.283244 0.057741
vt -0.282170 0.052426
vt -0.285022 0.051495
vt -0.305426 0.098890
vt -0.306771 0.102657
vt -0.303946 0.103666
vt -0.302601 0.099899
s off
f 1/1/1 2/2/2 3/3/3
f 1/1/1 3/3/3 4/4/4
f 5/5/5 6/6/6 7/7/7
f 5/5/5 7/7/7 8/8/8
f 9/9/9 10/10/10 11/11/11
f 9/9/9 11/11/11 12/12/12
f 13/13/13 14/14/14 15/15/15
f 13/13/13 15/15/15 16/16/16
f 17/17/17 18/18/18 19/19/19
f 17/17/17 19/19/19 20/20/20
f 21/21/21 22/22/22 23/23/23
f 21/21/21 23/23/23 24/24/24
f 25/25/25 26/26/26 27/27/27
f 25/25/25 27/27/27 28/28/28
f 29/29/29 30/30/30 31/31/31
f 29/29/29 31/31/31 32/32/32
f 33/33/33 34/34/34 35/35/35
f 33/33/33 35/35/35 36/36/36
f 37/37/37 38/38/38 39/39/39
f 37/37/37 39/39/39 40/40/40
