# Exported using automatic converter by Erwin Coumans
mtllib model6.mtl
#object mesh719426857

v -1.631762 1.355489 1.719852
v -1.636762 1.355489 1.721191
v -1.636762 1.375489 1.721191
v -1.631762 1.375489 1.719852
v -1.636762 1.355489 1.721191
v -1.640422 1.355489 1.724851
v -1.640422 1.375489 1.724851
v -1.636762 1.375489 1.721191
v -1.640422 1.355489 1.724851
v -1.641762 1.355489 1.729852
v -1.641762 1.375489 1.729852
v -1.640422 1.375489 1.724851
v -1.641762 1.355489 1.729852
v -1.640422 1.355489 1.734852
v -1.640422 1.375489 1.734852
v -1.641762 1.375489 1.729852
v -1.640422 1.355489 1.734852
v -1.636762 1.355489 1.738512
v -1.636762 1.375489 1.738512
v -1.640422 1.375489 1.734852
v -1.636762 1.355489 1.738512
v -1.631762 1.355489 1.739852
v -1.631762 1.375489 1.739852
v -1.636762 1.375489 1.738512
v -1.631762 1.355489 1.739852
v -1.626762 1.355489 1.738512
v -1.626762 1.375489 1.738512
v -1.631762 1.375489 1.739852
v -1.626762 1.355489 1.738512
v -1.623102 1.355489 1.734852
v -1.623102 1.375489 1.734852
v -1.626762 1.375489 1.738512
v -1.623102 1.355489 1.734852
v -1.621762 1.355489 1.729852
v -1.621762 1.375489 1.729852
v -1.623102 1.375489 1.734852
v -1.621762 1.355489 1.729852
v -1.623102 1.355489 1.724851
v -1.623102 1.375489 1.724851
v -1.621762 1.375489 1.729852
v -1.623102 1.355489 1.724851
v -1.626762 1.355489 1.721191
v -1.626762 1.375489 1.721191
v -1.623102 1.375489 1.724851
v -1.626762 1.355489 1.721191
v -1.631762 1.355489 1.719852
v -1.631762 1.375489 1.719852
v -1.626762 1.375489 1.721191
v -1.631762 1.375489 1.719852
v -1.636762 1.375489 1.721191
v -1.640422 1.375489 1.724851
v -1.641762 1.375489 1.729852
v -1.640422 1.375489 1.734852
v -1.636762 1.375489 1.738512
v -1.631762 1.375489 1.739852
v -1.626762 1.375489 1.738512
v -1.623102 1.375489 1.734852
v -1.621762 1.375489 1.729852
v -1.623102 1.375489 1.724851
v -1.626762 1.375489 1.721191
v -1.626762 1.355489 1.721191
v -1.623102 1.355489 1.724851
v -1.621762 1.355489 1.729852
v -1.623102 1.355489 1.734852
v -1.626762 1.355489 1.738512
v -1.631762 1.355489 1.739852
v -1.636762 1.355489 1.738512
v -1.640422 1.355489 1.734852
v -1.641762 1.355489 1.729852
v -1.640422 1.355489 1.724851
v -1.636762 1.355489 1.721191
v -1.631762 1.355489 1.719852
usemtl mat21

vn 0.000000 -0.000000 -1.000000
vn 0.000000 -0.000000 -1.000000
vn 0.000000 -0.000000 -1.000000
vn 0.000000 -0.000000 -1.000000
vn -0.500000 -0.000000 -0.866025
vn -0.500000 -0.000000 -0.866025
vn -0.500000 -0.000000 -0.866025
vn -0.500000 -0.000000 -0.866025
vn -0.866025 -0.000000 -0.500000
vn -0.866025 -0.000000 -0.500000
vn -0.866025 -0.000000 -0.500000
vn -0.866025 -0.000000 -0.500000
vn -1.000000 0.000000 -0.000000
vn -1.000000 0.000000 -0.000000
vn -1.000000 0.000000 -0.000000
vn -1.000000 0.000000 -0.000000
vn -0.866025 0.000000 0.500000
vn -0.866025 0.000000 0.500000
vn -0.866025 0.000000 0.500000
vn -0.866025 0.000000 0.500000
vn -0.500000 0.000000 0.866025
vn -0.500000 0.000000 0.866025
vn -0.500000 0.000000 0.866025
vn -0.500000 0.000000 0.866025
vn 0.000000 0.000000 1.000000
vn 0.000000 0.000000 1.000000
vn 0.000000 0.000000 1.000000
vn 0.000000 0.000000 1.000000
vn 0.500000 0.000000 0.866025
vn 0.500000 0.000000 0.866025
vn 0.500000 0.000000 0.866025
vn 0.500000 0.000000 0.866025
vn 0.866025 0.000000 0.500000
vn 0.866025 0.000000 0.500000
vn 0.866025 0.000000 0.500000
vn 0.866025 0.000000 0.500000
vn 1.000000 -0.000000 0.000000
vn 1.000000 -0.000000 0.000000
vn 1.000000 -0.000000 0.000000
vn 1.000000 -0.000000 0.000000
vn 0.866026 -0.000000 -0.500000
vn 0.866026 -0.000000 -0.500000
vn 0.866026 -0.000000 -0.500000
vn 0.866026 -0.000000 -0.500000
vn 0.500000 -0.000000 -0.866026
vn 0.500000 -0.000000 -0.866026
vn 0.500000 -0.000000 -0.866026
vn 0.500000 -0.000000 -0.866026
vn 0.000000 1.000000 -0.000000
vn 0.000000 1.000000 -0.000000
vn 0.000000 1.000000 -0.000000
vn 0.000000 1.000000 -0.000000
vn 0.000000 1.000000 -0.000000
vn 0.000000 1.000000 -0.000000
vn 0.000000 1.000000 -0.000000
vn 0.000000 1.000000 -0.000000
vn 0.000000 1.000000 -0.000000
vn 0.000000 1.000000 -0.000000
vn 0.000000 1.000000 -0.000000
vn 0.000000 1.000000 -0.000000
vn -0.000000 -1.000000 0.000000
vn -0.000000 -1.000000 0.000000
vn -0.000000 -1.000000 0.000000
vn -0.000000 -1.000000 0.000000
vn -0.000000 -1.000000 0.000000
vn -0.000000 -1.000000 0.000000
vn -0.000000 -1.000000 0.000000
vn -0.000000 -1.000000 0.000000
vn -0.000000 -1.000000 0.000000
vn -0.000000 -1.000000 0.000000
vn -0.000000 -1.000000 0.000000
vn -0.000000 -1.000000 0.000000

vt -0.251334 -0.091232
vt -0.251558 -0.091679
vt -0.253347 -0.090784
vt -0.253123 -0.090337
vt -0.295063 -0.190264
vt -0.295278 -0.190715
vt -0.297082 -0.189852
vt -0.296867 -0.189401
vt -0.326776 -0.178840
vt -0.327039 -0.179266
vt -0.328740 -0.178215
vt -0.328477 -0.177789
vt -0.320146 -0.002557
vt -0.320553 -0.002848
vt -0.321715 -0.001221
vt -0.321308 -0.000930
vt -0.055798 0.218211
vt -0.056266 0.218390
vt -0.055553 0.220258
vt -0.055086 0.220080
vt 0.170573 0.078299
vt 0.170278 0.078703
vt 0.171896 0.079879
vt 0.172190 0.079475
vt 0.251334 -0.091232
vt 0.251110 -0.090784
vt 0.252899 -0.089890
vt 0.253123 -0.090337
vt 0.295063 -0.190264
vt 0.294847 -0.189813
vt 0.296651 -0.188950
vt 0.296867 -0.189401
vt 0.326776 -0.178840
vt 0.326513 -0.178415
vt 0.328215 -0.177364
vt 0.328477 -0.177789
vt 0.320146 -0.002557
vt 0.319739 -0.002267
vt 0.320902 -0.000639
vt 0.321308 -0.000930
vt 0.055798 0.218211
vt 0.055331 0.218033
vt 0.054619 0.219902
vt 0.055086 0.220080
vt -0.170573 0.078299
vt -0.170867 0.077894
vt -0.172484 0.079071
vt -0.172190 0.079475
vt -0.180545 -0.270482
vt -0.180503 -0.270998
vt -0.180725 -0.271466
vt -0.181151 -0.271760
vt -0.181667 -0.271802
vt -0.182135 -0.271580
vt -0.182429 -0.271154
vt -0.182471 -0.270638
vt -0.182249 -0.270171
vt -0.181824 -0.269876
vt -0.181308 -0.269834
vt -0.180840 -0.270056
vt 0.180840 -0.270056
vt 0.181308 -0.269834
vt 0.181824 -0.269876
vt 0.182249 -0.270171
vt 0.182471 -0.270638
vt 0.182429 -0.271154
vt 0.182135 -0.271580
vt 0.181667 -0.271802
vt 0.181151 -0.271760
vt 0.180725 -0.271466
vt 0.180503 -0.270998
vt 0.180545 -0.270482
s off
f 1/1/1 2/2/2 3/3/3
f 1/1/1 3/3/3 4/4/4
f 5/5/5 6/6/6 7/7/7
f 5/5/5 7/7/7 8/8/8
f 9/9/9 10/10/10 11/11/11
f 9/9/9 11/11/11 12/12/12
f 13/13/13 14/14/14 15/15/15
f 13/13/13 15/15/15 16/16/16
f 17/17/17 18/18/18 19/19/19
f 17/17/17 19/19/19 20/20/20
f 21/21/21 22/22/22 23/23/23
f 21/21/21 23/23/23 24/24/24
f 25/25/25 26/26/26 27/27/27
f 25/25/25 27/27/27 28/28/28
f 29/29/29 30/30/30 31/31/31
f 29/29/29 31/31/31 32/32/32
f 33/33/33 34/34/34 35/35/35
f 33/33/33 35/35/35 36/36/36
f 37/37/37 38/38/38 39/39/39
f 37/37/37 39/39/39 40/40/40
f 41/41/41 42/42/42 43/43/43
f 41/41/41 43/43/43 44/44/44
f 45/45/45 46/46/46 47/47/47
f 45/45/45 47/47/47 48/48/48
f 49/49/49 50/50/50 51/51/51
f 49/49/49 51/51/51 52/52/52
f 49/49/49 52/52/52 53/53/53
f 49/49/49 53/53/53 54/54/54
f 49/49/49 54/54/54 55/55/55
f 49/49/49 55/55/55 56/56/56
f 49/49/49 56/56/56 57/57/57
f 49/49/49 57/57/57 58/58/58
f 49/49/49 58/58/58 59/59/59
f 49/49/49 59/59/59 60/60/60
f 61/61/61 62/62/62 63/63/63
f 61/61/61 63/63/63 64/64/64
f 61/61/61 64/64/64 65/65/65
f 61/61/61 65/65/65 66/66/66
f 61/61/61 66/66/66 67/67/67
f 61/61/61 67/67/67 68/68/68
f 61/61/61 68/68/68 69/69/69
f 61/61/61 69/69/69 70/70/70
f 61/61/61 70/70/70 71/71/71
f 61/61/61 71/71/71 72/72/72
