# Exported using automatic converter by Erwin Coumans
mtllib botlab.mtl
#object mesh1824097841

v 1.550668 0.484003 -3.058226
v 1.622201 0.482618 -3.025518
v 1.501679 0.477726 -2.762139
v 1.430146 0.479111 -2.794847
v 1.502308 0.547705 -2.760551
v 1.622830 0.552597 -3.023930
v 1.551297 0.553982 -3.056638
v 1.430775 0.549090 -2.793259
v 1.501679 0.477726 -2.762139
v 1.502308 0.547705 -2.760551
v 1.430775 0.549090 -2.793259
v 1.430146 0.479111 -2.794847
v 1.551297 0.553982 -3.056638
v 1.622830 0.552597 -3.023930
v 1.622201 0.482618 -3.025518
v 1.550668 0.484003 -3.058226
v 1.430775 0.549090 -2.793259
v 1.551297 0.553982 -3.056638
v 1.550668 0.484003 -3.058226
v 1.430146 0.479111 -2.794847
v 1.622201 0.482618 -3.025518
v 1.622830 0.552597 -3.023930
v 1.502308 0.547705 -2.760551
v 1.501679 0.477726 -2.762139
usemtl mat15

vn -0.008992 -0.999702 -0.022684
vn -0.008992 -0.999702 -0.022684
vn -0.008992 -0.999702 -0.022684
vn -0.008992 -0.999702 -0.022684
vn 0.008992 0.999702 0.022684
vn 0.008992 0.999702 0.022684
vn 0.008992 0.999702 0.022684
vn 0.008992 0.999702 0.022684
vn -0.416045 -0.016888 0.909187
vn -0.416045 -0.016888 0.909187
vn -0.416045 -0.016888 0.909187
vn -0.416045 -0.016888 0.909187
vn 0.416045 0.016888 -0.909187
vn 0.416045 0.016888 -0.909187
vn 0.416045 0.016888 -0.909187
vn 0.416045 0.016888 -0.909187
vn -0.909300 0.017613 -0.415769
vn -0.909300 0.017613 -0.415769
vn -0.909300 0.017613 -0.415769
vn -0.909300 0.017613 -0.415769
vn 0.909300 -0.017613 0.415769
vn 0.909300 -0.017613 0.415769
vn 0.909300 -0.017613 0.415769
vn 0.909300 -0.017613 0.415769

vt -0.162511 0.191727
vt -0.156959 0.197300
vt -0.136437 0.176854
vt -0.141989 0.171281
vt 0.136437 0.176854
vt 0.156959 0.197300
vt 0.162511 0.191727
vt 0.141989 0.171281
vt 0.061358 0.075689
vt 0.067184 0.079569
vt 0.071544 0.073021
vt 0.065718 0.069141
vt -0.071544 0.073021
vt -0.067184 0.079569
vt -0.061358 0.075689
vt -0.065718 0.069141
vt 0.039913 0.239715
vt 0.056010 0.263799
vt 0.061830 0.259910
vt 0.045732 0.235825
vt -0.061830 0.259909
vt -0.056010 0.263799
vt -0.039913 0.239715
vt -0.045732 0.235825
s off
f 1/1/1 2/2/2 3/3/3
f 1/1/1 3/3/3 4/4/4
f 5/5/5 6/6/6 7/7/7
f 5/5/5 7/7/7 8/8/8
f 9/9/9 10/10/10 11/11/11
f 9/9/9 11/11/11 12/12/12
f 13/13/13 14/14/14 15/15/15
f 13/13/13 15/15/15 16/16/16
f 17/17/17 18/18/18 19/19/19
f 17/17/17 19/19/19 20/20/20
f 21/21/21 22/22/22 23/23/23
f 21/21/21 23/23/23 24/24/24
