# Exported using automatic converter by Erwin Coumans
mtllib botlab.mtl
#object mesh532052509

v 0.959046 -0.599807 2.687406
v 0.950103 -0.593841 2.670541
v 0.978828 -0.582102 2.659460
v 0.987772 -0.588068 2.676325
v 0.973562 -0.558792 2.670499
v 0.944835 -0.570530 2.681580
v 0.953779 -0.576496 2.698445
v 0.982505 -0.564758 2.687364
v 0.978828 -0.582102 2.659460
v 0.973562 -0.558792 2.670499
v 0.982505 -0.564758 2.687364
v 0.987772 -0.588068 2.676325
v 0.953779 -0.576496 2.698445
v 0.944835 -0.570530 2.681580
v 0.950103 -0.593841 2.670541
v 0.959046 -0.599807 2.687406
v 0.982505 -0.564758 2.687364
v 0.953779 -0.576496 2.698445
v 0.959046 -0.599807 2.687406
v 0.987772 -0.588068 2.676325
v 0.950103 -0.593841 2.670541
v 0.944835 -0.570530 2.681580
v 0.973562 -0.558792 2.670499
v 0.978828 -0.582102 2.659460
usemtl mat6

vn 0.200079 -0.885503 -0.419348
vn 0.200079 -0.885503 -0.419348
vn 0.200079 -0.885503 -0.419348
vn 0.200079 -0.885503 -0.419348
vn -0.200079 0.885503 0.419348
vn -0.200079 0.885503 0.419348
vn -0.200079 0.885503 0.419348
vn -0.200079 0.885503 0.419348
vn 0.871788 0.356233 -0.336280
vn 0.871788 0.356233 -0.336280
vn 0.871788 0.356233 -0.336280
vn 0.871788 0.356233 -0.336280
vn -0.871788 -0.356233 0.336280
vn -0.871788 -0.356233 0.336280
vn -0.871788 -0.356233 0.336280
vn -0.871788 -0.356233 0.336280
vn 0.447162 -0.298300 0.843245
vn 0.447162 -0.298300 0.843245
vn 0.447162 -0.298300 0.843245
vn 0.447162 -0.298300 0.843245
vn -0.447162 0.298300 -0.843245
vn -0.447162 0.298300 -0.843245
vn -0.447162 0.298300 -0.843245
vn -0.447162 0.298300 -0.843245

vt 0.334033 -0.068575
vt 0.332033 -0.068570
vt 0.332042 -0.065275
vt 0.334042 -0.065280
vt -0.332042 -0.065275
vt -0.332033 -0.068570
vt -0.334033 -0.068575
vt -0.334042 -0.065280
vt 0.336318 0.115475
vt 0.336407 0.118106
vt 0.338406 0.118038
vt 0.338317 0.115407
vt -0.338406 0.118038
vt -0.336407 0.118106
vt -0.336318 0.115475
vt -0.338317 0.115407
vt 0.134116 -0.053935
vt 0.134377 -0.057219
vt 0.131753 -0.057428
vt 0.131492 -0.054143
vt -0.131753 -0.057428
vt -0.134377 -0.057219
vt -0.134116 -0.053935
vt -0.131492 -0.054143
s off
f 1/1/1 2/2/2 3/3/3
f 1/1/1 3/3/3 4/4/4
f 5/5/5 6/6/6 7/7/7
f 5/5/5 7/7/7 8/8/8
f 9/9/9 10/10/10 11/11/11
f 9/9/9 11/11/11 12/12/12
f 13/13/13 14/14/14 15/15/15
f 13/13/13 15/15/15 16/16/16
f 17/17/17 18/18/18 19/19/19
f 17/17/17 19/19/19 20/20/20
f 21/21/21 22/22/22 23/23/23
f 21/21/21 23/23/23 24/24/24
