# Exported using automatic converter by Erwin Coumans
mtllib model6.mtl
#object mesh2036217993

v -0.021762 -0.984511 1.809852
v -0.021762 -0.984511 1.519852
v -0.021762 -1.044511 1.519852
v -0.021762 -1.044511 1.809852
v 0.558238 -1.044511 1.519852
v 0.558238 -0.984511 1.519852
v 0.558238 -0.984511 1.809852
v 0.558238 -1.044511 1.809852
v -0.021762 -1.044511 1.519852
v 0.558238 -1.044511 1.519852
v 0.558238 -1.044511 1.809852
v -0.021762 -1.044511 1.809852
v 0.558238 -0.984511 1.809852
v 0.558238 -0.984511 1.519852
v -0.021762 -0.984511 1.519852
v -0.021762 -0.984511 1.809852
v 0.558238 -1.044511 1.809852
v 0.558238 -0.984511 1.809852
v -0.021762 -0.984511 1.809852
v -0.021762 -1.044511 1.809852
v -0.021762 -0.984511 1.519852
v 0.558238 -0.984511 1.519852
v 0.558238 -1.044511 1.519852
v -0.021762 -1.044511 1.519852
usemtl mat8

vn -1.000000 0.000000 -0.000000
vn -1.000000 0.000000 -0.000000
vn -1.000000 0.000000 -0.000000
vn -1.000000 0.000000 -0.000000
vn 1.000000 0.000000 0.000000
vn 1.000000 0.000000 0.000000
vn 1.000000 0.000000 0.000000
vn 1.000000 0.000000 0.000000
vn 0.000000 -1.000000 0.000000
vn 0.000000 -1.000000 0.000000
vn 0.000000 -1.000000 0.000000
vn 0.000000 -1.000000 0.000000
vn 0.000000 1.000000 0.000000
vn 0.000000 1.000000 0.000000
vn 0.000000 1.000000 0.000000
vn 0.000000 1.000000 0.000000
vn -0.000000 0.000000 1.000000
vn -0.000000 0.000000 1.000000
vn -0.000000 0.000000 1.000000
vn -0.000000 0.000000 1.000000
vn 0.000000 0.000000 -1.000000
vn 0.000000 0.000000 -1.000000
vn 0.000000 0.000000 -1.000000
vn 0.000000 0.000000 -1.000000

vt -0.190646 -0.197621
vt -0.167048 -0.180765
vt -0.163560 -0.185648
vt -0.187159 -0.202503
vt 0.163560 -0.185648
vt 0.167048 -0.180765
vt 0.190646 -0.197621
vt 0.187159 -0.202503
vt 0.215861 -0.112135
vt 0.235368 -0.057514
vt 0.262679 -0.067267
vt 0.243171 -0.121888
vt -0.262679 -0.067267
vt -0.235368 -0.057514
vt -0.215861 -0.112135
vt -0.243171 -0.121888
vt -0.061268 -0.002683
vt -0.055902 0.000000
vt -0.029963 -0.051877
vt -0.035330 -0.054560
vt 0.029963 -0.051877
vt 0.055902 0.000000
vt 0.061268 -0.002683
vt 0.035330 -0.054560
s off
f 1/1/1 2/2/2 3/3/3
f 1/1/1 3/3/3 4/4/4
f 5/5/5 6/6/6 7/7/7
f 5/5/5 7/7/7 8/8/8
f 9/9/9 10/10/10 11/11/11
f 9/9/9 11/11/11 12/12/12
f 13/13/13 14/14/14 15/15/15
f 13/13/13 15/15/15 16/16/16
f 17/17/17 18/18/18 19/19/19
f 17/17/17 19/19/19 20/20/20
f 21/21/21 22/22/22 23/23/23
f 21/21/21 23/23/23 24/24/24
