# Exported using automatic converter by Erwin Coumans
mtllib botlab.mtl
#object mesh284325407

v -0.786004 0.307330 -2.729665
v -0.496085 0.307056 -2.733541
v -0.496125 0.307078 -2.738564
v -0.786045 0.307352 -2.734688
v -0.496165 0.241775 -2.738852
v -0.496125 0.241753 -2.733828
v -0.786044 0.242028 -2.729951
v -0.786085 0.242050 -2.734975
v -0.496125 0.307078 -2.738564
v -0.496165 0.241775 -2.738852
v -0.786085 0.242050 -2.734975
v -0.786045 0.307352 -2.734688
v -0.786044 0.242028 -2.729951
v -0.496125 0.241753 -2.733828
v -0.496085 0.307056 -2.733541
v -0.786004 0.307330 -2.729665
v -0.786085 0.242050 -2.734975
v -0.786044 0.242028 -2.729951
v -0.786004 0.307330 -2.729665
v -0.786045 0.307352 -2.734688
v -0.496085 0.307056 -2.733541
v -0.496125 0.241753 -2.733828
v -0.496165 0.241775 -2.738852
v -0.496125 0.307078 -2.738564
usemtl mat24

vn 0.001006 0.999990 0.004392
vn 0.001006 0.999990 0.004392
vn 0.001006 0.999990 0.004392
vn 0.001006 0.999990 0.004392
vn -0.001006 -0.999990 -0.004403
vn -0.001006 -0.999990 -0.004403
vn -0.001006 -0.999990 -0.004403
vn -0.001006 -0.999990 -0.004403
vn -0.013366 0.004402 -0.999901
vn -0.013366 0.004402 -0.999901
vn -0.013366 0.004402 -0.999901
vn -0.013366 0.004402 -0.999901
vn 0.013366 -0.004403 0.999901
vn 0.013366 -0.004403 0.999901
vn 0.013366 -0.004403 0.999901
vn 0.013366 -0.004403 0.999901
vn -0.999967 0.000576 0.008124
vn -0.999967 0.000576 0.008124
vn -0.999967 0.000576 0.008124
vn -0.999967 0.000576 0.008124
vn 0.999967 -0.000576 -0.008124
vn 0.999967 -0.000576 -0.008124
vn 0.999967 -0.000576 -0.008124
vn 0.999967 -0.000576 -0.008124

vt 0.210477 -0.040695
vt 0.201033 -0.013281
vt 0.201507 -0.013115
vt 0.210951 -0.040529
vt -0.201507 -0.013112
vt -0.201033 -0.013278
vt -0.210477 -0.040691
vt -0.210951 -0.040525
vt -0.104826 -0.035016
vt -0.098978 -0.037922
vt -0.111889 -0.063883
vt -0.117738 -0.060977
vt 0.111890 -0.063886
vt 0.098979 -0.037925
vt 0.104827 -0.035019
vt 0.117739 -0.060980
vt 0.110538 0.165565
vt 0.110127 0.165275
vt 0.106369 0.170616
vt 0.106780 0.170905
vt -0.106500 0.170694
vt -0.110258 0.165354
vt -0.110669 0.165643
vt -0.106911 0.170983
s off
f 1/1/1 2/2/2 3/3/3
f 1/1/1 3/3/3 4/4/4
f 5/5/5 6/6/6 7/7/7
f 5/5/5 7/7/7 8/8/8
f 9/9/9 10/10/10 11/11/11
f 9/9/9 11/11/11 12/12/12
f 13/13/13 14/14/14 15/15/15
f 13/13/13 15/15/15 16/16/16
f 17/17/17 18/18/18 19/19/19
f 17/17/17 19/19/19 20/20/20
f 21/21/21 22/22/22 23/23/23
f 21/21/21 23/23/23 24/24/24
