# Exported using automatic converter by Erwin Coumans
mtllib model6.mtl
#object mesh1708607889

v 1.353362 2.189315 -0.398077
v 1.348200 2.189035 -0.387519
v 1.344627 2.314504 -0.380986
v 1.349677 2.315377 -0.391566
v 1.348200 2.189035 -0.387519
v 1.356411 2.191243 -0.379401
v 1.352969 2.316016 -0.372843
v 1.344627 2.314504 -0.380986
v 1.356411 2.191243 -0.379401
v 1.366648 2.192887 -0.384942
v 1.363175 2.317823 -0.378390
v 1.352969 2.316016 -0.372843
v 1.366648 2.192887 -0.384942
v 1.364763 2.191696 -0.396485
v 1.361140 2.317429 -0.389961
v 1.363175 2.317823 -0.378390
v 1.364763 2.191696 -0.396485
v 1.353362 2.189315 -0.398077
v 1.349677 2.315377 -0.391566
v 1.361140 2.317429 -0.389961
v 1.364763 2.191696 -0.396485
v 1.366648 2.192887 -0.384942
v 1.356411 2.191243 -0.379401
v 1.348200 2.189035 -0.387519
v 1.353362 2.189315 -0.398077
v 1.349677 2.315377 -0.391566
v 1.344627 2.314504 -0.380986
v 1.352969 2.316016 -0.372843
v 1.363175 2.317823 -0.378390
v 1.361140 2.317429 -0.389961
usemtl mat23

vn -0.900345 -0.003412 -0.435163
vn -0.900345 -0.003412 -0.435163
vn -0.900345 -0.003412 -0.435163
vn -0.900345 -0.003412 -0.435163
vn -0.693088 -0.057023 0.718594
vn -0.693088 -0.057023 0.718594
vn -0.693088 -0.057023 0.718594
vn -0.693088 -0.057023 0.718594
vn 0.480774 -0.032695 0.876235
vn 0.480774 -0.032695 0.876235
vn 0.480774 -0.032695 0.876235
vn 0.480774 -0.032695 0.876235
vn 0.984844 0.036720 -0.169513
vn 0.984844 0.036720 -0.169513
vn 0.984844 0.036720 -0.169513
vn 0.984844 0.036720 -0.169513
vn 0.127824 0.054975 -0.990272
vn 0.127824 0.054975 -0.990272
vn 0.127824 0.054975 -0.990272
vn 0.127824 0.054975 -0.990272
vn 0.194609 -0.978435 0.069226
vn 0.194609 -0.978435 0.069226
vn 0.194609 -0.978435 0.069226
vn 0.194609 -0.978435 0.069226
vn 0.194609 -0.978435 0.069226
vn -0.175802 0.984422 -0.002679
vn -0.175802 0.984422 -0.002679
vn -0.175802 0.984422 -0.002679
vn -0.175802 0.984422 -0.002679
vn -0.175802 0.984422 -0.002679

vt -0.222451 0.147644
vt -0.223074 0.146647
vt -0.233966 0.152918
vt -0.233396 0.153945
vt 0.117405 0.261561
vt 0.116774 0.262553
vt 0.125723 0.271278
vt 0.126413 0.270326
vt 0.214501 0.178091
vt 0.214144 0.179211
vt 0.225674 0.184079
vt 0.226015 0.182955
vt 0.160069 0.220649
vt 0.158938 0.220968
vt 0.164104 0.232455
vt 0.165211 0.232059
vt -0.191115 0.219700
vt -0.191416 0.218564
vt -0.202836 0.223955
vt -0.202503 0.225082
vt 0.109344 0.129157
vt 0.110510 0.129012
vt 0.110733 0.127858
vt 0.109703 0.127290
vt 0.108845 0.128093
vt -0.095816 0.128066
vt -0.096658 0.127246
vt -0.097699 0.127794
vt -0.097499 0.128952
vt -0.096335 0.129120
s off
f 1/1/1 2/2/2 3/3/3
f 1/1/1 3/3/3 4/4/4
f 5/5/5 6/6/6 7/7/7
f 5/5/5 7/7/7 8/8/8
f 9/9/9 10/10/10 11/11/11
f 9/9/9 11/11/11 12/12/12
f 13/13/13 14/14/14 15/15/15
f 13/13/13 15/15/15 16/16/16
f 17/17/17 18/18/18 19/19/19
f 17/17/17 19/19/19 20/20/20
f 21/21/21 22/22/22 23/23/23
f 21/21/21 23/23/23 24/24/24
f 21/21/21 24/24/24 25/25/25
f 26/26/26 27/27/27 28/28/28
f 26/26/26 28/28/28 29/29/29
f 26/26/26 29/29/29 30/30/30
