# Exported using automatic converter by Erwin Coumans
mtllib model6.mtl
#object group1168598763_5

v 2.487313 1.303621 -0.533341
v 2.487313 1.303621 -0.548877
v 2.487313 0.379252 -0.548877
v 2.487313 0.379252 -0.533342
v 2.502849 0.379252 -0.548877
v 2.502849 1.303621 -0.548877
v 2.502849 1.303621 -0.533341
v 2.502849 0.379252 -0.533342
v 2.487313 0.379252 -0.548877
v 2.502849 0.379252 -0.548877
v 2.502849 0.379252 -0.533342
v 2.487313 0.379252 -0.533342
v 2.502849 1.303621 -0.533341
v 2.502849 1.303621 -0.548877
v 2.487313 1.303621 -0.548877
v 2.487313 1.303621 -0.533341
v 2.502849 0.379252 -0.533342
v 2.502849 1.303621 -0.533341
v 2.487313 1.303621 -0.533341
v 2.487313 0.379252 -0.533342
v 2.487313 1.303621 -0.548877
v 2.502849 1.303621 -0.548877
v 2.502849 0.379252 -0.548877
v 2.487313 0.379252 -0.548877
usemtl mat22

vn -1.000000 0.000000 -0.000000
vn -1.000000 0.000000 -0.000000
vn -1.000000 0.000000 -0.000000
vn -1.000000 0.000000 -0.000000
vn 1.000000 -0.000000 0.000000
vn 1.000000 -0.000000 0.000000
vn 1.000000 -0.000000 0.000000
vn 1.000000 -0.000000 0.000000
vn -0.000000 -1.000000 -0.000001
vn -0.000000 -1.000000 -0.000001
vn -0.000000 -1.000000 -0.000001
vn -0.000000 -1.000000 -0.000001
vn 0.000000 1.000000 0.000001
vn 0.000000 1.000000 0.000001
vn 0.000000 1.000000 0.000001
vn 0.000000 1.000000 0.000001
vn -0.000000 -0.000001 1.000000
vn -0.000000 -0.000001 1.000000
vn -0.000000 -0.000001 1.000000
vn -0.000000 -0.000001 1.000000
vn 0.000000 0.000001 -1.000000
vn 0.000000 0.000001 -1.000000
vn 0.000000 0.000001 -1.000000
vn 0.000000 0.000001 -1.000000

vt -0.132968 0.124767
vt -0.131703 0.125670
vt -0.077976 0.050451
vt -0.079240 0.049548
vt 0.077976 0.050451
vt 0.131703 0.125670
vt 0.132968 0.124767
vt 0.079240 0.049548
vt 0.105429 0.193734
vt 0.105952 0.195197
vt 0.107415 0.194675
vt 0.106892 0.193212
vt -0.107415 0.194675
vt -0.105952 0.195197
vt -0.105429 0.193734
vt -0.106892 0.193212
vt -0.020889 0.234921
vt 0.061789 0.276260
vt 0.062484 0.274870
vt -0.020194 0.233531
vt -0.062484 0.274870
vt -0.061789 0.276260
vt 0.020889 0.234921
vt 0.020194 0.233531
s off
f 1/1/1 2/2/2 3/3/3
f 1/1/1 3/3/3 4/4/4
f 5/5/5 6/6/6 7/7/7
f 5/5/5 7/7/7 8/8/8
f 9/9/9 10/10/10 11/11/11
f 9/9/9 11/11/11 12/12/12
f 13/13/13 14/14/14 15/15/15
f 13/13/13 15/15/15 16/16/16
f 17/17/17 18/18/18 19/19/19
f 17/17/17 19/19/19 20/20/20
f 21/21/21 22/22/22 23/23/23
f 21/21/21 23/23/23 24/24/24
