# Exported using automatic converter by Erwin Coumans
mtllib model6.mtl
#object mesh1086421655

v 0.745909 -0.969060 2.493577
v 0.733185 -0.968454 2.478158
v 0.733865 -0.988397 2.476812
v 0.746589 -0.989004 2.492231
v 0.749281 -0.987016 2.464145
v 0.748601 -0.967073 2.465491
v 0.761325 -0.967680 2.480910
v 0.762005 -0.987623 2.479564
v 0.733865 -0.988397 2.476812
v 0.749281 -0.987016 2.464145
v 0.762005 -0.987623 2.479564
v 0.746589 -0.989004 2.492231
v 0.761325 -0.967680 2.480910
v 0.748601 -0.967073 2.465491
v 0.733185 -0.968454 2.478158
v 0.745909 -0.969060 2.493577
v 0.762005 -0.987623 2.479564
v 0.761325 -0.967680 2.480910
v 0.745909 -0.969060 2.493577
v 0.746589 -0.989004 2.492231
v 0.733185 -0.968454 2.478158
v 0.748601 -0.967073 2.465491
v 0.749281 -0.987016 2.464145
v 0.733865 -0.988397 2.476812
usemtl mat6

vn -0.770788 -0.069024 0.633341
vn -0.770788 -0.069024 0.633341
vn -0.770788 -0.069024 0.633341
vn -0.770788 -0.069024 0.633341
vn 0.770788 0.069024 -0.633341
vn 0.770788 0.069024 -0.633341
vn 0.770788 0.069024 -0.633341
vn 0.770788 0.069024 -0.633341
vn 0.034003 -0.997154 -0.067292
vn 0.034003 -0.997154 -0.067292
vn 0.034003 -0.997154 -0.067292
vn 0.034003 -0.997154 -0.067292
vn -0.034003 0.997154 0.067292
vn -0.034003 0.997154 0.067292
vn -0.034003 0.997154 0.067292
vn -0.034003 0.997154 0.067292
vn 0.636184 -0.030332 0.770941
vn 0.636184 -0.030332 0.770941
vn 0.636184 -0.030332 0.770941
vn 0.636184 -0.030332 0.770941
vn -0.636184 0.030332 -0.770941
vn -0.636184 0.030332 -0.770941
vn -0.636184 0.030332 -0.770941
vn -0.636184 0.030332 -0.770941

vt -0.244978 0.157863
vt -0.243404 0.156628
vt -0.244639 0.155055
vt -0.246212 0.156289
vt 0.244639 0.155055
vt 0.243404 0.156628
vt 0.244978 0.157863
vt 0.246212 0.156289
vt 0.331684 -0.082812
vt 0.331048 -0.080915
vt 0.332944 -0.080280
vt 0.333580 -0.082176
vt -0.332944 -0.080280
vt -0.331048 -0.080915
vt -0.331684 -0.082812
vt -0.333580 -0.082176
vt 0.044748 -0.178700
vt 0.046587 -0.177914
vt 0.047373 -0.179754
vt 0.045534 -0.180539
vt -0.047373 -0.179754
vt -0.046587 -0.177914
vt -0.044748 -0.178700
vt -0.045534 -0.180539
s off
f 1/1/1 2/2/2 3/3/3
f 1/1/1 3/3/3 4/4/4
f 5/5/5 6/6/6 7/7/7
f 5/5/5 7/7/7 8/8/8
f 9/9/9 10/10/10 11/11/11
f 9/9/9 11/11/11 12/12/12
f 13/13/13 14/14/14 15/15/15
f 13/13/13 15/15/15 16/16/16
f 17/17/17 18/18/18 19/19/19
f 17/17/17 19/19/19 20/20/20
f 21/21/21 22/22/22 23/23/23
f 21/21/21 23/23/23 24/24/24
