# Exported using automatic converter by Erwin Coumans
mtllib model6.mtl
#object group794988537_2

v 2.754322 -0.717298 0.249971
v 2.750226 -0.698626 0.244092
v 2.941135 -0.683899 0.157855
v 2.945231 -0.702572 0.163734
v 2.948391 -0.676872 0.175117
v 2.757482 -0.691599 0.261354
v 2.761578 -0.710271 0.267233
v 2.952487 -0.695545 0.180996
v 2.941135 -0.683899 0.157855
v 2.948391 -0.676872 0.175117
v 2.952487 -0.695545 0.180996
v 2.945231 -0.702572 0.163734
v 2.761578 -0.710271 0.267233
v 2.757482 -0.691599 0.261354
v 2.750226 -0.698626 0.244092
v 2.754322 -0.717298 0.249971
v 2.952487 -0.695545 0.180996
v 2.761578 -0.710271 0.267233
v 2.754322 -0.717298 0.249971
v 2.945231 -0.702572 0.163734
v 2.750226 -0.698626 0.244092
v 2.757482 -0.691599 0.261354
v 2.948391 -0.676872 0.175117
v 2.941135 -0.683899 0.157855
usemtl mat22

vn -0.362777 -0.351345 -0.863105
vn -0.362777 -0.351345 -0.863105
vn -0.362777 -0.351345 -0.863105
vn -0.362777 -0.351345 -0.863105
vn 0.362777 0.351345 0.863105
vn 0.362777 0.351345 0.863105
vn 0.362777 0.351345 0.863105
vn 0.362777 0.351345 0.863105
vn 0.909091 0.070127 -0.410652
vn 0.909091 0.070127 -0.410652
vn 0.909091 0.070127 -0.410652
vn 0.909091 0.070127 -0.410652
vn -0.909091 -0.070127 0.410652
vn -0.909091 -0.070127 0.410652
vn -0.909091 -0.070127 0.410652
vn -0.909091 -0.070127 0.410652
vn 0.204808 -0.933616 0.293965
vn 0.204808 -0.933616 0.293965
vn 0.204808 -0.933616 0.293965
vn 0.204808 -0.933616 0.293965
vn -0.204808 0.933616 -0.293965
vn -0.204808 0.933616 -0.293965
vn -0.204808 0.933616 -0.293965
vn -0.204808 0.933616 -0.293965

vt 0.155305 0.131249
vt 0.153410 0.131886
vt 0.160106 0.151790
vt 0.162002 0.151153
vt -0.160106 0.151790
vt -0.153410 0.131886
vt -0.155305 0.131249
vt -0.162002 0.151153
vt 0.206522 0.007548
vt 0.208217 0.008611
vt 0.209279 0.006917
vt 0.207585 0.005854
vt -0.209279 0.006917
vt -0.208217 0.008611
vt -0.206522 0.007548
vt -0.207585 0.005854
vt 0.136816 0.228085
vt 0.141152 0.207538
vt 0.139195 0.207125
vt 0.134859 0.227672
vt -0.139195 0.207125
vt -0.141152 0.207538
vt -0.136816 0.228085
vt -0.134859 0.227672
s off
f 1/1/1 2/2/2 3/3/3
f 1/1/1 3/3/3 4/4/4
f 5/5/5 6/6/6 7/7/7
f 5/5/5 7/7/7 8/8/8
f 9/9/9 10/10/10 11/11/11
f 9/9/9 11/11/11 12/12/12
f 13/13/13 14/14/14 15/15/15
f 13/13/13 15/15/15 16/16/16
f 17/17/17 18/18/18 19/19/19
f 17/17/17 19/19/19 20/20/20
f 21/21/21 22/22/22 23/23/23
f 21/21/21 23/23/23 24/24/24
