# Exported using automatic converter by Erwin Coumans
mtllib model6.mtl
#object mesh2091990164

v -0.112846 0.476235 -1.198913
v -0.112610 0.505202 -1.199041
v 0.597086 0.499437 -1.199449
v 0.596851 0.470470 -1.199322
v 0.597095 0.499500 -1.184965
v -0.112602 0.505266 -1.184557
v -0.112837 0.476299 -1.184429
v 0.596860 0.470533 -1.184838
v 0.597086 0.499437 -1.199449
v 0.597095 0.499500 -1.184965
v 0.596860 0.470533 -1.184838
v 0.596851 0.470470 -1.199322
v -0.112837 0.476299 -1.184429
v -0.112602 0.505266 -1.184557
v -0.112610 0.505202 -1.199041
v -0.112846 0.476235 -1.198913
v 0.596860 0.470533 -1.184838
v -0.112837 0.476299 -1.184429
v -0.112846 0.476235 -1.198913
v 0.596851 0.470470 -1.199322
v -0.112610 0.505202 -1.199041
v -0.112602 0.505266 -1.184557
v 0.597095 0.499500 -1.184965
v 0.597086 0.499437 -1.199449
v 0.596799 0.476916 -1.380404
v 0.596917 0.491399 -1.380468
v 0.597320 0.494296 -0.721448
v 0.597202 0.479812 -0.721384
v 0.582836 0.494413 -0.721440
v 0.582433 0.491517 -1.380459
v 0.582315 0.477033 -1.380396
v 0.582719 0.479930 -0.721376
v 0.597320 0.494296 -0.721448
v 0.582836 0.494413 -0.721440
v 0.582719 0.479930 -0.721376
v 0.597202 0.479812 -0.721384
v 0.582315 0.477033 -1.380396
v 0.582433 0.491517 -1.380459
v 0.596917 0.491399 -1.380468
v 0.596799 0.476916 -1.380404
v 0.582719 0.479930 -0.721376
v 0.582315 0.477033 -1.380396
v 0.596799 0.476916 -1.380404
v 0.597202 0.479812 -0.721384
v 0.596917 0.491399 -1.380468
v 0.582433 0.491517 -1.380459
v 0.582836 0.494413 -0.721440
v 0.597320 0.494296 -0.721448
v -0.112650 0.480367 -0.917936
v -0.112488 0.500631 -0.920922
v 0.597210 0.494866 -0.921331
v 0.597047 0.474602 -0.918344
v 0.597277 0.502171 -0.906878
v -0.112420 0.507937 -0.906470
v -0.112641 0.480431 -0.903452
v 0.597055 0.474665 -0.903861
v 0.597210 0.494866 -0.921331
v 0.597277 0.502171 -0.906878
v 0.597055 0.474665 -0.903861
v 0.597047 0.474602 -0.918344
v -0.112641 0.480431 -0.903452
v -0.112420 0.507937 -0.906470
v -0.112488 0.500631 -0.920922
v -0.112650 0.480367 -0.917936
v 0.597055 0.474665 -0.903861
v -0.112641 0.480431 -0.903452
v -0.112650 0.480367 -0.917936
v 0.597047 0.474602 -0.918344
v -0.112488 0.500631 -0.920922
v -0.112420 0.507937 -0.906470
v 0.597277 0.502171 -0.906878
v 0.597210 0.494866 -0.921331
v -0.112673 0.484298 -1.012104
v -0.112510 0.504563 -1.015090
v 0.597187 0.498797 -1.015498
v 0.597024 0.478533 -1.012512
v 0.597255 0.506103 -1.001046
v -0.112442 0.511868 -1.000637
v -0.112664 0.484362 -0.997620
v 0.597033 0.478597 -0.998029
v 0.597187 0.498797 -1.015498
v 0.597255 0.506103 -1.001046
v 0.597033 0.478597 -0.998029
v 0.597024 0.478533 -1.012512
v -0.112664 0.484362 -0.997620
v -0.112442 0.511868 -1.000637
v -0.112510 0.504563 -1.015090
v -0.112673 0.484298 -1.012104
v 0.597033 0.478597 -0.998029
v -0.112664 0.484362 -0.997620
v -0.112673 0.484298 -1.012104
v 0.597024 0.478533 -1.012512
v -0.112510 0.504563 -1.015090
v -0.112442 0.511868 -1.000637
v 0.597255 0.506103 -1.001046
v 0.597187 0.498797 -1.015498
v -0.120011 0.479573 -1.112018
v -0.119848 0.499837 -1.115004
v 0.589849 0.494071 -1.115412
v 0.589686 0.473807 -1.112427
v 0.589917 0.501377 -1.100960
v -0.119780 0.507142 -1.100552
v -0.120002 0.479636 -1.097534
v 0.589695 0.473871 -1.097943
v 0.589849 0.494071 -1.115412
v 0.589917 0.501377 -1.100960
v 0.589695 0.473871 -1.097943
v 0.589686 0.473807 -1.112427
v -0.120002 0.479636 -1.097534
v -0.119780 0.507142 -1.100552
v -0.119848 0.499837 -1.115004
v -0.120011 0.479573 -1.112018
v 0.589695 0.473871 -1.097943
v -0.120002 0.479636 -1.097534
v -0.120011 0.479573 -1.112018
v 0.589686 0.473807 -1.112427
v -0.119848 0.499837 -1.115004
v -0.119780 0.507142 -1.100552
v 0.589917 0.501377 -1.100960
v 0.589849 0.494071 -1.115412
v -0.105598 0.483036 -1.285854
v -0.105481 0.497520 -1.285917
v 0.596974 0.491813 -1.286322
v 0.596857 0.477330 -1.286258
v 0.596983 0.491877 -1.271838
v -0.105472 0.497584 -1.271433
v -0.105590 0.483100 -1.271370
v 0.596866 0.477393 -1.271774
v 0.596974 0.491813 -1.286322
v 0.596983 0.491877 -1.271838
v 0.596866 0.477393 -1.271774
v 0.596857 0.477330 -1.286258
v -0.105590 0.483100 -1.271370
v -0.105472 0.497584 -1.271433
v -0.105481 0.497520 -1.285917
v -0.105598 0.483036 -1.285854
v 0.596866 0.477393 -1.271774
v -0.105590 0.483100 -1.271370
v -0.105598 0.483036 -1.285854
v 0.596857 0.477330 -1.286258
v -0.105481 0.497520 -1.285917
v -0.105472 0.497584 -1.271433
v 0.596983 0.491877 -1.271838
v 0.596974 0.491813 -1.286322
v -0.105629 0.486228 -1.383635
v -0.105511 0.500711 -1.383699
v 0.596944 0.495004 -1.384104
v 0.596826 0.480521 -1.384040
v 0.596953 0.495068 -1.369620
v -0.105502 0.500775 -1.369215
v -0.105620 0.486291 -1.369151
v 0.596835 0.480584 -1.369556
v 0.596944 0.495004 -1.384104
v 0.596953 0.495068 -1.369620
v 0.596835 0.480584 -1.369556
v 0.596826 0.480521 -1.384040
v -0.105620 0.486291 -1.369151
v -0.105502 0.500775 -1.369215
v -0.105511 0.500711 -1.383699
v -0.105629 0.486228 -1.383635
v 0.596835 0.480584 -1.369556
v -0.105620 0.486291 -1.369151
v -0.105629 0.486228 -1.383635
v 0.596826 0.480521 -1.384040
v -0.105511 0.500711 -1.383699
v -0.105502 0.500775 -1.369215
v 0.596953 0.495068 -1.369620
v 0.596944 0.495004 -1.384104
v -0.119803 0.485159 -0.829601
v -0.119685 0.499642 -0.829665
v 0.590012 0.493877 -0.830074
v 0.589894 0.479393 -0.830010
v 0.590021 0.493940 -0.815590
v -0.119676 0.499706 -0.815181
v -0.119794 0.485222 -0.815117
v 0.589903 0.479457 -0.815526
v 0.590012 0.493877 -0.830074
v 0.590021 0.493940 -0.815590
v 0.589903 0.479457 -0.815526
v 0.589894 0.479393 -0.830010
v -0.119794 0.485222 -0.815117
v -0.119676 0.499706 -0.815181
v -0.119685 0.499642 -0.829665
v -0.119803 0.485159 -0.829601
v 0.589903 0.479457 -0.815526
v -0.119794 0.485222 -0.815117
v -0.119803 0.485159 -0.829601
v 0.589894 0.479393 -0.830010
v -0.119685 0.499642 -0.829665
v -0.119676 0.499706 -0.815181
v 0.590021 0.493940 -0.815590
v 0.590012 0.493877 -0.830074
v -0.119747 0.485557 -0.739076
v -0.119630 0.500040 -0.739140
v 0.590067 0.494274 -0.739549
v 0.589950 0.479791 -0.739485
v 0.590076 0.494338 -0.725065
v -0.119621 0.500104 -0.724656
v -0.119739 0.485620 -0.724592
v 0.589958 0.479855 -0.725001
v 0.590067 0.494274 -0.739549
v 0.590076 0.494338 -0.725065
v 0.589958 0.479855 -0.725001
v 0.589950 0.479791 -0.739485
v -0.119739 0.485620 -0.724592
v -0.119621 0.500104 -0.724656
v -0.119630 0.500040 -0.739140
v -0.119747 0.485557 -0.739076
v 0.589958 0.479855 -0.725001
v -0.119739 0.485620 -0.724592
v -0.119747 0.485557 -0.739076
v 0.589950 0.479791 -0.739485
v -0.119630 0.500040 -0.739140
v -0.119621 0.500104 -0.724656
v 0.590076 0.494338 -0.725065
v 0.590067 0.494274 -0.739549
v -0.105660 0.482590 -1.387241
v -0.105543 0.497074 -1.387304
v -0.105140 0.499970 -0.728285
v -0.105257 0.485487 -0.728221
v -0.119623 0.500088 -0.728276
v -0.120026 0.497191 -1.387296
v -0.120144 0.482708 -1.387232
v -0.119741 0.485604 -0.728213
v -0.105140 0.499970 -0.728285
v -0.119623 0.500088 -0.728276
v -0.119741 0.485604 -0.728213
v -0.105257 0.485487 -0.728221
v -0.120144 0.482708 -1.387232
v -0.120026 0.497191 -1.387296
v -0.105543 0.497074 -1.387304
v -0.105660 0.482590 -1.387241
v -0.119741 0.485604 -0.728213
v -0.120144 0.482708 -1.387232
v -0.105660 0.482590 -1.387241
v -0.105257 0.485487 -0.728221
v -0.105543 0.497074 -1.387304
v -0.120026 0.497191 -1.387296
v -0.119623 0.500088 -0.728276
v -0.105140 0.499970 -0.728285
usemtl mat23

vn -0.000612 -0.004395 -0.999990
vn -0.000612 -0.004395 -0.999990
vn -0.000612 -0.004395 -0.999990
vn -0.000612 -0.004395 -0.999990
vn 0.000612 0.004395 0.999990
vn 0.000612 0.004395 0.999990
vn 0.000612 0.004395 0.999990
vn 0.000612 0.004395 0.999990
vn 0.999967 -0.008124 -0.000576
vn 0.999967 -0.008124 -0.000576
vn 0.999967 -0.008124 -0.000576
vn 0.999967 -0.008124 -0.000576
vn -0.999967 0.008124 0.000576
vn -0.999967 0.008124 0.000576
vn -0.999967 0.008124 0.000576
vn -0.999967 0.008124 0.000576
vn -0.008121 -0.999957 0.004400
vn -0.008121 -0.999957 0.004400
vn -0.008121 -0.999957 0.004400
vn -0.008121 -0.999957 0.004400
vn 0.008121 0.999957 -0.004400
vn 0.008121 0.999957 -0.004400
vn 0.008121 0.999957 -0.004400
vn 0.008121 0.999957 -0.004400
vn 0.999967 -0.008124 -0.000576
vn 0.999967 -0.008124 -0.000576
vn 0.999967 -0.008124 -0.000576
vn 0.999967 -0.008124 -0.000576
vn -0.999967 0.008124 0.000576
vn -0.999967 0.008124 0.000576
vn -0.999967 0.008124 0.000576
vn -0.999967 0.008124 0.000576
vn 0.000612 0.004395 0.999990
vn 0.000612 0.004395 0.999990
vn 0.000612 0.004395 0.999990
vn 0.000612 0.004395 0.999990
vn -0.000612 -0.004395 -0.999990
vn -0.000612 -0.004395 -0.999990
vn -0.000612 -0.004395 -0.999990
vn -0.000612 -0.004395 -0.999990
vn -0.008121 -0.999957 0.004400
vn -0.008121 -0.999957 0.004400
vn -0.008121 -0.999957 0.004400
vn -0.008121 -0.999957 0.004400
vn 0.008121 0.999957 -0.004400
vn 0.008121 0.999957 -0.004400
vn 0.008121 0.999957 -0.004400
vn 0.008121 0.999957 -0.004400
vn -0.001754 -0.145764 -0.989318
vn -0.001754 -0.145764 -0.989318
vn -0.001754 -0.145764 -0.989318
vn -0.001754 -0.145764 -0.989318
vn 0.001459 0.109050 0.994035
vn 0.001459 0.109050 0.994035
vn 0.001459 0.109050 0.994035
vn 0.001459 0.109050 0.994035
vn 0.999967 -0.008124 -0.000576
vn 0.999967 -0.008124 -0.000576
vn 0.999967 -0.008124 -0.000576
vn 0.999967 -0.008124 -0.000576
vn -0.999967 0.008124 0.000576
vn -0.999967 0.008124 0.000576
vn -0.999967 0.008124 0.000576
vn -0.999967 0.008124 0.000576
vn -0.008121 -0.999957 0.004400
vn -0.008121 -0.999957 0.004400
vn -0.008121 -0.999957 0.004400
vn -0.008121 -0.999957 0.004400
vn 0.006990 0.892425 -0.451142
vn 0.006990 0.892425 -0.451142
vn 0.006990 0.892425 -0.451142
vn 0.006990 0.892425 -0.451142
vn -0.001754 -0.145764 -0.989318
vn -0.001754 -0.145764 -0.989318
vn -0.001754 -0.145764 -0.989318
vn -0.001754 -0.145764 -0.989318
vn 0.001459 0.109050 0.994035
vn 0.001459 0.109050 0.994035
vn 0.001459 0.109050 0.994035
vn 0.001459 0.109050 0.994035
vn 0.999967 -0.008124 -0.000576
vn 0.999967 -0.008124 -0.000576
vn 0.999967 -0.008124 -0.000576
vn 0.999967 -0.008124 -0.000576
vn -0.999967 0.008124 0.000576
vn -0.999967 0.008124 0.000576
vn -0.999967 0.008124 0.000576
vn -0.999967 0.008124 0.000576
vn -0.008121 -0.999957 0.004400
vn -0.008121 -0.999957 0.004400
vn -0.008121 -0.999957 0.004400
vn -0.008121 -0.999957 0.004400
vn 0.006990 0.892425 -0.451142
vn 0.006990 0.892425 -0.451142
vn 0.006990 0.892425 -0.451142
vn 0.006990 0.892425 -0.451142
vn -0.001754 -0.145764 -0.989318
vn -0.001754 -0.145764 -0.989318
vn -0.001754 -0.145764 -0.989318
vn -0.001754 -0.145764 -0.989318
vn 0.001459 0.109050 0.994035
vn 0.001459 0.109050 0.994035
vn 0.001459 0.109050 0.994035
vn 0.001459 0.109050 0.994035
vn 0.999967 -0.008124 -0.000576
vn 0.999967 -0.008124 -0.000576
vn 0.999967 -0.008124 -0.000576
vn 0.999967 -0.008124 -0.000576
vn -0.999967 0.008124 0.000576
vn -0.999967 0.008124 0.000576
vn -0.999967 0.008124 0.000576
vn -0.999967 0.008124 0.000576
vn -0.008121 -0.999957 0.004400
vn -0.008121 -0.999957 0.004400
vn -0.008121 -0.999957 0.004400
vn -0.008121 -0.999957 0.004400
vn 0.006990 0.892425 -0.451142
vn 0.006990 0.892425 -0.451142
vn 0.006990 0.892425 -0.451142
vn 0.006990 0.892425 -0.451142
vn -0.000612 -0.004395 -0.999990
vn -0.000612 -0.004395 -0.999990
vn -0.000612 -0.004395 -0.999990
vn -0.000612 -0.004395 -0.999990
vn 0.000612 0.004395 0.999990
vn 0.000612 0.004395 0.999990
vn 0.000612 0.004395 0.999990
vn 0.000612 0.004395 0.999990
vn 0.999967 -0.008124 -0.000576
vn 0.999967 -0.008124 -0.000576
vn 0.999967 -0.008124 -0.000576
vn 0.999967 -0.008124 -0.000576
vn -0.999967 0.008124 0.000576
vn -0.999967 0.008124 0.000576
vn -0.999967 0.008124 0.000576
vn -0.999967 0.008124 0.000576
vn -0.008121 -0.999957 0.004400
vn -0.008121 -0.999957 0.004400
vn -0.008121 -0.999957 0.004400
vn -0.008121 -0.999957 0.004400
vn 0.008121 0.999957 -0.004400
vn 0.008121 0.999957 -0.004400
vn 0.008121 0.999957 -0.004400
vn 0.008121 0.999957 -0.004400
vn -0.000612 -0.004395 -0.999990
vn -0.000612 -0.004395 -0.999990
vn -0.000612 -0.004395 -0.999990
vn -0.000612 -0.004395 -0.999990
vn 0.000612 0.004395 0.999990
vn 0.000612 0.004395 0.999990
vn 0.000612 0.004395 0.999990
vn 0.000612 0.004395 0.999990
vn 0.999967 -0.008124 -0.000576
vn 0.999967 -0.008124 -0.000576
vn 0.999967 -0.008124 -0.000576
vn 0.999967 -0.008124 -0.000576
vn -0.999967 0.008124 0.000576
vn -0.999967 0.008124 0.000576
vn -0.999967 0.008124 0.000576
vn -0.999967 0.008124 0.000576
vn -0.008121 -0.999957 0.004400
vn -0.008121 -0.999957 0.004400
vn -0.008121 -0.999957 0.004400
vn -0.008121 -0.999957 0.004400
vn 0.008121 0.999957 -0.004400
vn 0.008121 0.999957 -0.004400
vn 0.008121 0.999957 -0.004400
vn 0.008121 0.999957 -0.004400
vn -0.000612 -0.004395 -0.999990
vn -0.000612 -0.004395 -0.999990
vn -0.000612 -0.004395 -0.999990
vn -0.000612 -0.004395 -0.999990
vn 0.000612 0.004395 0.999990
vn 0.000612 0.004395 0.999990
vn 0.000612 0.004395 0.999990
vn 0.000612 0.004395 0.999990
vn 0.999967 -0.008124 -0.000576
vn 0.999967 -0.008124 -0.000576
vn 0.999967 -0.008124 -0.000576
vn 0.999967 -0.008124 -0.000576
vn -0.999967 0.008124 0.000576
vn -0.999967 0.008124 0.000576
vn -0.999967 0.008124 0.000576
vn -0.999967 0.008124 0.000576
vn -0.008121 -0.999957 0.004400
vn -0.008121 -0.999957 0.004400
vn -0.008121 -0.999957 0.004400
vn -0.008121 -0.999957 0.004400
vn 0.008121 0.999957 -0.004400
vn 0.008121 0.999957 -0.004400
vn 0.008121 0.999957 -0.004400
vn 0.008121 0.999957 -0.004400
vn -0.000612 -0.004395 -0.999990
vn -0.000612 -0.004395 -0.999990
vn -0.000612 -0.004395 -0.999990
vn -0.000612 -0.004395 -0.999990
vn 0.000612 0.004395 0.999990
vn 0.000612 0.004395 0.999990
vn 0.000612 0.004395 0.999990
vn 0.000612 0.004395 0.999990
vn 0.999967 -0.008124 -0.000576
vn 0.999967 -0.008124 -0.000576
vn 0.999967 -0.008124 -0.000576
vn 0.999967 -0.008124 -0.000576
vn -0.999967 0.008124 0.000576
vn -0.999967 0.008124 0.000576
vn -0.999967 0.008124 0.000576
vn -0.999967 0.008124 0.000576
vn -0.008121 -0.999957 0.004400
vn -0.008121 -0.999957 0.004400
vn -0.008121 -0.999957 0.004400
vn -0.008121 -0.999957 0.004400
vn 0.008121 0.999957 -0.004400
vn 0.008121 0.999957 -0.004400
vn 0.008121 0.999957 -0.004400
vn 0.008121 0.999957 -0.004400
vn 0.999967 -0.008124 -0.000576
vn 0.999967 -0.008124 -0.000576
vn 0.999967 -0.008124 -0.000576
vn 0.999967 -0.008124 -0.000576
vn -0.999967 0.008124 0.000576
vn -0.999967 0.008124 0.000576
vn -0.999967 0.008124 0.000576
vn -0.999967 0.008124 0.000576
vn 0.000612 0.004395 0.999990
vn 0.000612 0.004395 0.999990
vn 0.000612 0.004395 0.999990
vn 0.000612 0.004395 0.999990
vn -0.000612 -0.004395 -0.999990
vn -0.000612 -0.004395 -0.999990
vn -0.000612 -0.004395 -0.999990
vn -0.000612 -0.004395 -0.999990
vn -0.008121 -0.999957 0.004400
vn -0.008121 -0.999957 0.004400
vn -0.008121 -0.999957 0.004400
vn -0.008121 -0.999957 0.004400
vn 0.008121 0.999957 -0.004400
vn 0.008121 0.999957 -0.004400
vn 0.008121 0.999957 -0.004400
vn 0.008121 0.999957 -0.004400

vt -0.104869 0.005502
vt -0.107448 0.006822
vt -0.075120 0.070003
vt -0.072541 0.068684
vt 0.075120 0.070003
vt 0.107448 0.006822
vt 0.104869 0.005502
vt 0.072541 0.068684
vt 0.031349 0.098489
vt 0.032538 0.097662
vt 0.030885 0.095283
vt 0.029695 0.096110
vt -0.030885 0.095283
vt -0.032538 0.097662
vt -0.031349 0.098489
vt -0.029695 0.096110
vt -0.017934 0.036207
vt -0.041720 -0.030661
vt -0.043084 -0.030175
vt -0.019299 0.036692
vt 0.043084 -0.030175
vt 0.041720 -0.030661
vt 0.017934 0.036207
vt 0.019299 0.036692
vt 0.015243 0.107040
vt 0.016070 0.108229
vt 0.070181 0.070610
vt 0.069354 0.069421
vt -0.070181 0.070610
vt -0.016070 0.108229
vt -0.015243 0.107040
vt -0.069354 0.069421
vt 0.074475 0.069674
vt 0.075135 0.068384
vt 0.073846 0.067724
vt 0.073186 0.069014
vt -0.073846 0.067724
vt -0.075135 0.068384
vt -0.074475 0.069674
vt -0.073186 0.069014
vt 0.025249 0.019309
vt -0.036842 0.041395
vt -0.036357 0.042760
vt 0.025734 0.020673
vt 0.036357 0.042760
vt 0.036842 0.041395
vt -0.025249 0.019309
vt -0.025734 0.020673
vt -0.104314 0.009017
vt -0.106104 0.010013
vt -0.071576 0.072021
vt -0.069787 0.071024
vt 0.072973 0.071869
vt 0.106988 0.009579
vt 0.104559 0.008253
vt 0.070544 0.070543
vt 0.053852 0.082139
vt 0.055455 0.081907
vt 0.054122 0.079482
vt 0.052932 0.080308
vt -0.054122 0.079482
vt -0.055455 0.081907
vt -0.053852 0.082139
vt -0.052932 0.080308
vt 0.008540 0.026789
vt -0.015245 -0.040078
vt -0.016610 -0.039593
vt 0.007176 0.027275
vt -0.037540 -0.046394
vt -0.039153 -0.046538
vt -0.045469 0.024152
vt -0.043856 0.024296
vt -0.105853 0.009874
vt -0.107643 0.010870
vt -0.073116 0.072878
vt -0.071326 0.071881
vt 0.074217 0.072548
vt 0.108232 0.010259
vt 0.105804 0.008933
vt 0.071788 0.071222
vt 0.046370 0.087870
vt 0.047972 0.087638
vt 0.046639 0.085213
vt 0.045450 0.086039
vt -0.046639 0.085213
vt -0.047972 0.087638
vt -0.046370 0.087870
vt -0.045450 0.086039
vt -0.000330 0.029945
vt -0.024116 -0.036923
vt -0.025481 -0.036437
vt -0.001695 0.030430
vt -0.029346 -0.045662
vt -0.030959 -0.045806
vt -0.037275 0.024884
vt -0.035662 0.025028
vt -0.107064 0.009720
vt -0.108854 0.010716
vt -0.074327 0.072723
vt -0.072537 0.071727
vt 0.075103 0.072207
vt 0.109118 0.009918
vt 0.106690 0.008591
vt 0.072674 0.070881
vt 0.037916 0.093218
vt 0.039519 0.092986
vt 0.038186 0.090561
vt 0.036996 0.091387
vt -0.038186 0.090561
vt -0.039519 0.092986
vt -0.037916 0.093218
vt -0.036996 0.091387
vt -0.009989 0.032612
vt -0.033775 -0.034256
vt -0.035139 -0.033770
vt -0.011353 0.033097
vt -0.020185 -0.045571
vt -0.021798 -0.045715
vt -0.028113 0.024976
vt -0.026500 0.025120
vt -0.105184 0.006477
vt -0.106473 0.007136
vt -0.074475 0.069674
vt -0.073186 0.069014
vt 0.074475 0.069674
vt 0.106473 0.007136
vt 0.105184 0.006477
vt 0.073186 0.069014
vt 0.023800 0.102855
vt 0.024989 0.102028
vt 0.024162 0.100839
vt 0.022973 0.101666
vt -0.024162 0.100839
vt -0.024989 0.102028
vt -0.023800 0.102855
vt -0.022973 0.101666
vt -0.026122 0.039119
vt -0.049665 -0.027066
vt -0.051030 -0.026581
vt -0.027487 0.039605
vt 0.051030 -0.026581
vt 0.049665 -0.027066
vt 0.026122 0.039119
vt 0.027487 0.039605
vt -0.105506 0.006642
vt -0.106796 0.007301
vt -0.074798 0.069839
vt -0.073508 0.069179
vt 0.074798 0.069839
vt 0.106796 0.007301
vt 0.105506 0.006642
vt 0.073508 0.069179
vt 0.015979 0.108733
vt 0.017169 0.107906
vt 0.016342 0.106717
vt 0.015153 0.107544
vt -0.016342 0.106717
vt -0.017169 0.107906
vt -0.015979 0.108733
vt -0.015153 0.107544
vt -0.035333 0.042396
vt -0.058876 -0.023789
vt -0.060241 -0.023304
vt -0.036698 0.042881
vt 0.060241 -0.023304
vt 0.058876 -0.023789
vt 0.035333 0.042396
vt 0.036698 0.042881
vt -0.105844 0.005187
vt -0.107133 0.005847
vt -0.074805 0.069029
vt -0.073516 0.068369
vt 0.074805 0.069029
vt 0.107133 0.005847
vt 0.105844 0.005187
vt 0.073516 0.068369
vt 0.061261 0.076811
vt 0.062451 0.075984
vt 0.061624 0.074795
vt 0.060435 0.075622
vt -0.061624 0.074795
vt -0.062451 0.075984
vt -0.061261 0.076811
vt -0.060435 0.075622
vt 0.016622 0.023146
vt -0.007164 -0.043721
vt -0.008529 -0.043236
vt 0.015257 0.023632
vt 0.008529 -0.043236
vt 0.007164 -0.043721
vt -0.016622 0.023146
vt -0.015257 0.023632
vt -0.105844 0.005187
vt -0.107133 0.005847
vt -0.074805 0.069029
vt -0.073516 0.068369
vt 0.074805 0.069029
vt 0.107133 0.005847
vt 0.105844 0.005187
vt 0.073516 0.068369
vt 0.068694 0.071644
vt 0.069883 0.070817
vt 0.069057 0.069628
vt 0.067867 0.070455
vt -0.069057 0.069628
vt -0.069883 0.070817
vt -0.068694 0.071644
vt -0.067867 0.070455
vt 0.025151 0.020112
vt 0.001365 -0.046755
vt 0.000000 -0.046270
vt 0.023786 0.020598
vt -0.000000 -0.046270
vt -0.001365 -0.046755
vt -0.025151 0.020112
vt -0.023786 0.020598
vt 0.014648 0.107453
vt 0.015475 0.108642
vt 0.069586 0.071024
vt 0.068759 0.069834
vt -0.069586 0.071024
vt -0.015475 0.108642
vt -0.014648 0.107453
vt -0.068759 0.069834
vt 0.106473 0.007136
vt 0.107133 0.005847
vt 0.105844 0.005187
vt 0.105184 0.006477
vt -0.105844 0.005187
vt -0.107133 0.005847
vt -0.106473 0.007136
vt -0.105184 0.006477
vt 0.001024 -0.046634
vt -0.061068 -0.024547
vt -0.060582 -0.023183
vt 0.001509 -0.045269
vt 0.060582 -0.023183
vt 0.061067 -0.024547
vt -0.001024 -0.046634
vt -0.001509 -0.045269
s off
f 1/1/1 2/2/2 3/3/3
f 1/1/1 3/3/3 4/4/4
f 5/5/5 6/6/6 7/7/7
f 5/5/5 7/7/7 8/8/8
f 9/9/9 10/10/10 11/11/11
f 9/9/9 11/11/11 12/12/12
f 13/13/13 14/14/14 15/15/15
f 13/13/13 15/15/15 16/16/16
f 17/17/17 18/18/18 19/19/19
f 17/17/17 19/19/19 20/20/20
f 21/21/21 22/22/22 23/23/23
f 21/21/21 23/23/23 24/24/24
f 25/25/25 26/26/26 27/27/27
f 25/25/25 27/27/27 28/28/28
f 29/29/29 30/30/30 31/31/31
f 29/29/29 31/31/31 32/32/32
f 33/33/33 34/34/34 35/35/35
f 33/33/33 35/35/35 36/36/36
f 37/37/37 38/38/38 39/39/39
f 37/37/37 39/39/39 40/40/40
f 41/41/41 42/42/42 43/43/43
f 41/41/41 43/43/43 44/44/44
f 45/45/45 46/46/46 47/47/47
f 45/45/45 47/47/47 48/48/48
f 49/49/49 50/50/50 51/51/51
f 49/49/49 51/51/51 52/52/52
f 53/53/53 54/54/54 55/55/55
f 53/53/53 55/55/55 56/56/56
f 57/57/57 58/58/58 59/59/59
f 57/57/57 59/59/59 60/60/60
f 61/61/61 62/62/62 63/63/63
f 61/61/61 63/63/63 64/64/64
f 65/65/65 66/66/66 67/67/67
f 65/65/65 67/67/67 68/68/68
f 69/69/69 70/70/70 71/71/71
f 69/69/69 71/71/71 72/72/72
f 73/73/73 74/74/74 75/75/75
f 73/73/73 75/75/75 76/76/76
f 77/77/77 78/78/78 79/79/79
f 77/77/77 79/79/79 80/80/80
f 81/81/81 82/82/82 83/83/83
f 81/81/81 83/83/83 84/84/84
f 85/85/85 86/86/86 87/87/87
f 85/85/85 87/87/87 88/88/88
f 89/89/89 90/90/90 91/91/91
f 89/89/89 91/91/91 92/92/92
f 93/93/93 94/94/94 95/95/95
f 93/93/93 95/95/95 96/96/96
f 97/97/97 98/98/98 99/99/99
f 97/97/97 99/99/99 100/100/100
f 101/101/101 102/102/102 103/103/103
f 101/101/101 103/103/103 104/104/104
f 105/105/105 106/106/106 107/107/107
f 105/105/105 107/107/107 108/108/108
f 109/109/109 110/110/110 111/111/111
f 109/109/109 111/111/111 112/112/112
f 113/113/113 114/114/114 115/115/115
f 113/113/113 115/115/115 116/116/116
f 117/117/117 118/118/118 119/119/119
f 117/117/117 119/119/119 120/120/120
f 121/121/121 122/122/122 123/123/123
f 121/121/121 123/123/123 124/124/124
f 125/125/125 126/126/126 127/127/127
f 125/125/125 127/127/127 128/128/128
f 129/129/129 130/130/130 131/131/131
f 129/129/129 131/131/131 132/132/132
f 133/133/133 134/134/134 135/135/135
f 133/133/133 135/135/135 136/136/136
f 137/137/137 138/138/138 139/139/139
f 137/137/137 139/139/139 140/140/140
f 141/141/141 142/142/142 143/143/143
f 141/141/141 143/143/143 144/144/144
f 145/145/145 146/146/146 147/147/147
f 145/145/145 147/147/147 148/148/148
f 149/149/149 150/150/150 151/151/151
f 149/149/149 151/151/151 152/152/152
f 153/153/153 154/154/154 155/155/155
f 153/153/153 155/155/155 156/156/156
f 157/157/157 158/158/158 159/159/159
f 157/157/157 159/159/159 160/160/160
f 161/161/161 162/162/162 163/163/163
f 161/161/161 163/163/163 164/164/164
f 165/165/165 166/166/166 167/167/167
f 165/165/165 167/167/167 168/168/168
f 169/169/169 170/170/170 171/171/171
f 169/169/169 171/171/171 172/172/172
f 173/173/173 174/174/174 175/175/175
f 173/173/173 175/175/175 176/176/176
f 177/177/177 178/178/178 179/179/179
f 177/177/177 179/179/179 180/180/180
f 181/181/181 182/182/182 183/183/183
f 181/181/181 183/183/183 184/184/184
f 185/185/185 186/186/186 187/187/187
f 185/185/185 187/187/187 188/188/188
f 189/189/189 190/190/190 191/191/191
f 189/189/189 191/191/191 192/192/192
f 193/193/193 194/194/194 195/195/195
f 193/193/193 195/195/195 196/196/196
f 197/197/197 198/198/198 199/199/199
f 197/197/197 199/199/199 200/200/200
f 201/201/201 202/202/202 203/203/203
f 201/201/201 203/203/203 204/204/204
f 205/205/205 206/206/206 207/207/207
f 205/205/205 207/207/207 208/208/208
f 209/209/209 210/210/210 211/211/211
f 209/209/209 211/211/211 212/212/212
f 213/213/213 214/214/214 215/215/215
f 213/213/213 215/215/215 216/216/216
f 217/217/217 218/218/218 219/219/219
f 217/217/217 219/219/219 220/220/220
f 221/221/221 222/222/222 223/223/223
f 221/221/221 223/223/223 224/224/224
f 225/225/225 226/226/226 227/227/227
f 225/225/225 227/227/227 228/228/228
f 229/229/229 230/230/230 231/231/231
f 229/229/229 231/231/231 232/232/232
f 233/233/233 234/234/234 235/235/235
f 233/233/233 235/235/235 236/236/236
f 237/237/237 238/238/238 239/239/239
f 237/237/237 239/239/239 240/240/240
