# Exported using automatic converter by Erwin Coumans
mtllib botlab.mtl
#object mesh1885320109

v -0.394222 -0.957952 2.510400
v -0.408106 -0.959840 2.536927
v -0.416406 -0.918837 2.532789
v -0.402662 -0.915757 2.506301
v -0.408106 -0.959840 2.536927
v -0.392208 -0.958301 2.562321
v -0.400391 -0.918289 2.558151
v -0.416406 -0.918837 2.532789
v -0.392208 -0.958301 2.562321
v -0.362425 -0.954876 2.561189
v -0.370633 -0.914661 2.557025
v -0.400391 -0.918289 2.558151
v -0.362425 -0.954876 2.561189
v -0.348541 -0.952989 2.534662
v -0.356889 -0.911580 2.530538
v -0.370633 -0.914661 2.557025
v -0.348541 -0.952989 2.534662
v -0.364440 -0.954527 2.509267
v -0.372903 -0.912128 2.505175
v -0.356889 -0.911580 2.530538
v -0.364440 -0.954527 2.509267
v -0.394222 -0.957952 2.510400
v -0.402662 -0.915757 2.506301
v -0.372903 -0.912128 2.505175
v -0.364440 -0.954527 2.509267
v -0.348541 -0.952989 2.534662
v -0.362425 -0.954876 2.561189
v -0.392208 -0.958301 2.562321
v -0.408106 -0.959840 2.536927
v -0.394222 -0.957952 2.510400
v -0.424801 -0.744640 2.508939
v -0.438391 -0.749135 2.535305
v -0.422081 -0.751542 2.560368
v -0.392183 -0.749453 2.559068
v -0.378593 -0.744957 2.532702
v -0.394902 -0.742551 2.507638
v -0.385434 -0.875343 2.518642
v -0.369351 -0.875349 2.543967
v -0.356889 -0.911580 2.530538
v -0.372903 -0.912128 2.505175
v -0.369351 -0.875349 2.543967
v -0.382998 -0.879215 2.570403
v -0.370633 -0.914661 2.557025
v -0.356889 -0.911580 2.530538
v -0.382998 -0.879215 2.570403
v -0.412728 -0.883075 2.571513
v -0.400391 -0.918289 2.558151
v -0.370633 -0.914661 2.557025
v -0.412728 -0.883075 2.571513
v -0.428811 -0.883069 2.546188
v -0.416406 -0.918837 2.532789
v -0.400391 -0.918289 2.558151
v -0.428811 -0.883069 2.546188
v -0.415163 -0.879202 2.519753
v -0.402662 -0.915757 2.506301
v -0.416406 -0.918837 2.532789
v -0.415163 -0.879202 2.519753
v -0.385434 -0.875343 2.518642
v -0.372903 -0.912128 2.505175
v -0.402662 -0.915757 2.506301
v -0.416805 -0.850682 2.516711
v -0.400702 -0.850847 2.542023
v -0.369351 -0.875349 2.543967
v -0.385434 -0.875343 2.518642
v -0.400702 -0.850847 2.542023
v -0.414326 -0.854894 2.568443
v -0.382998 -0.879215 2.570403
v -0.369351 -0.875349 2.543967
v -0.414326 -0.854894 2.568443
v -0.444053 -0.858777 2.569551
v -0.412728 -0.883075 2.571513
v -0.382998 -0.879215 2.570403
v -0.444053 -0.858777 2.569551
v -0.460156 -0.858613 2.544240
v -0.428811 -0.883069 2.546188
v -0.412728 -0.883075 2.571513
v -0.460156 -0.858613 2.544240
v -0.446532 -0.854565 2.517820
v -0.415163 -0.879202 2.519753
v -0.428811 -0.883069 2.546188
v -0.446532 -0.854565 2.517820
v -0.416805 -0.850682 2.516711
v -0.385434 -0.875343 2.518642
v -0.415163 -0.879202 2.519753
v -0.431315 -0.813741 2.510958
v -0.415116 -0.814748 2.536188
v -0.400702 -0.850847 2.542023
v -0.416805 -0.850682 2.516711
v -0.415116 -0.814748 2.536188
v -0.428728 -0.818904 2.562597
v -0.414326 -0.854894 2.568443
v -0.400702 -0.850847 2.542023
v -0.428728 -0.818904 2.562597
v -0.458538 -0.822053 2.563776
v -0.444053 -0.858777 2.569551
v -0.414326 -0.854894 2.568443
v -0.458538 -0.822053 2.563776
v -0.474738 -0.821047 2.538546
v -0.460156 -0.858613 2.544240
v -0.444053 -0.858777 2.569551
v -0.474738 -0.821047 2.538546
v -0.461126 -0.816891 2.512136
v -0.446532 -0.854565 2.517820
v -0.460156 -0.858613 2.544240
v -0.461126 -0.816891 2.512136
v -0.431315 -0.813741 2.510958
v -0.416805 -0.850682 2.516711
v -0.446532 -0.854565 2.517820
v -0.411070 -0.779810 2.506956
v -0.394808 -0.781532 2.532107
v -0.415116 -0.814748 2.536188
v -0.431315 -0.813741 2.510958
v -0.394808 -0.781532 2.532107
v -0.408426 -0.785617 2.558525
v -0.428728 -0.818904 2.562597
v -0.415116 -0.814748 2.536188
v -0.408426 -0.785617 2.558525
v -0.438306 -0.787979 2.559791
v -0.458538 -0.822053 2.563776
v -0.428728 -0.818904 2.562597
v -0.438306 -0.787979 2.559791
v -0.454568 -0.786257 2.534640
v -0.474738 -0.821047 2.538546
v -0.458538 -0.822053 2.563776
v -0.454568 -0.786257 2.534640
v -0.440950 -0.782172 2.508222
v -0.461126 -0.816891 2.512136
v -0.474738 -0.821047 2.538546
v -0.440950 -0.782172 2.508222
v -0.411070 -0.779810 2.506956
v -0.431315 -0.813741 2.510958
v -0.461126 -0.816891 2.512136
v -0.394902 -0.742551 2.507638
v -0.378593 -0.744957 2.532702
v -0.394808 -0.781532 2.532107
v -0.411070 -0.779810 2.506956
v -0.378593 -0.744957 2.532702
v -0.392183 -0.749453 2.559068
v -0.408426 -0.785617 2.558525
v -0.394808 -0.781532 2.532107
v -0.392183 -0.749453 2.559068
v -0.422081 -0.751542 2.560368
v -0.438306 -0.787979 2.559791
v -0.408426 -0.785617 2.558525
v -0.422081 -0.751542 2.560368
v -0.438391 -0.749135 2.535305
v -0.454568 -0.786257 2.534640
v -0.438306 -0.787979 2.559791
v -0.438391 -0.749135 2.535305
v -0.424801 -0.744640 2.508939
v -0.440950 -0.782172 2.508222
v -0.454568 -0.786257 2.534640
v -0.424801 -0.744640 2.508939
v -0.394902 -0.742551 2.507638
v -0.411070 -0.779810 2.506956
v -0.440950 -0.782172 2.508222
usemtl mat15

vn -0.856806 -0.218623 -0.466999
vn -0.856806 -0.218623 -0.466999
vn -0.856806 -0.218623 -0.466999
vn -0.856806 -0.218623 -0.466999
vn -0.838691 -0.116085 0.532093
vn -0.838691 -0.116085 0.532093
vn -0.838691 -0.116085 0.532093
vn -0.838691 -0.116085 0.532093
vn 0.024859 0.108301 0.993807
vn 0.024859 0.108301 0.993807
vn 0.024859 0.108301 0.993807
vn 0.024859 0.108301 0.993807
vn 0.856220 0.221068 0.466922
vn 0.856220 0.221068 0.466922
vn 0.856220 0.221068 0.466922
vn 0.856220 0.221068 0.466922
vn 0.838693 0.116072 -0.532091
vn 0.838693 0.116072 -0.532091
vn 0.838693 0.116072 -0.532091
vn 0.838693 0.116072 -0.532091
vn -0.025704 -0.101428 -0.994511
vn -0.025704 -0.101428 -0.994511
vn -0.025704 -0.101428 -0.994511
vn -0.025704 -0.101428 -0.994511
vn 0.113831 -0.993438 -0.011097
vn 0.113831 -0.993438 -0.011097
vn 0.113831 -0.993438 -0.011097
vn 0.113831 -0.993438 -0.011097
vn 0.113831 -0.993438 -0.011097
vn 0.113831 -0.993438 -0.011097
vn -0.063162 0.988689 0.136033
vn -0.063162 0.988689 0.136033
vn -0.063162 0.988689 0.136033
vn -0.063162 0.988689 0.136033
vn -0.063162 0.988689 0.136033
vn -0.063162 0.988689 0.136033
vn 0.757505 0.437703 -0.484358
vn 0.757505 0.437703 -0.484358
vn 0.757505 0.437703 -0.484358
vn 0.757505 0.437703 -0.484358
vn 0.873955 0.127297 0.469040
vn 0.873955 0.127297 0.469040
vn 0.873955 0.127297 0.469040
vn 0.873955 0.127297 0.469040
vn 0.076814 -0.329274 0.941105
vn 0.076814 -0.329274 0.941105
vn 0.076814 -0.329274 0.941105
vn 0.076814 -0.329274 0.941105
vn -0.754480 -0.444892 0.482526
vn -0.754480 -0.444892 0.482526
vn -0.754480 -0.444892 0.482526
vn -0.754480 -0.444892 0.482526
vn -0.874027 -0.126870 -0.469021
vn -0.874027 -0.126870 -0.469021
vn -0.874027 -0.126870 -0.469021
vn -0.874027 -0.126870 -0.469021
vn -0.075852 0.320658 -0.944153
vn -0.075852 0.320658 -0.944153
vn -0.075852 0.320658 -0.944153
vn -0.075852 0.320658 -0.944153
vn 0.587031 0.719708 -0.370696
vn 0.587031 0.719708 -0.370696
vn 0.587031 0.719708 -0.370696
vn 0.587031 0.719708 -0.370696
vn 0.549457 0.736879 0.393835
vn 0.549457 0.736879 0.393835
vn 0.549457 0.736879 0.393835
vn 0.549457 0.736879 0.393835
vn 0.022809 0.109545 0.993720
vn 0.022809 0.109545 0.993720
vn 0.022809 0.109545 0.993720
vn 0.022809 0.109545 0.993720
vn -0.584856 -0.722187 0.369310
vn -0.584856 -0.722187 0.369310
vn -0.584856 -0.722187 0.369310
vn -0.584856 -0.722187 0.369310
vn -0.551162 -0.735263 -0.394473
vn -0.551162 -0.735263 -0.394473
vn -0.551162 -0.735263 -0.394473
vn -0.551162 -0.735263 -0.394473
vn -0.023114 -0.107328 -0.993955
vn -0.023114 -0.107328 -0.993955
vn -0.023114 -0.107328 -0.993955
vn -0.023114 -0.107328 -0.993955
vn 0.820007 0.242463 -0.518460
vn 0.820007 0.242463 -0.518460
vn 0.820007 0.242463 -0.518460
vn 0.820007 0.242463 -0.518460
vn 0.791358 0.392287 0.468897
vn 0.791358 0.392287 0.468897
vn 0.791358 0.392287 0.468897
vn 0.791358 0.392287 0.468897
vn 0.018401 0.164898 0.986139
vn 0.018401 0.164898 0.986139
vn 0.018401 0.164898 0.986139
vn 0.018401 0.164898 0.986139
vn -0.820319 -0.240884 0.518702
vn -0.820319 -0.240884 0.518702
vn -0.820319 -0.240884 0.518702
vn -0.820319 -0.240884 0.518702
vn -0.796798 -0.380007 -0.469795
vn -0.796798 -0.380007 -0.469795
vn -0.796798 -0.380007 -0.469795
vn -0.796798 -0.380007 -0.469795
vn -0.019169 -0.158784 -0.987127
vn -0.019169 -0.158784 -0.987127
vn -0.019169 -0.158784 -0.987127
vn -0.019169 -0.158784 -0.987127
vn 0.718897 -0.493138 -0.489899
vn 0.718897 -0.493138 -0.489899
vn 0.718897 -0.493138 -0.489899
vn 0.718897 -0.493138 -0.489899
vn 0.817856 -0.456462 0.350364
vn 0.817856 -0.456462 0.350364
vn 0.817856 -0.456462 0.350364
vn 0.817856 -0.456462 0.350364
vn 0.031491 0.100019 0.994487
vn 0.031491 0.100019 0.994487
vn 0.031491 0.100019 0.994487
vn 0.031491 0.100019 0.994487
vn -0.724601 0.481613 0.492953
vn -0.724601 0.481613 0.492953
vn -0.724601 0.481613 0.492953
vn -0.724601 0.481613 0.492953
vn -0.824829 0.438628 -0.356739
vn -0.824829 0.438628 -0.356739
vn -0.824829 0.438628 -0.356739
vn -0.824829 0.438628 -0.356739
vn -0.031892 -0.095937 -0.994876
vn -0.031892 -0.095937 -0.994876
vn -0.031892 -0.095937 -0.994876
vn -0.031892 -0.095937 -0.994876
vn 0.778593 -0.332272 -0.532343
vn 0.778593 -0.332272 -0.532343
vn 0.778593 -0.332272 -0.532343
vn 0.778593 -0.332272 -0.532343
vn 0.844994 -0.382906 0.373319
vn 0.844994 -0.382906 0.373319
vn 0.844994 -0.382906 0.373319
vn 0.844994 -0.382906 0.373319
vn 0.045522 -0.035767 0.998323
vn 0.045522 -0.035767 0.998323
vn 0.045522 -0.035767 0.998323
vn 0.045522 -0.035767 0.998323
vn -0.778093 0.333756 0.532145
vn -0.778093 0.333756 0.532145
vn -0.778093 0.333756 0.532145
vn -0.778093 0.333756 0.532145
vn -0.847706 0.374030 -0.376160
vn -0.847706 0.374030 -0.376160
vn -0.847706 0.374030 -0.376160
vn -0.847706 0.374030 -0.376160
vn -0.045723 0.038429 -0.998215
vn -0.045723 0.038429 -0.998215
vn -0.045723 0.038429 -0.998215
vn -0.045723 0.038429 -0.998215

vt -0.065889 -0.332687
vt -0.066870 -0.335522
vt -0.070758 -0.333923
vt -0.069890 -0.331051
vt -0.223104 0.116556
vt -0.225566 0.118270
vt -0.222767 0.121273
vt -0.220249 0.119642
vt -0.037773 -0.108925
vt -0.038860 -0.106129
vt -0.034905 -0.104956
vt -0.033837 -0.107759
vt 0.065281 -0.335940
vt 0.064306 -0.333103
vt 0.068236 -0.331500
vt 0.069097 -0.334374
vt 0.225612 0.118203
vt 0.223150 0.116489
vt 0.220217 0.119692
vt 0.222734 0.121323
vt 0.036312 -0.105029
vt 0.035229 -0.107826
vt 0.031087 -0.106588
vt 0.032152 -0.103783
vt 0.298360 -0.178976
vt 0.301280 -0.178292
vt 0.303333 -0.180480
vt 0.302465 -0.183352
vt 0.299544 -0.184035
vt 0.297491 -0.181848
vt -0.287389 -0.195866
vt -0.289343 -0.198142
vt -0.292291 -0.197587
vt -0.293285 -0.194756
vt -0.291330 -0.192481
vt -0.288382 -0.193035
vt -0.074396 0.248779
vt -0.074442 0.251778
vt -0.070402 0.251376
vt -0.070302 0.248378
vt 0.107017 -0.321266
vt 0.108032 -0.324089
vt 0.104047 -0.324156
vt 0.102958 -0.321361
vt 0.103619 -0.064989
vt 0.104274 -0.067917
vt 0.100311 -0.067963
vt 0.099634 -0.065041
vt 0.087580 0.248494
vt 0.087417 0.245498
vt 0.083409 0.245250
vt 0.083624 0.248242
vt -0.108445 -0.323939
vt -0.107430 -0.321116
vt -0.103340 -0.321224
vt -0.104430 -0.324019
vt -0.100249 -0.068543
vt -0.099584 -0.065618
vt -0.095472 -0.065713
vt -0.096159 -0.068633
vt -0.290764 -0.003912
vt -0.293347 -0.002387
vt -0.293159 0.001592
vt -0.290569 0.000078
vt -0.167850 -0.301994
vt -0.168797 -0.304841
vt -0.172171 -0.302747
vt -0.171236 -0.299896
vt -0.028341 -0.105719
vt -0.027295 -0.108530
vt -0.030918 -0.106910
vt -0.031967 -0.104100
vt 0.295274 -0.006953
vt 0.292684 -0.008467
vt 0.292514 -0.004491
vt 0.295110 -0.002988
vt 0.164599 -0.306358
vt 0.163658 -0.303509
vt 0.167058 -0.301415
vt 0.167987 -0.304267
vt 0.025716 -0.107911
vt 0.026761 -0.105099
vt 0.030417 -0.103490
vt 0.029370 -0.106301
vt 0.156586 0.194175
vt 0.158785 0.196216
vt 0.162305 0.194467
vt 0.160165 0.192365
vt 0.004094 -0.339883
vt 0.004340 -0.342873
vt 0.000478 -0.343552
vt 0.000222 -0.340563
vt -0.040364 -0.113284
vt -0.039218 -0.116056
vt -0.043173 -0.116577
vt -0.044253 -0.113778
vt -0.159441 0.195704
vt -0.157235 0.193671
vt -0.160850 0.191802
vt -0.162998 0.193896
vt -0.011820 -0.342496
vt -0.011535 -0.339510
vt -0.007524 -0.340254
vt -0.007819 -0.343239
vt 0.036185 -0.114742
vt 0.037328 -0.111968
vt 0.041304 -0.112491
vt 0.040228 -0.115291
vt 0.271923 -0.077881
vt 0.274853 -0.077239
vt 0.275126 -0.081144
vt 0.272209 -0.081842
vt 0.257853 -0.225133
vt 0.259746 -0.227460
vt 0.258112 -0.231024
vt 0.256224 -0.228692
vt -0.018531 -0.102923
vt -0.017354 -0.105682
vt -0.019441 -0.109074
vt -0.020547 -0.106285
vt -0.275085 -0.077033
vt -0.272156 -0.077680
vt -0.272465 -0.081708
vt -0.275381 -0.081005
vt -0.255124 -0.231684
vt -0.253248 -0.229343
vt -0.251490 -0.232975
vt -0.253361 -0.235319
vt 0.015165 -0.104730
vt 0.016341 -0.101970
vt 0.018418 -0.105355
vt 0.017315 -0.108144
vt 0.262349 -0.026085
vt 0.265265 -0.025381
vt 0.265572 -0.029371
vt 0.262671 -0.030135
vt 0.248570 -0.233265
vt 0.250365 -0.235670
vt 0.248080 -0.238910
vt 0.246255 -0.236528
vt 0.024297 -0.083393
vt 0.025406 -0.086181
vt 0.022823 -0.089220
vt 0.021739 -0.086422
vt -0.265916 -0.028099
vt -0.263000 -0.028802
vt -0.263317 -0.032839
vt -0.266219 -0.032076
vt -0.247285 -0.238262
vt -0.245500 -0.235850
vt -0.243100 -0.239158
vt -0.244916 -0.241546
vt -0.026655 -0.085688
vt -0.025547 -0.082900
vt -0.022884 -0.085967
vt -0.023966 -0.088765
s off
f 1/1/1 2/2/2 3/3/3
f 1/1/1 3/3/3 4/4/4
f 5/5/5 6/6/6 7/7/7
f 5/5/5 7/7/7 8/8/8
f 9/9/9 10/10/10 11/11/11
f 9/9/9 11/11/11 12/12/12
f 13/13/13 14/14/14 15/15/15
f 13/13/13 15/15/15 16/16/16
f 17/17/17 18/18/18 19/19/19
f 17/17/17 19/19/19 20/20/20
f 21/21/21 22/22/22 23/23/23
f 21/21/21 23/23/23 24/24/24
f 25/25/25 26/26/26 27/27/27
f 25/25/25 27/27/27 28/28/28
f 25/25/25 28/28/28 29/29/29
f 25/25/25 29/29/29 30/30/30
f 31/31/31 32/32/32 33/33/33
f 31/31/31 33/33/33 34/34/34
f 31/31/31 34/34/34 35/35/35
f 31/31/31 35/35/35 36/36/36
f 37/37/37 38/38/38 39/39/39
f 37/37/37 39/39/39 40/40/40
f 41/41/41 42/42/42 43/43/43
f 41/41/41 43/43/43 44/44/44
f 45/45/45 46/46/46 47/47/47
f 45/45/45 47/47/47 48/48/48
f 49/49/49 50/50/50 51/51/51
f 49/49/49 51/51/51 52/52/52
f 53/53/53 54/54/54 55/55/55
f 53/53/53 55/55/55 56/56/56
f 57/57/57 58/58/58 59/59/59
f 57/57/57 59/59/59 60/60/60
f 61/61/61 62/62/62 63/63/63
f 61/61/61 63/63/63 64/64/64
f 65/65/65 66/66/66 67/67/67
f 65/65/65 67/67/67 68/68/68
f 69/69/69 70/70/70 71/71/71
f 69/69/69 71/71/71 72/72/72
f 73/73/73 74/74/74 75/75/75
f 73/73/73 75/75/75 76/76/76
f 77/77/77 78/78/78 79/79/79
f 77/77/77 79/79/79 80/80/80
f 81/81/81 82/82/82 83/83/83
f 81/81/81 83/83/83 84/84/84
f 85/85/85 86/86/86 87/87/87
f 85/85/85 87/87/87 88/88/88
f 89/89/89 90/90/90 91/91/91
f 89/89/89 91/91/91 92/92/92
f 93/93/93 94/94/94 95/95/95
f 93/93/93 95/95/95 96/96/96
f 97/97/97 98/98/98 99/99/99
f 97/97/97 99/99/99 100/100/100
f 101/101/101 102/102/102 103/103/103
f 101/101/101 103/103/103 104/104/104
f 105/105/105 106/106/106 107/107/107
f 105/105/105 107/107/107 108/108/108
f 109/109/109 110/110/110 111/111/111
f 109/109/109 111/111/111 112/112/112
f 113/113/113 114/114/114 115/115/115
f 113/113/113 115/115/115 116/116/116
f 117/117/117 118/118/118 119/119/119
f 117/117/117 119/119/119 120/120/120
f 121/121/121 122/122/122 123/123/123
f 121/121/121 123/123/123 124/124/124
f 125/125/125 126/126/126 127/127/127
f 125/125/125 127/127/127 128/128/128
f 129/129/129 130/130/130 131/131/131
f 129/129/129 131/131/131 132/132/132
f 133/133/133 134/134/134 135/135/135
f 133/133/133 135/135/135 136/136/136
f 137/137/137 138/138/138 139/139/139
f 137/137/137 139/139/139 140/140/140
f 141/141/141 142/142/142 143/143/143
f 141/141/141 143/143/143 144/144/144
f 145/145/145 146/146/146 147/147/147
f 145/145/145 147/147/147 148/148/148
f 149/149/149 150/150/150 151/151/151
f 149/149/149 151/151/151 152/152/152
f 153/153/153 154/154/154 155/155/155
f 153/153/153 155/155/155 156/156/156
