# Exported using automatic converter by Erwin Coumans
mtllib botlab.mtl
#object mesh1251787342

v 1.211514 -0.523407 -2.306412
v 1.213868 -0.582764 -2.338529
v 1.214633 -0.582892 -2.283776
v 1.232112 -0.583305 -2.338785
v 1.229757 -0.523948 -2.306667
v 1.232876 -0.583433 -2.284032
v 1.213868 -0.582764 -2.338529
v 1.232112 -0.583305 -2.338785
v 1.232876 -0.583433 -2.284032
v 1.214633 -0.582892 -2.283776
v 1.225260 -0.523824 -2.302041
v 1.229757 -0.523948 -2.306667
v 1.211514 -0.523407 -2.306412
v 1.232876 -0.583433 -2.284032
v 1.211514 -0.523407 -2.306412
v 1.214633 -0.582892 -2.283776
v 1.211514 -0.523407 -2.306412
v 1.229757 -0.523948 -2.306667
v 1.232112 -0.583305 -2.338785
v 1.213868 -0.582764 -2.338529
v 1.229757 -0.523948 -2.306667
v 1.225260 -0.523824 -2.302041
v 1.232876 -0.583433 -2.284032
v 1.232876 -0.583433 -2.284032
v 1.225260 -0.523824 -2.302041
v 1.211514 -0.523407 -2.306412
usemtl mat12

vn -0.998794 -0.047115 0.013838
vn -0.998794 -0.047115 0.013838
vn -0.998794 -0.047115 0.013838
vn 0.998794 0.047115 -0.013838
vn 0.998794 0.047115 -0.013838
vn 0.998794 0.047115 -0.013838
vn -0.029665 -0.999558 -0.001926
vn -0.029665 -0.999558 -0.001926
vn -0.029665 -0.999558 -0.001926
vn -0.029665 -0.999558 -0.001926
vn 0.000000 0.000000 0.000000
vn 0.000000 0.000000 0.000000
vn 0.000000 0.000000 0.000000
vn 0.023682 0.356636 0.933943
vn 0.023682 0.356636 0.933943
vn 0.023682 0.356636 0.933943
vn 0.001770 0.475953 -0.879469
vn 0.001770 0.475953 -0.879469
vn 0.001770 0.475953 -0.879469
vn 0.001770 0.475953 -0.879469
vn 0.690436 0.288621 0.663322
vn 0.690436 0.288621 0.663322
vn 0.690436 0.288621 0.663322
vn -0.287226 0.243202 0.926474
vn -0.287226 0.243202 0.926474
vn -0.287226 0.243202 0.926474

vt 0.116770 0.078320
vt 0.122918 0.075527
vt 0.118565 0.072205
vt -0.123003 0.075416
vt -0.116855 0.078208
vt -0.118649 0.072094
vt -0.105060 0.134847
vt -0.104460 0.136571
vt -0.099288 0.134772
vt -0.099888 0.133048
vt 0.000000 0.000000
vt 0.000000 0.000000
vt 0.000000 0.000000
vt -0.013905 0.102888
vt -0.007304 0.104315
vt -0.012939 0.101339
vt 0.091869 0.068531
vt 0.092403 0.070277
vt 0.098980 0.068745
vt 0.098446 0.066999
vt -0.051155 0.158004
vt -0.050924 0.157402
vt -0.056521 0.154568
vt -0.004792 0.055289
vt 0.000875 0.057980
vt 0.001777 0.056854
s off
f 1/1/1 2/2/2 3/3/3
f 4/4/4 5/5/5 6/6/6
f 7/7/7 8/8/8 9/9/9
f 7/7/7 9/9/9 10/10/10
f 11/11/11 12/12/12 13/13/13
f 14/14/14 15/15/15 16/16/16
f 17/17/17 18/18/18 19/19/19
f 17/17/17 19/19/19 20/20/20
f 21/21/21 22/22/22 23/23/23
f 24/24/24 25/25/25 26/26/26
