# Exported using automatic converter by Erwin Coumans
mtllib botlab.mtl
#object mesh86719701

v 1.227016 1.008561 -0.545650
v 1.230173 1.010457 -0.559304
v 0.356311 1.729507 -0.522416
v 0.349988 1.731946 -0.510003
v 1.230173 1.010457 -0.559304
v 1.218754 1.002968 -0.562983
v 0.346826 1.719412 -0.525263
v 0.356311 1.729507 -0.522416
v 1.218754 1.002968 -0.562983
v 1.215597 1.001073 -0.549329
v 0.340503 1.721851 -0.512850
v 0.346826 1.719412 -0.525263
v 1.215597 1.001073 -0.549329
v 1.227016 1.008561 -0.545650
v 0.349988 1.731946 -0.510003
v 0.340503 1.721851 -0.512850
v 1.215597 1.001073 -0.549329
v 1.218754 1.002968 -0.562983
v 1.230173 1.010457 -0.559304
v 1.227016 1.008561 -0.545650
v 0.349988 1.731946 -0.510003
v 0.356311 1.729507 -0.522416
v 0.346826 1.719412 -0.525263
v 0.340503 1.721851 -0.512850
usemtl mat23

vn 0.626587 0.749907 0.212196
vn 0.626587 0.749907 0.212196
vn 0.626587 0.749907 0.212196
vn 0.626587 0.749907 0.212196
vn 0.128714 0.206944 -0.969849
vn 0.128714 0.206944 -0.969849
vn 0.128714 0.206944 -0.969849
vn 0.128714 0.206944 -0.969849
vn -0.626218 -0.750255 -0.212057
vn -0.626218 -0.750255 -0.212057
vn -0.626218 -0.750255 -0.212057
vn -0.626218 -0.750255 -0.212057
vn -0.129705 -0.205806 0.969959
vn -0.129705 -0.205806 0.969959
vn -0.129705 -0.205806 0.969959
vn -0.129705 -0.205806 0.969959
vn 0.546095 -0.837664 0.009974
vn 0.546095 -0.837664 0.009974
vn 0.546095 -0.837664 0.009974
vn 0.546095 -0.837664 0.009974
vn -0.591862 0.678709 -0.434803
vn -0.591862 0.678709 -0.434803
vn -0.591862 0.678709 -0.434803
vn -0.591862 0.678709 -0.434803

vt 0.021758 -0.013152
vt 0.022536 -0.011971
vt 0.109045 -0.085023
vt 0.108769 -0.086409
vt -0.102764 0.145836
vt -0.102495 0.144449
vt -0.202934 0.092856
vt -0.203505 0.094148
vt -0.022805 -0.012131
vt -0.022027 -0.013311
vt -0.108683 -0.086503
vt -0.108960 -0.085117
vt 0.102537 0.144444
vt 0.102805 0.145832
vt 0.204090 0.094077
vt 0.203520 0.092784
vt 0.081397 0.138855
vt 0.080211 0.139624
vt 0.080980 0.140811
vt 0.082167 0.140042
vt -0.154215 0.097635
vt -0.153059 0.098450
vt -0.152244 0.097295
vt -0.153399 0.096479
s off
f 1/1/1 2/2/2 3/3/3
f 1/1/1 3/3/3 4/4/4
f 5/5/5 6/6/6 7/7/7
f 5/5/5 7/7/7 8/8/8
f 9/9/9 10/10/10 11/11/11
f 9/9/9 11/11/11 12/12/12
f 13/13/13 14/14/14 15/15/15
f 13/13/13 15/15/15 16/16/16
f 17/17/17 18/18/18 19/19/19
f 17/17/17 19/19/19 20/20/20
f 21/21/21 22/22/22 23/23/23
f 21/21/21 23/23/23 24/24/24
