# Exported using automatic converter by Erwin Coumans
mtllib botlab.mtl
#object mesh1730784535

v -2.236762 -0.724511 -3.540148
v -2.229262 -0.726521 -3.540148
v -2.229262 -0.726521 -3.570148
v -2.236762 -0.724511 -3.570148
v -2.229262 -0.726521 -3.540148
v -2.223772 -0.732011 -3.540148
v -2.223772 -0.732011 -3.570148
v -2.229262 -0.726521 -3.570148
v -2.223772 -0.732011 -3.540148
v -2.221762 -0.739511 -3.540148
v -2.221762 -0.739511 -3.570148
v -2.223772 -0.732011 -3.570148
v -2.221762 -0.739511 -3.540148
v -2.223772 -0.747011 -3.540148
v -2.223772 -0.747011 -3.570148
v -2.221762 -0.739511 -3.570148
v -2.223772 -0.747011 -3.540148
v -2.229262 -0.752501 -3.540148
v -2.229262 -0.752501 -3.570148
v -2.223772 -0.747011 -3.570148
v -2.229262 -0.752501 -3.540148
v -2.236762 -0.754511 -3.540148
v -2.236762 -0.754511 -3.570148
v -2.229262 -0.752501 -3.570148
v -2.236762 -0.754511 -3.540148
v -2.244262 -0.752501 -3.540148
v -2.244262 -0.752501 -3.570148
v -2.236762 -0.754511 -3.570148
v -2.244262 -0.752501 -3.540148
v -2.249753 -0.747011 -3.540148
v -2.249753 -0.747011 -3.570148
v -2.244262 -0.752501 -3.570148
v -2.249753 -0.747011 -3.540148
v -2.251762 -0.739511 -3.540148
v -2.251762 -0.739511 -3.570148
v -2.249753 -0.747011 -3.570148
v -2.251762 -0.739511 -3.540148
v -2.249753 -0.732011 -3.540148
v -2.249753 -0.732011 -3.570148
v -2.251762 -0.739511 -3.570148
v -2.249753 -0.732011 -3.540148
v -2.244262 -0.726521 -3.540148
v -2.244262 -0.726521 -3.570148
v -2.249753 -0.732011 -3.570148
v -2.244262 -0.726521 -3.540148
v -2.236762 -0.724511 -3.540148
v -2.236762 -0.724511 -3.570148
v -2.244262 -0.726521 -3.570148
v -2.236762 -0.724511 -3.570148
v -2.229262 -0.726521 -3.570148
v -2.223772 -0.732011 -3.570148
v -2.221762 -0.739511 -3.570148
v -2.223772 -0.747011 -3.570148
v -2.229262 -0.752501 -3.570148
v -2.236762 -0.754511 -3.570148
v -2.244262 -0.752501 -3.570148
v -2.249753 -0.747011 -3.570148
v -2.251762 -0.739511 -3.570148
v -2.249753 -0.732011 -3.570148
v -2.244262 -0.726521 -3.570148
v -2.244262 -0.726521 -3.540148
v -2.249753 -0.732011 -3.540148
v -2.251762 -0.739511 -3.540148
v -2.249753 -0.747011 -3.540148
v -2.244262 -0.752501 -3.540148
v -2.236762 -0.754511 -3.540148
v -2.229262 -0.752501 -3.540148
v -2.223772 -0.747011 -3.540148
v -2.221762 -0.739511 -3.540148
v -2.223772 -0.732011 -3.540148
v -2.229262 -0.726521 -3.540148
v -2.236762 -0.724511 -3.540148
usemtl mat15

vn 0.000000 1.000000 -0.000000
vn 0.000000 1.000000 -0.000000
vn 0.000000 1.000000 -0.000000
vn 0.000000 1.000000 -0.000000
vn 0.500000 0.866025 -0.000000
vn 0.500000 0.866025 -0.000000
vn 0.500000 0.866025 -0.000000
vn 0.500000 0.866025 -0.000000
vn 0.866025 0.500000 -0.000000
vn 0.866025 0.500000 -0.000000
vn 0.866025 0.500000 -0.000000
vn 0.866025 0.500000 -0.000000
vn 1.000000 -0.000000 0.000000
vn 1.000000 -0.000000 0.000000
vn 1.000000 -0.000000 0.000000
vn 1.000000 -0.000000 0.000000
vn 0.866025 -0.500000 0.000000
vn 0.866025 -0.500000 0.000000
vn 0.866025 -0.500000 0.000000
vn 0.866025 -0.500000 0.000000
vn 0.500000 -0.866025 0.000000
vn 0.500000 -0.866025 0.000000
vn 0.500000 -0.866025 0.000000
vn 0.500000 -0.866025 0.000000
vn -0.000000 -1.000000 0.000000
vn -0.000000 -1.000000 0.000000
vn -0.000000 -1.000000 0.000000
vn -0.000000 -1.000000 0.000000
vn -0.500000 -0.866025 0.000000
vn -0.500000 -0.866025 0.000000
vn -0.500000 -0.866025 0.000000
vn -0.500000 -0.866025 0.000000
vn -0.866025 -0.500000 0.000000
vn -0.866025 -0.500000 0.000000
vn -0.866025 -0.500000 0.000000
vn -0.866025 -0.500000 0.000000
vn -1.000000 0.000000 -0.000000
vn -1.000000 0.000000 -0.000000
vn -1.000000 0.000000 -0.000000
vn -1.000000 0.000000 -0.000000
vn -0.866025 0.500000 -0.000000
vn -0.866025 0.500000 -0.000000
vn -0.866025 0.500000 -0.000000
vn -0.866025 0.500000 -0.000000
vn -0.500000 0.866026 -0.000000
vn -0.500000 0.866026 -0.000000
vn -0.500000 0.866026 -0.000000
vn -0.500000 0.866026 -0.000000
vn 0.000000 -0.000000 -1.000000
vn 0.000000 -0.000000 -1.000000
vn 0.000000 -0.000000 -1.000000
vn 0.000000 -0.000000 -1.000000
vn 0.000000 -0.000000 -1.000000
vn 0.000000 -0.000000 -1.000000
vn 0.000000 -0.000000 -1.000000
vn 0.000000 -0.000000 -1.000000
vn 0.000000 -0.000000 -1.000000
vn 0.000000 -0.000000 -1.000000
vn 0.000000 -0.000000 -1.000000
vn 0.000000 -0.000000 -1.000000
vn 0.000000 0.000000 1.000000
vn 0.000000 0.000000 1.000000
vn 0.000000 0.000000 1.000000
vn 0.000000 0.000000 1.000000
vn 0.000000 0.000000 1.000000
vn 0.000000 0.000000 1.000000
vn 0.000000 0.000000 1.000000
vn 0.000000 0.000000 1.000000
vn 0.000000 0.000000 1.000000
vn 0.000000 0.000000 1.000000
vn 0.000000 0.000000 1.000000
vn 0.000000 0.000000 1.000000

vt 0.335159 -0.150544
vt 0.334907 -0.149838
vt 0.337732 -0.148829
vt 0.337984 -0.149535
vt 0.333408 -0.046733
vt 0.333032 -0.046084
vt 0.335627 -0.044579
vt 0.336004 -0.045228
vt 0.152216 0.241071
vt 0.151479 0.241209
vt 0.152032 0.244158
vt 0.152770 0.244019
vt -0.230461 0.133278
vt -0.230897 0.132668
vt -0.233338 0.134411
vt -0.232902 0.135022
vt -0.300873 -0.044731
vt -0.301141 -0.045431
vt -0.303943 -0.044359
vt -0.303675 -0.043658
vt -0.323454 -0.141292
vt -0.323682 -0.142006
vt -0.326539 -0.141091
vt -0.326311 -0.140377
vt -0.335159 -0.150544
vt -0.335411 -0.151250
vt -0.338237 -0.150241
vt -0.337984 -0.149535
vt -0.333408 -0.046733
vt -0.333784 -0.047382
vt -0.336380 -0.045877
vt -0.336004 -0.045228
vt -0.152216 0.241071
vt -0.152954 0.240932
vt -0.153507 0.243881
vt -0.152770 0.244019
vt 0.230461 0.133278
vt 0.230025 0.133888
vt 0.232466 0.135632
vt 0.232902 0.135022
vt 0.300873 -0.044731
vt 0.300605 -0.044030
vt 0.303407 -0.042958
vt 0.303675 -0.043658
vt 0.323454 -0.141292
vt 0.323225 -0.140577
vt 0.326082 -0.139663
vt 0.326311 -0.140377
vt -0.092350 -0.238365
vt -0.091834 -0.237784
vt -0.091098 -0.237538
vt -0.090337 -0.237694
vt -0.089756 -0.238209
vt -0.089511 -0.238946
vt -0.089666 -0.239707
vt -0.090182 -0.240287
vt -0.090918 -0.240533
vt -0.091679 -0.240377
vt -0.092260 -0.239862
vt -0.092505 -0.239126
vt 0.092505 -0.239126
vt 0.092260 -0.239862
vt 0.091679 -0.240377
vt 0.090918 -0.240533
vt 0.090182 -0.240287
vt 0.089666 -0.239707
vt 0.089511 -0.238946
vt 0.089756 -0.238209
vt 0.090337 -0.237694
vt 0.091098 -0.237538
vt 0.091834 -0.237784
vt 0.092350 -0.238365
s off
f 1/1/1 2/2/2 3/3/3
f 1/1/1 3/3/3 4/4/4
f 5/5/5 6/6/6 7/7/7
f 5/5/5 7/7/7 8/8/8
f 9/9/9 10/10/10 11/11/11
f 9/9/9 11/11/11 12/12/12
f 13/13/13 14/14/14 15/15/15
f 13/13/13 15/15/15 16/16/16
f 17/17/17 18/18/18 19/19/19
f 17/17/17 19/19/19 20/20/20
f 21/21/21 22/22/22 23/23/23
f 21/21/21 23/23/23 24/24/24
f 25/25/25 26/26/26 27/27/27
f 25/25/25 27/27/27 28/28/28
f 29/29/29 30/30/30 31/31/31
f 29/29/29 31/31/31 32/32/32
f 33/33/33 34/34/34 35/35/35
f 33/33/33 35/35/35 36/36/36
f 37/37/37 38/38/38 39/39/39
f 37/37/37 39/39/39 40/40/40
f 41/41/41 42/42/42 43/43/43
f 41/41/41 43/43/43 44/44/44
f 45/45/45 46/46/46 47/47/47
f 45/45/45 47/47/47 48/48/48
f 49/49/49 50/50/50 51/51/51
f 49/49/49 51/51/51 52/52/52
f 49/49/49 52/52/52 53/53/53
f 49/49/49 53/53/53 54/54/54
f 49/49/49 54/54/54 55/55/55
f 49/49/49 55/55/55 56/56/56
f 49/49/49 56/56/56 57/57/57
f 49/49/49 57/57/57 58/58/58
f 49/49/49 58/58/58 59/59/59
f 49/49/49 59/59/59 60/60/60
f 61/61/61 62/62/62 63/63/63
f 61/61/61 63/63/63 64/64/64
f 61/61/61 64/64/64 65/65/65
f 61/61/61 65/65/65 66/66/66
f 61/61/61 66/66/66 67/67/67
f 61/61/61 67/67/67 68/68/68
f 61/61/61 68/68/68 69/69/69
f 61/61/61 69/69/69 70/70/70
f 61/61/61 70/70/70 71/71/71
f 61/61/61 71/71/71 72/72/72
