# Exported using automatic converter by Erwin Coumans
mtllib botlab.mtl
#object mesh542986912

v -1.901763 0.155489 2.349852
v -1.901763 0.445489 2.349852
v -1.901762 0.445489 2.299851
v -1.901762 0.155489 2.299851
v -0.231762 0.445489 2.299851
v -0.231762 0.445489 2.349852
v -0.231762 0.155489 2.349852
v -0.231762 0.155489 2.299851
v -1.901762 0.445489 2.299851
v -0.231762 0.445489 2.299851
v -0.231762 0.155489 2.299851
v -1.901762 0.155489 2.299851
v -0.231762 0.155489 2.349852
v -0.231762 0.445489 2.349852
v -1.901763 0.445489 2.349852
v -1.901763 0.155489 2.349852
v -0.231762 0.155489 2.299851
v -0.231762 0.155489 2.349852
v -1.901763 0.155489 2.349852
v -1.901762 0.155489 2.299851
v -1.901763 0.445489 2.349852
v -0.231762 0.445489 2.349852
v -0.231762 0.445489 2.299851
v -1.901762 0.445489 2.299851
usemtl mat17

vn -1.000000 0.000000 0.000000
vn -1.000000 0.000000 0.000000
vn -1.000000 0.000000 0.000000
vn -1.000000 0.000000 0.000000
vn 1.000000 0.000000 0.000000
vn 1.000000 0.000000 0.000000
vn 1.000000 0.000000 0.000000
vn 1.000000 0.000000 0.000000
vn 0.000000 0.000000 -1.000000
vn 0.000000 0.000000 -1.000000
vn 0.000000 0.000000 -1.000000
vn 0.000000 0.000000 -1.000000
vn 0.000000 -0.000000 1.000000
vn 0.000000 -0.000000 1.000000
vn 0.000000 -0.000000 1.000000
vn 0.000000 -0.000000 1.000000
vn 0.000000 -1.000000 0.000000
vn 0.000000 -1.000000 0.000000
vn 0.000000 -1.000000 0.000000
vn 0.000000 -1.000000 0.000000
vn 0.000000 1.000000 -0.000000
vn 0.000000 1.000000 -0.000000
vn 0.000000 1.000000 -0.000000
vn 0.000000 1.000000 -0.000000

vt -0.300849 -0.136242
vt -0.317705 -0.112644
vt -0.313636 -0.109738
vt -0.296780 -0.133336
vt 0.313636 -0.109738
vt 0.317705 -0.112644
vt 0.300849 -0.136242
vt 0.296780 -0.133336
vt -0.182016 -0.156078
vt -0.107331 -0.006708
vt -0.081393 -0.019677
vt -0.156078 -0.169047
vt 0.081393 -0.019677
vt 0.107331 -0.006708
vt 0.182016 -0.156078
vt 0.156078 -0.169047
vt 0.282254 -0.158145
vt 0.286962 -0.159827
vt 0.230794 -0.317098
vt 0.226085 -0.315416
vt -0.230794 -0.317098
vt -0.286962 -0.159827
vt -0.282254 -0.158145
vt -0.226085 -0.315416
s off
f 1/1/1 2/2/2 3/3/3
f 1/1/1 3/3/3 4/4/4
f 5/5/5 6/6/6 7/7/7
f 5/5/5 7/7/7 8/8/8
f 9/9/9 10/10/10 11/11/11
f 9/9/9 11/11/11 12/12/12
f 13/13/13 14/14/14 15/15/15
f 13/13/13 15/15/15 16/16/16
f 17/17/17 18/18/18 19/19/19
f 17/17/17 19/19/19 20/20/20
f 21/21/21 22/22/22 23/23/23
f 21/21/21 23/23/23 24/24/24
