# Exported using automatic converter by Erwin Coumans
mtllib botlab.mtl
#object mesh832676607

v 3.268238 -0.364511 1.839852
v 3.268238 -0.364511 2.349852
v 3.268238 -1.014511 2.349852
v 3.268238 -1.014511 1.839852
v 3.238238 -1.014511 2.349852
v 3.238238 -0.364511 2.349852
v 3.238238 -0.364511 1.839852
v 3.238238 -1.014511 1.839852
v 3.268238 -1.014511 2.349852
v 3.238238 -1.014511 2.349852
v 3.238238 -1.014511 1.839852
v 3.268238 -1.014511 1.839852
v 3.238238 -0.364511 1.839852
v 3.238238 -0.364511 2.349852
v 3.268238 -0.364511 2.349852
v 3.268238 -0.364511 1.839852
v 3.238238 -1.014511 1.839852
v 3.238238 -0.364511 1.839852
v 3.268238 -0.364511 1.839852
v 3.268238 -1.014511 1.839852
v 3.268238 -0.364511 2.349852
v 3.238238 -0.364511 2.349852
v 3.238238 -1.014511 2.349852
v 3.268238 -1.014511 2.349852
usemtl mat22

vn 1.000000 0.000000 0.000000
vn 1.000000 0.000000 0.000000
vn 1.000000 0.000000 0.000000
vn 1.000000 0.000000 0.000000
vn -1.000000 0.000000 0.000000
vn -1.000000 0.000000 0.000000
vn -1.000000 0.000000 0.000000
vn -1.000000 0.000000 0.000000
vn 0.000000 -1.000000 -0.000000
vn 0.000000 -1.000000 -0.000000
vn 0.000000 -1.000000 -0.000000
vn 0.000000 -1.000000 -0.000000
vn 0.000000 1.000000 0.000000
vn 0.000000 1.000000 0.000000
vn 0.000000 1.000000 0.000000
vn 0.000000 1.000000 0.000000
vn 0.000000 0.000000 -1.000000
vn 0.000000 0.000000 -1.000000
vn 0.000000 0.000000 -1.000000
vn 0.000000 0.000000 -1.000000
vn 0.000000 -0.000000 1.000000
vn 0.000000 -0.000000 1.000000
vn 0.000000 -0.000000 1.000000
vn 0.000000 -0.000000 1.000000

vt 0.229124 -0.148913
vt 0.270624 -0.178556
vt 0.232844 -0.231449
vt 0.191344 -0.201806
vt -0.232844 -0.231449
vt -0.270624 -0.178556
vt -0.229124 -0.148913
vt -0.191344 -0.201806
vt 0.404680 0.169783
vt 0.403671 0.166957
vt 0.355642 0.184111
vt 0.356651 0.186936
vt -0.355642 0.184111
vt -0.403671 0.166957
vt -0.404680 0.169783
vt -0.356651 0.186936
vt 0.178438 0.238365
vt 0.120300 0.267434
vt 0.121642 0.270117
vt 0.179780 0.241048
vt -0.121642 0.270117
vt -0.120300 0.267434
vt -0.178438 0.238365
vt -0.179780 0.241048
s off
f 1/1/1 2/2/2 3/3/3
f 1/1/1 3/3/3 4/4/4
f 5/5/5 6/6/6 7/7/7
f 5/5/5 7/7/7 8/8/8
f 9/9/9 10/10/10 11/11/11
f 9/9/9 11/11/11 12/12/12
f 13/13/13 14/14/14 15/15/15
f 13/13/13 15/15/15 16/16/16
f 17/17/17 18/18/18 19/19/19
f 17/17/17 19/19/19 20/20/20
f 21/21/21 22/22/22 23/23/23
f 21/21/21 23/23/23 24/24/24
