# Exported using automatic converter by Erwin Coumans
mtllib botlab.mtl
#object mesh1447180935

v 2.228238 0.255489 0.959852
v 2.228238 0.285489 0.959852
v 2.228238 0.285489 0.799852
v 2.228238 0.255489 0.799852
v 2.248238 0.285489 0.799852
v 2.248238 0.285489 0.959852
v 2.248238 0.255489 0.959852
v 2.248238 0.255489 0.799852
v 2.228238 0.285489 0.799852
v 2.248238 0.285489 0.799852
v 2.248238 0.255489 0.799852
v 2.228238 0.255489 0.799852
v 2.248238 0.255489 0.959852
v 2.248238 0.285489 0.959852
v 2.228238 0.285489 0.959852
v 2.228238 0.255489 0.959852
v 2.248238 0.255489 0.799852
v 2.248238 0.255489 0.959852
v 2.228238 0.255489 0.959852
v 2.228238 0.255489 0.799852
v 2.228238 0.285489 0.959852
v 2.248238 0.285489 0.959852
v 2.248238 0.285489 0.799852
v 2.228238 0.285489 0.799852
usemtl mat22

vn -1.000000 0.000000 0.000000
vn -1.000000 0.000000 0.000000
vn -1.000000 0.000000 0.000000
vn -1.000000 0.000000 0.000000
vn 1.000000 0.000000 0.000000
vn 1.000000 0.000000 0.000000
vn 1.000000 0.000000 0.000000
vn 1.000000 0.000000 0.000000
vn 0.000000 0.000000 -1.000000
vn 0.000000 0.000000 -1.000000
vn 0.000000 0.000000 -1.000000
vn 0.000000 0.000000 -1.000000
vn 0.000000 -0.000000 1.000000
vn 0.000000 -0.000000 1.000000
vn 0.000000 -0.000000 1.000000
vn 0.000000 -0.000000 1.000000
vn 0.000000 -1.000000 0.000000
vn 0.000000 -1.000000 0.000000
vn 0.000000 -1.000000 0.000000
vn 0.000000 -1.000000 0.000000
vn 0.000000 1.000000 -0.000000
vn 0.000000 1.000000 -0.000000
vn 0.000000 1.000000 -0.000000
vn 0.000000 1.000000 -0.000000

vt -0.193552 -0.047313
vt -0.195296 -0.044872
vt -0.182276 -0.035572
vt -0.180533 -0.038013
vt 0.182276 -0.035572
vt 0.195296 -0.044872
vt 0.193552 -0.047313
vt 0.180533 -0.038013
vt 0.016994 0.206166
vt 0.017889 0.207954
vt 0.020572 0.206613
vt 0.019677 0.204824
vt -0.020572 0.206613
vt -0.017889 0.207954
vt -0.016994 0.206166
vt -0.019677 0.204824
vt 0.224404 0.125857
vt 0.239471 0.120476
vt 0.238799 0.118592
vt 0.223731 0.123974
vt -0.238799 0.118592
vt -0.239471 0.120476
vt -0.224404 0.125857
vt -0.223731 0.123974
s off
f 1/1/1 2/2/2 3/3/3
f 1/1/1 3/3/3 4/4/4
f 5/5/5 6/6/6 7/7/7
f 5/5/5 7/7/7 8/8/8
f 9/9/9 10/10/10 11/11/11
f 9/9/9 11/11/11 12/12/12
f 13/13/13 14/14/14 15/15/15
f 13/13/13 15/15/15 16/16/16
f 17/17/17 18/18/18 19/19/19
f 17/17/17 19/19/19 20/20/20
f 21/21/21 22/22/22 23/23/23
f 21/21/21 23/23/23 24/24/24
