# Exported using automatic converter by Erwin Coumans
mtllib botlab.mtl
#object mesh724567885

v 2.671529 0.621413 -3.096908
v 2.673564 0.626062 -3.037123
v 2.669816 0.566369 -3.032354
v 2.667781 0.561720 -3.092139
v 2.609968 0.570265 -3.030620
v 2.613716 0.629957 -3.035389
v 2.611681 0.625309 -3.095174
v 2.607933 0.565616 -3.090405
v 2.669816 0.566369 -3.032354
v 2.609968 0.570265 -3.030620
v 2.607933 0.565616 -3.090405
v 2.667781 0.561720 -3.092139
v 2.611681 0.625309 -3.095174
v 2.613716 0.629957 -3.035389
v 2.673564 0.626062 -3.037123
v 2.671529 0.621413 -3.096908
v 2.607933 0.565616 -3.090405
v 2.611681 0.625309 -3.095174
v 2.671529 0.621413 -3.096908
v 2.667781 0.561720 -3.092139
v 2.673564 0.626062 -3.037123
v 2.613716 0.629957 -3.035389
v 2.609968 0.570265 -3.030620
v 2.669816 0.566369 -3.032354
usemtl mat23

vn 0.997471 -0.064932 -0.028906
vn 0.997471 -0.064932 -0.028906
vn 0.997471 -0.064932 -0.028906
vn 0.997471 -0.064932 -0.028906
vn -0.997471 0.064932 0.028906
vn -0.997471 0.064932 0.028906
vn -0.997471 0.064932 0.028906
vn -0.997471 0.064932 0.028906
vn -0.062460 -0.994878 0.079482
vn -0.062460 -0.994878 0.079482
vn -0.062460 -0.994878 0.079482
vn -0.062460 -0.994878 0.079482
vn 0.062460 0.994878 -0.079482
vn 0.062460 0.994878 -0.079482
vn 0.062460 0.994878 -0.079482
vn 0.062460 0.994878 -0.079482
vn -0.033919 -0.077476 -0.996417
vn -0.033919 -0.077476 -0.996417
vn -0.033919 -0.077476 -0.996417
vn -0.033919 -0.077476 -0.996417
vn 0.033919 0.077476 0.996417
vn 0.033919 0.077476 0.996417
vn 0.033919 0.077476 0.996417
vn 0.033919 0.077476 0.996417

vt -0.121444 0.216425
vt -0.116037 0.213822
vt -0.118640 0.208416
vt -0.124046 0.211019
vt 0.118640 0.208416
vt 0.116037 0.213822
vt 0.121444 0.216425
vt 0.124046 0.211019
vt -0.123964 0.280628
vt -0.125637 0.274866
vt -0.131399 0.276540
vt -0.129726 0.282301
vt 0.131399 0.276540
vt 0.125637 0.274866
vt 0.123964 0.280628
vt 0.129726 0.282301
vt 0.001503 0.266442
vt -0.003634 0.269541
vt -0.000536 0.274679
vt 0.004602 0.271580
vt 0.000536 0.274679
vt 0.003634 0.269541
vt -0.001503 0.266442
vt -0.004602 0.271580
s off
f 1/1/1 2/2/2 3/3/3
f 1/1/1 3/3/3 4/4/4
f 5/5/5 6/6/6 7/7/7
f 5/5/5 7/7/7 8/8/8
f 9/9/9 10/10/10 11/11/11
f 9/9/9 11/11/11 12/12/12
f 13/13/13 14/14/14 15/15/15
f 13/13/13 15/15/15 16/16/16
f 17/17/17 18/18/18 19/19/19
f 17/17/17 19/19/19 20/20/20
f 21/21/21 22/22/22 23/23/23
f 21/21/21 23/23/23 24/24/24
