# Exported using automatic converter by Erwin Coumans
mtllib botlab.mtl
#object mesh1840298088

v 0.929602 -0.574992 2.456198
v 0.920808 -0.563023 2.442803
v 0.908617 -0.577952 2.437466
v 0.917411 -0.589921 2.450861
v 0.921810 -0.583770 2.423606
v 0.934001 -0.568841 2.428943
v 0.942795 -0.580810 2.442338
v 0.930604 -0.595739 2.437000
v 0.908617 -0.577952 2.437466
v 0.921810 -0.583770 2.423606
v 0.930604 -0.595739 2.437000
v 0.917411 -0.589921 2.450861
v 0.942795 -0.580810 2.442338
v 0.934001 -0.568841 2.428943
v 0.920808 -0.563023 2.442803
v 0.929602 -0.574992 2.456198
v 0.930604 -0.595739 2.437000
v 0.942795 -0.580810 2.442338
v 0.929602 -0.574992 2.456198
v 0.917411 -0.589921 2.450861
v 0.920808 -0.563023 2.442803
v 0.934001 -0.568841 2.428943
v 0.921810 -0.583770 2.423606
v 0.908617 -0.577952 2.437466
usemtl mat7

vn -0.659635 0.290895 0.693009
vn -0.659635 0.290895 0.693009
vn -0.659635 0.290895 0.693009
vn -0.659635 0.290895 0.693009
vn 0.659635 -0.290895 -0.693009
vn 0.659635 -0.290895 -0.693009
vn 0.659635 -0.290895 -0.693009
vn 0.659635 -0.290895 -0.693009
vn -0.609553 -0.746479 -0.266859
vn -0.609553 -0.746479 -0.266859
vn -0.609553 -0.746479 -0.266859
vn -0.609553 -0.746479 -0.266859
vn 0.609553 0.746479 0.266859
vn 0.609553 0.746479 0.266859
vn 0.609553 0.746479 0.266859
vn 0.609553 0.746479 0.266859
vn 0.439689 -0.598455 0.669720
vn 0.439689 -0.598455 0.669720
vn 0.439689 -0.598455 0.669720
vn 0.439689 -0.598455 0.669720
vn -0.439689 0.598455 -0.669720
vn -0.439689 0.598455 -0.669720
vn -0.439689 0.598455 -0.669720
vn -0.439689 0.598455 -0.669720

vt -0.268586 0.091287
vt -0.266598 0.091508
vt -0.266377 0.089520
vt -0.268365 0.089299
vt 0.266377 0.089520
vt 0.266598 0.091508
vt 0.268586 0.091287
vt 0.268365 0.089299
vt 0.228531 -0.219481
vt 0.228788 -0.217497
vt 0.230772 -0.217754
vt 0.230515 -0.219738
vt -0.230772 -0.217754
vt -0.228788 -0.217497
vt -0.228531 -0.219481
vt -0.230515 -0.219738
vt 0.218486 -0.031461
vt 0.219789 -0.029943
vt 0.221306 -0.031246
vt 0.220004 -0.032763
vt -0.221306 -0.031246
vt -0.219789 -0.029943
vt -0.218486 -0.031461
vt -0.220004 -0.032763
s off
f 1/1/1 2/2/2 3/3/3
f 1/1/1 3/3/3 4/4/4
f 5/5/5 6/6/6 7/7/7
f 5/5/5 7/7/7 8/8/8
f 9/9/9 10/10/10 11/11/11
f 9/9/9 11/11/11 12/12/12
f 13/13/13 14/14/14 15/15/15
f 13/13/13 15/15/15 16/16/16
f 17/17/17 18/18/18 19/19/19
f 17/17/17 19/19/19 20/20/20
f 21/21/21 22/22/22 23/23/23
f 21/21/21 23/23/23 24/24/24
