# Exported using automatic converter by Erwin Coumans
mtllib botlab.mtl
#object mesh173781919

v -2.711762 0.315489 0.359852
v -2.681762 0.315489 0.359852
v -2.681762 -0.324511 0.359852
v -2.711762 -0.324511 0.359852
v -2.681762 -0.324511 0.609852
v -2.681762 0.315489 0.609852
v -2.711762 0.315489 0.609852
v -2.711762 -0.324511 0.609852
v -2.681762 -0.324511 0.359852
v -2.681762 -0.324511 0.609852
v -2.711762 -0.324511 0.609852
v -2.711762 -0.324511 0.359852
v -2.711762 0.315489 0.609852
v -2.681762 0.315489 0.609852
v -2.681762 0.315489 0.359852
v -2.711762 0.315489 0.359852
v -2.711762 -0.324511 0.609852
v -2.711762 0.315489 0.609852
v -2.711762 0.315489 0.359852
v -2.711762 -0.324511 0.359852
v -2.681762 0.315489 0.359852
v -2.681762 0.315489 0.609852
v -2.681762 -0.324511 0.609852
v -2.681762 -0.324511 0.359852
usemtl mat21

vn -0.000000 0.000000 -1.000000
vn -0.000000 0.000000 -1.000000
vn -0.000000 0.000000 -1.000000
vn -0.000000 0.000000 -1.000000
vn 0.000000 0.000000 1.000000
vn 0.000000 0.000000 1.000000
vn 0.000000 0.000000 1.000000
vn 0.000000 0.000000 1.000000
vn -0.000000 -1.000000 0.000000
vn -0.000000 -1.000000 0.000000
vn -0.000000 -1.000000 0.000000
vn -0.000000 -1.000000 0.000000
vn 0.000000 1.000000 0.000000
vn 0.000000 1.000000 0.000000
vn 0.000000 1.000000 0.000000
vn 0.000000 1.000000 0.000000
vn -1.000000 0.000000 0.000000
vn -1.000000 0.000000 0.000000
vn -1.000000 0.000000 0.000000
vn -1.000000 0.000000 0.000000
vn 1.000000 -0.000000 -0.000000
vn 1.000000 -0.000000 -0.000000
vn 1.000000 -0.000000 -0.000000
vn 1.000000 -0.000000 -0.000000

vt -0.206613 -0.234340
vt -0.205271 -0.231657
vt -0.148028 -0.260278
vt -0.149369 -0.262962
vt 0.148028 -0.260278
vt 0.205271 -0.231657
vt 0.206613 -0.234340
vt 0.149369 -0.262962
vt 0.017153 -0.323623
vt 0.040697 -0.332031
vt 0.039688 -0.334857
vt 0.016144 -0.326448
vt -0.039688 -0.334857
vt -0.040697 -0.332031
vt -0.017153 -0.323623
vt -0.016144 -0.326448
vt -0.131360 -0.074166
vt -0.168559 -0.022087
vt -0.148216 -0.007556
vt -0.111016 -0.059635
vt 0.148216 -0.007556
vt 0.168559 -0.022087
vt 0.131360 -0.074166
vt 0.111016 -0.059635
s off
f 1/1/1 2/2/2 3/3/3
f 1/1/1 3/3/3 4/4/4
f 5/5/5 6/6/6 7/7/7
f 5/5/5 7/7/7 8/8/8
f 9/9/9 10/10/10 11/11/11
f 9/9/9 11/11/11 12/12/12
f 13/13/13 14/14/14 15/15/15
f 13/13/13 15/15/15 16/16/16
f 17/17/17 18/18/18 19/19/19
f 17/17/17 19/19/19 20/20/20
f 21/21/21 22/22/22 23/23/23
f 21/21/21 23/23/23 24/24/24
