# Exported using automatic converter by Erwin Coumans
mtllib botlab.mtl
#object mesh1554768693

v 0.963111 -0.606336 2.493628
v 0.957257 -0.598010 2.476411
v 0.959481 -0.615596 2.467150
v 0.965335 -0.623923 2.484367
v 0.978476 -0.610971 2.462929
v 0.976252 -0.593385 2.472190
v 0.982105 -0.601711 2.489407
v 0.984329 -0.619298 2.480145
v 0.959481 -0.615596 2.467150
v 0.978476 -0.610971 2.462929
v 0.984329 -0.619298 2.480145
v 0.965335 -0.623923 2.484367
v 0.982105 -0.601711 2.489407
v 0.976252 -0.593385 2.472190
v 0.957257 -0.598010 2.476411
v 0.963111 -0.606336 2.493628
v 0.984329 -0.619298 2.480145
v 0.982105 -0.601711 2.489407
v 0.963111 -0.606336 2.493628
v 0.965335 -0.623923 2.484367
v 0.957257 -0.598010 2.476411
v 0.976252 -0.593385 2.472190
v 0.978476 -0.610971 2.462929
v 0.959481 -0.615596 2.467150
usemtl mat7

vn -0.949723 -0.231251 0.211065
vn -0.949723 -0.231251 0.211065
vn -0.949723 -0.231251 0.211065
vn -0.949723 -0.231251 0.211065
vn 0.949723 0.231251 -0.211065
vn 0.949723 0.231251 -0.211065
vn 0.949723 0.231251 -0.211065
vn 0.949723 0.231251 -0.211065
vn 0.111197 -0.879321 -0.463067
vn 0.111197 -0.879321 -0.463067
vn 0.111197 -0.879321 -0.463067
vn 0.111197 -0.879321 -0.463067
vn -0.111197 0.879321 0.463067
vn -0.111197 0.879321 0.463067
vn -0.111197 0.879321 0.463067
vn -0.111197 0.879321 0.463067
vn 0.292679 -0.416315 0.860826
vn 0.292679 -0.416315 0.860826
vn 0.292679 -0.416315 0.860826
vn 0.292679 -0.416315 0.860826
vn -0.292679 0.416315 -0.860826
vn -0.292679 0.416315 -0.860826
vn -0.292679 0.416315 -0.860826
vn -0.292679 0.416315 -0.860826

vt -0.298238 -0.172758
vt -0.297057 -0.171144
vt -0.295443 -0.172325
vt -0.296624 -0.173939
vt 0.295443 -0.172325
vt 0.297057 -0.171144
vt 0.298238 -0.172758
vt 0.296624 -0.173939
vt 0.305393 -0.071949
vt 0.305777 -0.069986
vt 0.307739 -0.070369
vt 0.307356 -0.072332
vt -0.307739 -0.070369
vt -0.305777 -0.069986
vt -0.305393 -0.071949
vt -0.307356 -0.072332
vt 0.136742 0.009405
vt 0.138722 0.009688
vt 0.139005 0.007708
vt 0.137025 0.007425
vt -0.139005 0.007708
vt -0.138722 0.009688
vt -0.136742 0.009405
vt -0.137026 0.007425
s off
f 1/1/1 2/2/2 3/3/3
f 1/1/1 3/3/3 4/4/4
f 5/5/5 6/6/6 7/7/7
f 5/5/5 7/7/7 8/8/8
f 9/9/9 10/10/10 11/11/11
f 9/9/9 11/11/11 12/12/12
f 13/13/13 14/14/14 15/15/15
f 13/13/13 15/15/15 16/16/16
f 17/17/17 18/18/18 19/19/19
f 17/17/17 19/19/19 20/20/20
f 21/21/21 22/22/22 23/23/23
f 21/21/21 23/23/23 24/24/24
