# Exported using automatic converter by Erwin Coumans
mtllib botlab.mtl
#object mesh1403755003

v -0.321762 0.305489 -0.110148
v -0.321762 0.325489 -0.110148
v -0.321762 0.325489 -0.150148
v -0.321762 0.305489 -0.150148
v -0.301762 0.325489 -0.150148
v -0.301762 0.325489 -0.110148
v -0.301762 0.305489 -0.110148
v -0.301762 0.305489 -0.150148
v -0.321762 0.325489 -0.150148
v -0.301762 0.325489 -0.150148
v -0.301762 0.305489 -0.150148
v -0.321762 0.305489 -0.150148
v -0.301762 0.305489 -0.110148
v -0.301762 0.325489 -0.110148
v -0.321762 0.325489 -0.110148
v -0.321762 0.305489 -0.110148
v -0.301762 0.305489 -0.150148
v -0.301762 0.305489 -0.110148
v -0.321762 0.305489 -0.110148
v -0.321762 0.305489 -0.150148
v -0.321762 0.325489 -0.110148
v -0.301762 0.325489 -0.110148
v -0.301762 0.325489 -0.150148
v -0.321762 0.325489 -0.150148
usemtl mat22

vn -1.000000 0.000000 -0.000000
vn -1.000000 0.000000 -0.000000
vn -1.000000 0.000000 -0.000000
vn -1.000000 0.000000 -0.000000
vn 1.000000 0.000000 0.000000
vn 1.000000 0.000000 0.000000
vn 1.000000 0.000000 0.000000
vn 1.000000 0.000000 0.000000
vn 0.000000 0.000000 -1.000000
vn 0.000000 0.000000 -1.000000
vn 0.000000 0.000000 -1.000000
vn 0.000000 0.000000 -1.000000
vn -0.000000 -0.000000 1.000000
vn -0.000000 -0.000000 1.000000
vn -0.000000 -0.000000 1.000000
vn -0.000000 -0.000000 1.000000
vn 0.000000 -1.000000 0.000000
vn 0.000000 -1.000000 0.000000
vn 0.000000 -1.000000 0.000000
vn 0.000000 -1.000000 0.000000
vn 0.000000 1.000000 -0.000000
vn 0.000000 1.000000 -0.000000
vn 0.000000 1.000000 -0.000000
vn 0.000000 1.000000 -0.000000

vt -0.109389 0.018948
vt -0.110551 0.020576
vt -0.107297 0.022901
vt -0.106134 0.021273
vt 0.107297 0.022901
vt 0.110551 0.020576
vt 0.109389 0.018948
vt 0.106134 0.021273
vt -0.100623 -0.020125
vt -0.099729 -0.018336
vt -0.097940 -0.019230
vt -0.098834 -0.021019
vt 0.097940 -0.019230
vt 0.099729 -0.018336
vt 0.100623 -0.020125
vt 0.098834 -0.021019
vt 0.049172 -0.082335
vt 0.052939 -0.083681
vt 0.052267 -0.085564
vt 0.048500 -0.084219
vt -0.052267 -0.085564
vt -0.052939 -0.083681
vt -0.049172 -0.082335
vt -0.048500 -0.084219
s off
f 1/1/1 2/2/2 3/3/3
f 1/1/1 3/3/3 4/4/4
f 5/5/5 6/6/6 7/7/7
f 5/5/5 7/7/7 8/8/8
f 9/9/9 10/10/10 11/11/11
f 9/9/9 11/11/11 12/12/12
f 13/13/13 14/14/14 15/15/15
f 13/13/13 15/15/15 16/16/16
f 17/17/17 18/18/18 19/19/19
f 17/17/17 19/19/19 20/20/20
f 21/21/21 22/22/22 23/23/23
f 21/21/21 23/23/23 24/24/24
