# Exported using automatic converter by Erwin Coumans
mtllib botlab.mtl
#object mesh1007000631

v 2.653191 -0.586083 -2.790148
v 2.523284 -0.586083 -2.790148
v 2.478238 -0.604511 -2.790148
v 2.698237 -0.604511 -2.790148
v 2.478238 -0.604511 -2.880148
v 2.478238 -0.514511 -2.880148
v 2.698237 -0.514511 -2.880148
v 2.698238 -0.604511 -2.880148
v 2.478238 -0.604511 -2.790148
v 2.478238 -0.604511 -2.880148
v 2.698238 -0.604511 -2.880148
v 2.698237 -0.604511 -2.790148
v 2.698237 -0.514511 -2.880148
v 2.478238 -0.514511 -2.880148
v 2.478237 -0.514511 -2.790148
v 2.698237 -0.514511 -2.790148
v 2.698238 -0.604511 -2.880148
v 2.698237 -0.514511 -2.880148
v 2.698237 -0.514511 -2.790148
v 2.698237 -0.604511 -2.790148
v 2.478237 -0.514511 -2.790148
v 2.478238 -0.514511 -2.880148
v 2.478238 -0.604511 -2.880148
v 2.478238 -0.604511 -2.790148
v 2.523284 -0.586083 -2.790148
v 2.523283 -0.532939 -2.790148
v 2.478237 -0.514511 -2.790148
v 2.478238 -0.604511 -2.790148
v 2.523283 -0.532939 -2.790148
v 2.653191 -0.532939 -2.790148
v 2.698237 -0.514511 -2.790148
v 2.478237 -0.514511 -2.790148
v 2.653191 -0.532939 -2.790148
v 2.653191 -0.586083 -2.790148
v 2.698237 -0.604511 -2.790148
v 2.698237 -0.514511 -2.790148
v 2.653191 -0.586083 -2.840148
v 2.523283 -0.586083 -2.840148
v 2.523284 -0.586083 -2.790148
v 2.653191 -0.586083 -2.790148
v 2.523283 -0.586083 -2.840148
v 2.523283 -0.532939 -2.840148
v 2.523283 -0.532939 -2.790148
v 2.523284 -0.586083 -2.790148
v 2.523283 -0.532939 -2.840148
v 2.653191 -0.532939 -2.840148
v 2.653191 -0.532939 -2.790148
v 2.523283 -0.532939 -2.790148
v 2.653191 -0.532939 -2.840148
v 2.653191 -0.586083 -2.840148
v 2.653191 -0.586083 -2.790148
v 2.653191 -0.532939 -2.790148
v 2.653191 -0.532939 -2.840148
v 2.523283 -0.532939 -2.840148
v 2.523283 -0.586083 -2.840148
v 2.653191 -0.586083 -2.840148
usemtl mat16

vn -0.000000 0.000008 1.000000
vn -0.000000 0.000008 1.000000
vn -0.000000 0.000008 1.000000
vn -0.000000 0.000008 1.000000
vn 0.000000 0.000000 -1.000000
vn 0.000000 0.000000 -1.000000
vn 0.000000 0.000000 -1.000000
vn 0.000000 0.000000 -1.000000
vn 0.000000 -1.000000 0.000000
vn 0.000000 -1.000000 0.000000
vn 0.000000 -1.000000 0.000000
vn 0.000000 -1.000000 0.000000
vn -0.000000 1.000000 0.000000
vn -0.000000 1.000000 0.000000
vn -0.000000 1.000000 0.000000
vn -0.000000 1.000000 0.000000
vn 1.000000 0.000000 0.000000
vn 1.000000 0.000000 0.000000
vn 1.000000 0.000000 0.000000
vn 1.000000 0.000000 0.000000
vn -1.000000 -0.000000 -0.000000
vn -1.000000 -0.000000 -0.000000
vn -1.000000 -0.000000 -0.000000
vn -1.000000 -0.000000 -0.000000
vn 0.000003 -0.000000 1.000000
vn 0.000003 -0.000000 1.000000
vn 0.000003 -0.000000 1.000000
vn 0.000003 -0.000000 1.000000
vn -0.000000 -0.000009 1.000000
vn -0.000000 -0.000009 1.000000
vn -0.000000 -0.000009 1.000000
vn -0.000000 -0.000009 1.000000
vn -0.000004 0.000000 1.000000
vn -0.000004 0.000000 1.000000
vn -0.000004 0.000000 1.000000
vn -0.000004 0.000000 1.000000
vn -0.000000 1.000000 -0.000000
vn -0.000000 1.000000 -0.000000
vn -0.000000 1.000000 -0.000000
vn -0.000000 1.000000 -0.000000
vn 1.000000 0.000004 -0.000005
vn 1.000000 0.000004 -0.000005
vn 1.000000 0.000004 -0.000005
vn 1.000000 0.000004 -0.000005
vn 0.000004 -1.000000 -0.000000
vn 0.000004 -1.000000 -0.000000
vn 0.000004 -1.000000 -0.000000
vn 0.000004 -1.000000 -0.000000
vn -1.000000 0.000000 0.000005
vn -1.000000 0.000000 0.000005
vn -1.000000 0.000000 0.000005
vn -1.000000 0.000000 0.000005
vn -0.000000 0.000000 1.000000
vn -0.000000 0.000000 1.000000
vn -0.000000 0.000000 1.000000
vn -0.000000 0.000000 1.000000

vt -0.113953 0.205197
vt -0.108144 0.193578
vt -0.107777 0.188725
vt -0.117616 0.208402
vt 0.107778 0.188724
vt 0.099729 0.192749
vt 0.109567 0.212426
vt 0.117617 0.208402
vt -0.105946 0.268262
vt -0.114422 0.271289
vt -0.107022 0.292007
vt -0.098547 0.288980
vt 0.107022 0.292007
vt 0.114422 0.271289
vt 0.105946 0.268262
vt 0.098547 0.288980
vt -0.168908 0.105902
vt -0.163677 0.113225
vt -0.156353 0.107994
vt -0.161584 0.100671
vt 0.156353 0.107994
vt 0.163677 0.113225
vt 0.168908 0.105902
vt 0.161584 0.100671
vt -0.108145 0.193578
vt -0.103392 0.195955
vt -0.099729 0.192750
vt -0.107779 0.188725
vt -0.103392 0.195954
vt -0.109202 0.207573
vt -0.109568 0.212426
vt -0.099730 0.192749
vt -0.109201 0.207573
vt -0.113954 0.205196
vt -0.117617 0.208401
vt -0.109567 0.212426
vt 0.104770 0.286420
vt 0.109140 0.274186
vt 0.104431 0.272504
vt 0.100062 0.284738
vt -0.164582 0.105075
vt -0.161493 0.109399
vt -0.157424 0.106493
vt -0.160513 0.102168
vt -0.109140 0.274186
vt -0.104770 0.286420
vt -0.100062 0.284738
vt -0.104431 0.272504
vt 0.161493 0.109399
vt 0.164582 0.105075
vt 0.160513 0.102168
vt 0.157424 0.106493
vt -0.109201 0.207573
vt -0.103391 0.195954
vt -0.108145 0.193577
vt -0.113954 0.205196
s off
f 1/1/1 2/2/2 3/3/3
f 1/1/1 3/3/3 4/4/4
f 5/5/5 6/6/6 7/7/7
f 5/5/5 7/7/7 8/8/8
f 9/9/9 10/10/10 11/11/11
f 9/9/9 11/11/11 12/12/12
f 13/13/13 14/14/14 15/15/15
f 13/13/13 15/15/15 16/16/16
f 17/17/17 18/18/18 19/19/19
f 17/17/17 19/19/19 20/20/20
f 21/21/21 22/22/22 23/23/23
f 21/21/21 23/23/23 24/24/24
f 25/25/25 26/26/26 27/27/27
f 25/25/25 27/27/27 28/28/28
f 29/29/29 30/30/30 31/31/31
f 29/29/29 31/31/31 32/32/32
f 33/33/33 34/34/34 35/35/35
f 33/33/33 35/35/35 36/36/36
f 37/37/37 38/38/38 39/39/39
f 37/37/37 39/39/39 40/40/40
f 41/41/41 42/42/42 43/43/43
f 41/41/41 43/43/43 44/44/44
f 45/45/45 46/46/46 47/47/47
f 45/45/45 47/47/47 48/48/48
f 49/49/49 50/50/50 51/51/51
f 49/49/49 51/51/51 52/52/52
f 53/53/53 54/54/54 55/55/55
f 53/53/53 55/55/55 56/56/56
