# Exported using automatic converter by Erwin Coumans
mtllib botlab.mtl
#object mesh575370514

v 0.920355 -0.969803 2.533720
v 0.908421 -0.969267 2.517679
v 0.909794 -0.989148 2.515994
v 0.921728 -0.989684 2.532034
v 0.925785 -0.987041 2.504167
v 0.924411 -0.967160 2.505853
v 0.936346 -0.967695 2.521893
v 0.937719 -0.987577 2.520207
v 0.909794 -0.989148 2.515994
v 0.925785 -0.987041 2.504167
v 0.937719 -0.987577 2.520207
v 0.921728 -0.989684 2.532034
v 0.936346 -0.967695 2.521893
v 0.924411 -0.967160 2.505853
v 0.908421 -0.969267 2.517679
v 0.920355 -0.969803 2.533720
v 0.937719 -0.987577 2.520207
v 0.936346 -0.967695 2.521893
v 0.920355 -0.969803 2.533720
v 0.921728 -0.989684 2.532034
v 0.908421 -0.969267 2.517679
v 0.924411 -0.967160 2.505853
v 0.925785 -0.987041 2.504167
v 0.909794 -0.989148 2.515994
usemtl mat6

vn -0.799514 -0.105370 0.591332
vn -0.799514 -0.105370 0.591332
vn -0.799514 -0.105370 0.591332
vn -0.799514 -0.105370 0.591332
vn 0.799514 0.105370 -0.591332
vn 0.799514 0.105370 -0.591332
vn 0.799514 0.105370 -0.591332
vn 0.799514 0.105370 -0.591332
vn 0.068667 -0.994072 -0.084293
vn 0.068667 -0.994072 -0.084293
vn 0.068667 -0.994072 -0.084293
vn 0.068667 -0.994072 -0.084293
vn -0.068667 0.994072 0.084293
vn -0.068667 0.994072 0.084293
vn -0.068667 0.994072 0.084293
vn -0.068667 0.994072 0.084293
vn 0.596709 -0.026789 0.802010
vn 0.596709 -0.026789 0.802010
vn 0.596709 -0.026789 0.802010
vn 0.596709 -0.026789 0.802010
vn -0.596709 0.026789 -0.802010
vn -0.596709 0.026789 -0.802010
vn -0.596709 0.026789 -0.802010
vn -0.596709 0.026789 -0.802010

vt -0.264581 0.167814
vt -0.262978 0.166618
vt -0.264173 0.165015
vt -0.265776 0.166210
vt 0.264173 0.165015
vt 0.262978 0.166618
vt 0.264581 0.167814
vt 0.265776 0.166210
vt 0.341648 -0.069322
vt 0.341110 -0.067395
vt 0.343036 -0.066858
vt 0.343574 -0.068784
vt -0.343036 -0.066858
vt -0.341110 -0.067395
vt -0.341648 -0.069322
vt -0.343574 -0.068784
vt 0.030979 -0.155661
vt 0.032852 -0.154959
vt 0.033554 -0.156832
vt 0.031681 -0.157534
vt -0.033554 -0.156832
vt -0.032852 -0.154959
vt -0.030979 -0.155661
vt -0.031681 -0.157534
s off
f 1/1/1 2/2/2 3/3/3
f 1/1/1 3/3/3 4/4/4
f 5/5/5 6/6/6 7/7/7
f 5/5/5 7/7/7 8/8/8
f 9/9/9 10/10/10 11/11/11
f 9/9/9 11/11/11 12/12/12
f 13/13/13 14/14/14 15/15/15
f 13/13/13 15/15/15 16/16/16
f 17/17/17 18/18/18 19/19/19
f 17/17/17 19/19/19 20/20/20
f 21/21/21 22/22/22 23/23/23
f 21/21/21 23/23/23 24/24/24
