# Exported using automatic converter by Erwin Coumans
mtllib botlab.mtl
#object mesh580659590

v 1.364641 0.565202 -2.846128
v 1.414439 0.561647 -2.848860
v 1.408702 0.483036 -2.851177
v 1.358903 0.486591 -2.848445
v 1.411320 0.481374 -2.801273
v 1.417058 0.559986 -2.798956
v 1.367259 0.563540 -2.796225
v 1.361522 0.484929 -2.798541
v 1.408702 0.483036 -2.851177
v 1.411320 0.481374 -2.801273
v 1.361522 0.484929 -2.798541
v 1.358903 0.486591 -2.848445
v 1.367259 0.563540 -2.796225
v 1.417058 0.559986 -2.798956
v 1.414439 0.561647 -2.848860
v 1.364641 0.565202 -2.846128
v 1.361522 0.484929 -2.798541
v 1.367259 0.563540 -2.796225
v 1.364641 0.565202 -2.846128
v 1.358903 0.486591 -2.848445
v 1.414439 0.561647 -2.848860
v 1.417058 0.559986 -2.798956
v 1.411320 0.481374 -2.801273
v 1.408702 0.483036 -2.851177
usemtl mat21

vn -0.052374 0.033237 -0.998074
vn -0.052374 0.033237 -0.998074
vn -0.052374 0.033237 -0.998074
vn -0.052374 0.033237 -0.998074
vn 0.052374 -0.033237 0.998074
vn 0.052374 -0.033237 0.998074
vn 0.052374 -0.033237 0.998074
vn 0.052374 -0.033237 0.998074
vn -0.072764 -0.996916 -0.029380
vn -0.072764 -0.996916 -0.029380
vn -0.072764 -0.996916 -0.029380
vn -0.072764 -0.996916 -0.029380
vn 0.072764 0.996916 0.029380
vn 0.072764 0.996916 0.029380
vn 0.072764 0.996916 0.029380
vn 0.072764 0.996916 0.029380
vn -0.995973 0.071085 0.054631
vn -0.995973 0.071085 0.054631
vn -0.995973 0.071085 0.054631
vn -0.995973 0.071085 0.054631
vn 0.995973 -0.071085 -0.054631
vn 0.995973 -0.071085 -0.054631
vn 0.995973 -0.071085 -0.054631
vn 0.995973 -0.071085 -0.054631

vt -0.038657 0.147056
vt -0.036174 0.151396
vt -0.029330 0.147480
vt -0.031813 0.143140
vt 0.029330 0.147480
vt 0.036174 0.151396
vt 0.038657 0.147056
vt 0.031813 0.143140
vt -0.148313 0.167896
vt -0.143561 0.166341
vt -0.145116 0.161589
vt -0.149868 0.163144
vt 0.145116 0.161589
vt 0.143561 0.166341
vt 0.148313 0.167896
vt 0.149868 0.163144
vt 0.114346 0.179103
vt 0.110431 0.185948
vt 0.114771 0.188431
vt 0.118686 0.181586
vt -0.114771 0.188431
vt -0.110431 0.185948
vt -0.114346 0.179103
vt -0.118686 0.181586
s off
f 1/1/1 2/2/2 3/3/3
f 1/1/1 3/3/3 4/4/4
f 5/5/5 6/6/6 7/7/7
f 5/5/5 7/7/7 8/8/8
f 9/9/9 10/10/10 11/11/11
f 9/9/9 11/11/11 12/12/12
f 13/13/13 14/14/14 15/15/15
f 13/13/13 15/15/15 16/16/16
f 17/17/17 18/18/18 19/19/19
f 17/17/17 19/19/19 20/20/20
f 21/21/21 22/22/22 23/23/23
f 21/21/21 23/23/23 24/24/24
