# Exported using automatic converter by Erwin Coumans
mtllib botlab.mtl
#object mesh165053242

v -0.555441 -0.987784 0.414919
v -0.650694 -0.985640 0.424455
v -0.655963 -1.055052 0.417094
v -0.560710 -1.057197 0.407557
v -0.574069 -1.051972 0.329435
v -0.568801 -0.982560 0.336796
v -0.473549 -0.984704 0.327260
v -0.478817 -1.054116 0.319899
v -0.655963 -1.055052 0.417094
v -0.574069 -1.051972 0.329435
v -0.478817 -1.054116 0.319899
v -0.560710 -1.057197 0.407557
v -0.473549 -0.984704 0.327260
v -0.568801 -0.982560 0.336796
v -0.650694 -0.985640 0.424455
v -0.555441 -0.987784 0.414919
v -0.478817 -1.054116 0.319899
v -0.473549 -0.984704 0.327260
v -0.555441 -0.987784 0.414919
v -0.560710 -1.057197 0.407557
v -0.650694 -0.985640 0.424455
v -0.568801 -0.982560 0.336796
v -0.574069 -1.051972 0.329435
v -0.655963 -1.055052 0.417094
v -0.189332 -0.991838 0.389952
v -0.284809 -0.990340 0.397057
v -0.289724 -1.059175 0.385328
v -0.194247 -1.060673 0.378222
v -0.205537 -1.050686 0.300237
v -0.200622 -0.981851 0.311966
v -0.105145 -0.983349 0.304861
v -0.110060 -1.052184 0.293131
v -0.289724 -1.059175 0.385328
v -0.205537 -1.050686 0.300237
v -0.110060 -1.052184 0.293131
v -0.194247 -1.060673 0.378222
v -0.105145 -0.983349 0.304861
v -0.200622 -0.981851 0.311966
v -0.284809 -0.990340 0.397057
v -0.189332 -0.991838 0.389952
v -0.110060 -1.052184 0.293131
v -0.105145 -0.983349 0.304861
v -0.189332 -0.991838 0.389952
v -0.194247 -1.060673 0.378222
v -0.284809 -0.990340 0.397057
v -0.200622 -0.981851 0.311966
v -0.205537 -1.050686 0.300237
v -0.289724 -1.059175 0.385328
v -0.741358 -0.984919 0.424452
v -0.836118 -0.981503 0.437773
v -0.842232 -1.051096 0.433359
v -0.747472 -1.054512 0.420038
v -0.763991 -1.052198 0.342380
v -0.757877 -0.982606 0.346795
v -0.663117 -0.986022 0.333474
v -0.669231 -1.055614 0.329059
v -0.842232 -1.051096 0.433359
v -0.763991 -1.052198 0.342380
v -0.669231 -1.055614 0.329059
v -0.747472 -1.054512 0.420038
v -0.663117 -0.986022 0.333474
v -0.757877 -0.982606 0.346795
v -0.836118 -0.981503 0.437773
v -0.741358 -0.984919 0.424452
v -0.669231 -1.055614 0.329059
v -0.663117 -0.986022 0.333474
v -0.741358 -0.984919 0.424452
v -0.747472 -1.054512 0.420038
v -0.836118 -0.981503 0.437773
v -0.757877 -0.982606 0.346795
v -0.763991 -1.052198 0.342380
v -0.842232 -1.051096 0.433359
v -0.373530 -0.995032 0.399246
v -0.468580 -0.991526 0.410282
v -0.475084 -1.060714 0.401872
v -0.380034 -1.064220 0.390836
v -0.394488 -1.057491 0.313024
v -0.387984 -0.988303 0.321434
v -0.292934 -0.991809 0.310398
v -0.299439 -1.060997 0.301989
v -0.475084 -1.060714 0.401872
v -0.394488 -1.057491 0.313024
v -0.299439 -1.060997 0.301989
v -0.380034 -1.064220 0.390836
v -0.292934 -0.991809 0.310398
v -0.387984 -0.988303 0.321434
v -0.468580 -0.991526 0.410282
v -0.373530 -0.995032 0.399246
v -0.299439 -1.060997 0.301989
v -0.292934 -0.991809 0.310398
v -0.373530 -0.995032 0.399246
v -0.380034 -1.064220 0.390836
v -0.468580 -0.991526 0.410282
v -0.387984 -0.988303 0.321434
v -0.394488 -1.057491 0.313024
v -0.475084 -1.060714 0.401872
v -0.281176 -0.990198 0.391807
v -0.376352 -0.988828 0.402209
v -0.381343 -1.058019 0.392838
v -0.286167 -1.059388 0.382436
v -0.300225 -1.051922 0.304619
v -0.295234 -0.982732 0.313990
v -0.200058 -0.984101 0.303588
v -0.205049 -1.053292 0.294217
v -0.381343 -1.058019 0.392838
v -0.300225 -1.051922 0.304619
v -0.205049 -1.053292 0.294217
v -0.286167 -1.059388 0.382436
v -0.200058 -0.984101 0.303588
v -0.295234 -0.982732 0.313990
v -0.376352 -0.988828 0.402209
v -0.281176 -0.990198 0.391807
v -0.205049 -1.053292 0.294217
v -0.200058 -0.984101 0.303588
v -0.281176 -0.990198 0.391807
v -0.286167 -1.059388 0.382436
v -0.376352 -0.988828 0.402209
v -0.295234 -0.982732 0.313990
v -0.300225 -1.051922 0.304619
v -0.381343 -1.058019 0.392838
v -0.647202 -0.985828 0.419112
v -0.742066 -0.983611 0.431937
v -0.747348 -1.053233 0.426952
v -0.652484 -1.055450 0.414127
v -0.668608 -1.052724 0.336400
v -0.663325 -0.983102 0.341385
v -0.568461 -0.985319 0.328560
v -0.573744 -1.054942 0.323575
v -0.747348 -1.053233 0.426952
v -0.668608 -1.052724 0.336400
v -0.573744 -1.054942 0.323575
v -0.652484 -1.055450 0.414127
v -0.568461 -0.985319 0.328560
v -0.663325 -0.983102 0.341385
v -0.742066 -0.983611 0.431937
v -0.647202 -0.985828 0.419112
v -0.573744 -1.054942 0.323575
v -0.568461 -0.985319 0.328560
v -0.647202 -0.985828 0.419112
v -0.652484 -1.055450 0.414127
v -0.742066 -0.983611 0.431937
v -0.663325 -0.983102 0.341385
v -0.668608 -1.052724 0.336400
v -0.747348 -1.053233 0.426952
v -0.832851 -0.981932 0.432303
v -0.917087 -0.988319 0.408888
v -0.923118 -1.058029 0.406856
v -0.838882 -1.051642 0.430270
v -0.858166 -1.051785 0.353218
v -0.852134 -0.982074 0.355251
v -0.757898 -0.985687 0.338665
v -0.763930 -1.055397 0.336633
v -0.858166 -1.051785 0.353218
v -0.763930 -1.055397 0.336633
v -0.838882 -1.051642 0.430270
v -0.757898 -0.985687 0.338665
v -0.852134 -0.982074 0.355251
v -0.832851 -0.981932 0.432303
v -0.763930 -1.055397 0.336633
v -0.757898 -0.985687 0.338665
v -0.832851 -0.981932 0.432303
v -0.838882 -1.051642 0.430270
v -0.917087 -0.988319 0.408888
v -0.852134 -0.982074 0.355251
v -0.858166 -1.051785 0.353218
v -0.923118 -1.058029 0.406856
v -0.852134 -0.982074 0.355251
v -0.917087 -0.988319 0.408888
v -0.832851 -0.981932 0.432303
v -0.838882 -1.051642 0.430270
v -0.923118 -1.058029 0.406856
v -0.858166 -1.051785 0.353218
v -0.465173 -0.991682 0.404882
v -0.559784 -0.988163 0.419201
v -0.566269 -1.057600 0.413165
v -0.471658 -1.061118 0.398846
v -0.488910 -1.056850 0.321431
v -0.482425 -0.987413 0.327468
v -0.387814 -0.990932 0.313149
v -0.394300 -1.060369 0.307112
v -0.566269 -1.057600 0.413165
v -0.488910 -1.056850 0.321431
v -0.394300 -1.060369 0.307112
v -0.471658 -1.061118 0.398846
v -0.387814 -0.990932 0.313149
v -0.482425 -0.987413 0.327468
v -0.559784 -0.988163 0.419201
v -0.465173 -0.991682 0.404882
v -0.394300 -1.060369 0.307112
v -0.387814 -0.990932 0.313149
v -0.465173 -0.991682 0.404882
v -0.471658 -1.061118 0.398846
v -0.559784 -0.988163 0.419201
v -0.482425 -0.987413 0.327468
v -0.488910 -1.056850 0.321431
v -0.566269 -1.057600 0.413165
usemtl mat23

vn 0.096487 -0.112212 0.988989
vn 0.096487 -0.112212 0.988989
vn 0.096487 -0.112212 0.988989
vn 0.096487 -0.112212 0.988989
vn -0.096486 0.112212 -0.988989
vn -0.096486 0.112212 -0.988989
vn -0.096486 0.112212 -0.988989
vn -0.096486 0.112212 -0.988989
vn -0.028650 -0.997676 -0.061826
vn -0.028650 -0.997676 -0.061826
vn -0.028650 -0.997676 -0.061826
vn -0.028650 -0.997676 -0.061826
vn 0.028650 0.997676 0.061826
vn 0.028650 0.997676 0.061826
vn 0.028650 0.997676 0.061826
vn 0.028650 0.997676 0.061826
vn 0.727055 -0.126752 0.674778
vn 0.727055 -0.126752 0.674778
vn 0.727055 -0.126752 0.674778
vn 0.727055 -0.126752 0.674778
vn -0.727055 0.126752 -0.674778
vn -0.727055 0.126752 -0.674778
vn -0.727055 0.126752 -0.674778
vn -0.727055 0.126752 -0.674778
vn 0.070416 -0.172449 0.982498
vn 0.070416 -0.172449 0.982498
vn 0.070416 -0.172449 0.982498
vn 0.070416 -0.172449 0.982498
vn -0.070416 0.172449 -0.982498
vn -0.070416 0.172449 -0.982498
vn -0.070416 0.172449 -0.982498
vn -0.070416 0.172449 -0.982498
vn -0.024752 -0.992042 -0.123453
vn -0.024752 -0.992042 -0.123453
vn -0.024752 -0.992042 -0.123453
vn -0.024752 -0.992042 -0.123453
vn 0.024752 0.992042 0.123453
vn 0.024752 0.992042 0.123453
vn 0.024752 0.992042 0.123453
vn 0.024752 0.992042 0.123453
vn 0.709144 -0.167347 0.684915
vn 0.709144 -0.167347 0.684915
vn 0.709144 -0.167347 0.684915
vn 0.709144 -0.167347 0.684915
vn -0.709144 0.167347 -0.684915
vn -0.709144 0.167347 -0.684915
vn -0.709144 0.167347 -0.684915
vn -0.709144 0.167347 -0.684915
vn 0.136182 -0.074624 0.987869
vn 0.136182 -0.074624 0.987869
vn 0.136182 -0.074624 0.987869
vn 0.136182 -0.074624 0.987869
vn -0.136181 0.074624 -0.987869
vn -0.136181 0.074624 -0.987869
vn -0.136181 0.074624 -0.987869
vn -0.136181 0.074624 -0.987869
vn -0.039029 -0.999008 -0.021454
vn -0.039029 -0.999008 -0.021454
vn -0.039029 -0.999008 -0.021454
vn -0.039029 -0.999008 -0.021454
vn 0.039029 0.999008 0.021454
vn 0.039029 0.999008 0.021454
vn 0.039029 0.999008 0.021454
vn 0.039029 0.999008 0.021454
vn 0.753163 -0.107334 0.649019
vn 0.753163 -0.107334 0.649019
vn 0.753163 -0.107334 0.649019
vn 0.753163 -0.107334 0.649019
vn -0.753163 0.107334 -0.649019
vn -0.753163 0.107334 -0.649019
vn -0.753163 0.107334 -0.649019
vn -0.753163 0.107334 -0.649019
vn 0.109614 -0.130084 0.985425
vn 0.109614 -0.130084 0.985425
vn 0.109614 -0.130084 0.985425
vn 0.109614 -0.130084 0.985425
vn -0.109614 0.130084 -0.985425
vn -0.109614 0.130084 -0.985425
vn -0.109614 0.130084 -0.985425
vn -0.109614 0.130084 -0.985425
vn -0.045751 -0.995932 -0.077630
vn -0.045751 -0.995932 -0.077630
vn -0.045751 -0.995932 -0.077630
vn -0.045751 -0.995932 -0.077630
vn 0.045751 0.995932 0.077630
vn 0.045751 0.995932 0.077630
vn 0.045751 0.995932 0.077630
vn 0.045751 0.995932 0.077630
vn 0.735035 -0.149485 0.661345
vn 0.735035 -0.149485 0.661345
vn 0.735035 -0.149485 0.661345
vn 0.735035 -0.149485 0.661345
vn -0.735035 0.149485 -0.661345
vn -0.735035 0.149485 -0.661345
vn -0.735035 0.149485 -0.661345
vn -0.735035 0.149485 -0.661345
vn 0.105555 -0.140938 0.984375
vn 0.105555 -0.140938 0.984375
vn 0.105555 -0.140938 0.984375
vn 0.105555 -0.140938 0.984375
vn -0.105555 0.140938 -0.984375
vn -0.105555 0.140938 -0.984375
vn -0.105555 0.140938 -0.984375
vn -0.105555 0.140938 -0.984375
vn -0.024285 -0.995543 -0.091129
vn -0.024285 -0.995543 -0.091129
vn -0.024285 -0.995543 -0.091129
vn -0.024285 -0.995543 -0.091129
vn 0.024285 0.995543 0.091129
vn 0.024285 0.995543 0.091129
vn 0.024285 0.995543 0.091129
vn 0.024285 0.995543 0.091129
vn 0.733456 -0.142916 0.664543
vn 0.733456 -0.142916 0.664543
vn 0.733456 -0.142916 0.664543
vn 0.733456 -0.142916 0.664543
vn -0.733456 0.142916 -0.664543
vn -0.733456 0.142916 -0.664543
vn -0.733456 0.142916 -0.664543
vn -0.733456 0.142916 -0.664543
vn 0.131683 -0.080724 0.988000
vn 0.131683 -0.080724 0.988000
vn 0.131683 -0.080724 0.988000
vn 0.131683 -0.080724 0.988000
vn -0.131683 0.080724 -0.988000
vn -0.131683 0.080724 -0.988000
vn -0.131683 0.080724 -0.988000
vn -0.131683 0.080724 -0.988000
vn -0.027323 -0.999195 -0.029372
vn -0.027323 -0.999195 -0.029372
vn -0.027323 -0.999195 -0.029372
vn -0.027323 -0.999195 -0.029372
vn 0.027323 0.999195 0.029372
vn 0.027323 0.999195 0.029372
vn 0.027323 0.999195 0.029372
vn 0.027323 0.999195 0.029372
vn 0.750829 -0.103667 0.652310
vn 0.750829 -0.103667 0.652310
vn 0.750829 -0.103667 0.652310
vn 0.750829 -0.103667 0.652310
vn -0.750829 0.103667 -0.652310
vn -0.750829 0.103667 -0.652310
vn -0.750829 0.103667 -0.652310
vn -0.750829 0.103667 -0.652310
vn -0.267455 -0.004948 0.963558
vn -0.267455 -0.004948 0.963558
vn -0.267455 -0.004948 0.963558
vn -0.267455 -0.004948 0.963558
vn -0.171554 0.043534 -0.984213
vn -0.171554 0.043534 -0.984213
vn -0.171554 0.043534 -0.984213
vn -0.171554 0.043534 -0.984213
vn -0.036381 -0.999278 0.010953
vn -0.036381 -0.999278 0.010953
vn -0.036381 -0.999278 0.010953
vn 0.036381 0.999278 -0.010953
vn 0.036381 0.999278 -0.010953
vn 0.036381 0.999278 -0.010953
vn 0.776174 -0.085365 0.624713
vn 0.776174 -0.085365 0.624713
vn 0.776174 -0.085365 0.624713
vn 0.776174 -0.085365 0.624713
vn -0.639256 0.077611 -0.765067
vn -0.639256 0.077611 -0.765067
vn -0.639256 0.077611 -0.765067
vn -0.639256 0.077611 -0.765067
vn -0.080666 0.996572 0.018345
vn -0.080666 0.996572 0.018345
vn -0.080666 0.996572 0.018345
vn 0.080666 -0.996572 -0.018345
vn 0.080666 -0.996572 -0.018345
vn 0.080666 -0.996572 -0.018345
vn 0.145297 -0.099150 0.984407
vn 0.145297 -0.099150 0.984407
vn 0.145297 -0.099150 0.984407
vn 0.145297 -0.099150 0.984407
vn -0.145296 0.099150 -0.984408
vn -0.145296 0.099150 -0.984408
vn -0.145296 0.099150 -0.984408
vn -0.145296 0.099150 -0.984408
vn -0.043958 -0.998009 -0.045229
vn -0.043958 -0.998009 -0.045229
vn -0.043958 -0.998009 -0.045229
vn -0.043958 -0.998009 -0.045229
vn 0.043959 0.998009 0.045229
vn 0.043959 0.998009 0.045229
vn 0.043959 0.998009 0.045229
vn 0.043959 0.998009 0.045229
vn 0.758838 -0.126414 0.638894
vn 0.758838 -0.126414 0.638894
vn 0.758838 -0.126414 0.638894
vn 0.758838 -0.126414 0.638894
vn -0.758838 0.126414 -0.638894
vn -0.758838 0.126414 -0.638894
vn -0.758838 0.126414 -0.638894
vn -0.758838 0.126414 -0.638894

vt 0.007673 -0.104845
vt 0.011829 -0.113472
vt 0.005656 -0.116773
vt 0.001501 -0.108147
vt -0.001402 -0.108819
vt -0.007575 -0.105517
vt -0.003419 -0.096891
vt 0.002754 -0.100192
vt 0.089987 -0.137406
vt 0.084822 -0.126575
vt 0.087433 -0.117362
vt 0.092598 -0.128194
vt -0.087837 -0.117170
vt -0.085226 -0.126382
vt -0.090390 -0.137214
vt -0.093002 -0.128001
vt 0.026569 -0.149578
vt 0.032682 -0.146168
vt 0.038529 -0.156647
vt 0.032416 -0.160058
vt -0.041680 -0.163124
vt -0.035833 -0.152645
vt -0.029720 -0.156055
vt -0.035567 -0.166534
vt -0.002834 -0.065293
vt 0.001113 -0.074017
vt -0.005137 -0.077169
vt -0.009084 -0.068446
vt 0.009199 -0.069115
vt 0.002949 -0.065963
vt 0.006896 -0.057239
vt 0.013146 -0.060391
vt 0.100397 -0.106018
vt 0.095786 -0.094939
vt 0.098859 -0.085870
vt 0.103470 -0.096949
vt -0.099272 -0.085698
vt -0.096199 -0.094767
vt -0.100811 -0.105846
vt -0.103883 -0.096777
vt 0.018307 -0.122197
vt 0.024551 -0.119031
vt 0.029977 -0.129734
vt 0.023734 -0.132900
vt -0.032869 -0.136331
vt -0.027443 -0.125628
vt -0.021199 -0.128794
vt -0.026626 -0.139497
vt 0.013910 -0.127965
vt 0.018249 -0.136500
vt 0.012149 -0.139933
vt 0.007810 -0.131397
vt -0.007725 -0.132071
vt -0.013826 -0.128639
vt -0.009487 -0.120103
vt -0.003386 -0.123535
vt 0.085368 -0.152583
vt 0.079605 -0.142057
vt 0.081697 -0.132713
vt 0.087460 -0.143239
vt -0.082090 -0.132499
vt -0.079998 -0.141842
vt -0.085760 -0.152368
vt -0.087852 -0.143025
vt 0.032090 -0.162836
vt 0.038061 -0.159182
vt 0.044325 -0.169417
vt 0.038354 -0.173071
vt -0.047734 -0.175762
vt -0.041470 -0.165527
vt -0.035500 -0.169181
vt -0.041763 -0.179416
vt 0.001728 -0.089125
vt 0.005970 -0.097709
vt -0.000169 -0.101072
vt -0.004411 -0.092488
vt 0.004503 -0.093161
vt -0.001636 -0.089798
vt 0.002606 -0.081214
vt 0.008745 -0.084577
vt 0.095081 -0.120474
vt 0.089867 -0.109665
vt 0.092437 -0.100442
vt 0.097651 -0.111250
vt -0.092840 -0.100247
vt -0.090270 -0.109471
vt -0.095484 -0.120279
vt -0.098054 -0.111055
vt 0.023049 -0.137352
vt 0.029122 -0.133871
vt 0.035089 -0.144282
vt 0.029016 -0.147763
vt -0.038315 -0.150722
vt -0.032348 -0.140311
vt -0.026275 -0.143792
vt -0.032242 -0.154203
vt -0.000715 -0.079442
vt 0.003308 -0.088131
vt -0.002914 -0.091337
vt -0.006937 -0.082648
vt 0.007046 -0.083318
vt 0.000824 -0.080112
vt 0.004847 -0.071423
vt 0.011069 -0.074629
vt 0.097711 -0.112876
vt 0.092572 -0.102032
vt 0.095205 -0.092826
vt 0.100344 -0.103670
vt -0.095609 -0.092635
vt -0.092976 -0.101841
vt -0.098116 -0.112685
vt -0.100748 -0.103478
vt 0.020197 -0.130651
vt 0.026363 -0.127339
vt 0.032041 -0.137911
vt 0.025874 -0.141223
vt -0.035088 -0.144437
vt -0.029410 -0.133866
vt -0.023243 -0.137178
vt -0.028921 -0.147749
vt 0.010266 -0.118662
vt 0.014487 -0.127256
vt 0.008340 -0.130605
vt 0.004118 -0.122010
vt -0.004025 -0.122683
vt -0.010172 -0.119334
vt -0.005950 -0.110740
vt 0.000197 -0.114088
vt 0.088058 -0.144402
vt 0.082365 -0.133839
vt 0.084518 -0.124509
vt 0.090211 -0.135072
vt -0.084912 -0.124297
vt -0.082759 -0.133627
vt -0.088452 -0.144190
vt -0.090605 -0.134860
vt 0.028910 -0.156756
vt 0.034939 -0.153199
vt 0.041036 -0.163535
vt 0.035007 -0.167092
vt -0.044342 -0.169934
vt -0.038245 -0.159598
vt -0.032216 -0.163155
vt -0.038313 -0.173491
vt -0.005434 -0.089051
vt -0.001644 -0.096955
vt -0.007378 -0.100970
vt -0.011168 -0.093066
vt -0.010687 -0.145528
vt -0.016764 -0.142054
vt -0.012368 -0.133548
vt -0.006291 -0.137021
vt 0.077834 -0.149480
vt 0.079451 -0.140042
vt 0.085738 -0.150263
vt -0.079832 -0.139808
vt -0.078215 -0.149245
vt -0.086119 -0.150029
vt 0.034832 -0.169081
vt 0.040711 -0.165281
vt 0.047225 -0.175359
vt 0.041346 -0.179159
vt -0.039952 -0.179466
vt -0.036567 -0.171727
vt -0.030542 -0.175290
vt -0.033927 -0.183029
vt -0.078456 -0.154453
vt -0.081353 -0.162387
vt -0.086365 -0.155195
vt 0.085906 -0.156267
vt 0.080894 -0.163460
vt 0.077998 -0.155525
vt 0.004382 -0.102947
vt 0.008688 -0.111500
vt 0.002574 -0.114908
vt -0.001732 -0.106356
vt 0.001819 -0.107030
vt -0.004295 -0.103621
vt 0.000011 -0.095068
vt 0.006125 -0.098477
vt 0.093010 -0.127383
vt 0.087265 -0.116848
vt 0.089372 -0.107507
vt 0.095118 -0.118042
vt -0.089765 -0.107293
vt -0.087658 -0.116633
vt -0.093403 -0.127169
vt -0.095510 -0.117828
vt 0.025483 -0.144944
vt 0.031470 -0.141317
vt 0.037687 -0.151581
vt 0.031700 -0.155208
vt -0.041068 -0.157941
vt -0.034850 -0.147677
vt -0.028863 -0.151304
vt -0.035081 -0.161568
s off
f 1/1/1 2/2/2 3/3/3
f 1/1/1 3/3/3 4/4/4
f 5/5/5 6/6/6 7/7/7
f 5/5/5 7/7/7 8/8/8
f 9/9/9 10/10/10 11/11/11
f 9/9/9 11/11/11 12/12/12
f 13/13/13 14/14/14 15/15/15
f 13/13/13 15/15/15 16/16/16
f 17/17/17 18/18/18 19/19/19
f 17/17/17 19/19/19 20/20/20
f 21/21/21 22/22/22 23/23/23
f 21/21/21 23/23/23 24/24/24
f 25/25/25 26/26/26 27/27/27
f 25/25/25 27/27/27 28/28/28
f 29/29/29 30/30/30 31/31/31
f 29/29/29 31/31/31 32/32/32
f 33/33/33 34/34/34 35/35/35
f 33/33/33 35/35/35 36/36/36
f 37/37/37 38/38/38 39/39/39
f 37/37/37 39/39/39 40/40/40
f 41/41/41 42/42/42 43/43/43
f 41/41/41 43/43/43 44/44/44
f 45/45/45 46/46/46 47/47/47
f 45/45/45 47/47/47 48/48/48
f 49/49/49 50/50/50 51/51/51
f 49/49/49 51/51/51 52/52/52
f 53/53/53 54/54/54 55/55/55
f 53/53/53 55/55/55 56/56/56
f 57/57/57 58/58/58 59/59/59
f 57/57/57 59/59/59 60/60/60
f 61/61/61 62/62/62 63/63/63
f 61/61/61 63/63/63 64/64/64
f 65/65/65 66/66/66 67/67/67
f 65/65/65 67/67/67 68/68/68
f 69/69/69 70/70/70 71/71/71
f 69/69/69 71/71/71 72/72/72
f 73/73/73 74/74/74 75/75/75
f 73/73/73 75/75/75 76/76/76
f 77/77/77 78/78/78 79/79/79
f 77/77/77 79/79/79 80/80/80
f 81/81/81 82/82/82 83/83/83
f 81/81/81 83/83/83 84/84/84
f 85/85/85 86/86/86 87/87/87
f 85/85/85 87/87/87 88/88/88
f 89/89/89 90/90/90 91/91/91
f 89/89/89 91/91/91 92/92/92
f 93/93/93 94/94/94 95/95/95
f 93/93/93 95/95/95 96/96/96
f 97/97/97 98/98/98 99/99/99
f 97/97/97 99/99/99 100/100/100
f 101/101/101 102/102/102 103/103/103
f 101/101/101 103/103/103 104/104/104
f 105/105/105 106/106/106 107/107/107
f 105/105/105 107/107/107 108/108/108
f 109/109/109 110/110/110 111/111/111
f 109/109/109 111/111/111 112/112/112
f 113/113/113 114/114/114 115/115/115
f 113/113/113 115/115/115 116/116/116
f 117/117/117 118/118/118 119/119/119
f 117/117/117 119/119/119 120/120/120
f 121/121/121 122/122/122 123/123/123
f 121/121/121 123/123/123 124/124/124
f 125/125/125 126/126/126 127/127/127
f 125/125/125 127/127/127 128/128/128
f 129/129/129 130/130/130 131/131/131
f 129/129/129 131/131/131 132/132/132
f 133/133/133 134/134/134 135/135/135
f 133/133/133 135/135/135 136/136/136
f 137/137/137 138/138/138 139/139/139
f 137/137/137 139/139/139 140/140/140
f 141/141/141 142/142/142 143/143/143
f 141/141/141 143/143/143 144/144/144
f 145/145/145 146/146/146 147/147/147
f 145/145/145 147/147/147 148/148/148
f 149/149/149 150/150/150 151/151/151
f 149/149/149 151/151/151 152/152/152
f 153/153/153 154/154/154 155/155/155
f 156/156/156 157/157/157 158/158/158
f 159/159/159 160/160/160 161/161/161
f 159/159/159 161/161/161 162/162/162
f 163/163/163 164/164/164 165/165/165
f 163/163/163 165/165/165 166/166/166
f 167/167/167 168/168/168 169/169/169
f 170/170/170 171/171/171 172/172/172
f 173/173/173 174/174/174 175/175/175
f 173/173/173 175/175/175 176/176/176
f 177/177/177 178/178/178 179/179/179
f 177/177/177 179/179/179 180/180/180
f 181/181/181 182/182/182 183/183/183
f 181/181/181 183/183/183 184/184/184
f 185/185/185 186/186/186 187/187/187
f 185/185/185 187/187/187 188/188/188
f 189/189/189 190/190/190 191/191/191
f 189/189/189 191/191/191 192/192/192
f 193/193/193 194/194/194 195/195/195
f 193/193/193 195/195/195 196/196/196
