# Exported using automatic converter by Erwin Coumans
mtllib botlab.mtl
#object mesh880551790

v -2.721762 0.325489 -0.690148
v -2.691762 0.325489 -0.690148
v -2.691762 -0.324511 -0.690148
v -2.721762 -0.324511 -0.690148
v -2.691762 -0.324511 -0.540148
v -2.691762 0.325489 -0.540148
v -2.721762 0.325489 -0.540148
v -2.721762 -0.324511 -0.540148
v -2.691762 -0.324511 -0.690148
v -2.691762 -0.324511 -0.540148
v -2.721762 -0.324511 -0.540148
v -2.721762 -0.324511 -0.690148
v -2.721762 0.325489 -0.540148
v -2.691762 0.325489 -0.540148
v -2.691762 0.325489 -0.690148
v -2.721762 0.325489 -0.690148
v -2.721762 -0.324511 -0.540148
v -2.721762 0.325489 -0.540148
v -2.721762 0.325489 -0.690148
v -2.721762 -0.324511 -0.690148
v -2.691762 0.325489 -0.690148
v -2.691762 0.325489 -0.540148
v -2.691762 -0.324511 -0.540148
v -2.691762 -0.324511 -0.690148
usemtl mat21

vn -0.000000 -0.000000 -1.000000
vn -0.000000 -0.000000 -1.000000
vn -0.000000 -0.000000 -1.000000
vn -0.000000 -0.000000 -1.000000
vn 0.000000 0.000000 1.000000
vn 0.000000 0.000000 1.000000
vn 0.000000 0.000000 1.000000
vn 0.000000 0.000000 1.000000
vn -0.000000 -1.000000 0.000000
vn -0.000000 -1.000000 0.000000
vn -0.000000 -1.000000 0.000000
vn -0.000000 -1.000000 0.000000
vn 0.000000 1.000000 -0.000000
vn 0.000000 1.000000 -0.000000
vn 0.000000 1.000000 -0.000000
vn 0.000000 1.000000 -0.000000
vn -1.000000 0.000000 0.000000
vn -1.000000 0.000000 0.000000
vn -1.000000 0.000000 0.000000
vn -1.000000 0.000000 0.000000
vn 1.000000 -0.000000 -0.000000
vn 1.000000 -0.000000 -0.000000
vn 1.000000 -0.000000 -0.000000
vn 1.000000 -0.000000 -0.000000

vt -0.207954 -0.234787
vt -0.206613 -0.232104
vt -0.148475 -0.261173
vt -0.149817 -0.263856
vt 0.148475 -0.261173
vt 0.206613 -0.232104
vt 0.207954 -0.234787
vt 0.149817 -0.263856
vt -0.082066 -0.289249
vt -0.067940 -0.294294
vt -0.068949 -0.297120
vt -0.083075 -0.292075
vt 0.068949 -0.297120
vt 0.067940 -0.294294
vt 0.082066 -0.289249
vt 0.083075 -0.292075
vt -0.037780 -0.007324
vt -0.075561 0.045569
vt -0.063355 0.054288
vt -0.025574 0.001395
vt 0.063355 0.054288
vt 0.075561 0.045569
vt 0.037780 -0.007324
vt 0.025574 0.001395
s off
f 1/1/1 2/2/2 3/3/3
f 1/1/1 3/3/3 4/4/4
f 5/5/5 6/6/6 7/7/7
f 5/5/5 7/7/7 8/8/8
f 9/9/9 10/10/10 11/11/11
f 9/9/9 11/11/11 12/12/12
f 13/13/13 14/14/14 15/15/15
f 13/13/13 15/15/15 16/16/16
f 17/17/17 18/18/18 19/19/19
f 17/17/17 19/19/19 20/20/20
f 21/21/21 22/22/22 23/23/23
f 21/21/21 23/23/23 24/24/24
