# Exported using automatic converter by Erwin Coumans
mtllib botlab.mtl
#object mesh793271444

v 0.668316 -0.497401 2.450668
v 0.659243 -0.503814 2.471130
v 0.673846 -0.466139 2.467221
v 0.659243 -0.503814 2.471130
v 0.647728 -0.488836 2.474384
v 0.673846 -0.466139 2.467221
v 0.647728 -0.488836 2.474384
v 0.644405 -0.488863 2.490566
v 0.673846 -0.466139 2.467221
v 0.644405 -0.488863 2.490566
v 0.663816 -0.475335 2.497126
v 0.673846 -0.466139 2.467221
v 0.663816 -0.475335 2.497126
v 0.662113 -0.465131 2.522121
v 0.673846 -0.466139 2.467221
v 0.662113 -0.465131 2.522121
v 0.683140 -0.475303 2.525165
v 0.673846 -0.466139 2.467221
v 0.683140 -0.475303 2.525165
v 0.692188 -0.474815 2.515560
v 0.673846 -0.466139 2.467221
v 0.692188 -0.474815 2.515560
v 0.700627 -0.475897 2.485113
v 0.673846 -0.466139 2.467221
v 0.700627 -0.475897 2.485113
v 0.706338 -0.518370 2.502835
v 0.673846 -0.466139 2.467221
v 0.704561 -0.514009 2.444726
v 0.674755 -0.491990 2.447279
v 0.673846 -0.466139 2.467221
v 0.674755 -0.491990 2.447279
v 0.684152 -0.493042 2.452089
v 0.673846 -0.466139 2.467221
v 0.684152 -0.493042 2.452089
v 0.668316 -0.497401 2.450668
v 0.673846 -0.466139 2.467221
v 0.706338 -0.518370 2.502835
v 0.647728 -0.488836 2.474384
v 0.659243 -0.503814 2.471130
v 0.706338 -0.518370 2.502835
v 0.700627 -0.475897 2.485113
v 0.692188 -0.474815 2.515560
v 0.706338 -0.518370 2.502835
v 0.692188 -0.474815 2.515560
v 0.683140 -0.475303 2.525165
v 0.684152 -0.493042 2.452089
v 0.674755 -0.491990 2.447279
v 0.706338 -0.518370 2.502835
v 0.668316 -0.497401 2.450668
v 0.684152 -0.493042 2.452089
v 0.706338 -0.518370 2.502835
v 0.659243 -0.503814 2.471130
v 0.668316 -0.497401 2.450668
v 0.706338 -0.518370 2.502835
v 0.683140 -0.475303 2.525165
v 0.662113 -0.465131 2.522121
v 0.663816 -0.475335 2.497126
v 0.683140 -0.475303 2.525165
v 0.663816 -0.475335 2.497126
v 0.644405 -0.488863 2.490566
v 0.706338 -0.518370 2.502835
v 0.683140 -0.475303 2.525165
v 0.644405 -0.488863 2.490566
v 0.706338 -0.518370 2.502835
v 0.644405 -0.488863 2.490566
v 0.647728 -0.488836 2.474384
v 0.718532 -0.507060 2.466595
v 0.706338 -0.518370 2.502835
v 0.674755 -0.491990 2.447279
v 0.718532 -0.507060 2.466595
v 0.673846 -0.466139 2.467221
v 0.706338 -0.518370 2.502835
v 0.718532 -0.507060 2.466595
v 0.704561 -0.514009 2.444726
v 0.713432 -0.494991 2.453834
v 0.673846 -0.466139 2.467221
v 0.713432 -0.494991 2.453834
v 0.704561 -0.514009 2.444726
v 0.718532 -0.507060 2.466595
v 0.713432 -0.494991 2.453834
v 0.673846 -0.466139 2.467221
v 0.674755 -0.491990 2.447279
v 0.704561 -0.514009 2.444726
v 0.718532 -0.507060 2.466595
usemtl mat6

vn -0.899695 0.317664 -0.299397
vn -0.899695 0.317664 -0.299397
vn -0.899695 0.317664 -0.299397
vn -0.267471 0.003685 -0.963559
vn -0.267471 0.003685 -0.963559
vn -0.267471 0.003685 -0.963559
vn -0.670863 0.728904 -0.136535
vn -0.670863 0.728904 -0.136535
vn -0.670863 0.728904 -0.136535
vn -0.583076 0.810638 0.053733
vn -0.583076 0.810638 0.053733
vn -0.583076 0.810638 0.053733
vn -0.917453 0.342533 -0.202365
vn -0.917453 0.342533 -0.202365
vn -0.917453 0.342533 -0.202365
vn 0.425513 0.901890 0.074385
vn 0.425513 0.901890 0.074385
vn 0.425513 0.901890 0.074385
vn 0.095961 0.985426 0.140455
vn 0.095961 0.985426 0.140455
vn 0.095961 0.985426 0.140455
vn 0.310762 0.949041 0.052418
vn 0.310762 0.949041 0.052418
vn 0.310762 0.949041 0.052418
vn 0.456481 -0.289656 -0.841264
vn 0.456481 -0.289656 -0.841264
vn 0.456481 -0.289656 -0.841264
vn 0.363587 0.576976 -0.731371
vn 0.363587 0.576976 -0.731371
vn 0.363587 0.576976 -0.731371
vn -0.425881 -0.561979 0.709088
vn -0.425881 -0.561979 0.709088
vn -0.425881 -0.561979 0.709088
vn -0.051710 0.474450 -0.878762
vn -0.051710 0.474450 -0.878762
vn -0.051710 0.474450 -0.878762
vn -0.573030 -0.568739 0.590062
vn -0.573030 -0.568739 0.590062
vn -0.573030 -0.568739 0.590062
vn 0.939564 0.231555 0.252194
vn 0.939564 0.231555 0.252194
vn 0.939564 0.231555 0.252194
vn 0.726492 0.035521 0.686257
vn 0.726492 0.035521 0.686257
vn 0.726492 0.035521 0.686257
vn -0.157958 0.854184 0.495398
vn -0.157958 0.854184 0.495398
vn -0.157958 0.854184 0.495398
vn 0.269602 -0.809332 -0.521821
vn 0.269602 -0.809332 -0.521821
vn 0.269602 -0.809332 -0.521821
vn -0.071207 -0.942371 -0.326905
vn -0.071207 -0.942371 -0.326905
vn -0.071207 -0.942371 -0.326905
vn -0.449975 -0.837111 0.311076
vn -0.449975 -0.837111 0.311076
vn -0.449975 -0.837111 0.311076
vn -0.610138 0.671996 0.419705
vn -0.610138 0.671996 0.419705
vn -0.610138 0.671996 0.419705
vn -0.416620 -0.585132 0.695736
vn -0.416620 -0.585132 0.695736
vn -0.416620 -0.585132 0.695736
vn -0.414475 -0.905931 -0.086599
vn -0.414475 -0.905931 -0.086599
vn -0.414475 -0.905931 -0.086599
vn -0.166181 -0.924036 -0.344299
vn -0.166181 -0.924036 -0.344299
vn -0.166181 -0.924036 -0.344299
vn 0.617283 0.667710 0.416083
vn 0.617283 0.667710 0.416083
vn 0.617283 0.667710 0.416083
vn 0.854132 -0.161705 -0.494277
vn 0.854132 -0.161705 -0.494277
vn 0.854132 -0.161705 -0.494277
vn 0.007312 0.429135 -0.903211
vn 0.007312 0.429135 -0.903211
vn 0.007312 0.429135 -0.903211
vn 0.624854 0.676379 0.389960
vn 0.624854 0.676379 0.389960
vn 0.624854 0.676379 0.389960
vn -0.475161 -0.704342 0.527375
vn -0.475161 -0.704342 0.527375
vn -0.475161 -0.704342 0.527375

vt -0.257457 -0.170239
vt -0.258677 -0.172222
vt -0.260687 -0.168696
vt -0.023297 -0.051020
vt -0.025162 -0.051463
vt -0.026059 -0.048046
vt -0.318285 -0.091012
vt -0.319733 -0.091808
vt -0.318803 -0.087516
vt -0.331172 -0.075790
vt -0.332509 -0.073730
vt -0.330057 -0.071543
vt -0.283731 -0.159142
vt -0.286375 -0.159717
vt -0.281767 -0.156508
vt -0.305667 -0.149933
vt -0.307144 -0.148098
vt -0.301542 -0.146123
vt -0.322031 -0.107668
vt -0.321526 -0.106449
vt -0.316292 -0.106136
vt -0.319717 -0.119590
vt -0.317365 -0.117477
vt -0.314488 -0.119223
vt 0.194504 0.082002
vt 0.198596 0.079819
vt 0.191516 0.080453
vt -0.167779 0.176613
vt -0.170358 0.173940
vt -0.173556 0.174604
vt 0.163587 0.192148
vt 0.163535 0.193208
vt 0.166772 0.192873
vt -0.147154 0.061794
vt -0.147121 0.060146
vt -0.150401 0.061581
vt 0.186645 0.222997
vt 0.188442 0.216073
vt 0.186849 0.217139
vt 0.105631 -0.301051
vt 0.108916 -0.297778
vt 0.110361 -0.300589
vt 0.088330 -0.201142
vt 0.093075 -0.200852
vt 0.093631 -0.202050
vt -0.284633 -0.082776
vt -0.283766 -0.083387
vt -0.290679 -0.083511
vt 0.286353 -0.064439
vt 0.287052 -0.062946
vt 0.293098 -0.063680
vt 0.295322 -0.121568
vt 0.293834 -0.119777
vt 0.300572 -0.118963
vt 0.331936 0.004288
vt 0.331418 0.001990
vt 0.328851 0.002845
vt -0.320150 -0.029860
vt -0.316853 -0.030713
vt -0.315719 -0.032890
vt 0.177546 0.190141
vt 0.182732 0.188721
vt 0.180511 0.183834
vt 0.306655 -0.144393
vt 0.302013 -0.149592
vt 0.300787 -0.148484
vt 0.286769 -0.132875
vt 0.289498 -0.135781
vt 0.282586 -0.135645
vt -0.163801 -0.246589
vt -0.158456 -0.249444
vt -0.165526 -0.250184
vt 0.305395 0.063777
vt 0.303101 0.062379
vt 0.303749 0.064573
vt -0.128486 0.078960
vt -0.124303 0.081839
vt -0.122538 0.080384
vt -0.169207 -0.248407
vt -0.167500 -0.247750
vt -0.163900 -0.251331
vt 0.263641 0.133801
vt 0.262038 0.137152
vt 0.264167 0.138790
s off
f 1/1/1 2/2/2 3/3/3
f 4/4/4 5/5/5 6/6/6
f 7/7/7 8/8/8 9/9/9
f 10/10/10 11/11/11 12/12/12
f 13/13/13 14/14/14 15/15/15
f 16/16/16 17/17/17 18/18/18
f 19/19/19 20/20/20 21/21/21
f 22/22/22 23/23/23 24/24/24
f 25/25/25 26/26/26 27/27/27
f 28/28/28 29/29/29 30/30/30
f 31/31/31 32/32/32 33/33/33
f 34/34/34 35/35/35 36/36/36
f 37/37/37 38/38/38 39/39/39
f 40/40/40 41/41/41 42/42/42
f 43/43/43 44/44/44 45/45/45
f 46/46/46 47/47/47 48/48/48
f 49/49/49 50/50/50 51/51/51
f 52/52/52 53/53/53 54/54/54
f 55/55/55 56/56/56 57/57/57
f 58/58/58 59/59/59 60/60/60
f 61/61/61 62/62/62 63/63/63
f 64/64/64 65/65/65 66/66/66
f 67/67/67 68/68/68 69/69/69
f 70/70/70 71/71/71 72/72/72
f 73/73/73 74/74/74 75/75/75
f 76/76/76 77/77/77 78/78/78
f 79/79/79 80/80/80 81/81/81
f 82/82/82 83/83/83 84/84/84
