# Exported using automatic converter by Erwin Coumans
mtllib botlab.mtl
#object mesh1822499751

v 0.938382 -0.621260 2.646131
v 0.928986 -0.616786 2.629051
v 0.950680 -0.606345 2.619852
v 0.960077 -0.610819 2.636930
v 0.941934 -0.577208 2.632296
v 0.920239 -0.587650 2.641496
v 0.929636 -0.592124 2.658575
v 0.951330 -0.581682 2.649375
v 0.950680 -0.606345 2.619852
v 0.941934 -0.577208 2.632296
v 0.951330 -0.581682 2.649375
v 0.960077 -0.610819 2.636930
v 0.929636 -0.592124 2.658575
v 0.920239 -0.587650 2.641496
v 0.928986 -0.616786 2.629051
v 0.938382 -0.621260 2.646131
v 0.951330 -0.581682 2.649375
v 0.929636 -0.592124 2.658575
v 0.938382 -0.621260 2.646131
v 0.960077 -0.610819 2.636930
v 0.928986 -0.616786 2.629051
v 0.920239 -0.587650 2.641496
v 0.941934 -0.577208 2.632296
v 0.950680 -0.606345 2.619852
usemtl mat6

vn 0.266111 -0.886472 -0.378619
vn 0.266111 -0.886472 -0.378619
vn 0.266111 -0.886472 -0.378619
vn 0.266111 -0.886472 -0.378619
vn -0.266111 0.886472 0.378619
vn -0.266111 0.886472 0.378619
vn -0.266111 0.886472 0.378619
vn -0.266111 0.886472 0.378619
vn 0.841703 0.405125 -0.356943
vn 0.841703 0.405125 -0.356943
vn 0.841703 0.405125 -0.356943
vn 0.841703 0.405125 -0.356943
vn -0.841703 -0.405125 0.356943
vn -0.841703 -0.405125 0.356943
vn -0.841703 -0.405125 0.356943
vn -0.841703 -0.405125 0.356943
vn 0.469809 -0.223699 0.853955
vn 0.469809 -0.223699 0.853955
vn 0.469809 -0.223699 0.853955
vn 0.469809 -0.223699 0.853955
vn -0.469809 0.223699 -0.853955
vn -0.469809 0.223699 -0.853955
vn -0.469809 0.223699 -0.853955
vn -0.469809 0.223699 -0.853955

vt 0.337860 -0.063531
vt 0.335862 -0.063622
vt 0.335746 -0.061047
vt 0.337744 -0.060957
vt -0.335746 -0.061047
vt -0.335862 -0.063622
vt -0.337860 -0.063531
vt -0.337744 -0.060957
vt 0.124017 0.326034
vt 0.121439 0.328073
vt 0.122680 0.329641
vt 0.125258 0.327602
vt -0.122680 0.329641
vt -0.121439 0.328073
vt -0.124017 0.326034
vt -0.125258 0.327602
vt 0.110938 -0.072230
vt 0.111030 -0.074805
vt 0.107746 -0.074923
vt 0.107653 -0.072347
vt -0.107746 -0.074923
vt -0.111030 -0.074805
vt -0.110938 -0.072230
vt -0.107653 -0.072347
s off
f 1/1/1 2/2/2 3/3/3
f 1/1/1 3/3/3 4/4/4
f 5/5/5 6/6/6 7/7/7
f 5/5/5 7/7/7 8/8/8
f 9/9/9 10/10/10 11/11/11
f 9/9/9 11/11/11 12/12/12
f 13/13/13 14/14/14 15/15/15
f 13/13/13 15/15/15 16/16/16
f 17/17/17 18/18/18 19/19/19
f 17/17/17 19/19/19 20/20/20
f 21/21/21 22/22/22 23/23/23
f 21/21/21 23/23/23 24/24/24
