# Exported using automatic converter by Erwin Coumans
mtllib botlab.mtl
#object mesh781274546

v -0.221762 0.555489 2.369852
v -0.401762 0.555489 2.369852
v -0.401762 0.405489 2.369852
v -0.221762 0.405489 2.369852
v -0.401762 0.405489 2.339852
v -0.401762 0.555489 2.339852
v -0.221762 0.555489 2.339852
v -0.221762 0.405489 2.339852
v -0.401762 0.405489 2.369852
v -0.401762 0.405489 2.339852
v -0.221762 0.405489 2.339852
v -0.221762 0.405489 2.369852
v -0.221762 0.555489 2.339852
v -0.401762 0.555489 2.339852
v -0.401762 0.555489 2.369852
v -0.221762 0.555489 2.369852
v -0.221762 0.405489 2.339852
v -0.221762 0.555489 2.339852
v -0.221762 0.555489 2.369852
v -0.221762 0.405489 2.369852
v -0.401762 0.555489 2.369852
v -0.401762 0.555489 2.339852
v -0.401762 0.405489 2.339852
v -0.401762 0.405489 2.369852
usemtl mat15

vn -0.000000 0.000000 1.000000
vn -0.000000 0.000000 1.000000
vn -0.000000 0.000000 1.000000
vn -0.000000 0.000000 1.000000
vn 0.000000 0.000000 -1.000000
vn 0.000000 0.000000 -1.000000
vn 0.000000 0.000000 -1.000000
vn 0.000000 0.000000 -1.000000
vn 0.000000 -1.000000 0.000000
vn 0.000000 -1.000000 0.000000
vn 0.000000 -1.000000 0.000000
vn 0.000000 -1.000000 0.000000
vn -0.000000 1.000000 0.000000
vn -0.000000 1.000000 0.000000
vn -0.000000 1.000000 0.000000
vn -0.000000 1.000000 0.000000
vn 1.000000 0.000000 0.000000
vn 1.000000 0.000000 0.000000
vn 1.000000 0.000000 0.000000
vn 1.000000 0.000000 0.000000
vn -1.000000 -0.000000 -0.000000
vn -1.000000 -0.000000 -0.000000
vn -1.000000 -0.000000 -0.000000
vn -1.000000 -0.000000 -0.000000

vt 0.116723 -0.000894
vt 0.124773 -0.016994
vt 0.111356 -0.023702
vt 0.103306 -0.007603
vt -0.111356 -0.023702
vt -0.124773 -0.016994
vt -0.116723 -0.000894
vt -0.103306 -0.007603
vt 0.283128 -0.176509
vt 0.280303 -0.175500
vt 0.286357 -0.158549
vt 0.289182 -0.159558
vt -0.286357 -0.158549
vt -0.280303 -0.175500
vt -0.283128 -0.176509
vt -0.289182 -0.159558
vt 0.314566 -0.115318
vt 0.323285 -0.103112
vt 0.325726 -0.104856
vt 0.317007 -0.117062
vt -0.325726 -0.104856
vt -0.323285 -0.103112
vt -0.314566 -0.115318
vt -0.317007 -0.117062
s off
f 1/1/1 2/2/2 3/3/3
f 1/1/1 3/3/3 4/4/4
f 5/5/5 6/6/6 7/7/7
f 5/5/5 7/7/7 8/8/8
f 9/9/9 10/10/10 11/11/11
f 9/9/9 11/11/11 12/12/12
f 13/13/13 14/14/14 15/15/15
f 13/13/13 15/15/15 16/16/16
f 17/17/17 18/18/18 19/19/19
f 17/17/17 19/19/19 20/20/20
f 21/21/21 22/22/22 23/23/23
f 21/21/21 23/23/23 24/24/24
