# Exported using automatic converter by Erwin Coumans
mtllib botlab.mtl
#object mesh1498701513

v 0.905223 -0.630418 2.652185
v 0.896239 -0.621101 2.636938
v 0.931916 -0.614503 2.619950
v 0.940899 -0.623820 2.635197
v 0.933883 -0.590746 2.633308
v 0.898207 -0.597344 2.650296
v 0.907190 -0.606662 2.665544
v 0.942867 -0.600064 2.648556
v 0.931916 -0.614503 2.619950
v 0.933883 -0.590746 2.633308
v 0.942867 -0.600064 2.648556
v 0.940899 -0.623820 2.635197
v 0.907190 -0.606662 2.665544
v 0.898207 -0.597344 2.650296
v 0.896239 -0.621101 2.636938
v 0.905223 -0.630418 2.652185
v 0.942867 -0.600064 2.648556
v 0.907190 -0.606662 2.665544
v 0.905223 -0.630418 2.652185
v 0.940899 -0.623820 2.635197
v 0.896239 -0.621101 2.636938
v 0.898207 -0.597344 2.650296
v 0.933883 -0.590746 2.633308
v 0.931916 -0.614503 2.619950
usemtl mat6

vn -0.071996 -0.869388 -0.488857
vn -0.071996 -0.869388 -0.488857
vn -0.071996 -0.869388 -0.488857
vn -0.071996 -0.869388 -0.488857
vn 0.071996 0.869388 0.488857
vn 0.071996 0.869388 0.488857
vn 0.071996 0.869388 0.488857
vn 0.071996 0.869388 0.488857
vn 0.890541 0.164692 -0.424043
vn 0.890541 0.164692 -0.424043
vn 0.890541 0.164692 -0.424043
vn 0.890541 0.164692 -0.424043
vn -0.890541 -0.164692 0.424043
vn -0.890541 -0.164692 0.424043
vn -0.890541 -0.164692 0.424043
vn -0.890541 -0.164692 0.424043
vn 0.449169 -0.465876 0.762369
vn 0.449169 -0.465876 0.762369
vn 0.449169 -0.465876 0.762369
vn 0.449169 -0.465876 0.762369
vn -0.449169 0.465876 -0.762369
vn -0.449169 0.465876 -0.762369
vn -0.449169 0.465876 -0.762369
vn -0.449169 0.465876 -0.762369

vt 0.298341 -0.114444
vt 0.296344 -0.114344
vt 0.296543 -0.110343
vt 0.298541 -0.110443
vt -0.296543 -0.110343
vt -0.296344 -0.114344
vt -0.298341 -0.114444
vt -0.298541 -0.110443
vt 0.324883 0.112286
vt 0.325338 0.114980
vt 0.327310 0.114647
vt 0.326855 0.111953
vt -0.327310 0.114647
vt -0.325338 0.114980
vt -0.324883 0.112286
vt -0.326855 0.111953
vt 0.187690 -0.044081
vt 0.188825 -0.047923
vt 0.186204 -0.048697
vt 0.185069 -0.044855
vt -0.186204 -0.048697
vt -0.188825 -0.047923
vt -0.187690 -0.044081
vt -0.185069 -0.044855
s off
f 1/1/1 2/2/2 3/3/3
f 1/1/1 3/3/3 4/4/4
f 5/5/5 6/6/6 7/7/7
f 5/5/5 7/7/7 8/8/8
f 9/9/9 10/10/10 11/11/11
f 9/9/9 11/11/11 12/12/12
f 13/13/13 14/14/14 15/15/15
f 13/13/13 15/15/15 16/16/16
f 17/17/17 18/18/18 19/19/19
f 17/17/17 19/19/19 20/20/20
f 21/21/21 22/22/22 23/23/23
f 21/21/21 23/23/23 24/24/24
