# Exported using automatic converter by Erwin Coumans
mtllib botlab.mtl
#object mesh1747587273

v 2.058238 0.485489 -3.060148
v 2.058238 0.485489 -2.970148
v 2.058238 -0.474511 -2.970148
v 2.058238 -0.474511 -3.060148
v 1.968238 -0.474511 -2.970148
v 1.968238 0.485489 -2.970148
v 1.968238 0.485489 -3.060148
v 1.968238 -0.474511 -3.060148
v 2.058238 -0.474511 -2.970148
v 1.968238 -0.474511 -2.970148
v 1.968238 -0.474511 -3.060148
v 2.058238 -0.474511 -3.060148
v 1.968238 0.485489 -3.060148
v 1.968238 0.485489 -2.970148
v 2.058238 0.485489 -2.970148
v 2.058238 0.485489 -3.060148
v 1.968238 -0.474511 -3.060148
v 1.968238 0.485489 -3.060148
v 2.058238 0.485489 -3.060148
v 2.058238 -0.474511 -3.060148
v 2.058238 0.485489 -2.970148
v 1.968238 0.485489 -2.970148
v 1.968238 -0.474511 -2.970148
v 2.058238 -0.474511 -2.970148
usemtl mat15

vn 1.000000 0.000000 0.000000
vn 1.000000 0.000000 0.000000
vn 1.000000 0.000000 0.000000
vn 1.000000 0.000000 0.000000
vn -1.000000 0.000000 -0.000000
vn -1.000000 0.000000 -0.000000
vn -1.000000 0.000000 -0.000000
vn -1.000000 0.000000 -0.000000
vn 0.000000 -1.000000 -0.000000
vn 0.000000 -1.000000 -0.000000
vn 0.000000 -1.000000 -0.000000
vn 0.000000 -1.000000 -0.000000
vn -0.000000 1.000000 0.000000
vn -0.000000 1.000000 0.000000
vn -0.000000 1.000000 0.000000
vn -0.000000 1.000000 0.000000
vn 0.000000 0.000000 -1.000000
vn 0.000000 0.000000 -1.000000
vn 0.000000 0.000000 -1.000000
vn 0.000000 0.000000 -1.000000
vn -0.000000 -0.000000 1.000000
vn -0.000000 -0.000000 1.000000
vn -0.000000 -0.000000 1.000000
vn -0.000000 -0.000000 1.000000

vt -0.120200 0.205061
vt -0.112876 0.199830
vt -0.168675 0.121711
vt -0.175999 0.126943
vt 0.168675 0.121711
vt 0.112876 0.199830
vt 0.120200 0.205061
vt 0.175999 0.126943
vt -0.137023 0.234763
vt -0.140051 0.226287
vt -0.148526 0.229314
vt -0.145499 0.237790
vt 0.148526 0.229314
vt 0.140050 0.226287
vt 0.137023 0.234763
vt 0.145499 0.237790
vt 0.073343 0.148922
vt -0.012522 0.191855
vt -0.008497 0.199904
vt 0.077368 0.156972
vt 0.008497 0.199904
vt 0.012522 0.191855
vt -0.073343 0.148922
vt -0.077368 0.156972
s off
f 1/1/1 2/2/2 3/3/3
f 1/1/1 3/3/3 4/4/4
f 5/5/5 6/6/6 7/7/7
f 5/5/5 7/7/7 8/8/8
f 9/9/9 10/10/10 11/11/11
f 9/9/9 11/11/11 12/12/12
f 13/13/13 14/14/14 15/15/15
f 13/13/13 15/15/15 16/16/16
f 17/17/17 18/18/18 19/19/19
f 17/17/17 19/19/19 20/20/20
f 21/21/21 22/22/22 23/23/23
f 21/21/21 23/23/23 24/24/24
