# Exported using automatic converter by Erwin Coumans
mtllib botlab.mtl
#object mesh1727985470

v 1.859236 2.235219 -0.368093
v 1.852045 2.234652 -0.358811
v 1.855844 2.319703 -0.386631
v 1.862987 2.320547 -0.395929
v 1.852045 2.234652 -0.358811
v 1.858448 2.236542 -0.349134
v 1.862324 2.321144 -0.376929
v 1.855844 2.319703 -0.386631
v 1.858448 2.236542 -0.349134
v 1.869596 2.238278 -0.352437
v 1.873472 2.322878 -0.380231
v 1.862324 2.321144 -0.376929
v 1.869596 2.238278 -0.352437
v 1.870083 2.237461 -0.364154
v 1.873882 2.322510 -0.391974
v 1.873472 2.322878 -0.380231
v 1.870083 2.237461 -0.364154
v 1.859236 2.235219 -0.368093
v 1.862987 2.320547 -0.395929
v 1.873882 2.322510 -0.391974
v 1.870083 2.237461 -0.364154
v 1.869596 2.238278 -0.352437
v 1.858448 2.236542 -0.349134
v 1.852045 2.234652 -0.358811
v 1.859236 2.235219 -0.368093
v 1.862987 2.320547 -0.395929
v 1.855844 2.319703 -0.386631
v 1.862324 2.321144 -0.376929
v 1.873472 2.322878 -0.380231
v 1.873882 2.322510 -0.391974
usemtl mat23

vn -0.774828 -0.165012 -0.610256
vn -0.774828 -0.165012 -0.610256
vn -0.774828 -0.165012 -0.610256
vn -0.774828 -0.165012 -0.610256
vn -0.830749 0.206980 0.516736
vn -0.830749 0.206980 0.516736
vn -0.830749 0.206980 0.516736
vn -0.830749 0.206980 0.516736
vn 0.229039 0.294338 0.927850
vn 0.229039 0.294338 0.927850
vn 0.229039 0.294338 0.927850
vn 0.229039 0.294338 0.927850
vn 0.998691 -0.032143 0.039795
vn 0.998691 -0.032143 0.039795
vn 0.998691 -0.032143 0.039795
vn 0.998691 -0.032143 0.039795
vn 0.376438 -0.302709 -0.875592
vn 0.376438 -0.302709 -0.875592
vn 0.376438 -0.302709 -0.875592
vn 0.376438 -0.302709 -0.875592
vn 0.175285 -0.981599 0.075758
vn 0.175285 -0.981599 0.075758
vn 0.175285 -0.981599 0.075758
vn 0.175285 -0.981599 0.075758
vn 0.175285 -0.981599 0.075758
vn -0.164234 0.985740 -0.036670
vn -0.164234 0.985740 -0.036670
vn -0.164234 0.985740 -0.036670
vn -0.164234 0.985740 -0.036670
vn -0.164234 0.985740 -0.036670

vt -0.199523 0.148884
vt -0.199948 0.147788
vt -0.206843 0.153504
vt -0.206445 0.154610
vt -0.033199 0.312268
vt -0.034245 0.312804
vt -0.029560 0.320386
vt -0.028494 0.319890
vt 0.150736 0.225367
vt 0.150395 0.226492
vt 0.157916 0.231276
vt 0.158257 0.230151
vt 0.203904 0.193732
vt 0.202916 0.194368
vt 0.205766 0.202859
vt 0.206730 0.202186
vt -0.086898 0.298074
vt -0.087491 0.297059
vt -0.094667 0.302464
vt -0.094050 0.303465
vt 0.127153 0.171667
vt 0.128266 0.171287
vt 0.128248 0.170111
vt 0.127125 0.169765
vt 0.126448 0.170726
vt -0.117024 0.171825
vt -0.117689 0.170855
vt -0.118816 0.171188
vt -0.118848 0.172363
vt -0.117740 0.172756
s off
f 1/1/1 2/2/2 3/3/3
f 1/1/1 3/3/3 4/4/4
f 5/5/5 6/6/6 7/7/7
f 5/5/5 7/7/7 8/8/8
f 9/9/9 10/10/10 11/11/11
f 9/9/9 11/11/11 12/12/12
f 13/13/13 14/14/14 15/15/15
f 13/13/13 15/15/15 16/16/16
f 17/17/17 18/18/18 19/19/19
f 17/17/17 19/19/19 20/20/20
f 21/21/21 22/22/22 23/23/23
f 21/21/21 23/23/23 24/24/24
f 21/21/21 24/24/24 25/25/25
f 26/26/26 27/27/27 28/28/28
f 26/26/26 28/28/28 29/29/29
f 26/26/26 29/29/29 30/30/30
