# Exported using automatic converter by Erwin Coumans
mtllib botlab.mtl
#object mesh1273151913

v 1.263186 1.822142 -0.572092
v 1.264072 1.829096 -0.584373
v 1.263387 1.836491 -0.567340
v 1.262547 1.829423 -0.555120
v 1.264072 1.829096 -0.584373
v 1.250742 1.825463 -0.587391
v 1.250090 1.832776 -0.570403
v 1.263387 1.836491 -0.567340
v 1.250742 1.825463 -0.587391
v 1.249856 1.818509 -0.575109
v 1.249250 1.825708 -0.558183
v 1.250090 1.832776 -0.570403
v 1.249856 1.818509 -0.575109
v 1.263186 1.822142 -0.572092
v 1.262547 1.829423 -0.555120
v 1.249250 1.825708 -0.558183
v 1.293136 0.816459 -1.402376
v 1.285251 0.824451 -1.410975
v 1.296932 0.828760 -1.417682
v 1.304818 0.820768 -1.409083
v 1.262547 1.829423 -0.555120
v 1.263387 1.836491 -0.567340
v 1.250090 1.832776 -0.570403
v 1.249250 1.825708 -0.558183
v 1.263340 1.823698 -0.575450
v 1.255492 1.831189 -0.584521
v 1.264072 1.829096 -0.584373
v 1.263186 1.822142 -0.572092
v 1.255492 1.831189 -0.584521
v 1.244032 1.823854 -0.580663
v 1.250742 1.825463 -0.587391
v 1.264072 1.829096 -0.584373
v 1.244032 1.823854 -0.580663
v 1.251881 1.816363 -0.571592
v 1.249856 1.818509 -0.575109
v 1.250742 1.825463 -0.587391
v 1.251881 1.816363 -0.571592
v 1.263340 1.823698 -0.575450
v 1.263186 1.822142 -0.572092
v 1.249856 1.818509 -0.575109
v 1.304818 0.820768 -1.409083
v 1.296932 0.828760 -1.417682
v 1.255492 1.831189 -0.584521
v 1.263340 1.823698 -0.575450
v 1.296932 0.828760 -1.417682
v 1.285251 0.824451 -1.410975
v 1.244032 1.823854 -0.580663
v 1.255492 1.831189 -0.584521
v 1.285251 0.824451 -1.410975
v 1.293136 0.816459 -1.402376
v 1.251881 1.816363 -0.571592
v 1.244032 1.823854 -0.580663
v 1.293136 0.816459 -1.402376
v 1.304818 0.820768 -1.409083
v 1.263340 1.823698 -0.575450
v 1.251881 1.816363 -0.571592
usemtl mat23

vn 0.998137 -0.031318 0.052371
vn 0.998137 -0.031318 0.052371
vn 0.998137 -0.031318 0.052371
vn 0.998137 -0.031318 0.052371
vn -0.158788 0.903975 -0.397008
vn -0.158788 0.903975 -0.397008
vn -0.158788 0.903975 -0.397008
vn -0.158788 0.903975 -0.397008
vn -0.998131 0.033257 -0.051262
vn -0.998131 0.033257 -0.051262
vn -0.998131 0.033257 -0.051262
vn -0.998131 0.033257 -0.051262
vn 0.160208 -0.905588 0.392740
vn 0.160208 -0.905588 0.392740
vn 0.160208 -0.905588 0.392740
vn 0.160208 -0.905588 0.392740
vn -0.082755 -0.766681 -0.636672
vn -0.082755 -0.766681 -0.636672
vn -0.082755 -0.766681 -0.636672
vn -0.082755 -0.766681 -0.636672
vn -0.335213 0.825377 0.454297
vn -0.335213 0.825377 0.454297
vn -0.335213 0.825377 0.454297
vn -0.335213 0.825377 0.454297
vn -0.147427 -0.840864 -0.520781
vn -0.147427 -0.840864 -0.520781
vn -0.147427 -0.840864 -0.520781
vn -0.147427 -0.840864 -0.520781
vn 0.295983 -0.612856 0.732668
vn 0.295983 -0.612856 0.732668
vn 0.295983 -0.612856 0.732668
vn 0.295983 -0.612856 0.732668
vn 0.327989 0.828641 0.453626
vn 0.327989 0.828641 0.453626
vn 0.327989 0.828641 0.453626
vn 0.327989 0.828641 0.453626
vn -0.031998 0.148026 0.988466
vn -0.031998 0.148026 0.988466
vn -0.031998 0.148026 0.988466
vn -0.031998 0.148026 0.988466
vn 0.830818 0.375660 -0.410636
vn 0.830818 0.375660 -0.410636
vn 0.830818 0.375660 -0.410636
vn 0.830818 0.375660 -0.410636
vn -0.556943 0.517092 -0.649947
vn -0.556943 0.517092 -0.649947
vn -0.556943 0.517092 -0.649947
vn -0.556943 0.517092 -0.649947
vn -0.830818 -0.375537 0.410748
vn -0.830818 -0.375537 0.410748
vn -0.830818 -0.375537 0.410748
vn -0.830818 -0.375537 0.410748
vn 0.556946 -0.517107 0.649932
vn 0.556946 -0.517107 0.649932
vn 0.556946 -0.517107 0.649932
vn 0.556946 -0.517107 0.649932

vt 0.163835 0.168638
vt 0.163285 0.169941
vt 0.165087 0.169486
vt 0.165625 0.168178
vt -0.134782 0.111228
vt -0.134206 0.109936
vt -0.136036 0.109656
vt -0.136618 0.110945
vt -0.162532 0.170319
vt -0.163086 0.169018
vt -0.164869 0.168560
vt -0.164327 0.169866
vt 0.134416 0.109695
vt 0.134994 0.110985
vt 0.136820 0.110704
vt 0.136236 0.109416
vt -0.057003 0.142593
vt -0.058415 0.142521
vt -0.058487 0.143934
vt -0.057074 0.144005
vt -0.004832 0.182750
vt -0.003631 0.183496
vt -0.002884 0.182295
vt -0.004085 0.181549
vt -0.049256 0.102655
vt -0.050666 0.102563
vt -0.050115 0.103251
vt -0.048951 0.102449
vt 0.178178 0.153015
vt 0.178045 0.151664
vt 0.177628 0.152439
vt 0.177924 0.153765
vt 0.061032 0.059779
vt 0.059619 0.059836
vt 0.060072 0.059893
vt 0.061216 0.060724
vt 0.148402 0.192163
vt 0.148538 0.193536
vt 0.148362 0.193433
vt 0.148737 0.192105
vt -0.070257 0.035693
vt -0.071551 0.035124
vt -0.131538 0.150921
vt -0.130273 0.151553
vt -0.047480 0.159152
vt -0.047763 0.157766
vt -0.177023 0.171586
vt -0.177155 0.172994
vt 0.071594 0.035312
vt 0.070299 0.035881
vt 0.130073 0.151398
vt 0.131338 0.150767
vt 0.047672 0.157756
vt 0.047389 0.159142
vt 0.177134 0.172988
vt 0.177001 0.171580
s off
f 1/1/1 2/2/2 3/3/3
f 1/1/1 3/3/3 4/4/4
f 5/5/5 6/6/6 7/7/7
f 5/5/5 7/7/7 8/8/8
f 9/9/9 10/10/10 11/11/11
f 9/9/9 11/11/11 12/12/12
f 13/13/13 14/14/14 15/15/15
f 13/13/13 15/15/15 16/16/16
f 17/17/17 18/18/18 19/19/19
f 17/17/17 19/19/19 20/20/20
f 21/21/21 22/22/22 23/23/23
f 21/21/21 23/23/23 24/24/24
f 25/25/25 26/26/26 27/27/27
f 25/25/25 27/27/27 28/28/28
f 29/29/29 30/30/30 31/31/31
f 29/29/29 31/31/31 32/32/32
f 33/33/33 34/34/34 35/35/35
f 33/33/33 35/35/35 36/36/36
f 37/37/37 38/38/38 39/39/39
f 37/37/37 39/39/39 40/40/40
f 41/41/41 42/42/42 43/43/43
f 41/41/41 43/43/43 44/44/44
f 45/45/45 46/46/46 47/47/47
f 45/45/45 47/47/47 48/48/48
f 49/49/49 50/50/50 51/51/51
f 49/49/49 51/51/51 52/52/52
f 53/53/53 54/54/54 55/55/55
f 53/53/53 55/55/55 56/56/56
