# Exported using automatic converter by Erwin Coumans
mtllib botlab.mtl
#object mesh1720677084

v 1.902177 1.313400 -0.538640
v 1.895812 1.307992 -0.527227
v 1.910268 1.310833 -0.550440
v 1.904702 1.309139 -0.537551
v 1.895812 1.307992 -0.527227
v 1.886767 1.301026 -0.535572
v 1.899840 1.303043 -0.555968
v 1.910268 1.310833 -0.550440
v 1.886767 1.301026 -0.535572
v 1.893131 1.306433 -0.546985
v 1.894273 1.301349 -0.543078
v 1.899840 1.303043 -0.555968
v 1.893131 1.306433 -0.546985
v 1.902177 1.313400 -0.538640
v 1.904702 1.309139 -0.537551
v 1.894273 1.301349 -0.543078
v 1.251596 1.833530 -0.604270
v 1.242787 1.830611 -0.593598
v 1.247616 1.841869 -0.586532
v 1.256425 1.844788 -0.597204
v 1.904702 1.309139 -0.537551
v 1.910268 1.310833 -0.550440
v 1.899840 1.303043 -0.555968
v 1.894273 1.301349 -0.543078
v 1.256425 1.844788 -0.597204
v 1.247616 1.841869 -0.586532
v 1.895812 1.307992 -0.527227
v 1.902177 1.313400 -0.538640
v 1.247616 1.841869 -0.586532
v 1.242787 1.830611 -0.593598
v 1.886767 1.301026 -0.535572
v 1.895812 1.307992 -0.527227
v 1.242787 1.830611 -0.593598
v 1.251596 1.833530 -0.604270
v 1.893131 1.306433 -0.546985
v 1.886767 1.301026 -0.535572
v 1.251596 1.833530 -0.604270
v 1.256425 1.844788 -0.597204
v 1.902177 1.313400 -0.538640
v 1.893131 1.306433 -0.546985
usemtl mat23

vn 0.720244 -0.384407 0.577477
vn 0.720244 -0.384407 0.577477
vn 0.720244 -0.384407 0.577477
vn 0.720244 -0.384407 0.577477
vn 0.488470 -0.845905 0.214109
vn 0.488470 -0.845905 0.214109
vn 0.488470 -0.845905 0.214109
vn 0.488470 -0.845905 0.214109
vn -0.657741 0.396114 -0.640679
vn -0.657741 0.396114 -0.640679
vn -0.657741 0.396114 -0.640679
vn -0.657741 0.396114 -0.640679
vn 0.645500 -0.147329 -0.749416
vn 0.645500 -0.147329 -0.749416
vn 0.645500 -0.147329 -0.749416
vn 0.645500 -0.147329 -0.749416
vn -0.703869 0.568882 -0.425372
vn -0.703869 0.568882 -0.425372
vn -0.703869 0.568882 -0.425372
vn -0.703869 0.568882 -0.425372
vn -0.548884 0.825964 -0.128490
vn -0.548884 0.825964 -0.128490
vn -0.548884 0.825964 -0.128490
vn -0.548884 0.825964 -0.128490
vn 0.485531 0.653956 0.580173
vn 0.485531 0.653956 0.580173
vn 0.485531 0.653956 0.580173
vn 0.485531 0.653956 0.580173
vn -0.400053 -0.394839 0.827079
vn -0.400053 -0.394839 0.827079
vn -0.400053 -0.394839 0.827079
vn -0.400053 -0.394839 0.827079
vn -0.485517 -0.653970 -0.580169
vn -0.485517 -0.653970 -0.580169
vn -0.485517 -0.653970 -0.580169
vn -0.485517 -0.653970 -0.580169
vn 0.399486 0.395312 -0.827127
vn 0.399486 0.395312 -0.827127
vn 0.399486 0.395312 -0.827127
vn 0.399486 0.395312 -0.827127

vt 0.134758 0.190926
vt 0.135196 0.189645
vt 0.133681 0.191902
vt 0.134481 0.190810
vt 0.119440 0.199972
vt 0.118284 0.199158
vt 0.116674 0.200979
vt 0.117618 0.202031
vt -0.133660 0.192551
vt -0.133253 0.193799
vt -0.133095 0.193450
vt -0.132325 0.194513
vt -0.011058 0.236069
vt -0.010549 0.237381
vt -0.010086 0.237234
vt -0.010453 0.235876
vt -0.159522 0.187512
vt -0.160216 0.186280
vt -0.161448 0.186974
vt -0.160754 0.188206
vt -0.114374 0.206605
vt -0.113319 0.207546
vt -0.112378 0.206491
vt -0.113433 0.205549
vt 0.113204 0.070074
vt 0.113008 0.068673
vt 0.036819 0.104482
vt 0.037360 0.105789
vt 0.183098 0.139493
vt 0.182079 0.138514
vt 0.112962 0.185506
vt 0.113477 0.186822
vt -0.112701 0.068715
vt -0.112898 0.070115
vt -0.037647 0.105670
vt -0.037106 0.104363
vt -0.181788 0.138692
vt -0.182808 0.139671
vt -0.113513 0.186854
vt -0.112997 0.185539
s off
f 1/1/1 2/2/2 3/3/3
f 1/1/1 3/3/3 4/4/4
f 5/5/5 6/6/6 7/7/7
f 5/5/5 7/7/7 8/8/8
f 9/9/9 10/10/10 11/11/11
f 9/9/9 11/11/11 12/12/12
f 13/13/13 14/14/14 15/15/15
f 13/13/13 15/15/15 16/16/16
f 17/17/17 18/18/18 19/19/19
f 17/17/17 19/19/19 20/20/20
f 21/21/21 22/22/22 23/23/23
f 21/21/21 23/23/23 24/24/24
f 25/25/25 26/26/26 27/27/27
f 25/25/25 27/27/27 28/28/28
f 29/29/29 30/30/30 31/31/31
f 29/29/29 31/31/31 32/32/32
f 33/33/33 34/34/34 35/35/35
f 33/33/33 35/35/35 36/36/36
f 37/37/37 38/38/38 39/39/39
f 37/37/37 39/39/39 40/40/40
