# Exported using automatic converter by Erwin Coumans
mtllib botlab.mtl
#object mesh838780043

v 0.917322 -0.678005 2.614390
v 0.892767 -0.658230 2.574579
v 0.927095 -0.646829 2.559070
v 0.951649 -0.666603 2.598881
v 0.923004 -0.598269 2.585713
v 0.888677 -0.609670 2.601223
v 0.913232 -0.629445 2.641034
v 0.947559 -0.618044 2.625525
v 0.927095 -0.646829 2.559070
v 0.923004 -0.598269 2.585713
v 0.947559 -0.618044 2.625525
v 0.951649 -0.666603 2.598881
v 0.913232 -0.629445 2.641034
v 0.888677 -0.609670 2.601223
v 0.892767 -0.658230 2.574579
v 0.917322 -0.678005 2.614390
v 0.947559 -0.618044 2.625525
v 0.913232 -0.629445 2.641034
v 0.917322 -0.678005 2.614390
v 0.951649 -0.666603 2.598881
v 0.892767 -0.658230 2.574579
v 0.888677 -0.609670 2.601223
v 0.923004 -0.598269 2.585713
v 0.927095 -0.646829 2.559070
usemtl mat6

vn 0.073656 -0.874327 -0.479716
vn 0.073656 -0.874327 -0.479716
vn 0.073656 -0.874327 -0.479716
vn 0.073656 -0.874327 -0.479716
vn -0.073656 0.874327 0.479716
vn -0.073656 0.874327 0.479716
vn -0.073656 0.874327 0.479716
vn -0.073656 0.874327 0.479716
vn 0.872224 0.289699 -0.394081
vn 0.872224 0.289699 -0.394081
vn 0.872224 0.289699 -0.394081
vn 0.872224 0.289699 -0.394081
vn -0.872224 -0.289699 0.394081
vn -0.872224 -0.289699 0.394081
vn -0.872224 -0.289699 0.394081
vn -0.872224 -0.289699 0.394081
vn 0.483529 -0.389393 0.783947
vn 0.483529 -0.389393 0.783947
vn 0.483529 -0.389393 0.783947
vn 0.483529 -0.389393 0.783947
vn -0.483529 0.389393 -0.783947
vn -0.483529 0.389393 -0.783947
vn -0.483529 0.389393 -0.783947
vn -0.483529 0.389393 -0.783947

vt 0.312406 -0.088201
vt 0.307328 -0.088240
vt 0.307298 -0.084305
vt 0.312376 -0.084266
vt -0.307298 -0.084305
vt -0.307328 -0.088240
vt -0.312406 -0.088201
vt -0.312376 -0.084266
vt 0.299569 0.160667
vt 0.299314 0.166216
vt 0.304387 0.166449
vt 0.304642 0.160901
vt -0.304387 0.166449
vt -0.299314 0.166216
vt -0.299569 0.160667
vt -0.304642 0.160901
vt 0.164402 -0.060549
vt 0.165046 -0.064431
vt 0.159567 -0.065341
vt 0.158923 -0.061458
vt -0.159567 -0.065341
vt -0.165046 -0.064431
vt -0.164402 -0.060549
vt -0.158923 -0.061458
s off
f 1/1/1 2/2/2 3/3/3
f 1/1/1 3/3/3 4/4/4
f 5/5/5 6/6/6 7/7/7
f 5/5/5 7/7/7 8/8/8
f 9/9/9 10/10/10 11/11/11
f 9/9/9 11/11/11 12/12/12
f 13/13/13 14/14/14 15/15/15
f 13/13/13 15/15/15 16/16/16
f 17/17/17 18/18/18 19/19/19
f 17/17/17 19/19/19 20/20/20
f 21/21/21 22/22/22 23/23/23
f 21/21/21 23/23/23 24/24/24
