# Exported using automatic converter by Erwin Coumans
mtllib botlab.mtl
#object mesh931256425

v 3.268238 0.335489 1.849852
v 3.268238 0.335489 2.319852
v 3.268238 -0.334511 2.319852
v 3.268238 -0.334511 1.849852
v 3.248238 -0.334511 2.319852
v 3.248238 0.335489 2.319852
v 3.248238 0.335489 1.849852
v 3.248238 -0.334511 1.849852
v 3.268238 -0.334511 2.319852
v 3.248238 -0.334511 2.319852
v 3.248238 -0.334511 1.849852
v 3.268238 -0.334511 1.849852
v 3.248238 0.335489 1.849852
v 3.248238 0.335489 2.319852
v 3.268238 0.335489 2.319852
v 3.268238 0.335489 1.849852
v 3.248238 -0.334511 1.849852
v 3.248238 0.335489 1.849852
v 3.268238 0.335489 1.849852
v 3.268238 -0.334511 1.849852
v 3.268238 0.335489 2.319852
v 3.248238 0.335489 2.319852
v 3.248238 -0.334511 2.319852
v 3.268238 -0.334511 2.319852
usemtl mat21

vn 1.000000 0.000000 0.000000
vn 1.000000 0.000000 0.000000
vn 1.000000 0.000000 0.000000
vn 1.000000 0.000000 0.000000
vn -1.000000 0.000000 0.000000
vn -1.000000 0.000000 0.000000
vn -1.000000 0.000000 0.000000
vn -1.000000 0.000000 0.000000
vn 0.000000 -1.000000 -0.000000
vn 0.000000 -1.000000 -0.000000
vn 0.000000 -1.000000 -0.000000
vn 0.000000 -1.000000 -0.000000
vn 0.000000 1.000000 0.000000
vn 0.000000 1.000000 0.000000
vn 0.000000 1.000000 0.000000
vn 0.000000 1.000000 0.000000
vn 0.000000 0.000000 -1.000000
vn 0.000000 0.000000 -1.000000
vn 0.000000 0.000000 -1.000000
vn 0.000000 0.000000 -1.000000
vn 0.000000 -0.000000 1.000000
vn 0.000000 -0.000000 1.000000
vn 0.000000 -0.000000 1.000000
vn 0.000000 -0.000000 1.000000

vt 0.270624 -0.092533
vt 0.308870 -0.119851
vt 0.269927 -0.174371
vt 0.231682 -0.147053
vt -0.269927 -0.174371
vt -0.308870 -0.119851
vt -0.270624 -0.092533
vt -0.231682 -0.147053
vt 0.401855 0.170792
vt 0.401182 0.168908
vt 0.356920 0.184716
vt 0.357593 0.186599
vt -0.356920 0.184716
vt -0.401182 0.168908
vt -0.401855 0.170792
vt -0.357593 0.186599
vt 0.118064 0.269670
vt 0.058138 0.299633
vt 0.059032 0.301422
vt 0.118959 0.271459
vt -0.059032 0.301422
vt -0.058138 0.299633
vt -0.118064 0.269670
vt -0.118959 0.271459
s off
f 1/1/1 2/2/2 3/3/3
f 1/1/1 3/3/3 4/4/4
f 5/5/5 6/6/6 7/7/7
f 5/5/5 7/7/7 8/8/8
f 9/9/9 10/10/10 11/11/11
f 9/9/9 11/11/11 12/12/12
f 13/13/13 14/14/14 15/15/15
f 13/13/13 15/15/15 16/16/16
f 17/17/17 18/18/18 19/19/19
f 17/17/17 19/19/19 20/20/20
f 21/21/21 22/22/22 23/23/23
f 21/21/21 23/23/23 24/24/24
