# Exported using automatic converter by Erwin Coumans
mtllib botlab.mtl
#object mesh874344439

v 3.567789 0.042182 0.005689
v 3.558146 0.042182 -0.030301
v 3.495808 0.088622 0.005689
v 3.558146 0.042182 -0.030301
v 3.531799 0.042182 -0.056648
v 3.495808 0.088622 0.005689
v 3.531799 0.042182 -0.056648
v 3.495808 0.042182 -0.066292
v 3.495808 0.088622 0.005689
v 3.495808 0.042182 -0.066292
v 3.459817 0.042182 -0.056648
v 3.495808 0.088622 0.005689
v 3.459817 0.042182 -0.056648
v 3.433470 0.042182 -0.030301
v 3.495808 0.088622 0.005689
v 3.433470 0.042182 -0.030301
v 3.423826 0.042182 0.005689
v 3.495808 0.088622 0.005689
v 3.423826 0.042182 0.005689
v 3.433470 0.042182 0.041680
v 3.495808 0.088622 0.005689
v 3.433470 0.042182 0.041680
v 3.459817 0.042182 0.068027
v 3.495808 0.088622 0.005689
v 3.459817 0.042182 0.068027
v 3.495808 0.042182 0.077671
v 3.495808 0.088622 0.005689
v 3.495808 0.042182 0.077671
v 3.531799 0.042182 0.068027
v 3.495808 0.088622 0.005689
v 3.531799 0.042182 0.068027
v 3.558146 0.042182 0.041680
v 3.495808 0.088622 0.005689
v 3.558146 0.042182 0.041680
v 3.567789 0.042182 0.005689
v 3.495808 0.088622 0.005689
v 3.582906 0.009674 0.005690
v 3.571237 0.009674 -0.037859
v 3.558146 0.042182 -0.030301
v 3.567789 0.042182 0.005689
v 3.571237 0.009674 -0.037859
v 3.539357 0.009674 -0.069739
v 3.531799 0.042182 -0.056648
v 3.558146 0.042182 -0.030301
v 3.539357 0.009674 -0.069739
v 3.495808 0.009674 -0.081408
v 3.495808 0.042182 -0.066292
v 3.531799 0.042182 -0.056648
v 3.495808 0.009674 -0.081408
v 3.452259 0.009674 -0.069739
v 3.459817 0.042182 -0.056648
v 3.495808 0.042182 -0.066292
v 3.452259 0.009674 -0.069739
v 3.420379 0.009674 -0.037859
v 3.433470 0.042182 -0.030301
v 3.459817 0.042182 -0.056648
v 3.420379 0.009674 -0.037859
v 3.408710 0.009674 0.005689
v 3.423826 0.042182 0.005689
v 3.433470 0.042182 -0.030301
v 3.408710 0.009674 0.005689
v 3.420379 0.009675 0.049238
v 3.433470 0.042182 0.041680
v 3.423826 0.042182 0.005689
v 3.420379 0.009675 0.049238
v 3.452259 0.009675 0.081118
v 3.459817 0.042182 0.068027
v 3.433470 0.042182 0.041680
v 3.452259 0.009675 0.081118
v 3.495808 0.009675 0.092787
v 3.495808 0.042182 0.077671
v 3.459817 0.042182 0.068027
v 3.495808 0.009675 0.092787
v 3.539357 0.009674 0.081118
v 3.531799 0.042182 0.068027
v 3.495808 0.042182 0.077671
v 3.539357 0.009674 0.081118
v 3.571237 0.009674 0.049238
v 3.558146 0.042182 0.041680
v 3.531799 0.042182 0.068027
v 3.571237 0.009674 0.049238
v 3.582906 0.009674 0.005690
v 3.567789 0.042182 0.005689
v 3.558146 0.042182 0.041680
v 3.566357 0.009674 0.005690
v 3.556905 0.009674 -0.029585
v 3.571237 0.009674 -0.037859
v 3.582906 0.009674 0.005690
v 3.556905 0.009674 -0.029585
v 3.531083 0.009674 -0.055407
v 3.539357 0.009674 -0.069739
v 3.571237 0.009674 -0.037859
v 3.531083 0.009674 -0.055407
v 3.495808 0.009674 -0.064859
v 3.495808 0.009674 -0.081408
v 3.539357 0.009674 -0.069739
v 3.495808 0.009674 -0.064859
v 3.460534 0.009674 -0.055408
v 3.452259 0.009674 -0.069739
v 3.495808 0.009674 -0.081408
v 3.460534 0.009674 -0.055408
v 3.434711 0.009674 -0.029585
v 3.420379 0.009674 -0.037859
v 3.452259 0.009674 -0.069739
v 3.434711 0.009674 -0.029585
v 3.425259 0.009674 0.005690
v 3.408710 0.009674 0.005689
v 3.420379 0.009674 -0.037859
v 3.425259 0.009674 0.005690
v 3.434711 0.009674 0.040964
v 3.420379 0.009675 0.049238
v 3.408710 0.009674 0.005689
v 3.434711 0.009674 0.040964
v 3.460534 0.009674 0.066787
v 3.452259 0.009675 0.081118
v 3.420379 0.009675 0.049238
v 3.460534 0.009674 0.066787
v 3.495808 0.009674 0.076239
v 3.495808 0.009675 0.092787
v 3.452259 0.009675 0.081118
v 3.495808 0.009674 0.076239
v 3.531083 0.009674 0.066787
v 3.539357 0.009674 0.081118
v 3.495808 0.009675 0.092787
v 3.531083 0.009674 0.066787
v 3.556905 0.009674 0.040964
v 3.571237 0.009674 0.049238
v 3.539357 0.009674 0.081118
v 3.556905 0.009674 0.040964
v 3.566357 0.009674 0.005690
v 3.582906 0.009674 0.005690
v 3.571237 0.009674 0.049238
v 3.547238 0.051470 0.005690
v 3.540348 0.051470 -0.020025
v 3.556905 0.009674 -0.029585
v 3.566357 0.009674 0.005690
v 3.540348 0.051470 -0.020025
v 3.521523 0.051470 -0.038850
v 3.531083 0.009674 -0.055407
v 3.556905 0.009674 -0.029585
v 3.521523 0.051470 -0.038850
v 3.495808 0.051470 -0.045740
v 3.495808 0.009674 -0.064859
v 3.531083 0.009674 -0.055407
v 3.495808 0.051470 -0.045740
v 3.470093 0.051470 -0.038850
v 3.460534 0.009674 -0.055408
v 3.495808 0.009674 -0.064859
v 3.470093 0.051470 -0.038850
v 3.451268 0.051470 -0.020025
v 3.434711 0.009674 -0.029585
v 3.460534 0.009674 -0.055408
v 3.451268 0.051470 -0.020025
v 3.444378 0.051470 0.005690
v 3.425259 0.009674 0.005690
v 3.434711 0.009674 -0.029585
v 3.444378 0.051470 0.005690
v 3.451268 0.051470 0.031405
v 3.434711 0.009674 0.040964
v 3.425259 0.009674 0.005690
v 3.451268 0.051470 0.031405
v 3.470093 0.051470 0.050230
v 3.460534 0.009674 0.066787
v 3.434711 0.009674 0.040964
v 3.470093 0.051470 0.050230
v 3.495808 0.051470 0.057120
v 3.495808 0.009674 0.076239
v 3.460534 0.009674 0.066787
v 3.495808 0.051470 0.057120
v 3.521523 0.051470 0.050230
v 3.531083 0.009674 0.066787
v 3.495808 0.009674 0.076239
v 3.521523 0.051470 0.050230
v 3.540348 0.051470 0.031405
v 3.556905 0.009674 0.040964
v 3.531083 0.009674 0.066787
v 3.540348 0.051470 0.031405
v 3.547238 0.051470 0.005690
v 3.566357 0.009674 0.005690
v 3.556905 0.009674 0.040964
v 3.540348 0.051470 0.031405
v 3.521523 0.051470 0.050230
v 3.495808 0.051470 0.057120
v 3.470093 0.051470 0.050230
v 3.451268 0.051470 0.031405
v 3.444378 0.051470 0.005690
v 3.451268 0.051470 -0.020025
v 3.470093 0.051470 -0.038850
v 3.495808 0.051470 -0.045740
v 3.521523 0.051470 -0.038850
v 3.540348 0.051470 -0.020025
v 3.547238 0.051470 0.005690
usemtl mat15

vn 0.536496 0.831569 -0.143754
vn 0.536496 0.831569 -0.143754
vn 0.536496 0.831569 -0.143754
vn 0.392742 0.831569 -0.392742
vn 0.392742 0.831569 -0.392742
vn 0.392742 0.831569 -0.392742
vn 0.143754 0.831569 -0.536496
vn 0.143754 0.831569 -0.536496
vn 0.143754 0.831569 -0.536496
vn -0.143753 0.831569 -0.536496
vn -0.143753 0.831569 -0.536496
vn -0.143753 0.831569 -0.536496
vn -0.392742 0.831569 -0.392743
vn -0.392742 0.831569 -0.392743
vn -0.392742 0.831569 -0.392743
vn -0.536496 0.831569 -0.143754
vn -0.536496 0.831569 -0.143754
vn -0.536496 0.831569 -0.143754
vn -0.536496 0.831569 0.143753
vn -0.536496 0.831569 0.143753
vn -0.536496 0.831569 0.143753
vn -0.392742 0.831569 0.392742
vn -0.392742 0.831569 0.392742
vn -0.392742 0.831569 0.392742
vn -0.143753 0.831569 0.536496
vn -0.143753 0.831569 0.536496
vn -0.143753 0.831569 0.536496
vn 0.143754 0.831569 0.536496
vn 0.143754 0.831569 0.536496
vn 0.143754 0.831569 0.536496
vn 0.392742 0.831569 0.392742
vn 0.392742 0.831569 0.392742
vn 0.392742 0.831569 0.392742
vn 0.536496 0.831569 0.143753
vn 0.536496 0.831569 0.143753
vn 0.536496 0.831569 0.143753
vn 0.881127 0.409724 -0.236098
vn 0.881127 0.409724 -0.236098
vn 0.881127 0.409724 -0.236098
vn 0.881127 0.409724 -0.236098
vn 0.645031 0.409721 -0.645029
vn 0.645031 0.409721 -0.645029
vn 0.645031 0.409721 -0.645029
vn 0.645031 0.409721 -0.645029
vn 0.236098 0.409721 -0.881128
vn 0.236098 0.409721 -0.881128
vn 0.236098 0.409721 -0.881128
vn 0.236098 0.409721 -0.881128
vn -0.236095 0.409723 -0.881128
vn -0.236095 0.409723 -0.881128
vn -0.236095 0.409723 -0.881128
vn -0.236095 0.409723 -0.881128
vn -0.645030 0.409724 -0.645029
vn -0.645030 0.409724 -0.645029
vn -0.645030 0.409724 -0.645029
vn -0.645030 0.409724 -0.645029
vn -0.881127 0.409723 -0.236097
vn -0.881127 0.409723 -0.236097
vn -0.881127 0.409723 -0.236097
vn -0.881127 0.409723 -0.236097
vn -0.881127 0.409723 0.236097
vn -0.881127 0.409723 0.236097
vn -0.881127 0.409723 0.236097
vn -0.881127 0.409723 0.236097
vn -0.645029 0.409725 0.645029
vn -0.645029 0.409725 0.645029
vn -0.645029 0.409725 0.645029
vn -0.645029 0.409725 0.645029
vn -0.236099 0.409727 0.881125
vn -0.236099 0.409727 0.881125
vn -0.236099 0.409727 0.881125
vn -0.236099 0.409727 0.881125
vn 0.236099 0.409727 0.881125
vn 0.236099 0.409727 0.881125
vn 0.236099 0.409727 0.881125
vn 0.236099 0.409727 0.881125
vn 0.645030 0.409724 0.645029
vn 0.645030 0.409724 0.645029
vn 0.645030 0.409724 0.645029
vn 0.645030 0.409724 0.645029
vn 0.881126 0.409726 0.236098
vn 0.881126 0.409726 0.236098
vn 0.881126 0.409726 0.236098
vn 0.881126 0.409726 0.236098
vn 0.000010 -1.000000 -0.000002
vn 0.000010 -1.000000 -0.000002
vn 0.000010 -1.000000 -0.000002
vn 0.000010 -1.000000 -0.000002
vn 0.000007 -1.000000 -0.000007
vn 0.000007 -1.000000 -0.000007
vn 0.000007 -1.000000 -0.000007
vn 0.000007 -1.000000 -0.000007
vn 0.000002 -1.000000 -0.000009
vn 0.000002 -1.000000 -0.000009
vn 0.000002 -1.000000 -0.000009
vn 0.000002 -1.000000 -0.000009
vn -0.000003 -1.000000 -0.000010
vn -0.000003 -1.000000 -0.000010
vn -0.000003 -1.000000 -0.000010
vn -0.000003 -1.000000 -0.000010
vn -0.000008 -1.000000 -0.000008
vn -0.000008 -1.000000 -0.000008
vn -0.000008 -1.000000 -0.000008
vn -0.000008 -1.000000 -0.000008
vn -0.000010 -1.000000 -0.000003
vn -0.000010 -1.000000 -0.000003
vn -0.000010 -1.000000 -0.000003
vn -0.000010 -1.000000 -0.000003
vn -0.000010 -1.000000 0.000003
vn -0.000010 -1.000000 0.000003
vn -0.000010 -1.000000 0.000003
vn -0.000010 -1.000000 0.000003
vn -0.000008 -1.000000 0.000007
vn -0.000008 -1.000000 0.000007
vn -0.000008 -1.000000 0.000007
vn -0.000008 -1.000000 0.000007
vn -0.000003 -1.000000 0.000010
vn -0.000003 -1.000000 0.000010
vn -0.000003 -1.000000 0.000010
vn -0.000003 -1.000000 0.000010
vn 0.000002 -1.000000 0.000010
vn 0.000002 -1.000000 0.000010
vn 0.000002 -1.000000 0.000010
vn 0.000002 -1.000000 0.000010
vn 0.000007 -1.000000 0.000007
vn 0.000007 -1.000000 0.000007
vn 0.000007 -1.000000 0.000007
vn 0.000007 -1.000000 0.000007
vn 0.000010 -1.000000 0.000003
vn 0.000010 -1.000000 0.000003
vn 0.000010 -1.000000 0.000003
vn 0.000010 -1.000000 0.000003
vn -0.883524 -0.404153 0.236739
vn -0.883524 -0.404153 0.236739
vn -0.883524 -0.404153 0.236739
vn -0.883524 -0.404153 0.236739
vn -0.646785 -0.404155 0.646783
vn -0.646785 -0.404155 0.646783
vn -0.646785 -0.404155 0.646783
vn -0.646785 -0.404155 0.646783
vn -0.236737 -0.404157 0.883523
vn -0.236737 -0.404157 0.883523
vn -0.236737 -0.404157 0.883523
vn -0.236737 -0.404157 0.883523
vn 0.236733 -0.404161 0.883522
vn 0.236733 -0.404161 0.883522
vn 0.236733 -0.404161 0.883522
vn 0.236733 -0.404161 0.883522
vn 0.646781 -0.404160 0.646783
vn 0.646781 -0.404160 0.646783
vn 0.646781 -0.404160 0.646783
vn 0.646781 -0.404160 0.646783
vn 0.883522 -0.404159 0.236739
vn 0.883522 -0.404159 0.236739
vn 0.883522 -0.404159 0.236739
vn 0.883522 -0.404159 0.236739
vn 0.883522 -0.404157 -0.236740
vn 0.883522 -0.404157 -0.236740
vn 0.883522 -0.404157 -0.236740
vn 0.883522 -0.404157 -0.236740
vn 0.646784 -0.404155 -0.646784
vn 0.646784 -0.404155 -0.646784
vn 0.646784 -0.404155 -0.646784
vn 0.646784 -0.404155 -0.646784
vn 0.236746 -0.404153 -0.883522
vn 0.236746 -0.404153 -0.883522
vn 0.236746 -0.404153 -0.883522
vn 0.236746 -0.404153 -0.883522
vn -0.236745 -0.404151 -0.883523
vn -0.236745 -0.404151 -0.883523
vn -0.236745 -0.404151 -0.883523
vn -0.236745 -0.404151 -0.883523
vn -0.646788 -0.404149 -0.646783
vn -0.646788 -0.404149 -0.646783
vn -0.646788 -0.404149 -0.646783
vn -0.646788 -0.404149 -0.646783
vn -0.883524 -0.404151 -0.236744
vn -0.883524 -0.404151 -0.236744
vn -0.883524 -0.404151 -0.236744
vn -0.883524 -0.404151 -0.236744
vn -0.000000 -1.000000 0.000000
vn -0.000000 -1.000000 0.000000
vn -0.000000 -1.000000 0.000000
vn -0.000000 -1.000000 0.000000
vn -0.000000 -1.000000 0.000000
vn -0.000000 -1.000000 0.000000
vn -0.000000 -1.000000 0.000000
vn -0.000000 -1.000000 0.000000
vn -0.000000 -1.000000 0.000000
vn -0.000000 -1.000000 0.000000
vn -0.000000 -1.000000 0.000000
vn -0.000000 -1.000000 0.000000

vt -0.199370 0.186940
vt -0.195681 0.187468
vt -0.196342 0.178927
vt -0.145628 0.275003
vt -0.142823 0.272552
vt -0.149727 0.267481
vt -0.108818 0.315801
vt -0.107891 0.312192
vt -0.116453 0.311916
vt -0.106241 0.312640
vt -0.106954 0.308982
vt -0.114804 0.312409
vt -0.125153 0.284039
vt -0.127255 0.280963
vt -0.133108 0.287218
vt -0.155836 0.254941
vt -0.159029 0.253021
vt -0.161741 0.261146
vt -0.186018 0.247105
vt -0.189734 0.246829
vt -0.188497 0.255305
vt -0.202663 0.257414
vt -0.206096 0.258865
vt -0.201125 0.265841
vt -0.204241 0.258989
vt -0.206722 0.261769
vt -0.199244 0.265947
vt -0.199848 0.231890
vt -0.201016 0.235428
vt -0.192492 0.236280
vt -0.198812 0.181838
vt -0.198424 0.185543
vt -0.190302 0.182821
vt -0.205663 0.145478
vt -0.203440 0.148468
vt -0.197840 0.141986
vt -0.029367 -0.184674
vt -0.030505 -0.180311
vt -0.026958 -0.179790
vt -0.026018 -0.183396
vt 0.064426 0.284851
vt 0.063807 0.280386
vt 0.060331 0.281262
vt 0.060842 0.284953
vt 0.035370 0.334268
vt 0.034322 0.329883
vt 0.030947 0.331092
vt 0.031813 0.334716
vt 0.002981 0.307630
vt 0.001315 0.303440
vt -0.001852 0.305120
vt -0.000475 0.308583
vt -0.041515 0.225504
vt -0.044023 0.221758
vt -0.046767 0.224065
vt -0.044694 0.227161
vt -0.107046 0.141330
vt -0.110667 0.138645
vt -0.112476 0.141740
vt -0.109483 0.143960
vt -0.181257 0.141474
vt -0.185744 0.141040
vt -0.185698 0.144625
vt -0.181989 0.144984
vt -0.201605 0.230435
vt -0.205580 0.232562
vt -0.203553 0.235519
vt -0.200268 0.233761
vt -0.175118 0.281175
vt -0.177946 0.284687
vt -0.174925 0.286617
vt -0.172588 0.283715
vt -0.144004 0.244554
vt -0.145903 0.248643
vt -0.142506 0.249789
vt -0.140937 0.246410
vt -0.117066 0.133074
vt -0.118286 0.137414
vt -0.114750 0.138002
vt -0.113741 0.134415
vt -0.091791 -0.021298
vt -0.092515 -0.016848
vt -0.088935 -0.016662
vt -0.088336 -0.020340
vt 0.193947 0.276701
vt 0.190307 0.276997
vt 0.190010 0.278625
vt 0.194504 0.278259
vt 0.190308 0.276997
vt 0.187007 0.275434
vt 0.185936 0.276695
vt 0.190011 0.278625
vt 0.187008 0.275433
vt 0.184931 0.272429
vt 0.183373 0.272985
vt 0.185936 0.276694
vt 0.184931 0.272429
vt 0.184635 0.268789
vt 0.183007 0.268491
vt 0.183373 0.272985
vt 0.184635 0.268788
vt 0.186198 0.265488
vt 0.184937 0.264417
vt 0.183007 0.268491
vt 0.186198 0.265488
vt 0.189202 0.263412
vt 0.188645 0.261853
vt 0.184937 0.264417
vt 0.189202 0.263412
vt 0.192842 0.263116
vt 0.193139 0.261488
vt 0.188645 0.261854
vt 0.192841 0.263116
vt 0.196141 0.264680
vt 0.197213 0.263418
vt 0.193138 0.261488
vt 0.196141 0.264680
vt 0.198218 0.267684
vt 0.199776 0.267128
vt 0.197212 0.263419
vt 0.198217 0.267685
vt 0.198514 0.271324
vt 0.200142 0.271622
vt 0.199776 0.267128
vt 0.198514 0.271325
vt 0.196950 0.274625
vt 0.198212 0.275696
vt 0.200142 0.271622
vt 0.196951 0.274625
vt 0.193947 0.276701
vt 0.194503 0.278260
vt 0.198212 0.275696
vt 0.008991 -0.183230
vt 0.009856 -0.180712
vt 0.014338 -0.181729
vt 0.013152 -0.185183
vt -0.062103 0.283947
vt -0.061701 0.281315
vt -0.066143 0.280136
vt -0.066695 0.283746
vt -0.031604 0.334464
vt -0.030972 0.331878
vt -0.035294 0.330313
vt -0.036160 0.333860
vt 0.001058 0.308416
vt 0.002045 0.305944
vt -0.002016 0.303790
vt -0.003370 0.307181
vt 0.045379 0.226797
vt 0.046858 0.224583
vt 0.043333 0.221634
vt 0.041305 0.224670
vt 0.110204 0.143391
vt 0.112339 0.141800
vt 0.110006 0.137840
vt 0.107077 0.140022
vt 0.182615 0.145076
vt 0.185265 0.144818
vt 0.185314 0.140222
vt 0.181680 0.140576
vt 0.199829 0.235226
vt 0.202174 0.236487
vt 0.204774 0.232697
vt 0.201558 0.230967
vt 0.171065 0.285539
vt 0.172732 0.287615
vt 0.176604 0.285140
vt 0.174318 0.282292
vt 0.138801 0.247973
vt 0.139923 0.250387
vt 0.144275 0.248909
vt 0.142735 0.245598
vt 0.111076 0.135451
vt 0.111806 0.138012
vt 0.116336 0.137234
vt 0.115335 0.133722
vt 0.084609 -0.020059
vt 0.085062 -0.017436
vt 0.089649 -0.017726
vt 0.089027 -0.021324
vt 0.195494 0.273386
vt 0.196634 0.270980
vt 0.196418 0.268327
vt 0.194904 0.266137
vt 0.192498 0.264997
vt 0.189845 0.265213
vt 0.187655 0.266727
vt 0.186515 0.269133
vt 0.186731 0.271786
vt 0.188245 0.273976
vt 0.190651 0.275116
vt 0.193304 0.274900
s off
f 1/1/1 2/2/2 3/3/3
f 4/4/4 5/5/5 6/6/6
f 7/7/7 8/8/8 9/9/9
f 10/10/10 11/11/11 12/12/12
f 13/13/13 14/14/14 15/15/15
f 16/16/16 17/17/17 18/18/18
f 19/19/19 20/20/20 21/21/21
f 22/22/22 23/23/23 24/24/24
f 25/25/25 26/26/26 27/27/27
f 28/28/28 29/29/29 30/30/30
f 31/31/31 32/32/32 33/33/33
f 34/34/34 35/35/35 36/36/36
f 37/37/37 38/38/38 39/39/39
f 37/37/37 39/39/39 40/40/40
f 41/41/41 42/42/42 43/43/43
f 41/41/41 43/43/43 44/44/44
f 45/45/45 46/46/46 47/47/47
f 45/45/45 47/47/47 48/48/48
f 49/49/49 50/50/50 51/51/51
f 49/49/49 51/51/51 52/52/52
f 53/53/53 54/54/54 55/55/55
f 53/53/53 55/55/55 56/56/56
f 57/57/57 58/58/58 59/59/59
f 57/57/57 59/59/59 60/60/60
f 61/61/61 62/62/62 63/63/63
f 61/61/61 63/63/63 64/64/64
f 65/65/65 66/66/66 67/67/67
f 65/65/65 67/67/67 68/68/68
f 69/69/69 70/70/70 71/71/71
f 69/69/69 71/71/71 72/72/72
f 73/73/73 74/74/74 75/75/75
f 73/73/73 75/75/75 76/76/76
f 77/77/77 78/78/78 79/79/79
f 77/77/77 79/79/79 80/80/80
f 81/81/81 82/82/82 83/83/83
f 81/81/81 83/83/83 84/84/84
f 85/85/85 86/86/86 87/87/87
f 85/85/85 87/87/87 88/88/88
f 89/89/89 90/90/90 91/91/91
f 89/89/89 91/91/91 92/92/92
f 93/93/93 94/94/94 95/95/95
f 93/93/93 95/95/95 96/96/96
f 97/97/97 98/98/98 99/99/99
f 97/97/97 99/99/99 100/100/100
f 101/101/101 102/102/102 103/103/103
f 101/101/101 103/103/103 104/104/104
f 105/105/105 106/106/106 107/107/107
f 105/105/105 107/107/107 108/108/108
f 109/109/109 110/110/110 111/111/111
f 109/109/109 111/111/111 112/112/112
f 113/113/113 114/114/114 115/115/115
f 113/113/113 115/115/115 116/116/116
f 117/117/117 118/118/118 119/119/119
f 117/117/117 119/119/119 120/120/120
f 121/121/121 122/122/122 123/123/123
f 121/121/121 123/123/123 124/124/124
f 125/125/125 126/126/126 127/127/127
f 125/125/125 127/127/127 128/128/128
f 129/129/129 130/130/130 131/131/131
f 129/129/129 131/131/131 132/132/132
f 133/133/133 134/134/134 135/135/135
f 133/133/133 135/135/135 136/136/136
f 137/137/137 138/138/138 139/139/139
f 137/137/137 139/139/139 140/140/140
f 141/141/141 142/142/142 143/143/143
f 141/141/141 143/143/143 144/144/144
f 145/145/145 146/146/146 147/147/147
f 145/145/145 147/147/147 148/148/148
f 149/149/149 150/150/150 151/151/151
f 149/149/149 151/151/151 152/152/152
f 153/153/153 154/154/154 155/155/155
f 153/153/153 155/155/155 156/156/156
f 157/157/157 158/158/158 159/159/159
f 157/157/157 159/159/159 160/160/160
f 161/161/161 162/162/162 163/163/163
f 161/161/161 163/163/163 164/164/164
f 165/165/165 166/166/166 167/167/167
f 165/165/165 167/167/167 168/168/168
f 169/169/169 170/170/170 171/171/171
f 169/169/169 171/171/171 172/172/172
f 173/173/173 174/174/174 175/175/175
f 173/173/173 175/175/175 176/176/176
f 177/177/177 178/178/178 179/179/179
f 177/177/177 179/179/179 180/180/180
f 181/181/181 182/182/182 183/183/183
f 181/181/181 183/183/183 184/184/184
f 181/181/181 184/184/184 185/185/185
f 181/181/181 185/185/185 186/186/186
f 181/181/181 186/186/186 187/187/187
f 181/181/181 187/187/187 188/188/188
f 181/181/181 188/188/188 189/189/189
f 181/181/181 189/189/189 190/190/190
f 181/181/181 190/190/190 191/191/191
f 181/181/181 191/191/191 192/192/192
