# Exported using automatic converter by Erwin Coumans
mtllib botlab.mtl
#object mesh1815010213

v -0.131762 0.275489 0.719852
v -0.131762 0.355489 0.719852
v -0.101762 0.355489 0.719852
v -0.101762 0.275489 0.719852
v -0.101762 0.355489 0.749852
v -0.131762 0.355489 0.749852
v -0.131762 0.275489 0.749852
v -0.101762 0.275489 0.749852
v -0.101762 0.355489 0.719852
v -0.101762 0.355489 0.749852
v -0.101762 0.275489 0.749852
v -0.101762 0.275489 0.719852
v -0.131762 0.275489 0.749852
v -0.131762 0.355489 0.749852
v -0.131762 0.355489 0.719852
v -0.131762 0.275489 0.719852
v -0.101762 0.275489 0.749852
v -0.131762 0.275489 0.749852
v -0.131762 0.275489 0.719852
v -0.101762 0.275489 0.719852
v -0.131762 0.355489 0.719852
v -0.131762 0.355489 0.749852
v -0.101762 0.355489 0.749852
v -0.101762 0.355489 0.719852
usemtl mat15

vn 0.000000 0.000000 -1.000000
vn 0.000000 0.000000 -1.000000
vn 0.000000 0.000000 -1.000000
vn 0.000000 0.000000 -1.000000
vn -0.000000 0.000000 1.000000
vn -0.000000 0.000000 1.000000
vn -0.000000 0.000000 1.000000
vn -0.000000 0.000000 1.000000
vn 1.000000 0.000000 0.000000
vn 1.000000 0.000000 0.000000
vn 1.000000 0.000000 0.000000
vn 1.000000 0.000000 0.000000
vn -1.000000 -0.000000 -0.000000
vn -1.000000 -0.000000 -0.000000
vn -1.000000 -0.000000 -0.000000
vn -1.000000 -0.000000 -0.000000
vn 0.000000 -1.000000 0.000000
vn 0.000000 -1.000000 0.000000
vn 0.000000 -1.000000 0.000000
vn 0.000000 -1.000000 0.000000
vn 0.000000 1.000000 -0.000000
vn 0.000000 1.000000 -0.000000
vn 0.000000 1.000000 -0.000000
vn 0.000000 1.000000 -0.000000

vt -0.087654 -0.005367
vt -0.094809 -0.001789
vt -0.093468 0.000894
vt -0.086312 -0.002683
vt 0.093468 0.000894
vt 0.094809 -0.001789
vt 0.087654 -0.005367
vt 0.086312 -0.002683
vt 0.179835 -0.025226
vt 0.182276 -0.026970
vt 0.177626 -0.033479
vt 0.175185 -0.031736
vt -0.177626 -0.033479
vt -0.182276 -0.026970
vt -0.179835 -0.025226
vt -0.175185 -0.031736
vt 0.140656 -0.093771
vt 0.139647 -0.096596
vt 0.136822 -0.095587
vt 0.137831 -0.092762
vt -0.136822 -0.095587
vt -0.139647 -0.096596
vt -0.140656 -0.093771
vt -0.137831 -0.092762
s off
f 1/1/1 2/2/2 3/3/3
f 1/1/1 3/3/3 4/4/4
f 5/5/5 6/6/6 7/7/7
f 5/5/5 7/7/7 8/8/8
f 9/9/9 10/10/10 11/11/11
f 9/9/9 11/11/11 12/12/12
f 13/13/13 14/14/14 15/15/15
f 13/13/13 15/15/15 16/16/16
f 17/17/17 18/18/18 19/19/19
f 17/17/17 19/19/19 20/20/20
f 21/21/21 22/22/22 23/23/23
f 21/21/21 23/23/23 24/24/24
