# Exported using automatic converter by Erwin Coumans
mtllib botlab.mtl
#object mesh1547539362

v 1.498977 0.500011 -2.827077
v 1.501287 0.502964 -2.757177
v 0.676679 0.533776 -2.731236
v 0.674369 0.530824 -2.801136
v 0.679195 0.603665 -2.734272
v 1.503803 0.572853 -2.760213
v 1.501493 0.569900 -2.830112
v 0.676885 0.600713 -2.804171
v 0.676679 0.533776 -2.731236
v 0.679195 0.603665 -2.734272
v 0.676885 0.600713 -2.804171
v 0.674369 0.530824 -2.801136
v 1.501493 0.569900 -2.830112
v 1.503803 0.572853 -2.760213
v 1.501287 0.502964 -2.757177
v 1.498977 0.500011 -2.827077
v 0.676885 0.600713 -2.804171
v 1.501493 0.569900 -2.830112
v 1.498977 0.500011 -2.827077
v 0.674369 0.530824 -2.801136
v 1.501287 0.502964 -2.757177
v 1.503803 0.572853 -2.760213
v 0.679195 0.603665 -2.734272
v 0.676679 0.533776 -2.731236
usemtl mat15

vn -0.035943 -0.998413 0.043361
vn -0.035943 -0.998413 0.043361
vn -0.035943 -0.998413 0.043361
vn -0.035943 -0.998413 0.043361
vn 0.035943 0.998413 -0.043361
vn 0.035943 0.998413 -0.043361
vn 0.035943 0.998413 -0.043361
vn 0.035943 0.998413 -0.043361
vn -0.998809 0.037322 0.031421
vn -0.998809 0.037322 0.031421
vn -0.998809 0.037322 0.031421
vn -0.998809 0.037322 0.031421
vn 0.998809 -0.037322 -0.031421
vn 0.998809 -0.037322 -0.031421
vn 0.998809 -0.037322 -0.031421
vn 0.998809 -0.037322 -0.031421
vn -0.032990 -0.042180 -0.998565
vn -0.032990 -0.042180 -0.998565
vn -0.032990 -0.042180 -0.998565
vn -0.032990 -0.042180 -0.998565
vn 0.032990 0.042180 0.998565
vn 0.032990 0.042180 0.998565
vn 0.032990 0.042180 0.998565
vn 0.032990 0.042180 0.998565

vt -0.141843 0.170157
vt -0.135148 0.168114
vt -0.159247 0.089150
vt -0.165942 0.091193
vt 0.159247 0.089150
vt 0.135148 0.168114
vt 0.141843 0.170157
vt 0.165942 0.091193
vt 0.102855 0.183137
vt 0.099484 0.189272
vt 0.105619 0.192643
vt 0.108990 0.186508
vt -0.105619 0.192643
vt -0.099484 0.189272
vt -0.102855 0.183137
vt -0.108990 0.186508
vt -0.084302 0.091189
vt -0.044214 0.163363
vt -0.038095 0.159964
vt -0.078182 0.087790
vt 0.038095 0.159964
vt 0.044214 0.163363
vt 0.084302 0.091189
vt 0.078182 0.087790
s off
f 1/1/1 2/2/2 3/3/3
f 1/1/1 3/3/3 4/4/4
f 5/5/5 6/6/6 7/7/7
f 5/5/5 7/7/7 8/8/8
f 9/9/9 10/10/10 11/11/11
f 9/9/9 11/11/11 12/12/12
f 13/13/13 14/14/14 15/15/15
f 13/13/13 15/15/15 16/16/16
f 17/17/17 18/18/18 19/19/19
f 17/17/17 19/19/19 20/20/20
f 21/21/21 22/22/22 23/23/23
f 21/21/21 23/23/23 24/24/24
