# Exported using automatic converter by Erwin Coumans
mtllib botlab.mtl
#object mesh1727304548

v -2.011762 -0.094511 -3.390148
v -2.011762 -0.074511 -3.390148
v -2.011762 -0.074511 -3.370148
v -2.011762 -0.094511 -3.370148
v -2.101762 -0.074511 -3.370148
v -2.101762 -0.074511 -3.390148
v -2.101762 -0.094511 -3.390148
v -2.101762 -0.094511 -3.370148
v -2.011762 -0.074511 -3.370148
v -2.101762 -0.074511 -3.370148
v -2.101762 -0.094511 -3.370148
v -2.011762 -0.094511 -3.370148
v -2.101762 -0.094511 -3.390148
v -2.101762 -0.074511 -3.390148
v -2.011762 -0.074511 -3.390148
v -2.011762 -0.094511 -3.390148
v -2.101762 -0.094511 -3.370148
v -2.101762 -0.094511 -3.390148
v -2.011762 -0.094511 -3.390148
v -2.011762 -0.094511 -3.370148
v -2.011762 -0.074511 -3.390148
v -2.101762 -0.074511 -3.390148
v -2.101762 -0.074511 -3.370148
v -2.011762 -0.074511 -3.370148
usemtl mat23

vn 1.000000 0.000000 0.000000
vn 1.000000 0.000000 0.000000
vn 1.000000 0.000000 0.000000
vn 1.000000 0.000000 0.000000
vn -1.000000 0.000000 -0.000000
vn -1.000000 0.000000 -0.000000
vn -1.000000 0.000000 -0.000000
vn -1.000000 0.000000 -0.000000
vn -0.000000 0.000000 1.000000
vn -0.000000 0.000000 1.000000
vn -0.000000 0.000000 1.000000
vn -0.000000 0.000000 1.000000
vn 0.000000 -0.000000 -1.000000
vn 0.000000 -0.000000 -1.000000
vn 0.000000 -0.000000 -1.000000
vn 0.000000 -0.000000 -1.000000
vn 0.000000 -1.000000 0.000000
vn 0.000000 -1.000000 0.000000
vn 0.000000 -1.000000 0.000000
vn 0.000000 -1.000000 0.000000
vn 0.000000 1.000000 -0.000000
vn 0.000000 1.000000 -0.000000
vn 0.000000 1.000000 -0.000000
vn 0.000000 1.000000 -0.000000

vt -0.180765 0.177045
vt -0.179603 0.178673
vt -0.177975 0.177510
vt -0.179137 0.175883
vt 0.177975 0.177510
vt 0.179603 0.178673
vt 0.180765 0.177045
vt 0.179137 0.175883
vt 0.140425 -0.189171
vt 0.144450 -0.197221
vt 0.142661 -0.198116
vt 0.138636 -0.190066
vt -0.142661 -0.198116
vt -0.144450 -0.197221
vt -0.140425 -0.189171
vt -0.138636 -0.190066
vt -0.314609 -0.143548
vt -0.316492 -0.142876
vt -0.313466 -0.134400
vt -0.311582 -0.135073
vt 0.313466 -0.134400
vt 0.316492 -0.142876
vt 0.314609 -0.143548
vt 0.311582 -0.135073
s off
f 1/1/1 2/2/2 3/3/3
f 1/1/1 3/3/3 4/4/4
f 5/5/5 6/6/6 7/7/7
f 5/5/5 7/7/7 8/8/8
f 9/9/9 10/10/10 11/11/11
f 9/9/9 11/11/11 12/12/12
f 13/13/13 14/14/14 15/15/15
f 13/13/13 15/15/15 16/16/16
f 17/17/17 18/18/18 19/19/19
f 17/17/17 19/19/19 20/20/20
f 21/21/21 22/22/22 23/23/23
f 21/21/21 23/23/23 24/24/24
