# Exported using automatic converter by Erwin Coumans
mtllib botlab.mtl
#object mesh433369088

v 1.070892 -0.988106 1.409314
v 0.975201 -0.986294 1.412223
v 0.970694 -1.055710 1.404403
v 1.066385 -1.057521 1.401493
v 1.058458 -1.052197 1.322641
v 1.062965 -0.982782 1.330461
v 1.158656 -0.984594 1.327551
v 1.154149 -1.054009 1.319731
v 0.970694 -1.055710 1.404403
v 1.058458 -1.052197 1.322641
v 1.154149 -1.054009 1.319731
v 1.066385 -1.057521 1.401493
v 1.158656 -0.984594 1.327551
v 1.062965 -0.982782 1.330461
v 0.975201 -0.986294 1.412223
v 1.070892 -0.988106 1.409314
v 1.154149 -1.054009 1.319731
v 1.158656 -0.984594 1.327551
v 1.070892 -0.988106 1.409314
v 1.066385 -1.057521 1.401493
v 0.975201 -0.986294 1.412223
v 1.062965 -0.982782 1.330461
v 1.058458 -1.052197 1.322641
v 0.970694 -1.055710 1.404403
v 1.437863 -0.990901 1.409794
v 1.342119 -0.989732 1.410262
v 1.338265 -1.058562 1.398110
v 1.434010 -1.059731 1.397641
v 1.428121 -1.049639 1.319077
v 1.431975 -0.980809 1.331229
v 1.527719 -0.981978 1.330761
v 1.523866 -1.050807 1.318608
v 1.338265 -1.058562 1.398110
v 1.428121 -1.049639 1.319077
v 1.523866 -1.050807 1.318608
v 1.434010 -1.059731 1.397641
v 1.527719 -0.981978 1.330761
v 1.431975 -0.980809 1.331229
v 1.342119 -0.989732 1.410262
v 1.437863 -0.990901 1.409794
v 1.523866 -1.050807 1.318608
v 1.527719 -0.981978 1.330761
v 1.437863 -0.990901 1.409794
v 1.434010 -1.059731 1.397641
v 1.342119 -0.989732 1.410262
v 1.431975 -0.980809 1.331229
v 1.428121 -1.049639 1.319077
v 1.338265 -1.058562 1.398110
v 0.884753 -0.985873 1.405933
v 0.789286 -0.982795 1.412655
v 0.783732 -1.052399 1.407715
v 0.879199 -1.055477 1.400994
v 0.868098 -1.053077 1.322381
v 0.873652 -0.983472 1.327320
v 0.969119 -0.986550 1.320599
v 0.963565 -1.056154 1.315660
v 0.783732 -1.052399 1.407715
v 0.868098 -1.053077 1.322381
v 0.963565 -1.056154 1.315660
v 0.879199 -1.055477 1.400994
v 0.969119 -0.986550 1.320599
v 0.873652 -0.983472 1.327320
v 0.789286 -0.982795 1.412655
v 0.884753 -0.985873 1.405933
v 0.963565 -1.056154 1.315660
v 0.969119 -0.986550 1.320599
v 0.884753 -0.985873 1.405933
v 0.879199 -1.055477 1.400994
v 0.789286 -0.982795 1.412655
v 0.873652 -0.983472 1.327320
v 0.868098 -1.053077 1.322381
v 0.783732 -1.052399 1.407715
v 1.253476 -0.994723 1.406284
v 1.157878 -0.991551 1.410706
v 1.152210 -1.060745 1.401755
v 1.247808 -1.063916 1.397333
v 1.238763 -1.057092 1.318717
v 1.244431 -0.987899 1.327668
v 1.340028 -0.991070 1.323246
v 1.334360 -1.060264 1.314295
v 1.152210 -1.060745 1.401755
v 1.238763 -1.057092 1.318717
v 1.334360 -1.060264 1.314295
v 1.247808 -1.063916 1.397333
v 1.340028 -0.991070 1.323246
v 1.244431 -0.987899 1.327668
v 1.157878 -0.991551 1.410706
v 1.253476 -0.994723 1.406284
v 1.334360 -1.060264 1.314295
v 1.340028 -0.991070 1.323246
v 1.253476 -0.994723 1.406284
v 1.247808 -1.063916 1.397333
v 1.157878 -0.991551 1.410706
v 1.244431 -0.987899 1.327668
v 1.238763 -1.057092 1.318717
v 1.152210 -1.060745 1.401755
v 1.346107 -0.989569 1.405277
v 1.250434 -0.988534 1.409055
v 1.246342 -1.057723 1.399249
v 1.342014 -1.058758 1.395472
v 1.333362 -1.051196 1.316879
v 1.337454 -0.982007 1.326684
v 1.433127 -0.983043 1.322907
v 1.429035 -1.052232 1.313102
v 1.246342 -1.057723 1.399249
v 1.333362 -1.051196 1.316879
v 1.429035 -1.052232 1.313102
v 1.342014 -1.058758 1.395472
v 1.433127 -0.983043 1.322907
v 1.337454 -0.982007 1.326684
v 1.250434 -0.988534 1.409055
v 1.346107 -0.989569 1.405277
v 1.429035 -1.052232 1.313102
v 1.433127 -0.983043 1.322907
v 1.346107 -0.989569 1.405277
v 1.342014 -1.058758 1.395472
v 1.250434 -0.988534 1.409055
v 1.337454 -0.982007 1.326684
v 1.333362 -1.051196 1.316879
v 1.246342 -1.057723 1.399249
v 0.979055 -0.986461 1.407135
v 0.883524 -0.984581 1.413352
v 0.878838 -1.054211 1.407902
v 0.974370 -1.056091 1.401684
v 0.963667 -1.053276 1.323031
v 0.968353 -0.983646 1.328481
v 1.063884 -0.985525 1.322263
v 1.059199 -1.055156 1.316813
v 0.878838 -1.054211 1.407902
v 0.963667 -1.053276 1.323031
v 1.059199 -1.055156 1.316813
v 0.974370 -1.056091 1.401684
v 1.063884 -0.985525 1.322263
v 0.968353 -0.983646 1.328481
v 0.883524 -0.984581 1.413352
v 0.979055 -0.986461 1.407135
v 1.059199 -1.055156 1.316813
v 1.063884 -0.985525 1.322263
v 0.979055 -0.986461 1.407135
v 0.974370 -1.056091 1.401684
v 0.883524 -0.984581 1.413352
v 0.968353 -0.983646 1.328481
v 0.963667 -1.053276 1.323031
v 0.878838 -1.054211 1.407902
v 0.792927 -0.983203 1.407423
v 0.697756 -0.979933 1.417438
v 0.692119 -1.049659 1.414881
v 0.787290 -1.052929 1.404866
v 0.773398 -1.052994 1.326662
v 0.779034 -0.983268 1.329219
v 0.874205 -0.986539 1.319203
v 0.868569 -1.056265 1.316646
v 0.692119 -1.049659 1.414881
v 0.773398 -1.052994 1.326662
v 0.868569 -1.056265 1.316646
v 0.787290 -1.052929 1.404866
v 0.874205 -0.986539 1.319203
v 0.779034 -0.983268 1.329219
v 0.697756 -0.979933 1.417438
v 0.792927 -0.983203 1.407423
v 0.868569 -1.056265 1.316646
v 0.874205 -0.986539 1.319203
v 0.792927 -0.983203 1.407423
v 0.787290 -1.052929 1.404866
v 0.697756 -0.979933 1.417438
v 0.779034 -0.983268 1.329219
v 0.773398 -1.052994 1.326662
v 0.692119 -1.049659 1.414881
v 1.161652 -0.991686 1.405556
v 1.066265 -0.988507 1.413283
v 1.060452 -1.057954 1.406701
v 1.155839 -1.061132 1.398973
v 1.143984 -1.056779 1.320555
v 1.149796 -0.987333 1.327138
v 1.245184 -0.990511 1.319411
v 1.239371 -1.059958 1.312828
v 1.060452 -1.057954 1.406701
v 1.143984 -1.056779 1.320555
v 1.239371 -1.059958 1.312828
v 1.155839 -1.061132 1.398973
v 1.245184 -0.990511 1.319411
v 1.149796 -0.987333 1.327138
v 1.066265 -0.988507 1.413283
v 1.161652 -0.991686 1.405556
v 1.239371 -1.059958 1.312828
v 1.245184 -0.990511 1.319411
v 1.161652 -0.991686 1.405556
v 1.155839 -1.061132 1.398973
v 1.066265 -0.988507 1.413283
v 1.149796 -0.987333 1.327138
v 1.143984 -1.056779 1.320555
v 1.060452 -1.057954 1.406701
usemtl mat23

vn 0.028047 -0.113704 0.993119
vn 0.028047 -0.113704 0.993119
vn 0.028047 -0.113704 0.993119
vn 0.028047 -0.113704 0.993119
vn -0.028046 0.113704 -0.993119
vn -0.028046 0.113704 -0.993119
vn -0.028046 0.113704 -0.993119
vn -0.028046 0.113704 -0.993119
vn -0.020871 -0.997650 -0.065259
vn -0.020871 -0.997650 -0.065259
vn -0.020871 -0.997650 -0.065259
vn -0.020871 -0.997650 -0.065259
vn 0.020872 0.997650 0.065259
vn 0.020872 0.997650 0.065259
vn 0.020872 0.997650 0.065259
vn 0.020872 0.997650 0.065259
vn 0.678935 -0.125581 0.723379
vn 0.678935 -0.125581 0.723379
vn 0.678935 -0.125581 0.723379
vn 0.678935 -0.125581 0.723379
vn -0.678935 0.125581 -0.723379
vn -0.678935 0.125581 -0.723379
vn -0.678935 0.125581 -0.723379
vn -0.678935 0.125581 -0.723379
vn 0.002696 -0.174015 0.984739
vn 0.002696 -0.174015 0.984739
vn 0.002696 -0.174015 0.984739
vn 0.002696 -0.174015 0.984739
vn -0.002695 0.174015 -0.984739
vn -0.002695 0.174015 -0.984739
vn -0.002695 0.174015 -0.984739
vn -0.002695 0.174015 -0.984739
vn -0.012728 -0.991890 -0.126458
vn -0.012728 -0.991890 -0.126458
vn -0.012728 -0.991890 -0.126458
vn -0.012728 -0.991890 -0.126458
vn 0.012728 0.991890 0.126458
vn 0.012728 0.991890 0.126458
vn 0.012728 0.991890 0.126458
vn 0.012728 0.991890 0.126458
vn 0.660504 -0.166254 0.732185
vn 0.660504 -0.166254 0.732185
vn 0.660504 -0.166254 0.732185
vn 0.660504 -0.166254 0.732185
vn -0.660504 0.166254 -0.732185
vn -0.660504 0.166254 -0.732185
vn -0.660504 0.166254 -0.732185
vn -0.660504 0.166254 -0.732185
vn 0.067595 -0.075983 0.994815
vn 0.067595 -0.075983 0.994815
vn 0.067595 -0.075983 0.994815
vn 0.067595 -0.075983 0.994815
vn -0.067594 0.075983 -0.994815
vn -0.067594 0.075983 -0.994815
vn -0.067594 0.075983 -0.994815
vn -0.067594 0.075983 -0.994815
vn -0.034021 -0.999090 -0.025707
vn -0.034021 -0.999090 -0.025707
vn -0.034021 -0.999090 -0.025707
vn -0.034021 -0.999090 -0.025707
vn 0.034021 0.999090 0.025707
vn 0.034021 0.999090 0.025707
vn 0.034021 0.999090 0.025707
vn 0.034021 0.999090 0.025707
vn 0.706700 -0.106030 0.699524
vn 0.706700 -0.106030 0.699524
vn 0.706700 -0.106030 0.699524
vn 0.706700 -0.106030 0.699524
vn -0.706700 0.106030 -0.699524
vn -0.706700 0.106030 -0.699524
vn -0.706700 0.106030 -0.699524
vn -0.706700 0.106030 -0.699524
vn 0.041451 -0.131526 0.990446
vn 0.041451 -0.131526 0.990446
vn 0.041451 -0.131526 0.990446
vn 0.041451 -0.131526 0.990446
vn -0.041450 0.131526 -0.990446
vn -0.041450 0.131526 -0.990446
vn -0.041450 0.131526 -0.990446
vn -0.041450 0.131526 -0.990446
vn -0.036842 -0.995934 -0.082208
vn -0.036842 -0.995934 -0.082208
vn -0.036842 -0.995934 -0.082208
vn -0.036842 -0.995934 -0.082208
vn 0.036842 0.995934 0.082208
vn 0.036842 0.995934 0.082208
vn 0.036842 0.995934 0.082208
vn 0.036842 0.995934 0.082208
vn 0.687905 -0.148263 0.710496
vn 0.687905 -0.148263 0.710496
vn 0.687905 -0.148263 0.710496
vn 0.687905 -0.148263 0.710496
vn -0.687905 0.148263 -0.710496
vn -0.687905 0.148263 -0.710496
vn -0.687905 0.148263 -0.710496
vn -0.687905 0.148263 -0.710496
vn 0.037512 -0.142391 0.989100
vn 0.037512 -0.142391 0.989100
vn 0.037512 -0.142391 0.989100
vn 0.037512 -0.142391 0.989100
vn -0.037511 0.142391 -0.989099
vn -0.037511 0.142391 -0.989099
vn -0.037511 0.142391 -0.989099
vn -0.037511 0.142391 -0.989099
vn -0.014492 -0.995449 -0.094185
vn -0.014492 -0.995449 -0.094185
vn -0.014492 -0.995449 -0.094185
vn -0.014492 -0.995449 -0.094185
vn 0.014492 0.995449 0.094185
vn 0.014492 0.995449 0.094185
vn 0.014492 0.995449 0.094185
vn 0.014492 0.995449 0.094185
vn 0.686085 -0.141705 0.713587
vn 0.686085 -0.141705 0.713587
vn 0.686085 -0.141705 0.713587
vn 0.686085 -0.141705 0.713587
vn -0.686085 0.141705 -0.713587
vn -0.686085 0.141705 -0.713587
vn -0.686085 0.141705 -0.713587
vn -0.686085 0.141705 -0.713587
vn 0.063118 -0.082098 0.994624
vn 0.063118 -0.082098 0.994624
vn 0.063118 -0.082098 0.994624
vn 0.063118 -0.082098 0.994624
vn -0.063118 0.082098 -0.994624
vn -0.063118 0.082098 -0.994624
vn -0.063118 0.082098 -0.994624
vn -0.063118 0.082098 -0.994624
vn -0.021794 -0.999224 -0.032794
vn -0.021794 -0.999224 -0.032794
vn -0.021794 -0.999224 -0.032794
vn -0.021794 -0.999224 -0.032794
vn 0.021794 0.999224 0.032794
vn 0.021794 0.999224 0.032794
vn 0.021794 0.999224 0.032794
vn 0.021794 0.999224 0.032794
vn 0.704130 -0.102376 0.702652
vn 0.704130 -0.102376 0.702652
vn 0.704130 -0.102376 0.702652
vn 0.704130 -0.102376 0.702652
vn -0.704130 0.102376 -0.702652
vn -0.704130 0.102376 -0.702652
vn -0.704130 0.102376 -0.702652
vn -0.704130 0.102376 -0.702652
vn 0.103029 -0.044769 0.993670
vn 0.103029 -0.044769 0.993670
vn 0.103029 -0.044769 0.993670
vn 0.103029 -0.044769 0.993670
vn -0.103028 0.044769 -0.993671
vn -0.103028 0.044769 -0.993671
vn -0.103028 0.044769 -0.993671
vn -0.103028 0.044769 -0.993671
vn -0.033626 -0.999411 0.006806
vn -0.033626 -0.999411 0.006806
vn -0.033626 -0.999411 0.006806
vn -0.033626 -0.999411 0.006806
vn 0.033626 0.999411 -0.006806
vn 0.033626 0.999411 -0.006806
vn 0.033626 0.999411 -0.006806
vn 0.033626 0.999411 -0.006806
vn 0.731266 -0.083940 0.676908
vn 0.731266 -0.083940 0.676908
vn 0.731266 -0.083940 0.676908
vn 0.731266 -0.083940 0.676908
vn -0.731266 0.083940 -0.676908
vn -0.731266 0.083940 -0.676908
vn -0.731266 0.083940 -0.676908
vn -0.731266 0.083940 -0.676908
vn 0.077012 -0.100472 0.991955
vn 0.077012 -0.100472 0.991955
vn 0.077012 -0.100472 0.991955
vn 0.077012 -0.100472 0.991955
vn -0.077011 0.100472 -0.991955
vn -0.077011 0.100472 -0.991955
vn -0.077011 0.100472 -0.991955
vn -0.077011 0.100472 -0.991955
vn -0.037293 -0.998065 -0.049765
vn -0.037293 -0.998065 -0.049765
vn -0.037293 -0.998065 -0.049765
vn -0.037293 -0.998065 -0.049765
vn 0.037293 0.998065 0.049765
vn 0.037293 0.998065 0.049765
vn 0.037293 0.998065 0.049765
vn 0.037293 0.998065 0.049765
vn 0.713128 -0.125072 0.689786
vn 0.713128 -0.125072 0.689786
vn 0.713128 -0.125072 0.689786
vn 0.713128 -0.125072 0.689786
vn -0.713128 0.125072 -0.689786
vn -0.713128 0.125072 -0.689786
vn -0.713128 0.125072 -0.689786
vn -0.713128 0.125072 -0.689786

vt -0.050412 0.053687
vt -0.046281 0.045049
vt -0.052463 0.041765
vt -0.056594 0.050404
vt 0.056695 0.049732
vt 0.050512 0.053015
vt 0.054643 0.061654
vt 0.060825 0.058370
vt 0.241116 -0.022655
vt 0.236712 -0.011492
vt 0.239954 -0.002483
vt 0.244357 -0.013645
vt -0.240370 -0.002318
vt -0.237128 -0.011328
vt -0.241532 -0.022491
vt -0.244774 -0.013481
vt 0.018753 -0.092243
vt 0.024949 -0.088985
vt 0.030534 -0.099606
vt 0.024339 -0.102864
vt -0.033524 -0.106159
vt -0.027939 -0.095538
vt -0.021743 -0.098796
vt -0.027329 -0.109417
vt -0.053392 0.099316
vt -0.049499 0.090568
vt -0.055768 0.087455
vt -0.059662 0.096203
vt 0.059781 0.095534
vt 0.053511 0.098648
vt 0.057404 0.107396
vt 0.063674 0.104282
vt 0.255993 0.004589
vt 0.252141 0.015954
vt 0.255819 0.024794
vt 0.259672 0.013430
vt -0.256243 0.024938
vt -0.252564 0.016098
vt -0.256417 0.004733
vt -0.260095 0.013573
vt 0.015534 -0.057554
vt 0.021857 -0.054553
vt 0.027003 -0.065393
vt 0.020679 -0.068395
vt -0.029721 -0.072064
vt -0.024576 -0.061223
vt -0.018252 -0.064224
vt -0.023397 -0.075065
vt -0.046995 0.024373
vt -0.042670 0.015831
vt -0.048777 0.012408
vt -0.053102 0.020951
vt 0.053187 0.020277
vt 0.047081 0.023700
vt 0.051406 0.032242
vt 0.057512 0.028820
vt 0.233703 -0.035337
vt 0.228694 -0.024432
vt 0.231438 -0.015259
vt 0.236446 -0.026163
vt -0.231844 -0.015072
vt -0.229101 -0.024246
vt -0.234110 -0.035151
vt -0.236853 -0.025977
vt 0.024024 -0.113696
vt 0.030085 -0.110193
vt 0.036089 -0.120584
vt 0.030028 -0.124086
vt -0.039337 -0.127013
vt -0.033333 -0.116623
vt -0.027272 -0.120124
vt -0.033276 -0.130515
vt -0.052825 0.069299
vt -0.048621 0.060696
vt -0.054775 0.057360
vt -0.058979 0.065963
vt 0.059074 0.065291
vt 0.052920 0.068627
vt 0.057124 0.077230
vt 0.063278 0.073894
vt 0.248301 -0.007888
vt 0.243848 0.003255
vt 0.247049 0.012279
vt 0.251503 0.001136
vt -0.247464 0.012445
vt -0.244263 0.003421
vt -0.248717 -0.007722
vt -0.251918 0.001302
vt 0.020083 -0.080369
vt 0.026246 -0.077051
vt 0.031935 -0.087617
vt 0.025771 -0.090935
vt -0.034988 -0.094141
vt -0.029300 -0.083574
vt -0.023136 -0.086893
vt -0.028824 -0.097459
vt -0.053870 0.080042
vt -0.049890 0.071333
vt -0.056128 0.068158
vt -0.060108 0.076867
vt 0.060220 0.076197
vt 0.053982 0.079373
vt 0.057962 0.088082
vt 0.064200 0.084907
vt 0.251663 -0.000258
vt 0.247276 0.010911
vt 0.250531 0.019916
vt 0.254918 0.008747
vt -0.250948 0.020080
vt -0.247692 0.011075
vt -0.252079 -0.000095
vt -0.255334 0.008910
vt 0.016170 -0.073648
vt 0.022422 -0.070498
vt 0.027822 -0.081214
vt 0.021570 -0.084364
vt -0.030697 -0.087818
vt -0.025297 -0.077102
vt -0.019046 -0.080252
vt -0.024446 -0.090968
vt -0.050061 0.034516
vt -0.045856 0.025914
vt -0.052010 0.022577
vt -0.056215 0.031179
vt 0.056310 0.030507
vt 0.050156 0.033844
vt 0.054362 0.042446
vt 0.060515 0.039109
vt 0.237157 -0.027391
vt 0.232214 -0.016456
vt 0.235013 -0.007299
vt 0.239956 -0.018233
vt -0.235421 -0.007114
vt -0.232622 -0.016271
vt -0.237565 -0.027206
vt -0.240364 -0.018049
vt 0.020141 -0.107191
vt 0.026256 -0.103785
vt 0.032095 -0.114269
vt 0.025979 -0.117675
vt -0.035240 -0.120749
vt -0.029402 -0.110265
vt -0.023287 -0.113670
vt -0.029125 -0.124155
vt -0.046068 0.005318
vt -0.041678 -0.003191
vt -0.047758 -0.006660
vt -0.052148 0.001849
vt 0.052228 0.001175
vt 0.046148 0.004644
vt 0.050538 0.013154
vt 0.056618 0.009685
vt 0.230167 -0.040011
vt 0.224619 -0.029370
vt 0.226900 -0.020071
vt 0.232448 -0.030711
vt -0.227297 -0.019864
vt -0.225016 -0.029163
vt -0.230563 -0.039804
vt -0.232845 -0.030504
vt 0.026075 -0.127840
vt 0.032049 -0.124192
vt 0.038304 -0.134433
vt 0.032330 -0.138081
vt -0.041707 -0.140781
vt -0.035453 -0.130540
vt -0.029479 -0.134188
vt -0.035733 -0.144430
vt -0.052405 0.050034
vt -0.048128 0.041467
vt -0.054254 0.038079
vt -0.058530 0.046646
vt 0.058620 0.045973
vt 0.052494 0.049361
vt 0.056771 0.057928
vt 0.062896 0.054540
vt 0.244328 -0.012522
vt 0.239333 -0.001611
vt 0.242088 0.007560
vt 0.247083 -0.003351
vt -0.242495 0.007746
vt -0.239740 -0.001424
vt -0.244735 -0.012335
vt -0.247490 -0.003165
vt 0.021598 -0.095760
vt 0.027680 -0.092294
vt 0.033621 -0.102721
vt 0.027539 -0.106186
vt -0.036830 -0.109169
vt -0.030890 -0.098743
vt -0.024808 -0.102208
vt -0.030748 -0.112635
s off
f 1/1/1 2/2/2 3/3/3
f 1/1/1 3/3/3 4/4/4
f 5/5/5 6/6/6 7/7/7
f 5/5/5 7/7/7 8/8/8
f 9/9/9 10/10/10 11/11/11
f 9/9/9 11/11/11 12/12/12
f 13/13/13 14/14/14 15/15/15
f 13/13/13 15/15/15 16/16/16
f 17/17/17 18/18/18 19/19/19
f 17/17/17 19/19/19 20/20/20
f 21/21/21 22/22/22 23/23/23
f 21/21/21 23/23/23 24/24/24
f 25/25/25 26/26/26 27/27/27
f 25/25/25 27/27/27 28/28/28
f 29/29/29 30/30/30 31/31/31
f 29/29/29 31/31/31 32/32/32
f 33/33/33 34/34/34 35/35/35
f 33/33/33 35/35/35 36/36/36
f 37/37/37 38/38/38 39/39/39
f 37/37/37 39/39/39 40/40/40
f 41/41/41 42/42/42 43/43/43
f 41/41/41 43/43/43 44/44/44
f 45/45/45 46/46/46 47/47/47
f 45/45/45 47/47/47 48/48/48
f 49/49/49 50/50/50 51/51/51
f 49/49/49 51/51/51 52/52/52
f 53/53/53 54/54/54 55/55/55
f 53/53/53 55/55/55 56/56/56
f 57/57/57 58/58/58 59/59/59
f 57/57/57 59/59/59 60/60/60
f 61/61/61 62/62/62 63/63/63
f 61/61/61 63/63/63 64/64/64
f 65/65/65 66/66/66 67/67/67
f 65/65/65 67/67/67 68/68/68
f 69/69/69 70/70/70 71/71/71
f 69/69/69 71/71/71 72/72/72
f 73/73/73 74/74/74 75/75/75
f 73/73/73 75/75/75 76/76/76
f 77/77/77 78/78/78 79/79/79
f 77/77/77 79/79/79 80/80/80
f 81/81/81 82/82/82 83/83/83
f 81/81/81 83/83/83 84/84/84
f 85/85/85 86/86/86 87/87/87
f 85/85/85 87/87/87 88/88/88
f 89/89/89 90/90/90 91/91/91
f 89/89/89 91/91/91 92/92/92
f 93/93/93 94/94/94 95/95/95
f 93/93/93 95/95/95 96/96/96
f 97/97/97 98/98/98 99/99/99
f 97/97/97 99/99/99 100/100/100
f 101/101/101 102/102/102 103/103/103
f 101/101/101 103/103/103 104/104/104
f 105/105/105 106/106/106 107/107/107
f 105/105/105 107/107/107 108/108/108
f 109/109/109 110/110/110 111/111/111
f 109/109/109 111/111/111 112/112/112
f 113/113/113 114/114/114 115/115/115
f 113/113/113 115/115/115 116/116/116
f 117/117/117 118/118/118 119/119/119
f 117/117/117 119/119/119 120/120/120
f 121/121/121 122/122/122 123/123/123
f 121/121/121 123/123/123 124/124/124
f 125/125/125 126/126/126 127/127/127
f 125/125/125 127/127/127 128/128/128
f 129/129/129 130/130/130 131/131/131
f 129/129/129 131/131/131 132/132/132
f 133/133/133 134/134/134 135/135/135
f 133/133/133 135/135/135 136/136/136
f 137/137/137 138/138/138 139/139/139
f 137/137/137 139/139/139 140/140/140
f 141/141/141 142/142/142 143/143/143
f 141/141/141 143/143/143 144/144/144
f 145/145/145 146/146/146 147/147/147
f 145/145/145 147/147/147 148/148/148
f 149/149/149 150/150/150 151/151/151
f 149/149/149 151/151/151 152/152/152
f 153/153/153 154/154/154 155/155/155
f 153/153/153 155/155/155 156/156/156
f 157/157/157 158/158/158 159/159/159
f 157/157/157 159/159/159 160/160/160
f 161/161/161 162/162/162 163/163/163
f 161/161/161 163/163/163 164/164/164
f 165/165/165 166/166/166 167/167/167
f 165/165/165 167/167/167 168/168/168
f 169/169/169 170/170/170 171/171/171
f 169/169/169 171/171/171 172/172/172
f 173/173/173 174/174/174 175/175/175
f 173/173/173 175/175/175 176/176/176
f 177/177/177 178/178/178 179/179/179
f 177/177/177 179/179/179 180/180/180
f 181/181/181 182/182/182 183/183/183
f 181/181/181 183/183/183 184/184/184
f 185/185/185 186/186/186 187/187/187
f 185/185/185 187/187/187 188/188/188
f 189/189/189 190/190/190 191/191/191
f 189/189/189 191/191/191 192/192/192
