# Exported using automatic converter by Erwin Coumans
mtllib botlab.mtl
#object mesh845283437

v 1.418238 1.965489 -0.600148
v 1.448238 1.965489 -0.600148
v 1.448238 1.935489 -0.600148
v 1.418238 1.935489 -0.600148
v 1.448238 1.935489 -0.470148
v 1.448238 1.965489 -0.470148
v 1.418238 1.965489 -0.470148
v 1.418238 1.935489 -0.470148
v 1.448238 1.935489 -0.600148
v 1.448238 1.935489 -0.470148
v 1.418238 1.935489 -0.470148
v 1.418238 1.935489 -0.600148
v 1.418238 1.965489 -0.470148
v 1.448238 1.965489 -0.470148
v 1.448238 1.965489 -0.600148
v 1.418238 1.965489 -0.600148
v 1.418238 1.935489 -0.470148
v 1.418238 1.965489 -0.470148
v 1.418238 1.965489 -0.600148
v 1.418238 1.935489 -0.600148
v 1.448238 1.965489 -0.600148
v 1.448238 1.965489 -0.470148
v 1.448238 1.935489 -0.470148
v 1.448238 1.935489 -0.600148
usemtl mat23

vn -0.000000 0.000000 -1.000000
vn -0.000000 0.000000 -1.000000
vn -0.000000 0.000000 -1.000000
vn -0.000000 0.000000 -1.000000
vn 0.000000 0.000000 1.000000
vn 0.000000 0.000000 1.000000
vn 0.000000 0.000000 1.000000
vn 0.000000 0.000000 1.000000
vn -0.000000 -1.000000 0.000000
vn -0.000000 -1.000000 0.000000
vn -0.000000 -1.000000 0.000000
vn -0.000000 -1.000000 0.000000
vn 0.000000 1.000000 0.000000
vn 0.000000 1.000000 0.000000
vn 0.000000 1.000000 0.000000
vn 0.000000 1.000000 0.000000
vn -1.000000 0.000000 0.000000
vn -1.000000 0.000000 0.000000
vn -1.000000 0.000000 0.000000
vn -1.000000 0.000000 0.000000
vn 1.000000 -0.000000 -0.000000
vn 1.000000 -0.000000 -0.000000
vn 1.000000 -0.000000 -0.000000
vn 1.000000 -0.000000 -0.000000

vt -0.169494 0.208849
vt -0.168152 0.211532
vt -0.165469 0.210190
vt -0.166811 0.207507
vt 0.165469 0.210190
vt 0.168152 0.211532
vt 0.169494 0.208849
vt 0.166811 0.207507
vt 0.065653 0.097605
vt 0.077895 0.093232
vt 0.076886 0.090407
vt 0.064644 0.094780
vt -0.076886 0.090407
vt -0.077895 0.093232
vt -0.065653 0.097605
vt -0.064644 0.094780
vt -0.174836 0.172512
vt -0.176580 0.174953
vt -0.166002 0.182509
vt -0.164258 0.180068
vt 0.166002 0.182509
vt 0.176580 0.174953
vt 0.174836 0.172512
vt 0.164258 0.180068
s off
f 1/1/1 2/2/2 3/3/3
f 1/1/1 3/3/3 4/4/4
f 5/5/5 6/6/6 7/7/7
f 5/5/5 7/7/7 8/8/8
f 9/9/9 10/10/10 11/11/11
f 9/9/9 11/11/11 12/12/12
f 13/13/13 14/14/14 15/15/15
f 13/13/13 15/15/15 16/16/16
f 17/17/17 18/18/18 19/19/19
f 17/17/17 19/19/19 20/20/20
f 21/21/21 22/22/22 23/23/23
f 21/21/21 23/23/23 24/24/24
