# Exported using automatic converter by Erwin Coumans
mtllib botlab.mtl
#object mesh1410828021

v -2.241613 -0.672109 -0.074802
v -2.231682 -0.672998 -0.072016
v -2.225739 -0.597466 -0.069087
v -2.235670 -0.596577 -0.071873
v -2.231682 -0.672998 -0.072016
v -2.221677 -0.673686 -0.074585
v -2.215733 -0.598154 -0.071656
v -2.225739 -0.597466 -0.069087
v -2.221677 -0.673686 -0.074585
v -2.214278 -0.673988 -0.081820
v -2.208334 -0.598455 -0.078891
v -2.215733 -0.598154 -0.071656
v -2.214278 -0.673988 -0.081820
v -2.211468 -0.673823 -0.091783
v -2.205525 -0.598290 -0.088854
v -2.208334 -0.598455 -0.078891
v -2.211468 -0.673823 -0.091783
v -2.214001 -0.673235 -0.101804
v -2.208057 -0.597702 -0.098875
v -2.205525 -0.598290 -0.088854
v -2.214001 -0.673235 -0.101804
v -2.221196 -0.672382 -0.109198
v -2.215253 -0.596849 -0.106269
v -2.208057 -0.597702 -0.098875
v -2.221196 -0.672382 -0.109198
v -2.231128 -0.671492 -0.111984
v -2.225184 -0.595960 -0.109055
v -2.215253 -0.596849 -0.106269
v -2.231128 -0.671492 -0.111984
v -2.241133 -0.670805 -0.109415
v -2.235190 -0.595272 -0.106486
v -2.225184 -0.595960 -0.109055
v -2.241133 -0.670805 -0.109415
v -2.248532 -0.670503 -0.102180
v -2.242589 -0.594971 -0.099251
v -2.235190 -0.595272 -0.106486
v -2.248532 -0.670503 -0.102180
v -2.251341 -0.670668 -0.092217
v -2.245398 -0.595136 -0.089288
v -2.242589 -0.594971 -0.099251
v -2.251341 -0.670668 -0.092217
v -2.248809 -0.671256 -0.082196
v -2.242866 -0.595724 -0.079267
v -2.245398 -0.595136 -0.089288
v -2.248809 -0.671256 -0.082196
v -2.241613 -0.672109 -0.074802
v -2.235670 -0.596577 -0.071873
v -2.242866 -0.595724 -0.079267
v -2.235670 -0.596577 -0.071873
v -2.225739 -0.597466 -0.069087
v -2.215733 -0.598154 -0.071656
v -2.208334 -0.598455 -0.078891
v -2.205525 -0.598290 -0.088854
v -2.208057 -0.597702 -0.098875
v -2.215253 -0.596849 -0.106269
v -2.225184 -0.595960 -0.109055
v -2.235190 -0.595272 -0.106486
v -2.242589 -0.594971 -0.099251
v -2.245398 -0.595136 -0.089288
v -2.242866 -0.595724 -0.079267
v -2.248809 -0.671256 -0.082196
v -2.251341 -0.670668 -0.092217
v -2.248532 -0.670503 -0.102180
v -2.241133 -0.670805 -0.109415
v -2.231128 -0.671492 -0.111984
v -2.221196 -0.672382 -0.109198
v -2.214001 -0.673235 -0.101804
v -2.211468 -0.673823 -0.091783
v -2.214278 -0.673988 -0.081820
v -2.221677 -0.673686 -0.074585
v -2.231682 -0.672998 -0.072016
v -2.241613 -0.672109 -0.074802
usemtl mat20

vn -0.510415 0.006816 0.859901
vn -0.510415 0.006816 0.859901
vn -0.510415 0.006816 0.859901
vn -0.510415 0.006816 0.859901
vn -0.013859 -0.037657 0.999195
vn -0.013859 -0.037657 0.999195
vn -0.013859 -0.037657 0.999195
vn -0.013859 -0.037657 0.999195
vn 0.486411 -0.072041 0.870755
vn 0.486411 -0.072041 0.870755
vn 0.486411 -0.072041 0.870755
vn 0.486411 -0.072041 0.870755
vn 0.856348 -0.087121 0.508997
vn 0.856348 -0.087121 0.508997
vn 0.856348 -0.087121 0.508997
vn 0.856348 -0.087121 0.508997
vn 0.996827 -0.078857 0.010854
vn 0.996827 -0.078857 0.010854
vn 0.996827 -0.078857 0.010854
vn 0.996827 -0.078857 0.010854
vn 0.870207 -0.049464 -0.490197
vn 0.870207 -0.049464 -0.490197
vn 0.870207 -0.049464 -0.490197
vn 0.870207 -0.049464 -0.490197
vn 0.510415 -0.006816 -0.859901
vn 0.510415 -0.006816 -0.859901
vn 0.510415 -0.006816 -0.859901
vn 0.510415 -0.006816 -0.859901
vn 0.013858 0.037657 -0.999195
vn 0.013858 0.037657 -0.999195
vn 0.013858 0.037657 -0.999195
vn 0.013858 0.037657 -0.999195
vn -0.486412 0.072041 -0.870755
vn -0.486412 0.072041 -0.870755
vn -0.486412 0.072041 -0.870755
vn -0.486412 0.072041 -0.870755
vn -0.856348 0.087121 -0.508997
vn -0.856348 0.087121 -0.508997
vn -0.856348 0.087121 -0.508997
vn -0.856348 0.087121 -0.508997
vn -0.996827 0.078857 -0.010854
vn -0.996827 0.078857 -0.010854
vn -0.996827 0.078857 -0.010854
vn -0.996827 0.078857 -0.010854
vn -0.870207 0.049464 0.490198
vn -0.870207 0.049464 0.490198
vn -0.870207 0.049464 0.490198
vn -0.870207 0.049464 0.490198
vn 0.078385 0.996174 0.038631
vn 0.078385 0.996174 0.038631
vn 0.078385 0.996174 0.038631
vn 0.078385 0.996174 0.038631
vn 0.078385 0.996174 0.038631
vn 0.078385 0.996174 0.038631
vn 0.078385 0.996174 0.038631
vn 0.078385 0.996174 0.038631
vn 0.078385 0.996174 0.038631
vn 0.078385 0.996174 0.038631
vn 0.078385 0.996174 0.038631
vn 0.078385 0.996174 0.038631
vn -0.078385 -0.996174 -0.038631
vn -0.078385 -0.996174 -0.038631
vn -0.078385 -0.996174 -0.038631
vn -0.078385 -0.996174 -0.038631
vn -0.078385 -0.996174 -0.038631
vn -0.078385 -0.996174 -0.038631
vn -0.078385 -0.996174 -0.038631
vn -0.078385 -0.996174 -0.038631
vn -0.078385 -0.996174 -0.038631
vn -0.078385 -0.996174 -0.038631
vn -0.078385 -0.996174 -0.038631
vn -0.078385 -0.996174 -0.038631

vt 0.090102 -0.154421
vt 0.089436 -0.153675
vt 0.095096 -0.148629
vt 0.095761 -0.149375
vt 0.096871 -0.234061
vt 0.096362 -0.233200
vt 0.102892 -0.229346
vt 0.103401 -0.230208
vt 0.094037 -0.244136
vt 0.093554 -0.243261
vt 0.100194 -0.239600
vt 0.100677 -0.240476
vt 0.083427 -0.183189
vt 0.082858 -0.182367
vt 0.089096 -0.178056
vt 0.089664 -0.178878
vt 0.048824 -0.077009
vt 0.048002 -0.076440
vt 0.052318 -0.070206
vt 0.053140 -0.070775
vt -0.042590 -0.047151
vt -0.043561 -0.047392
vt -0.045384 -0.040032
vt -0.044414 -0.039792
vt -0.090102 -0.154421
vt -0.090768 -0.155168
vt -0.096427 -0.150121
vt -0.095761 -0.149375
vt -0.096871 -0.234061
vt -0.097379 -0.234922
vt -0.103909 -0.231069
vt -0.103401 -0.230208
vt -0.094037 -0.244136
vt -0.094520 -0.245012
vt -0.101160 -0.241351
vt -0.100677 -0.240476
vt -0.083427 -0.183189
vt -0.083995 -0.184012
vt -0.090233 -0.179701
vt -0.089664 -0.178878
vt -0.048824 -0.077009
vt -0.049646 -0.077578
vt -0.053962 -0.071344
vt -0.053140 -0.070775
vt 0.042590 -0.047152
vt 0.041620 -0.046911
vt 0.043443 -0.039551
vt 0.044414 -0.039792
vt 0.015889 -0.265523
vt 0.015263 -0.264699
vt 0.015132 -0.263672
vt 0.015533 -0.262717
vt 0.016358 -0.262091
vt 0.017385 -0.261961
vt 0.018339 -0.262362
vt 0.018965 -0.263186
vt 0.019096 -0.264213
vt 0.018695 -0.265168
vt 0.017870 -0.265794
vt 0.016843 -0.265924
vt -0.016843 -0.265924
vt -0.017870 -0.265794
vt -0.018695 -0.265168
vt -0.019096 -0.264213
vt -0.018965 -0.263186
vt -0.018339 -0.262362
vt -0.017385 -0.261961
vt -0.016358 -0.262091
vt -0.015533 -0.262717
vt -0.015132 -0.263672
vt -0.015263 -0.264699
vt -0.015889 -0.265523
s off
f 1/1/1 2/2/2 3/3/3
f 1/1/1 3/3/3 4/4/4
f 5/5/5 6/6/6 7/7/7
f 5/5/5 7/7/7 8/8/8
f 9/9/9 10/10/10 11/11/11
f 9/9/9 11/11/11 12/12/12
f 13/13/13 14/14/14 15/15/15
f 13/13/13 15/15/15 16/16/16
f 17/17/17 18/18/18 19/19/19
f 17/17/17 19/19/19 20/20/20
f 21/21/21 22/22/22 23/23/23
f 21/21/21 23/23/23 24/24/24
f 25/25/25 26/26/26 27/27/27
f 25/25/25 27/27/27 28/28/28
f 29/29/29 30/30/30 31/31/31
f 29/29/29 31/31/31 32/32/32
f 33/33/33 34/34/34 35/35/35
f 33/33/33 35/35/35 36/36/36
f 37/37/37 38/38/38 39/39/39
f 37/37/37 39/39/39 40/40/40
f 41/41/41 42/42/42 43/43/43
f 41/41/41 43/43/43 44/44/44
f 45/45/45 46/46/46 47/47/47
f 45/45/45 47/47/47 48/48/48
f 49/49/49 50/50/50 51/51/51
f 49/49/49 51/51/51 52/52/52
f 49/49/49 52/52/52 53/53/53
f 49/49/49 53/53/53 54/54/54
f 49/49/49 54/54/54 55/55/55
f 49/49/49 55/55/55 56/56/56
f 49/49/49 56/56/56 57/57/57
f 49/49/49 57/57/57 58/58/58
f 49/49/49 58/58/58 59/59/59
f 49/49/49 59/59/59 60/60/60
f 61/61/61 62/62/62 63/63/63
f 61/61/61 63/63/63 64/64/64
f 61/61/61 64/64/64 65/65/65
f 61/61/61 65/65/65 66/66/66
f 61/61/61 66/66/66 67/67/67
f 61/61/61 67/67/67 68/68/68
f 61/61/61 68/68/68 69/69/69
f 61/61/61 69/69/69 70/70/70
f 61/61/61 70/70/70 71/71/71
f 61/61/61 71/71/71 72/72/72
