# Exported using automatic converter by Erwin Coumans
mtllib botlab.mtl
#object mesh827727322

v 0.999476 -0.983858 2.562122
v 0.996472 -0.964092 2.561601
v 1.009674 -0.962480 2.546664
v 1.012678 -0.982246 2.547185
v 1.024395 -0.959892 2.559954
v 1.011193 -0.961504 2.574891
v 1.014196 -0.981271 2.575412
v 1.027398 -0.979658 2.560475
v 1.009674 -0.962480 2.546664
v 1.024395 -0.959892 2.559954
v 1.027398 -0.979658 2.560475
v 1.012678 -0.982246 2.547185
v 1.014196 -0.981271 2.575412
v 1.011193 -0.961504 2.574891
v 0.996472 -0.964092 2.561601
v 0.999476 -0.983858 2.562122
v 1.027398 -0.979658 2.560475
v 1.014196 -0.981271 2.575412
v 0.999476 -0.983858 2.562122
v 1.012678 -0.982246 2.547185
v 0.996472 -0.964092 2.561601
v 1.011193 -0.961504 2.574891
v 1.024395 -0.959892 2.559954
v 1.009674 -0.962480 2.546664
usemtl mat7

vn -0.736010 -0.129379 -0.664493
vn -0.736010 -0.129379 -0.664493
vn -0.736010 -0.129379 -0.664493
vn -0.736010 -0.129379 -0.664493
vn 0.736010 0.129379 0.664493
vn 0.736010 0.129379 0.664493
vn 0.736010 0.129379 0.664493
vn 0.736010 0.129379 0.664493
vn 0.660101 0.080604 -0.746839
vn 0.660101 0.080604 -0.746839
vn 0.660101 0.080604 -0.746839
vn 0.660101 0.080604 -0.746839
vn -0.660101 -0.080604 0.746839
vn -0.660101 -0.080604 0.746839
vn -0.660101 -0.080604 0.746839
vn -0.660101 -0.080604 0.746839
vn 0.150186 -0.988314 0.026078
vn 0.150186 -0.988314 0.026078
vn 0.150186 -0.988314 0.026078
vn 0.150186 -0.988314 0.026078
vn -0.150186 0.988314 -0.026078
vn -0.150186 0.988314 -0.026078
vn -0.150186 0.988314 -0.026078
vn -0.150186 0.988314 -0.026078

vt -0.009628 -0.226683
vt -0.011506 -0.225997
vt -0.010820 -0.224118
vt -0.008941 -0.224805
vt 0.010820 -0.224118
vt 0.011506 -0.225997
vt 0.009628 -0.226683
vt 0.008941 -0.224805
vt 0.202008 0.196525
vt 0.203070 0.198219
vt 0.204765 0.197156
vt 0.203702 0.195462
vt -0.204765 0.197156
vt -0.203070 0.198219
vt -0.202008 0.196525
vt -0.203702 0.195462
vt 0.346158 -0.046276
vt 0.347165 -0.048004
vt 0.345437 -0.049011
vt 0.344430 -0.047283
vt -0.345437 -0.049011
vt -0.347165 -0.048004
vt -0.346158 -0.046276
vt -0.344430 -0.047283
s off
f 1/1/1 2/2/2 3/3/3
f 1/1/1 3/3/3 4/4/4
f 5/5/5 6/6/6 7/7/7
f 5/5/5 7/7/7 8/8/8
f 9/9/9 10/10/10 11/11/11
f 9/9/9 11/11/11 12/12/12
f 13/13/13 14/14/14 15/15/15
f 13/13/13 15/15/15 16/16/16
f 17/17/17 18/18/18 19/19/19
f 17/17/17 19/19/19 20/20/20
f 21/21/21 22/22/22 23/23/23
f 21/21/21 23/23/23 24/24/24
