# Exported using automatic converter by Erwin Coumans
mtllib botlab.mtl
#object mesh523334491

v 0.378238 1.715489 -0.540148
v 0.378238 1.715489 -0.520148
v 0.378238 0.455489 -0.520148
v 0.378238 0.455489 -0.540148
v 0.338238 0.455489 -0.520148
v 0.338238 1.715489 -0.520148
v 0.338238 1.715489 -0.540148
v 0.338238 0.455489 -0.540148
v 0.378238 0.455489 -0.520148
v 0.338238 0.455489 -0.520148
v 0.338238 0.455489 -0.540148
v 0.378238 0.455489 -0.540148
v 0.338238 1.715489 -0.540148
v 0.338238 1.715489 -0.520148
v 0.378238 1.715489 -0.520148
v 0.378238 1.715489 -0.540148
v 0.338238 0.455489 -0.540148
v 0.338238 1.715489 -0.540148
v 0.378238 1.715489 -0.540148
v 0.378238 0.455489 -0.540148
v 0.378238 1.715489 -0.520148
v 0.338238 1.715489 -0.520148
v 0.338238 0.455489 -0.520148
v 0.378238 0.455489 -0.520148
usemtl mat23

vn 1.000000 0.000000 0.000000
vn 1.000000 0.000000 0.000000
vn 1.000000 0.000000 0.000000
vn 1.000000 0.000000 0.000000
vn -1.000000 0.000000 -0.000000
vn -1.000000 0.000000 -0.000000
vn -1.000000 0.000000 -0.000000
vn -1.000000 0.000000 -0.000000
vn 0.000000 -1.000000 -0.000000
vn 0.000000 -1.000000 -0.000000
vn 0.000000 -1.000000 -0.000000
vn 0.000000 -1.000000 -0.000000
vn -0.000000 1.000000 0.000000
vn -0.000000 1.000000 0.000000
vn -0.000000 1.000000 0.000000
vn -0.000000 1.000000 0.000000
vn 0.000000 0.000000 -1.000000
vn 0.000000 0.000000 -1.000000
vn 0.000000 0.000000 -1.000000
vn 0.000000 0.000000 -1.000000
vn -0.000000 -0.000000 1.000000
vn -0.000000 -0.000000 1.000000
vn -0.000000 -0.000000 1.000000
vn -0.000000 -0.000000 1.000000

vt 0.156353 0.158678
vt 0.157981 0.157515
vt 0.084745 0.054985
vt 0.083117 0.056148
vt -0.084745 0.054985
vt -0.157981 0.157515
vt -0.156353 0.158678
vt -0.083117 0.056148
vt 0.037199 -0.005852
vt 0.035853 -0.009619
vt 0.033970 -0.008947
vt 0.035315 -0.005180
vt -0.033970 -0.008947
vt -0.035853 -0.009619
vt -0.037199 -0.005852
vt -0.035315 -0.005180
vt -0.082735 0.044721
vt -0.195432 0.101070
vt -0.193643 0.104648
vt -0.080946 0.048299
vt 0.193643 0.104648
vt 0.195432 0.101070
vt 0.082735 0.044721
vt 0.080946 0.048299
s off
f 1/1/1 2/2/2 3/3/3
f 1/1/1 3/3/3 4/4/4
f 5/5/5 6/6/6 7/7/7
f 5/5/5 7/7/7 8/8/8
f 9/9/9 10/10/10 11/11/11
f 9/9/9 11/11/11 12/12/12
f 13/13/13 14/14/14 15/15/15
f 13/13/13 15/15/15 16/16/16
f 17/17/17 18/18/18 19/19/19
f 17/17/17 19/19/19 20/20/20
f 21/21/21 22/22/22 23/23/23
f 21/21/21 23/23/23 24/24/24
