# Exported using automatic converter by Erwin Coumans
mtllib botlab.mtl
#object mesh879324049

v -1.881762 -0.984511 2.329852
v -1.881762 -0.984511 2.299851
v -1.881762 -1.014511 2.299851
v -1.881762 -1.014511 2.329852
v -1.091762 -1.014511 2.299852
v -1.091762 -0.984511 2.299852
v -1.091762 -0.984511 2.329852
v -1.091762 -1.014511 2.329852
v -1.881762 -1.014511 2.299851
v -1.091762 -1.014511 2.299852
v -1.091762 -1.014511 2.329852
v -1.881762 -1.014511 2.329852
v -1.091762 -0.984511 2.329852
v -1.091762 -0.984511 2.299852
v -1.881762 -0.984511 2.299851
v -1.881762 -0.984511 2.329852
v -1.091762 -1.014511 2.329852
v -1.091762 -0.984511 2.329852
v -1.881762 -0.984511 2.329852
v -1.881762 -1.014511 2.329852
v -1.881762 -0.984511 2.299851
v -1.091762 -0.984511 2.299852
v -1.091762 -1.014511 2.299852
v -1.881762 -1.014511 2.299851
usemtl mat11

vn -1.000000 0.000000 -0.000000
vn -1.000000 0.000000 -0.000000
vn -1.000000 0.000000 -0.000000
vn -1.000000 0.000000 -0.000000
vn 1.000000 0.000000 0.000000
vn 1.000000 0.000000 0.000000
vn 1.000000 0.000000 0.000000
vn 1.000000 0.000000 0.000000
vn -0.000000 -1.000000 0.000000
vn -0.000000 -1.000000 0.000000
vn -0.000000 -1.000000 0.000000
vn -0.000000 -1.000000 0.000000
vn 0.000000 1.000000 -0.000000
vn 0.000000 1.000000 -0.000000
vn 0.000000 1.000000 -0.000000
vn 0.000000 1.000000 -0.000000
vn -0.000000 0.000000 1.000000
vn -0.000000 0.000000 1.000000
vn -0.000000 0.000000 1.000000
vn -0.000000 0.000000 1.000000
vn 0.000000 -0.000000 -1.000000
vn 0.000000 -0.000000 -1.000000
vn 0.000000 -0.000000 -1.000000
vn 0.000000 -0.000000 -1.000000

vt -0.232960 -0.227845
vt -0.230519 -0.226102
vt -0.228775 -0.228543
vt -0.231217 -0.230287
vt 0.228775 -0.228543
vt 0.230519 -0.226102
vt 0.232960 -0.227845
vt 0.231217 -0.230287
vt 0.226758 -0.313533
vt 0.253329 -0.239135
vt 0.256154 -0.240144
vt 0.229583 -0.314542
vt -0.256154 -0.240144
vt -0.253329 -0.239135
vt -0.226758 -0.313533
vt -0.229583 -0.314542
vt 0.015205 -0.148922
vt 0.017888 -0.147581
vt 0.053218 -0.218240
vt 0.050535 -0.219582
vt -0.053218 -0.218240
vt -0.017888 -0.147581
vt -0.015205 -0.148922
vt -0.050535 -0.219582
s off
f 1/1/1 2/2/2 3/3/3
f 1/1/1 3/3/3 4/4/4
f 5/5/5 6/6/6 7/7/7
f 5/5/5 7/7/7 8/8/8
f 9/9/9 10/10/10 11/11/11
f 9/9/9 11/11/11 12/12/12
f 13/13/13 14/14/14 15/15/15
f 13/13/13 15/15/15 16/16/16
f 17/17/17 18/18/18 19/19/19
f 17/17/17 19/19/19 20/20/20
f 21/21/21 22/22/22 23/23/23
f 21/21/21 23/23/23 24/24/24
