# Exported using automatic converter by Erwin Coumans
mtllib botlab.mtl
#object mesh1319283455

v -0.490879 0.505439 -2.725177
v -0.491042 0.505527 -2.745269
v -0.796031 0.505810 -2.741270
v -0.795868 0.505722 -2.721178
v -0.796037 0.495764 -2.741314
v -0.491048 0.495480 -2.745313
v -0.490885 0.495392 -2.725221
v -0.795874 0.495676 -2.721222
v -0.796031 0.505810 -2.741270
v -0.796037 0.495764 -2.741314
v -0.795874 0.495676 -2.721222
v -0.795868 0.505722 -2.721178
v -0.490885 0.495392 -2.725221
v -0.491048 0.495480 -2.745313
v -0.491042 0.505527 -2.745269
v -0.490879 0.505439 -2.725177
v -0.795874 0.495676 -2.721222
v -0.490885 0.495392 -2.725221
v -0.490879 0.505439 -2.725177
v -0.795868 0.505722 -2.721178
v -0.491042 0.505527 -2.745269
v -0.491048 0.495480 -2.745313
v -0.796037 0.495764 -2.741314
v -0.796031 0.505810 -2.741270
usemtl mat23

vn 0.000987 0.999990 0.004387
vn 0.000987 0.999990 0.004387
vn 0.000987 0.999990 0.004387
vn 0.000987 0.999990 0.004387
vn -0.000987 -0.999990 -0.004392
vn -0.000987 -0.999990 -0.004392
vn -0.000987 -0.999990 -0.004392
vn -0.000987 -0.999990 -0.004392
vn -0.999967 0.000576 0.008124
vn -0.999967 0.000576 0.008124
vn -0.999967 0.000576 0.008124
vn -0.999967 0.000576 0.008124
vn 0.999967 -0.000576 -0.008124
vn 0.999967 -0.000576 -0.008124
vn 0.999967 -0.000576 -0.008124
vn 0.999967 -0.000576 -0.008124
vn 0.013108 -0.004403 0.999904
vn 0.013108 -0.004403 0.999904
vn 0.013108 -0.004403 0.999904
vn 0.013108 -0.004403 0.999904
vn -0.013108 0.004402 -0.999904
vn -0.013108 0.004402 -0.999904
vn -0.013108 0.004402 -0.999904
vn -0.013108 0.004402 -0.999904

vt 0.200157 -0.013063
vt 0.202054 -0.012399
vt 0.211995 -0.041235
vt 0.210099 -0.041899
vt -0.211996 -0.041234
vt -0.202054 -0.012398
vt -0.200158 -0.013062
vt -0.210100 -0.041898
vt 0.095976 0.187565
vt 0.096555 0.186743
vt 0.094911 0.185587
vt 0.094333 0.186409
vt -0.095042 0.185665
vt -0.096686 0.186822
vt -0.096107 0.187643
vt -0.094464 0.186487
vt 0.135080 -0.053540
vt 0.121497 -0.026229
vt 0.122397 -0.025782
vt 0.135980 -0.053092
vt -0.122393 -0.025773
vt -0.121493 -0.026220
vt -0.135076 -0.053530
vt -0.135976 -0.053083
s off
f 1/1/1 2/2/2 3/3/3
f 1/1/1 3/3/3 4/4/4
f 5/5/5 6/6/6 7/7/7
f 5/5/5 7/7/7 8/8/8
f 9/9/9 10/10/10 11/11/11
f 9/9/9 11/11/11 12/12/12
f 13/13/13 14/14/14 15/15/15
f 13/13/13 15/15/15 16/16/16
f 17/17/17 18/18/18 19/19/19
f 17/17/17 19/19/19 20/20/20
f 21/21/21 22/22/22 23/23/23
f 21/21/21 23/23/23 24/24/24
