# Exported using automatic converter by Erwin Coumans
mtllib botlab.mtl
#object mesh2039039155

v -1.071762 -0.074511 2.329852
v -1.871762 -0.074511 2.329852
v -1.871762 -0.104511 2.329852
v -1.071762 -0.104511 2.329852
v -1.871762 -0.104511 2.299851
v -1.871762 -0.074511 2.299851
v -1.071762 -0.074511 2.299852
v -1.071762 -0.104511 2.299852
v -1.871762 -0.104511 2.329852
v -1.871762 -0.104511 2.299851
v -1.071762 -0.104511 2.299852
v -1.071762 -0.104511 2.329852
v -1.071762 -0.074511 2.299852
v -1.871762 -0.074511 2.299851
v -1.871762 -0.074511 2.329852
v -1.071762 -0.074511 2.329852
v -1.071762 -0.104511 2.299852
v -1.071762 -0.074511 2.299852
v -1.071762 -0.074511 2.329852
v -1.071762 -0.104511 2.329852
v -1.871762 -0.074511 2.329852
v -1.871762 -0.074511 2.299851
v -1.871762 -0.104511 2.299851
v -1.871762 -0.104511 2.329852
usemtl mat15

vn -0.000000 0.000000 1.000000
vn -0.000000 0.000000 1.000000
vn -0.000000 0.000000 1.000000
vn -0.000000 0.000000 1.000000
vn 0.000000 0.000000 -1.000000
vn 0.000000 0.000000 -1.000000
vn 0.000000 0.000000 -1.000000
vn 0.000000 0.000000 -1.000000
vn 0.000000 -1.000000 0.000000
vn 0.000000 -1.000000 0.000000
vn 0.000000 -1.000000 0.000000
vn 0.000000 -1.000000 0.000000
vn -0.000000 1.000000 0.000000
vn -0.000000 1.000000 0.000000
vn -0.000000 1.000000 0.000000
vn -0.000000 1.000000 0.000000
vn 1.000000 0.000000 0.000000
vn 1.000000 0.000000 0.000000
vn 1.000000 0.000000 0.000000
vn 1.000000 0.000000 0.000000
vn -1.000000 -0.000000 -0.000000
vn -1.000000 -0.000000 -0.000000
vn -1.000000 -0.000000 -0.000000
vn -1.000000 -0.000000 -0.000000

vt 0.098387 -0.105095
vt 0.134164 -0.176649
vt 0.131481 -0.177991
vt 0.095704 -0.106437
vt -0.131481 -0.177991
vt -0.134164 -0.176649
vt -0.098387 -0.105095
vt -0.095704 -0.106437
vt 0.229920 -0.313600
vt 0.227094 -0.312591
vt 0.254001 -0.237252
vt 0.256826 -0.238261
vt -0.254001 -0.237252
vt -0.227094 -0.312591
vt -0.229920 -0.313600
vt -0.256826 -0.238261
vt 0.281668 -0.154493
vt 0.283412 -0.152052
vt 0.285853 -0.153796
vt 0.284109 -0.156237
vt -0.285853 -0.153796
vt -0.283412 -0.152052
vt -0.281668 -0.154493
vt -0.284109 -0.156237
s off
f 1/1/1 2/2/2 3/3/3
f 1/1/1 3/3/3 4/4/4
f 5/5/5 6/6/6 7/7/7
f 5/5/5 7/7/7 8/8/8
f 9/9/9 10/10/10 11/11/11
f 9/9/9 11/11/11 12/12/12
f 13/13/13 14/14/14 15/15/15
f 13/13/13 15/15/15 16/16/16
f 17/17/17 18/18/18 19/19/19
f 17/17/17 19/19/19 20/20/20
f 21/21/21 22/22/22 23/23/23
f 21/21/21 23/23/23 24/24/24
