# Exported using automatic converter by Erwin Coumans
mtllib botlab.mtl
#object mesh1273925889

v 1.788238 -0.414511 -3.020148
v 1.758238 -0.422549 -3.020148
v 1.758238 -0.422549 -2.900148
v 1.788238 -0.414511 -2.900148
v 1.758238 -0.422549 -3.020148
v 1.736276 -0.444511 -3.020148
v 1.736276 -0.444511 -2.900148
v 1.758238 -0.422549 -2.900148
v 1.736276 -0.444511 -3.020148
v 1.728238 -0.474511 -3.020148
v 1.728238 -0.474511 -2.900148
v 1.736276 -0.444511 -2.900148
v 1.728238 -0.474511 -3.020148
v 1.736276 -0.504511 -3.020148
v 1.736276 -0.504511 -2.900148
v 1.728238 -0.474511 -2.900148
v 1.736276 -0.504511 -3.020148
v 1.758238 -0.526473 -3.020148
v 1.758238 -0.526473 -2.900148
v 1.736276 -0.504511 -2.900148
v 1.758238 -0.526473 -3.020148
v 1.788238 -0.534511 -3.020148
v 1.788238 -0.534511 -2.900148
v 1.758238 -0.526473 -2.900148
v 1.788238 -0.534511 -3.020148
v 1.818238 -0.526473 -3.020148
v 1.818238 -0.526473 -2.900148
v 1.788238 -0.534511 -2.900148
v 1.818238 -0.526473 -3.020148
v 1.840199 -0.504511 -3.020148
v 1.840199 -0.504511 -2.900148
v 1.818238 -0.526473 -2.900148
v 1.840199 -0.504511 -3.020148
v 1.848238 -0.474511 -3.020148
v 1.848238 -0.474511 -2.900148
v 1.840199 -0.504511 -2.900148
v 1.848238 -0.474511 -3.020148
v 1.840199 -0.444511 -3.020148
v 1.840199 -0.444511 -2.900148
v 1.848238 -0.474511 -2.900148
v 1.840199 -0.444511 -3.020148
v 1.818238 -0.422549 -3.020148
v 1.818238 -0.422549 -2.900148
v 1.840199 -0.444511 -2.900148
v 1.818238 -0.422549 -3.020148
v 1.788238 -0.414511 -3.020148
v 1.788238 -0.414511 -2.900148
v 1.818238 -0.422549 -2.900148
v 1.788238 -0.414511 -2.900148
v 1.758238 -0.422549 -2.900148
v 1.736276 -0.444511 -2.900148
v 1.728238 -0.474511 -2.900148
v 1.736276 -0.504511 -2.900148
v 1.758238 -0.526473 -2.900148
v 1.788238 -0.534511 -2.900148
v 1.818238 -0.526473 -2.900148
v 1.840199 -0.504511 -2.900148
v 1.848238 -0.474511 -2.900148
v 1.840199 -0.444511 -2.900148
v 1.818238 -0.422549 -2.900148
v 1.818238 -0.422549 -3.020148
v 1.840199 -0.444511 -3.020148
v 1.848238 -0.474511 -3.020148
v 1.840199 -0.504511 -3.020148
v 1.818238 -0.526473 -3.020148
v 1.788238 -0.534511 -3.020148
v 1.758238 -0.526473 -3.020148
v 1.736276 -0.504511 -3.020148
v 1.728238 -0.474511 -3.020148
v 1.736276 -0.444511 -3.020148
v 1.758238 -0.422549 -3.020148
v 1.788238 -0.414511 -3.020148
usemtl mat21

vn 0.000000 1.000000 -0.000000
vn 0.000000 1.000000 -0.000000
vn 0.000000 1.000000 -0.000000
vn 0.000000 1.000000 -0.000000
vn -0.500000 0.866025 -0.000000
vn -0.500000 0.866025 -0.000000
vn -0.500000 0.866025 -0.000000
vn -0.500000 0.866025 -0.000000
vn -0.866026 0.500000 -0.000000
vn -0.866026 0.500000 -0.000000
vn -0.866026 0.500000 -0.000000
vn -0.866026 0.500000 -0.000000
vn -1.000000 -0.000000 0.000000
vn -1.000000 -0.000000 0.000000
vn -1.000000 -0.000000 0.000000
vn -1.000000 -0.000000 0.000000
vn -0.866025 -0.500000 0.000000
vn -0.866025 -0.500000 0.000000
vn -0.866025 -0.500000 0.000000
vn -0.866025 -0.500000 0.000000
vn -0.500000 -0.866025 0.000000
vn -0.500000 -0.866025 0.000000
vn -0.500000 -0.866025 0.000000
vn -0.500000 -0.866025 0.000000
vn 0.000000 -1.000000 0.000000
vn 0.000000 -1.000000 0.000000
vn 0.000000 -1.000000 0.000000
vn 0.000000 -1.000000 0.000000
vn 0.500000 -0.866025 0.000000
vn 0.500000 -0.866025 0.000000
vn 0.500000 -0.866025 0.000000
vn 0.500000 -0.866025 0.000000
vn 0.866026 -0.500000 0.000000
vn 0.866026 -0.500000 0.000000
vn 0.866026 -0.500000 0.000000
vn 0.866026 -0.500000 0.000000
vn 1.000000 0.000000 -0.000000
vn 1.000000 0.000000 -0.000000
vn 1.000000 0.000000 -0.000000
vn 1.000000 0.000000 -0.000000
vn 0.866026 0.500000 -0.000000
vn 0.866026 0.500000 -0.000000
vn 0.866026 0.500000 -0.000000
vn 0.866026 0.500000 -0.000000
vn 0.500000 0.866026 -0.000000
vn 0.500000 0.866026 -0.000000
vn 0.500000 0.866026 -0.000000
vn 0.500000 0.866026 -0.000000
vn 0.000000 -0.000000 1.000000
vn 0.000000 -0.000000 1.000000
vn 0.000000 -0.000000 1.000000
vn 0.000000 -0.000000 1.000000
vn 0.000000 -0.000000 1.000000
vn 0.000000 -0.000000 1.000000
vn 0.000000 -0.000000 1.000000
vn 0.000000 -0.000000 1.000000
vn 0.000000 -0.000000 1.000000
vn 0.000000 -0.000000 1.000000
vn 0.000000 -0.000000 1.000000
vn 0.000000 -0.000000 1.000000
vn 0.000000 0.000000 -1.000000
vn 0.000000 0.000000 -1.000000
vn 0.000000 0.000000 -1.000000
vn 0.000000 0.000000 -1.000000
vn 0.000000 0.000000 -1.000000
vn 0.000000 0.000000 -1.000000
vn 0.000000 0.000000 -1.000000
vn 0.000000 0.000000 -1.000000
vn 0.000000 0.000000 -1.000000
vn 0.000000 0.000000 -1.000000
vn 0.000000 0.000000 -1.000000
vn 0.000000 0.000000 -1.000000

vt 0.150813 0.211017
vt 0.151822 0.208192
vt 0.140521 0.204156
vt 0.139512 0.206981
vt 0.163648 0.187469
vt 0.164562 0.184612
vt 0.153133 0.180955
vt 0.152219 0.183812
vt 0.172161 0.146064
vt 0.173233 0.143262
vt 0.162026 0.138972
vt 0.160954 0.141774
vt 0.172744 0.124618
vt 0.174488 0.122176
vt 0.164723 0.115201
vt 0.162979 0.117643
vt 0.032614 0.222832
vt 0.035563 0.223385
vt 0.037775 0.211590
vt 0.034826 0.211037
vt -0.120237 0.217284
vt -0.118732 0.219879
vt -0.108350 0.213860
vt -0.109855 0.211265
vt -0.150813 0.211017
vt -0.149804 0.213843
vt -0.138503 0.209807
vt -0.139512 0.206981
vt -0.163648 0.187469
vt -0.162734 0.190326
vt -0.151305 0.186669
vt -0.152219 0.183812
vt -0.172161 0.146064
vt -0.171088 0.148866
vt -0.159881 0.144576
vt -0.160954 0.141774
vt -0.172744 0.124618
vt -0.171000 0.127059
vt -0.161235 0.120084
vt -0.162979 0.117643
vt -0.032614 0.222832
vt -0.029665 0.222279
vt -0.031878 0.210484
vt -0.034826 0.211037
vt 0.120237 0.217284
vt 0.121741 0.214688
vt 0.111360 0.208670
vt 0.109855 0.211265
vt -0.059927 0.135506
vt -0.059304 0.132463
vt -0.060286 0.129516
vt -0.062610 0.127456
vt -0.065653 0.126833
vt -0.068599 0.127815
vt -0.070660 0.130139
vt -0.071282 0.133182
vt -0.070300 0.136128
vt -0.067976 0.138189
vt -0.064934 0.138812
vt -0.061987 0.137829
vt 0.061987 0.137829
vt 0.064934 0.138812
vt 0.067976 0.138189
vt 0.070300 0.136128
vt 0.071282 0.133182
vt 0.070660 0.130139
vt 0.068599 0.127815
vt 0.065653 0.126833
vt 0.062610 0.127456
vt 0.060286 0.129516
vt 0.059304 0.132463
vt 0.059927 0.135506
s off
f 1/1/1 2/2/2 3/3/3
f 1/1/1 3/3/3 4/4/4
f 5/5/5 6/6/6 7/7/7
f 5/5/5 7/7/7 8/8/8
f 9/9/9 10/10/10 11/11/11
f 9/9/9 11/11/11 12/12/12
f 13/13/13 14/14/14 15/15/15
f 13/13/13 15/15/15 16/16/16
f 17/17/17 18/18/18 19/19/19
f 17/17/17 19/19/19 20/20/20
f 21/21/21 22/22/22 23/23/23
f 21/21/21 23/23/23 24/24/24
f 25/25/25 26/26/26 27/27/27
f 25/25/25 27/27/27 28/28/28
f 29/29/29 30/30/30 31/31/31
f 29/29/29 31/31/31 32/32/32
f 33/33/33 34/34/34 35/35/35
f 33/33/33 35/35/35 36/36/36
f 37/37/37 38/38/38 39/39/39
f 37/37/37 39/39/39 40/40/40
f 41/41/41 42/42/42 43/43/43
f 41/41/41 43/43/43 44/44/44
f 45/45/45 46/46/46 47/47/47
f 45/45/45 47/47/47 48/48/48
f 49/49/49 50/50/50 51/51/51
f 49/49/49 51/51/51 52/52/52
f 49/49/49 52/52/52 53/53/53
f 49/49/49 53/53/53 54/54/54
f 49/49/49 54/54/54 55/55/55
f 49/49/49 55/55/55 56/56/56
f 49/49/49 56/56/56 57/57/57
f 49/49/49 57/57/57 58/58/58
f 49/49/49 58/58/58 59/59/59
f 49/49/49 59/59/59 60/60/60
f 61/61/61 62/62/62 63/63/63
f 61/61/61 63/63/63 64/64/64
f 61/61/61 64/64/64 65/65/65
f 61/61/61 65/65/65 66/66/66
f 61/61/61 66/66/66 67/67/67
f 61/61/61 67/67/67 68/68/68
f 61/61/61 68/68/68 69/69/69
f 61/61/61 69/69/69 70/70/70
f 61/61/61 70/70/70 71/71/71
f 61/61/61 71/71/71 72/72/72
