# Exported using automatic converter by Erwin Coumans
mtllib botlab.mtl
#object mesh1735701392

v -0.082765 1.322203 3.608101
v -0.083590 1.312380 3.606418
v -0.088435 1.312578 3.607638
v -0.087610 1.322401 3.609321
v -0.083590 1.312380 3.606418
v -0.081985 1.305882 3.613848
v -0.086829 1.306080 3.615068
v -0.088435 1.312578 3.607638
v -0.081985 1.305882 3.613848
v -0.079554 1.309207 3.622960
v -0.084399 1.309405 3.624180
v -0.086829 1.306080 3.615068
v -0.079554 1.309207 3.622960
v -0.078729 1.319030 3.624643
v -0.083573 1.319228 3.625863
v -0.084399 1.309405 3.624180
v -0.078729 1.319030 3.624643
v -0.080334 1.325528 3.617213
v -0.085179 1.325726 3.618433
v -0.083573 1.319228 3.625863
v -0.080334 1.325528 3.617213
v -0.082765 1.322203 3.608101
v -0.087610 1.322401 3.609321
v -0.085179 1.325726 3.618433
v -0.080334 1.325528 3.617213
v -0.078729 1.319030 3.624643
v -0.079554 1.309207 3.622960
v -0.081985 1.305882 3.613848
v -0.083590 1.312380 3.606418
v -0.082765 1.322203 3.608101
v -0.087610 1.322401 3.609321
v -0.088435 1.312578 3.607638
v -0.086829 1.306080 3.615068
v -0.084399 1.309405 3.624180
v -0.083573 1.319228 3.625863
v -0.085179 1.325726 3.618433
usemtl mat21

vn -0.233057 0.183159 -0.955059
vn -0.233057 0.183159 -0.955059
vn -0.233057 0.183159 -0.955059
vn -0.233057 0.183159 -0.955059
vn -0.187991 -0.759105 -0.623233
vn -0.187991 -0.759105 -0.623233
vn -0.187991 -0.759105 -0.623233
vn -0.187991 -0.759105 -0.623233
vn 0.045065 -0.942264 0.331826
vn 0.045065 -0.942264 0.331826
vn 0.045065 -0.942264 0.331826
vn 0.045065 -0.942264 0.331826
vn 0.233057 -0.183159 0.955059
vn 0.233057 -0.183159 0.955059
vn 0.233057 -0.183159 0.955059
vn 0.233057 -0.183159 0.955059
vn 0.187991 0.759105 0.623233
vn 0.187991 0.759105 0.623233
vn 0.187991 0.759105 0.623233
vn 0.187991 0.759105 0.623233
vn -0.045065 0.942264 -0.331826
vn -0.045065 0.942264 -0.331826
vn -0.045065 0.942264 -0.331826
vn -0.045065 0.942264 -0.331826
vn 0.968956 -0.039599 -0.244042
vn 0.968956 -0.039599 -0.244042
vn 0.968956 -0.039599 -0.244042
vn 0.968956 -0.039599 -0.244042
vn 0.968956 -0.039599 -0.244042
vn 0.968956 -0.039599 -0.244042
vn -0.968956 0.039599 0.244042
vn -0.968956 0.039599 0.244042
vn -0.968956 0.039599 0.244042
vn -0.968956 0.039599 0.244042
vn -0.968956 0.039599 0.244042
vn -0.968956 0.039599 0.244042

vt -0.292679 -0.027740
vt -0.291783 -0.028184
vt -0.292005 -0.028632
vt -0.292901 -0.028188
vt 0.135655 -0.223839
vt 0.136579 -0.224222
vt 0.136388 -0.224684
vt 0.135464 -0.224301
vt 0.471458 -0.117148
vt 0.472455 -0.117067
vt 0.472495 -0.117565
vt 0.471498 -0.117646
vt 0.291783 -0.028184
vt 0.292679 -0.027740
vt 0.292901 -0.028188
vt 0.292005 -0.028632
vt -0.136579 -0.224222
vt -0.135655 -0.223839
vt -0.135464 -0.224301
vt -0.136388 -0.224684
vt -0.472455 -0.117067
vt -0.471458 -0.117148
vt -0.471498 -0.117646
vt -0.472495 -0.117565
vt 0.452619 0.092752
vt 0.453245 0.091972
vt 0.452883 0.091040
vt 0.451895 0.090888
vt 0.451268 0.091668
vt 0.451631 0.092600
vt -0.451631 0.092600
vt -0.451268 0.091668
vt -0.451895 0.090888
vt -0.452883 0.091040
vt -0.453245 0.091972
vt -0.452619 0.092752
s off
f 1/1/1 2/2/2 3/3/3
f 1/1/1 3/3/3 4/4/4
f 5/5/5 6/6/6 7/7/7
f 5/5/5 7/7/7 8/8/8
f 9/9/9 10/10/10 11/11/11
f 9/9/9 11/11/11 12/12/12
f 13/13/13 14/14/14 15/15/15
f 13/13/13 15/15/15 16/16/16
f 17/17/17 18/18/18 19/19/19
f 17/17/17 19/19/19 20/20/20
f 21/21/21 22/22/22 23/23/23
f 21/21/21 23/23/23 24/24/24
f 25/25/25 26/26/26 27/27/27
f 25/25/25 27/27/27 28/28/28
f 25/25/25 28/28/28 29/29/29
f 25/25/25 29/29/29 30/30/30
f 31/31/31 32/32/32 33/33/33
f 31/31/31 33/33/33 34/34/34
f 31/31/31 34/34/34 35/35/35
f 31/31/31 35/35/35 36/36/36
