# Exported using automatic converter by Erwin Coumans
mtllib botlab.mtl
#object mesh82387319

v -0.186762 -0.364511 2.169851
v -0.186762 -0.364511 2.209851
v -0.186762 -0.454511 2.209851
v -0.186762 -0.454511 2.169851
v -0.271762 -0.454511 2.209851
v -0.271762 -0.364511 2.209851
v -0.271762 -0.364511 2.169851
v -0.271762 -0.454511 2.169851
v -0.186762 -0.454511 2.209851
v -0.271762 -0.454511 2.209851
v -0.271762 -0.454511 2.169851
v -0.186762 -0.454511 2.169851
v -0.271762 -0.364511 2.169851
v -0.271762 -0.364511 2.209851
v -0.186762 -0.364511 2.209851
v -0.186762 -0.364511 2.169851
v -0.271762 -0.454511 2.169851
v -0.271762 -0.364511 2.169851
v -0.186762 -0.364511 2.169851
v -0.186762 -0.454511 2.169851
v -0.186762 -0.364511 2.209851
v -0.271762 -0.364511 2.209851
v -0.271762 -0.454511 2.209851
v -0.186762 -0.454511 2.209851
v -0.236763 -0.369511 2.199852
v -0.238102 -0.369511 2.194851
v -0.248103 0.180489 2.194852
v -0.246763 0.180489 2.199852
v -0.238102 -0.369511 2.194851
v -0.241763 -0.369511 2.191191
v -0.251763 0.180489 2.191191
v -0.248103 0.180489 2.194852
v -0.241763 -0.369511 2.191191
v -0.246763 -0.369511 2.189852
v -0.256763 0.180489 2.189852
v -0.251763 0.180489 2.191191
v -0.246763 -0.369511 2.189852
v -0.251763 -0.369511 2.191191
v -0.261763 0.180489 2.191191
v -0.256763 0.180489 2.189852
v -0.251763 -0.369511 2.191191
v -0.255423 -0.369511 2.194851
v -0.261763 0.180489 2.191191
v -0.255423 -0.369511 2.194851
v -0.256763 -0.369511 2.199852
v -0.261763 0.180489 2.191191
v -0.256763 -0.369511 2.199852
v -0.255423 -0.369511 2.204852
v -0.265423 0.180489 2.204852
v -0.255423 -0.369511 2.204852
v -0.251763 -0.369511 2.208512
v -0.261763 0.180489 2.208512
v -0.265423 0.180489 2.204852
v -0.251763 -0.369511 2.208512
v -0.246763 -0.369511 2.209852
v -0.256763 0.180489 2.209852
v -0.261763 0.180489 2.208512
v -0.246763 -0.369511 2.209852
v -0.241763 -0.369511 2.208512
v -0.251763 0.180489 2.208512
v -0.256763 0.180489 2.209852
v -0.241763 -0.369511 2.208512
v -0.238102 -0.369511 2.204852
v -0.248103 0.180489 2.204852
v -0.251763 0.180489 2.208512
v -0.238102 -0.369511 2.204852
v -0.236763 -0.369511 2.199852
v -0.246763 0.180489 2.199852
v -0.248103 0.180489 2.204852
v -0.246763 0.180489 2.199852
v -0.248103 0.180489 2.194852
v -0.251763 0.180489 2.191191
v -0.256763 0.180489 2.189852
v -0.261763 0.180489 2.191191
v -0.265423 0.180489 2.204852
v -0.261763 0.180489 2.208512
v -0.256763 0.180489 2.209852
v -0.251763 0.180489 2.208512
v -0.248103 0.180489 2.204852
v -0.238102 -0.369511 2.204852
v -0.241763 -0.369511 2.208512
v -0.246763 -0.369511 2.209852
v -0.251763 -0.369511 2.208512
v -0.255423 -0.369511 2.204852
v -0.256763 -0.369511 2.199852
v -0.255423 -0.369511 2.194851
v -0.251763 -0.369511 2.191191
v -0.246763 -0.369511 2.189852
v -0.241763 -0.369511 2.191191
v -0.238102 -0.369511 2.194851
v -0.236763 -0.369511 2.199852
v -0.265423 0.180489 2.204852
v -0.261763 0.180489 2.191191
v -0.256763 -0.369511 2.199852
v -0.236762 -0.434511 2.164851
v -0.236762 -0.414511 2.164851
v -0.236762 -0.414511 2.179852
v -0.236762 -0.434511 2.179852
v -0.256762 -0.414511 2.179852
v -0.256762 -0.414511 2.164851
v -0.256762 -0.434511 2.164851
v -0.256762 -0.434511 2.179852
v -0.236762 -0.414511 2.179852
v -0.256762 -0.414511 2.179852
v -0.256762 -0.434511 2.179852
v -0.236762 -0.434511 2.179852
v -0.256762 -0.434511 2.164851
v -0.256762 -0.414511 2.164851
v -0.236762 -0.414511 2.164851
v -0.236762 -0.434511 2.164851
v -0.256762 -0.434511 2.179852
v -0.256762 -0.434511 2.164851
v -0.236762 -0.434511 2.164851
v -0.236762 -0.434511 2.179852
v -0.236762 -0.414511 2.164851
v -0.256762 -0.414511 2.164851
v -0.256762 -0.414511 2.179852
v -0.236762 -0.414511 2.179852
v -0.236763 -0.404511 2.164852
v -0.236763 -0.384511 2.164852
v -0.236763 -0.384511 2.184852
v -0.236763 -0.404511 2.184852
v -0.256763 -0.384511 2.184852
v -0.256763 -0.384511 2.164852
v -0.256763 -0.404511 2.164852
v -0.256763 -0.404511 2.184852
v -0.236763 -0.384511 2.184852
v -0.256763 -0.384511 2.184852
v -0.256763 -0.404511 2.184852
v -0.236763 -0.404511 2.184852
v -0.256763 -0.404511 2.164852
v -0.256763 -0.384511 2.164852
v -0.236763 -0.384511 2.164852
v -0.236763 -0.404511 2.164852
v -0.256763 -0.404511 2.184852
v -0.256763 -0.404511 2.164852
v -0.236763 -0.404511 2.164852
v -0.236763 -0.404511 2.184852
v -0.236763 -0.384511 2.164852
v -0.256763 -0.384511 2.164852
v -0.256763 -0.384511 2.184852
v -0.236763 -0.384511 2.184852
v -0.236762 -0.439511 2.169852
v -0.236762 -0.419511 2.169852
v -0.236762 -0.419511 2.189852
v -0.236762 -0.439511 2.189852
v -0.256762 -0.419511 2.189852
v -0.256762 -0.419511 2.169852
v -0.256762 -0.439511 2.169852
v -0.256762 -0.439511 2.189852
v -0.236762 -0.419511 2.189852
v -0.256762 -0.419511 2.189852
v -0.256762 -0.439511 2.189852
v -0.236762 -0.439511 2.189852
v -0.256762 -0.439511 2.169852
v -0.256762 -0.419511 2.169852
v -0.236762 -0.419511 2.169852
v -0.236762 -0.439511 2.169852
v -0.256762 -0.439511 2.189852
v -0.256762 -0.439511 2.169852
v -0.236762 -0.439511 2.169852
v -0.236762 -0.439511 2.189852
v -0.236762 -0.419511 2.169852
v -0.256762 -0.419511 2.169852
v -0.256762 -0.419511 2.189852
v -0.236762 -0.419511 2.189852
v -0.201763 -0.399511 2.164852
v -0.201763 -0.379511 2.164852
v -0.201763 -0.379511 2.184852
v -0.201763 -0.399511 2.184852
v -0.221763 -0.379511 2.184852
v -0.221763 -0.379511 2.164852
v -0.221763 -0.399511 2.164852
v -0.221763 -0.399511 2.184852
v -0.201763 -0.379511 2.184852
v -0.221763 -0.379511 2.184852
v -0.221763 -0.399511 2.184852
v -0.201763 -0.399511 2.184852
v -0.221763 -0.399511 2.164852
v -0.221763 -0.379511 2.164852
v -0.201763 -0.379511 2.164852
v -0.201763 -0.399511 2.164852
v -0.221763 -0.399511 2.184852
v -0.221763 -0.399511 2.164852
v -0.201763 -0.399511 2.164852
v -0.201763 -0.399511 2.184852
v -0.201763 -0.379511 2.164852
v -0.221763 -0.379511 2.164852
v -0.221763 -0.379511 2.184852
v -0.201763 -0.379511 2.184852
v -0.201763 -0.434511 2.159852
v -0.201763 -0.414511 2.159852
v -0.201763 -0.414511 2.189852
v -0.201763 -0.434511 2.189852
v -0.221763 -0.414511 2.189852
v -0.221763 -0.414511 2.159852
v -0.221763 -0.434511 2.159852
v -0.221763 -0.434511 2.189852
v -0.201763 -0.414511 2.189852
v -0.221763 -0.414511 2.189852
v -0.221763 -0.434511 2.189852
v -0.201763 -0.434511 2.189852
v -0.221763 -0.434511 2.159852
v -0.221763 -0.414511 2.159852
v -0.201763 -0.414511 2.159852
v -0.201763 -0.434511 2.159852
v -0.221763 -0.434511 2.189852
v -0.221763 -0.434511 2.159852
v -0.201763 -0.434511 2.159852
v -0.201763 -0.434511 2.189852
v -0.201763 -0.414511 2.159852
v -0.221763 -0.414511 2.159852
v -0.221763 -0.414511 2.189852
v -0.201763 -0.414511 2.189852
usemtl mat21

vn 1.000000 -0.000000 -0.000000
vn 1.000000 -0.000000 -0.000000
vn 1.000000 -0.000000 -0.000000
vn 1.000000 -0.000000 -0.000000
vn -1.000000 0.000000 0.000000
vn -1.000000 0.000000 0.000000
vn -1.000000 0.000000 0.000000
vn -1.000000 0.000000 0.000000
vn -0.000000 -1.000000 -0.000001
vn -0.000000 -1.000000 -0.000001
vn -0.000000 -1.000000 -0.000001
vn -0.000000 -1.000000 -0.000001
vn 0.000000 1.000000 0.000001
vn 0.000000 1.000000 0.000001
vn 0.000000 1.000000 0.000001
vn 0.000000 1.000000 0.000001
vn -0.000000 0.000001 -1.000000
vn -0.000000 0.000001 -1.000000
vn -0.000000 0.000001 -1.000000
vn -0.000000 0.000001 -1.000000
vn 0.000000 -0.000001 1.000000
vn 0.000000 -0.000001 1.000000
vn 0.000000 -0.000001 1.000000
vn 0.000000 -0.000001 1.000000
vn 0.965780 0.017560 -0.258767
vn 0.965780 0.017560 -0.258767
vn 0.965780 0.017560 -0.258767
vn 0.965780 0.017560 -0.258767
vn 0.707054 0.012856 -0.707043
vn 0.707054 0.012856 -0.707043
vn 0.707054 0.012856 -0.707043
vn 0.707054 0.012856 -0.707043
vn 0.258808 0.004706 -0.965917
vn 0.258808 0.004706 -0.965917
vn 0.258808 0.004706 -0.965917
vn 0.258808 0.004706 -0.965917
vn -0.258820 -0.004706 -0.965914
vn -0.258820 -0.004706 -0.965914
vn -0.258820 -0.004706 -0.965914
vn -0.258820 -0.004706 -0.965914
vn -0.707048 -0.012855 -0.707048
vn -0.707048 -0.012855 -0.707048
vn -0.707048 -0.012855 -0.707048
vn -0.965846 -0.012856 -0.258797
vn -0.965846 -0.012856 -0.258797
vn -0.965846 -0.012856 -0.258797
vn -0.965777 -0.017560 0.258779
vn -0.965777 -0.017560 0.258779
vn -0.965777 -0.017560 0.258779
vn -0.707054 -0.012856 0.707043
vn -0.707054 -0.012856 0.707043
vn -0.707054 -0.012856 0.707043
vn -0.707054 -0.012856 0.707043
vn -0.258820 -0.004706 0.965914
vn -0.258820 -0.004706 0.965914
vn -0.258820 -0.004706 0.965914
vn -0.258820 -0.004706 0.965914
vn 0.258808 0.004705 0.965917
vn 0.258808 0.004705 0.965917
vn 0.258808 0.004705 0.965917
vn 0.258808 0.004705 0.965917
vn 0.707054 0.012856 0.707043
vn 0.707054 0.012856 0.707043
vn 0.707054 0.012856 0.707043
vn 0.707054 0.012856 0.707043
vn 0.965780 0.017560 0.258766
vn 0.965780 0.017560 0.258766
vn 0.965780 0.017560 0.258766
vn 0.965780 0.017560 0.258766
vn -0.000000 1.000000 0.000000
vn -0.000000 1.000000 0.000000
vn -0.000000 1.000000 0.000000
vn -0.000000 1.000000 0.000000
vn -0.000000 1.000000 0.000000
vn -0.000000 1.000000 0.000000
vn -0.000000 1.000000 0.000000
vn -0.000000 1.000000 0.000000
vn -0.000000 1.000000 0.000000
vn -0.000000 1.000000 0.000000
vn 0.000000 -1.000000 -0.000000
vn 0.000000 -1.000000 -0.000000
vn 0.000000 -1.000000 -0.000000
vn 0.000000 -1.000000 -0.000000
vn 0.000000 -1.000000 -0.000000
vn 0.000000 -1.000000 -0.000000
vn 0.000000 -1.000000 -0.000000
vn 0.000000 -1.000000 -0.000000
vn 0.000000 -1.000000 -0.000000
vn 0.000000 -1.000000 -0.000000
vn 0.000000 -1.000000 -0.000000
vn 0.000000 -1.000000 -0.000000
vn -0.965847 -0.012855 -0.258794
vn -0.965847 -0.012855 -0.258794
vn -0.965847 -0.012855 -0.258794
vn 1.000000 -0.000000 -0.000000
vn 1.000000 -0.000000 -0.000000
vn 1.000000 -0.000000 -0.000000
vn 1.000000 -0.000000 -0.000000
vn -1.000000 0.000000 0.000000
vn -1.000000 0.000000 0.000000
vn -1.000000 0.000000 0.000000
vn -1.000000 0.000000 0.000000
vn 0.000000 -0.000000 1.000000
vn 0.000000 -0.000000 1.000000
vn 0.000000 -0.000000 1.000000
vn 0.000000 -0.000000 1.000000
vn -0.000000 0.000000 -1.000000
vn -0.000000 0.000000 -1.000000
vn -0.000000 0.000000 -1.000000
vn -0.000000 0.000000 -1.000000
vn -0.000000 -1.000000 -0.000000
vn -0.000000 -1.000000 -0.000000
vn -0.000000 -1.000000 -0.000000
vn -0.000000 -1.000000 -0.000000
vn 0.000000 1.000000 0.000000
vn 0.000000 1.000000 0.000000
vn 0.000000 1.000000 0.000000
vn 0.000000 1.000000 0.000000
vn 1.000000 -0.000000 -0.000000
vn 1.000000 -0.000000 -0.000000
vn 1.000000 -0.000000 -0.000000
vn 1.000000 -0.000000 -0.000000
vn -1.000000 0.000000 0.000000
vn -1.000000 0.000000 0.000000
vn -1.000000 0.000000 0.000000
vn -1.000000 0.000000 0.000000
vn 0.000000 -0.000000 1.000000
vn 0.000000 -0.000000 1.000000
vn 0.000000 -0.000000 1.000000
vn 0.000000 -0.000000 1.000000
vn -0.000000 0.000000 -1.000000
vn -0.000000 0.000000 -1.000000
vn -0.000000 0.000000 -1.000000
vn -0.000000 0.000000 -1.000000
vn -0.000000 -1.000000 -0.000000
vn -0.000000 -1.000000 -0.000000
vn -0.000000 -1.000000 -0.000000
vn -0.000000 -1.000000 -0.000000
vn 0.000000 1.000000 0.000000
vn 0.000000 1.000000 0.000000
vn 0.000000 1.000000 0.000000
vn 0.000000 1.000000 0.000000
vn 1.000000 -0.000000 -0.000000
vn 1.000000 -0.000000 -0.000000
vn 1.000000 -0.000000 -0.000000
vn 1.000000 -0.000000 -0.000000
vn -1.000000 0.000000 0.000000
vn -1.000000 0.000000 0.000000
vn -1.000000 0.000000 0.000000
vn -1.000000 0.000000 0.000000
vn 0.000000 -0.000000 1.000000
vn 0.000000 -0.000000 1.000000
vn 0.000000 -0.000000 1.000000
vn 0.000000 -0.000000 1.000000
vn -0.000000 0.000000 -1.000000
vn -0.000000 0.000000 -1.000000
vn -0.000000 0.000000 -1.000000
vn -0.000000 0.000000 -1.000000
vn -0.000000 -1.000000 -0.000000
vn -0.000000 -1.000000 -0.000000
vn -0.000000 -1.000000 -0.000000
vn -0.000000 -1.000000 -0.000000
vn 0.000000 1.000000 0.000000
vn 0.000000 1.000000 0.000000
vn 0.000000 1.000000 0.000000
vn 0.000000 1.000000 0.000000
vn 1.000000 -0.000000 -0.000000
vn 1.000000 -0.000000 -0.000000
vn 1.000000 -0.000000 -0.000000
vn 1.000000 -0.000000 -0.000000
vn -1.000000 0.000000 0.000000
vn -1.000000 0.000000 0.000000
vn -1.000000 0.000000 0.000000
vn -1.000000 0.000000 0.000000
vn 0.000000 -0.000000 1.000000
vn 0.000000 -0.000000 1.000000
vn 0.000000 -0.000000 1.000000
vn 0.000000 -0.000000 1.000000
vn -0.000000 0.000000 -1.000000
vn -0.000000 0.000000 -1.000000
vn -0.000000 0.000000 -1.000000
vn -0.000000 0.000000 -1.000000
vn -0.000000 -1.000000 -0.000000
vn -0.000000 -1.000000 -0.000000
vn -0.000000 -1.000000 -0.000000
vn -0.000000 -1.000000 -0.000000
vn 0.000000 1.000000 0.000000
vn 0.000000 1.000000 0.000000
vn 0.000000 1.000000 0.000000
vn 0.000000 1.000000 0.000000
vn 1.000000 -0.000000 -0.000000
vn 1.000000 -0.000000 -0.000000
vn 1.000000 -0.000000 -0.000000
vn 1.000000 -0.000000 -0.000000
vn -1.000000 0.000000 0.000000
vn -1.000000 0.000000 0.000000
vn -1.000000 0.000000 0.000000
vn -1.000000 0.000000 0.000000
vn 0.000000 -0.000000 1.000000
vn 0.000000 -0.000000 1.000000
vn 0.000000 -0.000000 1.000000
vn 0.000000 -0.000000 1.000000
vn -0.000000 0.000000 -1.000000
vn -0.000000 0.000000 -1.000000
vn -0.000000 0.000000 -1.000000
vn -0.000000 0.000000 -1.000000
vn -0.000000 -1.000000 -0.000000
vn -0.000000 -1.000000 -0.000000
vn -0.000000 -1.000000 -0.000000
vn -0.000000 -1.000000 -0.000000
vn 0.000000 1.000000 0.000000
vn 0.000000 1.000000 0.000000
vn 0.000000 1.000000 0.000000
vn 0.000000 1.000000 0.000000

vt 0.255977 -0.168094
vt 0.259232 -0.170419
vt 0.254001 -0.177743
vt 0.250746 -0.175418
vt -0.254001 -0.177743
vt -0.259232 -0.170419
vt -0.255977 -0.168094
vt -0.250746 -0.175418
vt 0.275291 -0.150881
vt 0.272432 -0.158885
vt 0.268665 -0.157540
vt 0.271524 -0.149535
vt -0.268665 -0.157540
vt -0.272432 -0.158885
vt -0.275291 -0.150881
vt -0.271524 -0.149535
vt -0.028622 -0.050535
vt -0.036672 -0.046510
vt -0.032870 -0.038908
vt -0.024821 -0.042932
vt 0.032870 -0.038908
vt 0.036672 -0.046510
vt 0.028622 -0.050535
vt 0.024821 -0.042932
vt 0.282354 -0.036500
vt 0.281844 -0.036409
vt 0.291283 0.017785
vt 0.291792 0.017694
vt 0.121216 0.133231
vt 0.120837 0.132878
vt 0.082814 0.172630
vt 0.083192 0.172983
vt 0.001899 0.029552
vt 0.001643 0.029102
vt -0.046636 0.055468
vt -0.046380 0.055918
vt -0.066181 -0.116187
vt -0.066402 -0.116655
vt -0.116538 -0.094019
vt -0.116316 -0.093551
vt -0.126054 -0.224704
vt -0.126291 -0.225164
vt -0.175281 -0.200153
vt -0.205344 -0.235930
vt -0.205669 -0.236333
vt -0.247978 -0.201176
vt -0.281850 -0.036367
vt -0.282359 -0.036458
vt -0.291796 0.017736
vt -0.120820 0.132896
vt -0.121199 0.133249
vt -0.083176 0.173001
vt -0.082797 0.172648
vt -0.001637 0.029110
vt -0.001893 0.029559
vt 0.046386 0.055926
vt 0.046642 0.055476
vt 0.066392 -0.116656
vt 0.066171 -0.116188
vt 0.116307 -0.093552
vt 0.116528 -0.094020
vt 0.126270 -0.225177
vt 0.126033 -0.224716
vt 0.175260 -0.200165
vt 0.175497 -0.200625
vt 0.204566 -0.237281
vt 0.204242 -0.236878
vt 0.247304 -0.202648
vt 0.247628 -0.203052
vt -0.272332 -0.156195
vt -0.271816 -0.156153
vt -0.271348 -0.156374
vt -0.271053 -0.156800
vt -0.271011 -0.157316
vt -0.272175 -0.158120
vt -0.272643 -0.157899
vt -0.272937 -0.157473
vt -0.272979 -0.156957
vt -0.272757 -0.156489
vt 0.273094 -0.155547
vt 0.273315 -0.156015
vt 0.273273 -0.156531
vt 0.272979 -0.156957
vt 0.272511 -0.157178
vt 0.271995 -0.157136
vt 0.271569 -0.156842
vt 0.271348 -0.156374
vt 0.271390 -0.155858
vt 0.271684 -0.155433
vt 0.272152 -0.155211
vt 0.272668 -0.155253
vt -0.248869 -0.202275
vt -0.247979 -0.201176
vt -0.205670 -0.236332
vt 0.251502 -0.173499
vt 0.252664 -0.171872
vt 0.253885 -0.172744
vt 0.252722 -0.174371
vt -0.253885 -0.172744
vt -0.252664 -0.171872
vt -0.251502 -0.173499
vt -0.252722 -0.174371
vt 0.030634 -0.045616
vt 0.031529 -0.047405
vt 0.029740 -0.048299
vt 0.028845 -0.046510
vt -0.029740 -0.048299
vt -0.031529 -0.047405
vt -0.030634 -0.045616
vt -0.028845 -0.046510
vt 0.270112 -0.156464
vt 0.268699 -0.155959
vt 0.269372 -0.154076
vt 0.270784 -0.154580
vt -0.269372 -0.154076
vt -0.268699 -0.155959
vt -0.270112 -0.156464
vt -0.270784 -0.154580
vt 0.253246 -0.171058
vt 0.254408 -0.169431
vt 0.256035 -0.170593
vt 0.254873 -0.172221
vt -0.256035 -0.170593
vt -0.254408 -0.169431
vt -0.253246 -0.171058
vt -0.254873 -0.172221
vt 0.033317 -0.044274
vt 0.034212 -0.046063
vt 0.032423 -0.046958
vt 0.031529 -0.045169
vt -0.032423 -0.046958
vt -0.034212 -0.046063
vt -0.033317 -0.044274
vt -0.031529 -0.045169
vt 0.270583 -0.156632
vt 0.268699 -0.155959
vt 0.269372 -0.154076
vt 0.271255 -0.154748
vt -0.269372 -0.154076
vt -0.268699 -0.155959
vt -0.270583 -0.156632
vt -0.271255 -0.154748
vt 0.251618 -0.174197
vt 0.252780 -0.172569
vt 0.254408 -0.173732
vt 0.253246 -0.175360
vt -0.254408 -0.173732
vt -0.252780 -0.172569
vt -0.251618 -0.174197
vt -0.253246 -0.175360
vt 0.030187 -0.045839
vt 0.031081 -0.047628
vt 0.029293 -0.048523
vt 0.028398 -0.046734
vt -0.029293 -0.048523
vt -0.031081 -0.047628
vt -0.030187 -0.045839
vt -0.028398 -0.046734
vt 0.271053 -0.156800
vt 0.269170 -0.156127
vt 0.269843 -0.154244
vt 0.271726 -0.154916
vt -0.269843 -0.154244
vt -0.269170 -0.156127
vt -0.271053 -0.156800
vt -0.271726 -0.154916
vt 0.253536 -0.170651
vt 0.254699 -0.169024
vt 0.256326 -0.170187
vt 0.255164 -0.171814
vt -0.256326 -0.170187
vt -0.254699 -0.169024
vt -0.253536 -0.170651
vt -0.255164 -0.171814
vt 0.032199 -0.040920
vt 0.033094 -0.042709
vt 0.031305 -0.043603
vt 0.030411 -0.041815
vt -0.031305 -0.043603
vt -0.033094 -0.042709
vt -0.032199 -0.040920
vt -0.030411 -0.041815
vt 0.271760 -0.153336
vt 0.269876 -0.152663
vt 0.270549 -0.150780
vt 0.272432 -0.151452
vt -0.270549 -0.150780
vt -0.269876 -0.152663
vt -0.271760 -0.153336
vt -0.272432 -0.151452
vt 0.251095 -0.173209
vt 0.252257 -0.171581
vt 0.254699 -0.173325
vt 0.253536 -0.174953
vt -0.254699 -0.173325
vt -0.252257 -0.171581
vt -0.251095 -0.173209
vt -0.253536 -0.174953
vt 0.029069 -0.042485
vt 0.029963 -0.044274
vt 0.028175 -0.045169
vt 0.027280 -0.043380
vt -0.028175 -0.045169
vt -0.029963 -0.044274
vt -0.029069 -0.042485
vt -0.027280 -0.043380
vt 0.272231 -0.153504
vt 0.269405 -0.152495
vt 0.270078 -0.150612
vt 0.272903 -0.151621
vt -0.270078 -0.150612
vt -0.269405 -0.152495
vt -0.272231 -0.153504
vt -0.272903 -0.151621
s off
f 1/1/1 2/2/2 3/3/3
f 1/1/1 3/3/3 4/4/4
f 5/5/5 6/6/6 7/7/7
f 5/5/5 7/7/7 8/8/8
f 9/9/9 10/10/10 11/11/11
f 9/9/9 11/11/11 12/12/12
f 13/13/13 14/14/14 15/15/15
f 13/13/13 15/15/15 16/16/16
f 17/17/17 18/18/18 19/19/19
f 17/17/17 19/19/19 20/20/20
f 21/21/21 22/22/22 23/23/23
f 21/21/21 23/23/23 24/24/24
f 25/25/25 26/26/26 27/27/27
f 25/25/25 27/27/27 28/28/28
f 29/29/29 30/30/30 31/31/31
f 29/29/29 31/31/31 32/32/32
f 33/33/33 34/34/34 35/35/35
f 33/33/33 35/35/35 36/36/36
f 37/37/37 38/38/38 39/39/39
f 37/37/37 39/39/39 40/40/40
f 41/41/41 42/42/42 43/43/43
f 44/44/44 45/45/45 46/46/46
f 47/47/47 48/48/48 49/49/49
f 50/50/50 51/51/51 52/52/52
f 50/50/50 52/52/52 53/53/53
f 54/54/54 55/55/55 56/56/56
f 54/54/54 56/56/56 57/57/57
f 58/58/58 59/59/59 60/60/60
f 58/58/58 60/60/60 61/61/61
f 62/62/62 63/63/63 64/64/64
f 62/62/62 64/64/64 65/65/65
f 66/66/66 67/67/67 68/68/68
f 66/66/66 68/68/68 69/69/69
f 70/70/70 71/71/71 72/72/72
f 70/70/70 72/72/72 73/73/73
f 70/70/70 73/73/73 74/74/74
f 70/70/70 74/74/74 75/75/75
f 70/70/70 75/75/75 76/76/76
f 70/70/70 76/76/76 77/77/77
f 70/70/70 77/77/77 78/78/78
f 70/70/70 78/78/78 79/79/79
f 80/80/80 81/81/81 82/82/82
f 80/80/80 82/82/82 83/83/83
f 80/80/80 83/83/83 84/84/84
f 80/80/80 84/84/84 85/85/85
f 80/80/80 85/85/85 86/86/86
f 80/80/80 86/86/86 87/87/87
f 80/80/80 87/87/87 88/88/88
f 80/80/80 88/88/88 89/89/89
f 80/80/80 89/89/89 90/90/90
f 80/80/80 90/90/90 91/91/91
f 92/92/92 93/93/93 94/94/94
f 95/95/95 96/96/96 97/97/97
f 95/95/95 97/97/97 98/98/98
f 99/99/99 100/100/100 101/101/101
f 99/99/99 101/101/101 102/102/102
f 103/103/103 104/104/104 105/105/105
f 103/103/103 105/105/105 106/106/106
f 107/107/107 108/108/108 109/109/109
f 107/107/107 109/109/109 110/110/110
f 111/111/111 112/112/112 113/113/113
f 111/111/111 113/113/113 114/114/114
f 115/115/115 116/116/116 117/117/117
f 115/115/115 117/117/117 118/118/118
f 119/119/119 120/120/120 121/121/121
f 119/119/119 121/121/121 122/122/122
f 123/123/123 124/124/124 125/125/125
f 123/123/123 125/125/125 126/126/126
f 127/127/127 128/128/128 129/129/129
f 127/127/127 129/129/129 130/130/130
f 131/131/131 132/132/132 133/133/133
f 131/131/131 133/133/133 134/134/134
f 135/135/135 136/136/136 137/137/137
f 135/135/135 137/137/137 138/138/138
f 139/139/139 140/140/140 141/141/141
f 139/139/139 141/141/141 142/142/142
f 143/143/143 144/144/144 145/145/145
f 143/143/143 145/145/145 146/146/146
f 147/147/147 148/148/148 149/149/149
f 147/147/147 149/149/149 150/150/150
f 151/151/151 152/152/152 153/153/153
f 151/151/151 153/153/153 154/154/154
f 155/155/155 156/156/156 157/157/157
f 155/155/155 157/157/157 158/158/158
f 159/159/159 160/160/160 161/161/161
f 159/159/159 161/161/161 162/162/162
f 163/163/163 164/164/164 165/165/165
f 163/163/163 165/165/165 166/166/166
f 167/167/167 168/168/168 169/169/169
f 167/167/167 169/169/169 170/170/170
f 171/171/171 172/172/172 173/173/173
f 171/171/171 173/173/173 174/174/174
f 175/175/175 176/176/176 177/177/177
f 175/175/175 177/177/177 178/178/178
f 179/179/179 180/180/180 181/181/181
f 179/179/179 181/181/181 182/182/182
f 183/183/183 184/184/184 185/185/185
f 183/183/183 185/185/185 186/186/186
f 187/187/187 188/188/188 189/189/189
f 187/187/187 189/189/189 190/190/190
f 191/191/191 192/192/192 193/193/193
f 191/191/191 193/193/193 194/194/194
f 195/195/195 196/196/196 197/197/197
f 195/195/195 197/197/197 198/198/198
f 199/199/199 200/200/200 201/201/201
f 199/199/199 201/201/201 202/202/202
f 203/203/203 204/204/204 205/205/205
f 203/203/203 205/205/205 206/206/206
f 207/207/207 208/208/208 209/209/209
f 207/207/207 209/209/209 210/210/210
f 211/211/211 212/212/212 213/213/213
f 211/211/211 213/213/213 214/214/214
