# Exported using automatic converter by Erwin Coumans
mtllib botlab.mtl
#object mesh1366194260

v 0.302185 0.444963 1.008799
v 0.179027 0.444963 1.008799
v 0.179027 0.465489 1.008799
v 0.302185 0.465489 1.008799
v 0.179027 0.465489 1.036168
v 0.179027 0.444963 1.036168
v 0.302185 0.444963 1.036168
v 0.302185 0.465489 1.036168
v 0.179027 0.465489 1.008799
v 0.179027 0.465489 1.036168
v 0.302185 0.465489 1.036168
v 0.302185 0.465489 1.008799
v 0.302185 0.444963 1.036168
v 0.179027 0.444963 1.036168
v 0.179027 0.444963 1.008799
v 0.302185 0.444963 1.008799
v 0.302185 0.465489 1.036168
v 0.302185 0.444963 1.036168
v 0.302185 0.444963 1.008799
v 0.302185 0.465489 1.008799
v 0.179027 0.444963 1.008799
v 0.179027 0.444963 1.036168
v 0.179027 0.465489 1.036168
v 0.179027 0.465489 1.008799
v 0.299027 0.464963 0.754588
v 0.169027 0.464963 0.754588
v 0.169027 0.478647 0.754588
v 0.299027 0.478647 0.754588
v 0.169027 0.478647 0.775115
v 0.169027 0.464963 0.775115
v 0.299027 0.464963 0.775115
v 0.299027 0.478647 0.775115
v 0.169027 0.478647 0.754588
v 0.169027 0.478647 0.775115
v 0.299027 0.478647 0.775115
v 0.299027 0.478647 0.754588
v 0.299027 0.464963 0.775115
v 0.169027 0.464963 0.775115
v 0.169027 0.464963 0.754588
v 0.299027 0.464963 0.754588
v 0.299027 0.478647 0.775115
v 0.299027 0.464963 0.775115
v 0.299027 0.464963 0.754588
v 0.299027 0.478647 0.754588
v 0.169027 0.464963 0.754588
v 0.169027 0.464963 0.775115
v 0.169027 0.478647 0.775115
v 0.169027 0.478647 0.754588
v 0.182711 0.464963 0.754589
v 0.169027 0.464963 0.754589
v 0.169027 0.478647 0.754589
v 0.182711 0.478647 0.754589
v 0.169027 0.468647 1.016168
v 0.169027 0.454963 1.016168
v 0.182712 0.454963 1.016168
v 0.182712 0.468647 1.016168
v 0.169027 0.478647 0.754589
v 0.169027 0.468647 1.016168
v 0.182712 0.468647 1.016168
v 0.182711 0.478647 0.754589
v 0.182712 0.454963 1.016168
v 0.169027 0.454963 1.016168
v 0.169027 0.464963 0.754589
v 0.182711 0.464963 0.754589
v 0.182712 0.468647 1.016168
v 0.182712 0.454963 1.016168
v 0.182711 0.464963 0.754589
v 0.182711 0.478647 0.754589
v 0.169027 0.464963 0.754589
v 0.169027 0.454963 1.016168
v 0.169027 0.468647 1.016168
v 0.169027 0.478647 0.754589
v 0.305869 0.464963 0.754589
v 0.292185 0.464963 0.754589
v 0.292185 0.485489 0.754589
v 0.305869 0.485489 0.754589
v 0.292185 0.475489 1.023010
v 0.292185 0.454963 1.023010
v 0.305869 0.454963 1.023010
v 0.305869 0.475489 1.023010
v 0.292185 0.485489 0.754589
v 0.292185 0.475489 1.023010
v 0.305869 0.475489 1.023010
v 0.305869 0.485489 0.754589
v 0.305869 0.454963 1.023010
v 0.292185 0.454963 1.023010
v 0.292185 0.464963 0.754589
v 0.305869 0.464963 0.754589
v 0.305869 0.475489 1.023010
v 0.305869 0.454963 1.023010
v 0.305869 0.464963 0.754589
v 0.305869 0.485489 0.754589
v 0.292185 0.464963 0.754589
v 0.292185 0.454963 1.023010
v 0.292185 0.475489 1.023010
v 0.292185 0.485489 0.754589
usemtl mat23

vn -0.000000 0.000000 -1.000000
vn -0.000000 0.000000 -1.000000
vn -0.000000 0.000000 -1.000000
vn -0.000000 0.000000 -1.000000
vn 0.000000 -0.000000 1.000000
vn 0.000000 -0.000000 1.000000
vn 0.000000 -0.000000 1.000000
vn 0.000000 -0.000000 1.000000
vn 0.000000 1.000000 0.000000
vn 0.000000 1.000000 0.000000
vn 0.000000 1.000000 0.000000
vn 0.000000 1.000000 0.000000
vn -0.000000 -1.000000 -0.000000
vn -0.000000 -1.000000 -0.000000
vn -0.000000 -1.000000 -0.000000
vn -0.000000 -1.000000 -0.000000
vn 1.000000 -0.000000 -0.000000
vn 1.000000 -0.000000 -0.000000
vn 1.000000 -0.000000 -0.000000
vn 1.000000 -0.000000 -0.000000
vn -1.000000 0.000000 0.000000
vn -1.000000 0.000000 0.000000
vn -1.000000 0.000000 0.000000
vn -1.000000 0.000000 0.000000
vn -0.000000 0.000000 -1.000000
vn -0.000000 0.000000 -1.000000
vn -0.000000 0.000000 -1.000000
vn -0.000000 0.000000 -1.000000
vn 0.000000 -0.000000 1.000000
vn 0.000000 -0.000000 1.000000
vn 0.000000 -0.000000 1.000000
vn 0.000000 -0.000000 1.000000
vn 0.000000 1.000000 0.000000
vn 0.000000 1.000000 0.000000
vn 0.000000 1.000000 0.000000
vn 0.000000 1.000000 0.000000
vn -0.000000 -1.000000 -0.000000
vn -0.000000 -1.000000 -0.000000
vn -0.000000 -1.000000 -0.000000
vn -0.000000 -1.000000 -0.000000
vn 1.000000 -0.000000 -0.000000
vn 1.000000 -0.000000 -0.000000
vn 1.000000 -0.000000 -0.000000
vn 1.000000 -0.000000 -0.000000
vn -1.000000 0.000000 0.000000
vn -1.000000 0.000000 0.000000
vn -1.000000 0.000000 0.000000
vn -1.000000 0.000000 0.000000
vn -0.000000 0.000000 -1.000000
vn -0.000000 0.000000 -1.000000
vn -0.000000 0.000000 -1.000000
vn -0.000000 0.000000 -1.000000
vn 0.000000 -0.000000 1.000000
vn 0.000000 -0.000000 1.000000
vn 0.000000 -0.000000 1.000000
vn 0.000000 -0.000000 1.000000
vn -0.000000 0.999270 0.038201
vn -0.000000 0.999270 0.038201
vn -0.000000 0.999270 0.038201
vn -0.000000 0.999270 0.038201
vn -0.000000 -0.999270 -0.038201
vn -0.000000 -0.999270 -0.038201
vn -0.000000 -0.999270 -0.038201
vn -0.000000 -0.999270 -0.038201
vn 1.000000 -0.000000 -0.000000
vn 1.000000 -0.000000 -0.000000
vn 1.000000 -0.000000 -0.000000
vn 1.000000 -0.000000 -0.000000
vn -1.000000 0.000000 0.000000
vn -1.000000 0.000000 0.000000
vn -1.000000 0.000000 0.000000
vn -1.000000 0.000000 0.000000
vn -0.000000 0.000000 -1.000000
vn -0.000000 0.000000 -1.000000
vn -0.000000 0.000000 -1.000000
vn -0.000000 0.000000 -1.000000
vn 0.000000 -0.000000 1.000000
vn 0.000000 -0.000000 1.000000
vn 0.000000 -0.000000 1.000000
vn 0.000000 -0.000000 1.000000
vn -0.000000 0.999307 0.037229
vn -0.000000 0.999307 0.037229
vn -0.000000 0.999307 0.037229
vn -0.000000 0.999307 0.037229
vn 0.000000 -0.999307 -0.037229
vn 0.000000 -0.999307 -0.037229
vn 0.000000 -0.999307 -0.037229
vn 0.000000 -0.999307 -0.037229
vn 1.000000 -0.000000 -0.000000
vn 1.000000 -0.000000 -0.000000
vn 1.000000 -0.000000 -0.000000
vn 1.000000 -0.000000 -0.000000
vn -1.000000 0.000000 0.000000
vn -1.000000 0.000000 0.000000
vn -1.000000 0.000000 0.000000
vn -1.000000 0.000000 0.000000

vt -0.083405 0.041026
vt -0.088913 0.030010
vt -0.090749 0.030928
vt -0.085241 0.041944
vt 0.090749 0.030928
vt 0.088913 0.030010
vt 0.083405 0.041026
vt 0.085241 0.041944
vt -0.174486 -0.076037
vt -0.177063 -0.076957
vt -0.181206 -0.065359
vt -0.178628 -0.064439
vt 0.181206 -0.065359
vt 0.177063 -0.076957
vt 0.174486 -0.076037
vt 0.178628 -0.064439
vt 0.211968 -0.034660
vt 0.210775 -0.036330
vt 0.208548 -0.034740
vt 0.209741 -0.033069
vt -0.208548 -0.034740
vt -0.210775 -0.036330
vt -0.211968 -0.034660
vt -0.209741 -0.033069
vt -0.085335 0.041638
vt -0.091149 0.030010
vt -0.092373 0.030622
vt -0.086559 0.042250
vt 0.092373 0.030622
vt 0.091149 0.030010
vt 0.085335 0.041638
vt 0.086559 0.042250
vt -0.150210 -0.068429
vt -0.152143 -0.069119
vt -0.156515 -0.056876
vt -0.154582 -0.056186
vt 0.156515 -0.056876
vt 0.152143 -0.069119
vt 0.150210 -0.068429
vt 0.154582 -0.056186
vt 0.191491 -0.018416
vt 0.190695 -0.019530
vt 0.189025 -0.018336
vt 0.189820 -0.017223
vt -0.189025 -0.018336
vt -0.190695 -0.019530
vt -0.191491 -0.018416
vt -0.189820 -0.017223
vt -0.090537 0.031234
vt -0.091149 0.030010
vt -0.092373 0.030622
vt -0.091761 0.031846
vt 0.091479 0.030175
vt 0.090255 0.029563
vt 0.089643 0.030787
vt 0.090867 0.031399
vt -0.145496 -0.069577
vt -0.169998 -0.078789
vt -0.170480 -0.077508
vt -0.145978 -0.068296
vt 0.170529 -0.077527
vt 0.170047 -0.078807
vt 0.145545 -0.069595
vt 0.146027 -0.068314
vt 0.210524 -0.033241
vt 0.209729 -0.034354
vt 0.189025 -0.018336
vt 0.189820 -0.017223
vt -0.189025 -0.018336
vt -0.209729 -0.034354
vt -0.210524 -0.033241
vt -0.189820 -0.017223
vt -0.085029 0.042250
vt -0.085641 0.041026
vt -0.087477 0.041944
vt -0.086865 0.043168
vt 0.086583 0.041497
vt 0.084747 0.040579
vt 0.084135 0.041803
vt 0.085971 0.042721
vt -0.149924 -0.058013
vt -0.175070 -0.067455
vt -0.175551 -0.066174
vt -0.150405 -0.056732
vt 0.175623 -0.066201
vt 0.175142 -0.067482
vt 0.149995 -0.058039
vt 0.150477 -0.056758
vt 0.211479 -0.033082
vt 0.210286 -0.034752
vt 0.189025 -0.018337
vt 0.190218 -0.016666
vt -0.189025 -0.018337
vt -0.210286 -0.034752
vt -0.211479 -0.033082
vt -0.190218 -0.016666
s off
f 1/1/1 2/2/2 3/3/3
f 1/1/1 3/3/3 4/4/4
f 5/5/5 6/6/6 7/7/7
f 5/5/5 7/7/7 8/8/8
f 9/9/9 10/10/10 11/11/11
f 9/9/9 11/11/11 12/12/12
f 13/13/13 14/14/14 15/15/15
f 13/13/13 15/15/15 16/16/16
f 17/17/17 18/18/18 19/19/19
f 17/17/17 19/19/19 20/20/20
f 21/21/21 22/22/22 23/23/23
f 21/21/21 23/23/23 24/24/24
f 25/25/25 26/26/26 27/27/27
f 25/25/25 27/27/27 28/28/28
f 29/29/29 30/30/30 31/31/31
f 29/29/29 31/31/31 32/32/32
f 33/33/33 34/34/34 35/35/35
f 33/33/33 35/35/35 36/36/36
f 37/37/37 38/38/38 39/39/39
f 37/37/37 39/39/39 40/40/40
f 41/41/41 42/42/42 43/43/43
f 41/41/41 43/43/43 44/44/44
f 45/45/45 46/46/46 47/47/47
f 45/45/45 47/47/47 48/48/48
f 49/49/49 50/50/50 51/51/51
f 49/49/49 51/51/51 52/52/52
f 53/53/53 54/54/54 55/55/55
f 53/53/53 55/55/55 56/56/56
f 57/57/57 58/58/58 59/59/59
f 57/57/57 59/59/59 60/60/60
f 61/61/61 62/62/62 63/63/63
f 61/61/61 63/63/63 64/64/64
f 65/65/65 66/66/66 67/67/67
f 65/65/65 67/67/67 68/68/68
f 69/69/69 70/70/70 71/71/71
f 69/69/69 71/71/71 72/72/72
f 73/73/73 74/74/74 75/75/75
f 73/73/73 75/75/75 76/76/76
f 77/77/77 78/78/78 79/79/79
f 77/77/77 79/79/79 80/80/80
f 81/81/81 82/82/82 83/83/83
f 81/81/81 83/83/83 84/84/84
f 85/85/85 86/86/86 87/87/87
f 85/85/85 87/87/87 88/88/88
f 89/89/89 90/90/90 91/91/91
f 89/89/89 91/91/91 92/92/92
f 93/93/93 94/94/94 95/95/95
f 93/93/93 95/95/95 96/96/96
