# Exported using automatic converter by Erwin Coumans
mtllib botlab.mtl
#object mesh403110772

v 1.108238 2.025489 -0.610148
v 1.108238 2.025489 -0.580148
v 1.108238 1.975489 -0.580148
v 1.108238 1.975489 -0.610148
v 1.078238 1.975489 -0.580148
v 1.078238 2.025489 -0.580148
v 1.078238 2.025489 -0.610148
v 1.078238 1.975489 -0.610148
v 1.108238 1.975489 -0.580148
v 1.078238 1.975489 -0.580148
v 1.078238 1.975489 -0.610148
v 1.108238 1.975489 -0.610148
v 1.078238 2.025489 -0.610148
v 1.078238 2.025489 -0.580148
v 1.108238 2.025489 -0.580148
v 1.108238 2.025489 -0.610148
v 1.078238 1.975489 -0.610148
v 1.078238 2.025489 -0.610148
v 1.108238 2.025489 -0.610148
v 1.108238 1.975489 -0.610148
v 1.108238 2.025489 -0.580148
v 1.078238 2.025489 -0.580148
v 1.078238 1.975489 -0.580148
v 1.108238 1.975489 -0.580148
usemtl mat23

vn 1.000000 0.000000 0.000000
vn 1.000000 0.000000 0.000000
vn 1.000000 0.000000 0.000000
vn 1.000000 0.000000 0.000000
vn -1.000000 0.000000 0.000000
vn -1.000000 0.000000 0.000000
vn -1.000000 0.000000 0.000000
vn -1.000000 0.000000 0.000000
vn 0.000000 -1.000000 0.000000
vn 0.000000 -1.000000 0.000000
vn 0.000000 -1.000000 0.000000
vn 0.000000 -1.000000 0.000000
vn 0.000000 1.000000 0.000000
vn 0.000000 1.000000 0.000000
vn 0.000000 1.000000 0.000000
vn 0.000000 1.000000 0.000000
vn 0.000000 0.000000 -1.000000
vn 0.000000 0.000000 -1.000000
vn 0.000000 0.000000 -1.000000
vn 0.000000 0.000000 -1.000000
vn 0.000000 0.000000 1.000000
vn 0.000000 0.000000 1.000000
vn 0.000000 0.000000 1.000000
vn 0.000000 0.000000 1.000000

vt 0.168675 0.187972
vt 0.171117 0.186229
vt 0.168210 0.182160
vt 0.165769 0.183904
vt -0.168210 0.182160
vt -0.171117 0.186229
vt -0.168675 0.187972
vt -0.165769 0.183904
vt 0.056101 0.064913
vt 0.055092 0.062088
vt 0.052267 0.063097
vt 0.053276 0.065922
vt -0.052267 0.063097
vt -0.055092 0.062088
vt -0.056101 0.064913
vt -0.053276 0.065922
vt -0.185594 0.178885
vt -0.190066 0.181121
vt -0.188724 0.183805
vt -0.184252 0.181569
vt 0.188724 0.183805
vt 0.190066 0.181121
vt 0.185594 0.178885
vt 0.184252 0.181569
s off
f 1/1/1 2/2/2 3/3/3
f 1/1/1 3/3/3 4/4/4
f 5/5/5 6/6/6 7/7/7
f 5/5/5 7/7/7 8/8/8
f 9/9/9 10/10/10 11/11/11
f 9/9/9 11/11/11 12/12/12
f 13/13/13 14/14/14 15/15/15
f 13/13/13 15/15/15 16/16/16
f 17/17/17 18/18/18 19/19/19
f 17/17/17 19/19/19 20/20/20
f 21/21/21 22/22/22 23/23/23
f 21/21/21 23/23/23 24/24/24
