# Exported using automatic converter by Erwin Coumans
mtllib botlab.mtl
#object mesh1672367867

v 1.577406 2.203549 -0.365661
v 1.571171 2.203184 -0.355702
v 1.551121 2.315998 -0.372880
v 1.557206 2.317174 -0.382870
v 1.571171 2.203184 -0.355702
v 1.578502 2.205253 -0.346748
v 1.558586 2.317343 -0.363900
v 1.551121 2.315998 -0.372880
v 1.578502 2.205253 -0.346748
v 1.589268 2.206897 -0.351173
v 1.569285 2.319350 -0.368338
v 1.558586 2.317343 -0.363900
v 1.589268 2.206897 -0.351173
v 1.588591 2.205844 -0.362862
v 1.568432 2.319246 -0.380063
v 1.569285 2.319350 -0.368338
v 1.588591 2.205844 -0.362862
v 1.577406 2.203549 -0.365661
v 1.557206 2.317174 -0.382870
v 1.568432 2.319246 -0.380063
v 1.588591 2.205844 -0.362862
v 1.589268 2.206897 -0.351173
v 1.578502 2.205253 -0.346748
v 1.571171 2.203184 -0.355702
v 1.577406 2.203549 -0.365661
v 1.557206 2.317174 -0.382870
v 1.551121 2.315998 -0.372880
v 1.558586 2.317343 -0.363900
v 1.569285 2.319350 -0.368338
v 1.568432 2.319246 -0.380063
usemtl mat23

vn -0.820994 -0.225585 -0.524480
vn -0.820994 -0.225585 -0.524480
vn -0.820994 -0.225585 -0.524480
vn -0.820994 -0.225585 -0.524480
vn -0.767170 -0.038594 0.640282
vn -0.767170 -0.038594 0.640282
vn -0.767170 -0.038594 0.640282
vn -0.767170 -0.038594 0.640282
vn 0.344427 0.201341 0.916969
vn 0.344427 0.201341 0.916969
vn 0.344427 0.201341 0.916969
vn 0.344427 0.201341 0.916969
vn 0.983825 0.163844 -0.072412
vn 0.983825 0.163844 -0.072412
vn 0.983825 0.163844 -0.072412
vn 0.983825 0.163844 -0.072412
vn 0.259649 -0.099429 -0.960571
vn 0.259649 -0.099429 -0.960571
vn 0.259649 -0.099429 -0.960571
vn 0.259649 -0.099429 -0.960571
vn 0.181693 -0.980275 0.077771
vn 0.181693 -0.980275 0.077771
vn 0.181693 -0.980275 0.077771
vn 0.181693 -0.980275 0.077771
vn 0.181693 -0.980275 0.077771
vn -0.182566 0.983183 0.004559
vn -0.182566 0.983183 0.004559
vn -0.182566 0.983183 0.004559
vn -0.182566 0.983183 0.004559
vn -0.182566 0.983183 0.004559

vt -0.205352 0.109314
vt -0.205758 0.108211
vt -0.216351 0.112904
vt -0.216023 0.114033
vt 0.070140 0.284234
vt 0.069363 0.285116
vt 0.078372 0.292283
vt 0.079203 0.291452
vt 0.180490 0.192444
vt 0.180158 0.193571
vt 0.191123 0.197200
vt 0.191419 0.196062
vt 0.208488 0.143715
vt 0.207534 0.144402
vt 0.213666 0.154303
vt 0.214560 0.153540
vt -0.150061 0.259008
vt -0.150488 0.257913
vt -0.161401 0.262044
vt -0.160953 0.263131
vt 0.119792 0.146065
vt 0.120937 0.145801
vt 0.121040 0.144630
vt 0.119958 0.144170
vt 0.119186 0.145057
vt -0.102087 0.149311
vt -0.102839 0.148407
vt -0.103931 0.148842
vt -0.103854 0.150015
vt -0.102715 0.150305
s off
f 1/1/1 2/2/2 3/3/3
f 1/1/1 3/3/3 4/4/4
f 5/5/5 6/6/6 7/7/7
f 5/5/5 7/7/7 8/8/8
f 9/9/9 10/10/10 11/11/11
f 9/9/9 11/11/11 12/12/12
f 13/13/13 14/14/14 15/15/15
f 13/13/13 15/15/15 16/16/16
f 17/17/17 18/18/18 19/19/19
f 17/17/17 19/19/19 20/20/20
f 21/21/21 22/22/22 23/23/23
f 21/21/21 23/23/23 24/24/24
f 21/21/21 24/24/24 25/25/25
f 26/26/26 27/27/27 28/28/28
f 26/26/26 28/28/28 29/29/29
f 26/26/26 29/29/29 30/30/30
