# Exported using automatic converter by Erwin Coumans
mtllib botlab.mtl
#object mesh121883632

v 0.928238 2.485488 -0.320148
v 0.858238 2.485488 -0.320148
v 0.858238 2.455488 -0.320148
v 0.928238 2.455488 -0.320148
v 0.858238 2.455488 -0.350148
v 0.858238 2.485488 -0.350148
v 0.928238 2.485488 -0.350148
v 0.928238 2.455488 -0.350148
v 0.858238 2.455488 -0.320148
v 0.858238 2.455488 -0.350148
v 0.928238 2.455488 -0.350148
v 0.928238 2.455488 -0.320148
v 0.928238 2.485488 -0.350148
v 0.858238 2.485488 -0.350148
v 0.858238 2.485488 -0.320148
v 0.928238 2.485488 -0.320148
v 0.928238 2.455488 -0.350148
v 0.928238 2.485488 -0.350148
v 0.928238 2.485488 -0.320148
v 0.928238 2.455488 -0.320148
v 0.858238 2.485488 -0.320148
v 0.858238 2.485488 -0.350148
v 0.858238 2.455488 -0.350148
v 0.858238 2.455488 -0.320148
usemtl mat21

vn -0.000000 0.000000 1.000000
vn -0.000000 0.000000 1.000000
vn -0.000000 0.000000 1.000000
vn -0.000000 0.000000 1.000000
vn 0.000000 0.000000 -1.000000
vn 0.000000 0.000000 -1.000000
vn 0.000000 0.000000 -1.000000
vn 0.000000 0.000000 -1.000000
vn 0.000000 -1.000000 0.000000
vn 0.000000 -1.000000 0.000000
vn 0.000000 -1.000000 0.000000
vn 0.000000 -1.000000 0.000000
vn -0.000000 1.000000 0.000000
vn -0.000000 1.000000 0.000000
vn -0.000000 1.000000 0.000000
vn -0.000000 1.000000 0.000000
vn 1.000000 0.000000 0.000000
vn 1.000000 0.000000 0.000000
vn 1.000000 0.000000 0.000000
vn 1.000000 0.000000 0.000000
vn -1.000000 -0.000000 -0.000000
vn -1.000000 -0.000000 -0.000000
vn -1.000000 -0.000000 -0.000000
vn -1.000000 -0.000000 -0.000000

vt 0.237918 0.188277
vt 0.241048 0.182016
vt 0.238365 0.180674
vt 0.235234 0.186935
vt -0.238365 0.180674
vt -0.241048 0.182016
vt -0.237918 0.188277
vt -0.235234 0.186935
vt 0.072178 0.032625
vt 0.069353 0.033634
vt 0.071707 0.040226
vt 0.074532 0.039217
vt -0.071707 0.040226
vt -0.069353 0.033634
vt -0.072178 0.032625
vt -0.074532 0.039217
vt 0.214826 0.207851
vt 0.216569 0.210292
vt 0.219011 0.208548
vt 0.217267 0.206107
vt -0.219011 0.208548
vt -0.216569 0.210292
vt -0.214826 0.207851
vt -0.217267 0.206107
s off
f 1/1/1 2/2/2 3/3/3
f 1/1/1 3/3/3 4/4/4
f 5/5/5 6/6/6 7/7/7
f 5/5/5 7/7/7 8/8/8
f 9/9/9 10/10/10 11/11/11
f 9/9/9 11/11/11 12/12/12
f 13/13/13 14/14/14 15/15/15
f 13/13/13 15/15/15 16/16/16
f 17/17/17 18/18/18 19/19/19
f 17/17/17 19/19/19 20/20/20
f 21/21/21 22/22/22 23/23/23
f 21/21/21 23/23/23 24/24/24
