# Exported using automatic converter by Erwin Coumans
mtllib botlab.mtl
#object mesh1697952790

v -0.273695 0.330132 -0.239641
v -0.286966 0.328221 -0.244139
v -0.285178 0.323410 -0.234267
v -0.271911 0.325321 -0.229758
v -0.286966 0.328221 -0.244139
v -0.285015 0.314216 -0.243945
v -0.283190 0.309409 -0.234182
v -0.285178 0.323410 -0.234267
v -0.285015 0.314216 -0.243945
v -0.271744 0.316127 -0.239447
v -0.269923 0.311319 -0.229673
v -0.283190 0.309409 -0.234182
v -0.271744 0.316127 -0.239447
v -0.273695 0.330132 -0.239641
v -0.271911 0.325321 -0.229758
v -0.269923 0.311319 -0.229673
v -0.271744 0.316127 -0.239447
v -0.285015 0.314216 -0.243945
v -0.286966 0.328221 -0.244139
v -0.273695 0.330132 -0.239641
v -0.271911 0.325321 -0.229758
v -0.285178 0.323410 -0.234267
v -0.283190 0.309409 -0.234182
v -0.269923 0.311319 -0.229673
usemtl mat22

vn -0.277773 0.842910 0.460810
vn -0.277773 0.842910 0.460810
vn -0.277773 0.842910 0.460810
vn -0.277773 0.842910 0.460810
vn -0.983978 -0.137238 0.113809
vn -0.983978 -0.137238 0.113809
vn -0.983978 -0.137238 0.113809
vn -0.983978 -0.137238 0.113809
vn 0.278915 -0.840001 -0.465408
vn 0.278915 -0.840001 -0.465408
vn 0.278915 -0.840001 -0.465408
vn 0.278915 -0.840001 -0.465408
vn 0.984037 0.137254 -0.113286
vn 0.984037 0.137254 -0.113286
vn 0.984037 0.137254 -0.113286
vn 0.984037 0.137254 -0.113286
vn 0.316799 0.031007 -0.947986
vn 0.316799 0.031007 -0.947986
vn 0.316799 0.031007 -0.947986
vn 0.316799 0.031007 -0.947986
vn -0.316479 -0.039154 0.947791
vn -0.316479 -0.039154 0.947791
vn -0.316479 -0.039154 0.947791
vn -0.316479 -0.039154 0.947791

vt -0.002967 -0.032633
vt -0.002049 -0.033708
vt -0.003104 -0.034061
vt -0.004023 -0.032987
vt -0.097785 0.041953
vt -0.097026 0.040760
vt -0.097573 0.039802
vt -0.098341 0.040989
vt 0.002108 -0.033756
vt 0.003026 -0.032680
vt 0.004074 -0.033027
vt 0.003155 -0.034102
vt 0.097600 0.040311
vt 0.098361 0.041503
vt 0.098916 0.040538
vt 0.098147 0.039351
vt -0.088675 0.011254
vt -0.089207 0.009944
vt -0.090517 0.010475
vt -0.089986 0.011786
vt 0.089975 0.011826
vt 0.090500 0.010513
vt 0.089187 0.009988
vt 0.088662 0.011301
s off
f 1/1/1 2/2/2 3/3/3
f 1/1/1 3/3/3 4/4/4
f 5/5/5 6/6/6 7/7/7
f 5/5/5 7/7/7 8/8/8
f 9/9/9 10/10/10 11/11/11
f 9/9/9 11/11/11 12/12/12
f 13/13/13 14/14/14 15/15/15
f 13/13/13 15/15/15 16/16/16
f 17/17/17 18/18/18 19/19/19
f 17/17/17 19/19/19 20/20/20
f 21/21/21 22/22/22 23/23/23
f 21/21/21 23/23/23 24/24/24
