# Exported using automatic converter by Erwin Coumans
mtllib botlab.mtl
#object mesh2075671618

v -0.391552 -0.719135 2.528594
v -0.387608 -0.724059 2.538514
v -0.377727 -0.712415 2.539794
v -0.381670 -0.707507 2.529867
v -0.387608 -0.724059 2.538514
v -0.375893 -0.723088 2.538643
v -0.366008 -0.711502 2.539894
v -0.377727 -0.712415 2.539794
v -0.375893 -0.723088 2.538643
v -0.372597 -0.717563 2.528804
v -0.362707 -0.706029 2.530027
v -0.366008 -0.711502 2.539894
v -0.372597 -0.717563 2.528804
v -0.382275 -0.715120 2.522593
v -0.372387 -0.703560 2.523830
v -0.362707 -0.706029 2.530027
v -0.382275 -0.715120 2.522593
v -0.391552 -0.719135 2.528594
v -0.381670 -0.707507 2.529867
v -0.372387 -0.703560 2.523830
v -0.437452 -0.749111 2.553288
v -0.427784 -0.751453 2.559551
v -0.431099 -0.756754 2.569505
v -0.442817 -0.757689 2.569394
v -0.446744 -0.752965 2.559371
v -0.381670 -0.707507 2.529867
v -0.377727 -0.712415 2.539794
v -0.366008 -0.711502 2.539894
v -0.362707 -0.706029 2.530027
v -0.372387 -0.703560 2.523830
v -0.407145 -0.720019 2.527465
v -0.403204 -0.724906 2.537405
v -0.387608 -0.724059 2.538514
v -0.391552 -0.719135 2.528594
v -0.403204 -0.724906 2.537405
v -0.391487 -0.723961 2.537520
v -0.375893 -0.723088 2.538643
v -0.387608 -0.724059 2.538514
v -0.391487 -0.723961 2.537520
v -0.388186 -0.718490 2.527653
v -0.372597 -0.717563 2.528804
v -0.375893 -0.723088 2.538643
v -0.388186 -0.718490 2.527653
v -0.397863 -0.716053 2.521439
v -0.382275 -0.715120 2.522593
v -0.372597 -0.717563 2.528804
v -0.397863 -0.716053 2.521439
v -0.407145 -0.720019 2.527465
v -0.391552 -0.719135 2.528594
v -0.382275 -0.715120 2.522593
v -0.420193 -0.729022 2.533587
v -0.416255 -0.733871 2.543546
v -0.403204 -0.724906 2.537405
v -0.407145 -0.720019 2.527465
v -0.416255 -0.733871 2.543546
v -0.404539 -0.732914 2.543667
v -0.391487 -0.723961 2.537520
v -0.403204 -0.724906 2.537405
v -0.404539 -0.732914 2.543667
v -0.401236 -0.727473 2.533784
v -0.388186 -0.718490 2.527653
v -0.391487 -0.723961 2.537520
v -0.401236 -0.727473 2.533784
v -0.410910 -0.725068 2.527554
v -0.397863 -0.716053 2.521439
v -0.388186 -0.718490 2.527653
v -0.410910 -0.725068 2.527554
v -0.420193 -0.729022 2.533587
v -0.407145 -0.720019 2.527465
v -0.397863 -0.716053 2.521439
v -0.430589 -0.736911 2.539524
v -0.426652 -0.741760 2.549483
v -0.416255 -0.733871 2.543546
v -0.420193 -0.729022 2.533587
v -0.426652 -0.741760 2.549483
v -0.414936 -0.740803 2.549604
v -0.404539 -0.732914 2.543667
v -0.416255 -0.733871 2.543546
v -0.414936 -0.740803 2.549604
v -0.411632 -0.735362 2.539721
v -0.401236 -0.727473 2.533784
v -0.404539 -0.732914 2.543667
v -0.411632 -0.735362 2.539721
v -0.421307 -0.732957 2.533491
v -0.410910 -0.725068 2.527554
v -0.401236 -0.727473 2.533784
v -0.421307 -0.732957 2.533491
v -0.430589 -0.736911 2.539524
v -0.420193 -0.729022 2.533587
v -0.410910 -0.725068 2.527554
v -0.440438 -0.744401 2.549703
v -0.436505 -0.749197 2.559690
v -0.426652 -0.741760 2.549483
v -0.430589 -0.736911 2.539524
v -0.436505 -0.749197 2.559690
v -0.424793 -0.748202 2.559831
v -0.414936 -0.740803 2.549604
v -0.426652 -0.741760 2.549483
v -0.424793 -0.748202 2.559831
v -0.421487 -0.742791 2.549932
v -0.411632 -0.735362 2.539721
v -0.414936 -0.740803 2.549604
v -0.421487 -0.742791 2.549932
v -0.431156 -0.740442 2.543673
v -0.421307 -0.732957 2.533491
v -0.411632 -0.735362 2.539721
v -0.431156 -0.740442 2.543673
v -0.440438 -0.744401 2.549703
v -0.430589 -0.736911 2.539524
v -0.421307 -0.732957 2.533491
v -0.446744 -0.752965 2.559371
v -0.442817 -0.757689 2.569394
v -0.436505 -0.749197 2.559690
v -0.440438 -0.744401 2.549703
v -0.442817 -0.757689 2.569394
v -0.431099 -0.756754 2.569505
v -0.424793 -0.748202 2.559831
v -0.436505 -0.749197 2.559690
v -0.431099 -0.756754 2.569505
v -0.427784 -0.751453 2.559551
v -0.421487 -0.742791 2.549932
v -0.424793 -0.748202 2.559831
v -0.427784 -0.751453 2.559551
v -0.437452 -0.749111 2.553288
v -0.431156 -0.740442 2.543673
v -0.421487 -0.742791 2.549932
v -0.437452 -0.749111 2.553288
v -0.446744 -0.752965 2.559371
v -0.440438 -0.744401 2.549703
v -0.431156 -0.740442 2.543673
usemtl mat22

vn -0.676373 0.516802 0.524819
vn -0.676373 0.516802 0.524819
vn -0.676373 0.516802 0.524819
vn -0.676373 0.516802 0.524819
vn -0.001042 -0.107464 0.994209
vn -0.001042 -0.107464 0.994209
vn -0.001042 -0.107464 0.994209
vn -0.001042 -0.107464 0.994209
vn 0.761309 -0.640241 -0.102471
vn 0.761309 -0.640241 -0.102471
vn 0.761309 -0.640241 -0.102471
vn 0.761309 -0.640241 -0.102471
vn 0.458362 -0.303568 -0.835315
vn 0.458362 -0.303568 -0.835315
vn 0.458362 -0.303568 -0.835315
vn 0.458362 -0.303568 -0.835315
vn -0.604348 0.574960 -0.551529
vn -0.604348 0.574960 -0.551529
vn -0.604348 0.574960 -0.551529
vn -0.604348 0.574960 -0.551529
vn 0.075296 -0.890304 -0.449099
vn 0.075296 -0.890304 -0.449099
vn 0.075296 -0.890304 -0.449099
vn 0.075296 -0.890304 -0.449099
vn 0.075296 -0.890304 -0.449099
vn -0.072689 0.882269 0.465100
vn -0.072689 0.882269 0.465100
vn -0.072689 0.882269 0.465100
vn -0.072689 0.882269 0.465100
vn -0.072689 0.882269 0.465100
vn -0.082420 0.880109 0.467563
vn -0.082420 0.880109 0.467563
vn -0.082420 0.880109 0.467563
vn -0.082420 0.880109 0.467563
vn 0.078925 -0.913873 -0.398256
vn 0.078925 -0.913873 -0.398256
vn 0.078925 -0.913873 -0.398256
vn 0.078925 -0.913873 -0.398256
vn 0.084733 -0.881910 -0.463741
vn 0.084733 -0.881910 -0.463741
vn 0.084733 -0.881910 -0.463741
vn 0.084733 -0.881910 -0.463741
vn 0.087552 -0.873266 -0.479314
vn 0.087552 -0.873266 -0.479314
vn 0.087552 -0.873266 -0.479314
vn 0.087552 -0.873266 -0.479314
vn -0.085062 0.885686 0.456426
vn -0.085062 0.885686 0.456426
vn -0.085062 0.885686 0.456426
vn -0.085062 0.885686 0.456426
vn -0.309307 0.800097 0.513978
vn -0.309307 0.800097 0.513978
vn -0.309307 0.800097 0.513978
vn -0.309307 0.800097 0.513978
vn -0.058325 0.621027 0.781616
vn -0.058325 0.621027 0.781616
vn -0.058325 0.621027 0.781616
vn -0.058325 0.621027 0.781616
vn 0.427967 -0.844023 -0.323218
vn 0.427967 -0.844023 -0.323218
vn 0.427967 -0.844023 -0.323218
vn 0.427967 -0.844023 -0.323218
vn 0.218523 -0.745373 -0.629815
vn 0.218523 -0.745373 -0.629815
vn 0.218523 -0.745373 -0.629815
vn 0.218523 -0.745373 -0.629815
vn -0.613579 0.446216 -0.651469
vn -0.613579 0.446216 -0.651469
vn -0.613579 0.446216 -0.651469
vn -0.613579 0.446216 -0.651469
vn -0.313382 0.799121 0.513028
vn -0.313382 0.799121 0.513028
vn -0.313382 0.799121 0.513028
vn -0.313382 0.799121 0.513028
vn -0.060965 0.650261 0.757261
vn -0.060965 0.650261 0.757261
vn -0.060965 0.650261 0.757261
vn -0.060965 0.650261 0.757261
vn 0.458291 -0.834409 -0.306155
vn 0.458291 -0.834409 -0.306155
vn 0.458291 -0.834409 -0.306155
vn 0.458291 -0.834409 -0.306155
vn 0.214512 -0.751892 -0.623412
vn 0.214512 -0.751892 -0.623412
vn 0.214512 -0.751892 -0.623412
vn 0.214512 -0.751892 -0.623412
vn -0.589964 0.186250 -0.785654
vn -0.589964 0.186250 -0.785654
vn -0.589964 0.186250 -0.785654
vn -0.589964 0.186250 -0.785654
vn -0.157696 0.863176 0.479645
vn -0.157696 0.863176 0.479645
vn -0.157696 0.863176 0.479645
vn -0.157696 0.863176 0.479645
vn -0.076026 0.840295 0.536772
vn -0.076026 0.840295 0.536772
vn -0.076026 0.840295 0.536772
vn -0.076026 0.840295 0.536772
vn 0.247593 -0.881952 -0.401073
vn 0.247593 -0.881952 -0.401073
vn 0.247593 -0.881952 -0.401073
vn 0.247593 -0.881952 -0.401073
vn 0.118885 -0.852679 -0.508728
vn 0.118885 -0.852679 -0.508728
vn 0.118885 -0.852679 -0.508728
vn 0.118885 -0.852679 -0.508728
vn -0.104491 -0.750219 -0.652881
vn -0.104491 -0.750219 -0.652881
vn -0.104491 -0.750219 -0.652881
vn -0.104491 -0.750219 -0.652881
vn -0.311884 0.804609 0.505305
vn -0.311884 0.804609 0.505305
vn -0.311884 0.804609 0.505305
vn -0.311884 0.804609 0.505305
vn -0.070339 0.771283 0.632594
vn -0.070339 0.771283 0.632594
vn -0.070339 0.771283 0.632594
vn -0.070339 0.771283 0.632594
vn 0.735931 -0.667286 -0.114611
vn 0.735931 -0.667286 -0.114611
vn 0.735931 -0.667286 -0.114611
vn 0.735931 -0.667286 -0.114611
vn 0.188617 -0.787795 -0.586347
vn 0.188617 -0.787795 -0.586347
vn 0.188617 -0.787795 -0.586347
vn 0.188617 -0.787795 -0.586347
vn -0.188798 -0.667682 -0.720109
vn -0.188798 -0.667682 -0.720109
vn -0.188798 -0.667682 -0.720109
vn -0.188798 -0.667682 -0.720109

vt -0.266201 -0.073466
vt -0.267358 -0.073672
vt -0.267578 -0.072155
vt -0.266421 -0.071951
vt 0.040716 -0.057483
vt 0.040317 -0.056377
vt 0.040963 -0.054993
vt 0.041369 -0.056096
vt 0.304889 -0.157107
vt 0.304125 -0.156213
vt 0.304682 -0.154794
vt 0.305449 -0.155685
vt 0.161045 -0.014405
vt 0.160046 -0.015026
vt 0.159857 -0.013512
vt 0.160857 -0.012893
vt -0.245394 -0.189815
vt -0.245636 -0.190965
vt -0.246437 -0.189659
vt -0.246187 -0.188511
vt 0.251332 -0.207311
vt 0.252375 -0.206769
vt 0.253213 -0.207593
vt 0.252688 -0.208645
vt 0.251526 -0.208471
vt -0.247533 -0.200241
vt -0.248695 -0.200419
vt -0.249223 -0.199369
vt -0.248388 -0.198542
vt -0.247343 -0.199081
vt -0.246937 -0.201198
vt -0.248099 -0.201376
vt -0.248894 -0.200026
vt -0.247732 -0.199849
vt 0.259418 -0.203437
vt 0.259933 -0.202380
vt 0.260711 -0.201022
vt 0.260196 -0.202078
vt 0.249481 -0.200122
vt 0.248645 -0.199296
vt 0.249438 -0.197946
vt 0.250275 -0.198772
vt 0.246092 -0.198252
vt 0.245047 -0.198790
vt 0.245843 -0.197442
vt 0.246889 -0.196904
vt -0.248903 -0.200044
vt -0.249096 -0.201203
vt -0.249887 -0.199852
vt -0.249695 -0.198693
vt -0.254025 -0.163019
vt -0.255188 -0.163194
vt -0.254983 -0.161508
vt -0.253820 -0.161333
vt -0.168610 -0.170973
vt -0.169166 -0.169938
vt -0.168926 -0.168257
vt -0.168369 -0.169292
vt 0.286558 -0.164214
vt 0.285714 -0.163396
vt 0.285545 -0.161706
vt 0.286388 -0.162525
vt 0.226023 -0.162435
vt 0.224975 -0.162969
vt 0.224752 -0.161284
vt 0.225800 -0.160751
vt -0.213559 -0.202805
vt -0.213786 -0.203958
vt -0.213877 -0.202262
vt -0.213651 -0.201108
vt -0.254685 -0.163829
vt -0.255848 -0.164004
vt -0.255574 -0.162596
vt -0.254411 -0.162421
vt -0.177374 -0.176911
vt -0.177931 -0.175875
vt -0.177633 -0.174473
vt -0.177076 -0.175508
vt 0.289402 -0.163547
vt 0.288560 -0.162726
vt 0.288324 -0.161312
vt 0.289166 -0.162132
vt 0.227476 -0.165640
vt 0.226428 -0.166173
vt 0.226140 -0.164768
vt 0.227188 -0.164235
vt -0.141998 -0.223223
vt -0.142171 -0.224385
vt -0.142310 -0.222959
vt -0.142137 -0.221796
vt -0.251462 -0.193765
vt -0.252625 -0.193939
vt -0.251995 -0.192466
vt -0.250832 -0.192292
vt -0.235577 -0.203320
vt -0.236116 -0.202276
vt -0.235502 -0.200797
vt -0.234962 -0.201841
vt 0.270707 -0.184530
vt 0.269859 -0.183716
vt 0.269218 -0.182248
vt 0.270066 -0.183062
vt 0.244261 -0.196307
vt 0.243215 -0.196843
vt 0.242592 -0.195367
vt 0.243638 -0.194832
vt 0.185954 -0.224816
vt 0.186078 -0.225985
vt 0.185519 -0.224484
vt 0.185395 -0.223315
vt -0.257341 -0.167700
vt -0.258504 -0.167871
vt -0.257713 -0.166673
vt -0.256550 -0.166499
vt -0.214603 -0.196934
vt -0.215155 -0.195896
vt -0.214363 -0.194696
vt -0.213813 -0.195735
vt 0.305735 -0.163295
vt 0.304950 -0.162420
vt 0.304323 -0.161125
vt 0.305102 -0.162005
vt 0.235043 -0.178368
vt 0.233996 -0.178901
vt 0.233198 -0.177703
vt 0.234246 -0.177169
vt 0.151856 -0.234568
vt 0.151940 -0.235740
vt 0.151196 -0.234511
vt 0.151107 -0.233339
s off
f 1/1/1 2/2/2 3/3/3
f 1/1/1 3/3/3 4/4/4
f 5/5/5 6/6/6 7/7/7
f 5/5/5 7/7/7 8/8/8
f 9/9/9 10/10/10 11/11/11
f 9/9/9 11/11/11 12/12/12
f 13/13/13 14/14/14 15/15/15
f 13/13/13 15/15/15 16/16/16
f 17/17/17 18/18/18 19/19/19
f 17/17/17 19/19/19 20/20/20
f 21/21/21 22/22/22 23/23/23
f 21/21/21 23/23/23 24/24/24
f 21/21/21 24/24/24 25/25/25
f 26/26/26 27/27/27 28/28/28
f 26/26/26 28/28/28 29/29/29
f 26/26/26 29/29/29 30/30/30
f 31/31/31 32/32/32 33/33/33
f 31/31/31 33/33/33 34/34/34
f 35/35/35 36/36/36 37/37/37
f 35/35/35 37/37/37 38/38/38
f 39/39/39 40/40/40 41/41/41
f 39/39/39 41/41/41 42/42/42
f 43/43/43 44/44/44 45/45/45
f 43/43/43 45/45/45 46/46/46
f 47/47/47 48/48/48 49/49/49
f 47/47/47 49/49/49 50/50/50
f 51/51/51 52/52/52 53/53/53
f 51/51/51 53/53/53 54/54/54
f 55/55/55 56/56/56 57/57/57
f 55/55/55 57/57/57 58/58/58
f 59/59/59 60/60/60 61/61/61
f 59/59/59 61/61/61 62/62/62
f 63/63/63 64/64/64 65/65/65
f 63/63/63 65/65/65 66/66/66
f 67/67/67 68/68/68 69/69/69
f 67/67/67 69/69/69 70/70/70
f 71/71/71 72/72/72 73/73/73
f 71/71/71 73/73/73 74/74/74
f 75/75/75 76/76/76 77/77/77
f 75/75/75 77/77/77 78/78/78
f 79/79/79 80/80/80 81/81/81
f 79/79/79 81/81/81 82/82/82
f 83/83/83 84/84/84 85/85/85
f 83/83/83 85/85/85 86/86/86
f 87/87/87 88/88/88 89/89/89
f 87/87/87 89/89/89 90/90/90
f 91/91/91 92/92/92 93/93/93
f 91/91/91 93/93/93 94/94/94
f 95/95/95 96/96/96 97/97/97
f 95/95/95 97/97/97 98/98/98
f 99/99/99 100/100/100 101/101/101
f 99/99/99 101/101/101 102/102/102
f 103/103/103 104/104/104 105/105/105
f 103/103/103 105/105/105 106/106/106
f 107/107/107 108/108/108 109/109/109
f 107/107/107 109/109/109 110/110/110
f 111/111/111 112/112/112 113/113/113
f 111/111/111 113/113/113 114/114/114
f 115/115/115 116/116/116 117/117/117
f 115/115/115 117/117/117 118/118/118
f 119/119/119 120/120/120 121/121/121
f 119/119/119 121/121/121 122/122/122
f 123/123/123 124/124/124 125/125/125
f 123/123/123 125/125/125 126/126/126
f 127/127/127 128/128/128 129/129/129
f 127/127/127 129/129/129 130/130/130
