# Exported using automatic converter by Erwin Coumans
mtllib botlab.mtl
#object mesh1997552167

v -2.551762 0.235489 0.749852
v -2.551762 0.325489 0.749852
v 3.138238 0.325489 0.749853
v 3.138238 0.235489 0.749853
v 3.138238 0.325489 0.789853
v -2.551762 0.325489 0.789852
v -2.551762 0.235489 0.789852
v 3.138238 0.235489 0.789853
v 3.138238 0.325489 0.749853
v 3.138238 0.325489 0.789853
v 3.138238 0.235489 0.789853
v 3.138238 0.235489 0.749853
v -2.551762 0.235489 0.789852
v -2.551762 0.325489 0.789852
v -2.551762 0.325489 0.749852
v -2.551762 0.235489 0.749852
v 3.138238 0.235489 0.789853
v -2.551762 0.235489 0.789852
v -2.551762 0.235489 0.749852
v 3.138238 0.235489 0.749853
v -2.551762 0.325489 0.749852
v -2.551762 0.325489 0.789852
v 3.138238 0.325489 0.789853
v 3.138238 0.325489 0.749853
usemtl mat22

vn 0.000000 0.000000 -1.000000
vn 0.000000 0.000000 -1.000000
vn 0.000000 0.000000 -1.000000
vn 0.000000 0.000000 -1.000000
vn -0.000000 0.000000 1.000000
vn -0.000000 0.000000 1.000000
vn -0.000000 0.000000 1.000000
vn -0.000000 0.000000 1.000000
vn 1.000000 0.000000 0.000000
vn 1.000000 0.000000 0.000000
vn 1.000000 0.000000 0.000000
vn 1.000000 0.000000 0.000000
vn -1.000000 -0.000000 -0.000000
vn -1.000000 -0.000000 -0.000000
vn -1.000000 -0.000000 -0.000000
vn -1.000000 -0.000000 -0.000000
vn 0.000000 -1.000000 0.000000
vn 0.000000 -1.000000 0.000000
vn 0.000000 -1.000000 0.000000
vn 0.000000 -1.000000 0.000000
vn 0.000000 1.000000 -0.000000
vn 0.000000 1.000000 -0.000000
vn 0.000000 1.000000 -0.000000
vn 0.000000 1.000000 -0.000000

vt -0.192302 -0.223607
vt -0.200352 -0.219582
vt 0.054113 0.289347
vt 0.062163 0.285322
vt -0.054113 0.289347
vt 0.200352 -0.219582
vt 0.192302 -0.223607
vt -0.062163 0.285322
vt 0.180533 -0.029411
vt 0.183788 -0.031736
vt 0.178556 -0.039059
vt 0.175302 -0.036734
vt -0.178556 -0.039059
vt -0.183788 -0.031736
vt -0.180533 -0.029411
vt -0.175302 -0.036734
vt 0.253396 0.210009
vt 0.062020 -0.325843
vt 0.058253 -0.324497
vt 0.249629 0.211354
vt -0.058253 -0.324497
vt -0.062020 -0.325843
vt -0.253396 0.210009
vt -0.249629 0.211354
s off
f 1/1/1 2/2/2 3/3/3
f 1/1/1 3/3/3 4/4/4
f 5/5/5 6/6/6 7/7/7
f 5/5/5 7/7/7 8/8/8
f 9/9/9 10/10/10 11/11/11
f 9/9/9 11/11/11 12/12/12
f 13/13/13 14/14/14 15/15/15
f 13/13/13 15/15/15 16/16/16
f 17/17/17 18/18/18 19/19/19
f 17/17/17 19/19/19 20/20/20
f 21/21/21 22/22/22 23/23/23
f 21/21/21 23/23/23 24/24/24
