# Exported using automatic converter by Erwin Coumans
mtllib botlab.mtl
#object mesh1278102170

v 0.773716 -0.518487 2.481418
v 0.759219 -0.510353 2.470298
v 0.770368 -0.512910 2.453892
v 0.784865 -0.521045 2.465012
v 0.778463 -0.494819 2.456573
v 0.767313 -0.492262 2.472978
v 0.781811 -0.500396 2.484098
v 0.792960 -0.502954 2.467693
v 0.770368 -0.512910 2.453892
v 0.778463 -0.494819 2.456573
v 0.792960 -0.502954 2.467693
v 0.784865 -0.521045 2.465012
v 0.781811 -0.500396 2.484098
v 0.767313 -0.492262 2.472978
v 0.759219 -0.510353 2.470298
v 0.773716 -0.518487 2.481418
v 0.792960 -0.502954 2.467693
v 0.781811 -0.500396 2.484098
v 0.773716 -0.518487 2.481418
v 0.784865 -0.521045 2.465012
v 0.759219 -0.510353 2.470298
v 0.767313 -0.492262 2.472978
v 0.778463 -0.494819 2.456573
v 0.770368 -0.512910 2.453892
usemtl mat7

vn -0.404732 -0.904559 -0.134031
vn -0.404732 -0.904559 -0.134031
vn -0.404732 -0.904559 -0.134031
vn -0.404732 -0.904559 -0.134031
vn 0.404732 0.904559 0.134031
vn 0.404732 0.904559 0.134031
vn 0.404732 0.904559 0.134031
vn 0.404732 0.904559 0.134031
vn 0.557464 -0.127884 -0.820293
vn 0.557464 -0.127884 -0.820293
vn 0.557464 -0.127884 -0.820293
vn 0.557464 -0.127884 -0.820293
vn -0.557464 0.127884 0.820293
vn -0.557464 0.127884 0.820293
vn -0.557464 0.127884 0.820293
vn -0.557464 0.127884 0.820293
vn 0.724863 -0.406717 0.556018
vn 0.724863 -0.406717 0.556018
vn 0.724863 -0.406717 0.556018
vn 0.724863 -0.406717 0.556018
vn -0.724863 0.406717 -0.556018
vn -0.724863 0.406717 -0.556018
vn -0.724863 0.406717 -0.556018
vn -0.724863 0.406717 -0.556018

vt 0.300933 -0.146890
vt 0.299083 -0.147650
vt 0.298323 -0.145800
vt 0.300173 -0.145040
vt -0.298323 -0.145800
vt -0.299083 -0.147650
vt -0.300933 -0.146890
vt -0.300173 -0.145040
vt 0.182280 0.138378
vt 0.181539 0.140236
vt 0.183396 0.140977
vt 0.184137 0.139120
vt -0.183396 0.140977
vt -0.181539 0.140236
vt -0.182280 0.138378
vt -0.184137 0.139120
vt 0.221847 -0.127839
vt 0.223281 -0.129233
vt 0.221887 -0.130667
vt 0.220453 -0.129273
vt -0.221887 -0.130667
vt -0.223281 -0.129233
vt -0.221847 -0.127839
vt -0.220453 -0.129273
s off
f 1/1/1 2/2/2 3/3/3
f 1/1/1 3/3/3 4/4/4
f 5/5/5 6/6/6 7/7/7
f 5/5/5 7/7/7 8/8/8
f 9/9/9 10/10/10 11/11/11
f 9/9/9 11/11/11 12/12/12
f 13/13/13 14/14/14 15/15/15
f 13/13/13 15/15/15 16/16/16
f 17/17/17 18/18/18 19/19/19
f 17/17/17 19/19/19 20/20/20
f 21/21/21 22/22/22 23/23/23
f 21/21/21 23/23/23 24/24/24
