# Exported using automatic converter by Erwin Coumans
mtllib botlab.mtl
#object mesh1580360981

v 0.956400 -0.573138 2.479393
v 0.944468 -0.564483 2.465876
v 0.974676 -0.586993 2.424799
v 0.986608 -0.595648 2.438317
v 0.990221 -0.565824 2.424631
v 0.960013 -0.543315 2.465708
v 0.971945 -0.551970 2.479226
v 1.002153 -0.574479 2.438148
v 0.974676 -0.586993 2.424799
v 0.990221 -0.565824 2.424631
v 1.002153 -0.574479 2.438148
v 0.986608 -0.595648 2.438317
v 0.971945 -0.551970 2.479226
v 0.960013 -0.543315 2.465708
v 0.944468 -0.564483 2.465876
v 0.956400 -0.573138 2.479393
v 1.002153 -0.574479 2.438148
v 0.971945 -0.551970 2.479226
v 0.956400 -0.573138 2.479393
v 0.986608 -0.595648 2.438317
v 0.944468 -0.564483 2.465876
v 0.960013 -0.543315 2.465708
v 0.990221 -0.565824 2.424631
v 0.974676 -0.586993 2.424799
usemtl mat7

vn -0.591891 -0.805993 0.006400
vn -0.591891 -0.805993 0.006400
vn -0.591891 -0.805993 0.006400
vn -0.591891 -0.805993 0.006400
vn 0.591891 0.805993 -0.006400
vn 0.591891 0.805993 -0.006400
vn 0.591891 0.805993 -0.006400
vn 0.591891 0.805993 -0.006400
vn 0.541981 -0.403862 -0.736989
vn 0.541981 -0.403862 -0.736989
vn 0.541981 -0.403862 -0.736989
vn 0.541981 -0.403862 -0.736989
vn -0.541981 0.403862 0.736989
vn -0.541981 0.403862 0.736989
vn -0.541981 0.403862 0.736989
vn -0.541981 0.403862 0.736989
vn 0.596592 -0.432748 0.675875
vn 0.596592 -0.432748 0.675875
vn 0.596592 -0.432748 0.675875
vn 0.596592 -0.432748 0.675875
vn -0.596592 0.432748 -0.675875
vn -0.596592 0.432748 -0.675875
vn -0.596592 0.432748 -0.675875
vn -0.596592 0.432748 -0.675875

vt 0.310372 -0.143673
vt 0.308423 -0.144122
vt 0.307173 -0.138690
vt 0.309122 -0.138242
vt -0.307173 -0.138690
vt -0.308423 -0.144122
vt -0.310372 -0.143673
vt -0.309122 -0.138242
vt 0.261672 0.065777
vt 0.261310 0.068378
vt 0.263291 0.068654
vt 0.263653 0.066053
vt -0.263291 0.068654
vt -0.261310 0.068378
vt -0.261672 0.065777
vt -0.263653 0.066053
vt 0.190991 -0.078505
vt 0.195759 -0.081390
vt 0.194400 -0.083637
vt 0.189631 -0.080752
vt -0.194400 -0.083637
vt -0.195759 -0.081390
vt -0.190991 -0.078505
vt -0.189631 -0.080752
s off
f 1/1/1 2/2/2 3/3/3
f 1/1/1 3/3/3 4/4/4
f 5/5/5 6/6/6 7/7/7
f 5/5/5 7/7/7 8/8/8
f 9/9/9 10/10/10 11/11/11
f 9/9/9 11/11/11 12/12/12
f 13/13/13 14/14/14 15/15/15
f 13/13/13 15/15/15 16/16/16
f 17/17/17 18/18/18 19/19/19
f 17/17/17 19/19/19 20/20/20
f 21/21/21 22/22/22 23/23/23
f 21/21/21 23/23/23 24/24/24
