# Exported using automatic converter by Erwin Coumans
mtllib botlab.mtl
#object mesh444040269

v 1.217133 1.870374 -0.522198
v 1.221418 1.869541 -0.535650
v 0.383745 0.860719 -0.530297
v 0.377197 0.861825 -0.517811
v 1.221418 1.869541 -0.535650
v 1.219784 1.855497 -0.535300
v 0.381737 0.846722 -0.530111
v 0.383745 0.860719 -0.530297
v 1.219784 1.855497 -0.535300
v 1.215499 1.856331 -0.521848
v 0.375188 0.847827 -0.517626
v 0.381737 0.846722 -0.530111
v 1.215499 1.856331 -0.521848
v 1.217133 1.870374 -0.522198
v 0.377197 0.861825 -0.517811
v 0.375188 0.847827 -0.517626
v 1.215499 1.856331 -0.521848
v 1.219784 1.855497 -0.535300
v 1.221418 1.869541 -0.535650
v 1.217133 1.870374 -0.522198
v 0.377197 0.861825 -0.517811
v 0.383745 0.860719 -0.530297
v 0.381737 0.846722 -0.530111
v 0.375188 0.847827 -0.517626
usemtl mat23

vn -0.722108 0.598818 -0.346377
vn -0.722108 0.598818 -0.346377
vn -0.722108 0.598818 -0.346377
vn -0.722108 0.598818 -0.346377
vn 0.019785 -0.021656 -0.999570
vn 0.019785 -0.021656 -0.999570
vn 0.019785 -0.021656 -0.999570
vn 0.019785 -0.021656 -0.999570
vn 0.721948 -0.599040 0.346326
vn 0.721948 -0.599040 0.346326
vn 0.721948 -0.599040 0.346326
vn 0.721948 -0.599040 0.346326
vn -0.021077 0.021824 0.999540
vn -0.021077 0.021824 0.999540
vn -0.021077 0.021824 0.999540
vn -0.021077 0.021824 0.999540
vn 0.945978 -0.102400 0.307635
vn 0.945978 -0.102400 0.307635
vn 0.945978 -0.102400 0.307635
vn 0.945978 -0.102400 0.307635
vn -0.874857 0.119341 -0.469450
vn -0.874857 0.119341 -0.469450
vn -0.874857 0.119341 -0.469450
vn -0.874857 0.119341 -0.469450

vt -0.159753 0.188746
vt -0.158586 0.189538
vt -0.102326 0.071093
vt -0.103417 0.070200
vt -0.166947 0.188786
vt -0.165771 0.188002
vt -0.114115 0.067455
vt -0.115270 0.068271
vt 0.157844 0.188564
vt 0.159010 0.187772
vt 0.102667 0.069207
vt 0.101576 0.070100
vt 0.165926 0.187752
vt 0.167103 0.188537
vt 0.115585 0.067819
vt 0.114430 0.067003
vt 0.185249 0.157194
vt 0.184242 0.158188
vt 0.185236 0.159194
vt 0.186242 0.158201
vt -0.127362 0.057303
vt -0.126435 0.058371
vt -0.125367 0.057444
vt -0.126294 0.056376
s off
f 1/1/1 2/2/2 3/3/3
f 1/1/1 3/3/3 4/4/4
f 5/5/5 6/6/6 7/7/7
f 5/5/5 7/7/7 8/8/8
f 9/9/9 10/10/10 11/11/11
f 9/9/9 11/11/11 12/12/12
f 13/13/13 14/14/14 15/15/15
f 13/13/13 15/15/15 16/16/16
f 17/17/17 18/18/18 19/19/19
f 17/17/17 19/19/19 20/20/20
f 21/21/21 22/22/22 23/23/23
f 21/21/21 23/23/23 24/24/24
