# Exported using automatic converter by Erwin Coumans
mtllib botlab.mtl
#object mesh504760134

v -1.091762 -1.014511 2.359852
v -1.091762 0.115489 2.359851
v -1.091762 0.115489 2.249852
v -1.091762 -1.014511 2.249852
v -1.051762 0.115489 2.249852
v -1.051762 0.115489 2.359851
v -1.051762 -1.014511 2.359852
v -1.051762 -1.014511 2.249852
v -1.091762 0.115489 2.249852
v -1.051762 0.115489 2.249852
v -1.051762 -1.014511 2.249852
v -1.091762 -1.014511 2.249852
v -1.051762 -1.014511 2.359852
v -1.051762 0.115489 2.359851
v -1.091762 0.115489 2.359851
v -1.091762 -1.014511 2.359852
v -1.051762 -1.014511 2.249852
v -1.051762 -1.014511 2.359852
v -1.091762 -1.014511 2.359852
v -1.091762 -1.014511 2.249852
v -1.091762 0.115489 2.359851
v -1.051762 0.115489 2.359851
v -1.051762 0.115489 2.249852
v -1.091762 0.115489 2.249852
usemtl mat21

vn -1.000000 0.000000 0.000000
vn -1.000000 0.000000 0.000000
vn -1.000000 0.000000 0.000000
vn -1.000000 0.000000 0.000000
vn 1.000000 0.000000 0.000000
vn 1.000000 0.000000 0.000000
vn 1.000000 0.000000 0.000000
vn 1.000000 0.000000 0.000000
vn 0.000000 0.000000 -1.000000
vn 0.000000 0.000000 -1.000000
vn 0.000000 0.000000 -1.000000
vn 0.000000 0.000000 -1.000000
vn 0.000000 -0.000000 1.000000
vn 0.000000 -0.000000 1.000000
vn 0.000000 -0.000000 1.000000
vn 0.000000 -0.000000 1.000000
vn 0.000000 -1.000000 0.000000
vn 0.000000 -1.000000 0.000000
vn 0.000000 -1.000000 0.000000
vn 0.000000 -1.000000 0.000000
vn 0.000000 1.000000 -0.000000
vn 0.000000 1.000000 -0.000000
vn 0.000000 1.000000 -0.000000
vn 0.000000 1.000000 -0.000000

vt -0.233658 -0.232030
vt -0.299338 -0.140078
vt -0.290387 -0.133685
vt -0.224707 -0.225637
vt 0.290387 -0.133685
vt 0.299338 -0.140078
vt 0.233658 -0.232030
vt 0.224707 -0.225637
vt -0.116276 -0.098387
vt -0.114487 -0.094809
vt -0.013416 -0.145344
vt -0.015205 -0.148922
vt 0.013416 -0.145344
vt 0.114487 -0.094809
vt 0.116276 -0.098387
vt 0.015205 -0.148922
vt 0.249965 -0.233687
vt 0.260324 -0.237386
vt 0.258979 -0.241153
vt 0.248620 -0.237454
vt -0.258979 -0.241153
vt -0.260324 -0.237386
vt -0.249965 -0.233687
vt -0.248620 -0.237454
s off
f 1/1/1 2/2/2 3/3/3
f 1/1/1 3/3/3 4/4/4
f 5/5/5 6/6/6 7/7/7
f 5/5/5 7/7/7 8/8/8
f 9/9/9 10/10/10 11/11/11
f 9/9/9 11/11/11 12/12/12
f 13/13/13 14/14/14 15/15/15
f 13/13/13 15/15/15 16/16/16
f 17/17/17 18/18/18 19/19/19
f 17/17/17 19/19/19 20/20/20
f 21/21/21 22/22/22 23/23/23
f 21/21/21 23/23/23 24/24/24
