# Exported using automatic converter by Erwin Coumans
mtllib botlab.mtl
#object mesh1786596639

v 2.058238 1.495489 -0.260148
v 2.038238 1.495489 -0.260148
v 2.038238 1.475489 -0.260148
v 2.058238 1.475489 -0.260148
v 2.038238 1.475489 -0.400148
v 2.038238 1.495489 -0.400148
v 2.058238 1.495489 -0.400148
v 2.058238 1.475489 -0.400148
v 2.038238 1.475489 -0.260148
v 2.038238 1.475489 -0.400148
v 2.058238 1.475489 -0.400148
v 2.058238 1.475489 -0.260148
v 2.058238 1.495489 -0.400148
v 2.038238 1.495489 -0.400148
v 2.038238 1.495489 -0.260148
v 2.058238 1.495489 -0.260148
v 2.058238 1.475489 -0.400148
v 2.058238 1.495489 -0.400148
v 2.058238 1.495489 -0.260148
v 2.058238 1.475489 -0.260148
v 2.038238 1.495489 -0.260148
v 2.038238 1.495489 -0.400148
v 2.038238 1.475489 -0.400148
v 2.038238 1.475489 -0.260148
usemtl mat17

vn -0.000000 0.000000 1.000000
vn -0.000000 0.000000 1.000000
vn -0.000000 0.000000 1.000000
vn -0.000000 0.000000 1.000000
vn 0.000000 0.000000 -1.000000
vn 0.000000 0.000000 -1.000000
vn 0.000000 0.000000 -1.000000
vn 0.000000 0.000000 -1.000000
vn 0.000000 -1.000000 0.000000
vn 0.000000 -1.000000 0.000000
vn 0.000000 -1.000000 0.000000
vn 0.000000 -1.000000 0.000000
vn -0.000000 1.000000 0.000000
vn -0.000000 1.000000 0.000000
vn -0.000000 1.000000 0.000000
vn -0.000000 1.000000 0.000000
vn 1.000000 0.000000 0.000000
vn 1.000000 0.000000 0.000000
vn 1.000000 0.000000 0.000000
vn 1.000000 0.000000 0.000000
vn -1.000000 -0.000000 -0.000000
vn -1.000000 -0.000000 -0.000000
vn -1.000000 -0.000000 -0.000000
vn -1.000000 -0.000000 -0.000000

vt 0.098834 0.245073
vt 0.099729 0.243284
vt 0.097940 0.242390
vt 0.097045 0.244179
vt -0.097940 0.242390
vt -0.099729 0.243284
vt -0.098834 0.245073
vt -0.097045 0.244179
vt 0.117516 0.141732
vt 0.104332 0.146441
vt 0.105004 0.148324
vt 0.118189 0.143616
vt -0.105004 0.148324
vt -0.104332 0.146441
vt -0.117516 0.141732
vt -0.118189 0.143616
vt 0.153796 0.131011
vt 0.154958 0.132638
vt 0.166350 0.124501
vt 0.165188 0.122874
vt -0.166350 0.124501
vt -0.154958 0.132638
vt -0.153796 0.131011
vt -0.165188 0.122874
s off
f 1/1/1 2/2/2 3/3/3
f 1/1/1 3/3/3 4/4/4
f 5/5/5 6/6/6 7/7/7
f 5/5/5 7/7/7 8/8/8
f 9/9/9 10/10/10 11/11/11
f 9/9/9 11/11/11 12/12/12
f 13/13/13 14/14/14 15/15/15
f 13/13/13 15/15/15 16/16/16
f 17/17/17 18/18/18 19/19/19
f 17/17/17 19/19/19 20/20/20
f 21/21/21 22/22/22 23/23/23
f 21/21/21 23/23/23 24/24/24
