# Exported using automatic converter by Erwin Coumans
mtllib botlab.mtl
#object mesh1972262783

v 0.770990 -0.577104 2.483613
v 0.764754 -0.562519 2.471432
v 0.783016 -0.561460 2.463348
v 0.789253 -0.576045 2.475530
v 0.788266 -0.547816 2.476997
v 0.770004 -0.548875 2.485080
v 0.776241 -0.563459 2.497262
v 0.794504 -0.562401 2.489178
v 0.783016 -0.561460 2.463348
v 0.788266 -0.547816 2.476997
v 0.794504 -0.562401 2.489178
v 0.789253 -0.576045 2.475530
v 0.776241 -0.563459 2.497262
v 0.770004 -0.548875 2.485080
v 0.764754 -0.562519 2.471432
v 0.770990 -0.577104 2.483613
v 0.794504 -0.562401 2.489178
v 0.776241 -0.563459 2.497262
v 0.770990 -0.577104 2.483613
v 0.789253 -0.576045 2.475530
v 0.764754 -0.562519 2.471432
v 0.770004 -0.548875 2.485080
v 0.788266 -0.547816 2.476997
v 0.783016 -0.561460 2.463348
usemtl mat6

vn -0.262507 -0.682207 -0.682410
vn -0.262507 -0.682207 -0.682410
vn -0.262507 -0.682207 -0.682410
vn -0.262507 -0.682207 -0.682410
vn 0.262507 0.682207 0.682410
vn 0.262507 0.682207 0.682410
vn 0.262507 0.682207 0.682410
vn 0.262507 0.682207 0.682410
vn 0.913146 0.052930 -0.404181
vn 0.913146 0.052930 -0.404181
vn 0.913146 0.052930 -0.404181
vn 0.913146 0.052930 -0.404181
vn -0.913146 -0.052930 0.404181
vn -0.913146 -0.052930 0.404181
vn -0.913146 -0.052930 0.404181
vn -0.913146 -0.052930 0.404181
vn 0.311855 -0.729241 0.609060
vn 0.311855 -0.729241 0.609060
vn 0.311855 -0.729241 0.609060
vn 0.311855 -0.729241 0.609060
vn -0.311855 0.729241 -0.609060
vn -0.311855 0.729241 -0.609060
vn -0.311855 0.729241 -0.609060
vn -0.311855 0.729241 -0.609060

vt 0.197045 -0.146625
vt 0.195104 -0.146141
vt 0.195588 -0.144200
vt 0.197529 -0.144684
vt -0.195588 -0.144200
vt -0.195104 -0.146141
vt -0.197045 -0.146625
vt -0.197529 -0.144684
vt 0.321404 0.053839
vt 0.322605 0.055438
vt 0.324204 0.054237
vt 0.323003 0.052638
vt -0.324204 0.054237
vt -0.322605 0.055438
vt -0.321404 0.053839
vt -0.323003 0.052638
vt 0.255109 -0.012865
vt 0.255740 -0.014763
vt 0.253841 -0.015393
vt 0.253211 -0.013495
vt -0.253841 -0.015393
vt -0.255740 -0.014763
vt -0.255109 -0.012865
vt -0.253211 -0.013495
s off
f 1/1/1 2/2/2 3/3/3
f 1/1/1 3/3/3 4/4/4
f 5/5/5 6/6/6 7/7/7
f 5/5/5 7/7/7 8/8/8
f 9/9/9 10/10/10 11/11/11
f 9/9/9 11/11/11 12/12/12
f 13/13/13 14/14/14 15/15/15
f 13/13/13 15/15/15 16/16/16
f 17/17/17 18/18/18 19/19/19
f 17/17/17 19/19/19 20/20/20
f 21/21/21 22/22/22 23/23/23
f 21/21/21 23/23/23 24/24/24
