# Exported using automatic converter by Erwin Coumans
mtllib botlab.mtl
#object mesh1788569144

v -1.531762 1.105489 1.629852
v -1.541762 1.105489 1.632531
v -1.541762 1.145489 1.632531
v -1.531762 1.145489 1.629852
v -1.541762 1.105489 1.632531
v -1.549083 1.105489 1.639852
v -1.549083 1.145489 1.639852
v -1.541762 1.145489 1.632531
v -1.549083 1.105489 1.639852
v -1.551762 1.105489 1.649852
v -1.551762 1.145489 1.649852
v -1.549083 1.145489 1.639852
v -1.551762 1.105489 1.649852
v -1.549083 1.105489 1.659852
v -1.549083 1.145489 1.659852
v -1.551762 1.145489 1.649852
v -1.549083 1.105489 1.659852
v -1.541762 1.105489 1.667172
v -1.541762 1.145489 1.667172
v -1.549083 1.145489 1.659852
v -1.541762 1.105489 1.667172
v -1.531762 1.105489 1.669852
v -1.531762 1.145489 1.669852
v -1.541762 1.145489 1.667172
v -1.531762 1.105489 1.669852
v -1.521762 1.105489 1.667172
v -1.521762 1.145489 1.667172
v -1.531762 1.145489 1.669852
v -1.521762 1.105489 1.667172
v -1.514442 1.105489 1.659852
v -1.514442 1.145489 1.659852
v -1.521762 1.145489 1.667172
v -1.514442 1.105489 1.659852
v -1.511762 1.105489 1.649852
v -1.511762 1.145489 1.649852
v -1.514442 1.145489 1.659852
v -1.511762 1.105489 1.649852
v -1.514442 1.105489 1.639852
v -1.514442 1.145489 1.639852
v -1.511762 1.145489 1.649852
v -1.514442 1.105489 1.639852
v -1.521762 1.105489 1.632531
v -1.521762 1.145489 1.632531
v -1.514442 1.145489 1.639852
v -1.521762 1.105489 1.632531
v -1.531762 1.105489 1.629852
v -1.531762 1.145489 1.629852
v -1.521762 1.145489 1.632531
v -1.531762 1.145489 1.629852
v -1.541762 1.145489 1.632531
v -1.549083 1.145489 1.639852
v -1.551762 1.145489 1.649852
v -1.549083 1.145489 1.659852
v -1.541762 1.145489 1.667172
v -1.531762 1.145489 1.669852
v -1.521762 1.145489 1.667172
v -1.514442 1.145489 1.659852
v -1.511762 1.145489 1.649852
v -1.514442 1.145489 1.639852
v -1.521762 1.145489 1.632531
v -1.521762 1.105489 1.632531
v -1.514442 1.105489 1.639852
v -1.511762 1.105489 1.649852
v -1.514442 1.105489 1.659852
v -1.521762 1.105489 1.667172
v -1.531762 1.105489 1.669852
v -1.541762 1.105489 1.667172
v -1.549083 1.105489 1.659852
v -1.551762 1.105489 1.649852
v -1.549083 1.105489 1.639852
v -1.541762 1.105489 1.632531
v -1.531762 1.105489 1.629852
usemtl mat22

vn 0.000000 -0.000000 -1.000000
vn 0.000000 -0.000000 -1.000000
vn 0.000000 -0.000000 -1.000000
vn 0.000000 -0.000000 -1.000000
vn -0.500000 -0.000000 -0.866025
vn -0.500000 -0.000000 -0.866025
vn -0.500000 -0.000000 -0.866025
vn -0.500000 -0.000000 -0.866025
vn -0.866025 -0.000000 -0.500000
vn -0.866025 -0.000000 -0.500000
vn -0.866025 -0.000000 -0.500000
vn -0.866025 -0.000000 -0.500000
vn -1.000000 0.000000 -0.000000
vn -1.000000 0.000000 -0.000000
vn -1.000000 0.000000 -0.000000
vn -1.000000 0.000000 -0.000000
vn -0.866025 0.000000 0.500000
vn -0.866025 0.000000 0.500000
vn -0.866025 0.000000 0.500000
vn -0.866025 0.000000 0.500000
vn -0.500000 0.000000 0.866025
vn -0.500000 0.000000 0.866025
vn -0.500000 0.000000 0.866025
vn -0.500000 0.000000 0.866025
vn 0.000000 0.000000 1.000000
vn 0.000000 0.000000 1.000000
vn 0.000000 0.000000 1.000000
vn 0.000000 0.000000 1.000000
vn 0.500000 0.000000 0.866025
vn 0.500000 0.000000 0.866025
vn 0.500000 0.000000 0.866025
vn 0.500000 0.000000 0.866025
vn 0.866025 0.000000 0.500000
vn 0.866025 0.000000 0.500000
vn 0.866025 0.000000 0.500000
vn 0.866025 0.000000 0.500000
vn 1.000000 -0.000000 0.000000
vn 1.000000 -0.000000 0.000000
vn 1.000000 -0.000000 0.000000
vn 1.000000 -0.000000 0.000000
vn 0.866026 -0.000000 -0.500000
vn 0.866026 -0.000000 -0.500000
vn 0.866026 -0.000000 -0.500000
vn 0.866026 -0.000000 -0.500000
vn 0.500000 -0.000000 -0.866026
vn 0.500000 -0.000000 -0.866026
vn 0.500000 -0.000000 -0.866026
vn 0.500000 -0.000000 -0.866026
vn 0.000000 1.000000 -0.000000
vn 0.000000 1.000000 -0.000000
vn 0.000000 1.000000 -0.000000
vn 0.000000 1.000000 -0.000000
vn 0.000000 1.000000 -0.000000
vn 0.000000 1.000000 -0.000000
vn 0.000000 1.000000 -0.000000
vn 0.000000 1.000000 -0.000000
vn 0.000000 1.000000 -0.000000
vn 0.000000 1.000000 -0.000000
vn 0.000000 1.000000 -0.000000
vn 0.000000 1.000000 -0.000000
vn -0.000000 -1.000000 0.000000
vn -0.000000 -1.000000 0.000000
vn -0.000000 -1.000000 0.000000
vn -0.000000 -1.000000 0.000000
vn -0.000000 -1.000000 0.000000
vn -0.000000 -1.000000 0.000000
vn -0.000000 -1.000000 0.000000
vn -0.000000 -1.000000 0.000000
vn -0.000000 -1.000000 0.000000
vn -0.000000 -1.000000 0.000000
vn -0.000000 -1.000000 0.000000
vn -0.000000 -1.000000 0.000000

vt -0.224501 -0.093468
vt -0.224948 -0.094362
vt -0.228526 -0.092573
vt -0.228079 -0.091679
vt -0.267047 -0.189638
vt -0.267478 -0.190540
vt -0.271086 -0.188813
vt -0.270655 -0.187911
vt -0.299238 -0.181833
vt -0.299764 -0.182683
vt -0.303167 -0.180581
vt -0.302641 -0.179730
vt -0.299105 -0.018251
vt -0.299919 -0.018832
vt -0.302244 -0.015577
vt -0.301430 -0.014996
vt -0.062906 0.194166
vt -0.063840 0.194522
vt -0.062415 0.198259
vt -0.061480 0.197903
vt 0.147613 0.067363
vt 0.147025 0.068171
vt 0.150260 0.070524
vt 0.150848 0.069715
vt 0.224501 -0.093468
vt 0.224054 -0.092573
vt 0.227632 -0.090784
vt 0.228079 -0.091679
vt 0.267047 -0.189638
vt 0.266615 -0.188736
vt 0.270223 -0.187009
vt 0.270655 -0.187911
vt 0.299238 -0.181833
vt 0.298712 -0.180982
vt 0.302115 -0.178879
vt 0.302641 -0.179730
vt 0.299105 -0.018251
vt 0.298291 -0.017670
vt 0.300616 -0.014415
vt 0.301430 -0.014996
vt 0.062906 0.194166
vt 0.061972 0.193809
vt 0.060546 0.197547
vt 0.061481 0.197903
vt -0.147613 0.067362
vt -0.148202 0.066554
vt -0.151436 0.068906
vt -0.150848 0.069715
vt -0.175433 -0.258037
vt -0.175349 -0.259069
vt -0.175792 -0.260005
vt -0.176644 -0.260593
vt -0.177676 -0.260677
vt -0.178611 -0.260234
vt -0.179200 -0.259383
vt -0.179284 -0.258351
vt -0.178841 -0.257415
vt -0.177989 -0.256826
vt -0.176957 -0.256743
vt -0.176022 -0.257186
vt 0.176022 -0.257186
vt 0.176957 -0.256743
vt 0.177989 -0.256826
vt 0.178841 -0.257415
vt 0.179284 -0.258351
vt 0.179200 -0.259383
vt 0.178611 -0.260234
vt 0.177676 -0.260677
vt 0.176644 -0.260593
vt 0.175792 -0.260005
vt 0.175349 -0.259069
vt 0.175433 -0.258037
s off
f 1/1/1 2/2/2 3/3/3
f 1/1/1 3/3/3 4/4/4
f 5/5/5 6/6/6 7/7/7
f 5/5/5 7/7/7 8/8/8
f 9/9/9 10/10/10 11/11/11
f 9/9/9 11/11/11 12/12/12
f 13/13/13 14/14/14 15/15/15
f 13/13/13 15/15/15 16/16/16
f 17/17/17 18/18/18 19/19/19
f 17/17/17 19/19/19 20/20/20
f 21/21/21 22/22/22 23/23/23
f 21/21/21 23/23/23 24/24/24
f 25/25/25 26/26/26 27/27/27
f 25/25/25 27/27/27 28/28/28
f 29/29/29 30/30/30 31/31/31
f 29/29/29 31/31/31 32/32/32
f 33/33/33 34/34/34 35/35/35
f 33/33/33 35/35/35 36/36/36
f 37/37/37 38/38/38 39/39/39
f 37/37/37 39/39/39 40/40/40
f 41/41/41 42/42/42 43/43/43
f 41/41/41 43/43/43 44/44/44
f 45/45/45 46/46/46 47/47/47
f 45/45/45 47/47/47 48/48/48
f 49/49/49 50/50/50 51/51/51
f 49/49/49 51/51/51 52/52/52
f 49/49/49 52/52/52 53/53/53
f 49/49/49 53/53/53 54/54/54
f 49/49/49 54/54/54 55/55/55
f 49/49/49 55/55/55 56/56/56
f 49/49/49 56/56/56 57/57/57
f 49/49/49 57/57/57 58/58/58
f 49/49/49 58/58/58 59/59/59
f 49/49/49 59/59/59 60/60/60
f 61/61/61 62/62/62 63/63/63
f 61/61/61 63/63/63 64/64/64
f 61/61/61 64/64/64 65/65/65
f 61/61/61 65/65/65 66/66/66
f 61/61/61 66/66/66 67/67/67
f 61/61/61 67/67/67 68/68/68
f 61/61/61 68/68/68 69/69/69
f 61/61/61 69/69/69 70/70/70
f 61/61/61 70/70/70 71/71/71
f 61/61/61 71/71/71 72/72/72
