# Exported using automatic converter by Erwin Coumans
mtllib botlab.mtl
#object mesh1676979531

v 1.049290 -0.590690 2.536873
v 1.033777 -0.584487 2.525881
v 1.070870 -0.561801 2.486333
v 1.086384 -0.568004 2.497326
v 1.070801 -0.544425 2.496236
v 1.033708 -0.567111 2.535784
v 1.049222 -0.573314 2.546776
v 1.086315 -0.550628 2.507228
v 1.070870 -0.561801 2.486333
v 1.070801 -0.544425 2.496236
v 1.086315 -0.550628 2.507228
v 1.086384 -0.568004 2.497326
v 1.049222 -0.573314 2.546776
v 1.033708 -0.567111 2.535784
v 1.033777 -0.584487 2.525881
v 1.049290 -0.590690 2.536873
v 1.086315 -0.550628 2.507228
v 1.049222 -0.573314 2.546776
v 1.049290 -0.590690 2.536873
v 1.086384 -0.568004 2.497326
v 1.033777 -0.584487 2.525881
v 1.033708 -0.567111 2.535784
v 1.070801 -0.544425 2.496236
v 1.070870 -0.561801 2.486333
usemtl mat7

vn 0.003447 -0.868809 -0.495136
vn 0.003447 -0.868809 -0.495136
vn 0.003447 -0.868809 -0.495136
vn 0.003447 -0.868809 -0.495136
vn -0.003447 0.868809 0.495136
vn -0.003447 0.868809 0.495136
vn -0.003447 0.868809 0.495136
vn -0.003447 0.868809 0.495136
vn 0.631102 0.385968 -0.672859
vn 0.631102 0.385968 -0.672859
vn 0.631102 0.385968 -0.672859
vn 0.631102 0.385968 -0.672859
vn -0.631102 -0.385968 0.672859
vn -0.631102 -0.385968 0.672859
vn -0.631102 -0.385968 0.672859
vn -0.631102 -0.385968 0.672859
vn 0.775693 -0.310161 0.549637
vn 0.775693 -0.310161 0.549637
vn 0.775693 -0.310161 0.549637
vn 0.775693 -0.310161 0.549637
vn -0.775693 0.310161 -0.549637
vn -0.775693 0.310161 -0.549637
vn -0.775693 0.310161 -0.549637
vn -0.775693 0.310161 -0.549637

vt 0.301015 -0.082305
vt 0.299157 -0.083045
vt 0.296980 -0.077585
vt 0.298838 -0.076845
vt -0.296980 -0.077585
vt -0.299157 -0.083045
vt -0.301015 -0.082305
vt -0.298838 -0.076845
vt -0.010459 0.294335
vt -0.012175 0.295363
vt -0.011148 0.297078
vt -0.009432 0.296051
vt 0.011148 0.297078
vt 0.012175 0.295363
vt 0.010459 0.294335
vt 0.009432 0.296051
vt 0.200044 -0.139399
vt 0.201409 -0.145116
vt 0.199464 -0.145580
vt 0.198099 -0.139864
vt -0.199464 -0.145580
vt -0.201409 -0.145116
vt -0.200044 -0.139399
vt -0.198099 -0.139864
s off
f 1/1/1 2/2/2 3/3/3
f 1/1/1 3/3/3 4/4/4
f 5/5/5 6/6/6 7/7/7
f 5/5/5 7/7/7 8/8/8
f 9/9/9 10/10/10 11/11/11
f 9/9/9 11/11/11 12/12/12
f 13/13/13 14/14/14 15/15/15
f 13/13/13 15/15/15 16/16/16
f 17/17/17 18/18/18 19/19/19
f 17/17/17 19/19/19 20/20/20
f 21/21/21 22/22/22 23/23/23
f 21/21/21 23/23/23 24/24/24
