# Exported using automatic converter by Erwin Coumans
mtllib botlab.mtl
#object mesh1338476637

v 0.946673 -0.626576 2.701717
v 0.950466 -0.609021 2.692918
v 0.968704 -0.628241 2.662435
v 0.964910 -0.645796 2.671234
v 0.992347 -0.626735 2.675632
v 0.974110 -0.607516 2.706114
v 0.970316 -0.625071 2.714913
v 0.988554 -0.644291 2.684431
v 0.968704 -0.628241 2.662435
v 0.992347 -0.626735 2.675632
v 0.988554 -0.644291 2.684431
v 0.964910 -0.645796 2.671234
v 0.970316 -0.625071 2.714913
v 0.974110 -0.607516 2.706114
v 0.950466 -0.609021 2.692918
v 0.946673 -0.626576 2.701717
v 0.988554 -0.644291 2.684431
v 0.970316 -0.625071 2.714913
v 0.946673 -0.626576 2.701717
v 0.964910 -0.645796 2.671234
v 0.950466 -0.609021 2.692918
v 0.974110 -0.607516 2.706114
v 0.992347 -0.626735 2.675632
v 0.968704 -0.628241 2.662435
usemtl mat6

vn -0.871853 -0.055508 -0.486612
vn -0.871853 -0.055508 -0.486612
vn -0.871853 -0.055508 -0.486612
vn -0.871853 -0.055508 -0.486612
vn 0.871853 0.055508 0.486612
vn 0.871853 0.055508 0.486612
vn 0.871853 0.055508 0.486612
vn 0.871853 0.055508 0.486612
vn 0.451550 -0.475870 -0.754752
vn 0.451550 -0.475870 -0.754752
vn 0.451550 -0.475870 -0.754752
vn 0.451550 -0.475870 -0.754752
vn -0.451550 0.475870 0.754752
vn -0.451550 0.475870 0.754752
vn -0.451550 0.475870 0.754752
vn -0.451550 0.475870 0.754752
vn -0.189669 -0.877762 0.439954
vn -0.189669 -0.877762 0.439954
vn -0.189669 -0.877762 0.439954
vn -0.189669 -0.877762 0.439954
vn 0.189669 0.877762 -0.439954
vn 0.189669 0.877762 -0.439954
vn 0.189669 0.877762 -0.439954
vn 0.189669 0.877762 -0.439954

vt -0.117639 -0.258285
vt -0.118687 -0.256581
vt -0.115247 -0.254465
vt -0.114199 -0.256169
vt 0.115247 -0.254465
vt 0.118687 -0.256581
vt 0.117639 -0.258285
vt 0.114199 -0.256169
vt 0.274811 0.040968
vt 0.276803 0.042808
vt 0.278160 0.041339
vt 0.276168 0.039499
vt -0.278160 0.041339
vt -0.276803 0.042808
vt -0.274811 0.040968
vt -0.276168 0.039499
vt 0.321445 0.065165
vt 0.324807 0.062927
vt 0.323305 0.060670
vt 0.319942 0.062908
vt -0.323305 0.060670
vt -0.324807 0.062927
vt -0.321445 0.065165
vt -0.319942 0.062908
s off
f 1/1/1 2/2/2 3/3/3
f 1/1/1 3/3/3 4/4/4
f 5/5/5 6/6/6 7/7/7
f 5/5/5 7/7/7 8/8/8
f 9/9/9 10/10/10 11/11/11
f 9/9/9 11/11/11 12/12/12
f 13/13/13 14/14/14 15/15/15
f 13/13/13 15/15/15 16/16/16
f 17/17/17 18/18/18 19/19/19
f 17/17/17 19/19/19 20/20/20
f 21/21/21 22/22/22 23/23/23
f 21/21/21 23/23/23 24/24/24
