# Exported using automatic converter by Erwin Coumans
mtllib botlab.mtl
#object mesh1643882576

v 2.887721 -0.716515 -2.625425
v 2.885663 -0.665440 -2.625796
v 2.892564 -0.661025 -2.185049
v 2.894622 -0.712099 -2.184679
v 2.867034 -0.662058 -2.185657
v 2.860132 -0.666473 -2.626404
v 2.862190 -0.717548 -2.626033
v 2.869092 -0.713133 -2.185287
v 2.892564 -0.661025 -2.185049
v 2.867034 -0.662058 -2.185657
v 2.869092 -0.713133 -2.185287
v 2.894622 -0.712099 -2.184679
v 2.862190 -0.717548 -2.626033
v 2.860132 -0.666473 -2.626404
v 2.885663 -0.665440 -2.625796
v 2.887721 -0.716515 -2.625425
v 2.869092 -0.713133 -2.185287
v 2.862190 -0.717548 -2.626033
v 2.887721 -0.716515 -2.625425
v 2.894622 -0.712099 -2.184679
v 2.885663 -0.665440 -2.625796
v 2.860132 -0.666473 -2.626404
v 2.867034 -0.662058 -2.185657
v 2.892564 -0.661025 -2.185049
usemtl mat22

vn 0.999065 0.040135 -0.016045
vn 0.999065 0.040135 -0.016045
vn 0.999065 0.040135 -0.016045
vn 0.999065 0.040135 -0.016045
vn -0.999065 -0.040141 0.016045
vn -0.999065 -0.040141 0.016045
vn -0.999065 -0.040141 0.016045
vn -0.999065 -0.040141 0.016045
vn -0.024056 0.006282 0.999691
vn -0.024056 0.006282 0.999691
vn -0.024056 0.006282 0.999691
vn -0.024056 0.006282 0.999691
vn 0.024056 -0.006282 -0.999691
vn 0.024056 -0.006282 -0.999691
vn 0.024056 -0.006282 -0.999691
vn 0.024056 -0.006282 -0.999691
vn 0.040210 -0.999147 0.009380
vn 0.040210 -0.999147 0.009380
vn 0.040210 -0.999147 0.009380
vn 0.040210 -0.999147 0.009380
vn -0.040209 0.999147 -0.009381
vn -0.040209 0.999147 -0.009381
vn -0.040209 0.999147 -0.009381
vn -0.040209 0.999147 -0.009381

vt -0.156030 0.073963
vt -0.153015 0.078091
vt -0.117362 0.052165
vt -0.120377 0.048037
vt 0.117445 0.052225
vt 0.153097 0.078151
vt 0.156113 0.074023
vt 0.120460 0.048097
vt -0.130384 0.220070
vt -0.129322 0.217746
vt -0.133971 0.215621
vt -0.135033 0.217946
vt 0.133327 0.213985
vt 0.128678 0.216110
vt 0.129740 0.218435
vt 0.134389 0.216310
vt -0.039281 0.283397
vt -0.081165 0.297146
vt -0.080271 0.299541
vt -0.038388 0.285792
vt 0.080261 0.299537
vt 0.081154 0.297142
vt 0.039271 0.283394
vt 0.038378 0.285788
s off
f 1/1/1 2/2/2 3/3/3
f 1/1/1 3/3/3 4/4/4
f 5/5/5 6/6/6 7/7/7
f 5/5/5 7/7/7 8/8/8
f 9/9/9 10/10/10 11/11/11
f 9/9/9 11/11/11 12/12/12
f 13/13/13 14/14/14 15/15/15
f 13/13/13 15/15/15 16/16/16
f 17/17/17 18/18/18 19/19/19
f 17/17/17 19/19/19 20/20/20
f 21/21/21 22/22/22 23/23/23
f 21/21/21 23/23/23 24/24/24
