# Exported using automatic converter by Erwin Coumans
mtllib botlab.mtl
#object mesh1027642048

v -2.721761 -1.034511 -3.220148
v -2.721761 -0.324511 -3.220148
v -2.691761 -0.324511 -3.220148
v -2.691761 -1.034511 -3.220148
v -2.691762 -0.324511 2.329852
v -2.721762 -0.324511 2.329852
v -2.721762 -1.034512 2.329852
v -2.691762 -1.034512 2.329852
v -2.691761 -0.324511 -3.220148
v -2.691762 -0.324511 2.329852
v -2.691762 -1.034512 2.329852
v -2.691761 -1.034511 -3.220148
v -2.721762 -1.034512 2.329852
v -2.721762 -0.324511 2.329852
v -2.721761 -0.324511 -3.220148
v -2.721761 -1.034511 -3.220148
v -2.691762 -1.034512 2.329852
v -2.721762 -1.034512 2.329852
v -2.721761 -1.034511 -3.220148
v -2.691761 -1.034511 -3.220148
v -2.721761 -0.324511 -3.220148
v -2.721762 -0.324511 2.329852
v -2.691762 -0.324511 2.329852
v -2.691761 -0.324511 -3.220148
usemtl mat22

vn 0.000000 0.000000 -1.000000
vn 0.000000 0.000000 -1.000000
vn 0.000000 0.000000 -1.000000
vn 0.000000 0.000000 -1.000000
vn 0.000000 0.000000 1.000000
vn 0.000000 0.000000 1.000000
vn 0.000000 0.000000 1.000000
vn 0.000000 0.000000 1.000000
vn 1.000000 0.000000 0.000000
vn 1.000000 0.000000 0.000000
vn 1.000000 0.000000 0.000000
vn 1.000000 0.000000 0.000000
vn -1.000000 -0.000000 -0.000000
vn -1.000000 -0.000000 -0.000000
vn -1.000000 -0.000000 -0.000000
vn -1.000000 -0.000000 -0.000000
vn 0.000000 -1.000000 0.000000
vn 0.000000 -1.000000 0.000000
vn 0.000000 -1.000000 0.000000
vn 0.000000 -1.000000 0.000000
vn 0.000000 1.000000 -0.000000
vn 0.000000 1.000000 -0.000000
vn 0.000000 1.000000 -0.000000
vn 0.000000 1.000000 -0.000000

vt -0.086312 -0.295608
vt -0.149816 -0.263856
vt -0.148475 -0.261173
vt -0.084971 -0.292925
vt 0.148475 -0.261173
vt 0.149817 -0.263856
vt 0.086312 -0.295608
vt 0.084971 -0.292925
vt -0.180300 0.148448
vt 0.271322 -0.174139
vt 0.230054 -0.231914
vt -0.221568 0.090673
vt -0.230054 -0.231914
vt -0.271322 -0.174139
vt 0.180300 0.148448
vt 0.221568 0.090673
vt 0.202340 -0.390823
vt 0.201331 -0.393648
vt -0.321336 -0.206981
vt -0.320327 -0.204156
vt 0.321336 -0.206981
vt -0.201331 -0.393648
vt -0.202340 -0.390823
vt 0.320327 -0.204156
s off
f 1/1/1 2/2/2 3/3/3
f 1/1/1 3/3/3 4/4/4
f 5/5/5 6/6/6 7/7/7
f 5/5/5 7/7/7 8/8/8
f 9/9/9 10/10/10 11/11/11
f 9/9/9 11/11/11 12/12/12
f 13/13/13 14/14/14 15/15/15
f 13/13/13 15/15/15 16/16/16
f 17/17/17 18/18/18 19/19/19
f 17/17/17 19/19/19 20/20/20
f 21/21/21 22/22/22 23/23/23
f 21/21/21 23/23/23 24/24/24
