# Exported using automatic converter by Erwin Coumans
mtllib botlab.mtl
#object mesh1725966015

v -2.696762 -0.394511 -3.185148
v -2.696762 -0.374511 -3.185148
v -2.676762 -0.374511 -3.185148
v -2.676762 -0.394511 -3.185148
v -2.676762 -0.374511 2.184852
v -2.696762 -0.374511 2.184852
v -2.696762 -0.394511 2.184852
v -2.676762 -0.394511 2.184852
v -2.676762 -0.374511 -3.185148
v -2.676762 -0.374511 2.184852
v -2.676762 -0.394511 2.184852
v -2.676762 -0.394511 -3.185148
v -2.696762 -0.394511 2.184852
v -2.696762 -0.374511 2.184852
v -2.696762 -0.374511 -3.185148
v -2.696762 -0.394511 -3.185148
v -2.676762 -0.394511 2.184852
v -2.696762 -0.394511 2.184852
v -2.696762 -0.394511 -3.185148
v -2.676762 -0.394511 -3.185148
v -2.696762 -0.374511 -3.185148
v -2.696762 -0.374511 2.184852
v -2.676762 -0.374511 2.184852
v -2.676762 -0.374511 -3.185148
usemtl mat12

vn 0.000000 0.000000 -1.000000
vn 0.000000 0.000000 -1.000000
vn 0.000000 0.000000 -1.000000
vn 0.000000 0.000000 -1.000000
vn -0.000000 0.000000 1.000000
vn -0.000000 0.000000 1.000000
vn -0.000000 0.000000 1.000000
vn -0.000000 0.000000 1.000000
vn 1.000000 0.000000 0.000000
vn 1.000000 0.000000 0.000000
vn 1.000000 0.000000 0.000000
vn 1.000000 0.000000 0.000000
vn -1.000000 -0.000000 -0.000000
vn -1.000000 -0.000000 -0.000000
vn -1.000000 -0.000000 -0.000000
vn -1.000000 -0.000000 -0.000000
vn 0.000000 -1.000000 0.000000
vn 0.000000 -1.000000 0.000000
vn 0.000000 -1.000000 0.000000
vn 0.000000 -1.000000 0.000000
vn 0.000000 1.000000 -0.000000
vn 0.000000 1.000000 -0.000000
vn 0.000000 1.000000 -0.000000
vn 0.000000 1.000000 -0.000000

vt -0.142438 -0.264750
vt -0.144226 -0.263856
vt -0.143332 -0.262067
vt -0.141543 -0.262962
vt 0.143332 -0.262067
vt 0.144226 -0.263856
vt 0.142438 -0.264750
vt 0.141543 -0.262962
vt -0.180358 0.142345
vt 0.256617 -0.169780
vt 0.255454 -0.171407
vt -0.181521 0.140718
vt -0.255454 -0.171407
vt -0.256617 -0.169780
vt 0.180358 0.142345
vt 0.181521 0.140718
vt 0.189189 -0.384533
vt 0.188516 -0.386417
vt -0.317199 -0.205804
vt -0.316526 -0.203921
vt 0.317199 -0.205804
vt -0.188516 -0.386417
vt -0.189189 -0.384533
vt 0.316526 -0.203921
s off
f 1/1/1 2/2/2 3/3/3
f 1/1/1 3/3/3 4/4/4
f 5/5/5 6/6/6 7/7/7
f 5/5/5 7/7/7 8/8/8
f 9/9/9 10/10/10 11/11/11
f 9/9/9 11/11/11 12/12/12
f 13/13/13 14/14/14 15/15/15
f 13/13/13 15/15/15 16/16/16
f 17/17/17 18/18/18 19/19/19
f 17/17/17 19/19/19 20/20/20
f 21/21/21 22/22/22 23/23/23
f 21/21/21 23/23/23 24/24/24
