# Exported using automatic converter by Erwin Coumans
mtllib botlab.mtl
#object mesh1416440012

v -1.411762 0.535489 -0.030148
v -1.431762 0.535489 -0.030148
v -1.431762 0.335489 -0.030148
v -1.411762 0.335489 -0.030148
v -1.431762 0.335489 -0.050148
v -1.431762 0.535489 -0.050148
v -1.411762 0.535489 -0.050148
v -1.411762 0.335489 -0.050148
v -1.431762 0.335489 -0.030148
v -1.431762 0.335489 -0.050148
v -1.411762 0.335489 -0.050148
v -1.411762 0.335489 -0.030148
v -1.411762 0.535489 -0.050148
v -1.431762 0.535489 -0.050148
v -1.431762 0.535489 -0.030148
v -1.411762 0.535489 -0.030148
v -1.411762 0.335489 -0.050148
v -1.411762 0.535489 -0.050148
v -1.411762 0.535489 -0.030148
v -1.411762 0.335489 -0.030148
v -1.431762 0.535489 -0.030148
v -1.431762 0.535489 -0.050148
v -1.431762 0.335489 -0.050148
v -1.431762 0.335489 -0.030148
usemtl mat15

vn -0.000000 0.000000 1.000000
vn -0.000000 0.000000 1.000000
vn -0.000000 0.000000 1.000000
vn -0.000000 0.000000 1.000000
vn 0.000000 0.000000 -1.000000
vn 0.000000 0.000000 -1.000000
vn 0.000000 0.000000 -1.000000
vn 0.000000 0.000000 -1.000000
vn 0.000000 -1.000000 0.000000
vn 0.000000 -1.000000 0.000000
vn 0.000000 -1.000000 0.000000
vn 0.000000 -1.000000 0.000000
vn -0.000000 1.000000 0.000000
vn -0.000000 1.000000 0.000000
vn -0.000000 1.000000 0.000000
vn -0.000000 1.000000 0.000000
vn 1.000000 0.000000 0.000000
vn 1.000000 0.000000 0.000000
vn 1.000000 0.000000 0.000000
vn 1.000000 0.000000 0.000000
vn -1.000000 -0.000000 -0.000000
vn -1.000000 -0.000000 -0.000000
vn -1.000000 -0.000000 -0.000000
vn -1.000000 -0.000000 -0.000000

vt 0.168152 -0.108226
vt 0.169047 -0.110014
vt 0.151158 -0.118959
vt 0.150264 -0.117170
vt -0.151158 -0.118959
vt -0.169047 -0.110014
vt -0.168152 -0.108226
vt -0.150264 -0.117170
vt 0.022467 -0.192788
vt 0.020584 -0.192115
vt 0.021256 -0.190232
vt 0.023140 -0.190904
vt -0.021256 -0.190232
vt -0.020584 -0.192115
vt -0.022467 -0.192788
vt -0.023140 -0.190904
vt 0.116015 0.017902
vt 0.127640 0.034177
vt 0.129267 0.033014
vt 0.117643 0.016740
vt -0.129267 0.033014
vt -0.127640 0.034177
vt -0.116015 0.017902
vt -0.117643 0.016740
s off
f 1/1/1 2/2/2 3/3/3
f 1/1/1 3/3/3 4/4/4
f 5/5/5 6/6/6 7/7/7
f 5/5/5 7/7/7 8/8/8
f 9/9/9 10/10/10 11/11/11
f 9/9/9 11/11/11 12/12/12
f 13/13/13 14/14/14 15/15/15
f 13/13/13 15/15/15 16/16/16
f 17/17/17 18/18/18 19/19/19
f 17/17/17 19/19/19 20/20/20
f 21/21/21 22/22/22 23/23/23
f 21/21/21 23/23/23 24/24/24
