# Exported using automatic converter by Erwin Coumans
mtllib botlab.mtl
#object mesh751112264

v -0.468563 -0.503000 2.495834
v -0.474597 -0.516116 2.540058
v -0.381824 -0.455344 2.540266
v -0.474597 -0.516116 2.540058
v -0.468808 -0.509637 2.573905
v -0.381824 -0.455344 2.540266
v -0.468808 -0.509637 2.573905
v -0.450553 -0.523712 2.606302
v -0.381824 -0.455344 2.540266
v -0.450553 -0.523712 2.606302
v -0.401154 -0.491971 2.599641
v -0.381824 -0.455344 2.540266
v -0.401154 -0.491971 2.599641
v -0.357222 -0.504617 2.634246
v -0.381824 -0.455344 2.540266
v -0.357222 -0.504617 2.634246
v -0.322926 -0.507672 2.618394
v -0.381824 -0.455344 2.540266
v -0.322926 -0.507672 2.618394
v -0.320499 -0.495858 2.588990
v -0.381824 -0.455344 2.540266
v -0.320499 -0.495858 2.588990
v -0.351073 -0.471175 2.523829
v -0.381824 -0.455344 2.540266
v -0.351073 -0.471175 2.523829
v -0.352459 -0.551032 2.520220
v -0.381824 -0.455344 2.540266
v -0.418470 -0.521811 2.416502
v -0.431708 -0.501297 2.475885
v -0.381824 -0.455344 2.540266
v -0.431708 -0.501297 2.475885
v -0.464281 -0.500319 2.477221
v -0.381824 -0.455344 2.540266
v -0.464281 -0.500319 2.477221
v -0.468563 -0.503000 2.495834
v -0.381824 -0.455344 2.540266
v -0.352459 -0.551032 2.520220
v -0.468808 -0.509637 2.573905
v -0.474597 -0.516116 2.540058
v -0.352459 -0.551032 2.520220
v -0.351073 -0.471175 2.523829
v -0.320499 -0.495858 2.588990
v -0.352459 -0.551032 2.520220
v -0.320499 -0.495858 2.588990
v -0.322926 -0.507672 2.618394
v -0.464281 -0.500319 2.477221
v -0.431708 -0.501297 2.475885
v -0.352459 -0.551032 2.520220
v -0.468563 -0.503000 2.495834
v -0.464281 -0.500319 2.477221
v -0.352459 -0.551032 2.520220
v -0.474597 -0.516116 2.540058
v -0.468563 -0.503000 2.495834
v -0.352459 -0.551032 2.520220
v -0.322926 -0.507672 2.618394
v -0.357222 -0.504617 2.634246
v -0.401154 -0.491971 2.599641
v -0.322926 -0.507672 2.618394
v -0.401154 -0.491971 2.599641
v -0.450553 -0.523712 2.606302
v -0.352459 -0.551032 2.520220
v -0.322926 -0.507672 2.618394
v -0.450553 -0.523712 2.606302
v -0.352459 -0.551032 2.520220
v -0.450553 -0.523712 2.606302
v -0.468808 -0.509637 2.573905
v -0.382107 -0.531689 2.438904
v -0.352459 -0.551032 2.520220
v -0.431708 -0.501297 2.475885
v -0.382107 -0.531689 2.438904
v -0.381824 -0.455344 2.540266
v -0.352459 -0.551032 2.520220
v -0.382107 -0.531689 2.438904
v -0.418470 -0.521811 2.416502
v -0.379388 -0.484802 2.435836
v -0.381824 -0.455344 2.540266
v -0.379388 -0.484802 2.435836
v -0.418470 -0.521811 2.416502
v -0.382107 -0.531689 2.438904
v -0.379388 -0.484802 2.435836
v -0.381824 -0.455344 2.540266
v -0.431708 -0.501297 2.475885
v -0.418470 -0.521811 2.416502
v -0.382107 -0.531689 2.438904
usemtl mat9

vn -0.540191 0.824045 0.170714
vn -0.540191 0.824045 0.170714
vn -0.540191 0.824045 0.170714
vn -0.546657 0.834729 -0.066287
vn -0.546657 0.834729 -0.066287
vn -0.546657 0.834729 -0.066287
vn -0.300172 0.801425 0.517315
vn -0.300172 0.801425 0.517315
vn -0.300172 0.801425 0.517315
vn -0.473895 0.810014 0.345400
vn -0.473895 0.810014 0.345400
vn -0.473895 0.810014 0.345400
vn -0.135933 0.862357 0.487712
vn -0.135933 0.862357 0.487712
vn -0.135933 0.862357 0.487712
vn 0.260599 0.881432 0.393911
vn 0.260599 0.881432 0.393911
vn 0.260599 0.881432 0.393911
vn 0.282535 0.881802 0.377622
vn 0.282535 0.881802 0.377622
vn 0.282535 0.881802 0.377622
vn 0.495242 0.863573 0.094747
vn 0.495242 0.863573 0.094747
vn 0.495242 0.863573 0.094747
vn -0.451505 0.048089 -0.890972
vn -0.451505 0.048089 -0.890972
vn -0.451505 0.048089 -0.890972
vn -0.321408 0.870637 -0.372410
vn -0.321408 0.870637 -0.372410
vn -0.321408 0.870637 -0.372410
vn 0.000607 0.813706 -0.581276
vn 0.000607 0.813706 -0.581276
vn 0.000607 0.813706 -0.581276
vn -0.486884 0.873358 0.013758
vn -0.486884 0.873358 0.013758
vn -0.486884 0.873358 0.013758
vn -0.234649 -0.946551 0.221317
vn -0.234649 -0.946551 0.221317
vn -0.234649 -0.946551 0.221317
vn 0.905793 0.003423 -0.423707
vn 0.905793 0.003423 -0.423707
vn 0.905793 0.003423 -0.423707
vn 0.906619 -0.412080 -0.090731
vn 0.906619 -0.412080 -0.090731
vn 0.906619 -0.412080 -0.090731
vn -0.050165 -0.707942 -0.704486
vn -0.050165 -0.707942 -0.704486
vn -0.050165 -0.707942 -0.704486
vn -0.335889 -0.918297 -0.209544
vn -0.335889 -0.918297 -0.209544
vn -0.335889 -0.918297 -0.209544
vn -0.307464 -0.900028 -0.308893
vn -0.307464 -0.900028 -0.308893
vn -0.307464 -0.900028 -0.308893
vn -0.158550 -0.975099 -0.155062
vn -0.158550 -0.975099 -0.155062
vn -0.158550 -0.975099 -0.155062
vn -0.136321 0.402150 0.905369
vn -0.136321 0.402150 0.905369
vn -0.136321 0.402150 0.905369
vn 0.079424 -0.920475 0.382646
vn 0.079424 -0.920475 0.382646
vn 0.079424 -0.920475 0.382646
vn -0.398157 -0.901900 -0.167476
vn -0.398157 -0.901900 -0.167476
vn -0.398157 -0.901900 -0.167476
vn -0.527662 -0.849400 -0.009660
vn -0.527662 -0.849400 -0.009660
vn -0.527662 -0.849400 -0.009660
vn 0.908930 0.331822 -0.252470
vn 0.908930 0.331822 -0.252470
vn 0.908930 0.331822 -0.252470
vn 0.505674 -0.085514 -0.858476
vn 0.505674 -0.085514 -0.858476
vn 0.505674 -0.085514 -0.858476
vn -0.607292 0.760824 -0.228787
vn -0.607292 0.760824 -0.228787
vn -0.607292 0.760824 -0.228787
vn 0.997711 -0.055326 0.038883
vn 0.997711 -0.055326 0.038883
vn 0.997711 -0.055326 0.038883
vn -0.381896 -0.896508 0.224564
vn -0.381896 -0.896508 0.224564
vn -0.381896 -0.896508 0.224564

vt -0.294333 -0.156215
vt -0.298287 -0.158665
vt -0.301464 -0.148039
vt -0.306705 -0.171551
vt -0.310190 -0.171813
vt -0.310188 -0.161022
vt -0.246269 -0.158705
vt -0.250245 -0.158735
vt -0.245682 -0.147930
vt -0.286482 -0.149583
vt -0.287368 -0.143740
vt -0.282213 -0.138658
vt -0.244849 -0.186428
vt -0.250158 -0.184265
vt -0.239653 -0.181387
vt -0.224658 -0.252672
vt -0.225349 -0.248945
vt -0.214264 -0.249413
vt -0.225648 -0.251969
vt -0.223067 -0.250114
vt -0.214563 -0.252445
vt -0.252471 -0.247500
vt -0.244890 -0.246838
vt -0.244218 -0.250608
vt -0.105367 -0.185835
vt -0.098142 -0.189260
vt -0.108305 -0.188291
vt -0.287728 -0.145709
vt -0.293792 -0.147817
vt -0.302073 -0.143471
vt -0.272923 -0.073867
vt -0.273088 -0.077124
vt -0.280832 -0.068879
vt -0.299547 -0.167224
vt -0.301167 -0.168271
vt -0.308409 -0.160193
vt 0.306463 -0.131655
vt 0.309191 -0.144842
vt 0.305714 -0.144490
vt 0.276539 0.049756
vt 0.275336 0.057660
vt 0.282880 0.056665
vt 0.306389 -0.138128
vt 0.314956 -0.134311
vt 0.317380 -0.136366
vt 0.158406 -0.200843
vt 0.160082 -0.198045
vt 0.169891 -0.194733
vt 0.238536 -0.248846
vt 0.237133 -0.247522
vt 0.247639 -0.239849
vt 0.224750 -0.258923
vt 0.221112 -0.256024
vt 0.230668 -0.247508
vt 0.283889 -0.211469
vt 0.283786 -0.215258
vt 0.278621 -0.217748
vt -0.112991 -0.092111
vt -0.106971 -0.097673
vt -0.107047 -0.103582
vt 0.299628 -0.116961
vt 0.310654 -0.115428
vt 0.307261 -0.127894
vt 0.247432 -0.242647
vt 0.248840 -0.255906
vt 0.244864 -0.255865
vt 0.252771 -0.224357
vt 0.261542 -0.225669
vt 0.252821 -0.231249
vt 0.280383 -0.122426
vt 0.292973 -0.120843
vt 0.286563 -0.128787
vt 0.094893 0.063398
vt 0.091395 0.060755
vt 0.091330 0.066474
vt -0.305321 -0.167471
vt -0.294682 -0.165324
vt -0.290971 -0.169676
vt 0.268272 -0.201358
vt 0.270744 -0.197353
vt 0.280957 -0.201026
vt 0.299618 -0.133828
vt 0.294090 -0.130562
vt 0.297126 -0.127401
s off
f 1/1/1 2/2/2 3/3/3
f 4/4/4 5/5/5 6/6/6
f 7/7/7 8/8/8 9/9/9
f 10/10/10 11/11/11 12/12/12
f 13/13/13 14/14/14 15/15/15
f 16/16/16 17/17/17 18/18/18
f 19/19/19 20/20/20 21/21/21
f 22/22/22 23/23/23 24/24/24
f 25/25/25 26/26/26 27/27/27
f 28/28/28 29/29/29 30/30/30
f 31/31/31 32/32/32 33/33/33
f 34/34/34 35/35/35 36/36/36
f 37/37/37 38/38/38 39/39/39
f 40/40/40 41/41/41 42/42/42
f 43/43/43 44/44/44 45/45/45
f 46/46/46 47/47/47 48/48/48
f 49/49/49 50/50/50 51/51/51
f 52/52/52 53/53/53 54/54/54
f 55/55/55 56/56/56 57/57/57
f 58/58/58 59/59/59 60/60/60
f 61/61/61 62/62/62 63/63/63
f 64/64/64 65/65/65 66/66/66
f 67/67/67 68/68/68 69/69/69
f 70/70/70 71/71/71 72/72/72
f 73/73/73 74/74/74 75/75/75
f 76/76/76 77/77/77 78/78/78
f 79/79/79 80/80/80 81/81/81
f 82/82/82 83/83/83 84/84/84
