# Exported using automatic converter by Erwin Coumans
mtllib botlab.mtl
#object mesh2027296749

v -0.785807 0.628821 -2.728253
v -0.495888 0.628546 -2.732130
v -0.495929 0.628568 -2.737153
v -0.785848 0.628843 -2.733276
v -0.495969 0.563266 -2.737440
v -0.495928 0.563244 -2.732416
v -0.785847 0.563518 -2.728539
v -0.785888 0.563541 -2.733563
v -0.495929 0.628568 -2.737153
v -0.495969 0.563266 -2.737440
v -0.785888 0.563541 -2.733563
v -0.785848 0.628843 -2.733276
v -0.785847 0.563518 -2.728539
v -0.495928 0.563244 -2.732416
v -0.495888 0.628546 -2.732130
v -0.785807 0.628821 -2.728253
v -0.785888 0.563541 -2.733563
v -0.785847 0.563518 -2.728539
v -0.785807 0.628821 -2.728253
v -0.785848 0.628843 -2.733276
v -0.495888 0.628546 -2.732130
v -0.495928 0.563244 -2.732416
v -0.495969 0.563266 -2.737440
v -0.495929 0.628568 -2.737153
usemtl mat24

vn 0.001007 0.999990 0.004391
vn 0.001007 0.999990 0.004391
vn 0.001007 0.999990 0.004391
vn 0.001007 0.999990 0.004391
vn -0.001006 -0.999990 -0.004403
vn -0.001006 -0.999990 -0.004403
vn -0.001006 -0.999990 -0.004403
vn -0.001006 -0.999990 -0.004403
vn -0.013366 0.004402 -0.999901
vn -0.013366 0.004402 -0.999901
vn -0.013366 0.004402 -0.999901
vn -0.013366 0.004402 -0.999901
vn 0.013366 -0.004403 0.999901
vn 0.013366 -0.004403 0.999901
vn 0.013366 -0.004403 0.999901
vn 0.013366 -0.004403 0.999901
vn -0.999967 0.000576 0.008124
vn -0.999967 0.000576 0.008124
vn -0.999967 0.000576 0.008124
vn -0.999967 0.000576 0.008124
vn 0.999967 -0.000576 -0.008124
vn 0.999967 -0.000576 -0.008124
vn 0.999967 -0.000576 -0.008124
vn 0.999967 -0.000576 -0.008124

vt 0.210481 -0.040707
vt 0.201037 -0.013294
vt 0.201511 -0.013127
vt 0.210955 -0.040541
vt -0.201512 -0.013124
vt -0.201038 -0.013290
vt -0.210481 -0.040703
vt -0.210956 -0.040537
vt -0.133618 -0.020711
vt -0.127769 -0.023617
vt -0.140681 -0.049578
vt -0.146529 -0.046672
vt 0.140682 -0.049581
vt 0.127770 -0.023620
vt 0.133619 -0.020714
vt 0.146530 -0.046675
vt 0.092035 0.191856
vt 0.091624 0.191567
vt 0.087866 0.196907
vt 0.088277 0.197196
vt -0.087997 0.196985
vt -0.091755 0.191645
vt -0.092166 0.191934
vt -0.088408 0.197274
s off
f 1/1/1 2/2/2 3/3/3
f 1/1/1 3/3/3 4/4/4
f 5/5/5 6/6/6 7/7/7
f 5/5/5 7/7/7 8/8/8
f 9/9/9 10/10/10 11/11/11
f 9/9/9 11/11/11 12/12/12
f 13/13/13 14/14/14 15/15/15
f 13/13/13 15/15/15 16/16/16
f 17/17/17 18/18/18 19/19/19
f 17/17/17 19/19/19 20/20/20
f 21/21/21 22/22/22 23/23/23
f 21/21/21 23/23/23 24/24/24
