# Exported using automatic converter by Erwin Coumans
mtllib botlab.mtl
#object mesh335067542

v -1.051763 -0.339511 2.354852
v -1.051763 0.160489 2.354852
v -1.051763 0.160489 2.324852
v -1.051762 -0.339511 2.324852
v -0.231762 0.160489 2.324852
v -0.231762 0.160489 2.354852
v -0.231762 -0.339511 2.354852
v -0.231762 -0.339511 2.324852
v -1.051763 0.160489 2.324852
v -0.231762 0.160489 2.324852
v -0.231762 -0.339511 2.324852
v -1.051762 -0.339511 2.324852
v -0.231762 -0.339511 2.354852
v -0.231762 0.160489 2.354852
v -1.051763 0.160489 2.354852
v -1.051763 -0.339511 2.354852
v -0.231762 -0.339511 2.324852
v -0.231762 -0.339511 2.354852
v -1.051763 -0.339511 2.354852
v -1.051762 -0.339511 2.324852
v -1.051763 0.160489 2.354852
v -0.231762 0.160489 2.354852
v -0.231762 0.160489 2.324852
v -1.051763 0.160489 2.324852
usemtl mat21

vn -1.000000 0.000000 0.000000
vn -1.000000 0.000000 0.000000
vn -1.000000 0.000000 0.000000
vn -1.000000 0.000000 0.000000
vn 1.000000 0.000000 0.000000
vn 1.000000 0.000000 0.000000
vn 1.000000 0.000000 0.000000
vn 1.000000 0.000000 0.000000
vn 0.000000 0.000000 -1.000000
vn 0.000000 0.000000 -1.000000
vn 0.000000 0.000000 -1.000000
vn 0.000000 0.000000 -1.000000
vn 0.000000 -0.000000 1.000000
vn 0.000000 -0.000000 1.000000
vn 0.000000 -0.000000 1.000000
vn 0.000000 -0.000000 1.000000
vn 0.000000 -1.000000 0.000000
vn 0.000000 -1.000000 0.000000
vn 0.000000 -1.000000 0.000000
vn 0.000000 -1.000000 0.000000
vn 0.000000 1.000000 -0.000000
vn 0.000000 1.000000 -0.000000
vn 0.000000 1.000000 -0.000000
vn 0.000000 1.000000 -0.000000

vt -0.272485 -0.176813
vt -0.301546 -0.136126
vt -0.299105 -0.134382
vt -0.270043 -0.175069
vt 0.299105 -0.134382
vt 0.301546 -0.136126
vt 0.272485 -0.176813
vt 0.270043 -0.175069
vt -0.118512 -0.092797
vt -0.081840 -0.019454
vt -0.037119 -0.041814
vt -0.073790 -0.115157
vt 0.037119 -0.041814
vt 0.081840 -0.019454
vt 0.118512 -0.092797
vt 0.073790 -0.115157
vt 0.284608 -0.158986
vt 0.287433 -0.159995
vt 0.259854 -0.237218
vt 0.257028 -0.236209
vt -0.259854 -0.237218
vt -0.287433 -0.159995
vt -0.284608 -0.158986
vt -0.257028 -0.236209
s off
f 1/1/1 2/2/2 3/3/3
f 1/1/1 3/3/3 4/4/4
f 5/5/5 6/6/6 7/7/7
f 5/5/5 7/7/7 8/8/8
f 9/9/9 10/10/10 11/11/11
f 9/9/9 11/11/11 12/12/12
f 13/13/13 14/14/14 15/15/15
f 13/13/13 15/15/15 16/16/16
f 17/17/17 18/18/18 19/19/19
f 17/17/17 19/19/19 20/20/20
f 21/21/21 22/22/22 23/23/23
f 21/21/21 23/23/23 24/24/24
