# Exported using automatic converter by Erwin Coumans
mtllib botlab.mtl
#object mesh71335392

v 1.077203 1.475981 -0.255870
v 1.065767 1.481092 -0.262435
v 1.065519 1.485950 -0.252268
v 1.076955 1.480815 -0.245723
v 1.065767 1.481092 -0.262435
v 1.057447 1.473943 -0.253509
v 1.057200 1.478713 -0.243413
v 1.065519 1.485950 -0.252268
v 1.057447 1.473943 -0.253509
v 1.068883 1.468832 -0.246944
v 1.068636 1.473578 -0.236867
v 1.057200 1.478713 -0.243413
v 1.068883 1.468832 -0.246944
v 1.077203 1.475981 -0.255870
v 1.076955 1.480815 -0.245723
v 1.068636 1.473578 -0.236867
v 1.068883 1.468832 -0.246944
v 1.057447 1.473943 -0.253509
v 1.065767 1.481092 -0.262435
v 1.077203 1.475981 -0.255870
v 1.076955 1.480815 -0.245723
v 1.065519 1.485950 -0.252268
v 1.057200 1.478713 -0.243413
v 1.068636 1.473578 -0.236867
usemtl mat22

vn 0.542915 0.763019 -0.350778
vn 0.542915 0.763019 -0.350778
vn 0.542915 0.763019 -0.350778
vn 0.542915 0.763019 -0.350778
vn -0.782228 0.555075 -0.282864
vn -0.782228 0.555075 -0.282864
vn -0.782228 0.555075 -0.282864
vn -0.782228 0.555075 -0.282864
vn -0.542022 -0.765107 0.347596
vn -0.542022 -0.765107 0.347596
vn -0.542022 -0.765107 0.347596
vn -0.542022 -0.765107 0.347596
vn 0.782063 -0.555598 0.282290
vn 0.782063 -0.555598 0.282290
vn 0.782063 -0.555598 0.282290
vn 0.782063 -0.555598 0.282290
vn 0.006551 -0.783506 -0.621350
vn 0.006551 -0.783506 -0.621350
vn 0.006551 -0.783506 -0.621350
vn 0.006551 -0.783506 -0.621350
vn -0.009463 0.778631 0.627411
vn -0.009463 0.778631 0.627411
vn -0.009463 0.778631 0.627411
vn -0.009463 0.778631 0.627411

vt -0.132184 -0.048042
vt -0.131510 -0.049285
vt -0.132602 -0.049563
vt -0.133273 -0.048318
vt -0.158072 0.149325
vt -0.158430 0.147957
vt -0.159539 0.147824
vt -0.159191 0.149194
vt 0.131061 -0.050124
vt 0.131743 -0.048885
vt 0.132821 -0.049163
vt 0.132142 -0.050404
vt 0.158727 0.148089
vt 0.158368 0.149457
vt 0.159484 0.149326
vt 0.159833 0.147955
vt -0.021847 0.102664
vt -0.023144 0.102102
vt -0.023706 0.103400
vt -0.022409 0.103962
vt 0.022925 0.104959
vt 0.024223 0.104398
vt 0.023662 0.103100
vt 0.022364 0.103661
s off
f 1/1/1 2/2/2 3/3/3
f 1/1/1 3/3/3 4/4/4
f 5/5/5 6/6/6 7/7/7
f 5/5/5 7/7/7 8/8/8
f 9/9/9 10/10/10 11/11/11
f 9/9/9 11/11/11 12/12/12
f 13/13/13 14/14/14 15/15/15
f 13/13/13 15/15/15 16/16/16
f 17/17/17 18/18/18 19/19/19
f 17/17/17 19/19/19 20/20/20
f 21/21/21 22/22/22 23/23/23
f 21/21/21 23/23/23 24/24/24
