# Exported using automatic converter by Erwin Coumans
mtllib botlab.mtl
#object mesh891948967

v 3.055869 -0.690225 -2.523157
v 3.040717 -0.690225 -2.591609
v 3.040717 -0.190225 -2.591609
v 3.055869 -0.190225 -2.523157
v 3.040717 -0.690225 -2.591609
v 2.999321 -0.690225 -2.641720
v 2.999321 -0.190225 -2.641720
v 3.040717 -0.190225 -2.591609
v 2.999321 -0.690225 -2.641720
v 2.942773 -0.690225 -2.660062
v 2.942773 -0.190225 -2.660062
v 2.999321 -0.190225 -2.641720
v 2.942773 -0.690225 -2.660062
v 2.886226 -0.690225 -2.641720
v 2.886226 -0.190225 -2.641720
v 2.942773 -0.190225 -2.660062
v 2.886226 -0.690225 -2.641720
v 2.844830 -0.690225 -2.591609
v 2.844830 -0.190225 -2.591609
v 2.886226 -0.190225 -2.641720
v 2.844830 -0.690225 -2.591609
v 2.829678 -0.690225 -2.523157
v 2.829678 -0.190225 -2.523157
v 2.844830 -0.190225 -2.591609
v 2.829678 -0.690225 -2.523157
v 2.844830 -0.690225 -2.454705
v 2.844830 -0.190225 -2.454705
v 2.829678 -0.190225 -2.523157
v 2.844830 -0.690225 -2.454705
v 2.886226 -0.690225 -2.404594
v 2.886226 -0.190225 -2.404594
v 2.844830 -0.190225 -2.454705
v 2.886226 -0.690225 -2.404594
v 2.942773 -0.690225 -2.386252
v 2.942773 -0.190225 -2.386252
v 2.886226 -0.190225 -2.404594
v 2.942773 -0.690225 -2.386252
v 2.999321 -0.690225 -2.404594
v 2.999321 -0.190225 -2.404594
v 2.942773 -0.190225 -2.386252
v 2.999321 -0.690225 -2.404594
v 3.040717 -0.690225 -2.454705
v 3.040717 -0.190225 -2.454705
v 2.999321 -0.190225 -2.404594
v 3.040717 -0.690225 -2.454705
v 3.055869 -0.690225 -2.523157
v 3.055869 -0.190225 -2.523157
v 3.040717 -0.190225 -2.454705
v 3.055869 -0.190225 -2.523157
v 3.040717 -0.190225 -2.591609
v 2.999321 -0.190225 -2.641720
v 2.942773 -0.190225 -2.660062
v 2.886226 -0.190225 -2.641720
v 2.844830 -0.190225 -2.591609
v 2.829678 -0.190225 -2.523157
v 2.844830 -0.190225 -2.454705
v 2.886226 -0.190225 -2.404594
v 2.942773 -0.190225 -2.386252
v 2.999321 -0.190225 -2.404594
v 3.040717 -0.190225 -2.454705
v 3.040717 -0.690225 -2.454705
v 2.999321 -0.690225 -2.404594
v 2.942773 -0.690225 -2.386252
v 2.886226 -0.690225 -2.404594
v 2.844830 -0.690225 -2.454705
v 2.829678 -0.690225 -2.523157
v 2.844830 -0.690225 -2.591609
v 2.886226 -0.690225 -2.641720
v 2.942773 -0.690225 -2.660062
v 2.999321 -0.690225 -2.641720
v 3.040717 -0.690225 -2.591609
v 3.055869 -0.690225 -2.523157
usemtl mat23

vn 1.000000 -0.000000 0.000000
vn 1.000000 -0.000000 0.000000
vn 1.000000 -0.000000 0.000000
vn 1.000000 -0.000000 0.000000
vn 0.866025 -0.000000 -0.500000
vn 0.866025 -0.000000 -0.500000
vn 0.866025 -0.000000 -0.500000
vn 0.866025 -0.000000 -0.500000
vn 0.500000 0.000000 -0.866025
vn 0.500000 0.000000 -0.866025
vn 0.500000 0.000000 -0.866025
vn 0.500000 0.000000 -0.866025
vn 0.000000 0.000000 -1.000000
vn 0.000000 0.000000 -1.000000
vn 0.000000 0.000000 -1.000000
vn 0.000000 0.000000 -1.000000
vn -0.500000 0.000000 -0.866025
vn -0.500000 0.000000 -0.866025
vn -0.500000 0.000000 -0.866025
vn -0.500000 0.000000 -0.866025
vn -0.866025 0.000000 -0.500000
vn -0.866025 0.000000 -0.500000
vn -0.866025 0.000000 -0.500000
vn -0.866025 0.000000 -0.500000
vn -1.000000 0.000000 0.000000
vn -1.000000 0.000000 0.000000
vn -1.000000 0.000000 0.000000
vn -1.000000 0.000000 0.000000
vn -0.866025 0.000000 0.500000
vn -0.866025 0.000000 0.500000
vn -0.866025 0.000000 0.500000
vn -0.866025 0.000000 0.500000
vn -0.500000 -0.000000 0.866025
vn -0.500000 -0.000000 0.866025
vn -0.500000 -0.000000 0.866025
vn -0.500000 -0.000000 0.866025
vn -0.000000 -0.000000 1.000000
vn -0.000000 -0.000000 1.000000
vn -0.000000 -0.000000 1.000000
vn -0.000000 -0.000000 1.000000
vn 0.500000 -0.000000 0.866025
vn 0.500000 -0.000000 0.866025
vn 0.500000 -0.000000 0.866025
vn 0.500000 -0.000000 0.866025
vn 0.866026 -0.000000 0.500000
vn 0.866026 -0.000000 0.500000
vn 0.866026 -0.000000 0.500000
vn 0.866026 -0.000000 0.500000
vn 0.000000 1.000000 0.000000
vn 0.000000 1.000000 0.000000
vn 0.000000 1.000000 0.000000
vn 0.000000 1.000000 0.000000
vn 0.000000 1.000000 0.000000
vn 0.000000 1.000000 0.000000
vn 0.000000 1.000000 0.000000
vn 0.000000 1.000000 0.000000
vn 0.000000 1.000000 0.000000
vn 0.000000 1.000000 0.000000
vn 0.000000 1.000000 0.000000
vn 0.000000 1.000000 0.000000
vn -0.000000 -1.000000 -0.000000
vn -0.000000 -1.000000 -0.000000
vn -0.000000 -1.000000 -0.000000
vn -0.000000 -1.000000 -0.000000
vn -0.000000 -1.000000 -0.000000
vn -0.000000 -1.000000 -0.000000
vn -0.000000 -1.000000 -0.000000
vn -0.000000 -1.000000 -0.000000
vn -0.000000 -1.000000 -0.000000
vn -0.000000 -1.000000 -0.000000
vn -0.000000 -1.000000 -0.000000
vn -0.000000 -1.000000 -0.000000

vt -0.144840 0.078177
vt -0.150411 0.082156
vt -0.121349 0.122842
vt -0.115778 0.118864
vt -0.002692 -0.023044
vt -0.008680 -0.025328
vt -0.026499 0.021390
vt -0.020510 0.023674
vt 0.102205 0.105549
vt 0.098785 0.100847
vt 0.058349 0.130257
vt 0.061769 0.134959
vt 0.136220 0.226440
vt 0.133691 0.221382
vt 0.088969 0.243743
vt 0.091498 0.248801
vt 0.152758 0.271494
vt 0.150129 0.266000
vt 0.105029 0.287587
vt 0.107658 0.293081
vt 0.161610 0.222442
vt 0.158096 0.216754
vt 0.115560 0.243034
vt 0.119074 0.248722
vt 0.144840 0.078177
vt 0.139270 0.074198
vt 0.110208 0.114885
vt 0.115778 0.118864
vt 0.000765 -0.022309
vt -0.005224 -0.020025
vt 0.012595 0.026693
vt 0.018583 0.024409
vt -0.103418 0.107216
vt -0.106838 0.111919
vt -0.066402 0.141328
vt -0.062982 0.136626
vt -0.136220 0.226440
vt -0.138749 0.231498
vt -0.094027 0.253859
vt -0.091498 0.248801
vt -0.151868 0.269634
vt -0.154497 0.275128
vt -0.109398 0.296715
vt -0.106768 0.291221
vt -0.160526 0.220687
vt -0.164040 0.226375
vt -0.121504 0.252655
vt -0.117990 0.246967
vt 0.061374 0.313680
vt 0.068330 0.314555
vt 0.074442 0.312342
vt 0.078071 0.307634
vt 0.078246 0.301692
vt 0.074919 0.296108
vt 0.068982 0.292379
vt 0.062026 0.291503
vt 0.055915 0.293716
vt 0.052285 0.298425
vt 0.052111 0.304367
vt 0.055438 0.309951
vt -0.055438 0.309951
vt -0.052111 0.304367
vt -0.052285 0.298425
vt -0.055915 0.293716
vt -0.062026 0.291503
vt -0.068982 0.292379
vt -0.074919 0.296108
vt -0.078246 0.301692
vt -0.078071 0.307634
vt -0.074442 0.312342
vt -0.068330 0.314555
vt -0.061374 0.313680
s off
f 1/1/1 2/2/2 3/3/3
f 1/1/1 3/3/3 4/4/4
f 5/5/5 6/6/6 7/7/7
f 5/5/5 7/7/7 8/8/8
f 9/9/9 10/10/10 11/11/11
f 9/9/9 11/11/11 12/12/12
f 13/13/13 14/14/14 15/15/15
f 13/13/13 15/15/15 16/16/16
f 17/17/17 18/18/18 19/19/19
f 17/17/17 19/19/19 20/20/20
f 21/21/21 22/22/22 23/23/23
f 21/21/21 23/23/23 24/24/24
f 25/25/25 26/26/26 27/27/27
f 25/25/25 27/27/27 28/28/28
f 29/29/29 30/30/30 31/31/31
f 29/29/29 31/31/31 32/32/32
f 33/33/33 34/34/34 35/35/35
f 33/33/33 35/35/35 36/36/36
f 37/37/37 38/38/38 39/39/39
f 37/37/37 39/39/39 40/40/40
f 41/41/41 42/42/42 43/43/43
f 41/41/41 43/43/43 44/44/44
f 45/45/45 46/46/46 47/47/47
f 45/45/45 47/47/47 48/48/48
f 49/49/49 50/50/50 51/51/51
f 49/49/49 51/51/51 52/52/52
f 49/49/49 52/52/52 53/53/53
f 49/49/49 53/53/53 54/54/54
f 49/49/49 54/54/54 55/55/55
f 49/49/49 55/55/55 56/56/56
f 49/49/49 56/56/56 57/57/57
f 49/49/49 57/57/57 58/58/58
f 49/49/49 58/58/58 59/59/59
f 49/49/49 59/59/59 60/60/60
f 61/61/61 62/62/62 63/63/63
f 61/61/61 63/63/63 64/64/64
f 61/61/61 64/64/64 65/65/65
f 61/61/61 65/65/65 66/66/66
f 61/61/61 66/66/66 67/67/67
f 61/61/61 67/67/67 68/68/68
f 61/61/61 68/68/68 69/69/69
f 61/61/61 69/69/69 70/70/70
f 61/61/61 70/70/70 71/71/71
f 61/61/61 71/71/71 72/72/72
