# Exported using automatic converter by Erwin Coumans
mtllib botlab.mtl
#object mesh22758161

v 3.468238 0.085489 0.009852
v 3.470917 0.085489 0.019852
v 3.470917 0.285489 0.019852
v 3.468238 0.285489 0.009852
v 3.470917 0.085489 0.019852
v 3.478238 0.085489 0.027172
v 3.478238 0.285489 0.027172
v 3.470917 0.285489 0.019852
v 3.478238 0.085489 0.027172
v 3.488238 0.085489 0.029852
v 3.488238 0.285489 0.029852
v 3.478238 0.285489 0.027172
v 3.488238 0.085489 0.029852
v 3.498238 0.085489 0.027172
v 3.498238 0.285489 0.027172
v 3.488238 0.285489 0.029852
v 3.498238 0.085489 0.027172
v 3.505558 0.085489 0.019852
v 3.505558 0.285489 0.019852
v 3.498238 0.285489 0.027172
v 3.505558 0.085489 0.019852
v 3.508238 0.085489 0.009852
v 3.508238 0.285489 0.009852
v 3.505558 0.285489 0.019852
v 3.508238 0.085489 0.009852
v 3.505558 0.085489 -0.000148
v 3.505558 0.285489 -0.000148
v 3.508238 0.285489 0.009852
v 3.505558 0.085489 -0.000148
v 3.498238 0.085489 -0.007469
v 3.498238 0.285489 -0.007469
v 3.505558 0.285489 -0.000148
v 3.498238 0.085489 -0.007469
v 3.488238 0.085489 -0.010148
v 3.488238 0.285489 -0.010148
v 3.498238 0.285489 -0.007469
v 3.488238 0.085489 -0.010148
v 3.478238 0.085489 -0.007469
v 3.478238 0.285489 -0.007469
v 3.488238 0.285489 -0.010148
v 3.478238 0.085489 -0.007469
v 3.470917 0.085489 -0.000148
v 3.470917 0.285489 -0.000148
v 3.478238 0.285489 -0.007469
v 3.470917 0.085489 -0.000148
v 3.468238 0.085489 0.009852
v 3.468238 0.285489 0.009852
v 3.470917 0.285489 -0.000148
v 3.468238 0.285489 0.009852
v 3.470917 0.285489 0.019852
v 3.478238 0.285489 0.027172
v 3.488238 0.285489 0.029852
v 3.498238 0.285489 0.027172
v 3.505558 0.285489 0.019852
v 3.508238 0.285489 0.009852
v 3.505558 0.285489 -0.000148
v 3.498238 0.285489 -0.007469
v 3.488238 0.285489 -0.010148
v 3.478238 0.285489 -0.007469
v 3.470917 0.285489 -0.000148
v 3.470917 0.085489 -0.000148
v 3.478238 0.085489 -0.007469
v 3.488238 0.085489 -0.010148
v 3.498238 0.085489 -0.007469
v 3.505558 0.085489 -0.000148
v 3.508238 0.085489 0.009852
v 3.505558 0.085489 0.019852
v 3.498238 0.085489 0.027172
v 3.488238 0.085489 0.029852
v 3.478238 0.085489 0.027172
v 3.470917 0.085489 0.019852
v 3.468238 0.085489 0.009852
usemtl mat22

vn -1.000000 -0.000000 -0.000000
vn -1.000000 -0.000000 -0.000000
vn -1.000000 -0.000000 -0.000000
vn -1.000000 -0.000000 -0.000000
vn -0.866025 -0.000000 0.500000
vn -0.866025 -0.000000 0.500000
vn -0.866025 -0.000000 0.500000
vn -0.866025 -0.000000 0.500000
vn -0.500000 -0.000000 0.866025
vn -0.500000 -0.000000 0.866025
vn -0.500000 -0.000000 0.866025
vn -0.500000 -0.000000 0.866025
vn -0.000000 0.000000 1.000000
vn -0.000000 0.000000 1.000000
vn -0.000000 0.000000 1.000000
vn -0.000000 0.000000 1.000000
vn 0.500000 0.000000 0.866025
vn 0.500000 0.000000 0.866025
vn 0.500000 0.000000 0.866025
vn 0.500000 0.000000 0.866025
vn 0.866025 0.000000 0.500000
vn 0.866025 0.000000 0.500000
vn 0.866025 0.000000 0.500000
vn 0.866025 0.000000 0.500000
vn 1.000000 0.000000 0.000000
vn 1.000000 0.000000 0.000000
vn 1.000000 0.000000 0.000000
vn 1.000000 0.000000 0.000000
vn 0.866025 0.000000 -0.500000
vn 0.866025 0.000000 -0.500000
vn 0.866025 0.000000 -0.500000
vn 0.866025 0.000000 -0.500000
vn 0.500000 0.000000 -0.866025
vn 0.500000 0.000000 -0.866025
vn 0.500000 0.000000 -0.866025
vn 0.500000 0.000000 -0.866025
vn 0.000000 -0.000000 -1.000000
vn 0.000000 -0.000000 -1.000000
vn 0.000000 -0.000000 -1.000000
vn 0.000000 -0.000000 -1.000000
vn -0.500000 -0.000000 -0.866026
vn -0.500000 -0.000000 -0.866026
vn -0.500000 -0.000000 -0.866026
vn -0.500000 -0.000000 -0.866026
vn -0.866026 -0.000000 -0.500000
vn -0.866026 -0.000000 -0.500000
vn -0.866026 -0.000000 -0.500000
vn -0.866026 -0.000000 -0.500000
vn -0.000000 1.000000 0.000000
vn -0.000000 1.000000 0.000000
vn -0.000000 1.000000 0.000000
vn -0.000000 1.000000 0.000000
vn -0.000000 1.000000 0.000000
vn -0.000000 1.000000 0.000000
vn -0.000000 1.000000 0.000000
vn -0.000000 1.000000 0.000000
vn -0.000000 1.000000 0.000000
vn -0.000000 1.000000 0.000000
vn -0.000000 1.000000 0.000000
vn -0.000000 1.000000 0.000000
vn 0.000000 -1.000000 0.000000
vn 0.000000 -1.000000 0.000000
vn 0.000000 -1.000000 0.000000
vn 0.000000 -1.000000 0.000000
vn 0.000000 -1.000000 0.000000
vn 0.000000 -1.000000 0.000000
vn 0.000000 -1.000000 0.000000
vn 0.000000 -1.000000 0.000000
vn 0.000000 -1.000000 0.000000
vn 0.000000 -1.000000 0.000000
vn 0.000000 -1.000000 0.000000
vn 0.000000 -1.000000 0.000000

vt -0.106367 -0.005929
vt -0.107180 -0.006510
vt -0.118805 0.009765
vt -0.117991 0.010346
vt -0.201073 0.137697
vt -0.202007 0.138053
vt -0.194880 0.156740
vt -0.193945 0.156383
vt -0.142359 0.292637
vt -0.142947 0.293446
vt -0.126773 0.305210
vt -0.126185 0.304401
vt -0.091232 0.309919
vt -0.091679 0.310813
vt -0.073790 0.319758
vt -0.073343 0.318863
vt -0.048058 0.232426
vt -0.048490 0.233328
vt -0.030450 0.241963
vt -0.030018 0.241061
vt 0.005888 0.098918
vt 0.005362 0.099768
vt 0.022377 0.110280
vt 0.022902 0.109430
vt 0.106367 -0.005929
vt 0.105553 -0.005347
vt 0.117178 0.010927
vt 0.117991 0.010346
vt 0.201073 0.137697
vt 0.200138 0.137340
vt 0.193011 0.156027
vt 0.193945 0.156383
vt 0.142359 0.292637
vt 0.141771 0.291828
vt 0.125597 0.303592
vt 0.126185 0.304401
vt 0.091232 0.309919
vt 0.090784 0.309025
vt 0.072896 0.317969
vt 0.073343 0.318863
vt 0.048058 0.232426
vt 0.047627 0.231524
vt 0.029587 0.240159
vt 0.030018 0.241061
vt -0.005888 0.098918
vt -0.006413 0.098067
vt -0.023428 0.108579
vt -0.022902 0.109430
vt -0.191039 0.267320
vt -0.192071 0.267236
vt -0.193007 0.267679
vt -0.193595 0.268531
vt -0.193679 0.269563
vt -0.193236 0.270499
vt -0.192384 0.271087
vt -0.191353 0.271171
vt -0.190417 0.270728
vt -0.189828 0.269876
vt -0.189744 0.268844
vt -0.190187 0.267909
vt 0.190187 0.267909
vt 0.189744 0.268844
vt 0.189828 0.269876
vt 0.190417 0.270728
vt 0.191353 0.271171
vt 0.192384 0.271087
vt 0.193236 0.270499
vt 0.193679 0.269563
vt 0.193595 0.268531
vt 0.193007 0.267679
vt 0.192071 0.267236
vt 0.191039 0.267320
s off
f 1/1/1 2/2/2 3/3/3
f 1/1/1 3/3/3 4/4/4
f 5/5/5 6/6/6 7/7/7
f 5/5/5 7/7/7 8/8/8
f 9/9/9 10/10/10 11/11/11
f 9/9/9 11/11/11 12/12/12
f 13/13/13 14/14/14 15/15/15
f 13/13/13 15/15/15 16/16/16
f 17/17/17 18/18/18 19/19/19
f 17/17/17 19/19/19 20/20/20
f 21/21/21 22/22/22 23/23/23
f 21/21/21 23/23/23 24/24/24
f 25/25/25 26/26/26 27/27/27
f 25/25/25 27/27/27 28/28/28
f 29/29/29 30/30/30 31/31/31
f 29/29/29 31/31/31 32/32/32
f 33/33/33 34/34/34 35/35/35
f 33/33/33 35/35/35 36/36/36
f 37/37/37 38/38/38 39/39/39
f 37/37/37 39/39/39 40/40/40
f 41/41/41 42/42/42 43/43/43
f 41/41/41 43/43/43 44/44/44
f 45/45/45 46/46/46 47/47/47
f 45/45/45 47/47/47 48/48/48
f 49/49/49 50/50/50 51/51/51
f 49/49/49 51/51/51 52/52/52
f 49/49/49 52/52/52 53/53/53
f 49/49/49 53/53/53 54/54/54
f 49/49/49 54/54/54 55/55/55
f 49/49/49 55/55/55 56/56/56
f 49/49/49 56/56/56 57/57/57
f 49/49/49 57/57/57 58/58/58
f 49/49/49 58/58/58 59/59/59
f 49/49/49 59/59/59 60/60/60
f 61/61/61 62/62/62 63/63/63
f 61/61/61 63/63/63 64/64/64
f 61/61/61 64/64/64 65/65/65
f 61/61/61 65/65/65 66/66/66
f 61/61/61 66/66/66 67/67/67
f 61/61/61 67/67/67 68/68/68
f 61/61/61 68/68/68 69/69/69
f 61/61/61 69/69/69 70/70/70
f 61/61/61 70/70/70 71/71/71
f 61/61/61 71/71/71 72/72/72
