# Exported using automatic converter by Erwin Coumans
mtllib botlab.mtl
#object mesh895625806

v -2.711762 -0.334511 2.339851
v -2.711762 -0.334511 2.289852
v -2.711762 -1.014511 2.289852
v -2.711762 -1.014511 2.339852
v -1.891762 -1.014511 2.289852
v -1.891762 -0.334511 2.289852
v -1.891762 -0.334511 2.339851
v -1.891762 -1.014511 2.339852
v -2.711762 -1.014511 2.289852
v -1.891762 -1.014511 2.289852
v -1.891762 -1.014511 2.339852
v -2.711762 -1.014511 2.339852
v -1.891762 -0.334511 2.339851
v -1.891762 -0.334511 2.289852
v -2.711762 -0.334511 2.289852
v -2.711762 -0.334511 2.339851
v -1.891762 -1.014511 2.339852
v -1.891762 -0.334511 2.339851
v -2.711762 -0.334511 2.339851
v -2.711762 -1.014511 2.339852
v -2.711762 -0.334511 2.289852
v -1.891762 -0.334511 2.289852
v -1.891762 -1.014511 2.289852
v -2.711762 -1.014511 2.289852
usemtl mat22

vn -1.000000 0.000000 -0.000000
vn -1.000000 0.000000 -0.000000
vn -1.000000 0.000000 -0.000000
vn -1.000000 0.000000 -0.000000
vn 1.000000 0.000000 0.000000
vn 1.000000 0.000000 0.000000
vn 1.000000 0.000000 0.000000
vn 1.000000 0.000000 0.000000
vn -0.000000 -1.000000 0.000000
vn -0.000000 -1.000000 0.000000
vn -0.000000 -1.000000 0.000000
vn -0.000000 -1.000000 0.000000
vn 0.000000 1.000000 -0.000000
vn 0.000000 1.000000 -0.000000
vn 0.000000 1.000000 -0.000000
vn 0.000000 1.000000 -0.000000
vn -0.000000 0.000000 1.000000
vn -0.000000 0.000000 1.000000
vn -0.000000 0.000000 1.000000
vn -0.000000 0.000000 1.000000
vn 0.000000 -0.000000 -1.000000
vn 0.000000 -0.000000 -1.000000
vn 0.000000 -0.000000 -1.000000
vn 0.000000 -0.000000 -1.000000

vt -0.271554 -0.175534
vt -0.267486 -0.172628
vt -0.227962 -0.227962
vt -0.232030 -0.230868
vt 0.227962 -0.227962
vt 0.267486 -0.172628
vt 0.271554 -0.175534
vt 0.232030 -0.230868
vt 0.197900 -0.391361
vt 0.225480 -0.314138
vt 0.230189 -0.315820
vt 0.202609 -0.393043
vt -0.230189 -0.315820
vt -0.225480 -0.314138
vt -0.197900 -0.391361
vt -0.202609 -0.393043
vt 0.050982 -0.220476
vt 0.111803 -0.190066
vt 0.148475 -0.263409
vt 0.087654 -0.293819
vt -0.148475 -0.263409
vt -0.111803 -0.190066
vt -0.050982 -0.220476
vt -0.087654 -0.293819
s off
f 1/1/1 2/2/2 3/3/3
f 1/1/1 3/3/3 4/4/4
f 5/5/5 6/6/6 7/7/7
f 5/5/5 7/7/7 8/8/8
f 9/9/9 10/10/10 11/11/11
f 9/9/9 11/11/11 12/12/12
f 13/13/13 14/14/14 15/15/15
f 13/13/13 15/15/15 16/16/16
f 17/17/17 18/18/18 19/19/19
f 17/17/17 19/19/19 20/20/20
f 21/21/21 22/22/22 23/23/23
f 21/21/21 23/23/23 24/24/24
