# Exported using automatic converter by Erwin Coumans
mtllib botlab.mtl
#object mesh49783803

v 0.170869 0.474963 -1.195411
v 0.157185 0.474963 -1.195411
v 0.157185 0.488647 -1.195411
v 0.170869 0.488647 -1.195411
v 0.157185 0.478647 -0.933832
v 0.157185 0.464963 -0.933832
v 0.170869 0.464963 -0.933832
v 0.170869 0.478647 -0.933832
v 0.157185 0.488647 -1.195411
v 0.157185 0.478647 -0.933832
v 0.170869 0.478647 -0.933832
v 0.170869 0.488647 -1.195411
v 0.170869 0.464963 -0.933832
v 0.157185 0.464963 -0.933832
v 0.157185 0.474963 -1.195411
v 0.170869 0.474963 -1.195411
v 0.170869 0.478647 -0.933832
v 0.170869 0.464963 -0.933832
v 0.170869 0.474963 -1.195411
v 0.170869 0.488647 -1.195411
v 0.157185 0.474963 -1.195411
v 0.157185 0.464963 -0.933832
v 0.157185 0.478647 -0.933832
v 0.157185 0.488647 -1.195411
v 0.290343 0.454963 -0.941201
v 0.167185 0.454963 -0.941201
v 0.167185 0.475489 -0.941201
v 0.290343 0.475489 -0.941201
v 0.167185 0.475489 -0.913832
v 0.167185 0.454963 -0.913832
v 0.290343 0.454963 -0.913832
v 0.290343 0.475489 -0.913832
v 0.167185 0.475489 -0.941201
v 0.167185 0.475489 -0.913832
v 0.290343 0.475489 -0.913832
v 0.290343 0.475489 -0.941201
v 0.290343 0.454963 -0.913832
v 0.167185 0.454963 -0.913832
v 0.167185 0.454963 -0.941201
v 0.290343 0.454963 -0.941201
v 0.290343 0.475489 -0.913832
v 0.290343 0.454963 -0.913832
v 0.290343 0.454963 -0.941201
v 0.290343 0.475489 -0.941201
v 0.167185 0.454963 -0.941201
v 0.167185 0.454963 -0.913832
v 0.167185 0.475489 -0.913832
v 0.167185 0.475489 -0.941201
v 0.287185 0.474963 -1.195411
v 0.157185 0.474963 -1.195412
v 0.157185 0.488647 -1.195411
v 0.287185 0.488647 -1.195411
v 0.157185 0.488647 -1.174885
v 0.157185 0.474963 -1.174885
v 0.287185 0.474963 -1.174885
v 0.287185 0.488647 -1.174885
v 0.157185 0.488647 -1.195411
v 0.157185 0.488647 -1.174885
v 0.287185 0.488647 -1.174885
v 0.287185 0.488647 -1.195411
v 0.287185 0.474963 -1.174885
v 0.157185 0.474963 -1.174885
v 0.157185 0.474963 -1.195412
v 0.287185 0.474963 -1.195411
v 0.287185 0.488647 -1.174885
v 0.287185 0.474963 -1.174885
v 0.287185 0.474963 -1.195411
v 0.287185 0.488647 -1.195411
v 0.157185 0.474963 -1.195412
v 0.157185 0.474963 -1.174885
v 0.157185 0.488647 -1.174885
v 0.157185 0.488647 -1.195411
v 0.294027 0.474963 -1.195411
v 0.280343 0.474963 -1.195411
v 0.280343 0.495489 -1.195411
v 0.294027 0.495489 -1.195411
v 0.280343 0.485489 -0.926990
v 0.280343 0.464963 -0.926990
v 0.294027 0.464963 -0.926990
v 0.294027 0.485489 -0.926990
v 0.280343 0.495489 -1.195411
v 0.280343 0.485489 -0.926990
v 0.294027 0.485489 -0.926990
v 0.294027 0.495489 -1.195411
v 0.294027 0.464963 -0.926990
v 0.280343 0.464963 -0.926990
v 0.280343 0.474963 -1.195411
v 0.294027 0.474963 -1.195411
v 0.294027 0.485489 -0.926990
v 0.294027 0.464963 -0.926990
v 0.294027 0.474963 -1.195411
v 0.294027 0.495489 -1.195411
v 0.280343 0.474963 -1.195411
v 0.280343 0.464963 -0.926990
v 0.280343 0.485489 -0.926990
v 0.280343 0.495489 -1.195411
usemtl mat23

vn -0.000000 0.000000 -1.000000
vn -0.000000 0.000000 -1.000000
vn -0.000000 0.000000 -1.000000
vn -0.000000 0.000000 -1.000000
vn 0.000000 -0.000000 1.000000
vn 0.000000 -0.000000 1.000000
vn 0.000000 -0.000000 1.000000
vn 0.000000 -0.000000 1.000000
vn -0.000000 0.999270 0.038201
vn -0.000000 0.999270 0.038201
vn -0.000000 0.999270 0.038201
vn -0.000000 0.999270 0.038201
vn -0.000000 -0.999270 -0.038201
vn -0.000000 -0.999270 -0.038201
vn -0.000000 -0.999270 -0.038201
vn -0.000000 -0.999270 -0.038201
vn 1.000000 -0.000000 -0.000000
vn 1.000000 -0.000000 -0.000000
vn 1.000000 -0.000000 -0.000000
vn 1.000000 -0.000000 -0.000000
vn -1.000000 0.000000 0.000000
vn -1.000000 0.000000 0.000000
vn -1.000000 0.000000 0.000000
vn -1.000000 0.000000 0.000000
vn -0.000000 0.000000 -1.000000
vn -0.000000 0.000000 -1.000000
vn -0.000000 0.000000 -1.000000
vn -0.000000 0.000000 -1.000000
vn 0.000000 -0.000000 1.000000
vn 0.000000 -0.000000 1.000000
vn 0.000000 -0.000000 1.000000
vn 0.000000 -0.000000 1.000000
vn 0.000000 1.000000 0.000000
vn 0.000000 1.000000 0.000000
vn 0.000000 1.000000 0.000000
vn 0.000000 1.000000 0.000000
vn -0.000000 -1.000000 -0.000000
vn -0.000000 -1.000000 -0.000000
vn -0.000000 -1.000000 -0.000000
vn -0.000000 -1.000000 -0.000000
vn 1.000000 -0.000000 -0.000000
vn 1.000000 -0.000000 -0.000000
vn 1.000000 -0.000000 -0.000000
vn 1.000000 -0.000000 -0.000000
vn -1.000000 0.000000 0.000000
vn -1.000000 0.000000 0.000000
vn -1.000000 0.000000 0.000000
vn -1.000000 0.000000 0.000000
vn -0.000000 0.000000 -1.000000
vn -0.000000 0.000000 -1.000000
vn -0.000000 0.000000 -1.000000
vn -0.000000 0.000000 -1.000000
vn 0.000000 -0.000000 1.000000
vn 0.000000 -0.000000 1.000000
vn 0.000000 -0.000000 1.000000
vn 0.000000 -0.000000 1.000000
vn 0.000000 1.000000 0.000000
vn 0.000000 1.000000 0.000000
vn 0.000000 1.000000 0.000000
vn 0.000000 1.000000 0.000000
vn -0.000000 -1.000000 -0.000000
vn -0.000000 -1.000000 -0.000000
vn -0.000000 -1.000000 -0.000000
vn -0.000000 -1.000000 -0.000000
vn 1.000000 -0.000000 -0.000000
vn 1.000000 -0.000000 -0.000000
vn 1.000000 -0.000000 -0.000000
vn 1.000000 -0.000000 -0.000000
vn -1.000000 0.000000 0.000000
vn -1.000000 0.000000 0.000000
vn -1.000000 0.000000 0.000000
vn -1.000000 0.000000 0.000000
vn -0.000000 0.000000 -1.000000
vn -0.000000 0.000000 -1.000000
vn -0.000000 0.000000 -1.000000
vn -0.000000 0.000000 -1.000000
vn 0.000000 -0.000000 1.000000
vn 0.000000 -0.000000 1.000000
vn 0.000000 -0.000000 1.000000
vn 0.000000 -0.000000 1.000000
vn -0.000000 0.999307 0.037229
vn -0.000000 0.999307 0.037229
vn -0.000000 0.999307 0.037229
vn -0.000000 0.999307 0.037229
vn 0.000000 -0.999307 -0.037229
vn 0.000000 -0.999307 -0.037229
vn 0.000000 -0.999307 -0.037229
vn 0.000000 -0.999307 -0.037229
vn 1.000000 -0.000000 -0.000000
vn 1.000000 -0.000000 -0.000000
vn 1.000000 -0.000000 -0.000000
vn 1.000000 -0.000000 -0.000000
vn -1.000000 0.000000 0.000000
vn -1.000000 0.000000 0.000000
vn -1.000000 0.000000 0.000000
vn -1.000000 0.000000 0.000000

vt -0.091961 0.030622
vt -0.092573 0.029398
vt -0.093797 0.030010
vt -0.093185 0.031234
vt 0.092903 0.029563
vt 0.091679 0.028951
vt 0.091067 0.030175
vt 0.092291 0.030787
vt 0.037348 -0.002095
vt 0.012846 -0.011308
vt 0.012364 -0.010027
vt 0.036867 -0.000814
vt -0.012315 -0.010045
vt -0.012797 -0.011326
vt -0.037299 -0.002114
vt -0.036818 -0.000833
vt 0.052428 0.080914
vt 0.051632 0.079801
vt 0.030928 0.095819
vt 0.031723 0.096932
vt -0.030928 0.095819
vt -0.051632 0.079801
vt -0.052428 0.080914
vt -0.031723 0.096932
vt -0.084829 0.040414
vt -0.090337 0.029398
vt -0.092173 0.030316
vt -0.086665 0.041332
vt 0.092173 0.030316
vt 0.090337 0.029398
vt 0.084829 0.040414
vt 0.086665 0.041332
vt 0.009552 -0.011566
vt 0.006975 -0.012487
vt 0.002832 -0.000889
vt 0.005410 0.000032
vt -0.002832 -0.000889
vt -0.006975 -0.012487
vt -0.009552 -0.011566
vt -0.005410 0.000032
vt 0.053872 0.079495
vt 0.052679 0.077825
vt 0.050451 0.079415
vt 0.051645 0.081086
vt -0.050451 0.079415
vt -0.052679 0.077825
vt -0.053872 0.079495
vt -0.051645 0.081086
vt -0.086759 0.041026
vt -0.092573 0.029398
vt -0.093797 0.030010
vt -0.087983 0.041638
vt 0.093797 0.030010
vt 0.092573 0.029398
vt 0.086759 0.041026
vt 0.087983 0.041638
vt 0.033828 -0.003958
vt 0.031895 -0.004649
vt 0.027523 0.007594
vt 0.029456 0.008285
vt -0.027523 0.007594
vt -0.031895 -0.004649
vt -0.033828 -0.003958
vt -0.029456 0.008285
vt 0.033394 0.095739
vt 0.032598 0.094626
vt 0.030928 0.095819
vt 0.031723 0.096932
vt -0.030928 0.095819
vt -0.032598 0.094626
vt -0.033394 0.095739
vt -0.031723 0.096932
vt -0.086453 0.041638
vt -0.087065 0.040414
vt -0.088901 0.041332
vt -0.088289 0.042556
vt 0.088007 0.040885
vt 0.086171 0.039967
vt 0.085559 0.041191
vt 0.087395 0.042109
vt 0.032954 0.009395
vt 0.007808 -0.000048
vt 0.007327 0.001233
vt 0.032473 0.010676
vt -0.007255 0.001207
vt -0.007736 -0.000075
vt -0.032883 0.009368
vt -0.032402 0.010649
vt 0.053382 0.081074
vt 0.052189 0.079403
vt 0.030928 0.095819
vt 0.032121 0.097489
vt -0.030928 0.095819
vt -0.052189 0.079403
vt -0.053382 0.081074
vt -0.032121 0.097489
s off
f 1/1/1 2/2/2 3/3/3
f 1/1/1 3/3/3 4/4/4
f 5/5/5 6/6/6 7/7/7
f 5/5/5 7/7/7 8/8/8
f 9/9/9 10/10/10 11/11/11
f 9/9/9 11/11/11 12/12/12
f 13/13/13 14/14/14 15/15/15
f 13/13/13 15/15/15 16/16/16
f 17/17/17 18/18/18 19/19/19
f 17/17/17 19/19/19 20/20/20
f 21/21/21 22/22/22 23/23/23
f 21/21/21 23/23/23 24/24/24
f 25/25/25 26/26/26 27/27/27
f 25/25/25 27/27/27 28/28/28
f 29/29/29 30/30/30 31/31/31
f 29/29/29 31/31/31 32/32/32
f 33/33/33 34/34/34 35/35/35
f 33/33/33 35/35/35 36/36/36
f 37/37/37 38/38/38 39/39/39
f 37/37/37 39/39/39 40/40/40
f 41/41/41 42/42/42 43/43/43
f 41/41/41 43/43/43 44/44/44
f 45/45/45 46/46/46 47/47/47
f 45/45/45 47/47/47 48/48/48
f 49/49/49 50/50/50 51/51/51
f 49/49/49 51/51/51 52/52/52
f 53/53/53 54/54/54 55/55/55
f 53/53/53 55/55/55 56/56/56
f 57/57/57 58/58/58 59/59/59
f 57/57/57 59/59/59 60/60/60
f 61/61/61 62/62/62 63/63/63
f 61/61/61 63/63/63 64/64/64
f 65/65/65 66/66/66 67/67/67
f 65/65/65 67/67/67 68/68/68
f 69/69/69 70/70/70 71/71/71
f 69/69/69 71/71/71 72/72/72
f 73/73/73 74/74/74 75/75/75
f 73/73/73 75/75/75 76/76/76
f 77/77/77 78/78/78 79/79/79
f 77/77/77 79/79/79 80/80/80
f 81/81/81 82/82/82 83/83/83
f 81/81/81 83/83/83 84/84/84
f 85/85/85 86/86/86 87/87/87
f 85/85/85 87/87/87 88/88/88
f 89/89/89 90/90/90 91/91/91
f 89/89/89 91/91/91 92/92/92
f 93/93/93 94/94/94 95/95/95
f 93/93/93 95/95/95 96/96/96
