# Exported using automatic converter by Erwin Coumans
mtllib botlab.mtl
#object mesh1419588478

v -2.011762 0.005489 -3.380148
v -2.011762 0.025489 -3.380148
v -2.011762 0.025489 -3.360148
v -2.011762 0.005489 -3.360148
v -2.121762 0.025489 -3.360148
v -2.121762 0.025489 -3.380148
v -2.121762 0.005489 -3.380148
v -2.121762 0.005489 -3.360148
v -2.011762 0.025489 -3.360148
v -2.121762 0.025489 -3.360148
v -2.121762 0.005489 -3.360148
v -2.011762 0.005489 -3.360148
v -2.121762 0.005489 -3.380148
v -2.121762 0.025489 -3.380148
v -2.011762 0.025489 -3.380148
v -2.011762 0.005489 -3.380148
v -2.121762 0.005489 -3.360148
v -2.121762 0.005489 -3.380148
v -2.011762 0.005489 -3.380148
v -2.011762 0.005489 -3.360148
v -2.011762 0.025489 -3.380148
v -2.121762 0.025489 -3.380148
v -2.121762 0.025489 -3.360148
v -2.011762 0.025489 -3.360148
usemtl mat23

vn 1.000000 0.000000 0.000000
vn 1.000000 0.000000 0.000000
vn 1.000000 0.000000 0.000000
vn 1.000000 0.000000 0.000000
vn -1.000000 0.000000 -0.000000
vn -1.000000 0.000000 -0.000000
vn -1.000000 0.000000 -0.000000
vn -1.000000 0.000000 -0.000000
vn -0.000000 0.000000 1.000000
vn -0.000000 0.000000 1.000000
vn -0.000000 0.000000 1.000000
vn -0.000000 0.000000 1.000000
vn 0.000000 -0.000000 -1.000000
vn 0.000000 -0.000000 -1.000000
vn 0.000000 -0.000000 -1.000000
vn 0.000000 -0.000000 -1.000000
vn 0.000000 -1.000000 0.000000
vn 0.000000 -1.000000 0.000000
vn 0.000000 -1.000000 0.000000
vn 0.000000 -1.000000 0.000000
vn 0.000000 1.000000 -0.000000
vn 0.000000 1.000000 -0.000000
vn 0.000000 1.000000 -0.000000
vn 0.000000 1.000000 -0.000000

vt -0.174139 0.184601
vt -0.172976 0.186229
vt -0.171349 0.185066
vt -0.172511 0.183439
vt 0.171349 0.185066
vt 0.172976 0.186229
vt 0.174139 0.184601
vt 0.172511 0.183439
vt 0.149369 -0.184699
vt 0.154289 -0.194538
vt 0.152500 -0.195432
vt 0.147581 -0.185594
vt -0.152500 -0.195432
vt -0.154289 -0.194538
vt -0.149369 -0.184699
vt -0.147581 -0.185594
vt -0.314340 -0.145768
vt -0.316224 -0.145096
vt -0.312524 -0.134736
vt -0.310640 -0.135409
vt 0.312524 -0.134736
vt 0.316224 -0.145096
vt 0.314340 -0.145768
vt 0.310640 -0.135409
s off
f 1/1/1 2/2/2 3/3/3
f 1/1/1 3/3/3 4/4/4
f 5/5/5 6/6/6 7/7/7
f 5/5/5 7/7/7 8/8/8
f 9/9/9 10/10/10 11/11/11
f 9/9/9 11/11/11 12/12/12
f 13/13/13 14/14/14 15/15/15
f 13/13/13 15/15/15 16/16/16
f 17/17/17 18/18/18 19/19/19
f 17/17/17 19/19/19 20/20/20
f 21/21/21 22/22/22 23/23/23
f 21/21/21 23/23/23 24/24/24
