# Exported using automatic converter by Erwin Coumans
mtllib botlab.mtl
#object mesh951562081

v -1.451762 1.045489 -0.040148
v -1.451762 1.045489 -0.060148
v -1.451762 0.535489 -0.060148
v -1.451762 0.535489 -0.040148
v -1.431762 0.535489 -0.060148
v -1.431762 1.045489 -0.060148
v -1.431762 1.045489 -0.040148
v -1.431762 0.535489 -0.040148
v -1.451762 0.535489 -0.060148
v -1.431762 0.535489 -0.060148
v -1.431762 0.535489 -0.040148
v -1.451762 0.535489 -0.040148
v -1.431762 1.045489 -0.040148
v -1.431762 1.045489 -0.060148
v -1.451762 1.045489 -0.060148
v -1.451762 1.045489 -0.040148
v -1.431762 0.535489 -0.040148
v -1.431762 1.045489 -0.040148
v -1.451762 1.045489 -0.040148
v -1.451762 0.535489 -0.040148
v -1.451762 1.045489 -0.060148
v -1.431762 1.045489 -0.060148
v -1.431762 0.535489 -0.060148
v -1.451762 0.535489 -0.060148
usemtl mat15

vn -1.000000 0.000000 -0.000000
vn -1.000000 0.000000 -0.000000
vn -1.000000 0.000000 -0.000000
vn -1.000000 0.000000 -0.000000
vn 1.000000 0.000000 0.000000
vn 1.000000 0.000000 0.000000
vn 1.000000 0.000000 0.000000
vn 1.000000 0.000000 0.000000
vn 0.000000 -1.000000 0.000000
vn 0.000000 -1.000000 0.000000
vn 0.000000 -1.000000 0.000000
vn 0.000000 -1.000000 0.000000
vn 0.000000 1.000000 0.000000
vn 0.000000 1.000000 0.000000
vn 0.000000 1.000000 0.000000
vn 0.000000 1.000000 0.000000
vn -0.000000 0.000000 1.000000
vn -0.000000 0.000000 1.000000
vn -0.000000 0.000000 1.000000
vn -0.000000 0.000000 1.000000
vn 0.000000 0.000000 -1.000000
vn 0.000000 0.000000 -1.000000
vn 0.000000 0.000000 -1.000000
vn 0.000000 0.000000 -1.000000

vt -0.158097 0.075096
vt -0.156469 0.076258
vt -0.126826 0.034758
vt -0.128454 0.033596
vt 0.126826 0.034758
vt 0.156469 0.076258
vt 0.158097 0.075096
vt 0.128454 0.033596
vt 0.018969 -0.193662
vt 0.019642 -0.191779
vt 0.021526 -0.192452
vt 0.020853 -0.194335
vt -0.021526 -0.192452
vt -0.019642 -0.191779
vt -0.018969 -0.193662
vt -0.020853 -0.194335
vt 0.169047 -0.110014
vt 0.214663 -0.087207
vt 0.215557 -0.088996
vt 0.169941 -0.111803
vt -0.215557 -0.088996
vt -0.214663 -0.087207
vt -0.169047 -0.110014
vt -0.169941 -0.111803
s off
f 1/1/1 2/2/2 3/3/3
f 1/1/1 3/3/3 4/4/4
f 5/5/5 6/6/6 7/7/7
f 5/5/5 7/7/7 8/8/8
f 9/9/9 10/10/10 11/11/11
f 9/9/9 11/11/11 12/12/12
f 13/13/13 14/14/14 15/15/15
f 13/13/13 15/15/15 16/16/16
f 17/17/17 18/18/18 19/19/19
f 17/17/17 19/19/19 20/20/20
f 21/21/21 22/22/22 23/23/23
f 21/21/21 23/23/23 24/24/24
