# Exported using automatic converter by Erwin Coumans
mtllib botlab.mtl
#object mesh1265503373

v 1.244199 1.840673 -0.589035
v 1.253888 1.848122 -0.596151
v 0.945315 2.039562 -0.598929
v 0.935487 2.032251 -0.591861
v 1.253888 1.848122 -0.596151
v 1.250331 1.841371 -0.608059
v 0.942713 2.031867 -0.610506
v 0.945315 2.039562 -0.598929
v 1.250331 1.841371 -0.608059
v 1.240642 1.833923 -0.600942
v 0.932885 2.024556 -0.603437
v 0.942713 2.031867 -0.610506
v 1.240642 1.833923 -0.600942
v 1.244199 1.840673 -0.589035
v 0.935487 2.032251 -0.591861
v 0.932885 2.024556 -0.603437
v 1.240642 1.833923 -0.600942
v 1.250331 1.841371 -0.608059
v 1.253888 1.848122 -0.596151
v 1.244199 1.840673 -0.589035
v 0.935487 2.032251 -0.591861
v 0.945315 2.039562 -0.598929
v 0.942713 2.031867 -0.610506
v 0.932885 2.024556 -0.603437
usemtl mat23

vn 0.273636 0.453411 0.848258
vn 0.273636 0.453411 0.848258
vn 0.273636 0.453411 0.848258
vn 0.273636 0.453411 0.848258
vn 0.442972 0.707125 -0.551135
vn 0.442972 0.707125 -0.551135
vn 0.442972 0.707125 -0.551135
vn 0.442972 0.707125 -0.551135
vn -0.273856 -0.453171 -0.848315
vn -0.273856 -0.453171 -0.848315
vn -0.273856 -0.453171 -0.848315
vn -0.273856 -0.453171 -0.848315
vn -0.443120 -0.707039 0.551127
vn -0.443120 -0.707039 0.551127
vn -0.443120 -0.707039 0.551127
vn -0.443120 -0.707039 0.551127
vn 0.683654 -0.703390 0.194572
vn 0.683654 -0.703390 0.194572
vn 0.683654 -0.703390 0.194572
vn 0.683654 -0.703390 0.194572
vn -0.695147 0.660797 -0.283051
vn -0.695147 0.660797 -0.283051
vn -0.695147 0.660797 -0.283051
vn -0.695147 0.660797 -0.283051

vt 0.134465 0.145374
vt 0.134778 0.146753
vt 0.166138 0.128441
vt 0.165845 0.127058
vt -0.165980 0.018122
vt -0.164644 0.017659
vt -0.177561 -0.016140
vt -0.178934 -0.015804
vt -0.134775 0.146759
vt -0.134462 0.145380
vt -0.165707 0.127095
vt -0.166000 0.128479
vt 0.164773 0.017232
vt 0.166109 0.017695
vt 0.179072 -0.016248
vt 0.177698 -0.016584
vt 0.127887 0.195310
vt 0.127652 0.196705
vt 0.129047 0.196939
vt 0.129281 0.195544
vt -0.148400 0.181898
vt -0.148198 0.183298
vt -0.146798 0.183095
vt -0.147001 0.181696
s off
f 1/1/1 2/2/2 3/3/3
f 1/1/1 3/3/3 4/4/4
f 5/5/5 6/6/6 7/7/7
f 5/5/5 7/7/7 8/8/8
f 9/9/9 10/10/10 11/11/11
f 9/9/9 11/11/11 12/12/12
f 13/13/13 14/14/14 15/15/15
f 13/13/13 15/15/15 16/16/16
f 17/17/17 18/18/18 19/19/19
f 17/17/17 19/19/19 20/20/20
f 21/21/21 22/22/22 23/23/23
f 21/21/21 23/23/23 24/24/24
